  0
SECTION
  2
HEADER
  9
$ACADVER
  1
AC1027
  9
$ACADMAINTVER
 70
105
  9
$DWGCODEPAGE
  3
ANSI_1252
  9
$LASTSAVEDBY
  1
ezdxf
  9
$REQUIREDVERSIONS
160
0
  9
$INSBASE
 10
0.0
 20
0.0
 30
0.0
  9
$EXTMIN
 10
1e+20
 20
1e+20
 30
1e+20
  9
$EXTMAX
 10
-1e+20
 20
-1e+20
 30
-1e+20
  9
$LIMMIN
 10
0.0
 20
0.0
  9
$LIMMAX
 10
420.0
 20
297.0
  9
$ORTHOMODE
 70
0
  9
$REGENMODE
 70
1
  9
$FILLMODE
 70
1
  9
$QTEXTMODE
 70
0
  9
$MIRRTEXT
 70
1
  9
$LTSCALE
 40
1.0
  9
$ATTMODE
 70
1
  9
$TEXTSIZE
 40
2.5
  9
$TRACEWID
 40
1.0
  9
$TEXTSTYLE
  7
Standard
  9
$CLAYER
  8
0
  9
$CELTYPE
  6
ByLayer
  9
$CECOLOR
 62
256
  9
$CELTSCALE
 40
1.0
  9
$DISPSILH
 70
0
  9
$DIMSCALE
 40
1.0
  9
$DIMASZ
 40
2.5
  9
$DIMEXO
 40
0.625
  9
$DIMDLI
 40
3.75
  9
$DIMRND
 40
0.0
  9
$DIMDLE
 40
0.0
  9
$DIMEXE
 40
1.25
  9
$DIMTP
 40
0.0
  9
$DIMTM
 40
0.0
  9
$DIMTXT
 40
2.5
  9
$DIMCEN
 40
2.5
  9
$DIMTSZ
 40
0.0
  9
$DIMTOL
 70
0
  9
$DIMLIM
 70
0
  9
$DIMTIH
 70
0
  9
$DIMTOH
 70
0
  9
$DIMSE1
 70
0
  9
$DIMSE2
 70
0
  9
$DIMTAD
 70
1
  9
$DIMZIN
 70
8
  9
$DIMBLK
  1

  9
$DIMASO
 70
1
  9
$DIMSHO
 70
1
  9
$DIMPOST
  1

  9
$DIMAPOST
  1

  9
$DIMALT
 70
0
  9
$DIMALTD
 70
3
  9
$DIMALTF
 40
0.03937007874
  9
$DIMLFAC
 40
1.0
  9
$DIMTOFL
 70
1
  9
$DIMTVP
 40
0.0
  9
$DIMTIX
 70
0
  9
$DIMSOXD
 70
0
  9
$DIMSAH
 70
0
  9
$DIMBLK1
  1

  9
$DIMBLK2
  1

  9
$DIMSTYLE
  2
ISO-25
  9
$DIMCLRD
 70
0
  9
$DIMCLRE
 70
0
  9
$DIMCLRT
 70
0
  9
$DIMTFAC
 40
1.0
  9
$DIMGAP
 40
0.625
  9
$DIMJUST
 70
0
  9
$DIMSD1
 70
0
  9
$DIMSD2
 70
0
  9
$DIMTOLJ
 70
0
  9
$DIMTZIN
 70
8
  9
$DIMALTZ
 70
0
  9
$DIMALTTZ
 70
0
  9
$DIMUPT
 70
0
  9
$DIMDEC
 70
2
  9
$DIMTDEC
 70
2
  9
$DIMALTU
 70
2
  9
$DIMALTTD
 70
3
  9
$DIMTXSTY
  7
Standard
  9
$DIMAUNIT
 70
0
  9
$DIMADEC
 70
0
  9
$DIMALTRND
 40
0.0
  9
$DIMAZIN
 70
0
  9
$DIMDSEP
 70
44
  9
$DIMATFIT
 70
3
  9
$DIMFRAC
 70
0
  9
$DIMLDRBLK
  1

  9
$DIMLUNIT
 70
2
  9
$DIMLWD
 70
-2
  9
$DIMLWE
 70
-2
  9
$DIMTMOVE
 70
0
  9
$DIMFXL
 40
1.0
  9
$DIMFXLON
 70
0
  9
$DIMJOGANG
 40
0.785398163397
  9
$DIMTFILL
 70
0
  9
$DIMTFILLCLR
 70
0
  9
$DIMARCSYM
 70
0
  9
$DIMLTYPE
  6

  9
$DIMLTEX1
  6

  9
$DIMLTEX2
  6

  9
$DIMTXTDIRECTION
 70
0
  9
$LUNITS
 70
2
  9
$LUPREC
 70
4
  9
$SKETCHINC
 40
1.0
  9
$FILLETRAD
 40
10.0
  9
$AUNITS
 70
0
  9
$AUPREC
 70
2
  9
$MENU
  1
.
  9
$ELEVATION
 40
0.0
  9
$PELEVATION
 40
0.0
  9
$THICKNESS
 40
0.0
  9
$LIMCHECK
 70
0
  9
$CHAMFERA
 40
0.0
  9
$CHAMFERB
 40
0.0
  9
$CHAMFERC
 40
0.0
  9
$CHAMFERD
 40
0.0
  9
$SKPOLY
 70
0
  9
$TDCREATE
 40
2460329.663136574
  9
$TDUCREATE
 40
2458532.153996898
  9
$TDUPDATE
 40
2460329.663136574
  9
$TDUUPDATE
 40
2458532.1544311
  9
$TDINDWG
 40
0.0
  9
$TDUSRTIMER
 40
0.0
  9
$USRTIMER
 70
1
  9
$ANGBASE
 50
0.0
  9
$ANGDIR
 70
0
  9
$PDMODE
 70
0
  9
$PDSIZE
 40
0.0
  9
$PLINEWID
 40
0.0
  9
$SPLFRAME
 70
0
  9
$SPLINETYPE
 70
6
  9
$SPLINESEGS
 70
8
  9
$HANDSEED
  5
99
  9
$SURFTAB1
 70
6
  9
$SURFTAB2
 70
6
  9
$SURFTYPE
 70
6
  9
$SURFU
 70
6
  9
$SURFV
 70
6
  9
$UCSBASE
  2

  9
$UCSNAME
  2

  9
$UCSORG
 10
0.0
 20
0.0
 30
0.0
  9
$UCSXDIR
 10
1.0
 20
0.0
 30
0.0
  9
$UCSYDIR
 10
0.0
 20
1.0
 30
0.0
  9
$UCSORTHOREF
  2

  9
$UCSORTHOVIEW
 70
0
  9
$UCSORGTOP
 10
0.0
 20
0.0
 30
0.0
  9
$UCSORGBOTTOM
 10
0.0
 20
0.0
 30
0.0
  9
$UCSORGLEFT
 10
0.0
 20
0.0
 30
0.0
  9
$UCSORGRIGHT
 10
0.0
 20
0.0
 30
0.0
  9
$UCSORGFRONT
 10
0.0
 20
0.0
 30
0.0
  9
$UCSORGBACK
 10
0.0
 20
0.0
 30
0.0
  9
$PUCSBASE
  2

  9
$PUCSNAME
  2

  9
$PUCSORG
 10
0.0
 20
0.0
 30
0.0
  9
$PUCSXDIR
 10
1.0
 20
0.0
 30
0.0
  9
$PUCSYDIR
 10
0.0
 20
1.0
 30
0.0
  9
$PUCSORTHOREF
  2

  9
$PUCSORTHOVIEW
 70
0
  9
$PUCSORGTOP
 10
0.0
 20
0.0
 30
0.0
  9
$PUCSORGBOTTOM
 10
0.0
 20
0.0
 30
0.0
  9
$PUCSORGLEFT
 10
0.0
 20
0.0
 30
0.0
  9
$PUCSORGRIGHT
 10
0.0
 20
0.0
 30
0.0
  9
$PUCSORGFRONT
 10
0.0
 20
0.0
 30
0.0
  9
$PUCSORGBACK
 10
0.0
 20
0.0
 30
0.0
  9
$USERI1
 70
0
  9
$USERI2
 70
0
  9
$USERI3
 70
0
  9
$USERI4
 70
0
  9
$USERI5
 70
0
  9
$USERR1
 40
0.0
  9
$USERR2
 40
0.0
  9
$USERR3
 40
0.0
  9
$USERR4
 40
0.0
  9
$USERR5
 40
0.0
  9
$WORLDVIEW
 70
1
  9
$SHADEDGE
 70
3
  9
$SHADEDIF
 70
70
  9
$TILEMODE
 70
1
  9
$MAXACTVP
 70
64
  9
$PINSBASE
 10
0.0
 20
0.0
 30
0.0
  9
$PLIMCHECK
 70
0
  9
$PEXTMIN
 10
1e+20
 20
1e+20
 30
1e+20
  9
$PEXTMAX
 10
-1e+20
 20
-1e+20
 30
-1e+20
  9
$PLIMMIN
 10
0.0
 20
0.0
  9
$PLIMMAX
 10
420.0
 20
297.0
  9
$UNITMODE
 70
0
  9
$VISRETAIN
 70
1
  9
$PLINEGEN
 70
0
  9
$PSLTSCALE
 70
1
  9
$TREEDEPTH
 70
3020
  9
$CMLSTYLE
  2
Standard
  9
$CMLJUST
 70
0
  9
$CMLSCALE
 40
20.0
  9
$PROXYGRAPHICS
 70
1
  9
$MEASUREMENT
 70
1
  9
$CELWEIGHT
370
-1
  9
$ENDCAPS
280
0
  9
$JOINSTYLE
280
0
  9
$LWDISPLAY
290
0
  9
$INSUNITS
 70
6
  9
$HYPERLINKBASE
  1

  9
$STYLESHEET
  1

  9
$XEDIT
290
1
  9
$CEPSNTYPE
380
0
  9
$PSTYLEMODE
290
1
  9
$FINGERPRINTGUID
  2
{DCD3A7BF-3255-47D0-ADD7-B82883D0F93B}
  9
$VERSIONGUID
  2
{0775A904-B297-406C-A37E-8BFB12EEDA18}
  9
$EXTNAMES
290
1
  9
$PSVPSCALE
 40
0.0
  9
$OLESTARTUP
290
0
  9
$SORTENTS
280
127
  9
$INDEXCTL
280
0
  9
$HIDETEXT
280
1
  9
$XCLIPFRAME
280
0
  9
$HALOGAP
280
0
  9
$OBSCOLOR
 70
257
  9
$OBSLTYPE
280
0
  9
$INTERSECTIONDISPLAY
280
0
  9
$INTERSECTIONCOLOR
 70
257
  9
$DIMASSOC
280
2
  9
$PROJECTNAME
  1

  9
$CAMERADISPLAY
290
0
  9
$LENSLENGTH
 40
50.0
  9
$CAMERAHEIGHT
 40
0.0
  9
$STEPSPERSEC
 40
24.0
  9
$STEPSIZE
 40
100.0
  9
$3DDWFPREC
 40
2.0
  9
$PSOLWIDTH
 40
0.005
  9
$PSOLHEIGHT
 40
0.08
  9
$LOFTANG1
 40
1.570796326795
  9
$LOFTANG2
 40
1.570796326795
  9
$LOFTMAG1
 40
0.0
  9
$LOFTMAG2
 40
0.0
  9
$LOFTPARAM
 70
7
  9
$LOFTNORMALS
280
1
  9
$LATITUDE
 40
37.795
  9
$LONGITUDE
 40
-122.394
  9
$NORTHDIRECTION
 40
0.0
  9
$TIMEZONE
 70
-8000
  9
$LIGHTGLYPHDISPLAY
280
1
  9
$TILEMODELIGHTSYNCH
280
1
  9
$CMATERIAL
347
20
  9
$SOLIDHIST
280
0
  9
$SHOWHIST
280
1
  9
$DWFFRAME
280
2
  9
$DGNFRAME
280
2
  9
$REALWORLDSCALE
290
1
  9
$INTERFERECOLOR
 62
256
  9
$CSHADOW
280
0
  9
$SHADOWPLANELOCATION
 40
0.0
  0
ENDSEC
  0
SECTION
  2
CLASSES
  0
CLASS
  1
ACDBDICTIONARYWDFLT
  2
AcDbDictionaryWithDefault
  3
ObjectDBX Classes
 90
0
 91
0
280
0
281
0
  0
CLASS
  1
SUN
  2
AcDbSun
  3
SCENEOE
 90
1153
 91
0
280
0
281
0
  0
CLASS
  1
VISUALSTYLE
  2
AcDbVisualStyle
  3
ObjectDBX Classes
 90
4095
 91
0
280
0
281
0
  0
CLASS
  1
MATERIAL
  2
AcDbMaterial
  3
ObjectDBX Classes
 90
1153
 91
0
280
0
281
0
  0
CLASS
  1
SCALE
  2
AcDbScale
  3
ObjectDBX Classes
 90
1153
 91
0
280
0
281
0
  0
CLASS
  1
TABLESTYLE
  2
AcDbTableStyle
  3
ObjectDBX Classes
 90
4095
 91
0
280
0
281
0
  0
CLASS
  1
MLEADERSTYLE
  2
AcDbMLeaderStyle
  3
ACDB_MLEADERSTYLE_CLASS
 90
4095
 91
0
280
0
281
0
  0
CLASS
  1
DICTIONARYVAR
  2
AcDbDictionaryVar
  3
ObjectDBX Classes
 90
0
 91
0
280
0
281
0
  0
CLASS
  1
CELLSTYLEMAP
  2
AcDbCellStyleMap
  3
ObjectDBX Classes
 90
1152
 91
0
280
0
281
0
  0
CLASS
  1
MENTALRAYRENDERSETTINGS
  2
AcDbMentalRayRenderSettings
  3
SCENEOE
 90
1024
 91
0
280
0
281
0
  0
CLASS
  1
ACDBDETAILVIEWSTYLE
  2
AcDbDetailViewStyle
  3
ObjectDBX Classes
 90
1025
 91
0
280
0
281
0
  0
CLASS
  1
ACDBSECTIONVIEWSTYLE
  2
AcDbSectionViewStyle
  3
ObjectDBX Classes
 90
1025
 91
0
280
0
281
0
  0
CLASS
  1
RASTERVARIABLES
  2
AcDbRasterVariables
  3
ISM
 90
0
 91
0
280
0
281
0
  0
CLASS
  1
ACDBPLACEHOLDER
  2
AcDbPlaceHolder
  3
ObjectDBX Classes
 90
0
 91
0
280
0
281
0
  0
CLASS
  1
LAYOUT
  2
AcDbLayout
  3
ObjectDBX Classes
 90
0
 91
0
280
0
281
0
  0
ENDSEC
  0
SECTION
  2
TABLES
  0
TABLE
  2
VPORT
  5
8
330
0
100
AcDbSymbolTable
 70
1
  0
VPORT
  5
23
330
8
100
AcDbSymbolTableRecord
100
AcDbViewportTableRecord
  2
*Active
 70
0
 10
0.0
 20
0.0
 11
1.0
 21
1.0
 12
0.0
 22
0.0
 13
0.0
 23
0.0
 14
0.5
 24
0.5
 15
0.5
 25
0.5
 16
0.0
 26
0.0
 36
1.0
 17
0.0
 27
0.0
 37
0.0
 40
1000.0
 41
1.34
 42
50.0
 43
0.0
 44
0.0
 50
0.0
 51
0.0
 71
0
 72
1000
 73
1
 74
3
 75
0
 76
0
 77
0
 78
0
281
0
 65
0
146
0.0
  0
ENDTAB
  0
TABLE
  2
LTYPE
  5
2
330
0
100
AcDbSymbolTable
 70
3
  0
LTYPE
  5
24
330
2
100
AcDbSymbolTableRecord
100
AcDbLinetypeTableRecord
  2
ByBlock
 70
0
  3

 72
65
 73
0
 40
0.0
  0
LTYPE
  5
25
330
2
100
AcDbSymbolTableRecord
100
AcDbLinetypeTableRecord
  2
ByLayer
 70
0
  3

 72
65
 73
0
 40
0.0
  0
LTYPE
  5
26
330
2
100
AcDbSymbolTableRecord
100
AcDbLinetypeTableRecord
  2
Continuous
 70
0
  3

 72
65
 73
0
 40
0.0
  0
ENDTAB
  0
TABLE
  2
LAYER
  5
1
330
0
100
AcDbSymbolTable
 70
2
  0
LAYER
  5
27
330
1
100
AcDbSymbolTableRecord
100
AcDbLayerTableRecord
  2
0
 70
0
 62
7
  6
Continuous
370
-3
390
13
347
21
  0
LAYER
  5
28
330
1
100
AcDbSymbolTableRecord
100
AcDbLayerTableRecord
  2
Defpoints
 70
0
 62
7
  6
Continuous
290
0
370
-3
390
13
347
21
  0
ENDTAB
  0
TABLE
  2
STYLE
  5
5
330
0
100
AcDbSymbolTable
 70
1
  0
STYLE
  5
29
330
5
100
AcDbSymbolTableRecord
100
AcDbTextStyleTableRecord
  2
Standard
 70
0
 40
0.0
 41
1.0
 50
0.0
 71
0
 42
2.5
  3
txt
  4

  0
ENDTAB
  0
TABLE
  2
VIEW
  5
7
330
0
100
AcDbSymbolTable
 70
0
  0
ENDTAB
  0
TABLE
  2
UCS
  5
6
330
0
100
AcDbSymbolTable
 70
0
  0
ENDTAB
  0
TABLE
  2
APPID
  5
3
330
0
100
AcDbSymbolTable
 70
3
  0
APPID
  5
2A
330
3
100
AcDbSymbolTableRecord
100
AcDbRegAppTableRecord
  2
ACAD
 70
0
  0
APPID
  5
96
330
3
100
AcDbSymbolTableRecord
100
AcDbRegAppTableRecord
  2
HATCHBACKGROUNDCOLOR
 70
0
  0
APPID
  5
97
330
3
100
AcDbSymbolTableRecord
100
AcDbRegAppTableRecord
  2
EZDXF
 70
0
  0
ENDTAB
  0
TABLE
  2
DIMSTYLE
  5
4
330
0
100
AcDbSymbolTable
 70
1
100
AcDbDimStyleTable
  0
DIMSTYLE
105
2B
330
4
100
AcDbSymbolTableRecord
100
AcDbDimStyleTableRecord
  2
Standard
 70
0
 40
1.0
 41
2.5
 42
0.625
 43
3.75
 44
1.25
 45
0.0
 46
0.0
 47
0.0
 48
0.0
 49
2.5
140
2.5
141
2.5
142
0.0
143
0.03937007874
144
1.0
145
0.0
146
1.0
147
0.625
148
0.0
 69
0
 70
0
 71
0
 72
0
 73
0
 74
0
 75
0
 76
0
 77
1
 78
8
 79
3
170
0
171
3
172
1
173
0
174
0
175
0
176
0
177
0
178
0
179
2
271
2
272
2
273
2
274
3
275
0
276
0
277
2
278
44
279
0
280
0
281
0
282
0
283
0
284
8
285
0
286
0
288
0
289
3
290
0
371
-2
372
-2
  0
ENDTAB
  0
TABLE
  2
BLOCK_RECORD
  5
9
330
0
100
AcDbSymbolTable
 70
2
  0
BLOCK_RECORD
  5
17
330
9
100
AcDbSymbolTableRecord
100
AcDbBlockTableRecord
  2
*Model_Space
340
1A
 70
0
280
1
281
0
  0
BLOCK_RECORD
  5
1B
330
9
100
AcDbSymbolTableRecord
100
AcDbBlockTableRecord
  2
*Paper_Space
340
1E
 70
0
280
1
281
0
  0
ENDTAB
  0
ENDSEC
  0
SECTION
  2
BLOCKS
  0
BLOCK
  5
18
330
17
100
AcDbEntity
  8
0
100
AcDbBlockBegin
  2
*Model_Space
 70
0
 10
0.0
 20
0.0
 30
0.0
  3
*Model_Space
  1

  0
ENDBLK
  5
19
330
17
100
AcDbEntity
  8
0
100
AcDbBlockEnd
  0
BLOCK
  5
1C
330
1B
100
AcDbEntity
  8
0
100
AcDbBlockBegin
  2
*Paper_Space
 70
0
 10
0.0
 20
0.0
 30
0.0
  3
*Paper_Space
  1

  0
ENDBLK
  5
1D
330
1B
100
AcDbEntity
  8
0
100
AcDbBlockEnd
  0
ENDSEC
  0
SECTION
  2
ENTITIES
  0
LWPOLYLINE
  5
2F
330
17
100
AcDbEntity
  8
FP-Roof
100
AcDbPolyline
 90
2
 70
0
 10
-675.49975366728
 20
612.0000890985557
 10
-743.9997536672909
 20
680.5000890985657
  0
LWPOLYLINE
  5
30
330
17
100
AcDbEntity
  8
FP-Roof
100
AcDbPolyline
 90
6
 70
0
 10
-467.9997268378047
 20
783.0824414526005
 10
-653.9997536672727
 20
783.0824414526005
 10
-653.9997536672727
 20
680.500089098552
 10
-743.99975366728
 20
680.5000890985657
 10
-743.99975366728
 20
491.4998586895963
 10
-658.1792709097463
 20
491.4995017125102
  0
LWPOLYLINE
  5
31
330
17
100
AcDbEntity
  8
FP-Roof
100
AcDbPolyline
 90
2
 70
0
 10
-675.49975366728
 20
559.9995737590207
 10
-743.9994687378912
 20
491.4998586884112
  0
LWPOLYLINE
  5
32
330
17
100
AcDbEntity
  8
FP-Roof Detail
100
AcDbPolyline
 90
2
 70
0
 10
-675.4997539502237
 20
559.9995737590207
 10
-649.4994962804576
 20
585.9998314287875
  0
LWPOLYLINE
  5
33
330
17
100
AcDbEntity
  8
FP-Roof Detail
100
AcDbPolyline
 90
2
 70
0
 10
-675.4997539502237
 20
612.0000890985557
 10
-649.4994962804576
 20
585.9998314287882
  0
LWPOLYLINE
  5
34
330
17
100
AcDbEntity
  8
FP-Roof
100
AcDbPolyline
 90
4
 70
0
 10
-585.4997536672727
 20
612.000089098542
 10
-675.49975366728
 20
612.0000890985557
 10
-675.49975366728
 20
559.9995737590207
 10
-585.4997536672727
 20
559.9991993969024
  0
LWPOLYLINE
  5
35
330
17
100
AcDbEntity
  8
FP-Roof
100
AcDbPolyline
 90
2
 70
0
 10
-623.5130672502146
 20
526.1657053720419
 10
-658.1792709097463
 20
491.4995017125102
  0
LWPOLYLINE
  5
36
330
17
100
AcDbEntity
  8
FP-Roof
100
AcDbPolyline
 90
2
 70
0
 10
-653.9997536672727
 20
680.500089098552
 10
-585.4997536672727
 20
612.000089098542
  0
LWPOLYLINE
  5
37
330
17
100
AcDbEntity
  8
FP-Roof
100
AcDbPolyline
 90
2
 70
0
 10
-556.7497536672727
 20
685.8324414526005
 10
-653.9997536672727
 20
783.0824414526005
  0
LWPOLYLINE
  5
38
330
17
100
AcDbEntity
  8
FP-Roof Detail
100
AcDbPolyline
 90
2
 70
0
 10
-649.4994962804576
 20
585.9998314287875
 10
-584.4997539502165
 20
585.9998314287875
  0
LWPOLYLINE
  5
39
330
17
100
AcDbEntity
  8
FP-Roof
100
AcDbPolyline
 90
2
 70
0
 10
-623.5144340324132
 20
526.1656473592195
 10
-444.36117655360977
 20
528.4149926963651
  0
LWPOLYLINE
  5
3A
330
17
100
AcDbEntity
  8
FP-Roof
100
AcDbPolyline
 90
3
 70
0
 10
-585.4997539502165
 20
612.000089098542
 10
-584.4997539502165
 20
585.9996442477222
 10
-585.4997539502165
 20
559.9991993969024
  0
LWPOLYLINE
  5
3B
330
17
100
AcDbEntity
  8
FP-Roof
100
AcDbPolyline
 90
2
 70
0
 10
-556.7497536672727
 20
588.7490798092522
 10
-585.4997536672727
 20
559.9991993969024
  0
LWPOLYLINE
  5
3C
330
17
100
AcDbEntity
  8
FP-Roof Detail
100
AcDbPolyline
 90
2
 70
0
 10
-556.7497539502165
 20
588.7490798092522
 10
-508.2080731285423
 20
637.2907606309261
  0
LWPOLYLINE
  5
3D
330
17
100
AcDbEntity
  8
FP-Roof Detail
100
AcDbPolyline
 90
2
 70
0
 10
-556.7497539502165
 20
685.8324414526005
 10
-508.2080731285423
 20
637.2907606309261
  0
LWPOLYLINE
  5
3E
330
17
100
AcDbEntity
  8
FP-Roof
100
AcDbPolyline
 90
4
 70
0
 10
-384.02920746811105
 20
685.8324414529177
 10
-556.7497536672727
 20
685.8324414526005
 10
-556.7497536672727
 20
588.7490798092522
 10
-384.02920746811105
 20
588.7487424425015
  0
LWPOLYLINE
  5
3F
330
17
100
AcDbEntity
  8
FP-Roof Detail
100
AcDbPolyline
 90
2
 70
0
 10
-508.2080731285423
 20
637.2907606309261
 10
-382.77093430466994
 20
637.2893880089332
  0
LWPOLYLINE
  5
40
330
17
100
AcDbEntity
  8
FP-Roof
100
AcDbPolyline
 90
3
 70
0
 10
-468.0022526985631
 20
175.84293383710337
 10
-468.0023913911609
 20
142.49999361229857
 10
-192.99975366728722
 20
142.49999361229857
  0
LWPOLYLINE
  5
41
330
17
100
AcDbEntity
  8
FP-Roof
100
AcDbPolyline
 90
2
 70
0
 10
-468.00216412808186
 20
175.84302240758507
 10
-446.6123029533919
 20
197.23288358227455
  0
LWPOLYLINE
  5
42
330
17
100
AcDbEntity
  8
FP-Roof
100
AcDbPolyline
 90
2
 70
0
 38
-0.34030317655698217
 10
-384.02920746811105
 20
685.8324414529172
 10
-467.9997820746248
 20
769.8030160594308
  0
LWPOLYLINE
  5
43
330
17
100
AcDbEntity
  8
FP-Roof
100
AcDbPolyline
 90
2
 70
0
 10
-467.9988626817867
 20
990.8332739497282
 10
-467.9997820746248
 20
769.8030160594308
  0
LWPOLYLINE
  5
44
330
17
100
AcDbEntity
  8
FP-Roof
100
AcDbPolyline
 90
2
 70
0
 10
-367.7523913911373
 20
242.74999361229493
 10
-467.998862681794
 20
142.49999361229584
  0
LWPOLYLINE
  5
45
330
17
100
AcDbEntity
  8
FP-Roof
100
AcDbPolyline
 90
2
 70
0
 10
-367.752391390979
 20
890.5832739497282
 10
-467.9988626817867
 20
990.8332739497282
  0
LWPOLYLINE
  5
46
330
17
100
AcDbEntity
  8
FP-Roof
100
AcDbPolyline
 90
6
 70
0
 10
177.49505872371265
 20
990.8332739497282
 10
146.9993905800311
 20
990.8332739497282
 10
146.9993905800311
 20
952.0832739502871
 10
-146.99975366727267
 20
952.0832739502866
 10
-146.99975366727267
 20
990.8332739497287
 10
-467.9988626817867
 20
990.8332739497282
  0
LWPOLYLINE
  5
47
330
17
100
AcDbEntity
  8
FP-Roof
100
AcDbPolyline
 90
2
 70
0
 10
-444.361693809351
 20
376.239724209398
 10
-446.61230226773114
 20
197.23288436439225
  0
LWPOLYLINE
  5
48
330
17
100
AcDbEntity
  8
FP-Roof
100
AcDbPolyline
 90
2
 70
0
 10
-384.02920746811105
 20
588.7487424425015
 10
-444.36297985547026
 20
528.4149700551432
  0
LINE
  5
49
330
17
100
AcDbEntity
  8
FP-Roof
100
AcDbLine
 10
-444.36117655360977
 20
528.4149926963651
 30
0.0
 11
-444.361693809351
 21
376.239724209398
 31
0.0
  0
LWPOLYLINE
  5
4A
330
17
100
AcDbEntity
  8
FP-Roof
100
AcDbPolyline
 90
3
 70
0
 10
-384.02040306518757
 20
685.8367452033744
 10
-382.77093424270424
 20
637.2950507070618
 10
-384.0261384400037
 20
588.748710649859
  0
LWPOLYLINE
  5
4B
330
17
100
AcDbEntity
  8
FP-Roof
100
AcDbPolyline
 90
11
 70
0
 10
102.9975733764968
 20
242.74999361229857
 10
367.7474908002114
 20
242.74999361229857
 10
367.7474908002114
 20
890.5832739497282
 10
247.2493905800311
 20
890.5832739497282
 10
247.2493905800311
 20
851.8332739502866
 10
-247.24975366727267
 20
851.8332739502866
 10
-247.24975366727267
 20
890.5832739497282
 10
-367.752391390979
 20
890.5832739497282
 10
-367.7523913911373
 20
242.74999361229857
 10
-176.99975366728722
 20
242.74999361229857
 10
-102.99975366728722
 20
242.74999361229857
  0
LWPOLYLINE
  5
4C
330
17
100
AcDbEntity
  8
FP-Roof Detail
100
AcDbPolyline
 90
2
 70
0
 10
-367.75239139113364
 20
242.74999361229857
 10
-99.74975366728722
 20
510.7526313361452
  0
LWPOLYLINE
  5
4D
330
17
100
AcDbEntity
  8
FP-Roof Detail
100
AcDbPolyline
 90
2
 70
0
 10
-367.752391390979
 20
890.5832739497282
 10
-307.50107252912494
 20
830.331955087875
  0
LWPOLYLINE
  5
4E
330
17
100
AcDbEntity
  8
FP-Roof Detail
100
AcDbPolyline
 90
2
 70
0
 10
-307.50107252912494
 20
791.5819550884346
 10
-99.74975366728722
 20
583.8306362265973
  0
LWPOLYLINE
  5
4F
330
17
100
AcDbEntity
  8
FP-Roof Detail
100
AcDbPolyline
 90
2
 70
0
 10
-247.24975366727267
 20
851.8332739502875
 10
-307.50107252912494
 20
791.5819550884346
  0
LWPOLYLINE
  5
50
330
17
100
AcDbEntity
  8
FP-Roof Detail
100
AcDbPolyline
 90
2
 70
0
 10
-307.50107252912494
 20
830.3319550878753
 10
-307.50107252912494
 20
791.5819550884346
  0
LWPOLYLINE
  5
51
330
17
100
AcDbEntity
  8
FP-Roof Detail
100
AcDbPolyline
 90
2
 70
0
 10
-247.24975366727267
 20
890.5832739497282
 10
-307.50107252912494
 20
830.3319550878753
  0
LWPOLYLINE
  5
52
330
17
100
AcDbEntity
  8
FP-Roof
100
AcDbPolyline
 90
2
 70
0
 10
-247.24975366727267
 20
851.8332739502857
 10
-146.99975366727267
 20
952.0832739502866
  0
LWPOLYLINE
  5
53
330
17
100
AcDbEntity
  8
FP-Roof
100
AcDbPolyline
 90
2
 70
0
 10
-247.24975366727267
 20
890.5832739497273
 10
-146.99975366727267
 20
990.8332739497278
  0
LWPOLYLINE
  5
54
330
17
100
AcDbEntity
  8
FP-Roof
100
AcDbPolyline
 90
3
 70
0
 10
-192.99975366728722
 20
152.74999361229857
 10
-192.99975366728722
 20
99.50348588120414
 10
-117.40184899597625
 20
99.48729398534124
  0
LWPOLYLINE
  5
55
330
17
100
AcDbEntity
  8
FP-Roof
100
AcDbPolyline
 90
2
 70
0
 10
-102.99975366728722
 20
242.74999361229857
 10
-192.99975366728722
 20
152.74999361229857
  0
LWPOLYLINE
  5
56
330
17
100
AcDbEntity
  8
FP-Roof
100
AcDbPolyline
 90
2
 70
0
 10
-85.99975366728722
 20
206.48057059904022
 10
-192.9768432921701
 20
99.50348097415826
  0
LWPOLYLINE
  5
57
330
17
100
AcDbEntity
  8
FP-Roof
100
AcDbPolyline
 90
4
 70
0
 10
-117.40180534921274
 20
107.47204479981792
 10
-117.40229442759482
 20
17.999912457602477
 10
117.4001142110028
 20
18.001197144923935
 10
117.39962468739395
 20
107.47146810062532
  0
LWPOLYLINE
  5
58
330
17
100
AcDbEntity
  8
FP-Roof
100
AcDbPolyline
 90
2
 70
0
 10
-46.40127193463195
 20
89.00030093046098
 10
-117.40229442759482
 20
17.999912457602477
  0
LWPOLYLINE
  5
59
330
17
100
AcDbEntity
  8
FP-Roof
100
AcDbPolyline
 90
2
 70
0
 10
-46.40176146654085
 20
178.4720886824898
 10
-117.40176146548038
 20
107.47208868355028
  0
LWPOLYLINE
  5
5A
330
17
100
AcDbEntity
  8
FP-Roof
100
AcDbPolyline
 90
2
 70
0
 10
-99.74975366728722
 20
510.7526313361452
 10
-102.99975366728722
 20
242.74999361229857
  0
LWPOLYLINE
  5
5B
330
17
100
AcDbEntity
  8
FP-Roof
100
AcDbPolyline
 90
4
 70
0
 10
-99.74975366728722
 20
583.8306362265973
 10
-100.45686044847389
 20
630.9008382268091
 10
100.45468015745064
 20
630.9008382268094
 10
99.74757337628216
 20
583.8288190228352
  0
LWPOLYLINE
  5
5C
330
17
100
AcDbEntity
  8
FP-Roof
100
AcDbPolyline
 90
2
 70
0
 10
-85.99975366728722
 20
616.4437314456236
 10
-100.45686044847389
 20
630.9008382268087
  0
LWPOLYLINE
  5
5D
330
17
100
AcDbEntity
  8
FP-Roof
100
AcDbPolyline
 90
2
 70
0
 10
-99.74975366728722
 20
583.8306362265973
 10
-99.74975366728722
 20
510.7526313361452
  0
LWPOLYLINE
  5
5E
330
17
100
AcDbEntity
  8
FP-Roof
100
AcDbPolyline
 90
4
 70
0
 10
-85.99975366728722
 20
616.4437314456236
 10
-85.99975366728722
 20
206.48057059904022
 10
85.9975733764968
 20
206.4437314456236
 10
85.99757337626397
 20
616.4437314456236
  0
LWPOLYLINE
  5
5F
330
17
100
AcDbEntity
  8
FP-Roof Detail
100
AcDbPolyline
 90
2
 70
0
 10
-85.99975366728722
 20
206.48057059904022
 10
-0.001090145511625451
 20
292.4792341208149
  0
LWPOLYLINE
  5
60
330
17
100
AcDbEntity
  8
FP-Roof Detail
100
AcDbPolyline
 90
2
 70
0
 10
-85.99975366728722
 20
616.4437314456236
 10
-0.001090145511625451
 20
530.4450679238491
  0
LWPOLYLINE
  5
61
330
17
100
AcDbEntity
  8
FP-Roof
100
AcDbPolyline
 90
2
 70
0
 10
85.99757337626397
 20
616.4437314456236
 10
-85.99975366728722
 20
616.4437314456236
  0
LWPOLYLINE
  5
62
330
17
100
AcDbEntity
  8
FP-Roof
100
AcDbPolyline
 90
4
 70
0
 10
-46.40176146654085
 20
178.4720886824898
 10
-46.4019063195974
 20
89.00030092699035
 10
46.39972574586318
 20
89.00080867765973
 10
46.41888484488845
 20
178.452207943129
  0
LWPOLYLINE
  5
63
330
17
100
AcDbEntity
  8
FP-Roof
100
AcDbPolyline
 90
2
 70
0
 10
0.008775873622653307
 20
179.46214828987195
 10
-46.40176146654085
 20
178.4720886824898
  0
LWPOLYLINE
  5
64
330
17
100
AcDbEntity
  8
FP-Roof Detail
100
AcDbPolyline
 90
2
 70
0
 10
-46.40127193463195
 20
89.00030093046144
 10
-0.0013441559494822286
 20
135.40022870914436
  0
LWPOLYLINE
  5
65
330
17
100
AcDbEntity
  8
FP-Roof Detail
100
AcDbPolyline
 90
2
 70
0
 10
46.39909136089773
 20
89.00080867418546
 10
-0.0013441559494822286
 20
135.40022870914345
  0
LWPOLYLINE
  5
66
330
17
100
AcDbEntity
  8
FP-Roof Detail
100
AcDbPolyline
 90
2
 70
0
 10
-0.0013441559494822286
 20
135.40022870914436
 10
0.008775873622653307
 20
179.46214828987195
  0
LWPOLYLINE
  5
67
330
17
100
AcDbEntity
  8
FP-Roof Detail
100
AcDbPolyline
 90
2
 70
0
 10
-0.001090145511625451
 20
530.4450679238491
 10
-0.001090145511625451
 20
292.4792341208149
  0
LWPOLYLINE
  5
68
330
17
100
AcDbEntity
  8
FP-Roof Detail
100
AcDbPolyline
 90
2
 70
0
 10
85.99757337626397
 20
206.48057059904022
 10
-0.0010901455098064616
 20
292.4792341208158
  0
LWPOLYLINE
  5
69
330
17
100
AcDbEntity
  8
FP-Roof Detail
100
AcDbPolyline
 90
2
 70
0
 10
85.99757337626397
 20
616.4437314456236
 10
-0.0010901455098064616
 20
530.445067923848
  0
LWPOLYLINE
  5
6A
330
17
100
AcDbEntity
  8
FP-Roof
100
AcDbPolyline
 90
2
 70
0
 10
0.008775543330557412
 20
179.46214828987195
 10
46.41931288349406
 20
178.4720886824898
  0
LWPOLYLINE
  5
6B
330
17
100
AcDbEntity
  8
FP-Roof
100
AcDbPolyline
 90
2
 70
0
 10
46.39972574586318
 20
89.00080867765973
 10
117.4001142110028
 20
18.001197144923935
  0
LWPOLYLINE
  5
6C
330
17
100
AcDbEntity
  8
FP-Roof
100
AcDbPolyline
 90
2
 70
0
 10
46.41888484488845
 20
178.452207943129
 10
117.39962468739395
 20
107.4714681006244
  0
LWPOLYLINE
  5
6D
330
17
100
AcDbEntity
  8
FP-Roof
100
AcDbPolyline
 90
2
 70
0
 10
85.99757337626397
 20
616.4437314456236
 10
100.45468015745064
 20
630.9008382268089
  0
LWPOLYLINE
  5
6E
330
17
100
AcDbEntity
  8
FP-Roof
100
AcDbPolyline
 90
2
 70
0
 10
85.9975733764968
 20
206.4437314456236
 10
192.99757337670235
 20
99.42081125483674
  0
LWPOLYLINE
  5
6F
330
17
100
AcDbEntity
  8
FP-Roof
100
AcDbPolyline
 90
2
 70
0
 10
99.74757337628216
 20
583.8288190228352
 10
99.747573376324
 20
510.7499110361862
  0
LWPOLYLINE
  5
70
330
17
100
AcDbEntity
  8
FP-Roof Detail
100
AcDbPolyline
 90
2
 70
0
 10
307.5007094418834
 20
791.5819550884346
 10
99.74757337628216
 20
583.828819022835
  0
LWPOLYLINE
  5
71
330
17
100
AcDbEntity
  8
FP-Roof Detail
100
AcDbPolyline
 90
2
 70
0
 10
367.7474908002114
 20
242.74999361229857
 10
99.747573376324
 20
510.74991103618595
  0
LWPOLYLINE
  5
72
330
17
100
AcDbEntity
  8
FP-Roof
100
AcDbPolyline
 90
2
 70
0
 10
99.747573376324
 20
510.74991103618595
 10
102.9975733764968
 20
242.74999361229857
  0
LWPOLYLINE
  5
73
330
17
100
AcDbEntity
  8
FP-Roof
100
AcDbPolyline
 90
2
 70
0
 10
102.9975733764968
 20
242.74999361229857
 10
192.9975733764968
 20
152.74999361229857
  0
LWPOLYLINE
  5
74
330
17
100
AcDbEntity
  8
FP-Roof
100
AcDbPolyline
 90
3
 70
0
 10
117.39966864680355
 20
99.43700315071237
 10
192.99757337670235
 20
99.42081125483674
 10
192.99757337660049
 20
152.74999361219488
  0
LWPOLYLINE
  5
75
330
17
100
AcDbEntity
  8
FP-Roof
100
AcDbPolyline
 90
2
 70
0
 10
247.2493905800311
 20
851.83327390463
 10
146.9993905800311
 20
952.08327390463
  0
LWPOLYLINE
  5
76
330
17
100
AcDbEntity
  8
FP-Roof
100
AcDbPolyline
 90
2
 70
0
 10
247.2493905800311
 20
890.5832739040716
 10
146.9993905800311
 20
990.8332726916647
  0
LWPOLYLINE
  5
77
330
17
100
AcDbEntity
  8
FP-Roof
100
AcDbPolyline
 90
3
 70
0
 10
467.9974908002114
 20
769.8178514537906
 10
467.9974908002114
 20
990.8332739497282
 10
177.49505998177665
 20
990.8332739497282
  0
LWPOLYLINE
  5
78
330
17
100
AcDbEntity
  8
FP-Roof
100
AcDbPolyline
 90
3
 70
0
 10
192.9975733766205
 20
142.49999361229857
 10
467.9974908002114
 20
142.49999361229857
 10
467.9974908002114
 20
175.84551554164
  0
LWPOLYLINE
  5
79
330
17
100
AcDbEntity
  8
FP-Roof Detail
100
AcDbPolyline
 90
2
 70
0
 10
247.2493905800311
 20
851.8332739502875
 10
307.5007094418834
 20
791.5819550884346
  0
LWPOLYLINE
  5
7A
330
17
100
AcDbEntity
  8
FP-Roof Detail
100
AcDbPolyline
 90
2
 70
0
 10
247.2493905800311
 20
890.5832739497282
 10
307.5007094418834
 20
830.3319550878753
  0
LWPOLYLINE
  5
7B
330
17
100
AcDbEntity
  8
FP-Roof Detail
100
AcDbPolyline
 90
2
 70
0
 10
307.5007094418834
 20
830.3319550878753
 10
307.5007094418834
 20
791.5819550884346
  0
LWPOLYLINE
  5
7C
330
17
100
AcDbEntity
  8
FP-Roof Detail
100
AcDbPolyline
 90
2
 70
0
 10
367.75202830373746
 20
890.5832739497282
 10
307.5007094418834
 20
830.331955087875
  0
LWPOLYLINE
  5
7D
330
17
100
AcDbEntity
  8
FP-Roof
100
AcDbPolyline
 90
2
 70
0
 10
367.7474908002114
 20
242.74999361229857
 10
467.9974908002114
 20
142.49999361229766
  0
LWPOLYLINE
  5
7E
330
17
100
AcDbEntity
  8
FP-Roof
100
AcDbPolyline
 90
2
 70
0
 10
367.7474908002114
 20
890.5832739497291
 10
467.9974908002114
 20
990.83327394973
  0
LWPOLYLINE
  5
7F
330
17
100
AcDbEntity
  8
FP-Roof
100
AcDbPolyline
 90
3
 70
0
 10
384.01822249145334
 20
685.8367452033744
 10
382.76875366897
 20
637.2950507070618
 10
384.0239578662695
 20
588.748710649859
  0
LWPOLYLINE
  5
80
330
17
100
AcDbEntity
  8
FP-Roof Detail
100
AcDbPolyline
 90
2
 70
0
 10
508.2058925548081
 20
637.2907606309261
 10
382.7687537309357
 20
637.2893880089332
  0
LWPOLYLINE
  5
81
330
17
100
AcDbEntity
  8
FP-Roof
100
AcDbPolyline
 90
4
 70
0
 10
384.01822249145334
 20
685.8367452033744
 10
556.7475733764823
 20
685.8324414526005
 10
556.7475733764823
 20
588.7490798092522
 10
384.0239578662695
 20
588.748710649859
  0
LWPOLYLINE
  5
82
330
17
100
AcDbEntity
  8
FP-Roof
100
AcDbPolyline
 90
2
 70
0
 10
384.01822249145334
 20
685.8367452033744
 10
467.9974908002114
 20
769.8178514537906
  0
LWPOLYLINE
  5
83
330
17
100
AcDbEntity
  8
FP-Roof
100
AcDbPolyline
 90
3
 70
0
 10
444.35899626245373
 20
528.4149926968696
 10
384.01928484633936
 20
588.7533835675194
 10
384.01928291894
 20
588.929519145669
  0
LINE
  5
84
330
17
100
AcDbEntity
  8
FP-Roof
100
AcDbLine
 10
444.35899626245373
 20
528.4149926968696
 30
0.0
 11
444.35951351836775
 21
376.23972420990276
 31
0.0
  0
LWPOLYLINE
  5
85
330
17
100
AcDbEntity
  8
FP-Roof
100
AcDbPolyline
 90
2
 70
0
 10
623.5122537412608
 20
526.1656473599276
 10
444.35899626245373
 20
528.4149926968696
  0
LWPOLYLINE
  5
86
330
17
100
AcDbEntity
  8
FP-Roof
100
AcDbPolyline
 90
2
 70
0
 10
444.35951351836775
 20
376.23972420990276
 10
446.61012197695163
 20
197.2328843648993
  0
LWPOLYLINE
  5
87
330
17
100
AcDbEntity
  8
FP-Roof
100
AcDbPolyline
 90
2
 70
0
 10
467.9999831516416
 20
175.8430231902098
 10
446.61012197695163
 20
197.2328843648993
  0
LWPOLYLINE
  5
88
330
17
100
AcDbEntity
  8
FP-Roof
100
AcDbPolyline
 90
6
 70
0
 10
467.9974908002114
 20
783.0824414526005
 10
653.9975733764823
 20
783.0824414526005
 10
653.9975733764823
 20
680.500089098552
 10
743.9975733764895
 20
680.5000890985657
 10
743.9975733764895
 20
491.4998586895963
 10
658.1784572012311
 20
491.49944389995653
  0
LWPOLYLINE
  5
89
330
17
100
AcDbEntity
  8
FP-Roof Detail
100
AcDbPolyline
 90
2
 70
0
 10
556.7475733764823
 20
588.7490798092522
 10
508.2058925548081
 20
637.2907606309261
  0
LWPOLYLINE
  5
8A
330
17
100
AcDbEntity
  8
FP-Roof Detail
100
AcDbPolyline
 90
2
 70
0
 10
556.7475733764823
 20
685.8324414526005
 10
508.2058925548081
 20
637.2907606309261
  0
LWPOLYLINE
  5
8B
330
17
100
AcDbEntity
  8
FP-Roof
100
AcDbPolyline
 90
2
 70
0
 10
556.7475733764823
 20
588.7490798092522
 10
585.4975733764823
 20
559.9991993969024
  0
LWPOLYLINE
  5
8C
330
17
100
AcDbEntity
  8
FP-Roof
100
AcDbPolyline
 90
2
 70
0
 10
556.7475733764823
 20
685.8324414526005
 10
653.9975733764823
 20
783.0824414526005
  0
LWPOLYLINE
  5
8D
330
17
100
AcDbEntity
  8
FP-Roof
100
AcDbPolyline
 90
3
 70
0
 10
585.4975733764823
 20
612.000089098542
 10
584.4975733764823
 20
585.9996442477222
 10
585.4975733764823
 20
559.9991993969024
  0
LWPOLYLINE
  5
8E
330
17
100
AcDbEntity
  8
FP-Roof Detail
100
AcDbPolyline
 90
2
 70
0
 10
649.4973157067234
 20
585.9998314287875
 10
584.4975733764823
 20
585.9998314287875
  0
LWPOLYLINE
  5
8F
330
17
100
AcDbEntity
  8
FP-Roof
100
AcDbPolyline
 90
4
 70
0
 10
585.4975733764823
 20
612.000089098542
 10
675.4975733764895
 20
612.0000890985557
 10
675.4975733764895
 20
559.9995737590207
 10
585.4975733764823
 20
559.9991993969024
  0
LWPOLYLINE
  5
90
330
17
100
AcDbEntity
  8
FP-Roof
100
AcDbPolyline
 90
2
 70
0
 10
653.9975733764823
 20
680.500089098552
 10
585.4975733764823
 20
612.000089098542
  0
LWPOLYLINE
  5
91
330
17
100
AcDbEntity
  8
FP-Roof
100
AcDbPolyline
 90
2
 70
0
 10
623.5122537412608
 20
526.1656473599276
 10
658.1784572012311
 20
491.49944389995653
  0
LWPOLYLINE
  5
92
330
17
100
AcDbEntity
  8
FP-Roof Detail
100
AcDbPolyline
 90
2
 70
0
 10
675.4975733764895
 20
559.9995737590207
 10
649.4973157067234
 20
585.9998314287875
  0
LWPOLYLINE
  5
93
330
17
100
AcDbEntity
  8
FP-Roof Detail
100
AcDbPolyline
 90
2
 70
0
 10
675.4975733764895
 20
612.0000890985557
 10
649.4973157067234
 20
585.9998314287882
  0
LWPOLYLINE
  5
94
330
17
100
AcDbEntity
  8
FP-Roof
100
AcDbPolyline
 90
2
 70
0
 10
675.4975733764895
 20
559.9995737590207
 10
743.9972884471008
 20
491.4998586884112
  0
LWPOLYLINE
  5
95
330
17
100
AcDbEntity
  8
FP-Roof
100
AcDbPolyline
 90
2
 70
0
 10
675.4975733764895
 20
612.0000890985557
 10
743.9975733765004
 20
680.5000890985657
  0
ENDSEC
  0
SECTION
  2
OBJECTS
  0
DICTIONARY
  5
A
330
0
100
AcDbDictionary
280
0
281
1
  3
ACAD_COLOR
350
B
  3
ACAD_GROUP
350
C
  3
ACAD_LAYOUT
350
D
  3
ACAD_MATERIAL
350
E
  3
ACAD_MLEADERSTYLE
350
F
  3
ACAD_MLINESTYLE
350
10
  3
ACAD_PLOTSETTINGS
350
11
  3
ACAD_PLOTSTYLENAME
350
12
  3
ACAD_SCALELIST
350
14
  3
ACAD_TABLESTYLE
350
15
  3
ACAD_VISUALSTYLE
350
16
  3
EZDXF_META
350
2D
  0
DICTIONARY
  5
B
330
A
100
AcDbDictionary
280
0
281
1
  0
DICTIONARY
  5
C
330
A
100
AcDbDictionary
280
0
281
1
  0
DICTIONARY
  5
D
330
A
100
AcDbDictionary
280
0
281
1
  3
Model
350
1A
  3
Layout1
350
1E
  0
DICTIONARY
  5
E
330
A
100
AcDbDictionary
280
0
281
1
  3
ByBlock
350
1F
  3
ByLayer
350
20
  3
Global
350
21
  0
DICTIONARY
  5
F
330
A
100
AcDbDictionary
280
0
281
1
  3
Standard
350
2C
  0
DICTIONARY
  5
10
330
A
100
AcDbDictionary
280
0
281
1
  3
Standard
350
22
  0
DICTIONARY
  5
11
330
A
100
AcDbDictionary
280
0
281
1
  0
ACDBDICTIONARYWDFLT
  5
12
330
A
100
AcDbDictionary
280
0
281
1
  3
Normal
350
13
100
AcDbDictionaryWithDefault
340
13
  0
ACDBPLACEHOLDER
  5
13
330
12
  0
DICTIONARY
  5
14
330
A
100
AcDbDictionary
280
0
281
1
  0
DICTIONARY
  5
15
330
A
100
AcDbDictionary
280
0
281
1
  0
DICTIONARY
  5
16
330
A
100
AcDbDictionary
280
0
281
1
  0
LAYOUT
  5
1A
330
D
100
AcDbPlotSettings
  1

  2
Adobe PDF
  4
A3
  6

 40
7.5
 41
20.0
 42
7.5
 43
20.0
 44
420.0
 45
297.0
 46
0.0
 47
0.0
 48
0.0
 49
0.0
140
0.0
141
0.0
142
1.0
143
1.0
 70
1024
 72
1
 73
0
 74
5
  7

 75
16
 76
0
 77
2
 78
300
147
1.0
148
0.0
149
0.0
100
AcDbLayout
  1
Model
 70
1
 71
0
 10
0.0
 20
0.0
 11
420.0
 21
297.0
 12
0.0
 22
0.0
 32
0.0
 14
1e+20
 24
1e+20
 34
1e+20
 15
-1e+20
 25
-1e+20
 35
-1e+20
146
0.0
 13
0.0
 23
0.0
 33
0.0
 16
1.0
 26
0.0
 36
0.0
 17
0.0
 27
1.0
 37
0.0
 76
1
330
17
  0
LAYOUT
  5
1E
330
D
100
AcDbPlotSettings
  1

  2
Adobe PDF
  4
A3
  6

 40
7.5
 41
20.0
 42
7.5
 43
20.0
 44
420.0
 45
297.0
 46
0.0
 47
0.0
 48
0.0
 49
0.0
140
0.0
141
0.0
142
1.0
143
1.0
 70
0
 72
1
 73
0
 74
5
  7

 75
16
 76
0
 77
2
 78
300
147
1.0
148
0.0
149
0.0
100
AcDbLayout
  1
Layout1
 70
1
 71
1
 10
0.0
 20
0.0
 11
420.0
 21
297.0
 12
0.0
 22
0.0
 32
0.0
 14
1e+20
 24
1e+20
 34
1e+20
 15
-1e+20
 25
-1e+20
 35
-1e+20
146
0.0
 13
0.0
 23
0.0
 33
0.0
 16
1.0
 26
0.0
 36
0.0
 17
0.0
 27
1.0
 37
0.0
 76
1
330
1B
  0
MATERIAL
  5
1F
102
{ACAD_REACTORS
330
E
102
}
330
E
100
AcDbMaterial
  1
ByBlock
  2

 70
0
 40
1.0
 71
1
 41
1.0
 91
-1023410177
 42
1.0
 72
1
  3

 73
1
 74
1
 75
1
 44
0.5
 73
0
 45
1.0
 46
1.0
 77
1
  4

 78
1
 79
1
170
1
 48
1.0
171
1
  6

172
1
173
1
174
1
140
1.0
141
1.0
175
1
  7

176
1
177
1
178
1
143
1.0
179
1
  8

270
1
271
1
272
1
145
1.0
146
1.0
273
1
  9

274
1
275
1
276
1
 42
1.0
 72
1
  3

 73
1
 74
1
 75
1
 94
63
  0
MATERIAL
  5
20
102
{ACAD_REACTORS
330
E
102
}
330
E
100
AcDbMaterial
  1
ByLayer
  2

 70
0
 40
1.0
 71
1
 41
1.0
 91
-1023410177
 42
1.0
 72
1
  3

 73
1
 74
1
 75
1
 44
0.5
 73
0
 45
1.0
 46
1.0
 77
1
  4

 78
1
 79
1
170
1
 48
1.0
171
1
  6

172
1
173
1
174
1
140
1.0
141
1.0
175
1
  7

176
1
177
1
178
1
143
1.0
179
1
  8

270
1
271
1
272
1
145
1.0
146
1.0
273
1
  9

274
1
275
1
276
1
 42
1.0
 72
1
  3

 73
1
 74
1
 75
1
 94
63
  0
MATERIAL
  5
21
102
{ACAD_REACTORS
330
E
102
}
330
E
100
AcDbMaterial
  1
Global
  2

 70
0
 40
1.0
 71
1
 41
1.0
 91
-1023410177
 42
1.0
 72
1
  3

 73
1
 74
1
 75
1
 44
0.5
 73
0
 45
1.0
 46
1.0
 77
1
  4

 78
1
 79
1
170
1
 48
1.0
171
1
  6

172
1
173
1
174
1
140
1.0
141
1.0
175
1
  7

176
1
177
1
178
1
143
1.0
179
1
  8

270
1
271
1
272
1
145
1.0
146
1.0
273
1
  9

274
1
275
1
276
1
 42
1.0
 72
1
  3

 73
1
 74
1
 75
1
 94
63
  0
MLINESTYLE
  5
22
102
{ACAD_REACTORS
330
10
102
}
330
10
100
AcDbMlineStyle
  2
Standard
 70
0
  3

 62
256
 51
90.0
 52
90.0
 71
2
 49
0.5
 62
256
  6
BYLAYER
 49
-0.5
 62
256
  6
BYLAYER
  0
MLEADERSTYLE
  5
2C
102
{ACAD_REACTORS
330
F
102
}
330
F
100
AcDbMLeaderStyle
179
2
170
2
171
1
172
0
 90
2
 40
0.0
 41
0.0
173
1
 91
-1056964608
 92
-2
290
1
 42
2.0
291
1
 43
8.0
  3
Standard
 44
4.0
300

342
29
174
1
175
1
176
0
178
1
 93
-1056964608
 45
4.0
292
0
297
0
 46
4.0
 94
-1056964608
 47
1.0
 49
1.0
140
1.0
294
1
141
0.0
177
0
142
1.0
295
0
296
0
143
3.75
271
0
272
9
273
9
  0
DICTIONARY
  5
2D
330
A
100
AcDbDictionary
281
1
  3
CREATED_BY_EZDXF
350
2E
  3
WRITTEN_BY_EZDXF
350
98
  0
DICTIONARYVAR
  5
2E
330
2D
100
DictionaryVariables
280
0
  1
1.1.4 @ 2024-01-19T12:24:55.947827+00:00
  0
DICTIONARYVAR
  5
98
330
2D
100
DictionaryVariables
280
0
  1
1.1.4 @ 2024-01-19T12:24:55.950846+00:00
  0
ENDSEC
  0
EOF
