  0
SECTION
  2
HEADER
  9
$ACADVER
  1
AC1027
  9
$ACADMAINTVER
 70
105
  9
$DWGCODEPAGE
  3
ANSI_1252
  9
$LASTSAVEDBY
  1
ezdxf
  9
$REQUIREDVERSIONS
160
0
  9
$INSBASE
 10
0.0
 20
0.0
 30
0.0
  9
$EXTMIN
 10
1e+20
 20
1e+20
 30
1e+20
  9
$EXTMAX
 10
-1e+20
 20
-1e+20
 30
-1e+20
  9
$LIMMIN
 10
0.0
 20
0.0
  9
$LIMMAX
 10
420.0
 20
297.0
  9
$ORTHOMODE
 70
0
  9
$REGENMODE
 70
1
  9
$FILLMODE
 70
1
  9
$QTEXTMODE
 70
0
  9
$MIRRTEXT
 70
1
  9
$LTSCALE
 40
1.0
  9
$ATTMODE
 70
1
  9
$TEXTSIZE
 40
2.5
  9
$TRACEWID
 40
1.0
  9
$TEXTSTYLE
  7
Standard
  9
$CLAYER
  8
0
  9
$CELTYPE
  6
ByLayer
  9
$CECOLOR
 62
256
  9
$CELTSCALE
 40
1.0
  9
$DISPSILH
 70
0
  9
$DIMSCALE
 40
1.0
  9
$DIMASZ
 40
2.5
  9
$DIMEXO
 40
0.625
  9
$DIMDLI
 40
3.75
  9
$DIMRND
 40
0.0
  9
$DIMDLE
 40
0.0
  9
$DIMEXE
 40
1.25
  9
$DIMTP
 40
0.0
  9
$DIMTM
 40
0.0
  9
$DIMTXT
 40
2.5
  9
$DIMCEN
 40
2.5
  9
$DIMTSZ
 40
0.0
  9
$DIMTOL
 70
0
  9
$DIMLIM
 70
0
  9
$DIMTIH
 70
0
  9
$DIMTOH
 70
0
  9
$DIMSE1
 70
0
  9
$DIMSE2
 70
0
  9
$DIMTAD
 70
1
  9
$DIMZIN
 70
8
  9
$DIMBLK
  1

  9
$DIMASO
 70
1
  9
$DIMSHO
 70
1
  9
$DIMPOST
  1

  9
$DIMAPOST
  1

  9
$DIMALT
 70
0
  9
$DIMALTD
 70
3
  9
$DIMALTF
 40
0.03937007874
  9
$DIMLFAC
 40
1.0
  9
$DIMTOFL
 70
1
  9
$DIMTVP
 40
0.0
  9
$DIMTIX
 70
0
  9
$DIMSOXD
 70
0
  9
$DIMSAH
 70
0
  9
$DIMBLK1
  1

  9
$DIMBLK2
  1

  9
$DIMSTYLE
  2
ISO-25
  9
$DIMCLRD
 70
0
  9
$DIMCLRE
 70
0
  9
$DIMCLRT
 70
0
  9
$DIMTFAC
 40
1.0
  9
$DIMGAP
 40
0.625
  9
$DIMJUST
 70
0
  9
$DIMSD1
 70
0
  9
$DIMSD2
 70
0
  9
$DIMTOLJ
 70
0
  9
$DIMTZIN
 70
8
  9
$DIMALTZ
 70
0
  9
$DIMALTTZ
 70
0
  9
$DIMUPT
 70
0
  9
$DIMDEC
 70
2
  9
$DIMTDEC
 70
2
  9
$DIMALTU
 70
2
  9
$DIMALTTD
 70
3
  9
$DIMTXSTY
  7
Standard
  9
$DIMAUNIT
 70
0
  9
$DIMADEC
 70
0
  9
$DIMALTRND
 40
0.0
  9
$DIMAZIN
 70
0
  9
$DIMDSEP
 70
44
  9
$DIMATFIT
 70
3
  9
$DIMFRAC
 70
0
  9
$DIMLDRBLK
  1

  9
$DIMLUNIT
 70
2
  9
$DIMLWD
 70
-2
  9
$DIMLWE
 70
-2
  9
$DIMTMOVE
 70
0
  9
$DIMFXL
 40
1.0
  9
$DIMFXLON
 70
0
  9
$DIMJOGANG
 40
0.785398163397
  9
$DIMTFILL
 70
0
  9
$DIMTFILLCLR
 70
0
  9
$DIMARCSYM
 70
0
  9
$DIMLTYPE
  6

  9
$DIMLTEX1
  6

  9
$DIMLTEX2
  6

  9
$DIMTXTDIRECTION
 70
0
  9
$LUNITS
 70
2
  9
$LUPREC
 70
4
  9
$SKETCHINC
 40
1.0
  9
$FILLETRAD
 40
10.0
  9
$AUNITS
 70
0
  9
$AUPREC
 70
2
  9
$MENU
  1
.
  9
$ELEVATION
 40
0.0
  9
$PELEVATION
 40
0.0
  9
$THICKNESS
 40
0.0
  9
$LIMCHECK
 70
0
  9
$CHAMFERA
 40
0.0
  9
$CHAMFERB
 40
0.0
  9
$CHAMFERC
 40
0.0
  9
$CHAMFERD
 40
0.0
  9
$SKPOLY
 70
0
  9
$TDCREATE
 40
2460333.816736111
  9
$TDUCREATE
 40
2458532.153996898
  9
$TDUPDATE
 40
2460333.816736111
  9
$TDUUPDATE
 40
2458532.1544311
  9
$TDINDWG
 40
0.0
  9
$TDUSRTIMER
 40
0.0
  9
$USRTIMER
 70
1
  9
$ANGBASE
 50
0.0
  9
$ANGDIR
 70
0
  9
$PDMODE
 70
0
  9
$PDSIZE
 40
0.0
  9
$PLINEWID
 40
0.0
  9
$SPLFRAME
 70
0
  9
$SPLINETYPE
 70
6
  9
$SPLINESEGS
 70
8
  9
$HANDSEED
  5
267
  9
$SURFTAB1
 70
6
  9
$SURFTAB2
 70
6
  9
$SURFTYPE
 70
6
  9
$SURFU
 70
6
  9
$SURFV
 70
6
  9
$UCSBASE
  2

  9
$UCSNAME
  2

  9
$UCSORG
 10
0.0
 20
0.0
 30
0.0
  9
$UCSXDIR
 10
1.0
 20
0.0
 30
0.0
  9
$UCSYDIR
 10
0.0
 20
1.0
 30
0.0
  9
$UCSORTHOREF
  2

  9
$UCSORTHOVIEW
 70
0
  9
$UCSORGTOP
 10
0.0
 20
0.0
 30
0.0
  9
$UCSORGBOTTOM
 10
0.0
 20
0.0
 30
0.0
  9
$UCSORGLEFT
 10
0.0
 20
0.0
 30
0.0
  9
$UCSORGRIGHT
 10
0.0
 20
0.0
 30
0.0
  9
$UCSORGFRONT
 10
0.0
 20
0.0
 30
0.0
  9
$UCSORGBACK
 10
0.0
 20
0.0
 30
0.0
  9
$PUCSBASE
  2

  9
$PUCSNAME
  2

  9
$PUCSORG
 10
0.0
 20
0.0
 30
0.0
  9
$PUCSXDIR
 10
1.0
 20
0.0
 30
0.0
  9
$PUCSYDIR
 10
0.0
 20
1.0
 30
0.0
  9
$PUCSORTHOREF
  2

  9
$PUCSORTHOVIEW
 70
0
  9
$PUCSORGTOP
 10
0.0
 20
0.0
 30
0.0
  9
$PUCSORGBOTTOM
 10
0.0
 20
0.0
 30
0.0
  9
$PUCSORGLEFT
 10
0.0
 20
0.0
 30
0.0
  9
$PUCSORGRIGHT
 10
0.0
 20
0.0
 30
0.0
  9
$PUCSORGFRONT
 10
0.0
 20
0.0
 30
0.0
  9
$PUCSORGBACK
 10
0.0
 20
0.0
 30
0.0
  9
$USERI1
 70
0
  9
$USERI2
 70
0
  9
$USERI3
 70
0
  9
$USERI4
 70
0
  9
$USERI5
 70
0
  9
$USERR1
 40
0.0
  9
$USERR2
 40
0.0
  9
$USERR3
 40
0.0
  9
$USERR4
 40
0.0
  9
$USERR5
 40
0.0
  9
$WORLDVIEW
 70
1
  9
$SHADEDGE
 70
3
  9
$SHADEDIF
 70
70
  9
$TILEMODE
 70
1
  9
$MAXACTVP
 70
64
  9
$PINSBASE
 10
0.0
 20
0.0
 30
0.0
  9
$PLIMCHECK
 70
0
  9
$PEXTMIN
 10
1e+20
 20
1e+20
 30
1e+20
  9
$PEXTMAX
 10
-1e+20
 20
-1e+20
 30
-1e+20
  9
$PLIMMIN
 10
0.0
 20
0.0
  9
$PLIMMAX
 10
420.0
 20
297.0
  9
$UNITMODE
 70
0
  9
$VISRETAIN
 70
1
  9
$PLINEGEN
 70
0
  9
$PSLTSCALE
 70
1
  9
$TREEDEPTH
 70
3020
  9
$CMLSTYLE
  2
Standard
  9
$CMLJUST
 70
0
  9
$CMLSCALE
 40
20.0
  9
$PROXYGRAPHICS
 70
1
  9
$MEASUREMENT
 70
1
  9
$CELWEIGHT
370
-1
  9
$ENDCAPS
280
0
  9
$JOINSTYLE
280
0
  9
$LWDISPLAY
290
0
  9
$INSUNITS
 70
6
  9
$HYPERLINKBASE
  1

  9
$STYLESHEET
  1

  9
$XEDIT
290
1
  9
$CEPSNTYPE
380
0
  9
$PSTYLEMODE
290
1
  9
$FINGERPRINTGUID
  2
{093D7A7F-3A56-45CB-B6B5-7089E818E647}
  9
$VERSIONGUID
  2
{5879AB5A-126D-4E94-ACFE-112DF36F750B}
  9
$EXTNAMES
290
1
  9
$PSVPSCALE
 40
0.0
  9
$OLESTARTUP
290
0
  9
$SORTENTS
280
127
  9
$INDEXCTL
280
0
  9
$HIDETEXT
280
1
  9
$XCLIPFRAME
280
0
  9
$HALOGAP
280
0
  9
$OBSCOLOR
 70
257
  9
$OBSLTYPE
280
0
  9
$INTERSECTIONDISPLAY
280
0
  9
$INTERSECTIONCOLOR
 70
257
  9
$DIMASSOC
280
2
  9
$PROJECTNAME
  1

  9
$CAMERADISPLAY
290
0
  9
$LENSLENGTH
 40
50.0
  9
$CAMERAHEIGHT
 40
0.0
  9
$STEPSPERSEC
 40
24.0
  9
$STEPSIZE
 40
100.0
  9
$3DDWFPREC
 40
2.0
  9
$PSOLWIDTH
 40
0.005
  9
$PSOLHEIGHT
 40
0.08
  9
$LOFTANG1
 40
1.570796326795
  9
$LOFTANG2
 40
1.570796326795
  9
$LOFTMAG1
 40
0.0
  9
$LOFTMAG2
 40
0.0
  9
$LOFTPARAM
 70
7
  9
$LOFTNORMALS
280
1
  9
$LATITUDE
 40
37.795
  9
$LONGITUDE
 40
-122.394
  9
$NORTHDIRECTION
 40
0.0
  9
$TIMEZONE
 70
-8000
  9
$LIGHTGLYPHDISPLAY
280
1
  9
$TILEMODELIGHTSYNCH
280
1
  9
$CMATERIAL
347
20
  9
$SOLIDHIST
280
0
  9
$SHOWHIST
280
1
  9
$DWFFRAME
280
2
  9
$DGNFRAME
280
2
  9
$REALWORLDSCALE
290
1
  9
$INTERFERECOLOR
 62
256
  9
$CSHADOW
280
0
  9
$SHADOWPLANELOCATION
 40
0.0
  0
ENDSEC
  0
SECTION
  2
CLASSES
  0
CLASS
  1
ACDBDICTIONARYWDFLT
  2
AcDbDictionaryWithDefault
  3
ObjectDBX Classes
 90
0
 91
0
280
0
281
0
  0
CLASS
  1
SUN
  2
AcDbSun
  3
SCENEOE
 90
1153
 91
0
280
0
281
0
  0
CLASS
  1
VISUALSTYLE
  2
AcDbVisualStyle
  3
ObjectDBX Classes
 90
4095
 91
0
280
0
281
0
  0
CLASS
  1
MATERIAL
  2
AcDbMaterial
  3
ObjectDBX Classes
 90
1153
 91
0
280
0
281
0
  0
CLASS
  1
SCALE
  2
AcDbScale
  3
ObjectDBX Classes
 90
1153
 91
0
280
0
281
0
  0
CLASS
  1
TABLESTYLE
  2
AcDbTableStyle
  3
ObjectDBX Classes
 90
4095
 91
0
280
0
281
0
  0
CLASS
  1
MLEADERSTYLE
  2
AcDbMLeaderStyle
  3
ACDB_MLEADERSTYLE_CLASS
 90
4095
 91
0
280
0
281
0
  0
CLASS
  1
DICTIONARYVAR
  2
AcDbDictionaryVar
  3
ObjectDBX Classes
 90
0
 91
0
280
0
281
0
  0
CLASS
  1
CELLSTYLEMAP
  2
AcDbCellStyleMap
  3
ObjectDBX Classes
 90
1152
 91
0
280
0
281
0
  0
CLASS
  1
MENTALRAYRENDERSETTINGS
  2
AcDbMentalRayRenderSettings
  3
SCENEOE
 90
1024
 91
0
280
0
281
0
  0
CLASS
  1
ACDBDETAILVIEWSTYLE
  2
AcDbDetailViewStyle
  3
ObjectDBX Classes
 90
1025
 91
0
280
0
281
0
  0
CLASS
  1
ACDBSECTIONVIEWSTYLE
  2
AcDbSectionViewStyle
  3
ObjectDBX Classes
 90
1025
 91
0
280
0
281
0
  0
CLASS
  1
RASTERVARIABLES
  2
AcDbRasterVariables
  3
ISM
 90
0
 91
0
280
0
281
0
  0
CLASS
  1
ACDBPLACEHOLDER
  2
AcDbPlaceHolder
  3
ObjectDBX Classes
 90
0
 91
0
280
0
281
0
  0
CLASS
  1
LAYOUT
  2
AcDbLayout
  3
ObjectDBX Classes
 90
0
 91
0
280
0
281
0
  0
ENDSEC
  0
SECTION
  2
TABLES
  0
TABLE
  2
VPORT
  5
8
330
0
100
AcDbSymbolTable
 70
1
  0
VPORT
  5
23
330
8
100
AcDbSymbolTableRecord
100
AcDbViewportTableRecord
  2
*Active
 70
0
 10
0.0
 20
0.0
 11
1.0
 21
1.0
 12
0.0
 22
0.0
 13
0.0
 23
0.0
 14
0.5
 24
0.5
 15
0.5
 25
0.5
 16
0.0
 26
0.0
 36
1.0
 17
0.0
 27
0.0
 37
0.0
 40
1000.0
 41
1.34
 42
50.0
 43
0.0
 44
0.0
 50
0.0
 51
0.0
 71
0
 72
1000
 73
1
 74
3
 75
0
 76
0
 77
0
 78
0
281
0
 65
0
146
0.0
  0
ENDTAB
  0
TABLE
  2
LTYPE
  5
2
330
0
100
AcDbSymbolTable
 70
3
  0
LTYPE
  5
24
330
2
100
AcDbSymbolTableRecord
100
AcDbLinetypeTableRecord
  2
ByBlock
 70
0
  3

 72
65
 73
0
 40
0.0
  0
LTYPE
  5
25
330
2
100
AcDbSymbolTableRecord
100
AcDbLinetypeTableRecord
  2
ByLayer
 70
0
  3

 72
65
 73
0
 40
0.0
  0
LTYPE
  5
26
330
2
100
AcDbSymbolTableRecord
100
AcDbLinetypeTableRecord
  2
Continuous
 70
0
  3

 72
65
 73
0
 40
0.0
  0
ENDTAB
  0
TABLE
  2
LAYER
  5
1
330
0
100
AcDbSymbolTable
 70
2
  0
LAYER
  5
27
330
1
100
AcDbSymbolTableRecord
100
AcDbLayerTableRecord
  2
0
 70
0
 62
7
  6
Continuous
370
-3
390
13
347
21
  0
LAYER
  5
28
330
1
100
AcDbSymbolTableRecord
100
AcDbLayerTableRecord
  2
Defpoints
 70
0
 62
7
  6
Continuous
290
0
370
-3
390
13
347
21
  0
ENDTAB
  0
TABLE
  2
STYLE
  5
5
330
0
100
AcDbSymbolTable
 70
1
  0
STYLE
  5
29
330
5
100
AcDbSymbolTableRecord
100
AcDbTextStyleTableRecord
  2
Standard
 70
0
 40
0.0
 41
1.0
 50
0.0
 71
0
 42
2.5
  3
txt
  4

  0
ENDTAB
  0
TABLE
  2
VIEW
  5
7
330
0
100
AcDbSymbolTable
 70
0
  0
ENDTAB
  0
TABLE
  2
UCS
  5
6
330
0
100
AcDbSymbolTable
 70
0
  0
ENDTAB
  0
TABLE
  2
APPID
  5
3
330
0
100
AcDbSymbolTable
 70
3
  0
APPID
  5
2A
330
3
100
AcDbSymbolTableRecord
100
AcDbRegAppTableRecord
  2
ACAD
 70
0
  0
APPID
  5
264
330
3
100
AcDbSymbolTableRecord
100
AcDbRegAppTableRecord
  2
HATCHBACKGROUNDCOLOR
 70
0
  0
APPID
  5
265
330
3
100
AcDbSymbolTableRecord
100
AcDbRegAppTableRecord
  2
EZDXF
 70
0
  0
ENDTAB
  0
TABLE
  2
DIMSTYLE
  5
4
330
0
100
AcDbSymbolTable
 70
1
100
AcDbDimStyleTable
  0
DIMSTYLE
105
2B
330
4
100
AcDbSymbolTableRecord
100
AcDbDimStyleTableRecord
  2
Standard
 70
0
 40
1.0
 41
2.5
 42
0.625
 43
3.75
 44
1.25
 45
0.0
 46
0.0
 47
0.0
 48
0.0
 49
2.5
140
2.5
141
2.5
142
0.0
143
0.03937007874
144
1.0
145
0.0
146
1.0
147
0.625
148
0.0
 69
0
 70
0
 71
0
 72
0
 73
0
 74
0
 75
0
 76
0
 77
1
 78
8
 79
3
170
0
171
3
172
1
173
0
174
0
175
0
176
0
177
0
178
0
179
2
271
2
272
2
273
2
274
3
275
0
276
0
277
2
278
44
279
0
280
0
281
0
282
0
283
0
284
8
285
0
286
0
288
0
289
3
290
0
371
-2
372
-2
  0
ENDTAB
  0
TABLE
  2
BLOCK_RECORD
  5
9
330
0
100
AcDbSymbolTable
 70
2
  0
BLOCK_RECORD
  5
17
330
9
100
AcDbSymbolTableRecord
100
AcDbBlockTableRecord
  2
*Model_Space
340
1A
 70
0
280
1
281
0
  0
BLOCK_RECORD
  5
1B
330
9
100
AcDbSymbolTableRecord
100
AcDbBlockTableRecord
  2
*Paper_Space
340
1E
 70
0
280
1
281
0
  0
ENDTAB
  0
ENDSEC
  0
SECTION
  2
BLOCKS
  0
BLOCK
  5
18
330
17
100
AcDbEntity
  8
0
100
AcDbBlockBegin
  2
*Model_Space
 70
0
 10
0.0
 20
0.0
 30
0.0
  3
*Model_Space
  1

  0
ENDBLK
  5
19
330
17
100
AcDbEntity
  8
0
100
AcDbBlockEnd
  0
BLOCK
  5
1C
330
1B
100
AcDbEntity
  8
0
100
AcDbBlockBegin
  2
*Paper_Space
 70
0
 10
0.0
 20
0.0
 30
0.0
  3
*Paper_Space
  1

  0
ENDBLK
  5
1D
330
1B
100
AcDbEntity
  8
0
100
AcDbBlockEnd
  0
ENDSEC
  0
SECTION
  2
ENTITIES
  0
LWPOLYLINE
  5
2F
330
17
100
AcDbEntity
  8
FP-Proposed Wall
 62
1
100
AcDbPolyline
 90
4
 70
0
 38
-0.4204237063792746
 10
-172.7389942790942
 20
1.5013894070748393
 10
-174.7389942790942
 20
1.5013894070748393
 10
-174.7389942790942
 20
7.501388204152136
 10
-172.76161148227402
 20
7.501388204152136
  0
LWPOLYLINE
  5
30
330
17
100
AcDbEntity
  8
FP-Proposed Wall
 62
1
100
AcDbPolyline
 90
2
 70
0
 38
-0.4204237063792746
 10
-172.76160475421057
 20
1.5013892931528972
 10
-172.7389942790942
 20
0.0013894082030674326
  0
LINE
  5
31
330
17
100
AcDbEntity
  8
FP-Proposed Wall
 62
1
100
AcDbLine
 10
-142.76161228086494
 20
7.5014010946254075
 30
24.081168888801614
 11
-172.76159129809093
 21
7.501388204153045
 31
24.081168888799706
  0
LINE
  5
32
330
17
100
AcDbEntity
  8
EL-Trim
 62
8
100
AcDbLine
 10
-172.7389942790942
 20
1.5013894070748393
 30
-0.4204237063792746
 11
-141.76161900851002
 21
1.5017708628815853
 31
-0.4204237063792746
  0
LWPOLYLINE
  5
33
330
17
100
AcDbEntity
  8
FP-Proposed Wall
 62
1
100
AcDbPolyline
 90
4
 70
0
 38
24.081168888801614
 10
-162.7389942790942
 20
9.001388090216096
 10
-164.7389942790942
 20
9.001388090216096
 10
-164.7389942790942
 20
15.001386887293393
 10
-162.76161148227402
 20
15.001386887293393
  0
LWPOLYLINE
  5
34
330
17
100
AcDbEntity
  8
FP-Proposed Wall
 62
1
100
AcDbPolyline
 90
2
 70
0
 38
24.081168888801614
 10
-162.76160475421057
 20
9.001388090216096
 10
-162.76160475421057
 20
7.501423521493962
  0
LINE
  5
35
330
17
100
AcDbEntity
  8
FP-Proposed Wall
 62
1
100
AcDbLine
 10
-142.76160387082564
 20
15.001364460424384
 30
24.081168888801614
 11
-162.7615980261544
 21
15.001386887294302
 31
24.081168888799795
  0
LINE
  5
36
330
17
100
AcDbEntity
  8
EL-Trim
 62
8
100
AcDbLine
 10
-142.76161059888545
 20
9.001365777298133
 30
24.081168888801614
 11
-162.76159129809093
 21
9.001388204153045
 31
24.081168888799795
  0
LWPOLYLINE
  5
37
330
17
100
AcDbEntity
  8
FP-Proposed Wall
 62
1
100
AcDbPolyline
 90
4
 70
0
 38
24.081168888801614
 10
-152.76159886755704
 20
16.501388204153045
 10
-154.76159886755704
 20
16.501388204153045
 10
-154.76159886755704
 20
22.50138700123034
 10
-152.78421607073687
 20
22.50138700123034
  0
LINE
  5
38
330
17
100
AcDbEntity
  8
FP-Proposed Wall
 62
1
100
AcDbLine
 10
-143.79985212941028
 20
22.50150244012866
 30
24.081168888799795
 11
-152.78421607073687
 21
22.50138700123034
 31
24.081168888799795
  0
LWPOLYLINE
  5
39
330
17
100
AcDbEntity
  8
FP-Proposed Wall
 62
1
100
AcDbPolyline
 90
2
 70
0
 38
24.081168888801614
 10
-152.76159886755704
 20
16.501388204153045
 10
-152.7615860886399
 20
15.001472084932857
  0
LINE
  5
3A
330
17
100
AcDbEntity
  8
EL-Trim
 62
8
100
AcDbLine
 10
-142.7616021891772
 20
16.50103870555745
 30
24.081168888799795
 11
-152.76159886755704
 21
16.501388204153045
 31
24.081168888799795
  0
LINE
  5
3B
330
17
100
AcDbEntity
  8
FP-Proposed Wall
 62
1
100
AcDbLine
 10
-143.79985100974227
 20
23.500002285592927
 30
-0.4204237063792746
 11
-144.25981263933136
 21
23.5000028013676
 31
-0.4204237063792746
  0
LWPOLYLINE
  5
3C
330
17
100
AcDbEntity
  8
FP-Proposed Wall
 62
1
100
AcDbPolyline
 90
2
 70
0
 38
-0.4204237063792746
 10
-144.25981263933136
 20
23.500002801367373
 10
-144.25980703261666
 20
28.500002801365554
  0
LINE
  5
3D
330
17
100
AcDbEntity
  8
FP-Proposed Wall
 62
1
100
AcDbLine
 10
-144.25980703261666
 20
28.500002801365554
 30
-0.4204237063792746
 11
-142.76159658361576
 21
28.500002801365554
 31
-0.4204237063792746
  0
LINE
  5
3E
330
17
100
AcDbEntity
  8
FP-Proposed Wall
 62
1
100
AcDbLine
 10
-144.0599043326729
 20
130.2260124565987
 30
20.051465498439104
 11
-143.5115318250755
 21
130.50133841278193
 31
20.051465498439104
  0
LINE
  5
3F
330
17
100
AcDbEntity
  8
FP-Hatch
100
AcDbLine
 10
-117.0597639630214
 20
129.75030300911794
 30
20.051465498439104
 11
-143.92926482576513
 21
129.75045567037682
 31
20.051465498439104
  0
LINE
  5
40
330
17
100
AcDbEntity
  8
FP-Proposed Wall
 62
1
100
AcDbLine
 10
-142.7615965836194
 20
21.50000112135058
 30
-0.4204237063792746
 11
-143.7998532524325
 21
21.500002285594746
 31
-0.4204237063792746
  0
LINE
  5
41
330
17
100
AcDbEntity
  8
FP-Proposed Wall
 62
1
100
AcDbLine
 10
-143.79985100974227
 20
23.500002285592927
 30
-0.4204237063792746
 11
-143.7998532524325
 21
21.500002285594746
 31
-0.4204237063792746
  0
LINE
  5
42
330
17
100
AcDbEntity
  8
EL-Trim
 62
8
100
AcDbLine
 10
-143.79985100974227
 20
23.500002285592927
 30
-0.4204237063792746
 11
-117.25981263930953
 21
23.500098884757335
 31
-0.4204237063792746
  0
LINE
  5
43
330
17
100
AcDbEntity
  8
FP-Proposed Wall
 62
1
100
AcDbLine
 10
-143.51153094641631
 20
129.50133841278011
 30
20.051465498439104
 11
-143.70026094641798
 21
129.50133862441044
 31
20.051465498439104
  0
LWPOLYLINE
  5
44
330
17
100
AcDbEntity
  8
FP-Proposed Wall
 62
1
100
AcDbPolyline
 90
2
 70
0
 38
9.815520896029877
 10
-143.50126394567633
 20
171.50071062115967
 10
-143.68999198995516
 20
171.5008599007149
  0
LINE
  5
45
330
17
100
AcDbEntity
  8
FP-Proposed Wall
 62
1
100
AcDbLine
 10
-143.51153406776575
 20
128.50133841278375
 30
20.051465498439104
 11
-143.511532946417
 21
129.50133841278193
 31
20.051465498439104
  0
LINE
  5
46
330
17
100
AcDbEntity
  8
FP-Proposed Wall
 62
1
100
AcDbLine
 10
-142.76153406776575
 20
128.50133756989862
 30
20.051465498439104
 11
-143.51153406759477
 21
128.50149107404263
 31
20.051465498439104
  0
LINE
  5
47
330
17
100
AcDbEntity
  8
FP-Hatch
100
AcDbLine
 10
-116.83076008404532
 20
129.5011998603586
 30
20.799973073979636
 11
-143.51153294740652
 21
129.50045567038228
 31
20.051465498439104
  0
LINE
  5
48
330
17
100
AcDbEntity
  8
FP-Proposed Wall
 62
1
100
AcDbLine
 10
-142.76153182508278
 20
130.501337569895
 30
20.051465498439104
 11
-143.5115318250755
 21
130.50133841278193
 31
20.051465498439104
  0
LINE
  5
49
330
17
100
AcDbEntity
  8
FP-Proposed Wall
 62
1
100
AcDbLine
 10
-142.7512596751112
 20
170.49985538134797
 30
9.815520896029877
 11
-143.5012650670251
 21
170.5007106211615
 31
9.815520896029877
  0
LINE
  5
4A
330
17
100
AcDbEntity
  8
FP-Proposed Wall
 62
1
100
AcDbLine
 10
-143.5012650670251
 20
170.5007106211615
 30
9.815520896029877
 11
-143.50126394567633
 21
171.50071062115967
 31
9.815520896029877
  0
LINE
  5
4B
330
17
100
AcDbEntity
  8
EL-Trim
 62
8
100
AcDbLine
 10
-143.50126394567633
 20
171.50071062115967
 30
9.815520896029877
 11
-116.82049474959786
 21
171.5008599007149
 31
9.815520896029877
  0
LINE
  5
4C
330
17
100
AcDbEntity
  8
FP-Proposed Wall
 62
1
100
AcDbLine
 10
-142.76161396444877
 20
6.00000112134876
 30
-0.4204237063792746
 11
-142.7615965836194
 21
21.50000112135058
 31
-0.4204237063792746
  0
LINE
  5
4D
330
17
100
AcDbEntity
  8
FP-Proposed Wall
 62
1
100
AcDbLine
 10
-141.76161396319003
 20
6.001123013343658
 30
-0.4204237063792746
 11
-142.7616139631864
 21
6.001124134687416
 31
-0.42042370637927107
  0
LINE
  5
4E
330
17
100
AcDbEntity
  8
EL-Trim
 62
8
100
AcDbLine
 10
-142.7615965836194
 20
21.50000112135058
 30
-0.4204237063792746
 11
-116.79985325241068
 21
21.50009836898448
 31
-0.4204237063792746
  0
LINE
  5
4F
330
17
100
AcDbEntity
  8
FP-Proposed Wall
 62
1
100
AcDbLine
 10
-142.76159658361576
 20
28.500002801365554
 30
-0.4204237063792746
 11
-142.74112909209725
 21
128.5013333935674
 31
20.05146549843903
  0
LINE
  5
50
330
17
100
AcDbEntity
  8
FP-Proposed Wall
 62
1
100
AcDbLine
 10
-142.76159658361576
 20
28.500002801365554
 30
-0.4204237063792746
 11
-117.2598070324857
 21
28.50019547091142
 31
-0.4204237063792746
  0
LINE
  5
51
330
17
100
AcDbEntity
  8
FP-Hatch
100
AcDbLine
 10
-116.64203320485103
 20
128.50133841278375
 30
20.051465498439104
 11
-142.76153406776575
 21
128.50133756989862
 31
20.051465498439104
  0
LINE
  5
52
330
17
100
AcDbEntity
  8
FP-Proposed Wall
 62
1
100
AcDbLine
 10
-116.64203096233177
 20
130.50118575152305
 30
20.051465498439104
 11
-142.76153182508278
 21
130.501337569895
 31
20.051465498439104
  0
LINE
  5
53
330
17
100
AcDbEntity
  8
FP-Proposed Wall
 62
1
100
AcDbLine
 10
-142.76153182508278
 20
130.501337569895
 30
20.051465498439104
 11
-142.76150781137767
 21
170.50137081349658
 31
28.649570819031837
  0
LINE
  5
54
330
17
100
AcDbEntity
  8
EL-Trim
 62
8
100
AcDbLine
 10
-116.63176782666778
 20
170.5007106211615
 30
9.815520896029877
 11
-142.7615078122799
 21
170.4998670674172
 31
9.815520896029877
  0
LWPOLYLINE
  5
55
330
17
100
AcDbEntity
  8
FP-Proposed Wall
 62
1
100
AcDbPolyline
 90
2
 70
0
 38
-0.4204237063792746
 10
-141.76161396444877
 20
5.999999999996362
 10
-141.76162069251222
 20
0.0
  0
LINE
  5
56
330
17
100
AcDbEntity
  8
EL-Trim
 62
8
100
AcDbLine
 10
-141.76161396319003
 20
6.001123013343658
 30
-0.4204237063792746
 11
-115.76161396442694
 21
6.000097204738495
 31
-0.4204237063792746
  0
LINE
  5
57
330
17
100
AcDbEntity
  8
FP-Hatch
100
AcDbLine
 10
-135.42370834011672
 20
130.22535842601883
 30
9.815520896029877
 11
-134.87533583251934
 21
130.50068438220023
 31
9.815520896029877
  0
LINE
  5
58
330
17
100
AcDbEntity
  8
FP-Hatch
100
AcDbLine
 10
-134.87533495386015
 20
129.50068438219841
 30
9.815520896029877
 11
-135.06406495386182
 21
129.50068459383056
 31
9.815520896029877
  0
LINE
  5
59
330
17
100
AcDbEntity
  8
EL-Trim
 62
8
100
AcDbLine
 10
-134.87707268029772
 20
170.50072392801576
 30
9.815520896029877
 11
-134.87707155895623
 21
171.50072392801576
 31
9.815520896029877
  0
LINE
  5
5A
330
17
100
AcDbEntity
  8
FP-Hatch
100
AcDbLine
 10
-134.87533807520958
 20
128.50068438220205
 30
9.815520896029877
 11
-134.87533695386082
 21
129.50068438220205
 31
9.815520896029877
  0
LINE
  5
5B
330
17
100
AcDbEntity
  8
FP-Hatch
100
AcDbLine
 10
-134.12711977673462
 20
128.50068754118092
 30
9.815520896029877
 11
-134.12723191114492
 21
28.500685554216943
 31
9.815520896029877
  0
LINE
  5
5C
330
17
100
AcDbEntity
  8
FP-Hatch
100
AcDbLine
 10
-134.12711753410986
 20
130.5006855431884
 30
9.815520896029877
 11
-134.12707268034137
 21
170.50068555608323
 31
9.815520896029877
  0
LINE
  5
5D
330
17
100
AcDbEntity
  8
FP-Hatch
100
AcDbLine
 10
-133.42370834011672
 20
130.2253561833304
 30
9.815520896029877
 11
-132.87533583251934
 21
130.5006821395118
 31
9.815520896029877
  0
LINE
  5
5E
330
17
100
AcDbEntity
  8
FP-Hatch
100
AcDbLine
 10
-132.87533495386015
 20
129.5006821395118
 30
9.815520896029877
 11
-133.06406495386182
 21
129.50068235114213
 31
9.815520896029877
  0
LINE
  5
5F
330
17
100
AcDbEntity
  8
FP-Hatch
100
AcDbLine
 10
-132.87711977679282
 20
128.50068414150974
 30
9.815520896029877
 11
-132.87711865545134
 21
129.50068414150974
 31
9.815520896029877
  0
LINE
  5
60
330
17
100
AcDbEntity
  8
EL-Trim
 62
8
100
AcDbLine
 10
-132.8770726797884
 20
170.50072168532915
 30
9.815520896029877
 11
-132.87707155844691
 21
171.50072168532733
 31
9.815520896029877
  0
LINE
  5
61
330
17
100
AcDbEntity
  8
FP-Hatch
100
AcDbLine
 10
-132.8753380752023
 20
128.5006841395125
 30
9.815520896029877
 11
-132.1253380752023
 21
128.50068329850455
 31
9.815520896029877
  0
LWPOLYLINE
  5
62
330
17
100
AcDbEntity
  8
FP-Hatch
100
AcDbPolyline
 90
2
 70
0
 38
9.815520896029879
 10
-132.12711977679282
 20
128.50068530050066
 10
-132.12723191120313
 20
28.500683312508954
  0
LWPOLYLINE
  5
63
330
17
100
AcDbEntity
  8
FP-Hatch
100
AcDbPolyline
 90
2
 70
0
 38
9.815520896029879
 10
-132.12711753410986
 20
130.5006833005
 10
-132.12711753410258
 20
130.50068530049884
  0
LINE
  5
64
330
17
100
AcDbEntity
  8
FP-Hatch
100
AcDbLine
 10
-132.12711753410986
 20
130.5006833005
 30
9.815520896029877
 11
-132.12707268018858
 21
170.50068331319108
 31
9.815520896029877
  0
LINE
  5
65
330
17
100
AcDbEntity
  8
FP-Proposed Wall
100
AcDbLine
 10
-116.79985100972044
 20
23.500098368982663
 30
-0.4204237063792746
 11
-117.25981263930953
 21
23.500098884757335
 31
-0.4204237063792746
  0
LWPOLYLINE
  5
66
330
17
100
AcDbEntity
  8
FP-Proposed Wall
100
AcDbPolyline
 90
2
 70
0
 38
-0.4204237063792746
 10
-117.25981263930953
 20
23.500098884757108
 10
-117.25980703259484
 20
28.50009888475529
  0
LINE
  5
67
330
17
100
AcDbEntity
  8
FP-Proposed Wall
100
AcDbLine
 10
-117.25980703259484
 20
28.50009888475529
 30
-0.4204237063792746
 11
-115.7615965836012
 21
28.50009888475506
 31
-0.4204237063792746
  0
LINE
  5
68
330
17
100
AcDbEntity
  8
FP-Proposed Wall
100
AcDbLine
 10
-117.19040346975817
 20
130.2260124565987
 30
20.051465498439104
 11
-116.64203096216079
 21
130.50133841278193
 31
20.051465498439104
  0
LINE
  5
69
330
17
100
AcDbEntity
  8
FP-Hatch
100
AcDbLine
 10
-13.257440068864526
 20
129.75040129808372
 30
13.02672658646668
 11
-117.05976396285041
 21
129.75045567037682
 31
20.051465498439104
  0
LINE
  5
6A
330
17
100
AcDbEntity
  8
FP-Proposed Wall
100
AcDbLine
 10
-116.6420300835016
 20
129.50133841278011
 30
20.051465498439104
 11
-116.83076008350326
 21
129.50133862441044
 31
20.051465498439104
  0
LWPOLYLINE
  5
6B
330
17
100
AcDbEntity
  8
FP-Proposed Wall
100
AcDbPolyline
 90
2
 70
0
 38
9.815520896029877
 10
-116.63176670531902
 20
171.50071062115967
 10
-116.82049474959786
 20
171.5008599007149
  0
LINE
  5
6C
330
17
100
AcDbEntity
  8
FP-Proposed Wall
100
AcDbLine
 10
-115.76159658359757
 20
21.500097204740314
 30
-0.4204237063792746
 11
-116.79985325241068
 21
21.50009836898448
 31
-0.4204237063792746
  0
LINE
  5
6D
330
17
100
AcDbEntity
  8
FP-Proposed Wall
100
AcDbLine
 10
-116.79985100972044
 20
23.500098368982663
 30
-0.4204237063792746
 11
-116.79985325241068
 21
21.50009836898448
 31
-0.4204237063792746
  0
LINE
  5
6E
330
17
100
AcDbEntity
  8
EL-Trim
 62
8
100
AcDbLine
 10
174.2790326495051
 20
23.500098368982663
 30
-0.4204237063792746
 11
-116.79985100972044
 21
23.500098368982663
 31
-0.4204237063792746
  0
LINE
  5
6F
330
17
100
AcDbEntity
  8
FP-Proposed Wall
100
AcDbLine
 10
-116.64203320485103
 20
128.50133841278375
 30
20.051465498439104
 11
-116.64203208350227
 21
129.50133841278193
 31
20.051465498439104
  0
LINE
  5
70
330
17
100
AcDbEntity
  8
FP-Proposed Wall
100
AcDbLine
 10
-115.89203320485103
 20
128.50133756989862
 30
20.051465498439104
 11
-116.64203320468005
 21
128.50149107404263
 31
20.051465498439104
  0
LINE
  5
71
330
17
100
AcDbEntity
  8
FP-Hatch
100
AcDbLine
 10
-13.257440068864526
 20
129.50057160056622
 30
12.76864364463435
 11
-116.6420320844918
 21
129.50045567038228
 31
20.051465498439104
  0
LINE
  5
72
330
17
100
AcDbEntity
  8
FP-Proposed Wall
100
AcDbLine
 10
-115.89203096216806
 20
130.501337569895
 30
20.051465498439104
 11
-116.64203096216079
 21
130.50133841278193
 31
20.051465498439104
  0
LINE
  5
73
330
17
100
AcDbEntity
  8
FP-Proposed Wall
100
AcDbLine
 10
-115.85884111352425
 20
170.4998292439002
 30
9.815520896030023
 11
-116.63176782666778
 21
170.5007106211615
 31
9.815520896029877
  0
LINE
  5
74
330
17
100
AcDbEntity
  8
FP-Proposed Wall
100
AcDbLine
 10
-116.63176782666778
 20
170.5007106211615
 30
9.815520896029877
 11
-116.63176670531902
 21
171.50071062115967
 31
9.815520896029877
  0
LINE
  5
75
330
17
100
AcDbEntity
  8
EL-Trim
 62
8
100
AcDbLine
 10
-116.63176670531902
 20
171.50071062115967
 30
9.815520896029877
 11
173.97029035343076
 21
171.5013300906296
 31
-0.4204237063804612
  0
LINE
  5
76
330
17
100
AcDbEntity
  8
FP-Proposed Wall
100
AcDbLine
 10
-115.7615965836012
 20
28.50009888475506
 30
-0.4204237063792746
 11
-115.89203320485103
 21
128.50133756989862
 31
20.051465498439104
  0
LINE
  5
77
330
17
100
AcDbEntity
  8
FP-Proposed Wall
 62
1
100
AcDbLine
 10
-13.257440068864526
 20
128.5013550899937
 30
12.783965292158003
 11
-115.89203320485103
 21
128.50133756989862
 31
20.051465498439104
  0
LINE
  5
78
330
17
100
AcDbEntity
  8
FP-Stair
100
AcDbLine
 10
-13.257440068864526
 20
130.50133608276064
 30
12.7839653384865
 11
-115.89203096216806
 21
130.501337569895
 31
20.051465498439104
  0
LINE
  5
79
330
17
100
AcDbEntity
  8
FP-Proposed Wall
100
AcDbLine
 10
-115.89203096216806
 20
130.501337569895
 30
20.051465498439104
 11
-115.85884111352425
 21
170.4998292439002
 31
9.815520896030023
  0
LINE
  5
7A
330
17
100
AcDbEntity
  8
FP-Proposed Wall
 62
1
100
AcDbLine
 10
-115.85884111352425
 20
170.4998292439002
 30
9.815520896030023
 11
173.20945832348661
 21
170.50158422787558
 31
-0.4204237063804611
  0
LINE
  5
7B
330
17
100
AcDbEntity
  8
FP-Proposed Wall
100
AcDbLine
 10
-115.76161396442694
 20
6.000097204738495
 30
-0.4204237063792746
 11
-115.76159658359757
 21
21.500097204740314
 31
-0.4204237063792746
  0
LINE
  5
7C
330
17
100
AcDbEntity
  8
FP-Proposed Wall
100
AcDbLine
 10
-114.7616139631682
 20
6.001219096733394
 30
-0.4204237063792746
 11
-115.76161396316456
 21
6.001220218077151
 31
-0.42042370637927107
  0
LINE
  5
7D
330
17
100
AcDbEntity
  8
FP-Proposed Wall
100
AcDbLine
 10
-115.7615965836012
 20
28.50019547091142
 30
-0.4204237063792746
 11
173.24077822338222
 21
28.500098884755516
 31
-0.4204237063792746
  0
LINE
  5
7E
330
17
100
AcDbEntity
  8
EL-Trim
 62
8
100
AcDbLine
 10
-115.76159658359757
 20
21.500097204740314
 30
-0.4204237063792746
 11
-19.226583523159206
 21
21.500097204740314
 31
-0.4204237063792746
  0
LWPOLYLINE
  5
7F
330
17
100
AcDbEntity
  8
FP-Proposed Wall
100
AcDbPolyline
 90
2
 70
0
 38
-0.4204237063792746
 10
-114.76161396442694
 20
6.000096083386097
 10
-114.7616206924904
 20
9.608338973521313e-05
  0
LINE
  5
80
330
17
100
AcDbEntity
  8
FP-Stair
100
AcDbLine
 10
-114.7616139631682
 20
6.001219096733394
 30
-0.4204237063792746
 11
-43.20397893509289
 21
6.0012993374516554
 31
-0.4204237063792746
  0
LINE
  5
81
330
17
100
AcDbEntity
  8
EL-Trim
 62
8
100
AcDbLine
 10
-108.55599364093723
 20
130.22662723586632
 30
9.815520896029877
 11
-108.00762113333985
 21
130.50195319204772
 31
9.815520896029877
  0
LINE
  5
82
330
17
100
AcDbEntity
  8
EL-Trim
 62
8
100
AcDbLine
 10
-108.00762025468066
 20
129.5019531920459
 30
9.815520896029877
 11
-108.19635025468233
 21
129.50195340367804
 31
9.815520896029877
  0
LINE
  5
83
330
17
100
AcDbEntity
  8
EL-Trim
 62
8
100
AcDbLine
 10
-108.00762337602282
 20
128.50195319204954
 30
9.815520896029877
 11
-108.00762225468134
 21
129.50195319204954
 31
9.815520896029877
  0
LINE
  5
84
330
17
100
AcDbEntity
  8
EL-Trim
 62
8
100
AcDbLine
 10
-108.00757627952771
 20
170.50199073586714
 30
9.815520896029877
 11
-108.00757515818623
 21
171.50199073586714
 31
9.815520896029877
  0
LINE
  5
85
330
17
100
AcDbEntity
  8
EL-Trim
 62
8
100
AcDbLine
 10
-107.25762113333985
 20
130.5019523510398
 30
9.815520896029877
 11
-107.25757627957137
 21
170.5019523639346
 31
9.815520896029877
  0
LINE
  5
86
330
17
100
AcDbEntity
  8
EL-Trim
 62
8
100
AcDbLine
 10
-107.2558416743741
 20
128.5019523470362
 30
9.815520896029877
 11
-107.25595380879167
 21
28.501950360072215
 31
9.815520896029877
  0
LINE
  5
87
330
17
100
AcDbEntity
  8
EL-Trim
 62
8
100
AcDbLine
 10
-106.55599364093723
 20
130.2266249931779
 30
9.815520896029877
 11
-106.00762113333985
 21
130.5019509493593
 31
9.815520896029877
  0
LINE
  5
88
330
17
100
AcDbEntity
  8
EL-Trim
 62
8
100
AcDbLine
 10
-106.00583855309014
 20
129.5019489473632
 30
9.815520896029877
 11
-106.19456855309181
 21
129.5019491589935
 31
9.815520896029877
  0
LINE
  5
89
330
17
100
AcDbEntity
  8
EL-Trim
 62
8
100
AcDbLine
 10
-106.0075762790184
 20
170.50198849318053
 30
9.815520896029877
 11
-106.00757515767691
 21
171.50198849317871
 31
9.815520896029877
  0
LINE
  5
8A
330
17
100
AcDbEntity
  8
EL-Trim
 62
8
100
AcDbLine
 10
-106.00584167443958
 20
128.501948947365
 30
9.815520896029877
 11
-106.00584055309082
 21
129.501948947365
 31
9.815520896029877
  0
LINE
  5
8B
330
17
100
AcDbEntity
  8
EL-Trim
 62
8
100
AcDbLine
 10
-106.0058416744323
 20
128.50195094736387
 30
9.815520896029877
 11
-105.2558416744323
 21
128.50195010635593
 31
9.815520896029877
  0
LINE
  5
8C
330
17
100
AcDbEntity
  8
EL-Trim
 62
8
100
AcDbLine
 10
-105.25762113333985
 20
130.50195010835137
 30
9.815520896029877
 11
-105.25757627941857
 21
170.50195012104246
 31
9.815520896029877
  0
LWPOLYLINE
  5
8D
330
17
100
AcDbEntity
  8
EL-Trim
 62
8
100
AcDbPolyline
 90
2
 70
0
 38
9.815520896029877
 10
-105.2558416744323
 20
128.50195010635593
 10
-105.25595380884988
 20
28.501948118364226
  0
LWPOLYLINE
  5
8E
330
17
100
AcDbEntity
  8
EL-Trim
 62
8
100
AcDbPolyline
 90
2
 70
0
 38
9.815520896029877
 10
-105.25583943174934
 20
130.50194810635526
 10
-105.25583943174934
 20
130.50195010635412
  0
LINE
  5
8F
330
17
100
AcDbEntity
  8
FP-Hatch
100
AcDbLine
 10
-75.54151048600397
 20
106.3185297021148
 30
-0.07616669536480747
 11
-59.28215034337336
 21
106.3185297021148
 31
-0.07616669536480747
  0
LINE
  5
90
330
17
100
AcDbEntity
  8
FP-Hatch
100
AcDbLine
 10
-75.53620492143455
 20
106.31414231129384
 30
0.0
 11
-75.4690248501247
 21
106.31414231129384
 31
0.0
  0
LINE
  5
91
330
17
100
AcDbEntity
  8
FP-Hatch
100
AcDbLine
 10
-75.47433041469412
 20
106.14456208332763
 30
-0.07616669536480747
 11
-59.34933041468321
 21
106.14456208332763
 31
-0.07616669536480747
  0
LINE
  5
92
330
17
100
AcDbEntity
  8
FP-Hatch
100
AcDbLine
 10
-75.47433041469412
 20
106.14456208332763
 30
-0.07616669536480747
 11
-75.47433041469412
 21
106.3185297021148
 31
-0.07616669536480747
  0
LINE
  5
93
330
17
100
AcDbEntity
  8
FP-Hatch
100
AcDbLine
 10
-75.4690248501247
 20
106.14017469250666
 30
0.0
 11
-74.7190248501247
 21
106.14017469250666
 31
0.0
  0
LINE
  5
94
330
17
100
AcDbEntity
  8
FP-Hatch
100
AcDbLine
 10
-75.4690248501247
 20
106.14017469250666
 30
0.0
 11
-75.4690248501247
 21
106.31414231129384
 31
0.0
  0
LINE
  5
95
330
17
100
AcDbEntity
  8
FP-Hatch
100
AcDbLine
 10
-75.4690248501247
 20
106.31414231129384
 30
0.0
 11
-67.4065248501247
 21
106.31414231129384
 31
0.0
  0
LINE
  5
96
330
17
100
AcDbEntity
  8
FP-Hatch
100
AcDbLine
 10
-74.7190248501247
 20
106.14017469250666
 30
0.0
 11
-67.4065248501247
 21
106.14017469250666
 31
0.0
  0
LINE
  5
97
330
17
100
AcDbEntity
  8
FP-Hatch
100
AcDbLine
 10
-74.53683041469412
 20
105.95706208332763
 30
-0.07616669536480747
 11
-60.28683041468321
 21
105.95706208332763
 31
-0.07616669536480747
  0
LINE
  5
98
330
17
100
AcDbEntity
  8
FP-Hatch
100
AcDbLine
 10
-74.53683041469412
 20
107.26956208332763
 30
-0.07616669536480747
 11
-60.28683041468321
 21
107.26956208332763
 31
-0.07616669536480747
  0
LINE
  5
99
330
17
100
AcDbEntity
  8
FP-Hatch
100
AcDbLine
 10
-74.53683041469412
 20
107.26956208332763
 30
-0.07616669536480747
 11
-74.53683041469412
 21
107.64456208332763
 31
-0.07616669536480747
  0
LINE
  5
9A
330
17
100
AcDbEntity
  8
FP-Hatch
100
AcDbLine
 10
-74.53683041469412
 20
107.64456208332763
 30
-0.07616669536480747
 11
-60.28683041468321
 21
107.64456208332763
 31
-0.07616669536480747
  0
LINE
  5
9B
330
17
100
AcDbEntity
  8
FP-Hatch
100
AcDbLine
 10
-74.53683041469048
 20
105.01956208332763
 30
-0.07616669536480747
 11
-60.286830414690485
 21
105.01956208332763
 31
-0.07616669536480747
  0
LINE
  5
9C
330
17
100
AcDbEntity
  8
FP-Hatch
100
AcDbLine
 10
-74.5315248501247
 20
105.95267469250666
 30
0.0
 11
-67.4065248501247
 21
105.95267469250666
 31
0.0
  0
LINE
  5
9D
330
17
100
AcDbEntity
  8
FP-Hatch
100
AcDbLine
 10
-74.5315248501247
 20
107.26517469250666
 30
0.0
 11
-67.4065248501247
 21
107.26517469250666
 31
0.0
  0
LINE
  5
9E
330
17
100
AcDbEntity
  8
FP-Hatch
100
AcDbLine
 10
-74.5315248501247
 20
107.26517469250666
 30
0.0
 11
-74.5315248501247
 21
107.64017469250666
 31
0.0
  0
LINE
  5
9F
330
17
100
AcDbEntity
  8
FP-Hatch
100
AcDbLine
 10
-74.5315248501247
 20
107.64017469250666
 30
0.0
 11
-67.4065248501247
 21
107.64017469250666
 31
0.0
  0
LINE
  5
A0
330
17
100
AcDbEntity
  8
FP-Hatch
100
AcDbLine
 10
-74.53152485012106
 20
105.01517469250666
 30
0.0
 11
-74.3815248501196
 21
105.01517469250666
 31
0.0
  0
LINE
  5
A1
330
17
100
AcDbEntity
  8
FP-Hatch
100
AcDbLine
 10
-74.3815248501196
 20
105.01517469250666
 30
0.0
 11
-67.4065248501247
 21
105.01517469250666
 31
0.0
  0
LINE
  5
A2
330
17
100
AcDbEntity
  8
FP-Hatch
100
AcDbLine
 10
-60.624330414684664
 20
104.83206208332763
 30
-0.07616669536480747
 11
-74.19933041468903
 21
104.83206208332763
 31
-0.07616669536480747
  0
LINE
  5
A3
330
17
100
AcDbEntity
  8
FP-Hatch
100
AcDbLine
 10
-74.04338232346345
 20
104.82767469250666
 30
0.0
 11
-74.1940248501196
 21
104.82767469250666
 31
0.0
  0
LINE
  5
A4
330
17
100
AcDbEntity
  8
FP-Hatch
100
AcDbLine
 10
-74.04338232346345
 20
104.82767469250666
 30
0.0
 11
-67.40652485012106
 21
104.82767469250666
 31
0.0
  0
LINE
  5
A5
330
17
100
AcDbEntity
  8
FP-Hatch
100
AcDbLine
 10
-67.59933041469048
 20
104.45706208332763
 30
-0.07616669536480747
 11
-74.04181625460478
 21
104.45706208332763
 31
-0.07616669536480747
  0
LINE
  5
A6
330
17
100
AcDbEntity
  8
FP-Hatch
100
AcDbLine
 10
-73.96148736819305
 20
104.45267469250666
 30
0.0
 11
-74.03651069003536
 21
104.45267469250666
 31
0.0
  0
LINE
  5
A7
330
17
100
AcDbEntity
  8
FP-Hatch
100
AcDbLine
 10
-73.96148736819305
 20
104.45267469250666
 30
0.0
 11
-67.59402485012106
 21
104.45267469250666
 31
0.0
  0
LINE
  5
A8
330
17
100
AcDbEntity
  8
FP-Hatch
100
AcDbLine
 10
-73.77724896157815
 20
104.38206208332736
 30
-0.07616669536480747
 11
-67.86183041468757
 21
104.38206208332872
 31
-0.07616669536480747
  0
LINE
  5
A9
330
17
100
AcDbEntity
  8
FP-Hatch
100
AcDbLine
 10
-73.77194339700873
 20
104.37767469250775
 30
0.0
 11
-67.85652485011815
 21
104.37767469250775
 31
0.0
  0
LINE
  5
AA
330
17
100
AcDbEntity
  8
FP-Hatch
100
AcDbLine
 10
-71.61512325723743
 20
91.635978075185
 30
0.0
 11
-71.54794318592758
 21
91.63597807518363
 31
0.0
  0
LINE
  5
AB
330
17
100
AcDbEntity
  8
FP-Hatch
100
AcDbLine
 10
-71.553248750497
 20
91.55338165661237
 30
-0.07616669536480747
 11
-63.27041207888033
 21
91.55338165661237
 31
-0.07616669536480747
  0
LINE
  5
AC
330
17
100
AcDbEntity
  8
FP-Hatch
100
AcDbLine
 10
-71.553248750497
 20
91.55338165661237
 30
-0.07616669536480747
 11
-71.553248750497
 21
91.64036546600596
 31
-0.07616669536480747
  0
LINE
  5
AD
330
17
100
AcDbEntity
  8
FP-Hatch
100
AcDbLine
 10
-71.553248750497
 20
91.6403654660046
 30
-0.07616669536480747
 11
-63.20323200757048
 21
91.64036546600596
 31
-0.07616669536480747
  0
LINE
  5
AE
330
17
100
AcDbEntity
  8
FP-Hatch
100
AcDbLine
 10
-71.54794318592758
 20
91.5489942657914
 30
0.0
 11
-71.36044318592758
 21
91.5489942657914
 31
0.0
  0
LINE
  5
AF
330
17
100
AcDbEntity
  8
FP-Hatch
100
AcDbLine
 10
-71.54794318592758
 20
91.5489942657914
 30
0.0
 11
-71.54794318592758
 21
91.635978075185
 31
0.0
  0
LINE
  5
B0
330
17
100
AcDbEntity
  8
FP-Hatch
100
AcDbLine
 10
-71.54794318592758
 20
91.63597807518363
 30
0.0
 11
-67.4065248501247
 21
91.63597807518363
 31
0.0
  0
LINE
  5
B1
330
17
100
AcDbEntity
  8
FP-Hatch
100
AcDbLine
 10
-71.36044318592758
 20
91.5489942657914
 30
0.0
 11
-67.4065248501247
 21
91.5489942657914
 31
0.0
  0
LINE
  5
B2
330
17
100
AcDbEntity
  8
FP-Hatch
100
AcDbLine
 10
-71.271998750497
 20
91.45963165661237
 30
-0.07616669536480747
 11
-63.55166207888033
 21
91.45963165661237
 31
-0.07616669536480747
  0
LINE
  5
B3
330
17
100
AcDbEntity
  8
FP-Hatch
100
AcDbLine
 10
-71.26669318592758
 20
91.4552442657914
 30
0.0
 11
-70.52371235012106
 21
91.4552442657914
 31
0.0
  0
LINE
  5
B4
330
17
100
AcDbEntity
  8
FP-Hatch
100
AcDbLine
 10
-71.11203108010523
 20
92.73280718589672
 30
-0.07616669536480747
 11
-71.17947561752226
 21
92.70000117467339
 31
-0.07616669536480747
  0
LINE
  5
B5
330
17
100
AcDbEntity
  8
FP-Hatch
100
AcDbLine
 10
-71.1067255155358
 20
92.72841979507575
 30
0.0
 11
-71.17417005295283
 21
92.69561378385242
 31
0.0
  0
LINE
  5
B6
330
17
100
AcDbEntity
  8
FP-Hatch
100
AcDbLine
 10
-71.1601839561481
 20
92.17030718589672
 30
-0.07616669536480747
 11
-63.66347687322559
 21
92.17030718589672
 31
-0.07616669536480747
  0
LINE
  5
B7
330
17
100
AcDbEntity
  8
FP-Hatch
100
AcDbLine
 10
-71.1601839561481
 20
92.17030718589672
 30
-0.07616669536480747
 11
-71.1601839561481
 21
92.35780718589672
 31
-0.07616669536480747
  0
LINE
  5
B8
330
17
100
AcDbEntity
  8
FP-Hatch
100
AcDbLine
 10
-71.1601839561481
 20
92.35780718589672
 30
-0.07616669536480747
 11
-63.66347687322559
 21
92.35780718589672
 31
-0.07616669536480747
  0
LINE
  5
B9
330
17
100
AcDbEntity
  8
FP-Hatch
100
AcDbLine
 10
-71.15487839157868
 20
92.16591979507575
 30
0.0
 11
-67.40652485012106
 21
92.16591979507575
 31
0.0
  0
LINE
  5
BA
330
17
100
AcDbEntity
  8
FP-Hatch
100
AcDbLine
 10
-71.15487839157868
 20
92.16591979507575
 30
0.0
 11
-71.15487839157868
 21
92.35341979507575
 31
0.0
  0
LINE
  5
BB
330
17
100
AcDbEntity
  8
FP-Hatch
100
AcDbLine
 10
-71.15487839157868
 20
92.35341979507575
 30
0.0
 11
-67.40652485012106
 21
92.35341979507575
 31
0.0
  0
LINE
  5
BC
330
17
100
AcDbEntity
  8
FP-Hatch
100
AcDbLine
 10
-71.11203108010523
 20
92.73280718589672
 30
-0.07616669536480747
 11
-63.711629749275744
 21
92.73280718589672
 31
-0.07616669536480747
  0
LINE
  5
BD
330
17
100
AcDbEntity
  8
FP-Hatch
100
AcDbLine
 10
-71.1067255155358
 20
92.72841979507575
 30
0.0
 11
-67.40652485012106
 21
92.72841979507575
 31
0.0
  0
LINE
  5
BE
330
17
100
AcDbEntity
  8
FP-Hatch
100
AcDbLine
 10
-70.9400063257599
 20
92.80780718589563
 30
-0.07616669536480747
 11
-67.86183041469485
 21
92.80780718589835
 31
-0.07616669536480747
  0
LINE
  5
BF
330
17
100
AcDbEntity
  8
FP-Hatch
100
AcDbLine
 10
-70.93470076119047
 20
92.80341979507466
 30
0.0
 11
-67.85652485012542
 21
92.80341979507602
 31
0.0
  0
LINE
  5
C0
330
17
100
AcDbEntity
  8
FP-Hatch
100
AcDbLine
 10
-70.52371235012106
 20
91.4552442657914
 30
0.0
 11
-67.4065248501247
 21
91.4552442657914
 31
0.0
  0
LINE
  5
C1
330
17
100
AcDbEntity
  8
FP-Hatch
100
AcDbLine
 10
-68.97901048600033
 20
114.39456208332899
 30
-0.07616669536480747
 11
-65.91183041469048
 21
114.39456208332763
 31
-0.07616669536480747
  0
LINE
  5
C2
330
17
100
AcDbEntity
  8
FP-Hatch
100
AcDbLine
 10
-68.97901048599306
 20
87.85025665661237
 30
-0.07616669536480747
 11
-65.91183041469412
 21
87.85025665661237
 31
-0.07616669536480747
  0
LINE
  5
C3
330
17
100
AcDbEntity
  8
FP-Hatch
100
AcDbLine
 10
-68.97370492143091
 20
114.39017469250803
 30
0.0
 11
-68.90652485012106
 21
114.39017469250666
 31
0.0
  0
LINE
  5
C4
330
17
100
AcDbEntity
  8
FP-Hatch
100
AcDbLine
 10
-68.97370492142363
 20
87.8458692657914
 30
0.0
 11
-68.90652485011378
 21
87.8458692657914
 31
0.0
  0
LWPOLYLINE
  5
C5
330
17
100
AcDbEntity
  8
FP-Hatch
100
AcDbPolyline
 90
3
 70
0
 38
-0.07616669536480747
 10
-68.91183041469412
 20
112.89456208332763
 10
-68.91183041469412
 20
113.08206208332763
 10
-65.91183041468321
 20
113.08206208332763
  0
LINE
  5
C6
330
17
100
AcDbEntity
  8
FP-Hatch
100
AcDbLine
 10
-68.91183041469412
 20
112.89456208332763
 30
-0.07616669536480747
 11
-65.91183041468321
 21
112.89456208332763
 31
-0.07616669536480747
  0
LWPOLYLINE
  5
C7
330
17
100
AcDbEntity
  8
FP-Hatch
100
AcDbPolyline
 90
3
 70
0
 38
-0.07616669536480747
 10
-68.91183041469048
 20
89.35025665661237
 10
-68.91183041469048
 20
89.16275665661237
 10
-65.91183041469048
 20
89.16275665661237
  0
LINE
  5
C8
330
17
100
AcDbEntity
  8
FP-Hatch
100
AcDbLine
 10
-68.91183041469048
 20
89.35025665661237
 30
-0.07616669536480747
 11
-65.91183041469048
 21
89.35025665661237
 31
-0.07616669536480747
  0
LWPOLYLINE
  5
C9
330
17
100
AcDbEntity
  8
FP-Hatch
100
AcDbPolyline
 90
2
 70
0
 38
-0.07616669536480747
 10
-68.91183041469048
 20
114.39456208332763
 10
-68.91183041469048
 20
114.20706208332763
  0
LINE
  5
CA
330
17
100
AcDbEntity
  8
FP-Hatch
100
AcDbLine
 10
-68.91183041469048
 20
114.20706208332763
 30
-0.07616669536480747
 11
-65.91183041469048
 21
114.20706208332763
 31
-0.07616669536480747
  0
LWPOLYLINE
  5
CB
330
17
100
AcDbEntity
  8
FP-Hatch
100
AcDbPolyline
 90
2
 70
0
 38
-0.07616669536480747
 10
-68.91183041468321
 20
87.85025665661237
 10
-68.91183041468321
 20
88.03775665661237
  0
LINE
  5
CC
330
17
100
AcDbEntity
  8
FP-Hatch
100
AcDbLine
 10
-68.91183041468321
 20
88.03775665661237
 30
-0.07616669536480747
 11
-65.91183041469412
 21
88.03775665661237
 31
-0.07616669536480747
  0
LWPOLYLINE
  5
CD
330
17
100
AcDbEntity
  8
FP-Hatch
100
AcDbPolyline
 90
3
 70
0
 10
-68.9065248501247
 20
112.89017469250666
 10
-68.9065248501247
 20
113.07767469250666
 10
-68.7190248501247
 20
113.07767469250666
  0
LINE
  5
CE
330
17
100
AcDbEntity
  8
FP-Hatch
100
AcDbLine
 10
-68.9065248501247
 20
112.89017469250666
 30
0.0
 11
-67.4065248501247
 21
112.89017469250666
 31
0.0
  0
LWPOLYLINE
  5
CF
330
17
100
AcDbEntity
  8
FP-Hatch
100
AcDbPolyline
 90
3
 70
0
 10
-68.90652485012106
 20
89.3458692657914
 10
-68.90652485012106
 20
89.1583692657914
 10
-68.71902485012106
 20
89.1583692657914
  0
LINE
  5
D0
330
17
100
AcDbEntity
  8
FP-Hatch
100
AcDbLine
 10
-68.90652485012106
 20
89.3458692657914
 30
0.0
 11
-67.40652485012106
 21
89.3458692657914
 31
0.0
  0
LWPOLYLINE
  5
D1
330
17
100
AcDbEntity
  8
FP-Hatch
100
AcDbPolyline
 90
2
 70
0
 10
-68.90652485012106
 20
114.39017469250666
 10
-68.90652485012106
 20
114.20267469250666
  0
LINE
  5
D2
330
17
100
AcDbEntity
  8
FP-Hatch
100
AcDbLine
 10
-68.90652485012106
 20
114.20267469250666
 30
0.0
 11
-67.4065248501247
 21
114.20267469250666
 31
0.0
  0
LINE
  5
D3
330
17
100
AcDbEntity
  8
FP-Hatch
100
AcDbLine
 10
-68.90652485012106
 20
114.39017469250666
 30
0.0
 11
-67.40652485012106
 21
114.39017469250666
 31
0.0
  0
LWPOLYLINE
  5
D4
330
17
100
AcDbEntity
  8
FP-Hatch
100
AcDbPolyline
 90
2
 70
0
 10
-68.90652485011378
 20
87.8458692657914
 10
-68.90652485011378
 20
88.0333692657914
  0
LINE
  5
D5
330
17
100
AcDbEntity
  8
FP-Hatch
100
AcDbLine
 10
-68.90652485011378
 20
87.8458692657914
 30
0.0
 11
-67.40652485011378
 21
87.8458692657914
 31
0.0
  0
LINE
  5
D6
330
17
100
AcDbEntity
  8
FP-Hatch
100
AcDbLine
 10
-68.90652485011378
 20
88.0333692657914
 30
0.0
 11
-67.40652485012106
 21
88.0333692657914
 31
0.0
  0
LINE
  5
D7
330
17
100
AcDbEntity
  8
FP-Hatch
100
AcDbLine
 10
-68.7190248501247
 20
113.07767469250666
 30
0.0
 11
-67.4065248501247
 21
113.07767469250666
 31
0.0
  0
LINE
  5
D8
330
17
100
AcDbEntity
  8
FP-Hatch
100
AcDbLine
 10
-68.71902485012106
 20
89.1583692657914
 30
0.0
 11
-67.40652485012106
 21
89.1583692657914
 31
0.0
  0
LWPOLYLINE
  5
D9
330
17
100
AcDbEntity
  8
FP-Hatch
100
AcDbPolyline
 90
5
 70
0
 10
-67.98777485012033
 20
116.27870707372222
 10
-68.06277485012106
 20
116.27870707372222
 10
-68.15652485012106
 20
116.18495707372222
 10
-68.15652485012106
 20
116.18495707372222
 10
-68.06277485012106
 20
116.09120707372222
  0
LWPOLYLINE
  5
DA
330
17
100
AcDbEntity
  8
FP-Hatch
100
AcDbPolyline
 90
5
 70
0
 10
-67.9877748501167
 20
84.83233688457858
 10
-68.06277485011378
 20
84.83233688457858
 10
-68.15652485011378
 20
84.92608688457858
 10
-68.15652485011378
 20
84.92608688457858
 10
-68.06277485011378
 20
85.01983688457858
  0
LWPOLYLINE
  5
DB
330
17
100
AcDbEntity
  8
FP-Hatch
100
AcDbPolyline
 90
3
 70
0
 38
-0.07616669536480747
 10
-66.83058041468757
 20
116.28309446454318
 10
-68.06808041469048
 20
116.28309446454318
 10
-68.06924185188836
 20
116.0956016591465
  0
LINE
  5
DC
330
17
100
AcDbEntity
  8
FP-Hatch
100
AcDbLine
 10
-66.80981380036974
 20
116.09559446454318
 30
-0.07616669536480747
 11
-68.06808041469048
 21
116.09559446454318
 31
-0.07616669536480747
  0
LINE
  5
DD
330
17
100
AcDbEntity
  8
FP-Hatch
100
AcDbLine
 10
-66.83058041469485
 20
84.83672427539955
 30
-0.07616669536480747
 11
-68.06808041468321
 21
84.83672427539955
 31
-0.07616669536480747
  0
LINE
  5
DE
330
17
100
AcDbEntity
  8
FP-Hatch
100
AcDbLine
 10
-66.80981380037338
 20
85.02422427539955
 30
-0.07616669536480747
 11
-68.06808041468321
 21
85.02422427539955
 31
-0.07616669536480747
  0
LINE
  5
DF
330
17
100
AcDbEntity
  8
FP-Hatch
100
AcDbLine
 10
-68.00854146443453
 20
116.09120707372085
 30
0.0
 11
-68.06277485012106
 21
116.09120707372222
 31
0.0
  0
LINE
  5
E0
330
17
100
AcDbEntity
  8
FP-Hatch
100
AcDbLine
 10
-68.00854146443453
 20
85.01983688457858
 30
0.0
 11
-68.06277485011378
 21
85.01983688457858
 31
0.0
  0
LINE
  5
E1
330
17
100
AcDbEntity
  8
FP-Hatch
100
AcDbLine
 10
-68.0085414644418
 20
116.09120707372222
 30
0.0
 11
-67.4065248501247
 21
116.09120707372222
 31
0.0
  0
LINE
  5
E2
330
17
100
AcDbEntity
  8
FP-Hatch
100
AcDbLine
 10
-68.00854146443453
 20
85.01983688457858
 30
0.0
 11
-67.40652485012106
 21
85.01983688457858
 31
0.0
  0
LINE
  5
E3
330
17
100
AcDbEntity
  8
FP-Hatch
100
AcDbLine
 10
-67.4065248501247
 20
116.27870707372222
 30
0.0
 11
-67.98777485012033
 21
116.27870707372222
 31
0.0
  0
LINE
  5
E4
330
17
100
AcDbEntity
  8
FP-Hatch
100
AcDbLine
 10
-67.40652485012106
 20
84.83233688457858
 30
0.0
 11
-67.9877748501167
 21
84.83233688457858
 31
0.0
  0
LWPOLYLINE
  5
E5
330
17
100
AcDbEntity
  8
FP-Hatch
100
AcDbPolyline
 90
3
 70
0
 38
-0.07616669536480747
 10
-67.88058041469048
 20
115.53309446454318
 10
-67.97433041469048
 20
115.43934446454318
 10
-67.97433041469048
 20
115.34559446454318
  0
LINE
  5
E6
330
17
100
AcDbEntity
  8
FP-Hatch
100
AcDbLine
 10
-67.97433041469048
 20
115.34559446454318
 30
-0.07616669536480747
 11
-66.84933041469048
 21
115.34559446454318
 31
-0.07616669536480747
  0
LWPOLYLINE
  5
E7
330
17
100
AcDbEntity
  8
FP-Hatch
100
AcDbPolyline
 90
3
 70
0
 38
-0.07616669536480747
 10
-67.88058041468321
 20
86.71172427539955
 10
-67.97433041468321
 20
86.80547427539955
 10
-67.97433041468321
 20
86.89922427539955
  0
LINE
  5
E8
330
17
100
AcDbEntity
  8
FP-Hatch
100
AcDbLine
 10
-67.97433041468321
 20
86.89922427539955
 30
-0.07616669536480747
 11
-66.84933041469412
 21
86.89922427539955
 31
-0.07616669536480747
  0
LWPOLYLINE
  5
E9
330
17
100
AcDbEntity
  8
FP-Hatch
100
AcDbPolyline
 90
3
 70
0
 10
-67.87527485012106
 20
115.52870707372222
 10
-67.96902485012106
 20
115.43495707372222
 10
-67.96902485012106
 20
115.34120707372222
  0
LINE
  5
EA
330
17
100
AcDbEntity
  8
FP-Hatch
100
AcDbLine
 10
-67.96902485012106
 20
115.34120707372222
 30
0.0
 11
-67.4065248501247
 21
115.34120707372222
 31
0.0
  0
LWPOLYLINE
  5
EB
330
17
100
AcDbEntity
  8
FP-Hatch
100
AcDbPolyline
 90
3
 70
0
 10
-67.87527485011378
 20
86.70733688457858
 10
-67.96902485011378
 20
86.80108688457858
 10
-67.96902485011378
 20
86.89483688457858
  0
LINE
  5
EC
330
17
100
AcDbEntity
  8
FP-Hatch
100
AcDbLine
 10
-67.96902485011378
 20
86.89483688457858
 30
0.0
 11
-67.40652485012106
 21
86.89483688457858
 31
0.0
  0
LINE
  5
ED
330
17
100
AcDbEntity
  8
FP-Hatch
100
AcDbLine
 10
-67.88058041469048
 20
115.53309446454318
 30
-0.07616669536480747
 11
-66.94308041469048
 21
115.53309446454318
 31
-0.07616669536480747
  0
LINE
  5
EE
330
17
100
AcDbEntity
  8
FP-Hatch
100
AcDbLine
 10
-67.88058041468321
 20
86.71172427539955
 30
-0.07616669536480747
 11
-66.94308041469412
 21
86.71172427539955
 31
-0.07616669536480747
  0
LINE
  5
EF
330
17
100
AcDbEntity
  8
FP-Hatch
100
AcDbLine
 10
-67.87527485012106
 20
115.52870707372222
 30
0.0
 11
-67.4065248501247
 21
115.52870707372222
 31
0.0
  0
LINE
  5
F0
330
17
100
AcDbEntity
  8
FP-Hatch
100
AcDbLine
 10
-67.87527485011378
 20
86.70733688457858
 30
0.0
 11
-67.40652485012106
 21
86.70733688457858
 31
0.0
  0
LINE
  5
F1
330
17
100
AcDbEntity
  8
FP-Hatch
100
AcDbLine
 10
-67.86183041468757
 20
92.73280718589672
 30
-0.07616669536480747
 11
-67.86183041468757
 21
104.45706208332763
 31
-0.07616669536480747
  0
LINE
  5
F2
330
17
100
AcDbEntity
  8
FP-Hatch
100
AcDbLine
 10
-67.85652485011815
 20
92.72841979507575
 30
0.0
 11
-67.85652485011815
 21
104.45267469250666
 31
0.0
  0
LINE
  5
F3
330
17
100
AcDbEntity
  8
FP-Hatch
100
AcDbLine
 10
-67.78683041469048
 20
92.73280718589672
 30
-0.07616669536480747
 11
-67.78683041469048
 21
104.45706208332763
 31
-0.07616669536480747
  0
LINE
  5
F4
330
17
100
AcDbEntity
  8
FP-Hatch
100
AcDbLine
 10
-67.78152485012106
 20
92.72841979507575
 30
0.0
 11
-67.78152485012106
 21
104.45267469250666
 31
0.0
  0
LWPOLYLINE
  5
F5
330
17
100
AcDbEntity
  8
FP-Hatch
100
AcDbPolyline
 90
2
 70
0
 38
-0.07616669536480747
 10
-67.59933041469048
 20
104.83206208332763
 10
-67.59933041469048
 20
102.95706208332763
  0
LWPOLYLINE
  5
F6
330
17
100
AcDbEntity
  8
FP-Hatch
100
AcDbPolyline
 90
4
 70
0
 10
-67.59402485012106
 20
102.95267469250666
 10
-67.59402485012106
 20
104.82767469250666
 10
-67.21902485012106
 20
104.82767469250666
 10
-67.21902485012106
 20
102.95267469250666
  0
LINE
  5
F7
330
17
100
AcDbEntity
  8
FP-Hatch
100
AcDbLine
 10
-65.9065248501247
 20
87.8458692657914
 30
0.0
 11
-67.4065248501247
 21
87.8458692657914
 31
0.0
  0
LINE
  5
F8
330
17
100
AcDbEntity
  8
FP-Hatch
100
AcDbLine
 10
-67.40652485012106
 20
84.83233688457858
 30
0.0
 11
-66.82527485012542
 21
84.83233688457858
 31
0.0
  0
LINE
  5
F9
330
17
100
AcDbEntity
  8
FP-Hatch
100
AcDbLine
 10
-66.80450823580395
 20
85.01983688457858
 30
0.0
 11
-67.40652485012106
 21
85.01983688457858
 31
0.0
  0
LINE
  5
FA
330
17
100
AcDbEntity
  8
FP-Hatch
100
AcDbLine
 10
-66.9377748501247
 20
86.70733688457858
 30
0.0
 11
-67.40652485012106
 21
86.70733688457858
 31
0.0
  0
LINE
  5
FB
330
17
100
AcDbEntity
  8
FP-Hatch
100
AcDbLine
 10
-66.8440248501247
 20
86.89483688457858
 30
0.0
 11
-67.40652485012106
 21
86.89483688457858
 31
0.0
  0
LINE
  5
FC
330
17
100
AcDbEntity
  8
FP-Hatch
100
AcDbLine
 10
-65.9065248501247
 20
88.0333692657914
 30
0.0
 11
-67.40652485012106
 21
88.0333692657914
 31
0.0
  0
LINE
  5
FD
330
17
100
AcDbEntity
  8
FP-Hatch
100
AcDbLine
 10
-66.09402485012106
 20
89.1583692657914
 30
0.0
 11
-67.40652485012106
 21
89.1583692657914
 31
0.0
  0
LINE
  5
FE
330
17
100
AcDbEntity
  8
FP-Hatch
100
AcDbLine
 10
-65.90652485012106
 20
89.3458692657914
 30
0.0
 11
-67.40652485012106
 21
89.3458692657914
 31
0.0
  0
LINE
  5
FF
330
17
100
AcDbEntity
  8
FP-Hatch
100
AcDbLine
 10
-63.658171308656165
 20
92.16591979507575
 30
0.0
 11
-67.40652485012106
 21
92.16591979507575
 31
0.0
  0
LINE
  5
100
330
17
100
AcDbEntity
  8
FP-Hatch
100
AcDbLine
 10
-63.658171308656165
 20
92.35341979507575
 30
0.0
 11
-67.40652485012106
 21
92.35341979507575
 31
0.0
  0
LINE
  5
101
330
17
100
AcDbEntity
  8
FP-Hatch
100
AcDbLine
 10
-63.70632418470632
 20
92.72841979507575
 30
0.0
 11
-67.40652485012106
 21
92.72841979507575
 31
0.0
  0
LINE
  5
102
330
17
100
AcDbEntity
  8
FP-Hatch
100
AcDbLine
 10
-60.76966737677867
 20
104.82767469250666
 30
0.0
 11
-67.40652485012106
 21
104.82767469250666
 31
0.0
  0
LINE
  5
103
330
17
100
AcDbEntity
  8
FP-Hatch
100
AcDbLine
 10
-65.90652485012106
 20
114.39017469250666
 30
0.0
 11
-67.40652485012106
 21
114.39017469250666
 31
0.0
  0
LINE
  5
104
330
17
100
AcDbEntity
  8
FP-Hatch
100
AcDbLine
 10
-64.28933735012106
 20
91.4552442657914
 30
0.0
 11
-67.40652485011378
 21
91.4552442657914
 31
0.0
  0
LINE
  5
105
330
17
100
AcDbEntity
  8
FP-Hatch
100
AcDbLine
 10
-63.4526065143109
 20
91.5489942657914
 30
0.0
 11
-67.40652485011378
 21
91.5489942657914
 31
0.0
  0
LINE
  5
106
330
17
100
AcDbEntity
  8
FP-Hatch
100
AcDbLine
 10
-63.2651065143109
 20
91.63597807518363
 30
0.0
 11
-67.40652485011378
 21
91.63597807518363
 31
0.0
  0
LINE
  5
107
330
17
100
AcDbEntity
  8
FP-Hatch
100
AcDbLine
 10
-60.43152485011524
 20
105.01517469250666
 30
0.0
 11
-67.40652485011378
 21
105.01517469250666
 31
0.0
  0
LINE
  5
108
330
17
100
AcDbEntity
  8
FP-Hatch
100
AcDbLine
 10
-60.28152485011378
 20
105.95267469250666
 30
0.0
 11
-67.40652485011378
 21
105.95267469250666
 31
0.0
  0
LINE
  5
109
330
17
100
AcDbEntity
  8
FP-Hatch
100
AcDbLine
 10
-60.09402485011378
 20
106.14017469250666
 30
0.0
 11
-67.40652485011378
 21
106.14017469250666
 31
0.0
  0
LINE
  5
10A
330
17
100
AcDbEntity
  8
FP-Hatch
100
AcDbLine
 10
-59.34402485011378
 20
106.31414231129384
 30
0.0
 11
-67.40652485011378
 21
106.31414231129384
 31
0.0
  0
LINE
  5
10B
330
17
100
AcDbEntity
  8
FP-Hatch
100
AcDbLine
 10
-60.28152485011378
 20
107.26517469250666
 30
0.0
 11
-67.40652485011378
 21
107.26517469250666
 31
0.0
  0
LINE
  5
10C
330
17
100
AcDbEntity
  8
FP-Hatch
100
AcDbLine
 10
-60.28152485011378
 20
107.64017469250666
 30
0.0
 11
-67.40652485011378
 21
107.64017469250666
 31
0.0
  0
LINE
  5
10D
330
17
100
AcDbEntity
  8
FP-Hatch
100
AcDbLine
 10
-65.90652485011378
 20
112.89017469250666
 30
0.0
 11
-67.40652485011378
 21
112.89017469250666
 31
0.0
  0
LINE
  5
10E
330
17
100
AcDbEntity
  8
FP-Hatch
100
AcDbLine
 10
-66.09402485011378
 20
113.07767469250666
 30
0.0
 11
-67.40652485011378
 21
113.07767469250666
 31
0.0
  0
LINE
  5
10F
330
17
100
AcDbEntity
  8
FP-Hatch
100
AcDbLine
 10
-65.90652485012106
 20
114.20267469250666
 30
0.0
 11
-67.40652485011378
 21
114.20267469250666
 31
0.0
  0
LINE
  5
110
330
17
100
AcDbEntity
  8
FP-Hatch
100
AcDbLine
 10
-66.84402485012106
 20
115.34120707372222
 30
0.0
 11
-67.40652485011378
 21
115.34120707372222
 31
0.0
  0
LINE
  5
111
330
17
100
AcDbEntity
  8
FP-Hatch
100
AcDbLine
 10
-66.93777485012106
 20
115.52870707372222
 30
0.0
 11
-67.40652485011378
 21
115.52870707372222
 31
0.0
  0
LINE
  5
112
330
17
100
AcDbEntity
  8
FP-Hatch
100
AcDbLine
 10
-66.80450823580031
 20
116.09120707372222
 30
0.0
 11
-67.40652485011378
 21
116.09120707372222
 31
0.0
  0
LINE
  5
113
330
17
100
AcDbEntity
  8
FP-Hatch
100
AcDbLine
 10
-67.40652485011378
 20
116.27870707372222
 30
0.0
 11
-66.82527485011815
 21
116.27870707372222
 31
0.0
  0
LWPOLYLINE
  5
114
330
17
100
AcDbEntity
  8
FP-Hatch
100
AcDbPolyline
 90
2
 70
0
 38
-0.07616669536480747
 10
-67.22433041469048
 20
102.95706208332763
 10
-67.22433041469048
 20
104.83206208332763
  0
LINE
  5
115
330
17
100
AcDbEntity
  8
FP-Hatch
100
AcDbLine
 10
-60.78184457476891
 20
104.45706208332763
 30
-0.07616669536480747
 11
-67.22433041469048
 21
104.45706208332763
 31
-0.07616669536480747
  0
LINE
  5
116
330
17
100
AcDbEntity
  8
FP-Hatch
100
AcDbLine
 10
-60.851562332041794
 20
104.45267469250666
 30
0.0
 11
-67.21902485012106
 21
104.45267469250666
 31
0.0
  0
LINE
  5
117
330
17
100
AcDbEntity
  8
FP-Hatch
100
AcDbLine
 10
-67.03683041469048
 20
92.73280718589672
 30
-0.07616669536480747
 11
-67.03683041469048
 21
104.45706208332763
 31
-0.07616669536480747
  0
LINE
  5
118
330
17
100
AcDbEntity
  8
FP-Hatch
100
AcDbLine
 10
-67.03152485012106
 20
92.72841979507575
 30
0.0
 11
-67.03152485012106
 21
104.45267469250666
 31
0.0
  0
LINE
  5
119
330
17
100
AcDbEntity
  8
FP-Hatch
100
AcDbLine
 10
-66.96183041468976
 20
92.73280718589672
 30
-0.07616669536480747
 11
-66.96183041468976
 21
104.45706208332763
 31
-0.07616669536480747
  0
LINE
  5
11A
330
17
100
AcDbEntity
  8
FP-Hatch
100
AcDbLine
 10
-61.04641186779918
 20
104.38206208332872
 30
-0.07616669536480747
 11
-66.96183041468976
 21
104.38206208332872
 31
-0.07616669536480747
  0
LINE
  5
11B
330
17
100
AcDbEntity
  8
FP-Hatch
100
AcDbLine
 10
-63.883654503617436
 20
92.80780718589563
 30
-0.07616669536480747
 11
-66.96183041468612
 21
92.80780718589699
 31
-0.07616669536480747
  0
LINE
  5
11C
330
17
100
AcDbEntity
  8
FP-Hatch
100
AcDbLine
 10
-66.95652485012033
 20
92.72841979507575
 30
0.0
 11
-66.95652485012033
 21
104.45267469250666
 31
0.0
  0
LINE
  5
11D
330
17
100
AcDbEntity
  8
FP-Hatch
100
AcDbLine
 10
-61.04110630322975
 20
104.37767469250639
 30
0.0
 11
-66.95652485012033
 21
104.37767469250775
 31
0.0
  0
LINE
  5
11E
330
17
100
AcDbEntity
  8
FP-Hatch
100
AcDbLine
 10
-63.87834893904801
 20
92.80341979507466
 30
0.0
 11
-66.9565248501167
 21
92.80341979507739
 31
0.0
  0
LWPOLYLINE
  5
11F
330
17
100
AcDbEntity
  8
FP-Hatch
100
AcDbPolyline
 90
3
 70
0
 38
-0.07616669536480747
 10
-66.94308041469412
 20
86.71172427539955
 10
-66.84933041469412
 20
86.80547427539955
 10
-66.84933041469412
 20
86.89922427539955
  0
LWPOLYLINE
  5
120
330
17
100
AcDbEntity
  8
FP-Hatch
100
AcDbPolyline
 90
3
 70
0
 38
-0.07616669536480747
 10
-66.94308041469048
 20
115.53309446454318
 10
-66.84933041469048
 20
115.43934446454318
 10
-66.84933041469048
 20
115.34559446454318
  0
LWPOLYLINE
  5
121
330
17
100
AcDbEntity
  8
FP-Hatch
100
AcDbPolyline
 90
3
 70
0
 10
-66.9377748501247
 20
86.70733688457858
 10
-66.8440248501247
 20
86.80108688457858
 10
-66.8440248501247
 20
86.89483688457858
  0
LWPOLYLINE
  5
122
330
17
100
AcDbEntity
  8
FP-Hatch
100
AcDbPolyline
 90
3
 70
0
 10
-66.93777485012106
 20
115.52870707372222
 10
-66.84402485012106
 20
115.43495707372222
 10
-66.84402485012106
 20
115.34120707372222
  0
LWPOLYLINE
  5
123
330
17
100
AcDbEntity
  8
FP-Hatch
100
AcDbPolyline
 90
5
 70
0
 10
-66.82527485012542
 20
84.83233688457858
 10
-66.7502748501247
 20
84.83233688457858
 10
-66.6565248501247
 20
84.92608688457858
 10
-66.6565248501247
 20
84.92608688457858
 10
-66.7502748501247
 20
85.01983688457858
  0
LWPOLYLINE
  5
124
330
17
100
AcDbEntity
  8
FP-Hatch
100
AcDbPolyline
 90
5
 70
0
 10
-66.82527485011815
 20
116.27870707372222
 10
-66.75027485012106
 20
116.27870707372222
 10
-66.65652485012106
 20
116.18495707372222
 10
-66.65652485012106
 20
116.18495707372222
 10
-66.75027485012106
 20
116.09120707372222
  0
LINE
  5
125
330
17
100
AcDbEntity
  8
FP-Hatch
100
AcDbLine
 10
-66.80450823580395
 20
85.01983688457858
 30
0.0
 11
-66.7502748501247
 21
85.01983688457858
 31
0.0
  0
LINE
  5
126
330
17
100
AcDbEntity
  8
FP-Hatch
100
AcDbLine
 10
-66.80450823580395
 20
116.09120707372085
 30
0.0
 11
-66.75027485012106
 21
116.09120707372222
 31
0.0
  0
LWPOLYLINE
  5
127
330
17
100
AcDbEntity
  8
FP-Hatch
100
AcDbPolyline
 90
2
 70
0
 38
-0.07616669536480747
 10
-66.75558041469412
 20
84.83672427539955
 10
-66.7598931139728
 20
85.024125026197
  0
LWPOLYLINE
  5
128
330
17
100
AcDbEntity
  8
FP-Hatch
100
AcDbPolyline
 90
3
 70
0
 10
-65.90652485012106
 20
89.3458692657914
 10
-65.90652485012106
 20
89.1583692657914
 10
-66.09402485012106
 20
89.1583692657914
  0
LWPOLYLINE
  5
129
330
17
100
AcDbEntity
  8
FP-Hatch
100
AcDbPolyline
 90
3
 70
0
 10
-65.90652485011378
 20
112.89017469250666
 10
-65.90652485011378
 20
113.07767469250666
 10
-66.09402485011378
 20
113.07767469250666
  0
LWPOLYLINE
  5
12A
330
17
100
AcDbEntity
  8
FP-Hatch
100
AcDbPolyline
 90
2
 70
0
 38
-0.07616669536480747
 10
-65.91183041469412
 20
87.85025665661237
 10
-65.91183041469412
 20
88.03775665661237
  0
LWPOLYLINE
  5
12B
330
17
100
AcDbEntity
  8
FP-Hatch
100
AcDbPolyline
 90
2
 70
0
 38
-0.07616669536480747
 10
-65.91183041469048
 20
89.35025665661237
 10
-65.91183041469048
 20
89.16275665661237
  0
LWPOLYLINE
  5
12C
330
17
100
AcDbEntity
  8
FP-Hatch
100
AcDbPolyline
 90
2
 70
0
 38
-0.07616669536480747
 10
-65.91183041469048
 20
114.39456208332763
 10
-65.91183041469048
 20
114.20706208332763
  0
LWPOLYLINE
  5
12D
330
17
100
AcDbEntity
  8
FP-Hatch
100
AcDbPolyline
 90
2
 70
0
 38
-0.07616669536480747
 10
-65.91183041468321
 20
112.89456208332763
 10
-65.91183041468321
 20
113.08206208332763
  0
LWPOLYLINE
  5
12E
330
17
100
AcDbEntity
  8
FP-Hatch
100
AcDbPolyline
 90
2
 70
0
 10
-65.9065248501247
 20
87.8458692657914
 10
-65.9065248501247
 20
88.0333692657914
  0
LINE
  5
12F
330
17
100
AcDbEntity
  8
FP-Hatch
100
AcDbLine
 10
-65.83934477881485
 20
87.8458692657914
 30
0.0
 11
-65.9065248501247
 21
87.8458692657914
 31
0.0
  0
LWPOLYLINE
  5
130
330
17
100
AcDbEntity
  8
FP-Hatch
100
AcDbPolyline
 90
2
 70
0
 10
-65.90652485012106
 20
114.39017469250666
 10
-65.90652485012106
 20
114.20267469250666
  0
LINE
  5
131
330
17
100
AcDbEntity
  8
FP-Hatch
100
AcDbLine
 10
-65.83934477881121
 20
114.39017469250803
 30
0.0
 11
-65.90652485012106
 21
114.39017469250666
 31
0.0
  0
LINE
  5
132
330
17
100
AcDbEntity
  8
FP-Hatch
100
AcDbLine
 10
-63.5463565143109
 20
91.4552442657914
 30
0.0
 11
-64.28933735012106
 21
91.4552442657914
 31
0.0
  0
LINE
  5
133
330
17
100
AcDbEntity
  8
FP-Hatch
100
AcDbLine
 10
-63.711629749275744
 20
92.73280718589672
 30
-0.07616669536480747
 11
-63.644185211855074
 21
92.70000117467339
 31
-0.07616669536480747
  0
LINE
  5
134
330
17
100
AcDbEntity
  8
FP-Hatch
100
AcDbLine
 10
-63.70632418470632
 20
92.72841979507575
 30
0.0
 11
-63.63887964728565
 21
92.69561378385242
 31
0.0
  0
LINE
  5
135
330
17
100
AcDbEntity
  8
FP-Hatch
100
AcDbLine
 10
-63.66347687322559
 20
92.17030718589672
 30
-0.07616669536480747
 11
-63.66347687322559
 21
92.35780718589672
 31
-0.07616669536480747
  0
LINE
  5
136
330
17
100
AcDbEntity
  8
FP-Hatch
100
AcDbLine
 10
-63.658171308656165
 20
92.16591979507575
 30
0.0
 11
-63.658171308656165
 21
92.35341979507575
 31
0.0
  0
LINE
  5
137
330
17
100
AcDbEntity
  8
FP-Hatch
100
AcDbLine
 10
-63.2651065143109
 20
91.5489942657914
 30
0.0
 11
-63.4526065143109
 21
91.5489942657914
 31
0.0
  0
LINE
  5
138
330
17
100
AcDbEntity
  8
FP-Hatch
100
AcDbLine
 10
-63.27041207888033
 20
91.55338165661237
 30
-0.07616669536480747
 11
-63.27041207888033
 21
91.64036546600596
 31
-0.07616669536480747
  0
LINE
  5
139
330
17
100
AcDbEntity
  8
FP-Hatch
100
AcDbLine
 10
-63.2651065143109
 20
91.5489942657914
 30
0.0
 11
-63.2651065143109
 21
91.635978075185
 31
0.0
  0
LINE
  5
13A
330
17
100
AcDbEntity
  8
FP-Hatch
100
AcDbLine
 10
-63.19792644300105
 20
91.635978075185
 30
0.0
 11
-63.2651065143109
 21
91.63597807518363
 31
0.0
  0
LINE
  5
13B
330
17
100
AcDbEntity
  8
FP-Hatch
100
AcDbLine
 10
-60.851562332041794
 20
104.45267469250666
 30
0.0
 11
-60.776539010199485
 21
104.45267469250666
 31
0.0
  0
LINE
  5
13C
330
17
100
AcDbEntity
  8
FP-Hatch
100
AcDbLine
 10
-60.76966737677867
 20
104.82767469250666
 30
0.0
 11
-60.61902485011524
 21
104.82767469250666
 31
0.0
  0
LINE
  5
13D
330
17
100
AcDbEntity
  8
FP-Hatch
100
AcDbLine
 10
-60.28152485012106
 20
105.01517469250666
 30
0.0
 11
-60.43152485011524
 21
105.01517469250666
 31
0.0
  0
LINE
  5
13E
330
17
100
AcDbEntity
  8
FP-Hatch
100
AcDbLine
 10
-60.28683041468321
 20
107.26956208332763
 30
-0.07616669536480747
 11
-60.28683041468321
 21
107.64456208332763
 31
-0.07616669536480747
  0
LINE
  5
13F
330
17
100
AcDbEntity
  8
FP-Hatch
100
AcDbLine
 10
-60.28152485011378
 20
107.26517469250666
 30
0.0
 11
-60.28152485011378
 21
107.64017469250666
 31
0.0
  0
LINE
  5
140
330
17
100
AcDbEntity
  8
FP-Hatch
100
AcDbLine
 10
-59.34402485011378
 20
106.14017469250666
 30
0.0
 11
-60.09402485011378
 21
106.14017469250666
 31
0.0
  0
LINE
  5
141
330
17
100
AcDbEntity
  8
FP-Hatch
100
AcDbLine
 10
-59.34933041468321
 20
106.14456208332763
 30
-0.07616669536480747
 11
-59.34933041468321
 21
106.3185297021148
 31
-0.07616669536480747
  0
LINE
  5
142
330
17
100
AcDbEntity
  8
FP-Hatch
100
AcDbLine
 10
-59.34402485011378
 20
106.14017469250666
 30
0.0
 11
-59.34402485011378
 21
106.31414231129384
 31
0.0
  0
LINE
  5
143
330
17
100
AcDbEntity
  8
FP-Hatch
100
AcDbLine
 10
-59.276844778803934
 20
106.31414231129384
 30
0.0
 11
-59.34402485011378
 21
106.31414231129384
 31
0.0
  0
LWPOLYLINE
  5
144
330
17
100
AcDbEntity
  8
FP-Proposed Wall
100
AcDbPolyline
 90
4
 70
0
 10
-41.20397893509289
 20
1.5011043368001538
 10
-43.20397893509289
 20
1.5011043368001538
 10
-43.20397893509289
 20
7.50110313387745
 10
-29.226596138272726
 20
7.50110313387745
  0
LWPOLYLINE
  5
145
330
17
100
AcDbEntity
  8
FP-Proposed Wall
100
AcDbPolyline
 90
2
 70
0
 10
-41.22658941020927
 20
1.5011042228782117
 10
-41.20397893509289
 20
0.0011043379283819377
  0
LINE
  5
146
330
17
100
AcDbEntity
  8
FP-Proposed Wall
 62
1
100
AcDbLine
 10
98.69092535270829
 20
1.5011043368001538
 30
0.0
 11
-41.20397893509289
 21
1.5011043368001538
 31
0.0
  0
LINE
  5
147
330
17
100
AcDbEntity
  8
EL-Trim
 62
8
100
AcDbLine
 10
-32.583509586744185
 20
130.22603564570727
 30
0.0
 11
-32.03513707914681
 21
130.50136160188868
 31
0.0
  0
LINE
  5
148
330
17
100
AcDbEntity
  8
EL-Trim
 62
8
100
AcDbLine
 10
-32.03453428977082
 20
129.50136160188686
 30
0.0
 11
-32.22326428977249
 21
129.501361813519
 31
0.0
  0
LINE
  5
149
330
17
100
AcDbEntity
  8
EL-Trim
 62
8
100
AcDbLine
 10
-32.035092225334665
 20
170.5013991457081
 30
0.0
 11
-32.03509110399318
 21
171.5013991457081
 31
0.0
  0
LINE
  5
14A
330
17
100
AcDbEntity
  8
EL-Trim
 62
8
100
AcDbLine
 10
-32.03453741111298
 20
128.5013616018905
 30
0.0
 11
-32.034536289771495
 21
129.5013616018905
 31
0.0
  0
LINE
  5
14B
330
17
100
AcDbEntity
  8
EL-Trim
 62
8
100
AcDbLine
 10
-31.28453516843001
 20
130.50136076088074
 30
0.0
 11
-31.284490314661525
 21
170.50136077377556
 31
0.0
  0
LINE
  5
14C
330
17
100
AcDbEntity
  8
EL-Trim
 62
8
100
AcDbLine
 10
-31.28335762018105
 20
128.50136075687715
 30
0.0
 11
-31.283469754598627
 21
28.501358769913168
 31
0.0
  0
LWPOLYLINE
  5
14D
330
17
100
AcDbEntity
  8
FP-Proposed Wall
100
AcDbPolyline
 90
4
 70
0
 38
24.501592026040623
 10
-29.20397893509289
 20
9.00110301994141
 10
-31.20397893509289
 20
9.00110301994141
 10
-31.20397893509289
 20
15.001101817018707
 10
-17.226596138272726
 20
15.001101817018707
  0
LINE
  5
14E
330
17
100
AcDbEntity
  8
EL-Trim
 62
8
100
AcDbLine
 10
-30.581125974436873
 20
130.22603140102274
 30
0.0
 11
-30.032753466839495
 21
130.50135735720414
 31
0.0
  0
LINE
  5
14F
330
17
100
AcDbEntity
  8
EL-Trim
 62
8
100
AcDbLine
 10
-30.033354498897097
 20
129.50135735720414
 30
0.0
 11
-30.222084498898766
 21
129.50135756883446
 31
0.0
  0
LINE
  5
150
330
17
100
AcDbEntity
  8
EL-Trim
 62
8
100
AcDbLine
 10
-30.03453741111298
 20
128.50135935920207
 30
0.0
 11
-30.034536289771495
 21
129.50135935920207
 31
0.0
  0
LINE
  5
151
330
17
100
AcDbEntity
  8
EL-Trim
 62
8
100
AcDbLine
 10
-30.03453741111298
 20
128.50136135920093
 30
0.0
 11
-29.28453741111298
 21
128.501360518193
 31
0.0
  0
LINE
  5
152
330
17
100
AcDbEntity
  8
EL-Trim
 62
8
100
AcDbLine
 10
-30.034490314108552
 20
170.5013969030215
 30
0.0
 11
-30.03448919276707
 21
171.50139690301967
 31
0.0
  0
LINE
  5
153
330
17
100
AcDbEntity
  8
EL-Trim
 62
8
100
AcDbLine
 10
-29.285137079146807
 20
130.50135851819232
 30
0.0
 11
-29.285092225225526
 21
170.5013585308834
 31
0.0
  0
LWPOLYLINE
  5
154
330
17
100
AcDbEntity
  8
EL-Trim
 62
8
100
AcDbPolyline
 90
2
 70
0
 10
-29.282755709522462
 20
128.5013585161969
 10
-29.28286784394004
 20
28.50135652820518
  0
LWPOLYLINE
  5
155
330
17
100
AcDbEntity
  8
EL-Trim
 62
8
100
AcDbPolyline
 90
2
 70
0
 10
-29.282753466839495
 20
130.5013565161962
 10
-29.282753466839495
 20
130.50135851619507
  0
LWPOLYLINE
  5
156
330
17
100
AcDbEntity
  8
FP-Proposed Wall
100
AcDbPolyline
 90
2
 70
0
 38
24.501592026040623
 10
-29.22658941020927
 20
9.00110301994141
 10
-29.20397893509289
 20
7.501103134991581
  0
LINE
  5
157
330
17
100
AcDbEntity
  8
FP-Proposed Wall
100
AcDbLine
 10
-29.20397893509289
 20
7.501103134991581
 30
24.501592026040623
 11
86.71354255588813
 21
7.50110313387745
 31
0.0
  0
LINE
  5
158
330
17
100
AcDbEntity
  8
FP-Proposed Wall
 62
1
100
AcDbLine
 10
-29.20397893509289
 20
9.00110301994141
 30
24.501592026040623
 11
86.69092535270829
 21
9.00110301994141
 31
24.501592026040623
  0
LWPOLYLINE
  5
159
330
17
100
AcDbEntity
  8
FP-Proposed Wall
100
AcDbPolyline
 90
4
 70
0
 38
24.501592595179027
 10
-17.226583523159206
 20
16.50110313387836
 10
-19.226583523159206
 20
16.50110313387836
 10
-19.226583523159206
 20
22.501101930955656
 10
-17.24920072633904
 20
22.501101930955656
  0
LINE
  5
15A
330
17
100
AcDbEntity
  8
FP-Proposed Wall
100
AcDbLine
 10
-17.24920072633904
 20
22.501101930955656
 30
24.501592595179027
 11
74.73614714395444
 21
22.501101930955656
 31
24.501592595179027
  0
LINE
  5
15B
330
17
100
AcDbEntity
  8
FP-Proposed Wall
100
AcDbLine
 10
-17.226596138272726
 20
15.001101817018707
 30
24.501592026040623
 11
74.71352909973939
 21
15.001050268925837
 31
24.501592595179027
  0
LWPOLYLINE
  5
15C
330
17
100
AcDbEntity
  8
FP-Proposed Wall
100
AcDbPolyline
 90
2
 70
0
 38
24.501592595179027
 10
-17.226583523159206
 20
16.50110313387836
 10
-17.226582682153094
 20
15.00110181701939
  0
LINE
  5
15D
330
17
100
AcDbEntity
  8
FP-Proposed Wall
 62
1
100
AcDbLine
 10
-17.226583523159206
 20
16.50110313387836
 30
24.501592595179027
 11
74.7135299407746
 21
16.50110313387836
 31
24.501592595179027
  0
LINE
  5
15E
330
17
100
AcDbEntity
  8
FP-Stair
100
AcDbLine
 10
-13.257440068864526
 20
154.50019547091028
 30
0.0
 11
-13.259266624205338
 21
170.50128950506655
 31
0.0
  0
LWPOLYLINE
  5
15F
330
17
100
AcDbEntity
  8
FP-Stair
100
AcDbPolyline
 90
4
 70
0
 10
-13.257440068864526
 20
28.500161213468118
 10
-13.257440068864526
 20
154.50019549269518
 10
70.74255993113547
 20
154.50019549269518
 10
70.74255993113547
 20
28.500133140214075
  0
LINE
  5
160
330
17
100
AcDbEntity
  8
FP-Stair
100
AcDbLine
 10
-12.507484922662115
 20
170.5013298789952
 30
0.0
 11
-12.507486044003599
 21
171.5013298789952
 31
0.0
  0
LWPOLYLINE
  5
161
330
17
100
AcDbEntity
  8
FP-Hatch
100
AcDbPolyline
 90
4
 70
0
 10
-11.257440068864526
 20
28.500160545057497
 10
-11.257440068864526
 20
152.50019549269518
 10
68.74255993113547
 20
152.50019549269518
 10
68.74255993113547
 20
28.500133808624923
  0
LWPOLYLINE
  5
162
330
17
100
AcDbEntity
  8
FP-Hatch
100
AcDbPolyline
 90
4
 70
1
 10
-11.257440068864526
 20
156.50019547091028
 10
68.74438648647629
 20
156.50019547091028
 10
68.74438648647629
 20
168.50128950506655
 10
-11.257440068864526
 20
168.50128950506655
  0
LWPOLYLINE
  5
163
330
17
100
AcDbEntity
  8
FP-Hatch
100
AcDbPolyline
 90
4
 70
0
 10
-10.257440068864526
 20
28.500160210852073
 10
-10.257440068864526
 20
151.50019549269518
 10
67.74255993113547
 20
151.50019549269518
 10
67.74255993113547
 20
28.500134142830348
  0
LWPOLYLINE
  5
164
330
17
100
AcDbEntity
  8
FP-Hatch
100
AcDbPolyline
 90
4
 70
1
 10
-10.257440068864526
 20
157.50019547091028
 10
67.74438648647629
 20
157.50019547091028
 10
67.74438648647629
 20
167.50128950506655
 10
-10.257440068864526
 20
167.50128950506655
  0
LINE
  5
165
330
17
100
AcDbEntity
  8
FP-Below
100
AcDbLine
 10
-7.257518607166276
 20
88.5001954818033
 30
0.0
 11
28.74545050408051
 21
28.50014717783347
 31
-0.4204237063792746
  0
LINE
  5
166
330
17
100
AcDbEntity
  8
FP-Below
100
AcDbLine
 10
28.742481392833724
 20
148.50019549269518
 30
0.0
 11
-7.257518607166276
 21
88.5001954818033
 31
0.0
  0
LWPOLYLINE
  5
167
330
17
100
AcDbEntity
  8
FP-Proposed Wall
 62
1
100
AcDbPolyline
 90
4
 70
1
 10
-7.2574400688645255
 20
148.50019549269518
 10
64.74255993113547
 20
148.50019549269518
 10
64.74255993113547
 20
28.50019547091142
 10
-7.2574400688645255
 20
28.50019547091142
  0
LWPOLYLINE
  5
168
330
17
100
AcDbEntity
  8
FP-Hatch
100
AcDbPolyline
 90
4
 70
0
 10
-5.7574007997136505
 20
147.00019549269518
 10
27.24259920028635
 20
147.00019549269518
 10
27.24259920028635
 20
30.00019547091142
 10
-5.7574007997136505
 20
30.00019547091142
  0
LINE
  5
169
330
17
100
AcDbEntity
  8
FP-Hatch
100
AcDbLine
 10
-5.7574007997136505
 20
147.00019549269518
 30
0.0
 11
-5.7574007997136505
 21
30.00019547091142
 31
0.0
  0
LWPOLYLINE
  5
16A
330
17
100
AcDbEntity
  8
FP-Hatch
100
AcDbPolyline
 90
4
 70
0
 10
-4.7574007997136505
 20
146.00019549269518
 10
26.24259920028635
 20
146.00019549269518
 10
26.24259920028635
 20
31.00019547091142
 10
-4.7574007997136505
 20
31.00019547091142
  0
LINE
  5
16B
330
17
100
AcDbEntity
  8
FP-Hatch
100
AcDbLine
 10
-4.7574007997136505
 20
146.00019499138716
 30
0.0
 11
-4.7574007997136505
 21
31.00019547091142
 31
0.0
  0
LINE
  5
16C
330
17
100
AcDbEntity
  8
FP-Below
100
AcDbLine
 10
64.74255993113547
 20
88.5001954818033
 30
0.0
 11
28.73959081988869
 21
28.50014717783347
 31
-0.4204237063792746
  0
LINE
  5
16D
330
17
100
AcDbEntity
  8
FP-Proposed Wall
 62
1
100
AcDbLine
 10
28.7425206619846
 20
148.50019549269518
 30
0.0
 11
28.7425206619846
 21
28.50014717685417
 31
-0.4204237063792746
  0
LINE
  5
16E
330
17
100
AcDbEntity
  8
FP-Below
100
AcDbLine
 10
28.742559931135474
 20
148.50019549269518
 30
0.0
 11
64.74255993113547
 21
88.5001954818033
 31
0.0
  0
LWPOLYLINE
  5
16F
330
17
100
AcDbEntity
  8
FP-Hatch
100
AcDbPolyline
 90
4
 70
0
 10
30.242559931135474
 20
147.00019549269518
 10
63.242559931135474
 20
147.00019549269518
 10
63.242559931135474
 20
30.00019547091142
 10
30.242559931135474
 20
30.00019547091142
  0
LINE
  5
170
330
17
100
AcDbEntity
  8
FP-Hatch
100
AcDbLine
 10
30.242559931135474
 20
147.00019549269518
 30
0.0
 11
30.242559931135474
 21
30.00019547091142
 31
0.0
  0
LWPOLYLINE
  5
171
330
17
100
AcDbEntity
  8
FP-Hatch
100
AcDbPolyline
 90
4
 70
0
 10
31.242559931135474
 20
146.00019549269518
 10
62.242559931135474
 20
146.00019549269518
 10
62.242559931135474
 20
31.00019547091142
 10
31.242559931135474
 20
31.00019547091142
  0
LINE
  5
172
330
17
100
AcDbEntity
  8
FP-Hatch
100
AcDbLine
 10
31.242559931135474
 20
146.00019499138716
 30
0.0
 11
31.242559931135474
 21
31.00019547091142
 31
0.0
  0
LINE
  5
173
330
17
100
AcDbEntity
  8
FP-Stair
100
AcDbLine
 10
69.99260478493306
 20
170.5013298789952
 30
0.0
 11
69.99260590627455
 21
171.5013298789952
 31
0.0
  0
LINE
  5
174
330
17
100
AcDbEntity
  8
FP-Proposed Wall
 62
1
100
AcDbLine
 10
173.22031074055485
 20
128.50138692241808
 30
-0.4204237063804612
 11
70.74255993113547
 21
128.50136942909648
 31
6.83597057931527
  0
LINE
  5
175
330
17
100
AcDbEntity
  8
FP-Hatch
100
AcDbLine
 10
173.97030963078214
 20
129.50078154817106
 30
-0.42042370638023385
 11
70.74255993113547
 21
129.50066579386203
 31
6.851349550876859
  0
LINE
  5
176
330
17
100
AcDbEntity
  8
FP-Hatch
100
AcDbLine
 10
174.38634867171277
 20
129.75030300911794
 30
0.3280838691600714
 11
70.74255993113547
 21
129.75035729836918
 31
7.342094041935841
  0
LINE
  5
177
330
17
100
AcDbEntity
  8
FP-Stair
100
AcDbLine
 10
173.2203085088222
 20
130.50133338077262
 30
-0.4204237063804612
 11
70.74255993113547
 21
130.50133486563436
 31
6.8359705335902765
  0
LINE
  5
178
330
17
100
AcDbEntity
  8
FP-Stair
100
AcDbLine
 10
70.74255993113547
 20
154.50019547091028
 30
0.0
 11
70.74438648647629
 21
170.50128950506655
 31
0.0
  0
LWPOLYLINE
  5
179
330
17
100
AcDbEntity
  8
FP-Proposed Wall
100
AcDbPolyline
 90
2
 70
0
 38
24.501592595179027
 10
74.7135299407746
 20
16.50110313387836
 10
74.7135290997685
 20
15.00110181701939
  0
LWPOLYLINE
  5
17A
330
17
100
AcDbEntity
  8
FP-Proposed Wall
100
AcDbPolyline
 90
4
 70
0
 38
24.501592595179027
 10
74.7135299407746
 20
16.50110313387836
 10
76.7135299407746
 20
16.50110313387836
 10
76.7135299407746
 20
22.501101930955656
 10
74.73614714395444
 20
22.501101930955656
  0
LWPOLYLINE
  5
17B
330
17
100
AcDbEntity
  8
FP-Proposed Wall
100
AcDbPolyline
 90
4
 70
0
 38
24.501592026040623
 10
86.69092535270829
 20
9.00110301994141
 10
88.69092535270829
 20
9.00110301994141
 10
88.69092535270829
 20
15.001101817018707
 10
74.71354255588813
 20
15.001101817018707
  0
LINE
  5
17C
330
17
100
AcDbEntity
  8
EL-Trim
 62
8
100
AcDbLine
 10
76.7135299407746
 20
21.500097204740314
 30
-0.4204237063792746
 11
173.24077822338222
 21
21.500097204740314
 31
-0.4204237063792746
  0
LWPOLYLINE
  5
17D
330
17
100
AcDbEntity
  8
FP-Proposed Wall
100
AcDbPolyline
 90
2
 70
0
 38
24.501592026040623
 10
86.71353582782467
 20
9.00110301994141
 10
86.69092535270829
 20
7.501103134991581
  0
LWPOLYLINE
  5
17E
330
17
100
AcDbEntity
  8
FP-Proposed Wall
100
AcDbPolyline
 90
4
 70
0
 10
98.69092535270829
 20
1.5011043368001538
 10
100.69092535270829
 20
1.5011043368001538
 10
100.69092535270829
 20
7.50110313387745
 10
86.71354255588813
 20
7.50110313387745
  0
LWPOLYLINE
  5
17F
330
17
100
AcDbEntity
  8
EL-Trim
 62
8
100
AcDbPolyline
 90
2
 70
0
 10
86.76787332911044
 20
130.5013565161962
 10
86.76787332911044
 20
130.50135851619507
  0
LWPOLYLINE
  5
180
330
17
100
AcDbEntity
  8
EL-Trim
 62
8
100
AcDbPolyline
 90
2
 70
0
 10
86.76787557179341
 20
128.5013585161969
 10
86.76798770621099
 20
28.50135652820518
  0
LINE
  5
181
330
17
100
AcDbEntity
  8
EL-Trim
 62
8
100
AcDbLine
 10
87.51965727338393
 20
128.50136135920093
 30
0.0
 11
86.76965727338393
 21
128.501360518193
 31
0.0
  0
LINE
  5
182
330
17
100
AcDbEntity
  8
EL-Trim
 62
8
100
AcDbLine
 10
86.77025694141776
 20
130.50135851819232
 30
0.0
 11
86.77021208749647
 21
170.5013585308834
 31
0.0
  0
LINE
  5
183
330
17
100
AcDbEntity
  8
EL-Trim
 62
8
100
AcDbLine
 10
88.06624583670782
 20
130.22603140102274
 30
0.0
 11
87.51787332911044
 21
130.50135735720414
 31
0.0
  0
LINE
  5
184
330
17
100
AcDbEntity
  8
EL-Trim
 62
8
100
AcDbLine
 10
87.51847436116805
 20
129.50135735720414
 30
0.0
 11
87.70720436116972
 21
129.50135756883446
 31
0.0
  0
LINE
  5
185
330
17
100
AcDbEntity
  8
EL-Trim
 62
8
100
AcDbLine
 10
87.5196101763795
 20
170.5013969030215
 30
0.0
 11
87.51960905503802
 21
171.50139690301967
 31
0.0
  0
LINE
  5
186
330
17
100
AcDbEntity
  8
EL-Trim
 62
8
100
AcDbLine
 10
87.51965727338393
 20
128.50135935920207
 30
0.0
 11
87.51965615204244
 21
129.50135935920207
 31
0.0
  0
LINE
  5
187
330
17
100
AcDbEntity
  8
EL-Trim
 62
8
100
AcDbLine
 10
88.768477482452
 20
128.50136075687715
 30
0.0
 11
88.76858961686958
 21
28.501358769913168
 31
0.0
  0
LINE
  5
188
330
17
100
AcDbEntity
  8
EL-Trim
 62
8
100
AcDbLine
 10
88.76965503070096
 20
130.50136076088074
 30
0.0
 11
88.76961017693247
 21
170.50136077377556
 31
0.0
  0
LINE
  5
189
330
17
100
AcDbEntity
  8
EL-Trim
 62
8
100
AcDbLine
 10
89.51965415204177
 20
129.50136160188686
 30
0.0
 11
89.70838415204344
 21
129.501361813519
 31
0.0
  0
LINE
  5
18A
330
17
100
AcDbEntity
  8
EL-Trim
 62
8
100
AcDbLine
 10
89.51965727338393
 20
128.5013616018905
 30
0.0
 11
89.51965615204244
 21
129.5013616018905
 31
0.0
  0
LINE
  5
18B
330
17
100
AcDbEntity
  8
EL-Trim
 62
8
100
AcDbLine
 10
89.52021208760561
 20
170.5013991457081
 30
0.0
 11
89.52021096626413
 21
171.5013991457081
 31
0.0
  0
LINE
  5
18C
330
17
100
AcDbEntity
  8
EL-Trim
 62
8
100
AcDbLine
 10
90.06862944901513
 20
130.22603564570727
 30
0.0
 11
89.52025694141776
 21
130.50136160188868
 31
0.0
  0
LWPOLYLINE
  5
18D
330
17
100
AcDbEntity
  8
FP-Proposed Wall
100
AcDbPolyline
 90
2
 70
0
 10
98.71353582782467
 20
1.5011042228782117
 10
98.69092535270829
 20
0.0011043379283819377
  0
LINE
  5
18E
330
17
100
AcDbEntity
  8
FP-Stair
100
AcDbLine
 10
100.69092535270829
 20
6.001460693126091
 30
-0.4204237063792746
 11
172.2407956025927
 21
6.001540925137306
 31
-0.4204237063792746
  0
LINE
  5
18F
330
17
100
AcDbEntity
  8
FP-Hatch
100
AcDbLine
 10
119.55595273016297
 20
106.3185297021148
 30
-0.07616669536480747
 11
135.81531287279358
 21
106.3185297021148
 31
-0.07616669536480747
  0
LINE
  5
190
330
17
100
AcDbEntity
  8
FP-Hatch
100
AcDbLine
 10
119.5612582947324
 20
106.31414231129384
 30
0.0
 11
119.62843836604225
 21
106.31414231129384
 31
0.0
  0
LINE
  5
191
330
17
100
AcDbEntity
  8
FP-Hatch
100
AcDbLine
 10
119.62313280147282
 20
106.14456208332763
 30
-0.07616669536480747
 11
135.74813280148373
 21
106.14456208332763
 31
-0.07616669536480747
  0
LINE
  5
192
330
17
100
AcDbEntity
  8
FP-Hatch
100
AcDbLine
 10
119.62313280147282
 20
106.14456208332763
 30
-0.07616669536480747
 11
119.62313280147282
 21
106.3185297021148
 31
-0.07616669536480747
  0
LINE
  5
193
330
17
100
AcDbEntity
  8
FP-Hatch
100
AcDbLine
 10
119.62843836604225
 20
106.14017469250666
 30
0.0
 11
120.37843836604225
 21
106.14017469250666
 31
0.0
  0
LINE
  5
194
330
17
100
AcDbEntity
  8
FP-Hatch
100
AcDbLine
 10
119.62843836604225
 20
106.14017469250666
 30
0.0
 11
119.62843836604225
 21
106.31414231129384
 31
0.0
  0
LINE
  5
195
330
17
100
AcDbEntity
  8
FP-Hatch
100
AcDbLine
 10
119.62843836604225
 20
106.31414231129384
 30
0.0
 11
127.69093836604225
 21
106.31414231129384
 31
0.0
  0
LINE
  5
196
330
17
100
AcDbEntity
  8
FP-Hatch
100
AcDbLine
 10
120.37843836604225
 20
106.14017469250666
 30
0.0
 11
127.69093836604225
 21
106.14017469250666
 31
0.0
  0
LINE
  5
197
330
17
100
AcDbEntity
  8
FP-Hatch
100
AcDbLine
 10
120.56063280147282
 20
105.95706208332763
 30
-0.07616669536480747
 11
134.81063280148373
 21
105.95706208332763
 31
-0.07616669536480747
  0
LINE
  5
198
330
17
100
AcDbEntity
  8
FP-Hatch
100
AcDbLine
 10
120.56063280147282
 20
107.26956208332763
 30
-0.07616669536480747
 11
134.81063280148373
 21
107.26956208332763
 31
-0.07616669536480747
  0
LINE
  5
199
330
17
100
AcDbEntity
  8
FP-Hatch
100
AcDbLine
 10
120.56063280147282
 20
107.26956208332763
 30
-0.07616669536480747
 11
120.56063280147282
 21
107.64456208332763
 31
-0.07616669536480747
  0
LINE
  5
19A
330
17
100
AcDbEntity
  8
FP-Hatch
100
AcDbLine
 10
120.56063280147282
 20
107.64456208332763
 30
-0.07616669536480747
 11
134.81063280148373
 21
107.64456208332763
 31
-0.07616669536480747
  0
LINE
  5
19B
330
17
100
AcDbEntity
  8
FP-Hatch
100
AcDbLine
 10
120.56063280147646
 20
105.01956208332763
 30
-0.07616669536480747
 11
134.81063280147646
 21
105.01956208332763
 31
-0.07616669536480747
  0
LINE
  5
19C
330
17
100
AcDbEntity
  8
FP-Hatch
100
AcDbLine
 10
120.56593836604225
 20
105.95267469250666
 30
0.0
 11
127.69093836604225
 21
105.95267469250666
 31
0.0
  0
LINE
  5
19D
330
17
100
AcDbEntity
  8
FP-Hatch
100
AcDbLine
 10
120.56593836604225
 20
107.26517469250666
 30
0.0
 11
127.69093836604225
 21
107.26517469250666
 31
0.0
  0
LINE
  5
19E
330
17
100
AcDbEntity
  8
FP-Hatch
100
AcDbLine
 10
120.56593836604225
 20
107.26517469250666
 30
0.0
 11
120.56593836604225
 21
107.64017469250666
 31
0.0
  0
LINE
  5
19F
330
17
100
AcDbEntity
  8
FP-Hatch
100
AcDbLine
 10
120.56593836604225
 20
107.64017469250666
 30
0.0
 11
127.69093836604225
 21
107.64017469250666
 31
0.0
  0
LINE
  5
1A0
330
17
100
AcDbEntity
  8
FP-Hatch
100
AcDbLine
 10
120.56593836604588
 20
105.01517469250666
 30
0.0
 11
120.71593836604734
 21
105.01517469250666
 31
0.0
  0
LINE
  5
1A1
330
17
100
AcDbEntity
  8
FP-Hatch
100
AcDbLine
 10
120.71593836604734
 20
105.01517469250666
 30
0.0
 11
127.69093836604225
 21
105.01517469250666
 31
0.0
  0
LINE
  5
1A2
330
17
100
AcDbEntity
  8
FP-Hatch
100
AcDbLine
 10
134.47313280148228
 20
104.83206208332763
 30
-0.07616669536480747
 11
120.89813280147791
 21
104.83206208332763
 31
-0.07616669536480747
  0
LINE
  5
1A3
330
17
100
AcDbEntity
  8
FP-Hatch
100
AcDbLine
 10
121.0540808927035
 20
104.82767469250666
 30
0.0
 11
120.90343836604734
 21
104.82767469250666
 31
0.0
  0
LINE
  5
1A4
330
17
100
AcDbEntity
  8
FP-Hatch
100
AcDbLine
 10
121.0540808927035
 20
104.82767469250666
 30
0.0
 11
127.69093836604588
 21
104.82767469250666
 31
0.0
  0
LINE
  5
1A5
330
17
100
AcDbEntity
  8
FP-Hatch
100
AcDbLine
 10
127.49813280147646
 20
104.45706208332763
 30
-0.07616669536480747
 11
121.05564696156216
 21
104.45706208332763
 31
-0.07616669536480747
  0
LINE
  5
1A6
330
17
100
AcDbEntity
  8
FP-Hatch
100
AcDbLine
 10
121.1359758479739
 20
104.45267469250666
 30
0.0
 11
121.06095252613159
 21
104.45267469250666
 31
0.0
  0
LINE
  5
1A7
330
17
100
AcDbEntity
  8
FP-Hatch
100
AcDbLine
 10
121.1359758479739
 20
104.45267469250666
 30
0.0
 11
127.50343836604588
 21
104.45267469250666
 31
0.0
  0
LINE
  5
1A8
330
17
100
AcDbEntity
  8
FP-Hatch
100
AcDbLine
 10
121.32021425458879
 20
104.38206208332736
 30
-0.07616669536480747
 11
127.23563280147937
 21
104.38206208332872
 31
-0.07616669536480747
  0
LINE
  5
1A9
330
17
100
AcDbEntity
  8
FP-Hatch
100
AcDbLine
 10
121.32551981915822
 20
104.37767469250775
 30
0.0
 11
127.2409383660488
 21
104.37767469250775
 31
0.0
  0
LINE
  5
1AA
330
17
100
AcDbEntity
  8
FP-Hatch
100
AcDbLine
 10
123.48233995892951
 20
91.635978075185
 30
0.0
 11
123.54952003023936
 21
91.63597807518363
 31
0.0
  0
LINE
  5
1AB
330
17
100
AcDbEntity
  8
FP-Hatch
100
AcDbLine
 10
123.54421446566994
 20
91.55338165661237
 30
-0.07616669536480747
 11
131.82705113728662
 21
91.55338165661237
 31
-0.07616669536480747
  0
LINE
  5
1AC
330
17
100
AcDbEntity
  8
FP-Hatch
100
AcDbLine
 10
123.54421446566994
 20
91.55338165661237
 30
-0.07616669536480747
 11
123.54421446566994
 21
91.64036546600596
 31
-0.07616669536480747
  0
LINE
  5
1AD
330
17
100
AcDbEntity
  8
FP-Hatch
100
AcDbLine
 10
123.54421446566994
 20
91.6403654660046
 30
-0.07616669536480747
 11
131.89423120859647
 21
91.64036546600596
 31
-0.07616669536480747
  0
LINE
  5
1AE
330
17
100
AcDbEntity
  8
FP-Hatch
100
AcDbLine
 10
123.54952003023936
 20
91.5489942657914
 30
0.0
 11
123.73702003023936
 21
91.5489942657914
 31
0.0
  0
LINE
  5
1AF
330
17
100
AcDbEntity
  8
FP-Hatch
100
AcDbLine
 10
123.54952003023936
 20
91.5489942657914
 30
0.0
 11
123.54952003023936
 21
91.635978075185
 31
0.0
  0
LINE
  5
1B0
330
17
100
AcDbEntity
  8
FP-Hatch
100
AcDbLine
 10
123.54952003023936
 20
91.63597807518363
 30
0.0
 11
127.69093836604225
 21
91.63597807518363
 31
0.0
  0
LINE
  5
1B1
330
17
100
AcDbEntity
  8
FP-Hatch
100
AcDbLine
 10
123.73702003023936
 20
91.5489942657914
 30
0.0
 11
127.69093836604225
 21
91.5489942657914
 31
0.0
  0
LINE
  5
1B2
330
17
100
AcDbEntity
  8
FP-Hatch
100
AcDbLine
 10
123.82546446566994
 20
91.45963165661237
 30
-0.07616669536480747
 11
131.54580113728662
 21
91.45963165661237
 31
-0.07616669536480747
  0
LINE
  5
1B3
330
17
100
AcDbEntity
  8
FP-Hatch
100
AcDbLine
 10
123.83077003023936
 20
91.4552442657914
 30
0.0
 11
124.57375086604588
 21
91.4552442657914
 31
0.0
  0
LINE
  5
1B4
330
17
100
AcDbEntity
  8
FP-Hatch
100
AcDbLine
 10
123.98543213606172
 20
92.73280718589672
 30
-0.07616669536480747
 11
123.91798759864469
 21
92.70000117467339
 31
-0.07616669536480747
  0
LINE
  5
1B5
330
17
100
AcDbEntity
  8
FP-Hatch
100
AcDbLine
 10
123.99073770063114
 20
92.72841979507575
 30
0.0
 11
123.92329316321411
 21
92.69561378385242
 31
0.0
  0
LINE
  5
1B6
330
17
100
AcDbEntity
  8
FP-Hatch
100
AcDbLine
 10
123.93727926001884
 20
92.17030718589672
 30
-0.07616669536480747
 11
131.43398634294135
 21
92.17030718589672
 31
-0.07616669536480747
  0
LINE
  5
1B7
330
17
100
AcDbEntity
  8
FP-Hatch
100
AcDbLine
 10
123.93727926001884
 20
92.17030718589672
 30
-0.07616669536480747
 11
123.93727926001884
 21
92.35780718589672
 31
-0.07616669536480747
  0
LINE
  5
1B8
330
17
100
AcDbEntity
  8
FP-Hatch
100
AcDbLine
 10
123.93727926001884
 20
92.35780718589672
 30
-0.07616669536480747
 11
131.43398634294135
 21
92.35780718589672
 31
-0.07616669536480747
  0
LINE
  5
1B9
330
17
100
AcDbEntity
  8
FP-Hatch
100
AcDbLine
 10
123.94258482458827
 20
92.16591979507575
 30
0.0
 11
127.69093836604588
 21
92.16591979507575
 31
0.0
  0
LINE
  5
1BA
330
17
100
AcDbEntity
  8
FP-Hatch
100
AcDbLine
 10
123.94258482458827
 20
92.16591979507575
 30
0.0
 11
123.94258482458827
 21
92.35341979507575
 31
0.0
  0
LINE
  5
1BB
330
17
100
AcDbEntity
  8
FP-Hatch
100
AcDbLine
 10
123.94258482458827
 20
92.35341979507575
 30
0.0
 11
127.69093836604588
 21
92.35341979507575
 31
0.0
  0
LINE
  5
1BC
330
17
100
AcDbEntity
  8
FP-Hatch
100
AcDbLine
 10
123.98543213606172
 20
92.73280718589672
 30
-0.07616669536480747
 11
131.3858334668912
 21
92.73280718589672
 31
-0.07616669536480747
  0
LINE
  5
1BD
330
17
100
AcDbEntity
  8
FP-Hatch
100
AcDbLine
 10
123.99073770063114
 20
92.72841979507575
 30
0.0
 11
127.69093836604588
 21
92.72841979507575
 31
0.0
  0
LINE
  5
1BE
330
17
100
AcDbEntity
  8
FP-Hatch
100
AcDbLine
 10
124.15745689040705
 20
92.80780718589563
 30
-0.07616669536480747
 11
127.2356328014721
 21
92.80780718589835
 31
-0.07616669536480747
  0
LINE
  5
1BF
330
17
100
AcDbEntity
  8
FP-Hatch
100
AcDbLine
 10
124.16276245497647
 20
92.80341979507466
 30
0.0
 11
127.24093836604152
 21
92.80341979507602
 31
0.0
  0
LINE
  5
1C0
330
17
100
AcDbEntity
  8
FP-Hatch
100
AcDbLine
 10
124.57375086604588
 20
91.4552442657914
 30
0.0
 11
127.69093836604225
 21
91.4552442657914
 31
0.0
  0
LINE
  5
1C1
330
17
100
AcDbEntity
  8
FP-Hatch
100
AcDbLine
 10
126.11845273016661
 20
114.39456208332899
 30
-0.07616669536480747
 11
129.18563280147646
 21
114.39456208332763
 31
-0.07616669536480747
  0
LINE
  5
1C2
330
17
100
AcDbEntity
  8
FP-Hatch
100
AcDbLine
 10
126.11845273017389
 20
87.85025665661237
 30
-0.07616669536480747
 11
129.18563280147282
 21
87.85025665661237
 31
-0.07616669536480747
  0
LINE
  5
1C3
330
17
100
AcDbEntity
  8
FP-Hatch
100
AcDbLine
 10
126.12375829473604
 20
114.39017469250803
 30
0.0
 11
126.19093836604588
 21
114.39017469250666
 31
0.0
  0
LINE
  5
1C4
330
17
100
AcDbEntity
  8
FP-Hatch
100
AcDbLine
 10
126.12375829474331
 20
87.8458692657914
 30
0.0
 11
126.19093836605316
 21
87.8458692657914
 31
0.0
  0
LWPOLYLINE
  5
1C5
330
17
100
AcDbEntity
  8
FP-Hatch
100
AcDbPolyline
 90
3
 70
0
 38
-0.07616669536480747
 10
126.18563280147282
 20
112.89456208332763
 10
126.18563280147282
 20
113.08206208332763
 10
129.18563280148373
 20
113.08206208332763
  0
LINE
  5
1C6
330
17
100
AcDbEntity
  8
FP-Hatch
100
AcDbLine
 10
126.18563280147282
 20
112.89456208332763
 30
-0.07616669536480747
 11
129.18563280148373
 21
112.89456208332763
 31
-0.07616669536480747
  0
LWPOLYLINE
  5
1C7
330
17
100
AcDbEntity
  8
FP-Hatch
100
AcDbPolyline
 90
3
 70
0
 38
-0.07616669536480747
 10
126.18563280147646
 20
89.35025665661237
 10
126.18563280147646
 20
89.16275665661237
 10
129.18563280147646
 20
89.16275665661237
  0
LINE
  5
1C8
330
17
100
AcDbEntity
  8
FP-Hatch
100
AcDbLine
 10
126.18563280147646
 20
89.35025665661237
 30
-0.07616669536480747
 11
129.18563280147646
 21
89.35025665661237
 31
-0.07616669536480747
  0
LWPOLYLINE
  5
1C9
330
17
100
AcDbEntity
  8
FP-Hatch
100
AcDbPolyline
 90
2
 70
0
 38
-0.07616669536480747
 10
126.18563280147646
 20
114.39456208332763
 10
126.18563280147646
 20
114.20706208332763
  0
LINE
  5
1CA
330
17
100
AcDbEntity
  8
FP-Hatch
100
AcDbLine
 10
126.18563280147646
 20
114.20706208332763
 30
-0.07616669536480747
 11
129.18563280147646
 21
114.20706208332763
 31
-0.07616669536480747
  0
LWPOLYLINE
  5
1CB
330
17
100
AcDbEntity
  8
FP-Hatch
100
AcDbPolyline
 90
2
 70
0
 38
-0.07616669536480747
 10
126.18563280148373
 20
87.85025665661237
 10
126.18563280148373
 20
88.03775665661237
  0
LINE
  5
1CC
330
17
100
AcDbEntity
  8
FP-Hatch
100
AcDbLine
 10
126.18563280148373
 20
88.03775665661237
 30
-0.07616669536480747
 11
129.18563280147282
 21
88.03775665661237
 31
-0.07616669536480747
  0
LWPOLYLINE
  5
1CD
330
17
100
AcDbEntity
  8
FP-Hatch
100
AcDbPolyline
 90
3
 70
0
 10
126.19093836604225
 20
112.89017469250666
 10
126.19093836604225
 20
113.07767469250666
 10
126.37843836604225
 20
113.07767469250666
  0
LINE
  5
1CE
330
17
100
AcDbEntity
  8
FP-Hatch
100
AcDbLine
 10
126.19093836604225
 20
112.89017469250666
 30
0.0
 11
127.69093836604225
 21
112.89017469250666
 31
0.0
  0
LWPOLYLINE
  5
1CF
330
17
100
AcDbEntity
  8
FP-Hatch
100
AcDbPolyline
 90
3
 70
0
 10
126.19093836604588
 20
89.3458692657914
 10
126.19093836604588
 20
89.1583692657914
 10
126.37843836604588
 20
89.1583692657914
  0
LINE
  5
1D0
330
17
100
AcDbEntity
  8
FP-Hatch
100
AcDbLine
 10
126.19093836604588
 20
89.3458692657914
 30
0.0
 11
127.69093836604588
 21
89.3458692657914
 31
0.0
  0
LWPOLYLINE
  5
1D1
330
17
100
AcDbEntity
  8
FP-Hatch
100
AcDbPolyline
 90
2
 70
0
 10
126.19093836604588
 20
114.39017469250666
 10
126.19093836604588
 20
114.20267469250666
  0
LINE
  5
1D2
330
17
100
AcDbEntity
  8
FP-Hatch
100
AcDbLine
 10
126.19093836604588
 20
114.20267469250666
 30
0.0
 11
127.69093836604225
 21
114.20267469250666
 31
0.0
  0
LINE
  5
1D3
330
17
100
AcDbEntity
  8
FP-Hatch
100
AcDbLine
 10
126.19093836604588
 20
114.39017469250666
 30
0.0
 11
127.69093836604588
 21
114.39017469250666
 31
0.0
  0
LWPOLYLINE
  5
1D4
330
17
100
AcDbEntity
  8
FP-Hatch
100
AcDbPolyline
 90
2
 70
0
 10
126.19093836605316
 20
87.8458692657914
 10
126.19093836605316
 20
88.0333692657914
  0
LINE
  5
1D5
330
17
100
AcDbEntity
  8
FP-Hatch
100
AcDbLine
 10
126.19093836605316
 20
87.8458692657914
 30
0.0
 11
127.69093836605316
 21
87.8458692657914
 31
0.0
  0
LINE
  5
1D6
330
17
100
AcDbEntity
  8
FP-Hatch
100
AcDbLine
 10
126.19093836605316
 20
88.0333692657914
 30
0.0
 11
127.69093836604588
 21
88.0333692657914
 31
0.0
  0
LINE
  5
1D7
330
17
100
AcDbEntity
  8
FP-Hatch
100
AcDbLine
 10
126.37843836604225
 20
113.07767469250666
 30
0.0
 11
127.69093836604225
 21
113.07767469250666
 31
0.0
  0
LINE
  5
1D8
330
17
100
AcDbEntity
  8
FP-Hatch
100
AcDbLine
 10
126.37843836604588
 20
89.1583692657914
 30
0.0
 11
127.69093836604588
 21
89.1583692657914
 31
0.0
  0
LWPOLYLINE
  5
1D9
330
17
100
AcDbEntity
  8
FP-Hatch
100
AcDbPolyline
 90
5
 70
0
 10
127.10968836604661
 20
116.27870707372222
 10
127.03468836604588
 20
116.27870707372222
 10
126.94093836604588
 20
116.18495707372222
 10
126.94093836604588
 20
116.18495707372222
 10
127.03468836604588
 20
116.09120707372222
  0
LWPOLYLINE
  5
1DA
330
17
100
AcDbEntity
  8
FP-Hatch
100
AcDbPolyline
 90
5
 70
0
 10
127.10968836605025
 20
84.83233688457858
 10
127.03468836605316
 20
84.83233688457858
 10
126.94093836605316
 20
84.92608688457858
 10
126.94093836605316
 20
84.92608688457858
 10
127.03468836605316
 20
85.01983688457858
  0
LWPOLYLINE
  5
1DB
330
17
100
AcDbEntity
  8
FP-Hatch
100
AcDbPolyline
 90
3
 70
0
 38
-0.07616669536480747
 10
128.26688280147937
 20
116.28309446454318
 10
127.02938280147646
 20
116.28309446454318
 10
127.02822136427858
 20
116.0956016591465
  0
LINE
  5
1DC
330
17
100
AcDbEntity
  8
FP-Hatch
100
AcDbLine
 10
128.2876494157972
 20
116.09559446454318
 30
-0.07616669536480747
 11
127.02938280147646
 21
116.09559446454318
 31
-0.07616669536480747
  0
LINE
  5
1DD
330
17
100
AcDbEntity
  8
FP-Hatch
100
AcDbLine
 10
128.2668828014721
 20
84.83672427539955
 30
-0.07616669536480747
 11
127.02938280148373
 21
84.83672427539955
 31
-0.07616669536480747
  0
LINE
  5
1DE
330
17
100
AcDbEntity
  8
FP-Hatch
100
AcDbLine
 10
128.28764941579357
 20
85.02422427539955
 30
-0.07616669536480747
 11
127.02938280148373
 21
85.02422427539955
 31
-0.07616669536480747
  0
LINE
  5
1DF
330
17
100
AcDbEntity
  8
FP-Hatch
100
AcDbLine
 10
127.08892175173241
 20
116.09120707372085
 30
0.0
 11
127.03468836604588
 21
116.09120707372222
 31
0.0
  0
LINE
  5
1E0
330
17
100
AcDbEntity
  8
FP-Hatch
100
AcDbLine
 10
127.08892175173241
 20
85.01983688457858
 30
0.0
 11
127.03468836605316
 21
85.01983688457858
 31
0.0
  0
LINE
  5
1E1
330
17
100
AcDbEntity
  8
FP-Hatch
100
AcDbLine
 10
127.08892175172514
 20
116.09120707372222
 30
0.0
 11
127.69093836604225
 21
116.09120707372222
 31
0.0
  0
LINE
  5
1E2
330
17
100
AcDbEntity
  8
FP-Hatch
100
AcDbLine
 10
127.08892175173241
 20
85.01983688457858
 30
0.0
 11
127.69093836604588
 21
85.01983688457858
 31
0.0
  0
LINE
  5
1E3
330
17
100
AcDbEntity
  8
FP-Hatch
100
AcDbLine
 10
127.69093836604225
 20
116.27870707372222
 30
0.0
 11
127.10968836604661
 21
116.27870707372222
 31
0.0
  0
LINE
  5
1E4
330
17
100
AcDbEntity
  8
FP-Hatch
100
AcDbLine
 10
127.69093836604588
 20
84.83233688457858
 30
0.0
 11
127.10968836605025
 21
84.83233688457858
 31
0.0
  0
LWPOLYLINE
  5
1E5
330
17
100
AcDbEntity
  8
FP-Hatch
100
AcDbPolyline
 90
3
 70
0
 38
-0.07616669536480747
 10
127.21688280147646
 20
115.53309446454318
 10
127.12313280147646
 20
115.43934446454318
 10
127.12313280147646
 20
115.34559446454318
  0
LINE
  5
1E6
330
17
100
AcDbEntity
  8
FP-Hatch
100
AcDbLine
 10
127.12313280147646
 20
115.34559446454318
 30
-0.07616669536480747
 11
128.24813280147646
 21
115.34559446454318
 31
-0.07616669536480747
  0
LWPOLYLINE
  5
1E7
330
17
100
AcDbEntity
  8
FP-Hatch
100
AcDbPolyline
 90
3
 70
0
 38
-0.07616669536480747
 10
127.21688280148373
 20
86.71172427539955
 10
127.12313280148373
 20
86.80547427539955
 10
127.12313280148373
 20
86.89922427539955
  0
LINE
  5
1E8
330
17
100
AcDbEntity
  8
FP-Hatch
100
AcDbLine
 10
127.12313280148373
 20
86.89922427539955
 30
-0.07616669536480747
 11
128.24813280147282
 21
86.89922427539955
 31
-0.07616669536480747
  0
LWPOLYLINE
  5
1E9
330
17
100
AcDbEntity
  8
FP-Hatch
100
AcDbPolyline
 90
3
 70
0
 10
127.22218836604588
 20
115.52870707372222
 10
127.12843836604588
 20
115.43495707372222
 10
127.12843836604588
 20
115.34120707372222
  0
LINE
  5
1EA
330
17
100
AcDbEntity
  8
FP-Hatch
100
AcDbLine
 10
127.12843836604588
 20
115.34120707372222
 30
0.0
 11
127.69093836604225
 21
115.34120707372222
 31
0.0
  0
LWPOLYLINE
  5
1EB
330
17
100
AcDbEntity
  8
FP-Hatch
100
AcDbPolyline
 90
3
 70
0
 10
127.22218836605316
 20
86.70733688457858
 10
127.12843836605316
 20
86.80108688457858
 10
127.12843836605316
 20
86.89483688457858
  0
LINE
  5
1EC
330
17
100
AcDbEntity
  8
FP-Hatch
100
AcDbLine
 10
127.12843836605316
 20
86.89483688457858
 30
0.0
 11
127.69093836604588
 21
86.89483688457858
 31
0.0
  0
LINE
  5
1ED
330
17
100
AcDbEntity
  8
FP-Hatch
100
AcDbLine
 10
127.21688280147646
 20
115.53309446454318
 30
-0.07616669536480747
 11
128.15438280147646
 21
115.53309446454318
 31
-0.07616669536480747
  0
LINE
  5
1EE
330
17
100
AcDbEntity
  8
FP-Hatch
100
AcDbLine
 10
127.21688280148373
 20
86.71172427539955
 30
-0.07616669536480747
 11
128.15438280147282
 21
86.71172427539955
 31
-0.07616669536480747
  0
LINE
  5
1EF
330
17
100
AcDbEntity
  8
FP-Hatch
100
AcDbLine
 10
127.22218836604588
 20
115.52870707372222
 30
0.0
 11
127.69093836604225
 21
115.52870707372222
 31
0.0
  0
LINE
  5
1F0
330
17
100
AcDbEntity
  8
FP-Hatch
100
AcDbLine
 10
127.22218836605316
 20
86.70733688457858
 30
0.0
 11
127.69093836604588
 21
86.70733688457858
 31
0.0
  0
LINE
  5
1F1
330
17
100
AcDbEntity
  8
FP-Hatch
100
AcDbLine
 10
127.23563280147937
 20
92.73280718589672
 30
-0.07616669536480747
 11
127.23563280147937
 21
104.45706208332763
 31
-0.07616669536480747
  0
LINE
  5
1F2
330
17
100
AcDbEntity
  8
FP-Hatch
100
AcDbLine
 10
127.2409383660488
 20
92.72841979507575
 30
0.0
 11
127.2409383660488
 21
104.45267469250666
 31
0.0
  0
LINE
  5
1F3
330
17
100
AcDbEntity
  8
FP-Hatch
100
AcDbLine
 10
127.31063280147646
 20
92.73280718589672
 30
-0.07616669536480747
 11
127.31063280147646
 21
104.45706208332763
 31
-0.07616669536480747
  0
LINE
  5
1F4
330
17
100
AcDbEntity
  8
FP-Hatch
100
AcDbLine
 10
127.31593836604588
 20
92.72841979507575
 30
0.0
 11
127.31593836604588
 21
104.45267469250666
 31
0.0
  0
LWPOLYLINE
  5
1F5
330
17
100
AcDbEntity
  8
FP-Hatch
100
AcDbPolyline
 90
2
 70
0
 38
-0.07616669536480747
 10
127.49813280147646
 20
104.83206208332763
 10
127.49813280147646
 20
102.95706208332763
  0
LWPOLYLINE
  5
1F6
330
17
100
AcDbEntity
  8
FP-Hatch
100
AcDbPolyline
 90
4
 70
0
 10
127.50343836604588
 20
102.95267469250666
 10
127.50343836604588
 20
104.82767469250666
 10
127.87843836604588
 20
104.82767469250666
 10
127.87843836604588
 20
102.95267469250666
  0
LINE
  5
1F7
330
17
100
AcDbEntity
  8
FP-Hatch
100
AcDbLine
 10
129.19093836604225
 20
87.8458692657914
 30
0.0
 11
127.69093836604225
 21
87.8458692657914
 31
0.0
  0
LINE
  5
1F8
330
17
100
AcDbEntity
  8
FP-Hatch
100
AcDbLine
 10
127.69093836604588
 20
84.83233688457858
 30
0.0
 11
128.27218836604152
 21
84.83233688457858
 31
0.0
  0
LINE
  5
1F9
330
17
100
AcDbEntity
  8
FP-Hatch
100
AcDbLine
 10
128.292954980363
 20
85.01983688457858
 30
0.0
 11
127.69093836604588
 21
85.01983688457858
 31
0.0
  0
LINE
  5
1FA
330
17
100
AcDbEntity
  8
FP-Hatch
100
AcDbLine
 10
128.15968836604225
 20
86.70733688457858
 30
0.0
 11
127.69093836604588
 21
86.70733688457858
 31
0.0
  0
LINE
  5
1FB
330
17
100
AcDbEntity
  8
FP-Hatch
100
AcDbLine
 10
128.25343836604225
 20
86.89483688457858
 30
0.0
 11
127.69093836604588
 21
86.89483688457858
 31
0.0
  0
LINE
  5
1FC
330
17
100
AcDbEntity
  8
FP-Hatch
100
AcDbLine
 10
129.19093836604225
 20
88.0333692657914
 30
0.0
 11
127.69093836604588
 21
88.0333692657914
 31
0.0
  0
LINE
  5
1FD
330
17
100
AcDbEntity
  8
FP-Hatch
100
AcDbLine
 10
129.00343836604588
 20
89.1583692657914
 30
0.0
 11
127.69093836604588
 21
89.1583692657914
 31
0.0
  0
LINE
  5
1FE
330
17
100
AcDbEntity
  8
FP-Hatch
100
AcDbLine
 10
129.19093836604588
 20
89.3458692657914
 30
0.0
 11
127.69093836604588
 21
89.3458692657914
 31
0.0
  0
LINE
  5
1FF
330
17
100
AcDbEntity
  8
FP-Hatch
100
AcDbLine
 10
131.43929190751078
 20
92.16591979507575
 30
0.0
 11
127.69093836604588
 21
92.16591979507575
 31
0.0
  0
LINE
  5
200
330
17
100
AcDbEntity
  8
FP-Hatch
100
AcDbLine
 10
131.43929190751078
 20
92.35341979507575
 30
0.0
 11
127.69093836604588
 21
92.35341979507575
 31
0.0
  0
LINE
  5
201
330
17
100
AcDbEntity
  8
FP-Hatch
100
AcDbLine
 10
131.39113903146063
 20
92.72841979507575
 30
0.0
 11
127.69093836604588
 21
92.72841979507575
 31
0.0
  0
LINE
  5
202
330
17
100
AcDbEntity
  8
FP-Hatch
100
AcDbLine
 10
134.32779583938827
 20
104.82767469250666
 30
0.0
 11
127.69093836604588
 21
104.82767469250666
 31
0.0
  0
LINE
  5
203
330
17
100
AcDbEntity
  8
FP-Hatch
100
AcDbLine
 10
129.19093836604588
 20
114.39017469250666
 30
0.0
 11
127.69093836604588
 21
114.39017469250666
 31
0.0
  0
LINE
  5
204
330
17
100
AcDbEntity
  8
FP-Hatch
100
AcDbLine
 10
130.80812586604588
 20
91.4552442657914
 30
0.0
 11
127.69093836605316
 21
91.4552442657914
 31
0.0
  0
LINE
  5
205
330
17
100
AcDbEntity
  8
FP-Hatch
100
AcDbLine
 10
131.64485670185604
 20
91.5489942657914
 30
0.0
 11
127.69093836605316
 21
91.5489942657914
 31
0.0
  0
LINE
  5
206
330
17
100
AcDbEntity
  8
FP-Hatch
100
AcDbLine
 10
131.83235670185604
 20
91.63597807518363
 30
0.0
 11
127.69093836605316
 21
91.63597807518363
 31
0.0
  0
LINE
  5
207
330
17
100
AcDbEntity
  8
FP-Hatch
100
AcDbLine
 10
134.6659383660517
 20
105.01517469250666
 30
0.0
 11
127.69093836605316
 21
105.01517469250666
 31
0.0
  0
LINE
  5
208
330
17
100
AcDbEntity
  8
FP-Hatch
100
AcDbLine
 10
134.81593836605316
 20
105.95267469250666
 30
0.0
 11
127.69093836605316
 21
105.95267469250666
 31
0.0
  0
LINE
  5
209
330
17
100
AcDbEntity
  8
FP-Hatch
100
AcDbLine
 10
135.00343836605316
 20
106.14017469250666
 30
0.0
 11
127.69093836605316
 21
106.14017469250666
 31
0.0
  0
LINE
  5
20A
330
17
100
AcDbEntity
  8
FP-Hatch
100
AcDbLine
 10
135.75343836605316
 20
106.31414231129384
 30
0.0
 11
127.69093836605316
 21
106.31414231129384
 31
0.0
  0
LINE
  5
20B
330
17
100
AcDbEntity
  8
FP-Hatch
100
AcDbLine
 10
134.81593836605316
 20
107.26517469250666
 30
0.0
 11
127.69093836605316
 21
107.26517469250666
 31
0.0
  0
LINE
  5
20C
330
17
100
AcDbEntity
  8
FP-Hatch
100
AcDbLine
 10
134.81593836605316
 20
107.64017469250666
 30
0.0
 11
127.69093836605316
 21
107.64017469250666
 31
0.0
  0
LINE
  5
20D
330
17
100
AcDbEntity
  8
FP-Hatch
100
AcDbLine
 10
129.19093836605316
 20
112.89017469250666
 30
0.0
 11
127.69093836605316
 21
112.89017469250666
 31
0.0
  0
LINE
  5
20E
330
17
100
AcDbEntity
  8
FP-Hatch
100
AcDbLine
 10
129.00343836605316
 20
113.07767469250666
 30
0.0
 11
127.69093836605316
 21
113.07767469250666
 31
0.0
  0
LINE
  5
20F
330
17
100
AcDbEntity
  8
FP-Hatch
100
AcDbLine
 10
129.19093836604588
 20
114.20267469250666
 30
0.0
 11
127.69093836605316
 21
114.20267469250666
 31
0.0
  0
LINE
  5
210
330
17
100
AcDbEntity
  8
FP-Hatch
100
AcDbLine
 10
128.25343836604588
 20
115.34120707372222
 30
0.0
 11
127.69093836605316
 21
115.34120707372222
 31
0.0
  0
LINE
  5
211
330
17
100
AcDbEntity
  8
FP-Hatch
100
AcDbLine
 10
128.15968836604588
 20
115.52870707372222
 30
0.0
 11
127.69093836605316
 21
115.52870707372222
 31
0.0
  0
LINE
  5
212
330
17
100
AcDbEntity
  8
FP-Hatch
100
AcDbLine
 10
128.29295498036663
 20
116.09120707372222
 30
0.0
 11
127.69093836605316
 21
116.09120707372222
 31
0.0
  0
LINE
  5
213
330
17
100
AcDbEntity
  8
FP-Hatch
100
AcDbLine
 10
127.69093836605316
 20
116.27870707372222
 30
0.0
 11
128.2721883660488
 21
116.27870707372222
 31
0.0
  0
LWPOLYLINE
  5
214
330
17
100
AcDbEntity
  8
FP-Hatch
100
AcDbPolyline
 90
2
 70
0
 38
-0.07616669536480747
 10
127.87313280147646
 20
102.95706208332763
 10
127.87313280147646
 20
104.83206208332763
  0
LINE
  5
215
330
17
100
AcDbEntity
  8
FP-Hatch
100
AcDbLine
 10
134.31561864139803
 20
104.45706208332763
 30
-0.07616669536480747
 11
127.87313280147646
 21
104.45706208332763
 31
-0.07616669536480747
  0
LINE
  5
216
330
17
100
AcDbEntity
  8
FP-Hatch
100
AcDbLine
 10
134.24590088412515
 20
104.45267469250666
 30
0.0
 11
127.87843836604588
 21
104.45267469250666
 31
0.0
  0
LINE
  5
217
330
17
100
AcDbEntity
  8
FP-Hatch
100
AcDbLine
 10
128.06063280147646
 20
92.73280718589672
 30
-0.07616669536480747
 11
128.06063280147646
 21
104.45706208332763
 31
-0.07616669536480747
  0
LINE
  5
218
330
17
100
AcDbEntity
  8
FP-Hatch
100
AcDbLine
 10
128.06593836604588
 20
92.72841979507575
 30
0.0
 11
128.06593836604588
 21
104.45267469250666
 31
0.0
  0
LINE
  5
219
330
17
100
AcDbEntity
  8
FP-Hatch
100
AcDbLine
 10
128.1356328014772
 20
92.73280718589672
 30
-0.07616669536480747
 11
128.1356328014772
 21
104.45706208332763
 31
-0.07616669536480747
  0
LINE
  5
21A
330
17
100
AcDbEntity
  8
FP-Hatch
100
AcDbLine
 10
134.05105134836776
 20
104.38206208332872
 30
-0.07616669536480747
 11
128.1356328014772
 21
104.38206208332872
 31
-0.07616669536480747
  0
LINE
  5
21B
330
17
100
AcDbEntity
  8
FP-Hatch
100
AcDbLine
 10
131.2138087125495
 20
92.80780718589563
 30
-0.07616669536480747
 11
128.13563280148082
 21
92.80780718589699
 31
-0.07616669536480747
  0
LINE
  5
21C
330
17
100
AcDbEntity
  8
FP-Hatch
100
AcDbLine
 10
128.1409383660466
 20
92.72841979507575
 30
0.0
 11
128.1409383660466
 21
104.45267469250666
 31
0.0
  0
LINE
  5
21D
330
17
100
AcDbEntity
  8
FP-Hatch
100
AcDbLine
 10
134.0563569129372
 20
104.37767469250639
 30
0.0
 11
128.1409383660466
 21
104.37767469250775
 31
0.0
  0
LINE
  5
21E
330
17
100
AcDbEntity
  8
FP-Hatch
100
AcDbLine
 10
131.21911427711893
 20
92.80341979507466
 30
0.0
 11
128.14093836605025
 21
92.80341979507739
 31
0.0
  0
LWPOLYLINE
  5
21F
330
17
100
AcDbEntity
  8
FP-Hatch
100
AcDbPolyline
 90
3
 70
0
 38
-0.07616669536480747
 10
128.15438280147282
 20
86.71172427539955
 10
128.24813280147282
 20
86.80547427539955
 10
128.24813280147282
 20
86.89922427539955
  0
LWPOLYLINE
  5
220
330
17
100
AcDbEntity
  8
FP-Hatch
100
AcDbPolyline
 90
3
 70
0
 38
-0.07616669536480747
 10
128.15438280147646
 20
115.53309446454318
 10
128.24813280147646
 20
115.43934446454318
 10
128.24813280147646
 20
115.34559446454318
  0
LWPOLYLINE
  5
221
330
17
100
AcDbEntity
  8
FP-Hatch
100
AcDbPolyline
 90
3
 70
0
 10
128.15968836604225
 20
86.70733688457858
 10
128.25343836604225
 20
86.80108688457858
 10
128.25343836604225
 20
86.89483688457858
  0
LWPOLYLINE
  5
222
330
17
100
AcDbEntity
  8
FP-Hatch
100
AcDbPolyline
 90
3
 70
0
 10
128.15968836604588
 20
115.52870707372222
 10
128.25343836604588
 20
115.43495707372222
 10
128.25343836604588
 20
115.34120707372222
  0
LWPOLYLINE
  5
223
330
17
100
AcDbEntity
  8
FP-Hatch
100
AcDbPolyline
 90
5
 70
0
 10
128.27218836604152
 20
84.83233688457858
 10
128.34718836604225
 20
84.83233688457858
 10
128.44093836604225
 20
84.92608688457858
 10
128.44093836604225
 20
84.92608688457858
 10
128.34718836604225
 20
85.01983688457858
  0
LWPOLYLINE
  5
224
330
17
100
AcDbEntity
  8
FP-Hatch
100
AcDbPolyline
 90
5
 70
0
 10
128.2721883660488
 20
116.27870707372222
 10
128.34718836604588
 20
116.27870707372222
 10
128.44093836604588
 20
116.18495707372222
 10
128.44093836604588
 20
116.18495707372222
 10
128.34718836604588
 20
116.09120707372222
  0
LINE
  5
225
330
17
100
AcDbEntity
  8
FP-Hatch
100
AcDbLine
 10
128.292954980363
 20
85.01983688457858
 30
0.0
 11
128.34718836604225
 21
85.01983688457858
 31
0.0
  0
LINE
  5
226
330
17
100
AcDbEntity
  8
FP-Hatch
100
AcDbLine
 10
128.292954980363
 20
116.09120707372085
 30
0.0
 11
128.34718836604588
 21
116.09120707372222
 31
0.0
  0
LWPOLYLINE
  5
227
330
17
100
AcDbEntity
  8
FP-Hatch
100
AcDbPolyline
 90
2
 70
0
 38
-0.07616669536480747
 10
128.34188280147282
 20
84.83672427539955
 10
128.33757010219415
 20
85.024125026197
  0
LWPOLYLINE
  5
228
330
17
100
AcDbEntity
  8
FP-Hatch
100
AcDbPolyline
 90
3
 70
0
 10
129.19093836604588
 20
89.3458692657914
 10
129.19093836604588
 20
89.1583692657914
 10
129.00343836604588
 20
89.1583692657914
  0
LWPOLYLINE
  5
229
330
17
100
AcDbEntity
  8
FP-Hatch
100
AcDbPolyline
 90
3
 70
0
 10
129.19093836605316
 20
112.89017469250666
 10
129.19093836605316
 20
113.07767469250666
 10
129.00343836605316
 20
113.07767469250666
  0
LWPOLYLINE
  5
22A
330
17
100
AcDbEntity
  8
FP-Hatch
100
AcDbPolyline
 90
2
 70
0
 38
-0.07616669536480747
 10
129.18563280147282
 20
87.85025665661237
 10
129.18563280147282
 20
88.03775665661237
  0
LWPOLYLINE
  5
22B
330
17
100
AcDbEntity
  8
FP-Hatch
100
AcDbPolyline
 90
2
 70
0
 38
-0.07616669536480747
 10
129.18563280147646
 20
89.35025665661237
 10
129.18563280147646
 20
89.16275665661237
  0
LWPOLYLINE
  5
22C
330
17
100
AcDbEntity
  8
FP-Hatch
100
AcDbPolyline
 90
2
 70
0
 38
-0.07616669536480747
 10
129.18563280147646
 20
114.39456208332763
 10
129.18563280147646
 20
114.20706208332763
  0
LWPOLYLINE
  5
22D
330
17
100
AcDbEntity
  8
FP-Hatch
100
AcDbPolyline
 90
2
 70
0
 38
-0.07616669536480747
 10
129.18563280148373
 20
112.89456208332763
 10
129.18563280148373
 20
113.08206208332763
  0
LWPOLYLINE
  5
22E
330
17
100
AcDbEntity
  8
FP-Hatch
100
AcDbPolyline
 90
2
 70
0
 10
129.19093836604225
 20
87.8458692657914
 10
129.19093836604225
 20
88.0333692657914
  0
LINE
  5
22F
330
17
100
AcDbEntity
  8
FP-Hatch
100
AcDbLine
 10
129.2581184373521
 20
87.8458692657914
 30
0.0
 11
129.19093836604225
 21
87.8458692657914
 31
0.0
  0
LWPOLYLINE
  5
230
330
17
100
AcDbEntity
  8
FP-Hatch
100
AcDbPolyline
 90
2
 70
0
 10
129.19093836604588
 20
114.39017469250666
 10
129.19093836604588
 20
114.20267469250666
  0
LINE
  5
231
330
17
100
AcDbEntity
  8
FP-Hatch
100
AcDbLine
 10
129.25811843735573
 20
114.39017469250803
 30
0.0
 11
129.19093836604588
 21
114.39017469250666
 31
0.0
  0
LINE
  5
232
330
17
100
AcDbEntity
  8
FP-Hatch
100
AcDbLine
 10
131.55110670185604
 20
91.4552442657914
 30
0.0
 11
130.80812586604588
 21
91.4552442657914
 31
0.0
  0
LINE
  5
233
330
17
100
AcDbEntity
  8
FP-Hatch
100
AcDbLine
 10
131.3858334668912
 20
92.73280718589672
 30
-0.07616669536480747
 11
131.45327800431187
 21
92.70000117467339
 31
-0.07616669536480747
  0
LINE
  5
234
330
17
100
AcDbEntity
  8
FP-Hatch
100
AcDbLine
 10
131.39113903146063
 20
92.72841979507575
 30
0.0
 11
131.4585835688813
 21
92.69561378385242
 31
0.0
  0
LINE
  5
235
330
17
100
AcDbEntity
  8
FP-Hatch
100
AcDbLine
 10
131.43398634294135
 20
92.17030718589672
 30
-0.07616669536480747
 11
131.43398634294135
 21
92.35780718589672
 31
-0.07616669536480747
  0
LINE
  5
236
330
17
100
AcDbEntity
  8
FP-Hatch
100
AcDbLine
 10
131.43929190751078
 20
92.16591979507575
 30
0.0
 11
131.43929190751078
 21
92.35341979507575
 31
0.0
  0
LINE
  5
237
330
17
100
AcDbEntity
  8
FP-Hatch
100
AcDbLine
 10
131.83235670185604
 20
91.5489942657914
 30
0.0
 11
131.64485670185604
 21
91.5489942657914
 31
0.0
  0
LINE
  5
238
330
17
100
AcDbEntity
  8
FP-Hatch
100
AcDbLine
 10
131.82705113728662
 20
91.55338165661237
 30
-0.07616669536480747
 11
131.82705113728662
 21
91.64036546600596
 31
-0.07616669536480747
  0
LINE
  5
239
330
17
100
AcDbEntity
  8
FP-Hatch
100
AcDbLine
 10
131.83235670185604
 20
91.5489942657914
 30
0.0
 11
131.83235670185604
 21
91.635978075185
 31
0.0
  0
LINE
  5
23A
330
17
100
AcDbEntity
  8
FP-Hatch
100
AcDbLine
 10
131.8995367731659
 20
91.635978075185
 30
0.0
 11
131.83235670185604
 21
91.63597807518363
 31
0.0
  0
LINE
  5
23B
330
17
100
AcDbEntity
  8
FP-Hatch
100
AcDbLine
 10
134.24590088412515
 20
104.45267469250666
 30
0.0
 11
134.32092420596746
 21
104.45267469250666
 31
0.0
  0
LINE
  5
23C
330
17
100
AcDbEntity
  8
FP-Hatch
100
AcDbLine
 10
134.32779583938827
 20
104.82767469250666
 30
0.0
 11
134.4784383660517
 21
104.82767469250666
 31
0.0
  0
LINE
  5
23D
330
17
100
AcDbEntity
  8
FP-Hatch
100
AcDbLine
 10
134.81593836604588
 20
105.01517469250666
 30
0.0
 11
134.6659383660517
 21
105.01517469250666
 31
0.0
  0
LINE
  5
23E
330
17
100
AcDbEntity
  8
FP-Hatch
100
AcDbLine
 10
134.81063280148373
 20
107.26956208332763
 30
-0.07616669536480747
 11
134.81063280148373
 21
107.64456208332763
 31
-0.07616669536480747
  0
LINE
  5
23F
330
17
100
AcDbEntity
  8
FP-Hatch
100
AcDbLine
 10
134.81593836605316
 20
107.26517469250666
 30
0.0
 11
134.81593836605316
 21
107.64017469250666
 31
0.0
  0
LINE
  5
240
330
17
100
AcDbEntity
  8
FP-Hatch
100
AcDbLine
 10
135.75343836605316
 20
106.14017469250666
 30
0.0
 11
135.00343836605316
 21
106.14017469250666
 31
0.0
  0
LINE
  5
241
330
17
100
AcDbEntity
  8
FP-Hatch
100
AcDbLine
 10
135.74813280148373
 20
106.14456208332763
 30
-0.07616669536480747
 11
135.74813280148373
 21
106.3185297021148
 31
-0.07616669536480747
  0
LINE
  5
242
330
17
100
AcDbEntity
  8
FP-Hatch
100
AcDbLine
 10
135.75343836605316
 20
106.14017469250666
 30
0.0
 11
135.75343836605316
 21
106.31414231129384
 31
0.0
  0
LINE
  5
243
330
17
100
AcDbEntity
  8
FP-Hatch
100
AcDbLine
 10
135.820618437363
 20
106.31414231129384
 30
0.0
 11
135.75343836605316
 21
106.31414231129384
 31
0.0
  0
LWPOLYLINE
  5
244
330
17
100
AcDbEntity
  8
EL-Trim
 62
8
100
AcDbPolyline
 90
2
 70
0
 38
9.815520896029877
 10
162.74095929402029
 20
130.50194810635526
 10
162.74095929402029
 20
130.50195010635412
  0
LWPOLYLINE
  5
245
330
17
100
AcDbEntity
  8
EL-Trim
 62
8
100
AcDbPolyline
 90
2
 70
0
 38
9.815520896029877
 10
162.74096153670325
 20
128.50195010635593
 10
162.74107367112083
 20
28.501948118364226
  0
LINE
  5
246
330
17
100
AcDbEntity
  8
EL-Trim
 62
8
100
AcDbLine
 10
163.49096153670325
 20
128.50195094736387
 30
9.815520896029877
 11
162.74096153670325
 21
128.50195010635593
 31
9.815520896029877
  0
LINE
  5
247
330
17
100
AcDbEntity
  8
EL-Trim
 62
8
100
AcDbLine
 10
162.7427409956108
 20
130.50195010835137
 30
9.815520896029877
 11
162.74269614168952
 21
170.50195012104246
 31
9.815520896029877
  0
LINE
  5
248
330
17
100
AcDbEntity
  8
EL-Trim
 62
8
100
AcDbLine
 10
163.4909584153611
 20
129.5019489473632
 30
9.815520896029877
 11
163.67968841536276
 21
129.5019491589935
 31
9.815520896029877
  0
LINE
  5
249
330
17
100
AcDbEntity
  8
EL-Trim
 62
8
100
AcDbLine
 10
163.49096153671053
 20
128.501948947365
 30
9.815520896029877
 11
163.49096041536177
 21
129.501948947365
 31
9.815520896029877
  0
LINE
  5
24A
330
17
100
AcDbEntity
  8
EL-Trim
 62
8
100
AcDbLine
 10
163.49269614128934
 20
170.50198849318053
 30
9.815520896029877
 11
163.49269501994786
 21
171.50198849317871
 31
9.815520896029877
  0
LINE
  5
24B
330
17
100
AcDbEntity
  8
EL-Trim
 62
8
100
AcDbLine
 10
164.04111350320818
 20
130.2266249931779
 30
9.815520896029877
 11
163.4927409956108
 21
130.5019509493593
 31
9.815520896029877
  0
LINE
  5
24C
330
17
100
AcDbEntity
  8
EL-Trim
 62
8
100
AcDbLine
 10
164.74096153664505
 20
128.5019523470362
 30
9.815520896029877
 11
164.74107367106262
 21
28.501950360072215
 31
9.815520896029877
  0
LINE
  5
24D
330
17
100
AcDbEntity
  8
EL-Trim
 62
8
100
AcDbLine
 10
164.7427409956108
 20
130.5019523510398
 30
9.815520896029877
 11
164.74269614184232
 21
170.5019523639346
 31
9.815520896029877
  0
LINE
  5
24E
330
17
100
AcDbEntity
  8
EL-Trim
 62
8
100
AcDbLine
 10
165.49269614179866
 20
170.50199073586714
 30
9.815520896029877
 11
165.49269502045718
 21
171.50199073586714
 31
9.815520896029877
  0
LINE
  5
24F
330
17
100
AcDbEntity
  8
EL-Trim
 62
8
100
AcDbLine
 10
165.4927401169516
 20
129.5019531920459
 30
9.815520896029877
 11
165.68147011695328
 21
129.50195340367804
 31
9.815520896029877
  0
LINE
  5
250
330
17
100
AcDbEntity
  8
EL-Trim
 62
8
100
AcDbLine
 10
166.04111350320818
 20
130.22662723586632
 30
9.815520896029877
 11
165.4927409956108
 21
130.50195319204772
 31
9.815520896029877
  0
LINE
  5
251
330
17
100
AcDbEntity
  8
EL-Trim
 62
8
100
AcDbLine
 10
165.49274323829377
 20
128.50195319204954
 30
9.815520896029877
 11
165.4927421169523
 21
129.50195319204954
 31
9.815520896029877
  0
LINE
  5
252
330
17
100
AcDbEntity
  8
FP-Proposed Wall
100
AcDbLine
 10
172.24079560295286
 20
6.001219096733394
 30
-0.4204237063792746
 11
173.24079560294922
 21
6.001220218077151
 31
-0.42042370637927107
  0
LWPOLYLINE
  5
253
330
17
100
AcDbEntity
  8
FP-Proposed Wall
100
AcDbPolyline
 90
2
 70
0
 38
-0.4204237063792746
 10
172.2407956042116
 20
6.000096083386097
 10
172.24080233227505
 20
9.608338973521313e-05
  0
LINE
  5
254
330
17
100
AcDbEntity
  8
FP-Proposed Wall
100
AcDbLine
 10
173.2203085088222
 20
130.50133338077262
 30
-0.4204237063804612
 11
173.20945832348661
 21
170.50158422787558
 31
-0.4204237063804611
  0
LINE
  5
255
330
17
100
AcDbEntity
  8
FP-Proposed Wall
100
AcDbLine
 10
173.2203085088222
 20
130.50133338077262
 30
-0.4204237063804612
 11
173.97030850881492
 21
130.50133422365957
 31
-0.4204237063804612
  0
LINE
  5
256
330
17
100
AcDbEntity
  8
FP-Proposed Wall
100
AcDbLine
 10
173.22031075150517
 20
128.50133338077626
 30
-0.4204237063804612
 11
173.97031075133418
 21
128.50148688492027
 31
-0.4204237063804612
  0
LINE
  5
257
330
17
100
AcDbEntity
  8
FP-Proposed Wall
100
AcDbLine
 10
173.24077822338222
 20
28.500098884755516
 30
-0.4204237063792746
 11
173.2203107515088
 21
128.50133338077626
 31
-0.4204237063804612
  0
LINE
  5
258
330
17
100
AcDbEntity
  8
FP-Proposed Wall
100
AcDbLine
 10
173.9702914747577
 20
170.5013436931422
 30
-0.4204237063804612
 11
173.22038325373433
 21
170.50158077399715
 31
-0.4204237063804612
  0
LINE
  5
259
330
17
100
AcDbEntity
  8
FP-Proposed Wall
100
AcDbLine
 10
173.2407956042116
 20
6.000097204738495
 30
-0.4204237063792746
 11
173.24077822338222
 21
21.500097204740314
 31
-0.4204237063792746
  0
LINE
  5
25A
330
17
100
AcDbEntity
  8
FP-Proposed Wall
100
AcDbLine
 10
173.24077822338222
 20
21.500097204740314
 30
-0.4204237063792746
 11
174.27903489219534
 21
21.50009836898448
 31
-0.4204237063792746
  0
LINE
  5
25B
330
17
100
AcDbEntity
  8
FP-Proposed Wall
100
AcDbLine
 10
174.7389886723795
 20
28.50009888475529
 30
-0.4204237063792746
 11
173.24077822338222
 21
28.500098884755516
 31
-0.4204237063792746
  0
LINE
  5
25C
330
17
100
AcDbEntity
  8
FP-Proposed Wall
100
AcDbLine
 10
173.9702914747577
 20
170.5013436931422
 30
-0.4204237063804612
 11
173.9702903534162
 21
171.50134369314037
 31
-0.4204237063804612
  0
LWPOLYLINE
  5
25D
330
17
100
AcDbEntity
  8
FP-Proposed Wall
100
AcDbPolyline
 90
2
 70
0
 38
-0.4204237063804612
 10
173.9702903534162
 20
171.50134369314037
 10
174.1590183976914
 20
171.5014929726956
  0
LINE
  5
25E
330
17
100
AcDbEntity
  8
FP-Proposed Wall
100
AcDbLine
 10
173.97030763015573
 20
129.50133422365775
 30
-0.4204237063804612
 11
174.1590376301574
 21
129.50133443528807
 31
-0.4204237063804612
  0
LINE
  5
25F
330
17
100
AcDbEntity
  8
FP-Proposed Wall
100
AcDbLine
 10
174.5186810164123
 20
130.22600826747635
 30
-0.4204237063804612
 11
173.97030850881492
 21
130.50133422365957
 31
-0.4204237063804612
  0
LINE
  5
260
330
17
100
AcDbEntity
  8
FP-Proposed Wall
100
AcDbLine
 10
173.97031075150517
 20
128.5013342236614
 30
-0.4204237063804612
 11
173.9703096301564
 21
129.50133422365957
 31
-0.4204237063804612
  0
LINE
  5
261
330
17
100
AcDbEntity
  8
FP-Proposed Wall
100
AcDbLine
 10
174.2790326495051
 20
23.500098368982663
 30
-0.4204237063792746
 11
174.27903489219534
 21
21.50009836898448
 31
-0.4204237063792746
  0
LINE
  5
262
330
17
100
AcDbEntity
  8
FP-Proposed Wall
100
AcDbLine
 10
174.2790326495051
 20
23.500098368982663
 30
-0.4204237063792746
 11
174.7389942790942
 21
23.500098884757335
 31
-0.4204237063792746
  0
LWPOLYLINE
  5
263
330
17
100
AcDbEntity
  8
FP-Proposed Wall
100
AcDbPolyline
 90
2
 70
0
 38
-0.4204237063792746
 10
174.7389942790942
 20
23.500098884757108
 10
174.7389886723795
 20
28.50009888475529
  0
ENDSEC
  0
SECTION
  2
OBJECTS
  0
DICTIONARY
  5
A
330
0
100
AcDbDictionary
280
0
281
1
  3
ACAD_COLOR
350
B
  3
ACAD_GROUP
350
C
  3
ACAD_LAYOUT
350
D
  3
ACAD_MATERIAL
350
E
  3
ACAD_MLEADERSTYLE
350
F
  3
ACAD_MLINESTYLE
350
10
  3
ACAD_PLOTSETTINGS
350
11
  3
ACAD_PLOTSTYLENAME
350
12
  3
ACAD_SCALELIST
350
14
  3
ACAD_TABLESTYLE
350
15
  3
ACAD_VISUALSTYLE
350
16
  3
EZDXF_META
350
2D
  0
DICTIONARY
  5
B
330
A
100
AcDbDictionary
280
0
281
1
  0
DICTIONARY
  5
C
330
A
100
AcDbDictionary
280
0
281
1
  0
DICTIONARY
  5
D
330
A
100
AcDbDictionary
280
0
281
1
  3
Model
350
1A
  3
Layout1
350
1E
  0
DICTIONARY
  5
E
330
A
100
AcDbDictionary
280
0
281
1
  3
ByBlock
350
1F
  3
ByLayer
350
20
  3
Global
350
21
  0
DICTIONARY
  5
F
330
A
100
AcDbDictionary
280
0
281
1
  3
Standard
350
2C
  0
DICTIONARY
  5
10
330
A
100
AcDbDictionary
280
0
281
1
  3
Standard
350
22
  0
DICTIONARY
  5
11
330
A
100
AcDbDictionary
280
0
281
1
  0
ACDBDICTIONARYWDFLT
  5
12
330
A
100
AcDbDictionary
280
0
281
1
  3
Normal
350
13
100
AcDbDictionaryWithDefault
340
13
  0
ACDBPLACEHOLDER
  5
13
330
12
  0
DICTIONARY
  5
14
330
A
100
AcDbDictionary
280
0
281
1
  0
DICTIONARY
  5
15
330
A
100
AcDbDictionary
280
0
281
1
  0
DICTIONARY
  5
16
330
A
100
AcDbDictionary
280
0
281
1
  0
LAYOUT
  5
1A
330
D
100
AcDbPlotSettings
  1

  2
Adobe PDF
  4
A3
  6

 40
7.5
 41
20.0
 42
7.5
 43
20.0
 44
420.0
 45
297.0
 46
0.0
 47
0.0
 48
0.0
 49
0.0
140
0.0
141
0.0
142
1.0
143
1.0
 70
1024
 72
1
 73
0
 74
5
  7

 75
16
 76
0
 77
2
 78
300
147
1.0
148
0.0
149
0.0
100
AcDbLayout
  1
Model
 70
1
 71
0
 10
0.0
 20
0.0
 11
420.0
 21
297.0
 12
0.0
 22
0.0
 32
0.0
 14
1e+20
 24
1e+20
 34
1e+20
 15
-1e+20
 25
-1e+20
 35
-1e+20
146
0.0
 13
0.0
 23
0.0
 33
0.0
 16
1.0
 26
0.0
 36
0.0
 17
0.0
 27
1.0
 37
0.0
 76
1
330
17
  0
LAYOUT
  5
1E
330
D
100
AcDbPlotSettings
  1

  2
Adobe PDF
  4
A3
  6

 40
7.5
 41
20.0
 42
7.5
 43
20.0
 44
420.0
 45
297.0
 46
0.0
 47
0.0
 48
0.0
 49
0.0
140
0.0
141
0.0
142
1.0
143
1.0
 70
0
 72
1
 73
0
 74
5
  7

 75
16
 76
0
 77
2
 78
300
147
1.0
148
0.0
149
0.0
100
AcDbLayout
  1
Layout1
 70
1
 71
1
 10
0.0
 20
0.0
 11
420.0
 21
297.0
 12
0.0
 22
0.0
 32
0.0
 14
1e+20
 24
1e+20
 34
1e+20
 15
-1e+20
 25
-1e+20
 35
-1e+20
146
0.0
 13
0.0
 23
0.0
 33
0.0
 16
1.0
 26
0.0
 36
0.0
 17
0.0
 27
1.0
 37
0.0
 76
1
330
1B
  0
MATERIAL
  5
1F
102
{ACAD_REACTORS
330
E
102
}
330
E
100
AcDbMaterial
  1
ByBlock
  2

 70
0
 40
1.0
 71
1
 41
1.0
 91
-1023410177
 42
1.0
 72
1
  3

 73
1
 74
1
 75
1
 44
0.5
 73
0
 45
1.0
 46
1.0
 77
1
  4

 78
1
 79
1
170
1
 48
1.0
171
1
  6

172
1
173
1
174
1
140
1.0
141
1.0
175
1
  7

176
1
177
1
178
1
143
1.0
179
1
  8

270
1
271
1
272
1
145
1.0
146
1.0
273
1
  9

274
1
275
1
276
1
 42
1.0
 72
1
  3

 73
1
 74
1
 75
1
 94
63
  0
MATERIAL
  5
20
102
{ACAD_REACTORS
330
E
102
}
330
E
100
AcDbMaterial
  1
ByLayer
  2

 70
0
 40
1.0
 71
1
 41
1.0
 91
-1023410177
 42
1.0
 72
1
  3

 73
1
 74
1
 75
1
 44
0.5
 73
0
 45
1.0
 46
1.0
 77
1
  4

 78
1
 79
1
170
1
 48
1.0
171
1
  6

172
1
173
1
174
1
140
1.0
141
1.0
175
1
  7

176
1
177
1
178
1
143
1.0
179
1
  8

270
1
271
1
272
1
145
1.0
146
1.0
273
1
  9

274
1
275
1
276
1
 42
1.0
 72
1
  3

 73
1
 74
1
 75
1
 94
63
  0
MATERIAL
  5
21
102
{ACAD_REACTORS
330
E
102
}
330
E
100
AcDbMaterial
  1
Global
  2

 70
0
 40
1.0
 71
1
 41
1.0
 91
-1023410177
 42
1.0
 72
1
  3

 73
1
 74
1
 75
1
 44
0.5
 73
0
 45
1.0
 46
1.0
 77
1
  4

 78
1
 79
1
170
1
 48
1.0
171
1
  6

172
1
173
1
174
1
140
1.0
141
1.0
175
1
  7

176
1
177
1
178
1
143
1.0
179
1
  8

270
1
271
1
272
1
145
1.0
146
1.0
273
1
  9

274
1
275
1
276
1
 42
1.0
 72
1
  3

 73
1
 74
1
 75
1
 94
63
  0
MLINESTYLE
  5
22
102
{ACAD_REACTORS
330
10
102
}
330
10
100
AcDbMlineStyle
  2
Standard
 70
0
  3

 62
256
 51
90.0
 52
90.0
 71
2
 49
0.5
 62
256
  6
BYLAYER
 49
-0.5
 62
256
  6
BYLAYER
  0
MLEADERSTYLE
  5
2C
102
{ACAD_REACTORS
330
F
102
}
330
F
100
AcDbMLeaderStyle
179
2
170
2
171
1
172
0
 90
2
 40
0.0
 41
0.0
173
1
 91
-1056964608
 92
-2
290
1
 42
2.0
291
1
 43
8.0
  3
Standard
 44
4.0
300

342
29
174
1
175
1
176
0
178
1
 93
-1056964608
 45
4.0
292
0
297
0
 46
4.0
 94
-1056964608
 47
1.0
 49
1.0
140
1.0
294
1
141
0.0
177
0
142
1.0
295
0
296
0
143
3.75
271
0
272
9
273
9
  0
DICTIONARY
  5
2D
330
A
100
AcDbDictionary
281
1
  3
CREATED_BY_EZDXF
350
2E
  3
WRITTEN_BY_EZDXF
350
266
  0
DICTIONARYVAR
  5
2E
330
2D
100
DictionaryVariables
280
0
  1
1.1.4 @ 2024-01-23T16:06:01.800531+00:00
  0
DICTIONARYVAR
  5
266
330
2D
100
DictionaryVariables
280
0
  1
1.1.4 @ 2024-01-23T16:06:06.023164+00:00
  0
ENDSEC
  0
EOF
