  0
SECTION
  2
HEADER
  9
$ACADVER
  1
AC1027
  9
$ACADMAINTVER
 70
105
  9
$DWGCODEPAGE
  3
ANSI_1252
  9
$LASTSAVEDBY
  1
ezdxf
  9
$REQUIREDVERSIONS
160
0
  9
$INSBASE
 10
0.0
 20
0.0
 30
0.0
  9
$EXTMIN
 10
1e+20
 20
1e+20
 30
1e+20
  9
$EXTMAX
 10
-1e+20
 20
-1e+20
 30
-1e+20
  9
$LIMMIN
 10
0.0
 20
0.0
  9
$LIMMAX
 10
420.0
 20
297.0
  9
$ORTHOMODE
 70
0
  9
$REGENMODE
 70
1
  9
$FILLMODE
 70
1
  9
$QTEXTMODE
 70
0
  9
$MIRRTEXT
 70
1
  9
$LTSCALE
 40
1.0
  9
$ATTMODE
 70
1
  9
$TEXTSIZE
 40
2.5
  9
$TRACEWID
 40
1.0
  9
$TEXTSTYLE
  7
Standard
  9
$CLAYER
  8
0
  9
$CELTYPE
  6
ByLayer
  9
$CECOLOR
 62
256
  9
$CELTSCALE
 40
1.0
  9
$DISPSILH
 70
0
  9
$DIMSCALE
 40
1.0
  9
$DIMASZ
 40
2.5
  9
$DIMEXO
 40
0.625
  9
$DIMDLI
 40
3.75
  9
$DIMRND
 40
0.0
  9
$DIMDLE
 40
0.0
  9
$DIMEXE
 40
1.25
  9
$DIMTP
 40
0.0
  9
$DIMTM
 40
0.0
  9
$DIMTXT
 40
2.5
  9
$DIMCEN
 40
2.5
  9
$DIMTSZ
 40
0.0
  9
$DIMTOL
 70
0
  9
$DIMLIM
 70
0
  9
$DIMTIH
 70
0
  9
$DIMTOH
 70
0
  9
$DIMSE1
 70
0
  9
$DIMSE2
 70
0
  9
$DIMTAD
 70
1
  9
$DIMZIN
 70
8
  9
$DIMBLK
  1

  9
$DIMASO
 70
1
  9
$DIMSHO
 70
1
  9
$DIMPOST
  1

  9
$DIMAPOST
  1

  9
$DIMALT
 70
0
  9
$DIMALTD
 70
3
  9
$DIMALTF
 40
0.03937007874
  9
$DIMLFAC
 40
1.0
  9
$DIMTOFL
 70
1
  9
$DIMTVP
 40
0.0
  9
$DIMTIX
 70
0
  9
$DIMSOXD
 70
0
  9
$DIMSAH
 70
0
  9
$DIMBLK1
  1

  9
$DIMBLK2
  1

  9
$DIMSTYLE
  2
ISO-25
  9
$DIMCLRD
 70
0
  9
$DIMCLRE
 70
0
  9
$DIMCLRT
 70
0
  9
$DIMTFAC
 40
1.0
  9
$DIMGAP
 40
0.625
  9
$DIMJUST
 70
0
  9
$DIMSD1
 70
0
  9
$DIMSD2
 70
0
  9
$DIMTOLJ
 70
0
  9
$DIMTZIN
 70
8
  9
$DIMALTZ
 70
0
  9
$DIMALTTZ
 70
0
  9
$DIMUPT
 70
0
  9
$DIMDEC
 70
2
  9
$DIMTDEC
 70
2
  9
$DIMALTU
 70
2
  9
$DIMALTTD
 70
3
  9
$DIMTXSTY
  7
Standard
  9
$DIMAUNIT
 70
0
  9
$DIMADEC
 70
0
  9
$DIMALTRND
 40
0.0
  9
$DIMAZIN
 70
0
  9
$DIMDSEP
 70
44
  9
$DIMATFIT
 70
3
  9
$DIMFRAC
 70
0
  9
$DIMLDRBLK
  1

  9
$DIMLUNIT
 70
2
  9
$DIMLWD
 70
-2
  9
$DIMLWE
 70
-2
  9
$DIMTMOVE
 70
0
  9
$DIMFXL
 40
1.0
  9
$DIMFXLON
 70
0
  9
$DIMJOGANG
 40
0.785398163397
  9
$DIMTFILL
 70
0
  9
$DIMTFILLCLR
 70
0
  9
$DIMARCSYM
 70
0
  9
$DIMLTYPE
  6

  9
$DIMLTEX1
  6

  9
$DIMLTEX2
  6

  9
$DIMTXTDIRECTION
 70
0
  9
$LUNITS
 70
2
  9
$LUPREC
 70
4
  9
$SKETCHINC
 40
1.0
  9
$FILLETRAD
 40
10.0
  9
$AUNITS
 70
0
  9
$AUPREC
 70
2
  9
$MENU
  1
.
  9
$ELEVATION
 40
0.0
  9
$PELEVATION
 40
0.0
  9
$THICKNESS
 40
0.0
  9
$LIMCHECK
 70
0
  9
$CHAMFERA
 40
0.0
  9
$CHAMFERB
 40
0.0
  9
$CHAMFERC
 40
0.0
  9
$CHAMFERD
 40
0.0
  9
$SKPOLY
 70
0
  9
$TDCREATE
 40
2460329.662962963
  9
$TDUCREATE
 40
2458532.153996898
  9
$TDUPDATE
 40
2460329.662962963
  9
$TDUUPDATE
 40
2458532.1544311
  9
$TDINDWG
 40
0.0
  9
$TDUSRTIMER
 40
0.0
  9
$USRTIMER
 70
1
  9
$ANGBASE
 50
0.0
  9
$ANGDIR
 70
0
  9
$PDMODE
 70
0
  9
$PDSIZE
 40
0.0
  9
$PLINEWID
 40
0.0
  9
$SPLFRAME
 70
0
  9
$SPLINETYPE
 70
6
  9
$SPLINESEGS
 70
8
  9
$HANDSEED
  5
102
  9
$SURFTAB1
 70
6
  9
$SURFTAB2
 70
6
  9
$SURFTYPE
 70
6
  9
$SURFU
 70
6
  9
$SURFV
 70
6
  9
$UCSBASE
  2

  9
$UCSNAME
  2

  9
$UCSORG
 10
0.0
 20
0.0
 30
0.0
  9
$UCSXDIR
 10
1.0
 20
0.0
 30
0.0
  9
$UCSYDIR
 10
0.0
 20
1.0
 30
0.0
  9
$UCSORTHOREF
  2

  9
$UCSORTHOVIEW
 70
0
  9
$UCSORGTOP
 10
0.0
 20
0.0
 30
0.0
  9
$UCSORGBOTTOM
 10
0.0
 20
0.0
 30
0.0
  9
$UCSORGLEFT
 10
0.0
 20
0.0
 30
0.0
  9
$UCSORGRIGHT
 10
0.0
 20
0.0
 30
0.0
  9
$UCSORGFRONT
 10
0.0
 20
0.0
 30
0.0
  9
$UCSORGBACK
 10
0.0
 20
0.0
 30
0.0
  9
$PUCSBASE
  2

  9
$PUCSNAME
  2

  9
$PUCSORG
 10
0.0
 20
0.0
 30
0.0
  9
$PUCSXDIR
 10
1.0
 20
0.0
 30
0.0
  9
$PUCSYDIR
 10
0.0
 20
1.0
 30
0.0
  9
$PUCSORTHOREF
  2

  9
$PUCSORTHOVIEW
 70
0
  9
$PUCSORGTOP
 10
0.0
 20
0.0
 30
0.0
  9
$PUCSORGBOTTOM
 10
0.0
 20
0.0
 30
0.0
  9
$PUCSORGLEFT
 10
0.0
 20
0.0
 30
0.0
  9
$PUCSORGRIGHT
 10
0.0
 20
0.0
 30
0.0
  9
$PUCSORGFRONT
 10
0.0
 20
0.0
 30
0.0
  9
$PUCSORGBACK
 10
0.0
 20
0.0
 30
0.0
  9
$USERI1
 70
0
  9
$USERI2
 70
0
  9
$USERI3
 70
0
  9
$USERI4
 70
0
  9
$USERI5
 70
0
  9
$USERR1
 40
0.0
  9
$USERR2
 40
0.0
  9
$USERR3
 40
0.0
  9
$USERR4
 40
0.0
  9
$USERR5
 40
0.0
  9
$WORLDVIEW
 70
1
  9
$SHADEDGE
 70
3
  9
$SHADEDIF
 70
70
  9
$TILEMODE
 70
1
  9
$MAXACTVP
 70
64
  9
$PINSBASE
 10
0.0
 20
0.0
 30
0.0
  9
$PLIMCHECK
 70
0
  9
$PEXTMIN
 10
1e+20
 20
1e+20
 30
1e+20
  9
$PEXTMAX
 10
-1e+20
 20
-1e+20
 30
-1e+20
  9
$PLIMMIN
 10
0.0
 20
0.0
  9
$PLIMMAX
 10
420.0
 20
297.0
  9
$UNITMODE
 70
0
  9
$VISRETAIN
 70
1
  9
$PLINEGEN
 70
0
  9
$PSLTSCALE
 70
1
  9
$TREEDEPTH
 70
3020
  9
$CMLSTYLE
  2
Standard
  9
$CMLJUST
 70
0
  9
$CMLSCALE
 40
20.0
  9
$PROXYGRAPHICS
 70
1
  9
$MEASUREMENT
 70
1
  9
$CELWEIGHT
370
-1
  9
$ENDCAPS
280
0
  9
$JOINSTYLE
280
0
  9
$LWDISPLAY
290
0
  9
$INSUNITS
 70
6
  9
$HYPERLINKBASE
  1

  9
$STYLESHEET
  1

  9
$XEDIT
290
1
  9
$CEPSNTYPE
380
0
  9
$PSTYLEMODE
290
1
  9
$FINGERPRINTGUID
  2
{0F51E2AF-4C87-4598-BEC7-9BE36D9706A5}
  9
$VERSIONGUID
  2
{4B1F2B92-762C-4A76-8D9F-41124AE84FC2}
  9
$EXTNAMES
290
1
  9
$PSVPSCALE
 40
0.0
  9
$OLESTARTUP
290
0
  9
$SORTENTS
280
127
  9
$INDEXCTL
280
0
  9
$HIDETEXT
280
1
  9
$XCLIPFRAME
280
0
  9
$HALOGAP
280
0
  9
$OBSCOLOR
 70
257
  9
$OBSLTYPE
280
0
  9
$INTERSECTIONDISPLAY
280
0
  9
$INTERSECTIONCOLOR
 70
257
  9
$DIMASSOC
280
2
  9
$PROJECTNAME
  1

  9
$CAMERADISPLAY
290
0
  9
$LENSLENGTH
 40
50.0
  9
$CAMERAHEIGHT
 40
0.0
  9
$STEPSPERSEC
 40
24.0
  9
$STEPSIZE
 40
100.0
  9
$3DDWFPREC
 40
2.0
  9
$PSOLWIDTH
 40
0.005
  9
$PSOLHEIGHT
 40
0.08
  9
$LOFTANG1
 40
1.570796326795
  9
$LOFTANG2
 40
1.570796326795
  9
$LOFTMAG1
 40
0.0
  9
$LOFTMAG2
 40
0.0
  9
$LOFTPARAM
 70
7
  9
$LOFTNORMALS
280
1
  9
$LATITUDE
 40
37.795
  9
$LONGITUDE
 40
-122.394
  9
$NORTHDIRECTION
 40
0.0
  9
$TIMEZONE
 70
-8000
  9
$LIGHTGLYPHDISPLAY
280
1
  9
$TILEMODELIGHTSYNCH
280
1
  9
$CMATERIAL
347
20
  9
$SOLIDHIST
280
0
  9
$SHOWHIST
280
1
  9
$DWFFRAME
280
2
  9
$DGNFRAME
280
2
  9
$REALWORLDSCALE
290
1
  9
$INTERFERECOLOR
 62
256
  9
$CSHADOW
280
0
  9
$SHADOWPLANELOCATION
 40
0.0
  0
ENDSEC
  0
SECTION
  2
CLASSES
  0
CLASS
  1
ACDBDICTIONARYWDFLT
  2
AcDbDictionaryWithDefault
  3
ObjectDBX Classes
 90
0
 91
0
280
0
281
0
  0
CLASS
  1
SUN
  2
AcDbSun
  3
SCENEOE
 90
1153
 91
0
280
0
281
0
  0
CLASS
  1
VISUALSTYLE
  2
AcDbVisualStyle
  3
ObjectDBX Classes
 90
4095
 91
0
280
0
281
0
  0
CLASS
  1
MATERIAL
  2
AcDbMaterial
  3
ObjectDBX Classes
 90
1153
 91
0
280
0
281
0
  0
CLASS
  1
SCALE
  2
AcDbScale
  3
ObjectDBX Classes
 90
1153
 91
0
280
0
281
0
  0
CLASS
  1
TABLESTYLE
  2
AcDbTableStyle
  3
ObjectDBX Classes
 90
4095
 91
0
280
0
281
0
  0
CLASS
  1
MLEADERSTYLE
  2
AcDbMLeaderStyle
  3
ACDB_MLEADERSTYLE_CLASS
 90
4095
 91
0
280
0
281
0
  0
CLASS
  1
DICTIONARYVAR
  2
AcDbDictionaryVar
  3
ObjectDBX Classes
 90
0
 91
0
280
0
281
0
  0
CLASS
  1
CELLSTYLEMAP
  2
AcDbCellStyleMap
  3
ObjectDBX Classes
 90
1152
 91
0
280
0
281
0
  0
CLASS
  1
MENTALRAYRENDERSETTINGS
  2
AcDbMentalRayRenderSettings
  3
SCENEOE
 90
1024
 91
0
280
0
281
0
  0
CLASS
  1
ACDBDETAILVIEWSTYLE
  2
AcDbDetailViewStyle
  3
ObjectDBX Classes
 90
1025
 91
0
280
0
281
0
  0
CLASS
  1
ACDBSECTIONVIEWSTYLE
  2
AcDbSectionViewStyle
  3
ObjectDBX Classes
 90
1025
 91
0
280
0
281
0
  0
CLASS
  1
RASTERVARIABLES
  2
AcDbRasterVariables
  3
ISM
 90
0
 91
0
280
0
281
0
  0
CLASS
  1
ACDBPLACEHOLDER
  2
AcDbPlaceHolder
  3
ObjectDBX Classes
 90
0
 91
0
280
0
281
0
  0
CLASS
  1
LAYOUT
  2
AcDbLayout
  3
ObjectDBX Classes
 90
0
 91
0
280
0
281
0
  0
ENDSEC
  0
SECTION
  2
TABLES
  0
TABLE
  2
VPORT
  5
8
330
0
100
AcDbSymbolTable
 70
1
  0
VPORT
  5
23
330
8
100
AcDbSymbolTableRecord
100
AcDbViewportTableRecord
  2
*Active
 70
0
 10
0.0
 20
0.0
 11
1.0
 21
1.0
 12
0.0
 22
0.0
 13
0.0
 23
0.0
 14
0.5
 24
0.5
 15
0.5
 25
0.5
 16
0.0
 26
0.0
 36
1.0
 17
0.0
 27
0.0
 37
0.0
 40
1000.0
 41
1.34
 42
50.0
 43
0.0
 44
0.0
 50
0.0
 51
0.0
 71
0
 72
1000
 73
1
 74
3
 75
0
 76
0
 77
0
 78
0
281
0
 65
0
146
0.0
  0
ENDTAB
  0
TABLE
  2
LTYPE
  5
2
330
0
100
AcDbSymbolTable
 70
3
  0
LTYPE
  5
24
330
2
100
AcDbSymbolTableRecord
100
AcDbLinetypeTableRecord
  2
ByBlock
 70
0
  3

 72
65
 73
0
 40
0.0
  0
LTYPE
  5
25
330
2
100
AcDbSymbolTableRecord
100
AcDbLinetypeTableRecord
  2
ByLayer
 70
0
  3

 72
65
 73
0
 40
0.0
  0
LTYPE
  5
26
330
2
100
AcDbSymbolTableRecord
100
AcDbLinetypeTableRecord
  2
Continuous
 70
0
  3

 72
65
 73
0
 40
0.0
  0
ENDTAB
  0
TABLE
  2
LAYER
  5
1
330
0
100
AcDbSymbolTable
 70
2
  0
LAYER
  5
27
330
1
100
AcDbSymbolTableRecord
100
AcDbLayerTableRecord
  2
0
 70
0
 62
7
  6
Continuous
370
-3
390
13
347
21
  0
LAYER
  5
28
330
1
100
AcDbSymbolTableRecord
100
AcDbLayerTableRecord
  2
Defpoints
 70
0
 62
7
  6
Continuous
290
0
370
-3
390
13
347
21
  0
ENDTAB
  0
TABLE
  2
STYLE
  5
5
330
0
100
AcDbSymbolTable
 70
1
  0
STYLE
  5
29
330
5
100
AcDbSymbolTableRecord
100
AcDbTextStyleTableRecord
  2
Standard
 70
0
 40
0.0
 41
1.0
 50
0.0
 71
0
 42
2.5
  3
txt
  4

  0
ENDTAB
  0
TABLE
  2
VIEW
  5
7
330
0
100
AcDbSymbolTable
 70
0
  0
ENDTAB
  0
TABLE
  2
UCS
  5
6
330
0
100
AcDbSymbolTable
 70
0
  0
ENDTAB
  0
TABLE
  2
APPID
  5
3
330
0
100
AcDbSymbolTable
 70
3
  0
APPID
  5
2A
330
3
100
AcDbSymbolTableRecord
100
AcDbRegAppTableRecord
  2
ACAD
 70
0
  0
APPID
  5
FF
330
3
100
AcDbSymbolTableRecord
100
AcDbRegAppTableRecord
  2
HATCHBACKGROUNDCOLOR
 70
0
  0
APPID
  5
100
330
3
100
AcDbSymbolTableRecord
100
AcDbRegAppTableRecord
  2
EZDXF
 70
0
  0
ENDTAB
  0
TABLE
  2
DIMSTYLE
  5
4
330
0
100
AcDbSymbolTable
 70
1
100
AcDbDimStyleTable
  0
DIMSTYLE
105
2B
330
4
100
AcDbSymbolTableRecord
100
AcDbDimStyleTableRecord
  2
Standard
 70
0
 40
1.0
 41
2.5
 42
0.625
 43
3.75
 44
1.25
 45
0.0
 46
0.0
 47
0.0
 48
0.0
 49
2.5
140
2.5
141
2.5
142
0.0
143
0.03937007874
144
1.0
145
0.0
146
1.0
147
0.625
148
0.0
 69
0
 70
0
 71
0
 72
0
 73
0
 74
0
 75
0
 76
0
 77
1
 78
8
 79
3
170
0
171
3
172
1
173
0
174
0
175
0
176
0
177
0
178
0
179
2
271
2
272
2
273
2
274
3
275
0
276
0
277
2
278
44
279
0
280
0
281
0
282
0
283
0
284
8
285
0
286
0
288
0
289
3
290
0
371
-2
372
-2
  0
ENDTAB
  0
TABLE
  2
BLOCK_RECORD
  5
9
330
0
100
AcDbSymbolTable
 70
2
  0
BLOCK_RECORD
  5
17
330
9
100
AcDbSymbolTableRecord
100
AcDbBlockTableRecord
  2
*Model_Space
340
1A
 70
0
280
1
281
0
  0
BLOCK_RECORD
  5
1B
330
9
100
AcDbSymbolTableRecord
100
AcDbBlockTableRecord
  2
*Paper_Space
340
1E
 70
0
280
1
281
0
  0
ENDTAB
  0
ENDSEC
  0
SECTION
  2
BLOCKS
  0
BLOCK
  5
18
330
17
100
AcDbEntity
  8
0
100
AcDbBlockBegin
  2
*Model_Space
 70
0
 10
0.0
 20
0.0
 30
0.0
  3
*Model_Space
  1

  0
ENDBLK
  5
19
330
17
100
AcDbEntity
  8
0
100
AcDbBlockEnd
  0
BLOCK
  5
1C
330
1B
100
AcDbEntity
  8
0
100
AcDbBlockBegin
  2
*Paper_Space
 70
0
 10
0.0
 20
0.0
 30
0.0
  3
*Paper_Space
  1

  0
ENDBLK
  5
1D
330
1B
100
AcDbEntity
  8
0
100
AcDbBlockEnd
  0
ENDSEC
  0
SECTION
  2
ENTITIES
  0
LWPOLYLINE
  5
2F
330
17
100
AcDbEntity
  8
Defpoints
 62
4
100
AcDbPolyline
 90
4
 70
1
 10
-4114.982724430622
 20
6565.661801682159
 10
4114.982724430622
 20
6565.661801682159
 10
4114.982724430622
 20
0.0
 10
-4114.982724430622
 20
0.0
  0
LWPOLYLINE
  5
30
330
17
100
AcDbEntity
  8
SP-Property Line
100
AcDbPolyline
 90
9
 70
0
 10
1702.4536711641576
 20
4652.566685239719
 10
-827.4387552419139
 20
5514.841877650222
 10
-3151.077027703197
 20
3185.537096179134
 10
-1273.9408538445623
 20
863.7659175484878
 10
3171.8418444342515
 20
2978.8630563343686
 10
2713.7785641984883
 20
3528.906255814436
 10
2180.192788428116
 20
3724.526773126767
 10
1832.5304419958356
 20
3963.5674900647646
 10
1702.4536711641576
 20
4652.566685239719
  0
LINE
  5
31
330
17
100
AcDbEntity
  8
0
100
AcDbLine
 10
-2935.1816218525873
 20
4414.341237002696
 30
0.0
 11
-3004.4181773308446
 21
4420.658399832006
 31
0.0
  0
LINE
  5
32
330
17
100
AcDbEntity
  8
0
100
AcDbLine
 10
-2935.399980593709
 20
4407.139132336983
 30
0.0
 11
-2964.049589757129
 21
4409.753130749112
 31
0.0
  0
LINE
  5
33
330
17
100
AcDbEntity
  8
0
100
AcDbLine
 10
-2933.8824403918625
 20
4421.444727098933
 30
0.0
 11
-2962.532049555255
 21
4424.058725511048
 31
0.0
  0
LINE
  5
34
330
17
100
AcDbEntity
  8
0
100
AcDbLine
 10
-2936.0156208744647
 20
4084.9657791044847
 30
0.0
 11
-2920.2840945466032
 21
4049.9819714195582
 31
0.0
  0
LINE
  5
35
330
17
100
AcDbEntity
  8
0
100
AcDbLine
 10
-2931.2528354238184
 20
3929.7637885435215
 30
0.0
 11
-2891.857279079488
 21
4361.541897820192
 31
0.0
  0
LINE
  5
36
330
17
100
AcDbEntity
  8
0
100
AcDbLine
 10
-2904.3846290063866
 20
4390.571978972017
 30
0.0
 11
-2905.972294847523
 21
4390.716838050677
 31
0.0
  0
LINE
  5
37
330
17
100
AcDbEntity
  8
0
100
AcDbLine
 10
-2903.5639557389823
 20
4417.112406568267
 30
0.0
 11
-2905.972294847523
 21
4390.716838050677
 31
0.0
  0
LINE
  5
38
330
17
100
AcDbEntity
  8
0
100
AcDbLine
 10
-2902.2297571307645
 20
4414.189528526465
 30
0.0
 11
-2904.3846290063866
 21
4390.571978972017
 31
0.0
  0
LINE
  5
39
330
17
100
AcDbEntity
  8
0
100
AcDbLine
 10
-2903.5639557389823
 20
4417.112406568267
 30
0.0
 11
-2902.2297571307645
 21
4414.189528526465
 31
0.0
  0
LINE
  5
3A
330
17
100
AcDbEntity
  8
0
100
AcDbLine
 10
-2902.246926791142
 20
4431.547137835951
 30
0.0
 11
-2882.6373669318673
 21
4388.587752653002
 31
0.0
  0
LINE
  5
3B
330
17
100
AcDbEntity
  8
0
100
AcDbLine
 10
-2890.8982258366595
 20
4430.511679163388
 30
0.0
 11
-2902.246926791142
 21
4431.547137835951
 31
0.0
  0
LINE
  5
3C
330
17
100
AcDbEntity
  8
0
100
AcDbLine
 10
-2890.8982258366595
 20
4430.511679163388
 30
0.0
 11
-2871.2886659773994
 21
4387.552293980407
 31
0.0
  0
LINE
  5
3D
330
17
100
AcDbEntity
  8
0
100
AcDbLine
 10
-2890.3132535479817
 20
4517.6562287319575
 30
0.0
 11
-2879.755529607026
 21
4494.177935765205
 31
0.0
  0
LINE
  5
3E
330
17
100
AcDbEntity
  8
0
100
AcDbLine
 10
-2881.0856549409764
 20
4479.5996671716275
 30
0.0
 11
-2883.1439510390883
 21
4457.040595031536
 31
0.0
  0
LINE
  5
3F
330
17
100
AcDbEntity
  8
0
100
AcDbLine
 10
-2871.2886659773994
 20
4387.552293980407
 30
0.0
 11
-2882.6373669318673
 21
4388.587752653002
 31
0.0
  0
LINE
  5
40
330
17
100
AcDbEntity
  8
0
100
AcDbLine
 10
-2881.0856549409764
 20
4479.5996671716275
 30
0.0
 11
-2871.6062695137625
 21
4583.49440801725
 31
0.0
  0
LINE
  5
41
330
17
100
AcDbEntity
  8
0
100
AcDbLine
 10
-2865.12317561945
 20
4515.357878924478
 30
0.0
 11
-2879.755529607026
 21
4494.177935765205
 31
0.0
  0
LINE
  5
42
330
17
100
AcDbEntity
  8
0
100
AcDbLine
 10
-2871.3058356377805
 20
4404.90990328991
 30
0.0
 11
-2869.9716370295573
 21
4401.9870252481305
 31
0.0
  0
LINE
  5
43
330
17
100
AcDbEntity
  8
0
100
AcDbLine
 10
-2869.1509637621675
 20
4428.527452844366
 30
0.0
 11
-2871.3058356377805
 21
4404.90990328991
 31
0.0
  0
LINE
  5
44
330
17
100
AcDbEntity
  8
0
100
AcDbLine
 10
-2867.5632979210186
 20
4428.382593765695
 30
0.0
 11
-2869.9716370295573
 21
4401.9870252481305
 31
0.0
  0
LINE
  5
45
330
17
100
AcDbEntity
  8
0
100
AcDbLine
 10
-2867.5632979210186
 20
4428.382593765695
 30
0.0
 11
-2869.1509637621675
 21
4428.527452844366
 31
0.0
  0
LINE
  5
46
330
17
100
AcDbEntity
  8
0
100
AcDbLine
 10
-2812.132037023861
 20
4395.89213043479
 30
0.0
 11
-2840.7816461872717
 21
4398.506128846919
 31
0.0
  0
LINE
  5
47
330
17
100
AcDbEntity
  8
0
100
AcDbLine
 10
-2770.4564502440753
 20
4399.31166593363
 30
0.0
 11
-2839.6930057223126
 21
4405.628828762932
 31
0.0
  0
LINE
  5
48
330
17
100
AcDbEntity
  8
0
100
AcDbLine
 10
-2811.035578813604
 20
4410.2361448362935
 30
0.0
 11
-2839.685187977024
 21
4412.850143248419
 31
0.0
  0
LWPOLYLINE
  5
49
330
17
100
AcDbEntity
  8
SP-Property Line
 62
1
100
AcDbPolyline
 90
8
 70
1
 10
2254.9531941652713
 20
2869.6390738570954
 10
-916.4124173982618
 20
1360.8504563524912
 10
-2544.910800700909
 20
3375.0893077760848
 10
-980.6602984636847
 20
4943.154448319776
 10
1098.4698181531621
 20
4234.514704335881
 10
1376.2696300126045
 20
3588.08392724238
 10
2071.5000265972776
 20
3137.9245060340763
 10
2128.099261372885
 20
3136.276955056459
  0
LWPOLYLINE
  5
4A
330
17
100
AcDbEntity
  8
FP-Stair
100
AcDbPolyline
 90
3
 70
0
 38
-0.6806063531139644
 10
-420.17300862782577
 20
3214.4043848424553
 10
-1412.170335671446
 20
3214.4043848424553
 10
-1412.1703356713988
 20
3456.9057856107975
  0
LWPOLYLINE
  5
4B
330
17
100
AcDbEntity
  8
FP-Proposed Wall
100
AcDbPolyline
 90
13
 70
0
 10
-1123.1730086278985
 20
3814.9057856107975
 10
-1213.6716721496232
 20
3814.905785610841
 10
-1213.6716721496232
 20
3826.905785610841
 10
-1321.6716721496214
 20
3826.905785610841
 10
-1321.6716721496232
 20
3814.905785610841
 10
-1412.1703356713988
 20
3814.905785610881
 10
-1412.1703356713988
 20
3456.9057856107975
 10
-1123.1730086278512
 20
3456.9057856107975
 10
-1123.1730086278512
 20
3524.9057856107975
 10
-1096.1730086278567
 20
3524.9057856107975
 10
-1096.1730086278567
 20
3746.905785610794
 10
-1123.1730086278567
 20
3746.9057856107975
 10
-1123.1730086278985
 20
3814.9057856107975
  0
LWPOLYLINE
  5
4C
330
17
100
AcDbEntity
  8
FP-Window
100
AcDbPolyline
 90
5
 70
0
 10
-1194.674641260881
 20
3456.905785610801
 10
-1194.674641260881
 20
3420.905785610801
 10
-1304.6746412608827
 20
3420.905785610801
 10
-1340.6746412608827
 20
3420.905785610801
 10
-1340.6746412608827
 20
3456.9057856107975
  0
LWPOLYLINE
  5
4D
330
17
100
AcDbEntity
  8
FP-Window
100
AcDbPolyline
 90
5
 70
0
 10
-1206.674641260881
 20
3456.905785610801
 10
-1206.674641260881
 20
3432.905785610801
 10
-1304.6746412608827
 20
3432.905785610801
 10
-1328.6746412608827
 20
3432.905785610801
 10
-1328.6746412608827
 20
3456.9057856107975
  0
LWPOLYLINE
  5
4E
330
17
100
AcDbEntity
  8
FP-Window
100
AcDbPolyline
 90
5
 70
0
 10
-1218.674641260881
 20
3456.905785610801
 10
-1218.674641260881
 20
3444.905785610801
 10
-1304.6746412608827
 20
3444.905785610801
 10
-1316.6746412608827
 20
3444.905785610801
 10
-1316.6746412608827
 20
3456.9057856107975
  0
LWPOLYLINE
  5
4F
330
17
100
AcDbEntity
  8
FP-Stair
100
AcDbPolyline
 90
3
 70
0
 38
-0.6806063531139644
 10
-420.17300862783304
 20
4057.4062190424593
 10
-1123.1730086278985
 20
4057.4062190424593
 10
-1123.173008628015
 20
3814.9057856107975
  0
LWPOLYLINE
  5
50
330
17
100
AcDbEntity
  8
FP-Window
100
AcDbPolyline
 90
5
 70
0
 10
-1123.1730086278785
 20
3488.9057856108193
 10
-1060.1730086278567
 20
3488.905785610783
 10
-1060.1730086278549
 20
3746.9057856107975
 10
-1060.1730086278549
 20
3782.9057856107975
 10
-1123.1730086278512
 20
3782.9057856107975
  0
LWPOLYLINE
  5
51
330
17
100
AcDbEntity
  8
FP-Window
100
AcDbPolyline
 90
5
 70
0
 10
-1123.1730086278712
 20
3500.9057856108193
 10
-1072.1730086278567
 20
3500.90578561079
 10
-1072.1730086278549
 20
3746.9057856107975
 10
-1072.1730086278549
 20
3770.9057856107975
 10
-1123.1730086278512
 20
3770.9057856107975
  0
LWPOLYLINE
  5
52
330
17
100
AcDbEntity
  8
FP-Window
100
AcDbPolyline
 90
5
 70
0
 10
-1123.173008627864
 20
3512.9057856108193
 10
-1084.1730086278567
 20
3512.9057856107975
 10
-1084.1730086278549
 20
3746.9057856107975
 10
-1084.1730086278549
 20
3758.9057856107975
 10
-1123.1730086278512
 20
3758.9057856107975
  0
LWPOLYLINE
  5
53
330
17
100
AcDbEntity
  8
FP-Furniture
 62
8
100
AcDbPolyline
 90
4
 70
1
 10
-959.1171861782204
 20
3298.663168652347
 10
-959.1171861782423
 20
3268.6631686523615
 10
-1034.117186178224
 20
3268.663168652314
 10
-1034.1171861782386
 20
3298.663168652314
  0
LWPOLYLINE
  5
54
330
17
100
AcDbEntity
  8
FP-Furniture
 62
8
100
AcDbPolyline
 90
4
 70
1
 10
-959.1171861782204
 20
3372.1631686522705
 10
-959.1171861782423
 20
3342.163168652285
 10
-1034.117186178224
 20
3342.163168652238
 10
-1034.1171861782386
 20
3372.163168652238
  0
LWPOLYLINE
  5
55
330
17
100
AcDbEntity
  8
FP-Furniture
 62
8
100
AcDbPolyline
 90
4
 70
1
 10
-959.1171861782204
 20
3415.6631686522087
 10
-959.1171861782423
 20
3445.663168652194
 10
-1034.117186178224
 20
3445.6631686522414
 10
-1034.1171861782386
 20
3415.6631686522414
  0
LWPOLYLINE
  5
56
330
17
100
AcDbEntity
  8
FP-Furniture
 62
8
100
AcDbPolyline
 90
4
 70
1
 10
-959.1171861782204
 20
3854.910958585693
 10
-959.1171861782423
 20
3824.9109585857077
 10
-1034.117186178224
 20
3824.9109585856604
 10
-1034.1171861782386
 20
3854.9109585856604
  0
LWPOLYLINE
  5
57
330
17
100
AcDbEntity
  8
FP-Furniture
 62
8
100
AcDbPolyline
 90
4
 70
1
 10
-959.1171861782204
 20
3928.4109585856168
 10
-959.1171861782423
 20
3898.4109585856313
 10
-1034.117186178224
 20
3898.410958585584
 10
-1034.1171861782386
 20
3928.410958585584
  0
LWPOLYLINE
  5
58
330
17
100
AcDbEntity
  8
FP-Furniture
 62
8
100
AcDbPolyline
 90
4
 70
1
 10
-959.1171861782204
 20
3971.910958585555
 10
-959.1171861782423
 20
4001.9109585855404
 10
-1034.117186178224
 20
4001.9109585855877
 10
-1034.1171861782386
 20
3971.9109585855877
  0
LWPOLYLINE
  5
59
330
17
100
AcDbEntity
  8
FP-Furniture
 62
8
100
AcDbPolyline
 90
4
 70
1
 10
-1029.6396141723453
 20
3298.149951086656
 10
-1029.6396141723453
 20
3269.263729716389
 10
-1033.6396141723417
 20
3269.2637297164
 10
-1033.639614172349
 20
3298.149951086645
  0
LWPOLYLINE
  5
5A
330
17
100
AcDbEntity
  8
FP-Furniture
 62
8
100
AcDbPolyline
 90
4
 70
1
 10
-1029.6396141723453
 20
3371.6499510865797
 10
-1029.6396141723453
 20
3342.763729716313
 10
-1033.6396141723417
 20
3342.7637297163237
 10
-1033.639614172349
 20
3371.6499510865688
  0
LWPOLYLINE
  5
5B
330
17
100
AcDbEntity
  8
FP-Furniture
 62
8
100
AcDbPolyline
 90
4
 70
1
 10
-1029.6396141723453
 20
3416.1763862178996
 10
-1029.6396141723453
 20
3445.0626075881664
 10
-1033.6396141723417
 20
3445.0626075881555
 10
-1033.639614172349
 20
3416.1763862179105
  0
LWPOLYLINE
  5
5C
330
17
100
AcDbEntity
  8
FP-Furniture
 62
8
100
AcDbPolyline
 90
4
 70
1
 10
-1029.6396141723453
 20
3854.3977410200023
 10
-1029.6396141723453
 20
3825.5115196497354
 10
-1033.6396141723417
 20
3825.5115196497463
 10
-1033.639614172349
 20
3854.3977410199914
  0
LWPOLYLINE
  5
5D
330
17
100
AcDbEntity
  8
FP-Furniture
 62
8
100
AcDbPolyline
 90
4
 70
1
 10
-1029.6396141723453
 20
3927.897741019926
 10
-1029.6396141723453
 20
3899.011519649659
 10
-1033.6396141723417
 20
3899.01151964967
 10
-1033.639614172349
 20
3927.897741019915
  0
LWPOLYLINE
  5
5E
330
17
100
AcDbEntity
  8
FP-Furniture
 62
8
100
AcDbPolyline
 90
4
 70
1
 10
-1029.6396141723453
 20
3972.424176151246
 10
-1029.6396141723453
 20
4001.3103975215126
 10
-1033.6396141723417
 20
4001.3103975215017
 10
-1033.639614172349
 20
3972.4241761512567
  0
LWPOLYLINE
  5
5F
330
17
100
AcDbEntity
  8
FP-Furniture
 62
8
100
AcDbPolyline
 90
4
 70
0
 10
-1000.9779767847431
 20
3269.1580050002376
 10
-1028.7082070655888
 20
3269.158005000194
 10
-1028.7082070655888
 20
3273.0605787787135
 10
-1000.9779767847394
 20
3273.06057877875
  0
LWPOLYLINE
  5
60
330
17
100
AcDbEntity
  8
FP-Furniture
 62
8
100
AcDbPolyline
 90
4
 70
0
 10
-1000.9779767847431
 20
3298.255675802873
 10
-1028.7082070655888
 20
3298.2556758028295
 10
-1028.7082070655888
 20
3294.3531020243245
 10
-1000.9779767847504
 20
3294.353102024368
  0
LWPOLYLINE
  5
61
330
17
100
AcDbEntity
  8
FP-Furniture
 62
8
100
AcDbPolyline
 90
4
 70
0
 10
-1000.9779767847431
 20
3342.658005000161
 10
-1028.7082070655888
 20
3342.6580050001176
 10
-1028.7082070655888
 20
3346.560578778637
 10
-1000.9779767847394
 20
3346.5605787786735
  0
LWPOLYLINE
  5
62
330
17
100
AcDbEntity
  8
FP-Furniture
 62
8
100
AcDbPolyline
 90
4
 70
0
 10
-1000.9779767847431
 20
3371.7556758027968
 10
-1028.7082070655888
 20
3371.755675802753
 10
-1028.7082070655888
 20
3367.853102024248
 10
-1000.9779767847504
 20
3367.8531020242917
  0
LWPOLYLINE
  5
63
330
17
100
AcDbEntity
  8
FP-Furniture
 62
8
100
AcDbPolyline
 90
4
 70
0
 10
-1000.9779767847431
 20
3416.0706615016825
 10
-1028.7082070655888
 20
3416.070661501726
 10
-1028.7082070655888
 20
3419.973235280231
 10
-1000.9779767847504
 20
3419.9732352801875
  0
LWPOLYLINE
  5
64
330
17
100
AcDbEntity
  8
FP-Furniture
 62
8
100
AcDbPolyline
 90
4
 70
0
 10
-1000.9779767847431
 20
3445.168332304318
 10
-1028.7082070655888
 20
3445.1683323043617
 10
-1028.7082070655888
 20
3441.265758525842
 10
-1000.9779767847394
 20
3441.2657585258057
  0
LWPOLYLINE
  5
65
330
17
100
AcDbEntity
  8
FP-Furniture
 62
8
100
AcDbPolyline
 90
4
 70
0
 10
-1000.9779767847431
 20
3825.405794933584
 10
-1028.7082070655888
 20
3825.40579493354
 10
-1028.7082070655888
 20
3829.3083687120597
 10
-1000.9779767847394
 20
3829.308368712096
  0
LWPOLYLINE
  5
66
330
17
100
AcDbEntity
  8
FP-Furniture
 62
8
100
AcDbPolyline
 90
4
 70
0
 10
-1000.9779767847431
 20
3854.5034657362194
 10
-1028.7082070655888
 20
3854.5034657361757
 10
-1028.7082070655888
 20
3850.6008919576707
 10
-1000.9779767847504
 20
3850.6008919577143
  0
LWPOLYLINE
  5
67
330
17
100
AcDbEntity
  8
FP-Furniture
 62
8
100
AcDbPolyline
 90
4
 70
0
 10
-1000.9779767847431
 20
3898.9057949335074
 10
-1028.7082070655888
 20
3898.9057949334638
 10
-1028.7082070655888
 20
3902.8083687119833
 10
-1000.9779767847394
 20
3902.8083687120197
  0
LWPOLYLINE
  5
68
330
17
100
AcDbEntity
  8
FP-Furniture
 62
8
100
AcDbPolyline
 90
4
 70
0
 10
-1000.9779767847431
 20
3928.003465736143
 10
-1028.7082070655888
 20
3928.0034657360993
 10
-1028.7082070655888
 20
3924.1008919575943
 10
-1000.9779767847504
 20
3924.100891957638
  0
LWPOLYLINE
  5
69
330
17
100
AcDbEntity
  8
FP-Furniture
 62
8
100
AcDbPolyline
 90
4
 70
0
 10
-1000.9779767847431
 20
3972.3184514350287
 10
-1028.7082070655888
 20
3972.3184514350723
 10
-1028.7082070655888
 20
3976.2210252135774
 10
-1000.9779767847504
 20
3976.2210252135337
  0
LWPOLYLINE
  5
6A
330
17
100
AcDbEntity
  8
FP-Furniture
 62
8
100
AcDbPolyline
 90
4
 70
0
 10
-1000.9779767847431
 20
4001.4161222376642
 10
-1028.7082070655888
 20
4001.416122237708
 10
-1028.7082070655888
 20
3997.5135484591883
 10
-1000.9779767847394
 20
3997.513548459152
  0
LINE
  5
6B
330
17
100
AcDbEntity
  8
FP-Above
 62
8
 48
0.4
100
AcDbLine
 10
-1009.1171861782313
 20
3298.663168652325
 30
0.0
 11
-1009.1171861782313
 21
3268.6631686523287
 31
0.0
  0
LINE
  5
6C
330
17
100
AcDbEntity
  8
FP-Above
 62
8
 48
0.4
100
AcDbLine
 10
-1009.1171861782313
 20
3372.1631686522487
 30
0.0
 11
-1009.1171861782313
 21
3342.1631686522524
 31
0.0
  0
LINE
  5
6D
330
17
100
AcDbEntity
  8
FP-Above
 62
8
 48
0.4
100
AcDbLine
 10
-1009.1171861782313
 20
3415.6631686522305
 30
0.0
 11
-1009.1171861782313
 21
3445.663168652227
 31
0.0
  0
LINE
  5
6E
330
17
100
AcDbEntity
  8
FP-Above
 62
8
 48
0.4
100
AcDbLine
 10
-1009.1171861782313
 20
3854.9109585856713
 30
0.0
 11
-1009.1171861782313
 21
3824.910958585675
 31
0.0
  0
LINE
  5
6F
330
17
100
AcDbEntity
  8
FP-Above
 62
8
 48
0.4
100
AcDbLine
 10
-1009.1171861782313
 20
3928.410958585595
 30
0.0
 11
-1009.1171861782313
 21
3898.4109585855986
 31
0.0
  0
LINE
  5
70
330
17
100
AcDbEntity
  8
FP-Above
 62
8
 48
0.4
100
AcDbLine
 10
-1009.1171861782313
 20
3971.9109585855767
 30
0.0
 11
-1009.1171861782313
 21
4001.910958585573
 31
0.0
  0
LINE
  5
71
330
17
100
AcDbEntity
  8
FP-Furniture
 62
8
100
AcDbLine
 10
-1000.9779767847504
 20
3294.353102024368
 30
0.0
 11
-1000.9779767847431
 21
3298.255675802873
 31
0.0
  0
LINE
  5
72
330
17
100
AcDbEntity
  8
FP-Furniture
 62
8
100
AcDbLine
 10
-1000.9779767847504
 20
3367.8531020242917
 30
0.0
 11
-1000.9779767847431
 21
3371.7556758027968
 31
0.0
  0
LINE
  5
73
330
17
100
AcDbEntity
  8
FP-Furniture
 62
8
100
AcDbLine
 10
-1000.9779767847504
 20
3419.9732352801875
 30
0.0
 11
-1000.9779767847431
 21
3416.0706615016825
 31
0.0
  0
LINE
  5
74
330
17
100
AcDbEntity
  8
FP-Furniture
 62
8
100
AcDbLine
 10
-1000.9779767847504
 20
3850.6008919577143
 30
0.0
 11
-1000.9779767847431
 21
3854.5034657362194
 31
0.0
  0
LINE
  5
75
330
17
100
AcDbEntity
  8
FP-Furniture
 62
8
100
AcDbLine
 10
-1000.9779767847504
 20
3924.100891957638
 30
0.0
 11
-1000.9779767847431
 21
3928.003465736143
 31
0.0
  0
LINE
  5
76
330
17
100
AcDbEntity
  8
FP-Furniture
 62
8
100
AcDbLine
 10
-1000.9779767847504
 20
3976.2210252135337
 30
0.0
 11
-1000.9779767847431
 21
3972.3184514350287
 31
0.0
  0
LINE
  5
77
330
17
100
AcDbEntity
  8
FP-Furniture
 62
8
100
AcDbLine
 10
-1000.9779767847431
 20
3269.1580050002376
 30
0.0
 11
-1000.9779767847394
 21
3273.06057877875
 31
0.0
  0
LINE
  5
78
330
17
100
AcDbEntity
  8
FP-Furniture
 62
8
100
AcDbLine
 10
-1000.9779767847431
 20
3342.658005000161
 30
0.0
 11
-1000.9779767847394
 21
3346.5605787786735
 31
0.0
  0
LINE
  5
79
330
17
100
AcDbEntity
  8
FP-Furniture
 62
8
100
AcDbLine
 10
-1000.9779767847431
 20
3445.168332304318
 30
0.0
 11
-1000.9779767847394
 21
3441.2657585258057
 31
0.0
  0
LINE
  5
7A
330
17
100
AcDbEntity
  8
FP-Furniture
 62
8
100
AcDbLine
 10
-1000.9779767847431
 20
3825.405794933584
 30
0.0
 11
-1000.9779767847394
 21
3829.308368712096
 31
0.0
  0
LINE
  5
7B
330
17
100
AcDbEntity
  8
FP-Furniture
 62
8
100
AcDbLine
 10
-1000.9779767847431
 20
3898.9057949335074
 30
0.0
 11
-1000.9779767847394
 21
3902.8083687120197
 31
0.0
  0
LINE
  5
7C
330
17
100
AcDbEntity
  8
FP-Furniture
 62
8
100
AcDbLine
 10
-1000.9779767847431
 20
4001.4161222376642
 30
0.0
 11
-1000.9779767847394
 21
3997.513548459152
 31
0.0
  0
LINE
  5
7D
330
17
100
AcDbEntity
  8
FP-Above
 62
8
 48
0.4
100
AcDbLine
 10
-984.1171861782313
 20
3298.6631686523397
 30
0.0
 11
-984.1171861782313
 21
3268.6631686523397
 31
0.0
  0
LINE
  5
7E
330
17
100
AcDbEntity
  8
FP-Above
 62
8
 48
0.4
100
AcDbLine
 10
-984.1171861782313
 20
3372.1631686522633
 30
0.0
 11
-984.1171861782313
 21
3342.163168652267
 31
0.0
  0
LINE
  5
7F
330
17
100
AcDbEntity
  8
FP-Above
 62
8
 48
0.4
100
AcDbLine
 10
-984.1171861782313
 20
3415.663168652216
 30
0.0
 11
-984.1171861782313
 21
3445.663168652216
 31
0.0
  0
LINE
  5
80
330
17
100
AcDbEntity
  8
FP-Above
 62
8
 48
0.4
100
AcDbLine
 10
-984.1171861782313
 20
3854.910958585686
 30
0.0
 11
-984.1171861782313
 21
3824.910958585686
 31
0.0
  0
LINE
  5
81
330
17
100
AcDbEntity
  8
FP-Above
 62
8
 48
0.4
100
AcDbLine
 10
-984.1171861782313
 20
3928.4109585856095
 30
0.0
 11
-984.1171861782313
 21
3898.410958585613
 31
0.0
  0
LINE
  5
82
330
17
100
AcDbEntity
  8
FP-Above
 62
8
 48
0.4
100
AcDbLine
 10
-984.1171861782313
 20
3971.910958585562
 30
0.0
 11
-984.1171861782313
 21
4001.910958585562
 31
0.0
  0
LWPOLYLINE
  5
83
330
17
100
AcDbEntity
  8
FP-Stair
100
AcDbPolyline
 90
4
 70
1
 10
-892.1730086278549
 20
3935.905785610794
 10
-652.1730086278549
 20
3935.905785610794
 10
-652.1730086278549
 20
3335.905785610794
 10
-892.1730086278549
 20
3335.905785610794
  0
LINE
  5
84
330
17
100
AcDbEntity
  8
FP-Stair
100
AcDbLine
 10
-384.17300862785487
 20
3464.9060083572076
 30
0.0
 11
-484.17300862785487
 21
3464.9060083572076
 31
0.0
  0
LINE
  5
85
330
17
100
AcDbEntity
  8
FP-Stair
100
AcDbLine
 10
-484.17300862785487
 20
3472.9060083572076
 30
0.0
 11
-484.17300862785487
 21
3464.9060083572076
 31
0.0
  0
LINE
  5
86
330
17
100
AcDbEntity
  8
FP-Stair
100
AcDbLine
 10
-484.17300862785487
 20
3522.9060083572076
 30
0.0
 11
-484.17300862785487
 21
3472.9060083572076
 31
0.0
  0
LINE
  5
87
330
17
100
AcDbEntity
  8
FP-Stair
100
AcDbLine
 10
-434.17300862785487
 20
3472.9060083572076
 30
0.0
 11
-484.17300862785487
 21
3472.9060083572076
 31
0.0
  0
LINE
  5
88
330
17
100
AcDbEntity
  8
FP-Stair
100
AcDbLine
 10
-434.17300862785487
 20
3522.9060083572076
 30
0.0
 11
-484.17300862785487
 21
3522.9060083572076
 31
0.0
  0
LWPOLYLINE
  5
89
330
17
100
AcDbEntity
  8
FP-Stair
100
AcDbPolyline
 90
4
 70
1
 10
-484.17300862785487
 20
3522.9060083572076
 10
-484.17300862785487
 20
3748.90556286438
 10
-444.17300862785487
 20
3748.90556286438
 10
-444.17300862785487
 20
3522.9060083572076
  0
LINE
  5
8A
330
17
100
AcDbEntity
  8
FP-Stair
100
AcDbLine
 10
-434.17300862785487
 20
3748.90556286438
 30
0.0
 11
-484.17300862785487
 21
3748.90556286438
 31
0.0
  0
LINE
  5
8B
330
17
100
AcDbEntity
  8
FP-Stair
100
AcDbLine
 10
-484.17300862785487
 20
3748.90556286438
 30
0.0
 11
-484.17300862785487
 21
3798.90556286438
 31
0.0
  0
LINE
  5
8C
330
17
100
AcDbEntity
  8
FP-Stair
100
AcDbLine
 10
-434.17300862785487
 20
3798.90556286438
 30
0.0
 11
-484.17300862785487
 21
3798.90556286438
 31
0.0
  0
LINE
  5
8D
330
17
100
AcDbEntity
  8
FP-Stair
100
AcDbLine
 10
-484.17300862785487
 20
3798.90556286438
 30
0.0
 11
-484.17300862785487
 21
3806.90556286438
 31
0.0
  0
LINE
  5
8E
330
17
100
AcDbEntity
  8
FP-Stair
100
AcDbLine
 10
-384.17300862785487
 20
3806.90556286438
 30
0.0
 11
-484.17300862785487
 21
3806.90556286438
 31
0.0
  0
LINE
  5
8F
330
17
100
AcDbEntity
  8
FP-Stair
100
AcDbLine
 10
-484.1730086278476
 20
3474.100661340817
 30
0.0
 11
-434.17300862785487
 21
3474.100661340821
 31
0.0
  0
LINE
  5
90
330
17
100
AcDbEntity
  8
FP-Stair
100
AcDbLine
 10
-434.17300862785487
 20
3475.100661340821
 30
0.0
 11
-484.1730086278476
 21
3475.100661340821
 31
0.0
  0
LINE
  5
91
330
17
100
AcDbEntity
  8
FP-Stair
100
AcDbLine
 10
-434.17300862785487
 20
3796.710790280875
 30
0.0
 11
-484.1730086278476
 21
3796.710790280875
 31
0.0
  0
LINE
  5
92
330
17
100
AcDbEntity
  8
FP-Stair
100
AcDbLine
 10
-484.1730086278476
 20
3797.7107902808784
 30
0.0
 11
-434.17300862785487
 21
3797.710790280875
 31
0.0
  0
LWPOLYLINE
  5
93
330
17
100
AcDbEntity
  8
FP-Stair
100
AcDbPolyline
 90
4
 70
1
 10
-476.17300862785487
 20
3530.9060083572076
 10
-476.17300862785487
 20
3740.90556286438
 10
-452.17300862785487
 20
3740.90556286438
 10
-452.17300862785487
 20
3530.9060083572076
  0
LINE
  5
94
330
17
100
AcDbEntity
  8
FP-Stair
100
AcDbLine
 10
-474.17300862785487
 20
3522.9060083572076
 30
0.0
 11
-474.17300862785487
 21
3472.9060083572076
 31
0.0
  0
LINE
  5
95
330
17
100
AcDbEntity
  8
FP-Stair
100
AcDbLine
 10
-474.17300862785487
 20
3748.90556286438
 30
0.0
 11
-474.17300862785487
 21
3798.90556286438
 31
0.0
  0
LINE
  5
96
330
17
100
AcDbEntity
  8
FP-Stair
100
AcDbLine
 10
-464.17300862785487
 20
3522.9060083572076
 30
0.0
 11
-464.17300862785487
 21
3472.9060083572076
 31
0.0
  0
LINE
  5
97
330
17
100
AcDbEntity
  8
FP-Stair
100
AcDbLine
 10
-464.17300862785487
 20
3748.90556286438
 30
0.0
 11
-464.17300862785487
 21
3798.90556286438
 31
0.0
  0
LINE
  5
98
330
17
100
AcDbEntity
  8
FP-Stair
100
AcDbLine
 10
-454.17300862785487
 20
3522.9060083572076
 30
0.0
 11
-454.17300862785487
 21
3472.9060083572076
 31
0.0
  0
LINE
  5
99
330
17
100
AcDbEntity
  8
FP-Stair
100
AcDbLine
 10
-454.17300862785487
 20
3748.90556286438
 30
0.0
 11
-454.17300862785487
 21
3798.90556286438
 31
0.0
  0
LINE
  5
9A
330
17
100
AcDbEntity
  8
FP-Stair
100
AcDbLine
 10
-444.17300862785487
 20
3522.9060083572076
 30
0.0
 11
-444.17300862785487
 21
3472.9060083572076
 31
0.0
  0
LINE
  5
9B
330
17
100
AcDbEntity
  8
FP-Proposed Wall
100
AcDbLine
 10
-444.17300862785487
 20
3542.9060083572076
 30
0.0
 11
-444.17300862785487
 21
3522.9060083572076
 31
0.0
  0
LINE
  5
9C
330
17
100
AcDbEntity
  8
FP-Stair
100
AcDbLine
 10
-384.17300862785487
 20
3542.9060083572076
 30
0.0
 11
-444.17300862785487
 21
3542.9060083572076
 31
0.0
  0
LINE
  5
9D
330
17
100
AcDbEntity
  8
FP-Stair
100
AcDbLine
 10
-384.17300862785487
 20
3728.90556286438
 30
0.0
 11
-444.17300862785487
 21
3728.90556286438
 31
0.0
  0
LINE
  5
9E
330
17
100
AcDbEntity
  8
FP-Proposed Wall
100
AcDbLine
 10
-444.17300862785487
 20
3728.90556286438
 30
0.0
 11
-444.17300862785487
 21
3748.90556286438
 31
0.0
  0
LINE
  5
9F
330
17
100
AcDbEntity
  8
FP-Stair
100
AcDbLine
 10
-444.17300862785487
 20
3748.90556286438
 30
0.0
 11
-444.17300862785487
 21
3798.90556286438
 31
0.0
  0
LWPOLYLINE
  5
A0
330
17
100
AcDbEntity
  8
FP-Stair
100
AcDbPolyline
 90
4
 70
1
 10
-384.17300862785487
 20
3472.9060083572076
 10
-384.17300862785487
 20
3522.9060083572076
 10
-434.17300862785487
 20
3522.9060083572076
 10
-434.17300862785487
 20
3472.9060083572076
  0
LINE
  5
A1
330
17
100
AcDbEntity
  8
FP-Stair
100
AcDbLine
 10
-434.17300862785487
 20
3522.9060083572076
 30
0.0
 11
-434.17300862785487
 21
3532.9060083572076
 31
0.0
  0
LINE
  5
A2
330
17
100
AcDbEntity
  8
FP-Stair
100
AcDbLine
 10
-384.17300862785487
 20
3532.9060083572076
 30
0.0
 11
-434.17300862785487
 21
3532.9060083572076
 31
0.0
  0
LINE
  5
A3
330
17
100
AcDbEntity
  8
FP-Stair
100
AcDbLine
 10
-384.17300862785487
 20
3738.90556286438
 30
0.0
 11
-434.17300862785487
 21
3738.90556286438
 31
0.0
  0
LINE
  5
A4
330
17
100
AcDbEntity
  8
FP-Stair
100
AcDbLine
 10
-434.17300862785487
 20
3748.90556286438
 30
0.0
 11
-434.17300862785487
 21
3738.90556286438
 31
0.0
  0
LWPOLYLINE
  5
A5
330
17
100
AcDbEntity
  8
FP-Stair
100
AcDbPolyline
 90
4
 70
1
 10
-384.17300862785487
 20
3798.90556286438
 10
-384.17300862785487
 20
3748.90556286438
 10
-434.17300862785487
 20
3748.90556286438
 10
-434.17300862785487
 20
3798.90556286438
  0
LWPOLYLINE
  5
A6
330
17
100
AcDbEntity
  8
FP-Stair
100
AcDbPolyline
 90
4
 70
0
 38
-0.6806063531139644
 10
-410.17300862782577
 20
3214.4043848424553
 10
-420.17300862782577
 20
3214.4043848424553
 10
-420.17300862783304
 20
3442.3279027175413
 10
-400.17300862785487
 20
3442.3279027175413
  0
LWPOLYLINE
  5
A7
330
17
100
AcDbEntity
  8
FP-Stair
100
AcDbPolyline
 90
4
 70
0
 38
-0.6806063531139644
 10
-410.17300862783304
 20
4057.4062190424593
 10
-420.17300862783304
 20
4057.4062190424593
 10
-420.1730086278294
 20
3829.406688657451
 10
-400.1730086278476
 20
3829.406688657451
  0
LWPOLYLINE
  5
A8
330
17
100
AcDbEntity
  8
FP-Stair
100
AcDbPolyline
 90
4
 70
0
 38
-0.3403031765569822
 10
-400.1730086278294
 20
3214.4043848424553
 10
-410.1730086278294
 20
3214.4043848424553
 10
-410.1730086278367
 20
3442.4039152274636
 10
-400.1730086278585
 20
3442.4039152274636
  0
LWPOLYLINE
  5
A9
330
17
100
AcDbEntity
  8
FP-Stair
100
AcDbPolyline
 90
4
 70
0
 38
-0.3403031765569822
 10
-400.1730086278367
 20
4057.4062190424593
 10
-410.1730086278367
 20
4057.4062190424593
 10
-410.17300862783304
 20
3829.3306761475287
 10
-400.17300862785487
 20
3829.3306761475287
  0
LWPOLYLINE
  5
AA
330
17
100
AcDbEntity
  8
FP-Stair
100
AcDbPolyline
 90
4
 70
0
 38
-0.3403031765569822
 10
-296.17300862783304
 20
3214.4043848424553
 10
-400.17300862783304
 20
3214.4043848424553
 10
-400.17300862785487
 20
3442.4039152274636
 10
-384.17300862785487
 20
3442.4039152274636
  0
LWPOLYLINE
  5
AB
330
17
100
AcDbEntity
  8
FP-Proposed Wall
100
AcDbPolyline
 90
4
 70
1
 10
-384.17300862785487
 20
3426.4039152274636
 10
-384.17300862785487
 20
3442.4039152274636
 10
-400.17300862785487
 20
3442.4039152274636
 10
-400.17300862785487
 20
3426.4039152274636
  0
LWPOLYLINE
  5
AC
330
17
100
AcDbEntity
  8
FP-Stair
100
AcDbPolyline
 90
4
 70
0
 38
-0.3403031765569822
 10
-384.17300862785487
 20
3829.407536394232
 10
-400.17300862783304
 20
3829.406688657451
 10
-400.17300862785487
 20
4057.4062190424593
 10
-296.17300862783304
 20
4057.4062190424593
  0
LWPOLYLINE
  5
AD
330
17
100
AcDbEntity
  8
FP-Proposed Wall
100
AcDbPolyline
 90
4
 70
1
 10
-384.17300862785487
 20
4041.4062190424593
 10
-384.17300862785487
 20
4057.4062190424593
 10
-400.17300862785487
 20
4057.4062190424593
 10
-400.17300862785487
 20
4041.4062190424593
  0
LWPOLYLINE
  5
AE
330
17
100
AcDbEntity
  8
FP-Proposed Wall
100
AcDbPolyline
 90
4
 70
1
 10
-384.17300862783304
 20
3214.4043848424553
 10
-384.17300862783304
 20
3230.4043848424553
 10
-400.17300862783304
 20
3230.4043848424553
 10
-400.17300862783304
 20
3214.4043848424553
  0
LWPOLYLINE
  5
AF
330
17
100
AcDbEntity
  8
FP-Proposed Wall
100
AcDbPolyline
 90
4
 70
1
 10
-384.17300862783304
 20
3829.406688657451
 10
-384.17300862783304
 20
3845.406688657451
 10
-400.17300862783304
 20
3845.406688657451
 10
-400.17300862783304
 20
3829.406688657451
  0
LWPOLYLINE
  5
B0
330
17
100
AcDbEntity
  8
FP-Wall Detail
100
AcDbPolyline
 90
4
 70
1
 10
-387.67300862785487
 20
3429.9039152274636
 10
-387.67300862785487
 20
3438.9039152274636
 10
-396.67300862785487
 20
3438.9039152274636
 10
-396.67300862785487
 20
3429.9039152274636
  0
LWPOLYLINE
  5
B1
330
17
100
AcDbEntity
  8
FP-Wall Detail
100
AcDbPolyline
 90
4
 70
1
 10
-387.67300862785487
 20
4044.9062190424593
 10
-387.67300862785487
 20
4053.9062190424593
 10
-396.67300862785487
 20
4053.9062190424593
 10
-396.67300862785487
 20
4044.9062190424593
  0
LWPOLYLINE
  5
B2
330
17
100
AcDbEntity
  8
FP-Wall Detail
100
AcDbPolyline
 90
4
 70
1
 10
-387.67300862783304
 20
3217.9043848424553
 10
-387.67300862783304
 20
3226.9043848424553
 10
-396.67300862783304
 20
3226.9043848424553
 10
-396.67300862783304
 20
3217.9043848424553
  0
LWPOLYLINE
  5
B3
330
17
100
AcDbEntity
  8
FP-Wall Detail
100
AcDbPolyline
 90
4
 70
1
 10
-387.67300862783304
 20
3832.906688657451
 10
-387.67300862783304
 20
3841.906688657451
 10
-396.67300862783304
 20
3841.906688657451
 10
-396.67300862783304
 20
3832.906688657451
  0
LWPOLYLINE
  5
B4
330
17
100
AcDbEntity
  8
FP-Wall Detail
100
AcDbPolyline
 90
4
 70
1
 10
-388.17300862785487
 20
3430.4039152274636
 10
-388.17300862785487
 20
3438.4039152274636
 10
-396.17300862785487
 20
3438.4039152274636
 10
-396.17300862785487
 20
3430.4039152274636
  0
LWPOLYLINE
  5
B5
330
17
100
AcDbEntity
  8
FP-Wall Detail
100
AcDbPolyline
 90
4
 70
1
 10
-388.17300862785487
 20
4045.4062190424593
 10
-388.17300862785487
 20
4053.4062190424593
 10
-396.17300862785487
 20
4053.4062190424593
 10
-396.17300862785487
 20
4045.4062190424593
  0
LWPOLYLINE
  5
B6
330
17
100
AcDbEntity
  8
FP-Wall Detail
100
AcDbPolyline
 90
4
 70
1
 10
-388.17300862783304
 20
3218.4043848424553
 10
-388.17300862783304
 20
3226.4043848424553
 10
-396.17300862783304
 20
3226.4043848424553
 10
-396.17300862783304
 20
3218.4043848424553
  0
LWPOLYLINE
  5
B7
330
17
100
AcDbEntity
  8
FP-Wall Detail
100
AcDbPolyline
 90
4
 70
1
 10
-388.17300862783304
 20
3833.406688657451
 10
-388.17300862783304
 20
3841.406688657451
 10
-396.17300862783304
 20
3841.406688657451
 10
-396.17300862783304
 20
3833.406688657451
  0
LWPOLYLINE
  5
B8
330
17
100
AcDbEntity
  8
FP-Wall Detail
100
AcDbPolyline
 90
4
 70
1
 10
-388.67300862785487
 20
3430.9039152274636
 10
-388.67300862785487
 20
3437.9039152274636
 10
-395.67300862785487
 20
3437.9039152274636
 10
-395.67300862785487
 20
3430.9039152274636
  0
LWPOLYLINE
  5
B9
330
17
100
AcDbEntity
  8
FP-Wall Detail
100
AcDbPolyline
 90
4
 70
1
 10
-388.67300862785487
 20
4045.9062190424593
 10
-388.67300862785487
 20
4052.9062190424593
 10
-395.67300862785487
 20
4052.9062190424593
 10
-395.67300862785487
 20
4045.9062190424593
  0
LWPOLYLINE
  5
BA
330
17
100
AcDbEntity
  8
FP-Wall Detail
100
AcDbPolyline
 90
4
 70
1
 10
-388.67300862783304
 20
3218.9043848424553
 10
-388.67300862783304
 20
3225.9043848424553
 10
-395.67300862783304
 20
3225.9043848424553
 10
-395.67300862783304
 20
3218.9043848424553
  0
LWPOLYLINE
  5
BB
330
17
100
AcDbEntity
  8
FP-Wall Detail
100
AcDbPolyline
 90
4
 70
1
 10
-388.67300862783304
 20
3833.906688657451
 10
-388.67300862783304
 20
3840.906688657451
 10
-395.67300862783304
 20
3840.906688657451
 10
-395.67300862783304
 20
3833.906688657451
  0
LINE
  5
BC
330
17
100
AcDbEntity
  8
FP-Stair
100
AcDbLine
 10
-384.17300862785487
 20
3434.4039152274636
 30
0.0
 11
-296.17300862783304
 21
3434.4039152274636
 31
0.0
  0
LINE
  5
BD
330
17
100
AcDbEntity
  8
FP-Stair
100
AcDbLine
 10
-384.17300862785487
 20
3442.4039152274636
 30
0.0
 11
-384.17300862785487
 21
3464.9060083572076
 31
0.0
  0
LINE
  5
BE
330
17
100
AcDbEntity
  8
FP-Stair
100
AcDbLine
 10
-384.17300862785487
 20
3522.9060083572076
 30
0.0
 11
-384.17300862785487
 21
3572.9060083572076
 31
0.0
  0
LINE
  5
BF
330
17
100
AcDbEntity
  8
FP-Stair
100
AcDbLine
 10
-384.17300862785487
 20
3572.9060083572076
 30
0.0
 11
-345.6709154981072
 21
3572.9060083572076
 31
0.0
  0
LINE
  5
C0
330
17
100
AcDbEntity
  8
FP-Stair
100
AcDbLine
 10
-384.17300862785487
 20
3572.9060083572076
 30
0.0
 11
-384.17300862785487
 21
3698.905443264488
 31
0.0
  0
LINE
  5
C1
330
17
100
AcDbEntity
  8
FP-Stair
100
AcDbLine
 10
-384.17300862785487
 20
3574.100661340817
 30
0.0
 11
-344.17300862785487
 21
3574.100661340821
 31
0.0
  0
LINE
  5
C2
330
17
100
AcDbEntity
  8
FP-Stair
100
AcDbLine
 10
-344.17300862785487
 20
3575.100661340821
 30
0.0
 11
-384.17300862785487
 21
3575.100661340821
 31
0.0
  0
LINE
  5
C3
330
17
100
AcDbEntity
  8
FP-Stair
100
AcDbLine
 10
-344.17300862785487
 20
3696.710790280875
 30
0.0
 11
-384.17300862785487
 21
3696.710790280875
 31
0.0
  0
LINE
  5
C4
330
17
100
AcDbEntity
  8
FP-Stair
100
AcDbLine
 10
-384.17300862785487
 20
3697.7107902808784
 30
0.0
 11
-344.17300862785487
 21
3697.710790280875
 31
0.0
  0
LINE
  5
C5
330
17
100
AcDbEntity
  8
FP-Stair
100
AcDbLine
 10
-384.17300862785487
 20
3748.90556286438
 30
0.0
 11
-384.17300862785487
 21
3698.905443264488
 31
0.0
  0
LINE
  5
C6
330
17
100
AcDbEntity
  8
FP-Stair
100
AcDbLine
 10
-384.17300862785487
 20
3698.905443264488
 30
0.0
 11
-345.6709154981072
 21
3698.905443264488
 31
0.0
  0
LINE
  5
C7
330
17
100
AcDbEntity
  8
FP-Stair
100
AcDbLine
 10
-384.17300862785487
 20
3829.407536394232
 30
0.0
 11
-384.17300862785487
 21
3806.90556286438
 31
0.0
  0
LINE
  5
C8
330
17
100
AcDbEntity
  8
FP-Stair
100
AcDbLine
 10
-384.17300862785487
 20
3837.407536394232
 30
0.0
 11
-296.17300862783304
 21
3837.407536394232
 31
0.0
  0
LINE
  5
C9
330
17
100
AcDbEntity
  8
FP-Stair
100
AcDbLine
 10
-376.17300862785487
 20
3442.4039152274636
 30
0.0
 11
-376.17300862785487
 21
3464.9060083572076
 31
0.0
  0
LINE
  5
CA
330
17
100
AcDbEntity
  8
FP-Stair
100
AcDbLine
 10
-376.17300862785487
 20
3442.4039152274636
 30
0.0
 11
-296.17300862783304
 21
3442.4039152274636
 31
0.0
  0
LINE
  5
CB
330
17
100
AcDbEntity
  8
FP-Stair
100
AcDbLine
 10
-376.17300862785487
 20
3464.9060083572076
 30
0.0
 11
-280.17300862783304
 21
3464.9060083572076
 31
0.0
  0
LWPOLYLINE
  5
CC
330
17
100
AcDbEntity
  8
FP-Stair
100
AcDbPolyline
 90
4
 70
1
 10
-376.17300862785487
 20
3476.9060083572076
 10
-376.17300862785487
 20
3564.9060083572076
 10
-353.6709154981072
 20
3564.9060083572076
 10
-353.6709154981072
 20
3476.9060083572076
  0
LWPOLYLINE
  5
CD
330
17
100
AcDbEntity
  8
FP-Stair
100
AcDbPolyline
 90
4
 70
1
 10
-376.17300862785487
 20
3794.905443264488
 10
-376.17300862785487
 20
3706.905443264488
 10
-353.6709154981072
 20
3706.905443264488
 10
-353.6709154981072
 20
3794.905443264488
  0
LINE
  5
CE
330
17
100
AcDbEntity
  8
FP-Stair
100
AcDbLine
 10
-376.17300862785487
 20
3829.4075363942284
 30
0.0
 11
-376.17300862785487
 21
3806.905443264488
 31
0.0
  0
LINE
  5
CF
330
17
100
AcDbEntity
  8
FP-Stair
100
AcDbLine
 10
-376.17300862785487
 20
3806.905443264488
 30
0.0
 11
-280.17300862783304
 21
3806.905443264488
 31
0.0
  0
LINE
  5
D0
330
17
100
AcDbEntity
  8
FP-Stair
100
AcDbLine
 10
-376.17300862785487
 20
3829.4075363942284
 30
0.0
 11
-296.17300862783304
 21
3829.407536394232
 31
0.0
  0
LINE
  5
D1
330
17
100
AcDbEntity
  8
FP-Stair
100
AcDbLine
 10
-374.17300862785487
 20
3572.9060083572076
 30
0.0
 11
-374.17300862785487
 21
3698.905443264488
 31
0.0
  0
LINE
  5
D2
330
17
100
AcDbEntity
  8
FP-Stair
100
AcDbLine
 10
-364.17300862785487
 20
3572.9060083572076
 30
0.0
 11
-364.17300862785487
 21
3698.905443264488
 31
0.0
  0
LINE
  5
D3
330
17
100
AcDbEntity
  8
FP-Stair
100
AcDbLine
 10
-354.17300862785487
 20
3572.9060083572076
 30
0.0
 11
-354.17300862785487
 21
3698.905443264488
 31
0.0
  0
LINE
  5
D4
330
17
100
AcDbEntity
  8
FP-Stair
100
AcDbLine
 10
-345.6709154981072
 20
3572.9060083572076
 30
0.0
 11
-345.6709154981072
 21
3472.9060083572076
 31
0.0
  0
LINE
  5
D5
330
17
100
AcDbEntity
  8
FP-Stair
100
AcDbLine
 10
-345.6709154981072
 20
3472.9060083572076
 30
0.0
 11
-280.17300862783304
 21
3472.9060083572076
 31
0.0
  0
LINE
  5
D6
330
17
100
AcDbEntity
  8
FP-Stair
100
AcDbLine
 10
-334.17300862785487
 20
3562.9060083572076
 30
0.0
 11
-345.6709154981072
 21
3562.9060083572076
 31
0.0
  0
LINE
  5
D7
330
17
100
AcDbEntity
  8
FP-Stair
100
AcDbLine
 10
-344.17300862785487
 20
3572.9060083572076
 30
0.0
 11
-345.6709154981072
 21
3572.9060083572076
 31
0.0
  0
LINE
  5
D8
330
17
100
AcDbEntity
  8
FP-Stair
100
AcDbLine
 10
-345.6709154981072
 20
3698.905443264488
 30
0.0
 11
-345.6709154981072
 21
3798.905443264488
 31
0.0
  0
LINE
  5
D9
330
17
100
AcDbEntity
  8
FP-Stair
100
AcDbLine
 10
-344.17300862785487
 20
3698.905443264488
 30
0.0
 11
-345.6709154981072
 21
3698.905443264488
 31
0.0
  0
LINE
  5
DA
330
17
100
AcDbEntity
  8
FP-Stair
100
AcDbLine
 10
-334.17300862785487
 20
3708.905443264488
 30
0.0
 11
-345.6709154981072
 21
3708.905443264488
 31
0.0
  0
LINE
  5
DB
330
17
100
AcDbEntity
  8
FP-Stair
100
AcDbLine
 10
-280.17300862783304
 20
3798.905443264488
 30
0.0
 11
-345.6709154981072
 21
3798.9051173717235
 31
0.0
  0
LINE
  5
DC
330
17
100
AcDbEntity
  8
FP-Stair
100
AcDbLine
 10
-344.17300862785487
 20
3572.9060083572076
 30
0.0
 11
-344.17300862785487
 21
3698.905443264488
 31
0.0
  0
LINE
  5
DD
330
17
100
AcDbEntity
  8
FP-Stair
100
AcDbLine
 10
-334.17300862785487
 20
3572.9060083572076
 30
0.0
 11
-334.17300862785487
 21
3562.9060083572076
 31
0.0
  0
LINE
  5
DE
330
17
100
AcDbEntity
  8
FP-Stair
100
AcDbLine
 10
-334.17300862785487
 20
3572.9060083572076
 30
0.0
 11
-334.17300862785487
 21
3698.905443264488
 31
0.0
  0
LINE
  5
DF
330
17
100
AcDbEntity
  8
FP-Stair
100
AcDbLine
 10
-334.17300862785487
 20
3698.905443264488
 30
0.0
 11
-334.17300862785487
 21
3708.905443264488
 31
0.0
  0
LWPOLYLINE
  5
E0
330
17
100
AcDbEntity
  8
FP-Proposed Wall
100
AcDbPolyline
 90
109
 70
1
 10
650.6602653221635
 20
3685.9080508560655
 10
650.6602653221635
 20
3687.9080508560655
 10
652.6602653218943
 20
3687.9080508560655
 10
652.6602653218943
 20
3693.9080508560655
 10
660.6602653218943
 20
3693.9080508560655
 10
660.6602653218943
 20
3701.9080508561674
 10
666.6602653218943
 20
3701.9080508561674
 10
666.6602653218943
 20
3703.908050855898
 10
667.6602653218943
 20
3703.908050855898
 10
668.6602653218943
 20
3703.908050855898
 10
668.6602653218943
 20
3727.3053431993467
 10
666.6602653218943
 20
3727.3053431993467
 10
666.6602653218943
 20
3729.3053431990775
 10
660.6602653218943
 20
3729.3053431990775
 10
660.6602653218943
 20
3737.3057887001123
 10
579.1601762233404
 20
3737.3057887002506
 10
579.1601762233404
 20
3812.9033354007406
 10
536.1603294633569
 20
3812.903335400748
 10
536.1603294623201
 20
3880.9006650303636
 10
548.1603294623201
 20
3880.8997741795683
 10
581.105760318118
 20
3913.8452050353662
 10
581.105760318118
 20
3972.958794258295
 10
548.1603294623201
 20
4005.9033342632974
 10
536.1603294633569
 20
4005.9033342632974
 10
536.1603294633569
 20
4073.903335400755
 10
603.6601762233477
 20
4073.903335400755
 10
603.660176223344
 20
4122.635581313567
 10
621.6601762233477
 20
4122.635581313611
 10
621.6601762233477
 20
4287.171980338724
 10
603.6601762233477
 20
4287.171980338724
 10
603.6601762233477
 20
4335.903335400755
 10
187.57713985192095
 20
4335.903335400748
 10
187.57713985192095
 20
4363.99935732023
 10
30.160176223344024
 20
4363.99935732023
 10
30.160176223344024
 20
4273.999357320223
 10
-72.42217613066714
 20
4273.999357320223
 10
-72.42217619010808
 20
4087.9024443489106
 10
-280.17300862783486
 20
4087.9024444152674
 10
-280.1730086278312
 20
4057.4068113520843
 10
-296.1730086278312
 20
4057.4062190424665
 10
-296.1730086278312
 20
4041.4062190424665
 10
-280.1730086278312
 20
4041.4062190424665
 10
-280.1730086278312
 20
3845.4066886574583
 10
-296.1730086278312
 20
3845.406688657451
 10
-296.1730086278312
 20
3829.407536394232
 10
-280.1730086278858
 20
3829.4066886574437
 10
-280.17300862783486
 20
3798.9051173710322
 10
-241.42300862839147
 20
3798.9051173710322
 10
-241.4230086283933
 20
3472.9061713035917
 10
-280.1730086278403
 20
3472.9061713035917
 10
-280.17300862783304
 20
3442.4039152274636
 10
-296.17300862783304
 20
3442.4039152274636
 10
-296.17300862783304
 20
3426.4039152274636
 10
-280.1730086278385
 20
3426.4039152274636
 10
-280.1730086278367
 20
3230.4043848424553
 10
-296.17300862783304
 20
3230.4043848424553
 10
-296.17300862783304
 20
3214.4043848424553
 10
-280.1730086278385
 20
3214.4043848424553
 10
-280.1730086278367
 20
3183.9068993426918
 10
-201.24769816478147
 20
3183.9068993426918
 10
-201.24769816478147
 20
3171.906899316149
 10
-105.24769816478147
 20
3171.906899316149
 10
-105.24769816205662
 20
3183.906899316149
 10
-72.42211837690411
 20
3183.906899316149
 10
-72.42211837690411
 20
2997.906008357204
 10
30.160176223340386
 20
2997.906008357204
 10
30.160176223340386
 20
2907.809986437729
 10
187.57713985192095
 20
2907.809986437729
 10
187.57713985192095
 20
2935.906008357204
 10
603.660176223344
 20
2935.906008357204
 10
603.660176223344
 20
2984.6373634192278
 10
621.660176223344
 20
2984.6364725684325
 10
621.660176223344
 20
3149.17465329518
 10
603.660176223344
 20
3149.17465329518
 10
603.660176223344
 20
3197.906008357204
 10
536.1603294633569
 20
3197.906008357204
 10
536.1603294633569
 20
3265.9060094946617
 10
548.1603294623201
 20
3265.9060094946617
 10
581.105760318118
 20
3298.8514403504596
 10
581.105760318118
 20
3357.964138722593
 10
548.1603294623201
 20
3390.9095695783326
 10
536.1603294633569
 20
3390.909570146803
 10
536.1603294633569
 20
3458.9060083572112
 10
579.160176223344
 20
3458.9060083572112
 10
579.1605894618406
 20
3534.504000556488
 10
660.6602653218943
 20
3534.5035550578395
 10
660.6603090544304
 20
3542.5040005588817
 10
666.6602653218943
 20
3542.5039677615423
 10
666.6602653218943
 20
3544.5040005586125
 10
668.6602653218943
 20
3544.5040005586125
 10
668.6602653218943
 20
3567.9012929020537
 10
666.6602653218943
 20
3567.9012929020537
 10
666.6602653218943
 20
3569.9012929017845
 10
660.6602653218943
 20
3569.9012929017845
 10
660.6602653218943
 20
3577.9012929018936
 10
652.6602653218943
 20
3577.9012929018936
 10
652.6602653218943
 20
3583.9012929018936
 10
650.6602653221635
 20
3583.9012929018936
 10
650.6602653221635
 20
3585.9012929018936
 10
627.2629729787186
 20
3585.9012929018936
 10
627.2629729787186
 20
3583.9012929018936
 10
625.2629729789878
 20
3583.9012929018936
 10
625.2629729789878
 20
3565.9012929018936
 10
556.6603294633605
 20
3565.9012929018863
 10
556.6603294633605
 20
3705.9080508560655
 10
625.2629729789878
 20
3705.9080508560655
 10
625.2629729789878
 20
3687.9080508560655
 10
627.2629729787186
 20
3687.9080508560655
 10
627.2629729787186
 20
3685.9080508560655
  0
LWPOLYLINE
  5
E1
330
17
100
AcDbEntity
  8
FP-Window
100
AcDbPolyline
 90
6
 70
0
 10
1033.7561981428225
 20
4719.903335400755
 10
603.6601762233477
 20
4719.9033354007515
 10
187.5771398519264
 20
4719.903335400748
 10
187.5771398519264
 20
4483.999357320223
 10
30.160176223347662
 20
4483.999357320223
 10
30.160176223347662
 20
4363.999357320223
  0
LWPOLYLINE
  5
E2
330
17
100
AcDbEntity
  8
FP-Window
100
AcDbPolyline
 90
6
 70
0
 10
30.16017622334948
 20
2907.8099864377255
 10
30.16017622334948
 20
2787.8099864377255
 10
187.57713985193004
 20
2787.8099864377255
 10
187.57713985193186
 20
2551.906008357204
 10
603.6601762233531
 20
2551.906008357204
 10
1033.7561981428225
 20
2551.906008357204
  0
LWPOLYLINE
  5
E3
330
17
100
AcDbEntity
  8
FP-Stair
100
AcDbPolyline
 90
4
 70
0
 10
45.61841507594727
 20
4363.905562864471
 10
45.61841507594727
 20
4389.905562864471
 10
171.61841507594727
 20
4389.905562864471
 10
171.61841507594727
 20
4363.905562864471
  0
LWPOLYLINE
  5
E4
330
17
100
AcDbEntity
  8
FP-Stair
100
AcDbPolyline
 90
4
 70
0
 38
-0.3403031765569822
 10
45.66032470438222
 20
2907.906008357204
 10
45.66032470438222
 20
2881.906008357204
 10
171.66032470438222
 20
2881.906008357204
 10
171.66032470438222
 20
2907.906008357204
  0
LWPOLYLINE
  5
E5
330
17
100
AcDbEntity
  8
FP-Stair
100
AcDbPolyline
 90
4
 70
0
 10
57.61841507594727
 20
4363.905562864471
 10
57.61841507594727
 20
4377.905562864471
 10
159.61841507594727
 20
4377.905562864471
 10
159.61841507594727
 20
4363.905562864471
  0
LWPOLYLINE
  5
E6
330
17
100
AcDbEntity
  8
FP-Stair
100
AcDbPolyline
 90
4
 70
0
 38
-0.3403031765569822
 10
57.66032470438222
 20
2907.906008357204
 10
57.66032470438222
 20
2893.906008357204
 10
159.66032470438222
 20
2893.906008357204
 10
159.66032470438222
 20
2907.906008357204
  0
LWPOLYLINE
  5
E7
330
17
100
AcDbEntity
  8
FP-Stair
100
AcDbPolyline
 90
4
 70
0
 38
-0.3403031765569822
 10
69.66032470438222
 20
2907.906008357204
 10
69.66032470438222
 20
2905.906008357204
 10
147.66032470438222
 20
2905.906008357204
 10
147.66032470438222
 20
2907.906008357204
  0
LWPOLYLINE
  5
E8
330
17
100
AcDbEntity
  8
FP-Proposed Wall
100
AcDbPolyline
 90
12
 70
0
 10
650.6602653221635
 20
3585.9012929018936
 10
627.2629729787186
 20
3585.9012929018936
 10
627.2629729787186
 20
3583.9012929018936
 10
625.2629729789878
 20
3583.9012929018936
 10
625.2629729789878
 20
3565.9012929018936
 10
556.6603294633587
 20
3565.90129290189
 10
556.6603294633587
 20
3705.9080508560655
 10
625.2629729789878
 20
3705.9080508560655
 10
625.2629729789878
 20
3687.9080508560655
 10
627.2629729787186
 20
3687.9080508560655
 10
627.2629729787186
 20
3685.9080508560655
 10
650.6602653221635
 20
3685.9080508560655
  0
LWPOLYLINE
  5
E9
330
17
100
AcDbEntity
  8
FP-Window
100
AcDbPolyline
 90
3
 70
0
 38
-2.3138712776836745
 10
579.1601762233277
 20
3739.3053431992084
 10
670.6602653218924
 20
3739.3053431992084
 10
670.6602653218924
 20
3643.904671878976
  0
LWPOLYLINE
  5
EA
330
17
100
AcDbEntity
  8
FP-Window
100
AcDbPolyline
 90
3
 70
0
 38
-2.3138712776836745
 10
579.1601762233295
 20
3532.5040005587507
 10
670.6602653218924
 20
3532.5040005587507
 10
670.6602653218924
 20
3643.904671878976
  0
LWPOLYLINE
  5
EB
330
17
100
AcDbEntity
  8
FP-Window
100
AcDbPolyline
 90
3
 70
0
 38
-2.3138712776836745
 10
581.1601762233058
 20
3763.3053431992084
 10
694.6602653218924
 20
3763.3053431992084
 10
694.6602653218924
 20
3643.904671878976
  0
LWPOLYLINE
  5
EC
330
17
100
AcDbEntity
  8
FP-Window
100
AcDbPolyline
 90
3
 70
0
 38
-2.3138712776836745
 10
581.1601762233076
 20
3508.5040005587507
 10
694.6602653218924
 20
3508.5040005587507
 10
694.6602653218924
 20
3643.904671878976
  0
LWPOLYLINE
  5
ED
330
17
100
AcDbEntity
  8
FP-Window
100
AcDbPolyline
 90
3
 70
0
 38
-2.3138712776836745
 10
581.1601762233113
 20
3520.5040005587507
 10
682.6602653218924
 20
3520.5040005587507
 10
682.6602653218924
 20
3643.904671878976
  0
LWPOLYLINE
  5
EE
330
17
100
AcDbEntity
  8
FP-Window
100
AcDbPolyline
 90
3
 70
0
 38
-2.3138712776836745
 10
581.1601762233113
 20
3751.3053431992084
 10
682.6602653218924
 20
3751.3053431992084
 10
682.6602653218924
 20
3643.904671878976
  0
LWPOLYLINE
  5
EF
330
17
100
AcDbEntity
  8
FP-Window
100
AcDbPolyline
 90
4
 70
0
 10
603.6601762233495
 20
4335.9033354007515
 10
669.6601762233477
 20
4335.9033354007515
 10
669.6601762233495
 20
3763.305343199205
 10
694.6602653218997
 20
3763.305343199201
  0
LWPOLYLINE
  5
F0
330
17
100
AcDbEntity
  8
FP-Window
100
AcDbPolyline
 90
4
 70
0
 10
603.6601762233513
 20
2935.9060083572003
 10
669.6601762233513
 20
2935.906008357204
 10
669.6601762233513
 20
3508.504000558747
 10
694.6602653218979
 20
3508.5040005587507
  0
LWPOLYLINE
  5
F1
330
17
100
AcDbEntity
  8
FP-Window
100
AcDbPolyline
 90
2
 70
0
 10
909.6601762233477
 20
4178.037338000231
 10
909.6601762233495
 20
3915.3578408247267
  0
LWPOLYLINE
  5
F2
330
17
100
AcDbEntity
  8
FP-Window
100
AcDbPolyline
 90
2
 70
0
 10
909.6601762233477
 20
4178.037338000231
 10
1029.6601762233477
 20
4178.037338000231
  0
LWPOLYLINE
  5
F3
330
17
100
AcDbEntity
  8
FP-Window
100
AcDbPolyline
 90
2
 70
0
 10
909.6601762233495
 20
3915.3578408247267
 10
1029.6601762233495
 20
3915.3578408247267
  0
LWPOLYLINE
  5
F4
330
17
100
AcDbEntity
  8
FP-Window
100
AcDbPolyline
 90
2
 70
0
 10
909.6601762233586
 20
3093.7720057577244
 10
909.6601762233568
 20
3356.451502933225
  0
LWPOLYLINE
  5
F5
330
17
100
AcDbEntity
  8
FP-Window
100
AcDbPolyline
 90
2
 70
0
 10
909.6601762233568
 20
3356.451502933225
 10
1029.6601762233568
 20
3356.451502933225
  0
LWPOLYLINE
  5
F6
330
17
100
AcDbEntity
  8
FP-Window
100
AcDbPolyline
 90
2
 70
0
 10
909.6601762233586
 20
3093.7720057577244
 10
1029.6601762233586
 20
3093.7720057577244
  0
LWPOLYLINE
  5
F7
330
17
100
AcDbEntity
  8
FP-Window
100
AcDbPolyline
 90
2
 70
0
 10
1029.6601762233495
 20
3915.3578408247267
 10
1029.6601762233477
 20
4178.037338000231
  0
LWPOLYLINE
  5
F8
330
17
100
AcDbEntity
  8
FP-Window
100
AcDbPolyline
 90
2
 70
0
 10
1029.6601762233568
 20
3356.451502933225
 10
1029.6601762233586
 20
3093.7720057577244
  0
LWPOLYLINE
  5
F9
330
17
100
AcDbEntity
  8
FP-Window
100
AcDbPolyline
 90
3
 70
0
 10
1033.7561981428225
 20
2551.906008357204
 10
1033.7561981428225
 20
2787.809986437729
 10
1269.6601762233477
 20
2787.809986437729
  0
LWPOLYLINE
  5
FA
330
17
100
AcDbEntity
  8
FP-Window
100
AcDbPolyline
 90
3
 70
0
 10
1033.7561981428225
 20
4719.903335400748
 10
1033.7561981428225
 20
4483.999357320223
 10
1269.6601762233477
 20
4483.999357320223
  0
LINE
  5
FB
330
17
100
AcDbEntity
  8
FP-Window
100
AcDbLine
 10
1269.6601762233477
 20
4483.999357320223
 30
0.0
 11
1269.6601762233477
 21
3791.904671878983
 31
0.0
  0
LWPOLYLINE
  5
FC
330
17
100
AcDbEntity
  8
FP-Window
100
AcDbPolyline
 90
2
 70
0
 10
1269.6601762233495
 20
2787.809986437729
 10
1269.6601762233495
 20
3479.9046718789796
  0
LINE
  5
FD
330
17
100
AcDbEntity
  8
FP-Window
100
AcDbLine
 10
1269.6601762233495
 20
3479.904671878976
 30
0.0
 11
1536.9255117715438
 21
3479.904671878976
 31
0.0
  0
LINE
  5
FE
330
17
100
AcDbEntity
  8
FP-Window
100
AcDbLine
 10
1269.6601762233495
 20
3791.904671878983
 30
0.0
 11
1536.9255117715438
 21
3791.904671878983
 31
0.0
  0
ENDSEC
  0
SECTION
  2
OBJECTS
  0
DICTIONARY
  5
A
330
0
100
AcDbDictionary
280
0
281
1
  3
ACAD_COLOR
350
B
  3
ACAD_GROUP
350
C
  3
ACAD_LAYOUT
350
D
  3
ACAD_MATERIAL
350
E
  3
ACAD_MLEADERSTYLE
350
F
  3
ACAD_MLINESTYLE
350
10
  3
ACAD_PLOTSETTINGS
350
11
  3
ACAD_PLOTSTYLENAME
350
12
  3
ACAD_SCALELIST
350
14
  3
ACAD_TABLESTYLE
350
15
  3
ACAD_VISUALSTYLE
350
16
  3
EZDXF_META
350
2D
  0
DICTIONARY
  5
B
330
A
100
AcDbDictionary
280
0
281
1
  0
DICTIONARY
  5
C
330
A
100
AcDbDictionary
280
0
281
1
  0
DICTIONARY
  5
D
330
A
100
AcDbDictionary
280
0
281
1
  3
Model
350
1A
  3
Layout1
350
1E
  0
DICTIONARY
  5
E
330
A
100
AcDbDictionary
280
0
281
1
  3
ByBlock
350
1F
  3
ByLayer
350
20
  3
Global
350
21
  0
DICTIONARY
  5
F
330
A
100
AcDbDictionary
280
0
281
1
  3
Standard
350
2C
  0
DICTIONARY
  5
10
330
A
100
AcDbDictionary
280
0
281
1
  3
Standard
350
22
  0
DICTIONARY
  5
11
330
A
100
AcDbDictionary
280
0
281
1
  0
ACDBDICTIONARYWDFLT
  5
12
330
A
100
AcDbDictionary
280
0
281
1
  3
Normal
350
13
100
AcDbDictionaryWithDefault
340
13
  0
ACDBPLACEHOLDER
  5
13
330
12
  0
DICTIONARY
  5
14
330
A
100
AcDbDictionary
280
0
281
1
  0
DICTIONARY
  5
15
330
A
100
AcDbDictionary
280
0
281
1
  0
DICTIONARY
  5
16
330
A
100
AcDbDictionary
280
0
281
1
  0
LAYOUT
  5
1A
330
D
100
AcDbPlotSettings
  1

  2
Adobe PDF
  4
A3
  6

 40
7.5
 41
20.0
 42
7.5
 43
20.0
 44
420.0
 45
297.0
 46
0.0
 47
0.0
 48
0.0
 49
0.0
140
0.0
141
0.0
142
1.0
143
1.0
 70
1024
 72
1
 73
0
 74
5
  7

 75
16
 76
0
 77
2
 78
300
147
1.0
148
0.0
149
0.0
100
AcDbLayout
  1
Model
 70
1
 71
0
 10
0.0
 20
0.0
 11
420.0
 21
297.0
 12
0.0
 22
0.0
 32
0.0
 14
1e+20
 24
1e+20
 34
1e+20
 15
-1e+20
 25
-1e+20
 35
-1e+20
146
0.0
 13
0.0
 23
0.0
 33
0.0
 16
1.0
 26
0.0
 36
0.0
 17
0.0
 27
1.0
 37
0.0
 76
1
330
17
  0
LAYOUT
  5
1E
330
D
100
AcDbPlotSettings
  1

  2
Adobe PDF
  4
A3
  6

 40
7.5
 41
20.0
 42
7.5
 43
20.0
 44
420.0
 45
297.0
 46
0.0
 47
0.0
 48
0.0
 49
0.0
140
0.0
141
0.0
142
1.0
143
1.0
 70
0
 72
1
 73
0
 74
5
  7

 75
16
 76
0
 77
2
 78
300
147
1.0
148
0.0
149
0.0
100
AcDbLayout
  1
Layout1
 70
1
 71
1
 10
0.0
 20
0.0
 11
420.0
 21
297.0
 12
0.0
 22
0.0
 32
0.0
 14
1e+20
 24
1e+20
 34
1e+20
 15
-1e+20
 25
-1e+20
 35
-1e+20
146
0.0
 13
0.0
 23
0.0
 33
0.0
 16
1.0
 26
0.0
 36
0.0
 17
0.0
 27
1.0
 37
0.0
 76
1
330
1B
  0
MATERIAL
  5
1F
102
{ACAD_REACTORS
330
E
102
}
330
E
100
AcDbMaterial
  1
ByBlock
  2

 70
0
 40
1.0
 71
1
 41
1.0
 91
-1023410177
 42
1.0
 72
1
  3

 73
1
 74
1
 75
1
 44
0.5
 73
0
 45
1.0
 46
1.0
 77
1
  4

 78
1
 79
1
170
1
 48
1.0
171
1
  6

172
1
173
1
174
1
140
1.0
141
1.0
175
1
  7

176
1
177
1
178
1
143
1.0
179
1
  8

270
1
271
1
272
1
145
1.0
146
1.0
273
1
  9

274
1
275
1
276
1
 42
1.0
 72
1
  3

 73
1
 74
1
 75
1
 94
63
  0
MATERIAL
  5
20
102
{ACAD_REACTORS
330
E
102
}
330
E
100
AcDbMaterial
  1
ByLayer
  2

 70
0
 40
1.0
 71
1
 41
1.0
 91
-1023410177
 42
1.0
 72
1
  3

 73
1
 74
1
 75
1
 44
0.5
 73
0
 45
1.0
 46
1.0
 77
1
  4

 78
1
 79
1
170
1
 48
1.0
171
1
  6

172
1
173
1
174
1
140
1.0
141
1.0
175
1
  7

176
1
177
1
178
1
143
1.0
179
1
  8

270
1
271
1
272
1
145
1.0
146
1.0
273
1
  9

274
1
275
1
276
1
 42
1.0
 72
1
  3

 73
1
 74
1
 75
1
 94
63
  0
MATERIAL
  5
21
102
{ACAD_REACTORS
330
E
102
}
330
E
100
AcDbMaterial
  1
Global
  2

 70
0
 40
1.0
 71
1
 41
1.0
 91
-1023410177
 42
1.0
 72
1
  3

 73
1
 74
1
 75
1
 44
0.5
 73
0
 45
1.0
 46
1.0
 77
1
  4

 78
1
 79
1
170
1
 48
1.0
171
1
  6

172
1
173
1
174
1
140
1.0
141
1.0
175
1
  7

176
1
177
1
178
1
143
1.0
179
1
  8

270
1
271
1
272
1
145
1.0
146
1.0
273
1
  9

274
1
275
1
276
1
 42
1.0
 72
1
  3

 73
1
 74
1
 75
1
 94
63
  0
MLINESTYLE
  5
22
102
{ACAD_REACTORS
330
10
102
}
330
10
100
AcDbMlineStyle
  2
Standard
 70
0
  3

 62
256
 51
90.0
 52
90.0
 71
2
 49
0.5
 62
256
  6
BYLAYER
 49
-0.5
 62
256
  6
BYLAYER
  0
MLEADERSTYLE
  5
2C
102
{ACAD_REACTORS
330
F
102
}
330
F
100
AcDbMLeaderStyle
179
2
170
2
171
1
172
0
 90
2
 40
0.0
 41
0.0
173
1
 91
-1056964608
 92
-2
290
1
 42
2.0
291
1
 43
8.0
  3
Standard
 44
4.0
300

342
29
174
1
175
1
176
0
178
1
 93
-1056964608
 45
4.0
292
0
297
0
 46
4.0
 94
-1056964608
 47
1.0
 49
1.0
140
1.0
294
1
141
0.0
177
0
142
1.0
295
0
296
0
143
3.75
271
0
272
9
273
9
  0
DICTIONARY
  5
2D
330
A
100
AcDbDictionary
281
1
  3
CREATED_BY_EZDXF
350
2E
  3
WRITTEN_BY_EZDXF
350
101
  0
DICTIONARYVAR
  5
2E
330
2D
100
DictionaryVariables
280
0
  1
1.1.4 @ 2024-01-19T12:24:38.243870+00:00
  0
DICTIONARYVAR
  5
101
330
2D
100
DictionaryVariables
280
0
  1
1.1.4 @ 2024-01-19T12:24:40.798762+00:00
  0
ENDSEC
  0
EOF
