  0
SECTION
  2
HEADER
  9
$ACADVER
  1
AC1027
  9
$ACADMAINTVER
 70
105
  9
$DWGCODEPAGE
  3
ANSI_1252
  9
$LASTSAVEDBY
  1
ezdxf
  9
$REQUIREDVERSIONS
160
0
  9
$INSBASE
 10
0.0
 20
0.0
 30
0.0
  9
$EXTMIN
 10
1e+20
 20
1e+20
 30
1e+20
  9
$EXTMAX
 10
-1e+20
 20
-1e+20
 30
-1e+20
  9
$LIMMIN
 10
0.0
 20
0.0
  9
$LIMMAX
 10
420.0
 20
297.0
  9
$ORTHOMODE
 70
0
  9
$REGENMODE
 70
1
  9
$FILLMODE
 70
1
  9
$QTEXTMODE
 70
0
  9
$MIRRTEXT
 70
1
  9
$LTSCALE
 40
1.0
  9
$ATTMODE
 70
1
  9
$TEXTSIZE
 40
2.5
  9
$TRACEWID
 40
1.0
  9
$TEXTSTYLE
  7
Standard
  9
$CLAYER
  8
0
  9
$CELTYPE
  6
ByLayer
  9
$CECOLOR
 62
256
  9
$CELTSCALE
 40
1.0
  9
$DISPSILH
 70
0
  9
$DIMSCALE
 40
1.0
  9
$DIMASZ
 40
2.5
  9
$DIMEXO
 40
0.625
  9
$DIMDLI
 40
3.75
  9
$DIMRND
 40
0.0
  9
$DIMDLE
 40
0.0
  9
$DIMEXE
 40
1.25
  9
$DIMTP
 40
0.0
  9
$DIMTM
 40
0.0
  9
$DIMTXT
 40
2.5
  9
$DIMCEN
 40
2.5
  9
$DIMTSZ
 40
0.0
  9
$DIMTOL
 70
0
  9
$DIMLIM
 70
0
  9
$DIMTIH
 70
0
  9
$DIMTOH
 70
0
  9
$DIMSE1
 70
0
  9
$DIMSE2
 70
0
  9
$DIMTAD
 70
1
  9
$DIMZIN
 70
8
  9
$DIMBLK
  1

  9
$DIMASO
 70
1
  9
$DIMSHO
 70
1
  9
$DIMPOST
  1

  9
$DIMAPOST
  1

  9
$DIMALT
 70
0
  9
$DIMALTD
 70
3
  9
$DIMALTF
 40
0.03937007874
  9
$DIMLFAC
 40
1.0
  9
$DIMTOFL
 70
1
  9
$DIMTVP
 40
0.0
  9
$DIMTIX
 70
0
  9
$DIMSOXD
 70
0
  9
$DIMSAH
 70
0
  9
$DIMBLK1
  1

  9
$DIMBLK2
  1

  9
$DIMSTYLE
  2
ISO-25
  9
$DIMCLRD
 70
0
  9
$DIMCLRE
 70
0
  9
$DIMCLRT
 70
0
  9
$DIMTFAC
 40
1.0
  9
$DIMGAP
 40
0.625
  9
$DIMJUST
 70
0
  9
$DIMSD1
 70
0
  9
$DIMSD2
 70
0
  9
$DIMTOLJ
 70
0
  9
$DIMTZIN
 70
8
  9
$DIMALTZ
 70
0
  9
$DIMALTTZ
 70
0
  9
$DIMUPT
 70
0
  9
$DIMDEC
 70
2
  9
$DIMTDEC
 70
2
  9
$DIMALTU
 70
2
  9
$DIMALTTD
 70
3
  9
$DIMTXSTY
  7
Standard
  9
$DIMAUNIT
 70
0
  9
$DIMADEC
 70
0
  9
$DIMALTRND
 40
0.0
  9
$DIMAZIN
 70
0
  9
$DIMDSEP
 70
44
  9
$DIMATFIT
 70
3
  9
$DIMFRAC
 70
0
  9
$DIMLDRBLK
  1

  9
$DIMLUNIT
 70
2
  9
$DIMLWD
 70
-2
  9
$DIMLWE
 70
-2
  9
$DIMTMOVE
 70
0
  9
$DIMFXL
 40
1.0
  9
$DIMFXLON
 70
0
  9
$DIMJOGANG
 40
0.785398163397
  9
$DIMTFILL
 70
0
  9
$DIMTFILLCLR
 70
0
  9
$DIMARCSYM
 70
0
  9
$DIMLTYPE
  6

  9
$DIMLTEX1
  6

  9
$DIMLTEX2
  6

  9
$DIMTXTDIRECTION
 70
0
  9
$LUNITS
 70
2
  9
$LUPREC
 70
4
  9
$SKETCHINC
 40
1.0
  9
$FILLETRAD
 40
10.0
  9
$AUNITS
 70
0
  9
$AUPREC
 70
2
  9
$MENU
  1
.
  9
$ELEVATION
 40
0.0
  9
$PELEVATION
 40
0.0
  9
$THICKNESS
 40
0.0
  9
$LIMCHECK
 70
0
  9
$CHAMFERA
 40
0.0
  9
$CHAMFERB
 40
0.0
  9
$CHAMFERC
 40
0.0
  9
$CHAMFERD
 40
0.0
  9
$SKPOLY
 70
0
  9
$TDCREATE
 40
2460312.6744212965
  9
$TDUCREATE
 40
2458532.153996898
  9
$TDUPDATE
 40
2460312.6744328705
  9
$TDUUPDATE
 40
2458532.1544311
  9
$TDINDWG
 40
0.0
  9
$TDUSRTIMER
 40
0.0
  9
$USRTIMER
 70
1
  9
$ANGBASE
 50
0.0
  9
$ANGDIR
 70
0
  9
$PDMODE
 70
0
  9
$PDSIZE
 40
0.0
  9
$PLINEWID
 40
0.0
  9
$SPLFRAME
 70
0
  9
$SPLINETYPE
 70
6
  9
$SPLINESEGS
 70
8
  9
$HANDSEED
  5
102
  9
$SURFTAB1
 70
6
  9
$SURFTAB2
 70
6
  9
$SURFTYPE
 70
6
  9
$SURFU
 70
6
  9
$SURFV
 70
6
  9
$UCSBASE
  2

  9
$UCSNAME
  2

  9
$UCSORG
 10
0.0
 20
0.0
 30
0.0
  9
$UCSXDIR
 10
1.0
 20
0.0
 30
0.0
  9
$UCSYDIR
 10
0.0
 20
1.0
 30
0.0
  9
$UCSORTHOREF
  2

  9
$UCSORTHOVIEW
 70
0
  9
$UCSORGTOP
 10
0.0
 20
0.0
 30
0.0
  9
$UCSORGBOTTOM
 10
0.0
 20
0.0
 30
0.0
  9
$UCSORGLEFT
 10
0.0
 20
0.0
 30
0.0
  9
$UCSORGRIGHT
 10
0.0
 20
0.0
 30
0.0
  9
$UCSORGFRONT
 10
0.0
 20
0.0
 30
0.0
  9
$UCSORGBACK
 10
0.0
 20
0.0
 30
0.0
  9
$PUCSBASE
  2

  9
$PUCSNAME
  2

  9
$PUCSORG
 10
0.0
 20
0.0
 30
0.0
  9
$PUCSXDIR
 10
1.0
 20
0.0
 30
0.0
  9
$PUCSYDIR
 10
0.0
 20
1.0
 30
0.0
  9
$PUCSORTHOREF
  2

  9
$PUCSORTHOVIEW
 70
0
  9
$PUCSORGTOP
 10
0.0
 20
0.0
 30
0.0
  9
$PUCSORGBOTTOM
 10
0.0
 20
0.0
 30
0.0
  9
$PUCSORGLEFT
 10
0.0
 20
0.0
 30
0.0
  9
$PUCSORGRIGHT
 10
0.0
 20
0.0
 30
0.0
  9
$PUCSORGFRONT
 10
0.0
 20
0.0
 30
0.0
  9
$PUCSORGBACK
 10
0.0
 20
0.0
 30
0.0
  9
$USERI1
 70
0
  9
$USERI2
 70
0
  9
$USERI3
 70
0
  9
$USERI4
 70
0
  9
$USERI5
 70
0
  9
$USERR1
 40
0.0
  9
$USERR2
 40
0.0
  9
$USERR3
 40
0.0
  9
$USERR4
 40
0.0
  9
$USERR5
 40
0.0
  9
$WORLDVIEW
 70
1
  9
$SHADEDGE
 70
3
  9
$SHADEDIF
 70
70
  9
$TILEMODE
 70
1
  9
$MAXACTVP
 70
64
  9
$PINSBASE
 10
0.0
 20
0.0
 30
0.0
  9
$PLIMCHECK
 70
0
  9
$PEXTMIN
 10
1e+20
 20
1e+20
 30
1e+20
  9
$PEXTMAX
 10
-1e+20
 20
-1e+20
 30
-1e+20
  9
$PLIMMIN
 10
0.0
 20
0.0
  9
$PLIMMAX
 10
420.0
 20
297.0
  9
$UNITMODE
 70
0
  9
$VISRETAIN
 70
1
  9
$PLINEGEN
 70
0
  9
$PSLTSCALE
 70
1
  9
$TREEDEPTH
 70
3020
  9
$CMLSTYLE
  2
Standard
  9
$CMLJUST
 70
0
  9
$CMLSCALE
 40
20.0
  9
$PROXYGRAPHICS
 70
1
  9
$MEASUREMENT
 70
1
  9
$CELWEIGHT
370
-1
  9
$ENDCAPS
280
0
  9
$JOINSTYLE
280
0
  9
$LWDISPLAY
290
0
  9
$INSUNITS
 70
6
  9
$HYPERLINKBASE
  1

  9
$STYLESHEET
  1

  9
$XEDIT
290
1
  9
$CEPSNTYPE
380
0
  9
$PSTYLEMODE
290
1
  9
$FINGERPRINTGUID
  2
{5A32E4F5-D1B1-4E89-8D70-1233357C1EAE}
  9
$VERSIONGUID
  2
{B372AAD3-FD6F-4CF1-B1C0-E55C2A49056B}
  9
$EXTNAMES
290
1
  9
$PSVPSCALE
 40
0.0
  9
$OLESTARTUP
290
0
  9
$SORTENTS
280
127
  9
$INDEXCTL
280
0
  9
$HIDETEXT
280
1
  9
$XCLIPFRAME
280
0
  9
$HALOGAP
280
0
  9
$OBSCOLOR
 70
257
  9
$OBSLTYPE
280
0
  9
$INTERSECTIONDISPLAY
280
0
  9
$INTERSECTIONCOLOR
 70
257
  9
$DIMASSOC
280
2
  9
$PROJECTNAME
  1

  9
$CAMERADISPLAY
290
0
  9
$LENSLENGTH
 40
50.0
  9
$CAMERAHEIGHT
 40
0.0
  9
$STEPSPERSEC
 40
24.0
  9
$STEPSIZE
 40
100.0
  9
$3DDWFPREC
 40
2.0
  9
$PSOLWIDTH
 40
0.005
  9
$PSOLHEIGHT
 40
0.08
  9
$LOFTANG1
 40
1.570796326795
  9
$LOFTANG2
 40
1.570796326795
  9
$LOFTMAG1
 40
0.0
  9
$LOFTMAG2
 40
0.0
  9
$LOFTPARAM
 70
7
  9
$LOFTNORMALS
280
1
  9
$LATITUDE
 40
37.795
  9
$LONGITUDE
 40
-122.394
  9
$NORTHDIRECTION
 40
0.0
  9
$TIMEZONE
 70
-8000
  9
$LIGHTGLYPHDISPLAY
280
1
  9
$TILEMODELIGHTSYNCH
280
1
  9
$CMATERIAL
347
20
  9
$SOLIDHIST
280
0
  9
$SHOWHIST
280
1
  9
$DWFFRAME
280
2
  9
$DGNFRAME
280
2
  9
$REALWORLDSCALE
290
1
  9
$INTERFERECOLOR
 62
256
  9
$CSHADOW
280
0
  9
$SHADOWPLANELOCATION
 40
0.0
  0
ENDSEC
  0
SECTION
  2
CLASSES
  0
CLASS
  1
ACDBDICTIONARYWDFLT
  2
AcDbDictionaryWithDefault
  3
ObjectDBX Classes
 90
0
 91
0
280
0
281
0
  0
CLASS
  1
SUN
  2
AcDbSun
  3
SCENEOE
 90
1153
 91
0
280
0
281
0
  0
CLASS
  1
VISUALSTYLE
  2
AcDbVisualStyle
  3
ObjectDBX Classes
 90
4095
 91
0
280
0
281
0
  0
CLASS
  1
MATERIAL
  2
AcDbMaterial
  3
ObjectDBX Classes
 90
1153
 91
0
280
0
281
0
  0
CLASS
  1
SCALE
  2
AcDbScale
  3
ObjectDBX Classes
 90
1153
 91
0
280
0
281
0
  0
CLASS
  1
TABLESTYLE
  2
AcDbTableStyle
  3
ObjectDBX Classes
 90
4095
 91
0
280
0
281
0
  0
CLASS
  1
MLEADERSTYLE
  2
AcDbMLeaderStyle
  3
ACDB_MLEADERSTYLE_CLASS
 90
4095
 91
0
280
0
281
0
  0
CLASS
  1
DICTIONARYVAR
  2
AcDbDictionaryVar
  3
ObjectDBX Classes
 90
0
 91
0
280
0
281
0
  0
CLASS
  1
CELLSTYLEMAP
  2
AcDbCellStyleMap
  3
ObjectDBX Classes
 90
1152
 91
0
280
0
281
0
  0
CLASS
  1
MENTALRAYRENDERSETTINGS
  2
AcDbMentalRayRenderSettings
  3
SCENEOE
 90
1024
 91
0
280
0
281
0
  0
CLASS
  1
ACDBDETAILVIEWSTYLE
  2
AcDbDetailViewStyle
  3
ObjectDBX Classes
 90
1025
 91
0
280
0
281
0
  0
CLASS
  1
ACDBSECTIONVIEWSTYLE
  2
AcDbSectionViewStyle
  3
ObjectDBX Classes
 90
1025
 91
0
280
0
281
0
  0
CLASS
  1
RASTERVARIABLES
  2
AcDbRasterVariables
  3
ISM
 90
0
 91
0
280
0
281
0
  0
CLASS
  1
LAYOUT
  2
AcDbLayout
  3
ObjectDBX Classes
 90
0
 91
0
280
0
281
0
  0
CLASS
  1
ACDBPLACEHOLDER
  2
AcDbPlaceHolder
  3
ObjectDBX Classes
 90
0
 91
0
280
0
281
0
  0
ENDSEC
  0
SECTION
  2
TABLES
  0
TABLE
  2
VPORT
  5
8
330
0
100
AcDbSymbolTable
 70
1
  0
VPORT
  5
23
330
8
100
AcDbSymbolTableRecord
100
AcDbViewportTableRecord
  2
*Active
 70
0
 10
0.0
 20
0.0
 11
1.0
 21
1.0
 12
0.0
 22
0.0
 13
0.0
 23
0.0
 14
0.5
 24
0.5
 15
0.5
 25
0.5
 16
0.0
 26
0.0
 36
1.0
 17
0.0
 27
0.0
 37
0.0
 40
1000.0
 41
1.34
 42
50.0
 43
0.0
 44
0.0
 50
0.0
 51
0.0
 71
0
 72
1000
 73
1
 74
3
 75
0
 76
0
 77
0
 78
0
281
0
 65
0
146
0.0
  0
ENDTAB
  0
TABLE
  2
LTYPE
  5
2
330
0
100
AcDbSymbolTable
 70
3
  0
LTYPE
  5
24
330
2
100
AcDbSymbolTableRecord
100
AcDbLinetypeTableRecord
  2
ByBlock
 70
0
  3

 72
65
 73
0
 40
0.0
  0
LTYPE
  5
25
330
2
100
AcDbSymbolTableRecord
100
AcDbLinetypeTableRecord
  2
ByLayer
 70
0
  3

 72
65
 73
0
 40
0.0
  0
LTYPE
  5
26
330
2
100
AcDbSymbolTableRecord
100
AcDbLinetypeTableRecord
  2
Continuous
 70
0
  3

 72
65
 73
0
 40
0.0
  0
ENDTAB
  0
TABLE
  2
LAYER
  5
1
330
0
100
AcDbSymbolTable
 70
2
  0
LAYER
  5
27
330
1
100
AcDbSymbolTableRecord
100
AcDbLayerTableRecord
  2
0
 70
0
 62
7
  6
Continuous
370
-3
390
13
347
21
  0
LAYER
  5
28
330
1
100
AcDbSymbolTableRecord
100
AcDbLayerTableRecord
  2
Defpoints
 70
0
 62
7
  6
Continuous
290
0
370
-3
390
13
347
21
  0
ENDTAB
  0
TABLE
  2
STYLE
  5
5
330
0
100
AcDbSymbolTable
 70
1
  0
STYLE
  5
29
330
5
100
AcDbSymbolTableRecord
100
AcDbTextStyleTableRecord
  2
Standard
 70
0
 40
0.0
 41
1.0
 50
0.0
 71
0
 42
2.5
  3
txt
  4

  0
ENDTAB
  0
TABLE
  2
VIEW
  5
7
330
0
100
AcDbSymbolTable
 70
0
  0
ENDTAB
  0
TABLE
  2
UCS
  5
6
330
0
100
AcDbSymbolTable
 70
0
  0
ENDTAB
  0
TABLE
  2
APPID
  5
3
330
0
100
AcDbSymbolTable
 70
3
  0
APPID
  5
2A
330
3
100
AcDbSymbolTableRecord
100
AcDbRegAppTableRecord
  2
ACAD
 70
0
  0
APPID
  5
FF
330
3
100
AcDbSymbolTableRecord
100
AcDbRegAppTableRecord
  2
HATCHBACKGROUNDCOLOR
 70
0
  0
APPID
  5
100
330
3
100
AcDbSymbolTableRecord
100
AcDbRegAppTableRecord
  2
EZDXF
 70
0
  0
ENDTAB
  0
TABLE
  2
DIMSTYLE
  5
4
330
0
100
AcDbSymbolTable
 70
1
100
AcDbDimStyleTable
  0
DIMSTYLE
105
2B
330
4
100
AcDbSymbolTableRecord
100
AcDbDimStyleTableRecord
  2
Standard
 70
0
 40
1.0
 41
2.5
 42
0.625
 43
3.75
 44
1.25
 45
0.0
 46
0.0
 47
0.0
 48
0.0
 49
2.5
140
2.5
141
2.5
142
0.0
143
0.03937007874
144
1.0
145
0.0
146
1.0
147
0.625
148
0.0
 69
0
 70
0
 71
0
 72
0
 73
0
 74
0
 75
0
 76
0
 77
1
 78
8
 79
3
170
0
171
3
172
1
173
0
174
0
175
0
176
0
177
0
178
0
179
2
271
2
272
2
273
2
274
3
275
0
276
0
277
2
278
44
279
0
280
0
281
0
282
0
283
0
284
8
285
0
286
0
288
0
289
3
290
0
371
-2
372
-2
  0
ENDTAB
  0
TABLE
  2
BLOCK_RECORD
  5
9
330
0
100
AcDbSymbolTable
 70
2
  0
BLOCK_RECORD
  5
17
330
9
100
AcDbSymbolTableRecord
100
AcDbBlockTableRecord
  2
*Model_Space
340
1A
 70
0
280
1
281
0
  0
BLOCK_RECORD
  5
1B
330
9
100
AcDbSymbolTableRecord
100
AcDbBlockTableRecord
  2
*Paper_Space
340
1E
 70
0
280
1
281
0
  0
ENDTAB
  0
ENDSEC
  0
SECTION
  2
BLOCKS
  0
BLOCK
  5
18
330
17
100
AcDbEntity
  8
0
100
AcDbBlockBegin
  2
*Model_Space
 70
0
 10
0.0
 20
0.0
 30
0.0
  3
*Model_Space
  1

  0
ENDBLK
  5
19
330
17
100
AcDbEntity
  8
0
100
AcDbBlockEnd
  0
BLOCK
  5
1C
330
1B
100
AcDbEntity
  8
0
100
AcDbBlockBegin
  2
*Paper_Space
 70
0
 10
0.0
 20
0.0
 30
0.0
  3
*Paper_Space
  1

  0
ENDBLK
  5
1D
330
1B
100
AcDbEntity
  8
0
100
AcDbBlockEnd
  0
ENDSEC
  0
SECTION
  2
ENTITIES
  0
LWPOLYLINE
  5
2F
330
17
100
AcDbEntity
  8
Defpoints
 62
4
100
AcDbPolyline
 90
4
 70
1
 10
8914.404239781408
 20
-17986.36564771139
 10
17144.36968864265
 20
-17986.36564771139
 10
17144.36968864265
 20
-24552.02744939355
 10
8914.404239781408
 20
-24552.02744939355
  0
LWPOLYLINE
  5
30
330
17
100
AcDbEntity
  8
SP-Property Line
100
AcDbPolyline
 90
9
 70
0
 10
14731.840635376187
 20
-19899.46076415383
 10
12201.948208970116
 20
-19037.18557174333
 10
9878.309936508833
 20
-21366.490353214416
 10
11755.446110367468
 20
-23688.261531845063
 10
16201.228808646281
 20
-21573.16439305918
 10
15743.165528410518
 20
-21023.121193579114
 42
0.13284197188816385
 10
15209.579752640146
 20
-20827.500676266784
 42
-0.11841880971384354
 10
14861.917406207865
 20
-20588.459959328786
 42
-0.2323911856295692
 10
14731.840635376187
 20
-19899.46076415383
  0
LINE
  5
31
330
17
100
AcDbEntity
  8
0
100
AcDbLine
 10
10094.205342359443
 20
-20137.686212390854
 30
0.0
 11
10024.968786881185
 21
-20131.369049561545
 31
0.0
  0
LINE
  5
32
330
17
100
AcDbEntity
  8
0
100
AcDbLine
 10
10093.98698361832
 20
-20144.888317056568
 30
0.0
 11
10065.3373744549
 21
-20142.27431864444
 31
0.0
  0
LINE
  5
33
330
17
100
AcDbEntity
  8
0
100
AcDbLine
 10
10095.504523820167
 20
-20130.582722294617
 30
0.0
 11
10066.854914656775
 21
-20127.968723882503
 31
0.0
  0
LINE
  5
34
330
17
100
AcDbEntity
  8
0
100
AcDbLine
 10
10093.371343337565
 20
-20467.061670289066
 30
0.0
 11
10109.102869665427
 21
-20502.045477973992
 31
0.0
  0
LINE
  5
35
330
17
100
AcDbEntity
  8
0
100
AcDbLine
 10
10098.134128788211
 20
-20622.26366085003
 30
0.0
 11
10137.529685132542
 21
-20190.485551573358
 31
0.0
  0
LINE
  5
36
330
17
100
AcDbEntity
  8
0
100
AcDbLine
 10
10125.002335205643
 20
-20161.455470421533
 30
0.0
 11
10123.414669364507
 21
-20161.310611342873
 31
0.0
  0
LINE
  5
37
330
17
100
AcDbEntity
  8
0
100
AcDbLine
 10
10125.823008473048
 20
-20134.915042825283
 30
0.0
 11
10123.414669364507
 21
-20161.310611342873
 31
0.0
  0
LINE
  5
38
330
17
100
AcDbEntity
  8
0
100
AcDbLine
 10
10127.157207081265
 20
-20137.837920867085
 30
0.0
 11
10125.002335205643
 21
-20161.455470421533
 31
0.0
  0
LINE
  5
39
330
17
100
AcDbEntity
  8
0
100
AcDbLine
 10
10125.823008473048
 20
-20134.915042825283
 30
0.0
 11
10127.157207081265
 21
-20137.837920867085
 31
0.0
  0
LINE
  5
3A
330
17
100
AcDbEntity
  8
0
100
AcDbLine
 10
10127.140037420888
 20
-20120.4803115576
 30
0.0
 11
10146.749597280163
 21
-20163.43969674055
 31
0.0
  0
LINE
  5
3B
330
17
100
AcDbEntity
  8
0
100
AcDbLine
 10
10138.48873837537
 20
-20121.515770230162
 30
0.0
 11
10127.140037420888
 21
-20120.4803115576
 31
0.0
  0
LINE
  5
3C
330
17
100
AcDbEntity
  8
0
100
AcDbLine
 10
10138.48873837537
 20
-20121.515770230162
 30
0.0
 11
10158.09829823463
 21
-20164.475155413144
 31
0.0
  0
LINE
  5
3D
330
17
100
AcDbEntity
  8
0
100
AcDbLine
 10
10139.073710664048
 20
-20034.371220661593
 30
0.0
 11
10149.631434605004
 21
-20057.849513628345
 31
0.0
  0
LINE
  5
3E
330
17
100
AcDbEntity
  8
0
100
AcDbLine
 10
10148.301309271053
 20
-20072.427782221923
 30
0.0
 11
10146.243013172942
 21
-20094.986854362014
 31
0.0
  0
LINE
  5
3F
330
17
100
AcDbEntity
  8
0
100
AcDbLine
 10
10158.09829823463
 20
-20164.475155413144
 30
0.0
 11
10146.749597280163
 21
-20163.43969674055
 31
0.0
  0
LINE
  5
40
330
17
100
AcDbEntity
  8
0
100
AcDbLine
 10
10148.301309271053
 20
-20072.427782221923
 30
0.0
 11
10157.780694698267
 21
-19968.5330413763
 31
0.0
  0
LINE
  5
41
330
17
100
AcDbEntity
  8
0
100
AcDbLine
 10
10164.26378859258
 20
-20036.669570469072
 30
0.0
 11
10149.631434605004
 21
-20057.849513628345
 31
0.0
  0
LINE
  5
42
330
17
100
AcDbEntity
  8
0
100
AcDbLine
 10
10158.08112857425
 20
-20147.11754610364
 30
0.0
 11
10159.415327182473
 21
-20150.04042414542
 31
0.0
  0
LINE
  5
43
330
17
100
AcDbEntity
  8
0
100
AcDbLine
 10
10160.236000449862
 20
-20123.499996549184
 30
0.0
 11
10158.08112857425
 21
-20147.11754610364
 31
0.0
  0
LINE
  5
44
330
17
100
AcDbEntity
  8
0
100
AcDbLine
 10
10161.823666291011
 20
-20123.644855627856
 30
0.0
 11
10159.415327182473
 21
-20150.04042414542
 31
0.0
  0
LINE
  5
45
330
17
100
AcDbEntity
  8
0
100
AcDbLine
 10
10161.823666291011
 20
-20123.644855627856
 30
0.0
 11
10160.236000449862
 21
-20123.499996549184
 31
0.0
  0
LINE
  5
46
330
17
100
AcDbEntity
  8
0
100
AcDbLine
 10
10217.254927188169
 20
-20156.13531895876
 30
0.0
 11
10188.605318024758
 21
-20153.52132054663
 31
0.0
  0
LINE
  5
47
330
17
100
AcDbEntity
  8
0
100
AcDbLine
 10
10258.930513967955
 20
-20152.71578345992
 30
0.0
 11
10189.693958489717
 21
-20146.398620630618
 31
0.0
  0
LINE
  5
48
330
17
100
AcDbEntity
  8
0
100
AcDbLine
 10
10218.351385398426
 20
-20141.791304557257
 30
0.0
 11
10189.701776235006
 21
-20139.17730614513
 31
0.0
  0
LWPOLYLINE
  5
49
330
17
100
AcDbEntity
  8
SP-Property Line
 62
1
100
AcDbPolyline
 90
8
 70
1
 10
15284.340158377301
 20
-21682.388375536455
 10
12112.974546813768
 20
-23191.17699304106
 10
10484.47616351112
 20
-21176.938141617466
 10
12048.726665748345
 20
-19608.873001073775
 10
14127.856782365192
 20
-20317.51274505767
 42
0.12906345457472285
 10
14405.656594224634
 20
-20963.94352215117
 42
0.1413883088664194
 10
15100.886990809307
 20
-21414.102943359474
 42
-0.028456689873801164
 10
15157.486225584915
 20
-21415.75049433709
  0
LWPOLYLINE
  5
4A
330
17
100
AcDbEntity
  8
FP-Stair
100
AcDbPolyline
 90
3
 70
0
 38
-0.6806063531139644
 10
12609.213955584204
 20
-21337.623064551095
 10
11617.216628540584
 20
-21337.623064551095
 10
11617.216628540631
 20
-21095.121663782753
  0
LWPOLYLINE
  5
4B
330
17
100
AcDbEntity
  8
FP-Proposed Wall
100
AcDbPolyline
 90
13
 70
0
 10
11906.213955584131
 20
-20737.121663782753
 10
11815.715292062407
 20
-20737.12166378271
 10
11815.715292062407
 20
-20725.12166378271
 10
11707.715292062408
 20
-20725.12166378271
 10
11707.715292062407
 20
-20737.12166378271
 10
11617.216628540631
 20
-20737.12166378267
 10
11617.216628540631
 20
-21095.121663782753
 10
11906.213955584179
 20
-21095.121663782753
 10
11906.213955584179
 20
-21027.121663782753
 10
11933.213955584173
 20
-21027.121663782753
 10
11933.213955584173
 20
-20805.121663782757
 10
11906.213955584173
 20
-20805.121663782753
 10
11906.213955584131
 20
-20737.121663782753
  0
LWPOLYLINE
  5
4C
330
17
100
AcDbEntity
  8
FP-Window
100
AcDbPolyline
 90
5
 70
0
 10
11834.712322951149
 20
-21095.12166378275
 10
11834.712322951149
 20
-21131.12166378275
 10
11724.712322951147
 20
-21131.12166378275
 10
11688.712322951147
 20
-21131.12166378275
 10
11688.712322951147
 20
-21095.121663782753
  0
LWPOLYLINE
  5
4D
330
17
100
AcDbEntity
  8
FP-Window
100
AcDbPolyline
 90
5
 70
0
 10
11822.712322951149
 20
-21095.12166378275
 10
11822.712322951149
 20
-21119.12166378275
 10
11724.712322951147
 20
-21119.12166378275
 10
11700.712322951147
 20
-21119.12166378275
 10
11700.712322951147
 20
-21095.121663782753
  0
LWPOLYLINE
  5
4E
330
17
100
AcDbEntity
  8
FP-Window
100
AcDbPolyline
 90
5
 70
0
 10
11810.712322951149
 20
-21095.12166378275
 10
11810.712322951149
 20
-21107.12166378275
 10
11724.712322951147
 20
-21107.12166378275
 10
11712.712322951147
 20
-21107.12166378275
 10
11712.712322951147
 20
-21095.121663782753
  0
LWPOLYLINE
  5
4F
330
17
100
AcDbEntity
  8
FP-Stair
100
AcDbPolyline
 90
3
 70
0
 38
-0.6806063531139644
 10
12609.213955584197
 20
-20494.62123035109
 10
11906.213955584131
 20
-20494.62123035109
 10
11906.213955584015
 20
-20737.121663782753
  0
LWPOLYLINE
  5
50
330
17
100
AcDbEntity
  8
FP-Window
100
AcDbPolyline
 90
5
 70
0
 10
11906.213955584151
 20
-21063.12166378273
 10
11969.213955584173
 20
-21063.121663782767
 10
11969.213955584175
 20
-20805.121663782753
 10
11969.213955584175
 20
-20769.121663782753
 10
11906.213955584179
 20
-20769.121663782753
  0
LWPOLYLINE
  5
51
330
17
100
AcDbEntity
  8
FP-Window
100
AcDbPolyline
 90
5
 70
0
 10
11906.213955584159
 20
-21051.12166378273
 10
11957.213955584173
 20
-21051.12166378276
 10
11957.213955584175
 20
-20805.121663782753
 10
11957.213955584175
 20
-20781.121663782753
 10
11906.213955584179
 20
-20781.121663782753
  0
LWPOLYLINE
  5
52
330
17
100
AcDbEntity
  8
FP-Window
100
AcDbPolyline
 90
5
 70
0
 10
11906.213955584166
 20
-21039.12166378273
 10
11945.213955584173
 20
-21039.121663782753
 10
11945.213955584175
 20
-20805.121663782753
 10
11945.213955584175
 20
-20793.121663782753
 10
11906.213955584179
 20
-20793.121663782753
  0
LWPOLYLINE
  5
53
330
17
100
AcDbEntity
  8
FP-Furniture
 62
8
100
AcDbPolyline
 90
4
 70
1
 10
12070.26977803381
 20
-21253.364280741203
 10
12070.269778033788
 20
-21283.36428074119
 10
11995.269778033806
 20
-21283.364280741236
 10
11995.269778033791
 20
-21253.364280741236
  0
LWPOLYLINE
  5
54
330
17
100
AcDbEntity
  8
FP-Furniture
 62
8
100
AcDbPolyline
 90
4
 70
1
 10
12070.26977803381
 20
-21179.86428074128
 10
12070.269778033788
 20
-21209.864280741265
 10
11995.269778033806
 20
-21209.864280741313
 10
11995.269778033791
 20
-21179.864280741313
  0
LWPOLYLINE
  5
55
330
17
100
AcDbEntity
  8
FP-Furniture
 62
8
100
AcDbPolyline
 90
4
 70
1
 10
12070.26977803381
 20
-21136.36428074134
 10
12070.269778033788
 20
-21106.364280741356
 10
11995.269778033806
 20
-21106.36428074131
 10
11995.269778033791
 20
-21136.36428074131
  0
LWPOLYLINE
  5
56
330
17
100
AcDbEntity
  8
FP-Furniture
 62
8
100
AcDbPolyline
 90
4
 70
1
 10
12070.26977803381
 20
-20697.116490807857
 10
12070.269778033788
 20
-20727.116490807843
 10
11995.269778033806
 20
-20727.11649080789
 10
11995.269778033791
 20
-20697.11649080789
  0
LWPOLYLINE
  5
57
330
17
100
AcDbEntity
  8
FP-Furniture
 62
8
100
AcDbPolyline
 90
4
 70
1
 10
12070.26977803381
 20
-20623.616490807934
 10
12070.269778033788
 20
-20653.61649080792
 10
11995.269778033806
 20
-20653.616490807966
 10
11995.269778033791
 20
-20623.616490807966
  0
LWPOLYLINE
  5
58
330
17
100
AcDbEntity
  8
FP-Furniture
 62
8
100
AcDbPolyline
 90
4
 70
1
 10
12070.26977803381
 20
-20580.116490807995
 10
12070.269778033788
 20
-20550.11649080801
 10
11995.269778033806
 20
-20550.116490807963
 10
11995.269778033791
 20
-20580.116490807963
  0
LWPOLYLINE
  5
59
330
17
100
AcDbEntity
  8
FP-Furniture
 62
8
100
AcDbPolyline
 90
4
 70
1
 10
11999.747350039685
 20
-21253.877498306894
 10
11999.747350039685
 20
-21282.76371967716
 10
11995.747350039688
 20
-21282.76371967715
 10
11995.74735003968
 20
-21253.877498306905
  0
LWPOLYLINE
  5
5A
330
17
100
AcDbEntity
  8
FP-Furniture
 62
8
100
AcDbPolyline
 90
4
 70
1
 10
11999.747350039685
 20
-21180.37749830697
 10
11999.747350039685
 20
-21209.263719677238
 10
11995.747350039688
 20
-21209.263719677227
 10
11995.74735003968
 20
-21180.37749830698
  0
LWPOLYLINE
  5
5B
330
17
100
AcDbEntity
  8
FP-Furniture
 62
8
100
AcDbPolyline
 90
4
 70
1
 10
11999.747350039685
 20
-21135.85106317565
 10
11999.747350039685
 20
-21106.964841805384
 10
11995.747350039688
 20
-21106.964841805395
 10
11995.74735003968
 20
-21135.85106317564
  0
LWPOLYLINE
  5
5C
330
17
100
AcDbEntity
  8
FP-Furniture
 62
8
100
AcDbPolyline
 90
4
 70
1
 10
11999.747350039685
 20
-20697.629708373548
 10
11999.747350039685
 20
-20726.515929743815
 10
11995.747350039688
 20
-20726.515929743804
 10
11995.74735003968
 20
-20697.62970837356
  0
LWPOLYLINE
  5
5D
330
17
100
AcDbEntity
  8
FP-Furniture
 62
8
100
AcDbPolyline
 90
4
 70
1
 10
11999.747350039685
 20
-20624.129708373624
 10
11999.747350039685
 20
-20653.01592974389
 10
11995.747350039688
 20
-20653.01592974388
 10
11995.74735003968
 20
-20624.129708373635
  0
LWPOLYLINE
  5
5E
330
17
100
AcDbEntity
  8
FP-Furniture
 62
8
100
AcDbPolyline
 90
4
 70
1
 10
11999.747350039685
 20
-20579.603273242305
 10
11999.747350039685
 20
-20550.717051872038
 10
11995.747350039688
 20
-20550.71705187205
 10
11995.74735003968
 20
-20579.603273242294
  0
LWPOLYLINE
  5
5F
330
17
100
AcDbEntity
  8
FP-Furniture
 62
8
100
AcDbPolyline
 90
4
 70
0
 10
12028.408987427287
 20
-21282.869444393313
 10
12000.678757146441
 20
-21282.869444393356
 10
12000.678757146441
 20
-21278.966870614837
 10
12028.40898742729
 20
-21278.9668706148
  0
LWPOLYLINE
  5
60
330
17
100
AcDbEntity
  8
FP-Furniture
 62
8
100
AcDbPolyline
 90
4
 70
0
 10
12028.408987427287
 20
-21253.771773590677
 10
12000.678757146441
 20
-21253.77177359072
 10
12000.678757146441
 20
-21257.674347369226
 10
12028.40898742728
 20
-21257.674347369182
  0
LWPOLYLINE
  5
61
330
17
100
AcDbEntity
  8
FP-Furniture
 62
8
100
AcDbPolyline
 90
4
 70
0
 10
12028.408987427287
 20
-21209.36944439339
 10
12000.678757146441
 20
-21209.369444393433
 10
12000.678757146441
 20
-21205.466870614913
 10
12028.40898742729
 20
-21205.466870614877
  0
LWPOLYLINE
  5
62
330
17
100
AcDbEntity
  8
FP-Furniture
 62
8
100
AcDbPolyline
 90
4
 70
0
 10
12028.408987427287
 20
-21180.271773590754
 10
12000.678757146441
 20
-21180.271773590797
 10
12000.678757146441
 20
-21184.174347369302
 10
12028.40898742728
 20
-21184.17434736926
  0
LWPOLYLINE
  5
63
330
17
100
AcDbEntity
  8
FP-Furniture
 62
8
100
AcDbPolyline
 90
4
 70
0
 10
12028.408987427287
 20
-21135.956787891868
 10
12000.678757146441
 20
-21135.956787891824
 10
12000.678757146441
 20
-21132.05421411332
 10
12028.40898742728
 20
-21132.054214113363
  0
LWPOLYLINE
  5
64
330
17
100
AcDbEntity
  8
FP-Furniture
 62
8
100
AcDbPolyline
 90
4
 70
0
 10
12028.408987427287
 20
-21106.859117089232
 10
12000.678757146441
 20
-21106.85911708919
 10
12000.678757146441
 20
-21110.76169086771
 10
12028.40898742729
 20
-21110.761690867745
  0
LWPOLYLINE
  5
65
330
17
100
AcDbEntity
  8
FP-Furniture
 62
8
100
AcDbPolyline
 90
4
 70
0
 10
12028.408987427287
 20
-20726.621654459967
 10
12000.678757146441
 20
-20726.62165446001
 10
12000.678757146441
 20
-20722.71908068149
 10
12028.40898742729
 20
-20722.719080681454
  0
LWPOLYLINE
  5
66
330
17
100
AcDbEntity
  8
FP-Furniture
 62
8
100
AcDbPolyline
 90
4
 70
0
 10
12028.408987427287
 20
-20697.52398365733
 10
12000.678757146441
 20
-20697.523983657375
 10
12000.678757146441
 20
-20701.42655743588
 10
12028.40898742728
 20
-20701.426557435836
  0
LWPOLYLINE
  5
67
330
17
100
AcDbEntity
  8
FP-Furniture
 62
8
100
AcDbPolyline
 90
4
 70
0
 10
12028.408987427287
 20
-20653.121654460043
 10
12000.678757146441
 20
-20653.121654460087
 10
12000.678757146441
 20
-20649.219080681567
 10
12028.40898742729
 20
-20649.21908068153
  0
LWPOLYLINE
  5
68
330
17
100
AcDbEntity
  8
FP-Furniture
 62
8
100
AcDbPolyline
 90
4
 70
0
 10
12028.408987427287
 20
-20624.023983657407
 10
12000.678757146441
 20
-20624.02398365745
 10
12000.678757146441
 20
-20627.926557435956
 10
12028.40898742728
 20
-20627.926557435912
  0
LWPOLYLINE
  5
69
330
17
100
AcDbEntity
  8
FP-Furniture
 62
8
100
AcDbPolyline
 90
4
 70
0
 10
12028.408987427287
 20
-20579.70899795852
 10
12000.678757146441
 20
-20579.708997958478
 10
12000.678757146441
 20
-20575.806424179973
 10
12028.40898742728
 20
-20575.806424180017
  0
LWPOLYLINE
  5
6A
330
17
100
AcDbEntity
  8
FP-Furniture
 62
8
100
AcDbPolyline
 90
4
 70
0
 10
12028.408987427287
 20
-20550.611327155886
 10
12000.678757146441
 20
-20550.611327155842
 10
12000.678757146441
 20
-20554.513900934362
 10
12028.40898742729
 20
-20554.5139009344
  0
LINE
  5
6B
330
17
100
AcDbEntity
  8
FP-Above
 62
8
 48
0.4
100
AcDbLine
 10
12020.269778033799
 20
-21253.364280741225
 30
0.0
 11
12020.269778033799
 21
-21283.36428074122
 31
0.0
  0
LINE
  5
6C
330
17
100
AcDbEntity
  8
FP-Above
 62
8
 48
0.4
100
AcDbLine
 10
12020.269778033799
 20
-21179.8642807413
 30
0.0
 11
12020.269778033799
 21
-21209.864280741298
 31
0.0
  0
LINE
  5
6D
330
17
100
AcDbEntity
  8
FP-Above
 62
8
 48
0.4
100
AcDbLine
 10
12020.269778033799
 20
-21136.36428074132
 30
0.0
 11
12020.269778033799
 21
-21106.364280741323
 31
0.0
  0
LINE
  5
6E
330
17
100
AcDbEntity
  8
FP-Above
 62
8
 48
0.4
100
AcDbLine
 10
12020.269778033799
 20
-20697.11649080788
 30
0.0
 11
12020.269778033799
 21
-20727.116490807875
 31
0.0
  0
LINE
  5
6F
330
17
100
AcDbEntity
  8
FP-Above
 62
8
 48
0.4
100
AcDbLine
 10
12020.269778033799
 20
-20623.616490807955
 30
0.0
 11
12020.269778033799
 21
-20653.61649080795
 31
0.0
  0
LINE
  5
70
330
17
100
AcDbEntity
  8
FP-Above
 62
8
 48
0.4
100
AcDbLine
 10
12020.269778033799
 20
-20580.116490807974
 30
0.0
 11
12020.269778033799
 21
-20550.116490807977
 31
0.0
  0
LINE
  5
71
330
17
100
AcDbEntity
  8
FP-Furniture
 62
8
100
AcDbLine
 10
12028.40898742728
 20
-21257.674347369182
 30
0.0
 11
12028.408987427287
 21
-21253.771773590677
 31
0.0
  0
LINE
  5
72
330
17
100
AcDbEntity
  8
FP-Furniture
 62
8
100
AcDbLine
 10
12028.40898742728
 20
-21184.17434736926
 30
0.0
 11
12028.408987427287
 21
-21180.271773590754
 31
0.0
  0
LINE
  5
73
330
17
100
AcDbEntity
  8
FP-Furniture
 62
8
100
AcDbLine
 10
12028.40898742728
 20
-21132.054214113363
 30
0.0
 11
12028.408987427287
 21
-21135.956787891868
 31
0.0
  0
LINE
  5
74
330
17
100
AcDbEntity
  8
FP-Furniture
 62
8
100
AcDbLine
 10
12028.40898742728
 20
-20701.426557435836
 30
0.0
 11
12028.408987427287
 21
-20697.52398365733
 31
0.0
  0
LINE
  5
75
330
17
100
AcDbEntity
  8
FP-Furniture
 62
8
100
AcDbLine
 10
12028.40898742728
 20
-20627.926557435912
 30
0.0
 11
12028.408987427287
 21
-20624.023983657407
 31
0.0
  0
LINE
  5
76
330
17
100
AcDbEntity
  8
FP-Furniture
 62
8
100
AcDbLine
 10
12028.40898742728
 20
-20575.806424180017
 30
0.0
 11
12028.408987427287
 21
-20579.70899795852
 31
0.0
  0
LINE
  5
77
330
17
100
AcDbEntity
  8
FP-Furniture
 62
8
100
AcDbLine
 10
12028.408987427287
 20
-21282.869444393313
 30
0.0
 11
12028.40898742729
 21
-21278.9668706148
 31
0.0
  0
LINE
  5
78
330
17
100
AcDbEntity
  8
FP-Furniture
 62
8
100
AcDbLine
 10
12028.408987427287
 20
-21209.36944439339
 30
0.0
 11
12028.40898742729
 21
-21205.466870614877
 31
0.0
  0
LINE
  5
79
330
17
100
AcDbEntity
  8
FP-Furniture
 62
8
100
AcDbLine
 10
12028.408987427287
 20
-21106.859117089232
 30
0.0
 11
12028.40898742729
 21
-21110.761690867745
 31
0.0
  0
LINE
  5
7A
330
17
100
AcDbEntity
  8
FP-Furniture
 62
8
100
AcDbLine
 10
12028.408987427287
 20
-20726.621654459967
 30
0.0
 11
12028.40898742729
 21
-20722.719080681454
 31
0.0
  0
LINE
  5
7B
330
17
100
AcDbEntity
  8
FP-Furniture
 62
8
100
AcDbLine
 10
12028.408987427287
 20
-20653.121654460043
 30
0.0
 11
12028.40898742729
 21
-20649.21908068153
 31
0.0
  0
LINE
  5
7C
330
17
100
AcDbEntity
  8
FP-Furniture
 62
8
100
AcDbLine
 10
12028.408987427287
 20
-20550.611327155886
 30
0.0
 11
12028.40898742729
 21
-20554.5139009344
 31
0.0
  0
LINE
  5
7D
330
17
100
AcDbEntity
  8
FP-Above
 62
8
 48
0.4
100
AcDbLine
 10
12045.269778033799
 20
-21253.36428074121
 30
0.0
 11
12045.269778033799
 21
-21283.36428074121
 31
0.0
  0
LINE
  5
7E
330
17
100
AcDbEntity
  8
FP-Above
 62
8
 48
0.4
100
AcDbLine
 10
12045.269778033799
 20
-21179.864280741287
 30
0.0
 11
12045.269778033799
 21
-21209.864280741283
 31
0.0
  0
LINE
  5
7F
330
17
100
AcDbEntity
  8
FP-Above
 62
8
 48
0.4
100
AcDbLine
 10
12045.269778033799
 20
-21136.364280741334
 30
0.0
 11
12045.269778033799
 21
-21106.364280741334
 31
0.0
  0
LINE
  5
80
330
17
100
AcDbEntity
  8
FP-Above
 62
8
 48
0.4
100
AcDbLine
 10
12045.269778033799
 20
-20697.116490807864
 30
0.0
 11
12045.269778033799
 21
-20727.116490807864
 31
0.0
  0
LINE
  5
81
330
17
100
AcDbEntity
  8
FP-Above
 62
8
 48
0.4
100
AcDbLine
 10
12045.269778033799
 20
-20623.61649080794
 30
0.0
 11
12045.269778033799
 21
-20653.616490807937
 31
0.0
  0
LINE
  5
82
330
17
100
AcDbEntity
  8
FP-Above
 62
8
 48
0.4
100
AcDbLine
 10
12045.269778033799
 20
-20580.116490807988
 30
0.0
 11
12045.269778033799
 21
-20550.116490807988
 31
0.0
  0
LWPOLYLINE
  5
83
330
17
100
AcDbEntity
  8
FP-Stair
100
AcDbPolyline
 90
4
 70
1
 10
12137.213955584175
 20
-20616.121663782757
 10
12377.213955584175
 20
-20616.121663782757
 10
12377.213955584175
 20
-21216.121663782757
 10
12137.213955584175
 20
-21216.121663782757
  0
LINE
  5
84
330
17
100
AcDbEntity
  8
FP-Stair
100
AcDbLine
 10
12645.213955584175
 20
-21087.121441036343
 30
0.0
 11
12545.213955584175
 21
-21087.121441036343
 31
0.0
  0
LINE
  5
85
330
17
100
AcDbEntity
  8
FP-Stair
100
AcDbLine
 10
12545.213955584175
 20
-21079.121441036343
 30
0.0
 11
12545.213955584175
 21
-21087.121441036343
 31
0.0
  0
LINE
  5
86
330
17
100
AcDbEntity
  8
FP-Stair
100
AcDbLine
 10
12545.213955584175
 20
-21029.121441036343
 30
0.0
 11
12545.213955584175
 21
-21079.121441036343
 31
0.0
  0
LINE
  5
87
330
17
100
AcDbEntity
  8
FP-Stair
100
AcDbLine
 10
12595.213955584175
 20
-21079.121441036343
 30
0.0
 11
12545.213955584175
 21
-21079.121441036343
 31
0.0
  0
LINE
  5
88
330
17
100
AcDbEntity
  8
FP-Stair
100
AcDbLine
 10
12595.213955584175
 20
-21029.121441036343
 30
0.0
 11
12545.213955584175
 21
-21029.121441036343
 31
0.0
  0
LWPOLYLINE
  5
89
330
17
100
AcDbEntity
  8
FP-Stair
100
AcDbPolyline
 90
4
 70
1
 10
12545.213955584175
 20
-21029.121441036343
 10
12545.213955584175
 20
-20803.12188652917
 10
12585.213955584175
 20
-20803.12188652917
 10
12585.213955584175
 20
-21029.121441036343
  0
LINE
  5
8A
330
17
100
AcDbEntity
  8
FP-Stair
100
AcDbLine
 10
12595.213955584175
 20
-20803.12188652917
 30
0.0
 11
12545.213955584175
 21
-20803.12188652917
 31
0.0
  0
LINE
  5
8B
330
17
100
AcDbEntity
  8
FP-Stair
100
AcDbLine
 10
12545.213955584175
 20
-20803.12188652917
 30
0.0
 11
12545.213955584175
 21
-20753.12188652917
 31
0.0
  0
LINE
  5
8C
330
17
100
AcDbEntity
  8
FP-Stair
100
AcDbLine
 10
12595.213955584175
 20
-20753.12188652917
 30
0.0
 11
12545.213955584175
 21
-20753.12188652917
 31
0.0
  0
LINE
  5
8D
330
17
100
AcDbEntity
  8
FP-Stair
100
AcDbLine
 10
12545.213955584175
 20
-20753.12188652917
 30
0.0
 11
12545.213955584175
 21
-20745.12188652917
 31
0.0
  0
LINE
  5
8E
330
17
100
AcDbEntity
  8
FP-Stair
100
AcDbLine
 10
12645.213955584175
 20
-20745.12188652917
 30
0.0
 11
12545.213955584175
 21
-20745.12188652917
 31
0.0
  0
LINE
  5
8F
330
17
100
AcDbEntity
  8
FP-Stair
100
AcDbLine
 10
12545.213955584182
 20
-21077.926788052733
 30
0.0
 11
12595.213955584175
 21
-21077.92678805273
 31
0.0
  0
LINE
  5
90
330
17
100
AcDbEntity
  8
FP-Stair
100
AcDbLine
 10
12595.213955584175
 20
-21076.92678805273
 30
0.0
 11
12545.213955584182
 21
-21076.92678805273
 31
0.0
  0
LINE
  5
91
330
17
100
AcDbEntity
  8
FP-Stair
100
AcDbLine
 10
12595.213955584175
 20
-20755.316659112676
 30
0.0
 11
12545.213955584182
 21
-20755.316659112676
 31
0.0
  0
LINE
  5
92
330
17
100
AcDbEntity
  8
FP-Stair
100
AcDbLine
 10
12545.213955584182
 20
-20754.316659112672
 30
0.0
 11
12595.213955584175
 21
-20754.316659112676
 31
0.0
  0
LWPOLYLINE
  5
93
330
17
100
AcDbEntity
  8
FP-Stair
100
AcDbPolyline
 90
4
 70
1
 10
12553.213955584175
 20
-21021.121441036343
 10
12553.213955584175
 20
-20811.12188652917
 10
12577.213955584175
 20
-20811.12188652917
 10
12577.213955584175
 20
-21021.121441036343
  0
LINE
  5
94
330
17
100
AcDbEntity
  8
FP-Stair
100
AcDbLine
 10
12555.213955584175
 20
-21029.121441036343
 30
0.0
 11
12555.213955584175
 21
-21079.121441036343
 31
0.0
  0
LINE
  5
95
330
17
100
AcDbEntity
  8
FP-Stair
100
AcDbLine
 10
12555.213955584175
 20
-20803.12188652917
 30
0.0
 11
12555.213955584175
 21
-20753.12188652917
 31
0.0
  0
LINE
  5
96
330
17
100
AcDbEntity
  8
FP-Stair
100
AcDbLine
 10
12565.213955584175
 20
-21029.121441036343
 30
0.0
 11
12565.213955584175
 21
-21079.121441036343
 31
0.0
  0
LINE
  5
97
330
17
100
AcDbEntity
  8
FP-Stair
100
AcDbLine
 10
12565.213955584175
 20
-20803.12188652917
 30
0.0
 11
12565.213955584175
 21
-20753.12188652917
 31
0.0
  0
LINE
  5
98
330
17
100
AcDbEntity
  8
FP-Stair
100
AcDbLine
 10
12575.213955584175
 20
-21029.121441036343
 30
0.0
 11
12575.213955584175
 21
-21079.121441036343
 31
0.0
  0
LINE
  5
99
330
17
100
AcDbEntity
  8
FP-Stair
100
AcDbLine
 10
12575.213955584175
 20
-20803.12188652917
 30
0.0
 11
12575.213955584175
 21
-20753.12188652917
 31
0.0
  0
LINE
  5
9A
330
17
100
AcDbEntity
  8
FP-Stair
100
AcDbLine
 10
12585.213955584175
 20
-21029.121441036343
 30
0.0
 11
12585.213955584175
 21
-21079.121441036343
 31
0.0
  0
LINE
  5
9B
330
17
100
AcDbEntity
  8
FP-Proposed Wall
100
AcDbLine
 10
12585.213955584175
 20
-21009.121441036343
 30
0.0
 11
12585.213955584175
 21
-21029.121441036343
 31
0.0
  0
LINE
  5
9C
330
17
100
AcDbEntity
  8
FP-Stair
100
AcDbLine
 10
12645.213955584175
 20
-21009.121441036343
 30
0.0
 11
12585.213955584175
 21
-21009.121441036343
 31
0.0
  0
LINE
  5
9D
330
17
100
AcDbEntity
  8
FP-Stair
100
AcDbLine
 10
12645.213955584175
 20
-20823.12188652917
 30
0.0
 11
12585.213955584175
 21
-20823.12188652917
 31
0.0
  0
LINE
  5
9E
330
17
100
AcDbEntity
  8
FP-Proposed Wall
100
AcDbLine
 10
12585.213955584175
 20
-20823.12188652917
 30
0.0
 11
12585.213955584175
 21
-20803.12188652917
 31
0.0
  0
LINE
  5
9F
330
17
100
AcDbEntity
  8
FP-Stair
100
AcDbLine
 10
12585.213955584175
 20
-20803.12188652917
 30
0.0
 11
12585.213955584175
 21
-20753.12188652917
 31
0.0
  0
LWPOLYLINE
  5
A0
330
17
100
AcDbEntity
  8
FP-Stair
100
AcDbPolyline
 90
4
 70
1
 10
12645.213955584175
 20
-21079.121441036343
 10
12645.213955584175
 20
-21029.121441036343
 10
12595.213955584175
 20
-21029.121441036343
 10
12595.213955584175
 20
-21079.121441036343
  0
LINE
  5
A1
330
17
100
AcDbEntity
  8
FP-Stair
100
AcDbLine
 10
12595.213955584175
 20
-21029.121441036343
 30
0.0
 11
12595.213955584175
 21
-21019.121441036343
 31
0.0
  0
LINE
  5
A2
330
17
100
AcDbEntity
  8
FP-Stair
100
AcDbLine
 10
12645.213955584175
 20
-21019.121441036343
 30
0.0
 11
12595.213955584175
 21
-21019.121441036343
 31
0.0
  0
LINE
  5
A3
330
17
100
AcDbEntity
  8
FP-Stair
100
AcDbLine
 10
12645.213955584175
 20
-20813.12188652917
 30
0.0
 11
12595.213955584175
 21
-20813.12188652917
 31
0.0
  0
LINE
  5
A4
330
17
100
AcDbEntity
  8
FP-Stair
100
AcDbLine
 10
12595.213955584175
 20
-20803.12188652917
 30
0.0
 11
12595.213955584175
 21
-20813.12188652917
 31
0.0
  0
LWPOLYLINE
  5
A5
330
17
100
AcDbEntity
  8
FP-Stair
100
AcDbPolyline
 90
4
 70
1
 10
12645.213955584175
 20
-20753.12188652917
 10
12645.213955584175
 20
-20803.12188652917
 10
12595.213955584175
 20
-20803.12188652917
 10
12595.213955584175
 20
-20753.12188652917
  0
LWPOLYLINE
  5
A6
330
17
100
AcDbEntity
  8
FP-Stair
100
AcDbPolyline
 90
4
 70
0
 38
-0.6806063531139644
 10
12619.213955584204
 20
-21337.623064551095
 10
12609.213955584204
 20
-21337.623064551095
 10
12609.213955584197
 20
-21109.69954667601
 10
12629.213955584175
 20
-21109.69954667601
  0
LWPOLYLINE
  5
A7
330
17
100
AcDbEntity
  8
FP-Stair
100
AcDbPolyline
 90
4
 70
0
 38
-0.6806063531139644
 10
12619.213955584197
 20
-20494.62123035109
 10
12609.213955584197
 20
-20494.62123035109
 10
12609.2139555842
 20
-20722.6207607361
 10
12629.213955584182
 20
-20722.6207607361
  0
LWPOLYLINE
  5
A8
330
17
100
AcDbEntity
  8
FP-Stair
100
AcDbPolyline
 90
4
 70
0
 38
-0.3403031765569822
 10
12629.2139555842
 20
-21337.623064551095
 10
12619.2139555842
 20
-21337.623064551095
 10
12619.213955584193
 20
-21109.623534166087
 10
12629.213955584171
 20
-21109.623534166087
  0
LWPOLYLINE
  5
A9
330
17
100
AcDbEntity
  8
FP-Stair
100
AcDbPolyline
 90
4
 70
0
 38
-0.3403031765569822
 10
12629.213955584193
 20
-20494.62123035109
 10
12619.213955584193
 20
-20494.62123035109
 10
12619.213955584197
 20
-20722.69677324602
 10
12629.213955584175
 20
-20722.69677324602
  0
LWPOLYLINE
  5
AA
330
17
100
AcDbEntity
  8
FP-Stair
100
AcDbPolyline
 90
4
 70
0
 38
-0.3403031765569822
 10
12733.213955584197
 20
-21337.623064551095
 10
12629.213955584197
 20
-21337.623064551095
 10
12629.213955584175
 20
-21109.623534166087
 10
12645.213955584175
 20
-21109.623534166087
  0
LWPOLYLINE
  5
AB
330
17
100
AcDbEntity
  8
FP-Proposed Wall
100
AcDbPolyline
 90
4
 70
1
 10
12645.213955584175
 20
-21125.623534166087
 10
12645.213955584175
 20
-21109.623534166087
 10
12629.213955584175
 20
-21109.623534166087
 10
12629.213955584175
 20
-21125.623534166087
  0
LWPOLYLINE
  5
AC
330
17
100
AcDbEntity
  8
FP-Stair
100
AcDbPolyline
 90
4
 70
0
 38
-0.3403031765569822
 10
12645.213955584175
 20
-20722.61991299932
 10
12629.213955584197
 20
-20722.6207607361
 10
12629.213955584175
 20
-20494.62123035109
 10
12733.213955584197
 20
-20494.62123035109
  0
LWPOLYLINE
  5
AD
330
17
100
AcDbEntity
  8
FP-Proposed Wall
100
AcDbPolyline
 90
4
 70
1
 10
12645.213955584175
 20
-20510.62123035109
 10
12645.213955584175
 20
-20494.62123035109
 10
12629.213955584175
 20
-20494.62123035109
 10
12629.213955584175
 20
-20510.62123035109
  0
LWPOLYLINE
  5
AE
330
17
100
AcDbEntity
  8
FP-Proposed Wall
100
AcDbPolyline
 90
4
 70
1
 10
12645.213955584197
 20
-21337.623064551095
 10
12645.213955584197
 20
-21321.623064551095
 10
12629.213955584197
 20
-21321.623064551095
 10
12629.213955584197
 20
-21337.623064551095
  0
LWPOLYLINE
  5
AF
330
17
100
AcDbEntity
  8
FP-Proposed Wall
100
AcDbPolyline
 90
4
 70
1
 10
12645.213955584197
 20
-20722.6207607361
 10
12645.213955584197
 20
-20706.6207607361
 10
12629.213955584197
 20
-20706.6207607361
 10
12629.213955584197
 20
-20722.6207607361
  0
LWPOLYLINE
  5
B0
330
17
100
AcDbEntity
  8
FP-Wall Detail
100
AcDbPolyline
 90
4
 70
1
 10
12641.713955584175
 20
-21122.123534166087
 10
12641.713955584175
 20
-21113.123534166087
 10
12632.713955584175
 20
-21113.123534166087
 10
12632.713955584175
 20
-21122.123534166087
  0
LWPOLYLINE
  5
B1
330
17
100
AcDbEntity
  8
FP-Wall Detail
100
AcDbPolyline
 90
4
 70
1
 10
12641.713955584175
 20
-20507.12123035109
 10
12641.713955584175
 20
-20498.12123035109
 10
12632.713955584175
 20
-20498.12123035109
 10
12632.713955584175
 20
-20507.12123035109
  0
LWPOLYLINE
  5
B2
330
17
100
AcDbEntity
  8
FP-Wall Detail
100
AcDbPolyline
 90
4
 70
1
 10
12641.713955584197
 20
-21334.123064551095
 10
12641.713955584197
 20
-21325.123064551095
 10
12632.713955584197
 20
-21325.123064551095
 10
12632.713955584197
 20
-21334.123064551095
  0
LWPOLYLINE
  5
B3
330
17
100
AcDbEntity
  8
FP-Wall Detail
100
AcDbPolyline
 90
4
 70
1
 10
12641.713955584197
 20
-20719.1207607361
 10
12641.713955584197
 20
-20710.1207607361
 10
12632.713955584197
 20
-20710.1207607361
 10
12632.713955584197
 20
-20719.1207607361
  0
LWPOLYLINE
  5
B4
330
17
100
AcDbEntity
  8
FP-Wall Detail
100
AcDbPolyline
 90
4
 70
1
 10
12641.213955584175
 20
-21121.623534166087
 10
12641.213955584175
 20
-21113.623534166087
 10
12633.213955584175
 20
-21113.623534166087
 10
12633.213955584175
 20
-21121.623534166087
  0
LWPOLYLINE
  5
B5
330
17
100
AcDbEntity
  8
FP-Wall Detail
100
AcDbPolyline
 90
4
 70
1
 10
12641.213955584175
 20
-20506.62123035109
 10
12641.213955584175
 20
-20498.62123035109
 10
12633.213955584175
 20
-20498.62123035109
 10
12633.213955584175
 20
-20506.62123035109
  0
LWPOLYLINE
  5
B6
330
17
100
AcDbEntity
  8
FP-Wall Detail
100
AcDbPolyline
 90
4
 70
1
 10
12641.213955584197
 20
-21333.623064551095
 10
12641.213955584197
 20
-21325.623064551095
 10
12633.213955584197
 20
-21325.623064551095
 10
12633.213955584197
 20
-21333.623064551095
  0
LWPOLYLINE
  5
B7
330
17
100
AcDbEntity
  8
FP-Wall Detail
100
AcDbPolyline
 90
4
 70
1
 10
12641.213955584197
 20
-20718.6207607361
 10
12641.213955584197
 20
-20710.6207607361
 10
12633.213955584197
 20
-20710.6207607361
 10
12633.213955584197
 20
-20718.6207607361
  0
LWPOLYLINE
  5
B8
330
17
100
AcDbEntity
  8
FP-Wall Detail
100
AcDbPolyline
 90
4
 70
1
 10
12640.713955584175
 20
-21121.123534166087
 10
12640.713955584175
 20
-21114.123534166087
 10
12633.713955584175
 20
-21114.123534166087
 10
12633.713955584175
 20
-21121.123534166087
  0
LWPOLYLINE
  5
B9
330
17
100
AcDbEntity
  8
FP-Wall Detail
100
AcDbPolyline
 90
4
 70
1
 10
12640.713955584175
 20
-20506.12123035109
 10
12640.713955584175
 20
-20499.12123035109
 10
12633.713955584175
 20
-20499.12123035109
 10
12633.713955584175
 20
-20506.12123035109
  0
LWPOLYLINE
  5
BA
330
17
100
AcDbEntity
  8
FP-Wall Detail
100
AcDbPolyline
 90
4
 70
1
 10
12640.713955584197
 20
-21333.123064551095
 10
12640.713955584197
 20
-21326.123064551095
 10
12633.713955584197
 20
-21326.123064551095
 10
12633.713955584197
 20
-21333.123064551095
  0
LWPOLYLINE
  5
BB
330
17
100
AcDbEntity
  8
FP-Wall Detail
100
AcDbPolyline
 90
4
 70
1
 10
12640.713955584197
 20
-20718.1207607361
 10
12640.713955584197
 20
-20711.1207607361
 10
12633.713955584197
 20
-20711.1207607361
 10
12633.713955584197
 20
-20718.1207607361
  0
LINE
  5
BC
330
17
100
AcDbEntity
  8
FP-Stair
100
AcDbLine
 10
12645.213955584175
 20
-21117.623534166087
 30
0.0
 11
12733.213955584197
 21
-21117.623534166087
 31
0.0
  0
LINE
  5
BD
330
17
100
AcDbEntity
  8
FP-Stair
100
AcDbLine
 10
12645.213955584175
 20
-21109.623534166087
 30
0.0
 11
12645.213955584175
 21
-21087.121441036343
 31
0.0
  0
LINE
  5
BE
330
17
100
AcDbEntity
  8
FP-Stair
100
AcDbLine
 10
12645.213955584175
 20
-21029.121441036343
 30
0.0
 11
12645.213955584175
 21
-20979.121441036343
 31
0.0
  0
LINE
  5
BF
330
17
100
AcDbEntity
  8
FP-Stair
100
AcDbLine
 10
12645.213955584175
 20
-20979.121441036343
 30
0.0
 11
12683.716048713923
 21
-20979.121441036343
 31
0.0
  0
LINE
  5
C0
330
17
100
AcDbEntity
  8
FP-Stair
100
AcDbLine
 10
12645.213955584175
 20
-20979.121441036343
 30
0.0
 11
12645.213955584175
 21
-20853.122006129062
 31
0.0
  0
LINE
  5
C1
330
17
100
AcDbEntity
  8
FP-Stair
100
AcDbLine
 10
12645.213955584175
 20
-20977.926788052733
 30
0.0
 11
12685.213955584175
 21
-20977.92678805273
 31
0.0
  0
LINE
  5
C2
330
17
100
AcDbEntity
  8
FP-Stair
100
AcDbLine
 10
12685.213955584175
 20
-20976.92678805273
 30
0.0
 11
12645.213955584175
 21
-20976.92678805273
 31
0.0
  0
LINE
  5
C3
330
17
100
AcDbEntity
  8
FP-Stair
100
AcDbLine
 10
12685.213955584175
 20
-20855.316659112676
 30
0.0
 11
12645.213955584175
 21
-20855.316659112676
 31
0.0
  0
LINE
  5
C4
330
17
100
AcDbEntity
  8
FP-Stair
100
AcDbLine
 10
12645.213955584175
 20
-20854.316659112672
 30
0.0
 11
12685.213955584175
 21
-20854.316659112676
 31
0.0
  0
LINE
  5
C5
330
17
100
AcDbEntity
  8
FP-Stair
100
AcDbLine
 10
12645.213955584175
 20
-20803.12188652917
 30
0.0
 11
12645.213955584175
 21
-20853.122006129062
 31
0.0
  0
LINE
  5
C6
330
17
100
AcDbEntity
  8
FP-Stair
100
AcDbLine
 10
12645.213955584175
 20
-20853.122006129062
 30
0.0
 11
12683.716048713923
 21
-20853.122006129062
 31
0.0
  0
LINE
  5
C7
330
17
100
AcDbEntity
  8
FP-Stair
100
AcDbLine
 10
12645.213955584175
 20
-20722.61991299932
 30
0.0
 11
12645.213955584175
 21
-20745.12188652917
 31
0.0
  0
LINE
  5
C8
330
17
100
AcDbEntity
  8
FP-Stair
100
AcDbLine
 10
12645.213955584175
 20
-20714.61991299932
 30
0.0
 11
12733.213955584197
 21
-20714.61991299932
 31
0.0
  0
LINE
  5
C9
330
17
100
AcDbEntity
  8
FP-Stair
100
AcDbLine
 10
12653.213955584175
 20
-21109.623534166087
 30
0.0
 11
12653.213955584175
 21
-21087.121441036343
 31
0.0
  0
LINE
  5
CA
330
17
100
AcDbEntity
  8
FP-Stair
100
AcDbLine
 10
12653.213955584175
 20
-21109.623534166087
 30
0.0
 11
12733.213955584197
 21
-21109.623534166087
 31
0.0
  0
LINE
  5
CB
330
17
100
AcDbEntity
  8
FP-Stair
100
AcDbLine
 10
12653.213955584175
 20
-21087.121441036343
 30
0.0
 11
12749.213955584197
 21
-21087.121441036343
 31
0.0
  0
LWPOLYLINE
  5
CC
330
17
100
AcDbEntity
  8
FP-Stair
100
AcDbPolyline
 90
4
 70
1
 10
12653.213955584175
 20
-21075.121441036343
 10
12653.213955584175
 20
-20987.121441036343
 10
12675.716048713923
 20
-20987.121441036343
 10
12675.716048713923
 20
-21075.121441036343
  0
LWPOLYLINE
  5
CD
330
17
100
AcDbEntity
  8
FP-Stair
100
AcDbPolyline
 90
4
 70
1
 10
12653.213955584175
 20
-20757.122006129062
 10
12653.213955584175
 20
-20845.122006129062
 10
12675.716048713923
 20
-20845.122006129062
 10
12675.716048713923
 20
-20757.122006129062
  0
LINE
  5
CE
330
17
100
AcDbEntity
  8
FP-Stair
100
AcDbLine
 10
12653.213955584175
 20
-20722.619912999322
 30
0.0
 11
12653.213955584175
 21
-20745.122006129062
 31
0.0
  0
LINE
  5
CF
330
17
100
AcDbEntity
  8
FP-Stair
100
AcDbLine
 10
12653.213955584175
 20
-20745.122006129062
 30
0.0
 11
12749.213955584197
 21
-20745.122006129062
 31
0.0
  0
LINE
  5
D0
330
17
100
AcDbEntity
  8
FP-Stair
100
AcDbLine
 10
12653.213955584175
 20
-20722.619912999322
 30
0.0
 11
12733.213955584197
 21
-20722.61991299932
 31
0.0
  0
LINE
  5
D1
330
17
100
AcDbEntity
  8
FP-Stair
100
AcDbLine
 10
12655.213955584175
 20
-20979.121441036343
 30
0.0
 11
12655.213955584175
 21
-20853.122006129062
 31
0.0
  0
LINE
  5
D2
330
17
100
AcDbEntity
  8
FP-Stair
100
AcDbLine
 10
12665.213955584175
 20
-20979.121441036343
 30
0.0
 11
12665.213955584175
 21
-20853.122006129062
 31
0.0
  0
LINE
  5
D3
330
17
100
AcDbEntity
  8
FP-Stair
100
AcDbLine
 10
12675.213955584175
 20
-20979.121441036343
 30
0.0
 11
12675.213955584175
 21
-20853.122006129062
 31
0.0
  0
LINE
  5
D4
330
17
100
AcDbEntity
  8
FP-Stair
100
AcDbLine
 10
12683.716048713923
 20
-20979.121441036343
 30
0.0
 11
12683.716048713923
 21
-21079.121441036343
 31
0.0
  0
LINE
  5
D5
330
17
100
AcDbEntity
  8
FP-Stair
100
AcDbLine
 10
12683.716048713923
 20
-21079.121441036343
 30
0.0
 11
12749.213955584197
 21
-21079.121441036343
 31
0.0
  0
LINE
  5
D6
330
17
100
AcDbEntity
  8
FP-Stair
100
AcDbLine
 10
12695.213955584175
 20
-20989.121441036343
 30
0.0
 11
12683.716048713923
 21
-20989.121441036343
 31
0.0
  0
LINE
  5
D7
330
17
100
AcDbEntity
  8
FP-Stair
100
AcDbLine
 10
12685.213955584175
 20
-20979.121441036343
 30
0.0
 11
12683.716048713923
 21
-20979.121441036343
 31
0.0
  0
LINE
  5
D8
330
17
100
AcDbEntity
  8
FP-Stair
100
AcDbLine
 10
12683.716048713923
 20
-20853.122006129062
 30
0.0
 11
12683.716048713923
 21
-20753.122006129062
 31
0.0
  0
LINE
  5
D9
330
17
100
AcDbEntity
  8
FP-Stair
100
AcDbLine
 10
12685.213955584175
 20
-20853.122006129062
 30
0.0
 11
12683.716048713923
 21
-20853.122006129062
 31
0.0
  0
LINE
  5
DA
330
17
100
AcDbEntity
  8
FP-Stair
100
AcDbLine
 10
12695.213955584175
 20
-20843.122006129062
 30
0.0
 11
12683.716048713923
 21
-20843.122006129062
 31
0.0
  0
LINE
  5
DB
330
17
100
AcDbEntity
  8
FP-Stair
100
AcDbLine
 10
12749.213955584197
 20
-20753.122006129062
 30
0.0
 11
12683.716048713923
 21
-20753.122332021827
 31
0.0
  0
LINE
  5
DC
330
17
100
AcDbEntity
  8
FP-Stair
100
AcDbLine
 10
12685.213955584175
 20
-20979.121441036343
 30
0.0
 11
12685.213955584175
 21
-20853.122006129062
 31
0.0
  0
LINE
  5
DD
330
17
100
AcDbEntity
  8
FP-Stair
100
AcDbLine
 10
12695.213955584175
 20
-20979.121441036343
 30
0.0
 11
12695.213955584175
 21
-20989.121441036343
 31
0.0
  0
LINE
  5
DE
330
17
100
AcDbEntity
  8
FP-Stair
100
AcDbLine
 10
12695.213955584175
 20
-20979.121441036343
 30
0.0
 11
12695.213955584175
 21
-20853.122006129062
 31
0.0
  0
LINE
  5
DF
330
17
100
AcDbEntity
  8
FP-Stair
100
AcDbLine
 10
12695.213955584175
 20
-20853.122006129062
 30
0.0
 11
12695.213955584175
 21
-20843.122006129062
 31
0.0
  0
LWPOLYLINE
  5
E0
330
17
100
AcDbEntity
  8
FP-Proposed Wall
100
AcDbPolyline
 90
109
 70
1
 10
13680.047229534193
 20
-20866.119398537485
 10
13680.047229534193
 20
-20864.119398537485
 10
13682.047229533924
 20
-20864.119398537485
 10
13682.047229533924
 20
-20858.119398537485
 10
13690.047229533924
 20
-20858.119398537485
 10
13690.047229533924
 20
-20850.119398537383
 10
13696.047229533924
 20
-20850.119398537383
 10
13696.047229533924
 20
-20848.119398537652
 10
13697.047229533924
 20
-20848.119398537652
 10
13698.047229533924
 20
-20848.119398537652
 10
13698.047229533924
 20
-20824.722106194204
 10
13696.047229533924
 20
-20824.722106194204
 10
13696.047229533924
 20
-20822.722106194473
 10
13690.047229533924
 20
-20822.722106194473
 10
13690.047229533924
 20
-20814.721660693438
 10
13608.54714043537
 20
-20814.7216606933
 10
13608.54714043537
 20
-20739.12411399281
 10
13565.547293675387
 20
-20739.124113992802
 10
13565.54729367435
 20
-20671.126784363187
 10
13577.54729367435
 20
-20671.127675213982
 10
13610.492724530148
 20
-20638.182244358184
 10
13610.492724530148
 20
-20579.068655135256
 10
13577.54729367435
 20
-20546.124115130253
 10
13565.547293675387
 20
-20546.124115130253
 10
13565.547293675387
 20
-20478.124113992795
 10
13633.047140435378
 20
-20478.124113992795
 10
13633.047140435374
 20
-20429.391868079983
 10
13651.047140435378
 20
-20429.39186807994
 10
13651.047140435378
 20
-20264.855469054826
 10
13633.047140435378
 20
-20264.855469054826
 10
13633.047140435378
 20
-20216.124113992795
 10
13216.96410406395
 20
-20216.124113992802
 10
13216.96410406395
 20
-20188.02809207332
 10
13059.547140435374
 20
-20188.02809207332
 10
13059.547140435374
 20
-20278.028092073328
 10
12956.964788081363
 20
-20278.028092073328
 10
12956.964788021922
 20
-20464.12500504464
 10
12749.213955584195
 20
-20464.125004978283
 10
12749.213955584199
 20
-20494.620638041466
 10
12733.213955584199
 20
-20494.621230351084
 10
12733.213955584199
 20
-20510.621230351084
 10
12749.213955584199
 20
-20510.621230351084
 10
12749.213955584199
 20
-20706.620760736092
 10
12733.213955584199
 20
-20706.6207607361
 10
12733.213955584199
 20
-20722.61991299932
 10
12749.213955584144
 20
-20722.620760736107
 10
12749.213955584195
 20
-20753.122332022518
 10
12787.963955583638
 20
-20753.122332022518
 10
12787.963955583637
 20
-21079.12127808996
 10
12749.21395558419
 20
-21079.12127808996
 10
12749.213955584197
 20
-21109.623534166087
 10
12733.213955584197
 20
-21109.623534166087
 10
12733.213955584197
 20
-21125.623534166087
 10
12749.213955584191
 20
-21125.623534166087
 10
12749.213955584193
 20
-21321.623064551095
 10
12733.213955584197
 20
-21321.623064551095
 10
12733.213955584197
 20
-21337.623064551095
 10
12749.213955584191
 20
-21337.623064551095
 10
12749.213955584193
 20
-21368.12055005086
 10
12828.139266047248
 20
-21368.12055005086
 10
12828.139266047248
 20
-21380.1205500774
 10
12924.139266047248
 20
-21380.1205500774
 10
12924.139266049973
 20
-21368.1205500774
 10
12956.964845835126
 20
-21368.1205500774
 10
12956.964845835126
 20
-21554.121441036346
 10
13059.54714043537
 20
-21554.121441036346
 10
13059.54714043537
 20
-21644.21746295582
 10
13216.96410406395
 20
-21644.21746295582
 10
13216.96410406395
 20
-21616.121441036346
 10
13633.047140435374
 20
-21616.121441036346
 10
13633.047140435374
 20
-21567.390085974323
 10
13651.047140435374
 20
-21567.390976825118
 10
13651.047140435374
 20
-21402.85279609837
 10
13633.047140435374
 20
-21402.85279609837
 10
13633.047140435374
 20
-21354.121441036346
 10
13565.547293675387
 20
-21354.121441036346
 10
13565.547293675387
 20
-21286.12143989889
 10
13577.54729367435
 20
-21286.12143989889
 10
13610.492724530148
 20
-21253.17600904309
 10
13610.492724530148
 20
-21194.063310670957
 10
13577.54729367435
 20
-21161.117879815218
 10
13565.547293675387
 20
-21161.117879246747
 10
13565.547293675387
 20
-21093.12144103634
 10
13608.547140435374
 20
-21093.12144103634
 10
13608.54755367387
 20
-21017.523448837062
 10
13690.047229533924
 20
-21017.52389433571
 10
13690.04727326646
 20
-21009.52344883467
 10
13696.047229533924
 20
-21009.523481632008
 10
13696.047229533924
 20
-21007.523448834938
 10
13698.047229533924
 20
-21007.523448834938
 10
13698.047229533924
 20
-20984.126156491497
 10
13696.047229533924
 20
-20984.126156491497
 10
13696.047229533924
 20
-20982.126156491766
 10
13690.047229533924
 20
-20982.126156491766
 10
13690.047229533924
 20
-20974.126156491657
 10
13682.047229533924
 20
-20974.126156491657
 10
13682.047229533924
 20
-20968.126156491657
 10
13680.047229534193
 20
-20968.126156491657
 10
13680.047229534193
 20
-20966.126156491657
 10
13656.649937190748
 20
-20966.126156491657
 10
13656.649937190748
 20
-20968.126156491657
 10
13654.649937191018
 20
-20968.126156491657
 10
13654.649937191018
 20
-20986.126156491657
 10
13586.04729367539
 20
-20986.126156491664
 10
13586.04729367539
 20
-20846.119398537485
 10
13654.649937191018
 20
-20846.119398537485
 10
13654.649937191018
 20
-20864.119398537485
 10
13656.649937190748
 20
-20864.119398537485
 10
13656.649937190748
 20
-20866.119398537485
  0
LWPOLYLINE
  5
E1
330
17
100
AcDbEntity
  8
FP-Window
100
AcDbPolyline
 90
6
 70
0
 10
14063.143162354852
 20
-19832.124113992795
 10
13633.047140435378
 20
-19832.1241139928
 10
13216.964104063956
 20
-19832.124113992802
 10
13216.964104063956
 20
-20068.028092073328
 10
13059.547140435378
 20
-20068.028092073328
 10
13059.547140435378
 20
-20188.028092073328
  0
LWPOLYLINE
  5
E2
330
17
100
AcDbEntity
  8
FP-Window
100
AcDbPolyline
 90
6
 70
0
 10
13059.54714043538
 20
-21644.217462955825
 10
13059.54714043538
 20
-21764.217462955825
 10
13216.96410406396
 20
-21764.217462955825
 10
13216.964104063962
 20
-22000.121441036346
 10
13633.047140435383
 20
-22000.121441036346
 10
14063.143162354852
 20
-22000.121441036346
  0
LWPOLYLINE
  5
E3
330
17
100
AcDbEntity
  8
FP-Stair
100
AcDbPolyline
 90
4
 70
0
 10
13075.005379287977
 20
-20188.12188652908
 10
13075.005379287977
 20
-20162.12188652908
 10
13201.005379287977
 20
-20162.12188652908
 10
13201.005379287977
 20
-20188.12188652908
  0
LWPOLYLINE
  5
E4
330
17
100
AcDbEntity
  8
FP-Stair
100
AcDbPolyline
 90
4
 70
0
 38
-0.3403031765569822
 10
13075.047288916412
 20
-21644.121441036346
 10
13075.047288916412
 20
-21670.121441036346
 10
13201.047288916412
 20
-21670.121441036346
 10
13201.047288916412
 20
-21644.121441036346
  0
LWPOLYLINE
  5
E5
330
17
100
AcDbEntity
  8
FP-Stair
100
AcDbPolyline
 90
4
 70
0
 10
13087.005379287977
 20
-20188.12188652908
 10
13087.005379287977
 20
-20174.12188652908
 10
13189.005379287977
 20
-20174.12188652908
 10
13189.005379287977
 20
-20188.12188652908
  0
LWPOLYLINE
  5
E6
330
17
100
AcDbEntity
  8
FP-Stair
100
AcDbPolyline
 90
4
 70
0
 38
-0.3403031765569822
 10
13087.047288916412
 20
-21644.121441036346
 10
13087.047288916412
 20
-21658.121441036346
 10
13189.047288916412
 20
-21658.121441036346
 10
13189.047288916412
 20
-21644.121441036346
  0
LWPOLYLINE
  5
E7
330
17
100
AcDbEntity
  8
FP-Stair
100
AcDbPolyline
 90
4
 70
0
 38
-0.3403031765569822
 10
13099.047288916412
 20
-21644.121441036346
 10
13099.047288916412
 20
-21646.121441036346
 10
13177.047288916412
 20
-21646.121441036346
 10
13177.047288916412
 20
-21644.121441036346
  0
LWPOLYLINE
  5
E8
330
17
100
AcDbEntity
  8
FP-Proposed Wall
100
AcDbPolyline
 90
12
 70
0
 10
13680.047229534193
 20
-20966.126156491657
 10
13656.649937190748
 20
-20966.126156491657
 10
13656.649937190748
 20
-20968.126156491657
 10
13654.649937191018
 20
-20968.126156491657
 10
13654.649937191018
 20
-20986.126156491657
 10
13586.047293675389
 20
-20986.12615649166
 10
13586.047293675389
 20
-20846.119398537485
 10
13654.649937191018
 20
-20846.119398537485
 10
13654.649937191018
 20
-20864.119398537485
 10
13656.649937190748
 20
-20864.119398537485
 10
13656.649937190748
 20
-20866.119398537485
 10
13680.047229534193
 20
-20866.119398537485
  0
LWPOLYLINE
  5
E9
330
17
100
AcDbEntity
  8
FP-Window
100
AcDbPolyline
 90
3
 70
0
 38
-2.3138712776836745
 10
13608.547140435358
 20
-20812.722106194342
 10
13700.047229533922
 20
-20812.722106194342
 10
13700.047229533922
 20
-20908.122777514574
  0
LWPOLYLINE
  5
EA
330
17
100
AcDbEntity
  8
FP-Window
100
AcDbPolyline
 90
3
 70
0
 38
-2.3138712776836745
 10
13608.54714043536
 20
-21019.5234488348
 10
13700.047229533922
 20
-21019.5234488348
 10
13700.047229533922
 20
-20908.122777514574
  0
LWPOLYLINE
  5
EB
330
17
100
AcDbEntity
  8
FP-Window
100
AcDbPolyline
 90
3
 70
0
 38
-2.3138712776836745
 10
13610.547140435336
 20
-20788.722106194342
 10
13724.047229533922
 20
-20788.722106194342
 10
13724.047229533922
 20
-20908.122777514574
  0
LWPOLYLINE
  5
EC
330
17
100
AcDbEntity
  8
FP-Window
100
AcDbPolyline
 90
3
 70
0
 38
-2.3138712776836745
 10
13610.547140435337
 20
-21043.5234488348
 10
13724.047229533922
 20
-21043.5234488348
 10
13724.047229533922
 20
-20908.122777514574
  0
LWPOLYLINE
  5
ED
330
17
100
AcDbEntity
  8
FP-Window
100
AcDbPolyline
 90
3
 70
0
 38
-2.3138712776836745
 10
13610.547140435341
 20
-21031.5234488348
 10
13712.047229533922
 20
-21031.5234488348
 10
13712.047229533922
 20
-20908.122777514574
  0
LWPOLYLINE
  5
EE
330
17
100
AcDbEntity
  8
FP-Window
100
AcDbPolyline
 90
3
 70
0
 38
-2.3138712776836745
 10
13610.547140435341
 20
-20800.722106194342
 10
13712.047229533922
 20
-20800.722106194342
 10
13712.047229533922
 20
-20908.122777514574
  0
LWPOLYLINE
  5
EF
330
17
100
AcDbEntity
  8
FP-Window
100
AcDbPolyline
 90
4
 70
0
 10
13633.04714043538
 20
-20216.1241139928
 10
13699.047140435378
 20
-20216.1241139928
 10
13699.04714043538
 20
-20788.722106194346
 10
13724.04722953393
 20
-20788.72210619435
  0
LWPOLYLINE
  5
F0
330
17
100
AcDbEntity
  8
FP-Window
100
AcDbPolyline
 90
4
 70
0
 10
13633.047140435381
 20
-21616.12144103635
 10
13699.047140435381
 20
-21616.121441036346
 10
13699.047140435381
 20
-21043.523448834803
 10
13724.047229533928
 20
-21043.5234488348
  0
LWPOLYLINE
  5
F1
330
17
100
AcDbEntity
  8
FP-Window
100
AcDbPolyline
 90
2
 70
0
 10
13939.047140435378
 20
-20373.99011139332
 10
13939.04714043538
 20
-20636.669608568824
  0
LWPOLYLINE
  5
F2
330
17
100
AcDbEntity
  8
FP-Window
100
AcDbPolyline
 90
2
 70
0
 10
13939.047140435378
 20
-20373.99011139332
 10
14059.047140435378
 20
-20373.99011139332
  0
LWPOLYLINE
  5
F3
330
17
100
AcDbEntity
  8
FP-Window
100
AcDbPolyline
 90
2
 70
0
 10
13939.04714043538
 20
-20636.669608568824
 10
14059.04714043538
 20
-20636.669608568824
  0
LWPOLYLINE
  5
F4
330
17
100
AcDbEntity
  8
FP-Window
100
AcDbPolyline
 90
2
 70
0
 10
13939.047140435388
 20
-21458.255443635826
 10
13939.047140435387
 20
-21195.575946460325
  0
LWPOLYLINE
  5
F5
330
17
100
AcDbEntity
  8
FP-Window
100
AcDbPolyline
 90
2
 70
0
 10
13939.047140435387
 20
-21195.575946460325
 10
14059.047140435387
 20
-21195.575946460325
  0
LWPOLYLINE
  5
F6
330
17
100
AcDbEntity
  8
FP-Window
100
AcDbPolyline
 90
2
 70
0
 10
13939.047140435388
 20
-21458.255443635826
 10
14059.047140435388
 20
-21458.255443635826
  0
LWPOLYLINE
  5
F7
330
17
100
AcDbEntity
  8
FP-Window
100
AcDbPolyline
 90
2
 70
0
 10
14059.04714043538
 20
-20636.669608568824
 10
14059.047140435378
 20
-20373.99011139332
  0
LWPOLYLINE
  5
F8
330
17
100
AcDbEntity
  8
FP-Window
100
AcDbPolyline
 90
2
 70
0
 10
14059.047140435387
 20
-21195.575946460325
 10
14059.047140435388
 20
-21458.255443635826
  0
LWPOLYLINE
  5
F9
330
17
100
AcDbEntity
  8
FP-Window
100
AcDbPolyline
 90
3
 70
0
 10
14063.143162354852
 20
-22000.121441036346
 10
14063.143162354852
 20
-21764.21746295582
 10
14299.047140435378
 20
-21764.21746295582
  0
LWPOLYLINE
  5
FA
330
17
100
AcDbEntity
  8
FP-Window
100
AcDbPolyline
 90
3
 70
0
 10
14063.143162354852
 20
-19832.124113992802
 10
14063.143162354852
 20
-20068.028092073328
 10
14299.047140435378
 20
-20068.028092073328
  0
LINE
  5
FB
330
17
100
AcDbEntity
  8
FP-Window
100
AcDbLine
 10
14299.047140435378
 20
-20068.028092073328
 30
0.0
 11
14299.047140435378
 21
-20760.122777514567
 31
0.0
  0
LWPOLYLINE
  5
FC
330
17
100
AcDbEntity
  8
FP-Window
100
AcDbPolyline
 90
2
 70
0
 10
14299.04714043538
 20
-21764.21746295582
 10
14299.04714043538
 20
-21072.12277751457
  0
LINE
  5
FD
330
17
100
AcDbEntity
  8
FP-Window
100
AcDbLine
 10
14299.04714043538
 20
-21072.122777514574
 30
0.0
 11
14566.312475983574
 21
-21072.122777514574
 31
0.0
  0
LINE
  5
FE
330
17
100
AcDbEntity
  8
FP-Window
100
AcDbLine
 10
14299.04714043538
 20
-20760.122777514567
 30
0.0
 11
14566.312475983574
 21
-20760.122777514567
 31
0.0
  0
ENDSEC
  0
SECTION
  2
OBJECTS
  0
DICTIONARY
  5
A
330
0
100
AcDbDictionary
280
0
281
1
  3
ACAD_COLOR
350
B
  3
ACAD_GROUP
350
C
  3
ACAD_LAYOUT
350
D
  3
ACAD_MATERIAL
350
E
  3
ACAD_MLEADERSTYLE
350
F
  3
ACAD_MLINESTYLE
350
10
  3
ACAD_PLOTSETTINGS
350
11
  3
ACAD_PLOTSTYLENAME
350
12
  3
ACAD_SCALELIST
350
14
  3
ACAD_TABLESTYLE
350
15
  3
ACAD_VISUALSTYLE
350
16
  3
EZDXF_META
350
2D
  0
DICTIONARY
  5
B
330
A
100
AcDbDictionary
280
0
281
1
  0
DICTIONARY
  5
C
330
A
100
AcDbDictionary
280
0
281
1
  0
DICTIONARY
  5
D
330
A
100
AcDbDictionary
280
0
281
1
  3
Model
350
1A
  3
Layout1
350
1E
  0
DICTIONARY
  5
E
330
A
100
AcDbDictionary
280
0
281
1
  3
ByBlock
350
1F
  3
ByLayer
350
20
  3
Global
350
21
  0
DICTIONARY
  5
F
330
A
100
AcDbDictionary
280
0
281
1
  3
Standard
350
2C
  0
DICTIONARY
  5
10
330
A
100
AcDbDictionary
280
0
281
1
  3
Standard
350
22
  0
DICTIONARY
  5
11
330
A
100
AcDbDictionary
280
0
281
1
  0
ACDBDICTIONARYWDFLT
  5
12
330
A
100
AcDbDictionary
280
0
281
1
  3
Normal
350
13
100
AcDbDictionaryWithDefault
340
13
  0
ACDBPLACEHOLDER
  5
13
330
12
  0
DICTIONARY
  5
14
330
A
100
AcDbDictionary
280
0
281
1
  0
DICTIONARY
  5
15
330
A
100
AcDbDictionary
280
0
281
1
  0
DICTIONARY
  5
16
330
A
100
AcDbDictionary
280
0
281
1
  0
LAYOUT
  5
1A
330
D
100
AcDbPlotSettings
  1

  2
Adobe PDF
  4
A3
  6

 40
7.5
 41
20.0
 42
7.5
 43
20.0
 44
420.0
 45
297.0
 46
0.0
 47
0.0
 48
0.0
 49
0.0
140
0.0
141
0.0
142
1.0
143
1.0
 70
1024
 72
1
 73
0
 74
5
  7

 75
16
 76
0
 77
2
 78
300
147
1.0
148
0.0
149
0.0
100
AcDbLayout
  1
Model
 70
1
 71
0
 10
0.0
 20
0.0
 11
420.0
 21
297.0
 12
0.0
 22
0.0
 32
0.0
 14
1e+20
 24
1e+20
 34
1e+20
 15
-1e+20
 25
-1e+20
 35
-1e+20
146
0.0
 13
0.0
 23
0.0
 33
0.0
 16
1.0
 26
0.0
 36
0.0
 17
0.0
 27
1.0
 37
0.0
 76
1
330
17
  0
LAYOUT
  5
1E
330
D
100
AcDbPlotSettings
  1

  2
Adobe PDF
  4
A3
  6

 40
7.5
 41
20.0
 42
7.5
 43
20.0
 44
420.0
 45
297.0
 46
0.0
 47
0.0
 48
0.0
 49
0.0
140
0.0
141
0.0
142
1.0
143
1.0
 70
0
 72
1
 73
0
 74
5
  7

 75
16
 76
0
 77
2
 78
300
147
1.0
148
0.0
149
0.0
100
AcDbLayout
  1
Layout1
 70
1
 71
1
 10
0.0
 20
0.0
 11
420.0
 21
297.0
 12
0.0
 22
0.0
 32
0.0
 14
1e+20
 24
1e+20
 34
1e+20
 15
-1e+20
 25
-1e+20
 35
-1e+20
146
0.0
 13
0.0
 23
0.0
 33
0.0
 16
1.0
 26
0.0
 36
0.0
 17
0.0
 27
1.0
 37
0.0
 76
1
330
1B
  0
MATERIAL
  5
1F
102
{ACAD_REACTORS
330
E
102
}
330
E
100
AcDbMaterial
  1
ByBlock
  2

 70
0
 40
1.0
 71
1
 41
1.0
 91
-1023410177
 42
1.0
 72
1
  3

 73
1
 74
1
 75
1
 44
0.5
 73
0
 45
1.0
 46
1.0
 77
1
  4

 78
1
 79
1
170
1
 48
1.0
171
1
  6

172
1
173
1
174
1
140
1.0
141
1.0
175
1
  7

176
1
177
1
178
1
143
1.0
179
1
  8

270
1
271
1
272
1
145
1.0
146
1.0
273
1
  9

274
1
275
1
276
1
 42
1.0
 72
1
  3

 73
1
 74
1
 75
1
 94
63
  0
MATERIAL
  5
20
102
{ACAD_REACTORS
330
E
102
}
330
E
100
AcDbMaterial
  1
ByLayer
  2

 70
0
 40
1.0
 71
1
 41
1.0
 91
-1023410177
 42
1.0
 72
1
  3

 73
1
 74
1
 75
1
 44
0.5
 73
0
 45
1.0
 46
1.0
 77
1
  4

 78
1
 79
1
170
1
 48
1.0
171
1
  6

172
1
173
1
174
1
140
1.0
141
1.0
175
1
  7

176
1
177
1
178
1
143
1.0
179
1
  8

270
1
271
1
272
1
145
1.0
146
1.0
273
1
  9

274
1
275
1
276
1
 42
1.0
 72
1
  3

 73
1
 74
1
 75
1
 94
63
  0
MATERIAL
  5
21
102
{ACAD_REACTORS
330
E
102
}
330
E
100
AcDbMaterial
  1
Global
  2

 70
0
 40
1.0
 71
1
 41
1.0
 91
-1023410177
 42
1.0
 72
1
  3

 73
1
 74
1
 75
1
 44
0.5
 73
0
 45
1.0
 46
1.0
 77
1
  4

 78
1
 79
1
170
1
 48
1.0
171
1
  6

172
1
173
1
174
1
140
1.0
141
1.0
175
1
  7

176
1
177
1
178
1
143
1.0
179
1
  8

270
1
271
1
272
1
145
1.0
146
1.0
273
1
  9

274
1
275
1
276
1
 42
1.0
 72
1
  3

 73
1
 74
1
 75
1
 94
63
  0
MLINESTYLE
  5
22
102
{ACAD_REACTORS
330
10
102
}
330
10
100
AcDbMlineStyle
  2
Standard
 70
0
  3

 62
256
 51
90.0
 52
90.0
 71
2
 49
0.5
 62
256
  6
BYLAYER
 49
-0.5
 62
256
  6
BYLAYER
  0
MLEADERSTYLE
  5
2C
102
{ACAD_REACTORS
330
F
102
}
330
F
100
AcDbMLeaderStyle
179
2
170
2
171
1
172
0
 90
2
 40
0.0
 41
0.0
173
1
 91
-1056964608
 92
-2
290
1
 42
2.0
291
1
 43
8.0
  3
Standard
 44
4.0
300

342
29
174
1
175
1
176
0
178
1
 93
-1056964608
 45
4.0
292
0
297
0
 46
4.0
 94
-1056964608
 47
1.0
 49
1.0
140
1.0
294
1
141
0.0
177
0
142
1.0
295
0
296
0
143
3.75
271
0
272
9
273
9
  0
DICTIONARY
  5
2D
330
A
100
AcDbDictionary
281
1
  3
CREATED_BY_EZDXF
350
2E
  3
WRITTEN_BY_EZDXF
350
101
  0
DICTIONARYVAR
  5
2E
330
2D
100
DictionaryVariables
280
0
  1
1.0.3 @ 2024-01-02T12:41:10.961087+00:00
  0
DICTIONARYVAR
  5
101
330
2D
100
DictionaryVariables
280
0
  1
1.0.3 @ 2024-01-02T12:41:11.090967+00:00
  0
ENDSEC
  0
EOF
