  0
SECTION
  2
HEADER
  9
$ACADVER
  1
AC1027
  9
$ACADMAINTVER
 70
105
  9
$DWGCODEPAGE
  3
ANSI_1252
  9
$LASTSAVEDBY
  1
ezdxf
  9
$REQUIREDVERSIONS
160
0
  9
$INSBASE
 10
0.0
 20
0.0
 30
0.0
  9
$EXTMIN
 10
1e+20
 20
1e+20
 30
1e+20
  9
$EXTMAX
 10
-1e+20
 20
-1e+20
 30
-1e+20
  9
$LIMMIN
 10
0.0
 20
0.0
  9
$LIMMAX
 10
420.0
 20
297.0
  9
$ORTHOMODE
 70
0
  9
$REGENMODE
 70
1
  9
$FILLMODE
 70
1
  9
$QTEXTMODE
 70
0
  9
$MIRRTEXT
 70
1
  9
$LTSCALE
 40
1.0
  9
$ATTMODE
 70
1
  9
$TEXTSIZE
 40
2.5
  9
$TRACEWID
 40
1.0
  9
$TEXTSTYLE
  7
Standard
  9
$CLAYER
  8
0
  9
$CELTYPE
  6
ByLayer
  9
$CECOLOR
 62
256
  9
$CELTSCALE
 40
1.0
  9
$DISPSILH
 70
0
  9
$DIMSCALE
 40
1.0
  9
$DIMASZ
 40
2.5
  9
$DIMEXO
 40
0.625
  9
$DIMDLI
 40
3.75
  9
$DIMRND
 40
0.0
  9
$DIMDLE
 40
0.0
  9
$DIMEXE
 40
1.25
  9
$DIMTP
 40
0.0
  9
$DIMTM
 40
0.0
  9
$DIMTXT
 40
2.5
  9
$DIMCEN
 40
2.5
  9
$DIMTSZ
 40
0.0
  9
$DIMTOL
 70
0
  9
$DIMLIM
 70
0
  9
$DIMTIH
 70
0
  9
$DIMTOH
 70
0
  9
$DIMSE1
 70
0
  9
$DIMSE2
 70
0
  9
$DIMTAD
 70
1
  9
$DIMZIN
 70
8
  9
$DIMBLK
  1

  9
$DIMASO
 70
1
  9
$DIMSHO
 70
1
  9
$DIMPOST
  1

  9
$DIMAPOST
  1

  9
$DIMALT
 70
0
  9
$DIMALTD
 70
3
  9
$DIMALTF
 40
0.03937007874
  9
$DIMLFAC
 40
1.0
  9
$DIMTOFL
 70
1
  9
$DIMTVP
 40
0.0
  9
$DIMTIX
 70
0
  9
$DIMSOXD
 70
0
  9
$DIMSAH
 70
0
  9
$DIMBLK1
  1

  9
$DIMBLK2
  1

  9
$DIMSTYLE
  2
ISO-25
  9
$DIMCLRD
 70
0
  9
$DIMCLRE
 70
0
  9
$DIMCLRT
 70
0
  9
$DIMTFAC
 40
1.0
  9
$DIMGAP
 40
0.625
  9
$DIMJUST
 70
0
  9
$DIMSD1
 70
0
  9
$DIMSD2
 70
0
  9
$DIMTOLJ
 70
0
  9
$DIMTZIN
 70
8
  9
$DIMALTZ
 70
0
  9
$DIMALTTZ
 70
0
  9
$DIMUPT
 70
0
  9
$DIMDEC
 70
2
  9
$DIMTDEC
 70
2
  9
$DIMALTU
 70
2
  9
$DIMALTTD
 70
3
  9
$DIMTXSTY
  7
Standard
  9
$DIMAUNIT
 70
0
  9
$DIMADEC
 70
0
  9
$DIMALTRND
 40
0.0
  9
$DIMAZIN
 70
0
  9
$DIMDSEP
 70
44
  9
$DIMATFIT
 70
3
  9
$DIMFRAC
 70
0
  9
$DIMLDRBLK
  1

  9
$DIMLUNIT
 70
2
  9
$DIMLWD
 70
-2
  9
$DIMLWE
 70
-2
  9
$DIMTMOVE
 70
0
  9
$DIMFXL
 40
1.0
  9
$DIMFXLON
 70
0
  9
$DIMJOGANG
 40
0.785398163397
  9
$DIMTFILL
 70
0
  9
$DIMTFILLCLR
 70
0
  9
$DIMARCSYM
 70
0
  9
$DIMLTYPE
  6

  9
$DIMLTEX1
  6

  9
$DIMLTEX2
  6

  9
$DIMTXTDIRECTION
 70
0
  9
$LUNITS
 70
2
  9
$LUPREC
 70
4
  9
$SKETCHINC
 40
1.0
  9
$FILLETRAD
 40
10.0
  9
$AUNITS
 70
0
  9
$AUPREC
 70
2
  9
$MENU
  1
.
  9
$ELEVATION
 40
0.0
  9
$PELEVATION
 40
0.0
  9
$THICKNESS
 40
0.0
  9
$LIMCHECK
 70
0
  9
$CHAMFERA
 40
0.0
  9
$CHAMFERB
 40
0.0
  9
$CHAMFERC
 40
0.0
  9
$CHAMFERD
 40
0.0
  9
$SKPOLY
 70
0
  9
$TDCREATE
 40
2460319.0413194443
  9
$TDUCREATE
 40
2458532.153996898
  9
$TDUPDATE
 40
2460319.0413194443
  9
$TDUUPDATE
 40
2458532.1544311
  9
$TDINDWG
 40
0.0
  9
$TDUSRTIMER
 40
0.0
  9
$USRTIMER
 70
1
  9
$ANGBASE
 50
0.0
  9
$ANGDIR
 70
0
  9
$PDMODE
 70
0
  9
$PDSIZE
 40
0.0
  9
$PLINEWID
 40
0.0
  9
$SPLFRAME
 70
0
  9
$SPLINETYPE
 70
6
  9
$SPLINESEGS
 70
8
  9
$HANDSEED
  5
DB
  9
$SURFTAB1
 70
6
  9
$SURFTAB2
 70
6
  9
$SURFTYPE
 70
6
  9
$SURFU
 70
6
  9
$SURFV
 70
6
  9
$UCSBASE
  2

  9
$UCSNAME
  2

  9
$UCSORG
 10
0.0
 20
0.0
 30
0.0
  9
$UCSXDIR
 10
1.0
 20
0.0
 30
0.0
  9
$UCSYDIR
 10
0.0
 20
1.0
 30
0.0
  9
$UCSORTHOREF
  2

  9
$UCSORTHOVIEW
 70
0
  9
$UCSORGTOP
 10
0.0
 20
0.0
 30
0.0
  9
$UCSORGBOTTOM
 10
0.0
 20
0.0
 30
0.0
  9
$UCSORGLEFT
 10
0.0
 20
0.0
 30
0.0
  9
$UCSORGRIGHT
 10
0.0
 20
0.0
 30
0.0
  9
$UCSORGFRONT
 10
0.0
 20
0.0
 30
0.0
  9
$UCSORGBACK
 10
0.0
 20
0.0
 30
0.0
  9
$PUCSBASE
  2

  9
$PUCSNAME
  2

  9
$PUCSORG
 10
0.0
 20
0.0
 30
0.0
  9
$PUCSXDIR
 10
1.0
 20
0.0
 30
0.0
  9
$PUCSYDIR
 10
0.0
 20
1.0
 30
0.0
  9
$PUCSORTHOREF
  2

  9
$PUCSORTHOVIEW
 70
0
  9
$PUCSORGTOP
 10
0.0
 20
0.0
 30
0.0
  9
$PUCSORGBOTTOM
 10
0.0
 20
0.0
 30
0.0
  9
$PUCSORGLEFT
 10
0.0
 20
0.0
 30
0.0
  9
$PUCSORGRIGHT
 10
0.0
 20
0.0
 30
0.0
  9
$PUCSORGFRONT
 10
0.0
 20
0.0
 30
0.0
  9
$PUCSORGBACK
 10
0.0
 20
0.0
 30
0.0
  9
$USERI1
 70
0
  9
$USERI2
 70
0
  9
$USERI3
 70
0
  9
$USERI4
 70
0
  9
$USERI5
 70
0
  9
$USERR1
 40
0.0
  9
$USERR2
 40
0.0
  9
$USERR3
 40
0.0
  9
$USERR4
 40
0.0
  9
$USERR5
 40
0.0
  9
$WORLDVIEW
 70
1
  9
$SHADEDGE
 70
3
  9
$SHADEDIF
 70
70
  9
$TILEMODE
 70
1
  9
$MAXACTVP
 70
64
  9
$PINSBASE
 10
0.0
 20
0.0
 30
0.0
  9
$PLIMCHECK
 70
0
  9
$PEXTMIN
 10
1e+20
 20
1e+20
 30
1e+20
  9
$PEXTMAX
 10
-1e+20
 20
-1e+20
 30
-1e+20
  9
$PLIMMIN
 10
0.0
 20
0.0
  9
$PLIMMAX
 10
420.0
 20
297.0
  9
$UNITMODE
 70
0
  9
$VISRETAIN
 70
1
  9
$PLINEGEN
 70
0
  9
$PSLTSCALE
 70
1
  9
$TREEDEPTH
 70
3020
  9
$CMLSTYLE
  2
Standard
  9
$CMLJUST
 70
0
  9
$CMLSCALE
 40
20.0
  9
$PROXYGRAPHICS
 70
1
  9
$MEASUREMENT
 70
1
  9
$CELWEIGHT
370
-1
  9
$ENDCAPS
280
0
  9
$JOINSTYLE
280
0
  9
$LWDISPLAY
290
0
  9
$INSUNITS
 70
6
  9
$HYPERLINKBASE
  1

  9
$STYLESHEET
  1

  9
$XEDIT
290
1
  9
$CEPSNTYPE
380
0
  9
$PSTYLEMODE
290
1
  9
$FINGERPRINTGUID
  2
{6E0C757B-EA66-4268-BB02-1B420CE40863}
  9
$VERSIONGUID
  2
{9A18F4AD-6A8A-4AD3-9D5D-D4EBCC07CBE2}
  9
$EXTNAMES
290
1
  9
$PSVPSCALE
 40
0.0
  9
$OLESTARTUP
290
0
  9
$SORTENTS
280
127
  9
$INDEXCTL
280
0
  9
$HIDETEXT
280
1
  9
$XCLIPFRAME
280
0
  9
$HALOGAP
280
0
  9
$OBSCOLOR
 70
257
  9
$OBSLTYPE
280
0
  9
$INTERSECTIONDISPLAY
280
0
  9
$INTERSECTIONCOLOR
 70
257
  9
$DIMASSOC
280
2
  9
$PROJECTNAME
  1

  9
$CAMERADISPLAY
290
0
  9
$LENSLENGTH
 40
50.0
  9
$CAMERAHEIGHT
 40
0.0
  9
$STEPSPERSEC
 40
24.0
  9
$STEPSIZE
 40
100.0
  9
$3DDWFPREC
 40
2.0
  9
$PSOLWIDTH
 40
0.005
  9
$PSOLHEIGHT
 40
0.08
  9
$LOFTANG1
 40
1.570796326795
  9
$LOFTANG2
 40
1.570796326795
  9
$LOFTMAG1
 40
0.0
  9
$LOFTMAG2
 40
0.0
  9
$LOFTPARAM
 70
7
  9
$LOFTNORMALS
280
1
  9
$LATITUDE
 40
37.795
  9
$LONGITUDE
 40
-122.394
  9
$NORTHDIRECTION
 40
0.0
  9
$TIMEZONE
 70
-8000
  9
$LIGHTGLYPHDISPLAY
280
1
  9
$TILEMODELIGHTSYNCH
280
1
  9
$CMATERIAL
347
20
  9
$SOLIDHIST
280
0
  9
$SHOWHIST
280
1
  9
$DWFFRAME
280
2
  9
$DGNFRAME
280
2
  9
$REALWORLDSCALE
290
1
  9
$INTERFERECOLOR
 62
256
  9
$CSHADOW
280
0
  9
$SHADOWPLANELOCATION
 40
0.0
  0
ENDSEC
  0
SECTION
  2
CLASSES
  0
CLASS
  1
ACDBDICTIONARYWDFLT
  2
AcDbDictionaryWithDefault
  3
ObjectDBX Classes
 90
0
 91
0
280
0
281
0
  0
CLASS
  1
SUN
  2
AcDbSun
  3
SCENEOE
 90
1153
 91
0
280
0
281
0
  0
CLASS
  1
VISUALSTYLE
  2
AcDbVisualStyle
  3
ObjectDBX Classes
 90
4095
 91
0
280
0
281
0
  0
CLASS
  1
MATERIAL
  2
AcDbMaterial
  3
ObjectDBX Classes
 90
1153
 91
0
280
0
281
0
  0
CLASS
  1
SCALE
  2
AcDbScale
  3
ObjectDBX Classes
 90
1153
 91
0
280
0
281
0
  0
CLASS
  1
TABLESTYLE
  2
AcDbTableStyle
  3
ObjectDBX Classes
 90
4095
 91
0
280
0
281
0
  0
CLASS
  1
MLEADERSTYLE
  2
AcDbMLeaderStyle
  3
ACDB_MLEADERSTYLE_CLASS
 90
4095
 91
0
280
0
281
0
  0
CLASS
  1
DICTIONARYVAR
  2
AcDbDictionaryVar
  3
ObjectDBX Classes
 90
0
 91
0
280
0
281
0
  0
CLASS
  1
CELLSTYLEMAP
  2
AcDbCellStyleMap
  3
ObjectDBX Classes
 90
1152
 91
0
280
0
281
0
  0
CLASS
  1
MENTALRAYRENDERSETTINGS
  2
AcDbMentalRayRenderSettings
  3
SCENEOE
 90
1024
 91
0
280
0
281
0
  0
CLASS
  1
ACDBDETAILVIEWSTYLE
  2
AcDbDetailViewStyle
  3
ObjectDBX Classes
 90
1025
 91
0
280
0
281
0
  0
CLASS
  1
ACDBSECTIONVIEWSTYLE
  2
AcDbSectionViewStyle
  3
ObjectDBX Classes
 90
1025
 91
0
280
0
281
0
  0
CLASS
  1
RASTERVARIABLES
  2
AcDbRasterVariables
  3
ISM
 90
0
 91
0
280
0
281
0
  0
CLASS
  1
LAYOUT
  2
AcDbLayout
  3
ObjectDBX Classes
 90
0
 91
0
280
0
281
0
  0
CLASS
  1
ACDBPLACEHOLDER
  2
AcDbPlaceHolder
  3
ObjectDBX Classes
 90
0
 91
0
280
0
281
0
  0
ENDSEC
  0
SECTION
  2
TABLES
  0
TABLE
  2
VPORT
  5
8
330
0
100
AcDbSymbolTable
 70
1
  0
VPORT
  5
23
330
8
100
AcDbSymbolTableRecord
100
AcDbViewportTableRecord
  2
*Active
 70
0
 10
0.0
 20
0.0
 11
1.0
 21
1.0
 12
0.0
 22
0.0
 13
0.0
 23
0.0
 14
0.5
 24
0.5
 15
0.5
 25
0.5
 16
0.0
 26
0.0
 36
1.0
 17
0.0
 27
0.0
 37
0.0
 40
1000.0
 41
1.34
 42
50.0
 43
0.0
 44
0.0
 50
0.0
 51
0.0
 71
0
 72
1000
 73
1
 74
3
 75
0
 76
0
 77
0
 78
0
281
0
 65
0
146
0.0
  0
ENDTAB
  0
TABLE
  2
LTYPE
  5
2
330
0
100
AcDbSymbolTable
 70
3
  0
LTYPE
  5
24
330
2
100
AcDbSymbolTableRecord
100
AcDbLinetypeTableRecord
  2
ByBlock
 70
0
  3

 72
65
 73
0
 40
0.0
  0
LTYPE
  5
25
330
2
100
AcDbSymbolTableRecord
100
AcDbLinetypeTableRecord
  2
ByLayer
 70
0
  3

 72
65
 73
0
 40
0.0
  0
LTYPE
  5
26
330
2
100
AcDbSymbolTableRecord
100
AcDbLinetypeTableRecord
  2
Continuous
 70
0
  3

 72
65
 73
0
 40
0.0
  0
ENDTAB
  0
TABLE
  2
LAYER
  5
1
330
0
100
AcDbSymbolTable
 70
2
  0
LAYER
  5
27
330
1
100
AcDbSymbolTableRecord
100
AcDbLayerTableRecord
  2
0
 70
0
 62
7
  6
Continuous
370
-3
390
13
347
21
  0
LAYER
  5
28
330
1
100
AcDbSymbolTableRecord
100
AcDbLayerTableRecord
  2
Defpoints
 70
0
 62
7
  6
Continuous
290
0
370
-3
390
13
347
21
  0
ENDTAB
  0
TABLE
  2
STYLE
  5
5
330
0
100
AcDbSymbolTable
 70
1
  0
STYLE
  5
29
330
5
100
AcDbSymbolTableRecord
100
AcDbTextStyleTableRecord
  2
Standard
 70
0
 40
0.0
 41
1.0
 50
0.0
 71
0
 42
2.5
  3
txt
  4

  0
ENDTAB
  0
TABLE
  2
VIEW
  5
7
330
0
100
AcDbSymbolTable
 70
0
  0
ENDTAB
  0
TABLE
  2
UCS
  5
6
330
0
100
AcDbSymbolTable
 70
0
  0
ENDTAB
  0
TABLE
  2
APPID
  5
3
330
0
100
AcDbSymbolTable
 70
3
  0
APPID
  5
2A
330
3
100
AcDbSymbolTableRecord
100
AcDbRegAppTableRecord
  2
ACAD
 70
0
  0
APPID
  5
D8
330
3
100
AcDbSymbolTableRecord
100
AcDbRegAppTableRecord
  2
HATCHBACKGROUNDCOLOR
 70
0
  0
APPID
  5
D9
330
3
100
AcDbSymbolTableRecord
100
AcDbRegAppTableRecord
  2
EZDXF
 70
0
  0
ENDTAB
  0
TABLE
  2
DIMSTYLE
  5
4
330
0
100
AcDbSymbolTable
 70
1
100
AcDbDimStyleTable
  0
DIMSTYLE
105
2B
330
4
100
AcDbSymbolTableRecord
100
AcDbDimStyleTableRecord
  2
Standard
 70
0
 40
1.0
 41
2.5
 42
0.625
 43
3.75
 44
1.25
 45
0.0
 46
0.0
 47
0.0
 48
0.0
 49
2.5
140
2.5
141
2.5
142
0.0
143
0.03937007874
144
1.0
145
0.0
146
1.0
147
0.625
148
0.0
 69
0
 70
0
 71
0
 72
0
 73
0
 74
0
 75
0
 76
0
 77
1
 78
8
 79
3
170
0
171
3
172
1
173
0
174
0
175
0
176
0
177
0
178
0
179
2
271
2
272
2
273
2
274
3
275
0
276
0
277
2
278
44
279
0
280
0
281
0
282
0
283
0
284
8
285
0
286
0
288
0
289
3
290
0
371
-2
372
-2
  0
ENDTAB
  0
TABLE
  2
BLOCK_RECORD
  5
9
330
0
100
AcDbSymbolTable
 70
2
  0
BLOCK_RECORD
  5
17
330
9
100
AcDbSymbolTableRecord
100
AcDbBlockTableRecord
  2
*Model_Space
340
1A
 70
0
280
1
281
0
  0
BLOCK_RECORD
  5
1B
330
9
100
AcDbSymbolTableRecord
100
AcDbBlockTableRecord
  2
*Paper_Space
340
1E
 70
0
280
1
281
0
  0
ENDTAB
  0
ENDSEC
  0
SECTION
  2
BLOCKS
  0
BLOCK
  5
18
330
17
100
AcDbEntity
  8
0
100
AcDbBlockBegin
  2
*Model_Space
 70
0
 10
0.0
 20
0.0
 30
0.0
  3
*Model_Space
  1

  0
ENDBLK
  5
19
330
17
100
AcDbEntity
  8
0
100
AcDbBlockEnd
  0
BLOCK
  5
1C
330
1B
100
AcDbEntity
  8
0
100
AcDbBlockBegin
  2
*Paper_Space
 70
0
 10
0.0
 20
0.0
 30
0.0
  3
*Paper_Space
  1

  0
ENDBLK
  5
1D
330
1B
100
AcDbEntity
  8
0
100
AcDbBlockEnd
  0
ENDSEC
  0
SECTION
  2
ENTITIES
  0
LINE
  5
2F
330
17
100
AcDbEntity
  8
EL-Roof
100
AcDbLine
 10
11199.636576050349
 20
537.2941633772575
 30
0.0
 11
11285.768233613664
 21
537.2941580943411
 31
0.0
  0
LINE
  5
30
330
17
100
AcDbEntity
  8
FP-Roof
 62
8
100
AcDbLine
 10
11204.571355061977
 20
551.6584432191707
 30
0.0
 11
11204.571355062042
 21
537.2941580943411
 31
0.0
  0
LINE
  5
31
330
17
100
AcDbEntity
  8
FP-Roof
 62
8
100
AcDbLine
 10
11205.354328002955
 20
551.6614078299649
 30
0.0
 11
11205.354328002955
 21
537.2941580943411
 31
0.0
  0
LINE
  5
32
330
17
100
AcDbEntity
  8
FP-Roof
 62
8
100
AcDbLine
 10
11245.105640045484
 20
546.5881636324107
 30
0.0
 11
11205.354328002955
 21
546.5879050005901
 31
0.0
  0
LINE
  5
33
330
17
100
AcDbEntity
  8
FP-Roof
 62
8
100
AcDbLine
 10
11245.347480796358
 20
547.1101478270234
 30
0.0
 11
11205.354328002955
 21
547.1098895227337
 31
0.0
  0
LINE
  5
34
330
17
100
AcDbEntity
  8
FP-Roof
 62
8
100
AcDbLine
 10
11225.830248281338
 20
547.1102188845348
 30
0.0
 11
11205.354328002955
 21
547.1101391434681
 31
0.0
  0
LINE
  5
35
330
17
100
AcDbEntity
  8
FP-Roof
 62
8
100
AcDbLine
 10
11211.43219301571
 20
554.6561812833356
 30
0.0
 11
11210.572133726251
 21
553.1665148867346
 31
0.0
  0
LINE
  5
36
330
17
100
AcDbEntity
  8
FP-Roof
 62
8
100
AcDbLine
 10
11212.30479201665
 20
551.4283841076526
 30
0.0
 11
11211.303336282363
 21
551.4283841076526
 31
0.0
  0
LINE
  5
37
330
17
100
AcDbEntity
  8
FP-Roof
 62
8
100
AcDbLine
 10
11211.543073169298
 20
551.4283841076526
 30
0.0
 11
11211.543073169152
 21
549.4858320952212
 31
0.0
  0
LINE
  5
38
330
17
100
AcDbEntity
  8
FP-Roof
 62
8
100
AcDbLine
 10
11211.543083370147
 20
547.1077724398551
 30
0.0
 11
11211.54308337019
 21
537.2894794139506
 31
0.0
  0
LINE
  5
39
330
17
100
AcDbEntity
  8
FP-Roof
 62
8
100
AcDbLine
 10
11212.065055129904
 20
551.4283841076526
 30
0.0
 11
11212.065055129759
 21
549.4878085024161
 31
0.0
  0
LINE
  5
3A
330
17
100
AcDbEntity
  8
FP-Roof
 62
8
100
AcDbLine
 10
11212.065065330811
 20
547.1057960327494
 30
0.0
 11
11212.065065330811
 21
537.2894794139506
 31
0.0
  0
LINE
  5
3B
330
17
100
AcDbEntity
  8
FP-Roof
 62
8
100
AcDbLine
 10
11212.184825721983
 20
554.6561812833356
 30
0.0
 11
11213.04488501144
 21
553.1665148867346
 31
0.0
  0
LINE
  5
3C
330
17
100
AcDbEntity
  8
FP-Roof
 62
8
100
AcDbLine
 10
11218.142930343565
 20
554.6561812815876
 30
0.0
 11
11217.282871054107
 21
553.1665148849866
 31
0.0
  0
LINE
  5
3D
330
17
100
AcDbEntity
  8
FP-Roof
 62
8
100
AcDbLine
 10
11219.015529344499
 20
551.4283841059046
 30
0.0
 11
11218.014073610211
 21
551.4283841059046
 31
0.0
  0
LINE
  5
3E
330
17
100
AcDbEntity
  8
FP-Roof
 62
8
100
AcDbLine
 10
11218.253810497146
 20
551.4283841059046
 30
0.0
 11
11218.253810497
 21
549.4858320934732
 31
0.0
  0
LINE
  5
3F
330
17
100
AcDbEntity
  8
FP-Roof
 62
8
100
AcDbLine
 10
11218.253820697995
 20
547.1077724381071
 30
0.0
 11
11218.253820698046
 21
537.2894794122026
 31
0.0
  0
LINE
  5
40
330
17
100
AcDbEntity
  8
FP-Roof
 62
8
100
AcDbLine
 10
11218.775792457753
 20
551.4283841059046
 30
0.0
 11
11218.775792457607
 21
549.487808500668
 31
0.0
  0
LINE
  5
41
330
17
100
AcDbEntity
  8
FP-Roof
 62
8
100
AcDbLine
 10
11218.77580265866
 20
547.1057960310013
 30
0.0
 11
11218.77580265866
 21
537.2894794122026
 31
0.0
  0
LINE
  5
42
330
17
100
AcDbEntity
  8
FP-Roof
 62
8
100
AcDbLine
 10
11218.895563049839
 20
554.6561812815876
 30
0.0
 11
11219.755622339297
 21
553.1665148849866
 31
0.0
  0
LINE
  5
43
330
17
100
AcDbEntity
  8
FP-Roof
 62
8
100
AcDbLine
 10
11224.853667671414
 20
554.6561812798395
 30
0.0
 11
11223.993608381956
 21
553.1665148832385
 31
0.0
  0
LINE
  5
44
330
17
100
AcDbEntity
  8
FP-Roof
 62
8
100
AcDbLine
 10
11225.726266672355
 20
551.4283841041565
 30
0.0
 11
11224.724810938067
 21
551.4283841041565
 31
0.0
  0
LINE
  5
45
330
17
100
AcDbEntity
  8
FP-Roof
 62
8
100
AcDbLine
 10
11224.964547825002
 20
551.4283841041565
 30
0.0
 11
11224.964547824857
 21
549.4858320917251
 31
0.0
  0
LINE
  5
46
330
17
100
AcDbEntity
  8
FP-Roof
 62
8
100
AcDbLine
 10
11224.964558025851
 20
547.107772436359
 30
0.0
 11
11224.964558025895
 21
537.2894794104545
 31
0.0
  0
LINE
  5
47
330
17
100
AcDbEntity
  8
FP-Roof
 62
8
100
AcDbLine
 10
11225.486529785609
 20
551.4283841041565
 30
0.0
 11
11225.486529785463
 21
549.48780849892
 31
0.0
  0
LINE
  5
48
330
17
100
AcDbEntity
  8
FP-Roof
 62
8
100
AcDbLine
 10
11225.486539986516
 20
547.1057960292533
 30
0.0
 11
11225.486539986516
 21
537.2894794104545
 31
0.0
  0
LINE
  5
49
330
17
100
AcDbEntity
  8
FP-Roof
 62
8
100
AcDbLine
 10
11225.606300377687
 20
554.6561812798395
 30
0.0
 11
11226.466359667145
 21
553.1665148832385
 31
0.0
  0
LINE
  5
4A
330
17
100
AcDbEntity
  8
FP-Roof
 62
8
100
AcDbLine
 10
11231.56440499927
 20
554.6561812780915
 30
0.0
 11
11230.704345709812
 21
553.1665148814905
 31
0.0
  0
LINE
  5
4B
330
17
100
AcDbEntity
  8
FP-Roof
 62
8
100
AcDbLine
 10
11232.437004000203
 20
551.4283841024085
 30
0.0
 11
11231.435548265916
 21
551.4283841024085
 31
0.0
  0
LINE
  5
4C
330
17
100
AcDbEntity
  8
FP-Roof
 62
8
100
AcDbLine
 10
11231.67528515285
 20
551.4283841024085
 30
0.0
 11
11231.675285152705
 21
549.4858320899771
 31
0.0
  0
LINE
  5
4D
330
17
100
AcDbEntity
  8
FP-Roof
 62
8
100
AcDbLine
 10
11231.6752953537
 20
547.107772434611
 30
0.0
 11
11231.67529535375
 21
537.2894794087065
 31
0.0
  0
LINE
  5
4E
330
17
100
AcDbEntity
  8
FP-Roof
 62
8
100
AcDbLine
 10
11232.197267113457
 20
551.4283841024085
 30
0.0
 11
11232.197267113312
 21
549.487808497172
 31
0.0
  0
LINE
  5
4F
330
17
100
AcDbEntity
  8
FP-Roof
 62
8
100
AcDbLine
 10
11232.197277314364
 20
547.1057960275052
 30
0.0
 11
11232.197277314364
 21
537.2894794087065
 31
0.0
  0
LINE
  5
50
330
17
100
AcDbEntity
  8
FP-Roof
 62
8
100
AcDbLine
 10
11232.317037705543
 20
554.6561812780915
 30
0.0
 11
11233.177096995001
 21
553.1665148814905
 31
0.0
  0
LINE
  5
51
330
17
100
AcDbEntity
  8
FP-Roof
 62
8
100
AcDbLine
 10
11238.275142327118
 20
554.6561812763434
 30
0.0
 11
11237.41508303766
 21
553.1665148797424
 31
0.0
  0
LINE
  5
52
330
17
100
AcDbEntity
  8
FP-Roof
 62
8
100
AcDbLine
 10
11239.147741328059
 20
551.4283841006604
 30
0.0
 11
11238.146285593772
 21
551.4283841006604
 31
0.0
  0
LINE
  5
53
330
17
100
AcDbEntity
  8
FP-Roof
 62
8
100
AcDbLine
 10
11238.386022480707
 20
551.4283841006604
 30
0.0
 11
11238.386022480561
 21
549.485832088229
 31
0.0
  0
LINE
  5
54
330
17
100
AcDbEntity
  8
FP-Roof
 62
8
100
AcDbLine
 10
11238.386032681556
 20
547.1077724328629
 30
0.0
 11
11238.3860326816
 21
537.2894794069584
 31
0.0
  0
LINE
  5
55
330
17
100
AcDbEntity
  8
FP-Roof
 62
8
100
AcDbLine
 10
11238.908004441313
 20
551.4283841006604
 30
0.0
 11
11238.908004441168
 21
549.4878084954239
 31
0.0
  0
LINE
  5
56
330
17
100
AcDbEntity
  8
FP-Roof
 62
8
100
AcDbLine
 10
11238.90801464222
 20
547.1057960257572
 30
0.0
 11
11238.90801464222
 21
537.2894794069584
 31
0.0
  0
LINE
  5
57
330
17
100
AcDbEntity
  8
FP-Roof
 62
8
100
AcDbLine
 10
11239.027775033392
 20
554.6561812763434
 30
0.0
 11
11239.88783432285
 21
553.1665148797424
 31
0.0
  0
LINE
  5
58
330
17
100
AcDbEntity
  8
FP-Roof
 62
8
100
AcDbLine
 10
11244.617772035752
 20
554.5295049330603
 30
0.0
 11
11246.119955637252
 21
554.5295049330603
 31
0.0
  0
LINE
  5
59
330
17
100
AcDbEntity
  8
FP-Roof
 62
8
100
AcDbLine
 10
11245.105640045484
 20
547.1057960239145
 30
0.0
 11
11245.105640045527
 21
537.289479405114
 31
0.0
  0
LINE
  5
5A
330
17
100
AcDbEntity
  8
FP-Roof
 62
8
100
AcDbLine
 10
11245.10565024634
 20
554.5295049330639
 30
0.0
 11
11245.105650246522
 21
549.4878084937759
 31
0.0
  0
LINE
  5
5B
330
17
100
AcDbEntity
  8
FP-Roof
 62
8
100
AcDbLine
 10
11245.376911218475
 20
547.1101478270234
 30
0.0
 11
11285.383410616145
 21
547.1099783597679
 31
0.0
  0
LINE
  5
5C
330
17
100
AcDbEntity
  8
FP-Roof
 62
8
100
AcDbLine
 10
11245.627622006134
 20
547.1077724313113
 30
0.0
 11
11245.627622006134
 21
537.2894794053104
 31
0.0
  0
LINE
  5
5D
330
17
100
AcDbEntity
  8
FP-Roof
 62
8
100
AcDbLine
 10
11245.627622006134
 20
546.5881635592673
 30
0.0
 11
11285.383410616145
 21
546.5879944009052
 31
0.0
  0
LINE
  5
5E
330
17
100
AcDbEntity
  8
FP-Roof
 62
8
100
AcDbLine
 10
11245.627632206953
 20
554.5295049330603
 30
0.0
 11
11245.627632207128
 21
549.4858320872613
 31
0.0
  0
LINE
  5
5F
330
17
100
AcDbEntity
  8
FP-Roof
 62
8
100
AcDbLine
 10
11251.69661698219
 20
554.6561812763434
 30
0.0
 11
11250.836557692732
 21
553.1665148797424
 31
0.0
  0
LINE
  5
60
330
17
100
AcDbEntity
  8
FP-Roof
 62
8
100
AcDbLine
 10
11251.57665068753
 20
551.4283841006604
 30
0.0
 11
11252.578106421817
 21
551.4283841006604
 31
0.0
  0
LINE
  5
61
330
17
100
AcDbEntity
  8
FP-Roof
 62
8
100
AcDbLine
 10
11251.816377373369
 20
547.1057960257572
 30
0.0
 11
11251.816377373369
 21
537.2894794069584
 31
0.0
  0
LINE
  5
62
330
17
100
AcDbEntity
  8
FP-Roof
 62
8
100
AcDbLine
 10
11251.816387574276
 20
551.4283841006604
 30
0.0
 11
11251.816387574421
 21
549.4878084954239
 31
0.0
  0
LINE
  5
63
330
17
100
AcDbEntity
  8
FP-Roof
 62
8
100
AcDbLine
 10
11252.338359334033
 20
547.1077724328629
 30
0.0
 11
11252.338359333982
 21
537.2894794069584
 31
0.0
  0
LINE
  5
64
330
17
100
AcDbEntity
  8
FP-Roof
 62
8
100
AcDbLine
 10
11252.338369534882
 20
551.4283841006604
 30
0.0
 11
11252.338369535028
 21
549.485832088229
 31
0.0
  0
LINE
  5
65
330
17
100
AcDbEntity
  8
FP-Roof
 62
8
100
AcDbLine
 10
11252.449249688463
 20
554.6561812763434
 30
0.0
 11
11253.309308977921
 21
553.1665148797424
 31
0.0
  0
LINE
  5
66
330
17
100
AcDbEntity
  8
FP-Roof
 62
8
100
AcDbLine
 10
11258.407354310046
 20
554.6561812780915
 30
0.0
 11
11257.547295020588
 21
553.1665148814905
 31
0.0
  0
LINE
  5
67
330
17
100
AcDbEntity
  8
FP-Roof
 62
8
100
AcDbLine
 10
11258.287388015378
 20
551.4283841024085
 30
0.0
 11
11259.288843749666
 21
551.4283841024085
 31
0.0
  0
LINE
  5
68
330
17
100
AcDbEntity
  8
FP-Roof
 62
8
100
AcDbLine
 10
11258.527114701217
 20
547.1057960275052
 30
0.0
 11
11258.527114701217
 21
537.2894794087065
 31
0.0
  0
LINE
  5
69
330
17
100
AcDbEntity
  8
FP-Roof
 62
8
100
AcDbLine
 10
11258.527124902124
 20
551.4283841024085
 30
0.0
 11
11258.52712490227
 21
549.487808497172
 31
0.0
  0
LINE
  5
6A
330
17
100
AcDbEntity
  8
FP-Roof
 62
8
100
AcDbLine
 10
11259.049096661882
 20
547.107772434611
 30
0.0
 11
11259.049096661838
 21
537.2894794087065
 31
0.0
  0
LINE
  5
6B
330
17
100
AcDbEntity
  8
FP-Roof
 62
8
100
AcDbLine
 10
11259.04910686273
 20
551.4283841024085
 30
0.0
 11
11259.049106862876
 21
549.4858320899771
 31
0.0
  0
LINE
  5
6C
330
17
100
AcDbEntity
  8
FP-Roof
 62
8
100
AcDbLine
 10
11259.159987016319
 20
554.6561812780915
 30
0.0
 11
11260.020046305777
 21
553.1665148814905
 31
0.0
  0
LINE
  5
6D
330
17
100
AcDbEntity
  8
FP-Roof
 62
8
100
AcDbLine
 10
11265.118091637894
 20
554.6561812798395
 30
0.0
 11
11264.258032348436
 21
553.1665148832385
 31
0.0
  0
LINE
  5
6E
330
17
100
AcDbEntity
  8
FP-Roof
 62
8
100
AcDbLine
 10
11264.998125343234
 20
551.4283841041565
 30
0.0
 11
11265.999581077522
 21
551.4283841041565
 31
0.0
  0
LINE
  5
6F
330
17
100
AcDbEntity
  8
FP-Roof
 62
8
100
AcDbLine
 10
11265.237852029073
 20
547.1057960292533
 30
0.0
 11
11265.237852029073
 21
537.2894794104545
 31
0.0
  0
LINE
  5
70
330
17
100
AcDbEntity
  8
FP-Roof
 62
8
100
AcDbLine
 10
11265.23786222998
 20
551.4283841041565
 30
0.0
 11
11265.237862230126
 21
549.48780849892
 31
0.0
  0
LINE
  5
71
330
17
100
AcDbEntity
  8
FP-Roof
 62
8
100
AcDbLine
 10
11265.759833989738
 20
547.107772436359
 30
0.0
 11
11265.759833989687
 21
537.2894794104545
 31
0.0
  0
LINE
  5
72
330
17
100
AcDbEntity
  8
FP-Roof
 62
8
100
AcDbLine
 10
11265.759844190587
 20
551.4283841041565
 30
0.0
 11
11265.759844190732
 21
549.4858320917251
 31
0.0
  0
LINE
  5
73
330
17
100
AcDbEntity
  8
FP-Roof
 62
8
100
AcDbLine
 10
11265.870724344168
 20
554.6561812798395
 30
0.0
 11
11266.730783633626
 21
553.1665148832385
 31
0.0
  0
LINE
  5
74
330
17
100
AcDbEntity
  8
FP-Roof
 62
8
100
AcDbLine
 10
11271.82882896575
 20
554.6561812815876
 30
0.0
 11
11270.968769676292
 21
553.1665148849866
 31
0.0
  0
LINE
  5
75
330
17
100
AcDbEntity
  8
FP-Roof
 62
8
100
AcDbLine
 10
11271.708862671083
 20
551.4283841059046
 30
0.0
 11
11272.71031840537
 21
551.4283841059046
 31
0.0
  0
LINE
  5
76
330
17
100
AcDbEntity
  8
FP-Roof
 62
8
100
AcDbLine
 10
11271.948589356922
 20
547.1057960310013
 30
0.0
 11
11271.948589356922
 21
537.2894794122026
 31
0.0
  0
LINE
  5
77
330
17
100
AcDbEntity
  8
FP-Roof
 62
8
100
AcDbLine
 10
11271.948599557829
 20
551.4283841059046
 30
0.0
 11
11271.948599557974
 21
549.487808500668
 31
0.0
  0
LINE
  5
78
330
17
100
AcDbEntity
  8
FP-Roof
 62
8
100
AcDbLine
 10
11272.470571317586
 20
547.1077724381071
 30
0.0
 11
11272.470571317543
 21
537.2894794122026
 31
0.0
  0
LINE
  5
79
330
17
100
AcDbEntity
  8
FP-Roof
 62
8
100
AcDbLine
 10
11272.470581518435
 20
551.4283841059046
 30
0.0
 11
11272.47058151858
 21
549.4858320934732
 31
0.0
  0
LINE
  5
7A
330
17
100
AcDbEntity
  8
FP-Roof
 62
8
100
AcDbLine
 10
11272.581461672024
 20
554.6561812815876
 30
0.0
 11
11273.441520961482
 21
553.1665148849866
 31
0.0
  0
LINE
  5
7B
330
17
100
AcDbEntity
  8
FP-Roof
 62
8
100
AcDbLine
 10
11278.539566293599
 20
554.6561812833356
 30
0.0
 11
11277.67950700414
 21
553.1665148867346
 31
0.0
  0
LINE
  5
7C
330
17
100
AcDbEntity
  8
FP-Roof
 62
8
100
AcDbLine
 10
11278.419599998939
 20
551.4283841076526
 30
0.0
 11
11279.421055733226
 21
551.4283841076526
 31
0.0
  0
LINE
  5
7D
330
17
100
AcDbEntity
  8
FP-Roof
 62
8
100
AcDbLine
 10
11278.659326684778
 20
547.1057960327494
 30
0.0
 11
11278.659326684778
 21
537.2894794139506
 31
0.0
  0
LINE
  5
7E
330
17
100
AcDbEntity
  8
FP-Roof
 62
8
100
AcDbLine
 10
11278.659336885685
 20
551.4283841076526
 30
0.0
 11
11278.65933688583
 21
549.4878085024161
 31
0.0
  0
LINE
  5
7F
330
17
100
AcDbEntity
  8
FP-Roof
 62
8
100
AcDbLine
 10
11279.181308645442
 20
547.1077724398551
 30
0.0
 11
11279.181308645391
 21
537.2894794139506
 31
0.0
  0
LINE
  5
80
330
17
100
AcDbEntity
  8
FP-Roof
 62
8
100
AcDbLine
 10
11279.181318846291
 20
551.4283841076526
 30
0.0
 11
11279.181318846437
 21
549.4858320952212
 31
0.0
  0
LINE
  5
81
330
17
100
AcDbEntity
  8
FP-Roof
 62
8
100
AcDbLine
 10
11279.292198999872
 20
554.6561812833356
 30
0.0
 11
11280.15225828933
 21
553.1665148867346
 31
0.0
  0
LINE
  5
82
330
17
100
AcDbEntity
  8
FP-Roof
 62
8
100
AcDbLine
 10
11285.370064012626
 20
551.6614078299649
 30
0.0
 11
11285.370064012626
 21
537.2941580943411
 31
0.0
  0
LINE
  5
83
330
17
100
AcDbEntity
  8
EL-Roof
100
AcDbLine
 10
11371.903457837845
 20
537.2941633772575
 30
0.0
 11
11285.768233613664
 21
537.294158094212
 31
0.0
  0
LINE
  5
84
330
17
100
AcDbEntity
  8
FP-Roof
 62
8
100
AcDbLine
 10
11286.153036953612
 20
551.6584432191707
 30
0.0
 11
11286.15303695354
 21
537.2941580943411
 31
0.0
  0
LINE
  5
85
330
17
100
AcDbEntity
  8
FP-Roof
 62
8
100
AcDbLine
 10
11325.908845221194
 20
546.5881635592673
 30
0.0
 11
11286.15305661119
 21
546.5879944009052
 31
0.0
  0
LINE
  5
86
330
17
100
AcDbEntity
  8
FP-Roof
 62
8
100
AcDbLine
 10
11326.159556008854
 20
547.1101478270234
 30
0.0
 11
11286.15305661119
 21
547.1099783597679
 31
0.0
  0
LINE
  5
87
330
17
100
AcDbEntity
  8
FP-Roof
 62
8
100
AcDbLine
 10
11292.244268227456
 20
554.6561812833356
 30
0.0
 11
11291.384208937998
 21
553.1665148867346
 31
0.0
  0
LINE
  5
88
330
17
100
AcDbEntity
  8
FP-Roof
 62
8
100
AcDbLine
 10
11293.116867228397
 20
551.4283841076526
 30
0.0
 11
11292.11541149411
 21
551.4283841076526
 31
0.0
  0
LINE
  5
89
330
17
100
AcDbEntity
  8
FP-Roof
 62
8
100
AcDbLine
 10
11292.355148381044
 20
551.4283841076526
 30
0.0
 11
11292.355148380899
 21
549.4858320952212
 31
0.0
  0
LINE
  5
8A
330
17
100
AcDbEntity
  8
FP-Roof
 62
8
100
AcDbLine
 10
11292.355158581893
 20
547.1077724398551
 30
0.0
 11
11292.355158581937
 21
537.2894794139506
 31
0.0
  0
LINE
  5
8B
330
17
100
AcDbEntity
  8
FP-Roof
 62
8
100
AcDbLine
 10
11292.87713034165
 20
551.4283841076526
 30
0.0
 11
11292.877130341505
 21
549.4878085024161
 31
0.0
  0
LINE
  5
8C
330
17
100
AcDbEntity
  8
FP-Roof
 62
8
100
AcDbLine
 10
11292.877140542558
 20
547.1057960327494
 30
0.0
 11
11292.877140542558
 21
537.2894794139506
 31
0.0
  0
LINE
  5
8D
330
17
100
AcDbEntity
  8
FP-Roof
 62
8
100
AcDbLine
 10
11292.99690093373
 20
554.6561812833356
 30
0.0
 11
11293.856960223187
 21
553.1665148867346
 31
0.0
  0
LINE
  5
8E
330
17
100
AcDbEntity
  8
FP-Roof
 62
8
100
AcDbLine
 10
11298.955005555312
 20
554.6561812815876
 30
0.0
 11
11298.094946265854
 21
553.1665148849866
 31
0.0
  0
LINE
  5
8F
330
17
100
AcDbEntity
  8
FP-Roof
 62
8
100
AcDbLine
 10
11299.827604556245
 20
551.4283841059046
 30
0.0
 11
11298.826148821958
 21
551.4283841059046
 31
0.0
  0
LINE
  5
90
330
17
100
AcDbEntity
  8
FP-Roof
 62
8
100
AcDbLine
 10
11299.065885708893
 20
551.4283841059046
 30
0.0
 11
11299.065885708747
 21
549.4858320934732
 31
0.0
  0
LINE
  5
91
330
17
100
AcDbEntity
  8
FP-Roof
 62
8
100
AcDbLine
 10
11299.065895909742
 20
547.1077724381071
 30
0.0
 11
11299.065895909793
 21
537.2894794122026
 31
0.0
  0
LINE
  5
92
330
17
100
AcDbEntity
  8
FP-Roof
 62
8
100
AcDbLine
 10
11299.5878676695
 20
551.4283841059046
 30
0.0
 11
11299.587867669354
 21
549.487808500668
 31
0.0
  0
LINE
  5
93
330
17
100
AcDbEntity
  8
FP-Roof
 62
8
100
AcDbLine
 10
11299.587877870406
 20
547.1057960310013
 30
0.0
 11
11299.587877870406
 21
537.2894794122026
 31
0.0
  0
LINE
  5
94
330
17
100
AcDbEntity
  8
FP-Roof
 62
8
100
AcDbLine
 10
11299.707638261585
 20
554.6561812815876
 30
0.0
 11
11300.567697551043
 21
553.1665148849866
 31
0.0
  0
LINE
  5
95
330
17
100
AcDbEntity
  8
FP-Roof
 62
8
100
AcDbLine
 10
11305.66574288316
 20
554.6561812798395
 30
0.0
 11
11304.805683593702
 21
553.1665148832385
 31
0.0
  0
LINE
  5
96
330
17
100
AcDbEntity
  8
FP-Roof
 62
8
100
AcDbLine
 10
11306.538341884101
 20
551.4283841041565
 30
0.0
 11
11305.536886149814
 21
551.4283841041565
 31
0.0
  0
LINE
  5
97
330
17
100
AcDbEntity
  8
FP-Roof
 62
8
100
AcDbLine
 10
11305.776623036749
 20
551.4283841041565
 30
0.0
 11
11305.776623036603
 21
549.4858320917251
 31
0.0
  0
LINE
  5
98
330
17
100
AcDbEntity
  8
FP-Roof
 62
8
100
AcDbLine
 10
11305.776633237598
 20
547.107772436359
 30
0.0
 11
11305.776633237641
 21
537.2894794104545
 31
0.0
  0
LINE
  5
99
330
17
100
AcDbEntity
  8
FP-Roof
 62
8
100
AcDbLine
 10
11306.298604997355
 20
551.4283841041565
 30
0.0
 11
11306.29860499721
 21
549.48780849892
 31
0.0
  0
LINE
  5
9A
330
17
100
AcDbEntity
  8
FP-Roof
 62
8
100
AcDbLine
 10
11306.298615198262
 20
547.1057960292533
 30
0.0
 11
11306.298615198262
 21
537.2894794104545
 31
0.0
  0
LINE
  5
9B
330
17
100
AcDbEntity
  8
FP-Roof
 62
8
100
AcDbLine
 10
11306.418375589434
 20
554.6561812798395
 30
0.0
 11
11307.278434878892
 21
553.1665148832385
 31
0.0
  0
LINE
  5
9C
330
17
100
AcDbEntity
  8
FP-Roof
 62
8
100
AcDbLine
 10
11312.376480211016
 20
554.6561812780915
 30
0.0
 11
11311.516420921558
 21
553.1665148814905
 31
0.0
  0
LINE
  5
9D
330
17
100
AcDbEntity
  8
FP-Roof
 62
8
100
AcDbLine
 10
11313.24907921195
 20
551.4283841024085
 30
0.0
 11
11312.247623477662
 21
551.4283841024085
 31
0.0
  0
LINE
  5
9E
330
17
100
AcDbEntity
  8
FP-Roof
 62
8
100
AcDbLine
 10
11312.487360364597
 20
551.4283841024085
 30
0.0
 11
11312.487360364452
 21
549.4858320899771
 31
0.0
  0
LINE
  5
9F
330
17
100
AcDbEntity
  8
FP-Roof
 62
8
100
AcDbLine
 10
11312.487370565446
 20
547.107772434611
 30
0.0
 11
11312.487370565497
 21
537.2894794087065
 31
0.0
  0
LINE
  5
A0
330
17
100
AcDbEntity
  8
FP-Roof
 62
8
100
AcDbLine
 10
11313.009342325204
 20
551.4283841024085
 30
0.0
 11
11313.009342325058
 21
549.487808497172
 31
0.0
  0
LINE
  5
A1
330
17
100
AcDbEntity
  8
FP-Roof
 62
8
100
AcDbLine
 10
11313.00935252611
 20
547.1057960275052
 30
0.0
 11
11313.00935252611
 21
537.2894794087065
 31
0.0
  0
LINE
  5
A2
330
17
100
AcDbEntity
  8
FP-Roof
 62
8
100
AcDbLine
 10
11313.12911291729
 20
554.6561812780915
 30
0.0
 11
11313.989172206748
 21
553.1665148814905
 31
0.0
  0
LINE
  5
A3
330
17
100
AcDbEntity
  8
FP-Roof
 62
8
100
AcDbLine
 10
11319.087217538865
 20
554.6561812763434
 30
0.0
 11
11318.227158249407
 21
553.1665148797424
 31
0.0
  0
LINE
  5
A4
330
17
100
AcDbEntity
  8
FP-Roof
 62
8
100
AcDbLine
 10
11319.959816539806
 20
551.4283841006604
 30
0.0
 11
11318.958360805518
 21
551.4283841006604
 31
0.0
  0
LINE
  5
A5
330
17
100
AcDbEntity
  8
FP-Roof
 62
8
100
AcDbLine
 10
11319.198097692453
 20
551.4283841006604
 30
0.0
 11
11319.198097692308
 21
549.485832088229
 31
0.0
  0
LINE
  5
A6
330
17
100
AcDbEntity
  8
FP-Roof
 62
8
100
AcDbLine
 10
11319.198107893302
 20
547.1077724328629
 30
0.0
 11
11319.198107893346
 21
537.2894794069584
 31
0.0
  0
LINE
  5
A7
330
17
100
AcDbEntity
  8
FP-Roof
 62
8
100
AcDbLine
 10
11319.72007965306
 20
551.4283841006604
 30
0.0
 11
11319.720079652914
 21
549.4878084954239
 31
0.0
  0
LINE
  5
A8
330
17
100
AcDbEntity
  8
FP-Roof
 62
8
100
AcDbLine
 10
11319.720089853967
 20
547.1057960257572
 30
0.0
 11
11319.720089853967
 21
537.2894794069584
 31
0.0
  0
LINE
  5
A9
330
17
100
AcDbEntity
  8
FP-Roof
 62
8
100
AcDbLine
 10
11319.839850245138
 20
554.6561812763434
 30
0.0
 11
11320.699909534596
 21
553.1665148797424
 31
0.0
  0
LINE
  5
AA
330
17
100
AcDbEntity
  8
FP-Roof
 62
8
100
AcDbLine
 10
11326.918695191576
 20
554.5295049330603
 30
0.0
 11
11325.416511590076
 21
554.5295049330603
 31
0.0
  0
LINE
  5
AB
330
17
100
AcDbEntity
  8
FP-Roof
 62
8
100
AcDbLine
 10
11325.908835020382
 20
554.5295049330603
 30
0.0
 11
11325.9088350202
 21
549.4858320872613
 31
0.0
  0
LINE
  5
AC
330
17
100
AcDbEntity
  8
FP-Roof
 62
8
100
AcDbLine
 10
11325.908845221194
 20
547.1077724313113
 30
0.0
 11
11325.908845221194
 21
537.2894794053104
 31
0.0
  0
LINE
  5
AD
330
17
100
AcDbEntity
  8
FP-Roof
 62
8
100
AcDbLine
 10
11326.188986430978
 20
547.1101478270234
 30
0.0
 11
11366.182139224373
 21
547.1098895227337
 31
0.0
  0
LINE
  5
AE
330
17
100
AcDbEntity
  8
FP-Roof
 62
8
100
AcDbLine
 10
11326.430816980988
 20
554.5295049330639
 30
0.0
 11
11326.430816980806
 21
549.4878084937759
 31
0.0
  0
LINE
  5
AF
330
17
100
AcDbEntity
  8
FP-Roof
 62
8
100
AcDbLine
 10
11326.430827181852
 20
547.1057960239145
 30
0.0
 11
11326.4308271818
 21
537.289479405114
 31
0.0
  0
LINE
  5
B0
330
17
100
AcDbEntity
  8
FP-Roof
 62
8
100
AcDbLine
 10
11326.430827181845
 20
546.5881636324107
 30
0.0
 11
11366.182139224373
 21
546.5879050005901
 31
0.0
  0
LINE
  5
B1
330
17
100
AcDbEntity
  8
FP-Roof
 62
8
100
AcDbLine
 10
11332.508692193936
 20
554.6561812763434
 30
0.0
 11
11331.648632904478
 21
553.1665148797424
 31
0.0
  0
LINE
  5
B2
330
17
100
AcDbEntity
  8
FP-Roof
 62
8
100
AcDbLine
 10
11332.388725899276
 20
551.4283841006604
 30
0.0
 11
11333.390181633564
 21
551.4283841006604
 31
0.0
  0
LINE
  5
B3
330
17
100
AcDbEntity
  8
FP-Roof
 62
8
100
AcDbLine
 10
11332.628452585115
 20
547.1057960257572
 30
0.0
 11
11332.628452585115
 21
537.2894794069584
 31
0.0
  0
LINE
  5
B4
330
17
100
AcDbEntity
  8
FP-Roof
 62
8
100
AcDbLine
 10
11332.628462786022
 20
551.4283841006604
 30
0.0
 11
11332.628462786168
 21
549.4878084954239
 31
0.0
  0
LINE
  5
B5
330
17
100
AcDbEntity
  8
FP-Roof
 62
8
100
AcDbLine
 10
11333.15043454578
 20
547.1077724328629
 30
0.0
 11
11333.150434545729
 21
537.2894794069584
 31
0.0
  0
LINE
  5
B6
330
17
100
AcDbEntity
  8
FP-Roof
 62
8
100
AcDbLine
 10
11333.150444746629
 20
551.4283841006604
 30
0.0
 11
11333.150444746774
 21
549.485832088229
 31
0.0
  0
LINE
  5
B7
330
17
100
AcDbEntity
  8
FP-Roof
 62
8
100
AcDbLine
 10
11333.26132490021
 20
554.6561812763434
 30
0.0
 11
11334.121384189668
 21
553.1665148797424
 31
0.0
  0
LINE
  5
B8
330
17
100
AcDbEntity
  8
FP-Roof
 62
8
100
AcDbLine
 10
11339.219429521792
 20
554.6561812780915
 30
0.0
 11
11338.359370232334
 21
553.1665148814905
 31
0.0
  0
LINE
  5
B9
330
17
100
AcDbEntity
  8
FP-Roof
 62
8
100
AcDbLine
 10
11339.099463227125
 20
551.4283841024085
 30
0.0
 11
11340.100918961412
 21
551.4283841024085
 31
0.0
  0
LINE
  5
BA
330
17
100
AcDbEntity
  8
FP-Roof
 62
8
100
AcDbLine
 10
11339.339189912964
 20
547.1057960275052
 30
0.0
 11
11339.339189912964
 21
537.2894794087065
 31
0.0
  0
LINE
  5
BB
330
17
100
AcDbEntity
  8
FP-Roof
 62
8
100
AcDbLine
 10
11339.33920011387
 20
551.4283841024085
 30
0.0
 11
11339.339200114016
 21
549.487808497172
 31
0.0
  0
LINE
  5
BC
330
17
100
AcDbEntity
  8
FP-Roof
 62
8
100
AcDbLine
 10
11339.861171873628
 20
547.107772434611
 30
0.0
 11
11339.861171873585
 21
537.2894794087065
 31
0.0
  0
LINE
  5
BD
330
17
100
AcDbEntity
  8
FP-Roof
 62
8
100
AcDbLine
 10
11339.861182074477
 20
551.4283841024085
 30
0.0
 11
11339.861182074623
 21
549.4858320899771
 31
0.0
  0
LINE
  5
BE
330
17
100
AcDbEntity
  8
FP-Roof
 62
8
100
AcDbLine
 10
11339.972062228066
 20
554.6561812780915
 30
0.0
 11
11340.832121517524
 21
553.1665148814905
 31
0.0
  0
LINE
  5
BF
330
17
100
AcDbEntity
  8
FP-Roof
 62
8
100
AcDbLine
 10
11345.930166849641
 20
554.6561812798395
 30
0.0
 11
11345.070107560183
 21
553.1665148832385
 31
0.0
  0
LINE
  5
C0
330
17
100
AcDbEntity
  8
FP-Roof
 62
8
100
AcDbLine
 10
11345.70621894599
 20
547.1102188845348
 30
0.0
 11
11366.182139224373
 21
547.1101391434681
 31
0.0
  0
LINE
  5
C1
330
17
100
AcDbEntity
  8
FP-Roof
 62
8
100
AcDbLine
 10
11345.81020055498
 20
551.4283841041565
 30
0.0
 11
11346.811656289268
 21
551.4283841041565
 31
0.0
  0
LINE
  5
C2
330
17
100
AcDbEntity
  8
FP-Roof
 62
8
100
AcDbLine
 10
11346.04992724082
 20
547.1057960292533
 30
0.0
 11
11346.04992724082
 21
537.2894794104545
 31
0.0
  0
LINE
  5
C3
330
17
100
AcDbEntity
  8
FP-Roof
 62
8
100
AcDbLine
 10
11346.049937441727
 20
551.4283841041565
 30
0.0
 11
11346.049937441872
 21
549.48780849892
 31
0.0
  0
LINE
  5
C4
330
17
100
AcDbEntity
  8
FP-Roof
 62
8
100
AcDbLine
 10
11346.571909201484
 20
547.107772436359
 30
0.0
 11
11346.571909201433
 21
537.2894794104545
 31
0.0
  0
LINE
  5
C5
330
17
100
AcDbEntity
  8
FP-Roof
 62
8
100
AcDbLine
 10
11346.571919402333
 20
551.4283841041565
 30
0.0
 11
11346.571919402479
 21
549.4858320917251
 31
0.0
  0
LINE
  5
C6
330
17
100
AcDbEntity
  8
FP-Roof
 62
8
100
AcDbLine
 10
11346.682799555914
 20
554.6561812798395
 30
0.0
 11
11347.542858845372
 21
553.1665148832385
 31
0.0
  0
LINE
  5
C7
330
17
100
AcDbEntity
  8
FP-Roof
 62
8
100
AcDbLine
 10
11352.640904177497
 20
554.6561812815876
 30
0.0
 11
11351.780844888039
 21
553.1665148849866
 31
0.0
  0
LINE
  5
C8
330
17
100
AcDbEntity
  8
FP-Roof
 62
8
100
AcDbLine
 10
11352.52093788283
 20
551.4283841059046
 30
0.0
 11
11353.522393617117
 21
551.4283841059046
 31
0.0
  0
LINE
  5
C9
330
17
100
AcDbEntity
  8
FP-Roof
 62
8
100
AcDbLine
 10
11352.760664568668
 20
547.1057960310013
 30
0.0
 11
11352.760664568668
 21
537.2894794122026
 31
0.0
  0
LINE
  5
CA
330
17
100
AcDbEntity
  8
FP-Roof
 62
8
100
AcDbLine
 10
11352.760674769575
 20
551.4283841059046
 30
0.0
 11
11352.760674769721
 21
549.487808500668
 31
0.0
  0
LINE
  5
CB
330
17
100
AcDbEntity
  8
FP-Roof
 62
8
100
AcDbLine
 10
11353.282646529333
 20
547.1077724381071
 30
0.0
 11
11353.28264652929
 21
537.2894794122026
 31
0.0
  0
LINE
  5
CC
330
17
100
AcDbEntity
  8
FP-Roof
 62
8
100
AcDbLine
 10
11353.282656730182
 20
551.4283841059046
 30
0.0
 11
11353.282656730327
 21
549.4858320934732
 31
0.0
  0
LINE
  5
CD
330
17
100
AcDbEntity
  8
FP-Roof
 62
8
100
AcDbLine
 10
11353.39353688377
 20
554.6561812815876
 30
0.0
 11
11354.253596173228
 21
553.1665148849866
 31
0.0
  0
LINE
  5
CE
330
17
100
AcDbEntity
  8
FP-Roof
 62
8
100
AcDbLine
 10
11359.351641505345
 20
554.6561812833356
 30
0.0
 11
11358.491582215887
 21
553.1665148867346
 31
0.0
  0
LINE
  5
CF
330
17
100
AcDbEntity
  8
FP-Roof
 62
8
100
AcDbLine
 10
11359.231675210685
 20
551.4283841076526
 30
0.0
 11
11360.233130944973
 21
551.4283841076526
 31
0.0
  0
LINE
  5
D0
330
17
100
AcDbEntity
  8
FP-Roof
 62
8
100
AcDbLine
 10
11359.471401896524
 20
547.1057960327494
 30
0.0
 11
11359.471401896524
 21
537.2894794139506
 31
0.0
  0
LINE
  5
D1
330
17
100
AcDbEntity
  8
FP-Roof
 62
8
100
AcDbLine
 10
11359.471412097431
 20
551.4283841076526
 30
0.0
 11
11359.471412097577
 21
549.4878085024161
 31
0.0
  0
LINE
  5
D2
330
17
100
AcDbEntity
  8
FP-Roof
 62
8
100
AcDbLine
 10
11359.993383857189
 20
547.1077724398551
 30
0.0
 11
11359.993383857138
 21
537.2894794139506
 31
0.0
  0
LINE
  5
D3
330
17
100
AcDbEntity
  8
FP-Roof
 62
8
100
AcDbLine
 10
11359.993394058038
 20
551.4283841076526
 30
0.0
 11
11359.993394058183
 21
549.4858320952212
 31
0.0
  0
LINE
  5
D4
330
17
100
AcDbEntity
  8
FP-Roof
 62
8
100
AcDbLine
 10
11360.104274211619
 20
554.6561812833356
 30
0.0
 11
11360.964333501077
 21
553.1665148867346
 31
0.0
  0
LINE
  5
D5
330
17
100
AcDbEntity
  8
FP-Roof
 62
8
100
AcDbLine
 10
11366.182139224373
 20
551.6614078299649
 30
0.0
 11
11366.182139224373
 21
537.2941580943411
 31
0.0
  0
LINE
  5
D6
330
17
100
AcDbEntity
  8
FP-Roof
 62
8
100
AcDbLine
 10
11366.965112165359
 20
551.6584432191707
 30
0.0
 11
11366.965112165286
 21
537.2941580943411
 31
0.0
  0
LINE
  5
D7
330
17
100
AcDbEntity
  8
EL-Roof
100
AcDbLine
 10
11372.998424533991
 20
536.7435102350632
 30
0.0
 11
11371.901680136263
 21
537.2941633772557
 31
0.0
  0
ENDSEC
  0
SECTION
  2
OBJECTS
  0
DICTIONARY
  5
A
330
0
100
AcDbDictionary
280
0
281
1
  3
ACAD_COLOR
350
B
  3
ACAD_GROUP
350
C
  3
ACAD_LAYOUT
350
D
  3
ACAD_MATERIAL
350
E
  3
ACAD_MLEADERSTYLE
350
F
  3
ACAD_MLINESTYLE
350
10
  3
ACAD_PLOTSETTINGS
350
11
  3
ACAD_PLOTSTYLENAME
350
12
  3
ACAD_SCALELIST
350
14
  3
ACAD_TABLESTYLE
350
15
  3
ACAD_VISUALSTYLE
350
16
  3
EZDXF_META
350
2D
  0
DICTIONARY
  5
B
330
A
100
AcDbDictionary
280
0
281
1
  0
DICTIONARY
  5
C
330
A
100
AcDbDictionary
280
0
281
1
  0
DICTIONARY
  5
D
330
A
100
AcDbDictionary
280
0
281
1
  3
Model
350
1A
  3
Layout1
350
1E
  0
DICTIONARY
  5
E
330
A
100
AcDbDictionary
280
0
281
1
  3
ByBlock
350
1F
  3
ByLayer
350
20
  3
Global
350
21
  0
DICTIONARY
  5
F
330
A
100
AcDbDictionary
280
0
281
1
  3
Standard
350
2C
  0
DICTIONARY
  5
10
330
A
100
AcDbDictionary
280
0
281
1
  3
Standard
350
22
  0
DICTIONARY
  5
11
330
A
100
AcDbDictionary
280
0
281
1
  0
ACDBDICTIONARYWDFLT
  5
12
330
A
100
AcDbDictionary
280
0
281
1
  3
Normal
350
13
100
AcDbDictionaryWithDefault
340
13
  0
ACDBPLACEHOLDER
  5
13
330
12
  0
DICTIONARY
  5
14
330
A
100
AcDbDictionary
280
0
281
1
  0
DICTIONARY
  5
15
330
A
100
AcDbDictionary
280
0
281
1
  0
DICTIONARY
  5
16
330
A
100
AcDbDictionary
280
0
281
1
  0
LAYOUT
  5
1A
330
D
100
AcDbPlotSettings
  1

  2
Adobe PDF
  4
A3
  6

 40
7.5
 41
20.0
 42
7.5
 43
20.0
 44
420.0
 45
297.0
 46
0.0
 47
0.0
 48
0.0
 49
0.0
140
0.0
141
0.0
142
1.0
143
1.0
 70
1024
 72
1
 73
0
 74
5
  7

 75
16
 76
0
 77
2
 78
300
147
1.0
148
0.0
149
0.0
100
AcDbLayout
  1
Model
 70
1
 71
0
 10
0.0
 20
0.0
 11
420.0
 21
297.0
 12
0.0
 22
0.0
 32
0.0
 14
1e+20
 24
1e+20
 34
1e+20
 15
-1e+20
 25
-1e+20
 35
-1e+20
146
0.0
 13
0.0
 23
0.0
 33
0.0
 16
1.0
 26
0.0
 36
0.0
 17
0.0
 27
1.0
 37
0.0
 76
1
330
17
  0
LAYOUT
  5
1E
330
D
100
AcDbPlotSettings
  1

  2
Adobe PDF
  4
A3
  6

 40
7.5
 41
20.0
 42
7.5
 43
20.0
 44
420.0
 45
297.0
 46
0.0
 47
0.0
 48
0.0
 49
0.0
140
0.0
141
0.0
142
1.0
143
1.0
 70
0
 72
1
 73
0
 74
5
  7

 75
16
 76
0
 77
2
 78
300
147
1.0
148
0.0
149
0.0
100
AcDbLayout
  1
Layout1
 70
1
 71
1
 10
0.0
 20
0.0
 11
420.0
 21
297.0
 12
0.0
 22
0.0
 32
0.0
 14
1e+20
 24
1e+20
 34
1e+20
 15
-1e+20
 25
-1e+20
 35
-1e+20
146
0.0
 13
0.0
 23
0.0
 33
0.0
 16
1.0
 26
0.0
 36
0.0
 17
0.0
 27
1.0
 37
0.0
 76
1
330
1B
  0
MATERIAL
  5
1F
102
{ACAD_REACTORS
330
E
102
}
330
E
100
AcDbMaterial
  1
ByBlock
  2

 70
0
 40
1.0
 71
1
 41
1.0
 91
-1023410177
 42
1.0
 72
1
  3

 73
1
 74
1
 75
1
 44
0.5
 73
0
 45
1.0
 46
1.0
 77
1
  4

 78
1
 79
1
170
1
 48
1.0
171
1
  6

172
1
173
1
174
1
140
1.0
141
1.0
175
1
  7

176
1
177
1
178
1
143
1.0
179
1
  8

270
1
271
1
272
1
145
1.0
146
1.0
273
1
  9

274
1
275
1
276
1
 42
1.0
 72
1
  3

 73
1
 74
1
 75
1
 94
63
  0
MATERIAL
  5
20
102
{ACAD_REACTORS
330
E
102
}
330
E
100
AcDbMaterial
  1
ByLayer
  2

 70
0
 40
1.0
 71
1
 41
1.0
 91
-1023410177
 42
1.0
 72
1
  3

 73
1
 74
1
 75
1
 44
0.5
 73
0
 45
1.0
 46
1.0
 77
1
  4

 78
1
 79
1
170
1
 48
1.0
171
1
  6

172
1
173
1
174
1
140
1.0
141
1.0
175
1
  7

176
1
177
1
178
1
143
1.0
179
1
  8

270
1
271
1
272
1
145
1.0
146
1.0
273
1
  9

274
1
275
1
276
1
 42
1.0
 72
1
  3

 73
1
 74
1
 75
1
 94
63
  0
MATERIAL
  5
21
102
{ACAD_REACTORS
330
E
102
}
330
E
100
AcDbMaterial
  1
Global
  2

 70
0
 40
1.0
 71
1
 41
1.0
 91
-1023410177
 42
1.0
 72
1
  3

 73
1
 74
1
 75
1
 44
0.5
 73
0
 45
1.0
 46
1.0
 77
1
  4

 78
1
 79
1
170
1
 48
1.0
171
1
  6

172
1
173
1
174
1
140
1.0
141
1.0
175
1
  7

176
1
177
1
178
1
143
1.0
179
1
  8

270
1
271
1
272
1
145
1.0
146
1.0
273
1
  9

274
1
275
1
276
1
 42
1.0
 72
1
  3

 73
1
 74
1
 75
1
 94
63
  0
MLINESTYLE
  5
22
102
{ACAD_REACTORS
330
10
102
}
330
10
100
AcDbMlineStyle
  2
Standard
 70
0
  3

 62
256
 51
90.0
 52
90.0
 71
2
 49
0.5
 62
256
  6
BYLAYER
 49
-0.5
 62
256
  6
BYLAYER
  0
MLEADERSTYLE
  5
2C
102
{ACAD_REACTORS
330
F
102
}
330
F
100
AcDbMLeaderStyle
179
2
170
2
171
1
172
0
 90
2
 40
0.0
 41
0.0
173
1
 91
-1056964608
 92
-2
290
1
 42
2.0
291
1
 43
8.0
  3
Standard
 44
4.0
300

342
29
174
1
175
1
176
0
178
1
 93
-1056964608
 45
4.0
292
0
297
0
 46
4.0
 94
-1056964608
 47
1.0
 49
1.0
140
1.0
294
1
141
0.0
177
0
142
1.0
295
0
296
0
143
3.75
271
0
272
9
273
9
  0
DICTIONARY
  5
2D
330
A
100
AcDbDictionary
281
1
  3
CREATED_BY_EZDXF
350
2E
  3
WRITTEN_BY_EZDXF
350
DA
  0
DICTIONARYVAR
  5
2E
330
2D
100
DictionaryVariables
280
0
  1
1.1.4 @ 2024-01-08T21:29:30.327658+00:00
  0
DICTIONARYVAR
  5
DA
330
2D
100
DictionaryVariables
280
0
  1
1.1.4 @ 2024-01-08T21:29:30.342744+00:00
  0
ENDSEC
  0
EOF
