  0
SECTION
  2
HEADER
  9
$ACADVER
  1
AC1027
  9
$ACADMAINTVER
 70
105
  9
$DWGCODEPAGE
  3
ANSI_1252
  9
$LASTSAVEDBY
  1
ezdxf
  9
$REQUIREDVERSIONS
160
0
  9
$INSBASE
 10
0.0
 20
0.0
 30
0.0
  9
$EXTMIN
 10
1e+20
 20
1e+20
 30
1e+20
  9
$EXTMAX
 10
-1e+20
 20
-1e+20
 30
-1e+20
  9
$LIMMIN
 10
0.0
 20
0.0
  9
$LIMMAX
 10
420.0
 20
297.0
  9
$ORTHOMODE
 70
0
  9
$REGENMODE
 70
1
  9
$FILLMODE
 70
1
  9
$QTEXTMODE
 70
0
  9
$MIRRTEXT
 70
1
  9
$LTSCALE
 40
1.0
  9
$ATTMODE
 70
1
  9
$TEXTSIZE
 40
2.5
  9
$TRACEWID
 40
1.0
  9
$TEXTSTYLE
  7
Standard
  9
$CLAYER
  8
0
  9
$CELTYPE
  6
ByLayer
  9
$CECOLOR
 62
256
  9
$CELTSCALE
 40
1.0
  9
$DISPSILH
 70
0
  9
$DIMSCALE
 40
1.0
  9
$DIMASZ
 40
2.5
  9
$DIMEXO
 40
0.625
  9
$DIMDLI
 40
3.75
  9
$DIMRND
 40
0.0
  9
$DIMDLE
 40
0.0
  9
$DIMEXE
 40
1.25
  9
$DIMTP
 40
0.0
  9
$DIMTM
 40
0.0
  9
$DIMTXT
 40
2.5
  9
$DIMCEN
 40
2.5
  9
$DIMTSZ
 40
0.0
  9
$DIMTOL
 70
0
  9
$DIMLIM
 70
0
  9
$DIMTIH
 70
0
  9
$DIMTOH
 70
0
  9
$DIMSE1
 70
0
  9
$DIMSE2
 70
0
  9
$DIMTAD
 70
1
  9
$DIMZIN
 70
8
  9
$DIMBLK
  1

  9
$DIMASO
 70
1
  9
$DIMSHO
 70
1
  9
$DIMPOST
  1

  9
$DIMAPOST
  1

  9
$DIMALT
 70
0
  9
$DIMALTD
 70
3
  9
$DIMALTF
 40
0.03937007874
  9
$DIMLFAC
 40
1.0
  9
$DIMTOFL
 70
1
  9
$DIMTVP
 40
0.0
  9
$DIMTIX
 70
0
  9
$DIMSOXD
 70
0
  9
$DIMSAH
 70
0
  9
$DIMBLK1
  1

  9
$DIMBLK2
  1

  9
$DIMSTYLE
  2
ISO-25
  9
$DIMCLRD
 70
0
  9
$DIMCLRE
 70
0
  9
$DIMCLRT
 70
0
  9
$DIMTFAC
 40
1.0
  9
$DIMGAP
 40
0.625
  9
$DIMJUST
 70
0
  9
$DIMSD1
 70
0
  9
$DIMSD2
 70
0
  9
$DIMTOLJ
 70
0
  9
$DIMTZIN
 70
8
  9
$DIMALTZ
 70
0
  9
$DIMALTTZ
 70
0
  9
$DIMUPT
 70
0
  9
$DIMDEC
 70
2
  9
$DIMTDEC
 70
2
  9
$DIMALTU
 70
2
  9
$DIMALTTD
 70
3
  9
$DIMTXSTY
  7
Standard
  9
$DIMAUNIT
 70
0
  9
$DIMADEC
 70
0
  9
$DIMALTRND
 40
0.0
  9
$DIMAZIN
 70
0
  9
$DIMDSEP
 70
44
  9
$DIMATFIT
 70
3
  9
$DIMFRAC
 70
0
  9
$DIMLDRBLK
  1

  9
$DIMLUNIT
 70
2
  9
$DIMLWD
 70
-2
  9
$DIMLWE
 70
-2
  9
$DIMTMOVE
 70
0
  9
$DIMFXL
 40
1.0
  9
$DIMFXLON
 70
0
  9
$DIMJOGANG
 40
0.785398163397
  9
$DIMTFILL
 70
0
  9
$DIMTFILLCLR
 70
0
  9
$DIMARCSYM
 70
0
  9
$DIMLTYPE
  6

  9
$DIMLTEX1
  6

  9
$DIMLTEX2
  6

  9
$DIMTXTDIRECTION
 70
0
  9
$LUNITS
 70
2
  9
$LUPREC
 70
4
  9
$SKETCHINC
 40
1.0
  9
$FILLETRAD
 40
10.0
  9
$AUNITS
 70
0
  9
$AUPREC
 70
2
  9
$MENU
  1
.
  9
$ELEVATION
 40
0.0
  9
$PELEVATION
 40
0.0
  9
$THICKNESS
 40
0.0
  9
$LIMCHECK
 70
0
  9
$CHAMFERA
 40
0.0
  9
$CHAMFERB
 40
0.0
  9
$CHAMFERC
 40
0.0
  9
$CHAMFERD
 40
0.0
  9
$SKPOLY
 70
0
  9
$TDCREATE
 40
2460312.674537037
  9
$TDUCREATE
 40
2458532.153996898
  9
$TDUPDATE
 40
2460312.674537037
  9
$TDUUPDATE
 40
2458532.1544311
  9
$TDINDWG
 40
0.0
  9
$TDUSRTIMER
 40
0.0
  9
$USRTIMER
 70
1
  9
$ANGBASE
 50
0.0
  9
$ANGDIR
 70
0
  9
$PDMODE
 70
0
  9
$PDSIZE
 40
0.0
  9
$PLINEWID
 40
0.0
  9
$SPLFRAME
 70
0
  9
$SPLINETYPE
 70
6
  9
$SPLINESEGS
 70
8
  9
$HANDSEED
  5
1D0
  9
$SURFTAB1
 70
6
  9
$SURFTAB2
 70
6
  9
$SURFTYPE
 70
6
  9
$SURFU
 70
6
  9
$SURFV
 70
6
  9
$UCSBASE
  2

  9
$UCSNAME
  2

  9
$UCSORG
 10
0.0
 20
0.0
 30
0.0
  9
$UCSXDIR
 10
1.0
 20
0.0
 30
0.0
  9
$UCSYDIR
 10
0.0
 20
1.0
 30
0.0
  9
$UCSORTHOREF
  2

  9
$UCSORTHOVIEW
 70
0
  9
$UCSORGTOP
 10
0.0
 20
0.0
 30
0.0
  9
$UCSORGBOTTOM
 10
0.0
 20
0.0
 30
0.0
  9
$UCSORGLEFT
 10
0.0
 20
0.0
 30
0.0
  9
$UCSORGRIGHT
 10
0.0
 20
0.0
 30
0.0
  9
$UCSORGFRONT
 10
0.0
 20
0.0
 30
0.0
  9
$UCSORGBACK
 10
0.0
 20
0.0
 30
0.0
  9
$PUCSBASE
  2

  9
$PUCSNAME
  2

  9
$PUCSORG
 10
0.0
 20
0.0
 30
0.0
  9
$PUCSXDIR
 10
1.0
 20
0.0
 30
0.0
  9
$PUCSYDIR
 10
0.0
 20
1.0
 30
0.0
  9
$PUCSORTHOREF
  2

  9
$PUCSORTHOVIEW
 70
0
  9
$PUCSORGTOP
 10
0.0
 20
0.0
 30
0.0
  9
$PUCSORGBOTTOM
 10
0.0
 20
0.0
 30
0.0
  9
$PUCSORGLEFT
 10
0.0
 20
0.0
 30
0.0
  9
$PUCSORGRIGHT
 10
0.0
 20
0.0
 30
0.0
  9
$PUCSORGFRONT
 10
0.0
 20
0.0
 30
0.0
  9
$PUCSORGBACK
 10
0.0
 20
0.0
 30
0.0
  9
$USERI1
 70
0
  9
$USERI2
 70
0
  9
$USERI3
 70
0
  9
$USERI4
 70
0
  9
$USERI5
 70
0
  9
$USERR1
 40
0.0
  9
$USERR2
 40
0.0
  9
$USERR3
 40
0.0
  9
$USERR4
 40
0.0
  9
$USERR5
 40
0.0
  9
$WORLDVIEW
 70
1
  9
$SHADEDGE
 70
3
  9
$SHADEDIF
 70
70
  9
$TILEMODE
 70
1
  9
$MAXACTVP
 70
64
  9
$PINSBASE
 10
0.0
 20
0.0
 30
0.0
  9
$PLIMCHECK
 70
0
  9
$PEXTMIN
 10
1e+20
 20
1e+20
 30
1e+20
  9
$PEXTMAX
 10
-1e+20
 20
-1e+20
 30
-1e+20
  9
$PLIMMIN
 10
0.0
 20
0.0
  9
$PLIMMAX
 10
420.0
 20
297.0
  9
$UNITMODE
 70
0
  9
$VISRETAIN
 70
1
  9
$PLINEGEN
 70
0
  9
$PSLTSCALE
 70
1
  9
$TREEDEPTH
 70
3020
  9
$CMLSTYLE
  2
Standard
  9
$CMLJUST
 70
0
  9
$CMLSCALE
 40
20.0
  9
$PROXYGRAPHICS
 70
1
  9
$MEASUREMENT
 70
1
  9
$CELWEIGHT
370
-1
  9
$ENDCAPS
280
0
  9
$JOINSTYLE
280
0
  9
$LWDISPLAY
290
0
  9
$INSUNITS
 70
6
  9
$HYPERLINKBASE
  1

  9
$STYLESHEET
  1

  9
$XEDIT
290
1
  9
$CEPSNTYPE
380
0
  9
$PSTYLEMODE
290
1
  9
$FINGERPRINTGUID
  2
{AE60000A-797F-4E08-8EB3-B97318A00B97}
  9
$VERSIONGUID
  2
{2451408E-E48D-4010-AA76-00ABC15BDE8A}
  9
$EXTNAMES
290
1
  9
$PSVPSCALE
 40
0.0
  9
$OLESTARTUP
290
0
  9
$SORTENTS
280
127
  9
$INDEXCTL
280
0
  9
$HIDETEXT
280
1
  9
$XCLIPFRAME
280
0
  9
$HALOGAP
280
0
  9
$OBSCOLOR
 70
257
  9
$OBSLTYPE
280
0
  9
$INTERSECTIONDISPLAY
280
0
  9
$INTERSECTIONCOLOR
 70
257
  9
$DIMASSOC
280
2
  9
$PROJECTNAME
  1

  9
$CAMERADISPLAY
290
0
  9
$LENSLENGTH
 40
50.0
  9
$CAMERAHEIGHT
 40
0.0
  9
$STEPSPERSEC
 40
24.0
  9
$STEPSIZE
 40
100.0
  9
$3DDWFPREC
 40
2.0
  9
$PSOLWIDTH
 40
0.005
  9
$PSOLHEIGHT
 40
0.08
  9
$LOFTANG1
 40
1.570796326795
  9
$LOFTANG2
 40
1.570796326795
  9
$LOFTMAG1
 40
0.0
  9
$LOFTMAG2
 40
0.0
  9
$LOFTPARAM
 70
7
  9
$LOFTNORMALS
280
1
  9
$LATITUDE
 40
37.795
  9
$LONGITUDE
 40
-122.394
  9
$NORTHDIRECTION
 40
0.0
  9
$TIMEZONE
 70
-8000
  9
$LIGHTGLYPHDISPLAY
280
1
  9
$TILEMODELIGHTSYNCH
280
1
  9
$CMATERIAL
347
20
  9
$SOLIDHIST
280
0
  9
$SHOWHIST
280
1
  9
$DWFFRAME
280
2
  9
$DGNFRAME
280
2
  9
$REALWORLDSCALE
290
1
  9
$INTERFERECOLOR
 62
256
  9
$CSHADOW
280
0
  9
$SHADOWPLANELOCATION
 40
0.0
  0
ENDSEC
  0
SECTION
  2
CLASSES
  0
CLASS
  1
ACDBDICTIONARYWDFLT
  2
AcDbDictionaryWithDefault
  3
ObjectDBX Classes
 90
0
 91
0
280
0
281
0
  0
CLASS
  1
SUN
  2
AcDbSun
  3
SCENEOE
 90
1153
 91
0
280
0
281
0
  0
CLASS
  1
VISUALSTYLE
  2
AcDbVisualStyle
  3
ObjectDBX Classes
 90
4095
 91
0
280
0
281
0
  0
CLASS
  1
MATERIAL
  2
AcDbMaterial
  3
ObjectDBX Classes
 90
1153
 91
0
280
0
281
0
  0
CLASS
  1
SCALE
  2
AcDbScale
  3
ObjectDBX Classes
 90
1153
 91
0
280
0
281
0
  0
CLASS
  1
TABLESTYLE
  2
AcDbTableStyle
  3
ObjectDBX Classes
 90
4095
 91
0
280
0
281
0
  0
CLASS
  1
MLEADERSTYLE
  2
AcDbMLeaderStyle
  3
ACDB_MLEADERSTYLE_CLASS
 90
4095
 91
0
280
0
281
0
  0
CLASS
  1
DICTIONARYVAR
  2
AcDbDictionaryVar
  3
ObjectDBX Classes
 90
0
 91
0
280
0
281
0
  0
CLASS
  1
CELLSTYLEMAP
  2
AcDbCellStyleMap
  3
ObjectDBX Classes
 90
1152
 91
0
280
0
281
0
  0
CLASS
  1
MENTALRAYRENDERSETTINGS
  2
AcDbMentalRayRenderSettings
  3
SCENEOE
 90
1024
 91
0
280
0
281
0
  0
CLASS
  1
ACDBDETAILVIEWSTYLE
  2
AcDbDetailViewStyle
  3
ObjectDBX Classes
 90
1025
 91
0
280
0
281
0
  0
CLASS
  1
ACDBSECTIONVIEWSTYLE
  2
AcDbSectionViewStyle
  3
ObjectDBX Classes
 90
1025
 91
0
280
0
281
0
  0
CLASS
  1
RASTERVARIABLES
  2
AcDbRasterVariables
  3
ISM
 90
0
 91
0
280
0
281
0
  0
CLASS
  1
LAYOUT
  2
AcDbLayout
  3
ObjectDBX Classes
 90
0
 91
0
280
0
281
0
  0
CLASS
  1
ACDBPLACEHOLDER
  2
AcDbPlaceHolder
  3
ObjectDBX Classes
 90
0
 91
0
280
0
281
0
  0
ENDSEC
  0
SECTION
  2
TABLES
  0
TABLE
  2
VPORT
  5
8
330
0
100
AcDbSymbolTable
 70
1
  0
VPORT
  5
23
330
8
100
AcDbSymbolTableRecord
100
AcDbViewportTableRecord
  2
*Active
 70
0
 10
0.0
 20
0.0
 11
1.0
 21
1.0
 12
0.0
 22
0.0
 13
0.0
 23
0.0
 14
0.5
 24
0.5
 15
0.5
 25
0.5
 16
0.0
 26
0.0
 36
1.0
 17
0.0
 27
0.0
 37
0.0
 40
1000.0
 41
1.34
 42
50.0
 43
0.0
 44
0.0
 50
0.0
 51
0.0
 71
0
 72
1000
 73
1
 74
3
 75
0
 76
0
 77
0
 78
0
281
0
 65
0
146
0.0
  0
ENDTAB
  0
TABLE
  2
LTYPE
  5
2
330
0
100
AcDbSymbolTable
 70
3
  0
LTYPE
  5
24
330
2
100
AcDbSymbolTableRecord
100
AcDbLinetypeTableRecord
  2
ByBlock
 70
0
  3

 72
65
 73
0
 40
0.0
  0
LTYPE
  5
25
330
2
100
AcDbSymbolTableRecord
100
AcDbLinetypeTableRecord
  2
ByLayer
 70
0
  3

 72
65
 73
0
 40
0.0
  0
LTYPE
  5
26
330
2
100
AcDbSymbolTableRecord
100
AcDbLinetypeTableRecord
  2
Continuous
 70
0
  3

 72
65
 73
0
 40
0.0
  0
ENDTAB
  0
TABLE
  2
LAYER
  5
1
330
0
100
AcDbSymbolTable
 70
2
  0
LAYER
  5
27
330
1
100
AcDbSymbolTableRecord
100
AcDbLayerTableRecord
  2
0
 70
0
 62
7
  6
Continuous
370
-3
390
13
347
21
  0
LAYER
  5
28
330
1
100
AcDbSymbolTableRecord
100
AcDbLayerTableRecord
  2
Defpoints
 70
0
 62
7
  6
Continuous
290
0
370
-3
390
13
347
21
  0
ENDTAB
  0
TABLE
  2
STYLE
  5
5
330
0
100
AcDbSymbolTable
 70
1
  0
STYLE
  5
29
330
5
100
AcDbSymbolTableRecord
100
AcDbTextStyleTableRecord
  2
Standard
 70
0
 40
0.0
 41
1.0
 50
0.0
 71
0
 42
2.5
  3
txt
  4

  0
ENDTAB
  0
TABLE
  2
VIEW
  5
7
330
0
100
AcDbSymbolTable
 70
0
  0
ENDTAB
  0
TABLE
  2
UCS
  5
6
330
0
100
AcDbSymbolTable
 70
0
  0
ENDTAB
  0
TABLE
  2
APPID
  5
3
330
0
100
AcDbSymbolTable
 70
3
  0
APPID
  5
2A
330
3
100
AcDbSymbolTableRecord
100
AcDbRegAppTableRecord
  2
ACAD
 70
0
  0
APPID
  5
1CD
330
3
100
AcDbSymbolTableRecord
100
AcDbRegAppTableRecord
  2
HATCHBACKGROUNDCOLOR
 70
0
  0
APPID
  5
1CE
330
3
100
AcDbSymbolTableRecord
100
AcDbRegAppTableRecord
  2
EZDXF
 70
0
  0
ENDTAB
  0
TABLE
  2
DIMSTYLE
  5
4
330
0
100
AcDbSymbolTable
 70
1
100
AcDbDimStyleTable
  0
DIMSTYLE
105
2B
330
4
100
AcDbSymbolTableRecord
100
AcDbDimStyleTableRecord
  2
Standard
 70
0
 40
1.0
 41
2.5
 42
0.625
 43
3.75
 44
1.25
 45
0.0
 46
0.0
 47
0.0
 48
0.0
 49
2.5
140
2.5
141
2.5
142
0.0
143
0.03937007874
144
1.0
145
0.0
146
1.0
147
0.625
148
0.0
 69
0
 70
0
 71
0
 72
0
 73
0
 74
0
 75
0
 76
0
 77
1
 78
8
 79
3
170
0
171
3
172
1
173
0
174
0
175
0
176
0
177
0
178
0
179
2
271
2
272
2
273
2
274
3
275
0
276
0
277
2
278
44
279
0
280
0
281
0
282
0
283
0
284
8
285
0
286
0
288
0
289
3
290
0
371
-2
372
-2
  0
ENDTAB
  0
TABLE
  2
BLOCK_RECORD
  5
9
330
0
100
AcDbSymbolTable
 70
2
  0
BLOCK_RECORD
  5
17
330
9
100
AcDbSymbolTableRecord
100
AcDbBlockTableRecord
  2
*Model_Space
340
1A
 70
0
280
1
281
0
  0
BLOCK_RECORD
  5
1B
330
9
100
AcDbSymbolTableRecord
100
AcDbBlockTableRecord
  2
*Paper_Space
340
1E
 70
0
280
1
281
0
  0
ENDTAB
  0
ENDSEC
  0
SECTION
  2
BLOCKS
  0
BLOCK
  5
18
330
17
100
AcDbEntity
  8
0
100
AcDbBlockBegin
  2
*Model_Space
 70
0
 10
0.0
 20
0.0
 30
0.0
  3
*Model_Space
  1

  0
ENDBLK
  5
19
330
17
100
AcDbEntity
  8
0
100
AcDbBlockEnd
  0
BLOCK
  5
1C
330
1B
100
AcDbEntity
  8
0
100
AcDbBlockBegin
  2
*Paper_Space
 70
0
 10
0.0
 20
0.0
 30
0.0
  3
*Paper_Space
  1

  0
ENDBLK
  5
1D
330
1B
100
AcDbEntity
  8
0
100
AcDbBlockEnd
  0
ENDSEC
  0
SECTION
  2
ENTITIES
  0
LINE
  5
2F
330
17
100
AcDbEntity
  8
EL-Roof
 62
1
100
AcDbLine
 10
13639.576666188232
 20
537.2941633772575
 30
0.0
 11
13865.284429846191
 21
537.2941495333902
 31
0.0
  0
LINE
  5
30
330
17
100
AcDbEntity
  8
FP-Roof
 62
8
100
AcDbLine
 10
13644.511444869187
 20
551.6584432191707
 30
0.0
 11
13644.511444869253
 21
537.2941580943411
 31
0.0
  0
LINE
  5
31
330
17
100
AcDbEntity
  8
FP-Roof
 62
8
100
AcDbLine
 10
13645.294417810166
 20
551.6614078299649
 30
0.0
 11
13645.294417810166
 21
537.2941580943411
 31
0.0
  0
LINE
  5
32
330
17
100
AcDbEntity
  8
FP-Roof
 62
8
100
AcDbLine
 10
13685.045729852694
 20
546.5881636324107
 30
0.0
 11
13645.294417810166
 21
546.5879050005901
 31
0.0
  0
LINE
  5
33
330
17
100
AcDbEntity
  8
FP-Roof
 62
8
100
AcDbLine
 10
13685.287570603568
 20
547.1101478270234
 30
0.0
 11
13645.294417810166
 21
547.1098895227337
 31
0.0
  0
LINE
  5
34
330
17
100
AcDbEntity
  8
FP-Roof
 62
8
100
AcDbLine
 10
13665.770338088549
 20
547.1102188845348
 30
0.0
 11
13645.294417810166
 21
547.1101391434681
 31
0.0
  0
LINE
  5
35
330
17
100
AcDbEntity
  8
FP-Roof
 62
8
100
AcDbLine
 10
13651.37228282292
 20
554.6561812833356
 30
0.0
 11
13650.512223533462
 21
553.1665148867346
 31
0.0
  0
LINE
  5
36
330
17
100
AcDbEntity
  8
FP-Roof
 62
8
100
AcDbLine
 10
13652.24488182386
 20
551.4283841076526
 30
0.0
 11
13651.243426089573
 21
551.4283841076526
 31
0.0
  0
LINE
  5
37
330
17
100
AcDbEntity
  8
FP-Roof
 62
8
100
AcDbLine
 10
13651.483162976509
 20
551.4283841076526
 30
0.0
 11
13651.483162976363
 21
549.4858320952212
 31
0.0
  0
LINE
  5
38
330
17
100
AcDbEntity
  8
FP-Roof
 62
8
100
AcDbLine
 10
13651.483173177357
 20
547.1077724398551
 30
0.0
 11
13651.483173177401
 21
537.2894794139506
 31
0.0
  0
LINE
  5
39
330
17
100
AcDbEntity
  8
FP-Roof
 62
8
100
AcDbLine
 10
13652.005144937115
 20
551.4283841076526
 30
0.0
 11
13652.00514493697
 21
549.4878085024161
 31
0.0
  0
LINE
  5
3A
330
17
100
AcDbEntity
  8
FP-Roof
 62
8
100
AcDbLine
 10
13652.005155138022
 20
547.1057960327494
 30
0.0
 11
13652.005155138022
 21
537.2894794139506
 31
0.0
  0
LINE
  5
3B
330
17
100
AcDbEntity
  8
FP-Roof
 62
8
100
AcDbLine
 10
13652.124915529193
 20
554.6561812833356
 30
0.0
 11
13652.984974818652
 21
553.1665148867346
 31
0.0
  0
LINE
  5
3C
330
17
100
AcDbEntity
  8
FP-Roof
 62
8
100
AcDbLine
 10
13658.083020150776
 20
554.6561812815876
 30
0.0
 11
13657.222960861318
 21
553.1665148849866
 31
0.0
  0
LINE
  5
3D
330
17
100
AcDbEntity
  8
FP-Roof
 62
8
100
AcDbLine
 10
13658.95561915171
 20
551.4283841059046
 30
0.0
 11
13657.954163417422
 21
551.4283841059046
 31
0.0
  0
LINE
  5
3E
330
17
100
AcDbEntity
  8
FP-Roof
 62
8
100
AcDbLine
 10
13658.193900304357
 20
551.4283841059046
 30
0.0
 11
13658.193900304212
 21
549.4858320934732
 31
0.0
  0
LINE
  5
3F
330
17
100
AcDbEntity
  8
FP-Roof
 62
8
100
AcDbLine
 10
13658.193910505206
 20
547.1077724381071
 30
0.0
 11
13658.193910505257
 21
537.2894794122026
 31
0.0
  0
LINE
  5
40
330
17
100
AcDbEntity
  8
FP-Roof
 62
8
100
AcDbLine
 10
13658.715882264964
 20
551.4283841059046
 30
0.0
 11
13658.715882264818
 21
549.487808500668
 31
0.0
  0
LINE
  5
41
330
17
100
AcDbEntity
  8
FP-Roof
 62
8
100
AcDbLine
 10
13658.71589246587
 20
547.1057960310013
 30
0.0
 11
13658.71589246587
 21
537.2894794122026
 31
0.0
  0
LINE
  5
42
330
17
100
AcDbEntity
  8
FP-Roof
 62
8
100
AcDbLine
 10
13658.83565285705
 20
554.6561812815876
 30
0.0
 11
13659.695712146508
 21
553.1665148849866
 31
0.0
  0
LINE
  5
43
330
17
100
AcDbEntity
  8
FP-Roof
 62
8
100
AcDbLine
 10
13664.793757478625
 20
554.6561812798395
 30
0.0
 11
13663.933698189167
 21
553.1665148832385
 31
0.0
  0
LINE
  5
44
330
17
100
AcDbEntity
  8
FP-Roof
 62
8
100
AcDbLine
 10
13665.666356479565
 20
551.4283841041565
 30
0.0
 11
13664.664900745278
 21
551.4283841041565
 31
0.0
  0
LINE
  5
45
330
17
100
AcDbEntity
  8
FP-Roof
 62
8
100
AcDbLine
 10
13664.904637632213
 20
551.4283841041565
 30
0.0
 11
13664.904637632068
 21
549.4858320917251
 31
0.0
  0
LINE
  5
46
330
17
100
AcDbEntity
  8
FP-Roof
 62
8
100
AcDbLine
 10
13664.904647833062
 20
547.107772436359
 30
0.0
 11
13664.904647833106
 21
537.2894794104545
 31
0.0
  0
LINE
  5
47
330
17
100
AcDbEntity
  8
FP-Roof
 62
8
100
AcDbLine
 10
13665.42661959282
 20
551.4283841041565
 30
0.0
 11
13665.426619592674
 21
549.48780849892
 31
0.0
  0
LINE
  5
48
330
17
100
AcDbEntity
  8
FP-Roof
 62
8
100
AcDbLine
 10
13665.426629793727
 20
547.1057960292533
 30
0.0
 11
13665.426629793727
 21
537.2894794104545
 31
0.0
  0
LINE
  5
49
330
17
100
AcDbEntity
  8
FP-Roof
 62
8
100
AcDbLine
 10
13665.546390184898
 20
554.6561812798395
 30
0.0
 11
13666.406449474356
 21
553.1665148832385
 31
0.0
  0
LINE
  5
4A
330
17
100
AcDbEntity
  8
FP-Roof
 62
8
100
AcDbLine
 10
13671.50449480648
 20
554.6561812780915
 30
0.0
 11
13670.644435517022
 21
553.1665148814905
 31
0.0
  0
LINE
  5
4B
330
17
100
AcDbEntity
  8
FP-Roof
 62
8
100
AcDbLine
 10
13672.377093807414
 20
551.4283841024085
 30
0.0
 11
13671.375638073127
 21
551.4283841024085
 31
0.0
  0
LINE
  5
4C
330
17
100
AcDbEntity
  8
FP-Roof
 62
8
100
AcDbLine
 10
13671.615374960062
 20
551.4283841024085
 30
0.0
 11
13671.615374959916
 21
549.4858320899771
 31
0.0
  0
LINE
  5
4D
330
17
100
AcDbEntity
  8
FP-Roof
 62
8
100
AcDbLine
 10
13671.61538516091
 20
547.107772434611
 30
0.0
 11
13671.615385160962
 21
537.2894794087065
 31
0.0
  0
LINE
  5
4E
330
17
100
AcDbEntity
  8
FP-Roof
 62
8
100
AcDbLine
 10
13672.137356920668
 20
551.4283841024085
 30
0.0
 11
13672.137356920523
 21
549.487808497172
 31
0.0
  0
LINE
  5
4F
330
17
100
AcDbEntity
  8
FP-Roof
 62
8
100
AcDbLine
 10
13672.137367121575
 20
547.1057960275052
 30
0.0
 11
13672.137367121575
 21
537.2894794087065
 31
0.0
  0
LINE
  5
50
330
17
100
AcDbEntity
  8
FP-Roof
 62
8
100
AcDbLine
 10
13672.257127512754
 20
554.6561812780915
 30
0.0
 11
13673.117186802212
 21
553.1665148814905
 31
0.0
  0
LINE
  5
51
330
17
100
AcDbEntity
  8
FP-Roof
 62
8
100
AcDbLine
 10
13678.21523213433
 20
554.6561812763434
 30
0.0
 11
13677.355172844871
 21
553.1665148797424
 31
0.0
  0
LINE
  5
52
330
17
100
AcDbEntity
  8
FP-Roof
 62
8
100
AcDbLine
 10
13679.08783113527
 20
551.4283841006604
 30
0.0
 11
13678.086375400982
 21
551.4283841006604
 31
0.0
  0
LINE
  5
53
330
17
100
AcDbEntity
  8
FP-Roof
 62
8
100
AcDbLine
 10
13678.326112287918
 20
551.4283841006604
 30
0.0
 11
13678.326112287772
 21
549.485832088229
 31
0.0
  0
LINE
  5
54
330
17
100
AcDbEntity
  8
FP-Roof
 62
8
100
AcDbLine
 10
13678.326122488766
 20
547.1077724328629
 30
0.0
 11
13678.32612248881
 21
537.2894794069584
 31
0.0
  0
LINE
  5
55
330
17
100
AcDbEntity
  8
FP-Roof
 62
8
100
AcDbLine
 10
13678.848094248524
 20
551.4283841006604
 30
0.0
 11
13678.848094248378
 21
549.4878084954239
 31
0.0
  0
LINE
  5
56
330
17
100
AcDbEntity
  8
FP-Roof
 62
8
100
AcDbLine
 10
13678.848104449431
 20
547.1057960257572
 30
0.0
 11
13678.848104449431
 21
537.2894794069584
 31
0.0
  0
LINE
  5
57
330
17
100
AcDbEntity
  8
FP-Roof
 62
8
100
AcDbLine
 10
13678.967864840602
 20
554.6561812763434
 30
0.0
 11
13679.82792413006
 21
553.1665148797424
 31
0.0
  0
LINE
  5
58
330
17
100
AcDbEntity
  8
FP-Roof
 62
8
100
AcDbLine
 10
13684.557861842963
 20
554.5295049330603
 30
0.0
 11
13686.060045444463
 21
554.5295049330603
 31
0.0
  0
LINE
  5
59
330
17
100
AcDbEntity
  8
FP-Roof
 62
8
100
AcDbLine
 10
13685.045729852694
 20
547.1057960239145
 30
0.0
 11
13685.045729852738
 21
537.289479405114
 31
0.0
  0
LINE
  5
5A
330
17
100
AcDbEntity
  8
FP-Roof
 62
8
100
AcDbLine
 10
13685.04574005355
 20
554.5295049330639
 30
0.0
 11
13685.045740053733
 21
549.4878084937759
 31
0.0
  0
LINE
  5
5B
330
17
100
AcDbEntity
  8
FP-Roof
 62
8
100
AcDbLine
 10
13685.317001025685
 20
547.1101478270234
 30
0.0
 11
13725.323500423356
 21
547.1099783597679
 31
0.0
  0
LINE
  5
5C
330
17
100
AcDbEntity
  8
FP-Roof
 62
8
100
AcDbLine
 10
13685.567711813344
 20
547.1077724313113
 30
0.0
 11
13685.567711813344
 21
537.2894794053104
 31
0.0
  0
LINE
  5
5D
330
17
100
AcDbEntity
  8
FP-Roof
 62
8
100
AcDbLine
 10
13685.567711813344
 20
546.5881635592673
 30
0.0
 11
13725.323500423356
 21
546.5879944009052
 31
0.0
  0
LINE
  5
5E
330
17
100
AcDbEntity
  8
FP-Roof
 62
8
100
AcDbLine
 10
13685.567722014164
 20
554.5295049330603
 30
0.0
 11
13685.567722014339
 21
549.4858320872613
 31
0.0
  0
LINE
  5
5F
330
17
100
AcDbEntity
  8
FP-Roof
 62
8
100
AcDbLine
 10
13691.6367067894
 20
554.6561812763434
 30
0.0
 11
13690.776647499943
 21
553.1665148797424
 31
0.0
  0
LINE
  5
60
330
17
100
AcDbEntity
  8
FP-Roof
 62
8
100
AcDbLine
 10
13691.51674049474
 20
551.4283841006604
 30
0.0
 11
13692.518196229028
 21
551.4283841006604
 31
0.0
  0
LINE
  5
61
330
17
100
AcDbEntity
  8
FP-Roof
 62
8
100
AcDbLine
 10
13691.75646718058
 20
547.1057960257572
 30
0.0
 11
13691.75646718058
 21
537.2894794069584
 31
0.0
  0
LINE
  5
62
330
17
100
AcDbEntity
  8
FP-Roof
 62
8
100
AcDbLine
 10
13691.756477381487
 20
551.4283841006604
 30
0.0
 11
13691.756477381632
 21
549.4878084954239
 31
0.0
  0
LINE
  5
63
330
17
100
AcDbEntity
  8
FP-Roof
 62
8
100
AcDbLine
 10
13692.278449141244
 20
547.1077724328629
 30
0.0
 11
13692.278449141193
 21
537.2894794069584
 31
0.0
  0
LINE
  5
64
330
17
100
AcDbEntity
  8
FP-Roof
 62
8
100
AcDbLine
 10
13692.278459342093
 20
551.4283841006604
 30
0.0
 11
13692.278459342238
 21
549.485832088229
 31
0.0
  0
LINE
  5
65
330
17
100
AcDbEntity
  8
FP-Roof
 62
8
100
AcDbLine
 10
13692.389339495674
 20
554.6561812763434
 30
0.0
 11
13693.249398785132
 21
553.1665148797424
 31
0.0
  0
LINE
  5
66
330
17
100
AcDbEntity
  8
FP-Roof
 62
8
100
AcDbLine
 10
13698.347444117257
 20
554.6561812780915
 30
0.0
 11
13697.487384827798
 21
553.1665148814905
 31
0.0
  0
LINE
  5
67
330
17
100
AcDbEntity
  8
FP-Roof
 62
8
100
AcDbLine
 10
13698.22747782259
 20
551.4283841024085
 30
0.0
 11
13699.228933556877
 21
551.4283841024085
 31
0.0
  0
LINE
  5
68
330
17
100
AcDbEntity
  8
FP-Roof
 62
8
100
AcDbLine
 10
13698.467204508428
 20
547.1057960275052
 30
0.0
 11
13698.467204508428
 21
537.2894794087065
 31
0.0
  0
LINE
  5
69
330
17
100
AcDbEntity
  8
FP-Roof
 62
8
100
AcDbLine
 10
13698.467214709335
 20
551.4283841024085
 30
0.0
 11
13698.46721470948
 21
549.487808497172
 31
0.0
  0
LINE
  5
6A
330
17
100
AcDbEntity
  8
FP-Roof
 62
8
100
AcDbLine
 10
13698.989186469093
 20
547.107772434611
 30
0.0
 11
13698.989186469049
 21
537.2894794087065
 31
0.0
  0
LINE
  5
6B
330
17
100
AcDbEntity
  8
FP-Roof
 62
8
100
AcDbLine
 10
13698.989196669942
 20
551.4283841024085
 30
0.0
 11
13698.989196670087
 21
549.4858320899771
 31
0.0
  0
LINE
  5
6C
330
17
100
AcDbEntity
  8
FP-Roof
 62
8
100
AcDbLine
 10
13699.10007682353
 20
554.6561812780915
 30
0.0
 11
13699.960136112988
 21
553.1665148814905
 31
0.0
  0
LINE
  5
6D
330
17
100
AcDbEntity
  8
FP-Roof
 62
8
100
AcDbLine
 10
13705.058181445105
 20
554.6561812798395
 30
0.0
 11
13704.198122155647
 21
553.1665148832385
 31
0.0
  0
LINE
  5
6E
330
17
100
AcDbEntity
  8
FP-Roof
 62
8
100
AcDbLine
 10
13704.938215150445
 20
551.4283841041565
 30
0.0
 11
13705.939670884733
 21
551.4283841041565
 31
0.0
  0
LINE
  5
6F
330
17
100
AcDbEntity
  8
FP-Roof
 62
8
100
AcDbLine
 10
13705.177941836284
 20
547.1057960292533
 30
0.0
 11
13705.177941836284
 21
537.2894794104545
 31
0.0
  0
LINE
  5
70
330
17
100
AcDbEntity
  8
FP-Roof
 62
8
100
AcDbLine
 10
13705.177952037191
 20
551.4283841041565
 30
0.0
 11
13705.177952037337
 21
549.48780849892
 31
0.0
  0
LINE
  5
71
330
17
100
AcDbEntity
  8
FP-Roof
 62
8
100
AcDbLine
 10
13705.699923796948
 20
547.107772436359
 30
0.0
 11
13705.699923796898
 21
537.2894794104545
 31
0.0
  0
LINE
  5
72
330
17
100
AcDbEntity
  8
FP-Roof
 62
8
100
AcDbLine
 10
13705.699933997797
 20
551.4283841041565
 30
0.0
 11
13705.699933997943
 21
549.4858320917251
 31
0.0
  0
LINE
  5
73
330
17
100
AcDbEntity
  8
FP-Roof
 62
8
100
AcDbLine
 10
13705.810814151379
 20
554.6561812798395
 30
0.0
 11
13706.670873440837
 21
553.1665148832385
 31
0.0
  0
LINE
  5
74
330
17
100
AcDbEntity
  8
FP-Roof
 62
8
100
AcDbLine
 10
13711.768918772961
 20
554.6561812815876
 30
0.0
 11
13710.908859483503
 21
553.1665148849866
 31
0.0
  0
LINE
  5
75
330
17
100
AcDbEntity
  8
FP-Roof
 62
8
100
AcDbLine
 10
13711.648952478294
 20
551.4283841059046
 30
0.0
 11
13712.650408212581
 21
551.4283841059046
 31
0.0
  0
LINE
  5
76
330
17
100
AcDbEntity
  8
FP-Roof
 62
8
100
AcDbLine
 10
13711.888679164133
 20
547.1057960310013
 30
0.0
 11
13711.888679164133
 21
537.2894794122026
 31
0.0
  0
LINE
  5
77
330
17
100
AcDbEntity
  8
FP-Roof
 62
8
100
AcDbLine
 10
13711.88868936504
 20
551.4283841059046
 30
0.0
 11
13711.888689365185
 21
549.487808500668
 31
0.0
  0
LINE
  5
78
330
17
100
AcDbEntity
  8
FP-Roof
 62
8
100
AcDbLine
 10
13712.410661124797
 20
547.1077724381071
 30
0.0
 11
13712.410661124753
 21
537.2894794122026
 31
0.0
  0
LINE
  5
79
330
17
100
AcDbEntity
  8
FP-Roof
 62
8
100
AcDbLine
 10
13712.410671325646
 20
551.4283841059046
 30
0.0
 11
13712.410671325792
 21
549.4858320934732
 31
0.0
  0
LINE
  5
7A
330
17
100
AcDbEntity
  8
FP-Roof
 62
8
100
AcDbLine
 10
13712.521551479234
 20
554.6561812815876
 30
0.0
 11
13713.381610768693
 21
553.1665148849866
 31
0.0
  0
LINE
  5
7B
330
17
100
AcDbEntity
  8
FP-Roof
 62
8
100
AcDbLine
 10
13718.47965610081
 20
554.6561812833356
 30
0.0
 11
13717.619596811352
 21
553.1665148867346
 31
0.0
  0
LINE
  5
7C
330
17
100
AcDbEntity
  8
FP-Roof
 62
8
100
AcDbLine
 10
13718.35968980615
 20
551.4283841076526
 30
0.0
 11
13719.361145540437
 21
551.4283841076526
 31
0.0
  0
LINE
  5
7D
330
17
100
AcDbEntity
  8
FP-Roof
 62
8
100
AcDbLine
 10
13718.599416491988
 20
547.1057960327494
 30
0.0
 11
13718.599416491988
 21
537.2894794139506
 31
0.0
  0
LINE
  5
7E
330
17
100
AcDbEntity
  8
FP-Roof
 62
8
100
AcDbLine
 10
13718.599426692896
 20
551.4283841076526
 30
0.0
 11
13718.599426693041
 21
549.4878085024161
 31
0.0
  0
LINE
  5
7F
330
17
100
AcDbEntity
  8
FP-Roof
 62
8
100
AcDbLine
 10
13719.121398452653
 20
547.1077724398551
 30
0.0
 11
13719.121398452602
 21
537.2894794139506
 31
0.0
  0
LINE
  5
80
330
17
100
AcDbEntity
  8
FP-Roof
 62
8
100
AcDbLine
 10
13719.121408653502
 20
551.4283841076526
 30
0.0
 11
13719.121408653647
 21
549.4858320952212
 31
0.0
  0
LINE
  5
81
330
17
100
AcDbEntity
  8
FP-Roof
 62
8
100
AcDbLine
 10
13719.232288807083
 20
554.6561812833356
 30
0.0
 11
13720.092348096541
 21
553.1665148867346
 31
0.0
  0
LINE
  5
82
330
17
100
AcDbEntity
  8
FP-Roof
 62
8
100
AcDbLine
 10
13725.310153819837
 20
551.6614078299649
 30
0.0
 11
13725.310153819837
 21
537.2941580943411
 31
0.0
  0
LINE
  5
83
330
17
100
AcDbEntity
  8
FP-Roof
 62
8
100
AcDbLine
 10
13726.093126760823
 20
551.6584432191707
 30
0.0
 11
13726.09312676075
 21
537.2941580943411
 31
0.0
  0
LINE
  5
84
330
17
100
AcDbEntity
  8
FP-Roof
 62
8
100
AcDbLine
 10
13765.848935028405
 20
546.5881635592673
 30
0.0
 11
13726.093146418401
 21
546.5879944009052
 31
0.0
  0
LINE
  5
85
330
17
100
AcDbEntity
  8
FP-Roof
 62
8
100
AcDbLine
 10
13766.099645816064
 20
547.1101478270234
 30
0.0
 11
13726.093146418401
 21
547.1099783597679
 31
0.0
  0
LINE
  5
86
330
17
100
AcDbEntity
  8
FP-Roof
 62
8
100
AcDbLine
 10
13732.184358034667
 20
554.6561812833356
 30
0.0
 11
13731.324298745209
 21
553.1665148867346
 31
0.0
  0
LINE
  5
87
330
17
100
AcDbEntity
  8
FP-Roof
 62
8
100
AcDbLine
 10
13733.056957035607
 20
551.4283841076526
 30
0.0
 11
13732.05550130132
 21
551.4283841076526
 31
0.0
  0
LINE
  5
88
330
17
100
AcDbEntity
  8
FP-Roof
 62
8
100
AcDbLine
 10
13732.295238188255
 20
551.4283841076526
 30
0.0
 11
13732.29523818811
 21
549.4858320952212
 31
0.0
  0
LINE
  5
89
330
17
100
AcDbEntity
  8
FP-Roof
 62
8
100
AcDbLine
 10
13732.295248389104
 20
547.1077724398551
 30
0.0
 11
13732.295248389148
 21
537.2894794139506
 31
0.0
  0
LINE
  5
8A
330
17
100
AcDbEntity
  8
FP-Roof
 62
8
100
AcDbLine
 10
13732.817220148861
 20
551.4283841076526
 30
0.0
 11
13732.817220148716
 21
549.4878085024161
 31
0.0
  0
LINE
  5
8B
330
17
100
AcDbEntity
  8
FP-Roof
 62
8
100
AcDbLine
 10
13732.817230349769
 20
547.1057960327494
 30
0.0
 11
13732.817230349769
 21
537.2894794139506
 31
0.0
  0
LINE
  5
8C
330
17
100
AcDbEntity
  8
FP-Roof
 62
8
100
AcDbLine
 10
13732.93699074094
 20
554.6561812833356
 30
0.0
 11
13733.797050030398
 21
553.1665148867346
 31
0.0
  0
LINE
  5
8D
330
17
100
AcDbEntity
  8
FP-Roof
 62
8
100
AcDbLine
 10
13738.895095362523
 20
554.6561812815876
 30
0.0
 11
13738.035036073064
 21
553.1665148849866
 31
0.0
  0
LINE
  5
8E
330
17
100
AcDbEntity
  8
FP-Roof
 62
8
100
AcDbLine
 10
13739.767694363456
 20
551.4283841059046
 30
0.0
 11
13738.766238629169
 21
551.4283841059046
 31
0.0
  0
LINE
  5
8F
330
17
100
AcDbEntity
  8
FP-Roof
 62
8
100
AcDbLine
 10
13739.005975516104
 20
551.4283841059046
 30
0.0
 11
13739.005975515958
 21
549.4858320934732
 31
0.0
  0
LINE
  5
90
330
17
100
AcDbEntity
  8
FP-Roof
 62
8
100
AcDbLine
 10
13739.005985716953
 20
547.1077724381071
 30
0.0
 11
13739.005985717004
 21
537.2894794122026
 31
0.0
  0
LINE
  5
91
330
17
100
AcDbEntity
  8
FP-Roof
 62
8
100
AcDbLine
 10
13739.52795747671
 20
551.4283841059046
 30
0.0
 11
13739.527957476565
 21
549.487808500668
 31
0.0
  0
LINE
  5
92
330
17
100
AcDbEntity
  8
FP-Roof
 62
8
100
AcDbLine
 10
13739.527967677617
 20
547.1057960310013
 30
0.0
 11
13739.527967677617
 21
537.2894794122026
 31
0.0
  0
LINE
  5
93
330
17
100
AcDbEntity
  8
FP-Roof
 62
8
100
AcDbLine
 10
13739.647728068796
 20
554.6561812815876
 30
0.0
 11
13740.507787358254
 21
553.1665148849866
 31
0.0
  0
LINE
  5
94
330
17
100
AcDbEntity
  8
FP-Roof
 62
8
100
AcDbLine
 10
13745.605832690371
 20
554.6561812798395
 30
0.0
 11
13744.745773400913
 21
553.1665148832385
 31
0.0
  0
LINE
  5
95
330
17
100
AcDbEntity
  8
FP-Roof
 62
8
100
AcDbLine
 10
13746.478431691312
 20
551.4283841041565
 30
0.0
 11
13745.476975957024
 21
551.4283841041565
 31
0.0
  0
LINE
  5
96
330
17
100
AcDbEntity
  8
FP-Roof
 62
8
100
AcDbLine
 10
13745.71671284396
 20
551.4283841041565
 30
0.0
 11
13745.716712843814
 21
549.4858320917251
 31
0.0
  0
LINE
  5
97
330
17
100
AcDbEntity
  8
FP-Roof
 62
8
100
AcDbLine
 10
13745.716723044809
 20
547.107772436359
 30
0.0
 11
13745.716723044852
 21
537.2894794104545
 31
0.0
  0
LINE
  5
98
330
17
100
AcDbEntity
  8
FP-Roof
 62
8
100
AcDbLine
 10
13746.238694804566
 20
551.4283841041565
 30
0.0
 11
13746.23869480442
 21
549.48780849892
 31
0.0
  0
LINE
  5
99
330
17
100
AcDbEntity
  8
FP-Roof
 62
8
100
AcDbLine
 10
13746.238705005473
 20
547.1057960292533
 30
0.0
 11
13746.238705005473
 21
537.2894794104545
 31
0.0
  0
LINE
  5
9A
330
17
100
AcDbEntity
  8
FP-Roof
 62
8
100
AcDbLine
 10
13746.358465396645
 20
554.6561812798395
 30
0.0
 11
13747.218524686103
 21
553.1665148832385
 31
0.0
  0
LINE
  5
9B
330
17
100
AcDbEntity
  8
FP-Roof
 62
8
100
AcDbLine
 10
13752.316570018227
 20
554.6561812780915
 30
0.0
 11
13751.456510728769
 21
553.1665148814905
 31
0.0
  0
LINE
  5
9C
330
17
100
AcDbEntity
  8
FP-Roof
 62
8
100
AcDbLine
 10
13753.18916901916
 20
551.4283841024085
 30
0.0
 11
13752.187713284873
 21
551.4283841024085
 31
0.0
  0
LINE
  5
9D
330
17
100
AcDbEntity
  8
FP-Roof
 62
8
100
AcDbLine
 10
13752.427450171808
 20
551.4283841024085
 30
0.0
 11
13752.427450171663
 21
549.4858320899771
 31
0.0
  0
LINE
  5
9E
330
17
100
AcDbEntity
  8
FP-Roof
 62
8
100
AcDbLine
 10
13752.427460372657
 20
547.107772434611
 30
0.0
 11
13752.427460372708
 21
537.2894794087065
 31
0.0
  0
LINE
  5
9F
330
17
100
AcDbEntity
  8
FP-Roof
 62
8
100
AcDbLine
 10
13752.949432132415
 20
551.4283841024085
 30
0.0
 11
13752.949432132269
 21
549.487808497172
 31
0.0
  0
LINE
  5
A0
330
17
100
AcDbEntity
  8
FP-Roof
 62
8
100
AcDbLine
 10
13752.949442333322
 20
547.1057960275052
 30
0.0
 11
13752.949442333322
 21
537.2894794087065
 31
0.0
  0
LINE
  5
A1
330
17
100
AcDbEntity
  8
FP-Roof
 62
8
100
AcDbLine
 10
13753.0692027245
 20
554.6561812780915
 30
0.0
 11
13753.929262013959
 21
553.1665148814905
 31
0.0
  0
LINE
  5
A2
330
17
100
AcDbEntity
  8
FP-Roof
 62
8
100
AcDbLine
 10
13759.027307346076
 20
554.6561812763434
 30
0.0
 11
13758.167248056618
 21
553.1665148797424
 31
0.0
  0
LINE
  5
A3
330
17
100
AcDbEntity
  8
FP-Roof
 62
8
100
AcDbLine
 10
13759.899906347016
 20
551.4283841006604
 30
0.0
 11
13758.898450612729
 21
551.4283841006604
 31
0.0
  0
LINE
  5
A4
330
17
100
AcDbEntity
  8
FP-Roof
 62
8
100
AcDbLine
 10
13759.138187499664
 20
551.4283841006604
 30
0.0
 11
13759.138187499519
 21
549.485832088229
 31
0.0
  0
LINE
  5
A5
330
17
100
AcDbEntity
  8
FP-Roof
 62
8
100
AcDbLine
 10
13759.138197700513
 20
547.1077724328629
 30
0.0
 11
13759.138197700557
 21
537.2894794069584
 31
0.0
  0
LINE
  5
A6
330
17
100
AcDbEntity
  8
FP-Roof
 62
8
100
AcDbLine
 10
13759.66016946027
 20
551.4283841006604
 30
0.0
 11
13759.660169460125
 21
549.4878084954239
 31
0.0
  0
LINE
  5
A7
330
17
100
AcDbEntity
  8
FP-Roof
 62
8
100
AcDbLine
 10
13759.660179661178
 20
547.1057960257572
 30
0.0
 11
13759.660179661178
 21
537.2894794069584
 31
0.0
  0
LINE
  5
A8
330
17
100
AcDbEntity
  8
FP-Roof
 62
8
100
AcDbLine
 10
13759.779940052349
 20
554.6561812763434
 30
0.0
 11
13760.639999341807
 21
553.1665148797424
 31
0.0
  0
LINE
  5
A9
330
17
100
AcDbEntity
  8
FP-Roof
 62
8
100
AcDbLine
 10
13766.858784998787
 20
554.5295049330603
 30
0.0
 11
13765.356601397287
 21
554.5295049330603
 31
0.0
  0
LINE
  5
AA
330
17
100
AcDbEntity
  8
FP-Roof
 62
8
100
AcDbLine
 10
13765.848924827593
 20
554.5295049330603
 30
0.0
 11
13765.84892482741
 21
549.4858320872613
 31
0.0
  0
LINE
  5
AB
330
17
100
AcDbEntity
  8
FP-Roof
 62
8
100
AcDbLine
 10
13765.848935028405
 20
547.1077724313113
 30
0.0
 11
13765.848935028405
 21
537.2894794053104
 31
0.0
  0
LINE
  5
AC
330
17
100
AcDbEntity
  8
FP-Roof
 62
8
100
AcDbLine
 10
13766.129076238189
 20
547.1101478270234
 30
0.0
 11
13806.122229031584
 21
547.1098895227337
 31
0.0
  0
LINE
  5
AD
330
17
100
AcDbEntity
  8
FP-Roof
 62
8
100
AcDbLine
 10
13766.3709067882
 20
554.5295049330639
 30
0.0
 11
13766.370906788017
 21
549.4878084937759
 31
0.0
  0
LINE
  5
AE
330
17
100
AcDbEntity
  8
FP-Roof
 62
8
100
AcDbLine
 10
13766.370916989063
 20
547.1057960239145
 30
0.0
 11
13766.370916989012
 21
537.289479405114
 31
0.0
  0
LINE
  5
AF
330
17
100
AcDbEntity
  8
FP-Roof
 62
8
100
AcDbLine
 10
13766.370916989055
 20
546.5881636324107
 30
0.0
 11
13806.122229031584
 21
546.5879050005901
 31
0.0
  0
LINE
  5
B0
330
17
100
AcDbEntity
  8
FP-Roof
 62
8
100
AcDbLine
 10
13772.448782001147
 20
554.6561812763434
 30
0.0
 11
13771.58872271169
 21
553.1665148797424
 31
0.0
  0
LINE
  5
B1
330
17
100
AcDbEntity
  8
FP-Roof
 62
8
100
AcDbLine
 10
13772.328815706487
 20
551.4283841006604
 30
0.0
 11
13773.330271440775
 21
551.4283841006604
 31
0.0
  0
LINE
  5
B2
330
17
100
AcDbEntity
  8
FP-Roof
 62
8
100
AcDbLine
 10
13772.568542392326
 20
547.1057960257572
 30
0.0
 11
13772.568542392326
 21
537.2894794069584
 31
0.0
  0
LINE
  5
B3
330
17
100
AcDbEntity
  8
FP-Roof
 62
8
100
AcDbLine
 10
13772.568552593233
 20
551.4283841006604
 30
0.0
 11
13772.568552593379
 21
549.4878084954239
 31
0.0
  0
LINE
  5
B4
330
17
100
AcDbEntity
  8
FP-Roof
 62
8
100
AcDbLine
 10
13773.09052435299
 20
547.1077724328629
 30
0.0
 11
13773.09052435294
 21
537.2894794069584
 31
0.0
  0
LINE
  5
B5
330
17
100
AcDbEntity
  8
FP-Roof
 62
8
100
AcDbLine
 10
13773.09053455384
 20
551.4283841006604
 30
0.0
 11
13773.090534553985
 21
549.485832088229
 31
0.0
  0
LINE
  5
B6
330
17
100
AcDbEntity
  8
FP-Roof
 62
8
100
AcDbLine
 10
13773.20141470742
 20
554.6561812763434
 30
0.0
 11
13774.061473996879
 21
553.1665148797424
 31
0.0
  0
LINE
  5
B7
330
17
100
AcDbEntity
  8
FP-Roof
 62
8
100
AcDbLine
 10
13779.159519329003
 20
554.6561812780915
 30
0.0
 11
13778.299460039545
 21
553.1665148814905
 31
0.0
  0
LINE
  5
B8
330
17
100
AcDbEntity
  8
FP-Roof
 62
8
100
AcDbLine
 10
13779.039553034336
 20
551.4283841024085
 30
0.0
 11
13780.041008768623
 21
551.4283841024085
 31
0.0
  0
LINE
  5
B9
330
17
100
AcDbEntity
  8
FP-Roof
 62
8
100
AcDbLine
 10
13779.279279720175
 20
547.1057960275052
 30
0.0
 11
13779.279279720175
 21
537.2894794087065
 31
0.0
  0
LINE
  5
BA
330
17
100
AcDbEntity
  8
FP-Roof
 62
8
100
AcDbLine
 10
13779.279289921082
 20
551.4283841024085
 30
0.0
 11
13779.279289921227
 21
549.487808497172
 31
0.0
  0
LINE
  5
BB
330
17
100
AcDbEntity
  8
FP-Roof
 62
8
100
AcDbLine
 10
13779.80126168084
 20
547.107772434611
 30
0.0
 11
13779.801261680796
 21
537.2894794087065
 31
0.0
  0
LINE
  5
BC
330
17
100
AcDbEntity
  8
FP-Roof
 62
8
100
AcDbLine
 10
13779.801271881688
 20
551.4283841024085
 30
0.0
 11
13779.801271881834
 21
549.4858320899771
 31
0.0
  0
LINE
  5
BD
330
17
100
AcDbEntity
  8
FP-Roof
 62
8
100
AcDbLine
 10
13779.912152035276
 20
554.6561812780915
 30
0.0
 11
13780.772211324735
 21
553.1665148814905
 31
0.0
  0
LINE
  5
BE
330
17
100
AcDbEntity
  8
FP-Roof
 62
8
100
AcDbLine
 10
13785.870256656852
 20
554.6561812798395
 30
0.0
 11
13785.010197367394
 21
553.1665148832385
 31
0.0
  0
LINE
  5
BF
330
17
100
AcDbEntity
  8
FP-Roof
 62
8
100
AcDbLine
 10
13785.646308753201
 20
547.1102188845348
 30
0.0
 11
13806.122229031584
 21
547.1101391434681
 31
0.0
  0
LINE
  5
C0
330
17
100
AcDbEntity
  8
FP-Roof
 62
8
100
AcDbLine
 10
13785.750290362192
 20
551.4283841041565
 30
0.0
 11
13786.75174609648
 21
551.4283841041565
 31
0.0
  0
LINE
  5
C1
330
17
100
AcDbEntity
  8
FP-Roof
 62
8
100
AcDbLine
 10
13785.99001704803
 20
547.1057960292533
 30
0.0
 11
13785.99001704803
 21
537.2894794104545
 31
0.0
  0
LINE
  5
C2
330
17
100
AcDbEntity
  8
FP-Roof
 62
8
100
AcDbLine
 10
13785.990027248938
 20
551.4283841041565
 30
0.0
 11
13785.990027249083
 21
549.48780849892
 31
0.0
  0
LINE
  5
C3
330
17
100
AcDbEntity
  8
FP-Roof
 62
8
100
AcDbLine
 10
13786.511999008695
 20
547.107772436359
 30
0.0
 11
13786.511999008644
 21
537.2894794104545
 31
0.0
  0
LINE
  5
C4
330
17
100
AcDbEntity
  8
FP-Roof
 62
8
100
AcDbLine
 10
13786.512009209544
 20
551.4283841041565
 30
0.0
 11
13786.51200920969
 21
549.4858320917251
 31
0.0
  0
LINE
  5
C5
330
17
100
AcDbEntity
  8
FP-Roof
 62
8
100
AcDbLine
 10
13786.622889363125
 20
554.6561812798395
 30
0.0
 11
13787.482948652583
 21
553.1665148832385
 31
0.0
  0
LINE
  5
C6
330
17
100
AcDbEntity
  8
FP-Roof
 62
8
100
AcDbLine
 10
13792.580993984708
 20
554.6561812815876
 30
0.0
 11
13791.72093469525
 21
553.1665148849866
 31
0.0
  0
LINE
  5
C7
330
17
100
AcDbEntity
  8
FP-Roof
 62
8
100
AcDbLine
 10
13792.46102769004
 20
551.4283841059046
 30
0.0
 11
13793.462483424328
 21
551.4283841059046
 31
0.0
  0
LINE
  5
C8
330
17
100
AcDbEntity
  8
FP-Roof
 62
8
100
AcDbLine
 10
13792.70075437588
 20
547.1057960310013
 30
0.0
 11
13792.70075437588
 21
537.2894794122026
 31
0.0
  0
LINE
  5
C9
330
17
100
AcDbEntity
  8
FP-Roof
 62
8
100
AcDbLine
 10
13792.700764576786
 20
551.4283841059046
 30
0.0
 11
13792.700764576932
 21
549.487808500668
 31
0.0
  0
LINE
  5
CA
330
17
100
AcDbEntity
  8
FP-Roof
 62
8
100
AcDbLine
 10
13793.222736336544
 20
547.1077724381071
 30
0.0
 11
13793.2227363365
 21
537.2894794122026
 31
0.0
  0
LINE
  5
CB
330
17
100
AcDbEntity
  8
FP-Roof
 62
8
100
AcDbLine
 10
13793.222746537393
 20
551.4283841059046
 30
0.0
 11
13793.222746537538
 21
549.4858320934732
 31
0.0
  0
LINE
  5
CC
330
17
100
AcDbEntity
  8
FP-Roof
 62
8
100
AcDbLine
 10
13793.333626690981
 20
554.6561812815876
 30
0.0
 11
13794.19368598044
 21
553.1665148849866
 31
0.0
  0
LINE
  5
CD
330
17
100
AcDbEntity
  8
FP-Roof
 62
8
100
AcDbLine
 10
13799.291731312556
 20
554.6561812833356
 30
0.0
 11
13798.431672023098
 21
553.1665148867346
 31
0.0
  0
LINE
  5
CE
330
17
100
AcDbEntity
  8
FP-Roof
 62
8
100
AcDbLine
 10
13799.171765017896
 20
551.4283841076526
 30
0.0
 11
13800.173220752184
 21
551.4283841076526
 31
0.0
  0
LINE
  5
CF
330
17
100
AcDbEntity
  8
FP-Roof
 62
8
100
AcDbLine
 10
13799.411491703735
 20
547.1057960327494
 30
0.0
 11
13799.411491703735
 21
537.2894794139506
 31
0.0
  0
LINE
  5
D0
330
17
100
AcDbEntity
  8
FP-Roof
 62
8
100
AcDbLine
 10
13799.411501904642
 20
551.4283841076526
 30
0.0
 11
13799.411501904788
 21
549.4878085024161
 31
0.0
  0
LINE
  5
D1
330
17
100
AcDbEntity
  8
FP-Roof
 62
8
100
AcDbLine
 10
13799.9334736644
 20
547.1077724398551
 30
0.0
 11
13799.933473664349
 21
537.2894794139506
 31
0.0
  0
LINE
  5
D2
330
17
100
AcDbEntity
  8
FP-Roof
 62
8
100
AcDbLine
 10
13799.933483865248
 20
551.4283841076526
 30
0.0
 11
13799.933483865394
 21
549.4858320952212
 31
0.0
  0
LINE
  5
D3
330
17
100
AcDbEntity
  8
FP-Roof
 62
8
100
AcDbLine
 10
13800.04436401883
 20
554.6561812833356
 30
0.0
 11
13800.904423308288
 21
553.1665148867346
 31
0.0
  0
LINE
  5
D4
330
17
100
AcDbEntity
  8
FP-Roof
 62
8
100
AcDbLine
 10
13806.122229031584
 20
551.6614078299649
 30
0.0
 11
13806.122229031584
 21
537.2941580943411
 31
0.0
  0
LINE
  5
D5
330
17
100
AcDbEntity
  8
FP-Roof
 62
8
100
AcDbLine
 10
13806.90520197257
 20
551.6584432191707
 30
0.0
 11
13806.905201972497
 21
537.2941580943411
 31
0.0
  0
LINE
  5
D6
330
17
100
AcDbEntity
  8
FP-Roof
 62
8
100
AcDbLine
 10
13846.656514015076
 20
546.588163631592
 30
0.0
 11
13806.905201972548
 21
546.5879049997715
 31
0.0
  0
LINE
  5
D7
330
17
100
AcDbEntity
  8
FP-Roof
 62
8
100
AcDbLine
 10
13846.89835476595
 20
547.1101478262048
 30
0.0
 11
13806.905201972548
 21
547.1098895219151
 31
0.0
  0
LINE
  5
D8
330
17
100
AcDbEntity
  8
FP-Roof
 62
8
100
AcDbLine
 10
13827.38112225093
 20
547.1102188837161
 30
0.0
 11
13806.905201972548
 21
547.1101391426495
 31
0.0
  0
LINE
  5
D9
330
17
100
AcDbEntity
  8
FP-Roof
 62
8
100
AcDbLine
 10
13812.983066985302
 20
554.656181282517
 30
0.0
 11
13812.123007695844
 21
553.166514885916
 31
0.0
  0
LINE
  5
DA
330
17
100
AcDbEntity
  8
FP-Roof
 62
8
100
AcDbLine
 10
13813.855665986242
 20
551.428384106834
 30
0.0
 11
13812.854210251955
 21
551.428384106834
 31
0.0
  0
LINE
  5
DB
330
17
100
AcDbEntity
  8
FP-Roof
 62
8
100
AcDbLine
 10
13813.09394713889
 20
551.428384106834
 30
0.0
 11
13813.093947138745
 21
549.4858320944026
 31
0.0
  0
LINE
  5
DC
330
17
100
AcDbEntity
  8
FP-Roof
 62
8
100
AcDbLine
 10
13813.093957339739
 20
547.1077724390365
 30
0.0
 11
13813.093957339783
 21
537.289479413132
 31
0.0
  0
LINE
  5
DD
330
17
100
AcDbEntity
  8
FP-Roof
 62
8
100
AcDbLine
 10
13813.615929099496
 20
551.428384106834
 30
0.0
 11
13813.615929099351
 21
549.4878085015974
 31
0.0
  0
LINE
  5
DE
330
17
100
AcDbEntity
  8
FP-Roof
 62
8
100
AcDbLine
 10
13813.615939300404
 20
547.1057960319307
 30
0.0
 11
13813.615939300404
 21
537.289479413132
 31
0.0
  0
LINE
  5
DF
330
17
100
AcDbEntity
  8
FP-Roof
 62
8
100
AcDbLine
 10
13813.735699691575
 20
554.656181282517
 30
0.0
 11
13814.595758981033
 21
553.166514885916
 31
0.0
  0
LINE
  5
E0
330
17
100
AcDbEntity
  8
FP-Roof
 62
8
100
AcDbLine
 10
13819.693804313158
 20
554.6561812807689
 30
0.0
 11
13818.8337450237
 21
553.1665148841679
 31
0.0
  0
LINE
  5
E1
330
17
100
AcDbEntity
  8
FP-Roof
 62
8
100
AcDbLine
 10
13820.566403314091
 20
551.4283841050859
 30
0.0
 11
13819.564947579804
 21
551.4283841050859
 31
0.0
  0
LINE
  5
E2
330
17
100
AcDbEntity
  8
FP-Roof
 62
8
100
AcDbLine
 10
13819.804684466739
 20
551.4283841050859
 30
0.0
 11
13819.804684466593
 21
549.4858320926545
 31
0.0
  0
LINE
  5
E3
330
17
100
AcDbEntity
  8
FP-Roof
 62
8
100
AcDbLine
 10
13819.804694667588
 20
547.1077724372884
 30
0.0
 11
13819.804694667639
 21
537.2894794113839
 31
0.0
  0
LINE
  5
E4
330
17
100
AcDbEntity
  8
FP-Roof
 62
8
100
AcDbLine
 10
13820.326666427345
 20
551.4283841050859
 30
0.0
 11
13820.3266664272
 21
549.4878084998494
 31
0.0
  0
LINE
  5
E5
330
17
100
AcDbEntity
  8
FP-Roof
 62
8
100
AcDbLine
 10
13820.326676628252
 20
547.1057960301827
 30
0.0
 11
13820.326676628252
 21
537.2894794113839
 31
0.0
  0
LINE
  5
E6
330
17
100
AcDbEntity
  8
FP-Roof
 62
8
100
AcDbLine
 10
13820.446437019431
 20
554.6561812807689
 30
0.0
 11
13821.30649630889
 21
553.1665148841679
 31
0.0
  0
LINE
  5
E7
330
17
100
AcDbEntity
  8
FP-Roof
 62
8
100
AcDbLine
 10
13826.404541641006
 20
554.6561812790209
 30
0.0
 11
13825.544482351548
 21
553.1665148824198
 31
0.0
  0
LINE
  5
E8
330
17
100
AcDbEntity
  8
FP-Roof
 62
8
100
AcDbLine
 10
13827.277140641947
 20
551.4283841033379
 30
0.0
 11
13826.27568490766
 21
551.4283841033379
 31
0.0
  0
LINE
  5
E9
330
17
100
AcDbEntity
  8
FP-Roof
 62
8
100
AcDbLine
 10
13826.515421794595
 20
551.4283841033379
 30
0.0
 11
13826.51542179445
 21
549.4858320909065
 31
0.0
  0
LINE
  5
EA
330
17
100
AcDbEntity
  8
FP-Roof
 62
8
100
AcDbLine
 10
13826.515431995444
 20
547.1077724355404
 30
0.0
 11
13826.515431995487
 21
537.2894794096359
 31
0.0
  0
LINE
  5
EB
330
17
100
AcDbEntity
  8
FP-Roof
 62
8
100
AcDbLine
 10
13827.037403755201
 20
551.4283841033379
 30
0.0
 11
13827.037403755055
 21
549.4878084981013
 31
0.0
  0
LINE
  5
EC
330
17
100
AcDbEntity
  8
FP-Roof
 62
8
100
AcDbLine
 10
13827.037413956108
 20
547.1057960284346
 30
0.0
 11
13827.037413956108
 21
537.2894794096359
 31
0.0
  0
LINE
  5
ED
330
17
100
AcDbEntity
  8
FP-Roof
 62
8
100
AcDbLine
 10
13827.15717434728
 20
554.6561812790209
 30
0.0
 11
13828.017233636738
 21
553.1665148824198
 31
0.0
  0
LINE
  5
EE
330
17
100
AcDbEntity
  8
FP-Roof
 62
8
100
AcDbLine
 10
13833.115278968862
 20
554.6561812772728
 30
0.0
 11
13832.255219679404
 21
553.1665148806718
 31
0.0
  0
LINE
  5
EF
330
17
100
AcDbEntity
  8
FP-Roof
 62
8
100
AcDbLine
 10
13833.987877969796
 20
551.4283841015898
 30
0.0
 11
13832.986422235508
 21
551.4283841015898
 31
0.0
  0
LINE
  5
F0
330
17
100
AcDbEntity
  8
FP-Roof
 62
8
100
AcDbLine
 10
13833.226159122443
 20
551.4283841015898
 30
0.0
 11
13833.226159122298
 21
549.4858320891584
 31
0.0
  0
LINE
  5
F1
330
17
100
AcDbEntity
  8
FP-Roof
 62
8
100
AcDbLine
 10
13833.226169323292
 20
547.1077724337923
 30
0.0
 11
13833.226169323343
 21
537.2894794078878
 31
0.0
  0
LINE
  5
F2
330
17
100
AcDbEntity
  8
FP-Roof
 62
8
100
AcDbLine
 10
13833.74814108305
 20
551.4283841015898
 30
0.0
 11
13833.748141082904
 21
549.4878084963533
 31
0.0
  0
LINE
  5
F3
330
17
100
AcDbEntity
  8
FP-Roof
 62
8
100
AcDbLine
 10
13833.748151283957
 20
547.1057960266866
 30
0.0
 11
13833.748151283957
 21
537.2894794078878
 31
0.0
  0
LINE
  5
F4
330
17
100
AcDbEntity
  8
FP-Roof
 62
8
100
AcDbLine
 10
13833.867911675135
 20
554.6561812772728
 30
0.0
 11
13834.727970964594
 21
553.1665148806718
 31
0.0
  0
LINE
  5
F5
330
17
100
AcDbEntity
  8
FP-Roof
 62
8
100
AcDbLine
 10
13839.82601629671
 20
554.6561812755248
 30
0.0
 11
13838.965957007253
 21
553.1665148789237
 31
0.0
  0
LINE
  5
F6
330
17
100
AcDbEntity
  8
FP-Roof
 62
8
100
AcDbLine
 10
13840.698615297651
 20
551.4283840998418
 30
0.0
 11
13839.697159563364
 21
551.4283840998418
 31
0.0
  0
LINE
  5
F7
330
17
100
AcDbEntity
  8
FP-Roof
 62
8
100
AcDbLine
 10
13839.9368964503
 20
551.4283840998418
 30
0.0
 11
13839.936896450154
 21
549.4858320874104
 31
0.0
  0
LINE
  5
F8
330
17
100
AcDbEntity
  8
FP-Roof
 62
8
100
AcDbLine
 10
13839.936906651148
 20
547.1077724320443
 30
0.0
 11
13839.936906651192
 21
537.2894794061398
 31
0.0
  0
LINE
  5
F9
330
17
100
AcDbEntity
  8
FP-Roof
 62
8
100
AcDbLine
 10
13840.458878410906
 20
551.4283840998418
 30
0.0
 11
13840.45887841076
 21
549.4878084946052
 31
0.0
  0
LINE
  5
FA
330
17
100
AcDbEntity
  8
FP-Roof
 62
8
100
AcDbLine
 10
13840.458888611813
 20
547.1057960249385
 30
0.0
 11
13840.458888611813
 21
537.2894794061398
 31
0.0
  0
LINE
  5
FB
330
17
100
AcDbEntity
  8
FP-Roof
 62
8
100
AcDbLine
 10
13840.578649002984
 20
554.6561812755248
 30
0.0
 11
13841.438708292442
 21
553.1665148789237
 31
0.0
  0
LINE
  5
FC
330
17
100
AcDbEntity
  8
FP-Roof
 62
8
100
AcDbLine
 10
13846.168646005344
 20
554.5295049322416
 30
0.0
 11
13847.670829606845
 21
554.5295049322416
 31
0.0
  0
LINE
  5
FD
330
17
100
AcDbEntity
  8
FP-Roof
 62
8
100
AcDbLine
 10
13846.656514015076
 20
547.1057960230959
 30
0.0
 11
13846.65651401512
 21
537.2894794042953
 31
0.0
  0
LINE
  5
FE
330
17
100
AcDbEntity
  8
FP-Roof
 62
8
100
AcDbLine
 10
13846.656524215932
 20
554.5295049322452
 30
0.0
 11
13846.656524216114
 21
549.4878084929572
 31
0.0
  0
LINE
  5
FF
330
17
100
AcDbEntity
  8
FP-Roof
 62
8
100
AcDbLine
 10
13846.927785188067
 20
547.1101478262048
 30
0.0
 11
13886.934284585737
 21
547.1099783589492
 31
0.0
  0
LINE
  5
100
330
17
100
AcDbEntity
  8
FP-Roof
 62
8
100
AcDbLine
 10
13847.178495975726
 20
547.1077724304927
 30
0.0
 11
13847.178495975726
 21
537.2894794044918
 31
0.0
  0
LINE
  5
101
330
17
100
AcDbEntity
  8
FP-Roof
 62
8
100
AcDbLine
 10
13847.178495975726
 20
546.5881635584486
 30
0.0
 11
13886.934284585737
 21
546.5879944000866
 31
0.0
  0
LINE
  5
102
330
17
100
AcDbEntity
  8
FP-Roof
 62
8
100
AcDbLine
 10
13847.178506176546
 20
554.5295049322416
 30
0.0
 11
13847.17850617672
 21
549.4858320864427
 31
0.0
  0
LINE
  5
103
330
17
100
AcDbEntity
  8
FP-Roof
 62
8
100
AcDbLine
 10
13853.247490951782
 20
554.6561812755248
 30
0.0
 11
13852.387431662324
 21
553.1665148789237
 31
0.0
  0
LINE
  5
104
330
17
100
AcDbEntity
  8
FP-Roof
 62
8
100
AcDbLine
 10
13853.127524657122
 20
551.4283840998418
 30
0.0
 11
13854.12898039141
 21
551.4283840998418
 31
0.0
  0
LINE
  5
105
330
17
100
AcDbEntity
  8
FP-Roof
 62
8
100
AcDbLine
 10
13853.367251342961
 20
547.1057960249385
 30
0.0
 11
13853.367251342961
 21
537.2894794061398
 31
0.0
  0
LINE
  5
106
330
17
100
AcDbEntity
  8
FP-Roof
 62
8
100
AcDbLine
 10
13853.367261543868
 20
551.4283840998418
 30
0.0
 11
13853.367261544014
 21
549.4878084946052
 31
0.0
  0
LINE
  5
107
330
17
100
AcDbEntity
  8
FP-Roof
 62
8
100
AcDbLine
 10
13853.889233303626
 20
547.1077724320443
 30
0.0
 11
13853.889233303575
 21
537.2894794061398
 31
0.0
  0
LINE
  5
108
330
17
100
AcDbEntity
  8
FP-Roof
 62
8
100
AcDbLine
 10
13853.889243504475
 20
551.4283840998418
 30
0.0
 11
13853.88924350462
 21
549.4858320874104
 31
0.0
  0
LINE
  5
109
330
17
100
AcDbEntity
  8
FP-Roof
 62
8
100
AcDbLine
 10
13854.000123658056
 20
554.6561812755248
 30
0.0
 11
13854.860182947514
 21
553.1665148789237
 31
0.0
  0
LINE
  5
10A
330
17
100
AcDbEntity
  8
FP-Roof
 62
8
100
AcDbLine
 10
13859.958228279638
 20
554.6561812772728
 30
0.0
 11
13859.09816899018
 21
553.1665148806718
 31
0.0
  0
LINE
  5
10B
330
17
100
AcDbEntity
  8
FP-Roof
 62
8
100
AcDbLine
 10
13859.83826198497
 20
551.4283841015898
 30
0.0
 11
13860.839717719258
 21
551.4283841015898
 31
0.0
  0
LINE
  5
10C
330
17
100
AcDbEntity
  8
FP-Roof
 62
8
100
AcDbLine
 10
13860.07798867081
 20
547.1057960266866
 30
0.0
 11
13860.07798867081
 21
537.2894794078878
 31
0.0
  0
LINE
  5
10D
330
17
100
AcDbEntity
  8
FP-Roof
 62
8
100
AcDbLine
 10
13860.077998871717
 20
551.4283841015898
 30
0.0
 11
13860.077998871862
 21
549.4878084963533
 31
0.0
  0
LINE
  5
10E
330
17
100
AcDbEntity
  8
FP-Roof
 62
8
100
AcDbLine
 10
13860.599970631474
 20
547.1077724337923
 30
0.0
 11
13860.59997063143
 21
537.2894794078878
 31
0.0
  0
LINE
  5
10F
330
17
100
AcDbEntity
  8
FP-Roof
 62
8
100
AcDbLine
 10
13860.599980832323
 20
551.4283841015898
 30
0.0
 11
13860.599980832469
 21
549.4858320891584
 31
0.0
  0
LINE
  5
110
330
17
100
AcDbEntity
  8
FP-Roof
 62
8
100
AcDbLine
 10
13860.710860985911
 20
554.6561812772728
 30
0.0
 11
13861.57092027537
 21
553.1665148806718
 31
0.0
  0
LINE
  5
111
330
17
100
AcDbEntity
  8
EL-Roof
 62
1
100
AcDbLine
 10
14050.992193504151
 20
537.2941633772575
 30
0.0
 11
13865.284429846191
 21
537.2941495333902
 31
0.0
  0
LINE
  5
112
330
17
100
AcDbEntity
  8
FP-Roof
 62
8
100
AcDbLine
 10
13866.668965607487
 20
554.6561812790209
 30
0.0
 11
13865.808906318029
 21
553.1665148824198
 31
0.0
  0
LINE
  5
113
330
17
100
AcDbEntity
  8
FP-Roof
 62
8
100
AcDbLine
 10
13866.548999312827
 20
551.4283841033379
 30
0.0
 11
13867.550455047114
 21
551.4283841033379
 31
0.0
  0
LINE
  5
114
330
17
100
AcDbEntity
  8
FP-Roof
 62
8
100
AcDbLine
 10
13866.788725998666
 20
547.1057960284346
 30
0.0
 11
13866.788725998666
 21
537.2894794096359
 31
0.0
  0
LINE
  5
115
330
17
100
AcDbEntity
  8
FP-Roof
 62
8
100
AcDbLine
 10
13866.788736199573
 20
551.4283841033379
 30
0.0
 11
13866.788736199718
 21
549.4878084981013
 31
0.0
  0
LINE
  5
116
330
17
100
AcDbEntity
  8
FP-Roof
 62
8
100
AcDbLine
 10
13867.31070795933
 20
547.1077724355404
 30
0.0
 11
13867.31070795928
 21
537.2894794096359
 31
0.0
  0
LINE
  5
117
330
17
100
AcDbEntity
  8
FP-Roof
 62
8
100
AcDbLine
 10
13867.310718160179
 20
551.4283841033379
 30
0.0
 11
13867.310718160325
 21
549.4858320909065
 31
0.0
  0
LINE
  5
118
330
17
100
AcDbEntity
  8
FP-Roof
 62
8
100
AcDbLine
 10
13867.42159831376
 20
554.6561812790209
 30
0.0
 11
13868.281657603218
 21
553.1665148824198
 31
0.0
  0
LINE
  5
119
330
17
100
AcDbEntity
  8
FP-Roof
 62
8
100
AcDbLine
 10
13873.379702935343
 20
554.6561812807689
 30
0.0
 11
13872.519643645885
 21
553.1665148841679
 31
0.0
  0
LINE
  5
11A
330
17
100
AcDbEntity
  8
FP-Roof
 62
8
100
AcDbLine
 10
13873.259736640675
 20
551.4283841050859
 30
0.0
 11
13874.261192374963
 21
551.4283841050859
 31
0.0
  0
LINE
  5
11B
330
17
100
AcDbEntity
  8
FP-Roof
 62
8
100
AcDbLine
 10
13873.499463326514
 20
547.1057960301827
 30
0.0
 11
13873.499463326514
 21
537.2894794113839
 31
0.0
  0
LINE
  5
11C
330
17
100
AcDbEntity
  8
FP-Roof
 62
8
100
AcDbLine
 10
13873.499473527421
 20
551.4283841050859
 30
0.0
 11
13873.499473527567
 21
549.4878084998494
 31
0.0
  0
LINE
  5
11D
330
17
100
AcDbEntity
  8
FP-Roof
 62
8
100
AcDbLine
 10
13874.021445287179
 20
547.1077724372884
 30
0.0
 11
13874.021445287135
 21
537.2894794113839
 31
0.0
  0
LINE
  5
11E
330
17
100
AcDbEntity
  8
FP-Roof
 62
8
100
AcDbLine
 10
13874.021455488028
 20
551.4283841050859
 30
0.0
 11
13874.021455488173
 21
549.4858320926545
 31
0.0
  0
LINE
  5
11F
330
17
100
AcDbEntity
  8
FP-Roof
 62
8
100
AcDbLine
 10
13874.132335641616
 20
554.6561812807689
 30
0.0
 11
13874.992394931074
 21
553.1665148841679
 31
0.0
  0
LINE
  5
120
330
17
100
AcDbEntity
  8
FP-Roof
 62
8
100
AcDbLine
 10
13880.090440263191
 20
554.656181282517
 30
0.0
 11
13879.230380973733
 21
553.166514885916
 31
0.0
  0
LINE
  5
121
330
17
100
AcDbEntity
  8
FP-Roof
 62
8
100
AcDbLine
 10
13879.970473968531
 20
551.428384106834
 30
0.0
 11
13880.971929702819
 21
551.428384106834
 31
0.0
  0
LINE
  5
122
330
17
100
AcDbEntity
  8
FP-Roof
 62
8
100
AcDbLine
 10
13880.21020065437
 20
547.1057960319307
 30
0.0
 11
13880.21020065437
 21
537.289479413132
 31
0.0
  0
LINE
  5
123
330
17
100
AcDbEntity
  8
FP-Roof
 62
8
100
AcDbLine
 10
13880.210210855277
 20
551.428384106834
 30
0.0
 11
13880.210210855423
 21
549.4878085015974
 31
0.0
  0
LINE
  5
124
330
17
100
AcDbEntity
  8
FP-Roof
 62
8
100
AcDbLine
 10
13880.732182615035
 20
547.1077724390365
 30
0.0
 11
13880.732182614984
 21
537.289479413132
 31
0.0
  0
LINE
  5
125
330
17
100
AcDbEntity
  8
FP-Roof
 62
8
100
AcDbLine
 10
13880.732192815884
 20
551.428384106834
 30
0.0
 11
13880.732192816029
 21
549.4858320944026
 31
0.0
  0
LINE
  5
126
330
17
100
AcDbEntity
  8
FP-Roof
 62
8
100
AcDbLine
 10
13880.843072969465
 20
554.656181282517
 30
0.0
 11
13881.703132258923
 21
553.166514885916
 31
0.0
  0
LINE
  5
127
330
17
100
AcDbEntity
  8
FP-Roof
 62
8
100
AcDbLine
 10
13886.920937982219
 20
551.6614078291462
 30
0.0
 11
13886.920937982219
 21
537.2941580935225
 31
0.0
  0
LINE
  5
128
330
17
100
AcDbEntity
  8
FP-Roof
 62
8
100
AcDbLine
 10
13887.703910923205
 20
551.6584432183521
 30
0.0
 11
13887.703910923132
 21
537.2941580935225
 31
0.0
  0
LINE
  5
129
330
17
100
AcDbEntity
  8
FP-Roof
 62
8
100
AcDbLine
 10
13927.459719190787
 20
546.5881635584486
 30
0.0
 11
13887.703930580783
 21
546.5879944000866
 31
0.0
  0
LINE
  5
12A
330
17
100
AcDbEntity
  8
FP-Roof
 62
8
100
AcDbLine
 10
13927.710429978446
 20
547.1101478262048
 30
0.0
 11
13887.703930580783
 21
547.1099783589492
 31
0.0
  0
LINE
  5
12B
330
17
100
AcDbEntity
  8
FP-Roof
 62
8
100
AcDbLine
 10
13893.795142197048
 20
554.656181282517
 30
0.0
 11
13892.93508290759
 21
553.166514885916
 31
0.0
  0
LINE
  5
12C
330
17
100
AcDbEntity
  8
FP-Roof
 62
8
100
AcDbLine
 10
13894.667741197989
 20
551.428384106834
 30
0.0
 11
13893.666285463702
 21
551.428384106834
 31
0.0
  0
LINE
  5
12D
330
17
100
AcDbEntity
  8
FP-Roof
 62
8
100
AcDbLine
 10
13893.906022350637
 20
551.428384106834
 30
0.0
 11
13893.906022350491
 21
549.4858320944026
 31
0.0
  0
LINE
  5
12E
330
17
100
AcDbEntity
  8
FP-Roof
 62
8
100
AcDbLine
 10
13893.906032551486
 20
547.1077724390365
 30
0.0
 11
13893.90603255153
 21
537.289479413132
 31
0.0
  0
LINE
  5
12F
330
17
100
AcDbEntity
  8
FP-Roof
 62
8
100
AcDbLine
 10
13894.428004311243
 20
551.428384106834
 30
0.0
 11
13894.428004311098
 21
549.4878085015974
 31
0.0
  0
LINE
  5
130
330
17
100
AcDbEntity
  8
FP-Roof
 62
8
100
AcDbLine
 10
13894.42801451215
 20
547.1057960319307
 30
0.0
 11
13894.42801451215
 21
537.289479413132
 31
0.0
  0
LINE
  5
131
330
17
100
AcDbEntity
  8
FP-Roof
 62
8
100
AcDbLine
 10
13894.547774903322
 20
554.656181282517
 30
0.0
 11
13895.40783419278
 21
553.166514885916
 31
0.0
  0
LINE
  5
132
330
17
100
AcDbEntity
  8
FP-Roof
 62
8
100
AcDbLine
 10
13900.505879524904
 20
554.6561812807689
 30
0.0
 11
13899.645820235446
 21
553.1665148841679
 31
0.0
  0
LINE
  5
133
330
17
100
AcDbEntity
  8
FP-Roof
 62
8
100
AcDbLine
 10
13901.378478525838
 20
551.4283841050859
 30
0.0
 11
13900.37702279155
 21
551.4283841050859
 31
0.0
  0
LINE
  5
134
330
17
100
AcDbEntity
  8
FP-Roof
 62
8
100
AcDbLine
 10
13900.616759678485
 20
551.4283841050859
 30
0.0
 11
13900.61675967834
 21
549.4858320926545
 31
0.0
  0
LINE
  5
135
330
17
100
AcDbEntity
  8
FP-Roof
 62
8
100
AcDbLine
 10
13900.616769879334
 20
547.1077724372884
 30
0.0
 11
13900.616769879385
 21
537.2894794113839
 31
0.0
  0
LINE
  5
136
330
17
100
AcDbEntity
  8
FP-Roof
 62
8
100
AcDbLine
 10
13901.138741639092
 20
551.4283841050859
 30
0.0
 11
13901.138741638946
 21
549.4878084998494
 31
0.0
  0
LINE
  5
137
330
17
100
AcDbEntity
  8
FP-Roof
 62
8
100
AcDbLine
 10
13901.138751839999
 20
547.1057960301827
 30
0.0
 11
13901.138751839999
 21
537.2894794113839
 31
0.0
  0
LINE
  5
138
330
17
100
AcDbEntity
  8
FP-Roof
 62
8
100
AcDbLine
 10
13901.258512231178
 20
554.6561812807689
 30
0.0
 11
13902.118571520636
 21
553.1665148841679
 31
0.0
  0
LINE
  5
139
330
17
100
AcDbEntity
  8
FP-Roof
 62
8
100
AcDbLine
 10
13907.216616852753
 20
554.6561812790209
 30
0.0
 11
13906.356557563295
 21
553.1665148824198
 31
0.0
  0
LINE
  5
13A
330
17
100
AcDbEntity
  8
FP-Roof
 62
8
100
AcDbLine
 10
13908.089215853694
 20
551.4283841033379
 30
0.0
 11
13907.087760119406
 21
551.4283841033379
 31
0.0
  0
LINE
  5
13B
330
17
100
AcDbEntity
  8
FP-Roof
 62
8
100
AcDbLine
 10
13907.327497006341
 20
551.4283841033379
 30
0.0
 11
13907.327497006196
 21
549.4858320909065
 31
0.0
  0
LINE
  5
13C
330
17
100
AcDbEntity
  8
FP-Roof
 62
8
100
AcDbLine
 10
13907.32750720719
 20
547.1077724355404
 30
0.0
 11
13907.327507207234
 21
537.2894794096359
 31
0.0
  0
LINE
  5
13D
330
17
100
AcDbEntity
  8
FP-Roof
 62
8
100
AcDbLine
 10
13907.849478966948
 20
551.4283841033379
 30
0.0
 11
13907.849478966802
 21
549.4878084981013
 31
0.0
  0
LINE
  5
13E
330
17
100
AcDbEntity
  8
FP-Roof
 62
8
100
AcDbLine
 10
13907.849489167855
 20
547.1057960284346
 30
0.0
 11
13907.849489167855
 21
537.2894794096359
 31
0.0
  0
LINE
  5
13F
330
17
100
AcDbEntity
  8
FP-Roof
 62
8
100
AcDbLine
 10
13907.969249559026
 20
554.6561812790209
 30
0.0
 11
13908.829308848484
 21
553.1665148824198
 31
0.0
  0
LINE
  5
140
330
17
100
AcDbEntity
  8
FP-Roof
 62
8
100
AcDbLine
 10
13913.927354180609
 20
554.6561812772728
 30
0.0
 11
13913.06729489115
 21
553.1665148806718
 31
0.0
  0
LINE
  5
141
330
17
100
AcDbEntity
  8
FP-Roof
 62
8
100
AcDbLine
 10
13914.799953181542
 20
551.4283841015898
 30
0.0
 11
13913.798497447255
 21
551.4283841015898
 31
0.0
  0
LINE
  5
142
330
17
100
AcDbEntity
  8
FP-Roof
 62
8
100
AcDbLine
 10
13914.03823433419
 20
551.4283841015898
 30
0.0
 11
13914.038234334044
 21
549.4858320891584
 31
0.0
  0
LINE
  5
143
330
17
100
AcDbEntity
  8
FP-Roof
 62
8
100
AcDbLine
 10
13914.038244535039
 20
547.1077724337923
 30
0.0
 11
13914.03824453509
 21
537.2894794078878
 31
0.0
  0
LINE
  5
144
330
17
100
AcDbEntity
  8
FP-Roof
 62
8
100
AcDbLine
 10
13914.560216294796
 20
551.4283841015898
 30
0.0
 11
13914.56021629465
 21
549.4878084963533
 31
0.0
  0
LINE
  5
145
330
17
100
AcDbEntity
  8
FP-Roof
 62
8
100
AcDbLine
 10
13914.560226495703
 20
547.1057960266866
 30
0.0
 11
13914.560226495703
 21
537.2894794078878
 31
0.0
  0
LINE
  5
146
330
17
100
AcDbEntity
  8
FP-Roof
 62
8
100
AcDbLine
 10
13914.679986886882
 20
554.6561812772728
 30
0.0
 11
13915.54004617634
 21
553.1665148806718
 31
0.0
  0
LINE
  5
147
330
17
100
AcDbEntity
  8
FP-Roof
 62
8
100
AcDbLine
 10
13920.638091508457
 20
554.6561812755248
 30
0.0
 11
13919.778032219
 21
553.1665148789237
 31
0.0
  0
LINE
  5
148
330
17
100
AcDbEntity
  8
FP-Roof
 62
8
100
AcDbLine
 10
13921.510690509398
 20
551.4283840998418
 30
0.0
 11
13920.50923477511
 21
551.4283840998418
 31
0.0
  0
LINE
  5
149
330
17
100
AcDbEntity
  8
FP-Roof
 62
8
100
AcDbLine
 10
13920.748971662046
 20
551.4283840998418
 30
0.0
 11
13920.7489716619
 21
549.4858320874104
 31
0.0
  0
LINE
  5
14A
330
17
100
AcDbEntity
  8
FP-Roof
 62
8
100
AcDbLine
 10
13920.748981862895
 20
547.1077724320443
 30
0.0
 11
13920.748981862938
 21
537.2894794061398
 31
0.0
  0
LINE
  5
14B
330
17
100
AcDbEntity
  8
FP-Roof
 62
8
100
AcDbLine
 10
13921.270953622652
 20
551.4283840998418
 30
0.0
 11
13921.270953622507
 21
549.4878084946052
 31
0.0
  0
LINE
  5
14C
330
17
100
AcDbEntity
  8
FP-Roof
 62
8
100
AcDbLine
 10
13921.27096382356
 20
547.1057960249385
 30
0.0
 11
13921.27096382356
 21
537.2894794061398
 31
0.0
  0
LINE
  5
14D
330
17
100
AcDbEntity
  8
FP-Roof
 62
8
100
AcDbLine
 10
13921.39072421473
 20
554.6561812755248
 30
0.0
 11
13922.250783504189
 21
553.1665148789237
 31
0.0
  0
LINE
  5
14E
330
17
100
AcDbEntity
  8
FP-Roof
 62
8
100
AcDbLine
 10
13928.469569161169
 20
554.5295049322416
 30
0.0
 11
13926.967385559668
 21
554.5295049322416
 31
0.0
  0
LINE
  5
14F
330
17
100
AcDbEntity
  8
FP-Roof
 62
8
100
AcDbLine
 10
13927.459708989974
 20
554.5295049322416
 30
0.0
 11
13927.459708989792
 21
549.4858320864427
 31
0.0
  0
LINE
  5
150
330
17
100
AcDbEntity
  8
FP-Roof
 62
8
100
AcDbLine
 10
13927.459719190787
 20
547.1077724304927
 30
0.0
 11
13927.459719190787
 21
537.2894794044918
 31
0.0
  0
LINE
  5
151
330
17
100
AcDbEntity
  8
FP-Roof
 62
8
100
AcDbLine
 10
13927.73986040057
 20
547.1101478262048
 30
0.0
 11
13967.733013193965
 21
547.1098895219151
 31
0.0
  0
LINE
  5
152
330
17
100
AcDbEntity
  8
FP-Roof
 62
8
100
AcDbLine
 10
13927.98169095058
 20
554.5295049322452
 30
0.0
 11
13927.981690950399
 21
549.4878084929572
 31
0.0
  0
LINE
  5
153
330
17
100
AcDbEntity
  8
FP-Roof
 62
8
100
AcDbLine
 10
13927.981701151444
 20
547.1057960230959
 30
0.0
 11
13927.981701151393
 21
537.2894794042953
 31
0.0
  0
LINE
  5
154
330
17
100
AcDbEntity
  8
FP-Roof
 62
8
100
AcDbLine
 10
13927.981701151437
 20
546.588163631592
 30
0.0
 11
13967.733013193965
 21
546.5879049997715
 31
0.0
  0
LINE
  5
155
330
17
100
AcDbEntity
  8
FP-Roof
 62
8
100
AcDbLine
 10
13934.059566163529
 20
554.6561812755248
 30
0.0
 11
13933.19950687407
 21
553.1665148789237
 31
0.0
  0
LINE
  5
156
330
17
100
AcDbEntity
  8
FP-Roof
 62
8
100
AcDbLine
 10
13933.939599868869
 20
551.4283840998418
 30
0.0
 11
13934.941055603156
 21
551.4283840998418
 31
0.0
  0
LINE
  5
157
330
17
100
AcDbEntity
  8
FP-Roof
 62
8
100
AcDbLine
 10
13934.179326554708
 20
547.1057960249385
 30
0.0
 11
13934.179326554708
 21
537.2894794061398
 31
0.0
  0
LINE
  5
158
330
17
100
AcDbEntity
  8
FP-Roof
 62
8
100
AcDbLine
 10
13934.179336755615
 20
551.4283840998418
 30
0.0
 11
13934.17933675576
 21
549.4878084946052
 31
0.0
  0
LINE
  5
159
330
17
100
AcDbEntity
  8
FP-Roof
 62
8
100
AcDbLine
 10
13934.701308515372
 20
547.1077724320443
 30
0.0
 11
13934.701308515321
 21
537.2894794061398
 31
0.0
  0
LINE
  5
15A
330
17
100
AcDbEntity
  8
FP-Roof
 62
8
100
AcDbLine
 10
13934.701318716221
 20
551.4283840998418
 30
0.0
 11
13934.701318716367
 21
549.4858320874104
 31
0.0
  0
LINE
  5
15B
330
17
100
AcDbEntity
  8
FP-Roof
 62
8
100
AcDbLine
 10
13934.812198869802
 20
554.6561812755248
 30
0.0
 11
13935.67225815926
 21
553.1665148789237
 31
0.0
  0
LINE
  5
15C
330
17
100
AcDbEntity
  8
FP-Roof
 62
8
100
AcDbLine
 10
13940.770303491385
 20
554.6561812772728
 30
0.0
 11
13939.910244201927
 21
553.1665148806718
 31
0.0
  0
LINE
  5
15D
330
17
100
AcDbEntity
  8
FP-Roof
 62
8
100
AcDbLine
 10
13940.650337196717
 20
551.4283841015898
 30
0.0
 11
13941.651792931005
 21
551.4283841015898
 31
0.0
  0
LINE
  5
15E
330
17
100
AcDbEntity
  8
FP-Roof
 62
8
100
AcDbLine
 10
13940.890063882556
 20
547.1057960266866
 30
0.0
 11
13940.890063882556
 21
537.2894794078878
 31
0.0
  0
LINE
  5
15F
330
17
100
AcDbEntity
  8
FP-Roof
 62
8
100
AcDbLine
 10
13940.890074083463
 20
551.4283841015898
 30
0.0
 11
13940.890074083609
 21
549.4878084963533
 31
0.0
  0
LINE
  5
160
330
17
100
AcDbEntity
  8
FP-Roof
 62
8
100
AcDbLine
 10
13941.41204584322
 20
547.1077724337923
 30
0.0
 11
13941.412045843177
 21
537.2894794078878
 31
0.0
  0
LINE
  5
161
330
17
100
AcDbEntity
  8
FP-Roof
 62
8
100
AcDbLine
 10
13941.41205604407
 20
551.4283841015898
 30
0.0
 11
13941.412056044215
 21
549.4858320891584
 31
0.0
  0
LINE
  5
162
330
17
100
AcDbEntity
  8
FP-Roof
 62
8
100
AcDbLine
 10
13941.522936197658
 20
554.6561812772728
 30
0.0
 11
13942.382995487116
 21
553.1665148806718
 31
0.0
  0
LINE
  5
163
330
17
100
AcDbEntity
  8
FP-Roof
 62
8
100
AcDbLine
 10
13947.481040819233
 20
554.6561812790209
 30
0.0
 11
13946.620981529775
 21
553.1665148824198
 31
0.0
  0
LINE
  5
164
330
17
100
AcDbEntity
  8
FP-Roof
 62
8
100
AcDbLine
 10
13947.257092915583
 20
547.1102188837161
 30
0.0
 11
13967.733013193965
 21
547.1101391426495
 31
0.0
  0
LINE
  5
165
330
17
100
AcDbEntity
  8
FP-Roof
 62
8
100
AcDbLine
 10
13947.361074524573
 20
551.4283841033379
 30
0.0
 11
13948.36253025886
 21
551.4283841033379
 31
0.0
  0
LINE
  5
166
330
17
100
AcDbEntity
  8
FP-Roof
 62
8
100
AcDbLine
 10
13947.600801210412
 20
547.1057960284346
 30
0.0
 11
13947.600801210412
 21
537.2894794096359
 31
0.0
  0
LINE
  5
167
330
17
100
AcDbEntity
  8
FP-Roof
 62
8
100
AcDbLine
 10
13947.60081141132
 20
551.4283841033379
 30
0.0
 11
13947.600811411465
 21
549.4878084981013
 31
0.0
  0
LINE
  5
168
330
17
100
AcDbEntity
  8
FP-Roof
 62
8
100
AcDbLine
 10
13948.122783171077
 20
547.1077724355404
 30
0.0
 11
13948.122783171026
 21
537.2894794096359
 31
0.0
  0
LINE
  5
169
330
17
100
AcDbEntity
  8
FP-Roof
 62
8
100
AcDbLine
 10
13948.122793371926
 20
551.4283841033379
 30
0.0
 11
13948.122793372071
 21
549.4858320909065
 31
0.0
  0
LINE
  5
16A
330
17
100
AcDbEntity
  8
FP-Roof
 62
8
100
AcDbLine
 10
13948.233673525507
 20
554.6561812790209
 30
0.0
 11
13949.093732814965
 21
553.1665148824198
 31
0.0
  0
LINE
  5
16B
330
17
100
AcDbEntity
  8
FP-Roof
 62
8
100
AcDbLine
 10
13954.19177814709
 20
554.6561812807689
 30
0.0
 11
13953.331718857631
 21
553.1665148841679
 31
0.0
  0
LINE
  5
16C
330
17
100
AcDbEntity
  8
FP-Roof
 62
8
100
AcDbLine
 10
13954.071811852422
 20
551.4283841050859
 30
0.0
 11
13955.07326758671
 21
551.4283841050859
 31
0.0
  0
LINE
  5
16D
330
17
100
AcDbEntity
  8
FP-Roof
 62
8
100
AcDbLine
 10
13954.31153853826
 20
547.1057960301827
 30
0.0
 11
13954.31153853826
 21
537.2894794113839
 31
0.0
  0
LINE
  5
16E
330
17
100
AcDbEntity
  8
FP-Roof
 62
8
100
AcDbLine
 10
13954.311548739168
 20
551.4283841050859
 30
0.0
 11
13954.311548739313
 21
549.4878084998494
 31
0.0
  0
LINE
  5
16F
330
17
100
AcDbEntity
  8
FP-Roof
 62
8
100
AcDbLine
 10
13954.833520498925
 20
547.1077724372884
 30
0.0
 11
13954.833520498882
 21
537.2894794113839
 31
0.0
  0
LINE
  5
170
330
17
100
AcDbEntity
  8
FP-Roof
 62
8
100
AcDbLine
 10
13954.833530699774
 20
551.4283841050859
 30
0.0
 11
13954.83353069992
 21
549.4858320926545
 31
0.0
  0
LINE
  5
171
330
17
100
AcDbEntity
  8
FP-Roof
 62
8
100
AcDbLine
 10
13954.944410853363
 20
554.6561812807689
 30
0.0
 11
13955.80447014282
 21
553.1665148841679
 31
0.0
  0
LINE
  5
172
330
17
100
AcDbEntity
  8
FP-Roof
 62
8
100
AcDbLine
 10
13960.902515474938
 20
554.656181282517
 30
0.0
 11
13960.04245618548
 21
553.166514885916
 31
0.0
  0
LINE
  5
173
330
17
100
AcDbEntity
  8
FP-Roof
 62
8
100
AcDbLine
 10
13960.782549180278
 20
551.428384106834
 30
0.0
 11
13961.784004914565
 21
551.428384106834
 31
0.0
  0
LINE
  5
174
330
17
100
AcDbEntity
  8
FP-Roof
 62
8
100
AcDbLine
 10
13961.022275866117
 20
547.1057960319307
 30
0.0
 11
13961.022275866117
 21
537.289479413132
 31
0.0
  0
LINE
  5
175
330
17
100
AcDbEntity
  8
FP-Roof
 62
8
100
AcDbLine
 10
13961.022286067024
 20
551.428384106834
 30
0.0
 11
13961.02228606717
 21
549.4878085015974
 31
0.0
  0
LINE
  5
176
330
17
100
AcDbEntity
  8
FP-Roof
 62
8
100
AcDbLine
 10
13961.544257826781
 20
547.1077724390365
 30
0.0
 11
13961.54425782673
 21
537.289479413132
 31
0.0
  0
LINE
  5
177
330
17
100
AcDbEntity
  8
FP-Roof
 62
8
100
AcDbLine
 10
13961.54426802763
 20
551.428384106834
 30
0.0
 11
13961.544268027776
 21
549.4858320944026
 31
0.0
  0
LINE
  5
178
330
17
100
AcDbEntity
  8
FP-Roof
 62
8
100
AcDbLine
 10
13961.655148181211
 20
554.656181282517
 30
0.0
 11
13962.51520747067
 21
553.166514885916
 31
0.0
  0
LINE
  5
179
330
17
100
AcDbEntity
  8
FP-Roof
 62
8
100
AcDbLine
 10
13967.733013193965
 20
551.6614078291462
 30
0.0
 11
13967.733013193965
 21
537.2941580935225
 31
0.0
  0
LINE
  5
17A
330
17
100
AcDbEntity
  8
FP-Roof
 62
8
100
AcDbLine
 10
13968.515986134951
 20
551.6584432183521
 30
0.0
 11
13968.515986134878
 21
537.2941580935225
 31
0.0
  0
LINE
  5
17B
330
17
100
AcDbEntity
  8
FP-Roof
 62
8
100
AcDbLine
 10
14008.267298177456
 20
546.5881636324107
 30
0.0
 11
13968.515986134928
 21
546.5879050005901
 31
0.0
  0
LINE
  5
17C
330
17
100
AcDbEntity
  8
FP-Roof
 62
8
100
AcDbLine
 10
14008.50913892833
 20
547.1101478270234
 30
0.0
 11
13968.515986134928
 21
547.1098895227337
 31
0.0
  0
LINE
  5
17D
330
17
100
AcDbEntity
  8
FP-Roof
 62
8
100
AcDbLine
 10
13988.99190641331
 20
547.1102188845348
 30
0.0
 11
13968.515986134928
 21
547.1101391434681
 31
0.0
  0
LINE
  5
17E
330
17
100
AcDbEntity
  8
FP-Roof
 62
8
100
AcDbLine
 10
13974.593851147682
 20
554.6561812833356
 30
0.0
 11
13973.733791858223
 21
553.1665148867346
 31
0.0
  0
LINE
  5
17F
330
17
100
AcDbEntity
  8
FP-Roof
 62
8
100
AcDbLine
 10
13975.466450148622
 20
551.4283841076526
 30
0.0
 11
13974.464994414335
 21
551.4283841076526
 31
0.0
  0
LINE
  5
180
330
17
100
AcDbEntity
  8
FP-Roof
 62
8
100
AcDbLine
 10
13974.70473130127
 20
551.4283841076526
 30
0.0
 11
13974.704731301124
 21
549.4858320952212
 31
0.0
  0
LINE
  5
181
330
17
100
AcDbEntity
  8
FP-Roof
 62
8
100
AcDbLine
 10
13974.704741502119
 20
547.1077724398551
 30
0.0
 11
13974.704741502163
 21
537.2894794139506
 31
0.0
  0
LINE
  5
182
330
17
100
AcDbEntity
  8
FP-Roof
 62
8
100
AcDbLine
 10
13975.226713261876
 20
551.4283841076526
 30
0.0
 11
13975.22671326173
 21
549.4878085024161
 31
0.0
  0
LINE
  5
183
330
17
100
AcDbEntity
  8
FP-Roof
 62
8
100
AcDbLine
 10
13975.226723462783
 20
547.1057960327494
 30
0.0
 11
13975.226723462783
 21
537.2894794139506
 31
0.0
  0
LINE
  5
184
330
17
100
AcDbEntity
  8
FP-Roof
 62
8
100
AcDbLine
 10
13975.346483853955
 20
554.6561812833356
 30
0.0
 11
13976.206543143413
 21
553.1665148867346
 31
0.0
  0
LINE
  5
185
330
17
100
AcDbEntity
  8
FP-Roof
 62
8
100
AcDbLine
 10
13981.304588475537
 20
554.6561812815876
 30
0.0
 11
13980.44452918608
 21
553.1665148849866
 31
0.0
  0
LINE
  5
186
330
17
100
AcDbEntity
  8
FP-Roof
 62
8
100
AcDbLine
 10
13982.17718747647
 20
551.4283841059046
 30
0.0
 11
13981.175731742183
 21
551.4283841059046
 31
0.0
  0
LINE
  5
187
330
17
100
AcDbEntity
  8
FP-Roof
 62
8
100
AcDbLine
 10
13981.415468629119
 20
551.4283841059046
 30
0.0
 11
13981.415468628973
 21
549.4858320934732
 31
0.0
  0
LINE
  5
188
330
17
100
AcDbEntity
  8
FP-Roof
 62
8
100
AcDbLine
 10
13981.415478829967
 20
547.1077724381071
 30
0.0
 11
13981.415478830018
 21
537.2894794122026
 31
0.0
  0
LINE
  5
189
330
17
100
AcDbEntity
  8
FP-Roof
 62
8
100
AcDbLine
 10
13981.937450589725
 20
551.4283841059046
 30
0.0
 11
13981.93745058958
 21
549.487808500668
 31
0.0
  0
LINE
  5
18A
330
17
100
AcDbEntity
  8
FP-Roof
 62
8
100
AcDbLine
 10
13981.937460790632
 20
547.1057960310013
 30
0.0
 11
13981.937460790632
 21
537.2894794122026
 31
0.0
  0
LINE
  5
18B
330
17
100
AcDbEntity
  8
FP-Roof
 62
8
100
AcDbLine
 10
13982.05722118181
 20
554.6561812815876
 30
0.0
 11
13982.917280471269
 21
553.1665148849866
 31
0.0
  0
LINE
  5
18C
330
17
100
AcDbEntity
  8
FP-Roof
 62
8
100
AcDbLine
 10
13988.015325803386
 20
554.6561812798395
 30
0.0
 11
13987.155266513928
 21
553.1665148832385
 31
0.0
  0
LINE
  5
18D
330
17
100
AcDbEntity
  8
FP-Roof
 62
8
100
AcDbLine
 10
13988.887924804327
 20
551.4283841041565
 30
0.0
 11
13987.88646907004
 21
551.4283841041565
 31
0.0
  0
LINE
  5
18E
330
17
100
AcDbEntity
  8
FP-Roof
 62
8
100
AcDbLine
 10
13988.126205956974
 20
551.4283841041565
 30
0.0
 11
13988.126205956829
 21
549.4858320917251
 31
0.0
  0
LINE
  5
18F
330
17
100
AcDbEntity
  8
FP-Roof
 62
8
100
AcDbLine
 10
13988.126216157823
 20
547.107772436359
 30
0.0
 11
13988.126216157867
 21
537.2894794104545
 31
0.0
  0
LINE
  5
190
330
17
100
AcDbEntity
  8
FP-Roof
 62
8
100
AcDbLine
 10
13988.64818791758
 20
551.4283841041565
 30
0.0
 11
13988.648187917435
 21
549.48780849892
 31
0.0
  0
LINE
  5
191
330
17
100
AcDbEntity
  8
FP-Roof
 62
8
100
AcDbLine
 10
13988.648198118488
 20
547.1057960292533
 30
0.0
 11
13988.648198118488
 21
537.2894794104545
 31
0.0
  0
LINE
  5
192
330
17
100
AcDbEntity
  8
FP-Roof
 62
8
100
AcDbLine
 10
13988.76795850966
 20
554.6561812798395
 30
0.0
 11
13989.628017799118
 21
553.1665148832385
 31
0.0
  0
LINE
  5
193
330
17
100
AcDbEntity
  8
FP-Roof
 62
8
100
AcDbLine
 10
13994.726063131242
 20
554.6561812780915
 30
0.0
 11
13993.866003841784
 21
553.1665148814905
 31
0.0
  0
LINE
  5
194
330
17
100
AcDbEntity
  8
FP-Roof
 62
8
100
AcDbLine
 10
13995.598662132175
 20
551.4283841024085
 30
0.0
 11
13994.597206397888
 21
551.4283841024085
 31
0.0
  0
LINE
  5
195
330
17
100
AcDbEntity
  8
FP-Roof
 62
8
100
AcDbLine
 10
13994.836943284823
 20
551.4283841024085
 30
0.0
 11
13994.836943284678
 21
549.4858320899771
 31
0.0
  0
LINE
  5
196
330
17
100
AcDbEntity
  8
FP-Roof
 62
8
100
AcDbLine
 10
13994.836953485672
 20
547.107772434611
 30
0.0
 11
13994.836953485723
 21
537.2894794087065
 31
0.0
  0
LINE
  5
197
330
17
100
AcDbEntity
  8
FP-Roof
 62
8
100
AcDbLine
 10
13995.35892524543
 20
551.4283841024085
 30
0.0
 11
13995.358925245284
 21
549.487808497172
 31
0.0
  0
LINE
  5
198
330
17
100
AcDbEntity
  8
FP-Roof
 62
8
100
AcDbLine
 10
13995.358935446337
 20
547.1057960275052
 30
0.0
 11
13995.358935446337
 21
537.2894794087065
 31
0.0
  0
LINE
  5
199
330
17
100
AcDbEntity
  8
FP-Roof
 62
8
100
AcDbLine
 10
13995.478695837515
 20
554.6561812780915
 30
0.0
 11
13996.338755126973
 21
553.1665148814905
 31
0.0
  0
LINE
  5
19A
330
17
100
AcDbEntity
  8
FP-Roof
 62
8
100
AcDbLine
 10
14001.43680045909
 20
554.6561812763434
 30
0.0
 11
14000.576741169632
 21
553.1665148797424
 31
0.0
  0
LINE
  5
19B
330
17
100
AcDbEntity
  8
FP-Roof
 62
8
100
AcDbLine
 10
14002.309399460031
 20
551.4283841006604
 30
0.0
 11
14001.307943725744
 21
551.4283841006604
 31
0.0
  0
LINE
  5
19C
330
17
100
AcDbEntity
  8
FP-Roof
 62
8
100
AcDbLine
 10
14001.547680612679
 20
551.4283841006604
 30
0.0
 11
14001.547680612533
 21
549.485832088229
 31
0.0
  0
LINE
  5
19D
330
17
100
AcDbEntity
  8
FP-Roof
 62
8
100
AcDbLine
 10
14001.547690813528
 20
547.1077724328629
 30
0.0
 11
14001.547690813572
 21
537.2894794069584
 31
0.0
  0
LINE
  5
19E
330
17
100
AcDbEntity
  8
FP-Roof
 62
8
100
AcDbLine
 10
14002.069662573285
 20
551.4283841006604
 30
0.0
 11
14002.06966257314
 21
549.4878084954239
 31
0.0
  0
LINE
  5
19F
330
17
100
AcDbEntity
  8
FP-Roof
 62
8
100
AcDbLine
 10
14002.069672774192
 20
547.1057960257572
 30
0.0
 11
14002.069672774192
 21
537.2894794069584
 31
0.0
  0
LINE
  5
1A0
330
17
100
AcDbEntity
  8
FP-Roof
 62
8
100
AcDbLine
 10
14002.189433165364
 20
554.6561812763434
 30
0.0
 11
14003.049492454822
 21
553.1665148797424
 31
0.0
  0
LINE
  5
1A1
330
17
100
AcDbEntity
  8
FP-Roof
 62
8
100
AcDbLine
 10
14007.779430167724
 20
554.5295049330603
 30
0.0
 11
14009.281613769224
 21
554.5295049330603
 31
0.0
  0
LINE
  5
1A2
330
17
100
AcDbEntity
  8
FP-Roof
 62
8
100
AcDbLine
 10
14008.267298177456
 20
547.1057960239145
 30
0.0
 11
14008.2672981775
 21
537.289479405114
 31
0.0
  0
LINE
  5
1A3
330
17
100
AcDbEntity
  8
FP-Roof
 62
8
100
AcDbLine
 10
14008.267308378312
 20
554.5295049330639
 30
0.0
 11
14008.267308378494
 21
549.4878084937759
 31
0.0
  0
LINE
  5
1A4
330
17
100
AcDbEntity
  8
FP-Roof
 62
8
100
AcDbLine
 10
14008.538569350447
 20
547.1101478270234
 30
0.0
 11
14048.545068748117
 21
547.1099783597679
 31
0.0
  0
LINE
  5
1A5
330
17
100
AcDbEntity
  8
FP-Roof
 62
8
100
AcDbLine
 10
14008.789280138106
 20
547.1077724313113
 30
0.0
 11
14008.789280138106
 21
537.2894794053104
 31
0.0
  0
LINE
  5
1A6
330
17
100
AcDbEntity
  8
FP-Roof
 62
8
100
AcDbLine
 10
14008.789280138106
 20
546.5881635592673
 30
0.0
 11
14048.545068748117
 21
546.5879944009052
 31
0.0
  0
LINE
  5
1A7
330
17
100
AcDbEntity
  8
FP-Roof
 62
8
100
AcDbLine
 10
14008.789290338926
 20
554.5295049330603
 30
0.0
 11
14008.7892903391
 21
549.4858320872613
 31
0.0
  0
LINE
  5
1A8
330
17
100
AcDbEntity
  8
FP-Roof
 62
8
100
AcDbLine
 10
14014.858275114162
 20
554.6561812763434
 30
0.0
 11
14013.998215824704
 21
553.1665148797424
 31
0.0
  0
LINE
  5
1A9
330
17
100
AcDbEntity
  8
FP-Roof
 62
8
100
AcDbLine
 10
14014.738308819502
 20
551.4283841006604
 30
0.0
 11
14015.73976455379
 21
551.4283841006604
 31
0.0
  0
LINE
  5
1AA
330
17
100
AcDbEntity
  8
FP-Roof
 62
8
100
AcDbLine
 10
14014.97803550534
 20
547.1057960257572
 30
0.0
 11
14014.97803550534
 21
537.2894794069584
 31
0.0
  0
LINE
  5
1AB
330
17
100
AcDbEntity
  8
FP-Roof
 62
8
100
AcDbLine
 10
14014.978045706248
 20
551.4283841006604
 30
0.0
 11
14014.978045706393
 21
549.4878084954239
 31
0.0
  0
LINE
  5
1AC
330
17
100
AcDbEntity
  8
FP-Roof
 62
8
100
AcDbLine
 10
14015.500017466005
 20
547.1077724328629
 30
0.0
 11
14015.500017465954
 21
537.2894794069584
 31
0.0
  0
LINE
  5
1AD
330
17
100
AcDbEntity
  8
FP-Roof
 62
8
100
AcDbLine
 10
14015.500027666854
 20
551.4283841006604
 30
0.0
 11
14015.500027667
 21
549.485832088229
 31
0.0
  0
LINE
  5
1AE
330
17
100
AcDbEntity
  8
FP-Roof
 62
8
100
AcDbLine
 10
14015.610907820435
 20
554.6561812763434
 30
0.0
 11
14016.470967109894
 21
553.1665148797424
 31
0.0
  0
LINE
  5
1AF
330
17
100
AcDbEntity
  8
FP-Roof
 62
8
100
AcDbLine
 10
14021.569012442018
 20
554.6561812780915
 30
0.0
 11
14020.70895315256
 21
553.1665148814905
 31
0.0
  0
LINE
  5
1B0
330
17
100
AcDbEntity
  8
FP-Roof
 62
8
100
AcDbLine
 10
14021.44904614735
 20
551.4283841024085
 30
0.0
 11
14022.450501881638
 21
551.4283841024085
 31
0.0
  0
LINE
  5
1B1
330
17
100
AcDbEntity
  8
FP-Roof
 62
8
100
AcDbLine
 10
14021.68877283319
 20
547.1057960275052
 30
0.0
 11
14021.68877283319
 21
537.2894794087065
 31
0.0
  0
LINE
  5
1B2
330
17
100
AcDbEntity
  8
FP-Roof
 62
8
100
AcDbLine
 10
14021.688783034097
 20
551.4283841024085
 30
0.0
 11
14021.688783034242
 21
549.487808497172
 31
0.0
  0
LINE
  5
1B3
330
17
100
AcDbEntity
  8
FP-Roof
 62
8
100
AcDbLine
 10
14022.210754793854
 20
547.107772434611
 30
0.0
 11
14022.21075479381
 21
537.2894794087065
 31
0.0
  0
LINE
  5
1B4
330
17
100
AcDbEntity
  8
FP-Roof
 62
8
100
AcDbLine
 10
14022.210764994703
 20
551.4283841024085
 30
0.0
 11
14022.210764994848
 21
549.4858320899771
 31
0.0
  0
LINE
  5
1B5
330
17
100
AcDbEntity
  8
FP-Roof
 62
8
100
AcDbLine
 10
14022.321645148291
 20
554.6561812780915
 30
0.0
 11
14023.18170443775
 21
553.1665148814905
 31
0.0
  0
LINE
  5
1B6
330
17
100
AcDbEntity
  8
FP-Roof
 62
8
100
AcDbLine
 10
14028.279749769867
 20
554.6561812798395
 30
0.0
 11
14027.419690480408
 21
553.1665148832385
 31
0.0
  0
LINE
  5
1B7
330
17
100
AcDbEntity
  8
FP-Roof
 62
8
100
AcDbLine
 10
14028.159783475206
 20
551.4283841041565
 30
0.0
 11
14029.161239209494
 21
551.4283841041565
 31
0.0
  0
LINE
  5
1B8
330
17
100
AcDbEntity
  8
FP-Roof
 62
8
100
AcDbLine
 10
14028.399510161045
 20
547.1057960292533
 30
0.0
 11
14028.399510161045
 21
537.2894794104545
 31
0.0
  0
LINE
  5
1B9
330
17
100
AcDbEntity
  8
FP-Roof
 62
8
100
AcDbLine
 10
14028.399520361952
 20
551.4283841041565
 30
0.0
 11
14028.399520362098
 21
549.48780849892
 31
0.0
  0
LINE
  5
1BA
330
17
100
AcDbEntity
  8
FP-Roof
 62
8
100
AcDbLine
 10
14028.92149212171
 20
547.107772436359
 30
0.0
 11
14028.921492121659
 21
537.2894794104545
 31
0.0
  0
LINE
  5
1BB
330
17
100
AcDbEntity
  8
FP-Roof
 62
8
100
AcDbLine
 10
14028.921502322559
 20
551.4283841041565
 30
0.0
 11
14028.921502322704
 21
549.4858320917251
 31
0.0
  0
LINE
  5
1BC
330
17
100
AcDbEntity
  8
FP-Roof
 62
8
100
AcDbLine
 10
14029.03238247614
 20
554.6561812798395
 30
0.0
 11
14029.892441765598
 21
553.1665148832385
 31
0.0
  0
LINE
  5
1BD
330
17
100
AcDbEntity
  8
FP-Roof
 62
8
100
AcDbLine
 10
14034.990487097723
 20
554.6561812815876
 30
0.0
 11
14034.130427808264
 21
553.1665148849866
 31
0.0
  0
LINE
  5
1BE
330
17
100
AcDbEntity
  8
FP-Roof
 62
8
100
AcDbLine
 10
14034.870520803055
 20
551.4283841059046
 30
0.0
 11
14035.871976537343
 21
551.4283841059046
 31
0.0
  0
LINE
  5
1BF
330
17
100
AcDbEntity
  8
FP-Roof
 62
8
100
AcDbLine
 10
14035.110247488894
 20
547.1057960310013
 30
0.0
 11
14035.110247488894
 21
537.2894794122026
 31
0.0
  0
LINE
  5
1C0
330
17
100
AcDbEntity
  8
FP-Roof
 62
8
100
AcDbLine
 10
14035.110257689801
 20
551.4283841059046
 30
0.0
 11
14035.110257689947
 21
549.487808500668
 31
0.0
  0
LINE
  5
1C1
330
17
100
AcDbEntity
  8
FP-Roof
 62
8
100
AcDbLine
 10
14035.632229449559
 20
547.1077724381071
 30
0.0
 11
14035.632229449515
 21
537.2894794122026
 31
0.0
  0
LINE
  5
1C2
330
17
100
AcDbEntity
  8
FP-Roof
 62
8
100
AcDbLine
 10
14035.632239650407
 20
551.4283841059046
 30
0.0
 11
14035.632239650553
 21
549.4858320934732
 31
0.0
  0
LINE
  5
1C3
330
17
100
AcDbEntity
  8
FP-Roof
 62
8
100
AcDbLine
 10
14035.743119803996
 20
554.6561812815876
 30
0.0
 11
14036.603179093454
 21
553.1665148849866
 31
0.0
  0
LINE
  5
1C4
330
17
100
AcDbEntity
  8
FP-Roof
 62
8
100
AcDbLine
 10
14041.701224425571
 20
554.6561812833356
 30
0.0
 11
14040.841165136113
 21
553.1665148867346
 31
0.0
  0
LINE
  5
1C5
330
17
100
AcDbEntity
  8
FP-Roof
 62
8
100
AcDbLine
 10
14041.581258130911
 20
551.4283841076526
 30
0.0
 11
14042.582713865198
 21
551.4283841076526
 31
0.0
  0
LINE
  5
1C6
330
17
100
AcDbEntity
  8
FP-Roof
 62
8
100
AcDbLine
 10
14041.82098481675
 20
547.1057960327494
 30
0.0
 11
14041.82098481675
 21
537.2894794139506
 31
0.0
  0
LINE
  5
1C7
330
17
100
AcDbEntity
  8
FP-Roof
 62
8
100
AcDbLine
 10
14041.820995017657
 20
551.4283841076526
 30
0.0
 11
14041.820995017802
 21
549.4878085024161
 31
0.0
  0
LINE
  5
1C8
330
17
100
AcDbEntity
  8
FP-Roof
 62
8
100
AcDbLine
 10
14042.342966777414
 20
547.1077724398551
 30
0.0
 11
14042.342966777363
 21
537.2894794139506
 31
0.0
  0
LINE
  5
1C9
330
17
100
AcDbEntity
  8
FP-Roof
 62
8
100
AcDbLine
 10
14042.342976978263
 20
551.4283841076526
 30
0.0
 11
14042.342976978409
 21
549.4858320952212
 31
0.0
  0
LINE
  5
1CA
330
17
100
AcDbEntity
  8
FP-Roof
 62
8
100
AcDbLine
 10
14042.453857131844
 20
554.6561812833356
 30
0.0
 11
14043.313916421303
 21
553.1665148867346
 31
0.0
  0
LINE
  5
1CB
330
17
100
AcDbEntity
  8
FP-Roof
 62
8
100
AcDbLine
 10
14048.531722144598
 20
551.6614078299649
 30
0.0
 11
14048.531722144598
 21
537.2941580943411
 31
0.0
  0
LINE
  5
1CC
330
17
100
AcDbEntity
  8
FP-Roof
 62
8
100
AcDbLine
 10
14049.314695085584
 20
551.6584432191707
 30
0.0
 11
14049.314695085512
 21
537.2941580943411
 31
0.0
  0
ENDSEC
  0
SECTION
  2
OBJECTS
  0
DICTIONARY
  5
A
330
0
100
AcDbDictionary
280
0
281
1
  3
ACAD_COLOR
350
B
  3
ACAD_GROUP
350
C
  3
ACAD_LAYOUT
350
D
  3
ACAD_MATERIAL
350
E
  3
ACAD_MLEADERSTYLE
350
F
  3
ACAD_MLINESTYLE
350
10
  3
ACAD_PLOTSETTINGS
350
11
  3
ACAD_PLOTSTYLENAME
350
12
  3
ACAD_SCALELIST
350
14
  3
ACAD_TABLESTYLE
350
15
  3
ACAD_VISUALSTYLE
350
16
  3
EZDXF_META
350
2D
  0
DICTIONARY
  5
B
330
A
100
AcDbDictionary
280
0
281
1
  0
DICTIONARY
  5
C
330
A
100
AcDbDictionary
280
0
281
1
  0
DICTIONARY
  5
D
330
A
100
AcDbDictionary
280
0
281
1
  3
Model
350
1A
  3
Layout1
350
1E
  0
DICTIONARY
  5
E
330
A
100
AcDbDictionary
280
0
281
1
  3
ByBlock
350
1F
  3
ByLayer
350
20
  3
Global
350
21
  0
DICTIONARY
  5
F
330
A
100
AcDbDictionary
280
0
281
1
  3
Standard
350
2C
  0
DICTIONARY
  5
10
330
A
100
AcDbDictionary
280
0
281
1
  3
Standard
350
22
  0
DICTIONARY
  5
11
330
A
100
AcDbDictionary
280
0
281
1
  0
ACDBDICTIONARYWDFLT
  5
12
330
A
100
AcDbDictionary
280
0
281
1
  3
Normal
350
13
100
AcDbDictionaryWithDefault
340
13
  0
ACDBPLACEHOLDER
  5
13
330
12
  0
DICTIONARY
  5
14
330
A
100
AcDbDictionary
280
0
281
1
  0
DICTIONARY
  5
15
330
A
100
AcDbDictionary
280
0
281
1
  0
DICTIONARY
  5
16
330
A
100
AcDbDictionary
280
0
281
1
  0
LAYOUT
  5
1A
330
D
100
AcDbPlotSettings
  1

  2
Adobe PDF
  4
A3
  6

 40
7.5
 41
20.0
 42
7.5
 43
20.0
 44
420.0
 45
297.0
 46
0.0
 47
0.0
 48
0.0
 49
0.0
140
0.0
141
0.0
142
1.0
143
1.0
 70
1024
 72
1
 73
0
 74
5
  7

 75
16
 76
0
 77
2
 78
300
147
1.0
148
0.0
149
0.0
100
AcDbLayout
  1
Model
 70
1
 71
0
 10
0.0
 20
0.0
 11
420.0
 21
297.0
 12
0.0
 22
0.0
 32
0.0
 14
1e+20
 24
1e+20
 34
1e+20
 15
-1e+20
 25
-1e+20
 35
-1e+20
146
0.0
 13
0.0
 23
0.0
 33
0.0
 16
1.0
 26
0.0
 36
0.0
 17
0.0
 27
1.0
 37
0.0
 76
1
330
17
  0
LAYOUT
  5
1E
330
D
100
AcDbPlotSettings
  1

  2
Adobe PDF
  4
A3
  6

 40
7.5
 41
20.0
 42
7.5
 43
20.0
 44
420.0
 45
297.0
 46
0.0
 47
0.0
 48
0.0
 49
0.0
140
0.0
141
0.0
142
1.0
143
1.0
 70
0
 72
1
 73
0
 74
5
  7

 75
16
 76
0
 77
2
 78
300
147
1.0
148
0.0
149
0.0
100
AcDbLayout
  1
Layout1
 70
1
 71
1
 10
0.0
 20
0.0
 11
420.0
 21
297.0
 12
0.0
 22
0.0
 32
0.0
 14
1e+20
 24
1e+20
 34
1e+20
 15
-1e+20
 25
-1e+20
 35
-1e+20
146
0.0
 13
0.0
 23
0.0
 33
0.0
 16
1.0
 26
0.0
 36
0.0
 17
0.0
 27
1.0
 37
0.0
 76
1
330
1B
  0
MATERIAL
  5
1F
102
{ACAD_REACTORS
330
E
102
}
330
E
100
AcDbMaterial
  1
ByBlock
  2

 70
0
 40
1.0
 71
1
 41
1.0
 91
-1023410177
 42
1.0
 72
1
  3

 73
1
 74
1
 75
1
 44
0.5
 73
0
 45
1.0
 46
1.0
 77
1
  4

 78
1
 79
1
170
1
 48
1.0
171
1
  6

172
1
173
1
174
1
140
1.0
141
1.0
175
1
  7

176
1
177
1
178
1
143
1.0
179
1
  8

270
1
271
1
272
1
145
1.0
146
1.0
273
1
  9

274
1
275
1
276
1
 42
1.0
 72
1
  3

 73
1
 74
1
 75
1
 94
63
  0
MATERIAL
  5
20
102
{ACAD_REACTORS
330
E
102
}
330
E
100
AcDbMaterial
  1
ByLayer
  2

 70
0
 40
1.0
 71
1
 41
1.0
 91
-1023410177
 42
1.0
 72
1
  3

 73
1
 74
1
 75
1
 44
0.5
 73
0
 45
1.0
 46
1.0
 77
1
  4

 78
1
 79
1
170
1
 48
1.0
171
1
  6

172
1
173
1
174
1
140
1.0
141
1.0
175
1
  7

176
1
177
1
178
1
143
1.0
179
1
  8

270
1
271
1
272
1
145
1.0
146
1.0
273
1
  9

274
1
275
1
276
1
 42
1.0
 72
1
  3

 73
1
 74
1
 75
1
 94
63
  0
MATERIAL
  5
21
102
{ACAD_REACTORS
330
E
102
}
330
E
100
AcDbMaterial
  1
Global
  2

 70
0
 40
1.0
 71
1
 41
1.0
 91
-1023410177
 42
1.0
 72
1
  3

 73
1
 74
1
 75
1
 44
0.5
 73
0
 45
1.0
 46
1.0
 77
1
  4

 78
1
 79
1
170
1
 48
1.0
171
1
  6

172
1
173
1
174
1
140
1.0
141
1.0
175
1
  7

176
1
177
1
178
1
143
1.0
179
1
  8

270
1
271
1
272
1
145
1.0
146
1.0
273
1
  9

274
1
275
1
276
1
 42
1.0
 72
1
  3

 73
1
 74
1
 75
1
 94
63
  0
MLINESTYLE
  5
22
102
{ACAD_REACTORS
330
10
102
}
330
10
100
AcDbMlineStyle
  2
Standard
 70
0
  3

 62
256
 51
90.0
 52
90.0
 71
2
 49
0.5
 62
256
  6
BYLAYER
 49
-0.5
 62
256
  6
BYLAYER
  0
MLEADERSTYLE
  5
2C
102
{ACAD_REACTORS
330
F
102
}
330
F
100
AcDbMLeaderStyle
179
2
170
2
171
1
172
0
 90
2
 40
0.0
 41
0.0
173
1
 91
-1056964608
 92
-2
290
1
 42
2.0
291
1
 43
8.0
  3
Standard
 44
4.0
300

342
29
174
1
175
1
176
0
178
1
 93
-1056964608
 45
4.0
292
0
297
0
 46
4.0
 94
-1056964608
 47
1.0
 49
1.0
140
1.0
294
1
141
0.0
177
0
142
1.0
295
0
296
0
143
3.75
271
0
272
9
273
9
  0
DICTIONARY
  5
2D
330
A
100
AcDbDictionary
281
1
  3
CREATED_BY_EZDXF
350
2E
  3
WRITTEN_BY_EZDXF
350
1CF
  0
DICTIONARYVAR
  5
2E
330
2D
100
DictionaryVariables
280
0
  1
1.0.3 @ 2024-01-02T12:41:20.019170+00:00
  0
DICTIONARYVAR
  5
1CF
330
2D
100
DictionaryVariables
280
0
  1
1.0.3 @ 2024-01-02T12:41:20.034493+00:00
  0
ENDSEC
  0
EOF
