  0
SECTION
  2
HEADER
  9
$ACADVER
  1
AC1027
  9
$ACADMAINTVER
 70
105
  9
$DWGCODEPAGE
  3
ANSI_1252
  9
$LASTSAVEDBY
  1
ezdxf
  9
$REQUIREDVERSIONS
160
0
  9
$INSBASE
 10
0.0
 20
0.0
 30
0.0
  9
$EXTMIN
 10
1e+20
 20
1e+20
 30
1e+20
  9
$EXTMAX
 10
-1e+20
 20
-1e+20
 30
-1e+20
  9
$LIMMIN
 10
0.0
 20
0.0
  9
$LIMMAX
 10
420.0
 20
297.0
  9
$ORTHOMODE
 70
0
  9
$REGENMODE
 70
1
  9
$FILLMODE
 70
1
  9
$QTEXTMODE
 70
0
  9
$MIRRTEXT
 70
1
  9
$LTSCALE
 40
1.0
  9
$ATTMODE
 70
1
  9
$TEXTSIZE
 40
2.5
  9
$TRACEWID
 40
1.0
  9
$TEXTSTYLE
  7
Standard
  9
$CLAYER
  8
0
  9
$CELTYPE
  6
ByLayer
  9
$CECOLOR
 62
256
  9
$CELTSCALE
 40
1.0
  9
$DISPSILH
 70
0
  9
$DIMSCALE
 40
1.0
  9
$DIMASZ
 40
2.5
  9
$DIMEXO
 40
0.625
  9
$DIMDLI
 40
3.75
  9
$DIMRND
 40
0.0
  9
$DIMDLE
 40
0.0
  9
$DIMEXE
 40
1.25
  9
$DIMTP
 40
0.0
  9
$DIMTM
 40
0.0
  9
$DIMTXT
 40
2.5
  9
$DIMCEN
 40
2.5
  9
$DIMTSZ
 40
0.0
  9
$DIMTOL
 70
0
  9
$DIMLIM
 70
0
  9
$DIMTIH
 70
0
  9
$DIMTOH
 70
0
  9
$DIMSE1
 70
0
  9
$DIMSE2
 70
0
  9
$DIMTAD
 70
1
  9
$DIMZIN
 70
8
  9
$DIMBLK
  1

  9
$DIMASO
 70
1
  9
$DIMSHO
 70
1
  9
$DIMPOST
  1

  9
$DIMAPOST
  1

  9
$DIMALT
 70
0
  9
$DIMALTD
 70
3
  9
$DIMALTF
 40
0.03937007874
  9
$DIMLFAC
 40
1.0
  9
$DIMTOFL
 70
1
  9
$DIMTVP
 40
0.0
  9
$DIMTIX
 70
0
  9
$DIMSOXD
 70
0
  9
$DIMSAH
 70
0
  9
$DIMBLK1
  1

  9
$DIMBLK2
  1

  9
$DIMSTYLE
  2
ISO-25
  9
$DIMCLRD
 70
0
  9
$DIMCLRE
 70
0
  9
$DIMCLRT
 70
0
  9
$DIMTFAC
 40
1.0
  9
$DIMGAP
 40
0.625
  9
$DIMJUST
 70
0
  9
$DIMSD1
 70
0
  9
$DIMSD2
 70
0
  9
$DIMTOLJ
 70
0
  9
$DIMTZIN
 70
8
  9
$DIMALTZ
 70
0
  9
$DIMALTTZ
 70
0
  9
$DIMUPT
 70
0
  9
$DIMDEC
 70
2
  9
$DIMTDEC
 70
2
  9
$DIMALTU
 70
2
  9
$DIMALTTD
 70
3
  9
$DIMTXSTY
  7
Standard
  9
$DIMAUNIT
 70
0
  9
$DIMADEC
 70
0
  9
$DIMALTRND
 40
0.0
  9
$DIMAZIN
 70
0
  9
$DIMDSEP
 70
44
  9
$DIMATFIT
 70
3
  9
$DIMFRAC
 70
0
  9
$DIMLDRBLK
  1

  9
$DIMLUNIT
 70
2
  9
$DIMLWD
 70
-2
  9
$DIMLWE
 70
-2
  9
$DIMTMOVE
 70
0
  9
$DIMFXL
 40
1.0
  9
$DIMFXLON
 70
0
  9
$DIMJOGANG
 40
0.785398163397
  9
$DIMTFILL
 70
0
  9
$DIMTFILLCLR
 70
0
  9
$DIMARCSYM
 70
0
  9
$DIMLTYPE
  6

  9
$DIMLTEX1
  6

  9
$DIMLTEX2
  6

  9
$DIMTXTDIRECTION
 70
0
  9
$LUNITS
 70
2
  9
$LUPREC
 70
4
  9
$SKETCHINC
 40
1.0
  9
$FILLETRAD
 40
10.0
  9
$AUNITS
 70
0
  9
$AUPREC
 70
2
  9
$MENU
  1
.
  9
$ELEVATION
 40
0.0
  9
$PELEVATION
 40
0.0
  9
$THICKNESS
 40
0.0
  9
$LIMCHECK
 70
0
  9
$CHAMFERA
 40
0.0
  9
$CHAMFERB
 40
0.0
  9
$CHAMFERC
 40
0.0
  9
$CHAMFERD
 40
0.0
  9
$SKPOLY
 70
0
  9
$TDCREATE
 40
2460333.8167939815
  9
$TDUCREATE
 40
2458532.153996898
  9
$TDUPDATE
 40
2460333.8167939815
  9
$TDUUPDATE
 40
2458532.1544311
  9
$TDINDWG
 40
0.0
  9
$TDUSRTIMER
 40
0.0
  9
$USRTIMER
 70
1
  9
$ANGBASE
 50
0.0
  9
$ANGDIR
 70
0
  9
$PDMODE
 70
0
  9
$PDSIZE
 40
0.0
  9
$PLINEWID
 40
0.0
  9
$SPLFRAME
 70
0
  9
$SPLINETYPE
 70
6
  9
$SPLINESEGS
 70
8
  9
$HANDSEED
  5
1D0
  9
$SURFTAB1
 70
6
  9
$SURFTAB2
 70
6
  9
$SURFTYPE
 70
6
  9
$SURFU
 70
6
  9
$SURFV
 70
6
  9
$UCSBASE
  2

  9
$UCSNAME
  2

  9
$UCSORG
 10
0.0
 20
0.0
 30
0.0
  9
$UCSXDIR
 10
1.0
 20
0.0
 30
0.0
  9
$UCSYDIR
 10
0.0
 20
1.0
 30
0.0
  9
$UCSORTHOREF
  2

  9
$UCSORTHOVIEW
 70
0
  9
$UCSORGTOP
 10
0.0
 20
0.0
 30
0.0
  9
$UCSORGBOTTOM
 10
0.0
 20
0.0
 30
0.0
  9
$UCSORGLEFT
 10
0.0
 20
0.0
 30
0.0
  9
$UCSORGRIGHT
 10
0.0
 20
0.0
 30
0.0
  9
$UCSORGFRONT
 10
0.0
 20
0.0
 30
0.0
  9
$UCSORGBACK
 10
0.0
 20
0.0
 30
0.0
  9
$PUCSBASE
  2

  9
$PUCSNAME
  2

  9
$PUCSORG
 10
0.0
 20
0.0
 30
0.0
  9
$PUCSXDIR
 10
1.0
 20
0.0
 30
0.0
  9
$PUCSYDIR
 10
0.0
 20
1.0
 30
0.0
  9
$PUCSORTHOREF
  2

  9
$PUCSORTHOVIEW
 70
0
  9
$PUCSORGTOP
 10
0.0
 20
0.0
 30
0.0
  9
$PUCSORGBOTTOM
 10
0.0
 20
0.0
 30
0.0
  9
$PUCSORGLEFT
 10
0.0
 20
0.0
 30
0.0
  9
$PUCSORGRIGHT
 10
0.0
 20
0.0
 30
0.0
  9
$PUCSORGFRONT
 10
0.0
 20
0.0
 30
0.0
  9
$PUCSORGBACK
 10
0.0
 20
0.0
 30
0.0
  9
$USERI1
 70
0
  9
$USERI2
 70
0
  9
$USERI3
 70
0
  9
$USERI4
 70
0
  9
$USERI5
 70
0
  9
$USERR1
 40
0.0
  9
$USERR2
 40
0.0
  9
$USERR3
 40
0.0
  9
$USERR4
 40
0.0
  9
$USERR5
 40
0.0
  9
$WORLDVIEW
 70
1
  9
$SHADEDGE
 70
3
  9
$SHADEDIF
 70
70
  9
$TILEMODE
 70
1
  9
$MAXACTVP
 70
64
  9
$PINSBASE
 10
0.0
 20
0.0
 30
0.0
  9
$PLIMCHECK
 70
0
  9
$PEXTMIN
 10
1e+20
 20
1e+20
 30
1e+20
  9
$PEXTMAX
 10
-1e+20
 20
-1e+20
 30
-1e+20
  9
$PLIMMIN
 10
0.0
 20
0.0
  9
$PLIMMAX
 10
420.0
 20
297.0
  9
$UNITMODE
 70
0
  9
$VISRETAIN
 70
1
  9
$PLINEGEN
 70
0
  9
$PSLTSCALE
 70
1
  9
$TREEDEPTH
 70
3020
  9
$CMLSTYLE
  2
Standard
  9
$CMLJUST
 70
0
  9
$CMLSCALE
 40
20.0
  9
$PROXYGRAPHICS
 70
1
  9
$MEASUREMENT
 70
1
  9
$CELWEIGHT
370
-1
  9
$ENDCAPS
280
0
  9
$JOINSTYLE
280
0
  9
$LWDISPLAY
290
0
  9
$INSUNITS
 70
6
  9
$HYPERLINKBASE
  1

  9
$STYLESHEET
  1

  9
$XEDIT
290
1
  9
$CEPSNTYPE
380
0
  9
$PSTYLEMODE
290
1
  9
$FINGERPRINTGUID
  2
{CCAC3015-0FB9-4B81-9554-6A822934502B}
  9
$VERSIONGUID
  2
{16FEC9F1-D1B3-43F9-9244-28EA708A92E9}
  9
$EXTNAMES
290
1
  9
$PSVPSCALE
 40
0.0
  9
$OLESTARTUP
290
0
  9
$SORTENTS
280
127
  9
$INDEXCTL
280
0
  9
$HIDETEXT
280
1
  9
$XCLIPFRAME
280
0
  9
$HALOGAP
280
0
  9
$OBSCOLOR
 70
257
  9
$OBSLTYPE
280
0
  9
$INTERSECTIONDISPLAY
280
0
  9
$INTERSECTIONCOLOR
 70
257
  9
$DIMASSOC
280
2
  9
$PROJECTNAME
  1

  9
$CAMERADISPLAY
290
0
  9
$LENSLENGTH
 40
50.0
  9
$CAMERAHEIGHT
 40
0.0
  9
$STEPSPERSEC
 40
24.0
  9
$STEPSIZE
 40
100.0
  9
$3DDWFPREC
 40
2.0
  9
$PSOLWIDTH
 40
0.005
  9
$PSOLHEIGHT
 40
0.08
  9
$LOFTANG1
 40
1.570796326795
  9
$LOFTANG2
 40
1.570796326795
  9
$LOFTMAG1
 40
0.0
  9
$LOFTMAG2
 40
0.0
  9
$LOFTPARAM
 70
7
  9
$LOFTNORMALS
280
1
  9
$LATITUDE
 40
37.795
  9
$LONGITUDE
 40
-122.394
  9
$NORTHDIRECTION
 40
0.0
  9
$TIMEZONE
 70
-8000
  9
$LIGHTGLYPHDISPLAY
280
1
  9
$TILEMODELIGHTSYNCH
280
1
  9
$CMATERIAL
347
20
  9
$SOLIDHIST
280
0
  9
$SHOWHIST
280
1
  9
$DWFFRAME
280
2
  9
$DGNFRAME
280
2
  9
$REALWORLDSCALE
290
1
  9
$INTERFERECOLOR
 62
256
  9
$CSHADOW
280
0
  9
$SHADOWPLANELOCATION
 40
0.0
  0
ENDSEC
  0
SECTION
  2
CLASSES
  0
CLASS
  1
ACDBDICTIONARYWDFLT
  2
AcDbDictionaryWithDefault
  3
ObjectDBX Classes
 90
0
 91
0
280
0
281
0
  0
CLASS
  1
SUN
  2
AcDbSun
  3
SCENEOE
 90
1153
 91
0
280
0
281
0
  0
CLASS
  1
VISUALSTYLE
  2
AcDbVisualStyle
  3
ObjectDBX Classes
 90
4095
 91
0
280
0
281
0
  0
CLASS
  1
MATERIAL
  2
AcDbMaterial
  3
ObjectDBX Classes
 90
1153
 91
0
280
0
281
0
  0
CLASS
  1
SCALE
  2
AcDbScale
  3
ObjectDBX Classes
 90
1153
 91
0
280
0
281
0
  0
CLASS
  1
TABLESTYLE
  2
AcDbTableStyle
  3
ObjectDBX Classes
 90
4095
 91
0
280
0
281
0
  0
CLASS
  1
MLEADERSTYLE
  2
AcDbMLeaderStyle
  3
ACDB_MLEADERSTYLE_CLASS
 90
4095
 91
0
280
0
281
0
  0
CLASS
  1
DICTIONARYVAR
  2
AcDbDictionaryVar
  3
ObjectDBX Classes
 90
0
 91
0
280
0
281
0
  0
CLASS
  1
CELLSTYLEMAP
  2
AcDbCellStyleMap
  3
ObjectDBX Classes
 90
1152
 91
0
280
0
281
0
  0
CLASS
  1
MENTALRAYRENDERSETTINGS
  2
AcDbMentalRayRenderSettings
  3
SCENEOE
 90
1024
 91
0
280
0
281
0
  0
CLASS
  1
ACDBDETAILVIEWSTYLE
  2
AcDbDetailViewStyle
  3
ObjectDBX Classes
 90
1025
 91
0
280
0
281
0
  0
CLASS
  1
ACDBSECTIONVIEWSTYLE
  2
AcDbSectionViewStyle
  3
ObjectDBX Classes
 90
1025
 91
0
280
0
281
0
  0
CLASS
  1
RASTERVARIABLES
  2
AcDbRasterVariables
  3
ISM
 90
0
 91
0
280
0
281
0
  0
CLASS
  1
ACDBPLACEHOLDER
  2
AcDbPlaceHolder
  3
ObjectDBX Classes
 90
0
 91
0
280
0
281
0
  0
CLASS
  1
LAYOUT
  2
AcDbLayout
  3
ObjectDBX Classes
 90
0
 91
0
280
0
281
0
  0
ENDSEC
  0
SECTION
  2
TABLES
  0
TABLE
  2
VPORT
  5
8
330
0
100
AcDbSymbolTable
 70
1
  0
VPORT
  5
23
330
8
100
AcDbSymbolTableRecord
100
AcDbViewportTableRecord
  2
*Active
 70
0
 10
0.0
 20
0.0
 11
1.0
 21
1.0
 12
0.0
 22
0.0
 13
0.0
 23
0.0
 14
0.5
 24
0.5
 15
0.5
 25
0.5
 16
0.0
 26
0.0
 36
1.0
 17
0.0
 27
0.0
 37
0.0
 40
1000.0
 41
1.34
 42
50.0
 43
0.0
 44
0.0
 50
0.0
 51
0.0
 71
0
 72
1000
 73
1
 74
3
 75
0
 76
0
 77
0
 78
0
281
0
 65
0
146
0.0
  0
ENDTAB
  0
TABLE
  2
LTYPE
  5
2
330
0
100
AcDbSymbolTable
 70
3
  0
LTYPE
  5
24
330
2
100
AcDbSymbolTableRecord
100
AcDbLinetypeTableRecord
  2
ByBlock
 70
0
  3

 72
65
 73
0
 40
0.0
  0
LTYPE
  5
25
330
2
100
AcDbSymbolTableRecord
100
AcDbLinetypeTableRecord
  2
ByLayer
 70
0
  3

 72
65
 73
0
 40
0.0
  0
LTYPE
  5
26
330
2
100
AcDbSymbolTableRecord
100
AcDbLinetypeTableRecord
  2
Continuous
 70
0
  3

 72
65
 73
0
 40
0.0
  0
ENDTAB
  0
TABLE
  2
LAYER
  5
1
330
0
100
AcDbSymbolTable
 70
2
  0
LAYER
  5
27
330
1
100
AcDbSymbolTableRecord
100
AcDbLayerTableRecord
  2
0
 70
0
 62
7
  6
Continuous
370
-3
390
13
347
21
  0
LAYER
  5
28
330
1
100
AcDbSymbolTableRecord
100
AcDbLayerTableRecord
  2
Defpoints
 70
0
 62
7
  6
Continuous
290
0
370
-3
390
13
347
21
  0
ENDTAB
  0
TABLE
  2
STYLE
  5
5
330
0
100
AcDbSymbolTable
 70
1
  0
STYLE
  5
29
330
5
100
AcDbSymbolTableRecord
100
AcDbTextStyleTableRecord
  2
Standard
 70
0
 40
0.0
 41
1.0
 50
0.0
 71
0
 42
2.5
  3
txt
  4

  0
ENDTAB
  0
TABLE
  2
VIEW
  5
7
330
0
100
AcDbSymbolTable
 70
0
  0
ENDTAB
  0
TABLE
  2
UCS
  5
6
330
0
100
AcDbSymbolTable
 70
0
  0
ENDTAB
  0
TABLE
  2
APPID
  5
3
330
0
100
AcDbSymbolTable
 70
3
  0
APPID
  5
2A
330
3
100
AcDbSymbolTableRecord
100
AcDbRegAppTableRecord
  2
ACAD
 70
0
  0
APPID
  5
1CD
330
3
100
AcDbSymbolTableRecord
100
AcDbRegAppTableRecord
  2
HATCHBACKGROUNDCOLOR
 70
0
  0
APPID
  5
1CE
330
3
100
AcDbSymbolTableRecord
100
AcDbRegAppTableRecord
  2
EZDXF
 70
0
  0
ENDTAB
  0
TABLE
  2
DIMSTYLE
  5
4
330
0
100
AcDbSymbolTable
 70
1
100
AcDbDimStyleTable
  0
DIMSTYLE
105
2B
330
4
100
AcDbSymbolTableRecord
100
AcDbDimStyleTableRecord
  2
Standard
 70
0
 40
1.0
 41
2.5
 42
0.625
 43
3.75
 44
1.25
 45
0.0
 46
0.0
 47
0.0
 48
0.0
 49
2.5
140
2.5
141
2.5
142
0.0
143
0.03937007874
144
1.0
145
0.0
146
1.0
147
0.625
148
0.0
 69
0
 70
0
 71
0
 72
0
 73
0
 74
0
 75
0
 76
0
 77
1
 78
8
 79
3
170
0
171
3
172
1
173
0
174
0
175
0
176
0
177
0
178
0
179
2
271
2
272
2
273
2
274
3
275
0
276
0
277
2
278
44
279
0
280
0
281
0
282
0
283
0
284
8
285
0
286
0
288
0
289
3
290
0
371
-2
372
-2
  0
ENDTAB
  0
TABLE
  2
BLOCK_RECORD
  5
9
330
0
100
AcDbSymbolTable
 70
2
  0
BLOCK_RECORD
  5
17
330
9
100
AcDbSymbolTableRecord
100
AcDbBlockTableRecord
  2
*Model_Space
340
1A
 70
0
280
1
281
0
  0
BLOCK_RECORD
  5
1B
330
9
100
AcDbSymbolTableRecord
100
AcDbBlockTableRecord
  2
*Paper_Space
340
1E
 70
0
280
1
281
0
  0
ENDTAB
  0
ENDSEC
  0
SECTION
  2
BLOCKS
  0
BLOCK
  5
18
330
17
100
AcDbEntity
  8
0
100
AcDbBlockBegin
  2
*Model_Space
 70
0
 10
0.0
 20
0.0
 30
0.0
  3
*Model_Space
  1

  0
ENDBLK
  5
19
330
17
100
AcDbEntity
  8
0
100
AcDbBlockEnd
  0
BLOCK
  5
1C
330
1B
100
AcDbEntity
  8
0
100
AcDbBlockBegin
  2
*Paper_Space
 70
0
 10
0.0
 20
0.0
 30
0.0
  3
*Paper_Space
  1

  0
ENDBLK
  5
1D
330
1B
100
AcDbEntity
  8
0
100
AcDbBlockEnd
  0
ENDSEC
  0
SECTION
  2
ENTITIES
  0
LINE
  5
2F
330
17
100
AcDbEntity
  8
EL-Roof
 62
1
100
AcDbLine
 10
-205.70776365795973
 20
0.004683972962197913
 30
0.0
 11
20.0
 21
0.004670129094847653
 31
0.0
  0
LINE
  5
30
330
17
100
AcDbEntity
  8
FP-Roof
 62
8
100
AcDbLine
 10
-200.77298497700394
 20
14.368963814875428
 30
0.0
 11
-200.77298497693846
 21
0.004678690045807343
 31
0.0
  0
LINE
  5
31
330
17
100
AcDbEntity
  8
FP-Roof
 62
8
100
AcDbLine
 10
-199.9900120360253
 20
14.37192842566958
 30
0.0
 11
-199.9900120360253
 21
0.004678690045807343
 31
0.0
  0
LINE
  5
32
330
17
100
AcDbEntity
  8
FP-Roof
 62
8
100
AcDbLine
 10
-160.238699993497
 20
9.298684228115349
 30
0.0
 11
-199.9900120360253
 21
9.298425596294805
 31
0.0
  0
LINE
  5
33
330
17
100
AcDbEntity
  8
FP-Roof
 62
8
100
AcDbLine
 10
-159.99685924262303
 20
9.82066842272809
 30
0.0
 11
-199.9900120360253
 21
9.820410118438417
 31
0.0
  0
LINE
  5
34
330
17
100
AcDbEntity
  8
FP-Roof
 62
8
100
AcDbLine
 10
-179.51409175764275
 20
9.820739480239467
 30
0.0
 11
-199.9900120360253
 21
9.820659739172811
 31
0.0
  0
LINE
  5
35
330
17
100
AcDbEntity
  8
FP-Roof
 62
8
100
AcDbLine
 10
-193.91214702327125
 20
17.366701879040306
 30
0.0
 11
-194.7722063127294
 21
15.877035482439283
 31
0.0
  0
LINE
  5
36
330
17
100
AcDbEntity
  8
FP-Roof
 62
8
100
AcDbLine
 10
-193.03954802233056
 20
14.138904703357298
 30
0.0
 11
-194.041003756618
 21
14.138904703357298
 31
0.0
  0
LINE
  5
37
330
17
100
AcDbEntity
  8
FP-Roof
 62
8
100
AcDbLine
 10
-193.80126686968288
 20
14.138904703357298
 30
0.0
 11
-193.8012668698284
 21
12.196352690925892
 31
0.0
  0
LINE
  5
38
330
17
100
AcDbEntity
  8
FP-Roof
 62
8
100
AcDbLine
 10
-193.80125666883396
 20
9.818293035559805
 30
0.0
 11
-193.8012566687903
 21
9.655309440859128e-09
 31
0.0
  0
LINE
  5
39
330
17
100
AcDbEntity
  8
FP-Roof
 62
8
100
AcDbLine
 10
-193.27928490907652
 20
14.138904703357298
 30
0.0
 11
-193.27928490922204
 21
12.19832909812078
 31
0.0
  0
LINE
  5
3A
330
17
100
AcDbEntity
  8
FP-Roof
 62
8
100
AcDbLine
 10
-193.2792747081694
 20
9.816316628454047
 30
0.0
 11
-193.2792747081694
 21
9.655309440859128e-09
 31
0.0
  0
LINE
  5
3B
330
17
100
AcDbEntity
  8
FP-Roof
 62
8
100
AcDbLine
 10
-193.15951431699796
 20
17.366701879040306
 30
0.0
 11
-192.2994550275398
 21
15.877035482439283
 31
0.0
  0
LINE
  5
3C
330
17
100
AcDbEntity
  8
FP-Roof
 62
8
100
AcDbLine
 10
-187.20140969541535
 20
17.366701877292257
 30
0.0
 11
-188.0614689848735
 21
15.877035480691234
 31
0.0
  0
LINE
  5
3D
330
17
100
AcDbEntity
  8
FP-Roof
 62
8
100
AcDbLine
 10
-186.32881069448194
 20
14.138904701609249
 30
0.0
 11
-187.3302664287694
 21
14.138904701609249
 31
0.0
  0
LINE
  5
3E
330
17
100
AcDbEntity
  8
FP-Roof
 62
8
100
AcDbLine
 10
-187.09052954183426
 20
14.138904701609249
 30
0.0
 11
-187.09052954197978
 21
12.196352689177843
 31
0.0
  0
LINE
  5
3F
330
17
100
AcDbEntity
  8
FP-Roof
 62
8
100
AcDbLine
 10
-187.09051934098534
 20
9.818293033811756
 30
0.0
 11
-187.0905193409344
 21
7.90726062405156e-09
 31
0.0
  0
LINE
  5
40
330
17
100
AcDbEntity
  8
FP-Roof
 62
8
100
AcDbLine
 10
-186.5685475812279
 20
14.138904701609249
 30
0.0
 11
-186.56854758137342
 21
12.198329096372731
 31
0.0
  0
LINE
  5
41
330
17
100
AcDbEntity
  8
FP-Roof
 62
8
100
AcDbLine
 10
-186.56853738032078
 20
9.816316626705998
 30
0.0
 11
-186.56853738032078
 21
7.90726062405156e-09
 31
0.0
  0
LINE
  5
42
330
17
100
AcDbEntity
  8
FP-Roof
 62
8
100
AcDbLine
 10
-186.44877698914206
 20
17.366701877292257
 30
0.0
 11
-185.5887176996839
 21
15.877035480691234
 31
0.0
  0
LINE
  5
43
330
17
100
AcDbEntity
  8
FP-Roof
 62
8
100
AcDbLine
 10
-180.49067236756673
 20
17.36670187554421
 30
0.0
 11
-181.35073165702488
 21
15.877035478943185
 31
0.0
  0
LINE
  5
44
330
17
100
AcDbEntity
  8
FP-Roof
 62
8
100
AcDbLine
 10
-179.61807336662605
 20
14.1389046998612
 30
0.0
 11
-180.6195291009135
 21
14.1389046998612
 31
0.0
  0
LINE
  5
45
330
17
100
AcDbEntity
  8
FP-Roof
 62
8
100
AcDbLine
 10
-180.37979221397836
 20
14.1389046998612
 30
0.0
 11
-180.37979221412388
 21
12.196352687429794
 31
0.0
  0
LINE
  5
46
330
17
100
AcDbEntity
  8
FP-Roof
 62
8
100
AcDbLine
 10
-180.37978201312944
 20
9.818293032063707
 30
0.0
 11
-180.3797820130858
 21
6.159211807243992e-09
 31
0.0
  0
LINE
  5
47
330
17
100
AcDbEntity
  8
FP-Roof
 62
8
100
AcDbLine
 10
-179.857810253372
 20
14.1389046998612
 30
0.0
 11
-179.85781025351753
 21
12.198329094624683
 31
0.0
  0
LINE
  5
48
330
17
100
AcDbEntity
  8
FP-Roof
 62
8
100
AcDbLine
 10
-179.85780005246488
 20
9.816316624957949
 30
0.0
 11
-179.85780005246488
 21
6.159211807243992e-09
 31
0.0
  0
LINE
  5
49
330
17
100
AcDbEntity
  8
FP-Roof
 62
8
100
AcDbLine
 10
-179.73803966129344
 20
17.36670187554421
 30
0.0
 11
-178.8779803718353
 21
15.877035478943185
 31
0.0
  0
LINE
  5
4A
330
17
100
AcDbEntity
  8
FP-Roof
 62
8
100
AcDbLine
 10
-173.77993503971084
 20
17.36670187379616
 30
0.0
 11
-174.63999432916899
 21
15.877035477195136
 31
0.0
  0
LINE
  5
4B
330
17
100
AcDbEntity
  8
FP-Roof
 62
8
100
AcDbLine
 10
-172.90733603877743
 20
14.138904698113151
 30
0.0
 11
-173.90879177306488
 21
14.138904698113151
 31
0.0
  0
LINE
  5
4C
330
17
100
AcDbEntity
  8
FP-Roof
 62
8
100
AcDbLine
 10
-173.66905488612974
 20
14.138904698113151
 30
0.0
 11
-173.66905488627526
 21
12.196352685681745
 31
0.0
  0
LINE
  5
4D
330
17
100
AcDbEntity
  8
FP-Roof
 62
8
100
AcDbLine
 10
-173.66904468528082
 20
9.818293030315658
 30
0.0
 11
-173.6690446852299
 21
4.4111629904364236e-09
 31
0.0
  0
LINE
  5
4E
330
17
100
AcDbEntity
  8
FP-Roof
 62
8
100
AcDbLine
 10
-173.1470729255234
 20
14.138904698113151
 30
0.0
 11
-173.1470729256689
 21
12.198329092876634
 31
0.0
  0
LINE
  5
4F
330
17
100
AcDbEntity
  8
FP-Roof
 62
8
100
AcDbLine
 10
-173.14706272461626
 20
9.8163166232099
 30
0.0
 11
-173.14706272461626
 21
4.4111629904364236e-09
 31
0.0
  0
LINE
  5
50
330
17
100
AcDbEntity
  8
FP-Roof
 62
8
100
AcDbLine
 10
-173.02730233343755
 20
17.36670187379616
 30
0.0
 11
-172.1672430439794
 21
15.877035477195136
 31
0.0
  0
LINE
  5
51
330
17
100
AcDbEntity
  8
FP-Roof
 62
8
100
AcDbLine
 10
-167.06919771186222
 20
17.36670187204811
 30
0.0
 11
-167.92925700132037
 21
15.877035475447087
 31
0.0
  0
LINE
  5
52
330
17
100
AcDbEntity
  8
FP-Roof
 62
8
100
AcDbLine
 10
-166.19659871092153
 20
14.138904696365103
 30
0.0
 11
-167.19805444520898
 21
14.138904696365103
 31
0.0
  0
LINE
  5
53
330
17
100
AcDbEntity
  8
FP-Roof
 62
8
100
AcDbLine
 10
-166.95831755827385
 20
14.138904696365103
 30
0.0
 11
-166.95831755841937
 21
12.196352683933696
 31
0.0
  0
LINE
  5
54
330
17
100
AcDbEntity
  8
FP-Roof
 62
8
100
AcDbLine
 10
-166.95830735742493
 20
9.81829302856761
 30
0.0
 11
-166.95830735738127
 21
2.6631141736288555e-09
 31
0.0
  0
LINE
  5
55
330
17
100
AcDbEntity
  8
FP-Roof
 62
8
100
AcDbLine
 10
-166.4363355976675
 20
14.138904696365103
 30
0.0
 11
-166.436335597813
 21
12.198329091128585
 31
0.0
  0
LINE
  5
56
330
17
100
AcDbEntity
  8
FP-Roof
 62
8
100
AcDbLine
 10
-166.43632539676037
 20
9.816316621461851
 30
0.0
 11
-166.43632539676037
 21
2.6631141736288555e-09
 31
0.0
  0
LINE
  5
57
330
17
100
AcDbEntity
  8
FP-Roof
 62
8
100
AcDbLine
 10
-166.31656500558893
 20
17.36670187204811
 30
0.0
 11
-165.45650571613078
 21
15.877035475447087
 31
0.0
  0
LINE
  5
58
330
17
100
AcDbEntity
  8
FP-Roof
 62
8
100
AcDbLine
 10
-160.72656800322875
 20
17.24002552876493
 30
0.0
 11
-159.22438440172846
 21
17.24002552876493
 31
0.0
  0
LINE
  5
59
330
17
100
AcDbEntity
  8
FP-Roof
 62
8
100
AcDbLine
 10
-160.238699993497
 20
9.816316619619215
 30
0.0
 11
-160.23869999345334
 21
8.18658918433357e-10
 31
0.0
  0
LINE
  5
5A
330
17
100
AcDbEntity
  8
FP-Roof
 62
8
100
AcDbLine
 10
-160.2386897926408
 20
17.24002552876857
 30
0.0
 11
-160.2386897924589
 21
12.19832908948058
 31
0.0
  0
LINE
  5
5B
330
17
100
AcDbEntity
  8
FP-Roof
 62
8
100
AcDbLine
 10
-159.96742882050603
 20
9.82066842272809
 30
0.0
 11
-119.96092942283576
 21
9.820498955472544
 31
0.0
  0
LINE
  5
5C
330
17
100
AcDbEntity
  8
FP-Roof
 62
8
100
AcDbLine
 10
-159.71671803284698
 20
9.818293027016011
 30
0.0
 11
-159.71671803284698
 21
1.0151097740163095e-09
 31
0.0
  0
LINE
  5
5D
330
17
100
AcDbEntity
  8
FP-Roof
 62
8
100
AcDbLine
 10
-159.71671803284698
 20
9.298684154971966
 30
0.0
 11
-119.96092942283576
 21
9.298514996609924
 31
0.0
  0
LINE
  5
5E
330
17
100
AcDbEntity
  8
FP-Roof
 62
8
100
AcDbLine
 10
-159.71670783202717
 20
17.24002552876493
 30
0.0
 11
-159.71670783185255
 21
12.196352682965994
 31
0.0
  0
LINE
  5
5F
330
17
100
AcDbEntity
  8
FP-Roof
 62
8
100
AcDbLine
 10
-153.6477230567907
 20
17.36670187204811
 30
0.0
 11
-154.50778234624886
 21
15.877035475447087
 31
0.0
  0
LINE
  5
60
330
17
100
AcDbEntity
  8
FP-Roof
 62
8
100
AcDbLine
 10
-153.76768935145083
 20
14.138904696365103
 30
0.0
 11
-152.76623361716338
 21
14.138904696365103
 31
0.0
  0
LINE
  5
61
330
17
100
AcDbEntity
  8
FP-Roof
 62
8
100
AcDbLine
 10
-153.527962665612
 20
9.816316621461851
 30
0.0
 11
-153.527962665612
 21
2.6631141736288555e-09
 31
0.0
  0
LINE
  5
62
330
17
100
AcDbEntity
  8
FP-Roof
 62
8
100
AcDbLine
 10
-153.52795246470487
 20
14.138904696365103
 30
0.0
 11
-153.52795246455935
 21
12.198329091128585
 31
0.0
  0
LINE
  5
63
330
17
100
AcDbEntity
  8
FP-Roof
 62
8
100
AcDbLine
 10
-153.00598070494743
 20
9.81829302856761
 30
0.0
 11
-153.00598070499836
 21
2.6631141736288555e-09
 31
0.0
  0
LINE
  5
64
330
17
100
AcDbEntity
  8
FP-Roof
 62
8
100
AcDbLine
 10
-153.0059705040985
 20
14.138904696365103
 30
0.0
 11
-153.005970503953
 21
12.196352683933696
 31
0.0
  0
LINE
  5
65
330
17
100
AcDbEntity
  8
FP-Roof
 62
8
100
AcDbLine
 10
-152.89509035051742
 20
17.36670187204811
 30
0.0
 11
-152.03503106105927
 21
15.877035475447087
 31
0.0
  0
LINE
  5
66
330
17
100
AcDbEntity
  8
FP-Roof
 62
8
100
AcDbLine
 10
-146.93698572893481
 20
17.36670187379616
 30
0.0
 11
-147.79704501839296
 21
15.877035477195136
 31
0.0
  0
LINE
  5
67
330
17
100
AcDbEntity
  8
FP-Roof
 62
8
100
AcDbLine
 10
-147.0569520236022
 20
14.138904698113151
 30
0.0
 11
-146.05549628931476
 21
14.138904698113151
 31
0.0
  0
LINE
  5
68
330
17
100
AcDbEntity
  8
FP-Roof
 62
8
100
AcDbLine
 10
-146.81722533776338
 20
9.8163166232099
 30
0.0
 11
-146.81722533776338
 21
4.4111629904364236e-09
 31
0.0
  0
LINE
  5
69
330
17
100
AcDbEntity
  8
FP-Roof
 62
8
100
AcDbLine
 10
-146.81721513685625
 20
14.138904698113151
 30
0.0
 11
-146.81721513671073
 21
12.198329092876634
 31
0.0
  0
LINE
  5
6A
330
17
100
AcDbEntity
  8
FP-Roof
 62
8
100
AcDbLine
 10
-146.2952433770988
 20
9.818293030315658
 30
0.0
 11
-146.29524337714247
 21
4.4111629904364236e-09
 31
0.0
  0
LINE
  5
6B
330
17
100
AcDbEntity
  8
FP-Roof
 62
8
100
AcDbLine
 10
-146.2952331762499
 20
14.138904698113151
 30
0.0
 11
-146.29523317610438
 21
12.196352685681745
 31
0.0
  0
LINE
  5
6C
330
17
100
AcDbEntity
  8
FP-Roof
 62
8
100
AcDbLine
 10
-146.18435302266153
 20
17.36670187379616
 30
0.0
 11
-145.32429373320338
 21
15.877035477195136
 31
0.0
  0
LINE
  5
6D
330
17
100
AcDbEntity
  8
FP-Roof
 62
8
100
AcDbLine
 10
-140.2262484010862
 20
17.36670187554421
 30
0.0
 11
-141.08630769054434
 21
15.877035478943185
 31
0.0
  0
LINE
  5
6E
330
17
100
AcDbEntity
  8
FP-Roof
 62
8
100
AcDbLine
 10
-140.3462146957463
 20
14.1389046998612
 30
0.0
 11
-139.34475896145887
 21
14.1389046998612
 31
0.0
  0
LINE
  5
6F
330
17
100
AcDbEntity
  8
FP-Roof
 62
8
100
AcDbLine
 10
-140.10648800990748
 20
9.816316624957949
 30
0.0
 11
-140.10648800990748
 21
6.159211807243992e-09
 31
0.0
  0
LINE
  5
70
330
17
100
AcDbEntity
  8
FP-Roof
 62
8
100
AcDbLine
 10
-140.10647780900035
 20
14.1389046998612
 30
0.0
 11
-140.10647780885483
 21
12.198329094624683
 31
0.0
  0
LINE
  5
71
330
17
100
AcDbEntity
  8
FP-Roof
 62
8
100
AcDbLine
 10
-139.58450604924292
 20
9.818293032063707
 30
0.0
 11
-139.58450604929385
 21
6.159211807243992e-09
 31
0.0
  0
LINE
  5
72
330
17
100
AcDbEntity
  8
FP-Roof
 62
8
100
AcDbLine
 10
-139.584495848394
 20
14.1389046998612
 30
0.0
 11
-139.58449584824848
 21
12.196352687429794
 31
0.0
  0
LINE
  5
73
330
17
100
AcDbEntity
  8
FP-Roof
 62
8
100
AcDbLine
 10
-139.4736156948129
 20
17.36670187554421
 30
0.0
 11
-138.61355640535476
 21
15.877035478943185
 31
0.0
  0
LINE
  5
74
330
17
100
AcDbEntity
  8
FP-Roof
 62
8
100
AcDbLine
 10
-133.5155110732303
 20
17.366701877292257
 30
0.0
 11
-134.37557036268845
 21
15.877035480691234
 31
0.0
  0
LINE
  5
75
330
17
100
AcDbEntity
  8
FP-Roof
 62
8
100
AcDbLine
 10
-133.6354773678977
 20
14.138904701609249
 30
0.0
 11
-132.63402163361025
 21
14.138904701609249
 31
0.0
  0
LINE
  5
76
330
17
100
AcDbEntity
  8
FP-Roof
 62
8
100
AcDbLine
 10
-133.39575068205886
 20
9.816316626705998
 30
0.0
 11
-133.39575068205886
 21
7.90726062405156e-09
 31
0.0
  0
LINE
  5
77
330
17
100
AcDbEntity
  8
FP-Roof
 62
8
100
AcDbLine
 10
-133.39574048115173
 20
14.138904701609249
 30
0.0
 11
-133.39574048100621
 21
12.198329096372731
 31
0.0
  0
LINE
  5
78
330
17
100
AcDbEntity
  8
FP-Roof
 62
8
100
AcDbLine
 10
-132.8737687213943
 20
9.818293033811756
 30
0.0
 11
-132.87376872143795
 21
7.90726062405156e-09
 31
0.0
  0
LINE
  5
79
330
17
100
AcDbEntity
  8
FP-Roof
 62
8
100
AcDbLine
 10
-132.87375852054538
 20
14.138904701609249
 30
0.0
 11
-132.87375852039986
 21
12.196352689177843
 31
0.0
  0
LINE
  5
7A
330
17
100
AcDbEntity
  8
FP-Roof
 62
8
100
AcDbLine
 10
-132.762878366957
 20
17.366701877292257
 30
0.0
 11
-131.90281907749886
 21
15.877035480691234
 31
0.0
  0
LINE
  5
7B
330
17
100
AcDbEntity
  8
FP-Roof
 62
8
100
AcDbLine
 10
-126.80477374538168
 20
17.366701879040306
 30
0.0
 11
-127.66483303483983
 21
15.877035482439283
 31
0.0
  0
LINE
  5
7C
330
17
100
AcDbEntity
  8
FP-Roof
 62
8
100
AcDbLine
 10
-126.9247400400418
 20
14.138904703357298
 30
0.0
 11
-125.92328430575435
 21
14.138904703357298
 31
0.0
  0
LINE
  5
7D
330
17
100
AcDbEntity
  8
FP-Roof
 62
8
100
AcDbLine
 10
-126.68501335420297
 20
9.816316628454047
 30
0.0
 11
-126.68501335420297
 21
9.655309440859128e-09
 31
0.0
  0
LINE
  5
7E
330
17
100
AcDbEntity
  8
FP-Roof
 62
8
100
AcDbLine
 10
-126.68500315329584
 20
14.138904703357298
 30
0.0
 11
-126.68500315315032
 21
12.19832909812078
 31
0.0
  0
LINE
  5
7F
330
17
100
AcDbEntity
  8
FP-Roof
 62
8
100
AcDbLine
 10
-126.1630313935384
 20
9.818293035559805
 30
0.0
 11
-126.16303139358934
 21
9.655309440859128e-09
 31
0.0
  0
LINE
  5
80
330
17
100
AcDbEntity
  8
FP-Roof
 62
8
100
AcDbLine
 10
-126.16302119268948
 20
14.138904703357298
 30
0.0
 11
-126.16302119254397
 21
12.196352690925892
 31
0.0
  0
LINE
  5
81
330
17
100
AcDbEntity
  8
FP-Roof
 62
8
100
AcDbLine
 10
-126.05214103910839
 20
17.366701879040306
 30
0.0
 11
-125.19208174965024
 21
15.877035482439283
 31
0.0
  0
LINE
  5
82
330
17
100
AcDbEntity
  8
FP-Roof
 62
8
100
AcDbLine
 10
-119.97427602635435
 20
14.37192842566958
 30
0.0
 11
-119.97427602635435
 21
0.004678690045807343
 31
0.0
  0
LINE
  5
83
330
17
100
AcDbEntity
  8
FP-Roof
 62
8
100
AcDbLine
 10
-119.19130308536842
 20
14.368963814875428
 30
0.0
 11
-119.19130308544118
 21
0.004678690045807343
 31
0.0
  0
LINE
  5
84
330
17
100
AcDbEntity
  8
FP-Roof
 62
8
100
AcDbLine
 10
-79.4354948177861
 20
9.298684154971966
 30
0.0
 11
-119.19128342779004
 21
9.298514996609924
 31
0.0
  0
LINE
  5
85
330
17
100
AcDbEntity
  8
FP-Roof
 62
8
100
AcDbLine
 10
-79.18478403012705
 20
9.82066842272809
 30
0.0
 11
-119.19128342779004
 21
9.820498955472544
 31
0.0
  0
LINE
  5
86
330
17
100
AcDbEntity
  8
FP-Roof
 62
8
100
AcDbLine
 10
-113.10007181152469
 20
17.366701879040306
 30
0.0
 11
-113.96013110098284
 21
15.877035482439283
 31
0.0
  0
LINE
  5
87
330
17
100
AcDbEntity
  8
FP-Roof
 62
8
100
AcDbLine
 10
-112.227472810584
 20
14.138904703357298
 30
0.0
 11
-113.22892854487145
 21
14.138904703357298
 31
0.0
  0
LINE
  5
88
330
17
100
AcDbEntity
  8
FP-Roof
 62
8
100
AcDbLine
 10
-112.98919165793632
 20
14.138904703357298
 30
0.0
 11
-112.98919165808184
 21
12.196352690925892
 31
0.0
  0
LINE
  5
89
330
17
100
AcDbEntity
  8
FP-Roof
 62
8
100
AcDbLine
 10
-112.9891814570874
 20
9.818293035559805
 30
0.0
 11
-112.98918145704374
 21
9.655309440859128e-09
 31
0.0
  0
LINE
  5
8A
330
17
100
AcDbEntity
  8
FP-Roof
 62
8
100
AcDbLine
 10
-112.46720969732996
 20
14.138904703357298
 30
0.0
 11
-112.46720969747548
 21
12.19832909812078
 31
0.0
  0
LINE
  5
8B
330
17
100
AcDbEntity
  8
FP-Roof
 62
8
100
AcDbLine
 10
-112.46719949642284
 20
9.816316628454047
 30
0.0
 11
-112.46719949642284
 21
9.655309440859128e-09
 31
0.0
  0
LINE
  5
8C
330
17
100
AcDbEntity
  8
FP-Roof
 62
8
100
AcDbLine
 10
-112.3474391052514
 20
17.366701879040306
 30
0.0
 11
-111.48737981579325
 21
15.877035482439283
 31
0.0
  0
LINE
  5
8D
330
17
100
AcDbEntity
  8
FP-Roof
 62
8
100
AcDbLine
 10
-106.38933448366879
 20
17.366701877292257
 30
0.0
 11
-107.24939377312694
 21
15.877035480691234
 31
0.0
  0
LINE
  5
8E
330
17
100
AcDbEntity
  8
FP-Roof
 62
8
100
AcDbLine
 10
-105.51673548273538
 20
14.138904701609249
 30
0.0
 11
-106.51819121702283
 21
14.138904701609249
 31
0.0
  0
LINE
  5
8F
330
17
100
AcDbEntity
  8
FP-Roof
 62
8
100
AcDbLine
 10
-106.2784543300877
 20
14.138904701609249
 30
0.0
 11
-106.27845433023322
 21
12.196352689177843
 31
0.0
  0
LINE
  5
90
330
17
100
AcDbEntity
  8
FP-Roof
 62
8
100
AcDbLine
 10
-106.27844412923878
 20
9.818293033811756
 30
0.0
 11
-106.27844412918785
 21
7.90726062405156e-09
 31
0.0
  0
LINE
  5
91
330
17
100
AcDbEntity
  8
FP-Roof
 62
8
100
AcDbLine
 10
-105.75647236948134
 20
14.138904701609249
 30
0.0
 11
-105.75647236962686
 21
12.198329096372731
 31
0.0
  0
LINE
  5
92
330
17
100
AcDbEntity
  8
FP-Roof
 62
8
100
AcDbLine
 10
-105.75646216857422
 20
9.816316626705998
 30
0.0
 11
-105.75646216857422
 21
7.90726062405156e-09
 31
0.0
  0
LINE
  5
93
330
17
100
AcDbEntity
  8
FP-Roof
 62
8
100
AcDbLine
 10
-105.6367017773955
 20
17.366701877292257
 30
0.0
 11
-104.77664248793735
 21
15.877035480691234
 31
0.0
  0
LINE
  5
94
330
17
100
AcDbEntity
  8
FP-Roof
 62
8
100
AcDbLine
 10
-99.67859715582017
 20
17.36670187554421
 30
0.0
 11
-100.53865644527832
 21
15.877035478943185
 31
0.0
  0
LINE
  5
95
330
17
100
AcDbEntity
  8
FP-Roof
 62
8
100
AcDbLine
 10
-98.80599815487949
 20
14.1389046998612
 30
0.0
 11
-99.80745388916694
 21
14.1389046998612
 31
0.0
  0
LINE
  5
96
330
17
100
AcDbEntity
  8
FP-Roof
 62
8
100
AcDbLine
 10
-99.5677170022318
 20
14.1389046998612
 30
0.0
 11
-99.56771700237732
 21
12.196352687429794
 31
0.0
  0
LINE
  5
97
330
17
100
AcDbEntity
  8
FP-Roof
 62
8
100
AcDbLine
 10
-99.56770680138288
 20
9.818293032063707
 30
0.0
 11
-99.56770680133923
 21
6.159211807243992e-09
 31
0.0
  0
LINE
  5
98
330
17
100
AcDbEntity
  8
FP-Roof
 62
8
100
AcDbLine
 10
-99.04573504162545
 20
14.1389046998612
 30
0.0
 11
-99.04573504177097
 21
12.198329094624683
 31
0.0
  0
LINE
  5
99
330
17
100
AcDbEntity
  8
FP-Roof
 62
8
100
AcDbLine
 10
-99.04572484071832
 20
9.816316624957949
 30
0.0
 11
-99.04572484071832
 21
6.159211807243992e-09
 31
0.0
  0
LINE
  5
9A
330
17
100
AcDbEntity
  8
FP-Roof
 62
8
100
AcDbLine
 10
-98.92596444954688
 20
17.36670187554421
 30
0.0
 11
-98.06590516008873
 21
15.877035478943185
 31
0.0
  0
LINE
  5
9B
330
17
100
AcDbEntity
  8
FP-Roof
 62
8
100
AcDbLine
 10
-92.96785982796428
 20
17.36670187379616
 30
0.0
 11
-93.82791911742243
 21
15.877035477195136
 31
0.0
  0
LINE
  5
9C
330
17
100
AcDbEntity
  8
FP-Roof
 62
8
100
AcDbLine
 10
-92.09526082703087
 20
14.138904698113151
 30
0.0
 11
-93.09671656131832
 21
14.138904698113151
 31
0.0
  0
LINE
  5
9D
330
17
100
AcDbEntity
  8
FP-Roof
 62
8
100
AcDbLine
 10
-92.85697967438318
 20
14.138904698113151
 30
0.0
 11
-92.8569796745287
 21
12.196352685681745
 31
0.0
  0
LINE
  5
9E
330
17
100
AcDbEntity
  8
FP-Roof
 62
8
100
AcDbLine
 10
-92.85696947353426
 20
9.818293030315658
 30
0.0
 11
-92.85696947348333
 21
4.4111629904364236e-09
 31
0.0
  0
LINE
  5
9F
330
17
100
AcDbEntity
  8
FP-Roof
 62
8
100
AcDbLine
 10
-92.33499771377683
 20
14.138904698113151
 30
0.0
 11
-92.33499771392235
 21
12.198329092876634
 31
0.0
  0
LINE
  5
A0
330
17
100
AcDbEntity
  8
FP-Roof
 62
8
100
AcDbLine
 10
-92.3349875128697
 20
9.8163166232099
 30
0.0
 11
-92.3349875128697
 21
4.4111629904364236e-09
 31
0.0
  0
LINE
  5
A1
330
17
100
AcDbEntity
  8
FP-Roof
 62
8
100
AcDbLine
 10
-92.21522712169099
 20
17.36670187379616
 30
0.0
 11
-91.35516783223284
 21
15.877035477195136
 31
0.0
  0
LINE
  5
A2
330
17
100
AcDbEntity
  8
FP-Roof
 62
8
100
AcDbLine
 10
-86.25712250011566
 20
17.36670187204811
 30
0.0
 11
-87.1171817895738
 21
15.877035475447087
 31
0.0
  0
LINE
  5
A3
330
17
100
AcDbEntity
  8
FP-Roof
 62
8
100
AcDbLine
 10
-85.38452349917497
 20
14.138904696365103
 30
0.0
 11
-86.38597923346242
 21
14.138904696365103
 31
0.0
  0
LINE
  5
A4
330
17
100
AcDbEntity
  8
FP-Roof
 62
8
100
AcDbLine
 10
-86.14624234652729
 20
14.138904696365103
 30
0.0
 11
-86.1462423466728
 21
12.196352683933696
 31
0.0
  0
LINE
  5
A5
330
17
100
AcDbEntity
  8
FP-Roof
 62
8
100
AcDbLine
 10
-86.14623214567837
 20
9.81829302856761
 30
0.0
 11
-86.14623214563471
 21
2.6631141736288555e-09
 31
0.0
  0
LINE
  5
A6
330
17
100
AcDbEntity
  8
FP-Roof
 62
8
100
AcDbLine
 10
-85.62426038592093
 20
14.138904696365103
 30
0.0
 11
-85.62426038606645
 21
12.198329091128585
 31
0.0
  0
LINE
  5
A7
330
17
100
AcDbEntity
  8
FP-Roof
 62
8
100
AcDbLine
 10
-85.6242501850138
 20
9.816316621461851
 30
0.0
 11
-85.6242501850138
 21
2.6631141736288555e-09
 31
0.0
  0
LINE
  5
A8
330
17
100
AcDbEntity
  8
FP-Roof
 62
8
100
AcDbLine
 10
-85.50448979384237
 20
17.36670187204811
 30
0.0
 11
-84.64443050438422
 21
15.877035475447087
 31
0.0
  0
LINE
  5
A9
330
17
100
AcDbEntity
  8
FP-Roof
 62
8
100
AcDbLine
 10
-78.42564484740433
 20
17.24002552876493
 30
0.0
 11
-79.92782844890462
 21
17.24002552876493
 31
0.0
  0
LINE
  5
AA
330
17
100
AcDbEntity
  8
FP-Roof
 62
8
100
AcDbLine
 10
-79.43550501859863
 20
17.24002552876493
 30
0.0
 11
-79.43550501878053
 21
12.196352682965994
 31
0.0
  0
LINE
  5
AB
330
17
100
AcDbEntity
  8
FP-Roof
 62
8
100
AcDbLine
 10
-79.4354948177861
 20
9.818293027016011
 30
0.0
 11
-79.4354948177861
 21
1.0151097740163095e-09
 31
0.0
  0
LINE
  5
AC
330
17
100
AcDbEntity
  8
FP-Roof
 62
8
100
AcDbLine
 10
-79.15535360800277
 20
9.82066842272809
 30
0.0
 11
-39.162200814607786
 21
9.820410118438417
 31
0.0
  0
LINE
  5
AD
330
17
100
AcDbEntity
  8
FP-Roof
 62
8
100
AcDbLine
 10
-78.91352305799228
 20
17.24002552876857
 30
0.0
 11
-78.91352305817418
 21
12.19832908948058
 31
0.0
  0
LINE
  5
AE
330
17
100
AcDbEntity
  8
FP-Roof
 62
8
100
AcDbLine
 10
-78.91351285712881
 20
9.816316619619215
 30
0.0
 11
-78.91351285717974
 21
8.18658918433357e-10
 31
0.0
  0
LINE
  5
AF
330
17
100
AcDbEntity
  8
FP-Roof
 62
8
100
AcDbLine
 10
-78.91351285713608
 20
9.298684228115349
 30
0.0
 11
-39.162200814607786
 21
9.298425596294805
 31
0.0
  0
LINE
  5
B0
330
17
100
AcDbEntity
  8
FP-Roof
 62
8
100
AcDbLine
 10
-72.83564784504415
 20
17.36670187204811
 30
0.0
 11
-73.6957071345023
 21
15.877035475447087
 31
0.0
  0
LINE
  5
B1
330
17
100
AcDbEntity
  8
FP-Roof
 62
8
100
AcDbLine
 10
-72.95561413970427
 20
14.138904696365103
 30
0.0
 11
-71.95415840541682
 21
14.138904696365103
 31
0.0
  0
LINE
  5
B2
330
17
100
AcDbEntity
  8
FP-Roof
 62
8
100
AcDbLine
 10
-72.71588745386543
 20
9.816316621461851
 30
0.0
 11
-72.71588745386543
 21
2.6631141736288555e-09
 31
0.0
  0
LINE
  5
B3
330
17
100
AcDbEntity
  8
FP-Roof
 62
8
100
AcDbLine
 10
-72.71587725295831
 20
14.138904696365103
 30
0.0
 11
-72.71587725281279
 21
12.198329091128585
 31
0.0
  0
LINE
  5
B4
330
17
100
AcDbEntity
  8
FP-Roof
 62
8
100
AcDbLine
 10
-72.19390549320087
 20
9.81829302856761
 30
0.0
 11
-72.1939054932518
 21
2.6631141736288555e-09
 31
0.0
  0
LINE
  5
B5
330
17
100
AcDbEntity
  8
FP-Roof
 62
8
100
AcDbLine
 10
-72.19389529235195
 20
14.138904696365103
 30
0.0
 11
-72.19389529220643
 21
12.196352683933696
 31
0.0
  0
LINE
  5
B6
330
17
100
AcDbEntity
  8
FP-Roof
 62
8
100
AcDbLine
 10
-72.08301513877086
 20
17.36670187204811
 30
0.0
 11
-71.22295584931271
 21
15.877035475447087
 31
0.0
  0
LINE
  5
B7
330
17
100
AcDbEntity
  8
FP-Roof
 62
8
100
AcDbLine
 10
-66.12491051718825
 20
17.36670187379616
 30
0.0
 11
-66.9849698066464
 21
15.877035477195136
 31
0.0
  0
LINE
  5
B8
330
17
100
AcDbEntity
  8
FP-Roof
 62
8
100
AcDbLine
 10
-66.24487681185565
 20
14.138904698113151
 30
0.0
 11
-65.2434210775682
 21
14.138904698113151
 31
0.0
  0
LINE
  5
B9
330
17
100
AcDbEntity
  8
FP-Roof
 62
8
100
AcDbLine
 10
-66.00515012601682
 20
9.8163166232099
 30
0.0
 11
-66.00515012601682
 21
4.4111629904364236e-09
 31
0.0
  0
LINE
  5
BA
330
17
100
AcDbEntity
  8
FP-Roof
 62
8
100
AcDbLine
 10
-66.00513992510969
 20
14.138904698113151
 30
0.0
 11
-66.00513992496417
 21
12.198329092876634
 31
0.0
  0
LINE
  5
BB
330
17
100
AcDbEntity
  8
FP-Roof
 62
8
100
AcDbLine
 10
-65.48316816535225
 20
9.818293030315658
 30
0.0
 11
-65.48316816539591
 21
4.4111629904364236e-09
 31
0.0
  0
LINE
  5
BC
330
17
100
AcDbEntity
  8
FP-Roof
 62
8
100
AcDbLine
 10
-65.48315796450333
 20
14.138904698113151
 30
0.0
 11
-65.48315796435782
 21
12.196352685681745
 31
0.0
  0
LINE
  5
BD
330
17
100
AcDbEntity
  8
FP-Roof
 62
8
100
AcDbLine
 10
-65.37227781091497
 20
17.36670187379616
 30
0.0
 11
-64.51221852145682
 21
15.877035477195136
 31
0.0
  0
LINE
  5
BE
330
17
100
AcDbEntity
  8
FP-Roof
 62
8
100
AcDbLine
 10
-59.414173189339635
 20
17.36670187554421
 30
0.0
 11
-60.274232478797785
 21
15.877035478943185
 31
0.0
  0
LINE
  5
BF
330
17
100
AcDbEntity
  8
FP-Roof
 62
8
100
AcDbLine
 10
-59.63812109299033
 20
9.820739480239467
 30
0.0
 11
-39.162200814607786
 21
9.820659739172811
 31
0.0
  0
LINE
  5
C0
330
17
100
AcDbEntity
  8
FP-Roof
 62
8
100
AcDbLine
 10
-59.53413948399975
 20
14.1389046998612
 30
0.0
 11
-58.532683749712305
 21
14.1389046998612
 31
0.0
  0
LINE
  5
C1
330
17
100
AcDbEntity
  8
FP-Roof
 62
8
100
AcDbLine
 10
-59.29441279816092
 20
9.816316624957949
 30
0.0
 11
-59.29441279816092
 21
6.159211807243992e-09
 31
0.0
  0
LINE
  5
C2
330
17
100
AcDbEntity
  8
FP-Roof
 62
8
100
AcDbLine
 10
-59.29440259725379
 20
14.1389046998612
 30
0.0
 11
-59.294402597108274
 21
12.198329094624683
 31
0.0
  0
LINE
  5
C3
330
17
100
AcDbEntity
  8
FP-Roof
 62
8
100
AcDbLine
 10
-58.77243083749636
 20
9.818293032063707
 30
0.0
 11
-58.77243083754729
 21
6.159211807243992e-09
 31
0.0
  0
LINE
  5
C4
330
17
100
AcDbEntity
  8
FP-Roof
 62
8
100
AcDbLine
 10
-58.77242063664744
 20
14.1389046998612
 30
0.0
 11
-58.77242063650192
 21
12.196352687429794
 31
0.0
  0
LINE
  5
C5
330
17
100
AcDbEntity
  8
FP-Roof
 62
8
100
AcDbLine
 10
-58.66154048306635
 20
17.36670187554421
 30
0.0
 11
-57.8014811936082
 21
15.877035478943185
 31
0.0
  0
LINE
  5
C6
330
17
100
AcDbEntity
  8
FP-Roof
 62
8
100
AcDbLine
 10
-52.70343586148374
 20
17.366701877292257
 30
0.0
 11
-53.56349515094189
 21
15.877035480691234
 31
0.0
  0
LINE
  5
C7
330
17
100
AcDbEntity
  8
FP-Roof
 62
8
100
AcDbLine
 10
-52.82340215615113
 20
14.138904701609249
 30
0.0
 11
-51.821946421863686
 21
14.138904701609249
 31
0.0
  0
LINE
  5
C8
330
17
100
AcDbEntity
  8
FP-Roof
 62
8
100
AcDbLine
 10
-52.5836754703123
 20
9.816316626705998
 30
0.0
 11
-52.5836754703123
 21
7.90726062405156e-09
 31
0.0
  0
LINE
  5
C9
330
17
100
AcDbEntity
  8
FP-Roof
 62
8
100
AcDbLine
 10
-52.583665269405174
 20
14.138904701609249
 30
0.0
 11
-52.583665269259654
 21
12.198329096372731
 31
0.0
  0
LINE
  5
CA
330
17
100
AcDbEntity
  8
FP-Roof
 62
8
100
AcDbLine
 10
-52.06169350964774
 20
9.818293033811756
 30
0.0
 11
-52.061693509691395
 21
7.90726062405156e-09
 31
0.0
  0
LINE
  5
CB
330
17
100
AcDbEntity
  8
FP-Roof
 62
8
100
AcDbLine
 10
-52.06168330879882
 20
14.138904701609249
 30
0.0
 11
-52.0616833086533
 21
12.196352689177843
 31
0.0
  0
LINE
  5
CC
330
17
100
AcDbEntity
  8
FP-Roof
 62
8
100
AcDbLine
 10
-51.95080315521045
 20
17.366701877292257
 30
0.0
 11
-51.0907438657523
 21
15.877035480691234
 31
0.0
  0
LINE
  5
CD
330
17
100
AcDbEntity
  8
FP-Roof
 62
8
100
AcDbLine
 10
-45.99269853363512
 20
17.366701879040306
 30
0.0
 11
-46.85275782309327
 21
15.877035482439283
 31
0.0
  0
LINE
  5
CE
330
17
100
AcDbEntity
  8
FP-Roof
 62
8
100
AcDbLine
 10
-46.11266482829524
 20
14.138904703357298
 30
0.0
 11
-45.11120909400779
 21
14.138904703357298
 31
0.0
  0
LINE
  5
CF
330
17
100
AcDbEntity
  8
FP-Roof
 62
8
100
AcDbLine
 10
-45.872938142456405
 20
9.816316628454047
 30
0.0
 11
-45.872938142456405
 21
9.655309440859128e-09
 31
0.0
  0
LINE
  5
D0
330
17
100
AcDbEntity
  8
FP-Roof
 62
8
100
AcDbLine
 10
-45.87292794154928
 20
14.138904703357298
 30
0.0
 11
-45.87292794140376
 21
12.19832909812078
 31
0.0
  0
LINE
  5
D1
330
17
100
AcDbEntity
  8
FP-Roof
 62
8
100
AcDbLine
 10
-45.350956181791844
 20
9.818293035559805
 30
0.0
 11
-45.350956181842776
 21
9.655309440859128e-09
 31
0.0
  0
LINE
  5
D2
330
17
100
AcDbEntity
  8
FP-Roof
 62
8
100
AcDbLine
 10
-45.350945980942925
 20
14.138904703357298
 30
0.0
 11
-45.350945980797405
 21
12.196352690925892
 31
0.0
  0
LINE
  5
D3
330
17
100
AcDbEntity
  8
FP-Roof
 62
8
100
AcDbLine
 10
-45.24006582736183
 20
17.366701879040306
 30
0.0
 11
-44.38000653790368
 21
15.877035482439283
 31
0.0
  0
LINE
  5
D4
330
17
100
AcDbEntity
  8
FP-Roof
 62
8
100
AcDbLine
 10
-39.162200814607786
 20
14.37192842566958
 30
0.0
 11
-39.162200814607786
 21
0.004678690045807343
 31
0.0
  0
LINE
  5
D5
330
17
100
AcDbEntity
  8
FP-Roof
 62
8
100
AcDbLine
 10
-38.37922787362186
 20
14.368963814875428
 30
0.0
 11
-38.37922787369462
 21
0.004678690045807343
 31
0.0
  0
LINE
  5
D6
330
17
100
AcDbEntity
  8
FP-Roof
 62
8
100
AcDbLine
 10
1.3720841688846122
 20
9.29868422729669
 30
0.0
 11
-38.379227873643686
 21
9.298425595476147
 31
0.0
  0
LINE
  5
D7
330
17
100
AcDbEntity
  8
FP-Roof
 62
8
100
AcDbLine
 10
1.613924919758574
 20
9.820668421909431
 30
0.0
 11
-38.379227873643686
 21
9.820410117619758
 31
0.0
  0
LINE
  5
D8
330
17
100
AcDbEntity
  8
FP-Roof
 62
8
100
AcDbLine
 10
-17.90330759526114
 20
9.820739479420808
 30
0.0
 11
-38.379227873643686
 21
9.820659738354152
 31
0.0
  0
LINE
  5
D9
330
17
100
AcDbEntity
  8
FP-Roof
 62
8
100
AcDbLine
 10
-32.30136286088964
 20
17.366701878221647
 30
0.0
 11
-33.16142215034779
 21
15.877035481620624
 31
0.0
  0
LINE
  5
DA
330
17
100
AcDbEntity
  8
FP-Roof
 62
8
100
AcDbLine
 10
-31.42876385994896
 20
14.138904702538639
 30
0.0
 11
-32.430219594236405
 21
14.138904702538639
 31
0.0
  0
LINE
  5
DB
330
17
100
AcDbEntity
  8
FP-Roof
 62
8
100
AcDbLine
 10
-32.19048270730127
 20
14.138904702538639
 30
0.0
 11
-32.19048270744679
 21
12.196352690107233
 31
0.0
  0
LINE
  5
DC
330
17
100
AcDbEntity
  8
FP-Roof
 62
8
100
AcDbLine
 10
-32.19047250645235
 20
9.818293034741146
 30
0.0
 11
-32.190472506408696
 21
8.83665052242577e-09
 31
0.0
  0
LINE
  5
DD
330
17
100
AcDbEntity
  8
FP-Roof
 62
8
100
AcDbLine
 10
-31.668500746694917
 20
14.138904702538639
 30
0.0
 11
-31.668500746840436
 21
12.198329097302121
 31
0.0
  0
LINE
  5
DE
330
17
100
AcDbEntity
  8
FP-Roof
 62
8
100
AcDbLine
 10
-31.66849054578779
 20
9.816316627635388
 30
0.0
 11
-31.66849054578779
 21
8.83665052242577e-09
 31
0.0
  0
LINE
  5
DF
330
17
100
AcDbEntity
  8
FP-Roof
 62
8
100
AcDbLine
 10
-31.54873015461635
 20
17.366701878221647
 30
0.0
 11
-30.6886708651582
 21
15.877035481620624
 31
0.0
  0
LINE
  5
E0
330
17
100
AcDbEntity
  8
FP-Roof
 62
8
100
AcDbLine
 10
-25.590625533033744
 20
17.3667018764736
 30
0.0
 11
-26.450684822491894
 21
15.877035479872575
 31
0.0
  0
LINE
  5
E1
330
17
100
AcDbEntity
  8
FP-Roof
 62
8
100
AcDbLine
 10
-24.71802653210034
 20
14.13890470079059
 30
0.0
 11
-25.719482266387786
 21
14.13890470079059
 31
0.0
  0
LINE
  5
E2
330
17
100
AcDbEntity
  8
FP-Roof
 62
8
100
AcDbLine
 10
-25.479745379452652
 20
14.13890470079059
 30
0.0
 11
-25.47974537959817
 21
12.196352688359184
 31
0.0
  0
LINE
  5
E3
330
17
100
AcDbEntity
  8
FP-Roof
 62
8
100
AcDbLine
 10
-25.479735178603732
 20
9.818293032993097
 30
0.0
 11
-25.4797351785528
 21
7.088601705618203e-09
 31
0.0
  0
LINE
  5
E4
330
17
100
AcDbEntity
  8
FP-Roof
 62
8
100
AcDbLine
 10
-24.957763418846298
 20
14.13890470079059
 30
0.0
 11
-24.957763418991817
 21
12.198329095554072
 31
0.0
  0
LINE
  5
E5
330
17
100
AcDbEntity
  8
FP-Roof
 62
8
100
AcDbLine
 10
-24.95775321793917
 20
9.816316625887339
 30
0.0
 11
-24.95775321793917
 21
7.088601705618203e-09
 31
0.0
  0
LINE
  5
E6
330
17
100
AcDbEntity
  8
FP-Roof
 62
8
100
AcDbLine
 10
-24.837992826760456
 20
17.3667018764736
 30
0.0
 11
-23.977933537302306
 21
15.877035479872575
 31
0.0
  0
LINE
  5
E7
330
17
100
AcDbEntity
  8
FP-Roof
 62
8
100
AcDbLine
 10
-18.879888205185125
 20
17.36670187472555
 30
0.0
 11
-19.739947494643275
 21
15.877035478124526
 31
0.0
  0
LINE
  5
E8
330
17
100
AcDbEntity
  8
FP-Roof
 62
8
100
AcDbLine
 10
-18.007289204244444
 20
14.138904699042541
 30
0.0
 11
-19.00874493853189
 21
14.138904699042541
 31
0.0
  0
LINE
  5
E9
330
17
100
AcDbEntity
  8
FP-Roof
 62
8
100
AcDbLine
 10
-18.769008051596757
 20
14.138904699042541
 30
0.0
 11
-18.769008051742276
 21
12.196352686611135
 31
0.0
  0
LINE
  5
EA
330
17
100
AcDbEntity
  8
FP-Roof
 62
8
100
AcDbLine
 10
-18.768997850747837
 20
9.818293031245048
 30
0.0
 11
-18.76899785070418
 21
5.340552888810635e-09
 31
0.0
  0
LINE
  5
EB
330
17
100
AcDbEntity
  8
FP-Roof
 62
8
100
AcDbLine
 10
-18.247026090990403
 20
14.138904699042541
 30
0.0
 11
-18.247026091135922
 21
12.198329093806024
 31
0.0
  0
LINE
  5
EC
330
17
100
AcDbEntity
  8
FP-Roof
 62
8
100
AcDbLine
 10
-18.247015890083276
 20
9.81631662413929
 30
0.0
 11
-18.247015890083276
 21
5.340552888810635e-09
 31
0.0
  0
LINE
  5
ED
330
17
100
AcDbEntity
  8
FP-Roof
 62
8
100
AcDbLine
 10
-18.127255498911836
 20
17.36670187472555
 30
0.0
 11
-17.267196209453687
 21
15.877035478124526
 31
0.0
  0
LINE
  5
EE
330
17
100
AcDbEntity
  8
FP-Roof
 62
8
100
AcDbLine
 10
-12.16915087732923
 20
17.3667018729775
 30
0.0
 11
-13.02921016678738
 21
15.877035476376477
 31
0.0
  0
LINE
  5
EF
330
17
100
AcDbEntity
  8
FP-Roof
 62
8
100
AcDbLine
 10
-11.296551876395824
 20
14.138904697294493
 30
0.0
 11
-12.298007610683271
 21
14.138904697294493
 31
0.0
  0
LINE
  5
F0
330
17
100
AcDbEntity
  8
FP-Roof
 62
8
100
AcDbLine
 10
-12.058270723748137
 20
14.138904697294493
 30
0.0
 11
-12.058270723893656
 21
12.196352684863086
 31
0.0
  0
LINE
  5
F1
330
17
100
AcDbEntity
  8
FP-Roof
 62
8
100
AcDbLine
 10
-12.058260522899218
 20
9.818293029497
 30
0.0
 11
-12.058260522848286
 21
3.5925040720030665e-09
 31
0.0
  0
LINE
  5
F2
330
17
100
AcDbEntity
  8
FP-Roof
 62
8
100
AcDbLine
 10
-11.536288763141783
 20
14.138904697294493
 30
0.0
 11
-11.536288763287303
 21
12.198329092057975
 31
0.0
  0
LINE
  5
F3
330
17
100
AcDbEntity
  8
FP-Roof
 62
8
100
AcDbLine
 10
-11.536278562234656
 20
9.816316622391241
 30
0.0
 11
-11.536278562234656
 21
3.5925040720030665e-09
 31
0.0
  0
LINE
  5
F4
330
17
100
AcDbEntity
  8
FP-Roof
 62
8
100
AcDbLine
 10
-11.416518171055941
 20
17.3667018729775
 30
0.0
 11
-10.556458881597791
 21
15.877035476376477
 31
0.0
  0
LINE
  5
F5
330
17
100
AcDbEntity
  8
FP-Roof
 62
8
100
AcDbLine
 10
-5.4584135494806105
 20
17.366701871229452
 30
0.0
 11
-6.31847283893876
 21
15.877035474628428
 31
0.0
  0
LINE
  5
F6
330
17
100
AcDbEntity
  8
FP-Roof
 62
8
100
AcDbLine
 10
-4.585814548539929
 20
14.138904695546444
 30
0.0
 11
-5.587270282827376
 21
14.138904695546444
 31
0.0
  0
LINE
  5
F7
330
17
100
AcDbEntity
  8
FP-Roof
 62
8
100
AcDbLine
 10
-5.347533395892242
 20
14.138904695546444
 30
0.0
 11
-5.347533396037761
 21
12.196352683115038
 31
0.0
  0
LINE
  5
F8
330
17
100
AcDbEntity
  8
FP-Roof
 62
8
100
AcDbLine
 10
-5.347523195043323
 20
9.81829302774895
 30
0.0
 11
-5.347523194999667
 21
1.8444552551954985e-09
 31
0.0
  0
LINE
  5
F9
330
17
100
AcDbEntity
  8
FP-Roof
 62
8
100
AcDbLine
 10
-4.825551435285888
 20
14.138904695546444
 30
0.0
 11
-4.825551435431407
 21
12.198329090309926
 31
0.0
  0
LINE
  5
FA
330
17
100
AcDbEntity
  8
FP-Roof
 62
8
100
AcDbLine
 10
-4.825541234378761
 20
9.816316620643192
 30
0.0
 11
-4.825541234378761
 21
1.8444552551954985e-09
 31
0.0
  0
LINE
  5
FB
330
17
100
AcDbEntity
  8
FP-Roof
 62
8
100
AcDbLine
 10
-4.705780843207322
 20
17.366701871229452
 30
0.0
 11
-3.845721553749172
 21
15.877035474628428
 31
0.0
  0
LINE
  5
FC
330
17
100
AcDbEntity
  8
FP-Roof
 62
8
100
AcDbLine
 10
0.8842161591528566
 20
17.240025527946273
 30
0.0
 11
2.3863997606531484
 21
17.240025527946273
 31
0.0
  0
LINE
  5
FD
330
17
100
AcDbEntity
  8
FP-Roof
 62
8
100
AcDbLine
 10
1.3720841688846122
 20
9.816316618800556
 30
0.0
 11
1.372084168928268
 21
0.0
 31
0.0
  0
LINE
  5
FE
330
17
100
AcDbEntity
  8
FP-Roof
 62
8
100
AcDbLine
 10
1.3720943697408075
 20
17.24002552794991
 30
0.0
 11
1.3720943699227064
 21
12.198329088661922
 31
0.0
  0
LINE
  5
FF
330
17
100
AcDbEntity
  8
FP-Roof
 62
8
100
AcDbLine
 10
1.6433553418755764
 20
9.820668421909431
 30
0.0
 11
41.649854739545844
 21
9.820498954653885
 31
0.0
  0
LINE
  5
100
330
17
100
AcDbEntity
  8
FP-Roof
 62
8
100
AcDbLine
 10
1.8940661295346217
 20
9.818293026197352
 30
0.0
 11
1.8940661295346217
 21
1.964508555829525e-10
 31
0.0
  0
LINE
  5
101
330
17
100
AcDbEntity
  8
FP-Roof
 62
8
100
AcDbLine
 10
1.8940661295346217
 20
9.298684154153307
 30
0.0
 11
41.649854739545844
 21
9.298514995791265
 31
0.0
  0
LINE
  5
102
330
17
100
AcDbEntity
  8
FP-Roof
 62
8
100
AcDbLine
 10
1.8940763303544372
 20
17.240025527946273
 30
0.0
 11
1.8940763305290602
 21
12.196352682147335
 31
0.0
  0
LINE
  5
103
330
17
100
AcDbEntity
  8
FP-Roof
 62
8
100
AcDbLine
 10
7.963061105590896
 20
17.366701871229452
 30
0.0
 11
7.103001816132746
 21
15.877035474628428
 31
0.0
  0
LINE
  5
104
330
17
100
AcDbEntity
  8
FP-Roof
 62
8
100
AcDbLine
 10
7.843094810930779
 20
14.138904695546444
 30
0.0
 11
8.844550545218226
 21
14.138904695546444
 31
0.0
  0
LINE
  5
105
330
17
100
AcDbEntity
  8
FP-Roof
 62
8
100
AcDbLine
 10
8.082821496769611
 20
9.816316620643192
 30
0.0
 11
8.082821496769611
 21
1.8444552551954985e-09
 31
0.0
  0
LINE
  5
106
330
17
100
AcDbEntity
  8
FP-Roof
 62
8
100
AcDbLine
 10
8.082831697676738
 20
14.138904695546444
 30
0.0
 11
8.082831697822257
 21
12.198329090309926
 31
0.0
  0
LINE
  5
107
330
17
100
AcDbEntity
  8
FP-Roof
 62
8
100
AcDbLine
 10
8.604803457434173
 20
9.81829302774895
 30
0.0
 11
8.604803457383241
 21
1.8444552551954985e-09
 31
0.0
  0
LINE
  5
108
330
17
100
AcDbEntity
  8
FP-Roof
 62
8
100
AcDbLine
 10
8.604813658283092
 20
14.138904695546444
 30
0.0
 11
8.604813658428611
 21
12.196352683115038
 31
0.0
  0
LINE
  5
109
330
17
100
AcDbEntity
  8
FP-Roof
 62
8
100
AcDbLine
 10
8.715693811864185
 20
17.366701871229452
 30
0.0
 11
9.575753101322334
 21
15.877035474628428
 31
0.0
  0
LINE
  5
10A
330
17
100
AcDbEntity
  8
FP-Roof
 62
8
100
AcDbLine
 10
14.673798433446791
 20
17.3667018729775
 30
0.0
 11
13.813739143988641
 21
15.877035476376477
 31
0.0
  0
LINE
  5
10B
330
17
100
AcDbEntity
  8
FP-Roof
 62
8
100
AcDbLine
 10
14.553832138779399
 20
14.138904697294493
 30
0.0
 11
15.555287873066845
 21
14.138904697294493
 31
0.0
  0
LINE
  5
10C
330
17
100
AcDbEntity
  8
FP-Roof
 62
8
100
AcDbLine
 10
14.79355882461823
 20
9.816316622391241
 30
0.0
 11
14.79355882461823
 21
3.5925040720030665e-09
 31
0.0
  0
LINE
  5
10D
330
17
100
AcDbEntity
  8
FP-Roof
 62
8
100
AcDbLine
 10
14.793569025525358
 20
14.138904697294493
 30
0.0
 11
14.793569025670877
 21
12.198329092057975
 31
0.0
  0
LINE
  5
10E
330
17
100
AcDbEntity
  8
FP-Roof
 62
8
100
AcDbLine
 10
15.315540785282792
 20
9.818293029497
 30
0.0
 11
15.315540785239136
 21
3.5925040720030665e-09
 31
0.0
  0
LINE
  5
10F
330
17
100
AcDbEntity
  8
FP-Roof
 62
8
100
AcDbLine
 10
15.315550986131711
 20
14.138904697294493
 30
0.0
 11
15.31555098627723
 21
12.196352684863086
 31
0.0
  0
LINE
  5
110
330
17
100
AcDbEntity
  8
FP-Roof
 62
8
100
AcDbLine
 10
15.42643113972008
 20
17.3667018729775
 30
0.0
 11
16.28649042917823
 21
15.877035476376477
 31
0.0
  0
LINE
  5
111
330
17
100
AcDbEntity
  8
EL-Roof
 62
1
100
AcDbLine
 10
205.70776365795973
 20
0.004683972962197913
 30
0.0
 11
20.0
 21
0.004670129094847653
 31
0.0
  0
LINE
  5
112
330
17
100
AcDbEntity
  8
FP-Roof
 62
8
100
AcDbLine
 10
21.38453576129541
 20
17.36670187472555
 30
0.0
 11
20.52447647183726
 21
15.877035478124526
 31
0.0
  0
LINE
  5
113
330
17
100
AcDbEntity
  8
FP-Roof
 62
8
100
AcDbLine
 10
21.264569466635294
 20
14.138904699042541
 30
0.0
 11
22.26602520092274
 21
14.138904699042541
 31
0.0
  0
LINE
  5
114
330
17
100
AcDbEntity
  8
FP-Roof
 62
8
100
AcDbLine
 10
21.504296152474126
 20
9.81631662413929
 30
0.0
 11
21.504296152474126
 21
5.340552888810635e-09
 31
0.0
  0
LINE
  5
115
330
17
100
AcDbEntity
  8
FP-Roof
 62
8
100
AcDbLine
 10
21.504306353381253
 20
14.138904699042541
 30
0.0
 11
21.504306353526772
 21
12.198329093806024
 31
0.0
  0
LINE
  5
116
330
17
100
AcDbEntity
  8
FP-Roof
 62
8
100
AcDbLine
 10
22.026278113138687
 20
9.818293031245048
 30
0.0
 11
22.026278113087756
 21
5.340552888810635e-09
 31
0.0
  0
LINE
  5
117
330
17
100
AcDbEntity
  8
FP-Roof
 62
8
100
AcDbLine
 10
22.026288313987607
 20
14.138904699042541
 30
0.0
 11
22.026288314133126
 21
12.196352686611135
 31
0.0
  0
LINE
  5
118
330
17
100
AcDbEntity
  8
FP-Roof
 62
8
100
AcDbLine
 10
22.1371684675687
 20
17.36670187472555
 30
0.0
 11
22.99722775702685
 21
15.877035478124526
 31
0.0
  0
LINE
  5
119
330
17
100
AcDbEntity
  8
FP-Roof
 62
8
100
AcDbLine
 10
28.095273089151306
 20
17.3667018764736
 30
0.0
 11
27.235213799693156
 21
15.877035479872575
 31
0.0
  0
LINE
  5
11A
330
17
100
AcDbEntity
  8
FP-Roof
 62
8
100
AcDbLine
 10
27.975306794483913
 20
14.13890470079059
 30
0.0
 11
28.97676252877136
 21
14.13890470079059
 31
0.0
  0
LINE
  5
11B
330
17
100
AcDbEntity
  8
FP-Roof
 62
8
100
AcDbLine
 10
28.215033480322745
 20
9.816316625887339
 30
0.0
 11
28.215033480322745
 21
7.088601705618203e-09
 31
0.0
  0
LINE
  5
11C
330
17
100
AcDbEntity
  8
FP-Roof
 62
8
100
AcDbLine
 10
28.215043681229872
 20
14.13890470079059
 30
0.0
 11
28.21504368137539
 21
12.198329095554072
 31
0.0
  0
LINE
  5
11D
330
17
100
AcDbEntity
  8
FP-Roof
 62
8
100
AcDbLine
 10
28.737015440987307
 20
9.818293032993097
 30
0.0
 11
28.73701544094365
 21
7.088601705618203e-09
 31
0.0
  0
LINE
  5
11E
330
17
100
AcDbEntity
  8
FP-Roof
 62
8
100
AcDbLine
 10
28.737025641836226
 20
14.13890470079059
 30
0.0
 11
28.737025641981745
 21
12.196352688359184
 31
0.0
  0
LINE
  5
11F
330
17
100
AcDbEntity
  8
FP-Roof
 62
8
100
AcDbLine
 10
28.847905795424595
 20
17.3667018764736
 30
0.0
 11
29.707965084882744
 21
15.877035479872575
 31
0.0
  0
LINE
  5
120
330
17
100
AcDbEntity
  8
FP-Roof
 62
8
100
AcDbLine
 10
34.806010416999925
 20
17.366701878221647
 30
0.0
 11
33.945951127541775
 21
15.877035481620624
 31
0.0
  0
LINE
  5
121
330
17
100
AcDbEntity
  8
FP-Roof
 62
8
100
AcDbLine
 10
34.68604412233981
 20
14.138904702538639
 30
0.0
 11
35.687499856627255
 21
14.138904702538639
 31
0.0
  0
LINE
  5
122
330
17
100
AcDbEntity
  8
FP-Roof
 62
8
100
AcDbLine
 10
34.92577080817864
 20
9.816316627635388
 30
0.0
 11
34.92577080817864
 21
8.83665052242577e-09
 31
0.0
  0
LINE
  5
123
330
17
100
AcDbEntity
  8
FP-Roof
 62
8
100
AcDbLine
 10
34.92578100908577
 20
14.138904702538639
 30
0.0
 11
34.92578100923129
 21
12.198329097302121
 31
0.0
  0
LINE
  5
124
330
17
100
AcDbEntity
  8
FP-Roof
 62
8
100
AcDbLine
 10
35.4477527688432
 20
9.818293034741146
 30
0.0
 11
35.44775276879227
 21
8.83665052242577e-09
 31
0.0
  0
LINE
  5
125
330
17
100
AcDbEntity
  8
FP-Roof
 62
8
100
AcDbLine
 10
35.44776296969212
 20
14.138904702538639
 30
0.0
 11
35.44776296983764
 21
12.196352690107233
 31
0.0
  0
LINE
  5
126
330
17
100
AcDbEntity
  8
FP-Roof
 62
8
100
AcDbLine
 10
35.558643123273214
 20
17.366701878221647
 30
0.0
 11
36.41870241273136
 21
15.877035481620624
 31
0.0
  0
LINE
  5
127
330
17
100
AcDbEntity
  8
FP-Roof
 62
8
100
AcDbLine
 10
41.63650813602726
 20
14.371928424850921
 30
0.0
 11
41.63650813602726
 21
0.004678689227148425
 31
0.0
  0
LINE
  5
128
330
17
100
AcDbEntity
  8
FP-Roof
 62
8
100
AcDbLine
 10
42.41948107701319
 20
14.36896381405677
 30
0.0
 11
42.41948107694043
 21
0.004678689227148425
 31
0.0
  0
LINE
  5
129
330
17
100
AcDbEntity
  8
FP-Roof
 62
8
100
AcDbLine
 10
82.17528934459551
 20
9.298684154153307
 30
0.0
 11
42.419500734591566
 21
9.298514995791265
 31
0.0
  0
LINE
  5
12A
330
17
100
AcDbEntity
  8
FP-Roof
 62
8
100
AcDbLine
 10
82.42600013225456
 20
9.820668421909431
 30
0.0
 11
42.419500734591566
 21
9.820498954653885
 31
0.0
  0
LINE
  5
12B
330
17
100
AcDbEntity
  8
FP-Roof
 62
8
100
AcDbLine
 10
48.51071235085692
 20
17.366701878221647
 30
0.0
 11
47.65065306139877
 21
15.877035481620624
 31
0.0
  0
LINE
  5
12C
330
17
100
AcDbEntity
  8
FP-Roof
 62
8
100
AcDbLine
 10
49.3833113517976
 20
14.138904702538639
 30
0.0
 11
48.381855617510155
 21
14.138904702538639
 31
0.0
  0
LINE
  5
12D
330
17
100
AcDbEntity
  8
FP-Roof
 62
8
100
AcDbLine
 10
48.62159250444529
 20
14.138904702538639
 30
0.0
 11
48.62159250429977
 21
12.196352690107233
 31
0.0
  0
LINE
  5
12E
330
17
100
AcDbEntity
  8
FP-Roof
 62
8
100
AcDbLine
 10
48.62160270529421
 20
9.818293034741146
 30
0.0
 11
48.621602705337864
 21
8.83665052242577e-09
 31
0.0
  0
LINE
  5
12F
330
17
100
AcDbEntity
  8
FP-Roof
 62
8
100
AcDbLine
 10
49.14357446505164
 20
14.138904702538639
 30
0.0
 11
49.14357446490612
 21
12.198329097302121
 31
0.0
  0
LINE
  5
130
330
17
100
AcDbEntity
  8
FP-Roof
 62
8
100
AcDbLine
 10
49.14358466595877
 20
9.816316627635388
 30
0.0
 11
49.14358466595877
 21
8.83665052242577e-09
 31
0.0
  0
LINE
  5
131
330
17
100
AcDbEntity
  8
FP-Roof
 62
8
100
AcDbLine
 10
49.26334505713021
 20
17.366701878221647
 30
0.0
 11
50.12340434658836
 21
15.877035481620624
 31
0.0
  0
LINE
  5
132
330
17
100
AcDbEntity
  8
FP-Roof
 62
8
100
AcDbLine
 10
55.221449678712816
 20
17.3667018764736
 30
0.0
 11
54.361390389254666
 21
15.877035479872575
 31
0.0
  0
LINE
  5
133
330
17
100
AcDbEntity
  8
FP-Roof
 62
8
100
AcDbLine
 10
56.09404867964622
 20
14.13890470079059
 30
0.0
 11
55.092592945358774
 21
14.13890470079059
 31
0.0
  0
LINE
  5
134
330
17
100
AcDbEntity
  8
FP-Roof
 62
8
100
AcDbLine
 10
55.33232983229391
 20
14.13890470079059
 30
0.0
 11
55.33232983214839
 21
12.196352688359184
 31
0.0
  0
LINE
  5
135
330
17
100
AcDbEntity
  8
FP-Roof
 62
8
100
AcDbLine
 10
55.33234003314283
 20
9.818293032993097
 30
0.0
 11
55.33234003319376
 21
7.088601705618203e-09
 31
0.0
  0
LINE
  5
136
330
17
100
AcDbEntity
  8
FP-Roof
 62
8
100
AcDbLine
 10
55.85431179290026
 20
14.13890470079059
 30
0.0
 11
55.85431179275474
 21
12.198329095554072
 31
0.0
  0
LINE
  5
137
330
17
100
AcDbEntity
  8
FP-Roof
 62
8
100
AcDbLine
 10
55.85432199380739
 20
9.816316625887339
 30
0.0
 11
55.85432199380739
 21
7.088601705618203e-09
 31
0.0
  0
LINE
  5
138
330
17
100
AcDbEntity
  8
FP-Roof
 62
8
100
AcDbLine
 10
55.974082384986104
 20
17.3667018764736
 30
0.0
 11
56.834141674444254
 21
15.877035479872575
 31
0.0
  0
LINE
  5
139
330
17
100
AcDbEntity
  8
FP-Roof
 62
8
100
AcDbLine
 10
61.932187006561435
 20
17.36670187472555
 30
0.0
 11
61.072127717103285
 21
15.877035478124526
 31
0.0
  0
LINE
  5
13A
330
17
100
AcDbEntity
  8
FP-Roof
 62
8
100
AcDbLine
 10
62.804786007502116
 20
14.138904699042541
 30
0.0
 11
61.80333027321467
 21
14.138904699042541
 31
0.0
  0
LINE
  5
13B
330
17
100
AcDbEntity
  8
FP-Roof
 62
8
100
AcDbLine
 10
62.0430671601498
 20
14.138904699042541
 30
0.0
 11
62.043067160004284
 21
12.196352686611135
 31
0.0
  0
LINE
  5
13C
330
17
100
AcDbEntity
  8
FP-Roof
 62
8
100
AcDbLine
 10
62.04307736099872
 20
9.818293031245048
 30
0.0
 11
62.04307736104238
 21
5.340552888810635e-09
 31
0.0
  0
LINE
  5
13D
330
17
100
AcDbEntity
  8
FP-Roof
 62
8
100
AcDbLine
 10
62.56504912075616
 20
14.138904699042541
 30
0.0
 11
62.56504912061064
 21
12.198329093806024
 31
0.0
  0
LINE
  5
13E
330
17
100
AcDbEntity
  8
FP-Roof
 62
8
100
AcDbLine
 10
62.565059321663284
 20
9.81631662413929
 30
0.0
 11
62.565059321663284
 21
5.340552888810635e-09
 31
0.0
  0
LINE
  5
13F
330
17
100
AcDbEntity
  8
FP-Roof
 62
8
100
AcDbLine
 10
62.684819712834724
 20
17.36670187472555
 30
0.0
 11
63.54487900229287
 21
15.877035478124526
 31
0.0
  0
LINE
  5
140
330
17
100
AcDbEntity
  8
FP-Roof
 62
8
100
AcDbLine
 10
68.64292433441733
 20
17.3667018729775
 30
0.0
 11
67.78286504495918
 21
15.877035476376477
 31
0.0
  0
LINE
  5
141
330
17
100
AcDbEntity
  8
FP-Roof
 62
8
100
AcDbLine
 10
69.51552333535074
 20
14.138904697294493
 30
0.0
 11
68.51406760106329
 21
14.138904697294493
 31
0.0
  0
LINE
  5
142
330
17
100
AcDbEntity
  8
FP-Roof
 62
8
100
AcDbLine
 10
68.75380448799842
 20
14.138904697294493
 30
0.0
 11
68.7538044878529
 21
12.196352684863086
 31
0.0
  0
LINE
  5
143
330
17
100
AcDbEntity
  8
FP-Roof
 62
8
100
AcDbLine
 10
68.75381468884734
 20
9.818293029497
 30
0.0
 11
68.75381468889827
 21
3.5925040720030665e-09
 31
0.0
  0
LINE
  5
144
330
17
100
AcDbEntity
  8
FP-Roof
 62
8
100
AcDbLine
 10
69.27578644860478
 20
14.138904697294493
 30
0.0
 11
69.27578644845926
 21
12.198329092057975
 31
0.0
  0
LINE
  5
145
330
17
100
AcDbEntity
  8
FP-Roof
 62
8
100
AcDbLine
 10
69.2757966495119
 20
9.816316622391241
 30
0.0
 11
69.2757966495119
 21
3.5925040720030665e-09
 31
0.0
  0
LINE
  5
146
330
17
100
AcDbEntity
  8
FP-Roof
 62
8
100
AcDbLine
 10
69.39555704069062
 20
17.3667018729775
 30
0.0
 11
70.25561633014877
 21
15.877035476376477
 31
0.0
  0
LINE
  5
147
330
17
100
AcDbEntity
  8
FP-Roof
 62
8
100
AcDbLine
 10
75.35366166226595
 20
17.366701871229452
 30
0.0
 11
74.4936023728078
 21
15.877035474628428
 31
0.0
  0
LINE
  5
148
330
17
100
AcDbEntity
  8
FP-Roof
 62
8
100
AcDbLine
 10
76.22626066320663
 20
14.138904695546444
 30
0.0
 11
75.22480492891918
 21
14.138904695546444
 31
0.0
  0
LINE
  5
149
330
17
100
AcDbEntity
  8
FP-Roof
 62
8
100
AcDbLine
 10
75.46454181585432
 20
14.138904695546444
 30
0.0
 11
75.4645418157088
 21
12.196352683115038
 31
0.0
  0
LINE
  5
14A
330
17
100
AcDbEntity
  8
FP-Roof
 62
8
100
AcDbLine
 10
75.46455201670324
 20
9.81829302774895
 30
0.0
 11
75.4645520167469
 21
1.8444552551954985e-09
 31
0.0
  0
LINE
  5
14B
330
17
100
AcDbEntity
  8
FP-Roof
 62
8
100
AcDbLine
 10
75.98652377646067
 20
14.138904695546444
 30
0.0
 11
75.98652377631515
 21
12.198329090309926
 31
0.0
  0
LINE
  5
14C
330
17
100
AcDbEntity
  8
FP-Roof
 62
8
100
AcDbLine
 10
75.9865339773678
 20
9.816316620643192
 30
0.0
 11
75.9865339773678
 21
1.8444552551954985e-09
 31
0.0
  0
LINE
  5
14D
330
17
100
AcDbEntity
  8
FP-Roof
 62
8
100
AcDbLine
 10
76.10629436853924
 20
17.366701871229452
 30
0.0
 11
76.96635365799739
 21
15.877035474628428
 31
0.0
  0
LINE
  5
14E
330
17
100
AcDbEntity
  8
FP-Roof
 62
8
100
AcDbLine
 10
83.18513931497728
 20
17.240025527946273
 30
0.0
 11
81.68295571347699
 21
17.240025527946273
 31
0.0
  0
LINE
  5
14F
330
17
100
AcDbEntity
  8
FP-Roof
 62
8
100
AcDbLine
 10
82.17527914378297
 20
17.240025527946273
 30
0.0
 11
82.17527914360107
 21
12.196352682147335
 31
0.0
  0
LINE
  5
150
330
17
100
AcDbEntity
  8
FP-Roof
 62
8
100
AcDbLine
 10
82.17528934459551
 20
9.818293026197352
 30
0.0
 11
82.17528934459551
 21
1.964508555829525e-10
 31
0.0
  0
LINE
  5
151
330
17
100
AcDbEntity
  8
FP-Roof
 62
8
100
AcDbLine
 10
82.45543055437884
 20
9.820668421909431
 30
0.0
 11
122.44858334777382
 21
9.820410117619758
 31
0.0
  0
LINE
  5
152
330
17
100
AcDbEntity
  8
FP-Roof
 62
8
100
AcDbLine
 10
82.69726110438933
 20
17.24002552794991
 30
0.0
 11
82.69726110420743
 21
12.198329088661922
 31
0.0
  0
LINE
  5
153
330
17
100
AcDbEntity
  8
FP-Roof
 62
8
100
AcDbLine
 10
82.6972713052528
 20
9.816316618800556
 30
0.0
 11
82.69727130520187
 21
0.0
 31
0.0
  0
LINE
  5
154
330
17
100
AcDbEntity
  8
FP-Roof
 62
8
100
AcDbLine
 10
82.69727130524552
 20
9.29868422729669
 30
0.0
 11
122.44858334777382
 21
9.298425595476147
 31
0.0
  0
LINE
  5
155
330
17
100
AcDbEntity
  8
FP-Roof
 62
8
100
AcDbLine
 10
88.77513631733746
 20
17.366701871229452
 30
0.0
 11
87.9150770278793
 21
15.877035474628428
 31
0.0
  0
LINE
  5
156
330
17
100
AcDbEntity
  8
FP-Roof
 62
8
100
AcDbLine
 10
88.65517002267734
 20
14.138904695546444
 30
0.0
 11
89.65662575696479
 21
14.138904695546444
 31
0.0
  0
LINE
  5
157
330
17
100
AcDbEntity
  8
FP-Roof
 62
8
100
AcDbLine
 10
88.89489670851617
 20
9.816316620643192
 30
0.0
 11
88.89489670851617
 21
1.8444552551954985e-09
 31
0.0
  0
LINE
  5
158
330
17
100
AcDbEntity
  8
FP-Roof
 62
8
100
AcDbLine
 10
88.8949069094233
 20
14.138904695546444
 30
0.0
 11
88.89490690956882
 21
12.198329090309926
 31
0.0
  0
LINE
  5
159
330
17
100
AcDbEntity
  8
FP-Roof
 62
8
100
AcDbLine
 10
89.41687866918073
 20
9.81829302774895
 30
0.0
 11
89.4168786691298
 21
1.8444552551954985e-09
 31
0.0
  0
LINE
  5
15A
330
17
100
AcDbEntity
  8
FP-Roof
 62
8
100
AcDbLine
 10
89.41688887002965
 20
14.138904695546444
 30
0.0
 11
89.41688887017517
 21
12.196352683115038
 31
0.0
  0
LINE
  5
15B
330
17
100
AcDbEntity
  8
FP-Roof
 62
8
100
AcDbLine
 10
89.52776902361074
 20
17.366701871229452
 30
0.0
 11
90.3878283130689
 21
15.877035474628428
 31
0.0
  0
LINE
  5
15C
330
17
100
AcDbEntity
  8
FP-Roof
 62
8
100
AcDbLine
 10
95.48587364519335
 20
17.3667018729775
 30
0.0
 11
94.6258143557352
 21
15.877035476376477
 31
0.0
  0
LINE
  5
15D
330
17
100
AcDbEntity
  8
FP-Roof
 62
8
100
AcDbLine
 10
95.36590735052596
 20
14.138904697294493
 30
0.0
 11
96.3673630848134
 21
14.138904697294493
 31
0.0
  0
LINE
  5
15E
330
17
100
AcDbEntity
  8
FP-Roof
 62
8
100
AcDbLine
 10
95.60563403636479
 20
9.816316622391241
 30
0.0
 11
95.60563403636479
 21
3.5925040720030665e-09
 31
0.0
  0
LINE
  5
15F
330
17
100
AcDbEntity
  8
FP-Roof
 62
8
100
AcDbLine
 10
95.60564423727192
 20
14.138904697294493
 30
0.0
 11
95.60564423741744
 21
12.198329092057975
 31
0.0
  0
LINE
  5
160
330
17
100
AcDbEntity
  8
FP-Roof
 62
8
100
AcDbLine
 10
96.12761599702935
 20
9.818293029497
 30
0.0
 11
96.1276159969857
 21
3.5925040720030665e-09
 31
0.0
  0
LINE
  5
161
330
17
100
AcDbEntity
  8
FP-Roof
 62
8
100
AcDbLine
 10
96.12762619787827
 20
14.138904697294493
 30
0.0
 11
96.12762619802379
 21
12.196352684863086
 31
0.0
  0
LINE
  5
162
330
17
100
AcDbEntity
  8
FP-Roof
 62
8
100
AcDbLine
 10
96.23850635146664
 20
17.3667018729775
 30
0.0
 11
97.09856564092479
 21
15.877035476376477
 31
0.0
  0
LINE
  5
163
330
17
100
AcDbEntity
  8
FP-Roof
 62
8
100
AcDbLine
 10
102.19661097304197
 20
17.36670187472555
 30
0.0
 11
101.33655168358382
 21
15.877035478124526
 31
0.0
  0
LINE
  5
164
330
17
100
AcDbEntity
  8
FP-Roof
 62
8
100
AcDbLine
 10
101.97266306939127
 20
9.820739479420808
 30
0.0
 11
122.44858334777382
 21
9.820659738354152
 31
0.0
  0
LINE
  5
165
330
17
100
AcDbEntity
  8
FP-Roof
 62
8
100
AcDbLine
 10
102.07664467838185
 20
14.138904699042541
 30
0.0
 11
103.0781004126693
 21
14.138904699042541
 31
0.0
  0
LINE
  5
166
330
17
100
AcDbEntity
  8
FP-Roof
 62
8
100
AcDbLine
 10
102.31637136422069
 20
9.81631662413929
 30
0.0
 11
102.31637136422069
 21
5.340552888810635e-09
 31
0.0
  0
LINE
  5
167
330
17
100
AcDbEntity
  8
FP-Roof
 62
8
100
AcDbLine
 10
102.31638156512781
 20
14.138904699042541
 30
0.0
 11
102.31638156527333
 21
12.198329093806024
 31
0.0
  0
LINE
  5
168
330
17
100
AcDbEntity
  8
FP-Roof
 62
8
100
AcDbLine
 10
102.83835332488525
 20
9.818293031245048
 30
0.0
 11
102.83835332483432
 21
5.340552888810635e-09
 31
0.0
  0
LINE
  5
169
330
17
100
AcDbEntity
  8
FP-Roof
 62
8
100
AcDbLine
 10
102.83836352573417
 20
14.138904699042541
 30
0.0
 11
102.83836352587969
 21
12.196352686611135
 31
0.0
  0
LINE
  5
16A
330
17
100
AcDbEntity
  8
FP-Roof
 62
8
100
AcDbLine
 10
102.94924367931526
 20
17.36670187472555
 30
0.0
 11
103.80930296877341
 21
15.877035478124526
 31
0.0
  0
LINE
  5
16B
330
17
100
AcDbEntity
  8
FP-Roof
 62
8
100
AcDbLine
 10
108.90734830089787
 20
17.3667018764736
 30
0.0
 11
108.04728901143972
 21
15.877035479872575
 31
0.0
  0
LINE
  5
16C
330
17
100
AcDbEntity
  8
FP-Roof
 62
8
100
AcDbLine
 10
108.78738200623047
 20
14.13890470079059
 30
0.0
 11
109.78883774051792
 21
14.13890470079059
 31
0.0
  0
LINE
  5
16D
330
17
100
AcDbEntity
  8
FP-Roof
 62
8
100
AcDbLine
 10
109.0271086920693
 20
9.816316625887339
 30
0.0
 11
109.0271086920693
 21
7.088601705618203e-09
 31
0.0
  0
LINE
  5
16E
330
17
100
AcDbEntity
  8
FP-Roof
 62
8
100
AcDbLine
 10
109.02711889297643
 20
14.13890470079059
 30
0.0
 11
109.02711889312195
 21
12.198329095554072
 31
0.0
  0
LINE
  5
16F
330
17
100
AcDbEntity
  8
FP-Roof
 62
8
100
AcDbLine
 10
109.54909065273387
 20
9.818293032993097
 30
0.0
 11
109.54909065269021
 21
7.088601705618203e-09
 31
0.0
  0
LINE
  5
170
330
17
100
AcDbEntity
  8
FP-Roof
 62
8
100
AcDbLine
 10
109.54910085358279
 20
14.13890470079059
 30
0.0
 11
109.5491008537283
 21
12.196352688359184
 31
0.0
  0
LINE
  5
171
330
17
100
AcDbEntity
  8
FP-Roof
 62
8
100
AcDbLine
 10
109.65998100717115
 20
17.3667018764736
 30
0.0
 11
110.5200402966293
 21
15.877035479872575
 31
0.0
  0
LINE
  5
172
330
17
100
AcDbEntity
  8
FP-Roof
 62
8
100
AcDbLine
 10
115.61808562874648
 20
17.366701878221647
 30
0.0
 11
114.75802633928834
 21
15.877035481620624
 31
0.0
  0
LINE
  5
173
330
17
100
AcDbEntity
  8
FP-Roof
 62
8
100
AcDbLine
 10
115.49811933408637
 20
14.138904702538639
 30
0.0
 11
116.49957506837382
 21
14.138904702538639
 31
0.0
  0
LINE
  5
174
330
17
100
AcDbEntity
  8
FP-Roof
 62
8
100
AcDbLine
 10
115.7378460199252
 20
9.816316627635388
 30
0.0
 11
115.7378460199252
 21
8.83665052242577e-09
 31
0.0
  0
LINE
  5
175
330
17
100
AcDbEntity
  8
FP-Roof
 62
8
100
AcDbLine
 10
115.73785622083233
 20
14.138904702538639
 30
0.0
 11
115.73785622097785
 21
12.198329097302121
 31
0.0
  0
LINE
  5
176
330
17
100
AcDbEntity
  8
FP-Roof
 62
8
100
AcDbLine
 10
116.25982798058976
 20
9.818293034741146
 30
0.0
 11
116.25982798053883
 21
8.83665052242577e-09
 31
0.0
  0
LINE
  5
177
330
17
100
AcDbEntity
  8
FP-Roof
 62
8
100
AcDbLine
 10
116.25983818143868
 20
14.138904702538639
 30
0.0
 11
116.2598381815842
 21
12.196352690107233
 31
0.0
  0
LINE
  5
178
330
17
100
AcDbEntity
  8
FP-Roof
 62
8
100
AcDbLine
 10
116.37071833501977
 20
17.366701878221647
 30
0.0
 11
117.23077762447792
 21
15.877035481620624
 31
0.0
  0
LINE
  5
179
330
17
100
AcDbEntity
  8
FP-Roof
 62
8
100
AcDbLine
 10
122.44858334777382
 20
14.371928424850921
 30
0.0
 11
122.44858334777382
 21
0.004678689227148425
 31
0.0
  0
LINE
  5
17A
330
17
100
AcDbEntity
  8
FP-Roof
 62
8
100
AcDbLine
 10
123.23155628875975
 20
14.36896381405677
 30
0.0
 11
123.23155628868699
 21
0.004678689227148425
 31
0.0
  0
LINE
  5
17B
330
17
100
AcDbEntity
  8
FP-Roof
 62
8
100
AcDbLine
 10
162.9828683312644
 20
9.298684228115349
 30
0.0
 11
123.2315562887361
 21
9.298425596294805
 31
0.0
  0
LINE
  5
17C
330
17
100
AcDbEntity
  8
FP-Roof
 62
8
100
AcDbLine
 10
163.22470908213836
 20
9.82066842272809
 30
0.0
 11
123.2315562887361
 21
9.820410118438417
 31
0.0
  0
LINE
  5
17D
330
17
100
AcDbEntity
  8
FP-Roof
 62
8
100
AcDbLine
 10
143.70747656711865
 20
9.820739480239467
 30
0.0
 11
123.2315562887361
 21
9.820659739172811
 31
0.0
  0
LINE
  5
17E
330
17
100
AcDbEntity
  8
FP-Roof
 62
8
100
AcDbLine
 10
129.30942130149015
 20
17.366701879040306
 30
0.0
 11
128.449362012032
 21
15.877035482439283
 31
0.0
  0
LINE
  5
17F
330
17
100
AcDbEntity
  8
FP-Roof
 62
8
100
AcDbLine
 10
130.18202030243083
 20
14.138904703357298
 30
0.0
 11
129.18056456814338
 21
14.138904703357298
 31
0.0
  0
LINE
  5
180
330
17
100
AcDbEntity
  8
FP-Roof
 62
8
100
AcDbLine
 10
129.42030145507852
 20
14.138904703357298
 30
0.0
 11
129.420301454933
 21
12.196352690925892
 31
0.0
  0
LINE
  5
181
330
17
100
AcDbEntity
  8
FP-Roof
 62
8
100
AcDbLine
 10
129.42031165592743
 20
9.818293035559805
 30
0.0
 11
129.4203116559711
 21
9.655309440859128e-09
 31
0.0
  0
LINE
  5
182
330
17
100
AcDbEntity
  8
FP-Roof
 62
8
100
AcDbLine
 10
129.94228341568487
 20
14.138904703357298
 30
0.0
 11
129.94228341553935
 21
12.19832909812078
 31
0.0
  0
LINE
  5
183
330
17
100
AcDbEntity
  8
FP-Roof
 62
8
100
AcDbLine
 10
129.942293616592
 20
9.816316628454047
 30
0.0
 11
129.942293616592
 21
9.655309440859128e-09
 31
0.0
  0
LINE
  5
184
330
17
100
AcDbEntity
  8
FP-Roof
 62
8
100
AcDbLine
 10
130.06205400776344
 20
17.366701879040306
 30
0.0
 11
130.92211329722159
 21
15.877035482439283
 31
0.0
  0
LINE
  5
185
330
17
100
AcDbEntity
  8
FP-Roof
 62
8
100
AcDbLine
 10
136.02015862934604
 20
17.366701877292257
 30
0.0
 11
135.1600993398879
 21
15.877035480691234
 31
0.0
  0
LINE
  5
186
330
17
100
AcDbEntity
  8
FP-Roof
 62
8
100
AcDbLine
 10
136.89275763027945
 20
14.138904701609249
 30
0.0
 11
135.891301895992
 21
14.138904701609249
 31
0.0
  0
LINE
  5
187
330
17
100
AcDbEntity
  8
FP-Roof
 62
8
100
AcDbLine
 10
136.13103878292713
 20
14.138904701609249
 30
0.0
 11
136.13103878278162
 21
12.196352689177843
 31
0.0
  0
LINE
  5
188
330
17
100
AcDbEntity
  8
FP-Roof
 62
8
100
AcDbLine
 10
136.13104898377605
 20
9.818293033811756
 30
0.0
 11
136.131048983827
 21
7.90726062405156e-09
 31
0.0
  0
LINE
  5
189
330
17
100
AcDbEntity
  8
FP-Roof
 62
8
100
AcDbLine
 10
136.6530207435335
 20
14.138904701609249
 30
0.0
 11
136.65302074338797
 21
12.198329096372731
 31
0.0
  0
LINE
  5
18A
330
17
100
AcDbEntity
  8
FP-Roof
 62
8
100
AcDbLine
 10
136.65303094444062
 20
9.816316626705998
 30
0.0
 11
136.65303094444062
 21
7.90726062405156e-09
 31
0.0
  0
LINE
  5
18B
330
17
100
AcDbEntity
  8
FP-Roof
 62
8
100
AcDbLine
 10
136.77279133561933
 20
17.366701877292257
 30
0.0
 11
137.63285062507748
 21
15.877035480691234
 31
0.0
  0
LINE
  5
18C
330
17
100
AcDbEntity
  8
FP-Roof
 62
8
100
AcDbLine
 10
142.73089595719466
 20
17.36670187554421
 30
0.0
 11
141.8708366677365
 21
15.877035478943185
 31
0.0
  0
LINE
  5
18D
330
17
100
AcDbEntity
  8
FP-Roof
 62
8
100
AcDbLine
 10
143.60349495813534
 20
14.1389046998612
 30
0.0
 11
142.6020392238479
 21
14.1389046998612
 31
0.0
  0
LINE
  5
18E
330
17
100
AcDbEntity
  8
FP-Roof
 62
8
100
AcDbLine
 10
142.84177611078303
 20
14.1389046998612
 30
0.0
 11
142.8417761106375
 21
12.196352687429794
 31
0.0
  0
LINE
  5
18F
330
17
100
AcDbEntity
  8
FP-Roof
 62
8
100
AcDbLine
 10
142.84178631163195
 20
9.818293032063707
 30
0.0
 11
142.8417863116756
 21
6.159211807243992e-09
 31
0.0
  0
LINE
  5
190
330
17
100
AcDbEntity
  8
FP-Roof
 62
8
100
AcDbLine
 10
143.36375807138938
 20
14.1389046998612
 30
0.0
 11
143.36375807124386
 21
12.198329094624683
 31
0.0
  0
LINE
  5
191
330
17
100
AcDbEntity
  8
FP-Roof
 62
8
100
AcDbLine
 10
143.3637682722965
 20
9.816316624957949
 30
0.0
 11
143.3637682722965
 21
6.159211807243992e-09
 31
0.0
  0
LINE
  5
192
330
17
100
AcDbEntity
  8
FP-Roof
 62
8
100
AcDbLine
 10
143.48352866346795
 20
17.36670187554421
 30
0.0
 11
144.3435879529261
 21
15.877035478943185
 31
0.0
  0
LINE
  5
193
330
17
100
AcDbEntity
  8
FP-Roof
 62
8
100
AcDbLine
 10
149.44163328505056
 20
17.36670187379616
 30
0.0
 11
148.5815739955924
 21
15.877035477195136
 31
0.0
  0
LINE
  5
194
330
17
100
AcDbEntity
  8
FP-Roof
 62
8
100
AcDbLine
 10
150.31423228598396
 20
14.138904698113151
 30
0.0
 11
149.31277655169652
 21
14.138904698113151
 31
0.0
  0
LINE
  5
195
330
17
100
AcDbEntity
  8
FP-Roof
 62
8
100
AcDbLine
 10
149.55251343863165
 20
14.138904698113151
 30
0.0
 11
149.55251343848613
 21
12.196352685681745
 31
0.0
  0
LINE
  5
196
330
17
100
AcDbEntity
  8
FP-Roof
 62
8
100
AcDbLine
 10
149.55252363948057
 20
9.818293030315658
 30
0.0
 11
149.5525236395315
 21
4.4111629904364236e-09
 31
0.0
  0
LINE
  5
197
330
17
100
AcDbEntity
  8
FP-Roof
 62
8
100
AcDbLine
 10
150.074495399238
 20
14.138904698113151
 30
0.0
 11
150.07449539909248
 21
12.198329092876634
 31
0.0
  0
LINE
  5
198
330
17
100
AcDbEntity
  8
FP-Roof
 62
8
100
AcDbLine
 10
150.07450560014513
 20
9.8163166232099
 30
0.0
 11
150.07450560014513
 21
4.4111629904364236e-09
 31
0.0
  0
LINE
  5
199
330
17
100
AcDbEntity
  8
FP-Roof
 62
8
100
AcDbLine
 10
150.19426599132385
 20
17.36670187379616
 30
0.0
 11
151.054325280782
 21
15.877035477195136
 31
0.0
  0
LINE
  5
19A
330
17
100
AcDbEntity
  8
FP-Roof
 62
8
100
AcDbLine
 10
156.15237061289918
 20
17.36670187204811
 30
0.0
 11
155.29231132344103
 21
15.877035475447087
 31
0.0
  0
LINE
  5
19B
330
17
100
AcDbEntity
  8
FP-Roof
 62
8
100
AcDbLine
 10
157.02496961383986
 20
14.138904696365103
 30
0.0
 11
156.0235138795524
 21
14.138904696365103
 31
0.0
  0
LINE
  5
19C
330
17
100
AcDbEntity
  8
FP-Roof
 62
8
100
AcDbLine
 10
156.26325076648754
 20
14.138904696365103
 30
0.0
 11
156.26325076634203
 21
12.196352683933696
 31
0.0
  0
LINE
  5
19D
330
17
100
AcDbEntity
  8
FP-Roof
 62
8
100
AcDbLine
 10
156.26326096733646
 20
9.81829302856761
 30
0.0
 11
156.26326096738012
 21
2.6631141736288555e-09
 31
0.0
  0
LINE
  5
19E
330
17
100
AcDbEntity
  8
FP-Roof
 62
8
100
AcDbLine
 10
156.7852327270939
 20
14.138904696365103
 30
0.0
 11
156.78523272694838
 21
12.198329091128585
 31
0.0
  0
LINE
  5
19F
330
17
100
AcDbEntity
  8
FP-Roof
 62
8
100
AcDbLine
 10
156.78524292800103
 20
9.816316621461851
 30
0.0
 11
156.78524292800103
 21
2.6631141736288555e-09
 31
0.0
  0
LINE
  5
1A0
330
17
100
AcDbEntity
  8
FP-Roof
 62
8
100
AcDbLine
 10
156.90500331917247
 20
17.36670187204811
 30
0.0
 11
157.76506260863061
 21
15.877035475447087
 31
0.0
  0
LINE
  5
1A1
330
17
100
AcDbEntity
  8
FP-Roof
 62
8
100
AcDbLine
 10
162.49500032153264
 20
17.24002552876493
 30
0.0
 11
163.99718392303294
 21
17.24002552876493
 31
0.0
  0
LINE
  5
1A2
330
17
100
AcDbEntity
  8
FP-Roof
 62
8
100
AcDbLine
 10
162.9828683312644
 20
9.816316619619215
 30
0.0
 11
162.98286833130805
 21
8.18658918433357e-10
 31
0.0
  0
LINE
  5
1A3
330
17
100
AcDbEntity
  8
FP-Roof
 62
8
100
AcDbLine
 10
162.9828785321206
 20
17.24002552876857
 30
0.0
 11
162.9828785323025
 21
12.19832908948058
 31
0.0
  0
LINE
  5
1A4
330
17
100
AcDbEntity
  8
FP-Roof
 62
8
100
AcDbLine
 10
163.25413950425536
 20
9.82066842272809
 30
0.0
 11
203.26063890192563
 21
9.820498955472544
 31
0.0
  0
LINE
  5
1A5
330
17
100
AcDbEntity
  8
FP-Roof
 62
8
100
AcDbLine
 10
163.5048502919144
 20
9.818293027016011
 30
0.0
 11
163.5048502919144
 21
1.0151097740163095e-09
 31
0.0
  0
LINE
  5
1A6
330
17
100
AcDbEntity
  8
FP-Roof
 62
8
100
AcDbLine
 10
163.5048502919144
 20
9.298684154971966
 30
0.0
 11
203.26063890192563
 21
9.298514996609924
 31
0.0
  0
LINE
  5
1A7
330
17
100
AcDbEntity
  8
FP-Roof
 62
8
100
AcDbLine
 10
163.50486049273422
 20
17.24002552876493
 30
0.0
 11
163.50486049290885
 21
12.196352682965994
 31
0.0
  0
LINE
  5
1A8
330
17
100
AcDbEntity
  8
FP-Roof
 62
8
100
AcDbLine
 10
169.57384526797068
 20
17.36670187204811
 30
0.0
 11
168.71378597851253
 21
15.877035475447087
 31
0.0
  0
LINE
  5
1A9
330
17
100
AcDbEntity
  8
FP-Roof
 62
8
100
AcDbLine
 10
169.45387897331057
 20
14.138904696365103
 30
0.0
 11
170.455334707598
 21
14.138904696365103
 31
0.0
  0
LINE
  5
1AA
330
17
100
AcDbEntity
  8
FP-Roof
 62
8
100
AcDbLine
 10
169.6936056591494
 20
9.816316621461851
 30
0.0
 11
169.6936056591494
 21
2.6631141736288555e-09
 31
0.0
  0
LINE
  5
1AB
330
17
100
AcDbEntity
  8
FP-Roof
 62
8
100
AcDbLine
 10
169.69361586005652
 20
14.138904696365103
 30
0.0
 11
169.69361586020204
 21
12.198329091128585
 31
0.0
  0
LINE
  5
1AC
330
17
100
AcDbEntity
  8
FP-Roof
 62
8
100
AcDbLine
 10
170.21558761981396
 20
9.81829302856761
 30
0.0
 11
170.21558761976303
 21
2.6631141736288555e-09
 31
0.0
  0
LINE
  5
1AD
330
17
100
AcDbEntity
  8
FP-Roof
 62
8
100
AcDbLine
 10
170.21559782066288
 20
14.138904696365103
 30
0.0
 11
170.2155978208084
 21
12.196352683933696
 31
0.0
  0
LINE
  5
1AE
330
17
100
AcDbEntity
  8
FP-Roof
 62
8
100
AcDbLine
 10
170.32647797424397
 20
17.36670187204811
 30
0.0
 11
171.18653726370212
 21
15.877035475447087
 31
0.0
  0
LINE
  5
1AF
330
17
100
AcDbEntity
  8
FP-Roof
 62
8
100
AcDbLine
 10
176.28458259582658
 20
17.36670187379616
 30
0.0
 11
175.42452330636843
 21
15.877035477195136
 31
0.0
  0
LINE
  5
1B0
330
17
100
AcDbEntity
  8
FP-Roof
 62
8
100
AcDbLine
 10
176.16461630115919
 20
14.138904698113151
 30
0.0
 11
177.16607203544663
 21
14.138904698113151
 31
0.0
  0
LINE
  5
1B1
330
17
100
AcDbEntity
  8
FP-Roof
 62
8
100
AcDbLine
 10
176.40434298699802
 20
9.8163166232099
 30
0.0
 11
176.40434298699802
 21
4.4111629904364236e-09
 31
0.0
  0
LINE
  5
1B2
330
17
100
AcDbEntity
  8
FP-Roof
 62
8
100
AcDbLine
 10
176.40435318790514
 20
14.138904698113151
 30
0.0
 11
176.40435318805066
 21
12.198329092876634
 31
0.0
  0
LINE
  5
1B3
330
17
100
AcDbEntity
  8
FP-Roof
 62
8
100
AcDbLine
 10
176.92632494766258
 20
9.818293030315658
 30
0.0
 11
176.92632494761892
 21
4.4111629904364236e-09
 31
0.0
  0
LINE
  5
1B4
330
17
100
AcDbEntity
  8
FP-Roof
 62
8
100
AcDbLine
 10
176.9263351485115
 20
14.138904698113151
 30
0.0
 11
176.92633514865702
 21
12.196352685681745
 31
0.0
  0
LINE
  5
1B5
330
17
100
AcDbEntity
  8
FP-Roof
 62
8
100
AcDbLine
 10
177.03721530209987
 20
17.36670187379616
 30
0.0
 11
177.89727459155802
 21
15.877035477195136
 31
0.0
  0
LINE
  5
1B6
330
17
100
AcDbEntity
  8
FP-Roof
 62
8
100
AcDbLine
 10
182.9953199236752
 20
17.36670187554421
 30
0.0
 11
182.13526063421705
 21
15.877035478943185
 31
0.0
  0
LINE
  5
1B7
330
17
100
AcDbEntity
  8
FP-Roof
 62
8
100
AcDbLine
 10
182.87535362901508
 20
14.1389046998612
 30
0.0
 11
183.87680936330253
 21
14.1389046998612
 31
0.0
  0
LINE
  5
1B8
330
17
100
AcDbEntity
  8
FP-Roof
 62
8
100
AcDbLine
 10
183.1150803148539
 20
9.816316624957949
 30
0.0
 11
183.1150803148539
 21
6.159211807243992e-09
 31
0.0
  0
LINE
  5
1B9
330
17
100
AcDbEntity
  8
FP-Roof
 62
8
100
AcDbLine
 10
183.11509051576104
 20
14.1389046998612
 30
0.0
 11
183.11509051590656
 21
12.198329094624683
 31
0.0
  0
LINE
  5
1BA
330
17
100
AcDbEntity
  8
FP-Roof
 62
8
100
AcDbLine
 10
183.63706227551847
 20
9.818293032063707
 30
0.0
 11
183.63706227546754
 21
6.159211807243992e-09
 31
0.0
  0
LINE
  5
1BB
330
17
100
AcDbEntity
  8
FP-Roof
 62
8
100
AcDbLine
 10
183.6370724763674
 20
14.1389046998612
 30
0.0
 11
183.6370724765129
 21
12.196352687429794
 31
0.0
  0
LINE
  5
1BC
330
17
100
AcDbEntity
  8
FP-Roof
 62
8
100
AcDbLine
 10
183.7479526299485
 20
17.36670187554421
 30
0.0
 11
184.60801191940664
 21
15.877035478943185
 31
0.0
  0
LINE
  5
1BD
330
17
100
AcDbEntity
  8
FP-Roof
 62
8
100
AcDbLine
 10
189.7060572515311
 20
17.366701877292257
 30
0.0
 11
188.84599796207294
 21
15.877035480691234
 31
0.0
  0
LINE
  5
1BE
330
17
100
AcDbEntity
  8
FP-Roof
 62
8
100
AcDbLine
 10
189.5860909568637
 20
14.138904701609249
 30
0.0
 11
190.58754669115115
 21
14.138904701609249
 31
0.0
  0
LINE
  5
1BF
330
17
100
AcDbEntity
  8
FP-Roof
 62
8
100
AcDbLine
 10
189.82581764270253
 20
9.816316626705998
 30
0.0
 11
189.82581764270253
 21
7.90726062405156e-09
 31
0.0
  0
LINE
  5
1C0
330
17
100
AcDbEntity
  8
FP-Roof
 62
8
100
AcDbLine
 10
189.82582784360966
 20
14.138904701609249
 30
0.0
 11
189.82582784375518
 21
12.198329096372731
 31
0.0
  0
LINE
  5
1C1
330
17
100
AcDbEntity
  8
FP-Roof
 62
8
100
AcDbLine
 10
190.3477996033671
 20
9.818293033811756
 30
0.0
 11
190.34779960332344
 21
7.90726062405156e-09
 31
0.0
  0
LINE
  5
1C2
330
17
100
AcDbEntity
  8
FP-Roof
 62
8
100
AcDbLine
 10
190.347809804216
 20
14.138904701609249
 30
0.0
 11
190.34780980436153
 21
12.196352689177843
 31
0.0
  0
LINE
  5
1C3
330
17
100
AcDbEntity
  8
FP-Roof
 62
8
100
AcDbLine
 10
190.45868995780438
 20
17.366701877292257
 30
0.0
 11
191.31874924726253
 21
15.877035480691234
 31
0.0
  0
LINE
  5
1C4
330
17
100
AcDbEntity
  8
FP-Roof
 62
8
100
AcDbLine
 10
196.4167945793797
 20
17.366701879040306
 30
0.0
 11
195.55673528992156
 21
15.877035482439283
 31
0.0
  0
LINE
  5
1C5
330
17
100
AcDbEntity
  8
FP-Roof
 62
8
100
AcDbLine
 10
196.2968282847196
 20
14.138904703357298
 30
0.0
 11
197.29828401900704
 21
14.138904703357298
 31
0.0
  0
LINE
  5
1C6
330
17
100
AcDbEntity
  8
FP-Roof
 62
8
100
AcDbLine
 10
196.53655497055843
 20
9.816316628454047
 30
0.0
 11
196.53655497055843
 21
9.655309440859128e-09
 31
0.0
  0
LINE
  5
1C7
330
17
100
AcDbEntity
  8
FP-Roof
 62
8
100
AcDbLine
 10
196.53656517146555
 20
14.138904703357298
 30
0.0
 11
196.53656517161107
 21
12.19832909812078
 31
0.0
  0
LINE
  5
1C8
330
17
100
AcDbEntity
  8
FP-Roof
 62
8
100
AcDbLine
 10
197.058536931223
 20
9.818293035559805
 30
0.0
 11
197.05853693117206
 21
9.655309440859128e-09
 31
0.0
  0
LINE
  5
1C9
330
17
100
AcDbEntity
  8
FP-Roof
 62
8
100
AcDbLine
 10
197.0585471320719
 20
14.138904703357298
 30
0.0
 11
197.05854713221743
 21
12.196352690925892
 31
0.0
  0
LINE
  5
1CA
330
17
100
AcDbEntity
  8
FP-Roof
 62
8
100
AcDbLine
 10
197.169427285653
 20
17.366701879040306
 30
0.0
 11
198.02948657511115
 21
15.877035482439283
 31
0.0
  0
LINE
  5
1CB
330
17
100
AcDbEntity
  8
FP-Roof
 62
8
100
AcDbLine
 10
203.24729229840705
 20
14.37192842566958
 30
0.0
 11
203.24729229840705
 21
0.004678690045807343
 31
0.0
  0
LINE
  5
1CC
330
17
100
AcDbEntity
  8
FP-Roof
 62
8
100
AcDbLine
 10
204.03026523939297
 20
14.368963814875428
 30
0.0
 11
204.03026523932022
 21
0.004678690045807343
 31
0.0
  0
ENDSEC
  0
SECTION
  2
OBJECTS
  0
DICTIONARY
  5
A
330
0
100
AcDbDictionary
280
0
281
1
  3
ACAD_COLOR
350
B
  3
ACAD_GROUP
350
C
  3
ACAD_LAYOUT
350
D
  3
ACAD_MATERIAL
350
E
  3
ACAD_MLEADERSTYLE
350
F
  3
ACAD_MLINESTYLE
350
10
  3
ACAD_PLOTSETTINGS
350
11
  3
ACAD_PLOTSTYLENAME
350
12
  3
ACAD_SCALELIST
350
14
  3
ACAD_TABLESTYLE
350
15
  3
ACAD_VISUALSTYLE
350
16
  3
EZDXF_META
350
2D
  0
DICTIONARY
  5
B
330
A
100
AcDbDictionary
280
0
281
1
  0
DICTIONARY
  5
C
330
A
100
AcDbDictionary
280
0
281
1
  0
DICTIONARY
  5
D
330
A
100
AcDbDictionary
280
0
281
1
  3
Model
350
1A
  3
Layout1
350
1E
  0
DICTIONARY
  5
E
330
A
100
AcDbDictionary
280
0
281
1
  3
ByBlock
350
1F
  3
ByLayer
350
20
  3
Global
350
21
  0
DICTIONARY
  5
F
330
A
100
AcDbDictionary
280
0
281
1
  3
Standard
350
2C
  0
DICTIONARY
  5
10
330
A
100
AcDbDictionary
280
0
281
1
  3
Standard
350
22
  0
DICTIONARY
  5
11
330
A
100
AcDbDictionary
280
0
281
1
  0
ACDBDICTIONARYWDFLT
  5
12
330
A
100
AcDbDictionary
280
0
281
1
  3
Normal
350
13
100
AcDbDictionaryWithDefault
340
13
  0
ACDBPLACEHOLDER
  5
13
330
12
  0
DICTIONARY
  5
14
330
A
100
AcDbDictionary
280
0
281
1
  0
DICTIONARY
  5
15
330
A
100
AcDbDictionary
280
0
281
1
  0
DICTIONARY
  5
16
330
A
100
AcDbDictionary
280
0
281
1
  0
LAYOUT
  5
1A
330
D
100
AcDbPlotSettings
  1

  2
Adobe PDF
  4
A3
  6

 40
7.5
 41
20.0
 42
7.5
 43
20.0
 44
420.0
 45
297.0
 46
0.0
 47
0.0
 48
0.0
 49
0.0
140
0.0
141
0.0
142
1.0
143
1.0
 70
1024
 72
1
 73
0
 74
5
  7

 75
16
 76
0
 77
2
 78
300
147
1.0
148
0.0
149
0.0
100
AcDbLayout
  1
Model
 70
1
 71
0
 10
0.0
 20
0.0
 11
420.0
 21
297.0
 12
0.0
 22
0.0
 32
0.0
 14
1e+20
 24
1e+20
 34
1e+20
 15
-1e+20
 25
-1e+20
 35
-1e+20
146
0.0
 13
0.0
 23
0.0
 33
0.0
 16
1.0
 26
0.0
 36
0.0
 17
0.0
 27
1.0
 37
0.0
 76
1
330
17
  0
LAYOUT
  5
1E
330
D
100
AcDbPlotSettings
  1

  2
Adobe PDF
  4
A3
  6

 40
7.5
 41
20.0
 42
7.5
 43
20.0
 44
420.0
 45
297.0
 46
0.0
 47
0.0
 48
0.0
 49
0.0
140
0.0
141
0.0
142
1.0
143
1.0
 70
0
 72
1
 73
0
 74
5
  7

 75
16
 76
0
 77
2
 78
300
147
1.0
148
0.0
149
0.0
100
AcDbLayout
  1
Layout1
 70
1
 71
1
 10
0.0
 20
0.0
 11
420.0
 21
297.0
 12
0.0
 22
0.0
 32
0.0
 14
1e+20
 24
1e+20
 34
1e+20
 15
-1e+20
 25
-1e+20
 35
-1e+20
146
0.0
 13
0.0
 23
0.0
 33
0.0
 16
1.0
 26
0.0
 36
0.0
 17
0.0
 27
1.0
 37
0.0
 76
1
330
1B
  0
MATERIAL
  5
1F
102
{ACAD_REACTORS
330
E
102
}
330
E
100
AcDbMaterial
  1
ByBlock
  2

 70
0
 40
1.0
 71
1
 41
1.0
 91
-1023410177
 42
1.0
 72
1
  3

 73
1
 74
1
 75
1
 44
0.5
 73
0
 45
1.0
 46
1.0
 77
1
  4

 78
1
 79
1
170
1
 48
1.0
171
1
  6

172
1
173
1
174
1
140
1.0
141
1.0
175
1
  7

176
1
177
1
178
1
143
1.0
179
1
  8

270
1
271
1
272
1
145
1.0
146
1.0
273
1
  9

274
1
275
1
276
1
 42
1.0
 72
1
  3

 73
1
 74
1
 75
1
 94
63
  0
MATERIAL
  5
20
102
{ACAD_REACTORS
330
E
102
}
330
E
100
AcDbMaterial
  1
ByLayer
  2

 70
0
 40
1.0
 71
1
 41
1.0
 91
-1023410177
 42
1.0
 72
1
  3

 73
1
 74
1
 75
1
 44
0.5
 73
0
 45
1.0
 46
1.0
 77
1
  4

 78
1
 79
1
170
1
 48
1.0
171
1
  6

172
1
173
1
174
1
140
1.0
141
1.0
175
1
  7

176
1
177
1
178
1
143
1.0
179
1
  8

270
1
271
1
272
1
145
1.0
146
1.0
273
1
  9

274
1
275
1
276
1
 42
1.0
 72
1
  3

 73
1
 74
1
 75
1
 94
63
  0
MATERIAL
  5
21
102
{ACAD_REACTORS
330
E
102
}
330
E
100
AcDbMaterial
  1
Global
  2

 70
0
 40
1.0
 71
1
 41
1.0
 91
-1023410177
 42
1.0
 72
1
  3

 73
1
 74
1
 75
1
 44
0.5
 73
0
 45
1.0
 46
1.0
 77
1
  4

 78
1
 79
1
170
1
 48
1.0
171
1
  6

172
1
173
1
174
1
140
1.0
141
1.0
175
1
  7

176
1
177
1
178
1
143
1.0
179
1
  8

270
1
271
1
272
1
145
1.0
146
1.0
273
1
  9

274
1
275
1
276
1
 42
1.0
 72
1
  3

 73
1
 74
1
 75
1
 94
63
  0
MLINESTYLE
  5
22
102
{ACAD_REACTORS
330
10
102
}
330
10
100
AcDbMlineStyle
  2
Standard
 70
0
  3

 62
256
 51
90.0
 52
90.0
 71
2
 49
0.5
 62
256
  6
BYLAYER
 49
-0.5
 62
256
  6
BYLAYER
  0
MLEADERSTYLE
  5
2C
102
{ACAD_REACTORS
330
F
102
}
330
F
100
AcDbMLeaderStyle
179
2
170
2
171
1
172
0
 90
2
 40
0.0
 41
0.0
173
1
 91
-1056964608
 92
-2
290
1
 42
2.0
291
1
 43
8.0
  3
Standard
 44
4.0
300

342
29
174
1
175
1
176
0
178
1
 93
-1056964608
 45
4.0
292
0
297
0
 46
4.0
 94
-1056964608
 47
1.0
 49
1.0
140
1.0
294
1
141
0.0
177
0
142
1.0
295
0
296
0
143
3.75
271
0
272
9
273
9
  0
DICTIONARY
  5
2D
330
A
100
AcDbDictionary
281
1
  3
CREATED_BY_EZDXF
350
2E
  3
WRITTEN_BY_EZDXF
350
1CF
  0
DICTIONARYVAR
  5
2E
330
2D
100
DictionaryVariables
280
0
  1
1.1.4 @ 2024-01-23T16:06:05.166358+00:00
  0
DICTIONARYVAR
  5
1CF
330
2D
100
DictionaryVariables
280
0
  1
1.1.4 @ 2024-01-23T16:06:11.611637+00:00
  0
ENDSEC
  0
EOF
