  0
SECTION
  2
HEADER
  9
$ACADVER
  1
AC1027
  9
$ACADMAINTVER
 70
105
  9
$DWGCODEPAGE
  3
ANSI_1252
  9
$LASTSAVEDBY
  1
ezdxf
  9
$REQUIREDVERSIONS
160
0
  9
$INSBASE
 10
0.0
 20
0.0
 30
0.0
  9
$EXTMIN
 10
1e+20
 20
1e+20
 30
1e+20
  9
$EXTMAX
 10
-1e+20
 20
-1e+20
 30
-1e+20
  9
$LIMMIN
 10
0.0
 20
0.0
  9
$LIMMAX
 10
420.0
 20
297.0
  9
$ORTHOMODE
 70
0
  9
$REGENMODE
 70
1
  9
$FILLMODE
 70
1
  9
$QTEXTMODE
 70
0
  9
$MIRRTEXT
 70
1
  9
$LTSCALE
 40
1.0
  9
$ATTMODE
 70
1
  9
$TEXTSIZE
 40
2.5
  9
$TRACEWID
 40
1.0
  9
$TEXTSTYLE
  7
Standard
  9
$CLAYER
  8
0
  9
$CELTYPE
  6
ByLayer
  9
$CECOLOR
 62
256
  9
$CELTSCALE
 40
1.0
  9
$DISPSILH
 70
0
  9
$DIMSCALE
 40
1.0
  9
$DIMASZ
 40
2.5
  9
$DIMEXO
 40
0.625
  9
$DIMDLI
 40
3.75
  9
$DIMRND
 40
0.0
  9
$DIMDLE
 40
0.0
  9
$DIMEXE
 40
1.25
  9
$DIMTP
 40
0.0
  9
$DIMTM
 40
0.0
  9
$DIMTXT
 40
2.5
  9
$DIMCEN
 40
2.5
  9
$DIMTSZ
 40
0.0
  9
$DIMTOL
 70
0
  9
$DIMLIM
 70
0
  9
$DIMTIH
 70
0
  9
$DIMTOH
 70
0
  9
$DIMSE1
 70
0
  9
$DIMSE2
 70
0
  9
$DIMTAD
 70
1
  9
$DIMZIN
 70
8
  9
$DIMBLK
  1

  9
$DIMASO
 70
1
  9
$DIMSHO
 70
1
  9
$DIMPOST
  1

  9
$DIMAPOST
  1

  9
$DIMALT
 70
0
  9
$DIMALTD
 70
3
  9
$DIMALTF
 40
0.03937007874
  9
$DIMLFAC
 40
1.0
  9
$DIMTOFL
 70
1
  9
$DIMTVP
 40
0.0
  9
$DIMTIX
 70
0
  9
$DIMSOXD
 70
0
  9
$DIMSAH
 70
0
  9
$DIMBLK1
  1

  9
$DIMBLK2
  1

  9
$DIMSTYLE
  2
ISO-25
  9
$DIMCLRD
 70
0
  9
$DIMCLRE
 70
0
  9
$DIMCLRT
 70
0
  9
$DIMTFAC
 40
1.0
  9
$DIMGAP
 40
0.625
  9
$DIMJUST
 70
0
  9
$DIMSD1
 70
0
  9
$DIMSD2
 70
0
  9
$DIMTOLJ
 70
0
  9
$DIMTZIN
 70
8
  9
$DIMALTZ
 70
0
  9
$DIMALTTZ
 70
0
  9
$DIMUPT
 70
0
  9
$DIMDEC
 70
2
  9
$DIMTDEC
 70
2
  9
$DIMALTU
 70
2
  9
$DIMALTTD
 70
3
  9
$DIMTXSTY
  7
Standard
  9
$DIMAUNIT
 70
0
  9
$DIMADEC
 70
0
  9
$DIMALTRND
 40
0.0
  9
$DIMAZIN
 70
0
  9
$DIMDSEP
 70
44
  9
$DIMATFIT
 70
3
  9
$DIMFRAC
 70
0
  9
$DIMLDRBLK
  1

  9
$DIMLUNIT
 70
2
  9
$DIMLWD
 70
-2
  9
$DIMLWE
 70
-2
  9
$DIMTMOVE
 70
0
  9
$DIMFXL
 40
1.0
  9
$DIMFXLON
 70
0
  9
$DIMJOGANG
 40
0.785398163397
  9
$DIMTFILL
 70
0
  9
$DIMTFILLCLR
 70
0
  9
$DIMARCSYM
 70
0
  9
$DIMLTYPE
  6

  9
$DIMLTEX1
  6

  9
$DIMLTEX2
  6

  9
$DIMTXTDIRECTION
 70
0
  9
$LUNITS
 70
2
  9
$LUPREC
 70
4
  9
$SKETCHINC
 40
1.0
  9
$FILLETRAD
 40
10.0
  9
$AUNITS
 70
0
  9
$AUPREC
 70
2
  9
$MENU
  1
.
  9
$ELEVATION
 40
0.0
  9
$PELEVATION
 40
0.0
  9
$THICKNESS
 40
0.0
  9
$LIMCHECK
 70
0
  9
$CHAMFERA
 40
0.0
  9
$CHAMFERB
 40
0.0
  9
$CHAMFERC
 40
0.0
  9
$CHAMFERD
 40
0.0
  9
$SKPOLY
 70
0
  9
$TDCREATE
 40
2460333.8167939815
  9
$TDUCREATE
 40
2458532.153996898
  9
$TDUPDATE
 40
2460333.8167939815
  9
$TDUUPDATE
 40
2458532.1544311
  9
$TDINDWG
 40
0.0
  9
$TDUSRTIMER
 40
0.0
  9
$USRTIMER
 70
1
  9
$ANGBASE
 50
0.0
  9
$ANGDIR
 70
0
  9
$PDMODE
 70
0
  9
$PDSIZE
 40
0.0
  9
$PLINEWID
 40
0.0
  9
$SPLFRAME
 70
0
  9
$SPLINETYPE
 70
6
  9
$SPLINESEGS
 70
8
  9
$HANDSEED
  5
DB
  9
$SURFTAB1
 70
6
  9
$SURFTAB2
 70
6
  9
$SURFTYPE
 70
6
  9
$SURFU
 70
6
  9
$SURFV
 70
6
  9
$UCSBASE
  2

  9
$UCSNAME
  2

  9
$UCSORG
 10
0.0
 20
0.0
 30
0.0
  9
$UCSXDIR
 10
1.0
 20
0.0
 30
0.0
  9
$UCSYDIR
 10
0.0
 20
1.0
 30
0.0
  9
$UCSORTHOREF
  2

  9
$UCSORTHOVIEW
 70
0
  9
$UCSORGTOP
 10
0.0
 20
0.0
 30
0.0
  9
$UCSORGBOTTOM
 10
0.0
 20
0.0
 30
0.0
  9
$UCSORGLEFT
 10
0.0
 20
0.0
 30
0.0
  9
$UCSORGRIGHT
 10
0.0
 20
0.0
 30
0.0
  9
$UCSORGFRONT
 10
0.0
 20
0.0
 30
0.0
  9
$UCSORGBACK
 10
0.0
 20
0.0
 30
0.0
  9
$PUCSBASE
  2

  9
$PUCSNAME
  2

  9
$PUCSORG
 10
0.0
 20
0.0
 30
0.0
  9
$PUCSXDIR
 10
1.0
 20
0.0
 30
0.0
  9
$PUCSYDIR
 10
0.0
 20
1.0
 30
0.0
  9
$PUCSORTHOREF
  2

  9
$PUCSORTHOVIEW
 70
0
  9
$PUCSORGTOP
 10
0.0
 20
0.0
 30
0.0
  9
$PUCSORGBOTTOM
 10
0.0
 20
0.0
 30
0.0
  9
$PUCSORGLEFT
 10
0.0
 20
0.0
 30
0.0
  9
$PUCSORGRIGHT
 10
0.0
 20
0.0
 30
0.0
  9
$PUCSORGFRONT
 10
0.0
 20
0.0
 30
0.0
  9
$PUCSORGBACK
 10
0.0
 20
0.0
 30
0.0
  9
$USERI1
 70
0
  9
$USERI2
 70
0
  9
$USERI3
 70
0
  9
$USERI4
 70
0
  9
$USERI5
 70
0
  9
$USERR1
 40
0.0
  9
$USERR2
 40
0.0
  9
$USERR3
 40
0.0
  9
$USERR4
 40
0.0
  9
$USERR5
 40
0.0
  9
$WORLDVIEW
 70
1
  9
$SHADEDGE
 70
3
  9
$SHADEDIF
 70
70
  9
$TILEMODE
 70
1
  9
$MAXACTVP
 70
64
  9
$PINSBASE
 10
0.0
 20
0.0
 30
0.0
  9
$PLIMCHECK
 70
0
  9
$PEXTMIN
 10
1e+20
 20
1e+20
 30
1e+20
  9
$PEXTMAX
 10
-1e+20
 20
-1e+20
 30
-1e+20
  9
$PLIMMIN
 10
0.0
 20
0.0
  9
$PLIMMAX
 10
420.0
 20
297.0
  9
$UNITMODE
 70
0
  9
$VISRETAIN
 70
1
  9
$PLINEGEN
 70
0
  9
$PSLTSCALE
 70
1
  9
$TREEDEPTH
 70
3020
  9
$CMLSTYLE
  2
Standard
  9
$CMLJUST
 70
0
  9
$CMLSCALE
 40
20.0
  9
$PROXYGRAPHICS
 70
1
  9
$MEASUREMENT
 70
1
  9
$CELWEIGHT
370
-1
  9
$ENDCAPS
280
0
  9
$JOINSTYLE
280
0
  9
$LWDISPLAY
290
0
  9
$INSUNITS
 70
6
  9
$HYPERLINKBASE
  1

  9
$STYLESHEET
  1

  9
$XEDIT
290
1
  9
$CEPSNTYPE
380
0
  9
$PSTYLEMODE
290
1
  9
$FINGERPRINTGUID
  2
{13B042A1-E568-43C1-815F-8141586A7AB5}
  9
$VERSIONGUID
  2
{A84E5025-21C9-4483-B0B1-FD8D6077A8A6}
  9
$EXTNAMES
290
1
  9
$PSVPSCALE
 40
0.0
  9
$OLESTARTUP
290
0
  9
$SORTENTS
280
127
  9
$INDEXCTL
280
0
  9
$HIDETEXT
280
1
  9
$XCLIPFRAME
280
0
  9
$HALOGAP
280
0
  9
$OBSCOLOR
 70
257
  9
$OBSLTYPE
280
0
  9
$INTERSECTIONDISPLAY
280
0
  9
$INTERSECTIONCOLOR
 70
257
  9
$DIMASSOC
280
2
  9
$PROJECTNAME
  1

  9
$CAMERADISPLAY
290
0
  9
$LENSLENGTH
 40
50.0
  9
$CAMERAHEIGHT
 40
0.0
  9
$STEPSPERSEC
 40
24.0
  9
$STEPSIZE
 40
100.0
  9
$3DDWFPREC
 40
2.0
  9
$PSOLWIDTH
 40
0.005
  9
$PSOLHEIGHT
 40
0.08
  9
$LOFTANG1
 40
1.570796326795
  9
$LOFTANG2
 40
1.570796326795
  9
$LOFTMAG1
 40
0.0
  9
$LOFTMAG2
 40
0.0
  9
$LOFTPARAM
 70
7
  9
$LOFTNORMALS
280
1
  9
$LATITUDE
 40
37.795
  9
$LONGITUDE
 40
-122.394
  9
$NORTHDIRECTION
 40
0.0
  9
$TIMEZONE
 70
-8000
  9
$LIGHTGLYPHDISPLAY
280
1
  9
$TILEMODELIGHTSYNCH
280
1
  9
$CMATERIAL
347
20
  9
$SOLIDHIST
280
0
  9
$SHOWHIST
280
1
  9
$DWFFRAME
280
2
  9
$DGNFRAME
280
2
  9
$REALWORLDSCALE
290
1
  9
$INTERFERECOLOR
 62
256
  9
$CSHADOW
280
0
  9
$SHADOWPLANELOCATION
 40
0.0
  0
ENDSEC
  0
SECTION
  2
CLASSES
  0
CLASS
  1
ACDBDICTIONARYWDFLT
  2
AcDbDictionaryWithDefault
  3
ObjectDBX Classes
 90
0
 91
0
280
0
281
0
  0
CLASS
  1
SUN
  2
AcDbSun
  3
SCENEOE
 90
1153
 91
0
280
0
281
0
  0
CLASS
  1
VISUALSTYLE
  2
AcDbVisualStyle
  3
ObjectDBX Classes
 90
4095
 91
0
280
0
281
0
  0
CLASS
  1
MATERIAL
  2
AcDbMaterial
  3
ObjectDBX Classes
 90
1153
 91
0
280
0
281
0
  0
CLASS
  1
SCALE
  2
AcDbScale
  3
ObjectDBX Classes
 90
1153
 91
0
280
0
281
0
  0
CLASS
  1
TABLESTYLE
  2
AcDbTableStyle
  3
ObjectDBX Classes
 90
4095
 91
0
280
0
281
0
  0
CLASS
  1
MLEADERSTYLE
  2
AcDbMLeaderStyle
  3
ACDB_MLEADERSTYLE_CLASS
 90
4095
 91
0
280
0
281
0
  0
CLASS
  1
DICTIONARYVAR
  2
AcDbDictionaryVar
  3
ObjectDBX Classes
 90
0
 91
0
280
0
281
0
  0
CLASS
  1
CELLSTYLEMAP
  2
AcDbCellStyleMap
  3
ObjectDBX Classes
 90
1152
 91
0
280
0
281
0
  0
CLASS
  1
MENTALRAYRENDERSETTINGS
  2
AcDbMentalRayRenderSettings
  3
SCENEOE
 90
1024
 91
0
280
0
281
0
  0
CLASS
  1
ACDBDETAILVIEWSTYLE
  2
AcDbDetailViewStyle
  3
ObjectDBX Classes
 90
1025
 91
0
280
0
281
0
  0
CLASS
  1
ACDBSECTIONVIEWSTYLE
  2
AcDbSectionViewStyle
  3
ObjectDBX Classes
 90
1025
 91
0
280
0
281
0
  0
CLASS
  1
RASTERVARIABLES
  2
AcDbRasterVariables
  3
ISM
 90
0
 91
0
280
0
281
0
  0
CLASS
  1
ACDBPLACEHOLDER
  2
AcDbPlaceHolder
  3
ObjectDBX Classes
 90
0
 91
0
280
0
281
0
  0
CLASS
  1
LAYOUT
  2
AcDbLayout
  3
ObjectDBX Classes
 90
0
 91
0
280
0
281
0
  0
ENDSEC
  0
SECTION
  2
TABLES
  0
TABLE
  2
VPORT
  5
8
330
0
100
AcDbSymbolTable
 70
1
  0
VPORT
  5
23
330
8
100
AcDbSymbolTableRecord
100
AcDbViewportTableRecord
  2
*Active
 70
0
 10
0.0
 20
0.0
 11
1.0
 21
1.0
 12
0.0
 22
0.0
 13
0.0
 23
0.0
 14
0.5
 24
0.5
 15
0.5
 25
0.5
 16
0.0
 26
0.0
 36
1.0
 17
0.0
 27
0.0
 37
0.0
 40
1000.0
 41
1.34
 42
50.0
 43
0.0
 44
0.0
 50
0.0
 51
0.0
 71
0
 72
1000
 73
1
 74
3
 75
0
 76
0
 77
0
 78
0
281
0
 65
0
146
0.0
  0
ENDTAB
  0
TABLE
  2
LTYPE
  5
2
330
0
100
AcDbSymbolTable
 70
3
  0
LTYPE
  5
24
330
2
100
AcDbSymbolTableRecord
100
AcDbLinetypeTableRecord
  2
ByBlock
 70
0
  3

 72
65
 73
0
 40
0.0
  0
LTYPE
  5
25
330
2
100
AcDbSymbolTableRecord
100
AcDbLinetypeTableRecord
  2
ByLayer
 70
0
  3

 72
65
 73
0
 40
0.0
  0
LTYPE
  5
26
330
2
100
AcDbSymbolTableRecord
100
AcDbLinetypeTableRecord
  2
Continuous
 70
0
  3

 72
65
 73
0
 40
0.0
  0
ENDTAB
  0
TABLE
  2
LAYER
  5
1
330
0
100
AcDbSymbolTable
 70
2
  0
LAYER
  5
27
330
1
100
AcDbSymbolTableRecord
100
AcDbLayerTableRecord
  2
0
 70
0
 62
7
  6
Continuous
370
-3
390
13
347
21
  0
LAYER
  5
28
330
1
100
AcDbSymbolTableRecord
100
AcDbLayerTableRecord
  2
Defpoints
 70
0
 62
7
  6
Continuous
290
0
370
-3
390
13
347
21
  0
ENDTAB
  0
TABLE
  2
STYLE
  5
5
330
0
100
AcDbSymbolTable
 70
1
  0
STYLE
  5
29
330
5
100
AcDbSymbolTableRecord
100
AcDbTextStyleTableRecord
  2
Standard
 70
0
 40
0.0
 41
1.0
 50
0.0
 71
0
 42
2.5
  3
txt
  4

  0
ENDTAB
  0
TABLE
  2
VIEW
  5
7
330
0
100
AcDbSymbolTable
 70
0
  0
ENDTAB
  0
TABLE
  2
UCS
  5
6
330
0
100
AcDbSymbolTable
 70
0
  0
ENDTAB
  0
TABLE
  2
APPID
  5
3
330
0
100
AcDbSymbolTable
 70
3
  0
APPID
  5
2A
330
3
100
AcDbSymbolTableRecord
100
AcDbRegAppTableRecord
  2
ACAD
 70
0
  0
APPID
  5
D8
330
3
100
AcDbSymbolTableRecord
100
AcDbRegAppTableRecord
  2
HATCHBACKGROUNDCOLOR
 70
0
  0
APPID
  5
D9
330
3
100
AcDbSymbolTableRecord
100
AcDbRegAppTableRecord
  2
EZDXF
 70
0
  0
ENDTAB
  0
TABLE
  2
DIMSTYLE
  5
4
330
0
100
AcDbSymbolTable
 70
1
100
AcDbDimStyleTable
  0
DIMSTYLE
105
2B
330
4
100
AcDbSymbolTableRecord
100
AcDbDimStyleTableRecord
  2
Standard
 70
0
 40
1.0
 41
2.5
 42
0.625
 43
3.75
 44
1.25
 45
0.0
 46
0.0
 47
0.0
 48
0.0
 49
2.5
140
2.5
141
2.5
142
0.0
143
0.03937007874
144
1.0
145
0.0
146
1.0
147
0.625
148
0.0
 69
0
 70
0
 71
0
 72
0
 73
0
 74
0
 75
0
 76
0
 77
1
 78
8
 79
3
170
0
171
3
172
1
173
0
174
0
175
0
176
0
177
0
178
0
179
2
271
2
272
2
273
2
274
3
275
0
276
0
277
2
278
44
279
0
280
0
281
0
282
0
283
0
284
8
285
0
286
0
288
0
289
3
290
0
371
-2
372
-2
  0
ENDTAB
  0
TABLE
  2
BLOCK_RECORD
  5
9
330
0
100
AcDbSymbolTable
 70
2
  0
BLOCK_RECORD
  5
17
330
9
100
AcDbSymbolTableRecord
100
AcDbBlockTableRecord
  2
*Model_Space
340
1A
 70
0
280
1
281
0
  0
BLOCK_RECORD
  5
1B
330
9
100
AcDbSymbolTableRecord
100
AcDbBlockTableRecord
  2
*Paper_Space
340
1E
 70
0
280
1
281
0
  0
ENDTAB
  0
ENDSEC
  0
SECTION
  2
BLOCKS
  0
BLOCK
  5
18
330
17
100
AcDbEntity
  8
0
100
AcDbBlockBegin
  2
*Model_Space
 70
0
 10
0.0
 20
0.0
 30
0.0
  3
*Model_Space
  1

  0
ENDBLK
  5
19
330
17
100
AcDbEntity
  8
0
100
AcDbBlockEnd
  0
BLOCK
  5
1C
330
1B
100
AcDbEntity
  8
0
100
AcDbBlockBegin
  2
*Paper_Space
 70
0
 10
0.0
 20
0.0
 30
0.0
  3
*Paper_Space
  1

  0
ENDBLK
  5
1D
330
1B
100
AcDbEntity
  8
0
100
AcDbBlockEnd
  0
ENDSEC
  0
SECTION
  2
ENTITIES
  0
LINE
  5
2F
330
17
100
AcDbEntity
  8
EL-Roof
 62
8
100
AcDbLine
 10
-86.68092424182032
 20
0.5506531421942782
 30
-0.15667887986761997
 11
-0.5492666785066831
 21
0.5506478592778876
 31
-0.15667887986761997
  0
LINE
  5
30
330
17
100
AcDbEntity
  8
FP-Roof
 62
8
100
AcDbLine
 10
-81.74614523019409
 20
14.914932984107509
 30
-0.15667887986761997
 11
-81.7461452301286
 21
0.5506478592778876
 31
-0.15667887986761997
  0
LINE
  5
31
330
17
100
AcDbEntity
  8
FP-Roof
 62
8
100
AcDbLine
 10
-80.96317228921544
 20
14.91789759490166
 30
-0.15667887986761997
 11
-80.96317228921544
 21
0.5506478592778876
 31
-0.15667887986761997
  0
LINE
  5
32
330
17
100
AcDbEntity
  8
FP-Roof
 62
8
100
AcDbLine
 10
-41.21186024668714
 20
9.844653397347429
 30
-0.15667887986761997
 11
-80.96317228921544
 21
9.844394765526886
 31
-0.15667887986761997
  0
LINE
  5
33
330
17
100
AcDbEntity
  8
FP-Roof
 62
8
100
AcDbLine
 10
-40.970019495813176
 20
10.36663759196017
 30
-0.15667887986761997
 11
-80.96317228921544
 21
10.366379287670497
 31
-0.15667887986761997
  0
LINE
  5
34
330
17
100
AcDbEntity
  8
FP-Roof
 62
8
100
AcDbLine
 10
-60.48725201083289
 20
10.366708649471548
 30
-0.15667887986761997
 11
-80.96317228921544
 21
10.366628908404891
 31
-0.15667887986761997
  0
LINE
  5
35
330
17
100
AcDbEntity
  8
FP-Roof
 62
8
100
AcDbLine
 10
-74.88530727646139
 20
17.912671048272387
 30
-0.15667887986761997
 11
-75.74536656591954
 21
16.423004651671363
 31
-0.15667887986761997
  0
LINE
  5
36
330
17
100
AcDbEntity
  8
FP-Roof
 62
8
100
AcDbLine
 10
-74.01270827552071
 20
14.684873872589378
 30
-0.15667887986761997
 11
-75.01416400980816
 21
14.684873872589378
 31
-0.15667887986761997
  0
LINE
  5
37
330
17
100
AcDbEntity
  8
FP-Roof
 62
8
100
AcDbLine
 10
-74.77442712287302
 20
14.684873872589378
 30
-0.15667887986761997
 11
-74.77442712301854
 21
12.742321860157972
 31
-0.15667887986761997
  0
LINE
  5
38
330
17
100
AcDbEntity
  8
FP-Roof
 62
8
100
AcDbLine
 10
-74.7744169220241
 20
10.364262204791885
 30
-0.15667887986761997
 11
-74.77441692198045
 21
0.5459691788873897
 31
-0.15667887986761997
  0
LINE
  5
39
330
17
100
AcDbEntity
  8
FP-Roof
 62
8
100
AcDbLine
 10
-74.25244516226667
 20
14.684873872589378
 30
-0.15667887986761997
 11
-74.25244516241219
 21
12.74429826735286
 31
-0.15667887986761997
  0
LINE
  5
3A
330
17
100
AcDbEntity
  8
FP-Roof
 62
8
100
AcDbLine
 10
-74.25243496135954
 20
10.362285797686127
 30
-0.15667887986761997
 11
-74.25243496135954
 21
0.5459691788873897
 31
-0.15667887986761997
  0
LINE
  5
3B
330
17
100
AcDbEntity
  8
FP-Roof
 62
8
100
AcDbLine
 10
-74.1326745701881
 20
17.912671048272387
 30
-0.15667887986761997
 11
-73.27261528072995
 21
16.423004651671363
 31
-0.15667887986761997
  0
LINE
  5
3C
330
17
100
AcDbEntity
  8
FP-Roof
 62
8
100
AcDbLine
 10
-68.1745699486055
 20
17.912671046524338
 30
-0.15667887986761997
 11
-69.03462923806364
 21
16.423004649923314
 31
-0.15667887986761997
  0
LINE
  5
3D
330
17
100
AcDbEntity
  8
FP-Roof
 62
8
100
AcDbLine
 10
-67.30197094767209
 20
14.68487387084133
 30
-0.15667887986761997
 11
-68.30342668195954
 21
14.68487387084133
 31
-0.15667887986761997
  0
LINE
  5
3E
330
17
100
AcDbEntity
  8
FP-Roof
 62
8
100
AcDbLine
 10
-68.0636897950244
 20
14.68487387084133
 30
-0.15667887986761997
 11
-68.06368979516992
 21
12.742321858409923
 31
-0.15667887986761997
  0
LINE
  5
3F
330
17
100
AcDbEntity
  8
FP-Roof
 62
8
100
AcDbLine
 10
-68.06367959417548
 20
10.364262203043836
 30
-0.15667887986761997
 11
-68.06367959412455
 21
0.5459691771393409
 31
-0.15667887986761997
  0
LINE
  5
40
330
17
100
AcDbEntity
  8
FP-Roof
 62
8
100
AcDbLine
 10
-67.54170783441805
 20
14.68487387084133
 30
-0.15667887986761997
 11
-67.54170783456357
 21
12.744298265604812
 31
-0.15667887986761997
  0
LINE
  5
41
330
17
100
AcDbEntity
  8
FP-Roof
 62
8
100
AcDbLine
 10
-67.54169763351092
 20
10.362285795938078
 30
-0.15667887986761997
 11
-67.54169763351092
 21
0.5459691771393409
 31
-0.15667887986761997
  0
LINE
  5
42
330
17
100
AcDbEntity
  8
FP-Roof
 62
8
100
AcDbLine
 10
-67.4219372423322
 20
17.912671046524338
 30
-0.15667887986761997
 11
-66.56187795287406
 21
16.423004649923314
 31
-0.15667887986761997
  0
LINE
  5
43
330
17
100
AcDbEntity
  8
FP-Roof
 62
8
100
AcDbLine
 10
-61.463832620756875
 20
17.91267104477629
 30
-0.15667887986761997
 11
-62.323891910215025
 21
16.423004648175265
 31
-0.15667887986761997
  0
LINE
  5
44
330
17
100
AcDbEntity
  8
FP-Roof
 62
8
100
AcDbLine
 10
-60.591233619816194
 20
14.68487386909328
 30
-0.15667887986761997
 11
-61.59268935410364
 21
14.68487386909328
 31
-0.15667887986761997
  0
LINE
  5
45
330
17
100
AcDbEntity
  8
FP-Roof
 62
8
100
AcDbLine
 10
-61.35295246716851
 20
14.68487386909328
 30
-0.15667887986761997
 11
-61.352952467314026
 21
12.742321856661874
 31
-0.15667887986761997
  0
LINE
  5
46
330
17
100
AcDbEntity
  8
FP-Roof
 62
8
100
AcDbLine
 10
-61.35294226631959
 20
10.364262201295787
 30
-0.15667887986761997
 11
-61.35294226627593
 21
0.5459691753912921
 31
-0.15667887986761997
  0
LINE
  5
47
330
17
100
AcDbEntity
  8
FP-Roof
 62
8
100
AcDbLine
 10
-60.83097050656215
 20
14.68487386909328
 30
-0.15667887986761997
 11
-60.83097050670767
 21
12.744298263856763
 31
-0.15667887986761997
  0
LINE
  5
48
330
17
100
AcDbEntity
  8
FP-Roof
 62
8
100
AcDbLine
 10
-60.830960305655026
 20
10.36228579419003
 30
-0.15667887986761997
 11
-60.830960305655026
 21
0.5459691753912921
 31
-0.15667887986761997
  0
LINE
  5
49
330
17
100
AcDbEntity
  8
FP-Roof
 62
8
100
AcDbLine
 10
-60.711199914483586
 20
17.91267104477629
 30
-0.15667887986761997
 11
-59.85114062502544
 21
16.423004648175265
 31
-0.15667887986761997
  0
LINE
  5
4A
330
17
100
AcDbEntity
  8
FP-Roof
 62
8
100
AcDbLine
 10
-54.75309529290098
 20
17.91267104302824
 30
-0.15667887986761997
 11
-55.61315458235913
 21
16.423004646427216
 31
-0.15667887986761997
  0
LINE
  5
4B
330
17
100
AcDbEntity
  8
FP-Roof
 62
8
100
AcDbLine
 10
-53.880496291967575
 20
14.684873867345232
 30
-0.15667887986761997
 11
-54.88195202625502
 21
14.684873867345232
 31
-0.15667887986761997
  0
LINE
  5
4C
330
17
100
AcDbEntity
  8
FP-Roof
 62
8
100
AcDbLine
 10
-54.64221513931989
 20
14.684873867345232
 30
-0.15667887986761997
 11
-54.64221513946541
 21
12.742321854913826
 31
-0.15667887986761997
  0
LINE
  5
4D
330
17
100
AcDbEntity
  8
FP-Roof
 62
8
100
AcDbLine
 10
-54.64220493847097
 20
10.364262199547738
 30
-0.15667887986761997
 11
-54.642204938420036
 21
0.5459691736432433
 31
-0.15667887986761997
  0
LINE
  5
4E
330
17
100
AcDbEntity
  8
FP-Roof
 62
8
100
AcDbLine
 10
-54.120233178713534
 20
14.684873867345232
 30
-0.15667887986761997
 11
-54.12023317885905
 21
12.744298262108714
 31
-0.15667887986761997
  0
LINE
  5
4F
330
17
100
AcDbEntity
  8
FP-Roof
 62
8
100
AcDbLine
 10
-54.12022297780641
 20
10.36228579244198
 30
-0.15667887986761997
 11
-54.12022297780641
 21
0.5459691736432433
 31
-0.15667887986761997
  0
LINE
  5
50
330
17
100
AcDbEntity
  8
FP-Roof
 62
8
100
AcDbLine
 10
-54.00046258662769
 20
17.91267104302824
 30
-0.15667887986761997
 11
-53.14040329716954
 21
16.423004646427216
 31
-0.15667887986761997
  0
LINE
  5
51
330
17
100
AcDbEntity
  8
FP-Roof
 62
8
100
AcDbLine
 10
-48.04235796505236
 20
17.91267104128019
 30
-0.15667887986761997
 11
-48.90241725451051
 21
16.423004644679168
 31
-0.15667887986761997
  0
LINE
  5
52
330
17
100
AcDbEntity
  8
FP-Roof
 62
8
100
AcDbLine
 10
-47.16975896411168
 20
14.684873865597183
 30
-0.15667887986761997
 11
-48.171214698399126
 21
14.684873865597183
 31
-0.15667887986761997
  0
LINE
  5
53
330
17
100
AcDbEntity
  8
FP-Roof
 62
8
100
AcDbLine
 10
-47.93147781146399
 20
14.684873865597183
 30
-0.15667887986761997
 11
-47.93147781160951
 21
12.742321853165777
 31
-0.15667887986761997
  0
LINE
  5
54
330
17
100
AcDbEntity
  8
FP-Roof
 62
8
100
AcDbLine
 10
-47.93146761061507
 20
10.36426219779969
 30
-0.15667887986761997
 11
-47.93146761057142
 21
0.5459691718951944
 31
-0.15667887986761997
  0
LINE
  5
55
330
17
100
AcDbEntity
  8
FP-Roof
 62
8
100
AcDbLine
 10
-47.40949585085764
 20
14.684873865597183
 30
-0.15667887986761997
 11
-47.40949585100316
 21
12.744298260360665
 31
-0.15667887986761997
  0
LINE
  5
56
330
17
100
AcDbEntity
  8
FP-Roof
 62
8
100
AcDbLine
 10
-47.40948564995051
 20
10.362285790693932
 30
-0.15667887986761997
 11
-47.40948564995051
 21
0.5459691718951944
 31
-0.15667887986761997
  0
LINE
  5
57
330
17
100
AcDbEntity
  8
FP-Roof
 62
8
100
AcDbLine
 10
-47.28972525877907
 20
17.91267104128019
 30
-0.15667887986761997
 11
-46.42966596932092
 21
16.423004644679168
 31
-0.15667887986761997
  0
LINE
  5
58
330
17
100
AcDbEntity
  8
FP-Roof
 62
8
100
AcDbLine
 10
-41.699728256418894
 20
17.785994697997012
 30
-0.15667887986761997
 11
-40.1975446549186
 21
17.785994697997012
 31
-0.15667887986761997
  0
LINE
  5
59
330
17
100
AcDbEntity
  8
FP-Roof
 62
8
100
AcDbLine
 10
-41.21186024668714
 20
10.362285788851295
 30
-0.15667887986761997
 11
-41.21186024664348
 21
0.5459691700507392
 31
-0.15667887986761997
  0
LINE
  5
5A
330
17
100
AcDbEntity
  8
FP-Roof
 62
8
100
AcDbLine
 10
-41.21185004583094
 20
17.78599469800065
 30
-0.15667887986761997
 11
-41.211850045649044
 21
12.74429825871266
 31
-0.15667887986761997
  0
LINE
  5
5B
330
17
100
AcDbEntity
  8
FP-Roof
 62
8
100
AcDbLine
 10
-40.940589073696174
 20
10.36663759196017
 30
-0.15667887986761997
 11
-0.9340896760259056
 21
10.366468124704625
 31
-0.15667887986761997
  0
LINE
  5
5C
330
17
100
AcDbEntity
  8
FP-Roof
 62
8
100
AcDbLine
 10
-40.68987828603713
 20
10.364262196248092
 30
-0.15667887986761997
 11
-40.68987828603713
 21
0.54596917024719
 31
-0.15667887986761997
  0
LINE
  5
5D
330
17
100
AcDbEntity
  8
FP-Roof
 62
8
100
AcDbLine
 10
-40.68987828603713
 20
9.844653324204046
 30
-0.15667887986761997
 11
-0.9340896760259056
 21
9.844484165842005
 31
-0.15667887986761997
  0
LINE
  5
5E
330
17
100
AcDbEntity
  8
FP-Roof
 62
8
100
AcDbLine
 10
-40.68986808521731
 20
17.785994697997012
 30
-0.15667887986761997
 11
-40.68986808504269
 21
12.742321852198074
 31
-0.15667887986761997
  0
LINE
  5
5F
330
17
100
AcDbEntity
  8
FP-Roof
 62
8
100
AcDbLine
 10
-34.620883309980854
 20
17.91267104128019
 30
-0.15667887986761997
 11
-35.480942599439004
 21
16.423004644679168
 31
-0.15667887986761997
  0
LINE
  5
60
330
17
100
AcDbEntity
  8
FP-Roof
 62
8
100
AcDbLine
 10
-34.74084960464097
 20
14.684873865597183
 30
-0.15667887986761997
 11
-33.739393870353524
 21
14.684873865597183
 31
-0.15667887986761997
  0
LINE
  5
61
330
17
100
AcDbEntity
  8
FP-Roof
 62
8
100
AcDbLine
 10
-34.50112291880214
 20
10.362285790693932
 30
-0.15667887986761997
 11
-34.50112291880214
 21
0.5459691718951944
 31
-0.15667887986761997
  0
LINE
  5
62
330
17
100
AcDbEntity
  8
FP-Roof
 62
8
100
AcDbLine
 10
-34.50111271789501
 20
14.684873865597183
 30
-0.15667887986761997
 11
-34.50111271774949
 21
12.744298260360665
 31
-0.15667887986761997
  0
LINE
  5
63
330
17
100
AcDbEntity
  8
FP-Roof
 62
8
100
AcDbLine
 10
-33.97914095813758
 20
10.36426219779969
 30
-0.15667887986761997
 11
-33.97914095818851
 21
0.5459691718951944
 31
-0.15667887986761997
  0
LINE
  5
64
330
17
100
AcDbEntity
  8
FP-Roof
 62
8
100
AcDbLine
 10
-33.97913075728866
 20
14.684873865597183
 30
-0.15667887986761997
 11
-33.97913075714314
 21
12.742321853165777
 31
-0.15667887986761997
  0
LINE
  5
65
330
17
100
AcDbEntity
  8
FP-Roof
 62
8
100
AcDbLine
 10
-33.868250603707565
 20
17.91267104128019
 30
-0.15667887986761997
 11
-33.008191314249416
 21
16.423004644679168
 31
-0.15667887986761997
  0
LINE
  5
66
330
17
100
AcDbEntity
  8
FP-Roof
 62
8
100
AcDbLine
 10
-27.91014598212496
 20
17.91267104302824
 30
-0.15667887986761997
 11
-28.77020527158311
 21
16.423004646427216
 31
-0.15667887986761997
  0
LINE
  5
67
330
17
100
AcDbEntity
  8
FP-Roof
 62
8
100
AcDbLine
 10
-28.03011227679235
 20
14.684873867345232
 30
-0.15667887986761997
 11
-27.028656542504905
 21
14.684873867345232
 31
-0.15667887986761997
  0
LINE
  5
68
330
17
100
AcDbEntity
  8
FP-Roof
 62
8
100
AcDbLine
 10
-27.79038559095352
 20
10.36228579244198
 30
-0.15667887986761997
 11
-27.79038559095352
 21
0.5459691736432433
 31
-0.15667887986761997
  0
LINE
  5
69
330
17
100
AcDbEntity
  8
FP-Roof
 62
8
100
AcDbLine
 10
-27.790375390046393
 20
14.684873867345232
 30
-0.15667887986761997
 11
-27.790375389900873
 21
12.744298262108714
 31
-0.15667887986761997
  0
LINE
  5
6A
330
17
100
AcDbEntity
  8
FP-Roof
 62
8
100
AcDbLine
 10
-27.268403630288958
 20
10.364262199547738
 30
-0.15667887986761997
 11
-27.268403630332614
 21
0.5459691736432433
 31
-0.15667887986761997
  0
LINE
  5
6B
330
17
100
AcDbEntity
  8
FP-Roof
 62
8
100
AcDbLine
 10
-27.26839342944004
 20
14.684873867345232
 30
-0.15667887986761997
 11
-27.26839342929452
 21
12.742321854913826
 31
-0.15667887986761997
  0
LINE
  5
6C
330
17
100
AcDbEntity
  8
FP-Roof
 62
8
100
AcDbLine
 10
-27.15751327585167
 20
17.91267104302824
 30
-0.15667887986761997
 11
-26.29745398639352
 21
16.423004646427216
 31
-0.15667887986761997
  0
LINE
  5
6D
330
17
100
AcDbEntity
  8
FP-Roof
 62
8
100
AcDbLine
 10
-21.19940865427634
 20
17.91267104477629
 30
-0.15667887986761997
 11
-22.05946794373449
 21
16.423004648175265
 31
-0.15667887986761997
  0
LINE
  5
6E
330
17
100
AcDbEntity
  8
FP-Roof
 62
8
100
AcDbLine
 10
-21.319374948936456
 20
14.68487386909328
 30
-0.15667887986761997
 11
-20.31791921464901
 21
14.68487386909328
 31
-0.15667887986761997
  0
LINE
  5
6F
330
17
100
AcDbEntity
  8
FP-Roof
 62
8
100
AcDbLine
 10
-21.079648263097624
 20
10.36228579419003
 30
-0.15667887986761997
 11
-21.079648263097624
 21
0.5459691753912921
 31
-0.15667887986761997
  0
LINE
  5
70
330
17
100
AcDbEntity
  8
FP-Roof
 62
8
100
AcDbLine
 10
-21.079638062190497
 20
14.68487386909328
 30
-0.15667887986761997
 11
-21.079638062044978
 21
12.744298263856763
 31
-0.15667887986761997
  0
LINE
  5
71
330
17
100
AcDbEntity
  8
FP-Roof
 62
8
100
AcDbLine
 10
-20.557666302433063
 20
10.364262201295787
 30
-0.15667887986761997
 11
-20.557666302483995
 21
0.5459691753912921
 31
-0.15667887986761997
  0
LINE
  5
72
330
17
100
AcDbEntity
  8
FP-Roof
 62
8
100
AcDbLine
 10
-20.557656101584143
 20
14.68487386909328
 30
-0.15667887986761997
 11
-20.557656101438624
 21
12.742321856661874
 31
-0.15667887986761997
  0
LINE
  5
73
330
17
100
AcDbEntity
  8
FP-Roof
 62
8
100
AcDbLine
 10
-20.44677594800305
 20
17.91267104477629
 30
-0.15667887986761997
 11
-19.5867166585449
 21
16.423004648175265
 31
-0.15667887986761997
  0
LINE
  5
74
330
17
100
AcDbEntity
  8
FP-Roof
 62
8
100
AcDbLine
 10
-14.488671326420445
 20
17.912671046524338
 30
-0.15667887986761997
 11
-15.348730615878594
 21
16.423004649923314
 31
-0.15667887986761997
  0
LINE
  5
75
330
17
100
AcDbEntity
  8
FP-Roof
 62
8
100
AcDbLine
 10
-14.608637621087837
 20
14.68487387084133
 30
-0.15667887986761997
 11
-13.60718188680039
 21
14.68487387084133
 31
-0.15667887986761997
  0
LINE
  5
76
330
17
100
AcDbEntity
  8
FP-Roof
 62
8
100
AcDbLine
 10
-14.368910935249005
 20
10.362285795938078
 30
-0.15667887986761997
 11
-14.368910935249005
 21
0.5459691771393409
 31
-0.15667887986761997
  0
LINE
  5
77
330
17
100
AcDbEntity
  8
FP-Roof
 62
8
100
AcDbLine
 10
-14.368900734341878
 20
14.68487387084133
 30
-0.15667887986761997
 11
-14.368900734196359
 21
12.744298265604812
 31
-0.15667887986761997
  0
LINE
  5
78
330
17
100
AcDbEntity
  8
FP-Roof
 62
8
100
AcDbLine
 10
-13.846928974584443
 20
10.364262203043836
 30
-0.15667887986761997
 11
-13.8469289746281
 21
0.5459691771393409
 31
-0.15667887986761997
  0
LINE
  5
79
330
17
100
AcDbEntity
  8
FP-Roof
 62
8
100
AcDbLine
 10
-13.846918773735524
 20
14.68487387084133
 30
-0.15667887986761997
 11
-13.846918773590005
 21
12.742321858409923
 31
-0.15667887986761997
  0
LINE
  5
7A
330
17
100
AcDbEntity
  8
FP-Roof
 62
8
100
AcDbLine
 10
-13.736038620147156
 20
17.912671046524338
 30
-0.15667887986761997
 11
-12.875979330689006
 21
16.423004649923314
 31
-0.15667887986761997
  0
LINE
  5
7B
330
17
100
AcDbEntity
  8
FP-Roof
 62
8
100
AcDbLine
 10
-7.777933998571825
 20
17.912671048272387
 30
-0.15667887986761997
 11
-8.637993288029975
 21
16.423004651671363
 31
-0.15667887986761997
  0
LINE
  5
7C
330
17
100
AcDbEntity
  8
FP-Roof
 62
8
100
AcDbLine
 10
-7.897900293231942
 20
14.684873872589378
 30
-0.15667887986761997
 11
-6.896444558944495
 21
14.684873872589378
 31
-0.15667887986761997
  0
LINE
  5
7D
330
17
100
AcDbEntity
  8
FP-Roof
 62
8
100
AcDbLine
 10
-7.65817360739311
 20
10.362285797686127
 30
-0.15667887986761997
 11
-7.65817360739311
 21
0.5459691788873897
 31
-0.15667887986761997
  0
LINE
  5
7E
330
17
100
AcDbEntity
  8
FP-Roof
 62
8
100
AcDbLine
 10
-7.658163406485983
 20
14.684873872589378
 30
-0.15667887986761997
 11
-7.6581634063404636
 21
12.74429826735286
 31
-0.15667887986761997
  0
LINE
  5
7F
330
17
100
AcDbEntity
  8
FP-Roof
 62
8
100
AcDbLine
 10
-7.136191646728548
 20
10.364262204791885
 30
-0.15667887986761997
 11
-7.13619164677948
 21
0.5459691788873897
 31
-0.15667887986761997
  0
LINE
  5
80
330
17
100
AcDbEntity
  8
FP-Roof
 62
8
100
AcDbLine
 10
-7.136181445879629
 20
14.684873872589378
 30
-0.15667887986761997
 11
-7.13618144573411
 21
12.742321860157972
 31
-0.15667887986761997
  0
LINE
  5
81
330
17
100
AcDbEntity
  8
FP-Roof
 62
8
100
AcDbLine
 10
-7.025301292298536
 20
17.912671048272387
 30
-0.15667887986761997
 11
-6.165242002840387
 21
16.423004651671363
 31
-0.15667887986761997
  0
LINE
  5
82
330
17
100
AcDbEntity
  8
FP-Roof
 62
8
100
AcDbLine
 10
-0.9474362795444904
 20
14.91789759490166
 30
-0.15667887986761997
 11
-0.9474362795444904
 21
0.5506478592778876
 31
-0.15667887986761997
  0
LINE
  5
83
330
17
100
AcDbEntity
  8
EL-Roof
 62
8
100
AcDbLine
 10
85.58595754567432
 20
0.5506531421942782
 30
-0.15667887986761997
 11
-0.5492666785066831
 21
0.5506478591487394
 31
-0.15667887986761997
  0
LINE
  5
84
330
17
100
AcDbEntity
  8
FP-Roof
 62
8
100
AcDbLine
 10
-0.1644633385585621
 20
14.914932984107509
 30
-0.15667887986761997
 11
-0.16446333863132168
 21
0.5506478592778876
 31
-0.15667887986761997
  0
LINE
  5
85
330
17
100
AcDbEntity
  8
FP-Roof
 62
8
100
AcDbLine
 10
39.59134492902376
 20
9.844653324204046
 30
-0.15667887986761997
 11
-0.16444368098018458
 21
9.844484165842005
 31
-0.15667887986761997
  0
LINE
  5
86
330
17
100
AcDbEntity
  8
FP-Roof
 62
8
100
AcDbLine
 10
39.84205571668281
 20
10.36663759196017
 30
-0.15667887986761997
 11
-0.16444368098018458
 21
10.366468124704625
 31
-0.15667887986761997
  0
LINE
  5
87
330
17
100
AcDbEntity
  8
FP-Roof
 62
8
100
AcDbLine
 10
5.92676793528517
 20
17.912671048272387
 30
-0.15667887986761997
 11
5.0667086458270205
 21
16.423004651671363
 31
-0.15667887986761997
  0
LINE
  5
88
330
17
100
AcDbEntity
  8
FP-Roof
 62
8
100
AcDbLine
 10
6.7993669362258515
 20
14.684873872589378
 30
-0.15667887986761997
 11
5.797911201938405
 21
14.684873872589378
 31
-0.15667887986761997
  0
LINE
  5
89
330
17
100
AcDbEntity
  8
FP-Roof
 62
8
100
AcDbLine
 10
6.037648088873539
 20
14.684873872589378
 30
-0.15667887986761997
 11
6.0376480887280195
 21
12.742321860157972
 31
-0.15667887986761997
  0
LINE
  5
8A
330
17
100
AcDbEntity
  8
FP-Roof
 62
8
100
AcDbLine
 10
6.037658289722458
 20
10.364262204791885
 30
-0.15667887986761997
 11
6.037658289766114
 21
0.5459691788873897
 31
-0.15667887986761997
  0
LINE
  5
8B
330
17
100
AcDbEntity
  8
FP-Roof
 62
8
100
AcDbLine
 10
6.5596300494798925
 20
14.684873872589378
 30
-0.15667887986761997
 11
6.559630049334373
 21
12.74429826735286
 31
-0.15667887986761997
  0
LINE
  5
8C
330
17
100
AcDbEntity
  8
FP-Roof
 62
8
100
AcDbLine
 10
6.5596402503870195
 20
10.362285797686127
 30
-0.15667887986761997
 11
6.5596402503870195
 21
0.5459691788873897
 31
-0.15667887986761997
  0
LINE
  5
8D
330
17
100
AcDbEntity
  8
FP-Roof
 62
8
100
AcDbLine
 10
6.679400641558459
 20
17.912671048272387
 30
-0.15667887986761997
 11
7.539459931016609
 21
16.423004651671363
 31
-0.15667887986761997
  0
LINE
  5
8E
330
17
100
AcDbEntity
  8
FP-Roof
 62
8
100
AcDbLine
 10
12.637505263141065
 20
17.912671046524338
 30
-0.15667887986761997
 11
11.777445973682916
 21
16.423004649923314
 31
-0.15667887986761997
  0
LINE
  5
8F
330
17
100
AcDbEntity
  8
FP-Roof
 62
8
100
AcDbLine
 10
13.51010426407447
 20
14.68487387084133
 30
-0.15667887986761997
 11
12.508648529787024
 21
14.68487387084133
 31
-0.15667887986761997
  0
LINE
  5
90
330
17
100
AcDbEntity
  8
FP-Roof
 62
8
100
AcDbLine
 10
12.748385416722158
 20
14.68487387084133
 30
-0.15667887986761997
 11
12.748385416576639
 21
12.742321858409923
 31
-0.15667887986761997
  0
LINE
  5
91
330
17
100
AcDbEntity
  8
FP-Roof
 62
8
100
AcDbLine
 10
12.748395617571077
 20
10.364262203043836
 30
-0.15667887986761997
 11
12.748395617622009
 21
0.5459691771393409
 31
-0.15667887986761997
  0
LINE
  5
92
330
17
100
AcDbEntity
  8
FP-Roof
 62
8
100
AcDbLine
 10
13.270367377328512
 20
14.68487387084133
 30
-0.15667887986761997
 11
13.270367377182993
 21
12.744298265604812
 31
-0.15667887986761997
  0
LINE
  5
93
330
17
100
AcDbEntity
  8
FP-Roof
 62
8
100
AcDbLine
 10
13.270377578235639
 20
10.362285795938078
 30
-0.15667887986761997
 11
13.270377578235639
 21
0.5459691771393409
 31
-0.15667887986761997
  0
LINE
  5
94
330
17
100
AcDbEntity
  8
FP-Roof
 62
8
100
AcDbLine
 10
13.390137969414354
 20
17.912671046524338
 30
-0.15667887986761997
 11
14.250197258872504
 21
16.423004649923314
 31
-0.15667887986761997
  0
LINE
  5
95
330
17
100
AcDbEntity
  8
FP-Roof
 62
8
100
AcDbLine
 10
19.348242590989685
 20
17.91267104477629
 30
-0.15667887986761997
 11
18.488183301531535
 21
16.423004648175265
 31
-0.15667887986761997
  0
LINE
  5
96
330
17
100
AcDbEntity
  8
FP-Roof
 62
8
100
AcDbLine
 10
20.220841591930366
 20
14.68487386909328
 30
-0.15667887986761997
 11
19.21938585764292
 21
14.68487386909328
 31
-0.15667887986761997
  0
LINE
  5
97
330
17
100
AcDbEntity
  8
FP-Roof
 62
8
100
AcDbLine
 10
19.459122744578053
 20
14.68487386909328
 30
-0.15667887986761997
 11
19.459122744432534
 21
12.742321856661874
 31
-0.15667887986761997
  0
LINE
  5
98
330
17
100
AcDbEntity
  8
FP-Roof
 62
8
100
AcDbLine
 10
19.459132945426973
 20
10.364262201295787
 30
-0.15667887986761997
 11
19.45913294547063
 21
0.5459691753912921
 31
-0.15667887986761997
  0
LINE
  5
99
330
17
100
AcDbEntity
  8
FP-Roof
 62
8
100
AcDbLine
 10
19.981104705184407
 20
14.68487386909328
 30
-0.15667887986761997
 11
19.981104705038888
 21
12.744298263856763
 31
-0.15667887986761997
  0
LINE
  5
9A
330
17
100
AcDbEntity
  8
FP-Roof
 62
8
100
AcDbLine
 10
19.981114906091534
 20
10.36228579419003
 30
-0.15667887986761997
 11
19.981114906091534
 21
0.5459691753912921
 31
-0.15667887986761997
  0
LINE
  5
9B
330
17
100
AcDbEntity
  8
FP-Roof
 62
8
100
AcDbLine
 10
20.100875297262974
 20
17.91267104477629
 30
-0.15667887986761997
 11
20.960934586721123
 21
16.423004648175265
 31
-0.15667887986761997
  0
LINE
  5
9C
330
17
100
AcDbEntity
  8
FP-Roof
 62
8
100
AcDbLine
 10
26.05897991884558
 20
17.91267104302824
 30
-0.15667887986761997
 11
25.19892062938743
 21
16.423004646427216
 31
-0.15667887986761997
  0
LINE
  5
9D
330
17
100
AcDbEntity
  8
FP-Roof
 62
8
100
AcDbLine
 10
26.931578919778985
 20
14.684873867345232
 30
-0.15667887986761997
 11
25.93012318549154
 21
14.684873867345232
 31
-0.15667887986761997
  0
LINE
  5
9E
330
17
100
AcDbEntity
  8
FP-Roof
 62
8
100
AcDbLine
 10
26.169860072426673
 20
14.684873867345232
 30
-0.15667887986761997
 11
26.169860072281153
 21
12.742321854913826
 31
-0.15667887986761997
  0
LINE
  5
9F
330
17
100
AcDbEntity
  8
FP-Roof
 62
8
100
AcDbLine
 10
26.169870273275592
 20
10.364262199547738
 30
-0.15667887986761997
 11
26.169870273326524
 21
0.5459691736432433
 31
-0.15667887986761997
  0
LINE
  5
A0
330
17
100
AcDbEntity
  8
FP-Roof
 62
8
100
AcDbLine
 10
26.691842033033026
 20
14.684873867345232
 30
-0.15667887986761997
 11
26.691842032887507
 21
12.744298262108714
 31
-0.15667887986761997
  0
LINE
  5
A1
330
17
100
AcDbEntity
  8
FP-Roof
 62
8
100
AcDbLine
 10
26.691852233940153
 20
10.36228579244198
 30
-0.15667887986761997
 11
26.691852233940153
 21
0.5459691736432433
 31
-0.15667887986761997
  0
LINE
  5
A2
330
17
100
AcDbEntity
  8
FP-Roof
 62
8
100
AcDbLine
 10
26.81161262511887
 20
17.91267104302824
 30
-0.15667887986761997
 11
27.67167191457702
 21
16.423004646427216
 31
-0.15667887986761997
  0
LINE
  5
A3
330
17
100
AcDbEntity
  8
FP-Roof
 62
8
100
AcDbLine
 10
32.7697172466942
 20
17.91267104128019
 30
-0.15667887986761997
 11
31.90965795723605
 21
16.423004644679168
 31
-0.15667887986761997
  0
LINE
  5
A4
330
17
100
AcDbEntity
  8
FP-Roof
 62
8
100
AcDbLine
 10
33.64231624763488
 20
14.684873865597183
 30
-0.15667887986761997
 11
32.640860513347434
 21
14.684873865597183
 31
-0.15667887986761997
  0
LINE
  5
A5
330
17
100
AcDbEntity
  8
FP-Roof
 62
8
100
AcDbLine
 10
32.88059740028257
 20
14.684873865597183
 30
-0.15667887986761997
 11
32.88059740013705
 21
12.742321853165777
 31
-0.15667887986761997
  0
LINE
  5
A6
330
17
100
AcDbEntity
  8
FP-Roof
 62
8
100
AcDbLine
 10
32.88060760113149
 20
10.36426219779969
 30
-0.15667887986761997
 11
32.88060760117514
 21
0.5459691718951944
 31
-0.15667887986761997
  0
LINE
  5
A7
330
17
100
AcDbEntity
  8
FP-Roof
 62
8
100
AcDbLine
 10
33.40257936088892
 20
14.684873865597183
 30
-0.15667887986761997
 11
33.4025793607434
 21
12.744298260360665
 31
-0.15667887986761997
  0
LINE
  5
A8
330
17
100
AcDbEntity
  8
FP-Roof
 62
8
100
AcDbLine
 10
33.40258956179605
 20
10.362285790693932
 30
-0.15667887986761997
 11
33.40258956179605
 21
0.5459691718951944
 31
-0.15667887986761997
  0
LINE
  5
A9
330
17
100
AcDbEntity
  8
FP-Roof
 62
8
100
AcDbLine
 10
33.52234995296749
 20
17.91267104128019
 30
-0.15667887986761997
 11
34.38240924242564
 21
16.423004644679168
 31
-0.15667887986761997
  0
LINE
  5
AA
330
17
100
AcDbEntity
  8
FP-Roof
 62
8
100
AcDbLine
 10
40.60119489940553
 20
17.785994697997012
 30
-0.15667887986761997
 11
39.099011297905236
 21
17.785994697997012
 31
-0.15667887986761997
  0
LINE
  5
AB
330
17
100
AcDbEntity
  8
FP-Roof
 62
8
100
AcDbLine
 10
39.59133472821122
 20
17.785994697997012
 30
-0.15667887986761997
 11
39.591334728029324
 21
12.742321852198074
 31
-0.15667887986761997
  0
LINE
  5
AC
330
17
100
AcDbEntity
  8
FP-Roof
 62
8
100
AcDbLine
 10
39.59134492902376
 20
10.364262196248092
 30
-0.15667887986761997
 11
39.59134492902376
 21
0.54596917024719
 31
-0.15667887986761997
  0
LINE
  5
AD
330
17
100
AcDbEntity
  8
FP-Roof
 62
8
100
AcDbLine
 10
39.871486138807086
 20
10.36663759196017
 30
-0.15667887986761997
 11
79.86463893220207
 21
10.366379287670497
 31
-0.15667887986761997
  0
LINE
  5
AE
330
17
100
AcDbEntity
  8
FP-Roof
 62
8
100
AcDbLine
 10
40.11331668881758
 20
17.78599469800065
 30
-0.15667887986761997
 11
40.11331668863568
 21
12.74429825871266
 31
-0.15667887986761997
  0
LINE
  5
AF
330
17
100
AcDbEntity
  8
FP-Roof
 62
8
100
AcDbLine
 10
40.11332688968105
 20
10.362285788851295
 30
-0.15667887986761997
 11
40.113326889630116
 21
0.5459691700507392
 31
-0.15667887986761997
  0
LINE
  5
B0
330
17
100
AcDbEntity
  8
FP-Roof
 62
8
100
AcDbLine
 10
40.11332688967377
 20
9.844653397347429
 30
-0.15667887986761997
 11
79.86463893220207
 21
9.844394765526886
 31
-0.15667887986761997
  0
LINE
  5
B1
330
17
100
AcDbEntity
  8
FP-Roof
 62
8
100
AcDbLine
 10
46.191191901765706
 20
17.91267104128019
 30
-0.15667887986761997
 11
45.331132612307556
 21
16.423004644679168
 31
-0.15667887986761997
  0
LINE
  5
B2
330
17
100
AcDbEntity
  8
FP-Roof
 62
8
100
AcDbLine
 10
46.07122560710559
 20
14.684873865597183
 30
-0.15667887986761997
 11
47.072681341393036
 21
14.684873865597183
 31
-0.15667887986761997
  0
LINE
  5
B3
330
17
100
AcDbEntity
  8
FP-Roof
 62
8
100
AcDbLine
 10
46.31095229294442
 20
10.362285790693932
 30
-0.15667887986761997
 11
46.31095229294442
 21
0.5459691718951944
 31
-0.15667887986761997
  0
LINE
  5
B4
330
17
100
AcDbEntity
  8
FP-Roof
 62
8
100
AcDbLine
 10
46.31096249385155
 20
14.684873865597183
 30
-0.15667887986761997
 11
46.31096249399707
 21
12.744298260360665
 31
-0.15667887986761997
  0
LINE
  5
B5
330
17
100
AcDbEntity
  8
FP-Roof
 62
8
100
AcDbLine
 10
46.83293425360898
 20
10.36426219779969
 30
-0.15667887986761997
 11
46.83293425355805
 21
0.5459691718951944
 31
-0.15667887986761997
  0
LINE
  5
B6
330
17
100
AcDbEntity
  8
FP-Roof
 62
8
100
AcDbLine
 10
46.8329444544579
 20
14.684873865597183
 30
-0.15667887986761997
 11
46.83294445460342
 21
12.742321853165777
 31
-0.15667887986761997
  0
LINE
  5
B7
330
17
100
AcDbEntity
  8
FP-Roof
 62
8
100
AcDbLine
 10
46.943824608038994
 20
17.91267104128019
 30
-0.15667887986761997
 11
47.803883897497144
 21
16.423004644679168
 31
-0.15667887986761997
  0
LINE
  5
B8
330
17
100
AcDbEntity
  8
FP-Roof
 62
8
100
AcDbLine
 10
52.9019292296216
 20
17.91267104302824
 30
-0.15667887986761997
 11
52.04186994016345
 21
16.423004646427216
 31
-0.15667887986761997
  0
LINE
  5
B9
330
17
100
AcDbEntity
  8
FP-Roof
 62
8
100
AcDbLine
 10
52.78196293495421
 20
14.684873867345232
 30
-0.15667887986761997
 11
53.783418669241655
 21
14.684873867345232
 31
-0.15667887986761997
  0
LINE
  5
BA
330
17
100
AcDbEntity
  8
FP-Roof
 62
8
100
AcDbLine
 10
53.02168962079304
 20
10.36228579244198
 30
-0.15667887986761997
 11
53.02168962079304
 21
0.5459691736432433
 31
-0.15667887986761997
  0
LINE
  5
BB
330
17
100
AcDbEntity
  8
FP-Roof
 62
8
100
AcDbLine
 10
53.02169982170017
 20
14.684873867345232
 30
-0.15667887986761997
 11
53.02169982184569
 21
12.744298262108714
 31
-0.15667887986761997
  0
LINE
  5
BC
330
17
100
AcDbEntity
  8
FP-Roof
 62
8
100
AcDbLine
 10
53.5436715814576
 20
10.364262199547738
 30
-0.15667887986761997
 11
53.543671581413946
 21
0.5459691736432433
 31
-0.15667887986761997
  0
LINE
  5
BD
330
17
100
AcDbEntity
  8
FP-Roof
 62
8
100
AcDbLine
 10
53.54368178230652
 20
14.684873867345232
 30
-0.15667887986761997
 11
53.54368178245204
 21
12.742321854913826
 31
-0.15667887986761997
  0
LINE
  5
BE
330
17
100
AcDbEntity
  8
FP-Roof
 62
8
100
AcDbLine
 10
53.65456193589489
 20
17.91267104302824
 30
-0.15667887986761997
 11
54.51462122535304
 21
16.423004646427216
 31
-0.15667887986761997
  0
LINE
  5
BF
330
17
100
AcDbEntity
  8
FP-Roof
 62
8
100
AcDbLine
 10
59.61266655747022
 20
17.91267104477629
 30
-0.15667887986761997
 11
58.75260726801207
 21
16.423004648175265
 31
-0.15667887986761997
  0
LINE
  5
C0
330
17
100
AcDbEntity
  8
FP-Roof
 62
8
100
AcDbLine
 10
59.388718653819524
 20
10.366708649471548
 30
-0.15667887986761997
 11
79.86463893220207
 21
10.366628908404891
 31
-0.15667887986761997
  0
LINE
  5
C1
330
17
100
AcDbEntity
  8
FP-Roof
 62
8
100
AcDbLine
 10
59.492700262810104
 20
14.68487386909328
 30
-0.15667887986761997
 11
60.49415599709755
 21
14.68487386909328
 31
-0.15667887986761997
  0
LINE
  5
C2
330
17
100
AcDbEntity
  8
FP-Roof
 62
8
100
AcDbLine
 10
59.732426948648936
 20
10.36228579419003
 30
-0.15667887986761997
 11
59.732426948648936
 21
0.5459691753912921
 31
-0.15667887986761997
  0
LINE
  5
C3
330
17
100
AcDbEntity
  8
FP-Roof
 62
8
100
AcDbLine
 10
59.73243714955606
 20
14.68487386909328
 30
-0.15667887986761997
 11
59.73243714970158
 21
12.744298263856763
 31
-0.15667887986761997
  0
LINE
  5
C4
330
17
100
AcDbEntity
  8
FP-Roof
 62
8
100
AcDbLine
 10
60.2544089093135
 20
10.364262201295787
 30
-0.15667887986761997
 11
60.254408909262565
 21
0.5459691753912921
 31
-0.15667887986761997
  0
LINE
  5
C5
330
17
100
AcDbEntity
  8
FP-Roof
 62
8
100
AcDbLine
 10
60.25441911016242
 20
14.68487386909328
 30
-0.15667887986761997
 11
60.254419110307936
 21
12.742321856661874
 31
-0.15667887986761997
  0
LINE
  5
C6
330
17
100
AcDbEntity
  8
FP-Roof
 62
8
100
AcDbLine
 10
60.36529926374351
 20
17.91267104477629
 30
-0.15667887986761997
 11
61.22535855320166
 21
16.423004648175265
 31
-0.15667887986761997
  0
LINE
  5
C7
330
17
100
AcDbEntity
  8
FP-Roof
 62
8
100
AcDbLine
 10
66.32340388532612
 20
17.912671046524338
 30
-0.15667887986761997
 11
65.46334459586797
 21
16.423004649923314
 31
-0.15667887986761997
  0
LINE
  5
C8
330
17
100
AcDbEntity
  8
FP-Roof
 62
8
100
AcDbLine
 10
66.20343759065872
 20
14.68487387084133
 30
-0.15667887986761997
 11
67.20489332494617
 21
14.68487387084133
 31
-0.15667887986761997
  0
LINE
  5
C9
330
17
100
AcDbEntity
  8
FP-Roof
 62
8
100
AcDbLine
 10
66.44316427649755
 20
10.362285795938078
 30
-0.15667887986761997
 11
66.44316427649755
 21
0.5459691771393409
 31
-0.15667887986761997
  0
LINE
  5
CA
330
17
100
AcDbEntity
  8
FP-Roof
 62
8
100
AcDbLine
 10
66.44317447740468
 20
14.68487387084133
 30
-0.15667887986761997
 11
66.4431744775502
 21
12.744298265604812
 31
-0.15667887986761997
  0
LINE
  5
CB
330
17
100
AcDbEntity
  8
FP-Roof
 62
8
100
AcDbLine
 10
66.96514623716212
 20
10.364262203043836
 30
-0.15667887986761997
 11
66.96514623711846
 21
0.5459691771393409
 31
-0.15667887986761997
  0
LINE
  5
CC
330
17
100
AcDbEntity
  8
FP-Roof
 62
8
100
AcDbLine
 10
66.96515643801104
 20
14.68487387084133
 30
-0.15667887986761997
 11
66.96515643815655
 21
12.742321858409923
 31
-0.15667887986761997
  0
LINE
  5
CD
330
17
100
AcDbEntity
  8
FP-Roof
 62
8
100
AcDbLine
 10
67.0760365915994
 20
17.912671046524338
 30
-0.15667887986761997
 11
67.93609588105755
 21
16.423004649923314
 31
-0.15667887986761997
  0
LINE
  5
CE
330
17
100
AcDbEntity
  8
FP-Roof
 62
8
100
AcDbLine
 10
73.03414121317473
 20
17.912671048272387
 30
-0.15667887986761997
 11
72.17408192371659
 21
16.423004651671363
 31
-0.15667887986761997
  0
LINE
  5
CF
330
17
100
AcDbEntity
  8
FP-Roof
 62
8
100
AcDbLine
 10
72.91417491851462
 20
14.684873872589378
 30
-0.15667887986761997
 11
73.91563065280207
 21
14.684873872589378
 31
-0.15667887986761997
  0
LINE
  5
D0
330
17
100
AcDbEntity
  8
FP-Roof
 62
8
100
AcDbLine
 10
73.15390160435345
 20
10.362285797686127
 30
-0.15667887986761997
 11
73.15390160435345
 21
0.5459691788873897
 31
-0.15667887986761997
  0
LINE
  5
D1
330
17
100
AcDbEntity
  8
FP-Roof
 62
8
100
AcDbLine
 10
73.15391180526058
 20
14.684873872589378
 30
-0.15667887986761997
 11
73.1539118054061
 21
12.74429826735286
 31
-0.15667887986761997
  0
LINE
  5
D2
330
17
100
AcDbEntity
  8
FP-Roof
 62
8
100
AcDbLine
 10
73.67588356501801
 20
10.364262204791885
 30
-0.15667887986761997
 11
73.67588356496708
 21
0.5459691788873897
 31
-0.15667887986761997
  0
LINE
  5
D3
330
17
100
AcDbEntity
  8
FP-Roof
 62
8
100
AcDbLine
 10
73.67589376586693
 20
14.684873872589378
 30
-0.15667887986761997
 11
73.67589376601245
 21
12.742321860157972
 31
-0.15667887986761997
  0
LINE
  5
D4
330
17
100
AcDbEntity
  8
FP-Roof
 62
8
100
AcDbLine
 10
73.78677391944802
 20
17.912671048272387
 30
-0.15667887986761997
 11
74.64683320890617
 21
16.423004651671363
 31
-0.15667887986761997
  0
LINE
  5
D5
330
17
100
AcDbEntity
  8
FP-Roof
 62
8
100
AcDbLine
 10
79.86463893220207
 20
14.91789759490166
 30
-0.15667887986761997
 11
79.86463893220207
 21
0.5506478592778876
 31
-0.15667887986761997
  0
LINE
  5
D6
330
17
100
AcDbEntity
  8
FP-Roof
 62
8
100
AcDbLine
 10
80.647611873188
 20
14.914932984107509
 30
-0.15667887986761997
 11
80.64761187311524
 21
0.5506478592778876
 31
-0.15667887986761997
  0
LINE
  5
D7
330
17
100
AcDbEntity
  8
EL-Roof
 62
8
100
AcDbLine
 10
86.68092424182032
 20
0.0
 30
-0.15667887986761997
 11
85.58417984409243
 21
0.5506531421924592
 31
-0.15667887986761997
  0
ENDSEC
  0
SECTION
  2
OBJECTS
  0
DICTIONARY
  5
A
330
0
100
AcDbDictionary
280
0
281
1
  3
ACAD_COLOR
350
B
  3
ACAD_GROUP
350
C
  3
ACAD_LAYOUT
350
D
  3
ACAD_MATERIAL
350
E
  3
ACAD_MLEADERSTYLE
350
F
  3
ACAD_MLINESTYLE
350
10
  3
ACAD_PLOTSETTINGS
350
11
  3
ACAD_PLOTSTYLENAME
350
12
  3
ACAD_SCALELIST
350
14
  3
ACAD_TABLESTYLE
350
15
  3
ACAD_VISUALSTYLE
350
16
  3
EZDXF_META
350
2D
  0
DICTIONARY
  5
B
330
A
100
AcDbDictionary
280
0
281
1
  0
DICTIONARY
  5
C
330
A
100
AcDbDictionary
280
0
281
1
  0
DICTIONARY
  5
D
330
A
100
AcDbDictionary
280
0
281
1
  3
Model
350
1A
  3
Layout1
350
1E
  0
DICTIONARY
  5
E
330
A
100
AcDbDictionary
280
0
281
1
  3
ByBlock
350
1F
  3
ByLayer
350
20
  3
Global
350
21
  0
DICTIONARY
  5
F
330
A
100
AcDbDictionary
280
0
281
1
  3
Standard
350
2C
  0
DICTIONARY
  5
10
330
A
100
AcDbDictionary
280
0
281
1
  3
Standard
350
22
  0
DICTIONARY
  5
11
330
A
100
AcDbDictionary
280
0
281
1
  0
ACDBDICTIONARYWDFLT
  5
12
330
A
100
AcDbDictionary
280
0
281
1
  3
Normal
350
13
100
AcDbDictionaryWithDefault
340
13
  0
ACDBPLACEHOLDER
  5
13
330
12
  0
DICTIONARY
  5
14
330
A
100
AcDbDictionary
280
0
281
1
  0
DICTIONARY
  5
15
330
A
100
AcDbDictionary
280
0
281
1
  0
DICTIONARY
  5
16
330
A
100
AcDbDictionary
280
0
281
1
  0
LAYOUT
  5
1A
330
D
100
AcDbPlotSettings
  1

  2
Adobe PDF
  4
A3
  6

 40
7.5
 41
20.0
 42
7.5
 43
20.0
 44
420.0
 45
297.0
 46
0.0
 47
0.0
 48
0.0
 49
0.0
140
0.0
141
0.0
142
1.0
143
1.0
 70
1024
 72
1
 73
0
 74
5
  7

 75
16
 76
0
 77
2
 78
300
147
1.0
148
0.0
149
0.0
100
AcDbLayout
  1
Model
 70
1
 71
0
 10
0.0
 20
0.0
 11
420.0
 21
297.0
 12
0.0
 22
0.0
 32
0.0
 14
1e+20
 24
1e+20
 34
1e+20
 15
-1e+20
 25
-1e+20
 35
-1e+20
146
0.0
 13
0.0
 23
0.0
 33
0.0
 16
1.0
 26
0.0
 36
0.0
 17
0.0
 27
1.0
 37
0.0
 76
1
330
17
  0
LAYOUT
  5
1E
330
D
100
AcDbPlotSettings
  1

  2
Adobe PDF
  4
A3
  6

 40
7.5
 41
20.0
 42
7.5
 43
20.0
 44
420.0
 45
297.0
 46
0.0
 47
0.0
 48
0.0
 49
0.0
140
0.0
141
0.0
142
1.0
143
1.0
 70
0
 72
1
 73
0
 74
5
  7

 75
16
 76
0
 77
2
 78
300
147
1.0
148
0.0
149
0.0
100
AcDbLayout
  1
Layout1
 70
1
 71
1
 10
0.0
 20
0.0
 11
420.0
 21
297.0
 12
0.0
 22
0.0
 32
0.0
 14
1e+20
 24
1e+20
 34
1e+20
 15
-1e+20
 25
-1e+20
 35
-1e+20
146
0.0
 13
0.0
 23
0.0
 33
0.0
 16
1.0
 26
0.0
 36
0.0
 17
0.0
 27
1.0
 37
0.0
 76
1
330
1B
  0
MATERIAL
  5
1F
102
{ACAD_REACTORS
330
E
102
}
330
E
100
AcDbMaterial
  1
ByBlock
  2

 70
0
 40
1.0
 71
1
 41
1.0
 91
-1023410177
 42
1.0
 72
1
  3

 73
1
 74
1
 75
1
 44
0.5
 73
0
 45
1.0
 46
1.0
 77
1
  4

 78
1
 79
1
170
1
 48
1.0
171
1
  6

172
1
173
1
174
1
140
1.0
141
1.0
175
1
  7

176
1
177
1
178
1
143
1.0
179
1
  8

270
1
271
1
272
1
145
1.0
146
1.0
273
1
  9

274
1
275
1
276
1
 42
1.0
 72
1
  3

 73
1
 74
1
 75
1
 94
63
  0
MATERIAL
  5
20
102
{ACAD_REACTORS
330
E
102
}
330
E
100
AcDbMaterial
  1
ByLayer
  2

 70
0
 40
1.0
 71
1
 41
1.0
 91
-1023410177
 42
1.0
 72
1
  3

 73
1
 74
1
 75
1
 44
0.5
 73
0
 45
1.0
 46
1.0
 77
1
  4

 78
1
 79
1
170
1
 48
1.0
171
1
  6

172
1
173
1
174
1
140
1.0
141
1.0
175
1
  7

176
1
177
1
178
1
143
1.0
179
1
  8

270
1
271
1
272
1
145
1.0
146
1.0
273
1
  9

274
1
275
1
276
1
 42
1.0
 72
1
  3

 73
1
 74
1
 75
1
 94
63
  0
MATERIAL
  5
21
102
{ACAD_REACTORS
330
E
102
}
330
E
100
AcDbMaterial
  1
Global
  2

 70
0
 40
1.0
 71
1
 41
1.0
 91
-1023410177
 42
1.0
 72
1
  3

 73
1
 74
1
 75
1
 44
0.5
 73
0
 45
1.0
 46
1.0
 77
1
  4

 78
1
 79
1
170
1
 48
1.0
171
1
  6

172
1
173
1
174
1
140
1.0
141
1.0
175
1
  7

176
1
177
1
178
1
143
1.0
179
1
  8

270
1
271
1
272
1
145
1.0
146
1.0
273
1
  9

274
1
275
1
276
1
 42
1.0
 72
1
  3

 73
1
 74
1
 75
1
 94
63
  0
MLINESTYLE
  5
22
102
{ACAD_REACTORS
330
10
102
}
330
10
100
AcDbMlineStyle
  2
Standard
 70
0
  3

 62
256
 51
90.0
 52
90.0
 71
2
 49
0.5
 62
256
  6
BYLAYER
 49
-0.5
 62
256
  6
BYLAYER
  0
MLEADERSTYLE
  5
2C
102
{ACAD_REACTORS
330
F
102
}
330
F
100
AcDbMLeaderStyle
179
2
170
2
171
1
172
0
 90
2
 40
0.0
 41
0.0
173
1
 91
-1056964608
 92
-2
290
1
 42
2.0
291
1
 43
8.0
  3
Standard
 44
4.0
300

342
29
174
1
175
1
176
0
178
1
 93
-1056964608
 45
4.0
292
0
297
0
 46
4.0
 94
-1056964608
 47
1.0
 49
1.0
140
1.0
294
1
141
0.0
177
0
142
1.0
295
0
296
0
143
3.75
271
0
272
9
273
9
  0
DICTIONARY
  5
2D
330
A
100
AcDbDictionary
281
1
  3
CREATED_BY_EZDXF
350
2E
  3
WRITTEN_BY_EZDXF
350
DA
  0
DICTIONARYVAR
  5
2E
330
2D
100
DictionaryVariables
280
0
  1
1.1.4 @ 2024-01-23T16:06:05.212329+00:00
  0
DICTIONARYVAR
  5
DA
330
2D
100
DictionaryVariables
280
0
  1
1.1.4 @ 2024-01-23T16:06:11.661917+00:00
  0
ENDSEC
  0
EOF
