  0
SECTION
  2
HEADER
  9
$ACADVER
  1
AC1027
  9
$ACADMAINTVER
 70
105
  9
$DWGCODEPAGE
  3
ANSI_1252
  9
$LASTSAVEDBY
  1
ezdxf
  9
$REQUIREDVERSIONS
160
0
  9
$INSBASE
 10
0.0
 20
0.0
 30
0.0
  9
$EXTMIN
 10
1e+20
 20
1e+20
 30
1e+20
  9
$EXTMAX
 10
-1e+20
 20
-1e+20
 30
-1e+20
  9
$LIMMIN
 10
0.0
 20
0.0
  9
$LIMMAX
 10
420.0
 20
297.0
  9
$ORTHOMODE
 70
0
  9
$REGENMODE
 70
1
  9
$FILLMODE
 70
1
  9
$QTEXTMODE
 70
0
  9
$MIRRTEXT
 70
1
  9
$LTSCALE
 40
1.0
  9
$ATTMODE
 70
1
  9
$TEXTSIZE
 40
2.5
  9
$TRACEWID
 40
1.0
  9
$TEXTSTYLE
  7
Standard
  9
$CLAYER
  8
0
  9
$CELTYPE
  6
ByLayer
  9
$CECOLOR
 62
256
  9
$CELTSCALE
 40
1.0
  9
$DISPSILH
 70
0
  9
$DIMSCALE
 40
1.0
  9
$DIMASZ
 40
2.5
  9
$DIMEXO
 40
0.625
  9
$DIMDLI
 40
3.75
  9
$DIMRND
 40
0.0
  9
$DIMDLE
 40
0.0
  9
$DIMEXE
 40
1.25
  9
$DIMTP
 40
0.0
  9
$DIMTM
 40
0.0
  9
$DIMTXT
 40
2.5
  9
$DIMCEN
 40
2.5
  9
$DIMTSZ
 40
0.0
  9
$DIMTOL
 70
0
  9
$DIMLIM
 70
0
  9
$DIMTIH
 70
0
  9
$DIMTOH
 70
0
  9
$DIMSE1
 70
0
  9
$DIMSE2
 70
0
  9
$DIMTAD
 70
1
  9
$DIMZIN
 70
8
  9
$DIMBLK
  1

  9
$DIMASO
 70
1
  9
$DIMSHO
 70
1
  9
$DIMPOST
  1

  9
$DIMAPOST
  1

  9
$DIMALT
 70
0
  9
$DIMALTD
 70
3
  9
$DIMALTF
 40
0.03937007874
  9
$DIMLFAC
 40
1.0
  9
$DIMTOFL
 70
1
  9
$DIMTVP
 40
0.0
  9
$DIMTIX
 70
0
  9
$DIMSOXD
 70
0
  9
$DIMSAH
 70
0
  9
$DIMBLK1
  1

  9
$DIMBLK2
  1

  9
$DIMSTYLE
  2
ISO-25
  9
$DIMCLRD
 70
0
  9
$DIMCLRE
 70
0
  9
$DIMCLRT
 70
0
  9
$DIMTFAC
 40
1.0
  9
$DIMGAP
 40
0.625
  9
$DIMJUST
 70
0
  9
$DIMSD1
 70
0
  9
$DIMSD2
 70
0
  9
$DIMTOLJ
 70
0
  9
$DIMTZIN
 70
8
  9
$DIMALTZ
 70
0
  9
$DIMALTTZ
 70
0
  9
$DIMUPT
 70
0
  9
$DIMDEC
 70
2
  9
$DIMTDEC
 70
2
  9
$DIMALTU
 70
2
  9
$DIMALTTD
 70
3
  9
$DIMTXSTY
  7
Standard
  9
$DIMAUNIT
 70
0
  9
$DIMADEC
 70
0
  9
$DIMALTRND
 40
0.0
  9
$DIMAZIN
 70
0
  9
$DIMDSEP
 70
44
  9
$DIMATFIT
 70
3
  9
$DIMFRAC
 70
0
  9
$DIMLDRBLK
  1

  9
$DIMLUNIT
 70
2
  9
$DIMLWD
 70
-2
  9
$DIMLWE
 70
-2
  9
$DIMTMOVE
 70
0
  9
$DIMFXL
 40
1.0
  9
$DIMFXLON
 70
0
  9
$DIMJOGANG
 40
0.785398163397
  9
$DIMTFILL
 70
0
  9
$DIMTFILLCLR
 70
0
  9
$DIMARCSYM
 70
0
  9
$DIMLTYPE
  6

  9
$DIMLTEX1
  6

  9
$DIMLTEX2
  6

  9
$DIMTXTDIRECTION
 70
0
  9
$LUNITS
 70
2
  9
$LUPREC
 70
4
  9
$SKETCHINC
 40
1.0
  9
$FILLETRAD
 40
10.0
  9
$AUNITS
 70
0
  9
$AUPREC
 70
2
  9
$MENU
  1
.
  9
$ELEVATION
 40
0.0
  9
$PELEVATION
 40
0.0
  9
$THICKNESS
 40
0.0
  9
$LIMCHECK
 70
0
  9
$CHAMFERA
 40
0.0
  9
$CHAMFERB
 40
0.0
  9
$CHAMFERC
 40
0.0
  9
$CHAMFERD
 40
0.0
  9
$SKPOLY
 70
0
  9
$TDCREATE
 40
2460299.9960763888
  9
$TDUCREATE
 40
2458532.153996898
  9
$TDUPDATE
 40
2460299.9960763888
  9
$TDUUPDATE
 40
2458532.1544311
  9
$TDINDWG
 40
0.0
  9
$TDUSRTIMER
 40
0.0
  9
$USRTIMER
 70
1
  9
$ANGBASE
 50
0.0
  9
$ANGDIR
 70
0
  9
$PDMODE
 70
0
  9
$PDSIZE
 40
0.0
  9
$PLINEWID
 40
0.0
  9
$SPLFRAME
 70
0
  9
$SPLINETYPE
 70
6
  9
$SPLINESEGS
 70
8
  9
$HANDSEED
  5
DB
  9
$SURFTAB1
 70
6
  9
$SURFTAB2
 70
6
  9
$SURFTYPE
 70
6
  9
$SURFU
 70
6
  9
$SURFV
 70
6
  9
$UCSBASE
  2

  9
$UCSNAME
  2

  9
$UCSORG
 10
0.0
 20
0.0
 30
0.0
  9
$UCSXDIR
 10
1.0
 20
0.0
 30
0.0
  9
$UCSYDIR
 10
0.0
 20
1.0
 30
0.0
  9
$UCSORTHOREF
  2

  9
$UCSORTHOVIEW
 70
0
  9
$UCSORGTOP
 10
0.0
 20
0.0
 30
0.0
  9
$UCSORGBOTTOM
 10
0.0
 20
0.0
 30
0.0
  9
$UCSORGLEFT
 10
0.0
 20
0.0
 30
0.0
  9
$UCSORGRIGHT
 10
0.0
 20
0.0
 30
0.0
  9
$UCSORGFRONT
 10
0.0
 20
0.0
 30
0.0
  9
$UCSORGBACK
 10
0.0
 20
0.0
 30
0.0
  9
$PUCSBASE
  2

  9
$PUCSNAME
  2

  9
$PUCSORG
 10
0.0
 20
0.0
 30
0.0
  9
$PUCSXDIR
 10
1.0
 20
0.0
 30
0.0
  9
$PUCSYDIR
 10
0.0
 20
1.0
 30
0.0
  9
$PUCSORTHOREF
  2

  9
$PUCSORTHOVIEW
 70
0
  9
$PUCSORGTOP
 10
0.0
 20
0.0
 30
0.0
  9
$PUCSORGBOTTOM
 10
0.0
 20
0.0
 30
0.0
  9
$PUCSORGLEFT
 10
0.0
 20
0.0
 30
0.0
  9
$PUCSORGRIGHT
 10
0.0
 20
0.0
 30
0.0
  9
$PUCSORGFRONT
 10
0.0
 20
0.0
 30
0.0
  9
$PUCSORGBACK
 10
0.0
 20
0.0
 30
0.0
  9
$USERI1
 70
0
  9
$USERI2
 70
0
  9
$USERI3
 70
0
  9
$USERI4
 70
0
  9
$USERI5
 70
0
  9
$USERR1
 40
0.0
  9
$USERR2
 40
0.0
  9
$USERR3
 40
0.0
  9
$USERR4
 40
0.0
  9
$USERR5
 40
0.0
  9
$WORLDVIEW
 70
1
  9
$SHADEDGE
 70
3
  9
$SHADEDIF
 70
70
  9
$TILEMODE
 70
1
  9
$MAXACTVP
 70
64
  9
$PINSBASE
 10
0.0
 20
0.0
 30
0.0
  9
$PLIMCHECK
 70
0
  9
$PEXTMIN
 10
1e+20
 20
1e+20
 30
1e+20
  9
$PEXTMAX
 10
-1e+20
 20
-1e+20
 30
-1e+20
  9
$PLIMMIN
 10
0.0
 20
0.0
  9
$PLIMMAX
 10
420.0
 20
297.0
  9
$UNITMODE
 70
0
  9
$VISRETAIN
 70
1
  9
$PLINEGEN
 70
0
  9
$PSLTSCALE
 70
1
  9
$TREEDEPTH
 70
3020
  9
$CMLSTYLE
  2
Standard
  9
$CMLJUST
 70
0
  9
$CMLSCALE
 40
20.0
  9
$PROXYGRAPHICS
 70
1
  9
$MEASUREMENT
 70
1
  9
$CELWEIGHT
370
-1
  9
$ENDCAPS
280
0
  9
$JOINSTYLE
280
0
  9
$LWDISPLAY
290
0
  9
$INSUNITS
 70
6
  9
$HYPERLINKBASE
  1

  9
$STYLESHEET
  1

  9
$XEDIT
290
1
  9
$CEPSNTYPE
380
0
  9
$PSTYLEMODE
290
1
  9
$FINGERPRINTGUID
  2
{F40AC597-E219-41EC-8E3B-A7F7A90FCAF4}
  9
$VERSIONGUID
  2
{7743E726-BEC7-4FB6-B9E0-73F91662B4D8}
  9
$EXTNAMES
290
1
  9
$PSVPSCALE
 40
0.0
  9
$OLESTARTUP
290
0
  9
$SORTENTS
280
127
  9
$INDEXCTL
280
0
  9
$HIDETEXT
280
1
  9
$XCLIPFRAME
280
0
  9
$HALOGAP
280
0
  9
$OBSCOLOR
 70
257
  9
$OBSLTYPE
280
0
  9
$INTERSECTIONDISPLAY
280
0
  9
$INTERSECTIONCOLOR
 70
257
  9
$DIMASSOC
280
2
  9
$PROJECTNAME
  1

  9
$CAMERADISPLAY
290
0
  9
$LENSLENGTH
 40
50.0
  9
$CAMERAHEIGHT
 40
0.0
  9
$STEPSPERSEC
 40
24.0
  9
$STEPSIZE
 40
100.0
  9
$3DDWFPREC
 40
2.0
  9
$PSOLWIDTH
 40
0.005
  9
$PSOLHEIGHT
 40
0.08
  9
$LOFTANG1
 40
1.570796326795
  9
$LOFTANG2
 40
1.570796326795
  9
$LOFTMAG1
 40
0.0
  9
$LOFTMAG2
 40
0.0
  9
$LOFTPARAM
 70
7
  9
$LOFTNORMALS
280
1
  9
$LATITUDE
 40
37.795
  9
$LONGITUDE
 40
-122.394
  9
$NORTHDIRECTION
 40
0.0
  9
$TIMEZONE
 70
-8000
  9
$LIGHTGLYPHDISPLAY
280
1
  9
$TILEMODELIGHTSYNCH
280
1
  9
$CMATERIAL
347
20
  9
$SOLIDHIST
280
0
  9
$SHOWHIST
280
1
  9
$DWFFRAME
280
2
  9
$DGNFRAME
280
2
  9
$REALWORLDSCALE
290
1
  9
$INTERFERECOLOR
 62
256
  9
$CSHADOW
280
0
  9
$SHADOWPLANELOCATION
 40
0.0
  0
ENDSEC
  0
SECTION
  2
CLASSES
  0
CLASS
  1
ACDBDICTIONARYWDFLT
  2
AcDbDictionaryWithDefault
  3
ObjectDBX Classes
 90
0
 91
0
280
0
281
0
  0
CLASS
  1
SUN
  2
AcDbSun
  3
SCENEOE
 90
1153
 91
0
280
0
281
0
  0
CLASS
  1
VISUALSTYLE
  2
AcDbVisualStyle
  3
ObjectDBX Classes
 90
4095
 91
0
280
0
281
0
  0
CLASS
  1
MATERIAL
  2
AcDbMaterial
  3
ObjectDBX Classes
 90
1153
 91
0
280
0
281
0
  0
CLASS
  1
SCALE
  2
AcDbScale
  3
ObjectDBX Classes
 90
1153
 91
0
280
0
281
0
  0
CLASS
  1
TABLESTYLE
  2
AcDbTableStyle
  3
ObjectDBX Classes
 90
4095
 91
0
280
0
281
0
  0
CLASS
  1
MLEADERSTYLE
  2
AcDbMLeaderStyle
  3
ACDB_MLEADERSTYLE_CLASS
 90
4095
 91
0
280
0
281
0
  0
CLASS
  1
DICTIONARYVAR
  2
AcDbDictionaryVar
  3
ObjectDBX Classes
 90
0
 91
0
280
0
281
0
  0
CLASS
  1
CELLSTYLEMAP
  2
AcDbCellStyleMap
  3
ObjectDBX Classes
 90
1152
 91
0
280
0
281
0
  0
CLASS
  1
MENTALRAYRENDERSETTINGS
  2
AcDbMentalRayRenderSettings
  3
SCENEOE
 90
1024
 91
0
280
0
281
0
  0
CLASS
  1
ACDBDETAILVIEWSTYLE
  2
AcDbDetailViewStyle
  3
ObjectDBX Classes
 90
1025
 91
0
280
0
281
0
  0
CLASS
  1
ACDBSECTIONVIEWSTYLE
  2
AcDbSectionViewStyle
  3
ObjectDBX Classes
 90
1025
 91
0
280
0
281
0
  0
CLASS
  1
RASTERVARIABLES
  2
AcDbRasterVariables
  3
ISM
 90
0
 91
0
280
0
281
0
  0
CLASS
  1
LAYOUT
  2
AcDbLayout
  3
ObjectDBX Classes
 90
0
 91
0
280
0
281
0
  0
CLASS
  1
ACDBPLACEHOLDER
  2
AcDbPlaceHolder
  3
ObjectDBX Classes
 90
0
 91
0
280
0
281
0
  0
ENDSEC
  0
SECTION
  2
TABLES
  0
TABLE
  2
VPORT
  5
8
330
0
100
AcDbSymbolTable
 70
1
  0
VPORT
  5
23
330
8
100
AcDbSymbolTableRecord
100
AcDbViewportTableRecord
  2
*Active
 70
0
 10
0.0
 20
0.0
 11
1.0
 21
1.0
 12
0.0
 22
0.0
 13
0.0
 23
0.0
 14
0.5
 24
0.5
 15
0.5
 25
0.5
 16
0.0
 26
0.0
 36
1.0
 17
0.0
 27
0.0
 37
0.0
 40
1000.0
 41
1.34
 42
50.0
 43
0.0
 44
0.0
 50
0.0
 51
0.0
 71
0
 72
1000
 73
1
 74
3
 75
0
 76
0
 77
0
 78
0
281
0
 65
0
146
0.0
  0
ENDTAB
  0
TABLE
  2
LTYPE
  5
2
330
0
100
AcDbSymbolTable
 70
3
  0
LTYPE
  5
24
330
2
100
AcDbSymbolTableRecord
100
AcDbLinetypeTableRecord
  2
ByBlock
 70
0
  3

 72
65
 73
0
 40
0.0
  0
LTYPE
  5
25
330
2
100
AcDbSymbolTableRecord
100
AcDbLinetypeTableRecord
  2
ByLayer
 70
0
  3

 72
65
 73
0
 40
0.0
  0
LTYPE
  5
26
330
2
100
AcDbSymbolTableRecord
100
AcDbLinetypeTableRecord
  2
Continuous
 70
0
  3

 72
65
 73
0
 40
0.0
  0
ENDTAB
  0
TABLE
  2
LAYER
  5
1
330
0
100
AcDbSymbolTable
 70
2
  0
LAYER
  5
27
330
1
100
AcDbSymbolTableRecord
100
AcDbLayerTableRecord
  2
0
 70
0
 62
7
  6
Continuous
370
-3
390
13
347
21
  0
LAYER
  5
28
330
1
100
AcDbSymbolTableRecord
100
AcDbLayerTableRecord
  2
Defpoints
 70
0
 62
7
  6
Continuous
290
0
370
-3
390
13
347
21
  0
ENDTAB
  0
TABLE
  2
STYLE
  5
5
330
0
100
AcDbSymbolTable
 70
1
  0
STYLE
  5
29
330
5
100
AcDbSymbolTableRecord
100
AcDbTextStyleTableRecord
  2
Standard
 70
0
 40
0.0
 41
1.0
 50
0.0
 71
0
 42
2.5
  3
txt
  4

  0
ENDTAB
  0
TABLE
  2
VIEW
  5
7
330
0
100
AcDbSymbolTable
 70
0
  0
ENDTAB
  0
TABLE
  2
UCS
  5
6
330
0
100
AcDbSymbolTable
 70
0
  0
ENDTAB
  0
TABLE
  2
APPID
  5
3
330
0
100
AcDbSymbolTable
 70
3
  0
APPID
  5
2A
330
3
100
AcDbSymbolTableRecord
100
AcDbRegAppTableRecord
  2
ACAD
 70
0
  0
APPID
  5
D8
330
3
100
AcDbSymbolTableRecord
100
AcDbRegAppTableRecord
  2
HATCHBACKGROUNDCOLOR
 70
0
  0
APPID
  5
D9
330
3
100
AcDbSymbolTableRecord
100
AcDbRegAppTableRecord
  2
EZDXF
 70
0
  0
ENDTAB
  0
TABLE
  2
DIMSTYLE
  5
4
330
0
100
AcDbSymbolTable
 70
1
100
AcDbDimStyleTable
  0
DIMSTYLE
105
2B
330
4
100
AcDbSymbolTableRecord
100
AcDbDimStyleTableRecord
  2
Standard
 70
0
 40
1.0
 41
2.5
 42
0.625
 43
3.75
 44
1.25
 45
0.0
 46
0.0
 47
0.0
 48
0.0
 49
2.5
140
2.5
141
2.5
142
0.0
143
0.03937007874
144
1.0
145
0.0
146
1.0
147
0.625
148
0.0
 69
0
 70
0
 71
0
 72
0
 73
0
 74
0
 75
0
 76
0
 77
1
 78
8
 79
3
170
0
171
3
172
1
173
0
174
0
175
0
176
0
177
0
178
0
179
2
271
2
272
2
273
2
274
3
275
0
276
0
277
2
278
44
279
0
280
0
281
0
282
0
283
0
284
8
285
0
286
0
288
0
289
3
290
0
371
-2
372
-2
  0
ENDTAB
  0
TABLE
  2
BLOCK_RECORD
  5
9
330
0
100
AcDbSymbolTable
 70
2
  0
BLOCK_RECORD
  5
17
330
9
100
AcDbSymbolTableRecord
100
AcDbBlockTableRecord
  2
*Model_Space
340
1A
 70
0
280
1
281
0
  0
BLOCK_RECORD
  5
1B
330
9
100
AcDbSymbolTableRecord
100
AcDbBlockTableRecord
  2
*Paper_Space
340
1E
 70
0
280
1
281
0
  0
ENDTAB
  0
ENDSEC
  0
SECTION
  2
BLOCKS
  0
BLOCK
  5
18
330
17
100
AcDbEntity
  8
0
100
AcDbBlockBegin
  2
*Model_Space
 70
0
 10
0.0
 20
0.0
 30
0.0
  3
*Model_Space
  1

  0
ENDBLK
  5
19
330
17
100
AcDbEntity
  8
0
100
AcDbBlockEnd
  0
BLOCK
  5
1C
330
1B
100
AcDbEntity
  8
0
100
AcDbBlockBegin
  2
*Paper_Space
 70
0
 10
0.0
 20
0.0
 30
0.0
  3
*Paper_Space
  1

  0
ENDBLK
  5
1D
330
1B
100
AcDbEntity
  8
0
100
AcDbBlockEnd
  0
ENDSEC
  0
SECTION
  2
ENTITIES
  0
LINE
  5
2F
330
17
100
AcDbEntity
  8
FP-Roof
 62
8
100
AcDbLine
 10
16882.73668168085
 20
536.8871621025671
 30
-0.15667887986761997
 11
16968.868339244164
 21
536.8871568196507
 31
-0.15667887986761997
  0
LINE
  5
30
330
17
100
AcDbEntity
  8
FP-Roof
 62
8
100
AcDbLine
 10
16887.671460692476
 20
551.2514419444803
 30
-0.15667887986761997
 11
16887.67146069254
 21
536.8871568196507
 31
-0.15667887986761997
  0
LINE
  5
31
330
17
100
AcDbEntity
  8
FP-Roof
 62
8
100
AcDbLine
 10
16888.454433633455
 20
551.2544065552745
 30
-0.15667887986761997
 11
16888.454433633455
 21
536.8871568196507
 31
-0.15667887986761997
  0
LINE
  5
32
330
17
100
AcDbEntity
  8
FP-Roof
 62
8
100
AcDbLine
 10
16928.205745675983
 20
546.1811623577203
 30
-0.15667887986761997
 11
16888.454433633455
 21
546.1809037258997
 31
-0.15667887986761997
  0
LINE
  5
33
330
17
100
AcDbEntity
  8
FP-Roof
 62
8
100
AcDbLine
 10
16928.447586426857
 20
546.703146552333
 30
-0.15667887986761997
 11
16888.454433633455
 21
546.7028882480433
 31
-0.15667887986761997
  0
LINE
  5
34
330
17
100
AcDbEntity
  8
FP-Roof
 62
8
100
AcDbLine
 10
16908.930353911837
 20
546.7032176098444
 30
-0.15667887986761997
 11
16888.454433633455
 21
546.7031378687777
 31
-0.15667887986761997
  0
LINE
  5
35
330
17
100
AcDbEntity
  8
FP-Roof
 62
8
100
AcDbLine
 10
16894.53229864621
 20
554.2491800086452
 30
-0.15667887986761997
 11
16893.67223935675
 21
552.7595136120442
 31
-0.15667887986761997
  0
LINE
  5
36
330
17
100
AcDbEntity
  8
FP-Roof
 62
8
100
AcDbLine
 10
16895.40489764715
 20
551.0213828329622
 30
-0.15667887986761997
 11
16894.403441912862
 21
551.0213828329622
 31
-0.15667887986761997
  0
LINE
  5
37
330
17
100
AcDbEntity
  8
FP-Roof
 62
8
100
AcDbLine
 10
16894.643178799797
 20
551.0213828329622
 30
-0.15667887986761997
 11
16894.64317879965
 21
549.0788308205308
 31
-0.15667887986761997
  0
LINE
  5
38
330
17
100
AcDbEntity
  8
FP-Roof
 62
8
100
AcDbLine
 10
16894.643189000646
 20
546.7007711651647
 30
-0.15667887986761997
 11
16894.64318900069
 21
536.8824781392602
 31
-0.15667887986761997
  0
LINE
  5
39
330
17
100
AcDbEntity
  8
FP-Roof
 62
8
100
AcDbLine
 10
16895.165160760404
 20
551.0213828329622
 30
-0.15667887986761997
 11
16895.165160760258
 21
549.0808072277257
 31
-0.15667887986761997
  0
LINE
  5
3A
330
17
100
AcDbEntity
  8
FP-Roof
 62
8
100
AcDbLine
 10
16895.16517096131
 20
546.698794758059
 30
-0.15667887986761997
 11
16895.16517096131
 21
536.8824781392602
 31
-0.15667887986761997
  0
LINE
  5
3B
330
17
100
AcDbEntity
  8
FP-Roof
 62
8
100
AcDbLine
 10
16895.284931352482
 20
554.2491800086452
 30
-0.15667887986761997
 11
16896.14499064194
 21
552.7595136120442
 31
-0.15667887986761997
  0
LINE
  5
3C
330
17
100
AcDbEntity
  8
FP-Roof
 62
8
100
AcDbLine
 10
16901.243035974065
 20
554.2491800068972
 30
-0.15667887986761997
 11
16900.382976684607
 21
552.7595136102962
 31
-0.15667887986761997
  0
LINE
  5
3D
330
17
100
AcDbEntity
  8
FP-Roof
 62
8
100
AcDbLine
 10
16902.115634974998
 20
551.0213828312142
 30
-0.15667887986761997
 11
16901.11417924071
 21
551.0213828312142
 31
-0.15667887986761997
  0
LINE
  5
3E
330
17
100
AcDbEntity
  8
FP-Roof
 62
8
100
AcDbLine
 10
16901.353916127646
 20
551.0213828312142
 30
-0.15667887986761997
 11
16901.3539161275
 21
549.0788308187828
 31
-0.15667887986761997
  0
LINE
  5
3F
330
17
100
AcDbEntity
  8
FP-Roof
 62
8
100
AcDbLine
 10
16901.353926328495
 20
546.7007711634167
 30
-0.15667887986761997
 11
16901.353926328546
 21
536.8824781375122
 31
-0.15667887986761997
  0
LINE
  5
40
330
17
100
AcDbEntity
  8
FP-Roof
 62
8
100
AcDbLine
 10
16901.875898088252
 20
551.0213828312142
 30
-0.15667887986761997
 11
16901.875898088107
 21
549.0808072259777
 31
-0.15667887986761997
  0
LINE
  5
41
330
17
100
AcDbEntity
  8
FP-Roof
 62
8
100
AcDbLine
 10
16901.87590828916
 20
546.6987947563109
 30
-0.15667887986761997
 11
16901.87590828916
 21
536.8824781375122
 31
-0.15667887986761997
  0
LINE
  5
42
330
17
100
AcDbEntity
  8
FP-Roof
 62
8
100
AcDbLine
 10
16901.995668680338
 20
554.2491800068972
 30
-0.15667887986761997
 11
16902.855727969796
 21
552.7595136102962
 31
-0.15667887986761997
  0
LINE
  5
43
330
17
100
AcDbEntity
  8
FP-Roof
 62
8
100
AcDbLine
 10
16907.953773301913
 20
554.2491800051491
 30
-0.15667887986761997
 11
16907.093714012455
 21
552.7595136085481
 31
-0.15667887986761997
  0
LINE
  5
44
330
17
100
AcDbEntity
  8
FP-Roof
 62
8
100
AcDbLine
 10
16908.826372302854
 20
551.0213828294661
 30
-0.15667887986761997
 11
16907.824916568567
 21
551.0213828294661
 31
-0.15667887986761997
  0
LINE
  5
45
330
17
100
AcDbEntity
  8
FP-Roof
 62
8
100
AcDbLine
 10
16908.0646534555
 20
551.0213828294661
 30
-0.15667887986761997
 11
16908.064653455356
 21
549.0788308170347
 31
-0.15667887986761997
  0
LINE
  5
46
330
17
100
AcDbEntity
  8
FP-Roof
 62
8
100
AcDbLine
 10
16908.06466365635
 20
546.7007711616686
 30
-0.15667887986761997
 11
16908.064663656394
 21
536.8824781357641
 31
-0.15667887986761997
  0
LINE
  5
47
330
17
100
AcDbEntity
  8
FP-Roof
 62
8
100
AcDbLine
 10
16908.586635416108
 20
551.0213828294661
 30
-0.15667887986761997
 11
16908.586635415963
 21
549.0808072242296
 31
-0.15667887986761997
  0
LINE
  5
48
330
17
100
AcDbEntity
  8
FP-Roof
 62
8
100
AcDbLine
 10
16908.586645617015
 20
546.6987947545629
 30
-0.15667887986761997
 11
16908.586645617015
 21
536.8824781357641
 31
-0.15667887986761997
  0
LINE
  5
49
330
17
100
AcDbEntity
  8
FP-Roof
 62
8
100
AcDbLine
 10
16908.706406008187
 20
554.2491800051491
 30
-0.15667887986761997
 11
16909.566465297645
 21
552.7595136085481
 31
-0.15667887986761997
  0
LINE
  5
4A
330
17
100
AcDbEntity
  8
FP-Roof
 62
8
100
AcDbLine
 10
16914.66451062977
 20
554.2491800034011
 30
-0.15667887986761997
 11
16913.80445134031
 21
552.7595136068
 31
-0.15667887986761997
  0
LINE
  5
4B
330
17
100
AcDbEntity
  8
FP-Roof
 62
8
100
AcDbLine
 10
16915.537109630703
 20
551.0213828277181
 30
-0.15667887986761997
 11
16914.535653896415
 21
551.0213828277181
 31
-0.15667887986761997
  0
LINE
  5
4C
330
17
100
AcDbEntity
  8
FP-Roof
 62
8
100
AcDbLine
 10
16914.77539078335
 20
551.0213828277181
 30
-0.15667887986761997
 11
16914.775390783205
 21
549.0788308152867
 31
-0.15667887986761997
  0
LINE
  5
4D
330
17
100
AcDbEntity
  8
FP-Roof
 62
8
100
AcDbLine
 10
16914.7754009842
 20
546.7007711599206
 30
-0.15667887986761997
 11
16914.77540098425
 21
536.8824781340161
 31
-0.15667887986761997
  0
LINE
  5
4E
330
17
100
AcDbEntity
  8
FP-Roof
 62
8
100
AcDbLine
 10
16915.297372743957
 20
551.0213828277181
 30
-0.15667887986761997
 11
16915.29737274381
 21
549.0808072224816
 31
-0.15667887986761997
  0
LINE
  5
4F
330
17
100
AcDbEntity
  8
FP-Roof
 62
8
100
AcDbLine
 10
16915.297382944864
 20
546.6987947528148
 30
-0.15667887986761997
 11
16915.297382944864
 21
536.8824781340161
 31
-0.15667887986761997
  0
LINE
  5
50
330
17
100
AcDbEntity
  8
FP-Roof
 62
8
100
AcDbLine
 10
16915.417143336042
 20
554.2491800034011
 30
-0.15667887986761997
 11
16916.2772026255
 21
552.7595136068
 31
-0.15667887986761997
  0
LINE
  5
51
330
17
100
AcDbEntity
  8
FP-Roof
 62
8
100
AcDbLine
 10
16921.375247957618
 20
554.249180001653
 30
-0.15667887986761997
 11
16920.51518866816
 21
552.759513605052
 31
-0.15667887986761997
  0
LINE
  5
52
330
17
100
AcDbEntity
  8
FP-Roof
 62
8
100
AcDbLine
 10
16922.24784695856
 20
551.02138282597
 30
-0.15667887986761997
 11
16921.24639122427
 21
551.02138282597
 31
-0.15667887986761997
  0
LINE
  5
53
330
17
100
AcDbEntity
  8
FP-Roof
 62
8
100
AcDbLine
 10
16921.486128111206
 20
551.02138282597
 30
-0.15667887986761997
 11
16921.48612811106
 21
549.0788308135386
 31
-0.15667887986761997
  0
LINE
  5
54
330
17
100
AcDbEntity
  8
FP-Roof
 62
8
100
AcDbLine
 10
16921.486138312055
 20
546.7007711581725
 30
-0.15667887986761997
 11
16921.4861383121
 21
536.882478132268
 31
-0.15667887986761997
  0
LINE
  5
55
330
17
100
AcDbEntity
  8
FP-Roof
 62
8
100
AcDbLine
 10
16922.008110071813
 20
551.02138282597
 30
-0.15667887986761997
 11
16922.008110071667
 21
549.0808072207335
 31
-0.15667887986761997
  0
LINE
  5
56
330
17
100
AcDbEntity
  8
FP-Roof
 62
8
100
AcDbLine
 10
16922.00812027272
 20
546.6987947510668
 30
-0.15667887986761997
 11
16922.00812027272
 21
536.882478132268
 31
-0.15667887986761997
  0
LINE
  5
57
330
17
100
AcDbEntity
  8
FP-Roof
 62
8
100
AcDbLine
 10
16922.12788066389
 20
554.249180001653
 30
-0.15667887986761997
 11
16922.98793995335
 21
552.759513605052
 31
-0.15667887986761997
  0
LINE
  5
58
330
17
100
AcDbEntity
  8
FP-Roof
 62
8
100
AcDbLine
 10
16927.71787766625
 20
554.1225036583699
 30
-0.15667887986761997
 11
16929.22006126775
 21
554.1225036583699
 31
-0.15667887986761997
  0
LINE
  5
59
330
17
100
AcDbEntity
  8
FP-Roof
 62
8
100
AcDbLine
 10
16928.205745675983
 20
546.6987947492241
 30
-0.15667887986761997
 11
16928.205745676027
 21
536.8824781304236
 31
-0.15667887986761997
  0
LINE
  5
5A
330
17
100
AcDbEntity
  8
FP-Roof
 62
8
100
AcDbLine
 10
16928.20575587684
 20
554.1225036583735
 30
-0.15667887986761997
 11
16928.20575587702
 21
549.0808072190855
 31
-0.15667887986761997
  0
LINE
  5
5B
330
17
100
AcDbEntity
  8
FP-Roof
 62
8
100
AcDbLine
 10
16928.477016848974
 20
546.703146552333
 30
-0.15667887986761997
 11
16968.483516246644
 21
546.7029770850775
 31
-0.15667887986761997
  0
LINE
  5
5C
330
17
100
AcDbEntity
  8
FP-Roof
 62
8
100
AcDbLine
 10
16928.727727636633
 20
546.7007711566209
 30
-0.15667887986761997
 11
16928.727727636633
 21
536.88247813062
 31
-0.15667887986761997
  0
LINE
  5
5D
330
17
100
AcDbEntity
  8
FP-Roof
 62
8
100
AcDbLine
 10
16928.727727636633
 20
546.1811622845769
 30
-0.15667887986761997
 11
16968.483516246644
 21
546.1809931262148
 31
-0.15667887986761997
  0
LINE
  5
5E
330
17
100
AcDbEntity
  8
FP-Roof
 62
8
100
AcDbLine
 10
16928.727737837453
 20
554.1225036583699
 30
-0.15667887986761997
 11
16928.727737837628
 21
549.0788308125709
 31
-0.15667887986761997
  0
LINE
  5
5F
330
17
100
AcDbEntity
  8
FP-Roof
 62
8
100
AcDbLine
 10
16934.79672261269
 20
554.249180001653
 30
-0.15667887986761997
 11
16933.93666332323
 21
552.759513605052
 31
-0.15667887986761997
  0
LINE
  5
60
330
17
100
AcDbEntity
  8
FP-Roof
 62
8
100
AcDbLine
 10
16934.67675631803
 20
551.02138282597
 30
-0.15667887986761997
 11
16935.678212052317
 21
551.02138282597
 31
-0.15667887986761997
  0
LINE
  5
61
330
17
100
AcDbEntity
  8
FP-Roof
 62
8
100
AcDbLine
 10
16934.916483003868
 20
546.6987947510668
 30
-0.15667887986761997
 11
16934.916483003868
 21
536.882478132268
 31
-0.15667887986761997
  0
LINE
  5
62
330
17
100
AcDbEntity
  8
FP-Roof
 62
8
100
AcDbLine
 10
16934.916493204775
 20
551.02138282597
 30
-0.15667887986761997
 11
16934.91649320492
 21
549.0808072207335
 31
-0.15667887986761997
  0
LINE
  5
63
330
17
100
AcDbEntity
  8
FP-Roof
 62
8
100
AcDbLine
 10
16935.438464964533
 20
546.7007711581725
 30
-0.15667887986761997
 11
16935.43846496448
 21
536.882478132268
 31
-0.15667887986761997
  0
LINE
  5
64
330
17
100
AcDbEntity
  8
FP-Roof
 62
8
100
AcDbLine
 10
16935.43847516538
 20
551.02138282597
 30
-0.15667887986761997
 11
16935.438475165527
 21
549.0788308135386
 31
-0.15667887986761997
  0
LINE
  5
65
330
17
100
AcDbEntity
  8
FP-Roof
 62
8
100
AcDbLine
 10
16935.549355318963
 20
554.249180001653
 30
-0.15667887986761997
 11
16936.40941460842
 21
552.759513605052
 31
-0.15667887986761997
  0
LINE
  5
66
330
17
100
AcDbEntity
  8
FP-Roof
 62
8
100
AcDbLine
 10
16941.507459940545
 20
554.2491800034011
 30
-0.15667887986761997
 11
16940.647400651087
 21
552.7595136068
 31
-0.15667887986761997
  0
LINE
  5
67
330
17
100
AcDbEntity
  8
FP-Roof
 62
8
100
AcDbLine
 10
16941.387493645878
 20
551.0213828277181
 30
-0.15667887986761997
 11
16942.388949380165
 21
551.0213828277181
 31
-0.15667887986761997
  0
LINE
  5
68
330
17
100
AcDbEntity
  8
FP-Roof
 62
8
100
AcDbLine
 10
16941.627220331717
 20
546.6987947528148
 30
-0.15667887986761997
 11
16941.627220331717
 21
536.8824781340161
 31
-0.15667887986761997
  0
LINE
  5
69
330
17
100
AcDbEntity
  8
FP-Roof
 62
8
100
AcDbLine
 10
16941.627230532624
 20
551.0213828277181
 30
-0.15667887986761997
 11
16941.62723053277
 21
549.0808072224816
 31
-0.15667887986761997
  0
LINE
  5
6A
330
17
100
AcDbEntity
  8
FP-Roof
 62
8
100
AcDbLine
 10
16942.14920229238
 20
546.7007711599206
 30
-0.15667887986761997
 11
16942.149202292338
 21
536.8824781340161
 31
-0.15667887986761997
  0
LINE
  5
6B
330
17
100
AcDbEntity
  8
FP-Roof
 62
8
100
AcDbLine
 10
16942.14921249323
 20
551.0213828277181
 30
-0.15667887986761997
 11
16942.149212493376
 21
549.0788308152867
 31
-0.15667887986761997
  0
LINE
  5
6C
330
17
100
AcDbEntity
  8
FP-Roof
 62
8
100
AcDbLine
 10
16942.26009264682
 20
554.2491800034011
 30
-0.15667887986761997
 11
16943.120151936277
 21
552.7595136068
 31
-0.15667887986761997
  0
LINE
  5
6D
330
17
100
AcDbEntity
  8
FP-Roof
 62
8
100
AcDbLine
 10
16948.218197268394
 20
554.2491800051491
 30
-0.15667887986761997
 11
16947.358137978936
 21
552.7595136085481
 31
-0.15667887986761997
  0
LINE
  5
6E
330
17
100
AcDbEntity
  8
FP-Roof
 62
8
100
AcDbLine
 10
16948.098230973734
 20
551.0213828294661
 30
-0.15667887986761997
 11
16949.09968670802
 21
551.0213828294661
 31
-0.15667887986761997
  0
LINE
  5
6F
330
17
100
AcDbEntity
  8
FP-Roof
 62
8
100
AcDbLine
 10
16948.337957659573
 20
546.6987947545629
 30
-0.15667887986761997
 11
16948.337957659573
 21
536.8824781357641
 31
-0.15667887986761997
  0
LINE
  5
70
330
17
100
AcDbEntity
  8
FP-Roof
 62
8
100
AcDbLine
 10
16948.33796786048
 20
551.0213828294661
 30
-0.15667887986761997
 11
16948.337967860625
 21
549.0808072242296
 31
-0.15667887986761997
  0
LINE
  5
71
330
17
100
AcDbEntity
  8
FP-Roof
 62
8
100
AcDbLine
 10
16948.859939620237
 20
546.7007711616686
 30
-0.15667887986761997
 11
16948.859939620186
 21
536.8824781357641
 31
-0.15667887986761997
  0
LINE
  5
72
330
17
100
AcDbEntity
  8
FP-Roof
 62
8
100
AcDbLine
 10
16948.859949821086
 20
551.0213828294661
 30
-0.15667887986761997
 11
16948.85994982123
 21
549.0788308170347
 31
-0.15667887986761997
  0
LINE
  5
73
330
17
100
AcDbEntity
  8
FP-Roof
 62
8
100
AcDbLine
 10
16948.970829974667
 20
554.2491800051491
 30
-0.15667887986761997
 11
16949.830889264125
 21
552.7595136085481
 31
-0.15667887986761997
  0
LINE
  5
74
330
17
100
AcDbEntity
  8
FP-Roof
 62
8
100
AcDbLine
 10
16954.92893459625
 20
554.2491800068972
 30
-0.15667887986761997
 11
16954.06887530679
 21
552.7595136102962
 31
-0.15667887986761997
  0
LINE
  5
75
330
17
100
AcDbEntity
  8
FP-Roof
 62
8
100
AcDbLine
 10
16954.808968301582
 20
551.0213828312142
 30
-0.15667887986761997
 11
16955.81042403587
 21
551.0213828312142
 31
-0.15667887986761997
  0
LINE
  5
76
330
17
100
AcDbEntity
  8
FP-Roof
 62
8
100
AcDbLine
 10
16955.04869498742
 20
546.6987947563109
 30
-0.15667887986761997
 11
16955.04869498742
 21
536.8824781375122
 31
-0.15667887986761997
  0
LINE
  5
77
330
17
100
AcDbEntity
  8
FP-Roof
 62
8
100
AcDbLine
 10
16955.04870518833
 20
551.0213828312142
 30
-0.15667887986761997
 11
16955.048705188474
 21
549.0808072259777
 31
-0.15667887986761997
  0
LINE
  5
78
330
17
100
AcDbEntity
  8
FP-Roof
 62
8
100
AcDbLine
 10
16955.570676948086
 20
546.7007711634167
 30
-0.15667887986761997
 11
16955.570676948042
 21
536.8824781375122
 31
-0.15667887986761997
  0
LINE
  5
79
330
17
100
AcDbEntity
  8
FP-Roof
 62
8
100
AcDbLine
 10
16955.570687148935
 20
551.0213828312142
 30
-0.15667887986761997
 11
16955.57068714908
 21
549.0788308187828
 31
-0.15667887986761997
  0
LINE
  5
7A
330
17
100
AcDbEntity
  8
FP-Roof
 62
8
100
AcDbLine
 10
16955.681567302523
 20
554.2491800068972
 30
-0.15667887986761997
 11
16956.54162659198
 21
552.7595136102962
 31
-0.15667887986761997
  0
LINE
  5
7B
330
17
100
AcDbEntity
  8
FP-Roof
 62
8
100
AcDbLine
 10
16961.6396719241
 20
554.2491800086452
 30
-0.15667887986761997
 11
16960.77961263464
 21
552.7595136120442
 31
-0.15667887986761997
  0
LINE
  5
7C
330
17
100
AcDbEntity
  8
FP-Roof
 62
8
100
AcDbLine
 10
16961.51970562944
 20
551.0213828329622
 30
-0.15667887986761997
 11
16962.521161363726
 21
551.0213828329622
 31
-0.15667887986761997
  0
LINE
  5
7D
330
17
100
AcDbEntity
  8
FP-Roof
 62
8
100
AcDbLine
 10
16961.759432315277
 20
546.698794758059
 30
-0.15667887986761997
 11
16961.759432315277
 21
536.8824781392602
 31
-0.15667887986761997
  0
LINE
  5
7E
330
17
100
AcDbEntity
  8
FP-Roof
 62
8
100
AcDbLine
 10
16961.759442516184
 20
551.0213828329622
 30
-0.15667887986761997
 11
16961.75944251633
 21
549.0808072277257
 31
-0.15667887986761997
  0
LINE
  5
7F
330
17
100
AcDbEntity
  8
FP-Roof
 62
8
100
AcDbLine
 10
16962.28141427594
 20
546.7007711651647
 30
-0.15667887986761997
 11
16962.28141427589
 21
536.8824781392602
 31
-0.15667887986761997
  0
LINE
  5
80
330
17
100
AcDbEntity
  8
FP-Roof
 62
8
100
AcDbLine
 10
16962.28142447679
 20
551.0213828329622
 30
-0.15667887986761997
 11
16962.281424476936
 21
549.0788308205308
 31
-0.15667887986761997
  0
LINE
  5
81
330
17
100
AcDbEntity
  8
FP-Roof
 62
8
100
AcDbLine
 10
16962.39230463037
 20
554.2491800086452
 30
-0.15667887986761997
 11
16963.25236391983
 21
552.7595136120442
 31
-0.15667887986761997
  0
LINE
  5
82
330
17
100
AcDbEntity
  8
FP-Roof
 62
8
100
AcDbLine
 10
16968.470169643126
 20
551.2544065552745
 30
-0.15667887986761997
 11
16968.470169643126
 21
536.8871568196507
 31
-0.15667887986761997
  0
LINE
  5
83
330
17
100
AcDbEntity
  8
FP-Roof
 62
8
100
AcDbLine
 10
17055.003563468345
 20
536.8871621025671
 30
-0.15667887986761997
 11
16968.868339244164
 21
536.8871568195216
 31
-0.15667887986761997
  0
LINE
  5
84
330
17
100
AcDbEntity
  8
FP-Roof
 62
8
100
AcDbLine
 10
16969.25314258411
 20
551.2514419444803
 30
-0.15667887986761997
 11
16969.25314258404
 21
536.8871568196507
 31
-0.15667887986761997
  0
LINE
  5
85
330
17
100
AcDbEntity
  8
FP-Roof
 62
8
100
AcDbLine
 10
17009.008950851694
 20
546.1811622845769
 30
-0.15667887986761997
 11
16969.25316224169
 21
546.1809931262148
 31
-0.15667887986761997
  0
LINE
  5
86
330
17
100
AcDbEntity
  8
FP-Roof
 62
8
100
AcDbLine
 10
17009.259661639353
 20
546.703146552333
 30
-0.15667887986761997
 11
16969.25316224169
 21
546.7029770850775
 31
-0.15667887986761997
  0
LINE
  5
87
330
17
100
AcDbEntity
  8
FP-Roof
 62
8
100
AcDbLine
 10
16975.344373857955
 20
554.2491800086452
 30
-0.15667887986761997
 11
16974.484314568497
 21
552.7595136120442
 31
-0.15667887986761997
  0
LINE
  5
88
330
17
100
AcDbEntity
  8
FP-Roof
 62
8
100
AcDbLine
 10
16976.216972858896
 20
551.0213828329622
 30
-0.15667887986761997
 11
16975.21551712461
 21
551.0213828329622
 31
-0.15667887986761997
  0
LINE
  5
89
330
17
100
AcDbEntity
  8
FP-Roof
 62
8
100
AcDbLine
 10
16975.455254011544
 20
551.0213828329622
 30
-0.15667887986761997
 11
16975.4552540114
 21
549.0788308205308
 31
-0.15667887986761997
  0
LINE
  5
8A
330
17
100
AcDbEntity
  8
FP-Roof
 62
8
100
AcDbLine
 10
16975.455264212393
 20
546.7007711651647
 30
-0.15667887986761997
 11
16975.455264212436
 21
536.8824781392602
 31
-0.15667887986761997
  0
LINE
  5
8B
330
17
100
AcDbEntity
  8
FP-Roof
 62
8
100
AcDbLine
 10
16975.97723597215
 20
551.0213828329622
 30
-0.15667887986761997
 11
16975.977235972005
 21
549.0808072277257
 31
-0.15667887986761997
  0
LINE
  5
8C
330
17
100
AcDbEntity
  8
FP-Roof
 62
8
100
AcDbLine
 10
16975.977246173057
 20
546.698794758059
 30
-0.15667887986761997
 11
16975.977246173057
 21
536.8824781392602
 31
-0.15667887986761997
  0
LINE
  5
8D
330
17
100
AcDbEntity
  8
FP-Roof
 62
8
100
AcDbLine
 10
16976.09700656423
 20
554.2491800086452
 30
-0.15667887986761997
 11
16976.957065853687
 21
552.7595136120442
 31
-0.15667887986761997
  0
LINE
  5
8E
330
17
100
AcDbEntity
  8
FP-Roof
 62
8
100
AcDbLine
 10
16982.05511118581
 20
554.2491800068972
 30
-0.15667887986761997
 11
16981.195051896353
 21
552.7595136102962
 31
-0.15667887986761997
  0
LINE
  5
8F
330
17
100
AcDbEntity
  8
FP-Roof
 62
8
100
AcDbLine
 10
16982.927710186745
 20
551.0213828312142
 30
-0.15667887986761997
 11
16981.926254452457
 21
551.0213828312142
 31
-0.15667887986761997
  0
LINE
  5
90
330
17
100
AcDbEntity
  8
FP-Roof
 62
8
100
AcDbLine
 10
16982.165991339392
 20
551.0213828312142
 30
-0.15667887986761997
 11
16982.165991339247
 21
549.0788308187828
 31
-0.15667887986761997
  0
LINE
  5
91
330
17
100
AcDbEntity
  8
FP-Roof
 62
8
100
AcDbLine
 10
16982.16600154024
 20
546.7007711634167
 30
-0.15667887986761997
 11
16982.166001540292
 21
536.8824781375122
 31
-0.15667887986761997
  0
LINE
  5
92
330
17
100
AcDbEntity
  8
FP-Roof
 62
8
100
AcDbLine
 10
16982.6879733
 20
551.0213828312142
 30
-0.15667887986761997
 11
16982.687973299853
 21
549.0808072259777
 31
-0.15667887986761997
  0
LINE
  5
93
330
17
100
AcDbEntity
  8
FP-Roof
 62
8
100
AcDbLine
 10
16982.687983500906
 20
546.6987947563109
 30
-0.15667887986761997
 11
16982.687983500906
 21
536.8824781375122
 31
-0.15667887986761997
  0
LINE
  5
94
330
17
100
AcDbEntity
  8
FP-Roof
 62
8
100
AcDbLine
 10
16982.807743892085
 20
554.2491800068972
 30
-0.15667887986761997
 11
16983.667803181543
 21
552.7595136102962
 31
-0.15667887986761997
  0
LINE
  5
95
330
17
100
AcDbEntity
  8
FP-Roof
 62
8
100
AcDbLine
 10
16988.76584851366
 20
554.2491800051491
 30
-0.15667887986761997
 11
16987.9057892242
 21
552.7595136085481
 31
-0.15667887986761997
  0
LINE
  5
96
330
17
100
AcDbEntity
  8
FP-Roof
 62
8
100
AcDbLine
 10
16989.6384475146
 20
551.0213828294661
 30
-0.15667887986761997
 11
16988.636991780313
 21
551.0213828294661
 31
-0.15667887986761997
  0
LINE
  5
97
330
17
100
AcDbEntity
  8
FP-Roof
 62
8
100
AcDbLine
 10
16988.87672866725
 20
551.0213828294661
 30
-0.15667887986761997
 11
16988.876728667103
 21
549.0788308170347
 31
-0.15667887986761997
  0
LINE
  5
98
330
17
100
AcDbEntity
  8
FP-Roof
 62
8
100
AcDbLine
 10
16988.876738868097
 20
546.7007711616686
 30
-0.15667887986761997
 11
16988.87673886814
 21
536.8824781357641
 31
-0.15667887986761997
  0
LINE
  5
99
330
17
100
AcDbEntity
  8
FP-Roof
 62
8
100
AcDbLine
 10
16989.398710627855
 20
551.0213828294661
 30
-0.15667887986761997
 11
16989.39871062771
 21
549.0808072242296
 31
-0.15667887986761997
  0
LINE
  5
9A
330
17
100
AcDbEntity
  8
FP-Roof
 62
8
100
AcDbLine
 10
16989.39872082876
 20
546.6987947545629
 30
-0.15667887986761997
 11
16989.39872082876
 21
536.8824781357641
 31
-0.15667887986761997
  0
LINE
  5
9B
330
17
100
AcDbEntity
  8
FP-Roof
 62
8
100
AcDbLine
 10
16989.518481219933
 20
554.2491800051491
 30
-0.15667887986761997
 11
16990.37854050939
 21
552.7595136085481
 31
-0.15667887986761997
  0
LINE
  5
9C
330
17
100
AcDbEntity
  8
FP-Roof
 62
8
100
AcDbLine
 10
16995.476585841516
 20
554.2491800034011
 30
-0.15667887986761997
 11
16994.616526552058
 21
552.7595136068
 31
-0.15667887986761997
  0
LINE
  5
9D
330
17
100
AcDbEntity
  8
FP-Roof
 62
8
100
AcDbLine
 10
16996.34918484245
 20
551.0213828277181
 30
-0.15667887986761997
 11
16995.34772910816
 21
551.0213828277181
 31
-0.15667887986761997
  0
LINE
  5
9E
330
17
100
AcDbEntity
  8
FP-Roof
 62
8
100
AcDbLine
 10
16995.587465995097
 20
551.0213828277181
 30
-0.15667887986761997
 11
16995.58746599495
 21
549.0788308152867
 31
-0.15667887986761997
  0
LINE
  5
9F
330
17
100
AcDbEntity
  8
FP-Roof
 62
8
100
AcDbLine
 10
16995.587476195946
 20
546.7007711599206
 30
-0.15667887986761997
 11
16995.587476195997
 21
536.8824781340161
 31
-0.15667887986761997
  0
LINE
  5
A0
330
17
100
AcDbEntity
  8
FP-Roof
 62
8
100
AcDbLine
 10
16996.109447955703
 20
551.0213828277181
 30
-0.15667887986761997
 11
16996.109447955558
 21
549.0808072224816
 31
-0.15667887986761997
  0
LINE
  5
A1
330
17
100
AcDbEntity
  8
FP-Roof
 62
8
100
AcDbLine
 10
16996.10945815661
 20
546.6987947528148
 30
-0.15667887986761997
 11
16996.10945815661
 21
536.8824781340161
 31
-0.15667887986761997
  0
LINE
  5
A2
330
17
100
AcDbEntity
  8
FP-Roof
 62
8
100
AcDbLine
 10
16996.22921854779
 20
554.2491800034011
 30
-0.15667887986761997
 11
16997.089277837247
 21
552.7595136068
 31
-0.15667887986761997
  0
LINE
  5
A3
330
17
100
AcDbEntity
  8
FP-Roof
 62
8
100
AcDbLine
 10
17002.187323169364
 20
554.249180001653
 30
-0.15667887986761997
 11
17001.327263879906
 21
552.759513605052
 31
-0.15667887986761997
  0
LINE
  5
A4
330
17
100
AcDbEntity
  8
FP-Roof
 62
8
100
AcDbLine
 10
17003.059922170305
 20
551.02138282597
 30
-0.15667887986761997
 11
17002.058466436018
 21
551.02138282597
 31
-0.15667887986761997
  0
LINE
  5
A5
330
17
100
AcDbEntity
  8
FP-Roof
 62
8
100
AcDbLine
 10
17002.298203322953
 20
551.02138282597
 30
-0.15667887986761997
 11
17002.298203322807
 21
549.0788308135386
 31
-0.15667887986761997
  0
LINE
  5
A6
330
17
100
AcDbEntity
  8
FP-Roof
 62
8
100
AcDbLine
 10
17002.2982135238
 20
546.7007711581725
 30
-0.15667887986761997
 11
17002.298213523845
 21
536.882478132268
 31
-0.15667887986761997
  0
LINE
  5
A7
330
17
100
AcDbEntity
  8
FP-Roof
 62
8
100
AcDbLine
 10
17002.82018528356
 20
551.02138282597
 30
-0.15667887986761997
 11
17002.820185283414
 21
549.0808072207335
 31
-0.15667887986761997
  0
LINE
  5
A8
330
17
100
AcDbEntity
  8
FP-Roof
 62
8
100
AcDbLine
 10
17002.820195484466
 20
546.6987947510668
 30
-0.15667887986761997
 11
17002.820195484466
 21
536.882478132268
 31
-0.15667887986761997
  0
LINE
  5
A9
330
17
100
AcDbEntity
  8
FP-Roof
 62
8
100
AcDbLine
 10
17002.939955875638
 20
554.249180001653
 30
-0.15667887986761997
 11
17003.800015165096
 21
552.759513605052
 31
-0.15667887986761997
  0
LINE
  5
AA
330
17
100
AcDbEntity
  8
FP-Roof
 62
8
100
AcDbLine
 10
17010.018800822076
 20
554.1225036583699
 30
-0.15667887986761997
 11
17008.516617220575
 21
554.1225036583699
 31
-0.15667887986761997
  0
LINE
  5
AB
330
17
100
AcDbEntity
  8
FP-Roof
 62
8
100
AcDbLine
 10
17009.00894065088
 20
554.1225036583699
 30
-0.15667887986761997
 11
17009.0089406507
 21
549.0788308125709
 31
-0.15667887986761997
  0
LINE
  5
AC
330
17
100
AcDbEntity
  8
FP-Roof
 62
8
100
AcDbLine
 10
17009.008950851694
 20
546.7007711566209
 30
-0.15667887986761997
 11
17009.008950851694
 21
536.88247813062
 31
-0.15667887986761997
  0
LINE
  5
AD
330
17
100
AcDbEntity
  8
FP-Roof
 62
8
100
AcDbLine
 10
17009.289092061477
 20
546.703146552333
 30
-0.15667887986761997
 11
17049.282244854872
 21
546.7028882480433
 31
-0.15667887986761997
  0
LINE
  5
AE
330
17
100
AcDbEntity
  8
FP-Roof
 62
8
100
AcDbLine
 10
17009.530922611488
 20
554.1225036583735
 30
-0.15667887986761997
 11
17009.530922611306
 21
549.0808072190855
 31
-0.15667887986761997
  0
LINE
  5
AF
330
17
100
AcDbEntity
  8
FP-Roof
 62
8
100
AcDbLine
 10
17009.53093281235
 20
546.6987947492241
 30
-0.15667887986761997
 11
17009.5309328123
 21
536.8824781304236
 31
-0.15667887986761997
  0
LINE
  5
B0
330
17
100
AcDbEntity
  8
FP-Roof
 62
8
100
AcDbLine
 10
17009.530932812344
 20
546.1811623577203
 30
-0.15667887986761997
 11
17049.282244854872
 21
546.1809037258997
 31
-0.15667887986761997
  0
LINE
  5
B1
330
17
100
AcDbEntity
  8
FP-Roof
 62
8
100
AcDbLine
 10
17015.608797824436
 20
554.249180001653
 30
-0.15667887986761997
 11
17014.748738534978
 21
552.759513605052
 31
-0.15667887986761997
  0
LINE
  5
B2
330
17
100
AcDbEntity
  8
FP-Roof
 62
8
100
AcDbLine
 10
17015.488831529776
 20
551.02138282597
 30
-0.15667887986761997
 11
17016.490287264063
 21
551.02138282597
 31
-0.15667887986761997
  0
LINE
  5
B3
330
17
100
AcDbEntity
  8
FP-Roof
 62
8
100
AcDbLine
 10
17015.728558215615
 20
546.6987947510668
 30
-0.15667887986761997
 11
17015.728558215615
 21
536.882478132268
 31
-0.15667887986761997
  0
LINE
  5
B4
330
17
100
AcDbEntity
  8
FP-Roof
 62
8
100
AcDbLine
 10
17015.72856841652
 20
551.02138282597
 30
-0.15667887986761997
 11
17015.728568416667
 21
549.0808072207335
 31
-0.15667887986761997
  0
LINE
  5
B5
330
17
100
AcDbEntity
  8
FP-Roof
 62
8
100
AcDbLine
 10
17016.25054017628
 20
546.7007711581725
 30
-0.15667887986761997
 11
17016.25054017623
 21
536.882478132268
 31
-0.15667887986761997
  0
LINE
  5
B6
330
17
100
AcDbEntity
  8
FP-Roof
 62
8
100
AcDbLine
 10
17016.250550377128
 20
551.02138282597
 30
-0.15667887986761997
 11
17016.250550377274
 21
549.0788308135386
 31
-0.15667887986761997
  0
LINE
  5
B7
330
17
100
AcDbEntity
  8
FP-Roof
 62
8
100
AcDbLine
 10
17016.36143053071
 20
554.249180001653
 30
-0.15667887986761997
 11
17017.221489820167
 21
552.759513605052
 31
-0.15667887986761997
  0
LINE
  5
B8
330
17
100
AcDbEntity
  8
FP-Roof
 62
8
100
AcDbLine
 10
17022.31953515229
 20
554.2491800034011
 30
-0.15667887986761997
 11
17021.459475862834
 21
552.7595136068
 31
-0.15667887986761997
  0
LINE
  5
B9
330
17
100
AcDbEntity
  8
FP-Roof
 62
8
100
AcDbLine
 10
17022.199568857624
 20
551.0213828277181
 30
-0.15667887986761997
 11
17023.201024591912
 21
551.0213828277181
 31
-0.15667887986761997
  0
LINE
  5
BA
330
17
100
AcDbEntity
  8
FP-Roof
 62
8
100
AcDbLine
 10
17022.439295543463
 20
546.6987947528148
 30
-0.15667887986761997
 11
17022.439295543463
 21
536.8824781340161
 31
-0.15667887986761997
  0
LINE
  5
BB
330
17
100
AcDbEntity
  8
FP-Roof
 62
8
100
AcDbLine
 10
17022.43930574437
 20
551.0213828277181
 30
-0.15667887986761997
 11
17022.439305744516
 21
549.0808072224816
 31
-0.15667887986761997
  0
LINE
  5
BC
330
17
100
AcDbEntity
  8
FP-Roof
 62
8
100
AcDbLine
 10
17022.961277504128
 20
546.7007711599206
 30
-0.15667887986761997
 11
17022.961277504084
 21
536.8824781340161
 31
-0.15667887986761997
  0
LINE
  5
BD
330
17
100
AcDbEntity
  8
FP-Roof
 62
8
100
AcDbLine
 10
17022.961287704977
 20
551.0213828277181
 30
-0.15667887986761997
 11
17022.961287705122
 21
549.0788308152867
 31
-0.15667887986761997
  0
LINE
  5
BE
330
17
100
AcDbEntity
  8
FP-Roof
 62
8
100
AcDbLine
 10
17023.072167858565
 20
554.2491800034011
 30
-0.15667887986761997
 11
17023.932227148023
 21
552.7595136068
 31
-0.15667887986761997
  0
LINE
  5
BF
330
17
100
AcDbEntity
  8
FP-Roof
 62
8
100
AcDbLine
 10
17029.03027248014
 20
554.2491800051491
 30
-0.15667887986761997
 11
17028.170213190682
 21
552.7595136085481
 31
-0.15667887986761997
  0
LINE
  5
C0
330
17
100
AcDbEntity
  8
FP-Roof
 62
8
100
AcDbLine
 10
17028.80632457649
 20
546.7032176098444
 30
-0.15667887986761997
 11
17049.282244854872
 21
546.7031378687777
 31
-0.15667887986761997
  0
LINE
  5
C1
330
17
100
AcDbEntity
  8
FP-Roof
 62
8
100
AcDbLine
 10
17028.91030618548
 20
551.0213828294661
 30
-0.15667887986761997
 11
17029.911761919768
 21
551.0213828294661
 31
-0.15667887986761997
  0
LINE
  5
C2
330
17
100
AcDbEntity
  8
FP-Roof
 62
8
100
AcDbLine
 10
17029.15003287132
 20
546.6987947545629
 30
-0.15667887986761997
 11
17029.15003287132
 21
536.8824781357641
 31
-0.15667887986761997
  0
LINE
  5
C3
330
17
100
AcDbEntity
  8
FP-Roof
 62
8
100
AcDbLine
 10
17029.150043072226
 20
551.0213828294661
 30
-0.15667887986761997
 11
17029.15004307237
 21
549.0808072242296
 31
-0.15667887986761997
  0
LINE
  5
C4
330
17
100
AcDbEntity
  8
FP-Roof
 62
8
100
AcDbLine
 10
17029.672014831984
 20
546.7007711616686
 30
-0.15667887986761997
 11
17029.672014831933
 21
536.8824781357641
 31
-0.15667887986761997
  0
LINE
  5
C5
330
17
100
AcDbEntity
  8
FP-Roof
 62
8
100
AcDbLine
 10
17029.672025032833
 20
551.0213828294661
 30
-0.15667887986761997
 11
17029.672025032978
 21
549.0788308170347
 31
-0.15667887986761997
  0
LINE
  5
C6
330
17
100
AcDbEntity
  8
FP-Roof
 62
8
100
AcDbLine
 10
17029.782905186414
 20
554.2491800051491
 30
-0.15667887986761997
 11
17030.642964475872
 21
552.7595136085481
 31
-0.15667887986761997
  0
LINE
  5
C7
330
17
100
AcDbEntity
  8
FP-Roof
 62
8
100
AcDbLine
 10
17035.741009807996
 20
554.2491800068972
 30
-0.15667887986761997
 11
17034.880950518538
 21
552.7595136102962
 31
-0.15667887986761997
  0
LINE
  5
C8
330
17
100
AcDbEntity
  8
FP-Roof
 62
8
100
AcDbLine
 10
17035.62104351333
 20
551.0213828312142
 30
-0.15667887986761997
 11
17036.622499247616
 21
551.0213828312142
 31
-0.15667887986761997
  0
LINE
  5
C9
330
17
100
AcDbEntity
  8
FP-Roof
 62
8
100
AcDbLine
 10
17035.860770199168
 20
546.6987947563109
 30
-0.15667887986761997
 11
17035.860770199168
 21
536.8824781375122
 31
-0.15667887986761997
  0
LINE
  5
CA
330
17
100
AcDbEntity
  8
FP-Roof
 62
8
100
AcDbLine
 10
17035.860780400075
 20
551.0213828312142
 30
-0.15667887986761997
 11
17035.86078040022
 21
549.0808072259777
 31
-0.15667887986761997
  0
LINE
  5
CB
330
17
100
AcDbEntity
  8
FP-Roof
 62
8
100
AcDbLine
 10
17036.382752159832
 20
546.7007711634167
 30
-0.15667887986761997
 11
17036.38275215979
 21
536.8824781375122
 31
-0.15667887986761997
  0
LINE
  5
CC
330
17
100
AcDbEntity
  8
FP-Roof
 62
8
100
AcDbLine
 10
17036.38276236068
 20
551.0213828312142
 30
-0.15667887986761997
 11
17036.382762360827
 21
549.0788308187828
 31
-0.15667887986761997
  0
LINE
  5
CD
330
17
100
AcDbEntity
  8
FP-Roof
 62
8
100
AcDbLine
 10
17036.49364251427
 20
554.2491800068972
 30
-0.15667887986761997
 11
17037.353701803728
 21
552.7595136102962
 31
-0.15667887986761997
  0
LINE
  5
CE
330
17
100
AcDbEntity
  8
FP-Roof
 62
8
100
AcDbLine
 10
17042.451747135845
 20
554.2491800086452
 30
-0.15667887986761997
 11
17041.591687846387
 21
552.7595136120442
 31
-0.15667887986761997
  0
LINE
  5
CF
330
17
100
AcDbEntity
  8
FP-Roof
 62
8
100
AcDbLine
 10
17042.331780841185
 20
551.0213828329622
 30
-0.15667887986761997
 11
17043.333236575472
 21
551.0213828329622
 31
-0.15667887986761997
  0
LINE
  5
D0
330
17
100
AcDbEntity
  8
FP-Roof
 62
8
100
AcDbLine
 10
17042.571507527024
 20
546.698794758059
 30
-0.15667887986761997
 11
17042.571507527024
 21
536.8824781392602
 31
-0.15667887986761997
  0
LINE
  5
D1
330
17
100
AcDbEntity
  8
FP-Roof
 62
8
100
AcDbLine
 10
17042.57151772793
 20
551.0213828329622
 30
-0.15667887986761997
 11
17042.571517728076
 21
549.0808072277257
 31
-0.15667887986761997
  0
LINE
  5
D2
330
17
100
AcDbEntity
  8
FP-Roof
 62
8
100
AcDbLine
 10
17043.09348948769
 20
546.7007711651647
 30
-0.15667887986761997
 11
17043.093489487637
 21
536.8824781392602
 31
-0.15667887986761997
  0
LINE
  5
D3
330
17
100
AcDbEntity
  8
FP-Roof
 62
8
100
AcDbLine
 10
17043.093499688537
 20
551.0213828329622
 30
-0.15667887986761997
 11
17043.093499688683
 21
549.0788308205308
 31
-0.15667887986761997
  0
LINE
  5
D4
330
17
100
AcDbEntity
  8
FP-Roof
 62
8
100
AcDbLine
 10
17043.20437984212
 20
554.2491800086452
 30
-0.15667887986761997
 11
17044.064439131576
 21
552.7595136120442
 31
-0.15667887986761997
  0
LINE
  5
D5
330
17
100
AcDbEntity
  8
FP-Roof
 62
8
100
AcDbLine
 10
17049.282244854872
 20
551.2544065552745
 30
-0.15667887986761997
 11
17049.282244854872
 21
536.8871568196507
 31
-0.15667887986761997
  0
LINE
  5
D6
330
17
100
AcDbEntity
  8
FP-Roof
 62
8
100
AcDbLine
 10
17050.06521779586
 20
551.2514419444803
 30
-0.15667887986761997
 11
17050.065217795785
 21
536.8871568196507
 31
-0.15667887986761997
  0
LINE
  5
D7
330
17
100
AcDbEntity
  8
FP-Roof
 62
8
100
AcDbLine
 10
17056.09853016449
 20
536.3365089603728
 30
-0.15667887986761997
 11
17055.001785766763
 21
536.8871621025653
 31
-0.15667887986761997
  0
ENDSEC
  0
SECTION
  2
OBJECTS
  0
DICTIONARY
  5
A
330
0
100
AcDbDictionary
280
0
281
1
  3
ACAD_COLOR
350
B
  3
ACAD_GROUP
350
C
  3
ACAD_LAYOUT
350
D
  3
ACAD_MATERIAL
350
E
  3
ACAD_MLEADERSTYLE
350
F
  3
ACAD_MLINESTYLE
350
10
  3
ACAD_PLOTSETTINGS
350
11
  3
ACAD_PLOTSTYLENAME
350
12
  3
ACAD_SCALELIST
350
14
  3
ACAD_TABLESTYLE
350
15
  3
ACAD_VISUALSTYLE
350
16
  3
EZDXF_META
350
2D
  0
DICTIONARY
  5
B
330
A
100
AcDbDictionary
280
0
281
1
  0
DICTIONARY
  5
C
330
A
100
AcDbDictionary
280
0
281
1
  0
DICTIONARY
  5
D
330
A
100
AcDbDictionary
280
0
281
1
  3
Model
350
1A
  3
Layout1
350
1E
  0
DICTIONARY
  5
E
330
A
100
AcDbDictionary
280
0
281
1
  3
ByBlock
350
1F
  3
ByLayer
350
20
  3
Global
350
21
  0
DICTIONARY
  5
F
330
A
100
AcDbDictionary
280
0
281
1
  3
Standard
350
2C
  0
DICTIONARY
  5
10
330
A
100
AcDbDictionary
280
0
281
1
  3
Standard
350
22
  0
DICTIONARY
  5
11
330
A
100
AcDbDictionary
280
0
281
1
  0
ACDBDICTIONARYWDFLT
  5
12
330
A
100
AcDbDictionary
280
0
281
1
  3
Normal
350
13
100
AcDbDictionaryWithDefault
340
13
  0
ACDBPLACEHOLDER
  5
13
330
12
  0
DICTIONARY
  5
14
330
A
100
AcDbDictionary
280
0
281
1
  0
DICTIONARY
  5
15
330
A
100
AcDbDictionary
280
0
281
1
  0
DICTIONARY
  5
16
330
A
100
AcDbDictionary
280
0
281
1
  0
LAYOUT
  5
1A
330
D
100
AcDbPlotSettings
  1

  2
Adobe PDF
  4
A3
  6

 40
7.5
 41
20.0
 42
7.5
 43
20.0
 44
420.0
 45
297.0
 46
0.0
 47
0.0
 48
0.0
 49
0.0
140
0.0
141
0.0
142
1.0
143
1.0
 70
1024
 72
1
 73
0
 74
5
  7

 75
16
 76
0
 77
2
 78
300
147
1.0
148
0.0
149
0.0
100
AcDbLayout
  1
Model
 70
1
 71
0
 10
0.0
 20
0.0
 11
420.0
 21
297.0
 12
0.0
 22
0.0
 32
0.0
 14
1e+20
 24
1e+20
 34
1e+20
 15
-1e+20
 25
-1e+20
 35
-1e+20
146
0.0
 13
0.0
 23
0.0
 33
0.0
 16
1.0
 26
0.0
 36
0.0
 17
0.0
 27
1.0
 37
0.0
 76
1
330
17
  0
LAYOUT
  5
1E
330
D
100
AcDbPlotSettings
  1

  2
Adobe PDF
  4
A3
  6

 40
7.5
 41
20.0
 42
7.5
 43
20.0
 44
420.0
 45
297.0
 46
0.0
 47
0.0
 48
0.0
 49
0.0
140
0.0
141
0.0
142
1.0
143
1.0
 70
0
 72
1
 73
0
 74
5
  7

 75
16
 76
0
 77
2
 78
300
147
1.0
148
0.0
149
0.0
100
AcDbLayout
  1
Layout1
 70
1
 71
1
 10
0.0
 20
0.0
 11
420.0
 21
297.0
 12
0.0
 22
0.0
 32
0.0
 14
1e+20
 24
1e+20
 34
1e+20
 15
-1e+20
 25
-1e+20
 35
-1e+20
146
0.0
 13
0.0
 23
0.0
 33
0.0
 16
1.0
 26
0.0
 36
0.0
 17
0.0
 27
1.0
 37
0.0
 76
1
330
1B
  0
MATERIAL
  5
1F
102
{ACAD_REACTORS
330
E
102
}
330
E
100
AcDbMaterial
  1
ByBlock
  2

 70
0
 40
1.0
 71
1
 41
1.0
 91
-1023410177
 42
1.0
 72
1
  3

 73
1
 74
1
 75
1
 44
0.5
 73
0
 45
1.0
 46
1.0
 77
1
  4

 78
1
 79
1
170
1
 48
1.0
171
1
  6

172
1
173
1
174
1
140
1.0
141
1.0
175
1
  7

176
1
177
1
178
1
143
1.0
179
1
  8

270
1
271
1
272
1
145
1.0
146
1.0
273
1
  9

274
1
275
1
276
1
 42
1.0
 72
1
  3

 73
1
 74
1
 75
1
 94
63
  0
MATERIAL
  5
20
102
{ACAD_REACTORS
330
E
102
}
330
E
100
AcDbMaterial
  1
ByLayer
  2

 70
0
 40
1.0
 71
1
 41
1.0
 91
-1023410177
 42
1.0
 72
1
  3

 73
1
 74
1
 75
1
 44
0.5
 73
0
 45
1.0
 46
1.0
 77
1
  4

 78
1
 79
1
170
1
 48
1.0
171
1
  6

172
1
173
1
174
1
140
1.0
141
1.0
175
1
  7

176
1
177
1
178
1
143
1.0
179
1
  8

270
1
271
1
272
1
145
1.0
146
1.0
273
1
  9

274
1
275
1
276
1
 42
1.0
 72
1
  3

 73
1
 74
1
 75
1
 94
63
  0
MATERIAL
  5
21
102
{ACAD_REACTORS
330
E
102
}
330
E
100
AcDbMaterial
  1
Global
  2

 70
0
 40
1.0
 71
1
 41
1.0
 91
-1023410177
 42
1.0
 72
1
  3

 73
1
 74
1
 75
1
 44
0.5
 73
0
 45
1.0
 46
1.0
 77
1
  4

 78
1
 79
1
170
1
 48
1.0
171
1
  6

172
1
173
1
174
1
140
1.0
141
1.0
175
1
  7

176
1
177
1
178
1
143
1.0
179
1
  8

270
1
271
1
272
1
145
1.0
146
1.0
273
1
  9

274
1
275
1
276
1
 42
1.0
 72
1
  3

 73
1
 74
1
 75
1
 94
63
  0
MLINESTYLE
  5
22
102
{ACAD_REACTORS
330
10
102
}
330
10
100
AcDbMlineStyle
  2
Standard
 70
0
  3

 62
256
 51
90.0
 52
90.0
 71
2
 49
0.5
 62
256
  6
BYLAYER
 49
-0.5
 62
256
  6
BYLAYER
  0
MLEADERSTYLE
  5
2C
102
{ACAD_REACTORS
330
F
102
}
330
F
100
AcDbMLeaderStyle
179
2
170
2
171
1
172
0
 90
2
 40
0.0
 41
0.0
173
1
 91
-1056964608
 92
-2
290
1
 42
2.0
291
1
 43
8.0
  3
Standard
 44
4.0
300

342
29
174
1
175
1
176
0
178
1
 93
-1056964608
 45
4.0
292
0
297
0
 46
4.0
 94
-1056964608
 47
1.0
 49
1.0
140
1.0
294
1
141
0.0
177
0
142
1.0
295
0
296
0
143
3.75
271
0
272
9
273
9
  0
DICTIONARY
  5
2D
330
A
100
AcDbDictionary
281
1
  3
CREATED_BY_EZDXF
350
2E
  3
WRITTEN_BY_EZDXF
350
DA
  0
DICTIONARYVAR
  5
2E
330
2D
100
DictionaryVariables
280
0
  1
1.0.3 @ 2023-12-20T20:24:21.125669+00:00
  0
DICTIONARYVAR
  5
DA
330
2D
100
DictionaryVariables
280
0
  1
1.0.3 @ 2023-12-20T20:24:21.132668+00:00
  0
ENDSEC
  0
EOF
