  0
SECTION
  2
HEADER
  9
$ACADVER
  1
AC1027
  9
$ACADMAINTVER
 70
105
  9
$DWGCODEPAGE
  3
ANSI_1252
  9
$LASTSAVEDBY
  1
ezdxf
  9
$REQUIREDVERSIONS
160
0
  9
$INSBASE
 10
0.0
 20
0.0
 30
0.0
  9
$EXTMIN
 10
1e+20
 20
1e+20
 30
1e+20
  9
$EXTMAX
 10
-1e+20
 20
-1e+20
 30
-1e+20
  9
$LIMMIN
 10
0.0
 20
0.0
  9
$LIMMAX
 10
420.0
 20
297.0
  9
$ORTHOMODE
 70
0
  9
$REGENMODE
 70
1
  9
$FILLMODE
 70
1
  9
$QTEXTMODE
 70
0
  9
$MIRRTEXT
 70
1
  9
$LTSCALE
 40
1.0
  9
$ATTMODE
 70
1
  9
$TEXTSIZE
 40
2.5
  9
$TRACEWID
 40
1.0
  9
$TEXTSTYLE
  7
Standard
  9
$CLAYER
  8
0
  9
$CELTYPE
  6
ByLayer
  9
$CECOLOR
 62
256
  9
$CELTSCALE
 40
1.0
  9
$DISPSILH
 70
0
  9
$DIMSCALE
 40
1.0
  9
$DIMASZ
 40
2.5
  9
$DIMEXO
 40
0.625
  9
$DIMDLI
 40
3.75
  9
$DIMRND
 40
0.0
  9
$DIMDLE
 40
0.0
  9
$DIMEXE
 40
1.25
  9
$DIMTP
 40
0.0
  9
$DIMTM
 40
0.0
  9
$DIMTXT
 40
2.5
  9
$DIMCEN
 40
2.5
  9
$DIMTSZ
 40
0.0
  9
$DIMTOL
 70
0
  9
$DIMLIM
 70
0
  9
$DIMTIH
 70
0
  9
$DIMTOH
 70
0
  9
$DIMSE1
 70
0
  9
$DIMSE2
 70
0
  9
$DIMTAD
 70
1
  9
$DIMZIN
 70
8
  9
$DIMBLK
  1

  9
$DIMASO
 70
1
  9
$DIMSHO
 70
1
  9
$DIMPOST
  1

  9
$DIMAPOST
  1

  9
$DIMALT
 70
0
  9
$DIMALTD
 70
3
  9
$DIMALTF
 40
0.03937007874
  9
$DIMLFAC
 40
1.0
  9
$DIMTOFL
 70
1
  9
$DIMTVP
 40
0.0
  9
$DIMTIX
 70
0
  9
$DIMSOXD
 70
0
  9
$DIMSAH
 70
0
  9
$DIMBLK1
  1

  9
$DIMBLK2
  1

  9
$DIMSTYLE
  2
ISO-25
  9
$DIMCLRD
 70
0
  9
$DIMCLRE
 70
0
  9
$DIMCLRT
 70
0
  9
$DIMTFAC
 40
1.0
  9
$DIMGAP
 40
0.625
  9
$DIMJUST
 70
0
  9
$DIMSD1
 70
0
  9
$DIMSD2
 70
0
  9
$DIMTOLJ
 70
0
  9
$DIMTZIN
 70
8
  9
$DIMALTZ
 70
0
  9
$DIMALTTZ
 70
0
  9
$DIMUPT
 70
0
  9
$DIMDEC
 70
2
  9
$DIMTDEC
 70
2
  9
$DIMALTU
 70
2
  9
$DIMALTTD
 70
3
  9
$DIMTXSTY
  7
Standard
  9
$DIMAUNIT
 70
0
  9
$DIMADEC
 70
0
  9
$DIMALTRND
 40
0.0
  9
$DIMAZIN
 70
0
  9
$DIMDSEP
 70
44
  9
$DIMATFIT
 70
3
  9
$DIMFRAC
 70
0
  9
$DIMLDRBLK
  1

  9
$DIMLUNIT
 70
2
  9
$DIMLWD
 70
-2
  9
$DIMLWE
 70
-2
  9
$DIMTMOVE
 70
0
  9
$DIMFXL
 40
1.0
  9
$DIMFXLON
 70
0
  9
$DIMJOGANG
 40
0.785398163397
  9
$DIMTFILL
 70
0
  9
$DIMTFILLCLR
 70
0
  9
$DIMARCSYM
 70
0
  9
$DIMLTYPE
  6

  9
$DIMLTEX1
  6

  9
$DIMLTEX2
  6

  9
$DIMTXTDIRECTION
 70
0
  9
$LUNITS
 70
2
  9
$LUPREC
 70
4
  9
$SKETCHINC
 40
1.0
  9
$FILLETRAD
 40
10.0
  9
$AUNITS
 70
0
  9
$AUPREC
 70
2
  9
$MENU
  1
.
  9
$ELEVATION
 40
0.0
  9
$PELEVATION
 40
0.0
  9
$THICKNESS
 40
0.0
  9
$LIMCHECK
 70
0
  9
$CHAMFERA
 40
0.0
  9
$CHAMFERB
 40
0.0
  9
$CHAMFERC
 40
0.0
  9
$CHAMFERD
 40
0.0
  9
$SKPOLY
 70
0
  9
$TDCREATE
 40
2460332.886087963
  9
$TDUCREATE
 40
2458532.153996898
  9
$TDUPDATE
 40
2460332.886087963
  9
$TDUUPDATE
 40
2458532.1544311
  9
$TDINDWG
 40
0.0
  9
$TDUSRTIMER
 40
0.0
  9
$USRTIMER
 70
1
  9
$ANGBASE
 50
0.0
  9
$ANGDIR
 70
0
  9
$PDMODE
 70
0
  9
$PDSIZE
 40
0.0
  9
$PLINEWID
 40
0.0
  9
$SPLFRAME
 70
0
  9
$SPLINETYPE
 70
6
  9
$SPLINESEGS
 70
8
  9
$HANDSEED
  5
1D0
  9
$SURFTAB1
 70
6
  9
$SURFTAB2
 70
6
  9
$SURFTYPE
 70
6
  9
$SURFU
 70
6
  9
$SURFV
 70
6
  9
$UCSBASE
  2

  9
$UCSNAME
  2

  9
$UCSORG
 10
0.0
 20
0.0
 30
0.0
  9
$UCSXDIR
 10
1.0
 20
0.0
 30
0.0
  9
$UCSYDIR
 10
0.0
 20
1.0
 30
0.0
  9
$UCSORTHOREF
  2

  9
$UCSORTHOVIEW
 70
0
  9
$UCSORGTOP
 10
0.0
 20
0.0
 30
0.0
  9
$UCSORGBOTTOM
 10
0.0
 20
0.0
 30
0.0
  9
$UCSORGLEFT
 10
0.0
 20
0.0
 30
0.0
  9
$UCSORGRIGHT
 10
0.0
 20
0.0
 30
0.0
  9
$UCSORGFRONT
 10
0.0
 20
0.0
 30
0.0
  9
$UCSORGBACK
 10
0.0
 20
0.0
 30
0.0
  9
$PUCSBASE
  2

  9
$PUCSNAME
  2

  9
$PUCSORG
 10
0.0
 20
0.0
 30
0.0
  9
$PUCSXDIR
 10
1.0
 20
0.0
 30
0.0
  9
$PUCSYDIR
 10
0.0
 20
1.0
 30
0.0
  9
$PUCSORTHOREF
  2

  9
$PUCSORTHOVIEW
 70
0
  9
$PUCSORGTOP
 10
0.0
 20
0.0
 30
0.0
  9
$PUCSORGBOTTOM
 10
0.0
 20
0.0
 30
0.0
  9
$PUCSORGLEFT
 10
0.0
 20
0.0
 30
0.0
  9
$PUCSORGRIGHT
 10
0.0
 20
0.0
 30
0.0
  9
$PUCSORGFRONT
 10
0.0
 20
0.0
 30
0.0
  9
$PUCSORGBACK
 10
0.0
 20
0.0
 30
0.0
  9
$USERI1
 70
0
  9
$USERI2
 70
0
  9
$USERI3
 70
0
  9
$USERI4
 70
0
  9
$USERI5
 70
0
  9
$USERR1
 40
0.0
  9
$USERR2
 40
0.0
  9
$USERR3
 40
0.0
  9
$USERR4
 40
0.0
  9
$USERR5
 40
0.0
  9
$WORLDVIEW
 70
1
  9
$SHADEDGE
 70
3
  9
$SHADEDIF
 70
70
  9
$TILEMODE
 70
1
  9
$MAXACTVP
 70
64
  9
$PINSBASE
 10
0.0
 20
0.0
 30
0.0
  9
$PLIMCHECK
 70
0
  9
$PEXTMIN
 10
1e+20
 20
1e+20
 30
1e+20
  9
$PEXTMAX
 10
-1e+20
 20
-1e+20
 30
-1e+20
  9
$PLIMMIN
 10
0.0
 20
0.0
  9
$PLIMMAX
 10
420.0
 20
297.0
  9
$UNITMODE
 70
0
  9
$VISRETAIN
 70
1
  9
$PLINEGEN
 70
0
  9
$PSLTSCALE
 70
1
  9
$TREEDEPTH
 70
3020
  9
$CMLSTYLE
  2
Standard
  9
$CMLJUST
 70
0
  9
$CMLSCALE
 40
20.0
  9
$PROXYGRAPHICS
 70
1
  9
$MEASUREMENT
 70
1
  9
$CELWEIGHT
370
-1
  9
$ENDCAPS
280
0
  9
$JOINSTYLE
280
0
  9
$LWDISPLAY
290
0
  9
$INSUNITS
 70
6
  9
$HYPERLINKBASE
  1

  9
$STYLESHEET
  1

  9
$XEDIT
290
1
  9
$CEPSNTYPE
380
0
  9
$PSTYLEMODE
290
1
  9
$FINGERPRINTGUID
  2
{52217037-833A-4722-BC74-AD976350A4AD}
  9
$VERSIONGUID
  2
{7C4703CA-2CB0-4F98-A2DE-95691EFA31B3}
  9
$EXTNAMES
290
1
  9
$PSVPSCALE
 40
0.0
  9
$OLESTARTUP
290
0
  9
$SORTENTS
280
127
  9
$INDEXCTL
280
0
  9
$HIDETEXT
280
1
  9
$XCLIPFRAME
280
0
  9
$HALOGAP
280
0
  9
$OBSCOLOR
 70
257
  9
$OBSLTYPE
280
0
  9
$INTERSECTIONDISPLAY
280
0
  9
$INTERSECTIONCOLOR
 70
257
  9
$DIMASSOC
280
2
  9
$PROJECTNAME
  1

  9
$CAMERADISPLAY
290
0
  9
$LENSLENGTH
 40
50.0
  9
$CAMERAHEIGHT
 40
0.0
  9
$STEPSPERSEC
 40
24.0
  9
$STEPSIZE
 40
100.0
  9
$3DDWFPREC
 40
2.0
  9
$PSOLWIDTH
 40
0.005
  9
$PSOLHEIGHT
 40
0.08
  9
$LOFTANG1
 40
1.570796326795
  9
$LOFTANG2
 40
1.570796326795
  9
$LOFTMAG1
 40
0.0
  9
$LOFTMAG2
 40
0.0
  9
$LOFTPARAM
 70
7
  9
$LOFTNORMALS
280
1
  9
$LATITUDE
 40
37.795
  9
$LONGITUDE
 40
-122.394
  9
$NORTHDIRECTION
 40
0.0
  9
$TIMEZONE
 70
-8000
  9
$LIGHTGLYPHDISPLAY
280
1
  9
$TILEMODELIGHTSYNCH
280
1
  9
$CMATERIAL
347
20
  9
$SOLIDHIST
280
0
  9
$SHOWHIST
280
1
  9
$DWFFRAME
280
2
  9
$DGNFRAME
280
2
  9
$REALWORLDSCALE
290
1
  9
$INTERFERECOLOR
 62
256
  9
$CSHADOW
280
0
  9
$SHADOWPLANELOCATION
 40
0.0
  0
ENDSEC
  0
SECTION
  2
CLASSES
  0
CLASS
  1
ACDBDICTIONARYWDFLT
  2
AcDbDictionaryWithDefault
  3
ObjectDBX Classes
 90
0
 91
0
280
0
281
0
  0
CLASS
  1
SUN
  2
AcDbSun
  3
SCENEOE
 90
1153
 91
0
280
0
281
0
  0
CLASS
  1
VISUALSTYLE
  2
AcDbVisualStyle
  3
ObjectDBX Classes
 90
4095
 91
0
280
0
281
0
  0
CLASS
  1
MATERIAL
  2
AcDbMaterial
  3
ObjectDBX Classes
 90
1153
 91
0
280
0
281
0
  0
CLASS
  1
SCALE
  2
AcDbScale
  3
ObjectDBX Classes
 90
1153
 91
0
280
0
281
0
  0
CLASS
  1
TABLESTYLE
  2
AcDbTableStyle
  3
ObjectDBX Classes
 90
4095
 91
0
280
0
281
0
  0
CLASS
  1
MLEADERSTYLE
  2
AcDbMLeaderStyle
  3
ACDB_MLEADERSTYLE_CLASS
 90
4095
 91
0
280
0
281
0
  0
CLASS
  1
DICTIONARYVAR
  2
AcDbDictionaryVar
  3
ObjectDBX Classes
 90
0
 91
0
280
0
281
0
  0
CLASS
  1
CELLSTYLEMAP
  2
AcDbCellStyleMap
  3
ObjectDBX Classes
 90
1152
 91
0
280
0
281
0
  0
CLASS
  1
MENTALRAYRENDERSETTINGS
  2
AcDbMentalRayRenderSettings
  3
SCENEOE
 90
1024
 91
0
280
0
281
0
  0
CLASS
  1
ACDBDETAILVIEWSTYLE
  2
AcDbDetailViewStyle
  3
ObjectDBX Classes
 90
1025
 91
0
280
0
281
0
  0
CLASS
  1
ACDBSECTIONVIEWSTYLE
  2
AcDbSectionViewStyle
  3
ObjectDBX Classes
 90
1025
 91
0
280
0
281
0
  0
CLASS
  1
RASTERVARIABLES
  2
AcDbRasterVariables
  3
ISM
 90
0
 91
0
280
0
281
0
  0
CLASS
  1
ACDBPLACEHOLDER
  2
AcDbPlaceHolder
  3
ObjectDBX Classes
 90
0
 91
0
280
0
281
0
  0
CLASS
  1
LAYOUT
  2
AcDbLayout
  3
ObjectDBX Classes
 90
0
 91
0
280
0
281
0
  0
ENDSEC
  0
SECTION
  2
TABLES
  0
TABLE
  2
VPORT
  5
8
330
0
100
AcDbSymbolTable
 70
1
  0
VPORT
  5
23
330
8
100
AcDbSymbolTableRecord
100
AcDbViewportTableRecord
  2
*Active
 70
0
 10
0.0
 20
0.0
 11
1.0
 21
1.0
 12
0.0
 22
0.0
 13
0.0
 23
0.0
 14
0.5
 24
0.5
 15
0.5
 25
0.5
 16
0.0
 26
0.0
 36
1.0
 17
0.0
 27
0.0
 37
0.0
 40
1000.0
 41
1.34
 42
50.0
 43
0.0
 44
0.0
 50
0.0
 51
0.0
 71
0
 72
1000
 73
1
 74
3
 75
0
 76
0
 77
0
 78
0
281
0
 65
0
146
0.0
  0
ENDTAB
  0
TABLE
  2
LTYPE
  5
2
330
0
100
AcDbSymbolTable
 70
3
  0
LTYPE
  5
24
330
2
100
AcDbSymbolTableRecord
100
AcDbLinetypeTableRecord
  2
ByBlock
 70
0
  3

 72
65
 73
0
 40
0.0
  0
LTYPE
  5
25
330
2
100
AcDbSymbolTableRecord
100
AcDbLinetypeTableRecord
  2
ByLayer
 70
0
  3

 72
65
 73
0
 40
0.0
  0
LTYPE
  5
26
330
2
100
AcDbSymbolTableRecord
100
AcDbLinetypeTableRecord
  2
Continuous
 70
0
  3

 72
65
 73
0
 40
0.0
  0
ENDTAB
  0
TABLE
  2
LAYER
  5
1
330
0
100
AcDbSymbolTable
 70
2
  0
LAYER
  5
27
330
1
100
AcDbSymbolTableRecord
100
AcDbLayerTableRecord
  2
0
 70
0
 62
7
  6
Continuous
370
-3
390
13
347
21
  0
LAYER
  5
28
330
1
100
AcDbSymbolTableRecord
100
AcDbLayerTableRecord
  2
Defpoints
 70
0
 62
7
  6
Continuous
290
0
370
-3
390
13
347
21
  0
ENDTAB
  0
TABLE
  2
STYLE
  5
5
330
0
100
AcDbSymbolTable
 70
1
  0
STYLE
  5
29
330
5
100
AcDbSymbolTableRecord
100
AcDbTextStyleTableRecord
  2
Standard
 70
0
 40
0.0
 41
1.0
 50
0.0
 71
0
 42
2.5
  3
txt
  4

  0
ENDTAB
  0
TABLE
  2
VIEW
  5
7
330
0
100
AcDbSymbolTable
 70
0
  0
ENDTAB
  0
TABLE
  2
UCS
  5
6
330
0
100
AcDbSymbolTable
 70
0
  0
ENDTAB
  0
TABLE
  2
APPID
  5
3
330
0
100
AcDbSymbolTable
 70
3
  0
APPID
  5
2A
330
3
100
AcDbSymbolTableRecord
100
AcDbRegAppTableRecord
  2
ACAD
 70
0
  0
APPID
  5
1CD
330
3
100
AcDbSymbolTableRecord
100
AcDbRegAppTableRecord
  2
HATCHBACKGROUNDCOLOR
 70
0
  0
APPID
  5
1CE
330
3
100
AcDbSymbolTableRecord
100
AcDbRegAppTableRecord
  2
EZDXF
 70
0
  0
ENDTAB
  0
TABLE
  2
DIMSTYLE
  5
4
330
0
100
AcDbSymbolTable
 70
1
100
AcDbDimStyleTable
  0
DIMSTYLE
105
2B
330
4
100
AcDbSymbolTableRecord
100
AcDbDimStyleTableRecord
  2
Standard
 70
0
 40
1.0
 41
2.5
 42
0.625
 43
3.75
 44
1.25
 45
0.0
 46
0.0
 47
0.0
 48
0.0
 49
2.5
140
2.5
141
2.5
142
0.0
143
0.03937007874
144
1.0
145
0.0
146
1.0
147
0.625
148
0.0
 69
0
 70
0
 71
0
 72
0
 73
0
 74
0
 75
0
 76
0
 77
1
 78
8
 79
3
170
0
171
3
172
1
173
0
174
0
175
0
176
0
177
0
178
0
179
2
271
2
272
2
273
2
274
3
275
0
276
0
277
2
278
44
279
0
280
0
281
0
282
0
283
0
284
8
285
0
286
0
288
0
289
3
290
0
371
-2
372
-2
  0
ENDTAB
  0
TABLE
  2
BLOCK_RECORD
  5
9
330
0
100
AcDbSymbolTable
 70
2
  0
BLOCK_RECORD
  5
17
330
9
100
AcDbSymbolTableRecord
100
AcDbBlockTableRecord
  2
*Model_Space
340
1A
 70
0
280
1
281
0
  0
BLOCK_RECORD
  5
1B
330
9
100
AcDbSymbolTableRecord
100
AcDbBlockTableRecord
  2
*Paper_Space
340
1E
 70
0
280
1
281
0
  0
ENDTAB
  0
ENDSEC
  0
SECTION
  2
BLOCKS
  0
BLOCK
  5
18
330
17
100
AcDbEntity
  8
0
100
AcDbBlockBegin
  2
*Model_Space
 70
0
 10
0.0
 20
0.0
 30
0.0
  3
*Model_Space
  1

  0
ENDBLK
  5
19
330
17
100
AcDbEntity
  8
0
100
AcDbBlockEnd
  0
BLOCK
  5
1C
330
1B
100
AcDbEntity
  8
0
100
AcDbBlockBegin
  2
*Paper_Space
 70
0
 10
0.0
 20
0.0
 30
0.0
  3
*Paper_Space
  1

  0
ENDBLK
  5
1D
330
1B
100
AcDbEntity
  8
0
100
AcDbBlockEnd
  0
ENDSEC
  0
SECTION
  2
ENTITIES
  0
LINE
  5
2F
330
17
100
AcDbEntity
  8
EL-Roof
 62
1
100
AcDbLine
 10
-205.70776365795973
 20
0.004683972962197913
 30
0.0
 11
-20.000000000003638
 21
0.004670129094847653
 31
0.0
  0
LINE
  5
30
330
17
100
AcDbEntity
  8
FP-Roof
 62
8
100
AcDbLine
 10
-204.0302652393948
 20
14.368963814875428
 30
0.0
 11
-204.03026523932203
 21
0.004678690045807343
 31
0.0
  0
LINE
  5
31
330
17
100
AcDbEntity
  8
FP-Roof
 62
8
100
AcDbLine
 10
-163.50485029191623
 20
9.298684154971966
 30
0.0
 11
-203.26063890192745
 21
9.298514996609924
 31
0.0
  0
LINE
  5
32
330
17
100
AcDbEntity
  8
FP-Roof
 62
8
100
AcDbLine
 10
-163.25413950425718
 20
9.82066842272809
 30
0.0
 11
-203.26063890192745
 21
9.820498955472544
 31
0.0
  0
LINE
  5
33
330
17
100
AcDbEntity
  8
FP-Roof
 62
8
100
AcDbLine
 10
-203.24729229840887
 20
14.37192842566958
 30
0.0
 11
-203.24729229840887
 21
0.004678690045807343
 31
0.0
  0
LINE
  5
34
330
17
100
AcDbEntity
  8
FP-Roof
 62
8
100
AcDbLine
 10
-197.16942728565482
 20
17.366701879040306
 30
0.0
 11
-198.02948657511297
 21
15.877035482439283
 31
0.0
  0
LINE
  5
35
330
17
100
AcDbEntity
  8
FP-Roof
 62
8
100
AcDbLine
 10
-196.2968282847214
 20
14.138904703357298
 30
0.0
 11
-197.29828401900886
 21
14.138904703357298
 31
0.0
  0
LINE
  5
36
330
17
100
AcDbEntity
  8
FP-Roof
 62
8
100
AcDbLine
 10
-197.05854713207373
 20
14.138904703357298
 30
0.0
 11
-197.05854713221925
 21
12.196352690925892
 31
0.0
  0
LINE
  5
37
330
17
100
AcDbEntity
  8
FP-Roof
 62
8
100
AcDbLine
 10
-197.0585369312248
 20
9.818293035559805
 30
0.0
 11
-197.05853693117388
 21
9.655309440859128e-09
 31
0.0
  0
LINE
  5
38
330
17
100
AcDbEntity
  8
FP-Roof
 62
8
100
AcDbLine
 10
-196.53656517146737
 20
14.138904703357298
 30
0.0
 11
-196.5365651716129
 21
12.19832909812078
 31
0.0
  0
LINE
  5
39
330
17
100
AcDbEntity
  8
FP-Roof
 62
8
100
AcDbLine
 10
-196.53655497056025
 20
9.816316628454047
 30
0.0
 11
-196.53655497056025
 21
9.655309440859128e-09
 31
0.0
  0
LINE
  5
3A
330
17
100
AcDbEntity
  8
FP-Roof
 62
8
100
AcDbLine
 10
-196.41679457938153
 20
17.366701879040306
 30
0.0
 11
-195.55673528992338
 21
15.877035482439283
 31
0.0
  0
LINE
  5
3B
330
17
100
AcDbEntity
  8
FP-Roof
 62
8
100
AcDbLine
 10
-190.4586899578062
 20
17.366701877292257
 30
0.0
 11
-191.31874924726435
 21
15.877035480691234
 31
0.0
  0
LINE
  5
3C
330
17
100
AcDbEntity
  8
FP-Roof
 62
8
100
AcDbLine
 10
-189.58609095686552
 20
14.138904701609249
 30
0.0
 11
-190.58754669115297
 21
14.138904701609249
 31
0.0
  0
LINE
  5
3D
330
17
100
AcDbEntity
  8
FP-Roof
 62
8
100
AcDbLine
 10
-190.34780980421783
 20
14.138904701609249
 30
0.0
 11
-190.34780980436335
 21
12.196352689177843
 31
0.0
  0
LINE
  5
3E
330
17
100
AcDbEntity
  8
FP-Roof
 62
8
100
AcDbLine
 10
-190.3477996033689
 20
9.818293033811756
 30
0.0
 11
-190.34779960332526
 21
7.90726062405156e-09
 31
0.0
  0
LINE
  5
3F
330
17
100
AcDbEntity
  8
FP-Roof
 62
8
100
AcDbLine
 10
-189.82582784361148
 20
14.138904701609249
 30
0.0
 11
-189.825827843757
 21
12.198329096372731
 31
0.0
  0
LINE
  5
40
330
17
100
AcDbEntity
  8
FP-Roof
 62
8
100
AcDbLine
 10
-189.82581764270435
 20
9.816316626705998
 30
0.0
 11
-189.82581764270435
 21
7.90726062405156e-09
 31
0.0
  0
LINE
  5
41
330
17
100
AcDbEntity
  8
FP-Roof
 62
8
100
AcDbLine
 10
-189.7060572515329
 20
17.366701877292257
 30
0.0
 11
-188.84599796207476
 21
15.877035480691234
 31
0.0
  0
LINE
  5
42
330
17
100
AcDbEntity
  8
FP-Roof
 62
8
100
AcDbLine
 10
-183.7479526299503
 20
17.36670187554421
 30
0.0
 11
-184.60801191940845
 21
15.877035478943185
 31
0.0
  0
LINE
  5
43
330
17
100
AcDbEntity
  8
FP-Roof
 62
8
100
AcDbLine
 10
-182.8753536290169
 20
14.1389046998612
 30
0.0
 11
-183.87680936330435
 21
14.1389046998612
 31
0.0
  0
LINE
  5
44
330
17
100
AcDbEntity
  8
FP-Roof
 62
8
100
AcDbLine
 10
-183.6370724763692
 20
14.1389046998612
 30
0.0
 11
-183.63707247651473
 21
12.196352687429794
 31
0.0
  0
LINE
  5
45
330
17
100
AcDbEntity
  8
FP-Roof
 62
8
100
AcDbLine
 10
-183.6370622755203
 20
9.818293032063707
 30
0.0
 11
-183.63706227546936
 21
6.159211807243992e-09
 31
0.0
  0
LINE
  5
46
330
17
100
AcDbEntity
  8
FP-Roof
 62
8
100
AcDbLine
 10
-183.11509051576286
 20
14.1389046998612
 30
0.0
 11
-183.11509051590838
 21
12.198329094624683
 31
0.0
  0
LINE
  5
47
330
17
100
AcDbEntity
  8
FP-Roof
 62
8
100
AcDbLine
 10
-183.11508031485573
 20
9.816316624957949
 30
0.0
 11
-183.11508031485573
 21
6.159211807243992e-09
 31
0.0
  0
LINE
  5
48
330
17
100
AcDbEntity
  8
FP-Roof
 62
8
100
AcDbLine
 10
-182.99531992367702
 20
17.36670187554421
 30
0.0
 11
-182.13526063421887
 21
15.877035478943185
 31
0.0
  0
LINE
  5
49
330
17
100
AcDbEntity
  8
FP-Roof
 62
8
100
AcDbLine
 10
-177.03721530210169
 20
17.36670187379616
 30
0.0
 11
-177.89727459155984
 21
15.877035477195136
 31
0.0
  0
LINE
  5
4A
330
17
100
AcDbEntity
  8
FP-Roof
 62
8
100
AcDbLine
 10
-176.164616301161
 20
14.138904698113151
 30
0.0
 11
-177.16607203544845
 21
14.138904698113151
 31
0.0
  0
LINE
  5
4B
330
17
100
AcDbEntity
  8
FP-Roof
 62
8
100
AcDbLine
 10
-176.92633514851332
 20
14.138904698113151
 30
0.0
 11
-176.92633514865884
 21
12.196352685681745
 31
0.0
  0
LINE
  5
4C
330
17
100
AcDbEntity
  8
FP-Roof
 62
8
100
AcDbLine
 10
-176.9263249476644
 20
9.818293030315658
 30
0.0
 11
-176.92632494762074
 21
4.4111629904364236e-09
 31
0.0
  0
LINE
  5
4D
330
17
100
AcDbEntity
  8
FP-Roof
 62
8
100
AcDbLine
 10
-176.40435318790696
 20
14.138904698113151
 30
0.0
 11
-176.40435318805248
 21
12.198329092876634
 31
0.0
  0
LINE
  5
4E
330
17
100
AcDbEntity
  8
FP-Roof
 62
8
100
AcDbLine
 10
-176.40434298699984
 20
9.8163166232099
 30
0.0
 11
-176.40434298699984
 21
4.4111629904364236e-09
 31
0.0
  0
LINE
  5
4F
330
17
100
AcDbEntity
  8
FP-Roof
 62
8
100
AcDbLine
 10
-176.2845825958284
 20
17.36670187379616
 30
0.0
 11
-175.42452330637025
 21
15.877035477195136
 31
0.0
  0
LINE
  5
50
330
17
100
AcDbEntity
  8
FP-Roof
 62
8
100
AcDbLine
 10
-170.3264779742458
 20
17.36670187204811
 30
0.0
 11
-171.18653726370394
 21
15.877035475447087
 31
0.0
  0
LINE
  5
51
330
17
100
AcDbEntity
  8
FP-Roof
 62
8
100
AcDbLine
 10
-169.45387897331238
 20
14.138904696365103
 30
0.0
 11
-170.45533470759983
 21
14.138904696365103
 31
0.0
  0
LINE
  5
52
330
17
100
AcDbEntity
  8
FP-Roof
 62
8
100
AcDbLine
 10
-170.2155978206647
 20
14.138904696365103
 30
0.0
 11
-170.21559782081022
 21
12.196352683933696
 31
0.0
  0
LINE
  5
53
330
17
100
AcDbEntity
  8
FP-Roof
 62
8
100
AcDbLine
 10
-170.21558761981578
 20
9.81829302856761
 30
0.0
 11
-170.21558761976485
 21
2.6631141736288555e-09
 31
0.0
  0
LINE
  5
54
330
17
100
AcDbEntity
  8
FP-Roof
 62
8
100
AcDbLine
 10
-169.69361586005834
 20
14.138904696365103
 30
0.0
 11
-169.69361586020386
 21
12.198329091128585
 31
0.0
  0
LINE
  5
55
330
17
100
AcDbEntity
  8
FP-Roof
 62
8
100
AcDbLine
 10
-169.69360565915122
 20
9.816316621461851
 30
0.0
 11
-169.69360565915122
 21
2.6631141736288555e-09
 31
0.0
  0
LINE
  5
56
330
17
100
AcDbEntity
  8
FP-Roof
 62
8
100
AcDbLine
 10
-169.5738452679725
 20
17.36670187204811
 30
0.0
 11
-168.71378597851435
 21
15.877035475447087
 31
0.0
  0
LINE
  5
57
330
17
100
AcDbEntity
  8
FP-Roof
 62
8
100
AcDbLine
 10
-162.49500032153446
 20
17.24002552876493
 30
0.0
 11
-163.99718392303475
 21
17.24002552876493
 31
0.0
  0
LINE
  5
58
330
17
100
AcDbEntity
  8
FP-Roof
 62
8
100
AcDbLine
 10
-163.50486049273604
 20
17.24002552876493
 30
0.0
 11
-163.50486049291067
 21
12.196352682965994
 31
0.0
  0
LINE
  5
59
330
17
100
AcDbEntity
  8
FP-Roof
 62
8
100
AcDbLine
 10
-163.50485029191623
 20
9.818293027016011
 30
0.0
 11
-163.50485029191623
 21
1.0151097740163095e-09
 31
0.0
  0
LINE
  5
5A
330
17
100
AcDbEntity
  8
FP-Roof
 62
8
100
AcDbLine
 10
-163.22470908214018
 20
9.82066842272809
 30
0.0
 11
-123.23155628873792
 21
9.820410118438417
 31
0.0
  0
LINE
  5
5B
330
17
100
AcDbEntity
  8
FP-Roof
 62
8
100
AcDbLine
 10
-162.9828785321224
 20
17.24002552876857
 30
0.0
 11
-162.9828785323043
 21
12.19832908948058
 31
0.0
  0
LINE
  5
5C
330
17
100
AcDbEntity
  8
FP-Roof
 62
8
100
AcDbLine
 10
-162.98286833126622
 20
9.816316619619215
 30
0.0
 11
-162.98286833130987
 21
8.18658918433357e-10
 31
0.0
  0
LINE
  5
5D
330
17
100
AcDbEntity
  8
FP-Roof
 62
8
100
AcDbLine
 10
-162.98286833126622
 20
9.298684228115349
 30
0.0
 11
-123.23155628873792
 21
9.298425596294805
 31
0.0
  0
LINE
  5
5E
330
17
100
AcDbEntity
  8
FP-Roof
 62
8
100
AcDbLine
 10
-156.90500331917428
 20
17.36670187204811
 30
0.0
 11
-157.76506260863243
 21
15.877035475447087
 31
0.0
  0
LINE
  5
5F
330
17
100
AcDbEntity
  8
FP-Roof
 62
8
100
AcDbLine
 10
-157.02496961384168
 20
14.138904696365103
 30
0.0
 11
-156.02351387955423
 21
14.138904696365103
 31
0.0
  0
LINE
  5
60
330
17
100
AcDbEntity
  8
FP-Roof
 62
8
100
AcDbLine
 10
-156.78524292800284
 20
9.816316621461851
 30
0.0
 11
-156.78524292800284
 21
2.6631141736288555e-09
 31
0.0
  0
LINE
  5
61
330
17
100
AcDbEntity
  8
FP-Roof
 62
8
100
AcDbLine
 10
-156.78523272709572
 20
14.138904696365103
 30
0.0
 11
-156.7852327269502
 21
12.198329091128585
 31
0.0
  0
LINE
  5
62
330
17
100
AcDbEntity
  8
FP-Roof
 62
8
100
AcDbLine
 10
-156.26326096733828
 20
9.81829302856761
 30
0.0
 11
-156.26326096738194
 21
2.6631141736288555e-09
 31
0.0
  0
LINE
  5
63
330
17
100
AcDbEntity
  8
FP-Roof
 62
8
100
AcDbLine
 10
-156.26325076648936
 20
14.138904696365103
 30
0.0
 11
-156.26325076634384
 21
12.196352683933696
 31
0.0
  0
LINE
  5
64
330
17
100
AcDbEntity
  8
FP-Roof
 62
8
100
AcDbLine
 10
-156.152370612901
 20
17.36670187204811
 30
0.0
 11
-155.29231132344285
 21
15.877035475447087
 31
0.0
  0
LINE
  5
65
330
17
100
AcDbEntity
  8
FP-Roof
 62
8
100
AcDbLine
 10
-150.19426599132566
 20
17.36670187379616
 30
0.0
 11
-151.05432528078381
 21
15.877035477195136
 31
0.0
  0
LINE
  5
66
330
17
100
AcDbEntity
  8
FP-Roof
 62
8
100
AcDbLine
 10
-150.31423228598578
 20
14.138904698113151
 30
0.0
 11
-149.31277655169833
 21
14.138904698113151
 31
0.0
  0
LINE
  5
67
330
17
100
AcDbEntity
  8
FP-Roof
 62
8
100
AcDbLine
 10
-150.07450560014695
 20
9.8163166232099
 30
0.0
 11
-150.07450560014695
 21
4.4111629904364236e-09
 31
0.0
  0
LINE
  5
68
330
17
100
AcDbEntity
  8
FP-Roof
 62
8
100
AcDbLine
 10
-150.07449539923982
 20
14.138904698113151
 30
0.0
 11
-150.0744953990943
 21
12.198329092876634
 31
0.0
  0
LINE
  5
69
330
17
100
AcDbEntity
  8
FP-Roof
 62
8
100
AcDbLine
 10
-149.5525236394824
 20
9.818293030315658
 30
0.0
 11
-149.55252363953332
 21
4.4111629904364236e-09
 31
0.0
  0
LINE
  5
6A
330
17
100
AcDbEntity
  8
FP-Roof
 62
8
100
AcDbLine
 10
-149.55251343863347
 20
14.138904698113151
 30
0.0
 11
-149.55251343848795
 21
12.196352685681745
 31
0.0
  0
LINE
  5
6B
330
17
100
AcDbEntity
  8
FP-Roof
 62
8
100
AcDbLine
 10
-149.44163328505238
 20
17.36670187379616
 30
0.0
 11
-148.58157399559423
 21
15.877035477195136
 31
0.0
  0
LINE
  5
6C
330
17
100
AcDbEntity
  8
FP-Roof
 62
8
100
AcDbLine
 10
-143.48352866346977
 20
17.36670187554421
 30
0.0
 11
-144.34358795292792
 21
15.877035478943185
 31
0.0
  0
LINE
  5
6D
330
17
100
AcDbEntity
  8
FP-Roof
 62
8
100
AcDbLine
 10
-143.70747656712047
 20
9.820739480239467
 30
0.0
 11
-123.23155628873792
 21
9.820659739172811
 31
0.0
  0
LINE
  5
6E
330
17
100
AcDbEntity
  8
FP-Roof
 62
8
100
AcDbLine
 10
-143.60349495813716
 20
14.1389046998612
 30
0.0
 11
-142.60203922384972
 21
14.1389046998612
 31
0.0
  0
LINE
  5
6F
330
17
100
AcDbEntity
  8
FP-Roof
 62
8
100
AcDbLine
 10
-143.36376827229833
 20
9.816316624957949
 30
0.0
 11
-143.36376827229833
 21
6.159211807243992e-09
 31
0.0
  0
LINE
  5
70
330
17
100
AcDbEntity
  8
FP-Roof
 62
8
100
AcDbLine
 10
-143.3637580713912
 20
14.1389046998612
 30
0.0
 11
-143.36375807124568
 21
12.198329094624683
 31
0.0
  0
LINE
  5
71
330
17
100
AcDbEntity
  8
FP-Roof
 62
8
100
AcDbLine
 10
-142.84178631163377
 20
9.818293032063707
 30
0.0
 11
-142.84178631167742
 21
6.159211807243992e-09
 31
0.0
  0
LINE
  5
72
330
17
100
AcDbEntity
  8
FP-Roof
 62
8
100
AcDbLine
 10
-142.84177611078485
 20
14.1389046998612
 30
0.0
 11
-142.84177611063933
 21
12.196352687429794
 31
0.0
  0
LINE
  5
73
330
17
100
AcDbEntity
  8
FP-Roof
 62
8
100
AcDbLine
 10
-142.73089595719648
 20
17.36670187554421
 30
0.0
 11
-141.87083666773833
 21
15.877035478943185
 31
0.0
  0
LINE
  5
74
330
17
100
AcDbEntity
  8
FP-Roof
 62
8
100
AcDbLine
 10
-136.77279133562115
 20
17.366701877292257
 30
0.0
 11
-137.6328506250793
 21
15.877035480691234
 31
0.0
  0
LINE
  5
75
330
17
100
AcDbEntity
  8
FP-Roof
 62
8
100
AcDbLine
 10
-136.89275763028127
 20
14.138904701609249
 30
0.0
 11
-135.89130189599382
 21
14.138904701609249
 31
0.0
  0
LINE
  5
76
330
17
100
AcDbEntity
  8
FP-Roof
 62
8
100
AcDbLine
 10
-136.65303094444243
 20
9.816316626705998
 30
0.0
 11
-136.65303094444243
 21
7.90726062405156e-09
 31
0.0
  0
LINE
  5
77
330
17
100
AcDbEntity
  8
FP-Roof
 62
8
100
AcDbLine
 10
-136.6530207435353
 20
14.138904701609249
 30
0.0
 11
-136.6530207433898
 21
12.198329096372731
 31
0.0
  0
LINE
  5
78
330
17
100
AcDbEntity
  8
FP-Roof
 62
8
100
AcDbLine
 10
-136.13104898377787
 20
9.818293033811756
 30
0.0
 11
-136.1310489838288
 21
7.90726062405156e-09
 31
0.0
  0
LINE
  5
79
330
17
100
AcDbEntity
  8
FP-Roof
 62
8
100
AcDbLine
 10
-136.13103878292895
 20
14.138904701609249
 30
0.0
 11
-136.13103878278343
 21
12.196352689177843
 31
0.0
  0
LINE
  5
7A
330
17
100
AcDbEntity
  8
FP-Roof
 62
8
100
AcDbLine
 10
-136.02015862934786
 20
17.366701877292257
 30
0.0
 11
-135.1600993398897
 21
15.877035480691234
 31
0.0
  0
LINE
  5
7B
330
17
100
AcDbEntity
  8
FP-Roof
 62
8
100
AcDbLine
 10
-130.06205400776525
 20
17.366701879040306
 30
0.0
 11
-130.9221132972234
 21
15.877035482439283
 31
0.0
  0
LINE
  5
7C
330
17
100
AcDbEntity
  8
FP-Roof
 62
8
100
AcDbLine
 10
-130.18202030243265
 20
14.138904703357298
 30
0.0
 11
-129.1805645681452
 21
14.138904703357298
 31
0.0
  0
LINE
  5
7D
330
17
100
AcDbEntity
  8
FP-Roof
 62
8
100
AcDbLine
 10
-129.94229361659382
 20
9.816316628454047
 30
0.0
 11
-129.94229361659382
 21
9.655309440859128e-09
 31
0.0
  0
LINE
  5
7E
330
17
100
AcDbEntity
  8
FP-Roof
 62
8
100
AcDbLine
 10
-129.9422834156867
 20
14.138904703357298
 30
0.0
 11
-129.94228341554117
 21
12.19832909812078
 31
0.0
  0
LINE
  5
7F
330
17
100
AcDbEntity
  8
FP-Roof
 62
8
100
AcDbLine
 10
-129.42031165592925
 20
9.818293035559805
 30
0.0
 11
-129.4203116559729
 21
9.655309440859128e-09
 31
0.0
  0
LINE
  5
80
330
17
100
AcDbEntity
  8
FP-Roof
 62
8
100
AcDbLine
 10
-129.42030145508033
 20
14.138904703357298
 30
0.0
 11
-129.42030145493482
 21
12.196352690925892
 31
0.0
  0
LINE
  5
81
330
17
100
AcDbEntity
  8
FP-Roof
 62
8
100
AcDbLine
 10
-129.30942130149197
 20
17.366701879040306
 30
0.0
 11
-128.44936201203382
 21
15.877035482439283
 31
0.0
  0
LINE
  5
82
330
17
100
AcDbEntity
  8
FP-Roof
 62
8
100
AcDbLine
 10
-123.23155628876339
 20
14.36896381405677
 30
0.0
 11
-123.23155628869063
 21
0.004678689227148425
 31
0.0
  0
LINE
  5
83
330
17
100
AcDbEntity
  8
FP-Roof
 62
8
100
AcDbLine
 10
-122.44858334777746
 20
14.371928424850921
 30
0.0
 11
-122.44858334777746
 21
0.004678689227148425
 31
0.0
  0
LINE
  5
84
330
17
100
AcDbEntity
  8
FP-Roof
 62
8
100
AcDbLine
 10
-82.69727130524916
 20
9.29868422729669
 30
0.0
 11
-122.44858334777746
 21
9.298425595476147
 31
0.0
  0
LINE
  5
85
330
17
100
AcDbEntity
  8
FP-Roof
 62
8
100
AcDbLine
 10
-82.45543055438247
 20
9.820668421909431
 30
0.0
 11
-122.44858334777746
 21
9.820410117619758
 31
0.0
  0
LINE
  5
86
330
17
100
AcDbEntity
  8
FP-Roof
 62
8
100
AcDbLine
 10
-101.97266306939491
 20
9.820739479420808
 30
0.0
 11
-122.44858334777746
 21
9.820659738354152
 31
0.0
  0
LINE
  5
87
330
17
100
AcDbEntity
  8
FP-Roof
 62
8
100
AcDbLine
 10
-116.37071833502341
 20
17.366701878221647
 30
0.0
 11
-117.23077762448156
 21
15.877035481620624
 31
0.0
  0
LINE
  5
88
330
17
100
AcDbEntity
  8
FP-Roof
 62
8
100
AcDbLine
 10
-115.49811933409
 20
14.138904702538639
 30
0.0
 11
-116.49957506837745
 21
14.138904702538639
 31
0.0
  0
LINE
  5
89
330
17
100
AcDbEntity
  8
FP-Roof
 62
8
100
AcDbLine
 10
-116.25983818144232
 20
14.138904702538639
 30
0.0
 11
-116.25983818158784
 21
12.196352690107233
 31
0.0
  0
LINE
  5
8A
330
17
100
AcDbEntity
  8
FP-Roof
 62
8
100
AcDbLine
 10
-116.2598279805934
 20
9.818293034741146
 30
0.0
 11
-116.25982798054247
 21
8.83665052242577e-09
 31
0.0
  0
LINE
  5
8B
330
17
100
AcDbEntity
  8
FP-Roof
 62
8
100
AcDbLine
 10
-115.73785622083597
 20
14.138904702538639
 30
0.0
 11
-115.73785622098148
 21
12.198329097302121
 31
0.0
  0
LINE
  5
8C
330
17
100
AcDbEntity
  8
FP-Roof
 62
8
100
AcDbLine
 10
-115.73784601992884
 20
9.816316627635388
 30
0.0
 11
-115.73784601992884
 21
8.83665052242577e-09
 31
0.0
  0
LINE
  5
8D
330
17
100
AcDbEntity
  8
FP-Roof
 62
8
100
AcDbLine
 10
-115.61808562875012
 20
17.366701878221647
 30
0.0
 11
-114.75802633929197
 21
15.877035481620624
 31
0.0
  0
LINE
  5
8E
330
17
100
AcDbEntity
  8
FP-Roof
 62
8
100
AcDbLine
 10
-109.65998100717479
 20
17.3667018764736
 30
0.0
 11
-110.52004029663294
 21
15.877035479872575
 31
0.0
  0
LINE
  5
8F
330
17
100
AcDbEntity
  8
FP-Roof
 62
8
100
AcDbLine
 10
-108.78738200623411
 20
14.13890470079059
 30
0.0
 11
-109.78883774052156
 21
14.13890470079059
 31
0.0
  0
LINE
  5
90
330
17
100
AcDbEntity
  8
FP-Roof
 62
8
100
AcDbLine
 10
-109.54910085358642
 20
14.13890470079059
 30
0.0
 11
-109.54910085373194
 21
12.196352688359184
 31
0.0
  0
LINE
  5
91
330
17
100
AcDbEntity
  8
FP-Roof
 62
8
100
AcDbLine
 10
-109.5490906527375
 20
9.818293032993097
 30
0.0
 11
-109.54909065269385
 21
7.088601705618203e-09
 31
0.0
  0
LINE
  5
92
330
17
100
AcDbEntity
  8
FP-Roof
 62
8
100
AcDbLine
 10
-109.02711889298007
 20
14.13890470079059
 30
0.0
 11
-109.02711889312559
 21
12.198329095554072
 31
0.0
  0
LINE
  5
93
330
17
100
AcDbEntity
  8
FP-Roof
 62
8
100
AcDbLine
 10
-109.02710869207294
 20
9.816316625887339
 30
0.0
 11
-109.02710869207294
 21
7.088601705618203e-09
 31
0.0
  0
LINE
  5
94
330
17
100
AcDbEntity
  8
FP-Roof
 62
8
100
AcDbLine
 10
-108.9073483009015
 20
17.3667018764736
 30
0.0
 11
-108.04728901144335
 21
15.877035479872575
 31
0.0
  0
LINE
  5
95
330
17
100
AcDbEntity
  8
FP-Roof
 62
8
100
AcDbLine
 10
-102.9492436793189
 20
17.36670187472555
 30
0.0
 11
-103.80930296877705
 21
15.877035478124526
 31
0.0
  0
LINE
  5
96
330
17
100
AcDbEntity
  8
FP-Roof
 62
8
100
AcDbLine
 10
-102.07664467838549
 20
14.138904699042541
 30
0.0
 11
-103.07810041267294
 21
14.138904699042541
 31
0.0
  0
LINE
  5
97
330
17
100
AcDbEntity
  8
FP-Roof
 62
8
100
AcDbLine
 10
-102.8383635257378
 20
14.138904699042541
 30
0.0
 11
-102.83836352588332
 21
12.196352686611135
 31
0.0
  0
LINE
  5
98
330
17
100
AcDbEntity
  8
FP-Roof
 62
8
100
AcDbLine
 10
-102.83835332488889
 20
9.818293031245048
 30
0.0
 11
-102.83835332483795
 21
5.340552888810635e-09
 31
0.0
  0
LINE
  5
99
330
17
100
AcDbEntity
  8
FP-Roof
 62
8
100
AcDbLine
 10
-102.31638156513145
 20
14.138904699042541
 30
0.0
 11
-102.31638156527697
 21
12.198329093806024
 31
0.0
  0
LINE
  5
9A
330
17
100
AcDbEntity
  8
FP-Roof
 62
8
100
AcDbLine
 10
-102.31637136422432
 20
9.81631662413929
 30
0.0
 11
-102.31637136422432
 21
5.340552888810635e-09
 31
0.0
  0
LINE
  5
9B
330
17
100
AcDbEntity
  8
FP-Roof
 62
8
100
AcDbLine
 10
-102.19661097304561
 20
17.36670187472555
 30
0.0
 11
-101.33655168358746
 21
15.877035478124526
 31
0.0
  0
LINE
  5
9C
330
17
100
AcDbEntity
  8
FP-Roof
 62
8
100
AcDbLine
 10
-96.23850635147028
 20
17.3667018729775
 30
0.0
 11
-97.09856564092843
 21
15.877035476376477
 31
0.0
  0
LINE
  5
9D
330
17
100
AcDbEntity
  8
FP-Roof
 62
8
100
AcDbLine
 10
-95.3659073505296
 20
14.138904697294493
 30
0.0
 11
-96.36736308481704
 21
14.138904697294493
 31
0.0
  0
LINE
  5
9E
330
17
100
AcDbEntity
  8
FP-Roof
 62
8
100
AcDbLine
 10
-96.12762619788191
 20
14.138904697294493
 30
0.0
 11
-96.12762619802743
 21
12.196352684863086
 31
0.0
  0
LINE
  5
9F
330
17
100
AcDbEntity
  8
FP-Roof
 62
8
100
AcDbLine
 10
-96.12761599703299
 20
9.818293029497
 30
0.0
 11
-96.12761599698933
 21
3.5925040720030665e-09
 31
0.0
  0
LINE
  5
A0
330
17
100
AcDbEntity
  8
FP-Roof
 62
8
100
AcDbLine
 10
-95.60564423727556
 20
14.138904697294493
 30
0.0
 11
-95.60564423742107
 21
12.198329092057975
 31
0.0
  0
LINE
  5
A1
330
17
100
AcDbEntity
  8
FP-Roof
 62
8
100
AcDbLine
 10
-95.60563403636843
 20
9.816316622391241
 30
0.0
 11
-95.60563403636843
 21
3.5925040720030665e-09
 31
0.0
  0
LINE
  5
A2
330
17
100
AcDbEntity
  8
FP-Roof
 62
8
100
AcDbLine
 10
-95.48587364519699
 20
17.3667018729775
 30
0.0
 11
-94.62581435573884
 21
15.877035476376477
 31
0.0
  0
LINE
  5
A3
330
17
100
AcDbEntity
  8
FP-Roof
 62
8
100
AcDbLine
 10
-89.52776902361438
 20
17.366701871229452
 30
0.0
 11
-90.38782831307253
 21
15.877035474628428
 31
0.0
  0
LINE
  5
A4
330
17
100
AcDbEntity
  8
FP-Roof
 62
8
100
AcDbLine
 10
-88.65517002268098
 20
14.138904695546444
 30
0.0
 11
-89.65662575696842
 21
14.138904695546444
 31
0.0
  0
LINE
  5
A5
330
17
100
AcDbEntity
  8
FP-Roof
 62
8
100
AcDbLine
 10
-89.41688887003329
 20
14.138904695546444
 30
0.0
 11
-89.41688887017881
 21
12.196352683115038
 31
0.0
  0
LINE
  5
A6
330
17
100
AcDbEntity
  8
FP-Roof
 62
8
100
AcDbLine
 10
-89.41687866918437
 20
9.81829302774895
 30
0.0
 11
-89.41687866913344
 21
1.8444552551954985e-09
 31
0.0
  0
LINE
  5
A7
330
17
100
AcDbEntity
  8
FP-Roof
 62
8
100
AcDbLine
 10
-88.89490690942694
 20
14.138904695546444
 30
0.0
 11
-88.89490690957246
 21
12.198329090309926
 31
0.0
  0
LINE
  5
A8
330
17
100
AcDbEntity
  8
FP-Roof
 62
8
100
AcDbLine
 10
-88.89489670851981
 20
9.816316620643192
 30
0.0
 11
-88.89489670851981
 21
1.8444552551954985e-09
 31
0.0
  0
LINE
  5
A9
330
17
100
AcDbEntity
  8
FP-Roof
 62
8
100
AcDbLine
 10
-88.7751363173411
 20
17.366701871229452
 30
0.0
 11
-87.91507702788294
 21
15.877035474628428
 31
0.0
  0
LINE
  5
AA
330
17
100
AcDbEntity
  8
FP-Roof
 62
8
100
AcDbLine
 10
-83.18513931498092
 20
17.240025527946273
 30
0.0
 11
-81.68295571348062
 21
17.240025527946273
 31
0.0
  0
LINE
  5
AB
330
17
100
AcDbEntity
  8
FP-Roof
 62
8
100
AcDbLine
 10
-82.69727130525644
 20
9.816316618800556
 30
0.0
 11
-82.6972713052055
 21
0.0
 31
0.0
  0
LINE
  5
AC
330
17
100
AcDbEntity
  8
FP-Roof
 62
8
100
AcDbLine
 10
-82.69726110439296
 20
17.24002552794991
 30
0.0
 11
-82.69726110421107
 21
12.198329088661922
 31
0.0
  0
LINE
  5
AD
330
17
100
AcDbEntity
  8
FP-Roof
 62
8
100
AcDbLine
 10
-82.4260001322582
 20
9.820668421909431
 30
0.0
 11
-42.4195007345952
 21
9.820498954653885
 31
0.0
  0
LINE
  5
AE
330
17
100
AcDbEntity
  8
FP-Roof
 62
8
100
AcDbLine
 10
-82.17528934459915
 20
9.818293026197352
 30
0.0
 11
-82.17528934459915
 21
1.964508555829525e-10
 31
0.0
  0
LINE
  5
AF
330
17
100
AcDbEntity
  8
FP-Roof
 62
8
100
AcDbLine
 10
-82.17528934459915
 20
9.298684154153307
 30
0.0
 11
-42.4195007345952
 21
9.298514995791265
 31
0.0
  0
LINE
  5
B0
330
17
100
AcDbEntity
  8
FP-Roof
 62
8
100
AcDbLine
 10
-82.17527914378661
 20
17.240025527946273
 30
0.0
 11
-82.17527914360471
 21
12.196352682147335
 31
0.0
  0
LINE
  5
B1
330
17
100
AcDbEntity
  8
FP-Roof
 62
8
100
AcDbLine
 10
-76.10629436854288
 20
17.366701871229452
 30
0.0
 11
-76.96635365800103
 21
15.877035474628428
 31
0.0
  0
LINE
  5
B2
330
17
100
AcDbEntity
  8
FP-Roof
 62
8
100
AcDbLine
 10
-76.22626066321027
 20
14.138904695546444
 30
0.0
 11
-75.22480492892282
 21
14.138904695546444
 31
0.0
  0
LINE
  5
B3
330
17
100
AcDbEntity
  8
FP-Roof
 62
8
100
AcDbLine
 10
-75.98653397737144
 20
9.816316620643192
 30
0.0
 11
-75.98653397737144
 21
1.8444552551954985e-09
 31
0.0
  0
LINE
  5
B4
330
17
100
AcDbEntity
  8
FP-Roof
 62
8
100
AcDbLine
 10
-75.98652377646431
 20
14.138904695546444
 30
0.0
 11
-75.98652377631879
 21
12.198329090309926
 31
0.0
  0
LINE
  5
B5
330
17
100
AcDbEntity
  8
FP-Roof
 62
8
100
AcDbLine
 10
-75.46455201670688
 20
9.81829302774895
 30
0.0
 11
-75.46455201675053
 21
1.8444552551954985e-09
 31
0.0
  0
LINE
  5
B6
330
17
100
AcDbEntity
  8
FP-Roof
 62
8
100
AcDbLine
 10
-75.46454181585796
 20
14.138904695546444
 30
0.0
 11
-75.46454181571244
 21
12.196352683115038
 31
0.0
  0
LINE
  5
B7
330
17
100
AcDbEntity
  8
FP-Roof
 62
8
100
AcDbLine
 10
-75.35366166226959
 20
17.366701871229452
 30
0.0
 11
-74.49360237281144
 21
15.877035474628428
 31
0.0
  0
LINE
  5
B8
330
17
100
AcDbEntity
  8
FP-Roof
 62
8
100
AcDbLine
 10
-69.39555704069426
 20
17.3667018729775
 30
0.0
 11
-70.2556163301524
 21
15.877035476376477
 31
0.0
  0
LINE
  5
B9
330
17
100
AcDbEntity
  8
FP-Roof
 62
8
100
AcDbLine
 10
-69.51552333535437
 20
14.138904697294493
 30
0.0
 11
-68.51406760106693
 21
14.138904697294493
 31
0.0
  0
LINE
  5
BA
330
17
100
AcDbEntity
  8
FP-Roof
 62
8
100
AcDbLine
 10
-69.27579664951554
 20
9.816316622391241
 30
0.0
 11
-69.27579664951554
 21
3.5925040720030665e-09
 31
0.0
  0
LINE
  5
BB
330
17
100
AcDbEntity
  8
FP-Roof
 62
8
100
AcDbLine
 10
-69.27578644860841
 20
14.138904697294493
 30
0.0
 11
-69.2757864484629
 21
12.198329092057975
 31
0.0
  0
LINE
  5
BC
330
17
100
AcDbEntity
  8
FP-Roof
 62
8
100
AcDbLine
 10
-68.75381468885098
 20
9.818293029497
 30
0.0
 11
-68.75381468890191
 21
3.5925040720030665e-09
 31
0.0
  0
LINE
  5
BD
330
17
100
AcDbEntity
  8
FP-Roof
 62
8
100
AcDbLine
 10
-68.75380448800206
 20
14.138904697294493
 30
0.0
 11
-68.75380448785654
 21
12.196352684863086
 31
0.0
  0
LINE
  5
BE
330
17
100
AcDbEntity
  8
FP-Roof
 62
8
100
AcDbLine
 10
-68.64292433442097
 20
17.3667018729775
 30
0.0
 11
-67.78286504496282
 21
15.877035476376477
 31
0.0
  0
LINE
  5
BF
330
17
100
AcDbEntity
  8
FP-Roof
 62
8
100
AcDbLine
 10
-62.68481971283836
 20
17.36670187472555
 30
0.0
 11
-63.54487900229651
 21
15.877035478124526
 31
0.0
  0
LINE
  5
C0
330
17
100
AcDbEntity
  8
FP-Roof
 62
8
100
AcDbLine
 10
-62.804786007505754
 20
14.138904699042541
 30
0.0
 11
-61.80333027321831
 21
14.138904699042541
 31
0.0
  0
LINE
  5
C1
330
17
100
AcDbEntity
  8
FP-Roof
 62
8
100
AcDbLine
 10
-62.56505932166692
 20
9.81631662413929
 30
0.0
 11
-62.56505932166692
 21
5.340552888810635e-09
 31
0.0
  0
LINE
  5
C2
330
17
100
AcDbEntity
  8
FP-Roof
 62
8
100
AcDbLine
 10
-62.565049120759795
 20
14.138904699042541
 30
0.0
 11
-62.565049120614276
 21
12.198329093806024
 31
0.0
  0
LINE
  5
C3
330
17
100
AcDbEntity
  8
FP-Roof
 62
8
100
AcDbLine
 10
-62.04307736100236
 20
9.818293031245048
 30
0.0
 11
-62.04307736104602
 21
5.340552888810635e-09
 31
0.0
  0
LINE
  5
C4
330
17
100
AcDbEntity
  8
FP-Roof
 62
8
100
AcDbLine
 10
-62.04306716015344
 20
14.138904699042541
 30
0.0
 11
-62.04306716000792
 21
12.196352686611135
 31
0.0
  0
LINE
  5
C5
330
17
100
AcDbEntity
  8
FP-Roof
 62
8
100
AcDbLine
 10
-61.93218700656507
 20
17.36670187472555
 30
0.0
 11
-61.07212771710692
 21
15.877035478124526
 31
0.0
  0
LINE
  5
C6
330
17
100
AcDbEntity
  8
FP-Roof
 62
8
100
AcDbLine
 10
-55.97408238498974
 20
17.3667018764736
 30
0.0
 11
-56.83414167444789
 21
15.877035479872575
 31
0.0
  0
LINE
  5
C7
330
17
100
AcDbEntity
  8
FP-Roof
 62
8
100
AcDbLine
 10
-56.09404867964986
 20
14.13890470079059
 30
0.0
 11
-55.09259294536241
 21
14.13890470079059
 31
0.0
  0
LINE
  5
C8
330
17
100
AcDbEntity
  8
FP-Roof
 62
8
100
AcDbLine
 10
-55.85432199381103
 20
9.816316625887339
 30
0.0
 11
-55.85432199381103
 21
7.088601705618203e-09
 31
0.0
  0
LINE
  5
C9
330
17
100
AcDbEntity
  8
FP-Roof
 62
8
100
AcDbLine
 10
-55.8543117929039
 20
14.13890470079059
 30
0.0
 11
-55.85431179275838
 21
12.198329095554072
 31
0.0
  0
LINE
  5
CA
330
17
100
AcDbEntity
  8
FP-Roof
 62
8
100
AcDbLine
 10
-55.332340033146465
 20
9.818293032993097
 30
0.0
 11
-55.3323400331974
 21
7.088601705618203e-09
 31
0.0
  0
LINE
  5
CB
330
17
100
AcDbEntity
  8
FP-Roof
 62
8
100
AcDbLine
 10
-55.332329832297546
 20
14.13890470079059
 30
0.0
 11
-55.33232983215203
 21
12.196352688359184
 31
0.0
  0
LINE
  5
CC
330
17
100
AcDbEntity
  8
FP-Roof
 62
8
100
AcDbLine
 10
-55.22144967871645
 20
17.3667018764736
 30
0.0
 11
-54.361390389258304
 21
15.877035479872575
 31
0.0
  0
LINE
  5
CD
330
17
100
AcDbEntity
  8
FP-Roof
 62
8
100
AcDbLine
 10
-49.26334505713385
 20
17.366701878221647
 30
0.0
 11
-50.123404346592
 21
15.877035481620624
 31
0.0
  0
LINE
  5
CE
330
17
100
AcDbEntity
  8
FP-Roof
 62
8
100
AcDbLine
 10
-49.38331135180124
 20
14.138904702538639
 30
0.0
 11
-48.38185561751379
 21
14.138904702538639
 31
0.0
  0
LINE
  5
CF
330
17
100
AcDbEntity
  8
FP-Roof
 62
8
100
AcDbLine
 10
-49.14358466596241
 20
9.816316627635388
 30
0.0
 11
-49.14358466596241
 21
8.83665052242577e-09
 31
0.0
  0
LINE
  5
D0
330
17
100
AcDbEntity
  8
FP-Roof
 62
8
100
AcDbLine
 10
-49.14357446505528
 20
14.138904702538639
 30
0.0
 11
-49.14357446490976
 21
12.198329097302121
 31
0.0
  0
LINE
  5
D1
330
17
100
AcDbEntity
  8
FP-Roof
 62
8
100
AcDbLine
 10
-48.621602705297846
 20
9.818293034741146
 30
0.0
 11
-48.6216027053415
 21
8.83665052242577e-09
 31
0.0
  0
LINE
  5
D2
330
17
100
AcDbEntity
  8
FP-Roof
 62
8
100
AcDbLine
 10
-48.62159250444893
 20
14.138904702538639
 30
0.0
 11
-48.62159250430341
 21
12.196352690107233
 31
0.0
  0
LINE
  5
D3
330
17
100
AcDbEntity
  8
FP-Roof
 62
8
100
AcDbLine
 10
-48.51071235086056
 20
17.366701878221647
 30
0.0
 11
-47.65065306140241
 21
15.877035481620624
 31
0.0
  0
LINE
  5
D4
330
17
100
AcDbEntity
  8
FP-Roof
 62
8
100
AcDbLine
 10
-42.419481077016826
 20
14.36896381405677
 30
0.0
 11
-42.419481076944066
 21
0.004678689227148425
 31
0.0
  0
LINE
  5
D5
330
17
100
AcDbEntity
  8
FP-Roof
 62
8
100
AcDbLine
 10
-1.8940661295382597
 20
9.298684154153307
 30
0.0
 11
-41.64985473954948
 21
9.298514995791265
 31
0.0
  0
LINE
  5
D6
330
17
100
AcDbEntity
  8
FP-Roof
 62
8
100
AcDbLine
 10
-1.6433553418792144
 20
9.820668421909431
 30
0.0
 11
-41.64985473954948
 21
9.820498954653885
 31
0.0
  0
LINE
  5
D7
330
17
100
AcDbEntity
  8
FP-Roof
 62
8
100
AcDbLine
 10
-41.6365081360309
 20
14.371928424850921
 30
0.0
 11
-41.6365081360309
 21
0.004678689227148425
 31
0.0
  0
LINE
  5
D8
330
17
100
AcDbEntity
  8
FP-Roof
 62
8
100
AcDbLine
 10
-35.55864312327685
 20
17.366701878221647
 30
0.0
 11
-36.418702412735
 21
15.877035481620624
 31
0.0
  0
LINE
  5
D9
330
17
100
AcDbEntity
  8
FP-Roof
 62
8
100
AcDbLine
 10
-34.686044122343446
 20
14.138904702538639
 30
0.0
 11
-35.68749985663089
 21
14.138904702538639
 31
0.0
  0
LINE
  5
DA
330
17
100
AcDbEntity
  8
FP-Roof
 62
8
100
AcDbLine
 10
-35.44776296969576
 20
14.138904702538639
 30
0.0
 11
-35.44776296984128
 21
12.196352690107233
 31
0.0
  0
LINE
  5
DB
330
17
100
AcDbEntity
  8
FP-Roof
 62
8
100
AcDbLine
 10
-35.44775276884684
 20
9.818293034741146
 30
0.0
 11
-35.44775276879591
 21
8.83665052242577e-09
 31
0.0
  0
LINE
  5
DC
330
17
100
AcDbEntity
  8
FP-Roof
 62
8
100
AcDbLine
 10
-34.925781009089405
 20
14.138904702538639
 30
0.0
 11
-34.925781009234925
 21
12.198329097302121
 31
0.0
  0
LINE
  5
DD
330
17
100
AcDbEntity
  8
FP-Roof
 62
8
100
AcDbLine
 10
-34.92577080818228
 20
9.816316627635388
 30
0.0
 11
-34.92577080818228
 21
8.83665052242577e-09
 31
0.0
  0
LINE
  5
DE
330
17
100
AcDbEntity
  8
FP-Roof
 62
8
100
AcDbLine
 10
-34.80601041700356
 20
17.366701878221647
 30
0.0
 11
-33.94595112754541
 21
15.877035481620624
 31
0.0
  0
LINE
  5
DF
330
17
100
AcDbEntity
  8
FP-Roof
 62
8
100
AcDbLine
 10
-28.847905795428233
 20
17.3667018764736
 30
0.0
 11
-29.707965084886382
 21
15.877035479872575
 31
0.0
  0
LINE
  5
E0
330
17
100
AcDbEntity
  8
FP-Roof
 62
8
100
AcDbLine
 10
-27.97530679448755
 20
14.13890470079059
 30
0.0
 11
-28.976762528774998
 21
14.13890470079059
 31
0.0
  0
LINE
  5
E1
330
17
100
AcDbEntity
  8
FP-Roof
 62
8
100
AcDbLine
 10
-28.737025641839864
 20
14.13890470079059
 30
0.0
 11
-28.737025641985383
 21
12.196352688359184
 31
0.0
  0
LINE
  5
E2
330
17
100
AcDbEntity
  8
FP-Roof
 62
8
100
AcDbLine
 10
-28.737015440990945
 20
9.818293032993097
 30
0.0
 11
-28.73701544094729
 21
7.088601705618203e-09
 31
0.0
  0
LINE
  5
E3
330
17
100
AcDbEntity
  8
FP-Roof
 62
8
100
AcDbLine
 10
-28.21504368123351
 20
14.13890470079059
 30
0.0
 11
-28.21504368137903
 21
12.198329095554072
 31
0.0
  0
LINE
  5
E4
330
17
100
AcDbEntity
  8
FP-Roof
 62
8
100
AcDbLine
 10
-28.215033480326383
 20
9.816316625887339
 30
0.0
 11
-28.215033480326383
 21
7.088601705618203e-09
 31
0.0
  0
LINE
  5
E5
330
17
100
AcDbEntity
  8
FP-Roof
 62
8
100
AcDbLine
 10
-28.095273089154944
 20
17.3667018764736
 30
0.0
 11
-27.235213799696794
 21
15.877035479872575
 31
0.0
  0
LINE
  5
E6
330
17
100
AcDbEntity
  8
FP-Roof
 62
8
100
AcDbLine
 10
-22.137168467572337
 20
17.36670187472555
 30
0.0
 11
-22.997227757030487
 21
15.877035478124526
 31
0.0
  0
LINE
  5
E7
330
17
100
AcDbEntity
  8
FP-Roof
 62
8
100
AcDbLine
 10
-21.26456946663893
 20
14.138904699042541
 30
0.0
 11
-22.26602520092638
 21
14.138904699042541
 31
0.0
  0
LINE
  5
E8
330
17
100
AcDbEntity
  8
FP-Roof
 62
8
100
AcDbLine
 10
-22.026288313991245
 20
14.138904699042541
 30
0.0
 11
-22.026288314136764
 21
12.196352686611135
 31
0.0
  0
LINE
  5
E9
330
17
100
AcDbEntity
  8
FP-Roof
 62
8
100
AcDbLine
 10
-22.026278113142325
 20
9.818293031245048
 30
0.0
 11
-22.026278113091394
 21
5.340552888810635e-09
 31
0.0
  0
LINE
  5
EA
330
17
100
AcDbEntity
  8
FP-Roof
 62
8
100
AcDbLine
 10
-21.50430635338489
 20
14.138904699042541
 30
0.0
 11
-21.50430635353041
 21
12.198329093806024
 31
0.0
  0
LINE
  5
EB
330
17
100
AcDbEntity
  8
FP-Roof
 62
8
100
AcDbLine
 10
-21.504296152477764
 20
9.81631662413929
 30
0.0
 11
-21.504296152477764
 21
5.340552888810635e-09
 31
0.0
  0
LINE
  5
EC
330
17
100
AcDbEntity
  8
FP-Roof
 62
8
100
AcDbLine
 10
-21.38453576129905
 20
17.36670187472555
 30
0.0
 11
-20.5244764718409
 21
15.877035478124526
 31
0.0
  0
LINE
  5
ED
330
17
100
AcDbEntity
  8
EL-Roof
 62
1
100
AcDbLine
 10
205.70776365795973
 20
0.004683972962197913
 30
0.0
 11
-20.000000000003638
 21
0.004670129094847653
 31
0.0
  0
LINE
  5
EE
330
17
100
AcDbEntity
  8
FP-Roof
 62
8
100
AcDbLine
 10
-15.426431139723718
 20
17.3667018729775
 30
0.0
 11
-16.286490429181868
 21
15.877035476376477
 31
0.0
  0
LINE
  5
EF
330
17
100
AcDbEntity
  8
FP-Roof
 62
8
100
AcDbLine
 10
-14.553832138783036
 20
14.138904697294493
 30
0.0
 11
-15.555287873070483
 21
14.138904697294493
 31
0.0
  0
LINE
  5
F0
330
17
100
AcDbEntity
  8
FP-Roof
 62
8
100
AcDbLine
 10
-15.31555098613535
 20
14.138904697294493
 30
0.0
 11
-15.315550986280869
 21
12.196352684863086
 31
0.0
  0
LINE
  5
F1
330
17
100
AcDbEntity
  8
FP-Roof
 62
8
100
AcDbLine
 10
-15.31554078528643
 20
9.818293029497
 30
0.0
 11
-15.315540785242774
 21
3.5925040720030665e-09
 31
0.0
  0
LINE
  5
F2
330
17
100
AcDbEntity
  8
FP-Roof
 62
8
100
AcDbLine
 10
-14.793569025528996
 20
14.138904697294493
 30
0.0
 11
-14.793569025674515
 21
12.198329092057975
 31
0.0
  0
LINE
  5
F3
330
17
100
AcDbEntity
  8
FP-Roof
 62
8
100
AcDbLine
 10
-14.793558824621869
 20
9.816316622391241
 30
0.0
 11
-14.793558824621869
 21
3.5925040720030665e-09
 31
0.0
  0
LINE
  5
F4
330
17
100
AcDbEntity
  8
FP-Roof
 62
8
100
AcDbLine
 10
-14.673798433450429
 20
17.3667018729775
 30
0.0
 11
-13.81373914399228
 21
15.877035476376477
 31
0.0
  0
LINE
  5
F5
330
17
100
AcDbEntity
  8
FP-Roof
 62
8
100
AcDbLine
 10
-8.715693811867823
 20
17.366701871229452
 30
0.0
 11
-9.575753101325972
 21
15.877035474628428
 31
0.0
  0
LINE
  5
F6
330
17
100
AcDbEntity
  8
FP-Roof
 62
8
100
AcDbLine
 10
-7.843094810934417
 20
14.138904695546444
 30
0.0
 11
-8.844550545221864
 21
14.138904695546444
 31
0.0
  0
LINE
  5
F7
330
17
100
AcDbEntity
  8
FP-Roof
 62
8
100
AcDbLine
 10
-8.60481365828673
 20
14.138904695546444
 30
0.0
 11
-8.60481365843225
 21
12.196352683115038
 31
0.0
  0
LINE
  5
F8
330
17
100
AcDbEntity
  8
FP-Roof
 62
8
100
AcDbLine
 10
-8.60480345743781
 20
9.81829302774895
 30
0.0
 11
-8.604803457386879
 21
1.8444552551954985e-09
 31
0.0
  0
LINE
  5
F9
330
17
100
AcDbEntity
  8
FP-Roof
 62
8
100
AcDbLine
 10
-8.082831697680376
 20
14.138904695546444
 30
0.0
 11
-8.082831697825895
 21
12.198329090309926
 31
0.0
  0
LINE
  5
FA
330
17
100
AcDbEntity
  8
FP-Roof
 62
8
100
AcDbLine
 10
-8.08282149677325
 20
9.816316620643192
 30
0.0
 11
-8.08282149677325
 21
1.8444552551954985e-09
 31
0.0
  0
LINE
  5
FB
330
17
100
AcDbEntity
  8
FP-Roof
 62
8
100
AcDbLine
 10
-7.963061105594534
 20
17.366701871229452
 30
0.0
 11
-7.103001816136384
 21
15.877035474628428
 31
0.0
  0
LINE
  5
FC
330
17
100
AcDbEntity
  8
FP-Roof
 62
8
100
AcDbLine
 10
-0.8842161591564945
 20
17.240025527946273
 30
0.0
 11
-2.3863997606567864
 21
17.240025527946273
 31
0.0
  0
LINE
  5
FD
330
17
100
AcDbEntity
  8
FP-Roof
 62
8
100
AcDbLine
 10
-1.8940763303580752
 20
17.240025527946273
 30
0.0
 11
-1.8940763305326982
 21
12.196352682147335
 31
0.0
  0
LINE
  5
FE
330
17
100
AcDbEntity
  8
FP-Roof
 62
8
100
AcDbLine
 10
-1.8940661295382597
 20
9.818293026197352
 30
0.0
 11
-1.8940661295382597
 21
1.964508555829525e-10
 31
0.0
  0
LINE
  5
FF
330
17
100
AcDbEntity
  8
FP-Roof
 62
8
100
AcDbLine
 10
-1.613924919762212
 20
9.820668421909431
 30
0.0
 11
38.37922787364005
 21
9.820410117619758
 31
0.0
  0
LINE
  5
100
330
17
100
AcDbEntity
  8
FP-Roof
 62
8
100
AcDbLine
 10
-1.3720943697444454
 20
17.24002552794991
 30
0.0
 11
-1.3720943699263444
 21
12.198329088661922
 31
0.0
  0
LINE
  5
101
330
17
100
AcDbEntity
  8
FP-Roof
 62
8
100
AcDbLine
 10
-1.3720841688882501
 20
9.816316618800556
 30
0.0
 11
-1.3720841689319059
 21
0.0
 31
0.0
  0
LINE
  5
102
330
17
100
AcDbEntity
  8
FP-Roof
 62
8
100
AcDbLine
 10
-1.3720841688882501
 20
9.29868422729669
 30
0.0
 11
38.37922787364005
 21
9.298425595476147
 31
0.0
  0
LINE
  5
103
330
17
100
AcDbEntity
  8
FP-Roof
 62
8
100
AcDbLine
 10
4.705780843203684
 20
17.366701871229452
 30
0.0
 11
3.845721553745534
 21
15.877035474628428
 31
0.0
  0
LINE
  5
104
330
17
100
AcDbEntity
  8
FP-Roof
 62
8
100
AcDbLine
 10
4.585814548536291
 20
14.138904695546444
 30
0.0
 11
5.587270282823738
 21
14.138904695546444
 31
0.0
  0
LINE
  5
105
330
17
100
AcDbEntity
  8
FP-Roof
 62
8
100
AcDbLine
 10
4.825541234375123
 20
9.816316620643192
 30
0.0
 11
4.825541234375123
 21
1.8444552551954985e-09
 31
0.0
  0
LINE
  5
106
330
17
100
AcDbEntity
  8
FP-Roof
 62
8
100
AcDbLine
 10
4.82555143528225
 20
14.138904695546444
 30
0.0
 11
4.825551435427769
 21
12.198329090309926
 31
0.0
  0
LINE
  5
107
330
17
100
AcDbEntity
  8
FP-Roof
 62
8
100
AcDbLine
 10
5.347523195039685
 20
9.81829302774895
 30
0.0
 11
5.347523194996029
 21
1.8444552551954985e-09
 31
0.0
  0
LINE
  5
108
330
17
100
AcDbEntity
  8
FP-Roof
 62
8
100
AcDbLine
 10
5.347533395888604
 20
14.138904695546444
 30
0.0
 11
5.347533396034123
 21
12.196352683115038
 31
0.0
  0
LINE
  5
109
330
17
100
AcDbEntity
  8
FP-Roof
 62
8
100
AcDbLine
 10
5.4584135494769725
 20
17.366701871229452
 30
0.0
 11
6.318472838935122
 21
15.877035474628428
 31
0.0
  0
LINE
  5
10A
330
17
100
AcDbEntity
  8
FP-Roof
 62
8
100
AcDbLine
 10
11.416518171052303
 20
17.3667018729775
 30
0.0
 11
10.556458881594153
 21
15.877035476376477
 31
0.0
  0
LINE
  5
10B
330
17
100
AcDbEntity
  8
FP-Roof
 62
8
100
AcDbLine
 10
11.296551876392186
 20
14.138904697294493
 30
0.0
 11
12.298007610679633
 21
14.138904697294493
 31
0.0
  0
LINE
  5
10C
330
17
100
AcDbEntity
  8
FP-Roof
 62
8
100
AcDbLine
 10
11.536278562231018
 20
9.816316622391241
 30
0.0
 11
11.536278562231018
 21
3.5925040720030665e-09
 31
0.0
  0
LINE
  5
10D
330
17
100
AcDbEntity
  8
FP-Roof
 62
8
100
AcDbLine
 10
11.536288763138145
 20
14.138904697294493
 30
0.0
 11
11.536288763283665
 21
12.198329092057975
 31
0.0
  0
LINE
  5
10E
330
17
100
AcDbEntity
  8
FP-Roof
 62
8
100
AcDbLine
 10
12.05826052289558
 20
9.818293029497
 30
0.0
 11
12.058260522844648
 21
3.5925040720030665e-09
 31
0.0
  0
LINE
  5
10F
330
17
100
AcDbEntity
  8
FP-Roof
 62
8
100
AcDbLine
 10
12.0582707237445
 20
14.138904697294493
 30
0.0
 11
12.058270723890018
 21
12.196352684863086
 31
0.0
  0
LINE
  5
110
330
17
100
AcDbEntity
  8
FP-Roof
 62
8
100
AcDbLine
 10
12.169150877325592
 20
17.3667018729775
 30
0.0
 11
13.029210166783741
 21
15.877035476376477
 31
0.0
  0
LINE
  5
111
330
17
100
AcDbEntity
  8
FP-Roof
 62
8
100
AcDbLine
 10
18.127255498908198
 20
17.36670187472555
 30
0.0
 11
17.26719620945005
 21
15.877035478124526
 31
0.0
  0
LINE
  5
112
330
17
100
AcDbEntity
  8
FP-Roof
 62
8
100
AcDbLine
 10
17.903307595257502
 20
9.820739479420808
 30
0.0
 11
38.37922787364005
 21
9.820659738354152
 31
0.0
  0
LINE
  5
113
330
17
100
AcDbEntity
  8
FP-Roof
 62
8
100
AcDbLine
 10
18.007289204240806
 20
14.138904699042541
 30
0.0
 11
19.008744938528253
 21
14.138904699042541
 31
0.0
  0
LINE
  5
114
330
17
100
AcDbEntity
  8
FP-Roof
 62
8
100
AcDbLine
 10
18.247015890079638
 20
9.81631662413929
 30
0.0
 11
18.247015890079638
 21
5.340552888810635e-09
 31
0.0
  0
LINE
  5
115
330
17
100
AcDbEntity
  8
FP-Roof
 62
8
100
AcDbLine
 10
18.247026090986765
 20
14.138904699042541
 30
0.0
 11
18.247026091132284
 21
12.198329093806024
 31
0.0
  0
LINE
  5
116
330
17
100
AcDbEntity
  8
FP-Roof
 62
8
100
AcDbLine
 10
18.7689978507442
 20
9.818293031245048
 30
0.0
 11
18.768997850700543
 21
5.340552888810635e-09
 31
0.0
  0
LINE
  5
117
330
17
100
AcDbEntity
  8
FP-Roof
 62
8
100
AcDbLine
 10
18.76900805159312
 20
14.138904699042541
 30
0.0
 11
18.769008051738638
 21
12.196352686611135
 31
0.0
  0
LINE
  5
118
330
17
100
AcDbEntity
  8
FP-Roof
 62
8
100
AcDbLine
 10
18.879888205181487
 20
17.36670187472555
 30
0.0
 11
19.739947494639637
 21
15.877035478124526
 31
0.0
  0
LINE
  5
119
330
17
100
AcDbEntity
  8
FP-Roof
 62
8
100
AcDbLine
 10
24.837992826756818
 20
17.3667018764736
 30
0.0
 11
23.977933537298668
 21
15.877035479872575
 31
0.0
  0
LINE
  5
11A
330
17
100
AcDbEntity
  8
FP-Roof
 62
8
100
AcDbLine
 10
24.7180265320967
 20
14.13890470079059
 30
0.0
 11
25.719482266384148
 21
14.13890470079059
 31
0.0
  0
LINE
  5
11B
330
17
100
AcDbEntity
  8
FP-Roof
 62
8
100
AcDbLine
 10
24.957753217935533
 20
9.816316625887339
 30
0.0
 11
24.957753217935533
 21
7.088601705618203e-09
 31
0.0
  0
LINE
  5
11C
330
17
100
AcDbEntity
  8
FP-Roof
 62
8
100
AcDbLine
 10
24.95776341884266
 20
14.13890470079059
 30
0.0
 11
24.95776341898818
 21
12.198329095554072
 31
0.0
  0
LINE
  5
11D
330
17
100
AcDbEntity
  8
FP-Roof
 62
8
100
AcDbLine
 10
25.479735178600095
 20
9.818293032993097
 30
0.0
 11
25.479735178549163
 21
7.088601705618203e-09
 31
0.0
  0
LINE
  5
11E
330
17
100
AcDbEntity
  8
FP-Roof
 62
8
100
AcDbLine
 10
25.479745379449014
 20
14.13890470079059
 30
0.0
 11
25.479745379594533
 21
12.196352688359184
 31
0.0
  0
LINE
  5
11F
330
17
100
AcDbEntity
  8
FP-Roof
 62
8
100
AcDbLine
 10
25.590625533030106
 20
17.3667018764736
 30
0.0
 11
26.450684822488256
 21
15.877035479872575
 31
0.0
  0
LINE
  5
120
330
17
100
AcDbEntity
  8
FP-Roof
 62
8
100
AcDbLine
 10
31.548730154612713
 20
17.366701878221647
 30
0.0
 11
30.688670865154563
 21
15.877035481620624
 31
0.0
  0
LINE
  5
121
330
17
100
AcDbEntity
  8
FP-Roof
 62
8
100
AcDbLine
 10
31.42876385994532
 20
14.138904702538639
 30
0.0
 11
32.43021959423277
 21
14.138904702538639
 31
0.0
  0
LINE
  5
122
330
17
100
AcDbEntity
  8
FP-Roof
 62
8
100
AcDbLine
 10
31.668490545784152
 20
9.816316627635388
 30
0.0
 11
31.668490545784152
 21
8.83665052242577e-09
 31
0.0
  0
LINE
  5
123
330
17
100
AcDbEntity
  8
FP-Roof
 62
8
100
AcDbLine
 10
31.66850074669128
 20
14.138904702538639
 30
0.0
 11
31.6685007468368
 21
12.198329097302121
 31
0.0
  0
LINE
  5
124
330
17
100
AcDbEntity
  8
FP-Roof
 62
8
100
AcDbLine
 10
32.190472506448714
 20
9.818293034741146
 30
0.0
 11
32.19047250640506
 21
8.83665052242577e-09
 31
0.0
  0
LINE
  5
125
330
17
100
AcDbEntity
  8
FP-Roof
 62
8
100
AcDbLine
 10
32.19048270729763
 20
14.138904702538639
 30
0.0
 11
32.19048270744315
 21
12.196352690107233
 31
0.0
  0
LINE
  5
126
330
17
100
AcDbEntity
  8
FP-Roof
 62
8
100
AcDbLine
 10
32.301362860886
 20
17.366701878221647
 30
0.0
 11
33.16142215034415
 21
15.877035481620624
 31
0.0
  0
LINE
  5
127
330
17
100
AcDbEntity
  8
FP-Roof
 62
8
100
AcDbLine
 10
38.37922787361822
 20
14.368963814875428
 30
0.0
 11
38.37922787369098
 21
0.004678690045807343
 31
0.0
  0
LINE
  5
128
330
17
100
AcDbEntity
  8
FP-Roof
 62
8
100
AcDbLine
 10
39.16220081460415
 20
14.37192842566958
 30
0.0
 11
39.16220081460415
 21
0.004678690045807343
 31
0.0
  0
LINE
  5
129
330
17
100
AcDbEntity
  8
FP-Roof
 62
8
100
AcDbLine
 10
78.91351285713245
 20
9.298684228115349
 30
0.0
 11
39.16220081460415
 21
9.298425596294805
 31
0.0
  0
LINE
  5
12A
330
17
100
AcDbEntity
  8
FP-Roof
 62
8
100
AcDbLine
 10
79.15535360799913
 20
9.82066842272809
 30
0.0
 11
39.16220081460415
 21
9.820410118438417
 31
0.0
  0
LINE
  5
12B
330
17
100
AcDbEntity
  8
FP-Roof
 62
8
100
AcDbLine
 10
59.638121092986694
 20
9.820739480239467
 30
0.0
 11
39.16220081460415
 21
9.820659739172811
 31
0.0
  0
LINE
  5
12C
330
17
100
AcDbEntity
  8
FP-Roof
 62
8
100
AcDbLine
 10
45.240065827358194
 20
17.366701879040306
 30
0.0
 11
44.380006537900044
 21
15.877035482439283
 31
0.0
  0
LINE
  5
12D
330
17
100
AcDbEntity
  8
FP-Roof
 62
8
100
AcDbLine
 10
46.1126648282916
 20
14.138904703357298
 30
0.0
 11
45.11120909400415
 21
14.138904703357298
 31
0.0
  0
LINE
  5
12E
330
17
100
AcDbEntity
  8
FP-Roof
 62
8
100
AcDbLine
 10
45.35094598093929
 20
14.138904703357298
 30
0.0
 11
45.35094598079377
 21
12.196352690925892
 31
0.0
  0
LINE
  5
12F
330
17
100
AcDbEntity
  8
FP-Roof
 62
8
100
AcDbLine
 10
45.350956181788206
 20
9.818293035559805
 30
0.0
 11
45.35095618183914
 21
9.655309440859128e-09
 31
0.0
  0
LINE
  5
130
330
17
100
AcDbEntity
  8
FP-Roof
 62
8
100
AcDbLine
 10
45.87292794154564
 20
14.138904703357298
 30
0.0
 11
45.87292794140012
 21
12.19832909812078
 31
0.0
  0
LINE
  5
131
330
17
100
AcDbEntity
  8
FP-Roof
 62
8
100
AcDbLine
 10
45.87293814245277
 20
9.816316628454047
 30
0.0
 11
45.87293814245277
 21
9.655309440859128e-09
 31
0.0
  0
LINE
  5
132
330
17
100
AcDbEntity
  8
FP-Roof
 62
8
100
AcDbLine
 10
45.99269853363148
 20
17.366701879040306
 30
0.0
 11
46.85275782308963
 21
15.877035482439283
 31
0.0
  0
LINE
  5
133
330
17
100
AcDbEntity
  8
FP-Roof
 62
8
100
AcDbLine
 10
51.95080315520681
 20
17.366701877292257
 30
0.0
 11
51.090743865748664
 21
15.877035480691234
 31
0.0
  0
LINE
  5
134
330
17
100
AcDbEntity
  8
FP-Roof
 62
8
100
AcDbLine
 10
52.823402156147495
 20
14.138904701609249
 30
0.0
 11
51.82194642186005
 21
14.138904701609249
 31
0.0
  0
LINE
  5
135
330
17
100
AcDbEntity
  8
FP-Roof
 62
8
100
AcDbLine
 10
52.06168330879518
 20
14.138904701609249
 30
0.0
 11
52.06168330864966
 21
12.196352689177843
 31
0.0
  0
LINE
  5
136
330
17
100
AcDbEntity
  8
FP-Roof
 62
8
100
AcDbLine
 10
52.0616935096441
 20
9.818293033811756
 30
0.0
 11
52.06169350968776
 21
7.90726062405156e-09
 31
0.0
  0
LINE
  5
137
330
17
100
AcDbEntity
  8
FP-Roof
 62
8
100
AcDbLine
 10
52.583665269401536
 20
14.138904701609249
 30
0.0
 11
52.58366526925602
 21
12.198329096372731
 31
0.0
  0
LINE
  5
138
330
17
100
AcDbEntity
  8
FP-Roof
 62
8
100
AcDbLine
 10
52.58367547030866
 20
9.816316626705998
 30
0.0
 11
52.58367547030866
 21
7.90726062405156e-09
 31
0.0
  0
LINE
  5
139
330
17
100
AcDbEntity
  8
FP-Roof
 62
8
100
AcDbLine
 10
52.7034358614801
 20
17.366701877292257
 30
0.0
 11
53.56349515093825
 21
15.877035480691234
 31
0.0
  0
LINE
  5
13A
330
17
100
AcDbEntity
  8
FP-Roof
 62
8
100
AcDbLine
 10
58.66154048306271
 20
17.36670187554421
 30
0.0
 11
57.80148119360456
 21
15.877035478943185
 31
0.0
  0
LINE
  5
13B
330
17
100
AcDbEntity
  8
FP-Roof
 62
8
100
AcDbLine
 10
59.534139483996114
 20
14.1389046998612
 30
0.0
 11
58.53268374970867
 21
14.1389046998612
 31
0.0
  0
LINE
  5
13C
330
17
100
AcDbEntity
  8
FP-Roof
 62
8
100
AcDbLine
 10
58.7724206366438
 20
14.1389046998612
 30
0.0
 11
58.77242063649828
 21
12.196352687429794
 31
0.0
  0
LINE
  5
13D
330
17
100
AcDbEntity
  8
FP-Roof
 62
8
100
AcDbLine
 10
58.77243083749272
 20
9.818293032063707
 30
0.0
 11
58.77243083754365
 21
6.159211807243992e-09
 31
0.0
  0
LINE
  5
13E
330
17
100
AcDbEntity
  8
FP-Roof
 62
8
100
AcDbLine
 10
59.294402597250155
 20
14.1389046998612
 30
0.0
 11
59.294402597104636
 21
12.198329094624683
 31
0.0
  0
LINE
  5
13F
330
17
100
AcDbEntity
  8
FP-Roof
 62
8
100
AcDbLine
 10
59.29441279815728
 20
9.816316624957949
 30
0.0
 11
59.29441279815728
 21
6.159211807243992e-09
 31
0.0
  0
LINE
  5
140
330
17
100
AcDbEntity
  8
FP-Roof
 62
8
100
AcDbLine
 10
59.414173189336
 20
17.36670187554421
 30
0.0
 11
60.27423247879415
 21
15.877035478943185
 31
0.0
  0
LINE
  5
141
330
17
100
AcDbEntity
  8
FP-Roof
 62
8
100
AcDbLine
 10
65.37227781091133
 20
17.36670187379616
 30
0.0
 11
64.51221852145318
 21
15.877035477195136
 31
0.0
  0
LINE
  5
142
330
17
100
AcDbEntity
  8
FP-Roof
 62
8
100
AcDbLine
 10
66.24487681185201
 20
14.138904698113151
 30
0.0
 11
65.24342107756456
 21
14.138904698113151
 31
0.0
  0
LINE
  5
143
330
17
100
AcDbEntity
  8
FP-Roof
 62
8
100
AcDbLine
 10
65.4831579644997
 20
14.138904698113151
 30
0.0
 11
65.48315796435418
 21
12.196352685681745
 31
0.0
  0
LINE
  5
144
330
17
100
AcDbEntity
  8
FP-Roof
 62
8
100
AcDbLine
 10
65.48316816534862
 20
9.818293030315658
 30
0.0
 11
65.48316816539227
 21
4.4111629904364236e-09
 31
0.0
  0
LINE
  5
145
330
17
100
AcDbEntity
  8
FP-Roof
 62
8
100
AcDbLine
 10
66.00513992510605
 20
14.138904698113151
 30
0.0
 11
66.00513992496053
 21
12.198329092876634
 31
0.0
  0
LINE
  5
146
330
17
100
AcDbEntity
  8
FP-Roof
 62
8
100
AcDbLine
 10
66.00515012601318
 20
9.8163166232099
 30
0.0
 11
66.00515012601318
 21
4.4111629904364236e-09
 31
0.0
  0
LINE
  5
147
330
17
100
AcDbEntity
  8
FP-Roof
 62
8
100
AcDbLine
 10
66.12491051718462
 20
17.36670187379616
 30
0.0
 11
66.98496980664277
 21
15.877035477195136
 31
0.0
  0
LINE
  5
148
330
17
100
AcDbEntity
  8
FP-Roof
 62
8
100
AcDbLine
 10
72.08301513876722
 20
17.36670187204811
 30
0.0
 11
71.22295584930907
 21
15.877035475447087
 31
0.0
  0
LINE
  5
149
330
17
100
AcDbEntity
  8
FP-Roof
 62
8
100
AcDbLine
 10
72.95561413970063
 20
14.138904696365103
 30
0.0
 11
71.95415840541318
 21
14.138904696365103
 31
0.0
  0
LINE
  5
14A
330
17
100
AcDbEntity
  8
FP-Roof
 62
8
100
AcDbLine
 10
72.19389529234832
 20
14.138904696365103
 30
0.0
 11
72.1938952922028
 21
12.196352683933696
 31
0.0
  0
LINE
  5
14B
330
17
100
AcDbEntity
  8
FP-Roof
 62
8
100
AcDbLine
 10
72.19390549319724
 20
9.81829302856761
 30
0.0
 11
72.19390549324817
 21
2.6631141736288555e-09
 31
0.0
  0
LINE
  5
14C
330
17
100
AcDbEntity
  8
FP-Roof
 62
8
100
AcDbLine
 10
72.71587725295467
 20
14.138904696365103
 30
0.0
 11
72.71587725280915
 21
12.198329091128585
 31
0.0
  0
LINE
  5
14D
330
17
100
AcDbEntity
  8
FP-Roof
 62
8
100
AcDbLine
 10
72.7158874538618
 20
9.816316621461851
 30
0.0
 11
72.7158874538618
 21
2.6631141736288555e-09
 31
0.0
  0
LINE
  5
14E
330
17
100
AcDbEntity
  8
FP-Roof
 62
8
100
AcDbLine
 10
72.83564784504051
 20
17.36670187204811
 30
0.0
 11
73.69570713449866
 21
15.877035475447087
 31
0.0
  0
LINE
  5
14F
330
17
100
AcDbEntity
  8
FP-Roof
 62
8
100
AcDbLine
 10
78.42564484740069
 20
17.24002552876493
 30
0.0
 11
79.92782844890098
 21
17.24002552876493
 31
0.0
  0
LINE
  5
150
330
17
100
AcDbEntity
  8
FP-Roof
 62
8
100
AcDbLine
 10
78.91351285712517
 20
9.816316619619215
 30
0.0
 11
78.9135128571761
 21
8.18658918433357e-10
 31
0.0
  0
LINE
  5
151
330
17
100
AcDbEntity
  8
FP-Roof
 62
8
100
AcDbLine
 10
78.91352305798864
 20
17.24002552876857
 30
0.0
 11
78.91352305817054
 21
12.19832908948058
 31
0.0
  0
LINE
  5
152
330
17
100
AcDbEntity
  8
FP-Roof
 62
8
100
AcDbLine
 10
79.18478403012341
 20
9.82066842272809
 30
0.0
 11
119.1912834277864
 21
9.820498955472544
 31
0.0
  0
LINE
  5
153
330
17
100
AcDbEntity
  8
FP-Roof
 62
8
100
AcDbLine
 10
79.43549481778246
 20
9.818293027016011
 30
0.0
 11
79.43549481778246
 21
1.0151097740163095e-09
 31
0.0
  0
LINE
  5
154
330
17
100
AcDbEntity
  8
FP-Roof
 62
8
100
AcDbLine
 10
79.43549481778246
 20
9.298684154971966
 30
0.0
 11
119.1912834277864
 21
9.298514996609924
 31
0.0
  0
LINE
  5
155
330
17
100
AcDbEntity
  8
FP-Roof
 62
8
100
AcDbLine
 10
79.435505018595
 20
17.24002552876493
 30
0.0
 11
79.4355050187769
 21
12.196352682965994
 31
0.0
  0
LINE
  5
156
330
17
100
AcDbEntity
  8
FP-Roof
 62
8
100
AcDbLine
 10
85.50448979383873
 20
17.36670187204811
 30
0.0
 11
84.64443050438058
 21
15.877035475447087
 31
0.0
  0
LINE
  5
157
330
17
100
AcDbEntity
  8
FP-Roof
 62
8
100
AcDbLine
 10
85.38452349917134
 20
14.138904696365103
 30
0.0
 11
86.38597923345878
 21
14.138904696365103
 31
0.0
  0
LINE
  5
158
330
17
100
AcDbEntity
  8
FP-Roof
 62
8
100
AcDbLine
 10
85.62425018501017
 20
9.816316621461851
 30
0.0
 11
85.62425018501017
 21
2.6631141736288555e-09
 31
0.0
  0
LINE
  5
159
330
17
100
AcDbEntity
  8
FP-Roof
 62
8
100
AcDbLine
 10
85.6242603859173
 20
14.138904696365103
 30
0.0
 11
85.62426038606282
 21
12.198329091128585
 31
0.0
  0
LINE
  5
15A
330
17
100
AcDbEntity
  8
FP-Roof
 62
8
100
AcDbLine
 10
86.14623214567473
 20
9.81829302856761
 30
0.0
 11
86.14623214563107
 21
2.6631141736288555e-09
 31
0.0
  0
LINE
  5
15B
330
17
100
AcDbEntity
  8
FP-Roof
 62
8
100
AcDbLine
 10
86.14624234652365
 20
14.138904696365103
 30
0.0
 11
86.14624234666917
 21
12.196352683933696
 31
0.0
  0
LINE
  5
15C
330
17
100
AcDbEntity
  8
FP-Roof
 62
8
100
AcDbLine
 10
86.25712250011202
 20
17.36670187204811
 30
0.0
 11
87.11718178957017
 21
15.877035475447087
 31
0.0
  0
LINE
  5
15D
330
17
100
AcDbEntity
  8
FP-Roof
 62
8
100
AcDbLine
 10
92.21522712168735
 20
17.36670187379616
 30
0.0
 11
91.3551678322292
 21
15.877035477195136
 31
0.0
  0
LINE
  5
15E
330
17
100
AcDbEntity
  8
FP-Roof
 62
8
100
AcDbLine
 10
92.09526082702723
 20
14.138904698113151
 30
0.0
 11
93.09671656131468
 21
14.138904698113151
 31
0.0
  0
LINE
  5
15F
330
17
100
AcDbEntity
  8
FP-Roof
 62
8
100
AcDbLine
 10
92.33498751286606
 20
9.8163166232099
 30
0.0
 11
92.33498751286606
 21
4.4111629904364236e-09
 31
0.0
  0
LINE
  5
160
330
17
100
AcDbEntity
  8
FP-Roof
 62
8
100
AcDbLine
 10
92.33499771377319
 20
14.138904698113151
 30
0.0
 11
92.33499771391871
 21
12.198329092876634
 31
0.0
  0
LINE
  5
161
330
17
100
AcDbEntity
  8
FP-Roof
 62
8
100
AcDbLine
 10
92.85696947353063
 20
9.818293030315658
 30
0.0
 11
92.8569694734797
 21
4.4111629904364236e-09
 31
0.0
  0
LINE
  5
162
330
17
100
AcDbEntity
  8
FP-Roof
 62
8
100
AcDbLine
 10
92.85697967437955
 20
14.138904698113151
 30
0.0
 11
92.85697967452506
 21
12.196352685681745
 31
0.0
  0
LINE
  5
163
330
17
100
AcDbEntity
  8
FP-Roof
 62
8
100
AcDbLine
 10
92.96785982796064
 20
17.36670187379616
 30
0.0
 11
93.82791911741879
 21
15.877035477195136
 31
0.0
  0
LINE
  5
164
330
17
100
AcDbEntity
  8
FP-Roof
 62
8
100
AcDbLine
 10
98.92596444954324
 20
17.36670187554421
 30
0.0
 11
98.0659051600851
 21
15.877035478943185
 31
0.0
  0
LINE
  5
165
330
17
100
AcDbEntity
  8
FP-Roof
 62
8
100
AcDbLine
 10
98.80599815487585
 20
14.1389046998612
 30
0.0
 11
99.8074538891633
 21
14.1389046998612
 31
0.0
  0
LINE
  5
166
330
17
100
AcDbEntity
  8
FP-Roof
 62
8
100
AcDbLine
 10
99.04572484071468
 20
9.816316624957949
 30
0.0
 11
99.04572484071468
 21
6.159211807243992e-09
 31
0.0
  0
LINE
  5
167
330
17
100
AcDbEntity
  8
FP-Roof
 62
8
100
AcDbLine
 10
99.04573504162181
 20
14.1389046998612
 30
0.0
 11
99.04573504176733
 21
12.198329094624683
 31
0.0
  0
LINE
  5
168
330
17
100
AcDbEntity
  8
FP-Roof
 62
8
100
AcDbLine
 10
99.56770680137925
 20
9.818293032063707
 30
0.0
 11
99.56770680133559
 21
6.159211807243992e-09
 31
0.0
  0
LINE
  5
169
330
17
100
AcDbEntity
  8
FP-Roof
 62
8
100
AcDbLine
 10
99.56771700222816
 20
14.1389046998612
 30
0.0
 11
99.56771700237368
 21
12.196352687429794
 31
0.0
  0
LINE
  5
16A
330
17
100
AcDbEntity
  8
FP-Roof
 62
8
100
AcDbLine
 10
99.67859715581653
 20
17.36670187554421
 30
0.0
 11
100.53865644527468
 21
15.877035478943185
 31
0.0
  0
LINE
  5
16B
330
17
100
AcDbEntity
  8
FP-Roof
 62
8
100
AcDbLine
 10
105.63670177739186
 20
17.366701877292257
 30
0.0
 11
104.77664248793371
 21
15.877035480691234
 31
0.0
  0
LINE
  5
16C
330
17
100
AcDbEntity
  8
FP-Roof
 62
8
100
AcDbLine
 10
105.51673548273175
 20
14.138904701609249
 30
0.0
 11
106.5181912170192
 21
14.138904701609249
 31
0.0
  0
LINE
  5
16D
330
17
100
AcDbEntity
  8
FP-Roof
 62
8
100
AcDbLine
 10
105.75646216857058
 20
9.816316626705998
 30
0.0
 11
105.75646216857058
 21
7.90726062405156e-09
 31
0.0
  0
LINE
  5
16E
330
17
100
AcDbEntity
  8
FP-Roof
 62
8
100
AcDbLine
 10
105.7564723694777
 20
14.138904701609249
 30
0.0
 11
105.75647236962322
 21
12.198329096372731
 31
0.0
  0
LINE
  5
16F
330
17
100
AcDbEntity
  8
FP-Roof
 62
8
100
AcDbLine
 10
106.27844412923514
 20
9.818293033811756
 30
0.0
 11
106.27844412918421
 21
7.90726062405156e-09
 31
0.0
  0
LINE
  5
170
330
17
100
AcDbEntity
  8
FP-Roof
 62
8
100
AcDbLine
 10
106.27845433008406
 20
14.138904701609249
 30
0.0
 11
106.27845433022958
 21
12.196352689177843
 31
0.0
  0
LINE
  5
171
330
17
100
AcDbEntity
  8
FP-Roof
 62
8
100
AcDbLine
 10
106.38933448366515
 20
17.366701877292257
 30
0.0
 11
107.2493937731233
 21
15.877035480691234
 31
0.0
  0
LINE
  5
172
330
17
100
AcDbEntity
  8
FP-Roof
 62
8
100
AcDbLine
 10
112.34743910524776
 20
17.366701879040306
 30
0.0
 11
111.48737981578961
 21
15.877035482439283
 31
0.0
  0
LINE
  5
173
330
17
100
AcDbEntity
  8
FP-Roof
 62
8
100
AcDbLine
 10
112.22747281058037
 20
14.138904703357298
 30
0.0
 11
113.22892854486781
 21
14.138904703357298
 31
0.0
  0
LINE
  5
174
330
17
100
AcDbEntity
  8
FP-Roof
 62
8
100
AcDbLine
 10
112.4671994964192
 20
9.816316628454047
 30
0.0
 11
112.4671994964192
 21
9.655309440859128e-09
 31
0.0
  0
LINE
  5
175
330
17
100
AcDbEntity
  8
FP-Roof
 62
8
100
AcDbLine
 10
112.46720969732633
 20
14.138904703357298
 30
0.0
 11
112.46720969747184
 21
12.19832909812078
 31
0.0
  0
LINE
  5
176
330
17
100
AcDbEntity
  8
FP-Roof
 62
8
100
AcDbLine
 10
112.98918145708376
 20
9.818293035559805
 30
0.0
 11
112.9891814570401
 21
9.655309440859128e-09
 31
0.0
  0
LINE
  5
177
330
17
100
AcDbEntity
  8
FP-Roof
 62
8
100
AcDbLine
 10
112.98919165793268
 20
14.138904703357298
 30
0.0
 11
112.9891916580782
 21
12.196352690925892
 31
0.0
  0
LINE
  5
178
330
17
100
AcDbEntity
  8
FP-Roof
 62
8
100
AcDbLine
 10
113.10007181152105
 20
17.366701879040306
 30
0.0
 11
113.9601311009792
 21
15.877035482439283
 31
0.0
  0
LINE
  5
179
330
17
100
AcDbEntity
  8
FP-Roof
 62
8
100
AcDbLine
 10
119.19130308536478
 20
14.368963814875428
 30
0.0
 11
119.19130308543754
 21
0.004678690045807343
 31
0.0
  0
LINE
  5
17A
330
17
100
AcDbEntity
  8
FP-Roof
 62
8
100
AcDbLine
 10
159.71671803284335
 20
9.298684154971966
 30
0.0
 11
119.96092942283212
 21
9.298514996609924
 31
0.0
  0
LINE
  5
17B
330
17
100
AcDbEntity
  8
FP-Roof
 62
8
100
AcDbLine
 10
159.9674288205024
 20
9.82066842272809
 30
0.0
 11
119.96092942283212
 21
9.820498955472544
 31
0.0
  0
LINE
  5
17C
330
17
100
AcDbEntity
  8
FP-Roof
 62
8
100
AcDbLine
 10
119.97427602635071
 20
14.37192842566958
 30
0.0
 11
119.97427602635071
 21
0.004678690045807343
 31
0.0
  0
LINE
  5
17D
330
17
100
AcDbEntity
  8
FP-Roof
 62
8
100
AcDbLine
 10
126.05214103910475
 20
17.366701879040306
 30
0.0
 11
125.1920817496466
 21
15.877035482439283
 31
0.0
  0
LINE
  5
17E
330
17
100
AcDbEntity
  8
FP-Roof
 62
8
100
AcDbLine
 10
126.92474004003816
 20
14.138904703357298
 30
0.0
 11
125.92328430575071
 21
14.138904703357298
 31
0.0
  0
LINE
  5
17F
330
17
100
AcDbEntity
  8
FP-Roof
 62
8
100
AcDbLine
 10
126.16302119268585
 20
14.138904703357298
 30
0.0
 11
126.16302119254033
 21
12.196352690925892
 31
0.0
  0
LINE
  5
180
330
17
100
AcDbEntity
  8
FP-Roof
 62
8
100
AcDbLine
 10
126.16303139353477
 20
9.818293035559805
 30
0.0
 11
126.1630313935857
 21
9.655309440859128e-09
 31
0.0
  0
LINE
  5
181
330
17
100
AcDbEntity
  8
FP-Roof
 62
8
100
AcDbLine
 10
126.6850031532922
 20
14.138904703357298
 30
0.0
 11
126.68500315314668
 21
12.19832909812078
 31
0.0
  0
LINE
  5
182
330
17
100
AcDbEntity
  8
FP-Roof
 62
8
100
AcDbLine
 10
126.68501335419933
 20
9.816316628454047
 30
0.0
 11
126.68501335419933
 21
9.655309440859128e-09
 31
0.0
  0
LINE
  5
183
330
17
100
AcDbEntity
  8
FP-Roof
 62
8
100
AcDbLine
 10
126.80477374537804
 20
17.366701879040306
 30
0.0
 11
127.66483303483619
 21
15.877035482439283
 31
0.0
  0
LINE
  5
184
330
17
100
AcDbEntity
  8
FP-Roof
 62
8
100
AcDbLine
 10
132.76287836695337
 20
17.366701877292257
 30
0.0
 11
131.90281907749522
 21
15.877035480691234
 31
0.0
  0
LINE
  5
185
330
17
100
AcDbEntity
  8
FP-Roof
 62
8
100
AcDbLine
 10
133.63547736789405
 20
14.138904701609249
 30
0.0
 11
132.6340216336066
 21
14.138904701609249
 31
0.0
  0
LINE
  5
186
330
17
100
AcDbEntity
  8
FP-Roof
 62
8
100
AcDbLine
 10
132.87375852054174
 20
14.138904701609249
 30
0.0
 11
132.87375852039622
 21
12.196352689177843
 31
0.0
  0
LINE
  5
187
330
17
100
AcDbEntity
  8
FP-Roof
 62
8
100
AcDbLine
 10
132.87376872139066
 20
9.818293033811756
 30
0.0
 11
132.87376872143432
 21
7.90726062405156e-09
 31
0.0
  0
LINE
  5
188
330
17
100
AcDbEntity
  8
FP-Roof
 62
8
100
AcDbLine
 10
133.3957404811481
 20
14.138904701609249
 30
0.0
 11
133.39574048100258
 21
12.198329096372731
 31
0.0
  0
LINE
  5
189
330
17
100
AcDbEntity
  8
FP-Roof
 62
8
100
AcDbLine
 10
133.39575068205522
 20
9.816316626705998
 30
0.0
 11
133.39575068205522
 21
7.90726062405156e-09
 31
0.0
  0
LINE
  5
18A
330
17
100
AcDbEntity
  8
FP-Roof
 62
8
100
AcDbLine
 10
133.51551107322666
 20
17.366701877292257
 30
0.0
 11
134.3755703626848
 21
15.877035480691234
 31
0.0
  0
LINE
  5
18B
330
17
100
AcDbEntity
  8
FP-Roof
 62
8
100
AcDbLine
 10
139.47361569480927
 20
17.36670187554421
 30
0.0
 11
138.61355640535112
 21
15.877035478943185
 31
0.0
  0
LINE
  5
18C
330
17
100
AcDbEntity
  8
FP-Roof
 62
8
100
AcDbLine
 10
140.34621469574267
 20
14.1389046998612
 30
0.0
 11
139.34475896145523
 21
14.1389046998612
 31
0.0
  0
LINE
  5
18D
330
17
100
AcDbEntity
  8
FP-Roof
 62
8
100
AcDbLine
 10
139.58449584839036
 20
14.1389046998612
 30
0.0
 11
139.58449584824484
 21
12.196352687429794
 31
0.0
  0
LINE
  5
18E
330
17
100
AcDbEntity
  8
FP-Roof
 62
8
100
AcDbLine
 10
139.58450604923928
 20
9.818293032063707
 30
0.0
 11
139.5845060492902
 21
6.159211807243992e-09
 31
0.0
  0
LINE
  5
18F
330
17
100
AcDbEntity
  8
FP-Roof
 62
8
100
AcDbLine
 10
140.10647780899671
 20
14.1389046998612
 30
0.0
 11
140.1064778088512
 21
12.198329094624683
 31
0.0
  0
LINE
  5
190
330
17
100
AcDbEntity
  8
FP-Roof
 62
8
100
AcDbLine
 10
140.10648800990384
 20
9.816316624957949
 30
0.0
 11
140.10648800990384
 21
6.159211807243992e-09
 31
0.0
  0
LINE
  5
191
330
17
100
AcDbEntity
  8
FP-Roof
 62
8
100
AcDbLine
 10
140.22624840108256
 20
17.36670187554421
 30
0.0
 11
141.0863076905407
 21
15.877035478943185
 31
0.0
  0
LINE
  5
192
330
17
100
AcDbEntity
  8
FP-Roof
 62
8
100
AcDbLine
 10
146.1843530226579
 20
17.36670187379616
 30
0.0
 11
145.32429373319974
 21
15.877035477195136
 31
0.0
  0
LINE
  5
193
330
17
100
AcDbEntity
  8
FP-Roof
 62
8
100
AcDbLine
 10
147.05695202359857
 20
14.138904698113151
 30
0.0
 11
146.05549628931112
 21
14.138904698113151
 31
0.0
  0
LINE
  5
194
330
17
100
AcDbEntity
  8
FP-Roof
 62
8
100
AcDbLine
 10
146.29523317624626
 20
14.138904698113151
 30
0.0
 11
146.29523317610074
 21
12.196352685681745
 31
0.0
  0
LINE
  5
195
330
17
100
AcDbEntity
  8
FP-Roof
 62
8
100
AcDbLine
 10
146.29524337709518
 20
9.818293030315658
 30
0.0
 11
146.29524337713883
 21
4.4111629904364236e-09
 31
0.0
  0
LINE
  5
196
330
17
100
AcDbEntity
  8
FP-Roof
 62
8
100
AcDbLine
 10
146.8172151368526
 20
14.138904698113151
 30
0.0
 11
146.8172151367071
 21
12.198329092876634
 31
0.0
  0
LINE
  5
197
330
17
100
AcDbEntity
  8
FP-Roof
 62
8
100
AcDbLine
 10
146.81722533775974
 20
9.8163166232099
 30
0.0
 11
146.81722533775974
 21
4.4111629904364236e-09
 31
0.0
  0
LINE
  5
198
330
17
100
AcDbEntity
  8
FP-Roof
 62
8
100
AcDbLine
 10
146.93698572893118
 20
17.36670187379616
 30
0.0
 11
147.79704501838933
 21
15.877035477195136
 31
0.0
  0
LINE
  5
199
330
17
100
AcDbEntity
  8
FP-Roof
 62
8
100
AcDbLine
 10
152.89509035051378
 20
17.36670187204811
 30
0.0
 11
152.03503106105563
 21
15.877035475447087
 31
0.0
  0
LINE
  5
19A
330
17
100
AcDbEntity
  8
FP-Roof
 62
8
100
AcDbLine
 10
153.7676893514472
 20
14.138904696365103
 30
0.0
 11
152.76623361715974
 21
14.138904696365103
 31
0.0
  0
LINE
  5
19B
330
17
100
AcDbEntity
  8
FP-Roof
 62
8
100
AcDbLine
 10
153.00597050409488
 20
14.138904696365103
 30
0.0
 11
153.00597050394936
 21
12.196352683933696
 31
0.0
  0
LINE
  5
19C
330
17
100
AcDbEntity
  8
FP-Roof
 62
8
100
AcDbLine
 10
153.0059807049438
 20
9.81829302856761
 30
0.0
 11
153.00598070499473
 21
2.6631141736288555e-09
 31
0.0
  0
LINE
  5
19D
330
17
100
AcDbEntity
  8
FP-Roof
 62
8
100
AcDbLine
 10
153.52795246470123
 20
14.138904696365103
 30
0.0
 11
153.5279524645557
 21
12.198329091128585
 31
0.0
  0
LINE
  5
19E
330
17
100
AcDbEntity
  8
FP-Roof
 62
8
100
AcDbLine
 10
153.52796266560836
 20
9.816316621461851
 30
0.0
 11
153.52796266560836
 21
2.6631141736288555e-09
 31
0.0
  0
LINE
  5
19F
330
17
100
AcDbEntity
  8
FP-Roof
 62
8
100
AcDbLine
 10
153.64772305678707
 20
17.36670187204811
 30
0.0
 11
154.50778234624522
 21
15.877035475447087
 31
0.0
  0
LINE
  5
1A0
330
17
100
AcDbEntity
  8
FP-Roof
 62
8
100
AcDbLine
 10
160.7265680032251
 20
17.24002552876493
 30
0.0
 11
159.22438440172482
 21
17.24002552876493
 31
0.0
  0
LINE
  5
1A1
330
17
100
AcDbEntity
  8
FP-Roof
 62
8
100
AcDbLine
 10
159.71670783202353
 20
17.24002552876493
 30
0.0
 11
159.7167078318489
 21
12.196352682965994
 31
0.0
  0
LINE
  5
1A2
330
17
100
AcDbEntity
  8
FP-Roof
 62
8
100
AcDbLine
 10
159.71671803284335
 20
9.818293027016011
 30
0.0
 11
159.71671803284335
 21
1.0151097740163095e-09
 31
0.0
  0
LINE
  5
1A3
330
17
100
AcDbEntity
  8
FP-Roof
 62
8
100
AcDbLine
 10
159.9968592426194
 20
9.82066842272809
 30
0.0
 11
199.99001203602165
 21
9.820410118438417
 31
0.0
  0
LINE
  5
1A4
330
17
100
AcDbEntity
  8
FP-Roof
 62
8
100
AcDbLine
 10
160.23868979263716
 20
17.24002552876857
 30
0.0
 11
160.23868979245526
 21
12.19832908948058
 31
0.0
  0
LINE
  5
1A5
330
17
100
AcDbEntity
  8
FP-Roof
 62
8
100
AcDbLine
 10
160.23869999349336
 20
9.816316619619215
 30
0.0
 11
160.2386999934497
 21
8.18658918433357e-10
 31
0.0
  0
LINE
  5
1A6
330
17
100
AcDbEntity
  8
FP-Roof
 62
8
100
AcDbLine
 10
160.23869999349336
 20
9.298684228115349
 30
0.0
 11
199.99001203602165
 21
9.298425596294805
 31
0.0
  0
LINE
  5
1A7
330
17
100
AcDbEntity
  8
FP-Roof
 62
8
100
AcDbLine
 10
166.3165650055853
 20
17.36670187204811
 30
0.0
 11
165.45650571612714
 21
15.877035475447087
 31
0.0
  0
LINE
  5
1A8
330
17
100
AcDbEntity
  8
FP-Roof
 62
8
100
AcDbLine
 10
166.1965987109179
 20
14.138904696365103
 30
0.0
 11
167.19805444520534
 21
14.138904696365103
 31
0.0
  0
LINE
  5
1A9
330
17
100
AcDbEntity
  8
FP-Roof
 62
8
100
AcDbLine
 10
166.43632539675673
 20
9.816316621461851
 30
0.0
 11
166.43632539675673
 21
2.6631141736288555e-09
 31
0.0
  0
LINE
  5
1AA
330
17
100
AcDbEntity
  8
FP-Roof
 62
8
100
AcDbLine
 10
166.43633559766386
 20
14.138904696365103
 30
0.0
 11
166.43633559780938
 21
12.198329091128585
 31
0.0
  0
LINE
  5
1AB
330
17
100
AcDbEntity
  8
FP-Roof
 62
8
100
AcDbLine
 10
166.9583073574213
 20
9.81829302856761
 30
0.0
 11
166.95830735737763
 21
2.6631141736288555e-09
 31
0.0
  0
LINE
  5
1AC
330
17
100
AcDbEntity
  8
FP-Roof
 62
8
100
AcDbLine
 10
166.9583175582702
 20
14.138904696365103
 30
0.0
 11
166.95831755841573
 21
12.196352683933696
 31
0.0
  0
LINE
  5
1AD
330
17
100
AcDbEntity
  8
FP-Roof
 62
8
100
AcDbLine
 10
167.06919771185858
 20
17.36670187204811
 30
0.0
 11
167.92925700131673
 21
15.877035475447087
 31
0.0
  0
LINE
  5
1AE
330
17
100
AcDbEntity
  8
FP-Roof
 62
8
100
AcDbLine
 10
173.0273023334339
 20
17.36670187379616
 30
0.0
 11
172.16724304397576
 21
15.877035477195136
 31
0.0
  0
LINE
  5
1AF
330
17
100
AcDbEntity
  8
FP-Roof
 62
8
100
AcDbLine
 10
172.9073360387738
 20
14.138904698113151
 30
0.0
 11
173.90879177306124
 21
14.138904698113151
 31
0.0
  0
LINE
  5
1B0
330
17
100
AcDbEntity
  8
FP-Roof
 62
8
100
AcDbLine
 10
173.14706272461262
 20
9.8163166232099
 30
0.0
 11
173.14706272461262
 21
4.4111629904364236e-09
 31
0.0
  0
LINE
  5
1B1
330
17
100
AcDbEntity
  8
FP-Roof
 62
8
100
AcDbLine
 10
173.14707292551975
 20
14.138904698113151
 30
0.0
 11
173.14707292566527
 21
12.198329092876634
 31
0.0
  0
LINE
  5
1B2
330
17
100
AcDbEntity
  8
FP-Roof
 62
8
100
AcDbLine
 10
173.66904468527719
 20
9.818293030315658
 30
0.0
 11
173.66904468522625
 21
4.4111629904364236e-09
 31
0.0
  0
LINE
  5
1B3
330
17
100
AcDbEntity
  8
FP-Roof
 62
8
100
AcDbLine
 10
173.6690548861261
 20
14.138904698113151
 30
0.0
 11
173.66905488627162
 21
12.196352685681745
 31
0.0
  0
LINE
  5
1B4
330
17
100
AcDbEntity
  8
FP-Roof
 62
8
100
AcDbLine
 10
173.7799350397072
 20
17.36670187379616
 30
0.0
 11
174.63999432916535
 21
15.877035477195136
 31
0.0
  0
LINE
  5
1B5
330
17
100
AcDbEntity
  8
FP-Roof
 62
8
100
AcDbLine
 10
179.7380396612898
 20
17.36670187554421
 30
0.0
 11
178.87798037183165
 21
15.877035478943185
 31
0.0
  0
LINE
  5
1B6
330
17
100
AcDbEntity
  8
FP-Roof
 62
8
100
AcDbLine
 10
179.5140917576391
 20
9.820739480239467
 30
0.0
 11
199.99001203602165
 21
9.820659739172811
 31
0.0
  0
LINE
  5
1B7
330
17
100
AcDbEntity
  8
FP-Roof
 62
8
100
AcDbLine
 10
179.6180733666224
 20
14.1389046998612
 30
0.0
 11
180.61952910090986
 21
14.1389046998612
 31
0.0
  0
LINE
  5
1B8
330
17
100
AcDbEntity
  8
FP-Roof
 62
8
100
AcDbLine
 10
179.85780005246124
 20
9.816316624957949
 30
0.0
 11
179.85780005246124
 21
6.159211807243992e-09
 31
0.0
  0
LINE
  5
1B9
330
17
100
AcDbEntity
  8
FP-Roof
 62
8
100
AcDbLine
 10
179.85781025336837
 20
14.1389046998612
 30
0.0
 11
179.8578102535139
 21
12.198329094624683
 31
0.0
  0
LINE
  5
1BA
330
17
100
AcDbEntity
  8
FP-Roof
 62
8
100
AcDbLine
 10
180.3797820131258
 20
9.818293032063707
 30
0.0
 11
180.37978201308215
 21
6.159211807243992e-09
 31
0.0
  0
LINE
  5
1BB
330
17
100
AcDbEntity
  8
FP-Roof
 62
8
100
AcDbLine
 10
180.37979221397472
 20
14.1389046998612
 30
0.0
 11
180.37979221412024
 21
12.196352687429794
 31
0.0
  0
LINE
  5
1BC
330
17
100
AcDbEntity
  8
FP-Roof
 62
8
100
AcDbLine
 10
180.4906723675631
 20
17.36670187554421
 30
0.0
 11
181.35073165702124
 21
15.877035478943185
 31
0.0
  0
LINE
  5
1BD
330
17
100
AcDbEntity
  8
FP-Roof
 62
8
100
AcDbLine
 10
186.44877698913842
 20
17.366701877292257
 30
0.0
 11
185.58871769968027
 21
15.877035480691234
 31
0.0
  0
LINE
  5
1BE
330
17
100
AcDbEntity
  8
FP-Roof
 62
8
100
AcDbLine
 10
186.3288106944783
 20
14.138904701609249
 30
0.0
 11
187.33026642876575
 21
14.138904701609249
 31
0.0
  0
LINE
  5
1BF
330
17
100
AcDbEntity
  8
FP-Roof
 62
8
100
AcDbLine
 10
186.56853738031714
 20
9.816316626705998
 30
0.0
 11
186.56853738031714
 21
7.90726062405156e-09
 31
0.0
  0
LINE
  5
1C0
330
17
100
AcDbEntity
  8
FP-Roof
 62
8
100
AcDbLine
 10
186.56854758122427
 20
14.138904701609249
 30
0.0
 11
186.56854758136978
 21
12.198329096372731
 31
0.0
  0
LINE
  5
1C1
330
17
100
AcDbEntity
  8
FP-Roof
 62
8
100
AcDbLine
 10
187.0905193409817
 20
9.818293033811756
 30
0.0
 11
187.09051934093077
 21
7.90726062405156e-09
 31
0.0
  0
LINE
  5
1C2
330
17
100
AcDbEntity
  8
FP-Roof
 62
8
100
AcDbLine
 10
187.09052954183062
 20
14.138904701609249
 30
0.0
 11
187.09052954197614
 21
12.196352689177843
 31
0.0
  0
LINE
  5
1C3
330
17
100
AcDbEntity
  8
FP-Roof
 62
8
100
AcDbLine
 10
187.2014096954117
 20
17.366701877292257
 30
0.0
 11
188.06146898486986
 21
15.877035480691234
 31
0.0
  0
LINE
  5
1C4
330
17
100
AcDbEntity
  8
FP-Roof
 62
8
100
AcDbLine
 10
193.15951431699432
 20
17.366701879040306
 30
0.0
 11
192.29945502753617
 21
15.877035482439283
 31
0.0
  0
LINE
  5
1C5
330
17
100
AcDbEntity
  8
FP-Roof
 62
8
100
AcDbLine
 10
193.03954802232693
 20
14.138904703357298
 30
0.0
 11
194.04100375661437
 21
14.138904703357298
 31
0.0
  0
LINE
  5
1C6
330
17
100
AcDbEntity
  8
FP-Roof
 62
8
100
AcDbLine
 10
193.27927470816576
 20
9.816316628454047
 30
0.0
 11
193.27927470816576
 21
9.655309440859128e-09
 31
0.0
  0
LINE
  5
1C7
330
17
100
AcDbEntity
  8
FP-Roof
 62
8
100
AcDbLine
 10
193.27928490907289
 20
14.138904703357298
 30
0.0
 11
193.2792849092184
 21
12.19832909812078
 31
0.0
  0
LINE
  5
1C8
330
17
100
AcDbEntity
  8
FP-Roof
 62
8
100
AcDbLine
 10
193.80125666883032
 20
9.818293035559805
 30
0.0
 11
193.80125666878666
 21
9.655309440859128e-09
 31
0.0
  0
LINE
  5
1C9
330
17
100
AcDbEntity
  8
FP-Roof
 62
8
100
AcDbLine
 10
193.80126686967924
 20
14.138904703357298
 30
0.0
 11
193.80126686982476
 21
12.196352690925892
 31
0.0
  0
LINE
  5
1CA
330
17
100
AcDbEntity
  8
FP-Roof
 62
8
100
AcDbLine
 10
193.9121470232676
 20
17.366701879040306
 30
0.0
 11
194.77220631272576
 21
15.877035482439283
 31
0.0
  0
LINE
  5
1CB
330
17
100
AcDbEntity
  8
FP-Roof
 62
8
100
AcDbLine
 10
199.99001203602165
 20
14.37192842566958
 30
0.0
 11
199.99001203602165
 21
0.004678690045807343
 31
0.0
  0
LINE
  5
1CC
330
17
100
AcDbEntity
  8
FP-Roof
 62
8
100
AcDbLine
 10
200.7729849770003
 20
14.368963814875428
 30
0.0
 11
200.77298497693482
 21
0.004678690045807343
 31
0.0
  0
ENDSEC
  0
SECTION
  2
OBJECTS
  0
DICTIONARY
  5
A
330
0
100
AcDbDictionary
280
0
281
1
  3
ACAD_COLOR
350
B
  3
ACAD_GROUP
350
C
  3
ACAD_LAYOUT
350
D
  3
ACAD_MATERIAL
350
E
  3
ACAD_MLEADERSTYLE
350
F
  3
ACAD_MLINESTYLE
350
10
  3
ACAD_PLOTSETTINGS
350
11
  3
ACAD_PLOTSTYLENAME
350
12
  3
ACAD_SCALELIST
350
14
  3
ACAD_TABLESTYLE
350
15
  3
ACAD_VISUALSTYLE
350
16
  3
EZDXF_META
350
2D
  0
DICTIONARY
  5
B
330
A
100
AcDbDictionary
280
0
281
1
  0
DICTIONARY
  5
C
330
A
100
AcDbDictionary
280
0
281
1
  0
DICTIONARY
  5
D
330
A
100
AcDbDictionary
280
0
281
1
  3
Model
350
1A
  3
Layout1
350
1E
  0
DICTIONARY
  5
E
330
A
100
AcDbDictionary
280
0
281
1
  3
ByBlock
350
1F
  3
ByLayer
350
20
  3
Global
350
21
  0
DICTIONARY
  5
F
330
A
100
AcDbDictionary
280
0
281
1
  3
Standard
350
2C
  0
DICTIONARY
  5
10
330
A
100
AcDbDictionary
280
0
281
1
  3
Standard
350
22
  0
DICTIONARY
  5
11
330
A
100
AcDbDictionary
280
0
281
1
  0
ACDBDICTIONARYWDFLT
  5
12
330
A
100
AcDbDictionary
280
0
281
1
  3
Normal
350
13
100
AcDbDictionaryWithDefault
340
13
  0
ACDBPLACEHOLDER
  5
13
330
12
  0
DICTIONARY
  5
14
330
A
100
AcDbDictionary
280
0
281
1
  0
DICTIONARY
  5
15
330
A
100
AcDbDictionary
280
0
281
1
  0
DICTIONARY
  5
16
330
A
100
AcDbDictionary
280
0
281
1
  0
LAYOUT
  5
1A
330
D
100
AcDbPlotSettings
  1

  2
Adobe PDF
  4
A3
  6

 40
7.5
 41
20.0
 42
7.5
 43
20.0
 44
420.0
 45
297.0
 46
0.0
 47
0.0
 48
0.0
 49
0.0
140
0.0
141
0.0
142
1.0
143
1.0
 70
1024
 72
1
 73
0
 74
5
  7

 75
16
 76
0
 77
2
 78
300
147
1.0
148
0.0
149
0.0
100
AcDbLayout
  1
Model
 70
1
 71
0
 10
0.0
 20
0.0
 11
420.0
 21
297.0
 12
0.0
 22
0.0
 32
0.0
 14
1e+20
 24
1e+20
 34
1e+20
 15
-1e+20
 25
-1e+20
 35
-1e+20
146
0.0
 13
0.0
 23
0.0
 33
0.0
 16
1.0
 26
0.0
 36
0.0
 17
0.0
 27
1.0
 37
0.0
 76
1
330
17
  0
LAYOUT
  5
1E
330
D
100
AcDbPlotSettings
  1

  2
Adobe PDF
  4
A3
  6

 40
7.5
 41
20.0
 42
7.5
 43
20.0
 44
420.0
 45
297.0
 46
0.0
 47
0.0
 48
0.0
 49
0.0
140
0.0
141
0.0
142
1.0
143
1.0
 70
0
 72
1
 73
0
 74
5
  7

 75
16
 76
0
 77
2
 78
300
147
1.0
148
0.0
149
0.0
100
AcDbLayout
  1
Layout1
 70
1
 71
1
 10
0.0
 20
0.0
 11
420.0
 21
297.0
 12
0.0
 22
0.0
 32
0.0
 14
1e+20
 24
1e+20
 34
1e+20
 15
-1e+20
 25
-1e+20
 35
-1e+20
146
0.0
 13
0.0
 23
0.0
 33
0.0
 16
1.0
 26
0.0
 36
0.0
 17
0.0
 27
1.0
 37
0.0
 76
1
330
1B
  0
MATERIAL
  5
1F
102
{ACAD_REACTORS
330
E
102
}
330
E
100
AcDbMaterial
  1
ByBlock
  2

 70
0
 40
1.0
 71
1
 41
1.0
 91
-1023410177
 42
1.0
 72
1
  3

 73
1
 74
1
 75
1
 44
0.5
 73
0
 45
1.0
 46
1.0
 77
1
  4

 78
1
 79
1
170
1
 48
1.0
171
1
  6

172
1
173
1
174
1
140
1.0
141
1.0
175
1
  7

176
1
177
1
178
1
143
1.0
179
1
  8

270
1
271
1
272
1
145
1.0
146
1.0
273
1
  9

274
1
275
1
276
1
 42
1.0
 72
1
  3

 73
1
 74
1
 75
1
 94
63
  0
MATERIAL
  5
20
102
{ACAD_REACTORS
330
E
102
}
330
E
100
AcDbMaterial
  1
ByLayer
  2

 70
0
 40
1.0
 71
1
 41
1.0
 91
-1023410177
 42
1.0
 72
1
  3

 73
1
 74
1
 75
1
 44
0.5
 73
0
 45
1.0
 46
1.0
 77
1
  4

 78
1
 79
1
170
1
 48
1.0
171
1
  6

172
1
173
1
174
1
140
1.0
141
1.0
175
1
  7

176
1
177
1
178
1
143
1.0
179
1
  8

270
1
271
1
272
1
145
1.0
146
1.0
273
1
  9

274
1
275
1
276
1
 42
1.0
 72
1
  3

 73
1
 74
1
 75
1
 94
63
  0
MATERIAL
  5
21
102
{ACAD_REACTORS
330
E
102
}
330
E
100
AcDbMaterial
  1
Global
  2

 70
0
 40
1.0
 71
1
 41
1.0
 91
-1023410177
 42
1.0
 72
1
  3

 73
1
 74
1
 75
1
 44
0.5
 73
0
 45
1.0
 46
1.0
 77
1
  4

 78
1
 79
1
170
1
 48
1.0
171
1
  6

172
1
173
1
174
1
140
1.0
141
1.0
175
1
  7

176
1
177
1
178
1
143
1.0
179
1
  8

270
1
271
1
272
1
145
1.0
146
1.0
273
1
  9

274
1
275
1
276
1
 42
1.0
 72
1
  3

 73
1
 74
1
 75
1
 94
63
  0
MLINESTYLE
  5
22
102
{ACAD_REACTORS
330
10
102
}
330
10
100
AcDbMlineStyle
  2
Standard
 70
0
  3

 62
256
 51
90.0
 52
90.0
 71
2
 49
0.5
 62
256
  6
BYLAYER
 49
-0.5
 62
256
  6
BYLAYER
  0
MLEADERSTYLE
  5
2C
102
{ACAD_REACTORS
330
F
102
}
330
F
100
AcDbMLeaderStyle
179
2
170
2
171
1
172
0
 90
2
 40
0.0
 41
0.0
173
1
 91
-1056964608
 92
-2
290
1
 42
2.0
291
1
 43
8.0
  3
Standard
 44
4.0
300

342
29
174
1
175
1
176
0
178
1
 93
-1056964608
 45
4.0
292
0
297
0
 46
4.0
 94
-1056964608
 47
1.0
 49
1.0
140
1.0
294
1
141
0.0
177
0
142
1.0
295
0
296
0
143
3.75
271
0
272
9
273
9
  0
DICTIONARY
  5
2D
330
A
100
AcDbDictionary
281
1
  3
CREATED_BY_EZDXF
350
2E
  3
WRITTEN_BY_EZDXF
350
1CF
  0
DICTIONARYVAR
  5
2E
330
2D
100
DictionaryVariables
280
0
  1
1.1.4 @ 2024-01-22T17:45:54.831953+00:00
  0
DICTIONARYVAR
  5
1CF
330
2D
100
DictionaryVariables
280
0
  1
1.1.4 @ 2024-01-22T17:45:58.657005+00:00
  0
ENDSEC
  0
EOF
