  0
SECTION
  2
HEADER
  9
$ACADVER
  1
AC1027
  9
$ACADMAINTVER
 70
105
  9
$DWGCODEPAGE
  3
ANSI_1252
  9
$LASTSAVEDBY
  1
ezdxf
  9
$REQUIREDVERSIONS
160
0
  9
$INSBASE
 10
0.0
 20
0.0
 30
0.0
  9
$EXTMIN
 10
1e+20
 20
1e+20
 30
1e+20
  9
$EXTMAX
 10
-1e+20
 20
-1e+20
 30
-1e+20
  9
$LIMMIN
 10
0.0
 20
0.0
  9
$LIMMAX
 10
420.0
 20
297.0
  9
$ORTHOMODE
 70
0
  9
$REGENMODE
 70
1
  9
$FILLMODE
 70
1
  9
$QTEXTMODE
 70
0
  9
$MIRRTEXT
 70
1
  9
$LTSCALE
 40
1.0
  9
$ATTMODE
 70
1
  9
$TEXTSIZE
 40
2.5
  9
$TRACEWID
 40
1.0
  9
$TEXTSTYLE
  7
Standard
  9
$CLAYER
  8
0
  9
$CELTYPE
  6
ByLayer
  9
$CECOLOR
 62
256
  9
$CELTSCALE
 40
1.0
  9
$DISPSILH
 70
0
  9
$DIMSCALE
 40
1.0
  9
$DIMASZ
 40
2.5
  9
$DIMEXO
 40
0.625
  9
$DIMDLI
 40
3.75
  9
$DIMRND
 40
0.0
  9
$DIMDLE
 40
0.0
  9
$DIMEXE
 40
1.25
  9
$DIMTP
 40
0.0
  9
$DIMTM
 40
0.0
  9
$DIMTXT
 40
2.5
  9
$DIMCEN
 40
2.5
  9
$DIMTSZ
 40
0.0
  9
$DIMTOL
 70
0
  9
$DIMLIM
 70
0
  9
$DIMTIH
 70
0
  9
$DIMTOH
 70
0
  9
$DIMSE1
 70
0
  9
$DIMSE2
 70
0
  9
$DIMTAD
 70
1
  9
$DIMZIN
 70
8
  9
$DIMBLK
  1

  9
$DIMASO
 70
1
  9
$DIMSHO
 70
1
  9
$DIMPOST
  1

  9
$DIMAPOST
  1

  9
$DIMALT
 70
0
  9
$DIMALTD
 70
3
  9
$DIMALTF
 40
0.03937007874
  9
$DIMLFAC
 40
1.0
  9
$DIMTOFL
 70
1
  9
$DIMTVP
 40
0.0
  9
$DIMTIX
 70
0
  9
$DIMSOXD
 70
0
  9
$DIMSAH
 70
0
  9
$DIMBLK1
  1

  9
$DIMBLK2
  1

  9
$DIMSTYLE
  2
ISO-25
  9
$DIMCLRD
 70
0
  9
$DIMCLRE
 70
0
  9
$DIMCLRT
 70
0
  9
$DIMTFAC
 40
1.0
  9
$DIMGAP
 40
0.625
  9
$DIMJUST
 70
0
  9
$DIMSD1
 70
0
  9
$DIMSD2
 70
0
  9
$DIMTOLJ
 70
0
  9
$DIMTZIN
 70
8
  9
$DIMALTZ
 70
0
  9
$DIMALTTZ
 70
0
  9
$DIMUPT
 70
0
  9
$DIMDEC
 70
2
  9
$DIMTDEC
 70
2
  9
$DIMALTU
 70
2
  9
$DIMALTTD
 70
3
  9
$DIMTXSTY
  7
Standard
  9
$DIMAUNIT
 70
0
  9
$DIMADEC
 70
0
  9
$DIMALTRND
 40
0.0
  9
$DIMAZIN
 70
0
  9
$DIMDSEP
 70
44
  9
$DIMATFIT
 70
3
  9
$DIMFRAC
 70
0
  9
$DIMLDRBLK
  1

  9
$DIMLUNIT
 70
2
  9
$DIMLWD
 70
-2
  9
$DIMLWE
 70
-2
  9
$DIMTMOVE
 70
0
  9
$DIMFXL
 40
1.0
  9
$DIMFXLON
 70
0
  9
$DIMJOGANG
 40
0.785398163397
  9
$DIMTFILL
 70
0
  9
$DIMTFILLCLR
 70
0
  9
$DIMARCSYM
 70
0
  9
$DIMLTYPE
  6

  9
$DIMLTEX1
  6

  9
$DIMLTEX2
  6

  9
$DIMTXTDIRECTION
 70
0
  9
$LUNITS
 70
2
  9
$LUPREC
 70
4
  9
$SKETCHINC
 40
1.0
  9
$FILLETRAD
 40
10.0
  9
$AUNITS
 70
0
  9
$AUPREC
 70
2
  9
$MENU
  1
.
  9
$ELEVATION
 40
0.0
  9
$PELEVATION
 40
0.0
  9
$THICKNESS
 40
0.0
  9
$LIMCHECK
 70
0
  9
$CHAMFERA
 40
0.0
  9
$CHAMFERB
 40
0.0
  9
$CHAMFERC
 40
0.0
  9
$CHAMFERD
 40
0.0
  9
$SKPOLY
 70
0
  9
$TDCREATE
 40
2460319.0413194443
  9
$TDUCREATE
 40
2458532.153996898
  9
$TDUPDATE
 40
2460319.0413194443
  9
$TDUUPDATE
 40
2458532.1544311
  9
$TDINDWG
 40
0.0
  9
$TDUSRTIMER
 40
0.0
  9
$USRTIMER
 70
1
  9
$ANGBASE
 50
0.0
  9
$ANGDIR
 70
0
  9
$PDMODE
 70
0
  9
$PDSIZE
 40
0.0
  9
$PLINEWID
 40
0.0
  9
$SPLFRAME
 70
0
  9
$SPLINETYPE
 70
6
  9
$SPLINESEGS
 70
8
  9
$HANDSEED
  5
1D0
  9
$SURFTAB1
 70
6
  9
$SURFTAB2
 70
6
  9
$SURFTYPE
 70
6
  9
$SURFU
 70
6
  9
$SURFV
 70
6
  9
$UCSBASE
  2

  9
$UCSNAME
  2

  9
$UCSORG
 10
0.0
 20
0.0
 30
0.0
  9
$UCSXDIR
 10
1.0
 20
0.0
 30
0.0
  9
$UCSYDIR
 10
0.0
 20
1.0
 30
0.0
  9
$UCSORTHOREF
  2

  9
$UCSORTHOVIEW
 70
0
  9
$UCSORGTOP
 10
0.0
 20
0.0
 30
0.0
  9
$UCSORGBOTTOM
 10
0.0
 20
0.0
 30
0.0
  9
$UCSORGLEFT
 10
0.0
 20
0.0
 30
0.0
  9
$UCSORGRIGHT
 10
0.0
 20
0.0
 30
0.0
  9
$UCSORGFRONT
 10
0.0
 20
0.0
 30
0.0
  9
$UCSORGBACK
 10
0.0
 20
0.0
 30
0.0
  9
$PUCSBASE
  2

  9
$PUCSNAME
  2

  9
$PUCSORG
 10
0.0
 20
0.0
 30
0.0
  9
$PUCSXDIR
 10
1.0
 20
0.0
 30
0.0
  9
$PUCSYDIR
 10
0.0
 20
1.0
 30
0.0
  9
$PUCSORTHOREF
  2

  9
$PUCSORTHOVIEW
 70
0
  9
$PUCSORGTOP
 10
0.0
 20
0.0
 30
0.0
  9
$PUCSORGBOTTOM
 10
0.0
 20
0.0
 30
0.0
  9
$PUCSORGLEFT
 10
0.0
 20
0.0
 30
0.0
  9
$PUCSORGRIGHT
 10
0.0
 20
0.0
 30
0.0
  9
$PUCSORGFRONT
 10
0.0
 20
0.0
 30
0.0
  9
$PUCSORGBACK
 10
0.0
 20
0.0
 30
0.0
  9
$USERI1
 70
0
  9
$USERI2
 70
0
  9
$USERI3
 70
0
  9
$USERI4
 70
0
  9
$USERI5
 70
0
  9
$USERR1
 40
0.0
  9
$USERR2
 40
0.0
  9
$USERR3
 40
0.0
  9
$USERR4
 40
0.0
  9
$USERR5
 40
0.0
  9
$WORLDVIEW
 70
1
  9
$SHADEDGE
 70
3
  9
$SHADEDIF
 70
70
  9
$TILEMODE
 70
1
  9
$MAXACTVP
 70
64
  9
$PINSBASE
 10
0.0
 20
0.0
 30
0.0
  9
$PLIMCHECK
 70
0
  9
$PEXTMIN
 10
1e+20
 20
1e+20
 30
1e+20
  9
$PEXTMAX
 10
-1e+20
 20
-1e+20
 30
-1e+20
  9
$PLIMMIN
 10
0.0
 20
0.0
  9
$PLIMMAX
 10
420.0
 20
297.0
  9
$UNITMODE
 70
0
  9
$VISRETAIN
 70
1
  9
$PLINEGEN
 70
0
  9
$PSLTSCALE
 70
1
  9
$TREEDEPTH
 70
3020
  9
$CMLSTYLE
  2
Standard
  9
$CMLJUST
 70
0
  9
$CMLSCALE
 40
20.0
  9
$PROXYGRAPHICS
 70
1
  9
$MEASUREMENT
 70
1
  9
$CELWEIGHT
370
-1
  9
$ENDCAPS
280
0
  9
$JOINSTYLE
280
0
  9
$LWDISPLAY
290
0
  9
$INSUNITS
 70
6
  9
$HYPERLINKBASE
  1

  9
$STYLESHEET
  1

  9
$XEDIT
290
1
  9
$CEPSNTYPE
380
0
  9
$PSTYLEMODE
290
1
  9
$FINGERPRINTGUID
  2
{358EB8F4-5DB3-4B23-B5EA-03AB470A3404}
  9
$VERSIONGUID
  2
{8DC65A9A-29F5-4940-859F-811C416ADEC9}
  9
$EXTNAMES
290
1
  9
$PSVPSCALE
 40
0.0
  9
$OLESTARTUP
290
0
  9
$SORTENTS
280
127
  9
$INDEXCTL
280
0
  9
$HIDETEXT
280
1
  9
$XCLIPFRAME
280
0
  9
$HALOGAP
280
0
  9
$OBSCOLOR
 70
257
  9
$OBSLTYPE
280
0
  9
$INTERSECTIONDISPLAY
280
0
  9
$INTERSECTIONCOLOR
 70
257
  9
$DIMASSOC
280
2
  9
$PROJECTNAME
  1

  9
$CAMERADISPLAY
290
0
  9
$LENSLENGTH
 40
50.0
  9
$CAMERAHEIGHT
 40
0.0
  9
$STEPSPERSEC
 40
24.0
  9
$STEPSIZE
 40
100.0
  9
$3DDWFPREC
 40
2.0
  9
$PSOLWIDTH
 40
0.005
  9
$PSOLHEIGHT
 40
0.08
  9
$LOFTANG1
 40
1.570796326795
  9
$LOFTANG2
 40
1.570796326795
  9
$LOFTMAG1
 40
0.0
  9
$LOFTMAG2
 40
0.0
  9
$LOFTPARAM
 70
7
  9
$LOFTNORMALS
280
1
  9
$LATITUDE
 40
37.795
  9
$LONGITUDE
 40
-122.394
  9
$NORTHDIRECTION
 40
0.0
  9
$TIMEZONE
 70
-8000
  9
$LIGHTGLYPHDISPLAY
280
1
  9
$TILEMODELIGHTSYNCH
280
1
  9
$CMATERIAL
347
20
  9
$SOLIDHIST
280
0
  9
$SHOWHIST
280
1
  9
$DWFFRAME
280
2
  9
$DGNFRAME
280
2
  9
$REALWORLDSCALE
290
1
  9
$INTERFERECOLOR
 62
256
  9
$CSHADOW
280
0
  9
$SHADOWPLANELOCATION
 40
0.0
  0
ENDSEC
  0
SECTION
  2
CLASSES
  0
CLASS
  1
ACDBDICTIONARYWDFLT
  2
AcDbDictionaryWithDefault
  3
ObjectDBX Classes
 90
0
 91
0
280
0
281
0
  0
CLASS
  1
SUN
  2
AcDbSun
  3
SCENEOE
 90
1153
 91
0
280
0
281
0
  0
CLASS
  1
VISUALSTYLE
  2
AcDbVisualStyle
  3
ObjectDBX Classes
 90
4095
 91
0
280
0
281
0
  0
CLASS
  1
MATERIAL
  2
AcDbMaterial
  3
ObjectDBX Classes
 90
1153
 91
0
280
0
281
0
  0
CLASS
  1
SCALE
  2
AcDbScale
  3
ObjectDBX Classes
 90
1153
 91
0
280
0
281
0
  0
CLASS
  1
TABLESTYLE
  2
AcDbTableStyle
  3
ObjectDBX Classes
 90
4095
 91
0
280
0
281
0
  0
CLASS
  1
MLEADERSTYLE
  2
AcDbMLeaderStyle
  3
ACDB_MLEADERSTYLE_CLASS
 90
4095
 91
0
280
0
281
0
  0
CLASS
  1
DICTIONARYVAR
  2
AcDbDictionaryVar
  3
ObjectDBX Classes
 90
0
 91
0
280
0
281
0
  0
CLASS
  1
CELLSTYLEMAP
  2
AcDbCellStyleMap
  3
ObjectDBX Classes
 90
1152
 91
0
280
0
281
0
  0
CLASS
  1
MENTALRAYRENDERSETTINGS
  2
AcDbMentalRayRenderSettings
  3
SCENEOE
 90
1024
 91
0
280
0
281
0
  0
CLASS
  1
ACDBDETAILVIEWSTYLE
  2
AcDbDetailViewStyle
  3
ObjectDBX Classes
 90
1025
 91
0
280
0
281
0
  0
CLASS
  1
ACDBSECTIONVIEWSTYLE
  2
AcDbSectionViewStyle
  3
ObjectDBX Classes
 90
1025
 91
0
280
0
281
0
  0
CLASS
  1
RASTERVARIABLES
  2
AcDbRasterVariables
  3
ISM
 90
0
 91
0
280
0
281
0
  0
CLASS
  1
LAYOUT
  2
AcDbLayout
  3
ObjectDBX Classes
 90
0
 91
0
280
0
281
0
  0
CLASS
  1
ACDBPLACEHOLDER
  2
AcDbPlaceHolder
  3
ObjectDBX Classes
 90
0
 91
0
280
0
281
0
  0
ENDSEC
  0
SECTION
  2
TABLES
  0
TABLE
  2
VPORT
  5
8
330
0
100
AcDbSymbolTable
 70
1
  0
VPORT
  5
23
330
8
100
AcDbSymbolTableRecord
100
AcDbViewportTableRecord
  2
*Active
 70
0
 10
0.0
 20
0.0
 11
1.0
 21
1.0
 12
0.0
 22
0.0
 13
0.0
 23
0.0
 14
0.5
 24
0.5
 15
0.5
 25
0.5
 16
0.0
 26
0.0
 36
1.0
 17
0.0
 27
0.0
 37
0.0
 40
1000.0
 41
1.34
 42
50.0
 43
0.0
 44
0.0
 50
0.0
 51
0.0
 71
0
 72
1000
 73
1
 74
3
 75
0
 76
0
 77
0
 78
0
281
0
 65
0
146
0.0
  0
ENDTAB
  0
TABLE
  2
LTYPE
  5
2
330
0
100
AcDbSymbolTable
 70
3
  0
LTYPE
  5
24
330
2
100
AcDbSymbolTableRecord
100
AcDbLinetypeTableRecord
  2
ByBlock
 70
0
  3

 72
65
 73
0
 40
0.0
  0
LTYPE
  5
25
330
2
100
AcDbSymbolTableRecord
100
AcDbLinetypeTableRecord
  2
ByLayer
 70
0
  3

 72
65
 73
0
 40
0.0
  0
LTYPE
  5
26
330
2
100
AcDbSymbolTableRecord
100
AcDbLinetypeTableRecord
  2
Continuous
 70
0
  3

 72
65
 73
0
 40
0.0
  0
ENDTAB
  0
TABLE
  2
LAYER
  5
1
330
0
100
AcDbSymbolTable
 70
2
  0
LAYER
  5
27
330
1
100
AcDbSymbolTableRecord
100
AcDbLayerTableRecord
  2
0
 70
0
 62
7
  6
Continuous
370
-3
390
13
347
21
  0
LAYER
  5
28
330
1
100
AcDbSymbolTableRecord
100
AcDbLayerTableRecord
  2
Defpoints
 70
0
 62
7
  6
Continuous
290
0
370
-3
390
13
347
21
  0
ENDTAB
  0
TABLE
  2
STYLE
  5
5
330
0
100
AcDbSymbolTable
 70
1
  0
STYLE
  5
29
330
5
100
AcDbSymbolTableRecord
100
AcDbTextStyleTableRecord
  2
Standard
 70
0
 40
0.0
 41
1.0
 50
0.0
 71
0
 42
2.5
  3
txt
  4

  0
ENDTAB
  0
TABLE
  2
VIEW
  5
7
330
0
100
AcDbSymbolTable
 70
0
  0
ENDTAB
  0
TABLE
  2
UCS
  5
6
330
0
100
AcDbSymbolTable
 70
0
  0
ENDTAB
  0
TABLE
  2
APPID
  5
3
330
0
100
AcDbSymbolTable
 70
3
  0
APPID
  5
2A
330
3
100
AcDbSymbolTableRecord
100
AcDbRegAppTableRecord
  2
ACAD
 70
0
  0
APPID
  5
1CD
330
3
100
AcDbSymbolTableRecord
100
AcDbRegAppTableRecord
  2
HATCHBACKGROUNDCOLOR
 70
0
  0
APPID
  5
1CE
330
3
100
AcDbSymbolTableRecord
100
AcDbRegAppTableRecord
  2
EZDXF
 70
0
  0
ENDTAB
  0
TABLE
  2
DIMSTYLE
  5
4
330
0
100
AcDbSymbolTable
 70
1
100
AcDbDimStyleTable
  0
DIMSTYLE
105
2B
330
4
100
AcDbSymbolTableRecord
100
AcDbDimStyleTableRecord
  2
Standard
 70
0
 40
1.0
 41
2.5
 42
0.625
 43
3.75
 44
1.25
 45
0.0
 46
0.0
 47
0.0
 48
0.0
 49
2.5
140
2.5
141
2.5
142
0.0
143
0.03937007874
144
1.0
145
0.0
146
1.0
147
0.625
148
0.0
 69
0
 70
0
 71
0
 72
0
 73
0
 74
0
 75
0
 76
0
 77
1
 78
8
 79
3
170
0
171
3
172
1
173
0
174
0
175
0
176
0
177
0
178
0
179
2
271
2
272
2
273
2
274
3
275
0
276
0
277
2
278
44
279
0
280
0
281
0
282
0
283
0
284
8
285
0
286
0
288
0
289
3
290
0
371
-2
372
-2
  0
ENDTAB
  0
TABLE
  2
BLOCK_RECORD
  5
9
330
0
100
AcDbSymbolTable
 70
2
  0
BLOCK_RECORD
  5
17
330
9
100
AcDbSymbolTableRecord
100
AcDbBlockTableRecord
  2
*Model_Space
340
1A
 70
0
280
1
281
0
  0
BLOCK_RECORD
  5
1B
330
9
100
AcDbSymbolTableRecord
100
AcDbBlockTableRecord
  2
*Paper_Space
340
1E
 70
0
280
1
281
0
  0
ENDTAB
  0
ENDSEC
  0
SECTION
  2
BLOCKS
  0
BLOCK
  5
18
330
17
100
AcDbEntity
  8
0
100
AcDbBlockBegin
  2
*Model_Space
 70
0
 10
0.0
 20
0.0
 30
0.0
  3
*Model_Space
  1

  0
ENDBLK
  5
19
330
17
100
AcDbEntity
  8
0
100
AcDbBlockEnd
  0
BLOCK
  5
1C
330
1B
100
AcDbEntity
  8
0
100
AcDbBlockBegin
  2
*Paper_Space
 70
0
 10
0.0
 20
0.0
 30
0.0
  3
*Paper_Space
  1

  0
ENDBLK
  5
1D
330
1B
100
AcDbEntity
  8
0
100
AcDbBlockEnd
  0
ENDSEC
  0
SECTION
  2
ENTITIES
  0
LINE
  5
2F
330
17
100
AcDbEntity
  8
EL-Roof
 62
1
100
AcDbLine
 10
19870.377551489764
 20
537.2941633772575
 30
0.0
 11
20056.08531514772
 21
537.2941495333902
 31
0.0
  0
LINE
  5
30
330
17
100
AcDbEntity
  8
FP-Roof
 62
8
100
AcDbLine
 10
19872.05504990833
 20
551.6584432191707
 30
0.0
 11
19872.055049908402
 21
537.2941580943411
 31
0.0
  0
LINE
  5
31
330
17
100
AcDbEntity
  8
FP-Roof
 62
8
100
AcDbLine
 10
19912.580464855808
 20
546.5881635592673
 30
0.0
 11
19872.824676245797
 21
546.5879944009052
 31
0.0
  0
LINE
  5
32
330
17
100
AcDbEntity
  8
FP-Roof
 62
8
100
AcDbLine
 10
19912.831175643467
 20
547.1101478270234
 30
0.0
 11
19872.824676245797
 21
547.1099783597679
 31
0.0
  0
LINE
  5
33
330
17
100
AcDbEntity
  8
FP-Roof
 62
8
100
AcDbLine
 10
19872.838022849315
 20
551.6614078299649
 30
0.0
 11
19872.838022849315
 21
537.2941580943411
 31
0.0
  0
LINE
  5
34
330
17
100
AcDbEntity
  8
FP-Roof
 62
8
100
AcDbLine
 10
19878.91588786207
 20
554.6561812833356
 30
0.0
 11
19878.05582857261
 21
553.1665148867346
 31
0.0
  0
LINE
  5
35
330
17
100
AcDbEntity
  8
FP-Roof
 62
8
100
AcDbLine
 10
19879.788486863003
 20
551.4283841076526
 30
0.0
 11
19878.787031128715
 21
551.4283841076526
 31
0.0
  0
LINE
  5
36
330
17
100
AcDbEntity
  8
FP-Roof
 62
8
100
AcDbLine
 10
19879.02676801565
 20
551.4283841076526
 30
0.0
 11
19879.026768015505
 21
549.4858320952212
 31
0.0
  0
LINE
  5
37
330
17
100
AcDbEntity
  8
FP-Roof
 62
8
100
AcDbLine
 10
19879.0267782165
 20
547.1077724398551
 30
0.0
 11
19879.02677821655
 21
537.2894794139506
 31
0.0
  0
LINE
  5
38
330
17
100
AcDbEntity
  8
FP-Roof
 62
8
100
AcDbLine
 10
19879.548749976257
 20
551.4283841076526
 30
0.0
 11
19879.54874997611
 21
549.4878085024161
 31
0.0
  0
LINE
  5
39
330
17
100
AcDbEntity
  8
FP-Roof
 62
8
100
AcDbLine
 10
19879.548760177164
 20
547.1057960327494
 30
0.0
 11
19879.548760177164
 21
537.2894794139506
 31
0.0
  0
LINE
  5
3A
330
17
100
AcDbEntity
  8
FP-Roof
 62
8
100
AcDbLine
 10
19879.668520568343
 20
554.6561812833356
 30
0.0
 11
19880.5285798578
 21
553.1665148867346
 31
0.0
  0
LINE
  5
3B
330
17
100
AcDbEntity
  8
FP-Roof
 62
8
100
AcDbLine
 10
19885.626625189918
 20
554.6561812815876
 30
0.0
 11
19884.76656590046
 21
553.1665148849866
 31
0.0
  0
LINE
  5
3C
330
17
100
AcDbEntity
  8
FP-Roof
 62
8
100
AcDbLine
 10
19886.49922419086
 20
551.4283841059046
 30
0.0
 11
19885.49776845657
 21
551.4283841059046
 31
0.0
  0
LINE
  5
3D
330
17
100
AcDbEntity
  8
FP-Roof
 62
8
100
AcDbLine
 10
19885.737505343506
 20
551.4283841059046
 30
0.0
 11
19885.73750534336
 21
549.4858320934732
 31
0.0
  0
LINE
  5
3E
330
17
100
AcDbEntity
  8
FP-Roof
 62
8
100
AcDbLine
 10
19885.737515544355
 20
547.1077724381071
 30
0.0
 11
19885.7375155444
 21
537.2894794122026
 31
0.0
  0
LINE
  5
3F
330
17
100
AcDbEntity
  8
FP-Roof
 62
8
100
AcDbLine
 10
19886.259487304113
 20
551.4283841059046
 30
0.0
 11
19886.259487303967
 21
549.487808500668
 31
0.0
  0
LINE
  5
40
330
17
100
AcDbEntity
  8
FP-Roof
 62
8
100
AcDbLine
 10
19886.25949750502
 20
547.1057960310013
 30
0.0
 11
19886.25949750502
 21
537.2894794122026
 31
0.0
  0
LINE
  5
41
330
17
100
AcDbEntity
  8
FP-Roof
 62
8
100
AcDbLine
 10
19886.37925789619
 20
554.6561812815876
 30
0.0
 11
19887.23931718565
 21
553.1665148849866
 31
0.0
  0
LINE
  5
42
330
17
100
AcDbEntity
  8
FP-Roof
 62
8
100
AcDbLine
 10
19892.337362517774
 20
554.6561812798395
 30
0.0
 11
19891.477303228316
 21
553.1665148832385
 31
0.0
  0
LINE
  5
43
330
17
100
AcDbEntity
  8
FP-Roof
 62
8
100
AcDbLine
 10
19893.209961518707
 20
551.4283841041565
 30
0.0
 11
19892.20850578442
 21
551.4283841041565
 31
0.0
  0
LINE
  5
44
330
17
100
AcDbEntity
  8
FP-Roof
 62
8
100
AcDbLine
 10
19892.448242671355
 20
551.4283841041565
 30
0.0
 11
19892.44824267121
 21
549.4858320917251
 31
0.0
  0
LINE
  5
45
330
17
100
AcDbEntity
  8
FP-Roof
 62
8
100
AcDbLine
 10
19892.448252872204
 20
547.107772436359
 30
0.0
 11
19892.448252872255
 21
537.2894794104545
 31
0.0
  0
LINE
  5
46
330
17
100
AcDbEntity
  8
FP-Roof
 62
8
100
AcDbLine
 10
19892.97022463196
 20
551.4283841041565
 30
0.0
 11
19892.970224631816
 21
549.48780849892
 31
0.0
  0
LINE
  5
47
330
17
100
AcDbEntity
  8
FP-Roof
 62
8
100
AcDbLine
 10
19892.97023483287
 20
547.1057960292533
 30
0.0
 11
19892.97023483287
 21
537.2894794104545
 31
0.0
  0
LINE
  5
48
330
17
100
AcDbEntity
  8
FP-Roof
 62
8
100
AcDbLine
 10
19893.089995224047
 20
554.6561812798395
 30
0.0
 11
19893.950054513505
 21
553.1665148832385
 31
0.0
  0
LINE
  5
49
330
17
100
AcDbEntity
  8
FP-Roof
 62
8
100
AcDbLine
 10
19899.048099845622
 20
554.6561812780915
 30
0.0
 11
19898.188040556164
 21
553.1665148814905
 31
0.0
  0
LINE
  5
4A
330
17
100
AcDbEntity
  8
FP-Roof
 62
8
100
AcDbLine
 10
19899.920698846563
 20
551.4283841024085
 30
0.0
 11
19898.919243112276
 21
551.4283841024085
 31
0.0
  0
LINE
  5
4B
330
17
100
AcDbEntity
  8
FP-Roof
 62
8
100
AcDbLine
 10
19899.15897999921
 20
551.4283841024085
 30
0.0
 11
19899.158979999065
 21
549.4858320899771
 31
0.0
  0
LINE
  5
4C
330
17
100
AcDbEntity
  8
FP-Roof
 62
8
100
AcDbLine
 10
19899.15899020006
 20
547.107772434611
 30
0.0
 11
19899.158990200103
 21
537.2894794087065
 31
0.0
  0
LINE
  5
4D
330
17
100
AcDbEntity
  8
FP-Roof
 62
8
100
AcDbLine
 10
19899.680961959817
 20
551.4283841024085
 30
0.0
 11
19899.68096195967
 21
549.487808497172
 31
0.0
  0
LINE
  5
4E
330
17
100
AcDbEntity
  8
FP-Roof
 62
8
100
AcDbLine
 10
19899.680972160724
 20
547.1057960275052
 30
0.0
 11
19899.680972160724
 21
537.2894794087065
 31
0.0
  0
LINE
  5
4F
330
17
100
AcDbEntity
  8
FP-Roof
 62
8
100
AcDbLine
 10
19899.800732551896
 20
554.6561812780915
 30
0.0
 11
19900.660791841354
 21
553.1665148814905
 31
0.0
  0
LINE
  5
50
330
17
100
AcDbEntity
  8
FP-Roof
 62
8
100
AcDbLine
 10
19905.75883717348
 20
554.6561812763434
 30
0.0
 11
19904.89877788402
 21
553.1665148797424
 31
0.0
  0
LINE
  5
51
330
17
100
AcDbEntity
  8
FP-Roof
 62
8
100
AcDbLine
 10
19906.63143617441
 20
551.4283841006604
 30
0.0
 11
19905.629980440124
 21
551.4283841006604
 31
0.0
  0
LINE
  5
52
330
17
100
AcDbEntity
  8
FP-Roof
 62
8
100
AcDbLine
 10
19905.86971732706
 20
551.4283841006604
 30
0.0
 11
19905.869717326914
 21
549.485832088229
 31
0.0
  0
LINE
  5
53
330
17
100
AcDbEntity
  8
FP-Roof
 62
8
100
AcDbLine
 10
19905.86972752791
 20
547.1077724328629
 30
0.0
 11
19905.86972752796
 21
537.2894794069584
 31
0.0
  0
LINE
  5
54
330
17
100
AcDbEntity
  8
FP-Roof
 62
8
100
AcDbLine
 10
19906.391699287666
 20
551.4283841006604
 30
0.0
 11
19906.39169928752
 21
549.4878084954239
 31
0.0
  0
LINE
  5
55
330
17
100
AcDbEntity
  8
FP-Roof
 62
8
100
AcDbLine
 10
19906.391709488573
 20
547.1057960257572
 30
0.0
 11
19906.391709488573
 21
537.2894794069584
 31
0.0
  0
LINE
  5
56
330
17
100
AcDbEntity
  8
FP-Roof
 62
8
100
AcDbLine
 10
19906.51146987975
 20
554.6561812763434
 30
0.0
 11
19907.37152916921
 21
553.1665148797424
 31
0.0
  0
LINE
  5
57
330
17
100
AcDbEntity
  8
FP-Roof
 62
8
100
AcDbLine
 10
19913.59031482619
 20
554.5295049330603
 30
0.0
 11
19912.08813122469
 21
554.5295049330603
 31
0.0
  0
LINE
  5
58
330
17
100
AcDbEntity
  8
FP-Roof
 62
8
100
AcDbLine
 10
19912.580454654988
 20
554.5295049330603
 30
0.0
 11
19912.580454654813
 21
549.4858320872613
 31
0.0
  0
LINE
  5
59
330
17
100
AcDbEntity
  8
FP-Roof
 62
8
100
AcDbLine
 10
19912.580464855808
 20
547.1077724313113
 30
0.0
 11
19912.580464855808
 21
537.2894794053104
 31
0.0
  0
LINE
  5
5A
330
17
100
AcDbEntity
  8
FP-Roof
 62
8
100
AcDbLine
 10
19912.860606065584
 20
547.1101478270234
 30
0.0
 11
19952.853758858986
 21
547.1098895227337
 31
0.0
  0
LINE
  5
5B
330
17
100
AcDbEntity
  8
FP-Roof
 62
8
100
AcDbLine
 10
19913.1024366156
 20
554.5295049330639
 30
0.0
 11
19913.10243661542
 21
549.4878084937759
 31
0.0
  0
LINE
  5
5C
330
17
100
AcDbEntity
  8
FP-Roof
 62
8
100
AcDbLine
 10
19913.102446816458
 20
547.1057960239145
 30
0.0
 11
19913.102446816414
 21
537.289479405114
 31
0.0
  0
LINE
  5
5D
330
17
100
AcDbEntity
  8
FP-Roof
 62
8
100
AcDbLine
 10
19913.102446816458
 20
546.5881636324107
 30
0.0
 11
19952.853758858986
 21
546.5879050005901
 31
0.0
  0
LINE
  5
5E
330
17
100
AcDbEntity
  8
FP-Roof
 62
8
100
AcDbLine
 10
19919.18031182855
 20
554.6561812763434
 30
0.0
 11
19918.32025253909
 21
553.1665148797424
 31
0.0
  0
LINE
  5
5F
330
17
100
AcDbEntity
  8
FP-Roof
 62
8
100
AcDbLine
 10
19919.060345533882
 20
551.4283841006604
 30
0.0
 11
19920.06180126817
 21
551.4283841006604
 31
0.0
  0
LINE
  5
60
330
17
100
AcDbEntity
  8
FP-Roof
 62
8
100
AcDbLine
 10
19919.30007221972
 20
547.1057960257572
 30
0.0
 11
19919.30007221972
 21
537.2894794069584
 31
0.0
  0
LINE
  5
61
330
17
100
AcDbEntity
  8
FP-Roof
 62
8
100
AcDbLine
 10
19919.30008242063
 20
551.4283841006604
 30
0.0
 11
19919.300082420774
 21
549.4878084954239
 31
0.0
  0
LINE
  5
62
330
17
100
AcDbEntity
  8
FP-Roof
 62
8
100
AcDbLine
 10
19919.822054180386
 20
547.1077724328629
 30
0.0
 11
19919.822054180342
 21
537.2894794069584
 31
0.0
  0
LINE
  5
63
330
17
100
AcDbEntity
  8
FP-Roof
 62
8
100
AcDbLine
 10
19919.822064381235
 20
551.4283841006604
 30
0.0
 11
19919.82206438138
 21
549.485832088229
 31
0.0
  0
LINE
  5
64
330
17
100
AcDbEntity
  8
FP-Roof
 62
8
100
AcDbLine
 10
19919.932944534823
 20
554.6561812763434
 30
0.0
 11
19920.79300382428
 21
553.1665148797424
 31
0.0
  0
LINE
  5
65
330
17
100
AcDbEntity
  8
FP-Roof
 62
8
100
AcDbLine
 10
19925.8910491564
 20
554.6561812780915
 30
0.0
 11
19925.03098986694
 21
553.1665148814905
 31
0.0
  0
LINE
  5
66
330
17
100
AcDbEntity
  8
FP-Roof
 62
8
100
AcDbLine
 10
19925.77108286174
 20
551.4283841024085
 30
0.0
 11
19926.772538596026
 21
551.4283841024085
 31
0.0
  0
LINE
  5
67
330
17
100
AcDbEntity
  8
FP-Roof
 62
8
100
AcDbLine
 10
19926.010809547577
 20
547.1057960275052
 30
0.0
 11
19926.010809547577
 21
537.2894794087065
 31
0.0
  0
LINE
  5
68
330
17
100
AcDbEntity
  8
FP-Roof
 62
8
100
AcDbLine
 10
19926.010819748484
 20
551.4283841024085
 30
0.0
 11
19926.01081974863
 21
549.487808497172
 31
0.0
  0
LINE
  5
69
330
17
100
AcDbEntity
  8
FP-Roof
 62
8
100
AcDbLine
 10
19926.53279150824
 20
547.107772434611
 30
0.0
 11
19926.53279150819
 21
537.2894794087065
 31
0.0
  0
LINE
  5
6A
330
17
100
AcDbEntity
  8
FP-Roof
 62
8
100
AcDbLine
 10
19926.53280170909
 20
551.4283841024085
 30
0.0
 11
19926.532801709236
 21
549.4858320899771
 31
0.0
  0
LINE
  5
6B
330
17
100
AcDbEntity
  8
FP-Roof
 62
8
100
AcDbLine
 10
19926.64368186267
 20
554.6561812780915
 30
0.0
 11
19927.50374115213
 21
553.1665148814905
 31
0.0
  0
LINE
  5
6C
330
17
100
AcDbEntity
  8
FP-Roof
 62
8
100
AcDbLine
 10
19932.601786484254
 20
554.6561812798395
 30
0.0
 11
19931.741727194796
 21
553.1665148832385
 31
0.0
  0
LINE
  5
6D
330
17
100
AcDbEntity
  8
FP-Roof
 62
8
100
AcDbLine
 10
19932.377838580604
 20
547.1102188845348
 30
0.0
 11
19952.853758858986
 21
547.1101391434681
 31
0.0
  0
LINE
  5
6E
330
17
100
AcDbEntity
  8
FP-Roof
 62
8
100
AcDbLine
 10
19932.481820189587
 20
551.4283841041565
 30
0.0
 11
19933.483275923874
 21
551.4283841041565
 31
0.0
  0
LINE
  5
6F
330
17
100
AcDbEntity
  8
FP-Roof
 62
8
100
AcDbLine
 10
19932.721546875426
 20
547.1057960292533
 30
0.0
 11
19932.721546875426
 21
537.2894794104545
 31
0.0
  0
LINE
  5
70
330
17
100
AcDbEntity
  8
FP-Roof
 62
8
100
AcDbLine
 10
19932.721557076333
 20
551.4283841041565
 30
0.0
 11
19932.72155707648
 21
549.48780849892
 31
0.0
  0
LINE
  5
71
330
17
100
AcDbEntity
  8
FP-Roof
 62
8
100
AcDbLine
 10
19933.24352883609
 20
547.107772436359
 30
0.0
 11
19933.243528836047
 21
537.2894794104545
 31
0.0
  0
LINE
  5
72
330
17
100
AcDbEntity
  8
FP-Roof
 62
8
100
AcDbLine
 10
19933.24353903694
 20
551.4283841041565
 30
0.0
 11
19933.243539037085
 21
549.4858320917251
 31
0.0
  0
LINE
  5
73
330
17
100
AcDbEntity
  8
FP-Roof
 62
8
100
AcDbLine
 10
19933.354419190528
 20
554.6561812798395
 30
0.0
 11
19934.214478479986
 21
553.1665148832385
 31
0.0
  0
LINE
  5
74
330
17
100
AcDbEntity
  8
FP-Roof
 62
8
100
AcDbLine
 10
19939.312523812103
 20
554.6561812815876
 30
0.0
 11
19938.452464522645
 21
553.1665148849866
 31
0.0
  0
LINE
  5
75
330
17
100
AcDbEntity
  8
FP-Roof
 62
8
100
AcDbLine
 10
19939.192557517443
 20
551.4283841059046
 30
0.0
 11
19940.19401325173
 21
551.4283841059046
 31
0.0
  0
LINE
  5
76
330
17
100
AcDbEntity
  8
FP-Roof
 62
8
100
AcDbLine
 10
19939.43228420328
 20
547.1057960310013
 30
0.0
 11
19939.43228420328
 21
537.2894794122026
 31
0.0
  0
LINE
  5
77
330
17
100
AcDbEntity
  8
FP-Roof
 62
8
100
AcDbLine
 10
19939.43229440419
 20
551.4283841059046
 30
0.0
 11
19939.432294404334
 21
549.487808500668
 31
0.0
  0
LINE
  5
78
330
17
100
AcDbEntity
  8
FP-Roof
 62
8
100
AcDbLine
 10
19939.954266163946
 20
547.1077724381071
 30
0.0
 11
19939.954266163895
 21
537.2894794122026
 31
0.0
  0
LINE
  5
79
330
17
100
AcDbEntity
  8
FP-Roof
 62
8
100
AcDbLine
 10
19939.954276364795
 20
551.4283841059046
 30
0.0
 11
19939.95427636494
 21
549.4858320934732
 31
0.0
  0
LINE
  5
7A
330
17
100
AcDbEntity
  8
FP-Roof
 62
8
100
AcDbLine
 10
19940.065156518376
 20
554.6561812815876
 30
0.0
 11
19940.925215807834
 21
553.1665148849866
 31
0.0
  0
LINE
  5
7B
330
17
100
AcDbEntity
  8
FP-Roof
 62
8
100
AcDbLine
 10
19946.02326113996
 20
554.6561812833356
 30
0.0
 11
19945.1632018505
 21
553.1665148867346
 31
0.0
  0
LINE
  5
7C
330
17
100
AcDbEntity
  8
FP-Roof
 62
8
100
AcDbLine
 10
19945.90329484529
 20
551.4283841076526
 30
0.0
 11
19946.90475057958
 21
551.4283841076526
 31
0.0
  0
LINE
  5
7D
330
17
100
AcDbEntity
  8
FP-Roof
 62
8
100
AcDbLine
 10
19946.14302153113
 20
547.1057960327494
 30
0.0
 11
19946.14302153113
 21
537.2894794139506
 31
0.0
  0
LINE
  5
7E
330
17
100
AcDbEntity
  8
FP-Roof
 62
8
100
AcDbLine
 10
19946.143031732037
 20
551.4283841076526
 30
0.0
 11
19946.143031732183
 21
549.4878085024161
 31
0.0
  0
LINE
  5
7F
330
17
100
AcDbEntity
  8
FP-Roof
 62
8
100
AcDbLine
 10
19946.665003491795
 20
547.1077724398551
 30
0.0
 11
19946.66500349175
 21
537.2894794139506
 31
0.0
  0
LINE
  5
80
330
17
100
AcDbEntity
  8
FP-Roof
 62
8
100
AcDbLine
 10
19946.665013692644
 20
551.4283841076526
 30
0.0
 11
19946.66501369279
 21
549.4858320952212
 31
0.0
  0
LINE
  5
81
330
17
100
AcDbEntity
  8
FP-Roof
 62
8
100
AcDbLine
 10
19946.775893846232
 20
554.6561812833356
 30
0.0
 11
19947.63595313569
 21
553.1665148867346
 31
0.0
  0
LINE
  5
82
330
17
100
AcDbEntity
  8
FP-Roof
 62
8
100
AcDbLine
 10
19952.85375885896
 20
551.6584432183521
 30
0.0
 11
19952.853758859033
 21
537.2941580935225
 31
0.0
  0
LINE
  5
83
330
17
100
AcDbEntity
  8
FP-Roof
 62
8
100
AcDbLine
 10
19953.636731799947
 20
551.6614078291462
 30
0.0
 11
19953.636731799947
 21
537.2941580935225
 31
0.0
  0
LINE
  5
84
330
17
100
AcDbEntity
  8
FP-Roof
 62
8
100
AcDbLine
 10
19993.388043842475
 20
546.588163631592
 30
0.0
 11
19953.636731799947
 21
546.5879049997715
 31
0.0
  0
LINE
  5
85
330
17
100
AcDbEntity
  8
FP-Roof
 62
8
100
AcDbLine
 10
19993.62988459334
 20
547.1101478262048
 30
0.0
 11
19953.636731799947
 21
547.1098895219151
 31
0.0
  0
LINE
  5
86
330
17
100
AcDbEntity
  8
FP-Roof
 62
8
100
AcDbLine
 10
19974.11265207833
 20
547.1102188837161
 30
0.0
 11
19953.636731799947
 21
547.1101391426495
 31
0.0
  0
LINE
  5
87
330
17
100
AcDbEntity
  8
FP-Roof
 62
8
100
AcDbLine
 10
19959.7145968127
 20
554.656181282517
 30
0.0
 11
19958.854537523242
 21
553.166514885916
 31
0.0
  0
LINE
  5
88
330
17
100
AcDbEntity
  8
FP-Roof
 62
8
100
AcDbLine
 10
19960.587195813634
 20
551.428384106834
 30
0.0
 11
19959.585740079347
 21
551.428384106834
 31
0.0
  0
LINE
  5
89
330
17
100
AcDbEntity
  8
FP-Roof
 62
8
100
AcDbLine
 10
19959.82547696628
 20
551.428384106834
 30
0.0
 11
19959.825476966136
 21
549.4858320944026
 31
0.0
  0
LINE
  5
8A
330
17
100
AcDbEntity
  8
FP-Roof
 62
8
100
AcDbLine
 10
19959.82548716713
 20
547.1077724390365
 30
0.0
 11
19959.82548716718
 21
537.289479413132
 31
0.0
  0
LINE
  5
8B
330
17
100
AcDbEntity
  8
FP-Roof
 62
8
100
AcDbLine
 10
19960.347458926888
 20
551.428384106834
 30
0.0
 11
19960.347458926743
 21
549.4878085015974
 31
0.0
  0
LINE
  5
8C
330
17
100
AcDbEntity
  8
FP-Roof
 62
8
100
AcDbLine
 10
19960.347469127795
 20
547.1057960319307
 30
0.0
 11
19960.347469127795
 21
537.289479413132
 31
0.0
  0
LINE
  5
8D
330
17
100
AcDbEntity
  8
FP-Roof
 62
8
100
AcDbLine
 10
19960.467229518974
 20
554.656181282517
 30
0.0
 11
19961.327288808432
 21
553.166514885916
 31
0.0
  0
LINE
  5
8E
330
17
100
AcDbEntity
  8
FP-Roof
 62
8
100
AcDbLine
 10
19966.42533414055
 20
554.6561812807689
 30
0.0
 11
19965.56527485109
 21
553.1665148841679
 31
0.0
  0
LINE
  5
8F
330
17
100
AcDbEntity
  8
FP-Roof
 62
8
100
AcDbLine
 10
19967.29793314149
 20
551.4283841050859
 30
0.0
 11
19966.296477407202
 21
551.4283841050859
 31
0.0
  0
LINE
  5
90
330
17
100
AcDbEntity
  8
FP-Roof
 62
8
100
AcDbLine
 10
19966.536214294138
 20
551.4283841050859
 30
0.0
 11
19966.536214293992
 21
549.4858320926545
 31
0.0
  0
LINE
  5
91
330
17
100
AcDbEntity
  8
FP-Roof
 62
8
100
AcDbLine
 10
19966.536224494987
 20
547.1077724372884
 30
0.0
 11
19966.53622449503
 21
537.2894794113839
 31
0.0
  0
LINE
  5
92
330
17
100
AcDbEntity
  8
FP-Roof
 62
8
100
AcDbLine
 10
19967.058196254744
 20
551.4283841050859
 30
0.0
 11
19967.0581962546
 21
549.4878084998494
 31
0.0
  0
LINE
  5
93
330
17
100
AcDbEntity
  8
FP-Roof
 62
8
100
AcDbLine
 10
19967.05820645565
 20
547.1057960301827
 30
0.0
 11
19967.05820645565
 21
537.2894794113839
 31
0.0
  0
LINE
  5
94
330
17
100
AcDbEntity
  8
FP-Roof
 62
8
100
AcDbLine
 10
19967.177966846823
 20
554.6561812807689
 30
0.0
 11
19968.03802613628
 21
553.1665148841679
 31
0.0
  0
LINE
  5
95
330
17
100
AcDbEntity
  8
FP-Roof
 62
8
100
AcDbLine
 10
19973.136071468405
 20
554.6561812790209
 30
0.0
 11
19972.276012178947
 21
553.1665148824198
 31
0.0
  0
LINE
  5
96
330
17
100
AcDbEntity
  8
FP-Roof
 62
8
100
AcDbLine
 10
19974.00867046934
 20
551.4283841033379
 30
0.0
 11
19973.00721473505
 21
551.4283841033379
 31
0.0
  0
LINE
  5
97
330
17
100
AcDbEntity
  8
FP-Roof
 62
8
100
AcDbLine
 10
19973.246951621986
 20
551.4283841033379
 30
0.0
 11
19973.24695162184
 21
549.4858320909065
 31
0.0
  0
LINE
  5
98
330
17
100
AcDbEntity
  8
FP-Roof
 62
8
100
AcDbLine
 10
19973.246961822835
 20
547.1077724355404
 30
0.0
 11
19973.246961822886
 21
537.2894794096359
 31
0.0
  0
LINE
  5
99
330
17
100
AcDbEntity
  8
FP-Roof
 62
8
100
AcDbLine
 10
19973.768933582593
 20
551.4283841033379
 30
0.0
 11
19973.768933582447
 21
549.4878084981013
 31
0.0
  0
LINE
  5
9A
330
17
100
AcDbEntity
  8
FP-Roof
 62
8
100
AcDbLine
 10
19973.7689437835
 20
547.1057960284346
 30
0.0
 11
19973.7689437835
 21
537.2894794096359
 31
0.0
  0
LINE
  5
9B
330
17
100
AcDbEntity
  8
FP-Roof
 62
8
100
AcDbLine
 10
19973.88870417468
 20
554.6561812790209
 30
0.0
 11
19974.748763464137
 21
553.1665148824198
 31
0.0
  0
LINE
  5
9C
330
17
100
AcDbEntity
  8
FP-Roof
 62
8
100
AcDbLine
 10
19979.846808796254
 20
554.6561812772728
 30
0.0
 11
19978.986749506796
 21
553.1665148806718
 31
0.0
  0
LINE
  5
9D
330
17
100
AcDbEntity
  8
FP-Roof
 62
8
100
AcDbLine
 10
19980.719407797194
 20
551.4283841015898
 30
0.0
 11
19979.717952062907
 21
551.4283841015898
 31
0.0
  0
LINE
  5
9E
330
17
100
AcDbEntity
  8
FP-Roof
 62
8
100
AcDbLine
 10
19979.957688949842
 20
551.4283841015898
 30
0.0
 11
19979.957688949697
 21
549.4858320891584
 31
0.0
  0
LINE
  5
9F
330
17
100
AcDbEntity
  8
FP-Roof
 62
8
100
AcDbLine
 10
19979.95769915069
 20
547.1077724337923
 30
0.0
 11
19979.957699150735
 21
537.2894794078878
 31
0.0
  0
LINE
  5
A0
330
17
100
AcDbEntity
  8
FP-Roof
 62
8
100
AcDbLine
 10
19980.47967091045
 20
551.4283841015898
 30
0.0
 11
19980.479670910303
 21
549.4878084963533
 31
0.0
  0
LINE
  5
A1
330
17
100
AcDbEntity
  8
FP-Roof
 62
8
100
AcDbLine
 10
19980.479681111356
 20
547.1057960266866
 30
0.0
 11
19980.479681111356
 21
537.2894794078878
 31
0.0
  0
LINE
  5
A2
330
17
100
AcDbEntity
  8
FP-Roof
 62
8
100
AcDbLine
 10
19980.599441502527
 20
554.6561812772728
 30
0.0
 11
19981.459500791985
 21
553.1665148806718
 31
0.0
  0
LINE
  5
A3
330
17
100
AcDbEntity
  8
FP-Roof
 62
8
100
AcDbLine
 10
19986.55754612411
 20
554.6561812755248
 30
0.0
 11
19985.69748683465
 21
553.1665148789237
 31
0.0
  0
LINE
  5
A4
330
17
100
AcDbEntity
  8
FP-Roof
 62
8
100
AcDbLine
 10
19987.430145125043
 20
551.4283840998418
 30
0.0
 11
19986.428689390756
 21
551.4283840998418
 31
0.0
  0
LINE
  5
A5
330
17
100
AcDbEntity
  8
FP-Roof
 62
8
100
AcDbLine
 10
19986.66842627769
 20
551.4283840998418
 30
0.0
 11
19986.668426277545
 21
549.4858320874104
 31
0.0
  0
LINE
  5
A6
330
17
100
AcDbEntity
  8
FP-Roof
 62
8
100
AcDbLine
 10
19986.66843647854
 20
547.1077724320443
 30
0.0
 11
19986.66843647859
 21
537.2894794061398
 31
0.0
  0
LINE
  5
A7
330
17
100
AcDbEntity
  8
FP-Roof
 62
8
100
AcDbLine
 10
19987.190408238297
 20
551.4283840998418
 30
0.0
 11
19987.19040823815
 21
549.4878084946052
 31
0.0
  0
LINE
  5
A8
330
17
100
AcDbEntity
  8
FP-Roof
 62
8
100
AcDbLine
 10
19987.190418439204
 20
547.1057960249385
 30
0.0
 11
19987.190418439204
 21
537.2894794061398
 31
0.0
  0
LINE
  5
A9
330
17
100
AcDbEntity
  8
FP-Roof
 62
8
100
AcDbLine
 10
19987.310178830383
 20
554.6561812755248
 30
0.0
 11
19988.17023811984
 21
553.1665148789237
 31
0.0
  0
LINE
  5
AA
330
17
100
AcDbEntity
  8
FP-Roof
 62
8
100
AcDbLine
 10
19992.900175832743
 20
554.5295049322416
 30
0.0
 11
19994.402359434243
 21
554.5295049322416
 31
0.0
  0
LINE
  5
AB
330
17
100
AcDbEntity
  8
FP-Roof
 62
8
100
AcDbLine
 10
19993.388043842468
 20
547.1057960230959
 30
0.0
 11
19993.38804384252
 21
537.2894794042953
 31
0.0
  0
LINE
  5
AC
330
17
100
AcDbEntity
  8
FP-Roof
 62
8
100
AcDbLine
 10
19993.38805404333
 20
554.5295049322452
 30
0.0
 11
19993.388054043513
 21
549.4878084929572
 31
0.0
  0
LINE
  5
AD
330
17
100
AcDbEntity
  8
FP-Roof
 62
8
100
AcDbLine
 10
19993.659315015466
 20
547.1101478262048
 30
0.0
 11
20033.66581441313
 21
547.1099783589492
 31
0.0
  0
LINE
  5
AE
330
17
100
AcDbEntity
  8
FP-Roof
 62
8
100
AcDbLine
 10
19993.910025803125
 20
547.1077724304927
 30
0.0
 11
19993.910025803125
 21
537.2894794044918
 31
0.0
  0
LINE
  5
AF
330
17
100
AcDbEntity
  8
FP-Roof
 62
8
100
AcDbLine
 10
19993.910025803125
 20
546.5881635584486
 30
0.0
 11
20033.66581441313
 21
546.5879944000866
 31
0.0
  0
LINE
  5
B0
330
17
100
AcDbEntity
  8
FP-Roof
 62
8
100
AcDbLine
 10
19993.910036003937
 20
554.5295049322416
 30
0.0
 11
19993.91003600412
 21
549.4858320864427
 31
0.0
  0
LINE
  5
B1
330
17
100
AcDbEntity
  8
FP-Roof
 62
8
100
AcDbLine
 10
19999.97902077918
 20
554.6561812755248
 30
0.0
 11
19999.118961489723
 21
553.1665148789237
 31
0.0
  0
LINE
  5
B2
330
17
100
AcDbEntity
  8
FP-Roof
 62
8
100
AcDbLine
 10
19999.859054484514
 20
551.4283840998418
 30
0.0
 11
20000.8605102188
 21
551.4283840998418
 31
0.0
  0
LINE
  5
B3
330
17
100
AcDbEntity
  8
FP-Roof
 62
8
100
AcDbLine
 10
20000.098781170353
 20
547.1057960249385
 30
0.0
 11
20000.098781170353
 21
537.2894794061398
 31
0.0
  0
LINE
  5
B4
330
17
100
AcDbEntity
  8
FP-Roof
 62
8
100
AcDbLine
 10
20000.09879137126
 20
551.4283840998418
 30
0.0
 11
20000.098791371405
 21
549.4878084946052
 31
0.0
  0
LINE
  5
B5
330
17
100
AcDbEntity
  8
FP-Roof
 62
8
100
AcDbLine
 10
20000.620763131017
 20
547.1077724320443
 30
0.0
 11
20000.620763130974
 21
537.2894794061398
 31
0.0
  0
LINE
  5
B6
330
17
100
AcDbEntity
  8
FP-Roof
 62
8
100
AcDbLine
 10
20000.620773331866
 20
551.4283840998418
 30
0.0
 11
20000.62077333201
 21
549.4858320874104
 31
0.0
  0
LINE
  5
B7
330
17
100
AcDbEntity
  8
FP-Roof
 62
8
100
AcDbLine
 10
20000.731653485454
 20
554.6561812755248
 30
0.0
 11
20001.591712774913
 21
553.1665148789237
 31
0.0
  0
LINE
  5
B8
330
17
100
AcDbEntity
  8
FP-Roof
 62
8
100
AcDbLine
 10
20006.68975810703
 20
554.6561812772728
 30
0.0
 11
20005.82969881757
 21
553.1665148806718
 31
0.0
  0
LINE
  5
B9
330
17
100
AcDbEntity
  8
FP-Roof
 62
8
100
AcDbLine
 10
20006.56979181237
 20
551.4283841015898
 30
0.0
 11
20007.571247546657
 21
551.4283841015898
 31
0.0
  0
LINE
  5
BA
330
17
100
AcDbEntity
  8
FP-Roof
 62
8
100
AcDbLine
 10
20006.80951849821
 20
547.1057960266866
 30
0.0
 11
20006.80951849821
 21
537.2894794078878
 31
0.0
  0
LINE
  5
BB
330
17
100
AcDbEntity
  8
FP-Roof
 62
8
100
AcDbLine
 10
20006.809528699116
 20
551.4283841015898
 30
0.0
 11
20006.80952869926
 21
549.4878084963533
 31
0.0
  0
LINE
  5
BC
330
17
100
AcDbEntity
  8
FP-Roof
 62
8
100
AcDbLine
 10
20007.331500458873
 20
547.1077724337923
 30
0.0
 11
20007.331500458822
 21
537.2894794078878
 31
0.0
  0
LINE
  5
BD
330
17
100
AcDbEntity
  8
FP-Roof
 62
8
100
AcDbLine
 10
20007.331510659722
 20
551.4283841015898
 30
0.0
 11
20007.331510659867
 21
549.4858320891584
 31
0.0
  0
LINE
  5
BE
330
17
100
AcDbEntity
  8
FP-Roof
 62
8
100
AcDbLine
 10
20007.442390813303
 20
554.6561812772728
 30
0.0
 11
20008.30245010276
 21
553.1665148806718
 31
0.0
  0
LINE
  5
BF
330
17
100
AcDbEntity
  8
FP-Roof
 62
8
100
AcDbLine
 10
20013.400495434886
 20
554.6561812790209
 30
0.0
 11
20012.540436145428
 21
553.1665148824198
 31
0.0
  0
LINE
  5
C0
330
17
100
AcDbEntity
  8
FP-Roof
 62
8
100
AcDbLine
 10
20013.28052914022
 20
551.4283841033379
 30
0.0
 11
20014.281984874506
 21
551.4283841033379
 31
0.0
  0
LINE
  5
C1
330
17
100
AcDbEntity
  8
FP-Roof
 62
8
100
AcDbLine
 10
20013.520255826057
 20
547.1057960284346
 30
0.0
 11
20013.520255826057
 21
537.2894794096359
 31
0.0
  0
LINE
  5
C2
330
17
100
AcDbEntity
  8
FP-Roof
 62
8
100
AcDbLine
 10
20013.520266026964
 20
551.4283841033379
 30
0.0
 11
20013.52026602711
 21
549.4878084981013
 31
0.0
  0
LINE
  5
C3
330
17
100
AcDbEntity
  8
FP-Roof
 62
8
100
AcDbLine
 10
20014.04223778672
 20
547.1077724355404
 30
0.0
 11
20014.042237786678
 21
537.2894794096359
 31
0.0
  0
LINE
  5
C4
330
17
100
AcDbEntity
  8
FP-Roof
 62
8
100
AcDbLine
 10
20014.04224798757
 20
551.4283841033379
 30
0.0
 11
20014.042247987716
 21
549.4858320909065
 31
0.0
  0
LINE
  5
C5
330
17
100
AcDbEntity
  8
FP-Roof
 62
8
100
AcDbLine
 10
20014.15312814116
 20
554.6561812790209
 30
0.0
 11
20015.013187430617
 21
553.1665148824198
 31
0.0
  0
LINE
  5
C6
330
17
100
AcDbEntity
  8
FP-Roof
 62
8
100
AcDbLine
 10
20020.111232762734
 20
554.6561812807689
 30
0.0
 11
20019.251173473276
 21
553.1665148841679
 31
0.0
  0
LINE
  5
C7
330
17
100
AcDbEntity
  8
FP-Roof
 62
8
100
AcDbLine
 10
20019.991266468074
 20
551.4283841050859
 30
0.0
 11
20020.99272220236
 21
551.4283841050859
 31
0.0
  0
LINE
  5
C8
330
17
100
AcDbEntity
  8
FP-Roof
 62
8
100
AcDbLine
 10
20020.230993153913
 20
547.1057960301827
 30
0.0
 11
20020.230993153913
 21
537.2894794113839
 31
0.0
  0
LINE
  5
C9
330
17
100
AcDbEntity
  8
FP-Roof
 62
8
100
AcDbLine
 10
20020.23100335482
 20
551.4283841050859
 30
0.0
 11
20020.231003354966
 21
549.4878084998494
 31
0.0
  0
LINE
  5
CA
330
17
100
AcDbEntity
  8
FP-Roof
 62
8
100
AcDbLine
 10
20020.752975114578
 20
547.1077724372884
 30
0.0
 11
20020.752975114527
 21
537.2894794113839
 31
0.0
  0
LINE
  5
CB
330
17
100
AcDbEntity
  8
FP-Roof
 62
8
100
AcDbLine
 10
20020.752985315426
 20
551.4283841050859
 30
0.0
 11
20020.752985315572
 21
549.4858320926545
 31
0.0
  0
LINE
  5
CC
330
17
100
AcDbEntity
  8
FP-Roof
 62
8
100
AcDbLine
 10
20020.863865469008
 20
554.6561812807689
 30
0.0
 11
20021.723924758466
 21
553.1665148841679
 31
0.0
  0
LINE
  5
CD
330
17
100
AcDbEntity
  8
FP-Roof
 62
8
100
AcDbLine
 10
20026.82197009059
 20
554.656181282517
 30
0.0
 11
20025.961910801132
 21
553.166514885916
 31
0.0
  0
LINE
  5
CE
330
17
100
AcDbEntity
  8
FP-Roof
 62
8
100
AcDbLine
 10
20026.702003795923
 20
551.428384106834
 30
0.0
 11
20027.70345953021
 21
551.428384106834
 31
0.0
  0
LINE
  5
CF
330
17
100
AcDbEntity
  8
FP-Roof
 62
8
100
AcDbLine
 10
20026.94173048176
 20
547.1057960319307
 30
0.0
 11
20026.94173048176
 21
537.289479413132
 31
0.0
  0
LINE
  5
D0
330
17
100
AcDbEntity
  8
FP-Roof
 62
8
100
AcDbLine
 10
20026.94174068267
 20
551.428384106834
 30
0.0
 11
20026.941740682814
 21
549.4878085015974
 31
0.0
  0
LINE
  5
D1
330
17
100
AcDbEntity
  8
FP-Roof
 62
8
100
AcDbLine
 10
20027.463712442426
 20
547.1077724390365
 30
0.0
 11
20027.463712442383
 21
537.289479413132
 31
0.0
  0
LINE
  5
D2
330
17
100
AcDbEntity
  8
FP-Roof
 62
8
100
AcDbLine
 10
20027.463722643275
 20
551.428384106834
 30
0.0
 11
20027.46372264342
 21
549.4858320944026
 31
0.0
  0
LINE
  5
D3
330
17
100
AcDbEntity
  8
FP-Roof
 62
8
100
AcDbLine
 10
20027.574602796863
 20
554.656181282517
 30
0.0
 11
20028.43466208632
 21
553.166514885916
 31
0.0
  0
LINE
  5
D4
330
17
100
AcDbEntity
  8
FP-Roof
 62
8
100
AcDbLine
 10
20033.665834070707
 20
551.6584432183521
 30
0.0
 11
20033.66583407078
 21
537.2941580935225
 31
0.0
  0
LINE
  5
D5
330
17
100
AcDbEntity
  8
FP-Roof
 62
8
100
AcDbLine
 10
20074.191249018186
 20
546.5881635584486
 30
0.0
 11
20034.435460408175
 21
546.5879944000866
 31
0.0
  0
LINE
  5
D6
330
17
100
AcDbEntity
  8
FP-Roof
 62
8
100
AcDbLine
 10
20074.441959805845
 20
547.1101478262048
 30
0.0
 11
20034.435460408175
 21
547.1099783589492
 31
0.0
  0
LINE
  5
D7
330
17
100
AcDbEntity
  8
FP-Roof
 62
8
100
AcDbLine
 10
20034.448807011693
 20
551.6614078291462
 30
0.0
 11
20034.448807011693
 21
537.2941580935225
 31
0.0
  0
LINE
  5
D8
330
17
100
AcDbEntity
  8
FP-Roof
 62
8
100
AcDbLine
 10
20040.526672024447
 20
554.656181282517
 30
0.0
 11
20039.66661273499
 21
553.166514885916
 31
0.0
  0
LINE
  5
D9
330
17
100
AcDbEntity
  8
FP-Roof
 62
8
100
AcDbLine
 10
20041.39927102538
 20
551.428384106834
 30
0.0
 11
20040.397815291093
 21
551.428384106834
 31
0.0
  0
LINE
  5
DA
330
17
100
AcDbEntity
  8
FP-Roof
 62
8
100
AcDbLine
 10
20040.63755217803
 20
551.428384106834
 30
0.0
 11
20040.637552177883
 21
549.4858320944026
 31
0.0
  0
LINE
  5
DB
330
17
100
AcDbEntity
  8
FP-Roof
 62
8
100
AcDbLine
 10
20040.637562378877
 20
547.1077724390365
 30
0.0
 11
20040.637562378928
 21
537.289479413132
 31
0.0
  0
LINE
  5
DC
330
17
100
AcDbEntity
  8
FP-Roof
 62
8
100
AcDbLine
 10
20041.159534138635
 20
551.428384106834
 30
0.0
 11
20041.15953413849
 21
549.4878085015974
 31
0.0
  0
LINE
  5
DD
330
17
100
AcDbEntity
  8
FP-Roof
 62
8
100
AcDbLine
 10
20041.15954433954
 20
547.1057960319307
 30
0.0
 11
20041.15954433954
 21
537.289479413132
 31
0.0
  0
LINE
  5
DE
330
17
100
AcDbEntity
  8
FP-Roof
 62
8
100
AcDbLine
 10
20041.27930473072
 20
554.656181282517
 30
0.0
 11
20042.13936402018
 21
553.166514885916
 31
0.0
  0
LINE
  5
DF
330
17
100
AcDbEntity
  8
FP-Roof
 62
8
100
AcDbLine
 10
20047.237409352296
 20
554.6561812807689
 30
0.0
 11
20046.377350062838
 21
553.1665148841679
 31
0.0
  0
LINE
  5
E0
330
17
100
AcDbEntity
  8
FP-Roof
 62
8
100
AcDbLine
 10
20048.110008353236
 20
551.4283841050859
 30
0.0
 11
20047.10855261895
 21
551.4283841050859
 31
0.0
  0
LINE
  5
E1
330
17
100
AcDbEntity
  8
FP-Roof
 62
8
100
AcDbLine
 10
20047.348289505884
 20
551.4283841050859
 30
0.0
 11
20047.34828950574
 21
549.4858320926545
 31
0.0
  0
LINE
  5
E2
330
17
100
AcDbEntity
  8
FP-Roof
 62
8
100
AcDbLine
 10
20047.348299706733
 20
547.1077724372884
 30
0.0
 11
20047.348299706777
 21
537.2894794113839
 31
0.0
  0
LINE
  5
E3
330
17
100
AcDbEntity
  8
FP-Roof
 62
8
100
AcDbLine
 10
20047.87027146649
 20
551.4283841050859
 30
0.0
 11
20047.870271466345
 21
549.4878084998494
 31
0.0
  0
LINE
  5
E4
330
17
100
AcDbEntity
  8
FP-Roof
 62
8
100
AcDbLine
 10
20047.870281667398
 20
547.1057960301827
 30
0.0
 11
20047.870281667398
 21
537.2894794113839
 31
0.0
  0
LINE
  5
E5
330
17
100
AcDbEntity
  8
FP-Roof
 62
8
100
AcDbLine
 10
20047.99004205857
 20
554.6561812807689
 30
0.0
 11
20048.850101348027
 21
553.1665148841679
 31
0.0
  0
LINE
  5
E6
330
17
100
AcDbEntity
  8
FP-Roof
 62
8
100
AcDbLine
 10
20053.94814668015
 20
554.6561812790209
 30
0.0
 11
20053.088087390694
 21
553.1665148824198
 31
0.0
  0
LINE
  5
E7
330
17
100
AcDbEntity
  8
FP-Roof
 62
8
100
AcDbLine
 10
20054.820745681085
 20
551.4283841033379
 30
0.0
 11
20053.819289946798
 21
551.4283841033379
 31
0.0
  0
LINE
  5
E8
330
17
100
AcDbEntity
  8
FP-Roof
 62
8
100
AcDbLine
 10
20054.059026833733
 20
551.4283841033379
 30
0.0
 11
20054.059026833587
 21
549.4858320909065
 31
0.0
  0
LINE
  5
E9
330
17
100
AcDbEntity
  8
FP-Roof
 62
8
100
AcDbLine
 10
20054.05903703458
 20
547.1077724355404
 30
0.0
 11
20054.059037034633
 21
537.2894794096359
 31
0.0
  0
LINE
  5
EA
330
17
100
AcDbEntity
  8
FP-Roof
 62
8
100
AcDbLine
 10
20054.58100879434
 20
551.4283841033379
 30
0.0
 11
20054.581008794194
 21
549.4878084981013
 31
0.0
  0
LINE
  5
EB
330
17
100
AcDbEntity
  8
FP-Roof
 62
8
100
AcDbLine
 10
20054.581018995246
 20
547.1057960284346
 30
0.0
 11
20054.581018995246
 21
537.2894794096359
 31
0.0
  0
LINE
  5
EC
330
17
100
AcDbEntity
  8
FP-Roof
 62
8
100
AcDbLine
 10
20054.700779386425
 20
554.6561812790209
 30
0.0
 11
20055.560838675883
 21
553.1665148824198
 31
0.0
  0
LINE
  5
ED
330
17
100
AcDbEntity
  8
EL-Roof
 62
1
100
AcDbLine
 10
20281.793078805684
 20
537.2941633772575
 30
0.0
 11
20056.08531514772
 21
537.2941495333902
 31
0.0
  0
LINE
  5
EE
330
17
100
AcDbEntity
  8
FP-Roof
 62
8
100
AcDbLine
 10
20060.658884008
 20
554.6561812772728
 30
0.0
 11
20059.798824718542
 21
553.1665148806718
 31
0.0
  0
LINE
  5
EF
330
17
100
AcDbEntity
  8
FP-Roof
 62
8
100
AcDbLine
 10
20061.53148300894
 20
551.4283841015898
 30
0.0
 11
20060.530027274654
 21
551.4283841015898
 31
0.0
  0
LINE
  5
F0
330
17
100
AcDbEntity
  8
FP-Roof
 62
8
100
AcDbLine
 10
20060.76976416159
 20
551.4283841015898
 30
0.0
 11
20060.769764161443
 21
549.4858320891584
 31
0.0
  0
LINE
  5
F1
330
17
100
AcDbEntity
  8
FP-Roof
 62
8
100
AcDbLine
 10
20060.769774362438
 20
547.1077724337923
 30
0.0
 11
20060.76977436248
 21
537.2894794078878
 31
0.0
  0
LINE
  5
F2
330
17
100
AcDbEntity
  8
FP-Roof
 62
8
100
AcDbLine
 10
20061.291746122195
 20
551.4283841015898
 30
0.0
 11
20061.29174612205
 21
549.4878084963533
 31
0.0
  0
LINE
  5
F3
330
17
100
AcDbEntity
  8
FP-Roof
 62
8
100
AcDbLine
 10
20061.291756323102
 20
547.1057960266866
 30
0.0
 11
20061.291756323102
 21
537.2894794078878
 31
0.0
  0
LINE
  5
F4
330
17
100
AcDbEntity
  8
FP-Roof
 62
8
100
AcDbLine
 10
20061.411516714274
 20
554.6561812772728
 30
0.0
 11
20062.27157600373
 21
553.1665148806718
 31
0.0
  0
LINE
  5
F5
330
17
100
AcDbEntity
  8
FP-Roof
 62
8
100
AcDbLine
 10
20067.369621335856
 20
554.6561812755248
 30
0.0
 11
20066.509562046398
 21
553.1665148789237
 31
0.0
  0
LINE
  5
F6
330
17
100
AcDbEntity
  8
FP-Roof
 62
8
100
AcDbLine
 10
20068.24222033679
 20
551.4283840998418
 30
0.0
 11
20067.240764602502
 21
551.4283840998418
 31
0.0
  0
LINE
  5
F7
330
17
100
AcDbEntity
  8
FP-Roof
 62
8
100
AcDbLine
 10
20067.480501489437
 20
551.4283840998418
 30
0.0
 11
20067.48050148929
 21
549.4858320874104
 31
0.0
  0
LINE
  5
F8
330
17
100
AcDbEntity
  8
FP-Roof
 62
8
100
AcDbLine
 10
20067.480511690286
 20
547.1077724320443
 30
0.0
 11
20067.480511690337
 21
537.2894794061398
 31
0.0
  0
LINE
  5
F9
330
17
100
AcDbEntity
  8
FP-Roof
 62
8
100
AcDbLine
 10
20068.002483450044
 20
551.4283840998418
 30
0.0
 11
20068.002483449898
 21
549.4878084946052
 31
0.0
  0
LINE
  5
FA
330
17
100
AcDbEntity
  8
FP-Roof
 62
8
100
AcDbLine
 10
20068.00249365095
 20
547.1057960249385
 30
0.0
 11
20068.00249365095
 21
537.2894794061398
 31
0.0
  0
LINE
  5
FB
330
17
100
AcDbEntity
  8
FP-Roof
 62
8
100
AcDbLine
 10
20068.12225404213
 20
554.6561812755248
 30
0.0
 11
20068.982313331588
 21
553.1665148789237
 31
0.0
  0
LINE
  5
FC
330
17
100
AcDbEntity
  8
FP-Roof
 62
8
100
AcDbLine
 10
20075.201098988568
 20
554.5295049322416
 30
0.0
 11
20073.698915387067
 21
554.5295049322416
 31
0.0
  0
LINE
  5
FD
330
17
100
AcDbEntity
  8
FP-Roof
 62
8
100
AcDbLine
 10
20074.191238817366
 20
554.5295049322416
 30
0.0
 11
20074.19123881719
 21
549.4858320864427
 31
0.0
  0
LINE
  5
FE
330
17
100
AcDbEntity
  8
FP-Roof
 62
8
100
AcDbLine
 10
20074.191249018186
 20
547.1077724304927
 30
0.0
 11
20074.191249018186
 21
537.2894794044918
 31
0.0
  0
LINE
  5
FF
330
17
100
AcDbEntity
  8
FP-Roof
 62
8
100
AcDbLine
 10
20074.471390227962
 20
547.1101478262048
 30
0.0
 11
20114.464543021364
 21
547.1098895219151
 31
0.0
  0
LINE
  5
100
330
17
100
AcDbEntity
  8
FP-Roof
 62
8
100
AcDbLine
 10
20074.71322077798
 20
554.5295049322452
 30
0.0
 11
20074.713220777798
 21
549.4878084929572
 31
0.0
  0
LINE
  5
101
330
17
100
AcDbEntity
  8
FP-Roof
 62
8
100
AcDbLine
 10
20074.713230978836
 20
547.1057960230959
 30
0.0
 11
20074.713230978792
 21
537.2894794042953
 31
0.0
  0
LINE
  5
102
330
17
100
AcDbEntity
  8
FP-Roof
 62
8
100
AcDbLine
 10
20074.713230978836
 20
546.588163631592
 30
0.0
 11
20114.464543021364
 21
546.5879049997715
 31
0.0
  0
LINE
  5
103
330
17
100
AcDbEntity
  8
FP-Roof
 62
8
100
AcDbLine
 10
20080.791095990928
 20
554.6561812755248
 30
0.0
 11
20079.93103670147
 21
553.1665148789237
 31
0.0
  0
LINE
  5
104
330
17
100
AcDbEntity
  8
FP-Roof
 62
8
100
AcDbLine
 10
20080.67112969626
 20
551.4283840998418
 30
0.0
 11
20081.672585430548
 21
551.4283840998418
 31
0.0
  0
LINE
  5
105
330
17
100
AcDbEntity
  8
FP-Roof
 62
8
100
AcDbLine
 10
20080.9108563821
 20
547.1057960249385
 30
0.0
 11
20080.9108563821
 21
537.2894794061398
 31
0.0
  0
LINE
  5
106
330
17
100
AcDbEntity
  8
FP-Roof
 62
8
100
AcDbLine
 10
20080.910866583006
 20
551.4283840998418
 30
0.0
 11
20080.91086658315
 21
549.4878084946052
 31
0.0
  0
LINE
  5
107
330
17
100
AcDbEntity
  8
FP-Roof
 62
8
100
AcDbLine
 10
20081.432838342764
 20
547.1077724320443
 30
0.0
 11
20081.43283834272
 21
537.2894794061398
 31
0.0
  0
LINE
  5
108
330
17
100
AcDbEntity
  8
FP-Roof
 62
8
100
AcDbLine
 10
20081.432848543613
 20
551.4283840998418
 30
0.0
 11
20081.432848543758
 21
549.4858320874104
 31
0.0
  0
LINE
  5
109
330
17
100
AcDbEntity
  8
FP-Roof
 62
8
100
AcDbLine
 10
20081.5437286972
 20
554.6561812755248
 30
0.0
 11
20082.40378798666
 21
553.1665148789237
 31
0.0
  0
LINE
  5
10A
330
17
100
AcDbEntity
  8
FP-Roof
 62
8
100
AcDbLine
 10
20087.501833318776
 20
554.6561812772728
 30
0.0
 11
20086.64177402932
 21
553.1665148806718
 31
0.0
  0
LINE
  5
10B
330
17
100
AcDbEntity
  8
FP-Roof
 62
8
100
AcDbLine
 10
20087.381867024116
 20
551.4283841015898
 30
0.0
 11
20088.383322758404
 21
551.4283841015898
 31
0.0
  0
LINE
  5
10C
330
17
100
AcDbEntity
  8
FP-Roof
 62
8
100
AcDbLine
 10
20087.621593709955
 20
547.1057960266866
 30
0.0
 11
20087.621593709955
 21
537.2894794078878
 31
0.0
  0
LINE
  5
10D
330
17
100
AcDbEntity
  8
FP-Roof
 62
8
100
AcDbLine
 10
20087.621603910862
 20
551.4283841015898
 30
0.0
 11
20087.621603911008
 21
549.4878084963533
 31
0.0
  0
LINE
  5
10E
330
17
100
AcDbEntity
  8
FP-Roof
 62
8
100
AcDbLine
 10
20088.14357567062
 20
547.1077724337923
 30
0.0
 11
20088.14357567057
 21
537.2894794078878
 31
0.0
  0
LINE
  5
10F
330
17
100
AcDbEntity
  8
FP-Roof
 62
8
100
AcDbLine
 10
20088.14358587147
 20
551.4283841015898
 30
0.0
 11
20088.143585871614
 21
549.4858320891584
 31
0.0
  0
LINE
  5
110
330
17
100
AcDbEntity
  8
FP-Roof
 62
8
100
AcDbLine
 10
20088.25446602505
 20
554.6561812772728
 30
0.0
 11
20089.114525314508
 21
553.1665148806718
 31
0.0
  0
LINE
  5
111
330
17
100
AcDbEntity
  8
FP-Roof
 62
8
100
AcDbLine
 10
20094.212570646632
 20
554.6561812790209
 30
0.0
 11
20093.352511357174
 21
553.1665148824198
 31
0.0
  0
LINE
  5
112
330
17
100
AcDbEntity
  8
FP-Roof
 62
8
100
AcDbLine
 10
20093.98862274298
 20
547.1102188837161
 30
0.0
 11
20114.464543021364
 21
547.1101391426495
 31
0.0
  0
LINE
  5
113
330
17
100
AcDbEntity
  8
FP-Roof
 62
8
100
AcDbLine
 10
20094.092604351965
 20
551.4283841033379
 30
0.0
 11
20095.094060086252
 21
551.4283841033379
 31
0.0
  0
LINE
  5
114
330
17
100
AcDbEntity
  8
FP-Roof
 62
8
100
AcDbLine
 10
20094.332331037804
 20
547.1057960284346
 30
0.0
 11
20094.332331037804
 21
537.2894794096359
 31
0.0
  0
LINE
  5
115
330
17
100
AcDbEntity
  8
FP-Roof
 62
8
100
AcDbLine
 10
20094.33234123871
 20
551.4283841033379
 30
0.0
 11
20094.332341238856
 21
549.4878084981013
 31
0.0
  0
LINE
  5
116
330
17
100
AcDbEntity
  8
FP-Roof
 62
8
100
AcDbLine
 10
20094.85431299847
 20
547.1077724355404
 30
0.0
 11
20094.854312998425
 21
537.2894794096359
 31
0.0
  0
LINE
  5
117
330
17
100
AcDbEntity
  8
FP-Roof
 62
8
100
AcDbLine
 10
20094.854323199317
 20
551.4283841033379
 30
0.0
 11
20094.854323199463
 21
549.4858320909065
 31
0.0
  0
LINE
  5
118
330
17
100
AcDbEntity
  8
FP-Roof
 62
8
100
AcDbLine
 10
20094.965203352906
 20
554.6561812790209
 30
0.0
 11
20095.825262642364
 21
553.1665148824198
 31
0.0
  0
LINE
  5
119
330
17
100
AcDbEntity
  8
FP-Roof
 62
8
100
AcDbLine
 10
20100.92330797448
 20
554.6561812807689
 30
0.0
 11
20100.063248685023
 21
553.1665148841679
 31
0.0
  0
LINE
  5
11A
330
17
100
AcDbEntity
  8
FP-Roof
 62
8
100
AcDbLine
 10
20100.80334167982
 20
551.4283841050859
 30
0.0
 11
20101.804797414108
 21
551.4283841050859
 31
0.0
  0
LINE
  5
11B
330
17
100
AcDbEntity
  8
FP-Roof
 62
8
100
AcDbLine
 10
20101.04306836566
 20
547.1057960301827
 30
0.0
 11
20101.04306836566
 21
537.2894794113839
 31
0.0
  0
LINE
  5
11C
330
17
100
AcDbEntity
  8
FP-Roof
 62
8
100
AcDbLine
 10
20101.043078566567
 20
551.4283841050859
 30
0.0
 11
20101.043078566712
 21
549.4878084998494
 31
0.0
  0
LINE
  5
11D
330
17
100
AcDbEntity
  8
FP-Roof
 62
8
100
AcDbLine
 10
20101.565050326324
 20
547.1077724372884
 30
0.0
 11
20101.565050326273
 21
537.2894794113839
 31
0.0
  0
LINE
  5
11E
330
17
100
AcDbEntity
  8
FP-Roof
 62
8
100
AcDbLine
 10
20101.565060527173
 20
551.4283841050859
 30
0.0
 11
20101.56506052732
 21
549.4858320926545
 31
0.0
  0
LINE
  5
11F
330
17
100
AcDbEntity
  8
FP-Roof
 62
8
100
AcDbLine
 10
20101.675940680754
 20
554.6561812807689
 30
0.0
 11
20102.535999970212
 21
553.1665148841679
 31
0.0
  0
LINE
  5
120
330
17
100
AcDbEntity
  8
FP-Roof
 62
8
100
AcDbLine
 10
20107.634045302337
 20
554.656181282517
 30
0.0
 11
20106.77398601288
 21
553.166514885916
 31
0.0
  0
LINE
  5
121
330
17
100
AcDbEntity
  8
FP-Roof
 62
8
100
AcDbLine
 10
20107.51407900767
 20
551.428384106834
 30
0.0
 11
20108.515534741957
 21
551.428384106834
 31
0.0
  0
LINE
  5
122
330
17
100
AcDbEntity
  8
FP-Roof
 62
8
100
AcDbLine
 10
20107.75380569351
 20
547.1057960319307
 30
0.0
 11
20107.75380569351
 21
537.289479413132
 31
0.0
  0
LINE
  5
123
330
17
100
AcDbEntity
  8
FP-Roof
 62
8
100
AcDbLine
 10
20107.753815894415
 20
551.428384106834
 30
0.0
 11
20107.75381589456
 21
549.4878085015974
 31
0.0
  0
LINE
  5
124
330
17
100
AcDbEntity
  8
FP-Roof
 62
8
100
AcDbLine
 10
20108.275787654173
 20
547.1077724390365
 30
0.0
 11
20108.27578765413
 21
537.289479413132
 31
0.0
  0
LINE
  5
125
330
17
100
AcDbEntity
  8
FP-Roof
 62
8
100
AcDbLine
 10
20108.27579785502
 20
551.428384106834
 30
0.0
 11
20108.275797855167
 21
549.4858320944026
 31
0.0
  0
LINE
  5
126
330
17
100
AcDbEntity
  8
FP-Roof
 62
8
100
AcDbLine
 10
20108.38667800861
 20
554.656181282517
 30
0.0
 11
20109.24673729807
 21
553.166514885916
 31
0.0
  0
LINE
  5
127
330
17
100
AcDbEntity
  8
FP-Roof
 62
8
100
AcDbLine
 10
20114.464543021342
 20
551.6584432191707
 30
0.0
 11
20114.464543021415
 21
537.2941580943411
 31
0.0
  0
LINE
  5
128
330
17
100
AcDbEntity
  8
FP-Roof
 62
8
100
AcDbLine
 10
20115.247515962328
 20
551.6614078299649
 30
0.0
 11
20115.247515962328
 21
537.2941580943411
 31
0.0
  0
LINE
  5
129
330
17
100
AcDbEntity
  8
FP-Roof
 62
8
100
AcDbLine
 10
20154.998828004856
 20
546.5881636324107
 30
0.0
 11
20115.247515962328
 21
546.5879050005901
 31
0.0
  0
LINE
  5
12A
330
17
100
AcDbEntity
  8
FP-Roof
 62
8
100
AcDbLine
 10
20155.240668755723
 20
547.1101478270234
 30
0.0
 11
20115.247515962328
 21
547.1098895227337
 31
0.0
  0
LINE
  5
12B
330
17
100
AcDbEntity
  8
FP-Roof
 62
8
100
AcDbLine
 10
20135.72343624071
 20
547.1102188845348
 30
0.0
 11
20115.247515962328
 21
547.1101391434681
 31
0.0
  0
LINE
  5
12C
330
17
100
AcDbEntity
  8
FP-Roof
 62
8
100
AcDbLine
 10
20121.325380975082
 20
554.6561812833356
 30
0.0
 11
20120.465321685624
 21
553.1665148867346
 31
0.0
  0
LINE
  5
12D
330
17
100
AcDbEntity
  8
FP-Roof
 62
8
100
AcDbLine
 10
20122.197979976016
 20
551.4283841076526
 30
0.0
 11
20121.19652424173
 21
551.4283841076526
 31
0.0
  0
LINE
  5
12E
330
17
100
AcDbEntity
  8
FP-Roof
 62
8
100
AcDbLine
 10
20121.436261128663
 20
551.4283841076526
 30
0.0
 11
20121.436261128518
 21
549.4858320952212
 31
0.0
  0
LINE
  5
12F
330
17
100
AcDbEntity
  8
FP-Roof
 62
8
100
AcDbLine
 10
20121.436271329512
 20
547.1077724398551
 30
0.0
 11
20121.436271329563
 21
537.2894794139506
 31
0.0
  0
LINE
  5
130
330
17
100
AcDbEntity
  8
FP-Roof
 62
8
100
AcDbLine
 10
20121.95824308927
 20
551.4283841076526
 30
0.0
 11
20121.958243089124
 21
549.4878085024161
 31
0.0
  0
LINE
  5
131
330
17
100
AcDbEntity
  8
FP-Roof
 62
8
100
AcDbLine
 10
20121.958253290177
 20
547.1057960327494
 30
0.0
 11
20121.958253290177
 21
537.2894794139506
 31
0.0
  0
LINE
  5
132
330
17
100
AcDbEntity
  8
FP-Roof
 62
8
100
AcDbLine
 10
20122.078013681356
 20
554.6561812833356
 30
0.0
 11
20122.938072970814
 21
553.1665148867346
 31
0.0
  0
LINE
  5
133
330
17
100
AcDbEntity
  8
FP-Roof
 62
8
100
AcDbLine
 10
20128.03611830293
 20
554.6561812815876
 30
0.0
 11
20127.176059013473
 21
553.1665148849866
 31
0.0
  0
LINE
  5
134
330
17
100
AcDbEntity
  8
FP-Roof
 62
8
100
AcDbLine
 10
20128.90871730387
 20
551.4283841059046
 30
0.0
 11
20127.907261569584
 21
551.4283841059046
 31
0.0
  0
LINE
  5
135
330
17
100
AcDbEntity
  8
FP-Roof
 62
8
100
AcDbLine
 10
20128.14699845652
 20
551.4283841059046
 30
0.0
 11
20128.146998456374
 21
549.4858320934732
 31
0.0
  0
LINE
  5
136
330
17
100
AcDbEntity
  8
FP-Roof
 62
8
100
AcDbLine
 10
20128.147008657368
 20
547.1077724381071
 30
0.0
 11
20128.14700865741
 21
537.2894794122026
 31
0.0
  0
LINE
  5
137
330
17
100
AcDbEntity
  8
FP-Roof
 62
8
100
AcDbLine
 10
20128.668980417126
 20
551.4283841059046
 30
0.0
 11
20128.66898041698
 21
549.487808500668
 31
0.0
  0
LINE
  5
138
330
17
100
AcDbEntity
  8
FP-Roof
 62
8
100
AcDbLine
 10
20128.668990618033
 20
547.1057960310013
 30
0.0
 11
20128.668990618033
 21
537.2894794122026
 31
0.0
  0
LINE
  5
139
330
17
100
AcDbEntity
  8
FP-Roof
 62
8
100
AcDbLine
 10
20128.788751009204
 20
554.6561812815876
 30
0.0
 11
20129.648810298662
 21
553.1665148849866
 31
0.0
  0
LINE
  5
13A
330
17
100
AcDbEntity
  8
FP-Roof
 62
8
100
AcDbLine
 10
20134.746855630787
 20
554.6561812798395
 30
0.0
 11
20133.88679634133
 21
553.1665148832385
 31
0.0
  0
LINE
  5
13B
330
17
100
AcDbEntity
  8
FP-Roof
 62
8
100
AcDbLine
 10
20135.61945463172
 20
551.4283841041565
 30
0.0
 11
20134.617998897433
 21
551.4283841041565
 31
0.0
  0
LINE
  5
13C
330
17
100
AcDbEntity
  8
FP-Roof
 62
8
100
AcDbLine
 10
20134.857735784368
 20
551.4283841041565
 30
0.0
 11
20134.857735784222
 21
549.4858320917251
 31
0.0
  0
LINE
  5
13D
330
17
100
AcDbEntity
  8
FP-Roof
 62
8
100
AcDbLine
 10
20134.857745985217
 20
547.107772436359
 30
0.0
 11
20134.857745985268
 21
537.2894794104545
 31
0.0
  0
LINE
  5
13E
330
17
100
AcDbEntity
  8
FP-Roof
 62
8
100
AcDbLine
 10
20135.379717744974
 20
551.4283841041565
 30
0.0
 11
20135.37971774483
 21
549.48780849892
 31
0.0
  0
LINE
  5
13F
330
17
100
AcDbEntity
  8
FP-Roof
 62
8
100
AcDbLine
 10
20135.37972794588
 20
547.1057960292533
 30
0.0
 11
20135.37972794588
 21
537.2894794104545
 31
0.0
  0
LINE
  5
140
330
17
100
AcDbEntity
  8
FP-Roof
 62
8
100
AcDbLine
 10
20135.49948833706
 20
554.6561812798395
 30
0.0
 11
20136.359547626518
 21
553.1665148832385
 31
0.0
  0
LINE
  5
141
330
17
100
AcDbEntity
  8
FP-Roof
 62
8
100
AcDbLine
 10
20141.457592958635
 20
554.6561812780915
 30
0.0
 11
20140.597533669177
 21
553.1665148814905
 31
0.0
  0
LINE
  5
142
330
17
100
AcDbEntity
  8
FP-Roof
 62
8
100
AcDbLine
 10
20142.330191959576
 20
551.4283841024085
 30
0.0
 11
20141.32873622529
 21
551.4283841024085
 31
0.0
  0
LINE
  5
143
330
17
100
AcDbEntity
  8
FP-Roof
 62
8
100
AcDbLine
 10
20141.568473112224
 20
551.4283841024085
 30
0.0
 11
20141.56847311208
 21
549.4858320899771
 31
0.0
  0
LINE
  5
144
330
17
100
AcDbEntity
  8
FP-Roof
 62
8
100
AcDbLine
 10
20141.568483313073
 20
547.107772434611
 30
0.0
 11
20141.568483313116
 21
537.2894794087065
 31
0.0
  0
LINE
  5
145
330
17
100
AcDbEntity
  8
FP-Roof
 62
8
100
AcDbLine
 10
20142.09045507283
 20
551.4283841024085
 30
0.0
 11
20142.090455072685
 21
549.487808497172
 31
0.0
  0
LINE
  5
146
330
17
100
AcDbEntity
  8
FP-Roof
 62
8
100
AcDbLine
 10
20142.090465273737
 20
547.1057960275052
 30
0.0
 11
20142.090465273737
 21
537.2894794087065
 31
0.0
  0
LINE
  5
147
330
17
100
AcDbEntity
  8
FP-Roof
 62
8
100
AcDbLine
 10
20142.21022566491
 20
554.6561812780915
 30
0.0
 11
20143.070284954367
 21
553.1665148814905
 31
0.0
  0
LINE
  5
148
330
17
100
AcDbEntity
  8
FP-Roof
 62
8
100
AcDbLine
 10
20148.16833028649
 20
554.6561812763434
 30
0.0
 11
20147.308270997033
 21
553.1665148797424
 31
0.0
  0
LINE
  5
149
330
17
100
AcDbEntity
  8
FP-Roof
 62
8
100
AcDbLine
 10
20149.040929287425
 20
551.4283841006604
 30
0.0
 11
20148.039473553137
 21
551.4283841006604
 31
0.0
  0
LINE
  5
14A
330
17
100
AcDbEntity
  8
FP-Roof
 62
8
100
AcDbLine
 10
20148.279210440072
 20
551.4283841006604
 30
0.0
 11
20148.279210439927
 21
549.485832088229
 31
0.0
  0
LINE
  5
14B
330
17
100
AcDbEntity
  8
FP-Roof
 62
8
100
AcDbLine
 10
20148.27922064092
 20
547.1077724328629
 30
0.0
 11
20148.279220640972
 21
537.2894794069584
 31
0.0
  0
LINE
  5
14C
330
17
100
AcDbEntity
  8
FP-Roof
 62
8
100
AcDbLine
 10
20148.80119240068
 20
551.4283841006604
 30
0.0
 11
20148.801192400533
 21
549.4878084954239
 31
0.0
  0
LINE
  5
14D
330
17
100
AcDbEntity
  8
FP-Roof
 62
8
100
AcDbLine
 10
20148.801202601586
 20
547.1057960257572
 30
0.0
 11
20148.801202601586
 21
537.2894794069584
 31
0.0
  0
LINE
  5
14E
330
17
100
AcDbEntity
  8
FP-Roof
 62
8
100
AcDbLine
 10
20148.920962992765
 20
554.6561812763434
 30
0.0
 11
20149.781022282223
 21
553.1665148797424
 31
0.0
  0
LINE
  5
14F
330
17
100
AcDbEntity
  8
FP-Roof
 62
8
100
AcDbLine
 10
20154.510959995125
 20
554.5295049330603
 30
0.0
 11
20156.013143596625
 21
554.5295049330603
 31
0.0
  0
LINE
  5
150
330
17
100
AcDbEntity
  8
FP-Roof
 62
8
100
AcDbLine
 10
20154.99882800485
 20
547.1057960239145
 30
0.0
 11
20154.9988280049
 21
537.289479405114
 31
0.0
  0
LINE
  5
151
330
17
100
AcDbEntity
  8
FP-Roof
 62
8
100
AcDbLine
 10
20154.998838205713
 20
554.5295049330639
 30
0.0
 11
20154.998838205895
 21
549.4878084937759
 31
0.0
  0
LINE
  5
152
330
17
100
AcDbEntity
  8
FP-Roof
 62
8
100
AcDbLine
 10
20155.270099177847
 20
547.1101478270234
 30
0.0
 11
20195.27659857551
 21
547.1099783597679
 31
0.0
  0
LINE
  5
153
330
17
100
AcDbEntity
  8
FP-Roof
 62
8
100
AcDbLine
 10
20155.520809965506
 20
547.1077724313113
 30
0.0
 11
20155.520809965506
 21
537.2894794053104
 31
0.0
  0
LINE
  5
154
330
17
100
AcDbEntity
  8
FP-Roof
 62
8
100
AcDbLine
 10
20155.520809965506
 20
546.5881635592673
 30
0.0
 11
20195.27659857551
 21
546.5879944009052
 31
0.0
  0
LINE
  5
155
330
17
100
AcDbEntity
  8
FP-Roof
 62
8
100
AcDbLine
 10
20155.52082016632
 20
554.5295049330603
 30
0.0
 11
20155.5208201665
 21
549.4858320872613
 31
0.0
  0
LINE
  5
156
330
17
100
AcDbEntity
  8
FP-Roof
 62
8
100
AcDbLine
 10
20161.589804941563
 20
554.6561812763434
 30
0.0
 11
20160.729745652105
 21
553.1665148797424
 31
0.0
  0
LINE
  5
157
330
17
100
AcDbEntity
  8
FP-Roof
 62
8
100
AcDbLine
 10
20161.469838646895
 20
551.4283841006604
 30
0.0
 11
20162.471294381183
 21
551.4283841006604
 31
0.0
  0
LINE
  5
158
330
17
100
AcDbEntity
  8
FP-Roof
 62
8
100
AcDbLine
 10
20161.709565332734
 20
547.1057960257572
 30
0.0
 11
20161.709565332734
 21
537.2894794069584
 31
0.0
  0
LINE
  5
159
330
17
100
AcDbEntity
  8
FP-Roof
 62
8
100
AcDbLine
 10
20161.70957553364
 20
551.4283841006604
 30
0.0
 11
20161.709575533787
 21
549.4878084954239
 31
0.0
  0
LINE
  5
15A
330
17
100
AcDbEntity
  8
FP-Roof
 62
8
100
AcDbLine
 10
20162.2315472934
 20
547.1077724328629
 30
0.0
 11
20162.231547293355
 21
537.2894794069584
 31
0.0
  0
LINE
  5
15B
330
17
100
AcDbEntity
  8
FP-Roof
 62
8
100
AcDbLine
 10
20162.231557494248
 20
551.4283841006604
 30
0.0
 11
20162.231557494393
 21
549.485832088229
 31
0.0
  0
LINE
  5
15C
330
17
100
AcDbEntity
  8
FP-Roof
 62
8
100
AcDbLine
 10
20162.342437647836
 20
554.6561812763434
 30
0.0
 11
20163.202496937294
 21
553.1665148797424
 31
0.0
  0
LINE
  5
15D
330
17
100
AcDbEntity
  8
FP-Roof
 62
8
100
AcDbLine
 10
20168.30054226941
 20
554.6561812780915
 30
0.0
 11
20167.440482979953
 21
553.1665148814905
 31
0.0
  0
LINE
  5
15E
330
17
100
AcDbEntity
  8
FP-Roof
 62
8
100
AcDbLine
 10
20168.18057597475
 20
551.4283841024085
 30
0.0
 11
20169.18203170904
 21
551.4283841024085
 31
0.0
  0
LINE
  5
15F
330
17
100
AcDbEntity
  8
FP-Roof
 62
8
100
AcDbLine
 10
20168.42030266059
 20
547.1057960275052
 30
0.0
 11
20168.42030266059
 21
537.2894794087065
 31
0.0
  0
LINE
  5
160
330
17
100
AcDbEntity
  8
FP-Roof
 62
8
100
AcDbLine
 10
20168.420312861497
 20
551.4283841024085
 30
0.0
 11
20168.420312861643
 21
549.487808497172
 31
0.0
  0
LINE
  5
161
330
17
100
AcDbEntity
  8
FP-Roof
 62
8
100
AcDbLine
 10
20168.942284621255
 20
547.107772434611
 30
0.0
 11
20168.942284621204
 21
537.2894794087065
 31
0.0
  0
LINE
  5
162
330
17
100
AcDbEntity
  8
FP-Roof
 62
8
100
AcDbLine
 10
20168.942294822104
 20
551.4283841024085
 30
0.0
 11
20168.94229482225
 21
549.4858320899771
 31
0.0
  0
LINE
  5
163
330
17
100
AcDbEntity
  8
FP-Roof
 62
8
100
AcDbLine
 10
20169.053174975685
 20
554.6561812780915
 30
0.0
 11
20169.913234265143
 21
553.1665148814905
 31
0.0
  0
LINE
  5
164
330
17
100
AcDbEntity
  8
FP-Roof
 62
8
100
AcDbLine
 10
20175.011279597267
 20
554.6561812798395
 30
0.0
 11
20174.15122030781
 21
553.1665148832385
 31
0.0
  0
LINE
  5
165
330
17
100
AcDbEntity
  8
FP-Roof
 62
8
100
AcDbLine
 10
20174.8913133026
 20
551.4283841041565
 30
0.0
 11
20175.892769036887
 21
551.4283841041565
 31
0.0
  0
LINE
  5
166
330
17
100
AcDbEntity
  8
FP-Roof
 62
8
100
AcDbLine
 10
20175.13103998844
 20
547.1057960292533
 30
0.0
 11
20175.13103998844
 21
537.2894794104545
 31
0.0
  0
LINE
  5
167
330
17
100
AcDbEntity
  8
FP-Roof
 62
8
100
AcDbLine
 10
20175.131050189346
 20
551.4283841041565
 30
0.0
 11
20175.13105018949
 21
549.48780849892
 31
0.0
  0
LINE
  5
168
330
17
100
AcDbEntity
  8
FP-Roof
 62
8
100
AcDbLine
 10
20175.653021949103
 20
547.107772436359
 30
0.0
 11
20175.65302194906
 21
537.2894794104545
 31
0.0
  0
LINE
  5
169
330
17
100
AcDbEntity
  8
FP-Roof
 62
8
100
AcDbLine
 10
20175.653032149952
 20
551.4283841041565
 30
0.0
 11
20175.653032150098
 21
549.4858320917251
 31
0.0
  0
LINE
  5
16A
330
17
100
AcDbEntity
  8
FP-Roof
 62
8
100
AcDbLine
 10
20175.76391230354
 20
554.6561812798395
 30
0.0
 11
20176.623971593
 21
553.1665148832385
 31
0.0
  0
LINE
  5
16B
330
17
100
AcDbEntity
  8
FP-Roof
 62
8
100
AcDbLine
 10
20181.722016925116
 20
554.6561812815876
 30
0.0
 11
20180.861957635658
 21
553.1665148849866
 31
0.0
  0
LINE
  5
16C
330
17
100
AcDbEntity
  8
FP-Roof
 62
8
100
AcDbLine
 10
20181.602050630456
 20
551.4283841059046
 30
0.0
 11
20182.603506364743
 21
551.4283841059046
 31
0.0
  0
LINE
  5
16D
330
17
100
AcDbEntity
  8
FP-Roof
 62
8
100
AcDbLine
 10
20181.841777316295
 20
547.1057960310013
 30
0.0
 11
20181.841777316295
 21
537.2894794122026
 31
0.0
  0
LINE
  5
16E
330
17
100
AcDbEntity
  8
FP-Roof
 62
8
100
AcDbLine
 10
20181.8417875172
 20
551.4283841059046
 30
0.0
 11
20181.841787517347
 21
549.487808500668
 31
0.0
  0
LINE
  5
16F
330
17
100
AcDbEntity
  8
FP-Roof
 62
8
100
AcDbLine
 10
20182.36375927696
 20
547.1077724381071
 30
0.0
 11
20182.36375927691
 21
537.2894794122026
 31
0.0
  0
LINE
  5
170
330
17
100
AcDbEntity
  8
FP-Roof
 62
8
100
AcDbLine
 10
20182.363769477808
 20
551.4283841059046
 30
0.0
 11
20182.363769477954
 21
549.4858320934732
 31
0.0
  0
LINE
  5
171
330
17
100
AcDbEntity
  8
FP-Roof
 62
8
100
AcDbLine
 10
20182.47464963139
 20
554.6561812815876
 30
0.0
 11
20183.334708920847
 21
553.1665148849866
 31
0.0
  0
LINE
  5
172
330
17
100
AcDbEntity
  8
FP-Roof
 62
8
100
AcDbLine
 10
20188.43275425297
 20
554.6561812833356
 30
0.0
 11
20187.572694963514
 21
553.1665148867346
 31
0.0
  0
LINE
  5
173
330
17
100
AcDbEntity
  8
FP-Roof
 62
8
100
AcDbLine
 10
20188.312787958304
 20
551.4283841076526
 30
0.0
 11
20189.314243692592
 21
551.4283841076526
 31
0.0
  0
LINE
  5
174
330
17
100
AcDbEntity
  8
FP-Roof
 62
8
100
AcDbLine
 10
20188.552514644143
 20
547.1057960327494
 30
0.0
 11
20188.552514644143
 21
537.2894794139506
 31
0.0
  0
LINE
  5
175
330
17
100
AcDbEntity
  8
FP-Roof
 62
8
100
AcDbLine
 10
20188.55252484505
 20
551.4283841076526
 30
0.0
 11
20188.552524845196
 21
549.4878085024161
 31
0.0
  0
LINE
  5
176
330
17
100
AcDbEntity
  8
FP-Roof
 62
8
100
AcDbLine
 10
20189.074496604808
 20
547.1077724398551
 30
0.0
 11
20189.074496604764
 21
537.2894794139506
 31
0.0
  0
LINE
  5
177
330
17
100
AcDbEntity
  8
FP-Roof
 62
8
100
AcDbLine
 10
20189.074506805657
 20
551.4283841076526
 30
0.0
 11
20189.074506805802
 21
549.4858320952212
 31
0.0
  0
LINE
  5
178
330
17
100
AcDbEntity
  8
FP-Roof
 62
8
100
AcDbLine
 10
20189.185386959245
 20
554.6561812833356
 30
0.0
 11
20190.045446248703
 21
553.1665148867346
 31
0.0
  0
LINE
  5
179
330
17
100
AcDbEntity
  8
FP-Roof
 62
8
100
AcDbLine
 10
20195.27661823309
 20
551.6584432191707
 30
0.0
 11
20195.27661823316
 21
537.2941580943411
 31
0.0
  0
LINE
  5
17A
330
17
100
AcDbEntity
  8
FP-Roof
 62
8
100
AcDbLine
 10
20235.802033180567
 20
546.5881635592673
 30
0.0
 11
20196.046244570556
 21
546.5879944009052
 31
0.0
  0
LINE
  5
17B
330
17
100
AcDbEntity
  8
FP-Roof
 62
8
100
AcDbLine
 10
20236.052743968226
 20
547.1101478270234
 30
0.0
 11
20196.046244570556
 21
547.1099783597679
 31
0.0
  0
LINE
  5
17C
330
17
100
AcDbEntity
  8
FP-Roof
 62
8
100
AcDbLine
 10
20196.059591174075
 20
551.6614078299649
 30
0.0
 11
20196.059591174075
 21
537.2941580943411
 31
0.0
  0
LINE
  5
17D
330
17
100
AcDbEntity
  8
FP-Roof
 62
8
100
AcDbLine
 10
20202.13745618683
 20
554.6561812833356
 30
0.0
 11
20201.27739689737
 21
553.1665148867346
 31
0.0
  0
LINE
  5
17E
330
17
100
AcDbEntity
  8
FP-Roof
 62
8
100
AcDbLine
 10
20203.010055187762
 20
551.4283841076526
 30
0.0
 11
20202.008599453475
 21
551.4283841076526
 31
0.0
  0
LINE
  5
17F
330
17
100
AcDbEntity
  8
FP-Roof
 62
8
100
AcDbLine
 10
20202.24833634041
 20
551.4283841076526
 30
0.0
 11
20202.248336340264
 21
549.4858320952212
 31
0.0
  0
LINE
  5
180
330
17
100
AcDbEntity
  8
FP-Roof
 62
8
100
AcDbLine
 10
20202.24834654126
 20
547.1077724398551
 30
0.0
 11
20202.24834654131
 21
537.2894794139506
 31
0.0
  0
LINE
  5
181
330
17
100
AcDbEntity
  8
FP-Roof
 62
8
100
AcDbLine
 10
20202.770318301016
 20
551.4283841076526
 30
0.0
 11
20202.77031830087
 21
549.4878085024161
 31
0.0
  0
LINE
  5
182
330
17
100
AcDbEntity
  8
FP-Roof
 62
8
100
AcDbLine
 10
20202.770328501923
 20
547.1057960327494
 30
0.0
 11
20202.770328501923
 21
537.2894794139506
 31
0.0
  0
LINE
  5
183
330
17
100
AcDbEntity
  8
FP-Roof
 62
8
100
AcDbLine
 10
20202.890088893102
 20
554.6561812833356
 30
0.0
 11
20203.75014818256
 21
553.1665148867346
 31
0.0
  0
LINE
  5
184
330
17
100
AcDbEntity
  8
FP-Roof
 62
8
100
AcDbLine
 10
20208.848193514677
 20
554.6561812815876
 30
0.0
 11
20207.98813422522
 21
553.1665148849866
 31
0.0
  0
LINE
  5
185
330
17
100
AcDbEntity
  8
FP-Roof
 62
8
100
AcDbLine
 10
20209.720792515618
 20
551.4283841059046
 30
0.0
 11
20208.71933678133
 21
551.4283841059046
 31
0.0
  0
LINE
  5
186
330
17
100
AcDbEntity
  8
FP-Roof
 62
8
100
AcDbLine
 10
20208.959073668266
 20
551.4283841059046
 30
0.0
 11
20208.95907366812
 21
549.4858320934732
 31
0.0
  0
LINE
  5
187
330
17
100
AcDbEntity
  8
FP-Roof
 62
8
100
AcDbLine
 10
20208.959083869115
 20
547.1077724381071
 30
0.0
 11
20208.95908386916
 21
537.2894794122026
 31
0.0
  0
LINE
  5
188
330
17
100
AcDbEntity
  8
FP-Roof
 62
8
100
AcDbLine
 10
20209.481055628872
 20
551.4283841059046
 30
0.0
 11
20209.481055628727
 21
549.487808500668
 31
0.0
  0
LINE
  5
189
330
17
100
AcDbEntity
  8
FP-Roof
 62
8
100
AcDbLine
 10
20209.48106582978
 20
547.1057960310013
 30
0.0
 11
20209.48106582978
 21
537.2894794122026
 31
0.0
  0
LINE
  5
18A
330
17
100
AcDbEntity
  8
FP-Roof
 62
8
100
AcDbLine
 10
20209.60082622095
 20
554.6561812815876
 30
0.0
 11
20210.46088551041
 21
553.1665148849866
 31
0.0
  0
LINE
  5
18B
330
17
100
AcDbEntity
  8
FP-Roof
 62
8
100
AcDbLine
 10
20215.558930842533
 20
554.6561812798395
 30
0.0
 11
20214.698871553075
 21
553.1665148832385
 31
0.0
  0
LINE
  5
18C
330
17
100
AcDbEntity
  8
FP-Roof
 62
8
100
AcDbLine
 10
20216.431529843467
 20
551.4283841041565
 30
0.0
 11
20215.43007410918
 21
551.4283841041565
 31
0.0
  0
LINE
  5
18D
330
17
100
AcDbEntity
  8
FP-Roof
 62
8
100
AcDbLine
 10
20215.669810996114
 20
551.4283841041565
 30
0.0
 11
20215.66981099597
 21
549.4858320917251
 31
0.0
  0
LINE
  5
18E
330
17
100
AcDbEntity
  8
FP-Roof
 62
8
100
AcDbLine
 10
20215.669821196963
 20
547.107772436359
 30
0.0
 11
20215.669821197014
 21
537.2894794104545
 31
0.0
  0
LINE
  5
18F
330
17
100
AcDbEntity
  8
FP-Roof
 62
8
100
AcDbLine
 10
20216.19179295672
 20
551.4283841041565
 30
0.0
 11
20216.191792956575
 21
549.48780849892
 31
0.0
  0
LINE
  5
190
330
17
100
AcDbEntity
  8
FP-Roof
 62
8
100
AcDbLine
 10
20216.191803157628
 20
547.1057960292533
 30
0.0
 11
20216.191803157628
 21
537.2894794104545
 31
0.0
  0
LINE
  5
191
330
17
100
AcDbEntity
  8
FP-Roof
 62
8
100
AcDbLine
 10
20216.311563548807
 20
554.6561812798395
 30
0.0
 11
20217.171622838265
 21
553.1665148832385
 31
0.0
  0
LINE
  5
192
330
17
100
AcDbEntity
  8
FP-Roof
 62
8
100
AcDbLine
 10
20222.269668170382
 20
554.6561812780915
 30
0.0
 11
20221.409608880924
 21
553.1665148814905
 31
0.0
  0
LINE
  5
193
330
17
100
AcDbEntity
  8
FP-Roof
 62
8
100
AcDbLine
 10
20223.142267171323
 20
551.4283841024085
 30
0.0
 11
20222.140811437035
 21
551.4283841024085
 31
0.0
  0
LINE
  5
194
330
17
100
AcDbEntity
  8
FP-Roof
 62
8
100
AcDbLine
 10
20222.38054832397
 20
551.4283841024085
 30
0.0
 11
20222.380548323825
 21
549.4858320899771
 31
0.0
  0
LINE
  5
195
330
17
100
AcDbEntity
  8
FP-Roof
 62
8
100
AcDbLine
 10
20222.38055852482
 20
547.107772434611
 30
0.0
 11
20222.380558524863
 21
537.2894794087065
 31
0.0
  0
LINE
  5
196
330
17
100
AcDbEntity
  8
FP-Roof
 62
8
100
AcDbLine
 10
20222.902530284577
 20
551.4283841024085
 30
0.0
 11
20222.90253028443
 21
549.487808497172
 31
0.0
  0
LINE
  5
197
330
17
100
AcDbEntity
  8
FP-Roof
 62
8
100
AcDbLine
 10
20222.902540485484
 20
547.1057960275052
 30
0.0
 11
20222.902540485484
 21
537.2894794087065
 31
0.0
  0
LINE
  5
198
330
17
100
AcDbEntity
  8
FP-Roof
 62
8
100
AcDbLine
 10
20223.022300876655
 20
554.6561812780915
 30
0.0
 11
20223.882360166113
 21
553.1665148814905
 31
0.0
  0
LINE
  5
199
330
17
100
AcDbEntity
  8
FP-Roof
 62
8
100
AcDbLine
 10
20228.980405498238
 20
554.6561812763434
 30
0.0
 11
20228.12034620878
 21
553.1665148797424
 31
0.0
  0
LINE
  5
19A
330
17
100
AcDbEntity
  8
FP-Roof
 62
8
100
AcDbLine
 10
20229.85300449917
 20
551.4283841006604
 30
0.0
 11
20228.851548764884
 21
551.4283841006604
 31
0.0
  0
LINE
  5
19B
330
17
100
AcDbEntity
  8
FP-Roof
 62
8
100
AcDbLine
 10
20229.09128565182
 20
551.4283841006604
 30
0.0
 11
20229.091285651673
 21
549.485832088229
 31
0.0
  0
LINE
  5
19C
330
17
100
AcDbEntity
  8
FP-Roof
 62
8
100
AcDbLine
 10
20229.091295852668
 20
547.1077724328629
 30
0.0
 11
20229.09129585272
 21
537.2894794069584
 31
0.0
  0
LINE
  5
19D
330
17
100
AcDbEntity
  8
FP-Roof
 62
8
100
AcDbLine
 10
20229.613267612425
 20
551.4283841006604
 30
0.0
 11
20229.61326761228
 21
549.4878084954239
 31
0.0
  0
LINE
  5
19E
330
17
100
AcDbEntity
  8
FP-Roof
 62
8
100
AcDbLine
 10
20229.613277813332
 20
547.1057960257572
 30
0.0
 11
20229.613277813332
 21
537.2894794069584
 31
0.0
  0
LINE
  5
19F
330
17
100
AcDbEntity
  8
FP-Roof
 62
8
100
AcDbLine
 10
20229.73303820451
 20
554.6561812763434
 30
0.0
 11
20230.59309749397
 21
553.1665148797424
 31
0.0
  0
LINE
  5
1A0
330
17
100
AcDbEntity
  8
FP-Roof
 62
8
100
AcDbLine
 10
20236.81188315095
 20
554.5295049330603
 30
0.0
 11
20235.30969954945
 21
554.5295049330603
 31
0.0
  0
LINE
  5
1A1
330
17
100
AcDbEntity
  8
FP-Roof
 62
8
100
AcDbLine
 10
20235.802022979748
 20
554.5295049330603
 30
0.0
 11
20235.802022979573
 21
549.4858320872613
 31
0.0
  0
LINE
  5
1A2
330
17
100
AcDbEntity
  8
FP-Roof
 62
8
100
AcDbLine
 10
20235.802033180567
 20
547.1077724313113
 30
0.0
 11
20235.802033180567
 21
537.2894794053104
 31
0.0
  0
LINE
  5
1A3
330
17
100
AcDbEntity
  8
FP-Roof
 62
8
100
AcDbLine
 10
20236.082174390343
 20
547.1101478270234
 30
0.0
 11
20276.075327183746
 21
547.1098895227337
 31
0.0
  0
LINE
  5
1A4
330
17
100
AcDbEntity
  8
FP-Roof
 62
8
100
AcDbLine
 10
20236.32400494036
 20
554.5295049330639
 30
0.0
 11
20236.32400494018
 21
549.4878084937759
 31
0.0
  0
LINE
  5
1A5
330
17
100
AcDbEntity
  8
FP-Roof
 62
8
100
AcDbLine
 10
20236.324015141217
 20
547.1057960239145
 30
0.0
 11
20236.324015141174
 21
537.289479405114
 31
0.0
  0
LINE
  5
1A6
330
17
100
AcDbEntity
  8
FP-Roof
 62
8
100
AcDbLine
 10
20236.324015141217
 20
546.5881636324107
 30
0.0
 11
20276.075327183746
 21
546.5879050005901
 31
0.0
  0
LINE
  5
1A7
330
17
100
AcDbEntity
  8
FP-Roof
 62
8
100
AcDbLine
 10
20242.40188015331
 20
554.6561812763434
 30
0.0
 11
20241.54182086385
 21
553.1665148797424
 31
0.0
  0
LINE
  5
1A8
330
17
100
AcDbEntity
  8
FP-Roof
 62
8
100
AcDbLine
 10
20242.281913858642
 20
551.4283841006604
 30
0.0
 11
20243.28336959293
 21
551.4283841006604
 31
0.0
  0
LINE
  5
1A9
330
17
100
AcDbEntity
  8
FP-Roof
 62
8
100
AcDbLine
 10
20242.52164054448
 20
547.1057960257572
 30
0.0
 11
20242.52164054448
 21
537.2894794069584
 31
0.0
  0
LINE
  5
1AA
330
17
100
AcDbEntity
  8
FP-Roof
 62
8
100
AcDbLine
 10
20242.521650745388
 20
551.4283841006604
 30
0.0
 11
20242.521650745533
 21
549.4878084954239
 31
0.0
  0
LINE
  5
1AB
330
17
100
AcDbEntity
  8
FP-Roof
 62
8
100
AcDbLine
 10
20243.043622505145
 20
547.1077724328629
 30
0.0
 11
20243.0436225051
 21
537.2894794069584
 31
0.0
  0
LINE
  5
1AC
330
17
100
AcDbEntity
  8
FP-Roof
 62
8
100
AcDbLine
 10
20243.043632705994
 20
551.4283841006604
 30
0.0
 11
20243.04363270614
 21
549.485832088229
 31
0.0
  0
LINE
  5
1AD
330
17
100
AcDbEntity
  8
FP-Roof
 62
8
100
AcDbLine
 10
20243.154512859583
 20
554.6561812763434
 30
0.0
 11
20244.01457214904
 21
553.1665148797424
 31
0.0
  0
LINE
  5
1AE
330
17
100
AcDbEntity
  8
FP-Roof
 62
8
100
AcDbLine
 10
20249.112617481158
 20
554.6561812780915
 30
0.0
 11
20248.2525581917
 21
553.1665148814905
 31
0.0
  0
LINE
  5
1AF
330
17
100
AcDbEntity
  8
FP-Roof
 62
8
100
AcDbLine
 10
20248.992651186498
 20
551.4283841024085
 30
0.0
 11
20249.994106920785
 21
551.4283841024085
 31
0.0
  0
LINE
  5
1B0
330
17
100
AcDbEntity
  8
FP-Roof
 62
8
100
AcDbLine
 10
20249.232377872337
 20
547.1057960275052
 30
0.0
 11
20249.232377872337
 21
537.2894794087065
 31
0.0
  0
LINE
  5
1B1
330
17
100
AcDbEntity
  8
FP-Roof
 62
8
100
AcDbLine
 10
20249.232388073244
 20
551.4283841024085
 30
0.0
 11
20249.23238807339
 21
549.487808497172
 31
0.0
  0
LINE
  5
1B2
330
17
100
AcDbEntity
  8
FP-Roof
 62
8
100
AcDbLine
 10
20249.754359833
 20
547.107772434611
 30
0.0
 11
20249.75435983295
 21
537.2894794087065
 31
0.0
  0
LINE
  5
1B3
330
17
100
AcDbEntity
  8
FP-Roof
 62
8
100
AcDbLine
 10
20249.75437003385
 20
551.4283841024085
 30
0.0
 11
20249.754370033996
 21
549.4858320899771
 31
0.0
  0
LINE
  5
1B4
330
17
100
AcDbEntity
  8
FP-Roof
 62
8
100
AcDbLine
 10
20249.86525018743
 20
554.6561812780915
 30
0.0
 11
20250.72530947689
 21
553.1665148814905
 31
0.0
  0
LINE
  5
1B5
330
17
100
AcDbEntity
  8
FP-Roof
 62
8
100
AcDbLine
 10
20255.823354809014
 20
554.6561812798395
 30
0.0
 11
20254.963295519556
 21
553.1665148832385
 31
0.0
  0
LINE
  5
1B6
330
17
100
AcDbEntity
  8
FP-Roof
 62
8
100
AcDbLine
 10
20255.599406905363
 20
547.1102188845348
 30
0.0
 11
20276.075327183746
 21
547.1101391434681
 31
0.0
  0
LINE
  5
1B7
330
17
100
AcDbEntity
  8
FP-Roof
 62
8
100
AcDbLine
 10
20255.703388514346
 20
551.4283841041565
 30
0.0
 11
20256.704844248634
 21
551.4283841041565
 31
0.0
  0
LINE
  5
1B8
330
17
100
AcDbEntity
  8
FP-Roof
 62
8
100
AcDbLine
 10
20255.943115200185
 20
547.1057960292533
 30
0.0
 11
20255.943115200185
 21
537.2894794104545
 31
0.0
  0
LINE
  5
1B9
330
17
100
AcDbEntity
  8
FP-Roof
 62
8
100
AcDbLine
 10
20255.943125401092
 20
551.4283841041565
 30
0.0
 11
20255.943125401238
 21
549.48780849892
 31
0.0
  0
LINE
  5
1BA
330
17
100
AcDbEntity
  8
FP-Roof
 62
8
100
AcDbLine
 10
20256.46509716085
 20
547.107772436359
 30
0.0
 11
20256.465097160806
 21
537.2894794104545
 31
0.0
  0
LINE
  5
1BB
330
17
100
AcDbEntity
  8
FP-Roof
 62
8
100
AcDbLine
 10
20256.4651073617
 20
551.4283841041565
 30
0.0
 11
20256.465107361844
 21
549.4858320917251
 31
0.0
  0
LINE
  5
1BC
330
17
100
AcDbEntity
  8
FP-Roof
 62
8
100
AcDbLine
 10
20256.575987515287
 20
554.6561812798395
 30
0.0
 11
20257.436046804745
 21
553.1665148832385
 31
0.0
  0
LINE
  5
1BD
330
17
100
AcDbEntity
  8
FP-Roof
 62
8
100
AcDbLine
 10
20262.534092136862
 20
554.6561812815876
 30
0.0
 11
20261.674032847404
 21
553.1665148849866
 31
0.0
  0
LINE
  5
1BE
330
17
100
AcDbEntity
  8
FP-Roof
 62
8
100
AcDbLine
 10
20262.414125842202
 20
551.4283841059046
 30
0.0
 11
20263.41558157649
 21
551.4283841059046
 31
0.0
  0
LINE
  5
1BF
330
17
100
AcDbEntity
  8
FP-Roof
 62
8
100
AcDbLine
 10
20262.65385252804
 20
547.1057960310013
 30
0.0
 11
20262.65385252804
 21
537.2894794122026
 31
0.0
  0
LINE
  5
1C0
330
17
100
AcDbEntity
  8
FP-Roof
 62
8
100
AcDbLine
 10
20262.65386272895
 20
551.4283841059046
 30
0.0
 11
20262.653862729094
 21
549.487808500668
 31
0.0
  0
LINE
  5
1C1
330
17
100
AcDbEntity
  8
FP-Roof
 62
8
100
AcDbLine
 10
20263.175834488706
 20
547.1077724381071
 30
0.0
 11
20263.175834488655
 21
537.2894794122026
 31
0.0
  0
LINE
  5
1C2
330
17
100
AcDbEntity
  8
FP-Roof
 62
8
100
AcDbLine
 10
20263.175844689555
 20
551.4283841059046
 30
0.0
 11
20263.1758446897
 21
549.4858320934732
 31
0.0
  0
LINE
  5
1C3
330
17
100
AcDbEntity
  8
FP-Roof
 62
8
100
AcDbLine
 10
20263.286724843136
 20
554.6561812815876
 30
0.0
 11
20264.146784132594
 21
553.1665148849866
 31
0.0
  0
LINE
  5
1C4
330
17
100
AcDbEntity
  8
FP-Roof
 62
8
100
AcDbLine
 10
20269.24482946472
 20
554.6561812833356
 30
0.0
 11
20268.38477017526
 21
553.1665148867346
 31
0.0
  0
LINE
  5
1C5
330
17
100
AcDbEntity
  8
FP-Roof
 62
8
100
AcDbLine
 10
20269.12486317005
 20
551.4283841076526
 30
0.0
 11
20270.12631890434
 21
551.4283841076526
 31
0.0
  0
LINE
  5
1C6
330
17
100
AcDbEntity
  8
FP-Roof
 62
8
100
AcDbLine
 10
20269.36458985589
 20
547.1057960327494
 30
0.0
 11
20269.36458985589
 21
537.2894794139506
 31
0.0
  0
LINE
  5
1C7
330
17
100
AcDbEntity
  8
FP-Roof
 62
8
100
AcDbLine
 10
20269.364600056797
 20
551.4283841076526
 30
0.0
 11
20269.364600056942
 21
549.4878085024161
 31
0.0
  0
LINE
  5
1C8
330
17
100
AcDbEntity
  8
FP-Roof
 62
8
100
AcDbLine
 10
20269.886571816554
 20
547.1077724398551
 30
0.0
 11
20269.88657181651
 21
537.2894794139506
 31
0.0
  0
LINE
  5
1C9
330
17
100
AcDbEntity
  8
FP-Roof
 62
8
100
AcDbLine
 10
20269.886582017403
 20
551.4283841076526
 30
0.0
 11
20269.88658201755
 21
549.4858320952212
 31
0.0
  0
LINE
  5
1CA
330
17
100
AcDbEntity
  8
FP-Roof
 62
8
100
AcDbLine
 10
20269.99746217099
 20
554.6561812833356
 30
0.0
 11
20270.85752146045
 21
553.1665148867346
 31
0.0
  0
LINE
  5
1CB
330
17
100
AcDbEntity
  8
FP-Roof
 62
8
100
AcDbLine
 10
20276.075327183746
 20
551.6614078299649
 30
0.0
 11
20276.075327183746
 21
537.2941580943411
 31
0.0
  0
LINE
  5
1CC
330
17
100
AcDbEntity
  8
FP-Roof
 62
8
100
AcDbLine
 10
20276.858300124724
 20
551.6584432191707
 30
0.0
 11
20276.85830012466
 21
537.2941580943411
 31
0.0
  0
ENDSEC
  0
SECTION
  2
OBJECTS
  0
DICTIONARY
  5
A
330
0
100
AcDbDictionary
280
0
281
1
  3
ACAD_COLOR
350
B
  3
ACAD_GROUP
350
C
  3
ACAD_LAYOUT
350
D
  3
ACAD_MATERIAL
350
E
  3
ACAD_MLEADERSTYLE
350
F
  3
ACAD_MLINESTYLE
350
10
  3
ACAD_PLOTSETTINGS
350
11
  3
ACAD_PLOTSTYLENAME
350
12
  3
ACAD_SCALELIST
350
14
  3
ACAD_TABLESTYLE
350
15
  3
ACAD_VISUALSTYLE
350
16
  3
EZDXF_META
350
2D
  0
DICTIONARY
  5
B
330
A
100
AcDbDictionary
280
0
281
1
  0
DICTIONARY
  5
C
330
A
100
AcDbDictionary
280
0
281
1
  0
DICTIONARY
  5
D
330
A
100
AcDbDictionary
280
0
281
1
  3
Model
350
1A
  3
Layout1
350
1E
  0
DICTIONARY
  5
E
330
A
100
AcDbDictionary
280
0
281
1
  3
ByBlock
350
1F
  3
ByLayer
350
20
  3
Global
350
21
  0
DICTIONARY
  5
F
330
A
100
AcDbDictionary
280
0
281
1
  3
Standard
350
2C
  0
DICTIONARY
  5
10
330
A
100
AcDbDictionary
280
0
281
1
  3
Standard
350
22
  0
DICTIONARY
  5
11
330
A
100
AcDbDictionary
280
0
281
1
  0
ACDBDICTIONARYWDFLT
  5
12
330
A
100
AcDbDictionary
280
0
281
1
  3
Normal
350
13
100
AcDbDictionaryWithDefault
340
13
  0
ACDBPLACEHOLDER
  5
13
330
12
  0
DICTIONARY
  5
14
330
A
100
AcDbDictionary
280
0
281
1
  0
DICTIONARY
  5
15
330
A
100
AcDbDictionary
280
0
281
1
  0
DICTIONARY
  5
16
330
A
100
AcDbDictionary
280
0
281
1
  0
LAYOUT
  5
1A
330
D
100
AcDbPlotSettings
  1

  2
Adobe PDF
  4
A3
  6

 40
7.5
 41
20.0
 42
7.5
 43
20.0
 44
420.0
 45
297.0
 46
0.0
 47
0.0
 48
0.0
 49
0.0
140
0.0
141
0.0
142
1.0
143
1.0
 70
1024
 72
1
 73
0
 74
5
  7

 75
16
 76
0
 77
2
 78
300
147
1.0
148
0.0
149
0.0
100
AcDbLayout
  1
Model
 70
1
 71
0
 10
0.0
 20
0.0
 11
420.0
 21
297.0
 12
0.0
 22
0.0
 32
0.0
 14
1e+20
 24
1e+20
 34
1e+20
 15
-1e+20
 25
-1e+20
 35
-1e+20
146
0.0
 13
0.0
 23
0.0
 33
0.0
 16
1.0
 26
0.0
 36
0.0
 17
0.0
 27
1.0
 37
0.0
 76
1
330
17
  0
LAYOUT
  5
1E
330
D
100
AcDbPlotSettings
  1

  2
Adobe PDF
  4
A3
  6

 40
7.5
 41
20.0
 42
7.5
 43
20.0
 44
420.0
 45
297.0
 46
0.0
 47
0.0
 48
0.0
 49
0.0
140
0.0
141
0.0
142
1.0
143
1.0
 70
0
 72
1
 73
0
 74
5
  7

 75
16
 76
0
 77
2
 78
300
147
1.0
148
0.0
149
0.0
100
AcDbLayout
  1
Layout1
 70
1
 71
1
 10
0.0
 20
0.0
 11
420.0
 21
297.0
 12
0.0
 22
0.0
 32
0.0
 14
1e+20
 24
1e+20
 34
1e+20
 15
-1e+20
 25
-1e+20
 35
-1e+20
146
0.0
 13
0.0
 23
0.0
 33
0.0
 16
1.0
 26
0.0
 36
0.0
 17
0.0
 27
1.0
 37
0.0
 76
1
330
1B
  0
MATERIAL
  5
1F
102
{ACAD_REACTORS
330
E
102
}
330
E
100
AcDbMaterial
  1
ByBlock
  2

 70
0
 40
1.0
 71
1
 41
1.0
 91
-1023410177
 42
1.0
 72
1
  3

 73
1
 74
1
 75
1
 44
0.5
 73
0
 45
1.0
 46
1.0
 77
1
  4

 78
1
 79
1
170
1
 48
1.0
171
1
  6

172
1
173
1
174
1
140
1.0
141
1.0
175
1
  7

176
1
177
1
178
1
143
1.0
179
1
  8

270
1
271
1
272
1
145
1.0
146
1.0
273
1
  9

274
1
275
1
276
1
 42
1.0
 72
1
  3

 73
1
 74
1
 75
1
 94
63
  0
MATERIAL
  5
20
102
{ACAD_REACTORS
330
E
102
}
330
E
100
AcDbMaterial
  1
ByLayer
  2

 70
0
 40
1.0
 71
1
 41
1.0
 91
-1023410177
 42
1.0
 72
1
  3

 73
1
 74
1
 75
1
 44
0.5
 73
0
 45
1.0
 46
1.0
 77
1
  4

 78
1
 79
1
170
1
 48
1.0
171
1
  6

172
1
173
1
174
1
140
1.0
141
1.0
175
1
  7

176
1
177
1
178
1
143
1.0
179
1
  8

270
1
271
1
272
1
145
1.0
146
1.0
273
1
  9

274
1
275
1
276
1
 42
1.0
 72
1
  3

 73
1
 74
1
 75
1
 94
63
  0
MATERIAL
  5
21
102
{ACAD_REACTORS
330
E
102
}
330
E
100
AcDbMaterial
  1
Global
  2

 70
0
 40
1.0
 71
1
 41
1.0
 91
-1023410177
 42
1.0
 72
1
  3

 73
1
 74
1
 75
1
 44
0.5
 73
0
 45
1.0
 46
1.0
 77
1
  4

 78
1
 79
1
170
1
 48
1.0
171
1
  6

172
1
173
1
174
1
140
1.0
141
1.0
175
1
  7

176
1
177
1
178
1
143
1.0
179
1
  8

270
1
271
1
272
1
145
1.0
146
1.0
273
1
  9

274
1
275
1
276
1
 42
1.0
 72
1
  3

 73
1
 74
1
 75
1
 94
63
  0
MLINESTYLE
  5
22
102
{ACAD_REACTORS
330
10
102
}
330
10
100
AcDbMlineStyle
  2
Standard
 70
0
  3

 62
256
 51
90.0
 52
90.0
 71
2
 49
0.5
 62
256
  6
BYLAYER
 49
-0.5
 62
256
  6
BYLAYER
  0
MLEADERSTYLE
  5
2C
102
{ACAD_REACTORS
330
F
102
}
330
F
100
AcDbMLeaderStyle
179
2
170
2
171
1
172
0
 90
2
 40
0.0
 41
0.0
173
1
 91
-1056964608
 92
-2
290
1
 42
2.0
291
1
 43
8.0
  3
Standard
 44
4.0
300

342
29
174
1
175
1
176
0
178
1
 93
-1056964608
 45
4.0
292
0
297
0
 46
4.0
 94
-1056964608
 47
1.0
 49
1.0
140
1.0
294
1
141
0.0
177
0
142
1.0
295
0
296
0
143
3.75
271
0
272
9
273
9
  0
DICTIONARY
  5
2D
330
A
100
AcDbDictionary
281
1
  3
CREATED_BY_EZDXF
350
2E
  3
WRITTEN_BY_EZDXF
350
1CF
  0
DICTIONARYVAR
  5
2E
330
2D
100
DictionaryVariables
280
0
  1
1.1.4 @ 2024-01-08T21:29:30.374074+00:00
  0
DICTIONARYVAR
  5
1CF
330
2D
100
DictionaryVariables
280
0
  1
1.1.4 @ 2024-01-08T21:29:30.389623+00:00
  0
ENDSEC
  0
EOF
