  0
SECTION
  2
HEADER
  9
$ACADVER
  1
AC1027
  9
$ACADMAINTVER
 70
105
  9
$DWGCODEPAGE
  3
ANSI_1252
  9
$LASTSAVEDBY
  1
ezdxf
  9
$REQUIREDVERSIONS
160
0
  9
$INSBASE
 10
0.0
 20
0.0
 30
0.0
  9
$EXTMIN
 10
1e+20
 20
1e+20
 30
1e+20
  9
$EXTMAX
 10
-1e+20
 20
-1e+20
 30
-1e+20
  9
$LIMMIN
 10
0.0
 20
0.0
  9
$LIMMAX
 10
420.0
 20
297.0
  9
$ORTHOMODE
 70
0
  9
$REGENMODE
 70
1
  9
$FILLMODE
 70
1
  9
$QTEXTMODE
 70
0
  9
$MIRRTEXT
 70
1
  9
$LTSCALE
 40
1.0
  9
$ATTMODE
 70
1
  9
$TEXTSIZE
 40
2.5
  9
$TRACEWID
 40
1.0
  9
$TEXTSTYLE
  7
Standard
  9
$CLAYER
  8
0
  9
$CELTYPE
  6
ByLayer
  9
$CECOLOR
 62
256
  9
$CELTSCALE
 40
1.0
  9
$DISPSILH
 70
0
  9
$DIMSCALE
 40
1.0
  9
$DIMASZ
 40
2.5
  9
$DIMEXO
 40
0.625
  9
$DIMDLI
 40
3.75
  9
$DIMRND
 40
0.0
  9
$DIMDLE
 40
0.0
  9
$DIMEXE
 40
1.25
  9
$DIMTP
 40
0.0
  9
$DIMTM
 40
0.0
  9
$DIMTXT
 40
2.5
  9
$DIMCEN
 40
2.5
  9
$DIMTSZ
 40
0.0
  9
$DIMTOL
 70
0
  9
$DIMLIM
 70
0
  9
$DIMTIH
 70
0
  9
$DIMTOH
 70
0
  9
$DIMSE1
 70
0
  9
$DIMSE2
 70
0
  9
$DIMTAD
 70
1
  9
$DIMZIN
 70
8
  9
$DIMBLK
  1

  9
$DIMASO
 70
1
  9
$DIMSHO
 70
1
  9
$DIMPOST
  1

  9
$DIMAPOST
  1

  9
$DIMALT
 70
0
  9
$DIMALTD
 70
3
  9
$DIMALTF
 40
0.03937007874
  9
$DIMLFAC
 40
1.0
  9
$DIMTOFL
 70
1
  9
$DIMTVP
 40
0.0
  9
$DIMTIX
 70
0
  9
$DIMSOXD
 70
0
  9
$DIMSAH
 70
0
  9
$DIMBLK1
  1

  9
$DIMBLK2
  1

  9
$DIMSTYLE
  2
ISO-25
  9
$DIMCLRD
 70
0
  9
$DIMCLRE
 70
0
  9
$DIMCLRT
 70
0
  9
$DIMTFAC
 40
1.0
  9
$DIMGAP
 40
0.625
  9
$DIMJUST
 70
0
  9
$DIMSD1
 70
0
  9
$DIMSD2
 70
0
  9
$DIMTOLJ
 70
0
  9
$DIMTZIN
 70
8
  9
$DIMALTZ
 70
0
  9
$DIMALTTZ
 70
0
  9
$DIMUPT
 70
0
  9
$DIMDEC
 70
2
  9
$DIMTDEC
 70
2
  9
$DIMALTU
 70
2
  9
$DIMALTTD
 70
3
  9
$DIMTXSTY
  7
Standard
  9
$DIMAUNIT
 70
0
  9
$DIMADEC
 70
0
  9
$DIMALTRND
 40
0.0
  9
$DIMAZIN
 70
0
  9
$DIMDSEP
 70
44
  9
$DIMATFIT
 70
3
  9
$DIMFRAC
 70
0
  9
$DIMLDRBLK
  1

  9
$DIMLUNIT
 70
2
  9
$DIMLWD
 70
-2
  9
$DIMLWE
 70
-2
  9
$DIMTMOVE
 70
0
  9
$DIMFXL
 40
1.0
  9
$DIMFXLON
 70
0
  9
$DIMJOGANG
 40
0.785398163397
  9
$DIMTFILL
 70
0
  9
$DIMTFILLCLR
 70
0
  9
$DIMARCSYM
 70
0
  9
$DIMLTYPE
  6

  9
$DIMLTEX1
  6

  9
$DIMLTEX2
  6

  9
$DIMTXTDIRECTION
 70
0
  9
$LUNITS
 70
2
  9
$LUPREC
 70
4
  9
$SKETCHINC
 40
1.0
  9
$FILLETRAD
 40
10.0
  9
$AUNITS
 70
0
  9
$AUPREC
 70
2
  9
$MENU
  1
.
  9
$ELEVATION
 40
0.0
  9
$PELEVATION
 40
0.0
  9
$THICKNESS
 40
0.0
  9
$LIMCHECK
 70
0
  9
$CHAMFERA
 40
0.0
  9
$CHAMFERB
 40
0.0
  9
$CHAMFERC
 40
0.0
  9
$CHAMFERD
 40
0.0
  9
$SKPOLY
 70
0
  9
$TDCREATE
 40
2460329.6630092594
  9
$TDUCREATE
 40
2458532.153996898
  9
$TDUPDATE
 40
2460329.6630092594
  9
$TDUUPDATE
 40
2458532.1544311
  9
$TDINDWG
 40
0.0
  9
$TDUSRTIMER
 40
0.0
  9
$USRTIMER
 70
1
  9
$ANGBASE
 50
0.0
  9
$ANGDIR
 70
0
  9
$PDMODE
 70
0
  9
$PDSIZE
 40
0.0
  9
$PLINEWID
 40
0.0
  9
$SPLFRAME
 70
0
  9
$SPLINETYPE
 70
6
  9
$SPLINESEGS
 70
8
  9
$HANDSEED
  5
38E
  9
$SURFTAB1
 70
6
  9
$SURFTAB2
 70
6
  9
$SURFTYPE
 70
6
  9
$SURFU
 70
6
  9
$SURFV
 70
6
  9
$UCSBASE
  2

  9
$UCSNAME
  2

  9
$UCSORG
 10
0.0
 20
0.0
 30
0.0
  9
$UCSXDIR
 10
1.0
 20
0.0
 30
0.0
  9
$UCSYDIR
 10
0.0
 20
1.0
 30
0.0
  9
$UCSORTHOREF
  2

  9
$UCSORTHOVIEW
 70
0
  9
$UCSORGTOP
 10
0.0
 20
0.0
 30
0.0
  9
$UCSORGBOTTOM
 10
0.0
 20
0.0
 30
0.0
  9
$UCSORGLEFT
 10
0.0
 20
0.0
 30
0.0
  9
$UCSORGRIGHT
 10
0.0
 20
0.0
 30
0.0
  9
$UCSORGFRONT
 10
0.0
 20
0.0
 30
0.0
  9
$UCSORGBACK
 10
0.0
 20
0.0
 30
0.0
  9
$PUCSBASE
  2

  9
$PUCSNAME
  2

  9
$PUCSORG
 10
0.0
 20
0.0
 30
0.0
  9
$PUCSXDIR
 10
1.0
 20
0.0
 30
0.0
  9
$PUCSYDIR
 10
0.0
 20
1.0
 30
0.0
  9
$PUCSORTHOREF
  2

  9
$PUCSORTHOVIEW
 70
0
  9
$PUCSORGTOP
 10
0.0
 20
0.0
 30
0.0
  9
$PUCSORGBOTTOM
 10
0.0
 20
0.0
 30
0.0
  9
$PUCSORGLEFT
 10
0.0
 20
0.0
 30
0.0
  9
$PUCSORGRIGHT
 10
0.0
 20
0.0
 30
0.0
  9
$PUCSORGFRONT
 10
0.0
 20
0.0
 30
0.0
  9
$PUCSORGBACK
 10
0.0
 20
0.0
 30
0.0
  9
$USERI1
 70
0
  9
$USERI2
 70
0
  9
$USERI3
 70
0
  9
$USERI4
 70
0
  9
$USERI5
 70
0
  9
$USERR1
 40
0.0
  9
$USERR2
 40
0.0
  9
$USERR3
 40
0.0
  9
$USERR4
 40
0.0
  9
$USERR5
 40
0.0
  9
$WORLDVIEW
 70
1
  9
$SHADEDGE
 70
3
  9
$SHADEDIF
 70
70
  9
$TILEMODE
 70
1
  9
$MAXACTVP
 70
64
  9
$PINSBASE
 10
0.0
 20
0.0
 30
0.0
  9
$PLIMCHECK
 70
0
  9
$PEXTMIN
 10
1e+20
 20
1e+20
 30
1e+20
  9
$PEXTMAX
 10
-1e+20
 20
-1e+20
 30
-1e+20
  9
$PLIMMIN
 10
0.0
 20
0.0
  9
$PLIMMAX
 10
420.0
 20
297.0
  9
$UNITMODE
 70
0
  9
$VISRETAIN
 70
1
  9
$PLINEGEN
 70
0
  9
$PSLTSCALE
 70
1
  9
$TREEDEPTH
 70
3020
  9
$CMLSTYLE
  2
Standard
  9
$CMLJUST
 70
0
  9
$CMLSCALE
 40
20.0
  9
$PROXYGRAPHICS
 70
1
  9
$MEASUREMENT
 70
1
  9
$CELWEIGHT
370
-1
  9
$ENDCAPS
280
0
  9
$JOINSTYLE
280
0
  9
$LWDISPLAY
290
0
  9
$INSUNITS
 70
6
  9
$HYPERLINKBASE
  1

  9
$STYLESHEET
  1

  9
$XEDIT
290
1
  9
$CEPSNTYPE
380
0
  9
$PSTYLEMODE
290
1
  9
$FINGERPRINTGUID
  2
{FB6FA46C-7DFB-46EF-A3D3-E23624A9251E}
  9
$VERSIONGUID
  2
{63985DD3-CE55-41D7-8846-E9AB09D5069B}
  9
$EXTNAMES
290
1
  9
$PSVPSCALE
 40
0.0
  9
$OLESTARTUP
290
0
  9
$SORTENTS
280
127
  9
$INDEXCTL
280
0
  9
$HIDETEXT
280
1
  9
$XCLIPFRAME
280
0
  9
$HALOGAP
280
0
  9
$OBSCOLOR
 70
257
  9
$OBSLTYPE
280
0
  9
$INTERSECTIONDISPLAY
280
0
  9
$INTERSECTIONCOLOR
 70
257
  9
$DIMASSOC
280
2
  9
$PROJECTNAME
  1

  9
$CAMERADISPLAY
290
0
  9
$LENSLENGTH
 40
50.0
  9
$CAMERAHEIGHT
 40
0.0
  9
$STEPSPERSEC
 40
24.0
  9
$STEPSIZE
 40
100.0
  9
$3DDWFPREC
 40
2.0
  9
$PSOLWIDTH
 40
0.005
  9
$PSOLHEIGHT
 40
0.08
  9
$LOFTANG1
 40
1.570796326795
  9
$LOFTANG2
 40
1.570796326795
  9
$LOFTMAG1
 40
0.0
  9
$LOFTMAG2
 40
0.0
  9
$LOFTPARAM
 70
7
  9
$LOFTNORMALS
280
1
  9
$LATITUDE
 40
37.795
  9
$LONGITUDE
 40
-122.394
  9
$NORTHDIRECTION
 40
0.0
  9
$TIMEZONE
 70
-8000
  9
$LIGHTGLYPHDISPLAY
280
1
  9
$TILEMODELIGHTSYNCH
280
1
  9
$CMATERIAL
347
20
  9
$SOLIDHIST
280
0
  9
$SHOWHIST
280
1
  9
$DWFFRAME
280
2
  9
$DGNFRAME
280
2
  9
$REALWORLDSCALE
290
1
  9
$INTERFERECOLOR
 62
256
  9
$CSHADOW
280
0
  9
$SHADOWPLANELOCATION
 40
0.0
  0
ENDSEC
  0
SECTION
  2
CLASSES
  0
CLASS
  1
ACDBDICTIONARYWDFLT
  2
AcDbDictionaryWithDefault
  3
ObjectDBX Classes
 90
0
 91
0
280
0
281
0
  0
CLASS
  1
SUN
  2
AcDbSun
  3
SCENEOE
 90
1153
 91
0
280
0
281
0
  0
CLASS
  1
VISUALSTYLE
  2
AcDbVisualStyle
  3
ObjectDBX Classes
 90
4095
 91
0
280
0
281
0
  0
CLASS
  1
MATERIAL
  2
AcDbMaterial
  3
ObjectDBX Classes
 90
1153
 91
0
280
0
281
0
  0
CLASS
  1
SCALE
  2
AcDbScale
  3
ObjectDBX Classes
 90
1153
 91
0
280
0
281
0
  0
CLASS
  1
TABLESTYLE
  2
AcDbTableStyle
  3
ObjectDBX Classes
 90
4095
 91
0
280
0
281
0
  0
CLASS
  1
MLEADERSTYLE
  2
AcDbMLeaderStyle
  3
ACDB_MLEADERSTYLE_CLASS
 90
4095
 91
0
280
0
281
0
  0
CLASS
  1
DICTIONARYVAR
  2
AcDbDictionaryVar
  3
ObjectDBX Classes
 90
0
 91
0
280
0
281
0
  0
CLASS
  1
CELLSTYLEMAP
  2
AcDbCellStyleMap
  3
ObjectDBX Classes
 90
1152
 91
0
280
0
281
0
  0
CLASS
  1
MENTALRAYRENDERSETTINGS
  2
AcDbMentalRayRenderSettings
  3
SCENEOE
 90
1024
 91
0
280
0
281
0
  0
CLASS
  1
ACDBDETAILVIEWSTYLE
  2
AcDbDetailViewStyle
  3
ObjectDBX Classes
 90
1025
 91
0
280
0
281
0
  0
CLASS
  1
ACDBSECTIONVIEWSTYLE
  2
AcDbSectionViewStyle
  3
ObjectDBX Classes
 90
1025
 91
0
280
0
281
0
  0
CLASS
  1
RASTERVARIABLES
  2
AcDbRasterVariables
  3
ISM
 90
0
 91
0
280
0
281
0
  0
CLASS
  1
ACDBPLACEHOLDER
  2
AcDbPlaceHolder
  3
ObjectDBX Classes
 90
0
 91
0
280
0
281
0
  0
CLASS
  1
LAYOUT
  2
AcDbLayout
  3
ObjectDBX Classes
 90
0
 91
0
280
0
281
0
  0
ENDSEC
  0
SECTION
  2
TABLES
  0
TABLE
  2
VPORT
  5
8
330
0
100
AcDbSymbolTable
 70
1
  0
VPORT
  5
23
330
8
100
AcDbSymbolTableRecord
100
AcDbViewportTableRecord
  2
*Active
 70
0
 10
0.0
 20
0.0
 11
1.0
 21
1.0
 12
0.0
 22
0.0
 13
0.0
 23
0.0
 14
0.5
 24
0.5
 15
0.5
 25
0.5
 16
0.0
 26
0.0
 36
1.0
 17
0.0
 27
0.0
 37
0.0
 40
1000.0
 41
1.34
 42
50.0
 43
0.0
 44
0.0
 50
0.0
 51
0.0
 71
0
 72
1000
 73
1
 74
3
 75
0
 76
0
 77
0
 78
0
281
0
 65
0
146
0.0
  0
ENDTAB
  0
TABLE
  2
LTYPE
  5
2
330
0
100
AcDbSymbolTable
 70
3
  0
LTYPE
  5
24
330
2
100
AcDbSymbolTableRecord
100
AcDbLinetypeTableRecord
  2
ByBlock
 70
0
  3

 72
65
 73
0
 40
0.0
  0
LTYPE
  5
25
330
2
100
AcDbSymbolTableRecord
100
AcDbLinetypeTableRecord
  2
ByLayer
 70
0
  3

 72
65
 73
0
 40
0.0
  0
LTYPE
  5
26
330
2
100
AcDbSymbolTableRecord
100
AcDbLinetypeTableRecord
  2
Continuous
 70
0
  3

 72
65
 73
0
 40
0.0
  0
ENDTAB
  0
TABLE
  2
LAYER
  5
1
330
0
100
AcDbSymbolTable
 70
2
  0
LAYER
  5
27
330
1
100
AcDbSymbolTableRecord
100
AcDbLayerTableRecord
  2
0
 70
0
 62
7
  6
Continuous
370
-3
390
13
347
21
  0
LAYER
  5
28
330
1
100
AcDbSymbolTableRecord
100
AcDbLayerTableRecord
  2
Defpoints
 70
0
 62
7
  6
Continuous
290
0
370
-3
390
13
347
21
  0
ENDTAB
  0
TABLE
  2
STYLE
  5
5
330
0
100
AcDbSymbolTable
 70
1
  0
STYLE
  5
29
330
5
100
AcDbSymbolTableRecord
100
AcDbTextStyleTableRecord
  2
Standard
 70
0
 40
0.0
 41
1.0
 50
0.0
 71
0
 42
2.5
  3
txt
  4

  0
ENDTAB
  0
TABLE
  2
VIEW
  5
7
330
0
100
AcDbSymbolTable
 70
0
  0
ENDTAB
  0
TABLE
  2
UCS
  5
6
330
0
100
AcDbSymbolTable
 70
0
  0
ENDTAB
  0
TABLE
  2
APPID
  5
3
330
0
100
AcDbSymbolTable
 70
3
  0
APPID
  5
2A
330
3
100
AcDbSymbolTableRecord
100
AcDbRegAppTableRecord
  2
ACAD
 70
0
  0
APPID
  5
38B
330
3
100
AcDbSymbolTableRecord
100
AcDbRegAppTableRecord
  2
HATCHBACKGROUNDCOLOR
 70
0
  0
APPID
  5
38C
330
3
100
AcDbSymbolTableRecord
100
AcDbRegAppTableRecord
  2
EZDXF
 70
0
  0
ENDTAB
  0
TABLE
  2
DIMSTYLE
  5
4
330
0
100
AcDbSymbolTable
 70
1
100
AcDbDimStyleTable
  0
DIMSTYLE
105
2B
330
4
100
AcDbSymbolTableRecord
100
AcDbDimStyleTableRecord
  2
Standard
 70
0
 40
1.0
 41
2.5
 42
0.625
 43
3.75
 44
1.25
 45
0.0
 46
0.0
 47
0.0
 48
0.0
 49
2.5
140
2.5
141
2.5
142
0.0
143
0.03937007874
144
1.0
145
0.0
146
1.0
147
0.625
148
0.0
 69
0
 70
0
 71
0
 72
0
 73
0
 74
0
 75
0
 76
0
 77
1
 78
8
 79
3
170
0
171
3
172
1
173
0
174
0
175
0
176
0
177
0
178
0
179
2
271
2
272
2
273
2
274
3
275
0
276
0
277
2
278
44
279
0
280
0
281
0
282
0
283
0
284
8
285
0
286
0
288
0
289
3
290
0
371
-2
372
-2
  0
ENDTAB
  0
TABLE
  2
BLOCK_RECORD
  5
9
330
0
100
AcDbSymbolTable
 70
2
  0
BLOCK_RECORD
  5
17
330
9
100
AcDbSymbolTableRecord
100
AcDbBlockTableRecord
  2
*Model_Space
340
1A
 70
0
280
1
281
0
  0
BLOCK_RECORD
  5
1B
330
9
100
AcDbSymbolTableRecord
100
AcDbBlockTableRecord
  2
*Paper_Space
340
1E
 70
0
280
1
281
0
  0
ENDTAB
  0
ENDSEC
  0
SECTION
  2
BLOCKS
  0
BLOCK
  5
18
330
17
100
AcDbEntity
  8
0
100
AcDbBlockBegin
  2
*Model_Space
 70
0
 10
0.0
 20
0.0
 30
0.0
  3
*Model_Space
  1

  0
ENDBLK
  5
19
330
17
100
AcDbEntity
  8
0
100
AcDbBlockEnd
  0
BLOCK
  5
1C
330
1B
100
AcDbEntity
  8
0
100
AcDbBlockBegin
  2
*Paper_Space
 70
0
 10
0.0
 20
0.0
 30
0.0
  3
*Paper_Space
  1

  0
ENDBLK
  5
1D
330
1B
100
AcDbEntity
  8
0
100
AcDbBlockEnd
  0
ENDSEC
  0
SECTION
  2
ENTITIES
  0
LWPOLYLINE
  5
2F
330
17
100
AcDbEntity
  8
FP-Roof
100
AcDbPolyline
 90
2
 70
0
 10
-675.4986635218847
 20
594.0001766409532
 10
-743.9986635218957
 20
662.5001766409632
  0
LWPOLYLINE
  5
30
330
17
100
AcDbEntity
  8
FP-Roof
100
AcDbPolyline
 90
6
 70
0
 10
-467.9986366924095
 20
765.082528994998
 10
-653.9986635218775
 20
765.082528994998
 10
-653.9986635218775
 20
662.5001766409496
 10
-743.9986635218847
 20
662.5001766409632
 10
-743.9986635218847
 20
473.4999462319938
 10
-658.178180764351
 20
473.49958925490773
  0
LWPOLYLINE
  5
31
330
17
100
AcDbEntity
  8
FP-Roof
100
AcDbPolyline
 90
2
 70
0
 10
-675.4986635218847
 20
541.9996613014182
 10
-743.998378592496
 20
473.49994623080875
  0
LINE
  5
32
330
17
100
AcDbEntity
  8
FP-Below
100
AcDbLine
 10
-728.0021922310589
 20
597.9994503843482
 30
0.0
 11
-716.998663521892
 21
597.9994503843482
 31
0.0
  0
LINE
  5
33
330
17
100
AcDbEntity
  8
FP-Below
100
AcDbLine
 10
-728.0021922310516
 20
537.99945038432
 30
0.0
 11
-716.998663521892
 21
537.99945038432
 31
0.0
  0
LINE
  5
34
330
17
100
AcDbEntity
  8
FP-Below
100
AcDbLine
 10
-727.998663521892
 20
537.99945038432
 30
0.0
 11
-727.9986635218847
 21
489.4998796788668
 31
0.0
  0
LINE
  5
35
330
17
100
AcDbEntity
  8
FP-Below
100
AcDbLine
 10
-727.9986635218847
 20
646.5001766409468
 30
0.0
 11
-727.998663521892
 21
597.9994503843482
 31
0.0
  0
LINE
  5
36
330
17
100
AcDbEntity
  8
FP-Below
100
AcDbLine
 10
-643.9986635218847
 20
489.4998796788668
 30
0.0
 11
-727.9986635218847
 21
489.4998796788668
 31
0.0
  0
LINE
  5
37
330
17
100
AcDbEntity
  8
FP-Below
100
AcDbLine
 10
-727.9986635218847
 20
646.5001766409468
 30
0.0
 11
-637.9986635218775
 21
646.5001766409468
 31
0.0
  0
LWPOLYLINE
  5
38
330
17
100
AcDbEntity
  8
FP-Note
100
AcDbPolyline
 90
4
 70
0
 10
-710.778496849498
 20
572.018297393352
 10
-722.7784968494889
 20
572.0182827456092
 10
-722.7784724365829
 20
552.0182827456242
 10
-710.778496849498
 20
572.018297393352
  0
LINE
  5
39
330
17
100
AcDbEntity
  8
FP-Below
100
AcDbLine
 10
-716.9986635218847
 20
500.50091914538916
 30
0.0
 11
-716.998663521892
 21
537.99945038432
 31
0.0
  0
LINE
  5
3A
330
17
100
AcDbEntity
  8
FP-Below
100
AcDbLine
 10
-716.998663521892
 20
597.9994503843482
 30
0.0
 11
-716.9986635218847
 21
635.5001766409468
 31
0.0
  0
LINE
  5
3B
330
17
100
AcDbEntity
  8
FP-Below
100
AcDbLine
 10
-560.9393608300634
 20
500.50091914538916
 30
0.0
 11
-716.9986635218847
 21
500.50091914538916
 31
0.0
  0
LINE
  5
3C
330
17
100
AcDbEntity
  8
FP-Below
100
AcDbLine
 10
-560.9393608300634
 20
635.5001766409468
 30
0.0
 11
-716.9986635218847
 21
635.5001766409468
 31
0.0
  0
LWPOLYLINE
  5
3D
330
17
100
AcDbEntity
  8
FP-Above
100
AcDbPolyline
 90
4
 70
1
 10
-704.9986635218847
 20
623.5007398463003
 10
-572.9393608300634
 20
623.5007398463003
 10
-572.9393608300634
 20
512.4992873330975
 10
-704.9986635218847
 20
512.4992873330975
  0
LINE
  5
3E
330
17
100
AcDbEntity
  8
FP-Below
100
AcDbLine
 10
-651.2673084598537
 20
73.00017664094594
 30
0.0
 11
-699.9986635218847
 21
73.00017664094594
 31
0.0
  0
LINE
  5
3F
330
17
100
AcDbEntity
  8
FP-Below
100
AcDbLine
 10
-699.9986635218847
 20
73.00017664094594
 30
0.0
 11
-699.9986635218847
 21
97.00106762641917
 31
0.0
  0
LINE
  5
40
330
17
100
AcDbEntity
  8
FP-Below
100
AcDbLine
 10
-699.9986635218847
 20
97.00106762641917
 30
0.0
 11
-688.9986635218847
 21
97.00106762641917
 31
0.0
  0
LWPOLYLINE
  5
41
330
17
100
AcDbEntity
  8
FP-Below
100
AcDbPolyline
 90
4
 70
1
 38
-0.3403031765569822
 10
-699.9986635218847
 20
228.9992856554736
 10
-688.9986635218847
 20
228.9992856554736
 10
-688.9986635218847
 20
205.00017664094685
 10
-699.9986635218847
 20
205.00017664094685
  0
LWPOLYLINE
  5
42
330
17
100
AcDbEntity
  8
FP-Below
100
AcDbPolyline
 90
4
 70
0
 38
-0.3403031765569822
 10
-699.9986635218847
 20
489.4998796788668
 10
-699.9986635218847
 20
469.00106762642736
 10
-688.9986635218847
 20
469.00106762642736
 10
-688.9986635218847
 20
489.4998796788668
  0
LINE
  5
43
330
17
100
AcDbEntity
  8
FP-Below
100
AcDbLine
 10
-688.9986635218847
 20
97.00106762641917
 30
0.0
 11
-688.9986635218847
 21
84.00017664094594
 31
0.0
  0
LINE
  5
44
330
17
100
AcDbEntity
  8
FP-Below
100
AcDbLine
 10
-688.9986635218847
 20
84.00017664094594
 30
0.0
 11
-640.2673084598537
 21
84.00017664094594
 31
0.0
  0
LWPOLYLINE
  5
45
330
17
100
AcDbEntity
  8
FP-Note
100
AcDbPolyline
 90
4
 70
0
 10
-682.6338641844741
 20
635.0840820819776
 10
-682.6338495367327
 20
647.0840820819685
 10
-662.6338495367472
 20
647.0840576690625
 10
-682.6338641844741
 20
635.0840820819776
  0
LWPOLYLINE
  5
46
330
17
100
AcDbEntity
  8
FP-Roof Detail
100
AcDbPolyline
 90
2
 70
0
 10
-675.4986638048285
 20
541.9996613014182
 10
-649.4984061350624
 20
567.999918971185
  0
LWPOLYLINE
  5
47
330
17
100
AcDbEntity
  8
FP-Roof Detail
100
AcDbPolyline
 90
2
 70
0
 10
-675.4986638048285
 20
594.0001766409532
 10
-649.4984061350624
 20
567.9999189711857
  0
LWPOLYLINE
  5
48
330
17
100
AcDbEntity
  8
FP-Roof
100
AcDbPolyline
 90
4
 70
0
 10
-585.4986635218775
 20
594.0001766409396
 10
-675.4986635218847
 20
594.0001766409532
 10
-675.4986635218847
 20
541.9996613014182
 10
-585.4986635218775
 20
541.9992869393
  0
LWPOLYLINE
  5
49
330
17
100
AcDbEntity
  8
FP-Note
100
AcDbPolyline
 90
4
 70
0
 10
-658.5725898384553
 20
567.3676401675248
 10
-670.5725898384462
 20
567.3676255197834
 10
-670.5725654255402
 20
565.3676255197979
 10
-658.5725898384553
 20
567.3676401675248
  0
LWPOLYLINE
  5
4A
330
17
100
AcDbEntity
  8
FP-Roof
100
AcDbPolyline
 90
2
 70
0
 10
-623.5119771048194
 20
508.1657929144394
 10
-658.178180764351
 20
473.49958925490773
  0
LWPOLYLINE
  5
4B
330
17
100
AcDbEntity
  8
FP-Roof
100
AcDbPolyline
 90
2
 70
0
 10
-653.9986635218775
 20
662.5001766409496
 10
-585.4986635218775
 20
594.0001766409396
  0
LWPOLYLINE
  5
4C
330
17
100
AcDbEntity
  8
FP-Roof
100
AcDbPolyline
 90
2
 70
0
 10
-556.7486635218775
 20
667.832528994998
 10
-653.9986635218775
 20
765.082528994998
  0
LWPOLYLINE
  5
4D
330
17
100
AcDbEntity
  8
FP-Below
100
AcDbPolyline
 90
3
 70
0
 38
-0.3403031765569822
 10
-651.2673084598537
 20
73.00017664094594
 10
-651.2673084598537
 20
55.00017664094594
 10
-619.7477725370372
 20
55.00017664081497
  0
LWPOLYLINE
  5
4E
330
17
100
AcDbEntity
  8
FP-Roof Detail
100
AcDbPolyline
 90
2
 70
0
 10
-649.4984061350624
 20
567.999918971185
 10
-584.4986638048213
 20
567.999918971185
  0
LINE
  5
4F
330
17
100
AcDbEntity
  8
FP-Below
100
AcDbLine
 10
-643.9986635218847
 20
494.00091914538916
 30
0.0
 11
-643.9986635218847
 21
489.4998796788668
 31
0.0
  0
LINE
  5
50
330
17
100
AcDbEntity
  8
FP-Below
100
AcDbLine
 10
-448.99777253639695
 20
494.00091914538916
 30
0.0
 11
-643.9986635218847
 21
494.00091914538916
 31
0.0
  0
LWPOLYLINE
  5
51
330
17
100
AcDbEntity
  8
FP-Below
100
AcDbPolyline
 90
3
 70
0
 38
-0.3403031765569822
 10
-640.2673084598537
 20
84.00017664094594
 10
-640.2673084598537
 20
66.00017664094594
 10
-619.7477725370372
 20
66.00017664081497
  0
LINE
  5
52
330
17
100
AcDbEntity
  8
FP-Below
100
AcDbLine
 10
-637.9986635218775
 20
646.5001766409468
 30
0.0
 11
-637.9986635218775
 21
749.0825289949598
 31
0.0
  0
LINE
  5
53
330
17
100
AcDbEntity
  8
FP-Below
100
AcDbLine
 10
-637.9986635218775
 20
749.0825289949598
 30
0.0
 11
-596.2483015953658
 21
749.0825191623253
 31
0.0
  0
LINE
  5
54
330
17
100
AcDbEntity
  8
FP-Below
100
AcDbLine
 10
-626.9986635218775
 20
649.0001766409478
 30
0.0
 11
-449.0018583223682
 21
649.0001766409468
 31
0.0
  0
LINE
  5
55
330
17
100
AcDbEntity
  8
FP-Below
100
AcDbLine
 10
-626.9985609486939
 20
738.0795340973882
 30
0.0
 11
-626.9986635218775
 21
649.0001766409478
 31
0.0
  0
LINE
  5
56
330
17
100
AcDbEntity
  8
FP-Below
100
AcDbLine
 10
-596.2483015953294
 20
738.0825191623253
 30
0.0
 11
-626.9986635218775
 21
738.0825289949598
 31
0.0
  0
LWPOLYLINE
  5
57
330
17
100
AcDbEntity
  8
FP-Roof
100
AcDbPolyline
 90
2
 70
0
 10
-623.513343887018
 20
508.16573490161704
 10
-444.36008640821456
 20
510.4150802387626
  0
LINE
  5
58
330
17
100
AcDbEntity
  8
FP-Below
100
AcDbLine
 10
-619.7477725370372
 20
55.00017664081497
 30
0.0
 11
-619.7477725370372
 21
66.00017664081497
 31
0.0
  0
LWPOLYLINE
  5
59
330
17
100
AcDbEntity
  8
FP-Note
100
AcDbPolyline
 90
4
 70
0
 10
-619.4305812324328
 20
559.0664711185232
 10
-619.4305665846914
 20
547.0664711185323
 10
-617.430566584706
 20
547.0664955314382
 10
-619.4305812324328
 20
559.0664711185232
  0
LWPOLYLINE
  5
5A
330
17
100
AcDbEntity
  8
FP-Note
100
AcDbPolyline
 90
4
 70
0
 10
-619.4305812324328
 20
574.0932158683354
 10
-619.4305665846914
 20
586.0932158683263
 10
-617.430566584706
 20
586.0931914554203
 10
-619.4305812324328
 20
574.0932158683354
  0
LWPOLYLINE
  5
5B
330
17
100
AcDbEntity
  8
FP-Note
100
AcDbPolyline
 90
4
 70
0
 10
-588.3776076376689
 20
665.4663125870543
 10
-600.3776076376598
 20
665.4662979393115
 10
-600.3775832247538
 20
645.4662979393265
 10
-588.3776076376689
 20
665.4663125870543
  0
LINE
  5
5C
330
17
100
AcDbEntity
  8
FP-Below
100
AcDbLine
 10
-596.2483015953658
 20
749.0824964207668
 30
0.0
 11
-596.2483015953294
 21
738.0824964207668
 31
0.0
  0
LWPOLYLINE
  5
5D
330
17
100
AcDbEntity
  8
FP-Roof
100
AcDbPolyline
 90
3
 70
0
 10
-585.4986638048213
 20
594.0001766409396
 10
-584.4986638048213
 20
567.9997317901198
 10
-585.4986638048213
 20
541.9992869393
  0
LWPOLYLINE
  5
5E
330
17
100
AcDbEntity
  8
FP-Roof
100
AcDbPolyline
 90
2
 70
0
 10
-556.7486635218775
 20
570.7491673516497
 10
-585.4986635218775
 20
541.9992869393
  0
LWPOLYLINE
  5
5F
330
17
100
AcDbEntity
  8
FP-Below
100
AcDbPolyline
 90
2
 70
0
 38
-0.3403031765569822
 10
-554.249554506725
 20
55.000176640876816
 10
-583.7477725370663
 20
55.00017664081497
  0
LINE
  5
60
330
17
100
AcDbEntity
  8
FP-Below
100
AcDbLine
 10
-583.7477725370663
 20
55.00017664081497
 30
0.0
 11
-583.7477725370663
 21
66.00017664081497
 31
0.0
  0
LWPOLYLINE
  5
61
330
17
100
AcDbEntity
  8
FP-Below
100
AcDbPolyline
 90
2
 70
0
 38
-0.3403031765569822
 10
-554.249554506725
 20
66.00017664088409
 10
-583.7477725370663
 20
66.00017664081497
  0
LINE
  5
62
330
17
100
AcDbEntity
  8
FP-Below
100
AcDbLine
 10
-560.9393608300634
 20
500.498724127744
 30
0.0
 11
-560.9393608300634
 21
534.9357468735425
 31
0.0
  0
LINE
  5
63
330
17
100
AcDbEntity
  8
FP-Below
100
AcDbLine
 10
-552.9393608300634
 20
534.9357468735425
 30
0.0
 11
-560.9393608300634
 21
534.9357468735425
 31
0.0
  0
LINE
  5
64
330
17
100
AcDbEntity
  8
FP-Below
100
AcDbLine
 10
-560.9393608300634
 20
570.9357468735425
 30
0.0
 11
-560.9393608300634
 21
587.4357468735425
 31
0.0
  0
LINE
  5
65
330
17
100
AcDbEntity
  8
FP-Below
100
AcDbLine
 10
-552.9393608300634
 20
570.9357468735425
 30
0.0
 11
-560.9393608300634
 21
570.9357468735425
 31
0.0
  0
LWPOLYLINE
  5
66
330
17
100
AcDbEntity
  8
FP-Below
100
AcDbPolyline
 90
2
 70
0
 10
-556.4393608300634
 20
587.4357468735425
 10
-560.9393608300634
 20
587.4357468735425
  0
LINE
  5
67
330
17
100
AcDbEntity
  8
FP-Below
100
AcDbLine
 10
-560.9393608300634
 20
617.4357468735425
 30
0.0
 11
-560.9393608300634
 21
635.4979816233017
 31
0.0
  0
LWPOLYLINE
  5
68
330
17
100
AcDbEntity
  8
FP-Below
100
AcDbPolyline
 90
2
 70
0
 10
-556.4393608300634
 20
617.4357468735425
 10
-560.9393608300634
 20
617.4357468735425
  0
LINE
  5
69
330
17
100
AcDbEntity
  8
FP-Below
100
AcDbLine
 10
-560.2483015953803
 20
749.0824964209014
 30
0.0
 11
-560.2483015953367
 21
738.0824964209014
 31
0.0
  0
LINE
  5
6A
330
17
100
AcDbEntity
  8
FP-Below
100
AcDbLine
 10
-560.2483015953803
 20
749.0825191623253
 30
0.0
 11
-515.7483756335532
 21
749.082529292954
 31
0.0
  0
LINE
  5
6B
330
17
100
AcDbEntity
  8
FP-Below
100
AcDbLine
 10
-515.7483756335168
 20
738.0825332049244
 30
0.0
 11
-560.2483015953367
 21
738.0825191623253
 31
0.0
  0
LWPOLYLINE
  5
6C
330
17
100
AcDbEntity
  8
FP-Roof Detail
100
AcDbPolyline
 90
2
 70
0
 10
-556.7486638048213
 20
570.7491673516497
 10
-508.2069829831471
 20
619.2908481733236
  0
LWPOLYLINE
  5
6D
330
17
100
AcDbEntity
  8
FP-Roof Detail
100
AcDbPolyline
 90
2
 70
0
 10
-556.7486638048213
 20
667.832528994998
 10
-508.2069829831471
 20
619.2908481733236
  0
LWPOLYLINE
  5
6E
330
17
100
AcDbEntity
  8
FP-Roof
100
AcDbPolyline
 90
4
 70
0
 10
-384.02811732271584
 20
667.8325289953152
 10
-556.7486635218775
 20
667.832528994998
 10
-556.7486635218775
 20
570.7491673516497
 10
-384.02811732271584
 20
570.748829984899
  0
LINE
  5
6F
330
17
100
AcDbEntity
  8
FP-Below
100
AcDbLine
 10
-556.4393608300634
 20
500.49872412774494
 30
0.0
 11
-448.99777253639695
 21
500.498724127744
 31
0.0
  0
LINE
  5
70
330
17
100
AcDbEntity
  8
FP-Below
100
AcDbLine
 10
-556.4393608300634
 20
524.4357468735425
 30
0.0
 11
-556.4393608300634
 21
500.498724127744
 31
0.0
  0
LINE
  5
71
330
17
100
AcDbEntity
  8
FP-Below
100
AcDbLine
 10
-528.9685666832265
 20
524.4357468735425
 30
0.0
 11
-556.4393608300634
 21
524.4357468735425
 31
0.0
  0
LINE
  5
72
330
17
100
AcDbEntity
  8
FP-Below
100
AcDbLine
 10
-556.4393608300634
 20
581.4357468735425
 30
0.0
 11
-556.4393608300634
 21
587.4357468735425
 31
0.0
  0
LINE
  5
73
330
17
100
AcDbEntity
  8
FP-Below
100
AcDbLine
 10
-448.99777253639695
 20
581.4357468735434
 30
0.0
 11
-556.4393608300634
 21
581.4357468735425
 31
0.0
  0
LINE
  5
74
330
17
100
AcDbEntity
  8
FP-Below
100
AcDbLine
 10
-556.4393608300634
 20
617.4357468735425
 30
0.0
 11
-556.4393608300634
 21
642.4979816233017
 31
0.0
  0
LINE
  5
75
330
17
100
AcDbEntity
  8
FP-Below
100
AcDbLine
 10
-448.99777253639695
 20
642.4979816233017
 30
0.0
 11
-556.4393608300634
 21
642.4979816233017
 31
0.0
  0
LINE
  5
76
330
17
100
AcDbEntity
  8
FP-Below
100
AcDbLine
 10
-554.249554506725
 20
55.00017664078587
 30
0.0
 11
-554.249554506725
 21
66.00017664078587
 31
0.0
  0
LINE
  5
77
330
17
100
AcDbEntity
  8
FP-Below
100
AcDbLine
 10
-528.9685666832265
 20
528.9357468735425
 30
0.0
 11
-552.9393608300634
 21
528.9357468735425
 31
0.0
  0
LINE
  5
78
330
17
100
AcDbEntity
  8
FP-Below
100
AcDbLine
 10
-552.9393608300634
 20
528.9357468735425
 30
0.0
 11
-552.9393608300634
 21
534.9357468735425
 31
0.0
  0
LINE
  5
79
330
17
100
AcDbEntity
  8
FP-Below
100
AcDbLine
 10
-552.9393608300634
 20
570.9357468735425
 30
0.0
 11
-552.9393608300634
 21
576.9357468735425
 31
0.0
  0
LINE
  5
7A
330
17
100
AcDbEntity
  8
FP-Below
100
AcDbLine
 10
-448.99777253639695
 20
576.9357468735425
 30
0.0
 11
-552.9393608300634
 21
576.9357468735425
 31
0.0
  0
LWPOLYLINE
  5
7B
330
17
100
AcDbEntity
  8
FP-Note
100
AcDbPolyline
 90
4
 70
0
 10
-533.1548550213702
 20
618.6585693696634
 10
-545.1548550213611
 20
618.658554721922
 10
-545.1548306084551
 20
616.6585547219365
 10
-533.1548550213702
 20
618.6585693696634
  0
LINE
  5
7C
330
17
100
AcDbEntity
  8
FP-Below
100
AcDbLine
 10
-528.9685666832265
 20
524.4357468735425
 30
0.0
 11
-528.9685666832265
 21
528.9357468735425
 31
0.0
  0
LINE
  5
7D
330
17
100
AcDbEntity
  8
FP-Below
100
AcDbLine
 10
-518.2495545067541
 20
55.00017664078587
 30
0.0
 11
-518.2495545067541
 21
66.00017664078587
 31
0.0
  0
LWPOLYLINE
  5
7E
330
17
100
AcDbEntity
  8
FP-Below
100
AcDbPolyline
 90
3
 70
0
 38
-0.3403031765569822
 10
-486.73001858390126
 20
73.00017664094594
 10
-486.73001858390126
 20
55.00017664094594
 10
-518.2495545067541
 20
55.00017664090956
  0
LWPOLYLINE
  5
7F
330
17
100
AcDbEntity
  8
FP-Below
100
AcDbPolyline
 90
3
 70
0
 38
-0.3403031765569822
 10
-497.73001858390126
 20
84.00017664094594
 10
-497.73001858390126
 20
66.00017664094594
 10
-518.2495545067541
 20
66.00017664092047
  0
LINE
  5
80
330
17
100
AcDbEntity
  8
FP-Below
100
AcDbLine
 10
-515.7483756335532
 20
749.0824810029035
 30
0.0
 11
-515.7483756335168
 21
738.0824810029035
 31
0.0
  0
LWPOLYLINE
  5
81
330
17
100
AcDbEntity
  8
FP-Roof Detail
100
AcDbPolyline
 90
2
 70
0
 10
-508.2069829831471
 20
619.2908481733236
 10
-382.7698441592747
 20
619.2894755513307
  0
LWPOLYLINE
  5
82
330
17
100
AcDbEntity
  8
FP-Note
100
AcDbPolyline
 90
4
 70
0
 10
-504.3508397333608
 20
547.223295986656
 10
-504.35082508561936
 20
535.2232959866651
 10
-484.3508250856339
 20
535.2233203995711
 10
-504.3508397333608
 20
547.223295986656
  0
LWPOLYLINE
  5
83
330
17
100
AcDbEntity
  8
FP-Note
100
AcDbPolyline
 90
4
 70
0
 10
-503.9943560427164
 20
706.5468796147816
 10
-503.994341394975
 20
718.5468796147725
 10
-483.99434139498953
 20
718.5468552018665
 10
-503.9943560427164
 20
706.5468796147816
  0
LINE
  5
84
330
17
100
AcDbEntity
  8
FP-Below
100
AcDbLine
 10
-448.99777253639695
 20
84.00017664094594
 30
0.0
 11
-497.73001858390126
 21
84.00017664094594
 31
0.0
  0
LINE
  5
85
330
17
100
AcDbEntity
  8
FP-Below
100
AcDbLine
 10
-486.73001858390126
 20
73.00017664094594
 30
0.0
 11
-437.99866352188474
 21
73.00017664094594
 31
0.0
  0
LINE
  5
86
330
17
100
AcDbEntity
  8
FP-Below
100
AcDbLine
 10
-479.7483756335678
 20
749.0824810030381
 30
0.0
 11
-479.7483756335241
 21
738.0824810030381
 31
0.0
  0
LINE
  5
87
330
17
100
AcDbEntity
  8
FP-Below
100
AcDbLine
 10
-479.7483756335678
 20
749.082529292954
 30
0.0
 11
-451.99777253639695
 21
749.0825289949598
 31
0.0
  0
LINE
  5
88
330
17
100
AcDbEntity
  8
FP-Below
100
AcDbLine
 10
-449.0018583223682
 20
738.0825289949598
 30
0.0
 11
-479.7483756335241
 21
738.082529292954
 31
0.0
  0
LINE
  5
89
330
17
100
AcDbEntity
  8
FP-Below
100
AcDbLine
 10
-448.99777253639695
 20
524.4357468735425
 30
0.0
 11
-472.9685666832265
 21
524.4357468735425
 31
0.0
  0
LINE
  5
8A
330
17
100
AcDbEntity
  8
FP-Below
100
AcDbLine
 10
-472.9685666832265
 20
524.4357468735425
 30
0.0
 11
-472.9685666832265
 21
528.9357468735425
 31
0.0
  0
LINE
  5
8B
330
17
100
AcDbEntity
  8
FP-Below
100
AcDbLine
 10
-448.99777253639695
 20
528.9357468735425
 30
0.0
 11
-472.9685666832265
 21
528.9357468735425
 31
0.0
  0
LWPOLYLINE
  5
8C
330
17
100
AcDbEntity
  8
FP-Note
100
AcDbPolyline
 90
4
 70
0
 10
-470.1692736673376
 20
606.68513995888
 10
-470.1692590195962
 20
594.6851399588891
 10
-468.16925901961076
 20
594.685164371795
 10
-470.1692736673376
 20
606.68513995888
  0
LWPOLYLINE
  5
8D
330
17
100
AcDbEntity
  8
FP-Note
100
AcDbPolyline
 90
4
 70
0
 10
-470.1692736673376
 20
631.8965563877673
 10
-470.1692590195962
 20
643.8965563877582
 10
-468.16925901961076
 20
643.8965319748522
 10
-470.1692736673376
 20
631.8965563877673
  0
LWPOLYLINE
  5
8E
330
17
100
AcDbEntity
  8
FP-Roof
100
AcDbPolyline
 90
3
 70
0
 10
-468.0011625531679
 20
157.8430213795009
 10
-468.0013012457657
 20
124.50008115469609
 10
-192.998663521892
 20
124.50008115469609
  0
LWPOLYLINE
  5
8F
330
17
100
AcDbEntity
  8
FP-Roof
100
AcDbPolyline
 90
2
 70
0
 10
-468.00107398268665
 20
157.8431099499826
 10
-446.6112128079967
 20
179.23297112467208
  0
LWPOLYLINE
  5
90
330
17
100
AcDbEntity
  8
FP-Roof
100
AcDbPolyline
 90
2
 70
0
 38
-0.34030317655698217
 10
-384.02811732271584
 20
667.8325289953148
 10
-467.9986919292296
 20
751.8031036018283
  0
LWPOLYLINE
  5
91
330
17
100
AcDbEntity
  8
FP-Roof
100
AcDbPolyline
 90
2
 70
0
 10
-467.9977725363915
 20
972.8333614921257
 10
-467.9986919292296
 20
751.8031036018283
  0
LWPOLYLINE
  5
92
330
17
100
AcDbEntity
  8
FP-Roof
100
AcDbPolyline
 90
2
 70
0
 10
-367.75130124574207
 20
224.75008115469245
 10
-467.99777253639877
 20
124.50008115469336
  0
LWPOLYLINE
  5
93
330
17
100
AcDbEntity
  8
FP-Roof
100
AcDbPolyline
 90
2
 70
0
 10
-367.7513012455838
 20
872.5833614921257
 10
-467.9977725363915
 20
972.8333614921257
  0
LWPOLYLINE
  5
94
330
17
100
AcDbEntity
  8
FP-Roof
100
AcDbPolyline
 90
6
 70
0
 10
177.49614886910786
 20
972.8333614921257
 10
147.0004807254263
 20
972.8333614921257
 10
147.0004807254263
 20
934.0833614926846
 10
-146.99866352187746
 20
934.0833614926842
 10
-146.99866352187746
 20
972.8333614921262
 10
-467.9977725363915
 20
972.8333614921257
  0
LINE
  5
95
330
17
100
AcDbEntity
  8
FP-Below
100
AcDbLine
 10
-452.0013012455638
 20
813.8333614921276
 30
0.0
 11
-464.0013012455638
 21
813.8333614921276
 31
0.0
  0
LINE
  5
96
330
17
100
AcDbEntity
  8
FP-Below
100
AcDbLine
 10
-464.0013012455638
 20
813.8333614921276
 30
0.0
 11
-464.0013012455638
 21
885.8333614921276
 31
0.0
  0
LINE
  5
97
330
17
100
AcDbEntity
  8
FP-Below
100
AcDbLine
 10
-464.0013012455638
 20
885.8333614921276
 30
0.0
 11
-452.0013012455638
 21
885.8333614921294
 31
0.0
  0
LINE
  5
98
330
17
100
AcDbEntity
  8
FP-Below
100
AcDbLine
 10
-452.0013012455638
 20
749.0824712423118
 30
0.0
 11
-452.0013012455638
 21
813.8333614921276
 31
0.0
  0
LINE
  5
99
330
17
100
AcDbEntity
  8
FP-Below
100
AcDbLine
 10
-452.0013012455638
 20
885.8333614921294
 30
0.0
 11
-452.0013012455638
 21
956.8333614921257
 31
0.0
  0
LINE
  5
9A
330
17
100
AcDbEntity
  8
FP-Below
100
AcDbLine
 10
-404.7504104709551
 20
956.8333614921257
 30
0.0
 11
-452.0013012455638
 21
956.8333614921257
 31
0.0
  0
LINE
  5
9B
330
17
100
AcDbEntity
  8
FP-Below
100
AcDbLine
 10
-451.99777253639695
 20
140.500081154697
 30
0.0
 11
-421.99688098221304
 21
140.50008115468972
 31
0.0
  0
LINE
  5
9C
330
17
100
AcDbEntity
  8
FP-Below
100
AcDbLine
 10
-451.99777253639695
 20
188.50002340093397
 30
0.0
 11
-451.99777253639695
 21
140.500081154697
 31
0.0
  0
LINE
  5
9D
330
17
100
AcDbEntity
  8
FP-Below
100
AcDbLine
 10
-451.99777253639695
 20
188.50002340093397
 30
0.0
 11
-448.99777253639695
 21
188.50002340093397
 31
0.0
  0
LWPOLYLINE
  5
9E
330
17
100
AcDbEntity
  8
FP-Below
100
AcDbPolyline
 90
4
 70
0
 10
-441.0018583223682
 20
667.0418215403652
 10
-441.0018583223682
 20
673.0418215403652
 10
-449.0018583223682
 20
673.0418215403652
 10
-449.0018583223682
 20
649.0001766409468
  0
LWPOLYLINE
  5
9F
330
17
100
AcDbEntity
  8
FP-Below
100
AcDbPolyline
 90
4
 70
0
 10
-441.0018583223682
 20
747.3333614921276
 10
-441.0018583223682
 20
715.0418215403652
 10
-449.0018583223682
 20
715.0418215403652
 10
-449.0018583223682
 20
738.0829967161653
  0
LINE
  5
A0
330
17
100
AcDbEntity
  8
FP-Below
100
AcDbLine
 10
-448.99777253639695
 20
140.500081154697
 30
0.0
 11
-448.99777253639695
 21
84.00017664094594
 31
0.0
  0
LINE
  5
A1
330
17
100
AcDbEntity
  8
FP-Below
100
AcDbLine
 10
-448.99777253639695
 20
188.50002340093397
 30
0.0
 11
-448.99777253639695
 21
494.00091914538916
 31
0.0
  0
LINE
  5
A2
330
17
100
AcDbEntity
  8
FP-Below
100
AcDbLine
 10
-448.99777253639695
 20
524.4357468735425
 30
0.0
 11
-448.99777253639695
 21
500.498724127744
 31
0.0
  0
LINE
  5
A3
330
17
100
AcDbEntity
  8
FP-Below
100
AcDbLine
 10
-448.99777253639695
 20
536.9256432922002
 30
0.0
 11
-448.99777253639695
 21
528.9357468735425
 31
0.0
  0
LINE
  5
A4
330
17
100
AcDbEntity
  8
FP-Below
100
AcDbLine
 10
-448.99777253639695
 20
536.9256432922002
 30
0.0
 11
-441.0018583223682
 21
536.9357468735425
 31
0.0
  0
LINE
  5
A5
330
17
100
AcDbEntity
  8
FP-Below
100
AcDbLine
 10
-448.99777253639695
 20
576.9357468735425
 30
0.0
 11
-448.99777253639695
 21
568.9256432922002
 31
0.0
  0
LINE
  5
A6
330
17
100
AcDbEntity
  8
FP-Below
100
AcDbLine
 10
-448.99777253639695
 20
568.9256432922002
 30
0.0
 11
-441.0018583223682
 21
568.9357468735425
 31
0.0
  0
LINE
  5
A7
330
17
100
AcDbEntity
  8
FP-Below
100
AcDbLine
 10
-448.99777253639695
 20
642.4979816233017
 30
0.0
 11
-448.99777253639695
 21
581.4357468735425
 31
0.0
  0
LWPOLYLINE
  5
A8
330
17
100
AcDbEntity
  8
FP-Roof
100
AcDbPolyline
 90
2
 70
0
 10
-444.36060366395577
 20
358.2398117517955
 10
-446.6112121223359
 20
179.23297190678977
  0
LWPOLYLINE
  5
A9
330
17
100
AcDbEntity
  8
FP-Roof
100
AcDbPolyline
 90
2
 70
0
 10
-384.02811732271584
 20
570.748829984899
 10
-444.36188971007505
 20
510.4150575975407
  0
LINE
  5
AA
330
17
100
AcDbEntity
  8
FP-Roof
100
AcDbLine
 10
-444.36008640821456
 20
510.4150802387626
 30
0.0
 11
-444.36060366395577
 21
358.2398117517955
 31
0.0
  0
LINE
  5
AB
330
17
100
AcDbEntity
  8
FP-Below
100
AcDbLine
 10
-441.00858906003486
 20
529.0202357579865
 30
0.0
 11
-354.4995545073725
 21
529.01463964294
 31
0.0
  0
LINE
  5
AC
330
17
100
AcDbEntity
  8
FP-Below
100
AcDbLine
 10
-427.0018583223682
 20
813.8333614921276
 30
0.0
 11
-441.00588621417046
 21
813.8333614921276
 31
0.0
  0
LINE
  5
AD
330
17
100
AcDbEntity
  8
FP-Below
100
AcDbLine
 10
-427.0018583223682
 20
885.8333614921276
 30
0.0
 11
-441.00588621417046
 21
885.8333614921276
 31
0.0
  0
LINE
  5
AE
330
17
100
AcDbEntity
  8
FP-Below
100
AcDbLine
 10
-441.0018583223573
 20
568.9357468735416
 30
0.0
 11
-441.00185832237185
 21
607.0833614932371
 31
0.0
  0
LINE
  5
AF
330
17
100
AcDbEntity
  8
FP-Below
100
AcDbLine
 10
-441.0018583223682
 20
613.5833614932335
 30
0.0
 11
-441.00185832237185
 21
660.5418215403652
 31
0.0
  0
LINE
  5
B0
330
17
100
AcDbEntity
  8
FP-Below
100
AcDbLine
 10
-441.0018583223682
 20
529.0202353225895
 30
0.0
 11
-441.0018583223682
 21
536.9357468735425
 31
0.0
  0
LINE
  5
B1
330
17
100
AcDbEntity
  8
FP-Below
100
AcDbLine
 10
-354.4995545073725
 20
607.0833614932335
 30
0.0
 11
-441.0018583223682
 21
607.0833614932371
 31
0.0
  0
LINE
  5
B2
330
17
100
AcDbEntity
  8
FP-Below
100
AcDbLine
 10
-441.0018583223682
 20
613.5833614932335
 30
0.0
 11
-346.9995545073725
 21
613.5833614932335
 31
0.0
  0
LINE
  5
B3
330
17
100
AcDbEntity
  8
FP-Below
100
AcDbLine
 10
-408.00070641487036
 20
660.5418215403643
 30
0.0
 11
-441.0018583223682
 21
660.5418215403652
 31
0.0
  0
LINE
  5
B4
330
17
100
AcDbEntity
  8
FP-Below
100
AcDbLine
 10
-408.00070641487036
 20
667.0418215403652
 30
0.0
 11
-441.0018583223682
 21
667.0418215403652
 31
0.0
  0
LINE
  5
B5
330
17
100
AcDbEntity
  8
FP-Below
100
AcDbLine
 10
-346.9995545073725
 20
747.332893770922
 30
0.0
 11
-441.0018583223682
 21
747.332893770922
 31
0.0
  0
LINE
  5
B6
330
17
100
AcDbEntity
  8
FP-Below
100
AcDbLine
 10
-441.0018583223682
 20
747.332893770922
 30
0.0
 11
-441.0018583223682
 21
747.332893770922
 31
0.0
  0
LINE
  5
B7
330
17
100
AcDbEntity
  8
FP-Below
100
AcDbLine
 10
-334.4995545073725
 20
753.8333614921276
 30
0.0
 11
-441.0018583223682
 21
753.8333614921276
 31
0.0
  0
LINE
  5
B8
330
17
100
AcDbEntity
  8
FP-Below
100
AcDbLine
 10
-441.0018583223682
 20
753.8333614921276
 30
0.0
 11
-441.0018583223682
 21
813.8333614921276
 31
0.0
  0
LINE
  5
B9
330
17
100
AcDbEntity
  8
FP-Below
100
AcDbLine
 10
-441.0018583223682
 20
831.8333614921276
 30
0.0
 11
-441.0018583223682
 21
867.8333614921276
 31
0.0
  0
LINE
  5
BA
330
17
100
AcDbEntity
  8
FP-Below
100
AcDbLine
 10
-427.0018583223682
 20
831.8333614921276
 30
0.0
 11
-441.0018583223682
 21
831.8333614921276
 31
0.0
  0
LINE
  5
BB
330
17
100
AcDbEntity
  8
FP-Below
100
AcDbLine
 10
-427.0018583223682
 20
867.8333614921276
 30
0.0
 11
-441.0018583223682
 21
867.8333614921276
 31
0.0
  0
LINE
  5
BC
330
17
100
AcDbEntity
  8
FP-Below
100
AcDbLine
 10
-441.0018583223682
 20
885.8333614921276
 30
0.0
 11
-441.0018583223682
 21
945.8333614921257
 31
0.0
  0
LINE
  5
BD
330
17
100
AcDbEntity
  8
FP-Below
100
AcDbLine
 10
-441.0018583223682
 20
945.8333614921257
 30
0.0
 11
-404.7504104709624
 21
945.8333614921257
 31
0.0
  0
LINE
  5
BE
330
17
100
AcDbEntity
  8
FP-Below
100
AcDbLine
 10
-441.0013012455638
 20
151.500081154697
 30
0.0
 11
-421.99509901131023
 21
151.50008115468972
 31
0.0
  0
LINE
  5
BF
330
17
100
AcDbEntity
  8
FP-Below
100
AcDbLine
 10
-441.0013012455638
 20
151.500081154697
 30
0.0
 11
-441.0013012455638
 21
319.50002340093397
 31
0.0
  0
LINE
  5
C0
330
17
100
AcDbEntity
  8
FP-Below
100
AcDbLine
 10
-323.49741064143745
 20
319.50002340093397
 30
0.0
 11
-441.0013012455638
 21
319.50002340093397
 31
0.0
  0
LINE
  5
C1
330
17
100
AcDbEntity
  8
FP-Below
100
AcDbLine
 10
-349.9982532619142
 20
326.00002340093397
 30
0.0
 11
-441.0013012455638
 21
326.00002340093397
 31
0.0
  0
LINE
  5
C2
330
17
100
AcDbEntity
  8
FP-Below
100
AcDbLine
 10
-441.0013012455638
 20
326.00002340093397
 30
0.0
 11
-441.00130124555653
 21
522.5000281599014
 31
0.0
  0
LINE
  5
C3
330
17
100
AcDbEntity
  8
FP-Below
100
AcDbLine
 10
-441.00130124555653
 20
522.5000281599014
 30
0.0
 11
-349.99825326190694
 21
522.5000281599014
 31
0.0
  0
LINE
  5
C4
330
17
100
AcDbEntity
  8
FP-Below
100
AcDbLine
 10
-437.99866352188474
 20
73.00017664094594
 30
0.0
 11
-437.99866352188474
 21
140.500081154697
 31
0.0
  0
LINE
  5
C5
330
17
100
AcDbEntity
  8
FP-Below
100
AcDbLine
 10
-408.00070641487036
 20
662.5418215403652
 30
0.0
 11
-436.00070641487036
 21
662.5418215403579
 31
0.0
  0
LINE
  5
C6
330
17
100
AcDbEntity
  8
FP-Below
100
AcDbLine
 10
-436.00070641487036
 20
662.5418215403579
 30
0.0
 11
-436.00070641487036
 21
665.0418215403579
 31
0.0
  0
LINE
  5
C7
330
17
100
AcDbEntity
  8
FP-Below
100
AcDbLine
 10
-436.00070641487036
 20
665.0418215403579
 30
0.0
 11
-408.00070641487036
 21
665.0418215403652
 31
0.0
  0
LINE
  5
C8
330
17
100
AcDbEntity
  8
FP-Below
100
AcDbLine
 10
-427.0018583223682
 20
831.8333614921276
 30
0.0
 11
-427.0018583223682
 21
813.8333614921276
 31
0.0
  0
LINE
  5
C9
330
17
100
AcDbEntity
  8
FP-Below
100
AcDbLine
 10
-427.0018583223682
 20
867.8333614921276
 30
0.0
 11
-427.0018583223682
 21
885.8333614921276
 31
0.0
  0
LWPOLYLINE
  5
CA
330
17
100
AcDbEntity
  8
FP-Above
100
AcDbPolyline
 90
4
 70
1
 38
-0.3403031765569822
 10
-423.0018583223682
 20
927.833924697481
 10
-191.99918536589757
 20
927.833924697481
 10
-191.99918536589757
 20
771.833924697481
 10
-423.0018583223682
 20
771.833924697481
  0
LWPOLYLINE
  5
CB
330
17
100
AcDbEntity
  8
FP-Above
100
AcDbPolyline
 90
4
 70
1
 38
-0.3403031765569822
 10
-423.0013012455638
 20
301.50058660628747
 10
-266.49688155088734
 20
301.50058660628747
 10
-266.49688155088734
 20
169.5006443600505
 10
-423.0013012455638
 20
169.5006443600505
  0
LINE
  5
CC
330
17
100
AcDbEntity
  8
FP-Below
100
AcDbLine
 10
-421.99509901131023
 20
151.50008115469154
 30
0.0
 11
-421.99509901131023
 21
140.50008115468972
 31
0.0
  0
LWPOLYLINE
  5
CD
330
17
100
AcDbEntity
  8
FP-Note
100
AcDbPolyline
 90
4
 70
0
 10
-405.28179491631636
 20
807.7755329517063
 10
-417.28179491630726
 20
807.7755183039635
 10
-417.2817705034013
 20
787.7755183039785
 10
-405.28179491631636
 20
807.7755329517063
  0
LWPOLYLINE
  5
CE
330
17
100
AcDbEntity
  8
FP-Note
100
AcDbPolyline
 90
4
 70
0
 10
-400.91353439950217
 20
365.25950860764397
 10
-412.9135343994931
 20
365.2594939599012
 10
-412.9135099865871
 20
345.2594939599162
 10
-400.91353439950217
 20
365.25950860764397
  0
LINE
  5
CF
330
17
100
AcDbEntity
  8
FP-Below
100
AcDbLine
 10
-408.00070641487036
 20
660.5418215403579
 30
0.0
 11
-408.00070641487036
 21
662.5418215403652
 31
0.0
  0
LINE
  5
D0
330
17
100
AcDbEntity
  8
FP-Below
100
AcDbLine
 10
-408.00070641487036
 20
665.0418215403652
 30
0.0
 11
-408.00070641487036
 21
667.0418215403652
 31
0.0
  0
LINE
  5
D1
330
17
100
AcDbEntity
  8
FP-Below
100
AcDbLine
 10
-404.7504104709624
 20
945.8333614921257
 30
0.0
 11
-404.7504104709551
 21
956.8333614921257
 31
0.0
  0
LINE
  5
D2
330
17
100
AcDbEntity
  8
FP-Below
100
AcDbLine
 10
-385.9986277204771
 20
151.50008115468972
 30
0.0
 11
-343.50044549284576
 21
151.500081154697
 31
0.0
  0
LINE
  5
D3
330
17
100
AcDbEntity
  8
FP-Below
100
AcDbLine
 10
-385.99509901131023
 20
151.50008115469154
 30
0.0
 11
-385.99509901131023
 21
140.50008115468972
 31
0.0
  0
LINE
  5
D4
330
17
100
AcDbEntity
  8
FP-Below
100
AcDbLine
 10
-385.99509901131023
 20
140.50008115468972
 30
0.0
 11
-343.50044549284576
 21
140.500081154697
 31
0.0
  0
LWPOLYLINE
  5
D5
330
17
100
AcDbEntity
  8
FP-Roof
100
AcDbPolyline
 90
3
 70
0
 10
-384.01931291979236
 20
667.836832745772
 10
-382.76984409730903
 20
619.2951382494593
 10
-384.0250482946085
 20
570.7487981922566
  0
LINE
  5
D6
330
17
100
AcDbEntity
  8
FP-Below
100
AcDbLine
 10
-346.9995545073725
 20
660.5418215403652
 30
0.0
 11
-378.00070641487036
 21
660.5418215403643
 31
0.0
  0
LINE
  5
D7
330
17
100
AcDbEntity
  8
FP-Below
100
AcDbLine
 10
-378.00070641487036
 20
660.5418215403652
 30
0.0
 11
-378.00070641487036
 21
667.0418215403652
 31
0.0
  0
LINE
  5
D8
330
17
100
AcDbEntity
  8
FP-Below
100
AcDbLine
 10
-346.9995545073725
 20
667.0418215403652
 30
0.0
 11
-378.00070641487036
 21
667.0418215403652
 31
0.0
  0
LWPOLYLINE
  5
D9
330
17
100
AcDbEntity
  8
FP-Roof
100
AcDbPolyline
 90
11
 70
0
 10
102.99866352189201
 20
224.7500811546961
 10
367.7485809456066
 20
224.7500811546961
 10
367.7485809456066
 20
872.5833614921257
 10
247.2504807254263
 20
872.5833614921257
 10
247.2504807254263
 20
833.8333614926842
 10
-247.24866352187746
 20
833.8333614926842
 10
-247.24866352187746
 20
872.5833614921257
 10
-367.7513012455838
 20
872.5833614921257
 10
-367.75130124574207
 20
224.7500811546961
 10
-176.998663521892
 20
224.7500811546961
 10
-102.99866352189201
 20
224.7500811546961
  0
LWPOLYLINE
  5
DA
330
17
100
AcDbEntity
  8
FP-Roof Detail
100
AcDbPolyline
 90
2
 70
0
 10
-367.75130124573843
 20
224.7500811546961
 10
-99.74866352189201
 20
492.75271887854274
  0
LWPOLYLINE
  5
DB
330
17
100
AcDbEntity
  8
FP-Roof Detail
100
AcDbPolyline
 90
2
 70
0
 10
-367.7513012455838
 20
872.5833614921257
 10
-307.49998238372973
 20
812.3320426302726
  0
LINE
  5
DC
330
17
100
AcDbEntity
  8
FP-Below
100
AcDbLine
 10
-354.4995545073725
 20
529.0000281599014
 30
0.0
 11
-354.4995545073725
 21
537.0000281599014
 31
0.0
  0
LINE
  5
DD
330
17
100
AcDbEntity
  8
FP-Below
100
AcDbLine
 10
-354.4995545073725
 20
537.0000281599014
 30
0.0
 11
-346.4995545073725
 21
537.0000281599014
 31
0.0
  0
LINE
  5
DE
330
17
100
AcDbEntity
  8
FP-Below
100
AcDbLine
 10
-354.4995545073725
 20
599.0833614932335
 30
0.0
 11
-346.4995545073725
 21
599.0833614932335
 31
0.0
  0
LINE
  5
DF
330
17
100
AcDbEntity
  8
FP-Below
100
AcDbLine
 10
-354.4995545073725
 20
607.0833614932335
 30
0.0
 11
-354.4995545073725
 21
599.0833614932335
 31
0.0
  0
LINE
  5
E0
330
17
100
AcDbEntity
  8
FP-Below
100
AcDbLine
 10
-349.99828480543147
 20
393.506927181631
 30
0.0
 11
-349.9982532619142
 21
326.00002340093397
 31
0.0
  0
LINE
  5
E1
330
17
100
AcDbEntity
  8
FP-Below
100
AcDbLine
 10
-347.99828480543147
 20
393.506927181631
 30
0.0
 11
-349.99828480543147
 21
393.506927181631
 31
0.0
  0
LINE
  5
E2
330
17
100
AcDbEntity
  8
FP-Below
100
AcDbLine
 10
-349.9982532619142
 20
522.5000281599014
 30
0.0
 11
-349.9982532619142
 21
453.506927181631
 31
0.0
  0
LINE
  5
E3
330
17
100
AcDbEntity
  8
FP-Below
100
AcDbLine
 10
-347.9982532619142
 20
453.506927181631
 30
0.0
 11
-349.9982532619142
 21
453.506927181631
 31
0.0
  0
LINE
  5
E4
330
17
100
AcDbEntity
  8
FP-Below
100
AcDbLine
 10
-345.49828480543147
 20
365.506927181631
 30
0.0
 11
-347.99828480543147
 21
365.506927181631
 31
0.0
  0
LINE
  5
E5
330
17
100
AcDbEntity
  8
FP-Below
100
AcDbLine
 10
-347.99828480543147
 20
365.506927181631
 30
0.0
 11
-347.99828480543147
 21
393.506927181631
 31
0.0
  0
LINE
  5
E6
330
17
100
AcDbEntity
  8
FP-Below
100
AcDbLine
 10
-347.9982532619142
 20
481.506927181631
 30
0.0
 11
-347.9982532619142
 21
453.506927181631
 31
0.0
  0
LINE
  5
E7
330
17
100
AcDbEntity
  8
FP-Below
100
AcDbLine
 10
-345.4982532619142
 20
481.506927181631
 30
0.0
 11
-347.9982532619142
 21
481.506927181631
 31
0.0
  0
LINE
  5
E8
330
17
100
AcDbEntity
  8
FP-Below
100
AcDbLine
 10
-346.9995545073798
 20
679.0418215403652
 30
0.0
 11
-344.9995545073725
 21
679.0418215403652
 31
0.0
  0
LINE
  5
E9
330
17
100
AcDbEntity
  8
FP-Below
100
AcDbLine
 10
-346.9995545073725
 20
613.5833614932335
 30
0.0
 11
-346.99955450737616
 21
660.5418215403652
 31
0.0
  0
LINE
  5
EA
330
17
100
AcDbEntity
  8
FP-Below
100
AcDbLine
 10
-346.99955450737616
 20
667.0418215403643
 30
0.0
 11
-346.9995545073725
 21
679.0418215403652
 31
0.0
  0
LINE
  5
EB
330
17
100
AcDbEntity
  8
FP-Below
100
AcDbLine
 10
-346.9995545073725
 20
709.0418215403652
 30
0.0
 11
-346.9995545073725
 21
747.332893770922
 31
0.0
  0
LINE
  5
EC
330
17
100
AcDbEntity
  8
FP-Below
100
AcDbLine
 10
-340.4995545073725
 20
709.0418215403652
 30
0.0
 11
-346.9995545073725
 21
709.0418215403652
 31
0.0
  0
LINE
  5
ED
330
17
100
AcDbEntity
  8
FP-Below
100
AcDbLine
 10
-346.4995545073725
 20
529.0000281599014
 30
0.0
 11
-346.4995545073725
 21
537.0000281599014
 31
0.0
  0
LINE
  5
EE
330
17
100
AcDbEntity
  8
FP-Below
100
AcDbLine
 10
-346.4995545073725
 20
529.0141221372169
 30
0.0
 11
-337.49834998547885
 21
529.0132121862907
 31
0.0
  0
LINE
  5
EF
330
17
100
AcDbEntity
  8
FP-Below
100
AcDbLine
 10
-346.4995545073725
 20
607.0833614932335
 30
0.0
 11
-346.4995545073725
 21
599.0833614932335
 31
0.0
  0
LINE
  5
F0
330
17
100
AcDbEntity
  8
FP-Below
100
AcDbLine
 10
-323.49955450737616
 20
607.0833614932371
 30
0.0
 11
-346.4995545073725
 21
607.0833614932335
 31
0.0
  0
LINE
  5
F1
330
17
100
AcDbEntity
  8
FP-Below
100
AcDbLine
 10
-345.49828480543147
 20
393.506927181631
 30
0.0
 11
-345.49828480543147
 21
365.506927181631
 31
0.0
  0
LINE
  5
F2
330
17
100
AcDbEntity
  8
FP-Below
100
AcDbLine
 10
-343.49828480543147
 20
393.506927181631
 30
0.0
 11
-345.49828480543147
 21
393.506927181631
 31
0.0
  0
LINE
  5
F3
330
17
100
AcDbEntity
  8
FP-Below
100
AcDbLine
 10
-343.4982532619142
 20
453.506927181631
 30
0.0
 11
-345.4982532619142
 21
453.506927181631
 31
0.0
  0
LINE
  5
F4
330
17
100
AcDbEntity
  8
FP-Below
100
AcDbLine
 10
-345.4982532619142
 20
453.506927181631
 30
0.0
 11
-345.4982532619142
 21
481.506927181631
 31
0.0
  0
LINE
  5
F5
330
17
100
AcDbEntity
  8
FP-Below
100
AcDbLine
 10
-344.9995545073725
 20
679.0418215403652
 30
0.0
 11
-344.9995545073798
 21
651.0418215403652
 31
0.0
  0
LINE
  5
F6
330
17
100
AcDbEntity
  8
FP-Below
100
AcDbLine
 10
-344.9995545073798
 20
651.0418215403652
 30
0.0
 11
-342.4995545073798
 21
651.0418215403652
 31
0.0
  0
LINE
  5
F7
330
17
100
AcDbEntity
  8
FP-Below
100
AcDbLine
 10
-343.50044549284576
 20
140.500081154697
 30
0.0
 11
-343.50044549284576
 21
151.500081154697
 31
0.0
  0
LINE
  5
F8
330
17
100
AcDbEntity
  8
FP-Below
100
AcDbLine
 10
-343.498318218004
 20
393.506927181631
 30
0.0
 11
-343.4982532619142
 21
326.00002340093397
 31
0.0
  0
LINE
  5
F9
330
17
100
AcDbEntity
  8
FP-Below
100
AcDbLine
 10
-343.49828667448674
 20
453.506927181631
 30
0.0
 11
-343.4982532619142
 21
521.013830962328
 31
0.0
  0
LINE
  5
FA
330
17
100
AcDbEntity
  8
FP-Below
100
AcDbLine
 10
-343.4982532619215
 20
521.013818688406
 30
0.0
 11
-337.4983499854825
 21
521.0132121454099
 31
0.0
  0
LINE
  5
FB
330
17
100
AcDbEntity
  8
FP-Below
100
AcDbLine
 10
-323.49741064143745
 20
326.00002340093397
 30
0.0
 11
-343.4982532619142
 21
326.00002340093397
 31
0.0
  0
LINE
  5
FC
330
17
100
AcDbEntity
  8
FP-Below
100
AcDbLine
 10
-342.4995545073798
 20
651.0418215403652
 30
0.0
 11
-342.4995545073725
 21
679.0418215403652
 31
0.0
  0
LINE
  5
FD
330
17
100
AcDbEntity
  8
FP-Below
100
AcDbLine
 10
-342.4995545073725
 20
679.0418215403652
 30
0.0
 11
-340.4995545073725
 21
679.0418215403652
 31
0.0
  0
LINE
  5
FE
330
17
100
AcDbEntity
  8
FP-Below
100
AcDbLine
 10
-340.4995545073725
 20
613.5833614932335
 30
0.0
 11
-323.49955450737616
 21
613.5833614932335
 31
0.0
  0
LINE
  5
FF
330
17
100
AcDbEntity
  8
FP-Below
100
AcDbLine
 10
-340.4995545073725
 20
613.5833614932335
 30
0.0
 11
-340.4995545073725
 21
679.0418215403652
 31
0.0
  0
LINE
  5
100
330
17
100
AcDbEntity
  8
FP-Below
100
AcDbLine
 10
-340.4995545073725
 20
709.0418215403652
 30
0.0
 11
-340.4995545073725
 21
743.8333614921239
 31
0.0
  0
LINE
  5
101
330
17
100
AcDbEntity
  8
FP-Below
100
AcDbLine
 10
-334.4995545073725
 20
743.8333614921239
 30
0.0
 11
-340.4995545073725
 21
743.8333614921239
 31
0.0
  0
LINE
  5
102
330
17
100
AcDbEntity
  8
FP-Below
100
AcDbLine
 10
-337.49834998548613
 20
521.0000281599014
 30
0.0
 11
-337.49834998547885
 21
529.0132121862907
 31
0.0
  0
LINE
  5
103
330
17
100
AcDbEntity
  8
FP-Below
100
AcDbLine
 10
-334.4995545073725
 20
743.8333614921239
 30
0.0
 11
-334.4995545073725
 21
753.8333614921276
 31
0.0
  0
LINE
  5
104
330
17
100
AcDbEntity
  8
FP-Below
100
AcDbLine
 10
-332.7598413819542
 20
945.8333614921257
 30
0.0
 11
-332.7598413819542
 21
956.8333614921257
 31
0.0
  0
LINE
  5
105
330
17
100
AcDbEntity
  8
FP-Below
100
AcDbLine
 10
-282.2459353782142
 20
945.8333614921257
 30
0.0
 11
-332.75510831005886
 21
945.8333614921257
 31
0.0
  0
LINE
  5
106
330
17
100
AcDbEntity
  8
FP-Below
100
AcDbLine
 10
-282.2459353782142
 20
956.8333614921257
 30
0.0
 11
-332.75510831005886
 21
956.8333614921257
 31
0.0
  0
LINE
  5
107
330
17
100
AcDbEntity
  8
FP-Below
100
AcDbLine
 10
-323.49955450737616
 20
607.0833614932335
 30
0.0
 11
-323.49955450737616
 21
613.5833614932371
 31
0.0
  0
LINE
  5
108
330
17
100
AcDbEntity
  8
FP-Below
100
AcDbLine
 10
-323.49741064143745
 20
319.50002340093397
 30
0.0
 11
-323.49741064143745
 21
326.00002340093397
 31
0.0
  0
LWPOLYLINE
  5
109
330
17
100
AcDbEntity
  8
FP-Note
100
AcDbPolyline
 90
4
 70
0
 10
-318.94586697824525
 20
928.0271826371923
 10
-318.94585233050384
 20
940.0271826371832
 10
-298.9458523305184
 20
940.0271582242772
 10
-318.94586697824525
 20
928.0271826371923
  0
LWPOLYLINE
  5
10A
330
17
100
AcDbEntity
  8
FP-Note
100
AcDbPolyline
 90
4
 70
0
 10
-308.1329276057768
 20
843.6575257053573
 10
-308.1329129580354
 20
855.6575257053482
 10
-306.1329129580499
 20
855.6575012924422
 10
-308.1329276057768
 20
843.6575257053573
  0
LWPOLYLINE
  5
10B
330
17
100
AcDbEntity
  8
FP-Roof Detail
100
AcDbPolyline
 90
2
 70
0
 10
-307.49998238372973
 20
773.5820426308321
 10
-99.74866352189201
 20
565.8307237689949
  0
LWPOLYLINE
  5
10C
330
17
100
AcDbEntity
  8
FP-Roof Detail
100
AcDbPolyline
 90
2
 70
0
 10
-247.24866352187746
 20
833.8333614926851
 10
-307.49998238372973
 20
773.5820426308321
  0
LWPOLYLINE
  5
10D
330
17
100
AcDbEntity
  8
FP-Roof Detail
100
AcDbPolyline
 90
2
 70
0
 10
-307.49998238372973
 20
812.3320426302728
 10
-307.49998238372973
 20
773.5820426308321
  0
LWPOLYLINE
  5
10E
330
17
100
AcDbEntity
  8
FP-Roof Detail
100
AcDbPolyline
 90
2
 70
0
 10
-247.24866352187746
 20
872.5833614921257
 10
-307.49998238372973
 20
812.3320426302728
  0
LWPOLYLINE
  5
10F
330
17
100
AcDbEntity
  8
FP-Note
100
AcDbPolyline
 90
4
 70
0
 10
-306.1743368271964
 20
183.32534143473094
 10
-306.174322179455
 20
171.32534143474004
 10
-286.1743221794695
 20
171.32536584764603
 10
-306.1743368271964
 20
183.32534143473094
  0
LINE
  5
110
330
17
100
AcDbEntity
  8
FP-Below
100
AcDbLine
 10
-291.49955450737616
 20
607.0833614932335
 30
0.0
 11
-291.49955450737616
 21
613.5833614932371
 31
0.0
  0
LINE
  5
111
330
17
100
AcDbEntity
  8
FP-Below
100
AcDbLine
 10
-268.4995545073725
 20
607.0833614932371
 30
0.0
 11
-291.49955450737616
 21
607.0833614932371
 31
0.0
  0
LINE
  5
112
330
17
100
AcDbEntity
  8
FP-Below
100
AcDbLine
 10
-291.49955450737616
 20
613.5833614932335
 30
0.0
 11
-274.4995545073725
 21
613.5833614932335
 31
0.0
  0
LINE
  5
113
330
17
100
AcDbEntity
  8
FP-Below
100
AcDbLine
 10
-248.49688155088734
 20
319.50002340093397
 30
0.0
 11
-291.49741064143745
 21
319.50002340093397
 31
0.0
  0
LINE
  5
114
330
17
100
AcDbEntity
  8
FP-Below
100
AcDbLine
 10
-291.49741064143745
 20
319.50002340093397
 30
0.0
 11
-291.49741064143745
 21
326.00002340093397
 31
0.0
  0
LINE
  5
115
330
17
100
AcDbEntity
  8
FP-Below
100
AcDbLine
 10
-271.49647129093864
 20
326.00002340093397
 30
0.0
 11
-291.49741064143745
 21
326.00002340093397
 31
0.0
  0
LWPOLYLINE
  5
116
330
17
100
AcDbEntity
  8
FP-Note
100
AcDbPolyline
 90
4
 70
0
 10
-287.94286222364644
 20
816.1186276825724
 10
-275.94286222365554
 20
816.1186130348297
 10
-275.9428866365615
 20
814.1186130348447
 10
-287.94286222364644
 20
816.1186276825724
  0
LINE
  5
117
330
17
100
AcDbEntity
  8
FP-Below
100
AcDbLine
 10
-282.2459353782142
 20
945.8333614921712
 30
0.0
 11
-282.2459353782142
 21
956.8333614921712
 31
0.0
  0
LINE
  5
118
330
17
100
AcDbEntity
  8
FP-Below
100
AcDbLine
 10
-274.4995545073725
 20
743.8333614921239
 30
0.0
 11
-280.4995545073725
 21
743.8333614921239
 31
0.0
  0
LINE
  5
119
330
17
100
AcDbEntity
  8
FP-Below
100
AcDbLine
 10
-280.4995545073725
 20
743.8333614921239
 30
0.0
 11
-280.4995545073725
 21
753.8333614921276
 31
0.0
  0
LINE
  5
11A
330
17
100
AcDbEntity
  8
FP-Below
100
AcDbLine
 10
-173.99918536589757
 20
753.8333614921276
 30
0.0
 11
-280.4995545073725
 21
753.8333614921276
 31
0.0
  0
LINE
  5
11B
330
17
100
AcDbEntity
  8
FP-Below
100
AcDbLine
 10
-277.49647230667324
 20
521.0071464278608
 30
0.0
 11
-271.4964836804211
 21
521.0065398762372
 31
0.0
  0
LINE
  5
11C
330
17
100
AcDbEntity
  8
FP-Below
100
AcDbLine
 10
-277.49647230667324
 20
521.0071464278599
 30
0.0
 11
-277.49647230667324
 21
529.0087331432251
 31
0.0
  0
LINE
  5
11D
330
17
100
AcDbEntity
  8
FP-Below
100
AcDbLine
 10
-277.49647230667324
 20
529.0087331432251
 30
0.0
 11
-268.4995545073798
 21
529.0084295742772
 31
0.0
  0
LINE
  5
11E
330
17
100
AcDbEntity
  8
FP-Below
100
AcDbLine
 10
-274.4995545073725
 20
613.5833614932335
 30
0.0
 11
-274.4995545073725
 21
679.0418215403652
 31
0.0
  0
LINE
  5
11F
330
17
100
AcDbEntity
  8
FP-Below
100
AcDbLine
 10
-274.4995545073725
 20
679.0418215403652
 30
0.0
 11
-272.4995545073725
 21
679.0418215403652
 31
0.0
  0
LINE
  5
120
330
17
100
AcDbEntity
  8
FP-Below
100
AcDbLine
 10
-274.4995545073725
 20
709.0418215403652
 30
0.0
 11
-274.4995545073725
 21
743.8333614921239
 31
0.0
  0
LINE
  5
121
330
17
100
AcDbEntity
  8
FP-Below
100
AcDbLine
 10
-274.4995545073725
 20
709.0418215403652
 30
0.0
 11
-267.9995545073725
 21
709.0418215403652
 31
0.0
  0
LINE
  5
122
330
17
100
AcDbEntity
  8
FP-Below
100
AcDbLine
 10
-272.4995545073725
 20
679.0418215403652
 30
0.0
 11
-272.4995545073725
 21
651.0418215403652
 31
0.0
  0
LINE
  5
123
330
17
100
AcDbEntity
  8
FP-Below
100
AcDbLine
 10
-272.4995545073725
 20
651.0418215403652
 30
0.0
 11
-269.9995545073725
 21
651.0418215403652
 31
0.0
  0
LINE
  5
124
330
17
100
AcDbEntity
  8
FP-Below
100
AcDbLine
 10
-271.7267332747615
 20
453.506927181631
 30
0.0
 11
-269.7267332747615
 21
453.506927181631
 31
0.0
  0
LINE
  5
125
330
17
100
AcDbEntity
  8
FP-Below
100
AcDbLine
 10
-271.6180119314995
 20
393.506927181631
 30
0.0
 11
-271.49647129093864
 21
326.00002340093397
 31
0.0
  0
LINE
  5
126
330
17
100
AcDbEntity
  8
FP-Below
100
AcDbLine
 10
-271.61798038798224
 20
453.506927181631
 30
0.0
 11
-271.4964836804138
 21
521.0065398762372
 31
0.0
  0
LINE
  5
127
330
17
100
AcDbEntity
  8
FP-Below
100
AcDbLine
 10
-271.6171126349036
 20
393.506927181631
 30
0.0
 11
-269.6171126349036
 21
393.506927181631
 31
0.0
  0
LINE
  5
128
330
17
100
AcDbEntity
  8
FP-Below
100
AcDbLine
 10
-271.50044549284576
 20
140.500081154697
 30
0.0
 11
-228.79169337150597
 21
140.500081154697
 31
0.0
  0
LINE
  5
129
330
17
100
AcDbEntity
  8
FP-Below
100
AcDbLine
 10
-271.50044549284576
 20
140.500081154697
 30
0.0
 11
-271.50044549284576
 21
151.500081154697
 31
0.0
  0
LINE
  5
12A
330
17
100
AcDbEntity
  8
FP-Below
100
AcDbLine
 10
-271.50044549284576
 20
151.5000811546961
 30
0.0
 11
-248.49688155088734
 21
151.500081154697
 31
0.0
  0
LINE
  5
12B
330
17
100
AcDbEntity
  8
FP-Below
100
AcDbLine
 10
-269.9995545073725
 20
651.0418215403652
 30
0.0
 11
-269.9995545073725
 21
679.0418215403652
 31
0.0
  0
LINE
  5
12C
330
17
100
AcDbEntity
  8
FP-Below
100
AcDbLine
 10
-269.9995545073725
 20
679.0418215403652
 30
0.0
 11
-267.9995545073725
 21
679.0418215403652
 31
0.0
  0
LINE
  5
12D
330
17
100
AcDbEntity
  8
FP-Below
100
AcDbLine
 10
-269.7267332747615
 20
453.506927181631
 30
0.0
 11
-269.7267332747615
 21
481.506927181631
 31
0.0
  0
LINE
  5
12E
330
17
100
AcDbEntity
  8
FP-Below
100
AcDbLine
 10
-269.7267332747615
 20
481.506927181631
 30
0.0
 11
-267.2267332747615
 21
481.506927181631
 31
0.0
  0
LINE
  5
12F
330
17
100
AcDbEntity
  8
FP-Below
100
AcDbLine
 10
-269.6171126349036
 20
393.506927181631
 30
0.0
 11
-269.6171126349036
 21
365.506927181631
 31
0.0
  0
LINE
  5
130
330
17
100
AcDbEntity
  8
FP-Below
100
AcDbLine
 10
-269.6171126349036
 20
365.506927181631
 30
0.0
 11
-267.1171126349036
 21
365.506927181631
 31
0.0
  0
LINE
  5
131
330
17
100
AcDbEntity
  8
FP-Below
100
AcDbLine
 10
-268.4995545073798
 20
529.0000281599014
 30
0.0
 11
-268.4995545073798
 21
537.0000281599014
 31
0.0
  0
LINE
  5
132
330
17
100
AcDbEntity
  8
FP-Below
100
AcDbLine
 10
-260.4995545073798
 20
537.0000281599014
 30
0.0
 11
-268.4995545073798
 21
537.0000281599014
 31
0.0
  0
LINE
  5
133
330
17
100
AcDbEntity
  8
FP-Below
100
AcDbLine
 10
-260.4995545073798
 20
599.0833614932335
 30
0.0
 11
-268.4995545073798
 21
599.0833614932335
 31
0.0
  0
LINE
  5
134
330
17
100
AcDbEntity
  8
FP-Below
100
AcDbLine
 10
-268.4995545073798
 20
607.0833614932335
 30
0.0
 11
-268.4995545073798
 21
599.0833614932335
 31
0.0
  0
LINE
  5
135
330
17
100
AcDbEntity
  8
FP-Below
100
AcDbLine
 10
-267.9995545073725
 20
613.5833614932335
 30
0.0
 11
-173.99866352187746
 21
613.5833614932371
 31
0.0
  0
LINE
  5
136
330
17
100
AcDbEntity
  8
FP-Below
100
AcDbLine
 10
-267.9995545073725
 20
613.5833614932335
 30
0.0
 11
-267.9995545073725
 21
679.0418215403652
 31
0.0
  0
LINE
  5
137
330
17
100
AcDbEntity
  8
FP-Below
100
AcDbLine
 10
-267.9995545073725
 20
709.0418215403652
 30
0.0
 11
-267.9995545073725
 21
745.8333614921239
 31
0.0
  0
LINE
  5
138
330
17
100
AcDbEntity
  8
FP-Below
100
AcDbLine
 10
-173.99866352187746
 20
745.8333614921276
 30
0.0
 11
-267.9995545073725
 21
745.8333614921276
 31
0.0
  0
LINE
  5
139
330
17
100
AcDbEntity
  8
FP-Below
100
AcDbLine
 10
-267.2267332747615
 20
453.506927181631
 30
0.0
 11
-265.2267332747615
 21
453.506927181631
 31
0.0
  0
LINE
  5
13A
330
17
100
AcDbEntity
  8
FP-Below
100
AcDbLine
 10
-267.2267332747615
 20
481.506927181631
 30
0.0
 11
-267.2267332747615
 21
453.506927181631
 31
0.0
  0
LINE
  5
13B
330
17
100
AcDbEntity
  8
FP-Below
100
AcDbLine
 10
-267.1171126349036
 20
365.506927181631
 30
0.0
 11
-267.1171126349036
 21
393.506927181631
 31
0.0
  0
LINE
  5
13C
330
17
100
AcDbEntity
  8
FP-Below
100
AcDbLine
 10
-267.1171126349036
 20
393.506927181631
 30
0.0
 11
-265.1171126349036
 21
393.506927181631
 31
0.0
  0
LINE
  5
13D
330
17
100
AcDbEntity
  8
FP-Below
100
AcDbLine
 10
-265.34814564178305
 20
522.5000281599014
 30
0.0
 11
-265.225029091107
 21
453.506927181631
 31
0.0
  0
LINE
  5
13E
330
17
100
AcDbEntity
  8
FP-Below
100
AcDbLine
 10
-265.34814564178305
 20
522.5000281599014
 30
0.0
 11
-173.99866352188474
 21
522.5000281599014
 31
0.0
  0
LINE
  5
13F
330
17
100
AcDbEntity
  8
FP-Below
100
AcDbLine
 10
-265.1171126349036
 20
393.506927181631
 30
0.0
 11
-264.99647129093864
 21
326.00002340093397
 31
0.0
  0
LINE
  5
140
330
17
100
AcDbEntity
  8
FP-Below
100
AcDbLine
 10
-173.99866352187746
 20
326.00002340093397
 30
0.0
 11
-264.99647129093864
 21
326.00002340093397
 31
0.0
  0
LINE
  5
141
330
17
100
AcDbEntity
  8
FP-Below
100
AcDbLine
 10
-262.49688155088734
 20
205.5000234009376
 30
0.0
 11
-248.49285365908509
 21
205.5000234009376
 31
0.0
  0
LINE
  5
142
330
17
100
AcDbEntity
  8
FP-Below
100
AcDbLine
 10
-262.49688155088734
 20
217.5000234009376
 30
0.0
 11
-262.49688155088734
 21
205.5000234009376
 31
0.0
  0
LINE
  5
143
330
17
100
AcDbEntity
  8
FP-Below
100
AcDbLine
 10
-262.49688155088734
 20
217.5000234009376
 30
0.0
 11
-248.49688155088734
 21
217.5000234009376
 31
0.0
  0
LINE
  5
144
330
17
100
AcDbEntity
  8
FP-Below
100
AcDbLine
 10
-262.49688155088734
 20
253.5000234009376
 30
0.0
 11
-248.49688155088734
 21
253.5000234009376
 31
0.0
  0
LINE
  5
145
330
17
100
AcDbEntity
  8
FP-Below
100
AcDbLine
 10
-262.49688155088734
 20
253.5000234009376
 30
0.0
 11
-262.49688155088734
 21
265.5000234009376
 31
0.0
  0
LINE
  5
146
330
17
100
AcDbEntity
  8
FP-Below
100
AcDbLine
 10
-262.49688155088734
 20
265.5000234009376
 30
0.0
 11
-248.49506029991971
 21
265.5000234009376
 31
0.0
  0
LINE
  5
147
330
17
100
AcDbEntity
  8
FP-Below
100
AcDbLine
 10
-260.4995545073798
 20
529.0079120685541
 30
0.0
 11
-121.99888626825486
 21
528.998952707515
 31
0.0
  0
LINE
  5
148
330
17
100
AcDbEntity
  8
FP-Below
100
AcDbLine
 10
-260.4995545073798
 20
529.0000281599014
 30
0.0
 11
-260.4995545073798
 21
537.0000281599014
 31
0.0
  0
LINE
  5
149
330
17
100
AcDbEntity
  8
FP-Below
100
AcDbLine
 10
-260.4995545073798
 20
607.0833614932335
 30
0.0
 11
-260.4995545073798
 21
599.0833614932335
 31
0.0
  0
LINE
  5
14A
330
17
100
AcDbEntity
  8
FP-Below
100
AcDbLine
 10
-121.99888626825486
 20
607.0833614932371
 30
0.0
 11
-260.4995545073798
 21
607.0833614932371
 31
0.0
  0
LWPOLYLINE
  5
14B
330
17
100
AcDbEntity
  8
FP-Note
100
AcDbPolyline
 90
4
 70
0
 10
-244.27918623284677
 20
502.03908311872306
 10
-256.2791862328377
 20
502.03906847098165
 10
-256.2791618199317
 20
500.0390684709962
 10
-244.27918623284677
 20
502.03908311872306
  0
LINE
  5
14C
330
17
100
AcDbEntity
  8
FP-Below
100
AcDbLine
 10
-248.49688155088734
 20
151.500081154697
 30
0.0
 11
-248.49688155088734
 21
157.50008115470428
 31
0.0
  0
LINE
  5
14D
330
17
100
AcDbEntity
  8
FP-Below
100
AcDbLine
 10
-248.49688155088734
 20
187.50008116340996
 30
0.0
 11
-248.49688155088734
 21
205.5000234009376
 31
0.0
  0
LINE
  5
14E
330
17
100
AcDbEntity
  8
FP-Below
100
AcDbLine
 10
-246.49688155088734
 20
187.50008116340996
 30
0.0
 11
-248.49688155088734
 21
187.50008116340996
 31
0.0
  0
LINE
  5
14F
330
17
100
AcDbEntity
  8
FP-Below
100
AcDbLine
 10
-248.49688155088734
 20
217.5000234009376
 30
0.0
 11
-248.49688155088734
 21
253.5000234009376
 31
0.0
  0
LINE
  5
150
330
17
100
AcDbEntity
  8
FP-Below
100
AcDbLine
 10
-248.49688155088734
 20
265.5000234009376
 30
0.0
 11
-248.49688155088734
 21
283.50002340093397
 31
0.0
  0
LINE
  5
151
330
17
100
AcDbEntity
  8
FP-Below
100
AcDbLine
 10
-246.49688155088734
 20
283.500023392221
 30
0.0
 11
-248.49688155088734
 21
283.500023392221
 31
0.0
  0
LINE
  5
152
330
17
100
AcDbEntity
  8
FP-Below
100
AcDbLine
 10
-248.49688155088734
 20
313.50002340093397
 30
0.0
 11
-248.49688155088734
 21
319.50002340093397
 31
0.0
  0
LINE
  5
153
330
17
100
AcDbEntity
  8
FP-Below
100
AcDbLine
 10
-248.49672828754774
 20
157.500081154697
 30
0.0
 11
-241.98768572939662
 21
157.5000811634245
 31
0.0
  0
LINE
  5
154
330
17
100
AcDbEntity
  8
FP-Below
100
AcDbLine
 10
-248.49672828754774
 20
313.50002340093397
 30
0.0
 11
-241.98768572939662
 21
313.50002339220646
 31
0.0
  0
LWPOLYLINE
  5
155
330
17
100
AcDbEntity
  8
FP-Roof
100
AcDbPolyline
 90
2
 70
0
 10
-247.24866352187746
 20
833.8333614926833
 10
-146.99866352187746
 20
934.0833614926842
  0
LWPOLYLINE
  5
156
330
17
100
AcDbEntity
  8
FP-Roof
100
AcDbPolyline
 90
2
 70
0
 10
-247.24866352187746
 20
872.5833614921248
 10
-146.99866352187746
 20
972.8333614921253
  0
LINE
  5
157
330
17
100
AcDbEntity
  8
FP-Below
100
AcDbLine
 10
-246.49688155088734
 20
215.50008116340996
 30
0.0
 11
-246.49688155088734
 21
187.50008116340996
 31
0.0
  0
LINE
  5
158
330
17
100
AcDbEntity
  8
FP-Below
100
AcDbLine
 10
-243.99688155088734
 20
215.50008116340996
 30
0.0
 11
-246.49688155088734
 21
215.50008116340996
 31
0.0
  0
LINE
  5
159
330
17
100
AcDbEntity
  8
FP-Below
100
AcDbLine
 10
-243.99688155088734
 20
255.500023392221
 30
0.0
 11
-246.49688155088734
 21
255.500023392221
 31
0.0
  0
LINE
  5
15A
330
17
100
AcDbEntity
  8
FP-Below
100
AcDbLine
 10
-246.49688155088734
 20
255.500023392221
 30
0.0
 11
-246.49688155088734
 21
283.500023392221
 31
0.0
  0
LINE
  5
15B
330
17
100
AcDbEntity
  8
FP-Below
100
AcDbLine
 10
-241.99688155088734
 20
187.50008116340996
 30
0.0
 11
-243.99688155088734
 21
187.50008116340996
 31
0.0
  0
LINE
  5
15C
330
17
100
AcDbEntity
  8
FP-Below
100
AcDbLine
 10
-243.99688155088734
 20
187.50008116340996
 30
0.0
 11
-243.99688155088734
 21
215.50008116340996
 31
0.0
  0
LINE
  5
15D
330
17
100
AcDbEntity
  8
FP-Below
100
AcDbLine
 10
-243.99688155088734
 20
283.500023392221
 30
0.0
 11
-243.99688155088734
 21
255.500023392221
 31
0.0
  0
LINE
  5
15E
330
17
100
AcDbEntity
  8
FP-Below
100
AcDbLine
 10
-241.99688155088734
 20
283.500023392221
 30
0.0
 11
-243.99688155088734
 21
283.500023392221
 31
0.0
  0
LINE
  5
15F
330
17
100
AcDbEntity
  8
FP-Below
100
AcDbLine
 10
-241.99688155088734
 20
187.50008116340996
 30
0.0
 11
-241.99796967021393
 21
235.48985381611874
 31
0.0
  0
LINE
  5
160
330
17
100
AcDbEntity
  8
FP-Below
100
AcDbLine
 10
-173.99975164120406
 20
235.500081154697
 30
0.0
 11
-241.99796967021393
 21
235.500081154697
 31
0.0
  0
LINE
  5
161
330
17
100
AcDbEntity
  8
FP-Below
100
AcDbLine
 10
-90.49952856709933
 20
241.9995245879245
 30
0.0
 11
-241.99796967021393
 21
241.9898188909183
 31
0.0
  0
LINE
  5
162
330
17
100
AcDbEntity
  8
FP-Below
100
AcDbLine
 10
-241.99796967021393
 20
241.9898188909183
 30
0.0
 11
-241.99688155088734
 21
283.500023392221
 31
0.0
  0
LINE
  5
163
330
17
100
AcDbEntity
  8
FP-Below
100
AcDbLine
 10
-241.99688155088734
 20
151.500081154697
 30
0.0
 11
-228.79169337150597
 21
151.500081154697
 31
0.0
  0
LINE
  5
164
330
17
100
AcDbEntity
  8
FP-Below
100
AcDbLine
 10
-241.99688155088734
 20
151.500081154697
 30
0.0
 11
-241.99688155088734
 21
157.50008116341724
 31
0.0
  0
LINE
  5
165
330
17
100
AcDbEntity
  8
FP-Below
100
AcDbLine
 10
-241.99688155088734
 20
313.4908275707194
 30
0.0
 11
-241.99688155088734
 21
319.50002340093397
 31
0.0
  0
LINE
  5
166
330
17
100
AcDbEntity
  8
FP-Below
100
AcDbLine
 10
-173.99600054404073
 20
319.50002340093397
 30
0.0
 11
-241.99688155088734
 21
319.50002340093397
 31
0.0
  0
LINE
  5
167
330
17
100
AcDbEntity
  8
FP-Below
100
AcDbLine
 10
-228.79169337150597
 20
151.500081154697
 30
0.0
 11
-228.79169337150597
 21
140.500081154697
 31
0.0
  0
LINE
  5
168
330
17
100
AcDbEntity
  8
FP-Below
100
AcDbLine
 10
-210.255366289206
 20
945.8333614921712
 30
0.0
 11
-210.25536628921327
 21
956.8333614921712
 31
0.0
  0
LINE
  5
169
330
17
100
AcDbEntity
  8
FP-Below
100
AcDbLine
 10
-162.99866352187746
 20
956.8333614921257
 30
0.0
 11
-210.25536628921327
 21
956.8333614921257
 31
0.0
  0
LINE
  5
16A
330
17
100
AcDbEntity
  8
FP-Below
100
AcDbLine
 10
-210.255366289206
 20
945.833361492113
 30
0.0
 11
-173.99918536589757
 21
945.8333614921257
 31
0.0
  0
LWPOLYLINE
  5
16B
330
17
100
AcDbEntity
  8
FP-Roof
100
AcDbPolyline
 90
3
 70
0
 10
-192.998663521892
 20
134.7500811546961
 10
-192.998663521892
 20
81.50357342360167
 10
-117.40075885058104
 20
81.48738152773876
  0
LWPOLYLINE
  5
16C
330
17
100
AcDbEntity
  8
FP-Roof
100
AcDbPolyline
 90
2
 70
0
 10
-102.99866352189201
 20
224.7500811546961
 10
-192.998663521892
 20
134.7500811546961
  0
LWPOLYLINE
  5
16D
330
17
100
AcDbEntity
  8
FP-Roof
100
AcDbPolyline
 90
2
 70
0
 10
-85.99866352189201
 20
188.48065814143774
 10
-192.97575314677488
 20
81.50356851655579
  0
LINE
  5
16E
330
17
100
AcDbEntity
  8
FP-Below
100
AcDbLine
 10
-176.99866352187746
 20
140.500081154697
 30
0.0
 11
-192.79169337150597
 21
140.500081154697
 31
0.0
  0
LINE
  5
16F
330
17
100
AcDbEntity
  8
FP-Below
100
AcDbLine
 10
-192.79169337150597
 20
151.500081154697
 30
0.0
 11
-192.79169337150597
 21
140.500081154697
 31
0.0
  0
LINE
  5
170
330
17
100
AcDbEntity
  8
FP-Below
100
AcDbLine
 10
-192.79169337150597
 20
151.500081154697
 30
0.0
 11
-173.99866352187746
 21
151.500081154697
 31
0.0
  0
LINE
  5
171
330
17
100
AcDbEntity
  8
FP-Below
100
AcDbLine
 10
-176.998663521892
 20
97.4970646801703
 30
0.0
 11
-176.998663521892
 21
140.500081154697
 31
0.0
  0
LINE
  5
172
330
17
100
AcDbEntity
  8
FP-Below
100
AcDbLine
 10
-176.998663521892
 20
97.50014683935296
 30
0.0
 11
-145.4986635189016
 21
97.50014683938207
 31
0.0
  0
LINE
  5
173
330
17
100
AcDbEntity
  8
FP-Below
100
AcDbLine
 10
-173.9991298587338
 20
187.5000811546979
 30
0.0
 11
-173.99975164120406
 21
235.500081154697
 31
0.0
  0
LINE
  5
174
330
17
100
AcDbEntity
  8
FP-Below
100
AcDbLine
 10
-173.99918536589757
 20
945.8333614921257
 30
0.0
 11
-173.99918536589757
 21
753.8333614921276
 31
0.0
  0
LINE
  5
175
330
17
100
AcDbEntity
  8
FP-Below
100
AcDbLine
 10
-173.9991298587338
 20
187.5000811546979
 30
0.0
 11
-165.998663521892
 21
187.500081154697
 31
0.0
  0
LINE
  5
176
330
17
100
AcDbEntity
  8
FP-Below
100
AcDbLine
 10
-90.50058315564456
 20
304.5000281599014
 30
0.0
 11
-173.99894200915878
 21
304.5000281599041
 31
0.0
  0
LINE
  5
177
330
17
100
AcDbEntity
  8
FP-Below
100
AcDbLine
 10
-173.99894200915878
 20
304.500028159905
 30
0.0
 11
-173.99874771572286
 21
319.50002340093306
 31
0.0
  0
LINE
  5
178
330
17
100
AcDbEntity
  8
FP-Below
100
AcDbLine
 10
-173.99874124468988
 20
157.5000811546961
 30
0.0
 11
-165.99866352188837
 21
157.5000811546961
 31
0.0
  0
LINE
  5
179
330
17
100
AcDbEntity
  8
FP-Below
100
AcDbLine
 10
-173.99866352187746
 20
151.5000811546979
 30
0.0
 11
-173.99874124468624
 21
157.500081154697
 31
0.0
  0
LINE
  5
17A
330
17
100
AcDbEntity
  8
FP-Below
100
AcDbLine
 10
-173.99866352187746
 20
326.00002340093397
 30
0.0
 11
-173.99866352188474
 21
522.5000281599014
 31
0.0
  0
LINE
  5
17B
330
17
100
AcDbEntity
  8
FP-Below
100
AcDbLine
 10
-173.99866352187746
 20
745.8333614921276
 30
0.0
 11
-173.99866352188474
 21
613.5833614932371
 31
0.0
  0
LINE
  5
17C
330
17
100
AcDbEntity
  8
FP-Below
100
AcDbLine
 10
-167.49868489751316
 20
619.0833614932335
 30
0.0
 11
-67.49866352187746
 21
619.0833614932335
 31
0.0
  0
LINE
  5
17D
330
17
100
AcDbEntity
  8
FP-Below
100
AcDbLine
 10
-167.4985005755334
 20
739.0832073126139
 30
0.0
 11
-167.49868489751316
 21
619.0833614932335
 31
0.0
  0
LINE
  5
17E
330
17
100
AcDbEntity
  8
FP-Below
100
AcDbLine
 10
-167.49866352187746
 20
311.000028159905
 30
0.0
 11
-167.49866352188474
 21
517.0000281599014
 31
0.0
  0
LINE
  5
17F
330
17
100
AcDbEntity
  8
FP-Below
100
AcDbLine
 10
-167.49866352188474
 20
517.0000281599014
 30
0.0
 11
-67.49866352188474
 21
517.0000281599014
 31
0.0
  0
LINE
  5
180
330
17
100
AcDbEntity
  8
FP-Below
100
AcDbLine
 10
-67.49866352188474
 20
311.0000281599014
 30
0.0
 11
-167.49866352187746
 21
311.000028159905
 31
0.0
  0
LINE
  5
181
330
17
100
AcDbEntity
  8
FP-Below
100
AcDbLine
 10
-167.49866352187746
 20
907.0833614926842
 30
0.0
 11
-167.4985005755334
 21
811.0832073126139
 31
0.0
  0
LINE
  5
182
330
17
100
AcDbEntity
  8
FP-Below
100
AcDbLine
 10
-167.49866352187746
 20
907.0833614926842
 30
0.0
 11
-107.9991090145868
 21
907.0938886060094
 31
-0.3403031765569822
  0
LINE
  5
183
330
17
100
AcDbEntity
  8
FP-Below
100
AcDbLine
 10
-151.4985005755334
 20
739.0832073126139
 30
0.0
 11
-167.4985005755334
 21
739.0832073126139
 31
0.0
  0
LINE
  5
184
330
17
100
AcDbEntity
  8
FP-Below
100
AcDbLine
 10
-167.4985005755334
 20
811.0832073126139
 30
0.0
 11
-151.4985005755334
 21
811.0832073126139
 31
0.0
  0
LINE
  5
185
330
17
100
AcDbEntity
  8
FP-Below
100
AcDbLine
 10
-90.49941890016635
 20
235.500081154697
 30
0.0
 11
-165.9997516412186
 21
235.500081154697
 31
0.0
  0
LINE
  5
186
330
17
100
AcDbEntity
  8
FP-Below
100
AcDbLine
 10
-165.998663521892
 20
97.4970646801703
 30
0.0
 11
-165.99866352188837
 21
97.50014683936388
 31
0.0
  0
LINE
  5
187
330
17
100
AcDbEntity
  8
FP-Below
100
AcDbLine
 10
-145.4986635189016
 20
108.50014683938207
 30
0.0
 11
-165.99866352188837
 21
108.50014683935478
 31
0.0
  0
LINE
  5
188
330
17
100
AcDbEntity
  8
FP-Below
100
AcDbLine
 10
-165.99866352188837
 20
108.50014683935478
 30
0.0
 11
-165.99866352188837
 21
157.5000811546961
 31
0.0
  0
LINE
  5
189
330
17
100
AcDbEntity
  8
FP-Below
100
AcDbLine
 10
-165.99866352188837
 20
187.5000811546961
 30
0.0
 11
-165.99866352188837
 21
235.5000811546961
 31
0.0
  0
LINE
  5
18A
330
17
100
AcDbEntity
  8
FP-Below
100
AcDbLine
 10
-162.99866352187746
 20
918.0833614926842
 30
0.0
 11
-162.99866352187746
 21
956.8333614921257
 31
0.0
  0
LINE
  5
18B
330
17
100
AcDbEntity
  8
FP-Below
100
AcDbLine
 10
-162.99866352187746
 20
918.0833614926842
 30
0.0
 11
-107.99910894717505
 21
918.0833614926842
 31
-0.3403031765569822
  0
LWPOLYLINE
  5
18C
330
17
100
AcDbEntity
  8
FP-Note
100
AcDbPolyline
 90
4
 70
0
 10
-155.07047815290207
 20
325.503278459335
 10
-155.07046350516066
 20
313.5032784593441
 10
-153.0704635051752
 20
313.50330287225006
 10
-155.07047815290207
 20
325.503278459335
  0
LINE
  5
18D
330
17
100
AcDbEntity
  8
FP-Below
100
AcDbLine
 10
-151.4985005755334
 20
811.0832073126139
 30
0.0
 11
-151.4985005755334
 21
739.0832073126139
 31
0.0
  0
LWPOLYLINE
  5
18E
330
17
100
AcDbEntity
  8
FP-Above
100
AcDbPolyline
 90
4
 70
1
 38
-0.3403031765569822
 10
-149.49866352187746
 20
661.0839246980377
 10
149.50044549263475
 20
661.0839246980377
 10
149.50044549263475
 20
889.0839246980377
 10
-149.49866352187746
 20
889.0839246980377
  0
LINE
  5
18F
330
17
100
AcDbEntity
  8
FP-Below
100
AcDbLine
 10
-145.4986635189016
 20
97.50014683938207
 30
0.0
 11
-145.4986635189016
 21
108.50014683938207
 31
0.0
  0
LWPOLYLINE
  5
190
330
17
100
AcDbEntity
  8
FP-Note
100
AcDbPolyline
 90
4
 70
0
 10
-129.93457776616196
 20
173.2725129618584
 10
-141.93457776615287
 20
173.27249831411564
 10
-141.9345533532487
 20
153.27249831413064
 10
-129.93457776616196
 20
173.2725129618584
  0
LINE
  5
191
330
17
100
AcDbEntity
  8
FP-Below
100
AcDbLine
 10
-121.99888626825486
 20
528.998952707515
 30
0.0
 11
-121.99888626825486
 21
537.0000281599014
 31
0.0
  0
LINE
  5
192
330
17
100
AcDbEntity
  8
FP-Below
100
AcDbLine
 10
-121.99888626825486
 20
537.0000281599014
 30
0.0
 11
-113.99888626825486
 21
537.0000281599014
 31
0.0
  0
LINE
  5
193
330
17
100
AcDbEntity
  8
FP-Below
100
AcDbLine
 10
-121.99888626825486
 20
599.0833614932335
 30
0.0
 11
-121.99888626825486
 21
607.0833614932371
 31
0.0
  0
LINE
  5
194
330
17
100
AcDbEntity
  8
FP-Below
100
AcDbLine
 10
-121.99888626825486
 20
599.0833614932371
 30
0.0
 11
-113.99888626824759
 21
599.0833614932371
 31
0.0
  0
LWPOLYLINE
  5
195
330
17
100
AcDbEntity
  8
FP-Roof
100
AcDbPolyline
 90
4
 70
0
 10
-117.40071520381753
 20
89.47213234221545
 10
-117.40120428219961
 20
0.0
 10
117.40120435639801
 20
0.0012846873214584775
 10
117.40071483278916
 20
89.47155564302284
  0
LWPOLYLINE
  5
196
330
17
100
AcDbEntity
  8
FP-Roof
100
AcDbPolyline
 90
2
 70
0
 10
-46.40018178923674
 20
71.0003884728585
 10
-117.40120428219961
 20
0.0
  0
LWPOLYLINE
  5
197
330
17
100
AcDbEntity
  8
FP-Roof
100
AcDbPolyline
 90
2
 70
0
 10
-46.40067132114564
 20
160.47217622488733
 10
-117.40067132008517
 20
89.4721762259478
  0
LINE
  5
198
330
17
100
AcDbEntity
  8
FP-Below
100
AcDbLine
 10
-113.99888626825486
 20
529.0000281599014
 30
0.0
 11
-113.99888626825486
 21
537.0000281599014
 31
0.0
  0
LINE
  5
199
330
17
100
AcDbEntity
  8
FP-Below
100
AcDbLine
 10
-113.99888626825486
 20
599.0833614932335
 30
0.0
 11
-113.99888626825486
 21
607.0833614932371
 31
0.0
  0
LINE
  5
19A
330
17
100
AcDbEntity
  8
FP-Below
100
AcDbLine
 10
-113.99888626824759
 20
529.0000281599014
 30
0.0
 11
-67.49866352187746
 21
529.0000281599014
 31
0.0
  0
LINE
  5
19B
330
17
100
AcDbEntity
  8
FP-Below
100
AcDbLine
 10
-113.99888626824759
 20
607.0833614932371
 30
0.0
 11
-67.49866352188474
 21
607.0833614932371
 31
0.0
  0
LINE
  5
19C
330
17
100
AcDbEntity
  8
FP-Below
100
AcDbLine
 10
-109.49866351898163
 20
97.50014683941845
 30
0.0
 11
-101.40067132032345
 21
97.50014683936024
 31
0.0
  0
LINE
  5
19D
330
17
100
AcDbEntity
  8
FP-Below
100
AcDbLine
 10
-109.4986635189016
 20
108.50014683938207
 30
0.0
 11
-109.4986635189016
 21
97.50014683938207
 31
0.0
  0
LINE
  5
19E
330
17
100
AcDbEntity
  8
FP-Below
100
AcDbLine
 10
-90.49727599604012
 20
108.50023152306312
 30
0.0
 11
-109.4986635189016
 21
108.50014683938207
 31
0.0
  0
LINE
  5
19F
330
17
100
AcDbEntity
  8
FP-Below
100
AcDbLine
 10
-107.99910894717505
 20
918.0833614926842
 30
-0.3403031765569822
 11
-107.99910901462317
 21
907.0882297064991
 31
-0.3403031765569822
  0
LWPOLYLINE
  5
1A0
330
17
100
AcDbEntity
  8
FP-Roof
100
AcDbPolyline
 90
2
 70
0
 10
-99.74866352189201
 20
492.75271887854274
 10
-102.99866352189201
 20
224.7500811546961
  0
LINE
  5
1A1
330
17
100
AcDbEntity
  8
FP-Below
100
AcDbLine
 10
-101.40067132032345
 20
97.50014683936024
 30
0.0
 11
-101.40111682124189
 21
16.000087542397523
 31
0.0
  0
LINE
  5
1A2
330
17
100
AcDbEntity
  8
FP-Below
100
AcDbLine
 10
-101.40111682124189
 20
16.000087542397523
 30
0.0
 11
-93.40067132020704
 21
16.000087542397523
 31
0.0
  0
LWPOLYLINE
  5
1A3
330
17
100
AcDbEntity
  8
FP-Roof
100
AcDbPolyline
 90
4
 70
0
 10
-99.74866352189201
 20
565.8307237689949
 10
-100.45577030307868
 20
612.9009257692067
 10
100.45577030284585
 20
612.9009257692069
 10
99.74866352167737
 20
565.8289065652327
  0
LWPOLYLINE
  5
1A4
330
17
100
AcDbEntity
  8
FP-Roof
100
AcDbPolyline
 90
2
 70
0
 10
-85.99866352189201
 20
598.4438189880211
 10
-100.45577030307868
 20
612.9009257692062
  0
LWPOLYLINE
  5
1A5
330
17
100
AcDbEntity
  8
FP-Roof
100
AcDbPolyline
 90
2
 70
0
 10
-99.74866352189201
 20
565.8307237689949
 10
-99.74866352189201
 20
492.75271887854274
  0
LINE
  5
1A6
330
17
100
AcDbEntity
  8
FP-Below
100
AcDbLine
 10
-93.40067132020704
 20
16.000087542397523
 30
0.0
 11
-93.40067132020704
 21
10.000087542397523
 31
0.0
  0
LINE
  5
1A7
330
17
100
AcDbEntity
  8
FP-Below
100
AcDbLine
 10
-93.40067132020704
 20
10.000087542397523
 30
0.0
 11
-91.40067132047625
 21
10.000087542397523
 31
0.0
  0
LINE
  5
1A8
330
17
100
AcDbEntity
  8
FP-Below
100
AcDbLine
 10
-91.40067132047625
 20
10.000087542397523
 30
0.0
 11
-91.40067132047625
 21
8.000087542397523
 31
0.0
  0
LINE
  5
1A9
330
17
100
AcDbEntity
  8
FP-Below
100
AcDbLine
 10
-91.40067132047625
 20
8.000087542397523
 30
0.0
 11
-79.702025148752
 21
8.000087542397523
 31
0.0
  0
LINE
  5
1AA
330
17
100
AcDbEntity
  8
FP-Below
100
AcDbLine
 10
-90.50058315564456
 20
304.5000281599014
 30
0.0
 11
-90.49952856710297
 21
241.9995245879254
 31
0.0
  0
LINE
  5
1AB
330
17
100
AcDbEntity
  8
FP-Below
100
AcDbLine
 10
-90.49941890016635
 20
235.500081154697
 30
0.0
 11
-90.49727599604012
 21
108.50023152306312
 31
0.0
  0
LWPOLYLINE
  5
1AC
330
17
100
AcDbEntity
  8
FP-Roof
100
AcDbPolyline
 90
4
 70
0
 10
-85.99866352189201
 20
598.4438189880211
 10
-85.99866352189201
 20
188.48065814143774
 10
85.99866352189201
 20
188.44381898802112
 10
85.99866352165918
 20
598.4438189880211
  0
LWPOLYLINE
  5
1AD
330
17
100
AcDbEntity
  8
FP-Roof Detail
100
AcDbPolyline
 90
2
 70
0
 10
-85.99866352189201
 20
188.48065814143774
 10
-1.1641532182693481e-10
 20
274.47932166321243
  0
LWPOLYLINE
  5
1AE
330
17
100
AcDbEntity
  8
FP-Roof Detail
100
AcDbPolyline
 90
2
 70
0
 10
-85.99866352189201
 20
598.4438189880211
 10
-1.1641532182693481e-10
 20
512.4451554662467
  0
LWPOLYLINE
  5
1AF
330
17
100
AcDbEntity
  8
FP-Roof
100
AcDbPolyline
 90
2
 70
0
 10
85.99866352165918
 20
598.4438189880211
 10
-85.99866352189201
 20
598.4438189880211
  0
LINE
  5
1B0
330
17
100
AcDbEntity
  8
FP-Below
100
AcDbLine
 10
-83.99955435701486
 20
131.0000811547443
 30
0.0
 11
-60.00044549285303
 21
131.0000811547152
 31
0.0
  0
LINE
  5
1B1
330
17
100
AcDbEntity
  8
FP-Below
100
AcDbLine
 10
-83.99591631452859
 20
299.0001407126647
 30
0.0
 11
-83.99955435701486
 21
131.0000811547443
 31
0.0
  0
LINE
  5
1B2
330
17
100
AcDbEntity
  8
FP-Below
100
AcDbLine
 10
-67.49866352188474
 20
299.0000281599014
 30
0.0
 11
-83.99866351977471
 21
299.0001407126647
 31
0.0
  0
LINE
  5
1B3
330
17
100
AcDbEntity
  8
FP-Below
100
AcDbLine
 10
-68.00337897702775
 20
8.000087542397523
 30
0.0
 11
-79.702025148752
 21
8.000087542397523
 31
0.0
  0
LWPOLYLINE
  5
1B4
330
17
100
AcDbEntity
  8
FP-Note
100
AcDbPolyline
 90
4
 70
0
 10
-62.96354264907313
 20
97.13218830016649
 10
-74.96354264906404
 20
97.13217365242372
 10
-74.96351823615805
 20
77.13217365243872
 10
-62.96354264907313
 20
97.13218830016649
  0
LINE
  5
1B5
330
17
100
AcDbEntity
  8
FP-Below
100
AcDbLine
 10
-70.0033790290181
 20
120.000081154697
 30
0.0
 11
-60.00044549285303
 21
120.000081154697
 31
0.0
  0
LINE
  5
1B6
330
17
100
AcDbEntity
  8
FP-Below
100
AcDbLine
 10
-70.00337902901083
 20
51.387899707015094
 30
0.0
 11
-70.00337902901447
 21
120.000081154697
 31
0.0
  0
LINE
  5
1B7
330
17
100
AcDbEntity
  8
FP-Below
100
AcDbLine
 10
-70.00337902901083
 20
51.39737988530396
 30
0.0
 11
-52.0033789771951
 21
51.39737988530396
 31
0.0
  0
LINE
  5
1B8
330
17
100
AcDbEntity
  8
FP-Below
100
AcDbLine
 10
-68.00337897702775
 20
10.000087542397523
 30
0.0
 11
-68.00337897702775
 21
8.000087542397523
 31
0.0
  0
LINE
  5
1B9
330
17
100
AcDbEntity
  8
FP-Below
100
AcDbLine
 10
-66.00337897729696
 20
10.000087542397523
 30
0.0
 11
-68.00337897702775
 21
10.000087542397523
 31
0.0
  0
LINE
  5
1BA
330
17
100
AcDbEntity
  8
FP-Below
100
AcDbLine
 10
-67.49866352188474
 20
299.0000281599014
 30
0.0
 11
-67.49866352188474
 21
311.0000281599014
 31
0.0
  0
LINE
  5
1BB
330
17
100
AcDbEntity
  8
FP-Below
100
AcDbLine
 10
-67.49866352187746
 20
529.0000281599087
 30
0.0
 11
-67.49866352188474
 21
517.0000281599087
 31
0.0
  0
LINE
  5
1BC
330
17
100
AcDbEntity
  8
FP-Below
100
AcDbLine
 10
-67.49866352187746
 20
619.0833614932371
 30
0.0
 11
-67.49866352188474
 21
607.0833614932371
 31
0.0
  0
LINE
  5
1BD
330
17
100
AcDbEntity
  8
FP-Below
100
AcDbLine
 10
-66.00337897729696
 20
16.000087542397523
 30
0.0
 11
-66.00337897729696
 21
10.000087542397523
 31
0.0
  0
LINE
  5
1BE
330
17
100
AcDbEntity
  8
FP-Below
100
AcDbLine
 10
-66.00337897729696
 20
16.000087542397523
 30
0.0
 11
-58.0033789771951
 21
16.000087542397523
 31
0.0
  0
LWPOLYLINE
  5
1BF
330
17
100
AcDbEntity
  8
FP-Above
100
AcDbPolyline
 90
4
 70
1
 38
-0.3403031765569822
 10
-65.99875895489458
 20
281.00500750515585
 10
66.0022834443007
 20
281.0008669194567
 10
66.00228343353592
 20
149.00551257394
 10
-65.99945889014998
 20
149.00551257394
  0
LWPOLYLINE
  5
1C0
330
17
100
AcDbEntity
  8
FP-Below
100
AcDbPolyline
 90
2
 70
0
 10
-60.00044549285303
 20
120.00002340093215
 10
-60.00044549285303
 20
131.00002340093215
  0
LINE
  5
1C1
330
17
100
AcDbEntity
  8
FP-Below
100
AcDbLine
 10
-58.0033789771951
 20
16.000087542397523
 30
0.0
 11
-58.0033789771951
 21
24.000087542397523
 31
0.0
  0
LINE
  5
1C2
330
17
100
AcDbEntity
  8
FP-Below
100
AcDbLine
 10
-58.0033789771951
 20
24.000087542397523
 30
0.0
 11
-52.0033789771951
 21
24.000087542397523
 31
0.0
  0
LWPOLYLINE
  5
1C3
330
17
100
AcDbEntity
  8
FP-Note
100
AcDbPolyline
 90
4
 70
0
 10
-40.42840716212413
 20
379.56442612159117
 10
-52.428407162115036
 20
379.56441147384976
 10
-52.42838274920905
 20
377.5644114738643
 10
-40.42840716212413
 20
379.56442612159117
  0
LINE
  5
1C4
330
17
100
AcDbEntity
  8
FP-Below
100
AcDbLine
 10
-52.0033789771951
 20
24.000087542397523
 30
0.0
 11
-52.0033789771951
 21
26.000087542128313
 31
0.0
  0
LINE
  5
1C5
330
17
100
AcDbEntity
  8
FP-Below
100
AcDbLine
 10
-52.0033789771951
 20
26.000087542128313
 30
0.0
 11
-50.0033789771951
 21
26.000087542128313
 31
0.0
  0
LINE
  5
1C6
330
17
100
AcDbEntity
  8
FP-Below
100
AcDbLine
 10
-52.0033789771951
 20
51.39737988530396
 30
0.0
 11
-52.0033789771951
 21
49.39737988557317
 31
0.0
  0
LINE
  5
1C7
330
17
100
AcDbEntity
  8
FP-Below
100
AcDbLine
 10
-52.0033789771951
 20
49.39737988557317
 30
0.0
 11
-50.0033789771951
 21
49.39737988557317
 31
0.0
  0
LINE
  5
1C8
330
17
100
AcDbEntity
  8
FP-Below
100
AcDbLine
 10
-50.0033789771951
 20
26.000087542128313
 30
0.0
 11
-50.0033789771951
 21
37.69873371385256
 31
0.0
  0
LINE
  5
1C9
330
17
100
AcDbEntity
  8
FP-Below
100
AcDbLine
 10
-50.0033789771951
 20
49.39737988557317
 30
0.0
 11
-50.0033789771951
 21
37.69873371385256
 31
0.0
  0
LWPOLYLINE
  5
1CA
330
17
100
AcDbEntity
  8
FP-Roof
100
AcDbPolyline
 90
4
 70
0
 10
-46.40067132114564
 20
160.47217622488733
 10
-46.40081617420219
 20
71.00038846938787
 10
46.40081589125839
 20
71.00089622005726
 10
46.41997499028366
 20
160.45229548552652
  0
LWPOLYLINE
  5
1CB
330
17
100
AcDbEntity
  8
FP-Roof
100
AcDbPolyline
 90
2
 70
0
 10
0.009866019017863437
 20
161.46223583226947
 10
-46.40067132114564
 20
160.47217622488733
  0
LWPOLYLINE
  5
1CC
330
17
100
AcDbEntity
  8
FP-Roof Detail
100
AcDbPolyline
 90
2
 70
0
 10
-46.40018178923674
 20
71.00038847285896
 10
-0.0002540105542720994
 20
117.40031625154188
  0
LWPOLYLINE
  5
1CD
330
17
100
AcDbEntity
  8
FP-Note
100
AcDbPolyline
 90
4
 70
0
 10
-20.233290408765242
 20
121.70907419540299
 10
-32.23329040875615
 20
121.70905954766158
 10
-32.23326599585016
 20
119.70905954767613
 10
-20.233290408765242
 20
121.70907419540299
  0
LWPOLYLINE
  5
1CE
330
17
100
AcDbEntity
  8
FP-Note
100
AcDbPolyline
 90
4
 70
0
 10
-10.697772890107444
 20
39.71267049241942
 10
-10.697758242366035
 20
27.712670492428515
 10
9.302241757619413
 20
27.7126949053345
 10
-10.697772890107444
 20
39.71267049241942
  0
LWPOLYLINE
  5
1CF
330
17
100
AcDbEntity
  8
FP-Note
100
AcDbPolyline
 90
4
 70
0
 10
-5.226980166200519
 20
181.4588446360758
 10
-5.22696551845911
 20
169.4588446360849
 10
14.773034481526338
 20
169.4588690489909
 10
-5.226980166200519
 20
181.4588446360758
  0
LWPOLYLINE
  5
1D0
330
17
100
AcDbEntity
  8
FP-Note
100
AcDbPolyline
 90
4
 70
0
 10
-3.398385961754684
 20
890.6603595009856
 10
-3.398371314013275
 20
902.6603595009765
 10
16.601628685972173
 20
902.6603350880705
 10
-3.398385961754684
 20
890.6603595009856
  0
LWPOLYLINE
  5
1D1
330
17
100
AcDbEntity
  8
FP-Roof Detail
100
AcDbPolyline
 90
2
 70
0
 10
46.40018150629294
 20
71.00089621658299
 10
-0.0002540105542720994
 20
117.40031625154097
  0
LWPOLYLINE
  5
1D2
330
17
100
AcDbEntity
  8
FP-Roof Detail
100
AcDbPolyline
 90
2
 70
0
 10
-0.0002540105542720994
 20
117.40031625154188
 10
0.009866019017863437
 20
161.46223583226947
  0
LWPOLYLINE
  5
1D3
330
17
100
AcDbEntity
  8
FP-Roof Detail
100
AcDbPolyline
 90
2
 70
0
 10
-1.1641532182693481e-10
 20
512.4451554662467
 10
-1.1641532182693481e-10
 20
274.47932166321243
  0
LWPOLYLINE
  5
1D4
330
17
100
AcDbEntity
  8
FP-Roof Detail
100
AcDbPolyline
 90
2
 70
0
 10
85.99866352165918
 20
188.48065814143774
 10
-1.1459633242338896e-10
 20
274.47932166321334
  0
LWPOLYLINE
  5
1D5
330
17
100
AcDbEntity
  8
FP-Roof Detail
100
AcDbPolyline
 90
2
 70
0
 10
85.99866352165918
 20
598.4438189880211
 10
-1.1459633242338896e-10
 20
512.4451554662455
  0
LWPOLYLINE
  5
1D6
330
17
100
AcDbEntity
  8
FP-Roof
100
AcDbPolyline
 90
2
 70
0
 10
0.00986568872576754
 20
161.46223583226947
 10
46.42040302888927
 20
160.47217622488733
  0
LWPOLYLINE
  5
1D7
330
17
100
AcDbEntity
  8
FP-Note
100
AcDbPolyline
 90
4
 70
0
 38
-0.3403031765569822
 10
0.22000774033767811
 20
720.1524684919368
 10
0.22002238807908725
 20
732.1524684919277
 10
2.2200223880645353
 20
732.1524440790217
 10
0.22000774033767811
 20
720.1524684919368
  0
LWPOLYLINE
  5
1D8
330
17
100
AcDbEntity
  8
FP-Note
100
AcDbPolyline
 90
4
 70
0
 10
1.8127876464350265
 20
95.53800955736597
 10
1.8128022941764357
 20
83.53800955737506
 10
3.8128022941618838
 20
83.53803397028105
 10
1.8127876464350265
 20
95.53800955736597
  0
LWPOLYLINE
  5
1D9
330
17
100
AcDbEntity
  8
FP-Note
100
AcDbPolyline
 90
4
 70
0
 10
1.8130416568728833
 20
239.42636852961323
 10
1.8130563046142925
 20
227.42636852962232
 10
3.8130563045997405
 20
227.4263929425283
 10
1.8130416568728833
 20
239.42636852961323
  0
LWPOLYLINE
  5
1DA
330
17
100
AcDbEntity
  8
FP-Note
100
AcDbPolyline
 90
4
 70
0
 10
1.8788323814405885
 20
557.1532930931953
 10
1.8788470291819976
 20
569.1532930931862
 10
3.8788470291674457
 20
569.1532686802802
 10
1.8788323814405885
 20
557.1532930931953
  0
LWPOLYLINE
  5
1DB
330
17
100
AcDbEntity
  8
FP-Note
100
AcDbPolyline
 90
4
 70
0
 10
18.985977185029697
 20
121.23799624541107
 10
30.9859771850206
 20
121.2379815976683
 10
30.985952772114615
 20
119.2379815976833
 10
18.985977185029697
 20
121.23799624541107
  0
LWPOLYLINE
  5
1DC
330
17
100
AcDbEntity
  8
FP-Roof
100
AcDbPolyline
 90
2
 70
0
 10
46.40081589125839
 20
71.00089622005726
 10
117.40120435639801
 20
0.0012846873214584775
  0
LWPOLYLINE
  5
1DD
330
17
100
AcDbEntity
  8
FP-Roof
100
AcDbPolyline
 90
2
 70
0
 10
46.41997499028366
 20
160.45229548552652
 10
117.40071483278916
 20
89.47155564302193
  0
LWPOLYLINE
  5
1DE
330
17
100
AcDbEntity
  8
FP-Note
100
AcDbPolyline
 90
4
 70
0
 10
49.10100950593005
 20
379.89486557698956
 10
61.101009505920956
 20
379.8948509292468
 10
61.10098509301497
 20
377.8948509292618
 10
49.10100950593005
 20
379.89486557698956
  0
LINE
  5
1DF
330
17
100
AcDbEntity
  8
FP-Below
100
AcDbLine
 10
52.00337897697682
 20
26.000087542128313
 30
0.0
 11
50.00337897697682
 21
26.000087542128313
 31
0.0
  0
LINE
  5
1E0
330
17
100
AcDbEntity
  8
FP-Below
100
AcDbLine
 10
50.00337897697682
 20
26.000087542128313
 30
0.0
 11
50.00337897697682
 21
37.69873371385256
 31
0.0
  0
LINE
  5
1E1
330
17
100
AcDbEntity
  8
FP-Below
100
AcDbLine
 10
50.00337897697682
 20
49.39737988557317
 30
0.0
 11
50.00337897697682
 21
37.69873371385256
 31
0.0
  0
LINE
  5
1E2
330
17
100
AcDbEntity
  8
FP-Below
100
AcDbLine
 10
52.00337897697682
 20
49.39737988557317
 30
0.0
 11
50.00337897697682
 21
49.39737988557317
 31
0.0
  0
LINE
  5
1E3
330
17
100
AcDbEntity
  8
FP-Below
100
AcDbLine
 10
58.00337897697682
 20
24.000087542397523
 30
0.0
 11
52.00337897697682
 21
24.000087542397523
 31
0.0
  0
LINE
  5
1E4
330
17
100
AcDbEntity
  8
FP-Below
100
AcDbLine
 10
52.00337897697682
 20
24.000087542397523
 30
0.0
 11
52.00337897697682
 21
26.000087542128313
 31
0.0
  0
LINE
  5
1E5
330
17
100
AcDbEntity
  8
FP-Below
100
AcDbLine
 10
52.00337897697682
 20
51.39737988530396
 30
0.0
 11
52.00337897697682
 21
49.39737988557317
 31
0.0
  0
LINE
  5
1E6
330
17
100
AcDbEntity
  8
FP-Below
100
AcDbLine
 10
70.00337892516109
 20
51.39737988530396
 30
0.0
 11
52.00337897697682
 21
51.39737988530396
 31
0.0
  0
LINE
  5
1E7
330
17
100
AcDbEntity
  8
FP-Below
100
AcDbLine
 10
66.00337897708596
 20
16.000087542397523
 30
0.0
 11
58.00337897697682
 21
16.000087542397523
 31
0.0
  0
LINE
  5
1E8
330
17
100
AcDbEntity
  8
FP-Below
100
AcDbLine
 10
58.00337897697682
 20
16.000087542397523
 30
0.0
 11
58.00337897697682
 21
24.000087542397523
 31
0.0
  0
LWPOLYLINE
  5
1E9
330
17
100
AcDbEntity
  8
FP-Below
100
AcDbPolyline
 90
2
 70
0
 10
59.99866365635171
 20
131.00002340093215
 10
59.99866365635171
 20
120.00002340093215
  0
LINE
  5
1EA
330
17
100
AcDbEntity
  8
FP-Below
100
AcDbLine
 10
59.99866365635171
 20
120.00008115469336
 30
0.0
 11
70.00337892516109
 21
120.00008115469336
 31
0.0
  0
LINE
  5
1EB
330
17
100
AcDbEntity
  8
FP-Below
100
AcDbLine
 10
83.99819945953277
 20
131.00008115472428
 30
0.0
 11
59.99866365635171
 21
131.00008115472428
 31
0.0
  0
LWPOLYLINE
  5
1EC
330
17
100
AcDbEntity
  8
FP-Note
100
AcDbPolyline
 90
4
 70
0
 10
62.983274687137964
 20
97.13218830019878
 10
74.98327468712887
 20
97.13217365246192
 10
74.9832502742338
 20
77.13217365247692
 10
62.983274687137964
 20
97.13218830019878
  0
LINE
  5
1ED
330
17
100
AcDbEntity
  8
FP-Below
100
AcDbLine
 10
66.00337897708596
 20
16.000087542397523
 30
0.0
 11
66.00337897708596
 21
10.000087542397523
 31
0.0
  0
LINE
  5
1EE
330
17
100
AcDbEntity
  8
FP-Below
100
AcDbLine
 10
66.00337897708596
 20
10.000087542397523
 30
0.0
 11
68.00337897681675
 21
10.000087542397523
 31
0.0
  0
LINE
  5
1EF
330
17
100
AcDbEntity
  8
FP-Below
100
AcDbLine
 10
67.50089097167438
 20
131.00008115472428
 30
0.0
 11
67.50089098537501
 21
131.00008115472428
 31
0.0
  0
LINE
  5
1F0
330
17
100
AcDbEntity
  8
FP-Below
100
AcDbLine
 10
84.00228356795924
 20
299.0000281599014
 30
0.0
 11
67.50089098537501
 21
299.0000281599014
 31
0.0
  0
LINE
  5
1F1
330
17
100
AcDbEntity
  8
FP-Below
100
AcDbLine
 10
67.50089098537501
 20
299.0000281599014
 30
0.0
 11
67.50089098538228
 21
311.000028159905
 31
0.0
  0
LINE
  5
1F2
330
17
100
AcDbEntity
  8
FP-Below
100
AcDbLine
 10
67.50089098537501
 20
529.0000281599087
 30
0.0
 11
67.50089098538228
 21
517.0000281599087
 31
0.0
  0
LINE
  5
1F3
330
17
100
AcDbEntity
  8
FP-Below
100
AcDbLine
 10
67.50089098537501
 20
529.0000281599014
 30
0.0
 11
114.00111373174514
 21
529.0000281599014
 31
0.0
  0
LINE
  5
1F4
330
17
100
AcDbEntity
  8
FP-Below
100
AcDbLine
 10
67.50089098537501
 20
619.0833614932371
 30
0.0
 11
67.50089098538228
 21
607.0833614932371
 31
0.0
  0
LINE
  5
1F5
330
17
100
AcDbEntity
  8
FP-Below
100
AcDbLine
 10
67.50089098537501
 20
619.0833614932335
 30
0.0
 11
167.50044549263475
 21
619.0833614932335
 31
0.0
  0
LINE
  5
1F6
330
17
100
AcDbEntity
  8
FP-Below
100
AcDbLine
 10
84.00259975592417
 20
311.0000281913444
 30
0.0
 11
67.50089098538228
 21
311.000028159905
 31
0.0
  0
LINE
  5
1F7
330
17
100
AcDbEntity
  8
FP-Below
100
AcDbLine
 10
83.9996699233343
 20
517.000028159905
 30
0.0
 11
67.50089098538228
 21
517.000028159905
 31
0.0
  0
LINE
  5
1F8
330
17
100
AcDbEntity
  8
FP-Below
100
AcDbLine
 10
67.50089098538228
 20
607.0833614932371
 30
0.0
 11
114.00111373174514
 21
607.0833614932371
 31
0.0
  0
LINE
  5
1F9
330
17
100
AcDbEntity
  8
FP-Below
100
AcDbLine
 10
68.00337897681675
 20
10.000087542397523
 30
0.0
 11
68.00337897681675
 21
8.000087542397523
 31
0.0
  0
LINE
  5
1FA
330
17
100
AcDbEntity
  8
FP-Below
100
AcDbLine
 10
68.00337897681675
 20
8.000087542397523
 30
0.0
 11
79.702025148541
 21
8.000087542397523
 31
0.0
  0
LINE
  5
1FB
330
17
100
AcDbEntity
  8
FP-Below
100
AcDbLine
 10
70.00337892516109
 20
51.387899707015094
 30
0.0
 11
70.00337892516109
 21
120.00008115469336
 31
0.0
  0
LINE
  5
1FC
330
17
100
AcDbEntity
  8
FP-Below
100
AcDbLine
 10
91.40067132025797
 20
8.000087542397523
 30
0.0
 11
79.702025148541
 21
8.000087542397523
 31
0.0
  0
LINE
  5
1FD
330
17
100
AcDbEntity
  8
FP-Below
100
AcDbLine
 10
84.00228356795924
 20
299.0000281599014
 30
0.0
 11
83.99819945953277
 21
131.00008115472428
 31
0.0
  0
LINE
  5
1FE
330
17
100
AcDbEntity
  8
FP-Below
100
AcDbLine
 10
83.9996699233343
 20
502.0000329188724
 30
0.0
 11
83.9996699233343
 21
517.0000281599087
 31
0.0
  0
LINE
  5
1FF
330
17
100
AcDbEntity
  8
FP-Below
100
AcDbLine
 10
83.9996699233343
 20
502.0000329188724
 30
0.0
 11
107.9996699233343
 21
502.0000329188724
 31
0.0
  0
LINE
  5
200
330
17
100
AcDbEntity
  8
FP-Below
100
AcDbLine
 10
84.00296864176562
 20
326.00002340093397
 30
0.0
 11
84.00259975592417
 21
311.0000281913444
 31
0.0
  0
LINE
  5
201
330
17
100
AcDbEntity
  8
FP-Below
100
AcDbLine
 10
84.00265471767125
 20
326.00002340093397
 30
0.0
 11
107.9996699233343
 21
326.00002340093397
 31
0.0
  0
LWPOLYLINE
  5
202
330
17
100
AcDbEntity
  8
FP-Roof
100
AcDbPolyline
 90
2
 70
0
 10
85.99866352165918
 20
598.4438189880211
 10
100.45577030284585
 20
612.9009257692064
  0
LWPOLYLINE
  5
203
330
17
100
AcDbEntity
  8
FP-Roof
100
AcDbPolyline
 90
2
 70
0
 10
85.99866352189201
 20
188.44381898802112
 10
192.99866352209756
 20
81.42089879723426
  0
LINE
  5
204
330
17
100
AcDbEntity
  8
FP-Below
100
AcDbLine
 10
90.49819983528141
 20
235.5000811546961
 30
0.0
 11
90.49819885638499
 21
108.42432611548247
 31
0.0
  0
LINE
  5
205
330
17
100
AcDbEntity
  8
FP-Below
100
AcDbLine
 10
90.49819885638499
 20
108.42432611548247
 30
0.0
 11
110.99866352169556
 21
108.42432611548247
 31
0.0
  0
LINE
  5
206
330
17
100
AcDbEntity
  8
FP-Below
100
AcDbLine
 10
90.49819983528141
 20
235.5000811546961
 30
0.0
 11
165.99796967009752
 21
235.500081154697
 31
0.0
  0
LINE
  5
207
330
17
100
AcDbEntity
  8
FP-Below
100
AcDbLine
 10
90.49819988534
 20
241.99952455888524
 30
0.0
 11
241.99618769909284
 21
241.9898188909183
 31
0.0
  0
LINE
  5
208
330
17
100
AcDbEntity
  8
FP-Below
100
AcDbLine
 10
90.49820048234687
 20
319.5000234096533
 30
0.0
 11
90.49819988534364
 21
241.99952455888524
 31
0.0
  0
LINE
  5
209
330
17
100
AcDbEntity
  8
FP-Below
100
AcDbLine
 10
90.49820048234687
 20
319.5000234009349
 30
0.0
 11
241.99688155066906
 21
319.50002340093397
 31
0.0
  0
LINE
  5
20A
330
17
100
AcDbEntity
  8
FP-Below
100
AcDbLine
 10
91.40067132025797
 20
10.000087542397523
 30
0.0
 11
91.40067132025797
 21
8.000087542397523
 31
0.0
  0
LINE
  5
20B
330
17
100
AcDbEntity
  8
FP-Below
100
AcDbLine
 10
93.40067131998876
 20
10.000087542397523
 30
0.0
 11
91.40067132025797
 21
10.000087542397523
 31
0.0
  0
LINE
  5
20C
330
17
100
AcDbEntity
  8
FP-Below
100
AcDbLine
 10
93.40067131998876
 20
16.000087542397523
 30
0.0
 11
93.40067131998876
 21
10.000087542397523
 31
0.0
  0
LINE
  5
20D
330
17
100
AcDbEntity
  8
FP-Below
100
AcDbLine
 10
101.40111682103088
 20
16.000087542397523
 30
0.0
 11
93.40067131998876
 21
16.000087542397523
 31
0.0
  0
LWPOLYLINE
  5
20E
330
17
100
AcDbEntity
  8
FP-Roof
100
AcDbPolyline
 90
2
 70
0
 10
99.74866352167737
 20
565.8289065652327
 10
99.74866352171921
 20
492.7499985785837
  0
LWPOLYLINE
  5
20F
330
17
100
AcDbEntity
  8
FP-Roof Detail
100
AcDbPolyline
 90
2
 70
0
 10
307.5017995872786
 20
773.5820426308321
 10
99.74866352167737
 20
565.8289065652325
  0
LWPOLYLINE
  5
210
330
17
100
AcDbEntity
  8
FP-Roof Detail
100
AcDbPolyline
 90
2
 70
0
 10
367.7485809456066
 20
224.7500811546961
 10
99.74866352171921
 20
492.7499985785835
  0
LWPOLYLINE
  5
211
330
17
100
AcDbEntity
  8
FP-Roof
100
AcDbPolyline
 90
2
 70
0
 10
99.74866352171921
 20
492.7499985785835
 10
102.99866352189201
 20
224.7500811546961
  0
LINE
  5
212
330
17
100
AcDbEntity
  8
FP-Below
100
AcDbLine
 10
101.40067132011973
 20
97.42432611568256
 30
0.0
 11
101.40111682103088
 21
16.000087542397523
 31
0.0
  0
LINE
  5
213
330
17
100
AcDbEntity
  8
FP-Below
100
AcDbLine
 10
110.99866352169556
 20
97.42432611548247
 30
0.0
 11
101.40067132011973
 21
97.42432611548247
 31
0.0
  0
LINE
  5
214
330
17
100
AcDbEntity
  8
FP-Below
100
AcDbLine
 10
109.49866351878518
 20
97.42432611574077
 30
0.0
 11
101.40067132011973
 21
97.42432611568256
 31
0.0
  0
LWPOLYLINE
  5
215
330
17
100
AcDbEntity
  8
FP-Roof
100
AcDbPolyline
 90
2
 70
0
 10
102.99866352189201
 20
224.7500811546961
 10
192.998663521892
 20
134.7500811546961
  0
LINE
  5
216
330
17
100
AcDbEntity
  8
FP-Below
100
AcDbLine
 10
107.9996699233343
 20
502.0000329188724
 30
0.0
 11
107.9996699233343
 21
326.00002340093397
 31
0.0
  0
LINE
  5
217
330
17
100
AcDbEntity
  8
FP-Below
100
AcDbLine
 10
108.00089098537865
 20
907.0833614926842
 30
0.0
 11
167.50044549263475
 21
907.0833614926842
 31
0.0
  0
LINE
  5
218
330
17
100
AcDbEntity
  8
FP-Below
100
AcDbLine
 10
108.00089098537865
 20
918.0833614926842
 30
0.0
 11
108.00089098537865
 21
907.0833614926842
 31
0.0
  0
LINE
  5
219
330
17
100
AcDbEntity
  8
FP-Below
100
AcDbLine
 10
108.00089098537865
 20
918.0833614926842
 30
0.0
 11
163.00044549263475
 21
918.0833614926842
 31
0.0
  0
LINE
  5
21A
330
17
100
AcDbEntity
  8
FP-Below
100
AcDbLine
 10
110.99866352169556
 20
108.42432611548247
 30
0.0
 11
110.99866352169556
 21
97.42432611548247
 31
0.0
  0
LINE
  5
21B
330
17
100
AcDbEntity
  8
FP-Below
100
AcDbLine
 10
114.00111373174514
 20
529.0000281599014
 30
0.0
 11
114.00111373174514
 21
537.0000281599014
 31
0.0
  0
LINE
  5
21C
330
17
100
AcDbEntity
  8
FP-Below
100
AcDbLine
 10
114.00111373174514
 20
537.0000281599014
 30
0.0
 11
122.00111373174514
 21
537.0000281599014
 31
0.0
  0
LINE
  5
21D
330
17
100
AcDbEntity
  8
FP-Below
100
AcDbLine
 10
114.00111373174514
 20
599.0833614932371
 30
0.0
 11
122.00111373174514
 21
599.0833614932371
 31
0.0
  0
LINE
  5
21E
330
17
100
AcDbEntity
  8
FP-Below
100
AcDbLine
 10
114.00111373174514
 20
599.0833614932371
 30
0.0
 11
114.00111373174514
 21
607.0833614932371
 31
0.0
  0
LINE
  5
21F
330
17
100
AcDbEntity
  8
FP-Below
100
AcDbLine
 10
129.99736227621543
 20
348.0000257804122
 30
0.0
 11
114.49966991839392
 21
348.0000257819802
 31
0.0
  0
LINE
  5
220
330
17
100
AcDbEntity
  8
FP-Below
100
AcDbLine
 10
129.99736227621543
 20
428.00002578042677
 30
0.0
 11
114.4996699184012
 21
428.0000257788588
 31
0.0
  0
LINE
  5
221
330
17
100
AcDbEntity
  8
FP-Below
100
AcDbLine
 10
118.4996699203366
 20
407.00002577955365
 30
0.0
 11
114.4996699203366
 21
407.0000257793208
 31
0.0
  0
LINE
  5
222
330
17
100
AcDbEntity
  8
FP-Below
100
AcDbLine
 10
116.49966992094778
 20
381.0000257814381
 30
0.0
 11
114.49966992126065
 21
381.00002578151816
 31
0.0
  0
LINE
  5
223
330
17
100
AcDbEntity
  8
FP-Below
100
AcDbLine
 10
114.49966992540067
 20
381.00002578151816
 30
0.0
 11
114.49966992126792
 21
395.0000257793208
 31
0.0
  0
LINE
  5
224
330
17
100
AcDbEntity
  8
FP-Below
100
AcDbLine
 10
116.49966992095506
 20
395.0000257793972
 30
0.0
 11
114.49966992126792
 21
395.0000257793208
 31
0.0
  0
LINE
  5
225
330
17
100
AcDbEntity
  8
FP-Below
100
AcDbLine
 10
114.4996699233343
 20
369.00002578151816
 30
0.0
 11
114.4996699233343
 21
348.0000257819802
 31
0.0
  0
LINE
  5
226
330
17
100
AcDbEntity
  8
FP-Below
100
AcDbLine
 10
114.4996699233343
 20
395.0000257793208
 30
0.0
 11
114.4996699233343
 21
381.00002578151816
 31
0.0
  0
LINE
  5
227
330
17
100
AcDbEntity
  8
FP-Below
100
AcDbLine
 10
114.4996699233343
 20
428.0000257788588
 30
0.0
 11
114.4996699233343
 21
407.0000257793208
 31
0.0
  0
LINE
  5
228
330
17
100
AcDbEntity
  8
FP-Below
100
AcDbLine
 10
118.49966992032932
 20
369.00002578128533
 30
0.0
 11
114.49966992633199
 21
369.00002578151816
 31
0.0
  0
LINE
  5
229
330
17
100
AcDbEntity
  8
FP-Below
100
AcDbLine
 10
118.49966992094778
 20
377.00002578128533
 30
0.0
 11
116.49966992094778
 21
377.0000257814381
 31
0.0
  0
LINE
  5
22A
330
17
100
AcDbEntity
  8
FP-Below
100
AcDbLine
 10
116.49966992094778
 20
377.0000257814381
 30
0.0
 11
116.49966992094778
 21
381.0000257814381
 31
0.0
  0
LINE
  5
22B
330
17
100
AcDbEntity
  8
FP-Below
100
AcDbLine
 10
116.49966992095506
 20
399.0000257793972
 30
0.0
 11
116.49966992095506
 21
395.0000257793972
 31
0.0
  0
LINE
  5
22C
330
17
100
AcDbEntity
  8
FP-Below
100
AcDbLine
 10
118.49966992095506
 20
399.00002577955365
 30
0.0
 11
116.49966992095506
 21
399.0000257793972
 31
0.0
  0
LWPOLYLINE
  5
22D
330
17
100
AcDbEntity
  8
FP-Roof
100
AcDbPolyline
 90
3
 70
0
 10
117.40075879219876
 20
81.4370906931099
 10
192.99866352209756
 20
81.42089879723426
 10
192.9986635219957
 20
134.7500811545924
  0
LINE
  5
22E
330
17
100
AcDbEntity
  8
FP-Below
100
AcDbLine
 10
118.49966992094778
 20
377.00002578128533
 30
0.0
 11
118.49966992032932
 21
369.00002578128533
 31
0.0
  0
LINE
  5
22F
330
17
100
AcDbEntity
  8
FP-Below
100
AcDbLine
 10
118.49966992095506
 20
399.00002577955365
 30
0.0
 11
118.4996699203366
 21
407.00002577955365
 31
0.0
  0
LINE
  5
230
330
17
100
AcDbEntity
  8
FP-Below
100
AcDbLine
 10
121.99758502257828
 20
529.000028159905
 30
0.0
 11
138.6227605060667
 21
529.000028159905
 31
0.0
  0
LINE
  5
231
330
17
100
AcDbEntity
  8
FP-Below
100
AcDbLine
 10
122.00111373174514
 20
529.0000281599014
 30
0.0
 11
122.00111373174514
 21
537.0000281599014
 31
0.0
  0
LINE
  5
232
330
17
100
AcDbEntity
  8
FP-Below
100
AcDbLine
 10
122.00111373174514
 20
599.0833614932371
 30
0.0
 11
122.00111373174514
 21
607.0833614932371
 31
0.0
  0
LINE
  5
233
330
17
100
AcDbEntity
  8
FP-Below
100
AcDbLine
 10
122.00111373174514
 20
607.0833614932371
 30
0.0
 11
260.50178197087007
 21
607.0833614932371
 31
0.0
  0
LINE
  5
234
330
17
100
AcDbEntity
  8
FP-Below
100
AcDbLine
 10
191.9969167834679
 20
456.500028159905
 30
0.0
 11
125.9969167834679
 21
456.500028159905
 31
0.0
  0
LINE
  5
235
330
17
100
AcDbEntity
  8
FP-Below
100
AcDbLine
 10
125.9969167834679
 20
456.500028159905
 30
0.0
 11
125.9969167834679
 21
522.500028159905
 31
0.0
  0
LINE
  5
236
330
17
100
AcDbEntity
  8
FP-Below
100
AcDbLine
 10
125.9969167834679
 20
522.500028159905
 30
0.0
 11
138.6227605060667
 21
522.500028159905
 31
0.0
  0
LINE
  5
237
330
17
100
AcDbEntity
  8
FP-Below
100
AcDbLine
 10
129.99736227621543
 20
352.0000257804122
 30
0.0
 11
127.99736227621543
 21
352.0000257804122
 31
0.0
  0
LINE
  5
238
330
17
100
AcDbEntity
  8
FP-Below
100
AcDbLine
 10
127.99736227621543
 20
352.0000257804122
 30
0.0
 11
127.99736227621543
 21
362.5000257804122
 31
0.0
  0
LINE
  5
239
330
17
100
AcDbEntity
  8
FP-Below
100
AcDbLine
 10
127.99736227621543
 20
362.5000257804122
 30
0.0
 11
138.49736227621543
 21
362.5000257804122
 31
0.0
  0
LINE
  5
23A
330
17
100
AcDbEntity
  8
FP-Below
100
AcDbLine
 10
127.99736227621543
 20
424.00002578042677
 30
0.0
 11
127.99736227621543
 21
413.50002578042677
 31
0.0
  0
LINE
  5
23B
330
17
100
AcDbEntity
  8
FP-Below
100
AcDbLine
 10
127.99736227621543
 20
413.50002578042677
 30
0.0
 11
138.49736227621543
 21
413.50002578042677
 31
0.0
  0
LINE
  5
23C
330
17
100
AcDbEntity
  8
FP-Below
100
AcDbLine
 10
129.99736227621543
 20
424.00002578042677
 30
0.0
 11
127.99736227621543
 21
424.00002578042677
 31
0.0
  0
LWPOLYLINE
  5
23D
330
17
100
AcDbEntity
  8
FP-Note
100
AcDbPolyline
 90
4
 70
0
 10
129.9543098041886
 20
173.27251296192526
 10
141.9543098041795
 20
173.2724983141884
 10
141.95428539128443
 20
153.2724983142034
 10
129.9543098041886
 20
173.27251296192526
  0
LINE
  5
23E
330
17
100
AcDbEntity
  8
FP-Below
100
AcDbLine
 10
129.99736227621543
 20
352.0000257804122
 30
0.0
 11
129.99736227621543
 21
348.0000257804122
 31
0.0
  0
LINE
  5
23F
330
17
100
AcDbEntity
  8
FP-Below
100
AcDbLine
 10
129.99736227621543
 20
424.00002578042677
 30
0.0
 11
129.99736227621543
 21
428.00002578042677
 31
0.0
  0
LINE
  5
240
330
17
100
AcDbEntity
  8
FP-Below
100
AcDbLine
 10
138.49736227621543
 20
344.0000257804122
 30
0.0
 11
136.49736227621543
 21
344.0000257804122
 31
0.0
  0
LINE
  5
241
330
17
100
AcDbEntity
  8
FP-Below
100
AcDbLine
 10
136.49736227621543
 20
344.0000257804122
 30
0.0
 11
136.49736227621543
 21
352.0000257804122
 31
0.0
  0
LINE
  5
242
330
17
100
AcDbEntity
  8
FP-Below
100
AcDbLine
 10
138.49736227621543
 20
352.0000257804122
 30
0.0
 11
136.49736227621543
 21
352.0000257804122
 31
0.0
  0
LINE
  5
243
330
17
100
AcDbEntity
  8
FP-Below
100
AcDbLine
 10
136.49736227621543
 20
432.00002578042677
 30
0.0
 11
136.49736227621543
 21
424.00002578042677
 31
0.0
  0
LINE
  5
244
330
17
100
AcDbEntity
  8
FP-Below
100
AcDbLine
 10
138.49736227621543
 20
424.00002578042677
 30
0.0
 11
136.49736227621543
 21
424.00002578042677
 31
0.0
  0
LINE
  5
245
330
17
100
AcDbEntity
  8
FP-Below
100
AcDbLine
 10
138.49736227621543
 20
432.00002578042677
 30
0.0
 11
136.49736227621543
 21
432.00002578042677
 31
0.0
  0
LINE
  5
246
330
17
100
AcDbEntity
  8
FP-Below
100
AcDbLine
 10
138.49736227621543
 20
336.0000257804122
 30
0.0
 11
140.49736227621543
 21
336.0000257804122
 31
0.0
  0
LINE
  5
247
330
17
100
AcDbEntity
  8
FP-Below
100
AcDbLine
 10
138.49736227621543
 20
336.0000257804122
 30
0.0
 11
138.49736227621543
 21
344.0000257804122
 31
0.0
  0
LINE
  5
248
330
17
100
AcDbEntity
  8
FP-Below
100
AcDbLine
 10
138.49736227621543
 20
362.5000257804122
 30
0.0
 11
138.49736227621543
 21
352.0000257804122
 31
0.0
  0
LINE
  5
249
330
17
100
AcDbEntity
  8
FP-Below
100
AcDbLine
 10
138.49736227621543
 20
413.50002578042677
 30
0.0
 11
138.49736227621543
 21
424.00002578042677
 31
0.0
  0
LINE
  5
24A
330
17
100
AcDbEntity
  8
FP-Below
100
AcDbLine
 10
138.49736227621543
 20
440.00002578042677
 30
0.0
 11
138.49736227621543
 21
432.00002578042677
 31
0.0
  0
LINE
  5
24B
330
17
100
AcDbEntity
  8
FP-Below
100
AcDbLine
 10
138.49736227621543
 20
440.00002578042677
 30
0.0
 11
140.49736227621543
 21
440.00002578042313
 31
0.0
  0
LINE
  5
24C
330
17
100
AcDbEntity
  8
FP-Below
100
AcDbLine
 10
138.6227605060667
 20
529.000028159905
 30
0.0
 11
138.6227605060667
 21
522.500028159905
 31
0.0
  0
LINE
  5
24D
330
17
100
AcDbEntity
  8
FP-Below
100
AcDbLine
 10
146.49736227620815
 20
326.00002340093397
 30
0.0
 11
264.99736227620815
 21
326.00002340093397
 31
0.0
  0
LINE
  5
24E
330
17
100
AcDbEntity
  8
FP-Below
100
AcDbLine
 10
146.49736227620815
 20
326.00002340093397
 30
0.0
 11
146.49736227620815
 21
330.0000257804195
 31
0.0
  0
LINE
  5
24F
330
17
100
AcDbEntity
  8
FP-Below
100
AcDbLine
 10
146.49736227620815
 20
450.000028159905
 30
0.0
 11
146.49736227620815
 21
446.0000257804195
 31
0.0
  0
LINE
  5
250
330
17
100
AcDbEntity
  8
FP-Below
100
AcDbLine
 10
264.99736227620815
 20
450.000028159905
 30
0.0
 11
146.49736227620815
 21
450.000028159905
 31
0.0
  0
LINE
  5
251
330
17
100
AcDbEntity
  8
FP-Below
100
AcDbLine
 10
176.99866352197932
 20
97.42432611548247
 30
0.0
 11
146.99866352169556
 21
97.42432611548247
 31
0.0
  0
LINE
  5
252
330
17
100
AcDbEntity
  8
FP-Below
100
AcDbLine
 10
146.99866352169556
 20
97.42432611548247
 30
0.0
 11
146.99866352169556
 21
108.42432611548247
 31
0.0
  0
LINE
  5
253
330
17
100
AcDbEntity
  8
FP-Below
100
AcDbLine
 10
146.99866352169556
 20
108.42432611548247
 30
0.0
 11
165.99513461465904
 21
108.42432611548247
 31
0.0
  0
LWPOLYLINE
  5
254
330
17
100
AcDbEntity
  8
FP-Roof
100
AcDbPolyline
 90
2
 70
0
 10
247.2504807254263
 20
833.8333614470275
 10
147.0004807254263
 20
934.0833614470275
  0
LWPOLYLINE
  5
255
330
17
100
AcDbEntity
  8
FP-Roof
100
AcDbPolyline
 90
2
 70
0
 10
247.2504807254263
 20
872.5833614464691
 10
147.0004807254263
 20
972.8333602340622
  0
LWPOLYLINE
  5
256
330
17
100
AcDbEntity
  8
FP-Note
100
AcDbPolyline
 90
4
 70
0
 10
155.39339068123445
 20
335.3877190862372
 10
155.39340532897586
 20
323.3877190862463
 10
157.3934053289613
 20
323.3877434991523
 10
155.39339068123445
 20
335.3877190862372
  0
LINE
  5
257
330
17
100
AcDbEntity
  8
FP-Below
100
AcDbLine
 10
163.0004807254263
 20
956.8333614921257
 30
0.0
 11
163.00044549263475
 21
918.0833614926842
 31
0.0
  0
LINE
  5
258
330
17
100
AcDbEntity
  8
FP-Below
100
AcDbLine
 10
210.256661648742
 20
956.8333614921257
 30
0.0
 11
163.0004807254263
 21
956.8333614921257
 31
0.0
  0
LINE
  5
259
330
17
100
AcDbEntity
  8
FP-Below
100
AcDbLine
 10
165.99513461465904
 20
108.42432611548247
 30
0.0
 11
165.99615298761273
 21
157.500081154697
 31
0.0
  0
LINE
  5
25A
330
17
100
AcDbEntity
  8
FP-Below
100
AcDbLine
 10
173.49508096382124
 20
157.500081154697
 30
0.0
 11
165.99513481249232
 21
157.500081154697
 31
0.0
  0
LINE
  5
25B
330
17
100
AcDbEntity
  8
FP-Below
100
AcDbLine
 10
173.9969592735688
 20
157.5000811546961
 30
0.0
 11
165.99688155076728
 21
157.5000811546961
 31
0.0
  0
LINE
  5
25C
330
17
100
AcDbEntity
  8
FP-Below
100
AcDbLine
 10
165.99688155076728
 20
187.5000811546961
 30
0.0
 11
165.99688155076728
 21
235.5000811546961
 31
0.0
  0
LINE
  5
25D
330
17
100
AcDbEntity
  8
FP-Below
100
AcDbLine
 10
173.9973478876127
 20
187.5000811546979
 30
0.0
 11
165.99688155077092
 21
187.500081154697
 31
0.0
  0
LINE
  5
25E
330
17
100
AcDbEntity
  8
FP-Below
100
AcDbLine
 10
167.50044549263475
 20
907.0833614926842
 30
0.0
 11
167.50044549263475
 21
619.0833614932335
 31
0.0
  0
LINE
  5
25F
330
17
100
AcDbEntity
  8
FP-Below
100
AcDbLine
 10
173.9968437804946
 20
151.5000811546979
 30
0.0
 11
173.99699704382692
 21
157.5000811546979
 31
0.0
  0
LINE
  5
260
330
17
100
AcDbEntity
  8
FP-Below
100
AcDbLine
 10
192.79436632768557
 20
151.500081154697
 30
0.0
 11
173.99684379276005
 21
151.50056131652127
 31
0.0
  0
LINE
  5
261
330
17
100
AcDbEntity
  8
FP-Below
100
AcDbLine
 10
173.99688155075637
 20
151.5000811546979
 30
0.0
 11
173.99695927356515
 21
157.500081154697
 31
0.0
  0
LINE
  5
262
330
17
100
AcDbEntity
  8
FP-Below
100
AcDbLine
 10
173.9973478876127
 20
187.5000811546979
 30
0.0
 11
173.99796967008297
 21
235.500081154697
 31
0.0
  0
LINE
  5
263
330
17
100
AcDbEntity
  8
FP-Below
100
AcDbLine
 10
173.99796967008297
 20
235.500081154697
 30
0.0
 11
241.99618769909284
 21
235.500081154697
 31
0.0
  0
LINE
  5
264
330
17
100
AcDbEntity
  8
FP-Below
100
AcDbLine
 10
174.00044549263475
 20
745.8333250067753
 30
0.0
 11
174.00044549263475
 21
613.5833614932371
 31
0.0
  0
LINE
  5
265
330
17
100
AcDbEntity
  8
FP-Below
100
AcDbLine
 10
174.00044549263475
 20
613.5833614932371
 30
0.0
 11
356.50386684763725
 21
613.5833614932371
 31
0.0
  0
LINE
  5
266
330
17
100
AcDbEntity
  8
FP-Below
100
AcDbLine
 10
252.0004452080757
 20
745.8333250067753
 30
0.0
 11
174.00044549263475
 21
745.8333250067753
 31
0.0
  0
LINE
  5
267
330
17
100
AcDbEntity
  8
FP-Below
100
AcDbLine
 10
174.00044549263475
 20
753.8333614921276
 30
0.0
 11
252.0004452080757
 21
753.8332794068065
 31
0.0
  0
LINE
  5
268
330
17
100
AcDbEntity
  8
FP-Below
100
AcDbLine
 10
174.00044549263475
 20
945.8333614921257
 30
0.0
 11
174.00044549263475
 21
753.8333614921276
 31
0.0
  0
LINE
  5
269
330
17
100
AcDbEntity
  8
FP-Below
100
AcDbLine
 10
174.00044549263475
 20
945.8333614921257
 30
0.0
 11
210.25666164873473
 21
945.8333614921257
 31
0.0
  0
LINE
  5
26A
330
17
100
AcDbEntity
  8
FP-Below
100
AcDbLine
 10
174.62276050605942
 20
522.500028159905
 30
0.0
 11
191.9969167834679
 21
522.500028159905
 31
0.0
  0
LINE
  5
26B
330
17
100
AcDbEntity
  8
FP-Below
100
AcDbLine
 10
174.62276050605942
 20
529.000028159905
 30
0.0
 11
174.62276050605942
 21
522.500028159905
 31
0.0
  0
LINE
  5
26C
330
17
100
AcDbEntity
  8
FP-Below
100
AcDbLine
 10
174.62276050605942
 20
529.000028159905
 30
0.0
 11
198.4969167834679
 21
529.000028159905
 31
0.0
  0
LINE
  5
26D
330
17
100
AcDbEntity
  8
FP-Below
100
AcDbLine
 10
176.99866352197932
 20
97.42432611548247
 30
0.0
 11
176.99866352165918
 21
140.500081154697
 31
0.0
  0
LINE
  5
26E
330
17
100
AcDbEntity
  8
FP-Below
100
AcDbLine
 10
176.99866352165918
 20
140.500081154697
 30
0.0
 11
192.79436632768557
 21
140.500081154697
 31
0.0
  0
LWPOLYLINE
  5
26F
330
17
100
AcDbEntity
  8
FP-Roof
100
AcDbPolyline
 90
3
 70
0
 10
467.9985809456066
 20
751.8179389961881
 10
467.9985809456066
 20
972.8333614921257
 10
177.49615012717186
 20
972.8333614921257
  0
LWPOLYLINE
  5
270
330
17
100
AcDbEntity
  8
FP-Above
100
AcDbPolyline
 90
4
 70
1
 38
-0.3403031765569822
 10
191.94846827625952
 20
927.833924697481
 10
423.00362167894855
 20
927.833924697481
 10
423.00362167894855
 20
771.833924697481
 10
191.94846827625952
 20
771.833924697481
  0
LINE
  5
271
330
17
100
AcDbEntity
  8
FP-Below
100
AcDbLine
 10
191.9969167834679
 20
522.500028159905
 30
0.0
 11
191.9969167834679
 21
456.500028159905
 31
0.0
  0
LINE
  5
272
330
17
100
AcDbEntity
  8
FP-Below
100
AcDbLine
 10
192.79436632768557
 20
151.500081154697
 30
0.0
 11
192.79436632768557
 21
140.500081154697
 31
0.0
  0
LWPOLYLINE
  5
273
330
17
100
AcDbEntity
  8
FP-Roof
100
AcDbPolyline
 90
3
 70
0
 10
192.9986635220157
 20
124.50008115469609
 10
467.9985809456066
 20
124.50008115469609
 10
467.9985809456066
 20
157.84560308403752
  0
LINE
  5
274
330
17
100
AcDbEntity
  8
FP-Below
100
AcDbLine
 10
198.4969167834679
 20
522.500028159905
 30
0.0
 11
198.4969167834679
 21
456.500028159905
 31
0.0
  0
LINE
  5
275
330
17
100
AcDbEntity
  8
FP-Below
100
AcDbLine
 10
198.4969167834679
 20
456.500028159905
 30
0.0
 11
264.99736227620815
 21
456.500028159905
 31
0.0
  0
LINE
  5
276
330
17
100
AcDbEntity
  8
FP-Below
100
AcDbLine
 10
198.4969167834679
 20
522.500028159905
 30
0.0
 11
207.8801352157716
 21
522.5004436535373
 31
0.0
  0
LINE
  5
277
330
17
100
AcDbEntity
  8
FP-Below
100
AcDbLine
 10
198.4969167834679
 20
529.000028159905
 30
0.0
 11
207.8801352157716
 21
529.0004436535373
 31
0.0
  0
LINE
  5
278
330
17
100
AcDbEntity
  8
FP-Below
100
AcDbLine
 10
207.8801352157716
 20
529.0004436535373
 30
0.0
 11
207.8801352157716
 21
522.5004436535373
 31
0.0
  0
LINE
  5
279
330
17
100
AcDbEntity
  8
FP-Below
100
AcDbLine
 10
210.25666164873473
 20
945.8333614921712
 30
0.0
 11
210.256661648742
 21
956.8333614921712
 31
0.0
  0
LINE
  5
27A
330
17
100
AcDbEntity
  8
FP-Below
100
AcDbLine
 10
228.79436632768557
 20
151.500081154697
 30
0.0
 11
228.79436632768557
 21
140.500081154697
 31
0.0
  0
LINE
  5
27B
330
17
100
AcDbEntity
  8
FP-Below
100
AcDbLine
 10
228.79436632768557
 20
140.500081154697
 30
0.0
 11
271.49866352172467
 21
140.5000811546979
 31
0.0
  0
LINE
  5
27C
330
17
100
AcDbEntity
  8
FP-Below
100
AcDbLine
 10
228.79436632768557
 20
151.500081154697
 30
0.0
 11
235.49688155066906
 21
151.500081154697
 31
0.0
  0
LINE
  5
27D
330
17
100
AcDbEntity
  8
FP-Below
100
AcDbLine
 10
241.99672828733674
 20
157.50008115470428
 30
0.0
 11
235.4876857291856
 21
157.50008116342815
 31
0.0
  0
LINE
  5
27E
330
17
100
AcDbEntity
  8
FP-Below
100
AcDbLine
 10
235.49688155066906
 20
151.500081154697
 30
0.0
 11
235.49688155066906
 21
157.50008116341724
 31
0.0
  0
LWPOLYLINE
  5
27F
330
17
100
AcDbEntity
  8
FP-Note
100
AcDbPolyline
 90
4
 70
0
 10
239.53445921816274
 20
500.2682095846508
 10
251.53445921815364
 20
500.268194936908
 10
251.53443480524766
 20
498.268194936923
 10
239.53445921816274
 20
500.2682095846508
  0
LINE
  5
280
330
17
100
AcDbEntity
  8
FP-Below
100
AcDbLine
 10
248.49672828732946
 20
313.50002340093397
 30
0.0
 11
241.98768572917834
 21
313.50002339220646
 31
0.0
  0
LINE
  5
281
330
17
100
AcDbEntity
  8
FP-Below
100
AcDbLine
 10
241.99509957976625
 20
187.50008116340996
 30
0.0
 11
241.99618769909284
 21
235.48985381611874
 31
0.0
  0
LINE
  5
282
330
17
100
AcDbEntity
  8
FP-Below
100
AcDbLine
 10
241.99509957976625
 20
187.50008116340996
 30
0.0
 11
243.99509957976625
 21
187.50008116340996
 31
0.0
  0
LINE
  5
283
330
17
100
AcDbEntity
  8
FP-Below
100
AcDbLine
 10
241.99618769909284
 20
241.9898188909183
 30
0.0
 11
241.99509957976625
 21
283.500023392221
 31
0.0
  0
LINE
  5
284
330
17
100
AcDbEntity
  8
FP-Below
100
AcDbLine
 10
241.99509957976625
 20
283.500023392221
 30
0.0
 11
243.99509957976625
 21
283.500023392221
 31
0.0
  0
LINE
  5
285
330
17
100
AcDbEntity
  8
FP-Below
100
AcDbLine
 10
241.99688155066906
 20
151.500081154697
 30
0.0
 11
271.49866352172467
 21
151.5000811546961
 31
0.0
  0
LINE
  5
286
330
17
100
AcDbEntity
  8
FP-Below
100
AcDbLine
 10
241.99688155066906
 20
151.500081154697
 30
0.0
 11
241.99688155066906
 21
157.50008115470428
 31
0.0
  0
LINE
  5
287
330
17
100
AcDbEntity
  8
FP-Below
100
AcDbLine
 10
241.99688155066906
 20
313.4908275707194
 30
0.0
 11
241.99688155066906
 21
319.50002340093397
 31
0.0
  0
LWPOLYLINE
  5
288
330
17
100
AcDbEntity
  8
FP-Note
100
AcDbPolyline
 90
4
 70
0
 10
242.00773146581378
 20
186.8470496604109
 10
242.00774611355519
 20
174.84704966042
 10
262.00774611354063
 20
174.84707407332598
 10
242.00773146581378
 20
186.8470496604109
  0
LINE
  5
289
330
17
100
AcDbEntity
  8
FP-Below
100
AcDbLine
 10
243.88013519655578
 20
522.500028159905
 30
0.0
 11
264.99736227620815
 21
522.500028159905
 31
0.0
  0
LINE
  5
28A
330
17
100
AcDbEntity
  8
FP-Below
100
AcDbLine
 10
243.88013519655578
 20
529.000028159905
 30
0.0
 11
243.88013519655578
 21
522.500028159905
 31
0.0
  0
LINE
  5
28B
330
17
100
AcDbEntity
  8
FP-Below
100
AcDbLine
 10
243.88013519655578
 20
529.000028159905
 30
0.0
 11
260.50178197087007
 21
529.000028159905
 31
0.0
  0
LINE
  5
28C
330
17
100
AcDbEntity
  8
FP-Below
100
AcDbLine
 10
243.99509957976625
 20
187.50008116340996
 30
0.0
 11
243.99509957976625
 21
215.50008116340996
 31
0.0
  0
LINE
  5
28D
330
17
100
AcDbEntity
  8
FP-Below
100
AcDbLine
 10
243.99509957976625
 20
215.50008116340996
 30
0.0
 11
246.49509957976625
 21
215.50008116340996
 31
0.0
  0
LINE
  5
28E
330
17
100
AcDbEntity
  8
FP-Below
100
AcDbLine
 10
243.99509957976625
 20
283.500023392221
 30
0.0
 11
243.99509957976625
 21
255.500023392221
 31
0.0
  0
LINE
  5
28F
330
17
100
AcDbEntity
  8
FP-Below
100
AcDbLine
 10
243.99509957976625
 20
255.500023392221
 30
0.0
 11
246.49509957976625
 21
255.500023392221
 31
0.0
  0
LINE
  5
290
330
17
100
AcDbEntity
  8
FP-Below
100
AcDbLine
 10
246.49509957976625
 20
187.50008116340996
 30
0.0
 11
248.49509957976625
 21
187.50008116340996
 31
0.0
  0
LINE
  5
291
330
17
100
AcDbEntity
  8
FP-Below
100
AcDbLine
 10
246.49509957976625
 20
215.50008116340996
 30
0.0
 11
246.49509957976625
 21
187.50008116340996
 31
0.0
  0
LINE
  5
292
330
17
100
AcDbEntity
  8
FP-Below
100
AcDbLine
 10
246.49509957976625
 20
255.500023392221
 30
0.0
 11
246.49509957976625
 21
283.500023392221
 31
0.0
  0
LINE
  5
293
330
17
100
AcDbEntity
  8
FP-Below
100
AcDbLine
 10
246.49509957976625
 20
283.500023392221
 30
0.0
 11
248.49509957976625
 21
283.500023392221
 31
0.0
  0
LWPOLYLINE
  5
294
330
17
100
AcDbEntity
  8
FP-Roof Detail
100
AcDbPolyline
 90
2
 70
0
 10
247.2504807254263
 20
833.8333614926851
 10
307.5017995872786
 20
773.5820426308321
  0
LWPOLYLINE
  5
295
330
17
100
AcDbEntity
  8
FP-Roof Detail
100
AcDbPolyline
 90
2
 70
0
 10
247.2504807254263
 20
872.5833614921257
 10
307.5017995872786
 20
812.3320426302728
  0
LINE
  5
296
330
17
100
AcDbEntity
  8
FP-Below
100
AcDbLine
 10
262.49509957976625
 20
205.5000234009376
 30
0.0
 11
248.491071687964
 21
205.5000234009376
 31
0.0
  0
LINE
  5
297
330
17
100
AcDbEntity
  8
FP-Below
100
AcDbLine
 10
262.49509957976625
 20
265.5000234009376
 30
0.0
 11
248.49327832879862
 21
265.5000234009376
 31
0.0
  0
LINE
  5
298
330
17
100
AcDbEntity
  8
FP-Below
100
AcDbLine
 10
248.49509957976625
 20
187.50008116340996
 30
0.0
 11
248.49509957976625
 21
205.5000234009376
 31
0.0
  0
LINE
  5
299
330
17
100
AcDbEntity
  8
FP-Below
100
AcDbLine
 10
248.49509957976625
 20
217.5000234009376
 30
0.0
 11
248.49509957976625
 21
253.5000234009376
 31
0.0
  0
LINE
  5
29A
330
17
100
AcDbEntity
  8
FP-Below
100
AcDbLine
 10
262.49509957976625
 20
217.5000234009376
 30
0.0
 11
248.49509957976625
 21
217.5000234009376
 31
0.0
  0
LINE
  5
29B
330
17
100
AcDbEntity
  8
FP-Below
100
AcDbLine
 10
262.49509957976625
 20
253.5000234009376
 30
0.0
 11
248.49509957976625
 21
253.5000234009376
 31
0.0
  0
LINE
  5
29C
330
17
100
AcDbEntity
  8
FP-Below
100
AcDbLine
 10
248.49509957976625
 20
265.5000234009376
 30
0.0
 11
248.49509957976625
 21
283.50002340093397
 31
0.0
  0
LINE
  5
29D
330
17
100
AcDbEntity
  8
FP-Below
100
AcDbLine
 10
248.49688155066906
 20
313.50002340093397
 30
0.0
 11
248.49688155066906
 21
319.50002340093397
 31
0.0
  0
LINE
  5
29E
330
17
100
AcDbEntity
  8
FP-Below
100
AcDbLine
 10
248.49688155066906
 20
319.50002340093397
 30
0.0
 11
291.4974106412192
 21
319.5000234009349
 31
0.0
  0
LINE
  5
29F
330
17
100
AcDbEntity
  8
FP-Below
100
AcDbLine
 10
371.00386684763725
 20
753.8333817824932
 30
0.0
 11
252.00044549263475
 21
753.8332794068065
 31
0.0
  0
LINE
  5
2A0
330
17
100
AcDbEntity
  8
FP-Below
100
AcDbLine
 10
356.5038668476409
 20
745.834080843415
 30
0.0
 11
252.0004454926384
 21
745.8337239717957
 31
0.0
  0
LINE
  5
2A1
330
17
100
AcDbEntity
  8
FP-Below
100
AcDbLine
 10
260.50178197087007
 20
529.0000281599014
 30
0.0
 11
260.50178197087007
 21
537.0000281599014
 31
0.0
  0
LINE
  5
2A2
330
17
100
AcDbEntity
  8
FP-Below
100
AcDbLine
 10
260.50178197087007
 20
537.0000281599014
 30
0.0
 11
268.50178197087007
 21
537.0000281599014
 31
0.0
  0
LINE
  5
2A3
330
17
100
AcDbEntity
  8
FP-Below
100
AcDbLine
 10
260.50178197087007
 20
599.0833614932371
 30
0.0
 11
268.50178197087007
 21
599.0833614932371
 31
0.0
  0
LINE
  5
2A4
330
17
100
AcDbEntity
  8
FP-Below
100
AcDbLine
 10
260.50178197087007
 20
599.0833614932371
 30
0.0
 11
260.50178197087007
 21
607.0833614932371
 31
0.0
  0
LINE
  5
2A5
330
17
100
AcDbEntity
  8
FP-Below
100
AcDbLine
 10
262.49509957976625
 20
217.5000234009376
 30
0.0
 11
262.49509957976625
 21
205.5000234009376
 31
0.0
  0
LINE
  5
2A6
330
17
100
AcDbEntity
  8
FP-Below
100
AcDbLine
 10
262.49509957976625
 20
253.5000234009376
 30
0.0
 11
262.49509957976625
 21
265.5000234009376
 31
0.0
  0
LINE
  5
2A7
330
17
100
AcDbEntity
  8
FP-Below
100
AcDbLine
 10
264.99736227620815
 20
326.00002340093397
 30
0.0
 11
264.99736227620815
 21
358.0000257804195
 31
0.0
  0
LINE
  5
2A8
330
17
100
AcDbEntity
  8
FP-Below
100
AcDbLine
 10
264.99736227620815
 20
358.0000257804195
 30
0.0
 11
266.99736227620815
 21
358.0000257804195
 31
0.0
  0
LINE
  5
2A9
330
17
100
AcDbEntity
  8
FP-Below
100
AcDbLine
 10
264.99736227620815
 20
450.000028159905
 30
0.0
 11
264.99736227620815
 21
418.0000257804195
 31
0.0
  0
LINE
  5
2AA
330
17
100
AcDbEntity
  8
FP-Below
100
AcDbLine
 10
264.99736227620815
 20
418.0000257804195
 30
0.0
 11
266.99736227620815
 21
418.0000257804195
 31
0.0
  0
LINE
  5
2AB
330
17
100
AcDbEntity
  8
FP-Below
100
AcDbLine
 10
264.99736227620815
 20
522.500028159905
 30
0.0
 11
264.99736227620815
 21
456.500028159905
 31
0.0
  0
LWPOLYLINE
  5
2AC
330
17
100
AcDbEntity
  8
FP-Above
100
AcDbPolyline
 90
4
 70
1
 38
-0.3403031765569822
 10
422.9995192744427
 20
301.50058660628747
 10
266.49509957976625
 20
301.50058660628747
 10
266.49509957976625
 20
169.5006443600505
 10
422.9995192744427
 20
169.5006443600505
  0
LINE
  5
2AD
330
17
100
AcDbEntity
  8
FP-Below
100
AcDbLine
 10
266.99736227620815
 20
358.0000257804195
 30
0.0
 11
266.99736227620815
 21
330.0000257804195
 31
0.0
  0
LINE
  5
2AE
330
17
100
AcDbEntity
  8
FP-Below
100
AcDbLine
 10
266.99736227620815
 20
330.0000257804195
 30
0.0
 11
269.49736227620815
 21
330.0000257804195
 31
0.0
  0
LINE
  5
2AF
330
17
100
AcDbEntity
  8
FP-Below
100
AcDbLine
 10
266.99736227620815
 20
418.0000257804195
 30
0.0
 11
266.99736227620815
 21
446.0000257804195
 31
0.0
  0
LINE
  5
2B0
330
17
100
AcDbEntity
  8
FP-Below
100
AcDbLine
 10
266.99736227620815
 20
446.0000257804195
 30
0.0
 11
269.49736227620815
 21
446.0000257804195
 31
0.0
  0
LINE
  5
2B1
330
17
100
AcDbEntity
  8
FP-Below
100
AcDbLine
 10
268.50178197087007
 20
529.0000281599014
 30
0.0
 11
268.50178197087007
 21
537.0000281599014
 31
0.0
  0
LINE
  5
2B2
330
17
100
AcDbEntity
  8
FP-Below
100
AcDbLine
 10
268.50178197087007
 20
599.0833614932371
 30
0.0
 11
268.50178197087007
 21
607.0833614932371
 31
0.0
  0
LINE
  5
2B3
330
17
100
AcDbEntity
  8
FP-Below
100
AcDbLine
 10
268.50178197087007
 20
607.0833614932371
 30
0.0
 11
346.50178197087007
 21
607.0833614932371
 31
0.0
  0
LINE
  5
2B4
330
17
100
AcDbEntity
  8
FP-Below
100
AcDbLine
 10
277.49997293351043
 20
529.0087331432251
 30
0.0
 11
268.503055134217
 21
529.0084295742772
 31
0.0
  0
LWPOLYLINE
  5
2B5
330
17
100
AcDbEntity
  8
FP-Note
100
AcDbPolyline
 90
4
 70
0
 10
280.9753241441049
 20
824.7016627350802
 10
268.975324144114
 20
824.7016480873388
 10
268.97534855701997
 20
822.7016480873533
 10
280.9753241441049
 20
824.7016627350802
  0
LINE
  5
2B6
330
17
100
AcDbEntity
  8
FP-Below
100
AcDbLine
 10
269.49736227620815
 20
330.0000257804195
 30
0.0
 11
269.49736227620815
 21
358.0000257804195
 31
0.0
  0
LINE
  5
2B7
330
17
100
AcDbEntity
  8
FP-Below
100
AcDbLine
 10
269.49736227620815
 20
358.0000257804195
 30
0.0
 11
271.49736227620815
 21
358.0000257804195
 31
0.0
  0
LINE
  5
2B8
330
17
100
AcDbEntity
  8
FP-Below
100
AcDbLine
 10
269.49736227620815
 20
418.0000257804195
 30
0.0
 11
271.49736227620815
 21
418.0000257804195
 31
0.0
  0
LINE
  5
2B9
330
17
100
AcDbEntity
  8
FP-Below
100
AcDbLine
 10
269.49736227620815
 20
446.0000257804195
 30
0.0
 11
269.49736227620815
 21
418.0000257804195
 31
0.0
  0
LINE
  5
2BA
330
17
100
AcDbEntity
  8
FP-Below
100
AcDbLine
 10
271.49736227620815
 20
326.00002340093306
 30
0.0
 11
291.4974106412192
 21
326.00002340093397
 31
0.0
  0
LINE
  5
2BB
330
17
100
AcDbEntity
  8
FP-Below
100
AcDbLine
 10
271.49736227620815
 20
326.00002340093397
 30
0.0
 11
291.4974106412192
 21
326.00002340093397
 31
0.0
  0
LINE
  5
2BC
330
17
100
AcDbEntity
  8
FP-Below
100
AcDbLine
 10
271.49736227620815
 20
326.00002340093397
 30
0.0
 11
271.49736227620815
 21
358.0000257804195
 31
0.0
  0
LINE
  5
2BD
330
17
100
AcDbEntity
  8
FP-Below
100
AcDbLine
 10
271.49736227620815
 20
521.0138309623326
 30
0.0
 11
271.49736227620815
 21
418.0000257804195
 31
0.0
  0
LINE
  5
2BE
330
17
100
AcDbEntity
  8
FP-Below
100
AcDbLine
 10
271.49866352172467
 20
140.500081154697
 30
0.0
 11
271.49866352172467
 21
151.500081154697
 31
0.0
  0
LINE
  5
2BF
330
17
100
AcDbEntity
  8
FP-Below
100
AcDbLine
 10
277.49997293351043
 20
521.0071464278608
 30
0.0
 11
271.4999843072583
 21
521.0065398762372
 31
0.0
  0
LINE
  5
2C0
330
17
100
AcDbEntity
  8
FP-Below
100
AcDbLine
 10
277.49997293351043
 20
521.0071464278599
 30
0.0
 11
277.49997293351043
 21
529.0087331432251
 31
0.0
  0
LINE
  5
2C1
330
17
100
AcDbEntity
  8
FP-Below
100
AcDbLine
 10
282.2427585878577
 20
945.8333614921257
 30
0.0
 11
332.7564036695876
 21
945.8333614921257
 31
0.0
  0
LINE
  5
2C2
330
17
100
AcDbEntity
  8
FP-Below
100
AcDbLine
 10
282.24723073774294
 20
945.8333614921712
 30
0.0
 11
282.24723073774294
 21
956.8333614921712
 31
0.0
  0
LINE
  5
2C3
330
17
100
AcDbEntity
  8
FP-Below
100
AcDbLine
 10
282.24723073774294
 20
956.8333614921712
 30
0.0
 11
332.7611367414829
 21
956.8333614921712
 31
0.0
  0
LINE
  5
2C4
330
17
100
AcDbEntity
  8
FP-Below
100
AcDbLine
 10
291.4974106412192
 20
319.50002340093397
 30
0.0
 11
291.4974106412192
 21
326.00002340093397
 31
0.0
  0
LWPOLYLINE
  5
2C5
330
17
100
AcDbEntity
  8
FP-Note
100
AcDbPolyline
 90
4
 70
0
 38
-0.3403031765569822
 10
296.0306998434917
 20
892.3920008986001
 10
296.0307144912331
 20
904.392000898591
 10
316.03071449121853
 20
904.3919764856851
 10
296.0306998434917
 20
892.3920008986001
  0
LWPOLYLINE
  5
2C6
330
17
100
AcDbEntity
  8
FP-Roof Detail
100
AcDbPolyline
 90
2
 70
0
 10
307.5017995872786
 20
812.3320426302728
 10
307.5017995872786
 20
773.5820426308321
  0
LWPOLYLINE
  5
2C7
330
17
100
AcDbEntity
  8
FP-Roof Detail
100
AcDbPolyline
 90
2
 70
0
 10
367.75311844913267
 20
872.5833614921257
 10
307.5017995872786
 20
812.3320426302726
  0
LWPOLYLINE
  5
2C8
330
17
100
AcDbEntity
  8
FP-Note
100
AcDbPolyline
 90
4
 70
0
 10
307.7186475904746
 20
842.6531133330955
 10
307.718662238216
 20
854.6531133330864
 10
309.71866223820143
 20
854.6530889201804
 10
307.7186475904746
 20
842.6531133330955
  0
LINE
  5
2C9
330
17
100
AcDbEntity
  8
FP-Below
100
AcDbLine
 10
323.4905664120379
 20
319.50002340093397
 30
0.0
 11
370.63802395401945
 21
319.50002340093397
 31
0.0
  0
LINE
  5
2CA
330
17
100
AcDbEntity
  8
FP-Below
100
AcDbLine
 10
323.4974106412192
 20
319.50002340093397
 30
0.0
 11
323.4974106412192
 21
326.00002340093397
 31
0.0
  0
LINE
  5
2CB
330
17
100
AcDbEntity
  8
FP-Below
100
AcDbLine
 10
323.4974106412192
 20
326.00002340093397
 30
0.0
 11
343.4991442471837
 21
326.00002340093397
 31
0.0
  0
LINE
  5
2CC
330
17
100
AcDbEntity
  8
FP-Below
100
AcDbLine
 10
332.7611367414829
 20
945.8333614921257
 30
0.0
 11
332.7611367414829
 21
956.8333614921257
 31
0.0
  0
LINE
  5
2CD
330
17
100
AcDbEntity
  8
FP-Below
100
AcDbLine
 10
337.5018506123233
 20
521.0132121454099
 30
0.0
 11
337.50185061231605
 21
529.0132121862907
 31
0.0
  0
LINE
  5
2CE
330
17
100
AcDbEntity
  8
FP-Below
100
AcDbLine
 10
346.5030551342097
 20
529.0141221372169
 30
0.0
 11
337.50185061231605
 21
529.0132121862907
 31
0.0
  0
LINE
  5
2CF
330
17
100
AcDbEntity
  8
FP-Below
100
AcDbLine
 10
343.5017538887587
 20
521.013818688406
 30
0.0
 11
337.5018506123197
 21
521.0132121454099
 31
0.0
  0
LINE
  5
2D0
330
17
100
AcDbEntity
  8
FP-Below
100
AcDbLine
 10
343.49866352172467
 20
140.500081154697
 30
0.0
 11
386.00133590935366
 21
140.500081154697
 31
0.0
  0
LINE
  5
2D1
330
17
100
AcDbEntity
  8
FP-Below
100
AcDbLine
 10
343.49866352172467
 20
140.500081154697
 30
0.0
 11
343.49866352172467
 21
151.500081154697
 31
0.0
  0
LINE
  5
2D2
330
17
100
AcDbEntity
  8
FP-Below
100
AcDbLine
 10
343.49866352172467
 20
151.500081154697
 30
0.0
 11
386.00133590935366
 21
151.500081154697
 31
0.0
  0
LINE
  5
2D3
330
17
100
AcDbEntity
  8
FP-Below
100
AcDbLine
 10
343.4991442471837
 20
521.000028159905
 30
0.0
 11
343.4991442471837
 21
326.00002340093397
 31
0.0
  0
LINE
  5
2D4
330
17
100
AcDbEntity
  8
FP-Below
100
AcDbLine
 10
346.50178197087007
 20
529.000028159905
 30
0.0
 11
346.50178197087007
 21
537.0000281599014
 31
0.0
  0
LINE
  5
2D5
330
17
100
AcDbEntity
  8
FP-Below
100
AcDbLine
 10
354.50178197087007
 20
537.0000281599014
 30
0.0
 11
346.50178197087007
 21
537.0000281599014
 31
0.0
  0
LINE
  5
2D6
330
17
100
AcDbEntity
  8
FP-Below
100
AcDbLine
 10
354.50178197087007
 20
599.0833614932371
 30
0.0
 11
346.50178197087007
 21
599.0833614932371
 31
0.0
  0
LINE
  5
2D7
330
17
100
AcDbEntity
  8
FP-Below
100
AcDbLine
 10
346.50178197087007
 20
599.0833614932371
 30
0.0
 11
346.50178197087007
 21
607.0833614932371
 31
0.0
  0
LINE
  5
2D8
330
17
100
AcDbEntity
  8
FP-Below
100
AcDbLine
 10
349.9991442471837
 20
326.00002340093397
 30
0.0
 11
370.63802395401945
 21
326.00002340093397
 31
0.0
  0
LINE
  5
2D9
330
17
100
AcDbEntity
  8
FP-Below
100
AcDbLine
 10
349.9991442471837
 20
397.50002340093306
 30
0.0
 11
349.9991442471837
 21
326.00002340093397
 31
0.0
  0
LINE
  5
2DA
330
17
100
AcDbEntity
  8
FP-Below
100
AcDbLine
 10
441.00133647812254
 20
397.50002340093397
 30
0.0
 11
349.9991442471837
 21
397.50002340093397
 31
0.0
  0
LINE
  5
2DB
330
17
100
AcDbEntity
  8
FP-Below
100
AcDbLine
 10
434.49866352166646
 20
404.0000027703818
 30
0.0
 11
354.50025458488017
 21
403.9997685604021
 31
0.0
  0
LINE
  5
2DC
330
17
100
AcDbEntity
  8
FP-Below
100
AcDbLine
 10
354.50025458488017
 20
403.9997685604021
 30
0.0
 11
354.50025458488017
 21
503.9997685604021
 31
0.0
  0
LINE
  5
2DD
330
17
100
AcDbEntity
  8
FP-Below
100
AcDbLine
 10
354.50025458488017
 20
503.9997685604021
 30
0.0
 11
354.50178197087007
 21
537.0000281599014
 31
0.0
  0
LINE
  5
2DE
330
17
100
AcDbEntity
  8
FP-Below
100
AcDbLine
 10
354.50178197087007
 20
599.0833614932371
 30
0.0
 11
354.50178197087007
 21
607.0833614932371
 31
0.0
  0
LINE
  5
2DF
330
17
100
AcDbEntity
  8
FP-Below
100
AcDbLine
 10
354.50178197087007
 20
607.0833614932371
 30
0.0
 11
370.006261212995
 21
607.0833614932371
 31
0.0
  0
LINE
  5
2E0
330
17
100
AcDbEntity
  8
FP-Below
100
AcDbLine
 10
356.50386684763725
 20
613.5833614932371
 30
0.0
 11
356.5038668476391
 21
670.708619752806
 31
0.0
  0
LINE
  5
2E1
330
17
100
AcDbEntity
  8
FP-Below
100
AcDbLine
 10
356.5038668476391
 20
670.708619752806
 30
0.0
 11
363.00386684763725
 21
670.7085837751756
 31
0.0
  0
LINE
  5
2E2
330
17
100
AcDbEntity
  8
FP-Below
100
AcDbLine
 10
356.5038668476391
 20
712.7086438980896
 30
0.0
 11
356.5038668476409
 21
745.834080843415
 31
0.0
  0
LINE
  5
2E3
330
17
100
AcDbEntity
  8
FP-Below
100
AcDbLine
 10
356.5038668476409
 20
712.7086438980896
 30
-0.2650308117562035
 11
363.0038668476391
 21
712.7086411306727
 31
0.0
  0
LINE
  5
2E4
330
17
100
AcDbEntity
  8
FP-Below
100
AcDbLine
 10
363.00386684763725
 20
613.5833614932371
 30
0.0
 11
370.006261212995
 21
613.5833614932371
 31
0.0
  0
LINE
  5
2E5
330
17
100
AcDbEntity
  8
FP-Below
100
AcDbLine
 10
363.00386684763725
 20
613.5833614932371
 30
0.0
 11
363.0038668476391
 21
670.7086169853892
 31
0.0
  0
LINE
  5
2E6
330
17
100
AcDbEntity
  8
FP-Below
100
AcDbLine
 10
363.0038668476391
 20
712.7086411306727
 30
0.0
 11
363.00386684763725
 21
745.8338060571177
 31
0.0
  0
LINE
  5
2E7
330
17
100
AcDbEntity
  8
FP-Below
100
AcDbLine
 10
371.00386684763725
 20
745.8337604571452
 30
0.0
 11
363.00386684763725
 21
745.8338060571177
 31
0.0
  0
LWPOLYLINE
  5
2E8
330
17
100
AcDbEntity
  8
FP-Roof
100
AcDbPolyline
 90
2
 70
0
 10
367.7485809456066
 20
224.7500811546961
 10
467.9985809456066
 20
124.50008115469518
  0
LWPOLYLINE
  5
2E9
330
17
100
AcDbEntity
  8
FP-Roof
100
AcDbPolyline
 90
2
 70
0
 10
367.7485809456066
 20
872.5833614921266
 10
467.9985809456066
 20
972.8333614921276
  0
LINE
  5
2EA
330
17
100
AcDbEntity
  8
FP-Below
100
AcDbLine
 10
370.006261212995
 20
613.5833614932371
 30
0.0
 11
370.006261212995
 21
607.0833614932371
 31
0.0
  0
LINE
  5
2EB
330
17
100
AcDbEntity
  8
FP-Below
100
AcDbLine
 10
370.63802395401945
 20
326.00002340093397
 30
0.0
 11
370.63802395401945
 21
319.50002340093397
 31
0.0
  0
LINE
  5
2EC
330
17
100
AcDbEntity
  8
FP-Below
100
AcDbLine
 10
371.00386684763725
 20
745.8338060571177
 30
0.0
 11
371.00386684763725
 21
753.8333817824932
 31
0.0
  0
LWPOLYLINE
  5
2ED
330
17
100
AcDbEntity
  8
FP-Roof
100
AcDbPolyline
 90
3
 70
0
 10
384.01931263684855
 20
667.836832745772
 10
382.76984381436523
 20
619.2951382494593
 10
384.0250480116647
 20
570.7487981922566
  0
LWPOLYLINE
  5
2EE
330
17
100
AcDbEntity
  8
FP-Roof Detail
100
AcDbPolyline
 90
2
 70
0
 10
508.2069827002033
 20
619.2908481733236
 10
382.7698438763309
 20
619.2894755513307
  0
LWPOLYLINE
  5
2EF
330
17
100
AcDbEntity
  8
FP-Roof
100
AcDbPolyline
 90
4
 70
0
 10
384.01931263684855
 20
667.836832745772
 10
556.7486635218775
 20
667.832528994998
 10
556.7486635218775
 20
570.7491673516497
 10
384.0250480116647
 20
570.7487981922566
  0
LWPOLYLINE
  5
2F0
330
17
100
AcDbEntity
  8
FP-Roof
100
AcDbPolyline
 90
2
 70
0
 10
384.01931263684855
 20
667.836832745772
 10
467.9985809456066
 20
751.8179389961881
  0
LWPOLYLINE
  5
2F1
330
17
100
AcDbEntity
  8
FP-Roof
100
AcDbPolyline
 90
3
 70
0
 10
444.36008640784894
 20
510.4150802392671
 10
384.02037499173457
 20
570.753471109917
 10
384.0203730643352
 20
570.9296066880665
  0
LINE
  5
2F2
330
17
100
AcDbEntity
  8
FP-Below
100
AcDbLine
 10
386.00133590935366
 20
140.500081154697
 30
0.0
 11
386.00133590935366
 21
151.500081154697
 31
0.0
  0
LWPOLYLINE
  5
2F3
330
17
100
AcDbEntity
  8
FP-Note
100
AcDbPolyline
 90
4
 70
0
 10
393.8370113010442
 20
362.74596788151075
 10
405.8370113010351
 20
362.7459532337739
 10
405.83698688814
 20
342.7459532337889
 10
393.8370113010442
 20
362.74596788151075
  0
LINE
  5
2F4
330
17
100
AcDbEntity
  8
FP-Below
100
AcDbLine
 10
400.63802395401945
 20
319.50002340093397
 30
0.0
 11
441.00133647812254
 21
319.50002340093397
 31
0.0
  0
LINE
  5
2F5
330
17
100
AcDbEntity
  8
FP-Below
100
AcDbLine
 10
400.63802395401945
 20
319.50002340093397
 30
0.0
 11
400.63802395401945
 21
321.50002340093397
 31
0.0
  0
LINE
  5
2F6
330
17
100
AcDbEntity
  8
FP-Below
100
AcDbLine
 10
400.63802395401945
 20
321.50002340093397
 30
0.0
 11
428.63802395401945
 21
321.50002340093397
 31
0.0
  0
LINE
  5
2F7
330
17
100
AcDbEntity
  8
FP-Below
100
AcDbLine
 10
400.63802395401945
 20
324.00002340093397
 30
0.0
 11
400.63802395401945
 21
326.00002340093397
 31
0.0
  0
LINE
  5
2F8
330
17
100
AcDbEntity
  8
FP-Below
100
AcDbLine
 10
428.63802395401945
 20
324.00002340093397
 30
0.0
 11
400.63802395401945
 21
324.00002340093397
 31
0.0
  0
LINE
  5
2F9
330
17
100
AcDbEntity
  8
FP-Below
100
AcDbLine
 10
400.63802395401945
 20
326.00002340093397
 30
0.0
 11
441.00133647812254
 21
326.00002340093397
 31
0.0
  0
LINE
  5
2FA
330
17
100
AcDbEntity
  8
FP-Below
100
AcDbLine
 10
404.7517058304911
 20
945.8333614921257
 30
0.0
 11
404.75170583048384
 21
956.8333614921257
 31
0.0
  0
LINE
  5
2FB
330
17
100
AcDbEntity
  8
FP-Below
100
AcDbLine
 10
404.7517058304911
 20
945.8333614921257
 30
0.0
 11
440.9977725361787
 21
945.8333614921257
 31
0.0
  0
LINE
  5
2FC
330
17
100
AcDbEntity
  8
FP-Below
100
AcDbLine
 10
404.7519667524939
 20
956.8333614921257
 30
0.0
 11
451.9985809456048
 21
956.8333614921257
 31
0.0
  0
LINE
  5
2FD
330
17
100
AcDbEntity
  8
FP-Below
100
AcDbLine
 10
451.9977725361787
 20
140.500081154697
 30
0.0
 11
422.00133590935366
 21
140.500081154697
 31
0.0
  0
LINE
  5
2FE
330
17
100
AcDbEntity
  8
FP-Below
100
AcDbLine
 10
422.00133590935366
 20
151.500081154697
 30
0.0
 11
422.00133590935366
 21
140.500081154697
 31
0.0
  0
LINE
  5
2FF
330
17
100
AcDbEntity
  8
FP-Below
100
AcDbLine
 10
441.00133647812254
 20
151.500081154697
 30
0.0
 11
422.00133590935366
 21
151.500081154697
 31
0.0
  0
LINE
  5
300
330
17
100
AcDbEntity
  8
FP-Below
100
AcDbLine
 10
427.0036402931255
 20
813.8333614921276
 30
0.0
 11
441.00766818492775
 21
813.8333614921276
 31
0.0
  0
LINE
  5
301
330
17
100
AcDbEntity
  8
FP-Below
100
AcDbLine
 10
427.0036402931255
 20
831.8333614921276
 30
0.0
 11
427.0036402931255
 21
813.8333614921276
 31
0.0
  0
LINE
  5
302
330
17
100
AcDbEntity
  8
FP-Below
100
AcDbLine
 10
427.0036402931255
 20
831.8333614921276
 30
0.0
 11
441.0036402931255
 21
831.8333614921276
 31
0.0
  0
LINE
  5
303
330
17
100
AcDbEntity
  8
FP-Below
100
AcDbLine
 10
427.0036402931255
 20
867.8333614921276
 30
0.0
 11
441.0036402931255
 21
867.8333614921276
 31
0.0
  0
LINE
  5
304
330
17
100
AcDbEntity
  8
FP-Below
100
AcDbLine
 10
427.0036402931255
 20
867.8333614921276
 30
0.0
 11
427.0036402931255
 21
885.8333614921276
 31
0.0
  0
LINE
  5
305
330
17
100
AcDbEntity
  8
FP-Below
100
AcDbLine
 10
427.0036402931255
 20
885.8333614921276
 30
0.0
 11
441.00766818492775
 21
885.8333614921276
 31
0.0
  0
LWPOLYLINE
  5
306
330
17
100
AcDbEntity
  8
FP-Note
100
AcDbPolyline
 90
4
 70
0
 10
428.3302533362039
 20
832.660319947704
 10
440.3302533361948
 20
832.6603052999671
 10
440.3302289232997
 20
812.6603052999822
 10
428.3302533362039
 20
832.660319947704
  0
LINE
  5
307
330
17
100
AcDbEntity
  8
FP-Below
100
AcDbLine
 10
428.63802395401945
 20
321.50002340093397
 30
0.0
 11
428.63802395401945
 21
324.00002340093397
 31
0.0
  0
LINE
  5
308
330
17
100
AcDbEntity
  8
FP-Below
100
AcDbLine
 10
441.0038668612651
 20
745.8333614573885
 30
0.0
 11
432.99777253618595
 21
745.8334070920964
 31
0.0
  0
LINE
  5
309
330
17
100
AcDbEntity
  8
FP-Below
100
AcDbLine
 10
432.99777253618595
 20
745.8334070920964
 30
0.0
 11
432.99777253618595
 21
753.8333614921276
 31
0.0
  0
LINE
  5
30A
330
17
100
AcDbEntity
  8
FP-Below
100
AcDbLine
 10
441.00362167894855
 20
753.8333614921276
 30
0.0
 11
432.99777253618595
 21
753.8333614921276
 31
0.0
  0
LINE
  5
30B
330
17
100
AcDbEntity
  8
FP-Below
100
AcDbLine
 10
434.00626121298774
 20
607.0833614932371
 30
0.0
 11
441.00133647812254
 21
607.0833614932371
 31
0.0
  0
LINE
  5
30C
330
17
100
AcDbEntity
  8
FP-Below
100
AcDbLine
 10
434.006261212995
 20
613.5833614932371
 30
0.0
 11
434.006261212995
 21
607.0833614932371
 31
0.0
  0
LINE
  5
30D
330
17
100
AcDbEntity
  8
FP-Below
100
AcDbLine
 10
434.006261212995
 20
613.5833614932371
 30
0.0
 11
441.0086555783528
 21
613.5833614932371
 31
0.0
  0
LINE
  5
30E
330
17
100
AcDbEntity
  8
FP-Below
100
AcDbLine
 10
434.49866352166646
 20
404.0000027703818
 30
0.0
 11
434.49866352166646
 21
525.000023400934
 31
0.0
  0
LINE
  5
30F
330
17
100
AcDbEntity
  8
FP-Below
100
AcDbLine
 10
434.49866352166646
 20
525.000023400934
 30
0.0
 11
441.00133647812254
 21
525.000023400934
 31
0.0
  0
LINE
  5
310
330
17
100
AcDbEntity
  8
FP-Below
100
AcDbLine
 10
437.99866352166646
 20
140.500081154697
 30
0.0
 11
437.99866352166646
 21
73.00017664094594
 31
0.0
  0
LINE
  5
311
330
17
100
AcDbEntity
  8
FP-Below
100
AcDbLine
 10
437.99866352166646
 20
73.00017664094594
 30
0.0
 11
486.73090956917804
 21
73.00017664094594
 31
0.0
  0
LINE
  5
312
330
17
100
AcDbEntity
  8
FP-Below
100
AcDbLine
 10
447.5049421654585
 20
712.7085163114489
 30
0.0
 11
440.9942438270118
 21
712.7085837751756
 31
0.0
  0
LINE
  5
313
330
17
100
AcDbEntity
  8
FP-Below
100
AcDbLine
 10
440.9977373033871
 20
885.8333614921276
 30
0.0
 11
440.9977373033871
 21
945.8333614921257
 31
0.0
  0
LINE
  5
314
330
17
100
AcDbEntity
  8
FP-Below
100
AcDbLine
 10
441.00133647812254
 20
319.50002340093397
 30
0.0
 11
441.00133647812254
 21
151.500081154697
 31
0.0
  0
LINE
  5
315
330
17
100
AcDbEntity
  8
FP-Below
100
AcDbLine
 10
441.00133647812254
 20
397.50002340093397
 30
0.0
 11
441.00133647812254
 21
326.00002340093397
 31
0.0
  0
LINE
  5
316
330
17
100
AcDbEntity
  8
FP-Below
100
AcDbLine
 10
441.00133647812254
 20
607.0833614932371
 30
0.0
 11
441.00133647812254
 21
525.000023400934
 31
0.0
  0
LINE
  5
317
330
17
100
AcDbEntity
  8
FP-Below
100
AcDbLine
 10
441.00362167894855
 20
753.8333614921276
 30
0.0
 11
441.00178281158696
 21
813.8333614921285
 31
0.0
  0
LINE
  5
318
330
17
100
AcDbEntity
  8
FP-Below
100
AcDbLine
 10
441.0036402931255
 20
831.8333614921276
 30
0.0
 11
441.0036402931255
 21
867.8333614921276
 31
0.0
  0
LINE
  5
319
330
17
100
AcDbEntity
  8
FP-Below
100
AcDbLine
 10
441.0058014961505
 20
712.7085837751756
 30
0.0
 11
441.0038668612651
 21
745.8333614573885
 31
0.0
  0
LINE
  5
31A
330
17
100
AcDbEntity
  8
FP-Below
100
AcDbLine
 10
441.0086555783528
 20
613.5833614932371
 30
0.0
 11
441.0067209298322
 21
670.7085837751756
 31
0.0
  0
LINE
  5
31B
330
17
100
AcDbEntity
  8
FP-Below
100
AcDbLine
 10
447.5049421654585
 20
670.7085163114489
 30
0.0
 11
441.0067209298322
 21
670.7085837751756
 31
0.0
  0
LINE
  5
31C
330
17
100
AcDbEntity
  8
FP-Roof
100
AcDbLine
 10
444.36008640784894
 20
510.4150802392671
 30
0.0
 11
444.36060366376296
 21
358.2398117523003
 31
0.0
  0
LWPOLYLINE
  5
31D
330
17
100
AcDbEntity
  8
FP-Roof
100
AcDbPolyline
 90
2
 70
0
 10
623.513343886656
 20
508.1657349023251
 10
444.36008640784894
 20
510.4150802392671
  0
LWPOLYLINE
  5
31E
330
17
100
AcDbEntity
  8
FP-Roof
100
AcDbPolyline
 90
2
 70
0
 10
444.36060366376296
 20
358.2398117523003
 10
446.61121212234684
 20
179.23297190729681
  0
LWPOLYLINE
  5
31F
330
17
100
AcDbEntity
  8
FP-Roof
100
AcDbPolyline
 90
2
 70
0
 10
468.0010732970368
 20
157.84311073260733
 10
446.61121212234684
 20
179.23297190729681
  0
LINE
  5
320
330
17
100
AcDbEntity
  8
FP-Below
100
AcDbLine
 10
447.5049421654585
 20
641.993357972703
 30
0.0
 11
447.5049421654585
 21
666.2086228761464
 31
0.0
  0
LINE
  5
321
330
17
100
AcDbEntity
  8
FP-Below
100
AcDbLine
 10
447.5049421654585
 20
641.993357972703
 30
0.0
 11
522.3057968201865
 21
641.996166591146
 31
0.0
  0
LINE
  5
322
330
17
100
AcDbEntity
  8
FP-Below
100
AcDbLine
 10
471.5166257630881
 20
666.2086228761464
 30
0.0
 11
447.5049421654585
 21
666.2086228761464
 31
0.0
  0
LINE
  5
323
330
17
100
AcDbEntity
  8
FP-Below
100
AcDbLine
 10
447.51662576310264
 20
670.7085163114489
 30
0.0
 11
471.5166257630881
 21
670.7086228761464
 31
0.0
  0
LINE
  5
324
330
17
100
AcDbEntity
  8
FP-Below
100
AcDbLine
 10
447.51662576310264
 20
712.7085163114489
 30
0.0
 11
471.50494948931373
 21
712.7085837751756
 31
0.0
  0
LINE
  5
325
330
17
100
AcDbEntity
  8
FP-Below
100
AcDbLine
 10
497.73090956917804
 20
84.00016822502766
 30
0.0
 11
448.9986493954166
 21
84.0001432262743
 31
0.0
  0
LINE
  5
326
330
17
100
AcDbEntity
  8
FP-Below
100
AcDbLine
 10
448.9986493954166
 20
84.0001432262743
 30
0.0
 11
448.9986493954166
 21
140.500081154697
 31
0.0
  0
LINE
  5
327
330
17
100
AcDbEntity
  8
FP-Below
100
AcDbLine
 10
451.9977725361787
 20
188.50002340093397
 30
0.0
 11
448.99866352166646
 21
188.50002340093397
 31
0.0
  0
LINE
  5
328
330
17
100
AcDbEntity
  8
FP-Below
100
AcDbLine
 10
448.99866352166646
 20
188.50002340093397
 30
0.0
 11
448.99866352166646
 21
494.00091914538916
 31
0.0
  0
LINE
  5
329
330
17
100
AcDbEntity
  8
FP-Below
100
AcDbLine
 10
623.0946854411413
 20
494.00091914538916
 30
0.0
 11
448.99866352166646
 21
494.00091914538916
 31
0.0
  0
LINE
  5
32A
330
17
100
AcDbEntity
  8
FP-Below
100
AcDbLine
 10
559.594917240549
 20
500.4993553992472
 30
0.0
 11
448.99866352166646
 21
500.498927477026
 31
0.0
  0
LINE
  5
32B
330
17
100
AcDbEntity
  8
FP-Below
100
AcDbLine
 10
448.99866352166646
 20
500.498927477026
 30
0.0
 11
448.99866352166646
 21
635.4934127256956
 31
0.0
  0
LINE
  5
32C
330
17
100
AcDbEntity
  8
FP-Below
100
AcDbLine
 10
448.99866352166646
 20
635.4934127256956
 30
0.0
 11
522.3057968201865
 21
635.4961665867804
 31
0.0
  0
LINE
  5
32D
330
17
100
AcDbEntity
  8
FP-Below
100
AcDbLine
 10
451.9955956011963
 20
813.8333614921285
 30
0.0
 11
451.9942438270118
 21
749.082471241195
 31
0.0
  0
LINE
  5
32E
330
17
100
AcDbEntity
  8
FP-Below
100
AcDbLine
 10
451.9942438270118
 20
749.082471241195
 30
0.0
 11
479.75061089209703
 21
749.0824796610168
 31
0.0
  0
LINE
  5
32F
330
17
100
AcDbEntity
  8
FP-Below
100
AcDbLine
 10
451.9977725361787
 20
188.50002340093397
 30
0.0
 11
451.9977725361787
 21
140.500081154697
 31
0.0
  0
LINE
  5
330
330
17
100
AcDbEntity
  8
FP-Below
100
AcDbLine
 10
451.9985809456048
 20
956.8333614921257
 30
0.0
 11
452.0030832163211
 21
885.8333614921294
 31
0.0
  0
LWPOLYLINE
  5
331
330
17
100
AcDbEntity
  8
FP-Below
100
AcDbPolyline
 90
4
 70
0
 10
452.0030832163211
 20
813.8333614921276
 10
464.0030832163211
 20
813.8333614921276
 10
464.0030832163211
 20
885.8333614921276
 10
452.0030832163211
 20
885.8333614921294
  0
LWPOLYLINE
  5
332
330
17
100
AcDbEntity
  8
FP-Note
100
AcDbPolyline
 90
4
 70
0
 10
459.7357425180544
 20
603.8090993602391
 10
459.7357571657958
 20
591.8090993602482
 10
461.73575716578125
 20
591.8091237731542
 10
459.7357425180544
 20
603.8090993602391
  0
LWPOLYLINE
  5
333
330
17
100
AcDbEntity
  8
FP-Note
100
AcDbPolyline
 90
4
 70
0
 10
459.7357425180544
 20
634.7725969864082
 10
459.7357571657958
 20
646.7725969863991
 10
461.73575716578125
 20
646.7725725734931
 10
459.7357425180544
 20
634.7725969864082
  0
LWPOLYLINE
  5
334
330
17
100
AcDbEntity
  8
FP-Roof
100
AcDbPolyline
 90
6
 70
0
 10
467.9985809456066
 20
765.082528994998
 10
653.9986635218775
 20
765.082528994998
 10
653.9986635218775
 20
662.5001766409496
 10
743.9986635218847
 20
662.5001766409632
 10
743.9986635218847
 20
473.4999462319938
 10
658.1795473466264
 20
473.49953144235405
  0
LINE
  5
335
330
17
100
AcDbEntity
  8
FP-Below
100
AcDbLine
 10
471.50494948931373
 20
717.2085837751756
 30
0.0
 11
471.5049421654585
 21
738.0824782150439
 31
0.0
  0
LINE
  5
336
330
17
100
AcDbEntity
  8
FP-Below
100
AcDbLine
 10
471.50494216546576
 20
738.0824591768824
 30
0.0
 11
479.7506069945266
 21
738.0824802450143
 31
0.0
  0
LINE
  5
337
330
17
100
AcDbEntity
  8
FP-Below
100
AcDbLine
 10
471.50494948931373
 20
712.7085837751756
 30
0.0
 11
471.50494948931373
 21
717.2085837751756
 31
0.0
  0
LINE
  5
338
330
17
100
AcDbEntity
  8
FP-Below
100
AcDbLine
 10
471.5166257630881
 20
670.7086228761464
 30
0.0
 11
471.5166257630881
 21
666.2086228761464
 31
0.0
  0
LINE
  5
339
330
17
100
AcDbEntity
  8
FP-Below
100
AcDbLine
 10
479.75060699457026
 20
749.0824802500238
 30
0.0
 11
479.7506069945266
 21
738.0824802500238
 31
0.0
  0
LWPOLYLINE
  5
33A
330
17
100
AcDbEntity
  8
FP-Below
100
AcDbPolyline
 90
3
 70
0
 38
-0.3403031765569822
 10
486.73090956917804
 20
73.00017664094594
 10
486.73090956917804
 20
55.00017664094594
 10
518.2504454920236
 20
55.00017664090956
  0
LWPOLYLINE
  5
33B
330
17
100
AcDbEntity
  8
FP-Note
100
AcDbPolyline
 90
4
 70
0
 10
495.5942024234864
 20
546.0046458060133
 10
495.59421707122783
 20
534.0046458060224
 10
515.5942170712133
 20
534.0046702189284
 10
495.5942024234864
 20
546.0046458060133
  0
LWPOLYLINE
  5
33C
330
17
100
AcDbEntity
  8
FP-Below
100
AcDbPolyline
 90
3
 70
0
 38
-0.3403031765569822
 10
497.73090956917804
 20
84.00017664094594
 10
497.73090956917804
 20
66.00017664094594
 10
518.2504454920236
 20
66.00017664092047
  0
LWPOLYLINE
  5
33D
330
17
100
AcDbEntity
  8
FP-Note
100
AcDbPolyline
 90
4
 70
0
 10
507.1653436513625
 20
703.5122114266323
 10
507.1653582991039
 20
715.5122114266233
 10
527.1653582990893
 20
715.5121870137173
 10
507.1653436513625
 20
703.5122114266323
  0
LWPOLYLINE
  5
33E
330
17
100
AcDbEntity
  8
FP-Roof Detail
100
AcDbPolyline
 90
2
 70
0
 10
556.7486635218775
 20
570.7491673516497
 10
508.2069827002033
 20
619.2908481733236
  0
LWPOLYLINE
  5
33F
330
17
100
AcDbEntity
  8
FP-Roof Detail
100
AcDbPolyline
 90
2
 70
0
 10
556.7486635218775
 20
667.832528994998
 10
508.2069827002033
 20
619.2908481733236
  0
LINE
  5
340
330
17
100
AcDbEntity
  8
FP-Below
100
AcDbLine
 10
515.7506069945703
 20
749.0824807049094
 30
0.0
 11
515.7506069945339
 21
738.0824807049094
 31
0.0
  0
LINE
  5
341
330
17
100
AcDbEntity
  8
FP-Below
100
AcDbLine
 10
515.7506069945484
 20
738.0824925677325
 30
0.0
 11
560.250532956441
 21
738.0825095173559
 31
0.0
  0
LINE
  5
342
330
17
100
AcDbEntity
  8
FP-Below
100
AcDbLine
 10
515.7506108921189
 20
749.0824912883645
 30
0.0
 11
560.2505290588706
 21
749.0825074363811
 31
0.0
  0
LINE
  5
343
330
17
100
AcDbEntity
  8
FP-Below
100
AcDbLine
 10
518.2504454920236
 20
55.00017664078587
 30
0.0
 11
518.2504454920236
 21
66.00017664078587
 31
0.0
  0
LINE
  5
344
330
17
100
AcDbEntity
  8
FP-Below
100
AcDbLine
 10
522.305677685541
 20
641.9972663373292
 30
0.0
 11
522.305677685541
 21
635.4972663373292
 31
0.0
  0
LWPOLYLINE
  5
345
330
17
100
AcDbEntity
  8
FP-Note
100
AcDbPolyline
 90
4
 70
0
 10
532.617465189729
 20
619.4789357694794
 10
544.61746518972
 20
619.4789211217367
 10
544.617440776814
 20
617.4789211217517
 10
532.617465189729
 20
619.4789357694794
  0
LINE
  5
346
330
17
100
AcDbEntity
  8
FP-Below
100
AcDbLine
 10
552.305677685541
 20
637.4972663373292
 30
0.0
 11
552.305677685541
 21
635.4961665867804
 31
0.0
  0
LINE
  5
347
330
17
100
AcDbEntity
  8
FP-Below
100
AcDbLine
 10
552.305677685541
 20
635.4972663330682
 30
0.0
 11
559.594917240549
 21
635.497527059093
 31
0.0
  0
LINE
  5
348
330
17
100
AcDbEntity
  8
FP-Below
100
AcDbLine
 10
580.305677685541
 20
637.4972663373292
 30
0.0
 11
552.305677685541
 21
637.4972663373292
 31
0.0
  0
LINE
  5
349
330
17
100
AcDbEntity
  8
FP-Below
100
AcDbLine
 10
552.305677685541
 20
641.9972663373292
 30
0.0
 11
552.305677685541
 21
639.9972663373292
 31
0.0
  0
LINE
  5
34A
330
17
100
AcDbEntity
  8
FP-Below
100
AcDbLine
 10
552.305677685541
 20
639.9972663373292
 30
0.0
 11
580.305677685541
 21
639.9972663373292
 31
0.0
  0
LINE
  5
34B
330
17
100
AcDbEntity
  8
FP-Below
100
AcDbLine
 10
552.3057968201865
 20
641.9972663416984
 30
0.0
 11
627.0946789612608
 21
641.999941436442
 31
0.0
  0
LINE
  5
34C
330
17
100
AcDbEntity
  8
FP-Below
100
AcDbLine
 10
554.2504454919945
 20
55.00017664078587
 30
0.0
 11
554.2504454919945
 21
66.00017664078587
 31
0.0
  0
LWPOLYLINE
  5
34D
330
17
100
AcDbEntity
  8
FP-Below
100
AcDbPolyline
 90
2
 70
0
 38
-0.3403031765569822
 10
554.2504454919945
 20
55.000176640876816
 10
583.7486635223431
 20
55.00017664081497
  0
LWPOLYLINE
  5
34E
330
17
100
AcDbEntity
  8
FP-Below
100
AcDbPolyline
 90
2
 70
0
 38
-0.3403031765569822
 10
554.2504454919945
 20
66.00017664088409
 10
583.7486635223431
 20
66.00017664081497
  0
LWPOLYLINE
  5
34F
330
17
100
AcDbEntity
  8
FP-Roof
100
AcDbPolyline
 90
2
 70
0
 10
556.7486635218775
 20
570.7491673516497
 10
585.4986635218775
 20
541.9992869393
  0
LWPOLYLINE
  5
350
330
17
100
AcDbEntity
  8
FP-Roof
100
AcDbPolyline
 90
2
 70
0
 10
556.7486635218775
 20
667.832528994998
 10
653.9986635218775
 20
765.082528994998
  0
LWPOLYLINE
  5
351
330
17
100
AcDbEntity
  8
FP-Below
100
AcDbPolyline
 90
5
 70
0
 10
559.594917240549
 20
500.4993553992472
 10
559.594917240549
 20
518.500114879007
 10
563.094917240549
 20
518.500114879007
 10
563.094917240549
 20
500.4990525212852
 10
627.0949242388124
 20
500.4994535681335
  0
LWPOLYLINE
  5
352
330
17
100
AcDbEntity
  8
FP-Below
100
AcDbPolyline
 90
4
 70
0
 10
559.594917240549
 20
635.497527059093
 10
559.594917240549
 20
617.4999414408103
 10
563.094917240549
 20
617.4999414408103
 10
563.094917240549
 20
635.4976061392008
  0
LINE
  5
353
330
17
100
AcDbEntity
  8
FP-Below
100
AcDbLine
 10
560.2505329564847
 20
749.0825095223654
 30
0.0
 11
560.250532956441
 21
738.0825095223654
 31
0.0
  0
LINE
  5
354
330
17
100
AcDbEntity
  8
FP-Below
100
AcDbLine
 10
563.094917240549
 20
635.4976522492561
 30
0.0
 11
627.094917240549
 21
635.4999414408076
 31
0.0
  0
LINE
  5
355
330
17
100
AcDbEntity
  8
FP-Below
100
AcDbLine
 10
580.305677685541
 20
639.9972663373292
 30
0.0
 11
580.305677685541
 21
637.4972663373292
 31
0.0
  0
LINE
  5
356
330
17
100
AcDbEntity
  8
FP-Below
100
AcDbLine
 10
583.7486635223431
 20
55.00017664081497
 30
0.0
 11
583.7486635223431
 21
66.00017664081497
 31
0.0
  0
LWPOLYLINE
  5
357
330
17
100
AcDbEntity
  8
FP-Roof
100
AcDbPolyline
 90
3
 70
0
 10
585.4986635218775
 20
594.0001766409396
 10
584.4986635218775
 20
567.9997317901198
 10
585.4986635218775
 20
541.9992869393
  0
LWPOLYLINE
  5
358
330
17
100
AcDbEntity
  8
FP-Roof Detail
100
AcDbPolyline
 90
2
 70
0
 10
649.4984058521186
 20
567.999918971185
 10
584.4986635218775
 20
567.999918971185
  0
LWPOLYLINE
  5
359
330
17
100
AcDbEntity
  8
FP-Roof
100
AcDbPolyline
 90
4
 70
0
 10
585.4986635218775
 20
594.0001766409396
 10
675.4986635218847
 20
594.0001766409532
 10
675.4986635218847
 20
541.9996613014182
 10
585.4986635218775
 20
541.9992869393
  0
LWPOLYLINE
  5
35A
330
17
100
AcDbEntity
  8
FP-Roof
100
AcDbPolyline
 90
2
 70
0
 10
653.9986635218775
 20
662.5001766409496
 10
585.4986635218775
 20
594.0001766409396
  0
LINE
  5
35B
330
17
100
AcDbEntity
  8
FP-Below
100
AcDbLine
 10
596.2505251612638
 20
749.0825201920625
 30
0.0
 11
638.0911567319745
 21
749.0825289949598
 31
0.0
  0
LINE
  5
35C
330
17
100
AcDbEntity
  8
FP-Below
100
AcDbLine
 10
596.2505290588706
 20
749.0825111055883
 30
0.0
 11
596.2505290588269
 21
738.0825111055883
 31
0.0
  0
LINE
  5
35D
330
17
100
AcDbEntity
  8
FP-Below
100
AcDbLine
 10
596.2505290588342
 20
738.0825229684078
 30
0.0
 11
627.0911567319745
 21
738.0825289949598
 31
0.0
  0
LWPOLYLINE
  5
35E
330
17
100
AcDbEntity
  8
FP-Note
100
AcDbPolyline
 90
4
 70
0
 10
600.6015147278649
 20
678.7310955710168
 10
612.6015147278558
 20
678.7310809232799
 10
612.6014903149608
 20
658.7310809232949
 10
600.6015147278649
 20
678.7310955710168
  0
LWPOLYLINE
  5
35F
330
17
100
AcDbEntity
  8
FP-Note
100
AcDbPolyline
 90
4
 70
0
 10
619.4305812322
 20
559.0664711185232
 10
619.4305665844586
 20
547.0664711185323
 10
617.4305665844731
 20
547.0664955314382
 10
619.4305812322
 20
559.0664711185232
  0
LWPOLYLINE
  5
360
330
17
100
AcDbEntity
  8
FP-Note
100
AcDbPolyline
 90
4
 70
0
 10
619.4305812322
 20
574.0932158683354
 10
619.4305665844586
 20
586.0932158683263
 10
617.4305665844731
 20
586.0931914554203
 10
619.4305812322
 20
574.0932158683354
  0
LWPOLYLINE
  5
361
330
17
100
AcDbEntity
  8
FP-Below
100
AcDbPolyline
 90
3
 70
0
 38
-0.3403031765569822
 10
651.2681994451304
 20
73.00017664094594
 10
651.2681994451304
 20
55.00017664094594
 10
619.748663522314
 20
55.00017664081497
  0
LINE
  5
362
330
17
100
AcDbEntity
  8
FP-Below
100
AcDbLine
 10
619.748663522314
 20
55.00017664081497
 30
0.0
 11
619.748663522314
 21
66.00017664081497
 31
0.0
  0
LINE
  5
363
330
17
100
AcDbEntity
  8
FP-Below
100
AcDbLine
 10
619.748663522314
 20
55.00017664081497
 30
0.0
 11
619.748663522314
 21
66.00017664081497
 31
0.0
  0
LWPOLYLINE
  5
364
330
17
100
AcDbEntity
  8
FP-Below
100
AcDbPolyline
 90
3
 70
0
 38
-0.3403031765569822
 10
640.2681994451304
 20
84.00017664094594
 10
640.2681994451304
 20
66.00017664094594
 10
619.748663522314
 20
66.00017664081497
  0
LINE
  5
365
330
17
100
AcDbEntity
  8
FP-Below
100
AcDbLine
 10
623.0946854411413
 20
494.00091914538916
 30
0.0
 11
623.0947032930453
 21
489.49959413254237
 31
0.0
  0
LINE
  5
366
330
17
100
AcDbEntity
  8
FP-Below
100
AcDbLine
 10
695.0946854411413
 20
489.4998796788668
 30
0.0
 11
623.0947032930453
 21
489.49959413254237
 31
0.0
  0
LWPOLYLINE
  5
367
330
17
100
AcDbEntity
  8
FP-Roof
100
AcDbPolyline
 90
2
 70
0
 10
623.513343886656
 20
508.1657349023251
 10
658.1795473466264
 20
473.49953144235405
  0
LINE
  5
368
330
17
100
AcDbEntity
  8
FP-Below
100
AcDbLine
 10
627.0911567318944
 20
528.9166948267184
 30
0.0
 11
635.0959589455342
 21
528.9165568245407
 31
0.0
  0
LINE
  5
369
330
17
100
AcDbEntity
  8
FP-Below
100
AcDbLine
 10
635.0959589455342
 20
607.0832234909358
 30
0.0
 11
627.0911567318944
 21
607.0833614931171
 31
0.0
  0
LINE
  5
36A
330
17
100
AcDbEntity
  8
FP-Below
100
AcDbLine
 10
627.0911567319745
 20
738.0825289949598
 30
0.0
 11
627.0946789612608
 21
641.999941436442
 31
0.0
  0
LINE
  5
36B
330
17
100
AcDbEntity
  8
FP-Below
100
AcDbLine
 10
627.094917240549
 20
635.4999414408076
 30
0.0
 11
627.0959589455342
 21
607.0833614931171
 31
0.0
  0
LINE
  5
36C
330
17
100
AcDbEntity
  8
FP-Below
100
AcDbLine
 10
627.0949242388124
 20
500.499616572225
 30
0.0
 11
627.0949242388633
 21
528.9166948267184
 31
0.0
  0
LINE
  5
36D
330
17
100
AcDbEntity
  8
FP-Below
100
AcDbLine
 10
635.0959589455342
 20
528.9165568245407
 30
0.0
 11
635.0959584877091
 21
500.49950370546503
 31
0.0
  0
LWPOLYLINE
  5
36E
330
17
100
AcDbEntity
  8
FP-Below
100
AcDbPolyline
 90
2
 70
0
 10
635.0959584877091
 20
500.49950370546503
 10
695.0946854411413
 20
500.4998796788668
  0
LINE
  5
36F
330
17
100
AcDbEntity
  8
FP-Below
100
AcDbLine
 10
635.0959589455342
 20
607.0832234909358
 30
0.0
 11
635.0959584877091
 21
635.5000415800532
 31
0.0
  0
LINE
  5
370
330
17
100
AcDbEntity
  8
FP-Below
100
AcDbLine
 10
717.0911567319745
 20
635.5001807663821
 30
0.0
 11
635.0959584877091
 21
635.5000415801878
 31
0.0
  0
LINE
  5
371
330
17
100
AcDbEntity
  8
FP-Below
100
AcDbLine
 10
638.0946854411559
 20
646.5002343630831
 30
0.0
 11
638.0911567319745
 21
646.5002343619917
 31
0.0
  0
LINE
  5
372
330
17
100
AcDbEntity
  8
FP-Below
100
AcDbLine
 10
638.0911567319745
 20
749.0825289949598
 30
0.0
 11
638.0946854411559
 21
646.5002343630831
 31
0.0
  0
LINE
  5
373
330
17
100
AcDbEntity
  8
FP-Below
100
AcDbLine
 10
638.0946854411559
 20
646.5002343630831
 30
0.0
 11
728.0911567319745
 21
646.5001807663821
 31
0.0
  0
LINE
  5
374
330
17
100
AcDbEntity
  8
FP-Below
100
AcDbLine
 10
640.2681994451304
 20
84.00017664094594
 30
0.0
 11
688.9986635216665
 21
84.00017664094594
 31
0.0
  0
LWPOLYLINE
  5
375
330
17
100
AcDbEntity
  8
FP-Roof Detail
100
AcDbPolyline
 90
2
 70
0
 10
675.4986635218847
 20
541.9996613014182
 10
649.4984058521186
 20
567.999918971185
  0
LWPOLYLINE
  5
376
330
17
100
AcDbEntity
  8
FP-Roof Detail
100
AcDbPolyline
 90
2
 70
0
 10
675.4986635218847
 20
594.0001766409532
 10
649.4984058521186
 20
567.9999189711857
  0
LINE
  5
377
330
17
100
AcDbEntity
  8
FP-Below
100
AcDbLine
 10
699.9986635216665
 20
73.00017664094594
 30
0.0
 11
651.2681994451304
 21
73.00017664094594
 31
0.0
  0
LWPOLYLINE
  5
378
330
17
100
AcDbEntity
  8
FP-Note
100
AcDbPolyline
 90
4
 70
0
 10
658.9646581477555
 20
566.6131106313082
 10
670.9646581477464
 20
566.6130959835655
 10
670.9646337348404
 20
564.6130959835805
 10
658.9646581477555
 20
566.6131106313082
  0
LWPOLYLINE
  5
379
330
17
100
AcDbEntity
  8
FP-Note
100
AcDbPolyline
 90
4
 70
0
 10
664.0533183877724
 20
622.0678582027699
 10
664.0533330355138
 20
634.0678582027608
 10
684.0533330354992
 20
634.0678337898548
 10
664.0533183877724
 20
622.0678582027699
  0
LWPOLYLINE
  5
37A
330
17
100
AcDbEntity
  8
FP-Roof
100
AcDbPolyline
 90
2
 70
0
 10
675.4986635218847
 20
541.9996613014182
 10
743.998378592496
 20
473.49994623080875
  0
LWPOLYLINE
  5
37B
330
17
100
AcDbEntity
  8
FP-Roof
100
AcDbPolyline
 90
2
 70
0
 10
675.4986635218847
 20
594.0001766409532
 10
743.9986635218957
 20
662.5001766409632
  0
LINE
  5
37C
330
17
100
AcDbEntity
  8
FP-Below
100
AcDbLine
 10
688.9986635216665
 20
84.00017664094594
 30
0.0
 11
688.9986635216665
 21
97.00106762641917
 31
0.0
  0
LINE
  5
37D
330
17
100
AcDbEntity
  8
FP-Below
100
AcDbLine
 10
688.9986635216665
 20
97.00106762641917
 30
0.0
 11
699.9986635216665
 21
97.00106762641917
 31
0.0
  0
LWPOLYLINE
  5
37E
330
17
100
AcDbEntity
  8
FP-Below
100
AcDbPolyline
 90
4
 70
1
 38
-0.3403031765569822
 10
688.9986635216665
 20
228.9992856554736
 10
699.9986635216665
 20
228.9992856554736
 10
699.9986635216665
 20
205.00017664094685
 10
688.9986635216665
 20
205.00017664094685
  0
LWPOLYLINE
  5
37F
330
17
100
AcDbEntity
  8
FP-Below
100
AcDbPolyline
 90
4
 70
1
 38
-0.3403031765569822
 10
688.9986635216665
 20
361.00017664094685
 10
699.9986635216665
 20
361.00017664094685
 10
699.9986635216665
 20
337.0010676264201
 10
688.9986635216665
 20
337.0010676264201
  0
LWPOLYLINE
  5
380
330
17
100
AcDbEntity
  8
FP-Below
100
AcDbPolyline
 90
4
 70
0
 38
-0.3403031765569822
 10
700.0946854411413
 20
489.4998796788668
 10
700.0946854411413
 20
469.00106762642736
 10
689.0946854411413
 20
469.00106762642736
 10
689.0946854411413
 20
489.49985588333493
  0
LINE
  5
381
330
17
100
AcDbEntity
  8
FP-Below
100
AcDbLine
 10
728.0911567319745
 20
489.49988380430204
 30
0.0
 11
695.0946854411413
 21
489.4998796788668
 31
0.0
  0
LINE
  5
382
330
17
100
AcDbEntity
  8
FP-Below
100
AcDbLine
 10
717.0911567319745
 20
500.49988380430204
 30
0.0
 11
695.0946854411413
 21
500.4998796788668
 31
0.0
  0
LINE
  5
383
330
17
100
AcDbEntity
  8
FP-Below
100
AcDbLine
 10
699.9986635216665
 20
97.00106762641917
 30
0.0
 11
699.9986635216665
 21
73.00017664094594
 31
0.0
  0
LWPOLYLINE
  5
384
330
17
100
AcDbEntity
  8
FP-Note
100
AcDbPolyline
 90
4
 70
0
 10
708.4022517023241
 20
574.7513819808414
 10
720.402251702315
 20
574.7513673331046
 10
720.4022272894199
 20
554.7513673331196
 10
708.4022517023241
 20
574.7513819808414
  0
LINE
  5
385
330
17
100
AcDbEntity
  8
FP-Below
100
AcDbLine
 10
717.0911567319672
 20
537.9994503843454
 30
0.0
 11
717.0911567319745
 21
500.49988380430204
 31
0.0
  0
LINE
  5
386
330
17
100
AcDbEntity
  8
FP-Below
100
AcDbLine
 10
717.0911567319672
 20
537.9994503843454
 30
0.0
 11
728.0911567319672
 21
537.9994503843454
 31
0.0
  0
LINE
  5
387
330
17
100
AcDbEntity
  8
FP-Below
100
AcDbLine
 10
717.0911567319745
 20
635.5001807663821
 30
0.0
 11
717.0911567319745
 21
597.9994503843473
 31
0.0
  0
LINE
  5
388
330
17
100
AcDbEntity
  8
FP-Below
100
AcDbLine
 10
717.0911567319745
 20
597.9994503843473
 30
0.0
 11
728.0911567319745
 21
597.9994503843473
 31
0.0
  0
LINE
  5
389
330
17
100
AcDbEntity
  8
FP-Below
100
AcDbLine
 10
728.0911567319672
 20
537.9994503843454
 30
0.0
 11
728.0911567319745
 21
489.49988380430204
 31
0.0
  0
LINE
  5
38A
330
17
100
AcDbEntity
  8
FP-Below
100
AcDbLine
 10
728.0911567319745
 20
646.5001807663821
 30
0.0
 11
728.0911567319745
 21
597.9994503843473
 31
0.0
  0
ENDSEC
  0
SECTION
  2
OBJECTS
  0
DICTIONARY
  5
A
330
0
100
AcDbDictionary
280
0
281
1
  3
ACAD_COLOR
350
B
  3
ACAD_GROUP
350
C
  3
ACAD_LAYOUT
350
D
  3
ACAD_MATERIAL
350
E
  3
ACAD_MLEADERSTYLE
350
F
  3
ACAD_MLINESTYLE
350
10
  3
ACAD_PLOTSETTINGS
350
11
  3
ACAD_PLOTSTYLENAME
350
12
  3
ACAD_SCALELIST
350
14
  3
ACAD_TABLESTYLE
350
15
  3
ACAD_VISUALSTYLE
350
16
  3
EZDXF_META
350
2D
  0
DICTIONARY
  5
B
330
A
100
AcDbDictionary
280
0
281
1
  0
DICTIONARY
  5
C
330
A
100
AcDbDictionary
280
0
281
1
  0
DICTIONARY
  5
D
330
A
100
AcDbDictionary
280
0
281
1
  3
Model
350
1A
  3
Layout1
350
1E
  0
DICTIONARY
  5
E
330
A
100
AcDbDictionary
280
0
281
1
  3
ByBlock
350
1F
  3
ByLayer
350
20
  3
Global
350
21
  0
DICTIONARY
  5
F
330
A
100
AcDbDictionary
280
0
281
1
  3
Standard
350
2C
  0
DICTIONARY
  5
10
330
A
100
AcDbDictionary
280
0
281
1
  3
Standard
350
22
  0
DICTIONARY
  5
11
330
A
100
AcDbDictionary
280
0
281
1
  0
ACDBDICTIONARYWDFLT
  5
12
330
A
100
AcDbDictionary
280
0
281
1
  3
Normal
350
13
100
AcDbDictionaryWithDefault
340
13
  0
ACDBPLACEHOLDER
  5
13
330
12
  0
DICTIONARY
  5
14
330
A
100
AcDbDictionary
280
0
281
1
  0
DICTIONARY
  5
15
330
A
100
AcDbDictionary
280
0
281
1
  0
DICTIONARY
  5
16
330
A
100
AcDbDictionary
280
0
281
1
  0
LAYOUT
  5
1A
330
D
100
AcDbPlotSettings
  1

  2
Adobe PDF
  4
A3
  6

 40
7.5
 41
20.0
 42
7.5
 43
20.0
 44
420.0
 45
297.0
 46
0.0
 47
0.0
 48
0.0
 49
0.0
140
0.0
141
0.0
142
1.0
143
1.0
 70
1024
 72
1
 73
0
 74
5
  7

 75
16
 76
0
 77
2
 78
300
147
1.0
148
0.0
149
0.0
100
AcDbLayout
  1
Model
 70
1
 71
0
 10
0.0
 20
0.0
 11
420.0
 21
297.0
 12
0.0
 22
0.0
 32
0.0
 14
1e+20
 24
1e+20
 34
1e+20
 15
-1e+20
 25
-1e+20
 35
-1e+20
146
0.0
 13
0.0
 23
0.0
 33
0.0
 16
1.0
 26
0.0
 36
0.0
 17
0.0
 27
1.0
 37
0.0
 76
1
330
17
  0
LAYOUT
  5
1E
330
D
100
AcDbPlotSettings
  1

  2
Adobe PDF
  4
A3
  6

 40
7.5
 41
20.0
 42
7.5
 43
20.0
 44
420.0
 45
297.0
 46
0.0
 47
0.0
 48
0.0
 49
0.0
140
0.0
141
0.0
142
1.0
143
1.0
 70
0
 72
1
 73
0
 74
5
  7

 75
16
 76
0
 77
2
 78
300
147
1.0
148
0.0
149
0.0
100
AcDbLayout
  1
Layout1
 70
1
 71
1
 10
0.0
 20
0.0
 11
420.0
 21
297.0
 12
0.0
 22
0.0
 32
0.0
 14
1e+20
 24
1e+20
 34
1e+20
 15
-1e+20
 25
-1e+20
 35
-1e+20
146
0.0
 13
0.0
 23
0.0
 33
0.0
 16
1.0
 26
0.0
 36
0.0
 17
0.0
 27
1.0
 37
0.0
 76
1
330
1B
  0
MATERIAL
  5
1F
102
{ACAD_REACTORS
330
E
102
}
330
E
100
AcDbMaterial
  1
ByBlock
  2

 70
0
 40
1.0
 71
1
 41
1.0
 91
-1023410177
 42
1.0
 72
1
  3

 73
1
 74
1
 75
1
 44
0.5
 73
0
 45
1.0
 46
1.0
 77
1
  4

 78
1
 79
1
170
1
 48
1.0
171
1
  6

172
1
173
1
174
1
140
1.0
141
1.0
175
1
  7

176
1
177
1
178
1
143
1.0
179
1
  8

270
1
271
1
272
1
145
1.0
146
1.0
273
1
  9

274
1
275
1
276
1
 42
1.0
 72
1
  3

 73
1
 74
1
 75
1
 94
63
  0
MATERIAL
  5
20
102
{ACAD_REACTORS
330
E
102
}
330
E
100
AcDbMaterial
  1
ByLayer
  2

 70
0
 40
1.0
 71
1
 41
1.0
 91
-1023410177
 42
1.0
 72
1
  3

 73
1
 74
1
 75
1
 44
0.5
 73
0
 45
1.0
 46
1.0
 77
1
  4

 78
1
 79
1
170
1
 48
1.0
171
1
  6

172
1
173
1
174
1
140
1.0
141
1.0
175
1
  7

176
1
177
1
178
1
143
1.0
179
1
  8

270
1
271
1
272
1
145
1.0
146
1.0
273
1
  9

274
1
275
1
276
1
 42
1.0
 72
1
  3

 73
1
 74
1
 75
1
 94
63
  0
MATERIAL
  5
21
102
{ACAD_REACTORS
330
E
102
}
330
E
100
AcDbMaterial
  1
Global
  2

 70
0
 40
1.0
 71
1
 41
1.0
 91
-1023410177
 42
1.0
 72
1
  3

 73
1
 74
1
 75
1
 44
0.5
 73
0
 45
1.0
 46
1.0
 77
1
  4

 78
1
 79
1
170
1
 48
1.0
171
1
  6

172
1
173
1
174
1
140
1.0
141
1.0
175
1
  7

176
1
177
1
178
1
143
1.0
179
1
  8

270
1
271
1
272
1
145
1.0
146
1.0
273
1
  9

274
1
275
1
276
1
 42
1.0
 72
1
  3

 73
1
 74
1
 75
1
 94
63
  0
MLINESTYLE
  5
22
102
{ACAD_REACTORS
330
10
102
}
330
10
100
AcDbMlineStyle
  2
Standard
 70
0
  3

 62
256
 51
90.0
 52
90.0
 71
2
 49
0.5
 62
256
  6
BYLAYER
 49
-0.5
 62
256
  6
BYLAYER
  0
MLEADERSTYLE
  5
2C
102
{ACAD_REACTORS
330
F
102
}
330
F
100
AcDbMLeaderStyle
179
2
170
2
171
1
172
0
 90
2
 40
0.0
 41
0.0
173
1
 91
-1056964608
 92
-2
290
1
 42
2.0
291
1
 43
8.0
  3
Standard
 44
4.0
300

342
29
174
1
175
1
176
0
178
1
 93
-1056964608
 45
4.0
292
0
297
0
 46
4.0
 94
-1056964608
 47
1.0
 49
1.0
140
1.0
294
1
141
0.0
177
0
142
1.0
295
0
296
0
143
3.75
271
0
272
9
273
9
  0
DICTIONARY
  5
2D
330
A
100
AcDbDictionary
281
1
  3
CREATED_BY_EZDXF
350
2E
  3
WRITTEN_BY_EZDXF
350
38D
  0
DICTIONARYVAR
  5
2E
330
2D
100
DictionaryVariables
280
0
  1
1.1.4 @ 2024-01-19T12:24:38.260052+00:00
  0
DICTIONARYVAR
  5
38D
330
2D
100
DictionaryVariables
280
0
  1
1.1.4 @ 2024-01-19T12:24:44.250456+00:00
  0
ENDSEC
  0
EOF
