  0
SECTION
  2
HEADER
  9
$ACADVER
  1
AC1027
  9
$ACADMAINTVER
 70
105
  9
$DWGCODEPAGE
  3
ANSI_1252
  9
$LASTSAVEDBY
  1
ezdxf
  9
$REQUIREDVERSIONS
160
0
  9
$INSBASE
 10
0.0
 20
0.0
 30
0.0
  9
$EXTMIN
 10
1e+20
 20
1e+20
 30
1e+20
  9
$EXTMAX
 10
-1e+20
 20
-1e+20
 30
-1e+20
  9
$LIMMIN
 10
0.0
 20
0.0
  9
$LIMMAX
 10
420.0
 20
297.0
  9
$ORTHOMODE
 70
0
  9
$REGENMODE
 70
1
  9
$FILLMODE
 70
1
  9
$QTEXTMODE
 70
0
  9
$MIRRTEXT
 70
1
  9
$LTSCALE
 40
1.0
  9
$ATTMODE
 70
1
  9
$TEXTSIZE
 40
2.5
  9
$TRACEWID
 40
1.0
  9
$TEXTSTYLE
  7
Standard
  9
$CLAYER
  8
0
  9
$CELTYPE
  6
ByLayer
  9
$CECOLOR
 62
256
  9
$CELTSCALE
 40
1.0
  9
$DISPSILH
 70
0
  9
$DIMSCALE
 40
1.0
  9
$DIMASZ
 40
2.5
  9
$DIMEXO
 40
0.625
  9
$DIMDLI
 40
3.75
  9
$DIMRND
 40
0.0
  9
$DIMDLE
 40
0.0
  9
$DIMEXE
 40
1.25
  9
$DIMTP
 40
0.0
  9
$DIMTM
 40
0.0
  9
$DIMTXT
 40
2.5
  9
$DIMCEN
 40
2.5
  9
$DIMTSZ
 40
0.0
  9
$DIMTOL
 70
0
  9
$DIMLIM
 70
0
  9
$DIMTIH
 70
0
  9
$DIMTOH
 70
0
  9
$DIMSE1
 70
0
  9
$DIMSE2
 70
0
  9
$DIMTAD
 70
1
  9
$DIMZIN
 70
8
  9
$DIMBLK
  1

  9
$DIMASO
 70
1
  9
$DIMSHO
 70
1
  9
$DIMPOST
  1

  9
$DIMAPOST
  1

  9
$DIMALT
 70
0
  9
$DIMALTD
 70
3
  9
$DIMALTF
 40
0.03937007874
  9
$DIMLFAC
 40
1.0
  9
$DIMTOFL
 70
1
  9
$DIMTVP
 40
0.0
  9
$DIMTIX
 70
0
  9
$DIMSOXD
 70
0
  9
$DIMSAH
 70
0
  9
$DIMBLK1
  1

  9
$DIMBLK2
  1

  9
$DIMSTYLE
  2
ISO-25
  9
$DIMCLRD
 70
0
  9
$DIMCLRE
 70
0
  9
$DIMCLRT
 70
0
  9
$DIMTFAC
 40
1.0
  9
$DIMGAP
 40
0.625
  9
$DIMJUST
 70
0
  9
$DIMSD1
 70
0
  9
$DIMSD2
 70
0
  9
$DIMTOLJ
 70
0
  9
$DIMTZIN
 70
8
  9
$DIMALTZ
 70
0
  9
$DIMALTTZ
 70
0
  9
$DIMUPT
 70
0
  9
$DIMDEC
 70
2
  9
$DIMTDEC
 70
2
  9
$DIMALTU
 70
2
  9
$DIMALTTD
 70
3
  9
$DIMTXSTY
  7
Standard
  9
$DIMAUNIT
 70
0
  9
$DIMADEC
 70
0
  9
$DIMALTRND
 40
0.0
  9
$DIMAZIN
 70
0
  9
$DIMDSEP
 70
44
  9
$DIMATFIT
 70
3
  9
$DIMFRAC
 70
0
  9
$DIMLDRBLK
  1

  9
$DIMLUNIT
 70
2
  9
$DIMLWD
 70
-2
  9
$DIMLWE
 70
-2
  9
$DIMTMOVE
 70
0
  9
$DIMFXL
 40
1.0
  9
$DIMFXLON
 70
0
  9
$DIMJOGANG
 40
0.785398163397
  9
$DIMTFILL
 70
0
  9
$DIMTFILLCLR
 70
0
  9
$DIMARCSYM
 70
0
  9
$DIMLTYPE
  6

  9
$DIMLTEX1
  6

  9
$DIMLTEX2
  6

  9
$DIMTXTDIRECTION
 70
0
  9
$LUNITS
 70
2
  9
$LUPREC
 70
4
  9
$SKETCHINC
 40
1.0
  9
$FILLETRAD
 40
10.0
  9
$AUNITS
 70
0
  9
$AUPREC
 70
2
  9
$MENU
  1
.
  9
$ELEVATION
 40
0.0
  9
$PELEVATION
 40
0.0
  9
$THICKNESS
 40
0.0
  9
$LIMCHECK
 70
0
  9
$CHAMFERA
 40
0.0
  9
$CHAMFERB
 40
0.0
  9
$CHAMFERC
 40
0.0
  9
$CHAMFERD
 40
0.0
  9
$SKPOLY
 70
0
  9
$TDCREATE
 40
2460332.886099537
  9
$TDUCREATE
 40
2458532.153996898
  9
$TDUPDATE
 40
2460332.886099537
  9
$TDUUPDATE
 40
2458532.1544311
  9
$TDINDWG
 40
0.0
  9
$TDUSRTIMER
 40
0.0
  9
$USRTIMER
 70
1
  9
$ANGBASE
 50
0.0
  9
$ANGDIR
 70
0
  9
$PDMODE
 70
0
  9
$PDSIZE
 40
0.0
  9
$PLINEWID
 40
0.0
  9
$SPLFRAME
 70
0
  9
$SPLINETYPE
 70
6
  9
$SPLINESEGS
 70
8
  9
$HANDSEED
  5
19E
  9
$SURFTAB1
 70
6
  9
$SURFTAB2
 70
6
  9
$SURFTYPE
 70
6
  9
$SURFU
 70
6
  9
$SURFV
 70
6
  9
$UCSBASE
  2

  9
$UCSNAME
  2

  9
$UCSORG
 10
0.0
 20
0.0
 30
0.0
  9
$UCSXDIR
 10
1.0
 20
0.0
 30
0.0
  9
$UCSYDIR
 10
0.0
 20
1.0
 30
0.0
  9
$UCSORTHOREF
  2

  9
$UCSORTHOVIEW
 70
0
  9
$UCSORGTOP
 10
0.0
 20
0.0
 30
0.0
  9
$UCSORGBOTTOM
 10
0.0
 20
0.0
 30
0.0
  9
$UCSORGLEFT
 10
0.0
 20
0.0
 30
0.0
  9
$UCSORGRIGHT
 10
0.0
 20
0.0
 30
0.0
  9
$UCSORGFRONT
 10
0.0
 20
0.0
 30
0.0
  9
$UCSORGBACK
 10
0.0
 20
0.0
 30
0.0
  9
$PUCSBASE
  2

  9
$PUCSNAME
  2

  9
$PUCSORG
 10
0.0
 20
0.0
 30
0.0
  9
$PUCSXDIR
 10
1.0
 20
0.0
 30
0.0
  9
$PUCSYDIR
 10
0.0
 20
1.0
 30
0.0
  9
$PUCSORTHOREF
  2

  9
$PUCSORTHOVIEW
 70
0
  9
$PUCSORGTOP
 10
0.0
 20
0.0
 30
0.0
  9
$PUCSORGBOTTOM
 10
0.0
 20
0.0
 30
0.0
  9
$PUCSORGLEFT
 10
0.0
 20
0.0
 30
0.0
  9
$PUCSORGRIGHT
 10
0.0
 20
0.0
 30
0.0
  9
$PUCSORGFRONT
 10
0.0
 20
0.0
 30
0.0
  9
$PUCSORGBACK
 10
0.0
 20
0.0
 30
0.0
  9
$USERI1
 70
0
  9
$USERI2
 70
0
  9
$USERI3
 70
0
  9
$USERI4
 70
0
  9
$USERI5
 70
0
  9
$USERR1
 40
0.0
  9
$USERR2
 40
0.0
  9
$USERR3
 40
0.0
  9
$USERR4
 40
0.0
  9
$USERR5
 40
0.0
  9
$WORLDVIEW
 70
1
  9
$SHADEDGE
 70
3
  9
$SHADEDIF
 70
70
  9
$TILEMODE
 70
1
  9
$MAXACTVP
 70
64
  9
$PINSBASE
 10
0.0
 20
0.0
 30
0.0
  9
$PLIMCHECK
 70
0
  9
$PEXTMIN
 10
1e+20
 20
1e+20
 30
1e+20
  9
$PEXTMAX
 10
-1e+20
 20
-1e+20
 30
-1e+20
  9
$PLIMMIN
 10
0.0
 20
0.0
  9
$PLIMMAX
 10
420.0
 20
297.0
  9
$UNITMODE
 70
0
  9
$VISRETAIN
 70
1
  9
$PLINEGEN
 70
0
  9
$PSLTSCALE
 70
1
  9
$TREEDEPTH
 70
3020
  9
$CMLSTYLE
  2
Standard
  9
$CMLJUST
 70
0
  9
$CMLSCALE
 40
20.0
  9
$PROXYGRAPHICS
 70
1
  9
$MEASUREMENT
 70
1
  9
$CELWEIGHT
370
-1
  9
$ENDCAPS
280
0
  9
$JOINSTYLE
280
0
  9
$LWDISPLAY
290
0
  9
$INSUNITS
 70
6
  9
$HYPERLINKBASE
  1

  9
$STYLESHEET
  1

  9
$XEDIT
290
1
  9
$CEPSNTYPE
380
0
  9
$PSTYLEMODE
290
1
  9
$FINGERPRINTGUID
  2
{96328E5A-B66A-4625-81F6-1B84215FAA11}
  9
$VERSIONGUID
  2
{0D09E88A-5B46-4D43-83E0-8C6912D1219A}
  9
$EXTNAMES
290
1
  9
$PSVPSCALE
 40
0.0
  9
$OLESTARTUP
290
0
  9
$SORTENTS
280
127
  9
$INDEXCTL
280
0
  9
$HIDETEXT
280
1
  9
$XCLIPFRAME
280
0
  9
$HALOGAP
280
0
  9
$OBSCOLOR
 70
257
  9
$OBSLTYPE
280
0
  9
$INTERSECTIONDISPLAY
280
0
  9
$INTERSECTIONCOLOR
 70
257
  9
$DIMASSOC
280
2
  9
$PROJECTNAME
  1

  9
$CAMERADISPLAY
290
0
  9
$LENSLENGTH
 40
50.0
  9
$CAMERAHEIGHT
 40
0.0
  9
$STEPSPERSEC
 40
24.0
  9
$STEPSIZE
 40
100.0
  9
$3DDWFPREC
 40
2.0
  9
$PSOLWIDTH
 40
0.005
  9
$PSOLHEIGHT
 40
0.08
  9
$LOFTANG1
 40
1.570796326795
  9
$LOFTANG2
 40
1.570796326795
  9
$LOFTMAG1
 40
0.0
  9
$LOFTMAG2
 40
0.0
  9
$LOFTPARAM
 70
7
  9
$LOFTNORMALS
280
1
  9
$LATITUDE
 40
37.795
  9
$LONGITUDE
 40
-122.394
  9
$NORTHDIRECTION
 40
0.0
  9
$TIMEZONE
 70
-8000
  9
$LIGHTGLYPHDISPLAY
280
1
  9
$TILEMODELIGHTSYNCH
280
1
  9
$CMATERIAL
347
20
  9
$SOLIDHIST
280
0
  9
$SHOWHIST
280
1
  9
$DWFFRAME
280
2
  9
$DGNFRAME
280
2
  9
$REALWORLDSCALE
290
1
  9
$INTERFERECOLOR
 62
256
  9
$CSHADOW
280
0
  9
$SHADOWPLANELOCATION
 40
0.0
  0
ENDSEC
  0
SECTION
  2
CLASSES
  0
CLASS
  1
ACDBDICTIONARYWDFLT
  2
AcDbDictionaryWithDefault
  3
ObjectDBX Classes
 90
0
 91
0
280
0
281
0
  0
CLASS
  1
SUN
  2
AcDbSun
  3
SCENEOE
 90
1153
 91
0
280
0
281
0
  0
CLASS
  1
VISUALSTYLE
  2
AcDbVisualStyle
  3
ObjectDBX Classes
 90
4095
 91
0
280
0
281
0
  0
CLASS
  1
MATERIAL
  2
AcDbMaterial
  3
ObjectDBX Classes
 90
1153
 91
0
280
0
281
0
  0
CLASS
  1
SCALE
  2
AcDbScale
  3
ObjectDBX Classes
 90
1153
 91
0
280
0
281
0
  0
CLASS
  1
TABLESTYLE
  2
AcDbTableStyle
  3
ObjectDBX Classes
 90
4095
 91
0
280
0
281
0
  0
CLASS
  1
MLEADERSTYLE
  2
AcDbMLeaderStyle
  3
ACDB_MLEADERSTYLE_CLASS
 90
4095
 91
0
280
0
281
0
  0
CLASS
  1
DICTIONARYVAR
  2
AcDbDictionaryVar
  3
ObjectDBX Classes
 90
0
 91
0
280
0
281
0
  0
CLASS
  1
CELLSTYLEMAP
  2
AcDbCellStyleMap
  3
ObjectDBX Classes
 90
1152
 91
0
280
0
281
0
  0
CLASS
  1
MENTALRAYRENDERSETTINGS
  2
AcDbMentalRayRenderSettings
  3
SCENEOE
 90
1024
 91
0
280
0
281
0
  0
CLASS
  1
ACDBDETAILVIEWSTYLE
  2
AcDbDetailViewStyle
  3
ObjectDBX Classes
 90
1025
 91
0
280
0
281
0
  0
CLASS
  1
ACDBSECTIONVIEWSTYLE
  2
AcDbSectionViewStyle
  3
ObjectDBX Classes
 90
1025
 91
0
280
0
281
0
  0
CLASS
  1
RASTERVARIABLES
  2
AcDbRasterVariables
  3
ISM
 90
0
 91
0
280
0
281
0
  0
CLASS
  1
ACDBPLACEHOLDER
  2
AcDbPlaceHolder
  3
ObjectDBX Classes
 90
0
 91
0
280
0
281
0
  0
CLASS
  1
LAYOUT
  2
AcDbLayout
  3
ObjectDBX Classes
 90
0
 91
0
280
0
281
0
  0
ENDSEC
  0
SECTION
  2
TABLES
  0
TABLE
  2
VPORT
  5
8
330
0
100
AcDbSymbolTable
 70
1
  0
VPORT
  5
23
330
8
100
AcDbSymbolTableRecord
100
AcDbViewportTableRecord
  2
*Active
 70
0
 10
0.0
 20
0.0
 11
1.0
 21
1.0
 12
0.0
 22
0.0
 13
0.0
 23
0.0
 14
0.5
 24
0.5
 15
0.5
 25
0.5
 16
0.0
 26
0.0
 36
1.0
 17
0.0
 27
0.0
 37
0.0
 40
1000.0
 41
1.34
 42
50.0
 43
0.0
 44
0.0
 50
0.0
 51
0.0
 71
0
 72
1000
 73
1
 74
3
 75
0
 76
0
 77
0
 78
0
281
0
 65
0
146
0.0
  0
ENDTAB
  0
TABLE
  2
LTYPE
  5
2
330
0
100
AcDbSymbolTable
 70
3
  0
LTYPE
  5
24
330
2
100
AcDbSymbolTableRecord
100
AcDbLinetypeTableRecord
  2
ByBlock
 70
0
  3

 72
65
 73
0
 40
0.0
  0
LTYPE
  5
25
330
2
100
AcDbSymbolTableRecord
100
AcDbLinetypeTableRecord
  2
ByLayer
 70
0
  3

 72
65
 73
0
 40
0.0
  0
LTYPE
  5
26
330
2
100
AcDbSymbolTableRecord
100
AcDbLinetypeTableRecord
  2
Continuous
 70
0
  3

 72
65
 73
0
 40
0.0
  0
ENDTAB
  0
TABLE
  2
LAYER
  5
1
330
0
100
AcDbSymbolTable
 70
2
  0
LAYER
  5
27
330
1
100
AcDbSymbolTableRecord
100
AcDbLayerTableRecord
  2
0
 70
0
 62
7
  6
Continuous
370
-3
390
13
347
21
  0
LAYER
  5
28
330
1
100
AcDbSymbolTableRecord
100
AcDbLayerTableRecord
  2
Defpoints
 70
0
 62
7
  6
Continuous
290
0
370
-3
390
13
347
21
  0
ENDTAB
  0
TABLE
  2
STYLE
  5
5
330
0
100
AcDbSymbolTable
 70
1
  0
STYLE
  5
29
330
5
100
AcDbSymbolTableRecord
100
AcDbTextStyleTableRecord
  2
Standard
 70
0
 40
0.0
 41
1.0
 50
0.0
 71
0
 42
2.5
  3
txt
  4

  0
ENDTAB
  0
TABLE
  2
VIEW
  5
7
330
0
100
AcDbSymbolTable
 70
0
  0
ENDTAB
  0
TABLE
  2
UCS
  5
6
330
0
100
AcDbSymbolTable
 70
0
  0
ENDTAB
  0
TABLE
  2
APPID
  5
3
330
0
100
AcDbSymbolTable
 70
3
  0
APPID
  5
2A
330
3
100
AcDbSymbolTableRecord
100
AcDbRegAppTableRecord
  2
ACAD
 70
0
  0
APPID
  5
19B
330
3
100
AcDbSymbolTableRecord
100
AcDbRegAppTableRecord
  2
HATCHBACKGROUNDCOLOR
 70
0
  0
APPID
  5
19C
330
3
100
AcDbSymbolTableRecord
100
AcDbRegAppTableRecord
  2
EZDXF
 70
0
  0
ENDTAB
  0
TABLE
  2
DIMSTYLE
  5
4
330
0
100
AcDbSymbolTable
 70
1
100
AcDbDimStyleTable
  0
DIMSTYLE
105
2B
330
4
100
AcDbSymbolTableRecord
100
AcDbDimStyleTableRecord
  2
Standard
 70
0
 40
1.0
 41
2.5
 42
0.625
 43
3.75
 44
1.25
 45
0.0
 46
0.0
 47
0.0
 48
0.0
 49
2.5
140
2.5
141
2.5
142
0.0
143
0.03937007874
144
1.0
145
0.0
146
1.0
147
0.625
148
0.0
 69
0
 70
0
 71
0
 72
0
 73
0
 74
0
 75
0
 76
0
 77
1
 78
8
 79
3
170
0
171
3
172
1
173
0
174
0
175
0
176
0
177
0
178
0
179
2
271
2
272
2
273
2
274
3
275
0
276
0
277
2
278
44
279
0
280
0
281
0
282
0
283
0
284
8
285
0
286
0
288
0
289
3
290
0
371
-2
372
-2
  0
ENDTAB
  0
TABLE
  2
BLOCK_RECORD
  5
9
330
0
100
AcDbSymbolTable
 70
2
  0
BLOCK_RECORD
  5
17
330
9
100
AcDbSymbolTableRecord
100
AcDbBlockTableRecord
  2
*Model_Space
340
1A
 70
0
280
1
281
0
  0
BLOCK_RECORD
  5
1B
330
9
100
AcDbSymbolTableRecord
100
AcDbBlockTableRecord
  2
*Paper_Space
340
1E
 70
0
280
1
281
0
  0
ENDTAB
  0
ENDSEC
  0
SECTION
  2
BLOCKS
  0
BLOCK
  5
18
330
17
100
AcDbEntity
  8
0
100
AcDbBlockBegin
  2
*Model_Space
 70
0
 10
0.0
 20
0.0
 30
0.0
  3
*Model_Space
  1

  0
ENDBLK
  5
19
330
17
100
AcDbEntity
  8
0
100
AcDbBlockEnd
  0
BLOCK
  5
1C
330
1B
100
AcDbEntity
  8
0
100
AcDbBlockBegin
  2
*Paper_Space
 70
0
 10
0.0
 20
0.0
 30
0.0
  3
*Paper_Space
  1

  0
ENDBLK
  5
1D
330
1B
100
AcDbEntity
  8
0
100
AcDbBlockEnd
  0
ENDSEC
  0
SECTION
  2
ENTITIES
  0
LWPOLYLINE
  5
2F
330
17
100
AcDbEntity
  8
FP-Window
100
AcDbPolyline
 90
5
 70
0
 10
-112.99866352174831
 20
68.00000000001978
 10
-175.99866352177014
 20
67.99999999998067
 10
-175.99866352177196
 20
325.99999999999864
 10
-175.99866352177196
 20
361.99999999999864
 10
-112.9986635217756
 20
361.99999999999864
  0
LWPOLYLINE
  5
30
330
17
100
AcDbEntity
  8
FP-Window
100
AcDbPolyline
 90
5
 70
0
 10
-112.99866352175559
 20
80.00000000001978
 10
-163.99866352177014
 20
79.99999999998818
 10
-163.99866352177196
 20
325.99999999999864
 10
-163.99866352177196
 20
349.99999999999864
 10
-112.9986635217756
 20
349.99999999999864
  0
LWPOLYLINE
  5
31
330
17
100
AcDbEntity
  8
FP-Window
100
AcDbPolyline
 90
5
 70
0
 10
-112.99866352176286
 20
92.00000000001978
 10
-151.99866352177014
 20
91.99999999999568
 10
-151.99866352177196
 20
325.99999999999864
 10
-151.99866352177196
 20
337.99999999999864
 10
-112.9986635217756
 20
337.99999999999864
  0
LWPOLYLINE
  5
32
330
17
100
AcDbEntity
  8
FP-Stair
100
AcDbPolyline
 90
4
 70
0
 10
-139.99866352179197
 20
300.9999999999968
 10
-141.99866352179197
 20
300.9999999999968
 10
-141.99866352179197
 20
128.99999999999636
 10
-139.99866352179197
 20
128.99999999999636
  0
LINE
  5
33
330
17
100
AcDbEntity
  8
FP-Proposed Wall
100
AcDbLine
 10
-128.99866352179197
 20
130.99999999999636
 30
0.0
 11
-139.99866352179197
 21
130.99999999999636
 31
0.0
  0
LINE
  5
34
330
17
100
AcDbEntity
  8
FP-Proposed Wall
100
AcDbLine
 10
-128.99866352179197
 20
298.9999999999968
 30
0.0
 11
-139.99866352179197
 21
298.9999999999968
 31
0.0
  0
LINE
  5
35
330
17
100
AcDbEntity
  8
FP-Proposed Wall
100
AcDbLine
 10
-139.99866352179197
 20
298.9999999999968
 30
0.0
 11
-139.99866352177014
 21
325.99999999999386
 31
0.0
  0
LWPOLYLINE
  5
36
330
17
100
AcDbEntity
  8
0
100
AcDbPolyline
 90
13
 70
0
 10
-112.9986635217283
 20
393.9999999999966
 10
-22.500000000003638
 20
394.00000000003865
 10
-22.500000000003638
 20
406.00000000003865
 10
85.49999999999454
 20
406.00000000003865
 10
85.49999999999636
 20
394.00000000003865
 10
175.99866352177196
 20
394.00000000008004
 10
175.99866352177196
 20
35.99999999999636
 10
-112.9986635217756
 20
35.99999999999636
 10
-112.9986635217756
 20
103.99999999999795
 10
-139.99866352177014
 20
103.99999999999568
 10
-139.99866352177014
 20
325.99999999999386
 10
-112.99866352177014
 20
325.99999999999477
 10
-112.9986635217283
 20
393.9999999999966
  0
LINE
  5
37
330
17
100
AcDbEntity
  8
FP-Proposed Wall
100
AcDbLine
 10
-139.99866352177014
 20
130.99999999999636
 30
0.0
 11
-139.99866352177014
 21
103.99999999999568
 31
0.0
  0
LINE
  5
38
330
17
100
AcDbEntity
  8
FP-Proposed Wall
100
AcDbLine
 10
-112.99866352177014
 20
103.99999999999795
 30
0.0
 11
-139.99866352177014
 21
103.99999999999886
 31
0.0
  0
LINE
  5
39
330
17
100
AcDbEntity
  8
FP-Proposed Wall
100
AcDbLine
 10
-112.99866352177014
 20
325.99999999999477
 30
0.0
 11
-139.99866352177014
 21
325.99999999999386
 31
0.0
  0
LINE
  5
3A
330
17
100
AcDbEntity
  8
FP-Proposed Wall
100
AcDbLine
 10
-112.99866352177014
 20
325.9999999999952
 30
0.0
 11
-139.99866352177014
 21
325.9999999999943
 31
0.0
  0
LINE
  5
3B
330
17
100
AcDbEntity
  8
FP-Wall Detail
100
AcDbLine
 10
-109.49866352177196
 20
107.49999999999795
 30
0.0
 11
-136.49866352177014
 21
107.49999999999864
 31
0.0
  0
LINE
  5
3C
330
17
100
AcDbEntity
  8
FP-Wall Detail
100
AcDbLine
 10
-136.49866352177014
 20
130.99999999999636
 30
0.0
 11
-136.49866352177014
 21
107.49999999999864
 31
0.0
  0
LINE
  5
3D
330
17
100
AcDbEntity
  8
FP-Wall Detail
100
AcDbLine
 10
-136.49866352177014
 20
298.9999999999968
 30
0.0
 11
-136.49866352177014
 21
322.49999999999454
 31
0.0
  0
LINE
  5
3E
330
17
100
AcDbEntity
  8
FP-Wall Detail
100
AcDbLine
 10
-109.49866352177196
 20
322.4999999999952
 30
0.0
 11
-136.49866352177014
 21
322.49999999999454
 31
0.0
  0
LINE
  5
3F
330
17
100
AcDbEntity
  8
FP-Wall Detail
100
AcDbLine
 10
-108.49866352177196
 20
108.49999999999795
 30
0.0
 11
-135.49866352177014
 21
108.49999999999864
 31
0.0
  0
LINE
  5
40
330
17
100
AcDbEntity
  8
FP-Wall Detail
100
AcDbLine
 10
-135.49866352177014
 20
130.99999999999636
 30
0.0
 11
-135.49866352177014
 21
108.49999999999864
 31
0.0
  0
LINE
  5
41
330
17
100
AcDbEntity
  8
FP-Wall Detail
100
AcDbLine
 10
-135.49866352177014
 20
298.9999999999968
 30
0.0
 11
-135.49866352177014
 21
321.49999999999454
 31
0.0
  0
LINE
  5
42
330
17
100
AcDbEntity
  8
FP-Wall Detail
100
AcDbLine
 10
-108.49866352177196
 20
321.4999999999952
 30
0.0
 11
-135.49866352177014
 21
321.49999999999454
 31
0.0
  0
LWPOLYLINE
  5
43
330
17
100
AcDbEntity
  8
FP-Door
100
AcDbPolyline
 90
4
 70
1
 38
-0.6619084090653821
 10
-114.69967364860713
 20
150.79898987317938
 10
-115.58339920563958
 20
151.68271543021547
 10
-135.38238907882442
 20
131.88372555703245
 10
-134.49866352178833
 20
130.99999999999636
  0
LWPOLYLINE
  5
44
330
17
100
AcDbEntity
  8
FP-Door
100
AcDbPolyline
 90
4
 70
1
 38
-0.6619084090653821
 10
-114.69967364860713
 20
152.56644098725155
 10
-115.58339920563958
 20
151.68271543021547
 10
-135.38238907882442
 20
171.48170530339848
 10
-134.49866352178833
 20
172.36543086043457
  0
LWPOLYLINE
  5
45
330
17
100
AcDbEntity
  8
FP-Door
100
AcDbPolyline
 90
4
 70
1
 38
-0.6619084090653821
 10
-114.69967364860713
 20
192.1644207336176
 10
-115.58339920563958
 20
193.04814629065368
 10
-135.38238907882442
 20
173.24915641747066
 10
-134.49866352178833
 20
172.36543086043457
  0
LWPOLYLINE
  5
46
330
17
100
AcDbEntity
  8
FP-Door
100
AcDbPolyline
 90
4
 70
1
 38
-0.6619084090653821
 10
-114.69967364860713
 20
237.8355792663756
 10
-115.58339920563958
 20
236.9518537093395
 10
-135.38238907882442
 20
256.7508435825225
 10
-134.49866352178833
 20
257.6345691395586
  0
LWPOLYLINE
  5
47
330
17
100
AcDbEntity
  8
FP-Door
100
AcDbPolyline
 90
4
 70
1
 38
-0.6619084090653821
 10
-114.69967364860713
 20
277.4335590127416
 10
-115.58339920563958
 20
278.3172845697777
 10
-135.38238907882442
 20
258.5182946965947
 10
-134.49866352178833
 20
257.6345691395586
  0
LWPOLYLINE
  5
48
330
17
100
AcDbEntity
  8
FP-Door
100
AcDbPolyline
 90
4
 70
1
 38
-0.6619084090653821
 10
-114.69967364860713
 20
279.2010101268138
 10
-115.58339920563958
 20
278.3172845697777
 10
-135.38238907882442
 20
298.11627444296073
 10
-134.49866352178833
 20
298.9999999999968
  0
LINE
  5
49
330
17
100
AcDbEntity
  8
FP-Wall Detail
100
AcDbLine
 10
-107.99866352177196
 20
108.99999999999727
 30
0.0
 11
-134.99866352177014
 21
108.99999999999864
 31
0.0
  0
LINE
  5
4A
330
17
100
AcDbEntity
  8
FP-Wall Detail
100
AcDbLine
 10
-134.99866352177014
 20
130.99999999999636
 30
0.0
 11
-134.99866352177014
 21
108.99999999999864
 31
0.0
  0
LINE
  5
4B
330
17
100
AcDbEntity
  8
FP-Wall Detail
100
AcDbLine
 10
-134.99866352177014
 20
298.9999999999968
 30
0.0
 11
-134.99866352177014
 21
320.99999999999454
 31
0.0
  0
LINE
  5
4C
330
17
100
AcDbEntity
  8
FP-Wall Detail
100
AcDbLine
 10
-107.99866352177196
 20
320.9999999999959
 30
0.0
 11
-134.99866352177014
 21
320.99999999999454
 31
0.0
  0
LINE
  5
4D
330
17
100
AcDbEntity
  8
FP-Wall Detail
100
AcDbLine
 10
-129.4986635217283
 20
114.49999999999659
 30
0.0
 11
-129.49866352173376
 21
130.99999999999613
 31
0.0
  0
LINE
  5
4E
330
17
100
AcDbEntity
  8
FP-Wall Detail
100
AcDbLine
 10
-129.4986635217283
 20
315.4999999999966
 30
0.0
 11
-129.49866352173376
 21
298.99999999999704
 31
0.0
  0
LINE
  5
4F
330
17
100
AcDbEntity
  8
FP-Wall Detail
100
AcDbLine
 10
-129.4986635217283
 20
114.49999999999659
 30
0.0
 11
-102.49866352177196
 21
114.49999999999841
 31
0.0
  0
LINE
  5
50
330
17
100
AcDbEntity
  8
FP-Wall Detail
100
AcDbLine
 10
-129.4986635217283
 20
315.4999999999966
 30
0.0
 11
-102.49866352177196
 21
315.49999999999477
 31
0.0
  0
LINE
  5
51
330
17
100
AcDbEntity
  8
FP-Furniture
100
AcDbLine
 10
-128.99866352179924
 20
298.9999999999968
 30
0.0
 11
-128.99866352179924
 21
130.99999999999636
 31
0.0
  0
LINE
  5
52
330
17
100
AcDbEntity
  8
FP-Proposed Wall
100
AcDbLine
 10
-128.99866352179924
 20
298.9999999999968
 30
0.0
 11
-128.99866352179924
 21
298.9999999999968
 31
0.0
  0
LINE
  5
53
330
17
100
AcDbEntity
  8
FP-Proposed Wall
100
AcDbLine
 10
-128.99866352177014
 20
114.99999999999636
 30
0.0
 11
-112.99866352176468
 21
114.99999999999773
 31
0.0
  0
LINE
  5
54
330
17
100
AcDbEntity
  8
FP-Proposed Wall
100
AcDbLine
 10
-128.99866352173194
 20
298.9999999999968
 30
0.0
 11
-128.99866352176468
 21
315.0000000000009
 31
0.0
  0
LINE
  5
55
330
17
100
AcDbEntity
  8
FP-Proposed Wall
100
AcDbLine
 10
-101.99866352173558
 20
314.9999999999993
 30
0.0
 11
-128.99866352176468
 21
315.0000000000009
 31
0.0
  0
LINE
  5
56
330
17
100
AcDbEntity
  8
FP-Proposed Wall
100
AcDbLine
 10
-128.9986635217283
 20
114.99999999999636
 30
0.0
 11
-128.99866352173376
 21
130.99999999999636
 31
0.0
  0
LINE
  5
57
330
17
100
AcDbEntity
  8
FP-Window
100
AcDbLine
 10
-112.99866352178105
 20
57.00000000002183
 30
0.0
 11
-114.99866352178105
 21
57.00000000002183
 31
0.0
  0
LINE
  5
58
330
17
100
AcDbEntity
  8
FP-Window
100
AcDbLine
 10
-114.99866352178105
 20
57.00000000002183
 30
0.0
 11
-114.99866352176286
 21
97.00000000002206
 31
0.0
  0
LINE
  5
59
330
17
100
AcDbEntity
  8
FP-Window
100
AcDbLine
 10
-114.99866352178105
 20
372.99999999997135
 30
0.0
 11
-114.99866352176286
 21
332.9999999999711
 31
0.0
  0
LINE
  5
5A
330
17
100
AcDbEntity
  8
FP-Window
100
AcDbLine
 10
-112.99866352178105
 20
372.99999999997135
 30
0.0
 11
-114.99866352178105
 21
372.99999999997135
 31
0.0
  0
LINE
  5
5B
330
17
100
AcDbEntity
  8
FP-Window
100
AcDbLine
 10
-114.99866352176286
 20
97.00000000002206
 30
0.0
 11
-112.99866352176286
 21
97.00000000002206
 31
0.0
  0
LINE
  5
5C
330
17
100
AcDbEntity
  8
FP-Window
100
AcDbLine
 10
-114.99866352176286
 20
332.9999999999711
 30
0.0
 11
-112.99866352176286
 21
332.9999999999711
 31
0.0
  0
LINE
  5
5D
330
17
100
AcDbEntity
  8
FP-Proposed Wall
100
AcDbLine
 10
-112.9986635217756
 20
58.99999999999636
 30
0.0
 11
-112.9986635217756
 21
35.99999999999636
 31
0.0
  0
LINE
  5
5E
330
17
100
AcDbEntity
  8
FP-Proposed Wall
100
AcDbLine
 10
-112.9986635217756
 20
35.99999999999636
 30
0.0
 11
-4.49703088874594
 21
35.99999999999636
 31
0.0
  0
LWPOLYLINE
  5
5F
330
17
100
AcDbEntity
  8
FP-Proposed Wall
100
AcDbPolyline
 90
3
 70
0
 10
-101.99866352177378
 20
94.99999999999454
 10
-112.99866352177378
 20
94.99999999999454
 10
-112.9986635217756
 20
103.99999999999795
  0
LWPOLYLINE
  5
60
330
17
100
AcDbEntity
  8
FP-Proposed Wall
100
AcDbPolyline
 90
4
 70
0
 10
-101.99866352176832
 20
114.99999999999636
 10
-101.9986635217756
 20
114.99999999999386
 10
-112.9986635217756
 20
114.99999999999386
 10
-112.99866352176832
 20
114.99999999999636
  0
LINE
  5
61
330
17
100
AcDbEntity
  8
FP-Proposed Wall
100
AcDbLine
 10
-112.9986635217756
 20
393.9999999999968
 30
0.0
 11
-112.9986635217756
 21
370.9999999999968
 31
0.0
  0
LINE
  5
62
330
17
100
AcDbEntity
  8
FP-Proposed Wall
100
AcDbLine
 10
-80.24933176089326
 20
393.999999999995
 30
0.0
 11
-112.9986635217756
 21
393.9999999999968
 31
0.0
  0
LINE
  5
63
330
17
100
AcDbEntity
  8
FP-Proposed Wall
100
AcDbLine
 10
-101.9986635217756
 20
58.99999999999636
 30
0.0
 11
-112.99866352177196
 21
58.99999999999636
 31
0.0
  0
LINE
  5
64
330
17
100
AcDbEntity
  8
FP-Proposed Wall
100
AcDbLine
 10
-101.9986635217756
 20
370.9999999999968
 30
0.0
 11
-112.99866352177196
 21
370.9999999999968
 31
0.0
  0
LINE
  5
65
330
17
100
AcDbEntity
  8
FP-Proposed Wall
100
AcDbLine
 10
-112.99866352169374
 20
334.99999999999864
 30
0.0
 11
-112.99866352169374
 21
325.99999999999477
 31
0.0
  0
LINE
  5
66
330
17
100
AcDbEntity
  8
FP-Proposed Wall
100
AcDbLine
 10
-101.99866352169738
 20
334.99999999999864
 30
0.0
 11
-112.99866352169374
 21
334.99999999999864
 31
0.0
  0
LWPOLYLINE
  5
67
330
17
100
AcDbEntity
  8
FP-Window
100
AcDbPolyline
 90
9
 70
0
 10
-111.89205607474287
 20
59.00000000002183
 10
-111.89205607474287
 20
60.00000000002183
 10
-108.89205607474287
 20
60.00000000002183
 10
-108.89205607474287
 20
60.50000000002183
 10
-108.39205607474287
 20
60.50000000002183
 10
-108.39205607474287
 20
60.00000000002183
 10
-106.39205607474287
 20
60.00000000002183
 10
-106.39205607474287
 20
59.00000000002183
 10
-111.89205607474287
 20
59.00000000002183
  0
LINE
  5
68
330
17
100
AcDbEntity
  8
FP-Window
100
AcDbLine
 10
-111.89205607474287
 20
60.00000000002183
 30
0.0
 11
-111.89205607463191
 21
94.0000000000216
 31
0.0
  0
LWPOLYLINE
  5
69
330
17
100
AcDbEntity
  8
FP-Window
100
AcDbPolyline
 90
9
 70
0
 10
-111.89205607474287
 20
95.0000000000216
 10
-111.89205607474287
 20
94.0000000000216
 10
-108.89205607474287
 20
94.0000000000216
 10
-108.89205607474287
 20
93.5000000000216
 10
-108.39205607474287
 20
93.5000000000216
 10
-108.39205607474287
 20
94.0000000000216
 10
-106.39205607474287
 20
94.0000000000216
 10
-106.39205607474287
 20
95.0000000000216
 10
-111.89205607474287
 20
95.0000000000216
  0
LWPOLYLINE
  5
6A
330
17
100
AcDbEntity
  8
FP-Window
100
AcDbPolyline
 90
9
 70
0
 10
-111.89205607474287
 20
334.9999999999716
 10
-111.89205607474287
 20
335.9999999999716
 10
-108.89205607474287
 20
335.9999999999716
 10
-108.89205607474287
 20
336.4999999999716
 10
-108.39205607474287
 20
336.4999999999716
 10
-108.39205607474287
 20
335.9999999999716
 10
-106.39205607474287
 20
335.9999999999716
 10
-106.39205607474287
 20
334.9999999999716
 10
-111.89205607474287
 20
334.9999999999716
  0
LINE
  5
6B
330
17
100
AcDbEntity
  8
FP-Window
100
AcDbLine
 10
-111.89205607474287
 20
369.99999999997135
 30
0.0
 11
-111.89205607463191
 21
335.9999999999716
 31
0.0
  0
LWPOLYLINE
  5
6C
330
17
100
AcDbEntity
  8
FP-Window
100
AcDbPolyline
 90
9
 70
0
 10
-111.89205607474287
 20
370.99999999997135
 10
-111.89205607474287
 20
369.99999999997135
 10
-108.89205607474287
 20
369.99999999997135
 10
-108.89205607474287
 20
369.49999999997135
 10
-108.39205607474287
 20
369.49999999997135
 10
-108.39205607474287
 20
369.99999999997135
 10
-106.39205607474287
 20
369.99999999997135
 10
-106.39205607474287
 20
370.99999999997135
 10
-111.89205607474287
 20
370.99999999997135
  0
LWPOLYLINE
  5
6D
330
17
100
AcDbEntity
  8
FP-Window
100
AcDbPolyline
 90
4
 70
0
 10
-110.64205607474287
 20
62.25000000002183
 10
-110.64205607474287
 20
60.25000000002183
 10
-109.14205607474287
 20
60.25000000002183
 10
-109.14205607474287
 20
62.25000000002183
  0
LINE
  5
6E
330
17
100
AcDbEntity
  8
FP-Window
100
AcDbLine
 10
-110.64205607474287
 20
62.25000000002183
 30
0.0
 11
-110.39205607474287
 21
62.50000000002183
 31
0.0
  0
LINE
  5
6F
330
17
100
AcDbEntity
  8
FP-Window
100
AcDbLine
 10
-110.6420560746883
 20
91.75000000007617
 30
0.0
 11
-110.64205607474287
 21
62.25000000002183
 31
0.0
  0
LINE
  5
70
330
17
100
AcDbEntity
  8
FP-Window
100
AcDbLine
 10
-110.64205607474287
 20
91.7500000000216
 30
0.0
 11
-110.39205607474287
 21
91.5000000000216
 31
0.0
  0
LWPOLYLINE
  5
71
330
17
100
AcDbEntity
  8
FP-Window
100
AcDbPolyline
 90
4
 70
0
 10
-110.64205607474287
 20
91.7500000000216
 10
-110.64205607474287
 20
93.7500000000216
 10
-109.14205607474287
 20
93.7500000000216
 10
-109.14205607474287
 20
91.7500000000216
  0
LWPOLYLINE
  5
72
330
17
100
AcDbEntity
  8
FP-Window
100
AcDbPolyline
 90
4
 70
0
 10
-110.64205607474287
 20
338.2499999999716
 10
-110.64205607474287
 20
336.2499999999716
 10
-109.14205607474287
 20
336.2499999999716
 10
-109.14205607474287
 20
338.2499999999716
  0
LINE
  5
73
330
17
100
AcDbEntity
  8
FP-Window
100
AcDbLine
 10
-110.6420560746883
 20
338.249999999917
 30
0.0
 11
-110.64205607474287
 21
367.74999999997135
 31
0.0
  0
LINE
  5
74
330
17
100
AcDbEntity
  8
FP-Window
100
AcDbLine
 10
-110.64205607474287
 20
338.2499999999716
 30
0.0
 11
-110.39205607474287
 21
338.4999999999716
 31
0.0
  0
LINE
  5
75
330
17
100
AcDbEntity
  8
FP-Window
100
AcDbLine
 10
-110.64205607474287
 20
367.74999999997135
 30
0.0
 11
-110.39205607474287
 21
367.49999999997135
 31
0.0
  0
LWPOLYLINE
  5
76
330
17
100
AcDbEntity
  8
FP-Window
100
AcDbPolyline
 90
4
 70
0
 10
-110.64205607474287
 20
367.74999999997135
 10
-110.64205607474287
 20
369.74999999997135
 10
-109.14205607474287
 20
369.74999999997135
 10
-109.14205607474287
 20
367.74999999997135
  0
LINE
  5
77
330
17
100
AcDbEntity
  8
FP-Window
100
AcDbLine
 10
-110.39205607474287
 20
62.50000000002183
 30
0.0
 11
-110.26705607474287
 21
62.50000000002183
 31
0.0
  0
LINE
  5
78
330
17
100
AcDbEntity
  8
FP-Window
100
AcDbLine
 10
-110.39205607474287
 20
91.5000000000216
 30
0.0
 11
-110.26705607474287
 21
91.5000000000216
 31
0.0
  0
LINE
  5
79
330
17
100
AcDbEntity
  8
FP-Window
100
AcDbLine
 10
-110.39205607474287
 20
338.4999999999716
 30
0.0
 11
-110.26705607474287
 21
338.4999999999716
 31
0.0
  0
LINE
  5
7A
330
17
100
AcDbEntity
  8
FP-Window
100
AcDbLine
 10
-110.39205607474287
 20
367.49999999997135
 30
0.0
 11
-110.26705607474287
 21
367.49999999997135
 31
0.0
  0
LWPOLYLINE
  5
7B
330
17
100
AcDbEntity
  8
FP-Window
100
AcDbPolyline
 90
4
 70
0
 10
-110.26705607474287
 20
62.00000000002183
 10
-110.2670560746883
 20
92.00000000007617
 10
-110.1420560746883
 20
92.00000000007617
 10
-110.14205607474287
 20
62.00000000002183
  0
LWPOLYLINE
  5
7C
330
17
100
AcDbEntity
  8
FP-Window
100
AcDbPolyline
 90
4
 70
0
 10
-110.26705607474287
 20
367.99999999997135
 10
-110.2670560746883
 20
337.999999999917
 10
-110.1420560746883
 20
337.999999999917
 10
-110.14205607474287
 20
367.99999999997135
  0
LINE
  5
7D
330
17
100
AcDbEntity
  8
FP-Window
100
AcDbLine
 10
-109.64205607474287
 20
62.00000000002183
 30
0.0
 11
-110.14205607474287
 21
62.00000000002183
 31
0.0
  0
LINE
  5
7E
330
17
100
AcDbEntity
  8
FP-Window
100
AcDbLine
 10
-109.64205607474287
 20
92.0000000000216
 30
0.0
 11
-110.14205607474287
 21
92.0000000000216
 31
0.0
  0
LINE
  5
7F
330
17
100
AcDbEntity
  8
FP-Window
100
AcDbLine
 10
-109.64205607474287
 20
337.9999999999716
 30
0.0
 11
-110.14205607474287
 21
337.9999999999716
 31
0.0
  0
LINE
  5
80
330
17
100
AcDbEntity
  8
FP-Window
100
AcDbLine
 10
-109.64205607474287
 20
367.99999999997135
 30
0.0
 11
-110.14205607474287
 21
367.99999999997135
 31
0.0
  0
LWPOLYLINE
  5
81
330
17
100
AcDbEntity
  8
FP-Window
100
AcDbPolyline
 90
4
 70
0
 10
-109.51705607474287
 20
62.00000000002183
 10
-109.5170560746883
 20
92.00000000007617
 10
-109.6420560746883
 20
92.00000000007617
 10
-109.64205607474287
 20
62.00000000002183
  0
LWPOLYLINE
  5
82
330
17
100
AcDbEntity
  8
FP-Window
100
AcDbPolyline
 90
4
 70
0
 10
-109.51705607474287
 20
367.99999999997135
 10
-109.5170560746883
 20
337.999999999917
 10
-109.6420560746883
 20
337.999999999917
 10
-109.64205607474287
 20
367.99999999997135
  0
LINE
  5
83
330
17
100
AcDbEntity
  8
FP-Window
100
AcDbLine
 10
-109.51705607474287
 20
62.50000000002183
 30
0.0
 11
-109.39205607474287
 21
62.50000000002183
 31
0.0
  0
LINE
  5
84
330
17
100
AcDbEntity
  8
FP-Window
100
AcDbLine
 10
-109.51705607474287
 20
91.5000000000216
 30
0.0
 11
-109.39205607474287
 21
91.5000000000216
 31
0.0
  0
LINE
  5
85
330
17
100
AcDbEntity
  8
FP-Window
100
AcDbLine
 10
-109.51705607474287
 20
338.4999999999716
 30
0.0
 11
-109.39205607474287
 21
338.4999999999716
 31
0.0
  0
LINE
  5
86
330
17
100
AcDbEntity
  8
FP-Window
100
AcDbLine
 10
-109.51705607474287
 20
367.49999999997135
 30
0.0
 11
-109.39205607474287
 21
367.49999999997135
 31
0.0
  0
LWPOLYLINE
  5
87
330
17
100
AcDbEntity
  8
FP-Wall Detail
100
AcDbPolyline
 90
3
 70
0
 10
-4.49703088874594
 20
39.500000000000455
 10
-109.4986635217756
 20
39.49999999999636
 10
-109.49866352177378
 20
58.99999999999636
  0
LWPOLYLINE
  5
88
330
17
100
AcDbEntity
  8
FP-Wall Detail
100
AcDbPolyline
 90
2
 70
0
 10
-109.49866352177196
 20
94.99999999999454
 10
-109.49866352177378
 20
107.49999999999795
  0
LWPOLYLINE
  5
89
330
17
100
AcDbEntity
  8
FP-Wall Detail
100
AcDbPolyline
 90
2
 70
0
 10
-109.49866352177196
 20
322.4999999999952
 10
-109.49866352175923
 20
334.99999999999864
  0
LWPOLYLINE
  5
8A
330
17
100
AcDbEntity
  8
FP-Wall Detail
100
AcDbPolyline
 90
3
 70
0
 10
-109.49866352175741
 20
370.9999999999968
 10
-109.49866352175741
 20
390.4999999999968
 10
-80.24933176089326
 20
390.499999999995
  0
LINE
  5
8B
330
17
100
AcDbEntity
  8
FP-Window
100
AcDbLine
 10
-109.14205607474287
 20
62.25000000002183
 30
0.0
 11
-109.39205607474287
 21
62.50000000002183
 31
0.0
  0
LINE
  5
8C
330
17
100
AcDbEntity
  8
FP-Window
100
AcDbLine
 10
-109.14205607474287
 20
91.7500000000216
 30
0.0
 11
-109.39205607474287
 21
91.5000000000216
 31
0.0
  0
LINE
  5
8D
330
17
100
AcDbEntity
  8
FP-Window
100
AcDbLine
 10
-109.14205607474287
 20
338.2499999999716
 30
0.0
 11
-109.39205607474287
 21
338.4999999999716
 31
0.0
  0
LINE
  5
8E
330
17
100
AcDbEntity
  8
FP-Window
100
AcDbLine
 10
-109.14205607474287
 20
367.74999999997135
 30
0.0
 11
-109.39205607474287
 21
367.49999999997135
 31
0.0
  0
LINE
  5
8F
330
17
100
AcDbEntity
  8
FP-Window
100
AcDbLine
 10
-109.14205607474287
 20
62.25000000002183
 30
0.0
 11
-109.1420560746883
 21
91.75000000007617
 31
0.0
  0
LINE
  5
90
330
17
100
AcDbEntity
  8
FP-Window
100
AcDbLine
 10
-109.14205607474287
 20
367.74999999997135
 30
0.0
 11
-109.1420560746883
 21
338.249999999917
 31
0.0
  0
LWPOLYLINE
  5
91
330
17
100
AcDbEntity
  8
FP-Wall Detail
100
AcDbPolyline
 90
3
 70
0
 10
-4.49703088874594
 20
40.50000000000023
 10
-108.4986635217756
 20
40.49999999999636
 10
-108.49866352177378
 20
58.99999999999636
  0
LWPOLYLINE
  5
92
330
17
100
AcDbEntity
  8
FP-Wall Detail
100
AcDbPolyline
 90
2
 70
0
 10
-108.49866352177196
 20
94.99999999999454
 10
-108.49866352177196
 20
108.49999999999795
  0
LWPOLYLINE
  5
93
330
17
100
AcDbEntity
  8
FP-Wall Detail
100
AcDbPolyline
 90
2
 70
0
 10
-108.49866352177196
 20
321.4999999999952
 10
-108.49866352175923
 20
334.99999999999864
  0
LWPOLYLINE
  5
94
330
17
100
AcDbEntity
  8
FP-Wall Detail
100
AcDbPolyline
 90
3
 70
0
 10
-108.49866352175741
 20
370.9999999999968
 10
-108.49866352175741
 20
389.4999999999968
 10
-80.24933176089326
 20
389.499999999995
  0
LWPOLYLINE
  5
95
330
17
100
AcDbEntity
  8
FP-Wall Detail
100
AcDbPolyline
 90
3
 70
0
 10
-4.49703088874594
 20
41.00000000000023
 10
-107.9986635217756
 20
40.99999999999636
 10
-107.99866352177378
 20
58.99999999999636
  0
LWPOLYLINE
  5
96
330
17
100
AcDbEntity
  8
FP-Wall Detail
100
AcDbPolyline
 90
2
 70
0
 10
-107.99866352177196
 20
94.99999999999454
 10
-107.99866352177196
 20
108.99999999999704
  0
LWPOLYLINE
  5
97
330
17
100
AcDbEntity
  8
FP-Wall Detail
100
AcDbPolyline
 90
2
 70
0
 10
-107.99866352175923
 20
320.9999999999959
 10
-107.99866352175923
 20
334.99999999999864
  0
LWPOLYLINE
  5
98
330
17
100
AcDbEntity
  8
FP-Wall Detail
100
AcDbPolyline
 90
3
 70
0
 10
-107.99866352175741
 20
370.9999999999968
 10
-107.99866352175741
 20
388.9999999999968
 10
-80.24933176089326
 20
388.999999999995
  0
LINE
  5
99
330
17
100
AcDbEntity
  8
FP-Window
100
AcDbLine
 10
-106.39205607463191
 20
94.0000000000216
 30
0.0
 11
-106.39205607474287
 21
60.00000000002183
 31
0.0
  0
LINE
  5
9A
330
17
100
AcDbEntity
  8
FP-Window
100
AcDbLine
 10
-106.39205607463191
 20
335.9999999999716
 30
0.0
 11
-106.39205607474287
 21
369.99999999997135
 31
0.0
  0
LWPOLYLINE
  5
9B
330
17
100
AcDbEntity
  8
FP-Wall Detail
100
AcDbPolyline
 90
3
 70
0
 10
-71.99709223606624
 20
46.50000000000091
 10
-102.4986635217756
 20
46.49999999999727
 10
-102.4986635217756
 20
58.99999999999636
  0
LWPOLYLINE
  5
9C
330
17
100
AcDbEntity
  8
FP-Wall Detail
100
AcDbPolyline
 90
2
 70
0
 10
-102.49866352177378
 20
94.99999999999454
 10
-102.49866352177196
 20
114.49999999999841
  0
LWPOLYLINE
  5
9D
330
17
100
AcDbEntity
  8
FP-Wall Detail
100
AcDbPolyline
 90
2
 70
0
 10
-102.49866352177196
 20
315.49999999999477
 10
-102.49866352175923
 20
334.99999999999864
  0
LWPOLYLINE
  5
9E
330
17
100
AcDbEntity
  8
FP-Wall Detail
100
AcDbPolyline
 90
2
 70
0
 10
-102.49866352175741
 20
383.4999999999968
 10
-102.49866352175923
 20
370.9999999999968
  0
LWPOLYLINE
  5
9F
330
17
100
AcDbEntity
  8
FP-Wall Detail
100
AcDbPolyline
 90
2
 70
0
 10
-102.49866352175741
 20
383.4999999999968
 10
-80.24933176089326
 20
383.4999999999968
  0
LINE
  5
A0
330
17
100
AcDbEntity
  8
FP-Proposed Wall
100
AcDbLine
 10
-101.99866352177924
 20
382.9999999999968
 30
0.0
 11
-101.9986635217756
 21
370.9999999999968
 31
0.0
  0
LINE
  5
A1
330
17
100
AcDbEntity
  8
FP-Proposed Wall
100
AcDbLine
 10
-101.9986635217756
 20
46.99999999999636
 30
0.0
 11
-41.99866352177378
 21
46.99999999999636
 31
0.0
  0
LINE
  5
A2
330
17
100
AcDbEntity
  8
FP-Proposed Wall
100
AcDbLine
 10
-101.9986635217756
 20
58.99999999999636
 30
0.0
 11
-101.9986635217756
 21
46.99999999999636
 31
0.0
  0
LINE
  5
A3
330
17
100
AcDbEntity
  8
FP-Proposed Wall
100
AcDbLine
 10
-80.24933176088962
 20
382.9999999999968
 30
0.0
 11
-101.9986635217756
 21
382.9999999999968
 31
0.0
  0
LINE
  5
A4
330
17
100
AcDbEntity
  8
FP-Window
100
AcDbLine
 10
-101.99866352177378
 20
58.999999999995225
 30
0.0
 11
-101.99866352169738
 21
94.999999999995
 31
0.0
  0
LWPOLYLINE
  5
A5
330
17
100
AcDbEntity
  8
FP-Proposed Wall
100
AcDbPolyline
 90
2
 70
0
 10
-101.99866352177378
 20
94.99999999999454
 10
-101.9927252992602
 20
106.99999999999636
  0
LINE
  5
A6
330
17
100
AcDbEntity
  8
FP-Window
100
AcDbLine
 10
-101.99866352177378
 20
94.99999999999545
 30
0.0
 11
-101.99866352169738
 21
94.999999999995
 31
0.0
  0
LINE
  5
A7
330
17
100
AcDbEntity
  8
FP-Window
100
AcDbLine
 10
-101.99866352177378
 20
334.9999999999977
 30
0.0
 11
-101.99866352169738
 21
334.9999999999982
 31
0.0
  0
LINE
  5
A8
330
17
100
AcDbEntity
  8
FP-Window
100
AcDbLine
 10
-101.99866352177378
 20
370.99999999999795
 30
0.0
 11
-101.99866352169738
 21
334.9999999999982
 31
0.0
  0
LINE
  5
A9
330
17
100
AcDbEntity
  8
FP-Proposed Wall
100
AcDbLine
 10
-101.99866352169374
 20
334.99999999999864
 30
0.0
 11
-101.99866352169556
 21
314.9999999999993
 31
0.0
  0
LWPOLYLINE
  5
AA
330
17
100
AcDbEntity
  8
FP-Proposed Wall
100
AcDbPolyline
 90
3
 70
0
 10
-101.9927252992602
 20
106.99999999999636
 10
-41.9986635217756
 20
107.00000000000091
 10
-41.9986635217756
 20
107.00000000000091
  0
LWPOLYLINE
  5
AB
330
17
100
AcDbEntity
  8
FP-Proposed Wall
100
AcDbPolyline
 90
3
 70
0
 10
-101.9927252992602
 20
114.99999999999636
 10
-37.4986635217756
 20
115.00000000000091
 10
-37.4986635217756
 20
115.00000000000091
  0
LINE
  5
AC
330
17
100
AcDbEntity
  8
FP-Fixture
100
AcDbLine
 10
-92.26645819425903
 20
99.0185440334717
 30
0.0
 11
-92.26032418215436
 21
105.48922833343022
 31
0.0
  0
LINE
  5
AD
330
17
100
AcDbEntity
  8
FP-Fixture
100
AcDbLine
 10
-92.24703049999516
 20
87.84118404369838
 30
0.0
 11
-92.24703049999516
 21
98.61979601547068
 31
0.0
  0
LINE
  5
AE
330
17
100
AcDbEntity
  8
FP-Fixture
100
AcDbLine
 10
-91.8569513128532
 20
87.86120169244873
 30
0.0
 11
-91.8569513128532
 21
96.08146756013866
 31
0.0
  0
LINE
  5
AF
330
17
100
AcDbEntity
  8
FP-Fixture
100
AcDbLine
 10
-91.53352613107381
 20
96.45430429137446
 30
0.0
 11
-91.53352613107381
 21
96.80940511334734
 31
0.0
  0
LINE
  5
B0
330
17
100
AcDbEntity
  8
FP-Fixture
100
AcDbLine
 10
-76.51777283090269
 20
96.46080159732287
 30
0.0
 11
-91.47955421264305
 21
96.46080159732287
 31
0.0
  0
LINE
  5
B1
330
17
100
AcDbEntity
  8
FP-Fixture
100
AcDbLine
 10
-91.09363440486959
 20
96.80998844016904
 30
0.0
 11
-91.09363440486959
 21
96.46080159732287
 31
0.0
  0
LINE
  5
B2
330
17
100
AcDbEntity
  8
FP-Fixture
100
AcDbLine
 10
-83.99866352177196
 20
97.50777818176289
 30
0.0
 11
-90.74712888384056
 21
97.50777818176289
 31
0.0
  0
LINE
  5
B3
330
17
100
AcDbEntity
  8
FP-Fixture
100
AcDbLine
 10
-77.25633217180803
 20
106.99999999999636
 30
0.0
 11
-90.74099487173771
 21
106.99999418513926
 31
0.0
  0
LINE
  5
B4
330
17
100
AcDbEntity
  8
FP-Fixture
100
AcDbLine
 10
-90.52819766613538
 20
97.37355992692483
 30
0.0
 11
-83.99866352177196
 21
97.37355992692483
 31
0.0
  0
LINE
  5
B5
330
17
100
AcDbEntity
  8
FP-Fixture
100
AcDbLine
 10
-90.1117169115987
 20
93.52288747901935
 30
0.0
 11
-90.1117169115987
 21
87.95658109593114
 31
0.0
  0
LINE
  5
B6
330
17
100
AcDbEntity
  8
FP-Fixture
100
AcDbLine
 10
-88.59375680376252
 20
95.03281013026412
 30
0.0
 11
-79.4035702397814
 21
95.03281013026412
 31
0.0
  0
LINE
  5
B7
330
17
100
AcDbEntity
  8
FP-Fixture
100
AcDbLine
 10
-85.27973550242314
 20
89.23309153788932
 30
0.0
 11
-85.36809907561474
 21
91.5726431997764
 31
0.0
  0
LINE
  5
B8
330
17
100
AcDbEntity
  8
FP-Fixture
100
AcDbLine
 10
-84.87190257020666
 20
92.08272022195024
 30
0.0
 11
-83.99866352177196
 21
92.08272022195024
 31
0.0
  0
LINE
  5
B9
330
17
100
AcDbEntity
  8
FP-Fixture
100
AcDbLine
 10
-84.00185924294965
 20
88.74341799165973
 30
0.0
 11
-84.78353899701506
 21
88.74341799165973
 31
0.0
  0
LINE
  5
BA
330
17
100
AcDbEntity
  8
FP-Fixture
100
AcDbLine
 10
-83.12542447333726
 20
92.08272022195024
 30
0.0
 11
-83.99866352177196
 21
92.08272022195024
 31
0.0
  0
LINE
  5
BB
330
17
100
AcDbEntity
  8
FP-Fixture
100
AcDbLine
 10
-77.46912937740854
 20
97.37355992692483
 30
0.0
 11
-83.99866352177196
 21
97.37355992692483
 31
0.0
  0
LINE
  5
BC
330
17
100
AcDbEntity
  8
FP-Fixture
100
AcDbLine
 10
-83.99866352177196
 20
97.50777818176289
 30
0.0
 11
-77.25019815970336
 21
97.50777818176289
 31
0.0
  0
LINE
  5
BD
330
17
100
AcDbEntity
  8
FP-Fixture
100
AcDbLine
 10
-83.99546780059427
 20
88.74341799165973
 30
0.0
 11
-83.21378804652886
 21
88.74341799165973
 31
0.0
  0
LINE
  5
BE
330
17
100
AcDbEntity
  8
FP-Fixture
100
AcDbLine
 10
-82.71759154112078
 20
89.23309153788932
 30
0.0
 11
-82.62922796792918
 21
91.5726431997764
 31
0.0
  0
LINE
  5
BF
330
17
100
AcDbEntity
  8
FP-Window
100
AcDbLine
 10
-82.24933176092236
 20
396.00000000004525
 30
0.0
 11
-82.24933176092236
 21
394.00000000004525
 31
0.0
  0
LINE
  5
C0
330
17
100
AcDbEntity
  8
FP-Window
100
AcDbLine
 10
-42.24933176092236
 20
396.0000000000616
 30
0.0
 11
-82.24933176092236
 21
396.00000000004525
 31
0.0
  0
LWPOLYLINE
  5
C1
330
17
100
AcDbEntity
  8
FP-Window
100
AcDbPolyline
 90
9
 70
0
 10
-80.24933176092054
 20
392.8933925530241
 10
-79.24933176092054
 20
392.8933925530241
 10
-79.24933176092054
 20
389.8933925530241
 10
-78.74933176092054
 20
389.8933925530241
 10
-78.74933176092054
 20
389.3933925530241
 10
-79.24933176092054
 20
389.3933925530241
 10
-79.24933176092054
 20
387.3933925530241
 10
-80.24933176092054
 20
387.3933925530241
 10
-80.24933176092054
 20
392.8933925530241
  0
LINE
  5
C2
330
17
100
AcDbEntity
  8
FP-Window
100
AcDbLine
 10
-44.249331760895075
 20
383.0000000000555
 30
0.0
 11
-80.24933176089507
 21
382.9999999999791
 31
0.0
  0
LINE
  5
C3
330
17
100
AcDbEntity
  8
FP-Window
100
AcDbLine
 10
-80.24933176089507
 20
383.0000000000555
 30
0.0
 11
-80.24933176089507
 21
382.9999999999791
 31
0.0
  0
LINE
  5
C4
330
17
100
AcDbEntity
  8
FP-Proposed Wall
100
AcDbLine
 10
-80.24933176089326
 20
383.000000000055
 30
0.0
 11
-80.24933176089326
 21
394.0000000000168
 31
0.0
  0
LINE
  5
C5
330
17
100
AcDbEntity
  8
FP-Window
100
AcDbLine
 10
-79.24933176092054
 20
387.39339255291316
 30
0.0
 11
-45.24933176092236
 21
387.3933925530241
 31
0.0
  0
LINE
  5
C6
330
17
100
AcDbEntity
  8
FP-Window
100
AcDbLine
 10
-45.24933176092236
 20
392.8933925530241
 30
0.0
 11
-79.24933176092054
 21
392.89339255291316
 31
0.0
  0
LWPOLYLINE
  5
C7
330
17
100
AcDbEntity
  8
FP-Window
100
AcDbPolyline
 90
4
 70
0
 10
-76.99933176092054
 20
391.6433925530241
 10
-78.99933176092054
 20
391.6433925530241
 10
-78.99933176092054
 20
390.1433925530241
 10
-76.99933176092054
 20
390.1433925530241
  0
LINE
  5
C8
330
17
100
AcDbEntity
  8
FP-Fixture
100
AcDbLine
 10
-77.88561013194521
 20
93.52288747901935
 30
0.0
 11
-77.88561013194521
 21
87.95658109593114
 31
0.0
  0
LWPOLYLINE
  5
C9
330
17
100
AcDbEntity
  8
FP-Window
100
AcDbPolyline
 90
4
 70
0
 10
-47.24933176092236
 20
390.5183925530241
 10
-77.24933176097511
 20
390.51839255296954
 10
-77.24933176097511
 20
390.64339255296954
 10
-47.24933176092236
 20
390.6433925530241
  0
LWPOLYLINE
  5
CA
330
17
100
AcDbEntity
  8
FP-Window
100
AcDbPolyline
 90
4
 70
0
 10
-47.24933176092236
 20
391.2683925530241
 10
-77.24933176097511
 20
391.26839255296954
 10
-77.24933176097511
 20
391.14339255296954
 10
-47.24933176092236
 20
391.1433925530241
  0
LINE
  5
CB
330
17
100
AcDbEntity
  8
FP-Window
100
AcDbLine
 10
-77.24933176092054
 20
390.6433925530241
 30
0.0
 11
-77.24933176092054
 21
391.1433925530241
 31
0.0
  0
LINE
  5
CC
330
17
100
AcDbEntity
  8
FP-Window
100
AcDbLine
 10
-47.49933176092236
 20
390.1433925530241
 30
0.0
 11
-76.99933176097511
 21
390.14339255296954
 31
0.0
  0
LINE
  5
CD
330
17
100
AcDbEntity
  8
FP-Window
100
AcDbLine
 10
-76.99933176097511
 20
391.64339255296954
 30
0.0
 11
-47.49933176092236
 21
391.6433925530241
 31
0.0
  0
LINE
  5
CE
330
17
100
AcDbEntity
  8
FP-Window
100
AcDbLine
 10
-76.99933176092054
 20
390.1433925530241
 30
0.0
 11
-76.74933176092054
 21
390.3933925530241
 31
0.0
  0
LINE
  5
CF
330
17
100
AcDbEntity
  8
FP-Window
100
AcDbLine
 10
-76.99933176092054
 20
391.6433925530241
 30
0.0
 11
-76.74933176092054
 21
391.3933925530241
 31
0.0
  0
LINE
  5
D0
330
17
100
AcDbEntity
  8
FP-Fixture
100
AcDbLine
 10
-76.90369263867433
 20
96.80998844016904
 30
0.0
 11
-76.90369263867433
 21
96.46080159732287
 31
0.0
  0
LINE
  5
D1
330
17
100
AcDbEntity
  8
FP-Window
100
AcDbLine
 10
-76.74933176092054
 20
390.5183925530241
 30
0.0
 11
-76.74933176092054
 21
390.3933925530241
 31
0.0
  0
LINE
  5
D2
330
17
100
AcDbEntity
  8
FP-Window
100
AcDbLine
 10
-76.74933176092054
 20
391.3933925530241
 30
0.0
 11
-76.74933176092054
 21
391.2683925530241
 31
0.0
  0
LINE
  5
D3
330
17
100
AcDbEntity
  8
FP-Fixture
100
AcDbLine
 10
-76.4638009124701
 20
96.45430429137446
 30
0.0
 11
-76.4638009124701
 21
96.80940511334734
 31
0.0
  0
LINE
  5
D4
330
17
100
AcDbEntity
  8
FP-Fixture
100
AcDbLine
 10
-76.14037573069072
 20
87.86120169244873
 30
0.0
 11
-76.14037573069072
 21
96.08146756013866
 31
0.0
  0
LINE
  5
D5
330
17
100
AcDbEntity
  8
FP-Fixture
100
AcDbLine
 10
-75.75029654354876
 20
87.84118404369838
 30
0.0
 11
-75.75029654354876
 21
98.61979601547068
 31
0.0
  0
LINE
  5
D6
330
17
100
AcDbEntity
  8
FP-Fixture
100
AcDbLine
 10
-75.73086884928671
 20
99.0185440334717
 30
0.0
 11
-75.73700286139137
 21
105.48922833343022
 31
0.0
  0
LWPOLYLINE
  5
D7
330
17
100
AcDbEntity
  8
FP-Wall Detail
100
AcDbPolyline
 90
2
 70
0
 10
-71.99709223606624
 20
46.50000000000091
 10
-4.49703088874594
 20
46.50000000000091
  0
LINE
  5
D8
330
17
100
AcDbEntity
  8
FP-Fixture
100
AcDbLine
 10
-65.99315767827648
 20
88.99988662543046
 30
0.0
 11
-41.993157678276475
 21
88.99988662543069
 31
0.0
  0
LINE
  5
D9
330
17
100
AcDbEntity
  8
FP-Fixture
100
AcDbLine
 10
-65.99315767827648
 20
88.99988662543046
 30
0.0
 11
-65.99315767827648
 21
106.99988662542819
 31
0.0
  0
LINE
  5
DA
330
17
100
AcDbEntity
  8
FP-Fixture
100
AcDbLine
 10
-65.99315767827648
 20
89.99988662543046
 30
0.0
 11
-41.993157678276475
 21
89.99988662543069
 31
0.0
  0
LINE
  5
DB
330
17
100
AcDbEntity
  8
FP-Fixture
100
AcDbLine
 10
-65.99315767827648
 20
106.99988662542819
 30
0.0
 11
-41.993157678276475
 21
106.99988662542842
 31
0.0
  0
LWPOLYLINE
  5
DC
330
17
100
AcDbEntity
  8
FP-Door
100
AcDbPolyline
 90
4
 70
0
 10
-63.211941063471386
 20
74.21141039275699
 10
-62.151280891692295
 20
75.27207056453699
 10
-40.938077456095925
 20
54.05886712894039
 10
-41.998737627875016
 20
52.99820695716062
  0
LWPOLYLINE
  5
DD
330
17
100
AcDbEntity
  8
FP-Fixture
100
AcDbPolyline
 90
10
 70
0
 10
-54.743157678276475
 20
103.99988662543001
 10
-60.993157678276475
 20
103.99988662543001
 10
-61.493157678276475
 20
103.49988662543001
 10
-61.493157678276475
 20
92.99988662543001
 10
-60.993157678276475
 20
92.49988662543001
 10
-46.993157678276475
 20
92.49988662543001
 10
-46.493157678276475
 20
92.99988662543001
 10
-46.493157678276475
 20
103.49988662543001
 10
-46.993157678276475
 20
103.99988662543001
 10
-53.243157678276475
 20
103.99988662543001
  0
LWPOLYLINE
  5
DE
330
17
100
AcDbEntity
  8
FP-Fixture
100
AcDbPolyline
 90
6
 70
0
 10
-54.993157678276475
 20
102.24988662543001
 10
-60.493157678276475
 20
102.24988662543001
 10
-60.493157678276475
 20
93.49988662543001
 10
-47.493157678276475
 20
93.49988662543001
 10
-47.493157678276475
 20
102.24988662543001
 10
-52.993157678276475
 20
102.24988662543001
  0
LWPOLYLINE
  5
DF
330
17
100
AcDbEntity
  8
FP-Fixture
100
AcDbPolyline
 90
6
 70
0
 10
-53.243157678276475
 20
101.49988662543001
 10
-52.993157678276475
 20
101.49988662543001
 10
-52.993157678276475
 20
103.49988662543001
 10
-54.993157678276475
 20
103.49988662543001
 10
-54.993157678276475
 20
101.49988662543001
 10
-54.743157678276475
 20
101.49988662543001
  0
LWPOLYLINE
  5
E0
330
17
100
AcDbEntity
  8
FP-Fixture
100
AcDbPolyline
 90
4
 70
0
 10
-54.743157678276475
 20
99.24988662543001
 10
-53.243157678276475
 20
99.24988662543001
 10
-53.243157678276475
 20
103.24988662543001
 10
-54.743157678276475
 20
103.24988662543001
  0
LWPOLYLINE
  5
E1
330
17
100
AcDbEntity
  8
FP-Fixture
100
AcDbPolyline
 90
4
 70
0
 10
-54.743157678276475
 20
103.99988662543001
 10
-54.743157678276475
 20
103.74988662543001
 10
-53.243157678276475
 20
103.74988662543001
 10
-53.243157678276475
 20
103.99988662543001
  0
LWPOLYLINE
  5
E2
330
17
100
AcDbEntity
  8
FP-Fixture
100
AcDbPolyline
 90
4
 70
0
 10
-54.493157678276475
 20
101.24988662543001
 10
-54.493157678276475
 20
99.24988662543001
 10
-53.493157678276475
 20
99.24988662543001
 10
-53.493157678276475
 20
101.24988662543001
  0
LINE
  5
E3
330
17
100
AcDbEntity
  8
FP-Fixture
100
AcDbLine
 10
-54.243157678276475
 20
103.74988662543001
 30
0.0
 11
-54.243157678276475
 21
103.49988662543001
 31
0.0
  0
LINE
  5
E4
330
17
100
AcDbEntity
  8
FP-Fixture
100
AcDbLine
 10
-53.743157678276475
 20
103.74988662543001
 30
0.0
 11
-53.743157678276475
 21
103.49988662543001
 31
0.0
  0
LINE
  5
E5
330
17
100
AcDbEntity
  8
FP-Window
100
AcDbLine
 10
-47.49933176092236
 20
390.1433925530241
 30
0.0
 11
-47.74933176092236
 21
390.3933925530241
 31
0.0
  0
LINE
  5
E6
330
17
100
AcDbEntity
  8
FP-Window
100
AcDbLine
 10
-47.74933176092236
 20
390.5183925530241
 30
0.0
 11
-47.74933176092236
 21
390.3933925530241
 31
0.0
  0
LINE
  5
E7
330
17
100
AcDbEntity
  8
FP-Window
100
AcDbLine
 10
-47.74933176092236
 20
391.3933925530241
 30
0.0
 11
-47.74933176092236
 21
391.2683925530241
 31
0.0
  0
LINE
  5
E8
330
17
100
AcDbEntity
  8
FP-Window
100
AcDbLine
 10
-47.49933176092236
 20
391.6433925530241
 30
0.0
 11
-47.74933176092236
 21
391.3933925530241
 31
0.0
  0
LWPOLYLINE
  5
E9
330
17
100
AcDbEntity
  8
FP-Window
100
AcDbPolyline
 90
4
 70
0
 10
-47.49933176092236
 20
391.6433925530241
 10
-45.49933176092236
 20
391.6433925530241
 10
-45.49933176092236
 20
390.1433925530241
 10
-47.49933176092236
 20
390.1433925530241
  0
LINE
  5
EA
330
17
100
AcDbEntity
  8
FP-Window
100
AcDbLine
 10
-47.24933176092236
 20
390.6433925530241
 30
0.0
 11
-47.24933176092236
 21
391.1433925530241
 31
0.0
  0
LWPOLYLINE
  5
EB
330
17
100
AcDbEntity
  8
FP-Window
100
AcDbPolyline
 90
9
 70
0
 10
-44.24933176092236
 20
392.8933925530241
 10
-45.24933176092236
 20
392.8933925530241
 10
-45.24933176092236
 20
389.8933925530241
 10
-45.74933176092236
 20
389.8933925530241
 10
-45.74933176092236
 20
389.3933925530241
 10
-45.24933176092236
 20
389.3933925530241
 10
-45.24933176092236
 20
387.3933925530241
 10
-44.24933176092236
 20
387.3933925530241
 10
-44.24933176092236
 20
392.8933925530241
  0
LINE
  5
EC
330
17
100
AcDbEntity
  8
FP-Furniture
100
AcDbLine
 10
-45.55039291036883
 20
307.8589679721074
 30
0.0
 11
-15.503461318525297
 21
307.8533289035672
 31
0.0
  0
LINE
  5
ED
330
17
100
AcDbEntity
  8
FP-Furniture
100
AcDbLine
 10
-45.54617663780482
 20
341.55763296894384
 30
0.0
 11
-45.55039291033063
 21
307.8589679721081
 31
0.0
  0
LINE
  5
EE
330
17
100
AcDbEntity
  8
FP-Furniture
100
AcDbLine
 10
-45.54617663780482
 20
341.55763296894384
 30
0.0
 11
-15.499244575597913
 21
341.55575327943643
 31
0.0
  0
LINE
  5
EF
330
17
100
AcDbEntity
  8
FP-Proposed Wall
100
AcDbLine
 10
-22.500000000003638
 20
382.999999999995
 30
0.0
 11
-44.249331760896894
 21
382.9999999999968
 31
0.0
  0
LINE
  5
F0
330
17
100
AcDbEntity
  8
FP-Proposed Wall
100
AcDbLine
 10
-44.249331760896894
 20
383.000000000055
 30
0.0
 11
-44.249331760893256
 21
394.0000000000168
 31
0.0
  0
LWPOLYLINE
  5
F1
330
17
100
AcDbEntity
  8
FP-Wall Detail
100
AcDbPolyline
 90
6
 70
0
 10
-44.249331760896894
 20
383.499999999995
 10
-12.000000000003638
 20
383.499999999995
 10
-12.000000000003638
 20
395.500000000035
 10
74.99999999999636
 20
395.50000000003865
 10
74.99999999999636
 20
383.5000000000423
 10
107.24933176088962
 20
383.50000000002774
  0
LWPOLYLINE
  5
F2
330
17
100
AcDbEntity
  8
FP-Wall Detail
100
AcDbPolyline
 90
6
 70
0
 10
-44.249331760895075
 20
388.999999999995
 10
-17.500000000003638
 20
388.999999999995
 10
-17.500000000003638
 20
401.000000000035
 10
80.49999999999636
 20
401.00000000003865
 10
80.49999999999636
 20
389.0000000000405
 10
107.2493317608878
 20
389.00000000002774
  0
LWPOLYLINE
  5
F3
330
17
100
AcDbEntity
  8
FP-Wall Detail
100
AcDbPolyline
 90
6
 70
0
 10
-44.249331760895075
 20
389.499999999995
 10
-18.000000000003638
 20
389.499999999995
 10
-18.000000000003638
 20
401.500000000035
 10
80.99999999999636
 20
401.50000000003865
 10
80.99999999999636
 20
389.5000000000405
 10
107.2493317608878
 20
389.50000000002774
  0
LWPOLYLINE
  5
F4
330
17
100
AcDbEntity
  8
FP-Wall Detail
100
AcDbPolyline
 90
6
 70
0
 10
-44.249331760895075
 20
390.499999999995
 10
-19.000000000003638
 20
390.499999999995
 10
-19.000000000003638
 20
402.500000000035
 10
81.99999999999636
 20
402.50000000003865
 10
81.99999999999636
 20
390.5000000000405
 10
107.2493317608878
 20
390.50000000002774
  0
LINE
  5
F5
330
17
100
AcDbEntity
  8
FP-Proposed Wall
100
AcDbLine
 10
-22.500000000003638
 20
393.999999999995
 30
0.0
 11
-44.24933176088962
 21
393.999999999995
 31
0.0
  0
LINE
  5
F6
330
17
100
AcDbEntity
  8
FP-Window
100
AcDbLine
 10
-42.24933176092236
 20
394.0000000000616
 30
0.0
 11
-42.24933176092236
 21
396.0000000000616
 31
0.0
  0
LINE
  5
F7
330
17
100
AcDbEntity
  8
FP-Proposed Wall
100
AcDbLine
 10
-37.49866352177378
 20
83.00471545181335
 30
0.0
 11
-41.998737627860464
 21
83.00471545181335
 31
0.0
  0
LWPOLYLINE
  5
F8
330
17
100
AcDbEntity
  8
FP-Proposed Wall
100
AcDbPolyline
 90
2
 70
0
 10
-41.9986635217756
 20
106.99999999999636
 10
-41.99866352177378
 20
83.00471545181335
  0
LWPOLYLINE
  5
F9
330
17
100
AcDbEntity
  8
FP-Proposed Wall
100
AcDbPolyline
 90
2
 70
0
 10
-41.99866352177378
 20
52.99999999999727
 10
-41.99866352177378
 20
46.99999999999727
  0
LINE
  5
FA
330
17
100
AcDbEntity
  8
FP-Proposed Wall
100
AcDbLine
 10
-37.49866352177378
 20
53.00326452561421
 30
0.0
 11
-41.99866352177378
 21
52.99999999999727
 31
0.0
  0
LINE
  5
FB
330
17
100
AcDbEntity
  8
FP-Fixture
100
AcDbLine
 10
-41.993157678276475
 20
106.99988662542842
 30
0.0
 11
-41.993157678276475
 21
88.99988662543069
 31
0.0
  0
LWPOLYLINE
  5
FC
330
17
100
AcDbEntity
  8
FP-Window
100
AcDbPolyline
 90
5
 70
0
 10
-41.49703088874594
 20
36.0
 10
-41.49703088874594
 20
0.0
 10
68.50296911125588
 20
0.0
 10
104.50296911125588
 20
0.0
 10
104.50296911125588
 20
35.99999999999636
  0
LINE
  5
FD
330
17
100
AcDbEntity
  8
FP-Furniture
100
AcDbLine
 10
-38.54617663780664
 20
341.5571950597914
 30
0.0
 11
-38.55039301991019
 21
307.85765424464694
 31
0.0
  0
LINE
  5
FE
330
17
100
AcDbEntity
  8
FP-Furniture
100
AcDbLine
 10
-15.504185795678495
 20
312.85332905784276
 30
0.0
 11
-38.5497676158011
 21
312.8562124496161
 31
0.0
  0
LINE
  5
FF
330
17
100
AcDbEntity
  8
FP-Furniture
100
AcDbLine
 10
-38.546802222306724
 20
336.55719508914217
 30
0.0
 11
-15.500105342618554
 21
336.55575332350077
 31
0.0
  0
LWPOLYLINE
  5
100
330
17
100
AcDbEntity
  8
FP-Proposed Wall
100
AcDbPolyline
 90
2
 70
0
 10
-37.4986635217756
 20
106.99999999999636
 10
-37.49866352177378
 20
83.00471545181335
  0
LWPOLYLINE
  5
101
330
17
100
AcDbEntity
  8
FP-Proposed Wall
100
AcDbPolyline
 90
2
 70
0
 10
-37.4986635217756
 20
107.00000000000091
 10
-37.4986635217756
 20
115.00000000000091
  0
LINE
  5
102
330
17
100
AcDbEntity
  8
FP-Proposed Wall
100
AcDbLine
 10
-37.49866352177378
 20
46.99999999999636
 30
0.0
 11
-4.49703088874594
 21
46.99999999999636
 31
0.0
  0
LWPOLYLINE
  5
103
330
17
100
AcDbEntity
  8
FP-Proposed Wall
100
AcDbPolyline
 90
2
 70
0
 10
-37.49866352177378
 20
53.00326452561421
 10
-37.49866352177378
 20
46.99999999999727
  0
LWPOLYLINE
  5
104
330
17
100
AcDbEntity
  8
FP-Window
100
AcDbPolyline
 90
5
 70
0
 10
-29.49703088874594
 20
36.0
 10
-29.49703088874594
 20
12.0
 10
68.50296911125588
 20
12.0
 10
92.50296911125588
 20
12.0
 10
92.50296911125588
 20
35.99999999999636
  0
LINE
  5
105
330
17
100
AcDbEntity
  8
FP-Proposed Wall
100
AcDbLine
 10
1.499999999996362
 20
369.00000000003865
 30
0.0
 11
-22.500000000003638
 21
369.00000000003865
 31
0.0
  0
LINE
  5
106
330
17
100
AcDbEntity
  8
FP-Proposed Wall
100
AcDbLine
 10
-22.500000000003638
 20
369.00000000003865
 30
0.0
 11
-22.500000000003638
 21
383.00000000003865
 31
0.0
  0
LINE
  5
107
330
17
100
AcDbEntity
  8
FP-Proposed Wall
100
AcDbLine
 10
-22.500000000003638
 20
394.00000000003865
 30
0.0
 11
-22.500000000003638
 21
406.00000000003865
 31
0.0
  0
LINE
  5
108
330
17
100
AcDbEntity
  8
FP-Proposed Wall
100
AcDbLine
 10
85.49999999999636
 20
406.00000000003865
 30
0.0
 11
-22.500000000003638
 21
406.000000000035
 31
0.0
  0
LWPOLYLINE
  5
109
330
17
100
AcDbEntity
  8
FP-Window
100
AcDbPolyline
 90
5
 70
0
 10
-17.49703088874594
 20
36.0
 10
-17.49703088874594
 20
24.0
 10
68.50296911125588
 20
24.0
 10
80.50296911125588
 20
24.0
 10
80.50296911125588
 20
35.99999999999636
  0
LINE
  5
10A
330
17
100
AcDbEntity
  8
FP-Furniture
100
AcDbLine
 10
-15.499244575599732
 20
341.5557532794346
 30
0.0
 11
-15.505046562680945
 21
307.8533292010802
 31
0.0
  0
LINE
  5
10B
330
17
100
AcDbEntity
  8
FP-Furniture
100
AcDbLine
 10
-13.502635814715177
 20
264.95518468664795
 30
0.0
 11
-13.504515504246228
 21
295.00211674885486
 31
0.0
  0
LINE
  5
10C
330
17
100
AcDbEntity
  8
FP-Furniture
100
AcDbLine
 10
-13.504515504246228
 20
295.00211674885486
 30
0.0
 11
76.49548449575559
 21
294.9978834636172
 31
0.0
  0
LINE
  5
10D
330
17
100
AcDbEntity
  8
FP-Furniture
100
AcDbLine
 10
-13.503073723873968
 20
271.95518468664704
 30
0.0
 11
76.4944006311307
 21
271.95476635985096
 31
0.0
  0
LINE
  5
10E
330
17
100
AcDbEntity
  8
FP-Furniture
100
AcDbLine
 10
-13.502635814715177
 20
264.95518468664795
 30
0.0
 11
76.49407137652815
 21
264.95476635985005
 31
0.0
  0
LINE
  5
10F
330
17
100
AcDbEntity
  8
FP-Furniture
100
AcDbLine
 10
-8.503073714087805
 20
271.9551846866516
 30
0.0
 11
-8.504515479748079
 21
295.00188156634067
 31
0.0
  0
LINE
  5
110
330
17
100
AcDbEntity
  8
FP-Above
100
AcDbLine
 10
-4.49703088874594
 20
36.0
 30
0.0
 11
67.50296911125406
 21
36.0
 31
0.0
  0
LINE
  5
111
330
17
100
AcDbEntity
  8
FP-Proposed Wall
100
AcDbLine
 10
-4.49703088874594
 20
46.99999999999636
 30
0.0
 11
-4.49703088874594
 21
36.0
 31
0.0
  0
LWPOLYLINE
  5
112
330
17
100
AcDbEntity
  8
FP-Door
100
AcDbPolyline
 90
4
 70
0
 10
20.95881323397043
 20
72.45584412271205
 10
22.019473405749522
 20
71.39518395093228
 10
-3.4363707169668487
 20
45.93933982821659
 10
-4.49703088874594
 20
46.99999999999636
  0
LINE
  5
113
330
17
100
AcDbEntity
  8
FP-Above
100
AcDbLine
 10
-4.49703088874594
 20
46.99999999999636
 30
0.0
 11
67.50296911125406
 21
46.99999999999818
 31
0.0
  0
LWPOLYLINE
  5
114
330
17
100
AcDbEntity
  8
FP-Furniture
100
AcDbPolyline
 90
4
 70
1
 10
1.4954844957537716
 20
339.00000000003865
 10
61.49548449575377
 20
339.00000000003865
 10
61.49661337181533
 20
308.99788343706723
 10
1.4966133718153287
 20
308.99788343706723
  0
LINE
  5
115
330
17
100
AcDbEntity
  8
FP-Proposed Wall
100
AcDbLine
 10
1.499999999996362
 20
369.00000000003865
 30
0.0
 11
1.499999999996362
 21
383.00000000003865
 31
0.0
  0
LWPOLYLINE
  5
116
330
17
100
AcDbEntity
  8
FP-Furniture
100
AcDbPolyline
 90
2
 70
0
 10
1.499999999996362
 20
369.00000000003865
 10
61.49999999999636
 20
369.00000000003865
  0
LINE
  5
117
330
17
100
AcDbEntity
  8
FP-Proposed Wall
100
AcDbLine
 10
61.49999999999636
 20
383.00000000003865
 30
0.0
 11
1.499999999996362
 21
383.00000000003865
 31
0.0
  0
LINE
  5
118
330
17
100
AcDbEntity
  8
FP-Furniture
100
AcDbLine
 10
18.162751072366518
 20
271.9551846866516
 30
0.0
 11
18.163835049383124
 21
295.0006271804
 31
0.0
  0
LWPOLYLINE
  5
119
330
17
100
AcDbEntity
  8
FP-Door
100
AcDbPolyline
 90
4
 70
0
 10
42.04712498853769
 20
72.45584412271387
 10
40.9864648167586
 20
71.3951839509341
 10
66.44230893947497
 20
45.93933982821841
 10
67.50296911125406
 20
46.99999999999818
  0
LINE
  5
11A
330
17
100
AcDbEntity
  8
FP-Furniture
100
AcDbLine
 10
44.82857585882084
 20
271.9551846866516
 30
0.0
 11
44.82965977684216
 21
294.9993729132648
 31
0.0
  0
LWPOLYLINE
  5
11B
330
17
100
AcDbEntity
  8
FP-Furniture
 62
8
100
AcDbPolyline
 90
4
 70
1
 10
68.99866352173194
 20
157.7347453701259
 10
68.99866352173194
 20
174.10737367394177
 10
57.66020241471051
 20
174.10737367393085
 10
57.66020241471051
 20
157.73474537012225
  0
LWPOLYLINE
  5
11C
330
17
100
AcDbEntity
  8
FP-Furniture
 62
8
100
AcDbPolyline
 90
4
 70
1
 10
68.99866352173194
 20
196.1069040589282
 10
68.99866352173194
 20
179.73427575511232
 10
57.66020241471051
 20
179.73427575512324
 10
57.66020241471051
 20
196.10690405893183
  0
LWPOLYLINE
  5
11D
330
17
100
AcDbEntity
  8
FP-Furniture
 62
8
100
AcDbPolyline
 90
4
 70
1
 10
68.99866352176832
 20
114.23427575513051
 10
68.99866352176832
 20
130.60690405894638
 10
57.66020241474689
 20
130.60690405893547
 10
57.66020241474689
 20
114.23427575512687
  0
LWPOLYLINE
  5
11E
330
17
100
AcDbEntity
  8
FP-Furniture
 62
8
100
AcDbPolyline
 90
4
 70
1
 10
68.99866352176832
 20
135.73427575512324
 10
68.99866352176832
 20
152.10690405893547
 10
57.66020241474689
 20
152.1069040589391
 10
57.66020241474689
 20
135.73427575513415
  0
LWPOLYLINE
  5
11F
330
17
100
AcDbEntity
  8
FP-Furniture
 62
8
100
AcDbPolyline
 90
4
 70
1
 10
68.9986635218047
 20
92.23380614012785
 10
68.9986635218047
 20
108.60643444394009
 10
57.66020241478327
 20
108.60643444394373
 10
57.66020241478327
 20
92.23380614013877
  0
LWPOLYLINE
  5
120
330
17
100
AcDbEntity
  8
FP-Furniture
 62
8
100
AcDbPolyline
 90
4
 70
1
 10
59.24408261352437
 20
158.10292831152037
 10
59.24408261352437
 20
173.6765303945176
 10
58.00281318569978
 20
173.67653039452125
 10
58.00281318569978
 20
158.102928311524
  0
LWPOLYLINE
  5
121
330
17
100
AcDbEntity
  8
FP-Furniture
 62
8
100
AcDbPolyline
 90
4
 70
1
 10
59.24408261352437
 20
195.73872111753371
 10
59.24408261352437
 20
180.16511903453647
 10
58.00281318569978
 20
180.16511903453284
 10
58.00281318569978
 20
195.73872111753008
  0
LWPOLYLINE
  5
122
330
17
100
AcDbEntity
  8
FP-Furniture
 62
8
100
AcDbPolyline
 90
4
 70
1
 10
59.24408261356075
 20
136.1024586965068
 10
59.24408261355347
 20
151.6760607795004
 10
58.00281318572888
 20
151.67606077950404
 10
58.00281318572888
 20
136.1024586965068
  0
LWPOLYLINE
  5
123
330
17
100
AcDbEntity
  8
FP-Furniture
 62
8
100
AcDbPolyline
 90
4
 70
1
 10
59.24408261356075
 20
114.60245869652499
 10
59.24408261356075
 20
130.17606077952223
 10
58.00281318573616
 20
130.17606077952587
 10
58.00281318573616
 20
114.60245869652863
  0
LWPOLYLINE
  5
124
330
17
100
AcDbEntity
  8
FP-Furniture
 62
8
100
AcDbPolyline
 90
4
 70
1
 10
59.24408261359713
 20
92.60198908151142
 10
59.24408261358985
 20
108.17559116450502
 10
58.00281318576526
 20
108.17559116450866
 10
58.00281318576526
 20
92.60198908151142
  0
LWPOLYLINE
  5
125
330
17
100
AcDbEntity
  8
FP-Furniture
 62
8
100
AcDbPolyline
 90
4
 70
0
 10
68.99866352173194
 20
158.0270812642084
 10
59.91227526931107
 20
158.0270812642084
 10
59.91227526931834
 20
160.82679271000234
 10
68.99866352173194
 20
160.82679270999142
  0
LWPOLYLINE
  5
126
330
17
100
AcDbEntity
  8
FP-Furniture
 62
8
100
AcDbPolyline
 90
4
 70
0
 10
68.99866352173194
 20
195.8145681648457
 10
59.91227526931107
 20
195.8145681648457
 10
59.91227526931834
 20
193.01485671905175
 10
68.99866352173194
 20
193.01485671906266
  0
LWPOLYLINE
  5
127
330
17
100
AcDbEntity
  8
FP-Furniture
 62
8
100
AcDbPolyline
 90
4
 70
0
 10
68.99866352173194
 20
173.75237744181868
 10
59.91227526931834
 20
173.75237744181868
 10
59.91227526932562
 20
170.9526659960502
 10
68.99866352173194
 20
170.95266599604292
  0
LWPOLYLINE
  5
128
330
17
100
AcDbEntity
  8
FP-Furniture
 62
8
100
AcDbPolyline
 90
4
 70
0
 10
68.99866352173194
 20
180.0892719872354
 10
59.91227526931834
 20
180.0892719872354
 10
59.91227526932562
 20
182.8889834330039
 10
68.99866352173194
 20
182.88898343301116
  0
LWPOLYLINE
  5
129
330
17
100
AcDbEntity
  8
FP-Furniture
 62
8
100
AcDbPolyline
 90
4
 70
0
 10
68.99866352176832
 20
114.52661164921301
 10
59.91227526934745
 20
114.52661164921301
 10
59.91227526935472
 20
117.32632309500696
 10
68.99866352176832
 20
117.32632309499604
  0
LWPOLYLINE
  5
12A
330
17
100
AcDbEntity
  8
FP-Furniture
 62
8
100
AcDbPolyline
 90
4
 70
0
 10
68.99866352176832
 20
136.0266116492021
 10
59.91227526934745
 20
136.02661164919482
 10
59.91227526935472
 20
138.82632309497785
 10
68.99866352176832
 20
138.8263230949815
  0
LWPOLYLINE
  5
12B
330
17
100
AcDbEntity
  8
FP-Furniture
 62
8
100
AcDbPolyline
 90
4
 70
0
 10
68.99866352176832
 20
130.2519078268233
 10
59.91227526935472
 20
130.2519078268233
 10
59.912275269362
 20
127.45219638105482
 10
68.99866352176832
 20
127.45219638104754
  0
LWPOLYLINE
  5
12C
330
17
100
AcDbEntity
  8
FP-Furniture
 62
8
100
AcDbPolyline
 90
4
 70
0
 10
68.99866352176832
 20
151.7519078268051
 10
59.91227526935472
 20
151.75190782681238
 10
59.91227526935472
 20
148.952196381033
 10
68.99866352176832
 20
148.95219638102935
  0
LWPOLYLINE
  5
12D
330
17
100
AcDbEntity
  8
FP-Furniture
 62
8
100
AcDbPolyline
 90
4
 70
0
 10
68.9986635218047
 20
92.52614203420671
 10
59.91227526938383
 20
92.52614203419944
 10
59.9122752693911
 20
95.32585347998247
 10
68.9986635218047
 20
95.32585347998611
  0
LWPOLYLINE
  5
12E
330
17
100
AcDbEntity
  8
FP-Furniture
 62
8
100
AcDbPolyline
 90
4
 70
0
 10
68.9986635218047
 20
108.25143821180973
 10
59.9122752693911
 20
108.251438211817
 10
59.9122752693911
 20
105.45172676603761
 10
68.9986635218047
 20
105.45172676603397
  0
LINE
  5
12F
330
17
100
AcDbEntity
  8
FP-Proposed Wall
100
AcDbLine
 10
85.49999999999636
 20
369.00000000003865
 30
0.0
 11
61.49999999999636
 21
369.00000000003865
 31
0.0
  0
LINE
  5
130
330
17
100
AcDbEntity
  8
FP-Proposed Wall
100
AcDbLine
 10
61.49999999999636
 20
369.00000000003865
 30
0.0
 11
61.49999999999636
 21
383.00000000003865
 31
0.0
  0
LINE
  5
131
330
17
100
AcDbEntity
  8
FP-Proposed Wall
100
AcDbLine
 10
67.50296911125406
 20
36.0
 30
0.0
 11
175.99866352177196
 21
35.99999999999636
 31
0.0
  0
LINE
  5
132
330
17
100
AcDbEntity
  8
FP-Proposed Wall
100
AcDbLine
 10
67.50296911125406
 20
46.99999999999818
 30
0.0
 11
67.50296911125406
 21
36.0
 31
0.0
  0
LWPOLYLINE
  5
133
330
17
100
AcDbEntity
  8
FP-Wall Detail
100
AcDbPolyline
 90
3
 70
0
 10
172.49866352177196
 20
334.9999999999459
 10
172.49866352177196
 20
39.49999999999727
 10
67.50296911125406
 20
39.5
  0
LWPOLYLINE
  5
134
330
17
100
AcDbEntity
  8
FP-Wall Detail
100
AcDbPolyline
 90
3
 70
0
 10
171.49866352177196
 20
334.9999999999459
 10
171.49866352177196
 20
40.49999999999727
 10
67.50296911125406
 20
40.5
  0
LWPOLYLINE
  5
135
330
17
100
AcDbEntity
  8
FP-Wall Detail
100
AcDbPolyline
 90
3
 70
0
 10
170.99866352177196
 20
334.9999999999459
 10
170.99866352177196
 20
40.99999999999727
 10
67.50296911125406
 20
41.0
  0
LWPOLYLINE
  5
136
330
17
100
AcDbEntity
  8
FP-Wall Detail
100
AcDbPolyline
 90
2
 70
0
 10
135.00303045857436
 20
46.50000000000091
 10
67.50296911125406
 20
46.50000000000091
  0
LINE
  5
137
330
17
100
AcDbEntity
  8
FP-Proposed Wall
100
AcDbLine
 10
67.50296911125406
 20
46.99999999999818
 30
0.0
 11
100.4986635217665
 21
46.99999999999818
 31
0.0
  0
LWPOLYLINE
  5
138
330
17
100
AcDbEntity
  8
FP-Fixture
100
AcDbPolyline
 90
5
 70
0
 10
68.99866352176832
 20
199.50023480749041
 10
104.99866352176832
 20
199.50023480749041
 10
104.99866352176832
 20
88.49976519250231
 10
68.99866352176832
 20
88.49976519250231
 10
68.99866352176832
 20
199.50023480749041
  0
LINE
  5
139
330
17
100
AcDbEntity
  8
FP-Furniture
100
AcDbLine
 10
71.49548450128532
 20
294.99811864612957
 30
0.0
 11
71.49440062559916
 21
271.9547663598455
 31
0.0
  0
LINE
  5
13A
330
17
100
AcDbEntity
  8
FP-Furniture
100
AcDbLine
 10
76.49548449575559
 20
294.9978834636172
 30
0.0
 11
76.49407137652815
 21
264.95476635985005
 31
0.0
  0
LINE
  5
13B
330
17
100
AcDbEntity
  8
FP-Furniture
100
AcDbLine
 10
108.53940338143548
 20
341.55763296894384
 30
0.0
 11
78.49247131922857
 21
341.55575327943643
 31
0.0
  0
LINE
  5
13C
330
17
100
AcDbEntity
  8
FP-Furniture
100
AcDbLine
 10
78.49247131923039
 20
341.5557532794346
 30
0.0
 11
78.4982733063116
 21
307.8533292010802
 31
0.0
  0
LINE
  5
13D
330
17
100
AcDbEntity
  8
FP-Furniture
100
AcDbLine
 10
101.54002896593738
 20
336.55719508914217
 30
0.0
 11
78.49333208624921
 21
336.55575332350077
 31
0.0
  0
LINE
  5
13E
330
17
100
AcDbEntity
  8
FP-Furniture
100
AcDbLine
 10
108.54361965399949
 20
307.8589679721074
 30
0.0
 11
78.49668806215595
 21
307.8533289035672
 31
0.0
  0
LINE
  5
13F
330
17
100
AcDbEntity
  8
FP-Furniture
100
AcDbLine
 10
78.49741253930915
 20
312.85332905784276
 30
0.0
 11
101.54299435943176
 21
312.8562124496161
 31
0.0
  0
LWPOLYLINE
  5
140
330
17
100
AcDbEntity
  8
FP-Mill
100
AcDbPolyline
 90
4
 70
1
 10
80.99866352176832
 20
198.50023480749041
 10
103.99866352176832
 20
198.50023480749041
 10
103.99866352176832
 20
89.49976519250231
 10
80.99866352176832
 20
89.49976519250231
  0
LINE
  5
141
330
17
100
AcDbEntity
  8
FP-Proposed Wall
100
AcDbLine
 10
85.49999999999636
 20
369.00000000003865
 30
0.0
 11
85.49999999999636
 21
383.00000000003865
 31
0.0
  0
LINE
  5
142
330
17
100
AcDbEntity
  8
FP-Proposed Wall
100
AcDbLine
 10
107.24933176088962
 20
383.0000000000168
 30
0.0
 11
85.49999999999636
 21
382.9999999999968
 31
0.0
  0
LINE
  5
143
330
17
100
AcDbEntity
  8
FP-Proposed Wall
100
AcDbLine
 10
107.24933176088234
 20
394.0000000000168
 30
0.0
 11
85.49999999999636
 21
393.9999999999968
 31
0.0
  0
LINE
  5
144
330
17
100
AcDbEntity
  8
FP-Proposed Wall
100
AcDbLine
 10
85.49999999999636
 20
394.00000000003865
 30
0.0
 11
85.49999999999636
 21
406.00000000003865
 31
0.0
  0
LINE
  5
145
330
17
100
AcDbEntity
  8
FP-Proposed Wall
100
AcDbLine
 10
100.4986635217665
 20
46.99999999999818
 30
0.0
 11
104.9986635217665
 21
46.99673547438124
 31
0.0
  0
LWPOLYLINE
  5
146
330
17
100
AcDbEntity
  8
FP-Proposed Wall
100
AcDbPolyline
 90
2
 70
0
 10
100.4986635217665
 20
46.99999999999818
 10
100.4986635217665
 20
46.99999999999727
  0
LINE
  5
147
330
17
100
AcDbEntity
  8
FP-Furniture
100
AcDbLine
 10
101.5394033814373
 20
341.5571950597914
 30
0.0
 11
101.54361976354085
 21
307.85765424464694
 31
0.0
  0
LWPOLYLINE
  5
148
330
17
100
AcDbEntity
  8
FP-Proposed Wall
100
AcDbPolyline
 90
2
 70
0
 10
104.9986635217665
 20
46.99673547438124
 10
104.9986635217665
 20
46.99999999999727
  0
LINE
  5
149
330
17
100
AcDbEntity
  8
FP-Proposed Wall
100
AcDbLine
 10
104.9986635217665
 20
46.99999999999818
 30
0.0
 11
134.503030458578
 21
46.99999999999636
 31
0.0
  0
LINE
  5
14A
330
17
100
AcDbEntity
  8
FP-Window
100
AcDbLine
 10
105.24933176091508
 20
394.0000000000616
 30
0.0
 11
105.24933176091508
 21
396.0000000000616
 31
0.0
  0
LINE
  5
14B
330
17
100
AcDbEntity
  8
FP-Window
100
AcDbLine
 10
105.24933176091508
 20
396.0000000000616
 30
0.0
 11
145.24933176091508
 21
396.00000000004525
 31
0.0
  0
LINE
  5
14C
330
17
100
AcDbEntity
  8
FP-Proposed Wall
100
AcDbLine
 10
107.24933176088962
 20
383.000000000055
 30
0.0
 11
107.24933176088598
 21
394.0000000000168
 31
0.0
  0
LINE
  5
14D
330
17
100
AcDbEntity
  8
FP-Window
100
AcDbLine
 10
107.2493317608878
 20
383.0000000000555
 30
0.0
 11
143.2493317608878
 21
382.9999999999791
 31
0.0
  0
LWPOLYLINE
  5
14E
330
17
100
AcDbEntity
  8
FP-Window
100
AcDbPolyline
 90
9
 70
0
 10
107.24933176091508
 20
392.8933925530241
 10
108.24933176091508
 20
392.8933925530241
 10
108.24933176091508
 20
389.8933925530241
 10
108.74933176091508
 20
389.8933925530241
 10
108.74933176091508
 20
389.3933925530241
 10
108.24933176091508
 20
389.3933925530241
 10
108.24933176091508
 20
387.3933925530241
 10
107.24933176091508
 20
387.3933925530241
 10
107.24933176091508
 20
392.8933925530241
  0
LINE
  5
14F
330
17
100
AcDbEntity
  8
FP-Window
100
AcDbLine
 10
142.24933176091326
 20
387.39339255291316
 30
0.0
 11
108.24933176091508
 21
387.3933925530241
 31
0.0
  0
LINE
  5
150
330
17
100
AcDbEntity
  8
FP-Window
100
AcDbLine
 10
108.24933176091508
 20
392.8933925530241
 30
0.0
 11
142.24933176091326
 21
392.89339255291316
 31
0.0
  0
LWPOLYLINE
  5
151
330
17
100
AcDbEntity
  8
FP-Window
100
AcDbPolyline
 90
4
 70
0
 10
110.49933176091508
 20
391.6433925530241
 10
108.49933176091508
 20
391.6433925530241
 10
108.49933176091508
 20
390.1433925530241
 10
110.49933176091508
 20
390.1433925530241
  0
LINE
  5
152
330
17
100
AcDbEntity
  8
FP-Furniture
100
AcDbLine
 10
108.53940338143548
 20
341.55763296894384
 30
0.0
 11
108.54361965396129
 21
307.8589679721081
 31
0.0
  0
LWPOLYLINE
  5
153
330
17
100
AcDbEntity
  8
FP-Window
100
AcDbPolyline
 90
4
 70
0
 10
110.24933176091508
 20
390.5183925530241
 10
140.24933176096783
 20
390.51839255296954
 10
140.24933176096783
 20
390.64339255296954
 10
110.24933176091508
 20
390.6433925530241
  0
LINE
  5
154
330
17
100
AcDbEntity
  8
FP-Window
100
AcDbLine
 10
110.24933176091508
 20
390.6433925530241
 30
0.0
 11
110.24933176091508
 21
391.1433925530241
 31
0.0
  0
LWPOLYLINE
  5
155
330
17
100
AcDbEntity
  8
FP-Window
100
AcDbPolyline
 90
4
 70
0
 10
110.24933176091508
 20
391.2683925530241
 10
140.24933176096783
 20
391.26839255296954
 10
140.24933176096783
 20
391.14339255296954
 10
110.24933176091508
 20
391.1433925530241
  0
LINE
  5
156
330
17
100
AcDbEntity
  8
FP-Window
100
AcDbLine
 10
110.49933176091508
 20
390.1433925530241
 30
0.0
 11
139.99933176096783
 21
390.14339255296954
 31
0.0
  0
LINE
  5
157
330
17
100
AcDbEntity
  8
FP-Window
100
AcDbLine
 10
110.49933176091508
 20
390.1433925530241
 30
0.0
 11
110.74933176091508
 21
390.3933925530241
 31
0.0
  0
LINE
  5
158
330
17
100
AcDbEntity
  8
FP-Window
100
AcDbLine
 10
110.49933176091508
 20
391.6433925530241
 30
0.0
 11
110.74933176091508
 21
391.3933925530241
 31
0.0
  0
LINE
  5
159
330
17
100
AcDbEntity
  8
FP-Window
100
AcDbLine
 10
139.99933176096783
 20
391.64339255296954
 30
0.0
 11
110.49933176091508
 21
391.6433925530241
 31
0.0
  0
LINE
  5
15A
330
17
100
AcDbEntity
  8
FP-Window
100
AcDbLine
 10
110.74933176091508
 20
390.5183925530241
 30
0.0
 11
110.74933176091508
 21
390.3933925530241
 31
0.0
  0
LINE
  5
15B
330
17
100
AcDbEntity
  8
FP-Window
100
AcDbLine
 10
110.74933176091508
 20
391.3933925530241
 30
0.0
 11
110.74933176091508
 21
391.2683925530241
 31
0.0
  0
LINE
  5
15C
330
17
100
AcDbEntity
  8
FP-Proposed Wall
100
AcDbLine
 10
134.503030458578
 20
46.99999999999636
 30
0.0
 11
164.99866352177196
 21
46.99999999999636
 31
0.0
  0
LWPOLYLINE
  5
15D
330
17
100
AcDbEntity
  8
FP-Wall Detail
100
AcDbPolyline
 90
3
 70
0
 10
165.49866352177196
 20
334.9999999999459
 10
165.49866352177196
 20
46.49999999999727
 10
135.00303045857436
 20
46.50000000000091
  0
LINE
  5
15E
330
17
100
AcDbEntity
  8
FP-Window
100
AcDbLine
 10
139.99933176091326
 20
390.1433925530241
 30
0.0
 11
139.74933176091326
 21
390.3933925530241
 31
0.0
  0
LINE
  5
15F
330
17
100
AcDbEntity
  8
FP-Window
100
AcDbLine
 10
139.74933176091326
 20
390.5183925530241
 30
0.0
 11
139.74933176091326
 21
390.3933925530241
 31
0.0
  0
LINE
  5
160
330
17
100
AcDbEntity
  8
FP-Window
100
AcDbLine
 10
139.74933176091326
 20
391.3933925530241
 30
0.0
 11
139.74933176091326
 21
391.2683925530241
 31
0.0
  0
LINE
  5
161
330
17
100
AcDbEntity
  8
FP-Window
100
AcDbLine
 10
139.99933176091326
 20
391.6433925530241
 30
0.0
 11
139.74933176091326
 21
391.3933925530241
 31
0.0
  0
LWPOLYLINE
  5
162
330
17
100
AcDbEntity
  8
FP-Window
100
AcDbPolyline
 90
4
 70
0
 10
139.99933176091326
 20
391.6433925530241
 10
141.99933176091326
 20
391.6433925530241
 10
141.99933176091326
 20
390.1433925530241
 10
139.99933176091326
 20
390.1433925530241
  0
LINE
  5
163
330
17
100
AcDbEntity
  8
FP-Window
100
AcDbLine
 10
140.24933176091326
 20
390.6433925530241
 30
0.0
 11
140.24933176091326
 21
391.1433925530241
 31
0.0
  0
LWPOLYLINE
  5
164
330
17
100
AcDbEntity
  8
FP-Fixture
100
AcDbPolyline
 90
2
 70
0
 10
140.99866352177196
 20
46.99999999999636
 10
140.99866352176832
 20
240.99999999999682
  0
LINE
  5
165
330
17
100
AcDbEntity
  8
FP-Fixture
100
AcDbLine
 10
140.99866352177196
 20
239.99999999999682
 30
0.0
 11
164.99866352177196
 21
239.99999999999682
 31
0.0
  0
LINE
  5
166
330
17
100
AcDbEntity
  8
FP-Fixture
100
AcDbLine
 10
140.99866352177196
 20
240.99999999999682
 30
0.0
 11
164.99866352177196
 21
240.99999999999682
 31
0.0
  0
LWPOLYLINE
  5
167
330
17
100
AcDbEntity
  8
FP-Window
100
AcDbPolyline
 90
9
 70
0
 10
143.24933176091326
 20
392.8933925530241
 10
142.24933176091326
 20
392.8933925530241
 10
142.24933176091326
 20
389.8933925530241
 10
141.74933176091326
 20
389.8933925530241
 10
141.74933176091326
 20
389.3933925530241
 10
142.24933176091326
 20
389.3933925530241
 10
142.24933176091326
 20
387.3933925530241
 10
143.24933176091326
 20
387.3933925530241
 10
143.24933176091326
 20
392.8933925530241
  0
LWPOLYLINE
  5
168
330
17
100
AcDbEntity
  8
FP-Mill
100
AcDbPolyline
 90
2
 70
0
 10
141.99866352176832
 20
46.99999999999636
 10
141.99866352176832
 20
239.99999999999682
  0
LWPOLYLINE
  5
169
330
17
100
AcDbEntity
  8
FP-Wall Detail
100
AcDbPolyline
 90
3
 70
0
 10
143.24933176088598
 20
390.50000000001137
 10
172.49866352177196
 20
390.49999999999864
 10
172.49866352177196
 20
370.99999999994407
  0
LWPOLYLINE
  5
16A
330
17
100
AcDbEntity
  8
FP-Wall Detail
100
AcDbPolyline
 90
3
 70
0
 10
143.24933176088598
 20
389.50000000001137
 10
171.49866352177196
 20
389.49999999999864
 10
171.49866352177196
 20
370.99999999994407
  0
LWPOLYLINE
  5
16B
330
17
100
AcDbEntity
  8
FP-Wall Detail
100
AcDbPolyline
 90
3
 70
0
 10
143.24933176088598
 20
389.00000000001137
 10
170.99866352177196
 20
388.99999999999864
 10
170.99866352177196
 20
370.99999999994407
  0
LWPOLYLINE
  5
16C
330
17
100
AcDbEntity
  8
FP-Wall Detail
100
AcDbPolyline
 90
3
 70
0
 10
143.24933176088598
 20
383.50000000001137
 10
165.49866352177196
 20
383.5000000000023
 10
165.49866352177196
 20
370.99999999994407
  0
LINE
  5
16D
330
17
100
AcDbEntity
  8
FP-Proposed Wall
100
AcDbLine
 10
143.24933176088598
 20
383.000000000055
 30
0.0
 11
143.24933176088598
 21
394.0000000000168
 31
0.0
  0
LINE
  5
16E
330
17
100
AcDbEntity
  8
FP-Window
100
AcDbLine
 10
143.2493317608878
 20
383.0000000000555
 30
0.0
 11
143.2493317608878
 21
382.9999999999791
 31
0.0
  0
LINE
  5
16F
330
17
100
AcDbEntity
  8
FP-Proposed Wall
100
AcDbLine
 10
164.99866352177196
 20
382.9999999999968
 30
0.0
 11
143.24933176088962
 21
383.0000000000168
 31
0.0
  0
LINE
  5
170
330
17
100
AcDbEntity
  8
FP-Proposed Wall
100
AcDbLine
 10
175.99866352177196
 20
393.9999999999968
 30
0.0
 11
143.24933176088962
 21
394.0000000000168
 31
0.0
  0
LWPOLYLINE
  5
171
330
17
100
AcDbEntity
  8
FP-Furniture
100
AcDbPolyline
 90
4
 70
1
 10
144.99866352177014
 20
156.99999999999636
 10
144.99866352177014
 20
130.99999999999636
 10
162.99866352177014
 20
130.99999999999636
 10
162.99866352177014
 20
156.99999999999636
  0
LINE
  5
172
330
17
100
AcDbEntity
  8
FP-Window
100
AcDbLine
 10
145.24933176091508
 20
396.00000000004525
 30
0.0
 11
145.24933176091508
 21
394.00000000004525
 31
0.0
  0
LWPOLYLINE
  5
173
330
17
100
AcDbEntity
  8
FP-Furniture
100
AcDbPolyline
 90
4
 70
1
 10
145.99866352177014
 20
155.99999999999636
 10
145.99866352177014
 20
131.99999999999636
 10
161.99866352177014
 20
131.99999999999636
 10
161.99866352177014
 20
155.99999999999636
  0
LINE
  5
174
330
17
100
AcDbEntity
  8
FP-Furniture
100
AcDbLine
 10
145.99866352177014
 20
155.99999999999636
 30
0.41353464330244805
 11
161.99866352177014
 21
131.99999999999636
 31
0.41353464330244805
  0
LINE
  5
175
330
17
100
AcDbEntity
  8
FP-Furniture
100
AcDbLine
 10
161.99866352177014
 20
155.99999999999636
 30
0.41353464330244805
 11
145.99866352177014
 21
131.99999999999636
 31
0.41353464330244805
  0
LWPOLYLINE
  5
176
330
17
100
AcDbEntity
  8
FP-Mill
100
AcDbPolyline
 90
2
 70
0
 10
152.99866352176832
 20
46.99999999999636
 10
152.99866352176832
 20
239.99999999999682
  0
LINE
  5
177
330
17
100
AcDbEntity
  8
FP-Proposed Wall
100
AcDbLine
 10
164.99866352177196
 20
46.99999999999636
 30
0.0
 11
164.99866352174104
 21
106.99999999999636
 31
0.0
  0
LWPOLYLINE
  5
178
330
17
100
AcDbEntity
  8
FP-Proposed Wall
100
AcDbPolyline
 90
3
 70
0
 10
164.99866352174104
 20
106.99999999999636
 10
164.99866352174104
 20
106.99999999999636
 10
164.99866352177196
 20
114.99999999999636
  0
LINE
  5
179
330
17
100
AcDbEntity
  8
FP-Window
100
AcDbLine
 10
164.99866352182835
 20
334.99999999994475
 30
0.0
 11
164.99866352175377
 21
370.9999999999436
 31
0.0
  0
LINE
  5
17A
330
17
100
AcDbEntity
  8
FP-Window
100
AcDbLine
 10
164.99866352183017
 20
370.99999999994407
 30
0.0
 11
164.99866352175377
 21
370.9999999999436
 31
0.0
  0
LINE
  5
17B
330
17
100
AcDbEntity
  8
FP-Proposed Wall
100
AcDbLine
 10
164.99866352177196
 20
114.99999999999636
 30
0.0
 11
164.99866352177196
 21
239.99999999999682
 31
0.0
  0
LINE
  5
17C
330
17
100
AcDbEntity
  8
FP-Proposed Wall
100
AcDbLine
 10
164.99866352177196
 20
239.99999999999682
 30
0.0
 11
164.99866352177196
 21
334.9999999999459
 31
0.0
  0
LINE
  5
17D
330
17
100
AcDbEntity
  8
FP-Proposed Wall
100
AcDbLine
 10
164.99866352177196
 20
370.99999999994407
 30
0.0
 11
164.99866352177196
 21
382.9999999999968
 31
0.0
  0
LWPOLYLINE
  5
17E
330
17
100
AcDbEntity
  8
FP-Proposed Wall
100
AcDbPolyline
 90
2
 70
0
 10
164.99866352182835
 20
334.9999999999459
 10
175.9986635217483
 20
334.9999999999459
  0
LWPOLYLINE
  5
17F
330
17
100
AcDbEntity
  8
FP-Proposed Wall
100
AcDbPolyline
 90
2
 70
0
 10
164.99866352183017
 20
370.99999999994407
 10
175.99866352174467
 20
370.99999999994407
  0
LINE
  5
180
330
17
100
AcDbEntity
  8
FP-Window
100
AcDbLine
 10
169.3920560746883
 20
369.9999999999702
 30
0.0
 11
169.39205607479744
 21
335.99999999997135
 31
0.0
  0
LWPOLYLINE
  5
181
330
17
100
AcDbEntity
  8
FP-Window
100
AcDbPolyline
 90
9
 70
0
 10
174.89205607479744
 20
334.9999999999711
 10
174.89205607479744
 20
335.9999999999711
 10
171.89205607479744
 20
335.99999999997135
 10
171.89205607479744
 20
336.49999999997135
 10
171.39205607479744
 20
336.49999999997135
 10
171.39205607479744
 20
335.99999999997135
 10
169.39205607479744
 20
335.99999999997135
 10
169.39205607479744
 20
334.99999999997135
 10
174.89205607479744
 20
334.9999999999711
  0
LWPOLYLINE
  5
182
330
17
100
AcDbEntity
  8
FP-Window
100
AcDbPolyline
 90
9
 70
0
 10
174.89205607479926
 20
370.9999999999702
 10
174.89205607479926
 20
369.9999999999702
 10
171.89205607479926
 20
369.9999999999702
 10
171.89205607479926
 20
369.4999999999702
 10
171.39205607479926
 20
369.4999999999702
 10
171.39205607479926
 20
369.9999999999702
 10
169.39205607479926
 20
369.9999999999702
 10
169.39205607479926
 20
370.9999999999702
 10
174.89205607479926
 20
370.9999999999702
  0
LINE
  5
183
330
17
100
AcDbEntity
  8
FP-Window
100
AcDbLine
 10
172.14205607479744
 20
338.2499999999711
 30
0.0
 11
172.1420560747447
 21
367.7500000000248
 31
0.0
  0
LWPOLYLINE
  5
184
330
17
100
AcDbEntity
  8
FP-Window
100
AcDbPolyline
 90
4
 70
0
 10
173.64205607479744
 20
338.2499999999711
 10
173.64205607479744
 20
336.2499999999711
 10
172.14205607479744
 20
336.2499999999711
 10
172.14205607479744
 20
338.2499999999711
  0
LINE
  5
185
330
17
100
AcDbEntity
  8
FP-Window
100
AcDbLine
 10
172.14205607479744
 20
338.2499999999711
 30
0.0
 11
172.39205607479744
 21
338.4999999999711
 31
0.0
  0
LINE
  5
186
330
17
100
AcDbEntity
  8
FP-Window
100
AcDbLine
 10
172.14205607479926
 20
367.7499999999702
 30
0.0
 11
172.39205607479926
 21
367.4999999999702
 31
0.0
  0
LWPOLYLINE
  5
187
330
17
100
AcDbEntity
  8
FP-Window
100
AcDbPolyline
 90
4
 70
0
 10
173.64205607479926
 20
367.7499999999702
 10
173.64205607479926
 20
369.7499999999702
 10
172.14205607479926
 20
369.7499999999702
 10
172.14205607479926
 20
367.7499999999702
  0
LINE
  5
188
330
17
100
AcDbEntity
  8
FP-Window
100
AcDbLine
 10
172.51705607479744
 20
338.4999999999711
 30
0.0
 11
172.39205607479744
 21
338.4999999999711
 31
0.0
  0
LINE
  5
189
330
17
100
AcDbEntity
  8
FP-Window
100
AcDbLine
 10
172.51705607479926
 20
367.4999999999702
 30
0.0
 11
172.39205607479926
 21
367.4999999999702
 31
0.0
  0
LWPOLYLINE
  5
18A
330
17
100
AcDbEntity
  8
FP-Window
100
AcDbPolyline
 90
4
 70
0
 10
172.51705607479744
 20
337.9999999999711
 10
172.5170560747447
 20
368.0000000000248
 10
172.6420560747447
 20
368.0000000000248
 10
172.64205607479744
 20
337.9999999999711
  0
LINE
  5
18B
330
17
100
AcDbEntity
  8
FP-Window
100
AcDbLine
 10
172.64205607479744
 20
337.9999999999711
 30
0.0
 11
173.14205607479744
 21
337.9999999999711
 31
0.0
  0
LINE
  5
18C
330
17
100
AcDbEntity
  8
FP-Window
100
AcDbLine
 10
172.64205607479926
 20
367.9999999999702
 30
0.0
 11
173.14205607479926
 21
367.9999999999702
 31
0.0
  0
LWPOLYLINE
  5
18D
330
17
100
AcDbEntity
  8
FP-Window
100
AcDbPolyline
 90
4
 70
0
 10
173.26705607479744
 20
337.9999999999711
 10
173.2670560747447
 20
368.0000000000248
 10
173.1420560747447
 20
368.0000000000248
 10
173.14205607479744
 20
337.9999999999711
  0
LINE
  5
18E
330
17
100
AcDbEntity
  8
FP-Window
100
AcDbLine
 10
173.39205607479744
 20
338.4999999999711
 30
0.0
 11
173.26705607479744
 21
338.4999999999711
 31
0.0
  0
LINE
  5
18F
330
17
100
AcDbEntity
  8
FP-Window
100
AcDbLine
 10
173.39205607479926
 20
367.4999999999702
 30
0.0
 11
173.26705607479926
 21
367.4999999999702
 31
0.0
  0
LINE
  5
190
330
17
100
AcDbEntity
  8
FP-Window
100
AcDbLine
 10
173.64205607479744
 20
338.2499999999711
 30
0.0
 11
173.39205607479744
 21
338.4999999999711
 31
0.0
  0
LINE
  5
191
330
17
100
AcDbEntity
  8
FP-Window
100
AcDbLine
 10
173.64205607479926
 20
367.7499999999702
 30
0.0
 11
173.39205607479926
 21
367.4999999999702
 31
0.0
  0
LINE
  5
192
330
17
100
AcDbEntity
  8
FP-Window
100
AcDbLine
 10
173.6420560747447
 20
367.7500000000248
 30
0.0
 11
173.64205607479744
 21
338.2499999999711
 31
0.0
  0
LINE
  5
193
330
17
100
AcDbEntity
  8
FP-Window
100
AcDbLine
 10
174.89205607479744
 20
335.9999999999711
 30
0.0
 11
174.8920560746883
 21
369.9999999999702
 31
0.0
  0
LINE
  5
194
330
17
100
AcDbEntity
  8
FP-Proposed Wall
100
AcDbLine
 10
175.9986635217374
 20
106.99999999999636
 30
0.0
 11
175.99866352176468
 21
107.99999999999454
 31
0.0
  0
LINE
  5
195
330
17
100
AcDbEntity
  8
FP-Proposed Wall
100
AcDbLine
 10
175.99866352177196
 20
35.99999999999636
 30
0.0
 11
175.99866352174104
 21
106.99999999999727
 31
0.0
  0
LINE
  5
196
330
17
100
AcDbEntity
  8
FP-Proposed Wall
100
AcDbLine
 10
175.99866352174467
 20
370.99999999994407
 30
0.0
 11
175.99866352174286
 21
393.9999999999968
 31
0.0
  0
LINE
  5
197
330
17
100
AcDbEntity
  8
FP-Proposed Wall
100
AcDbLine
 10
175.99866352175013
 20
256.9999999999968
 30
0.0
 11
175.9986635217483
 21
334.9999999999459
 31
0.0
  0
LINE
  5
198
330
17
100
AcDbEntity
  8
FP-Proposed Wall
100
AcDbLine
 10
175.99866352175013
 20
256.9999999999968
 30
0.0
 11
175.99866352177196
 21
256.9999999999968
 31
0.0
  0
LINE
  5
199
330
17
100
AcDbEntity
  8
FP-Proposed Wall
100
AcDbLine
 10
175.99866352176832
 20
107.99999999999636
 30
0.0
 11
175.99866352177196
 21
107.99999999999636
 31
0.0
  0
LINE
  5
19A
330
17
100
AcDbEntity
  8
FP-Proposed Wall
100
AcDbLine
 10
175.99866352177196
 20
107.99999999999636
 30
0.0
 11
175.99866352177196
 21
256.9999999999968
 31
0.0
  0
ENDSEC
  0
SECTION
  2
OBJECTS
  0
DICTIONARY
  5
A
330
0
100
AcDbDictionary
280
0
281
1
  3
ACAD_COLOR
350
B
  3
ACAD_GROUP
350
C
  3
ACAD_LAYOUT
350
D
  3
ACAD_MATERIAL
350
E
  3
ACAD_MLEADERSTYLE
350
F
  3
ACAD_MLINESTYLE
350
10
  3
ACAD_PLOTSETTINGS
350
11
  3
ACAD_PLOTSTYLENAME
350
12
  3
ACAD_SCALELIST
350
14
  3
ACAD_TABLESTYLE
350
15
  3
ACAD_VISUALSTYLE
350
16
  3
EZDXF_META
350
2D
  0
DICTIONARY
  5
B
330
A
100
AcDbDictionary
280
0
281
1
  0
DICTIONARY
  5
C
330
A
100
AcDbDictionary
280
0
281
1
  0
DICTIONARY
  5
D
330
A
100
AcDbDictionary
280
0
281
1
  3
Model
350
1A
  3
Layout1
350
1E
  0
DICTIONARY
  5
E
330
A
100
AcDbDictionary
280
0
281
1
  3
ByBlock
350
1F
  3
ByLayer
350
20
  3
Global
350
21
  0
DICTIONARY
  5
F
330
A
100
AcDbDictionary
280
0
281
1
  3
Standard
350
2C
  0
DICTIONARY
  5
10
330
A
100
AcDbDictionary
280
0
281
1
  3
Standard
350
22
  0
DICTIONARY
  5
11
330
A
100
AcDbDictionary
280
0
281
1
  0
ACDBDICTIONARYWDFLT
  5
12
330
A
100
AcDbDictionary
280
0
281
1
  3
Normal
350
13
100
AcDbDictionaryWithDefault
340
13
  0
ACDBPLACEHOLDER
  5
13
330
12
  0
DICTIONARY
  5
14
330
A
100
AcDbDictionary
280
0
281
1
  0
DICTIONARY
  5
15
330
A
100
AcDbDictionary
280
0
281
1
  0
DICTIONARY
  5
16
330
A
100
AcDbDictionary
280
0
281
1
  0
LAYOUT
  5
1A
330
D
100
AcDbPlotSettings
  1

  2
Adobe PDF
  4
A3
  6

 40
7.5
 41
20.0
 42
7.5
 43
20.0
 44
420.0
 45
297.0
 46
0.0
 47
0.0
 48
0.0
 49
0.0
140
0.0
141
0.0
142
1.0
143
1.0
 70
1024
 72
1
 73
0
 74
5
  7

 75
16
 76
0
 77
2
 78
300
147
1.0
148
0.0
149
0.0
100
AcDbLayout
  1
Model
 70
1
 71
0
 10
0.0
 20
0.0
 11
420.0
 21
297.0
 12
0.0
 22
0.0
 32
0.0
 14
1e+20
 24
1e+20
 34
1e+20
 15
-1e+20
 25
-1e+20
 35
-1e+20
146
0.0
 13
0.0
 23
0.0
 33
0.0
 16
1.0
 26
0.0
 36
0.0
 17
0.0
 27
1.0
 37
0.0
 76
1
330
17
  0
LAYOUT
  5
1E
330
D
100
AcDbPlotSettings
  1

  2
Adobe PDF
  4
A3
  6

 40
7.5
 41
20.0
 42
7.5
 43
20.0
 44
420.0
 45
297.0
 46
0.0
 47
0.0
 48
0.0
 49
0.0
140
0.0
141
0.0
142
1.0
143
1.0
 70
0
 72
1
 73
0
 74
5
  7

 75
16
 76
0
 77
2
 78
300
147
1.0
148
0.0
149
0.0
100
AcDbLayout
  1
Layout1
 70
1
 71
1
 10
0.0
 20
0.0
 11
420.0
 21
297.0
 12
0.0
 22
0.0
 32
0.0
 14
1e+20
 24
1e+20
 34
1e+20
 15
-1e+20
 25
-1e+20
 35
-1e+20
146
0.0
 13
0.0
 23
0.0
 33
0.0
 16
1.0
 26
0.0
 36
0.0
 17
0.0
 27
1.0
 37
0.0
 76
1
330
1B
  0
MATERIAL
  5
1F
102
{ACAD_REACTORS
330
E
102
}
330
E
100
AcDbMaterial
  1
ByBlock
  2

 70
0
 40
1.0
 71
1
 41
1.0
 91
-1023410177
 42
1.0
 72
1
  3

 73
1
 74
1
 75
1
 44
0.5
 73
0
 45
1.0
 46
1.0
 77
1
  4

 78
1
 79
1
170
1
 48
1.0
171
1
  6

172
1
173
1
174
1
140
1.0
141
1.0
175
1
  7

176
1
177
1
178
1
143
1.0
179
1
  8

270
1
271
1
272
1
145
1.0
146
1.0
273
1
  9

274
1
275
1
276
1
 42
1.0
 72
1
  3

 73
1
 74
1
 75
1
 94
63
  0
MATERIAL
  5
20
102
{ACAD_REACTORS
330
E
102
}
330
E
100
AcDbMaterial
  1
ByLayer
  2

 70
0
 40
1.0
 71
1
 41
1.0
 91
-1023410177
 42
1.0
 72
1
  3

 73
1
 74
1
 75
1
 44
0.5
 73
0
 45
1.0
 46
1.0
 77
1
  4

 78
1
 79
1
170
1
 48
1.0
171
1
  6

172
1
173
1
174
1
140
1.0
141
1.0
175
1
  7

176
1
177
1
178
1
143
1.0
179
1
  8

270
1
271
1
272
1
145
1.0
146
1.0
273
1
  9

274
1
275
1
276
1
 42
1.0
 72
1
  3

 73
1
 74
1
 75
1
 94
63
  0
MATERIAL
  5
21
102
{ACAD_REACTORS
330
E
102
}
330
E
100
AcDbMaterial
  1
Global
  2

 70
0
 40
1.0
 71
1
 41
1.0
 91
-1023410177
 42
1.0
 72
1
  3

 73
1
 74
1
 75
1
 44
0.5
 73
0
 45
1.0
 46
1.0
 77
1
  4

 78
1
 79
1
170
1
 48
1.0
171
1
  6

172
1
173
1
174
1
140
1.0
141
1.0
175
1
  7

176
1
177
1
178
1
143
1.0
179
1
  8

270
1
271
1
272
1
145
1.0
146
1.0
273
1
  9

274
1
275
1
276
1
 42
1.0
 72
1
  3

 73
1
 74
1
 75
1
 94
63
  0
MLINESTYLE
  5
22
102
{ACAD_REACTORS
330
10
102
}
330
10
100
AcDbMlineStyle
  2
Standard
 70
0
  3

 62
256
 51
90.0
 52
90.0
 71
2
 49
0.5
 62
256
  6
BYLAYER
 49
-0.5
 62
256
  6
BYLAYER
  0
MLEADERSTYLE
  5
2C
102
{ACAD_REACTORS
330
F
102
}
330
F
100
AcDbMLeaderStyle
179
2
170
2
171
1
172
0
 90
2
 40
0.0
 41
0.0
173
1
 91
-1056964608
 92
-2
290
1
 42
2.0
291
1
 43
8.0
  3
Standard
 44
4.0
300

342
29
174
1
175
1
176
0
178
1
 93
-1056964608
 45
4.0
292
0
297
0
 46
4.0
 94
-1056964608
 47
1.0
 49
1.0
140
1.0
294
1
141
0.0
177
0
142
1.0
295
0
296
0
143
3.75
271
0
272
9
273
9
  0
DICTIONARY
  5
2D
330
A
100
AcDbDictionary
281
1
  3
CREATED_BY_EZDXF
350
2E
  3
WRITTEN_BY_EZDXF
350
19D
  0
DICTIONARYVAR
  5
2E
330
2D
100
DictionaryVariables
280
0
  1
1.1.4 @ 2024-01-22T17:45:52.406251+00:00
  0
DICTIONARYVAR
  5
19D
330
2D
100
DictionaryVariables
280
0
  1
1.1.4 @ 2024-01-22T17:45:59.353415+00:00
  0
ENDSEC
  0
EOF
