  0
SECTION
  2
HEADER
  9
$ACADVER
  1
AC1027
  9
$ACADMAINTVER
 70
105
  9
$DWGCODEPAGE
  3
ANSI_1252
  9
$LASTSAVEDBY
  1
ezdxf
  9
$REQUIREDVERSIONS
160
0
  9
$INSBASE
 10
0.0
 20
0.0
 30
0.0
  9
$EXTMIN
 10
1e+20
 20
1e+20
 30
1e+20
  9
$EXTMAX
 10
-1e+20
 20
-1e+20
 30
-1e+20
  9
$LIMMIN
 10
0.0
 20
0.0
  9
$LIMMAX
 10
420.0
 20
297.0
  9
$ORTHOMODE
 70
0
  9
$REGENMODE
 70
1
  9
$FILLMODE
 70
1
  9
$QTEXTMODE
 70
0
  9
$MIRRTEXT
 70
1
  9
$LTSCALE
 40
1.0
  9
$ATTMODE
 70
1
  9
$TEXTSIZE
 40
2.5
  9
$TRACEWID
 40
1.0
  9
$TEXTSTYLE
  7
Standard
  9
$CLAYER
  8
0
  9
$CELTYPE
  6
ByLayer
  9
$CECOLOR
 62
256
  9
$CELTSCALE
 40
1.0
  9
$DISPSILH
 70
0
  9
$DIMSCALE
 40
1.0
  9
$DIMASZ
 40
2.5
  9
$DIMEXO
 40
0.625
  9
$DIMDLI
 40
3.75
  9
$DIMRND
 40
0.0
  9
$DIMDLE
 40
0.0
  9
$DIMEXE
 40
1.25
  9
$DIMTP
 40
0.0
  9
$DIMTM
 40
0.0
  9
$DIMTXT
 40
2.5
  9
$DIMCEN
 40
2.5
  9
$DIMTSZ
 40
0.0
  9
$DIMTOL
 70
0
  9
$DIMLIM
 70
0
  9
$DIMTIH
 70
0
  9
$DIMTOH
 70
0
  9
$DIMSE1
 70
0
  9
$DIMSE2
 70
0
  9
$DIMTAD
 70
1
  9
$DIMZIN
 70
8
  9
$DIMBLK
  1

  9
$DIMASO
 70
1
  9
$DIMSHO
 70
1
  9
$DIMPOST
  1

  9
$DIMAPOST
  1

  9
$DIMALT
 70
0
  9
$DIMALTD
 70
3
  9
$DIMALTF
 40
0.03937007874
  9
$DIMLFAC
 40
1.0
  9
$DIMTOFL
 70
1
  9
$DIMTVP
 40
0.0
  9
$DIMTIX
 70
0
  9
$DIMSOXD
 70
0
  9
$DIMSAH
 70
0
  9
$DIMBLK1
  1

  9
$DIMBLK2
  1

  9
$DIMSTYLE
  2
ISO-25
  9
$DIMCLRD
 70
0
  9
$DIMCLRE
 70
0
  9
$DIMCLRT
 70
0
  9
$DIMTFAC
 40
1.0
  9
$DIMGAP
 40
0.625
  9
$DIMJUST
 70
0
  9
$DIMSD1
 70
0
  9
$DIMSD2
 70
0
  9
$DIMTOLJ
 70
0
  9
$DIMTZIN
 70
8
  9
$DIMALTZ
 70
0
  9
$DIMALTTZ
 70
0
  9
$DIMUPT
 70
0
  9
$DIMDEC
 70
2
  9
$DIMTDEC
 70
2
  9
$DIMALTU
 70
2
  9
$DIMALTTD
 70
3
  9
$DIMTXSTY
  7
Standard
  9
$DIMAUNIT
 70
0
  9
$DIMADEC
 70
0
  9
$DIMALTRND
 40
0.0
  9
$DIMAZIN
 70
0
  9
$DIMDSEP
 70
44
  9
$DIMATFIT
 70
3
  9
$DIMFRAC
 70
0
  9
$DIMLDRBLK
  1

  9
$DIMLUNIT
 70
2
  9
$DIMLWD
 70
-2
  9
$DIMLWE
 70
-2
  9
$DIMTMOVE
 70
0
  9
$DIMFXL
 40
1.0
  9
$DIMFXLON
 70
0
  9
$DIMJOGANG
 40
0.785398163397
  9
$DIMTFILL
 70
0
  9
$DIMTFILLCLR
 70
0
  9
$DIMARCSYM
 70
0
  9
$DIMLTYPE
  6

  9
$DIMLTEX1
  6

  9
$DIMLTEX2
  6

  9
$DIMTXTDIRECTION
 70
0
  9
$LUNITS
 70
2
  9
$LUPREC
 70
4
  9
$SKETCHINC
 40
1.0
  9
$FILLETRAD
 40
10.0
  9
$AUNITS
 70
0
  9
$AUPREC
 70
2
  9
$MENU
  1
.
  9
$ELEVATION
 40
0.0
  9
$PELEVATION
 40
0.0
  9
$THICKNESS
 40
0.0
  9
$LIMCHECK
 70
0
  9
$CHAMFERA
 40
0.0
  9
$CHAMFERB
 40
0.0
  9
$CHAMFERC
 40
0.0
  9
$CHAMFERD
 40
0.0
  9
$SKPOLY
 70
0
  9
$TDCREATE
 40
2460319.0412962963
  9
$TDUCREATE
 40
2458532.153996898
  9
$TDUPDATE
 40
2460319.0412962963
  9
$TDUUPDATE
 40
2458532.1544311
  9
$TDINDWG
 40
0.0
  9
$TDUSRTIMER
 40
0.0
  9
$USRTIMER
 70
1
  9
$ANGBASE
 50
0.0
  9
$ANGDIR
 70
0
  9
$PDMODE
 70
0
  9
$PDSIZE
 40
0.0
  9
$PLINEWID
 40
0.0
  9
$SPLFRAME
 70
0
  9
$SPLINETYPE
 70
6
  9
$SPLINESEGS
 70
8
  9
$HANDSEED
  5
19E
  9
$SURFTAB1
 70
6
  9
$SURFTAB2
 70
6
  9
$SURFTYPE
 70
6
  9
$SURFU
 70
6
  9
$SURFV
 70
6
  9
$UCSBASE
  2

  9
$UCSNAME
  2

  9
$UCSORG
 10
0.0
 20
0.0
 30
0.0
  9
$UCSXDIR
 10
1.0
 20
0.0
 30
0.0
  9
$UCSYDIR
 10
0.0
 20
1.0
 30
0.0
  9
$UCSORTHOREF
  2

  9
$UCSORTHOVIEW
 70
0
  9
$UCSORGTOP
 10
0.0
 20
0.0
 30
0.0
  9
$UCSORGBOTTOM
 10
0.0
 20
0.0
 30
0.0
  9
$UCSORGLEFT
 10
0.0
 20
0.0
 30
0.0
  9
$UCSORGRIGHT
 10
0.0
 20
0.0
 30
0.0
  9
$UCSORGFRONT
 10
0.0
 20
0.0
 30
0.0
  9
$UCSORGBACK
 10
0.0
 20
0.0
 30
0.0
  9
$PUCSBASE
  2

  9
$PUCSNAME
  2

  9
$PUCSORG
 10
0.0
 20
0.0
 30
0.0
  9
$PUCSXDIR
 10
1.0
 20
0.0
 30
0.0
  9
$PUCSYDIR
 10
0.0
 20
1.0
 30
0.0
  9
$PUCSORTHOREF
  2

  9
$PUCSORTHOVIEW
 70
0
  9
$PUCSORGTOP
 10
0.0
 20
0.0
 30
0.0
  9
$PUCSORGBOTTOM
 10
0.0
 20
0.0
 30
0.0
  9
$PUCSORGLEFT
 10
0.0
 20
0.0
 30
0.0
  9
$PUCSORGRIGHT
 10
0.0
 20
0.0
 30
0.0
  9
$PUCSORGFRONT
 10
0.0
 20
0.0
 30
0.0
  9
$PUCSORGBACK
 10
0.0
 20
0.0
 30
0.0
  9
$USERI1
 70
0
  9
$USERI2
 70
0
  9
$USERI3
 70
0
  9
$USERI4
 70
0
  9
$USERI5
 70
0
  9
$USERR1
 40
0.0
  9
$USERR2
 40
0.0
  9
$USERR3
 40
0.0
  9
$USERR4
 40
0.0
  9
$USERR5
 40
0.0
  9
$WORLDVIEW
 70
1
  9
$SHADEDGE
 70
3
  9
$SHADEDIF
 70
70
  9
$TILEMODE
 70
1
  9
$MAXACTVP
 70
64
  9
$PINSBASE
 10
0.0
 20
0.0
 30
0.0
  9
$PLIMCHECK
 70
0
  9
$PEXTMIN
 10
1e+20
 20
1e+20
 30
1e+20
  9
$PEXTMAX
 10
-1e+20
 20
-1e+20
 30
-1e+20
  9
$PLIMMIN
 10
0.0
 20
0.0
  9
$PLIMMAX
 10
420.0
 20
297.0
  9
$UNITMODE
 70
0
  9
$VISRETAIN
 70
1
  9
$PLINEGEN
 70
0
  9
$PSLTSCALE
 70
1
  9
$TREEDEPTH
 70
3020
  9
$CMLSTYLE
  2
Standard
  9
$CMLJUST
 70
0
  9
$CMLSCALE
 40
20.0
  9
$PROXYGRAPHICS
 70
1
  9
$MEASUREMENT
 70
1
  9
$CELWEIGHT
370
-1
  9
$ENDCAPS
280
0
  9
$JOINSTYLE
280
0
  9
$LWDISPLAY
290
0
  9
$INSUNITS
 70
6
  9
$HYPERLINKBASE
  1

  9
$STYLESHEET
  1

  9
$XEDIT
290
1
  9
$CEPSNTYPE
380
0
  9
$PSTYLEMODE
290
1
  9
$FINGERPRINTGUID
  2
{AE7E3BAE-7220-41C7-AE44-7E876D391683}
  9
$VERSIONGUID
  2
{D7425AE8-BD19-4F82-BDA4-89FCDB7A6D19}
  9
$EXTNAMES
290
1
  9
$PSVPSCALE
 40
0.0
  9
$OLESTARTUP
290
0
  9
$SORTENTS
280
127
  9
$INDEXCTL
280
0
  9
$HIDETEXT
280
1
  9
$XCLIPFRAME
280
0
  9
$HALOGAP
280
0
  9
$OBSCOLOR
 70
257
  9
$OBSLTYPE
280
0
  9
$INTERSECTIONDISPLAY
280
0
  9
$INTERSECTIONCOLOR
 70
257
  9
$DIMASSOC
280
2
  9
$PROJECTNAME
  1

  9
$CAMERADISPLAY
290
0
  9
$LENSLENGTH
 40
50.0
  9
$CAMERAHEIGHT
 40
0.0
  9
$STEPSPERSEC
 40
24.0
  9
$STEPSIZE
 40
100.0
  9
$3DDWFPREC
 40
2.0
  9
$PSOLWIDTH
 40
0.005
  9
$PSOLHEIGHT
 40
0.08
  9
$LOFTANG1
 40
1.570796326795
  9
$LOFTANG2
 40
1.570796326795
  9
$LOFTMAG1
 40
0.0
  9
$LOFTMAG2
 40
0.0
  9
$LOFTPARAM
 70
7
  9
$LOFTNORMALS
280
1
  9
$LATITUDE
 40
37.795
  9
$LONGITUDE
 40
-122.394
  9
$NORTHDIRECTION
 40
0.0
  9
$TIMEZONE
 70
-8000
  9
$LIGHTGLYPHDISPLAY
280
1
  9
$TILEMODELIGHTSYNCH
280
1
  9
$CMATERIAL
347
20
  9
$SOLIDHIST
280
0
  9
$SHOWHIST
280
1
  9
$DWFFRAME
280
2
  9
$DGNFRAME
280
2
  9
$REALWORLDSCALE
290
1
  9
$INTERFERECOLOR
 62
256
  9
$CSHADOW
280
0
  9
$SHADOWPLANELOCATION
 40
0.0
  0
ENDSEC
  0
SECTION
  2
CLASSES
  0
CLASS
  1
ACDBDICTIONARYWDFLT
  2
AcDbDictionaryWithDefault
  3
ObjectDBX Classes
 90
0
 91
0
280
0
281
0
  0
CLASS
  1
SUN
  2
AcDbSun
  3
SCENEOE
 90
1153
 91
0
280
0
281
0
  0
CLASS
  1
VISUALSTYLE
  2
AcDbVisualStyle
  3
ObjectDBX Classes
 90
4095
 91
0
280
0
281
0
  0
CLASS
  1
MATERIAL
  2
AcDbMaterial
  3
ObjectDBX Classes
 90
1153
 91
0
280
0
281
0
  0
CLASS
  1
SCALE
  2
AcDbScale
  3
ObjectDBX Classes
 90
1153
 91
0
280
0
281
0
  0
CLASS
  1
TABLESTYLE
  2
AcDbTableStyle
  3
ObjectDBX Classes
 90
4095
 91
0
280
0
281
0
  0
CLASS
  1
MLEADERSTYLE
  2
AcDbMLeaderStyle
  3
ACDB_MLEADERSTYLE_CLASS
 90
4095
 91
0
280
0
281
0
  0
CLASS
  1
DICTIONARYVAR
  2
AcDbDictionaryVar
  3
ObjectDBX Classes
 90
0
 91
0
280
0
281
0
  0
CLASS
  1
CELLSTYLEMAP
  2
AcDbCellStyleMap
  3
ObjectDBX Classes
 90
1152
 91
0
280
0
281
0
  0
CLASS
  1
MENTALRAYRENDERSETTINGS
  2
AcDbMentalRayRenderSettings
  3
SCENEOE
 90
1024
 91
0
280
0
281
0
  0
CLASS
  1
ACDBDETAILVIEWSTYLE
  2
AcDbDetailViewStyle
  3
ObjectDBX Classes
 90
1025
 91
0
280
0
281
0
  0
CLASS
  1
ACDBSECTIONVIEWSTYLE
  2
AcDbSectionViewStyle
  3
ObjectDBX Classes
 90
1025
 91
0
280
0
281
0
  0
CLASS
  1
RASTERVARIABLES
  2
AcDbRasterVariables
  3
ISM
 90
0
 91
0
280
0
281
0
  0
CLASS
  1
LAYOUT
  2
AcDbLayout
  3
ObjectDBX Classes
 90
0
 91
0
280
0
281
0
  0
CLASS
  1
ACDBPLACEHOLDER
  2
AcDbPlaceHolder
  3
ObjectDBX Classes
 90
0
 91
0
280
0
281
0
  0
ENDSEC
  0
SECTION
  2
TABLES
  0
TABLE
  2
VPORT
  5
8
330
0
100
AcDbSymbolTable
 70
1
  0
VPORT
  5
23
330
8
100
AcDbSymbolTableRecord
100
AcDbViewportTableRecord
  2
*Active
 70
0
 10
0.0
 20
0.0
 11
1.0
 21
1.0
 12
0.0
 22
0.0
 13
0.0
 23
0.0
 14
0.5
 24
0.5
 15
0.5
 25
0.5
 16
0.0
 26
0.0
 36
1.0
 17
0.0
 27
0.0
 37
0.0
 40
1000.0
 41
1.34
 42
50.0
 43
0.0
 44
0.0
 50
0.0
 51
0.0
 71
0
 72
1000
 73
1
 74
3
 75
0
 76
0
 77
0
 78
0
281
0
 65
0
146
0.0
  0
ENDTAB
  0
TABLE
  2
LTYPE
  5
2
330
0
100
AcDbSymbolTable
 70
3
  0
LTYPE
  5
24
330
2
100
AcDbSymbolTableRecord
100
AcDbLinetypeTableRecord
  2
ByBlock
 70
0
  3

 72
65
 73
0
 40
0.0
  0
LTYPE
  5
25
330
2
100
AcDbSymbolTableRecord
100
AcDbLinetypeTableRecord
  2
ByLayer
 70
0
  3

 72
65
 73
0
 40
0.0
  0
LTYPE
  5
26
330
2
100
AcDbSymbolTableRecord
100
AcDbLinetypeTableRecord
  2
Continuous
 70
0
  3

 72
65
 73
0
 40
0.0
  0
ENDTAB
  0
TABLE
  2
LAYER
  5
1
330
0
100
AcDbSymbolTable
 70
2
  0
LAYER
  5
27
330
1
100
AcDbSymbolTableRecord
100
AcDbLayerTableRecord
  2
0
 70
0
 62
7
  6
Continuous
370
-3
390
13
347
21
  0
LAYER
  5
28
330
1
100
AcDbSymbolTableRecord
100
AcDbLayerTableRecord
  2
Defpoints
 70
0
 62
7
  6
Continuous
290
0
370
-3
390
13
347
21
  0
ENDTAB
  0
TABLE
  2
STYLE
  5
5
330
0
100
AcDbSymbolTable
 70
1
  0
STYLE
  5
29
330
5
100
AcDbSymbolTableRecord
100
AcDbTextStyleTableRecord
  2
Standard
 70
0
 40
0.0
 41
1.0
 50
0.0
 71
0
 42
2.5
  3
txt
  4

  0
ENDTAB
  0
TABLE
  2
VIEW
  5
7
330
0
100
AcDbSymbolTable
 70
0
  0
ENDTAB
  0
TABLE
  2
UCS
  5
6
330
0
100
AcDbSymbolTable
 70
0
  0
ENDTAB
  0
TABLE
  2
APPID
  5
3
330
0
100
AcDbSymbolTable
 70
3
  0
APPID
  5
2A
330
3
100
AcDbSymbolTableRecord
100
AcDbRegAppTableRecord
  2
ACAD
 70
0
  0
APPID
  5
19B
330
3
100
AcDbSymbolTableRecord
100
AcDbRegAppTableRecord
  2
HATCHBACKGROUNDCOLOR
 70
0
  0
APPID
  5
19C
330
3
100
AcDbSymbolTableRecord
100
AcDbRegAppTableRecord
  2
EZDXF
 70
0
  0
ENDTAB
  0
TABLE
  2
DIMSTYLE
  5
4
330
0
100
AcDbSymbolTable
 70
1
100
AcDbDimStyleTable
  0
DIMSTYLE
105
2B
330
4
100
AcDbSymbolTableRecord
100
AcDbDimStyleTableRecord
  2
Standard
 70
0
 40
1.0
 41
2.5
 42
0.625
 43
3.75
 44
1.25
 45
0.0
 46
0.0
 47
0.0
 48
0.0
 49
2.5
140
2.5
141
2.5
142
0.0
143
0.03937007874
144
1.0
145
0.0
146
1.0
147
0.625
148
0.0
 69
0
 70
0
 71
0
 72
0
 73
0
 74
0
 75
0
 76
0
 77
1
 78
8
 79
3
170
0
171
3
172
1
173
0
174
0
175
0
176
0
177
0
178
0
179
2
271
2
272
2
273
2
274
3
275
0
276
0
277
2
278
44
279
0
280
0
281
0
282
0
283
0
284
8
285
0
286
0
288
0
289
3
290
0
371
-2
372
-2
  0
ENDTAB
  0
TABLE
  2
BLOCK_RECORD
  5
9
330
0
100
AcDbSymbolTable
 70
2
  0
BLOCK_RECORD
  5
17
330
9
100
AcDbSymbolTableRecord
100
AcDbBlockTableRecord
  2
*Model_Space
340
1A
 70
0
280
1
281
0
  0
BLOCK_RECORD
  5
1B
330
9
100
AcDbSymbolTableRecord
100
AcDbBlockTableRecord
  2
*Paper_Space
340
1E
 70
0
280
1
281
0
  0
ENDTAB
  0
ENDSEC
  0
SECTION
  2
BLOCKS
  0
BLOCK
  5
18
330
17
100
AcDbEntity
  8
0
100
AcDbBlockBegin
  2
*Model_Space
 70
0
 10
0.0
 20
0.0
 30
0.0
  3
*Model_Space
  1

  0
ENDBLK
  5
19
330
17
100
AcDbEntity
  8
0
100
AcDbBlockEnd
  0
BLOCK
  5
1C
330
1B
100
AcDbEntity
  8
0
100
AcDbBlockBegin
  2
*Paper_Space
 70
0
 10
0.0
 20
0.0
 30
0.0
  3
*Paper_Space
  1

  0
ENDBLK
  5
1D
330
1B
100
AcDbEntity
  8
0
100
AcDbBlockEnd
  0
ENDSEC
  0
SECTION
  2
ENTITIES
  0
LWPOLYLINE
  5
2F
330
17
100
AcDbEntity
  8
FP-Window
100
AcDbPolyline
 90
5
 70
0
 10
13713.580844067144
 20
-1884.533750928517
 10
13650.580844067123
 20
-1884.5337509285562
 10
13650.58084406712
 20
-1626.5337509285382
 10
13650.58084406712
 20
-1590.5337509285382
 10
13713.580844067117
 20
-1590.5337509285382
  0
LWPOLYLINE
  5
30
330
17
100
AcDbEntity
  8
FP-Window
100
AcDbPolyline
 90
5
 70
0
 10
13713.580844067137
 20
-1872.533750928517
 10
13662.580844067123
 20
-1872.5337509285487
 10
13662.58084406712
 20
-1626.5337509285382
 10
13662.58084406712
 20
-1602.5337509285382
 10
13713.580844067117
 20
-1602.5337509285382
  0
LWPOLYLINE
  5
31
330
17
100
AcDbEntity
  8
FP-Window
100
AcDbPolyline
 90
5
 70
0
 10
13713.58084406713
 20
-1860.533750928517
 10
13674.580844067123
 20
-1860.5337509285412
 10
13674.58084406712
 20
-1626.5337509285382
 10
13674.58084406712
 20
-1614.5337509285382
 10
13713.580844067117
 20
-1614.5337509285382
  0
LWPOLYLINE
  5
32
330
17
100
AcDbEntity
  8
FP-Stair
100
AcDbPolyline
 90
4
 70
0
 10
13686.5808440671
 20
-1651.53375092854
 10
13684.5808440671
 20
-1651.53375092854
 10
13684.5808440671
 20
-1823.5337509285405
 10
13686.5808440671
 20
-1823.5337509285405
  0
LINE
  5
33
330
17
100
AcDbEntity
  8
FP-Proposed Wall
100
AcDbLine
 10
13697.5808440671
 20
-1821.5337509285405
 30
0.0
 11
13686.5808440671
 21
-1821.5337509285405
 31
0.0
  0
LINE
  5
34
330
17
100
AcDbEntity
  8
FP-Proposed Wall
100
AcDbLine
 10
13697.5808440671
 20
-1653.53375092854
 30
0.0
 11
13686.5808440671
 21
-1653.53375092854
 31
0.0
  0
LINE
  5
35
330
17
100
AcDbEntity
  8
FP-Proposed Wall
100
AcDbLine
 10
13686.5808440671
 20
-1653.53375092854
 30
0.0
 11
13686.580844067123
 21
-1626.533750928543
 31
0.0
  0
LWPOLYLINE
  5
36
330
17
100
AcDbEntity
  8
0
100
AcDbPolyline
 90
13
 70
0
 10
13713.580844067164
 20
-1558.5337509285403
 10
13804.07950758889
 20
-1558.5337509284982
 10
13804.07950758889
 20
-1546.5337509284982
 10
13912.079507588887
 20
-1546.5337509284982
 10
13912.07950758889
 20
-1558.5337509284982
 10
14002.578171110665
 20
-1558.5337509284568
 10
14002.578171110665
 20
-1916.5337509285405
 10
13713.580844067117
 20
-1916.5337509285405
 10
13713.580844067117
 20
-1848.533750928539
 10
13686.580844067123
 20
-1848.5337509285412
 10
13686.580844067123
 20
-1626.533750928543
 10
13713.580844067123
 20
-1626.533750928542
 10
13713.580844067164
 20
-1558.5337509285403
  0
LINE
  5
37
330
17
100
AcDbEntity
  8
FP-Proposed Wall
100
AcDbLine
 10
13686.580844067123
 20
-1821.5337509285405
 30
0.0
 11
13686.580844067123
 21
-1848.5337509285412
 31
0.0
  0
LINE
  5
38
330
17
100
AcDbEntity
  8
FP-Proposed Wall
100
AcDbLine
 10
13713.580844067123
 20
-1848.533750928539
 30
0.0
 11
13686.580844067123
 21
-1848.533750928538
 31
0.0
  0
LINE
  5
39
330
17
100
AcDbEntity
  8
FP-Proposed Wall
100
AcDbLine
 10
13713.580844067123
 20
-1626.533750928542
 30
0.0
 11
13686.580844067123
 21
-1626.533750928543
 31
0.0
  0
LINE
  5
3A
330
17
100
AcDbEntity
  8
FP-Proposed Wall
100
AcDbLine
 10
13713.580844067123
 20
-1626.5337509285416
 30
0.0
 11
13686.580844067123
 21
-1626.5337509285425
 31
0.0
  0
LINE
  5
3B
330
17
100
AcDbEntity
  8
FP-Wall Detail
100
AcDbLine
 10
13717.08084406712
 20
-1845.033750928539
 30
0.0
 11
13690.080844067123
 21
-1845.0337509285382
 31
0.0
  0
LINE
  5
3C
330
17
100
AcDbEntity
  8
FP-Wall Detail
100
AcDbLine
 10
13690.080844067123
 20
-1821.5337509285405
 30
0.0
 11
13690.080844067123
 21
-1845.0337509285382
 31
0.0
  0
LINE
  5
3D
330
17
100
AcDbEntity
  8
FP-Wall Detail
100
AcDbLine
 10
13690.080844067123
 20
-1653.53375092854
 30
0.0
 11
13690.080844067123
 21
-1630.0337509285423
 31
0.0
  0
LINE
  5
3E
330
17
100
AcDbEntity
  8
FP-Wall Detail
100
AcDbLine
 10
13717.08084406712
 20
-1630.0337509285416
 30
0.0
 11
13690.080844067123
 21
-1630.0337509285423
 31
0.0
  0
LINE
  5
3F
330
17
100
AcDbEntity
  8
FP-Wall Detail
100
AcDbLine
 10
13718.08084406712
 20
-1844.033750928539
 30
0.0
 11
13691.080844067123
 21
-1844.0337509285382
 31
0.0
  0
LINE
  5
40
330
17
100
AcDbEntity
  8
FP-Wall Detail
100
AcDbLine
 10
13691.080844067123
 20
-1821.5337509285405
 30
0.0
 11
13691.080844067123
 21
-1844.0337509285382
 31
0.0
  0
LINE
  5
41
330
17
100
AcDbEntity
  8
FP-Wall Detail
100
AcDbLine
 10
13691.080844067123
 20
-1653.53375092854
 30
0.0
 11
13691.080844067123
 21
-1631.0337509285423
 31
0.0
  0
LINE
  5
42
330
17
100
AcDbEntity
  8
FP-Wall Detail
100
AcDbLine
 10
13718.08084406712
 20
-1631.0337509285416
 30
0.0
 11
13691.080844067123
 21
-1631.0337509285423
 31
0.0
  0
LWPOLYLINE
  5
43
330
17
100
AcDbEntity
  8
FP-Door
100
AcDbPolyline
 90
4
 70
1
 38
-0.6619084090653821
 10
13711.879833940286
 20
-1801.7347610553575
 10
13710.996108383253
 20
-1800.8510354983214
 10
13691.197118510068
 20
-1820.6500253715044
 10
13692.080844067104
 20
-1821.5337509285405
  0
LWPOLYLINE
  5
44
330
17
100
AcDbEntity
  8
FP-Door
100
AcDbPolyline
 90
4
 70
1
 38
-0.6619084090653821
 10
13711.879833940286
 20
-1799.9673099412853
 10
13710.996108383253
 20
-1800.8510354983214
 10
13691.197118510068
 20
-1781.0520456251384
 10
13692.080844067104
 20
-1780.1683200681023
  0
LWPOLYLINE
  5
45
330
17
100
AcDbEntity
  8
FP-Door
100
AcDbPolyline
 90
4
 70
1
 38
-0.6619084090653821
 10
13711.879833940286
 20
-1760.3693301949193
 10
13710.996108383253
 20
-1759.4856046378832
 10
13691.197118510068
 20
-1779.2845945110662
 10
13692.080844067104
 20
-1780.1683200681023
  0
LWPOLYLINE
  5
46
330
17
100
AcDbEntity
  8
FP-Door
100
AcDbPolyline
 90
4
 70
1
 38
-0.6619084090653821
 10
13711.879833940286
 20
-1714.6981716621613
 10
13710.996108383253
 20
-1715.5818972191973
 10
13691.197118510068
 20
-1695.7829073460143
 10
13692.080844067104
 20
-1694.8991817889782
  0
LWPOLYLINE
  5
47
330
17
100
AcDbEntity
  8
FP-Door
100
AcDbPolyline
 90
4
 70
1
 38
-0.6619084090653821
 10
13711.879833940286
 20
-1675.1001919157952
 10
13710.996108383253
 20
-1674.2164663587591
 10
13691.197118510068
 20
-1694.0154562319422
 10
13692.080844067104
 20
-1694.8991817889782
  0
LWPOLYLINE
  5
48
330
17
100
AcDbEntity
  8
FP-Door
100
AcDbPolyline
 90
4
 70
1
 38
-0.6619084090653821
 10
13711.879833940286
 20
-1673.332740801723
 10
13710.996108383253
 20
-1674.2164663587591
 10
13691.197118510068
 20
-1654.4174764855761
 10
13692.080844067104
 20
-1653.53375092854
  0
LINE
  5
49
330
17
100
AcDbEntity
  8
FP-Wall Detail
100
AcDbLine
 10
13718.58084406712
 20
-1843.5337509285396
 30
0.0
 11
13691.580844067123
 21
-1843.5337509285382
 31
0.0
  0
LINE
  5
4A
330
17
100
AcDbEntity
  8
FP-Wall Detail
100
AcDbLine
 10
13691.580844067123
 20
-1821.5337509285405
 30
0.0
 11
13691.580844067123
 21
-1843.5337509285382
 31
0.0
  0
LINE
  5
4B
330
17
100
AcDbEntity
  8
FP-Wall Detail
100
AcDbLine
 10
13691.580844067123
 20
-1653.53375092854
 30
0.0
 11
13691.580844067123
 21
-1631.5337509285423
 31
0.0
  0
LINE
  5
4C
330
17
100
AcDbEntity
  8
FP-Wall Detail
100
AcDbLine
 10
13718.58084406712
 20
-1631.533750928541
 30
0.0
 11
13691.580844067123
 21
-1631.5337509285423
 31
0.0
  0
LINE
  5
4D
330
17
100
AcDbEntity
  8
FP-Wall Detail
100
AcDbLine
 10
13697.080844067164
 20
-1838.0337509285403
 30
0.0
 11
13697.080844067159
 21
-1821.5337509285407
 31
0.0
  0
LINE
  5
4E
330
17
100
AcDbEntity
  8
FP-Wall Detail
100
AcDbLine
 10
13697.080844067164
 20
-1637.0337509285403
 30
0.0
 11
13697.080844067159
 21
-1653.5337509285398
 31
0.0
  0
LINE
  5
4F
330
17
100
AcDbEntity
  8
FP-Wall Detail
100
AcDbLine
 10
13697.080844067164
 20
-1838.0337509285403
 30
0.0
 11
13724.08084406712
 21
-1838.0337509285384
 31
0.0
  0
LINE
  5
50
330
17
100
AcDbEntity
  8
FP-Wall Detail
100
AcDbLine
 10
13697.080844067164
 20
-1637.0337509285403
 30
0.0
 11
13724.08084406712
 21
-1637.033750928542
 31
0.0
  0
LINE
  5
51
330
17
100
AcDbEntity
  8
FP-Furniture
100
AcDbLine
 10
13697.580844067093
 20
-1653.53375092854
 30
0.0
 11
13697.580844067093
 21
-1821.5337509285405
 31
0.0
  0
LINE
  5
52
330
17
100
AcDbEntity
  8
FP-Proposed Wall
100
AcDbLine
 10
13697.580844067093
 20
-1653.53375092854
 30
0.0
 11
13697.580844067093
 21
-1653.53375092854
 31
0.0
  0
LINE
  5
53
330
17
100
AcDbEntity
  8
FP-Proposed Wall
100
AcDbLine
 10
13697.580844067123
 20
-1837.5337509285405
 30
0.0
 11
13713.580844067128
 21
-1837.5337509285391
 31
0.0
  0
LINE
  5
54
330
17
100
AcDbEntity
  8
FP-Proposed Wall
100
AcDbLine
 10
13697.58084406716
 20
-1653.53375092854
 30
0.0
 11
13697.580844067128
 21
-1637.533750928536
 31
0.0
  0
LINE
  5
55
330
17
100
AcDbEntity
  8
FP-Proposed Wall
100
AcDbLine
 10
13724.580844067157
 20
-1637.5337509285375
 30
0.0
 11
13697.580844067128
 21
-1637.533750928536
 31
0.0
  0
LINE
  5
56
330
17
100
AcDbEntity
  8
FP-Proposed Wall
100
AcDbLine
 10
13697.580844067164
 20
-1837.5337509285405
 30
0.0
 11
13697.580844067159
 21
-1821.5337509285405
 31
0.0
  0
LINE
  5
57
330
17
100
AcDbEntity
  8
FP-Window
100
AcDbLine
 10
13713.580844067112
 20
-1895.533750928515
 30
0.0
 11
13711.580844067112
 21
-1895.533750928515
 31
0.0
  0
LINE
  5
58
330
17
100
AcDbEntity
  8
FP-Window
100
AcDbLine
 10
13711.580844067112
 20
-1895.533750928515
 30
0.0
 11
13711.58084406713
 21
-1855.5337509285148
 31
0.0
  0
LINE
  5
59
330
17
100
AcDbEntity
  8
FP-Window
100
AcDbLine
 10
13711.580844067112
 20
-1579.5337509285655
 30
0.0
 11
13711.58084406713
 21
-1619.5337509285657
 31
0.0
  0
LINE
  5
5A
330
17
100
AcDbEntity
  8
FP-Window
100
AcDbLine
 10
13713.580844067112
 20
-1579.5337509285655
 30
0.0
 11
13711.580844067112
 21
-1579.5337509285655
 31
0.0
  0
LINE
  5
5B
330
17
100
AcDbEntity
  8
FP-Window
100
AcDbLine
 10
13711.58084406713
 20
-1855.5337509285148
 30
0.0
 11
13713.58084406713
 21
-1855.5337509285148
 31
0.0
  0
LINE
  5
5C
330
17
100
AcDbEntity
  8
FP-Window
100
AcDbLine
 10
13711.58084406713
 20
-1619.5337509285657
 30
0.0
 11
13713.58084406713
 21
-1619.5337509285657
 31
0.0
  0
LINE
  5
5D
330
17
100
AcDbEntity
  8
FP-Proposed Wall
100
AcDbLine
 10
13713.580844067117
 20
-1893.5337509285405
 30
0.0
 11
13713.580844067117
 21
-1916.5337509285405
 31
0.0
  0
LINE
  5
5E
330
17
100
AcDbEntity
  8
FP-Proposed Wall
100
AcDbLine
 10
13713.580844067117
 20
-1916.5337509285405
 30
0.0
 11
13822.082476700147
 21
-1916.5337509285405
 31
0.0
  0
LWPOLYLINE
  5
5F
330
17
100
AcDbEntity
  8
FP-Proposed Wall
100
AcDbPolyline
 90
3
 70
0
 10
13724.580844067119
 20
-1857.5337509285423
 10
13713.580844067119
 20
-1857.5337509285423
 10
13713.580844067117
 20
-1848.533750928539
  0
LWPOLYLINE
  5
60
330
17
100
AcDbEntity
  8
FP-Proposed Wall
100
AcDbPolyline
 90
4
 70
0
 10
13724.580844067124
 20
-1837.5337509285405
 10
13724.580844067117
 20
-1837.533750928543
 10
13713.580844067117
 20
-1837.533750928543
 10
13713.580844067124
 20
-1837.5337509285405
  0
LINE
  5
61
330
17
100
AcDbEntity
  8
FP-Proposed Wall
100
AcDbLine
 10
13713.580844067117
 20
-1558.53375092854
 30
0.0
 11
13713.580844067117
 21
-1581.53375092854
 31
0.0
  0
LINE
  5
62
330
17
100
AcDbEntity
  8
FP-Proposed Wall
100
AcDbLine
 10
13746.330175828
 20
-1558.5337509285418
 30
0.0
 11
13713.580844067117
 21
-1558.53375092854
 31
0.0
  0
LINE
  5
63
330
17
100
AcDbEntity
  8
FP-Proposed Wall
100
AcDbLine
 10
13724.580844067117
 20
-1893.5337509285405
 30
0.0
 11
13713.58084406712
 21
-1893.5337509285405
 31
0.0
  0
LINE
  5
64
330
17
100
AcDbEntity
  8
FP-Proposed Wall
100
AcDbLine
 10
13724.580844067117
 20
-1581.53375092854
 30
0.0
 11
13713.58084406712
 21
-1581.53375092854
 31
0.0
  0
LINE
  5
65
330
17
100
AcDbEntity
  8
FP-Proposed Wall
100
AcDbLine
 10
13713.580844067199
 20
-1617.5337509285382
 30
0.0
 11
13713.580844067199
 21
-1626.533750928542
 31
0.0
  0
LINE
  5
66
330
17
100
AcDbEntity
  8
FP-Proposed Wall
100
AcDbLine
 10
13724.580844067195
 20
-1617.5337509285382
 30
0.0
 11
13713.580844067199
 21
-1617.5337509285382
 31
0.0
  0
LWPOLYLINE
  5
67
330
17
100
AcDbEntity
  8
FP-Window
100
AcDbPolyline
 90
9
 70
0
 10
13714.68745151415
 20
-1893.533750928515
 10
13714.68745151415
 20
-1892.533750928515
 10
13717.68745151415
 20
-1892.533750928515
 10
13717.68745151415
 20
-1892.033750928515
 10
13718.18745151415
 20
-1892.033750928515
 10
13718.18745151415
 20
-1892.533750928515
 10
13720.18745151415
 20
-1892.533750928515
 10
13720.18745151415
 20
-1893.533750928515
 10
13714.68745151415
 20
-1893.533750928515
  0
LINE
  5
68
330
17
100
AcDbEntity
  8
FP-Window
100
AcDbLine
 10
13714.68745151415
 20
-1892.533750928515
 30
0.0
 11
13714.68745151426
 21
-1858.5337509285152
 31
0.0
  0
LWPOLYLINE
  5
69
330
17
100
AcDbEntity
  8
FP-Window
100
AcDbPolyline
 90
9
 70
0
 10
13714.68745151415
 20
-1857.5337509285152
 10
13714.68745151415
 20
-1858.5337509285152
 10
13717.68745151415
 20
-1858.5337509285152
 10
13717.68745151415
 20
-1859.0337509285152
 10
13718.18745151415
 20
-1859.0337509285152
 10
13718.18745151415
 20
-1858.5337509285152
 10
13720.18745151415
 20
-1858.5337509285152
 10
13720.18745151415
 20
-1857.5337509285152
 10
13714.68745151415
 20
-1857.5337509285152
  0
LWPOLYLINE
  5
6A
330
17
100
AcDbEntity
  8
FP-Window
100
AcDbPolyline
 90
9
 70
0
 10
13714.68745151415
 20
-1617.5337509285653
 10
13714.68745151415
 20
-1616.5337509285653
 10
13717.68745151415
 20
-1616.5337509285653
 10
13717.68745151415
 20
-1616.0337509285653
 10
13718.18745151415
 20
-1616.0337509285653
 10
13718.18745151415
 20
-1616.5337509285653
 10
13720.18745151415
 20
-1616.5337509285653
 10
13720.18745151415
 20
-1617.5337509285653
 10
13714.68745151415
 20
-1617.5337509285653
  0
LINE
  5
6B
330
17
100
AcDbEntity
  8
FP-Window
100
AcDbLine
 10
13714.68745151415
 20
-1582.5337509285655
 30
0.0
 11
13714.68745151426
 21
-1616.5337509285653
 31
0.0
  0
LWPOLYLINE
  5
6C
330
17
100
AcDbEntity
  8
FP-Window
100
AcDbPolyline
 90
9
 70
0
 10
13714.68745151415
 20
-1581.5337509285655
 10
13714.68745151415
 20
-1582.5337509285655
 10
13717.68745151415
 20
-1582.5337509285655
 10
13717.68745151415
 20
-1583.0337509285655
 10
13718.18745151415
 20
-1583.0337509285655
 10
13718.18745151415
 20
-1582.5337509285655
 10
13720.18745151415
 20
-1582.5337509285655
 10
13720.18745151415
 20
-1581.5337509285655
 10
13714.68745151415
 20
-1581.5337509285655
  0
LWPOLYLINE
  5
6D
330
17
100
AcDbEntity
  8
FP-Window
100
AcDbPolyline
 90
4
 70
0
 10
13715.93745151415
 20
-1890.283750928515
 10
13715.93745151415
 20
-1892.283750928515
 10
13717.43745151415
 20
-1892.283750928515
 10
13717.43745151415
 20
-1890.283750928515
  0
LINE
  5
6E
330
17
100
AcDbEntity
  8
FP-Window
100
AcDbLine
 10
13715.93745151415
 20
-1890.283750928515
 30
0.0
 11
13716.18745151415
 21
-1890.033750928515
 31
0.0
  0
LINE
  5
6F
330
17
100
AcDbEntity
  8
FP-Window
100
AcDbLine
 10
13715.937451514204
 20
-1860.7837509284607
 30
0.0
 11
13715.93745151415
 21
-1890.283750928515
 31
0.0
  0
LINE
  5
70
330
17
100
AcDbEntity
  8
FP-Window
100
AcDbLine
 10
13715.93745151415
 20
-1860.7837509285152
 30
0.0
 11
13716.18745151415
 21
-1861.0337509285152
 31
0.0
  0
LWPOLYLINE
  5
71
330
17
100
AcDbEntity
  8
FP-Window
100
AcDbPolyline
 90
4
 70
0
 10
13715.93745151415
 20
-1860.7837509285152
 10
13715.93745151415
 20
-1858.7837509285152
 10
13717.43745151415
 20
-1858.7837509285152
 10
13717.43745151415
 20
-1860.7837509285152
  0
LWPOLYLINE
  5
72
330
17
100
AcDbEntity
  8
FP-Window
100
AcDbPolyline
 90
4
 70
0
 10
13715.93745151415
 20
-1614.2837509285653
 10
13715.93745151415
 20
-1616.2837509285653
 10
13717.43745151415
 20
-1616.2837509285653
 10
13717.43745151415
 20
-1614.2837509285653
  0
LINE
  5
73
330
17
100
AcDbEntity
  8
FP-Window
100
AcDbLine
 10
13715.937451514204
 20
-1614.2837509286198
 30
0.0
 11
13715.93745151415
 21
-1584.7837509285655
 31
0.0
  0
LINE
  5
74
330
17
100
AcDbEntity
  8
FP-Window
100
AcDbLine
 10
13715.93745151415
 20
-1614.2837509285653
 30
0.0
 11
13716.18745151415
 21
-1614.0337509285653
 31
0.0
  0
LINE
  5
75
330
17
100
AcDbEntity
  8
FP-Window
100
AcDbLine
 10
13715.93745151415
 20
-1584.7837509285655
 30
0.0
 11
13716.18745151415
 21
-1585.0337509285655
 31
0.0
  0
LWPOLYLINE
  5
76
330
17
100
AcDbEntity
  8
FP-Window
100
AcDbPolyline
 90
4
 70
0
 10
13715.93745151415
 20
-1584.7837509285655
 10
13715.93745151415
 20
-1582.7837509285655
 10
13717.43745151415
 20
-1582.7837509285655
 10
13717.43745151415
 20
-1584.7837509285655
  0
LINE
  5
77
330
17
100
AcDbEntity
  8
FP-Window
100
AcDbLine
 10
13716.18745151415
 20
-1890.033750928515
 30
0.0
 11
13716.31245151415
 21
-1890.033750928515
 31
0.0
  0
LINE
  5
78
330
17
100
AcDbEntity
  8
FP-Window
100
AcDbLine
 10
13716.18745151415
 20
-1861.0337509285152
 30
0.0
 11
13716.31245151415
 21
-1861.0337509285152
 31
0.0
  0
LINE
  5
79
330
17
100
AcDbEntity
  8
FP-Window
100
AcDbLine
 10
13716.18745151415
 20
-1614.0337509285653
 30
0.0
 11
13716.31245151415
 21
-1614.0337509285653
 31
0.0
  0
LINE
  5
7A
330
17
100
AcDbEntity
  8
FP-Window
100
AcDbLine
 10
13716.18745151415
 20
-1585.0337509285655
 30
0.0
 11
13716.31245151415
 21
-1585.0337509285655
 31
0.0
  0
LWPOLYLINE
  5
7B
330
17
100
AcDbEntity
  8
FP-Window
100
AcDbPolyline
 90
4
 70
0
 10
13716.31245151415
 20
-1890.533750928515
 10
13716.312451514204
 20
-1860.5337509284607
 10
13716.437451514204
 20
-1860.5337509284607
 10
13716.43745151415
 20
-1890.533750928515
  0
LWPOLYLINE
  5
7C
330
17
100
AcDbEntity
  8
FP-Window
100
AcDbPolyline
 90
4
 70
0
 10
13716.31245151415
 20
-1584.5337509285655
 10
13716.312451514204
 20
-1614.5337509286198
 10
13716.437451514204
 20
-1614.5337509286198
 10
13716.43745151415
 20
-1584.5337509285655
  0
LINE
  5
7D
330
17
100
AcDbEntity
  8
FP-Window
100
AcDbLine
 10
13716.93745151415
 20
-1890.533750928515
 30
0.0
 11
13716.43745151415
 21
-1890.533750928515
 31
0.0
  0
LINE
  5
7E
330
17
100
AcDbEntity
  8
FP-Window
100
AcDbLine
 10
13716.93745151415
 20
-1860.5337509285152
 30
0.0
 11
13716.43745151415
 21
-1860.5337509285152
 31
0.0
  0
LINE
  5
7F
330
17
100
AcDbEntity
  8
FP-Window
100
AcDbLine
 10
13716.93745151415
 20
-1614.5337509285653
 30
0.0
 11
13716.43745151415
 21
-1614.5337509285653
 31
0.0
  0
LINE
  5
80
330
17
100
AcDbEntity
  8
FP-Window
100
AcDbLine
 10
13716.93745151415
 20
-1584.5337509285655
 30
0.0
 11
13716.43745151415
 21
-1584.5337509285655
 31
0.0
  0
LWPOLYLINE
  5
81
330
17
100
AcDbEntity
  8
FP-Window
100
AcDbPolyline
 90
4
 70
0
 10
13717.06245151415
 20
-1890.533750928515
 10
13717.062451514204
 20
-1860.5337509284607
 10
13716.937451514204
 20
-1860.5337509284607
 10
13716.93745151415
 20
-1890.533750928515
  0
LWPOLYLINE
  5
82
330
17
100
AcDbEntity
  8
FP-Window
100
AcDbPolyline
 90
4
 70
0
 10
13717.06245151415
 20
-1584.5337509285655
 10
13717.062451514204
 20
-1614.5337509286198
 10
13716.937451514204
 20
-1614.5337509286198
 10
13716.93745151415
 20
-1584.5337509285655
  0
LINE
  5
83
330
17
100
AcDbEntity
  8
FP-Window
100
AcDbLine
 10
13717.06245151415
 20
-1890.033750928515
 30
0.0
 11
13717.18745151415
 21
-1890.033750928515
 31
0.0
  0
LINE
  5
84
330
17
100
AcDbEntity
  8
FP-Window
100
AcDbLine
 10
13717.06245151415
 20
-1861.0337509285152
 30
0.0
 11
13717.18745151415
 21
-1861.0337509285152
 31
0.0
  0
LINE
  5
85
330
17
100
AcDbEntity
  8
FP-Window
100
AcDbLine
 10
13717.06245151415
 20
-1614.0337509285653
 30
0.0
 11
13717.18745151415
 21
-1614.0337509285653
 31
0.0
  0
LINE
  5
86
330
17
100
AcDbEntity
  8
FP-Window
100
AcDbLine
 10
13717.06245151415
 20
-1585.0337509285655
 30
0.0
 11
13717.18745151415
 21
-1585.0337509285655
 31
0.0
  0
LWPOLYLINE
  5
87
330
17
100
AcDbEntity
  8
FP-Wall Detail
100
AcDbPolyline
 90
3
 70
0
 10
13822.082476700147
 20
-1913.0337509285364
 10
13717.080844067117
 20
-1913.0337509285405
 10
13717.080844067119
 20
-1893.5337509285405
  0
LWPOLYLINE
  5
88
330
17
100
AcDbEntity
  8
FP-Wall Detail
100
AcDbPolyline
 90
2
 70
0
 10
13717.08084406712
 20
-1857.5337509285423
 10
13717.080844067119
 20
-1845.033750928539
  0
LWPOLYLINE
  5
89
330
17
100
AcDbEntity
  8
FP-Wall Detail
100
AcDbPolyline
 90
2
 70
0
 10
13717.08084406712
 20
-1630.0337509285416
 10
13717.080844067134
 20
-1617.5337509285382
  0
LWPOLYLINE
  5
8A
330
17
100
AcDbEntity
  8
FP-Wall Detail
100
AcDbPolyline
 90
3
 70
0
 10
13717.080844067135
 20
-1581.53375092854
 10
13717.080844067135
 20
-1562.03375092854
 10
13746.330175828
 20
-1562.0337509285418
  0
LINE
  5
8B
330
17
100
AcDbEntity
  8
FP-Window
100
AcDbLine
 10
13717.43745151415
 20
-1890.283750928515
 30
0.0
 11
13717.18745151415
 21
-1890.033750928515
 31
0.0
  0
LINE
  5
8C
330
17
100
AcDbEntity
  8
FP-Window
100
AcDbLine
 10
13717.43745151415
 20
-1860.7837509285152
 30
0.0
 11
13717.18745151415
 21
-1861.0337509285152
 31
0.0
  0
LINE
  5
8D
330
17
100
AcDbEntity
  8
FP-Window
100
AcDbLine
 10
13717.43745151415
 20
-1614.2837509285653
 30
0.0
 11
13717.18745151415
 21
-1614.0337509285653
 31
0.0
  0
LINE
  5
8E
330
17
100
AcDbEntity
  8
FP-Window
100
AcDbLine
 10
13717.43745151415
 20
-1584.7837509285655
 30
0.0
 11
13717.18745151415
 21
-1585.0337509285655
 31
0.0
  0
LINE
  5
8F
330
17
100
AcDbEntity
  8
FP-Window
100
AcDbLine
 10
13717.43745151415
 20
-1890.283750928515
 30
0.0
 11
13717.437451514204
 21
-1860.7837509284607
 31
0.0
  0
LINE
  5
90
330
17
100
AcDbEntity
  8
FP-Window
100
AcDbLine
 10
13717.43745151415
 20
-1584.7837509285655
 30
0.0
 11
13717.437451514204
 21
-1614.2837509286198
 31
0.0
  0
LWPOLYLINE
  5
91
330
17
100
AcDbEntity
  8
FP-Wall Detail
100
AcDbPolyline
 90
3
 70
0
 10
13822.082476700147
 20
-1912.0337509285366
 10
13718.080844067117
 20
-1912.0337509285405
 10
13718.080844067119
 20
-1893.5337509285405
  0
LWPOLYLINE
  5
92
330
17
100
AcDbEntity
  8
FP-Wall Detail
100
AcDbPolyline
 90
2
 70
0
 10
13718.08084406712
 20
-1857.5337509285423
 10
13718.08084406712
 20
-1844.033750928539
  0
LWPOLYLINE
  5
93
330
17
100
AcDbEntity
  8
FP-Wall Detail
100
AcDbPolyline
 90
2
 70
0
 10
13718.08084406712
 20
-1631.0337509285416
 10
13718.080844067134
 20
-1617.5337509285382
  0
LWPOLYLINE
  5
94
330
17
100
AcDbEntity
  8
FP-Wall Detail
100
AcDbPolyline
 90
3
 70
0
 10
13718.080844067135
 20
-1581.53375092854
 10
13718.080844067135
 20
-1563.03375092854
 10
13746.330175828
 20
-1563.0337509285418
  0
LWPOLYLINE
  5
95
330
17
100
AcDbEntity
  8
FP-Wall Detail
100
AcDbPolyline
 90
3
 70
0
 10
13822.082476700147
 20
-1911.5337509285366
 10
13718.580844067117
 20
-1911.5337509285405
 10
13718.580844067119
 20
-1893.5337509285405
  0
LWPOLYLINE
  5
96
330
17
100
AcDbEntity
  8
FP-Wall Detail
100
AcDbPolyline
 90
2
 70
0
 10
13718.58084406712
 20
-1857.5337509285423
 10
13718.58084406712
 20
-1843.5337509285398
  0
LWPOLYLINE
  5
97
330
17
100
AcDbEntity
  8
FP-Wall Detail
100
AcDbPolyline
 90
2
 70
0
 10
13718.580844067134
 20
-1631.533750928541
 10
13718.580844067134
 20
-1617.5337509285382
  0
LWPOLYLINE
  5
98
330
17
100
AcDbEntity
  8
FP-Wall Detail
100
AcDbPolyline
 90
3
 70
0
 10
13718.580844067135
 20
-1581.53375092854
 10
13718.580844067135
 20
-1563.53375092854
 10
13746.330175828
 20
-1563.5337509285418
  0
LINE
  5
99
330
17
100
AcDbEntity
  8
FP-Window
100
AcDbLine
 10
13720.18745151426
 20
-1858.5337509285152
 30
0.0
 11
13720.18745151415
 21
-1892.533750928515
 31
0.0
  0
LINE
  5
9A
330
17
100
AcDbEntity
  8
FP-Window
100
AcDbLine
 10
13720.18745151426
 20
-1616.5337509285653
 30
0.0
 11
13720.18745151415
 21
-1582.5337509285655
 31
0.0
  0
LWPOLYLINE
  5
9B
330
17
100
AcDbEntity
  8
FP-Wall Detail
100
AcDbPolyline
 90
3
 70
0
 10
13754.582415352827
 20
-1906.033750928536
 10
13724.080844067117
 20
-1906.0337509285396
 10
13724.080844067117
 20
-1893.5337509285405
  0
LWPOLYLINE
  5
9C
330
17
100
AcDbEntity
  8
FP-Wall Detail
100
AcDbPolyline
 90
2
 70
0
 10
13724.080844067119
 20
-1857.5337509285423
 10
13724.08084406712
 20
-1838.0337509285384
  0
LWPOLYLINE
  5
9D
330
17
100
AcDbEntity
  8
FP-Wall Detail
100
AcDbPolyline
 90
2
 70
0
 10
13724.08084406712
 20
-1637.033750928542
 10
13724.080844067134
 20
-1617.5337509285382
  0
LWPOLYLINE
  5
9E
330
17
100
AcDbEntity
  8
FP-Wall Detail
100
AcDbPolyline
 90
2
 70
0
 10
13724.080844067135
 20
-1569.03375092854
 10
13724.080844067134
 20
-1581.53375092854
  0
LWPOLYLINE
  5
9F
330
17
100
AcDbEntity
  8
FP-Wall Detail
100
AcDbPolyline
 90
2
 70
0
 10
13724.080844067135
 20
-1569.03375092854
 10
13746.330175828
 20
-1569.03375092854
  0
LINE
  5
A0
330
17
100
AcDbEntity
  8
FP-Proposed Wall
100
AcDbLine
 10
13724.580844067114
 20
-1569.53375092854
 30
0.0
 11
13724.580844067117
 21
-1581.53375092854
 31
0.0
  0
LINE
  5
A1
330
17
100
AcDbEntity
  8
FP-Proposed Wall
100
AcDbLine
 10
13724.580844067117
 20
-1905.5337509285405
 30
0.0
 11
13784.580844067119
 21
-1905.5337509285405
 31
0.0
  0
LINE
  5
A2
330
17
100
AcDbEntity
  8
FP-Proposed Wall
100
AcDbLine
 10
13724.580844067117
 20
-1893.5337509285405
 30
0.0
 11
13724.580844067117
 21
-1905.5337509285405
 31
0.0
  0
LINE
  5
A3
330
17
100
AcDbEntity
  8
FP-Proposed Wall
100
AcDbLine
 10
13746.330175828003
 20
-1569.53375092854
 30
0.0
 11
13724.580844067117
 21
-1569.53375092854
 31
0.0
  0
LINE
  5
A4
330
17
100
AcDbEntity
  8
FP-Window
100
AcDbLine
 10
13724.580844067119
 20
-1893.5337509285416
 30
0.0
 11
13724.580844067195
 21
-1857.5337509285418
 31
0.0
  0
LWPOLYLINE
  5
A5
330
17
100
AcDbEntity
  8
FP-Proposed Wall
100
AcDbPolyline
 90
2
 70
0
 10
13724.580844067119
 20
-1857.5337509285423
 10
13724.586782289633
 20
-1845.5337509285405
  0
LINE
  5
A6
330
17
100
AcDbEntity
  8
FP-Window
100
AcDbLine
 10
13724.580844067119
 20
-1857.5337509285414
 30
0.0
 11
13724.580844067195
 21
-1857.5337509285418
 31
0.0
  0
LINE
  5
A7
330
17
100
AcDbEntity
  8
FP-Window
100
AcDbLine
 10
13724.580844067119
 20
-1617.5337509285391
 30
0.0
 11
13724.580844067195
 21
-1617.5337509285387
 31
0.0
  0
LINE
  5
A8
330
17
100
AcDbEntity
  8
FP-Window
100
AcDbLine
 10
13724.580844067119
 20
-1581.533750928539
 30
0.0
 11
13724.580844067195
 21
-1617.5337509285387
 31
0.0
  0
LINE
  5
A9
330
17
100
AcDbEntity
  8
FP-Proposed Wall
100
AcDbLine
 10
13724.580844067199
 20
-1617.5337509285382
 30
0.0
 11
13724.580844067197
 21
-1637.5337509285375
 31
0.0
  0
LWPOLYLINE
  5
AA
330
17
100
AcDbEntity
  8
FP-Proposed Wall
100
AcDbPolyline
 90
3
 70
0
 10
13724.586782289633
 20
-1845.5337509285405
 10
13784.580844067117
 20
-1845.533750928536
 10
13784.580844067117
 20
-1845.533750928536
  0
LWPOLYLINE
  5
AB
330
17
100
AcDbEntity
  8
FP-Proposed Wall
100
AcDbPolyline
 90
3
 70
0
 10
13724.586782289633
 20
-1837.5337509285405
 10
13789.080844067117
 20
-1837.533750928536
 10
13789.080844067117
 20
-1837.533750928536
  0
LINE
  5
AC
330
17
100
AcDbEntity
  8
FP-Fixture
100
AcDbLine
 10
13734.313049394634
 20
-1853.5152068950651
 30
0.0
 11
13734.319183406738
 21
-1847.0445225951066
 31
0.0
  0
LINE
  5
AD
330
17
100
AcDbEntity
  8
FP-Fixture
100
AcDbLine
 10
13734.332477088898
 20
-1864.6925668848385
 30
0.0
 11
13734.332477088898
 21
-1853.9139549130662
 31
0.0
  0
LINE
  5
AE
330
17
100
AcDbEntity
  8
FP-Fixture
100
AcDbLine
 10
13734.72255627604
 20
-1864.6725492360881
 30
0.0
 11
13734.72255627604
 21
-1856.4522833683982
 31
0.0
  0
LINE
  5
AF
330
17
100
AcDbEntity
  8
FP-Fixture
100
AcDbLine
 10
13735.045981457819
 20
-1856.0794466371624
 30
0.0
 11
13735.045981457819
 21
-1855.7243458151895
 31
0.0
  0
LINE
  5
B0
330
17
100
AcDbEntity
  8
FP-Fixture
100
AcDbLine
 10
13750.06173475799
 20
-1856.072949331214
 30
0.0
 11
13735.09995337625
 21
-1856.072949331214
 31
0.0
  0
LINE
  5
B1
330
17
100
AcDbEntity
  8
FP-Fixture
100
AcDbLine
 10
13735.485873184023
 20
-1855.7237624883678
 30
0.0
 11
13735.485873184023
 21
-1856.072949331214
 31
0.0
  0
LINE
  5
B2
330
17
100
AcDbEntity
  8
FP-Fixture
100
AcDbLine
 10
13742.58084406712
 20
-1855.025972746774
 30
0.0
 11
13735.832378705052
 21
-1855.025972746774
 31
0.0
  0
LINE
  5
B3
330
17
100
AcDbEntity
  8
FP-Fixture
100
AcDbLine
 10
13749.323175417085
 20
-1845.5337509285405
 30
0.0
 11
13735.838512717155
 21
-1845.5337567433976
 31
0.0
  0
LINE
  5
B4
330
17
100
AcDbEntity
  8
FP-Fixture
100
AcDbLine
 10
13736.051309922757
 20
-1855.160191001612
 30
0.0
 11
13742.58084406712
 21
-1855.160191001612
 31
0.0
  0
LINE
  5
B5
330
17
100
AcDbEntity
  8
FP-Fixture
100
AcDbLine
 10
13736.467790677294
 20
-1859.0108634495175
 30
0.0
 11
13736.467790677294
 21
-1864.5771698326057
 31
0.0
  0
LINE
  5
B6
330
17
100
AcDbEntity
  8
FP-Fixture
100
AcDbLine
 10
13737.98575078513
 20
-1857.5009407982727
 30
0.0
 11
13747.175937349111
 21
-1857.5009407982727
 31
0.0
  0
LINE
  5
B7
330
17
100
AcDbEntity
  8
FP-Fixture
100
AcDbLine
 10
13741.29977208647
 20
-1863.3006593906475
 30
0.0
 11
13741.211408513278
 21
-1860.9611077287605
 31
0.0
  0
LINE
  5
B8
330
17
100
AcDbEntity
  8
FP-Fixture
100
AcDbLine
 10
13741.707605018686
 20
-1860.4510307065866
 30
0.0
 11
13742.58084406712
 21
-1860.4510307065866
 31
0.0
  0
LINE
  5
B9
330
17
100
AcDbEntity
  8
FP-Fixture
100
AcDbLine
 10
13742.577648345943
 20
-1863.7903329368771
 30
0.0
 11
13741.795968591878
 21
-1863.7903329368771
 31
0.0
  0
LINE
  5
BA
330
17
100
AcDbEntity
  8
FP-Fixture
100
AcDbLine
 10
13743.454083115555
 20
-1860.4510307065866
 30
0.0
 11
13742.58084406712
 21
-1860.4510307065866
 31
0.0
  0
LINE
  5
BB
330
17
100
AcDbEntity
  8
FP-Fixture
100
AcDbLine
 10
13749.110378211484
 20
-1855.160191001612
 30
0.0
 11
13742.58084406712
 21
-1855.160191001612
 31
0.0
  0
LINE
  5
BC
330
17
100
AcDbEntity
  8
FP-Fixture
100
AcDbLine
 10
13742.58084406712
 20
-1855.025972746774
 30
0.0
 11
13749.32930942919
 21
-1855.025972746774
 31
0.0
  0
LINE
  5
BD
330
17
100
AcDbEntity
  8
FP-Fixture
100
AcDbLine
 10
13742.584039788298
 20
-1863.7903329368771
 30
0.0
 11
13743.365719542364
 21
-1863.7903329368771
 31
0.0
  0
LINE
  5
BE
330
17
100
AcDbEntity
  8
FP-Fixture
100
AcDbLine
 10
13743.861916047772
 20
-1863.3006593906475
 30
0.0
 11
13743.950279620964
 21
-1860.9611077287605
 31
0.0
  0
LINE
  5
BF
330
17
100
AcDbEntity
  8
FP-Window
100
AcDbLine
 10
13744.33017582797
 20
-1556.5337509284916
 30
0.0
 11
13744.33017582797
 21
-1558.5337509284916
 31
0.0
  0
LINE
  5
C0
330
17
100
AcDbEntity
  8
FP-Window
100
AcDbLine
 10
13784.33017582797
 20
-1556.5337509284752
 30
0.0
 11
13744.33017582797
 21
-1556.5337509284916
 31
0.0
  0
LWPOLYLINE
  5
C1
330
17
100
AcDbEntity
  8
FP-Window
100
AcDbPolyline
 90
9
 70
0
 10
13746.330175827972
 20
-1559.6403583755127
 10
13747.330175827972
 20
-1559.6403583755127
 10
13747.330175827972
 20
-1562.6403583755127
 10
13747.830175827972
 20
-1562.6403583755127
 10
13747.830175827972
 20
-1563.1403583755127
 10
13747.330175827972
 20
-1563.1403583755127
 10
13747.330175827972
 20
-1565.1403583755127
 10
13746.330175827972
 20
-1565.1403583755127
 10
13746.330175827972
 20
-1559.6403583755127
  0
LINE
  5
C2
330
17
100
AcDbEntity
  8
FP-Window
100
AcDbLine
 10
13782.330175827998
 20
-1569.5337509284814
 30
0.0
 11
13746.330175827998
 21
-1569.5337509285578
 31
0.0
  0
LINE
  5
C3
330
17
100
AcDbEntity
  8
FP-Window
100
AcDbLine
 10
13746.330175827998
 20
-1569.5337509284814
 30
0.0
 11
13746.330175827998
 21
-1569.5337509285578
 31
0.0
  0
LINE
  5
C4
330
17
100
AcDbEntity
  8
FP-Proposed Wall
100
AcDbLine
 10
13746.330175828
 20
-1569.5337509284818
 30
0.0
 11
13746.330175828
 21
-1558.53375092852
 31
0.0
  0
LINE
  5
C5
330
17
100
AcDbEntity
  8
FP-Window
100
AcDbLine
 10
13747.330175827972
 20
-1565.1403583756237
 30
0.0
 11
13781.33017582797
 21
-1565.1403583755127
 31
0.0
  0
LINE
  5
C6
330
17
100
AcDbEntity
  8
FP-Window
100
AcDbLine
 10
13781.33017582797
 20
-1559.6403583755127
 30
0.0
 11
13747.330175827972
 21
-1559.6403583756237
 31
0.0
  0
LWPOLYLINE
  5
C7
330
17
100
AcDbEntity
  8
FP-Window
100
AcDbPolyline
 90
4
 70
0
 10
13749.580175827972
 20
-1560.8903583755127
 10
13747.580175827972
 20
-1560.8903583755127
 10
13747.580175827972
 20
-1562.3903583755127
 10
13749.580175827972
 20
-1562.3903583755127
  0
LINE
  5
C8
330
17
100
AcDbEntity
  8
FP-Fixture
100
AcDbLine
 10
13748.693897456948
 20
-1859.0108634495175
 30
0.0
 11
13748.693897456948
 21
-1864.5771698326057
 31
0.0
  0
LWPOLYLINE
  5
C9
330
17
100
AcDbEntity
  8
FP-Window
100
AcDbPolyline
 90
4
 70
0
 10
13779.33017582797
 20
-1562.0153583755127
 10
13749.330175827918
 20
-1562.0153583755673
 10
13749.330175827918
 20
-1561.8903583755673
 10
13779.33017582797
 20
-1561.8903583755127
  0
LWPOLYLINE
  5
CA
330
17
100
AcDbEntity
  8
FP-Window
100
AcDbPolyline
 90
4
 70
0
 10
13779.33017582797
 20
-1561.2653583755127
 10
13749.330175827918
 20
-1561.2653583755673
 10
13749.330175827918
 20
-1561.3903583755673
 10
13779.33017582797
 20
-1561.3903583755127
  0
LINE
  5
CB
330
17
100
AcDbEntity
  8
FP-Window
100
AcDbLine
 10
13749.330175827972
 20
-1561.8903583755127
 30
0.0
 11
13749.330175827972
 21
-1561.3903583755127
 31
0.0
  0
LINE
  5
CC
330
17
100
AcDbEntity
  8
FP-Window
100
AcDbLine
 10
13779.08017582797
 20
-1562.3903583755127
 30
0.0
 11
13749.580175827918
 21
-1562.3903583755673
 31
0.0
  0
LINE
  5
CD
330
17
100
AcDbEntity
  8
FP-Window
100
AcDbLine
 10
13749.580175827918
 20
-1560.8903583755673
 30
0.0
 11
13779.08017582797
 21
-1560.8903583755127
 31
0.0
  0
LINE
  5
CE
330
17
100
AcDbEntity
  8
FP-Window
100
AcDbLine
 10
13749.580175827972
 20
-1562.3903583755127
 30
0.0
 11
13749.830175827972
 21
-1562.1403583755127
 31
0.0
  0
LINE
  5
CF
330
17
100
AcDbEntity
  8
FP-Window
100
AcDbLine
 10
13749.580175827972
 20
-1560.8903583755127
 30
0.0
 11
13749.830175827972
 21
-1561.1403583755127
 31
0.0
  0
LINE
  5
D0
330
17
100
AcDbEntity
  8
FP-Fixture
100
AcDbLine
 10
13749.675814950218
 20
-1855.7237624883678
 30
0.0
 11
13749.675814950218
 21
-1856.072949331214
 31
0.0
  0
LINE
  5
D1
330
17
100
AcDbEntity
  8
FP-Window
100
AcDbLine
 10
13749.830175827972
 20
-1562.0153583755127
 30
0.0
 11
13749.830175827972
 21
-1562.1403583755127
 31
0.0
  0
LINE
  5
D2
330
17
100
AcDbEntity
  8
FP-Window
100
AcDbLine
 10
13749.830175827972
 20
-1561.1403583755127
 30
0.0
 11
13749.830175827972
 21
-1561.2653583755127
 31
0.0
  0
LINE
  5
D3
330
17
100
AcDbEntity
  8
FP-Fixture
100
AcDbLine
 10
13750.115706676423
 20
-1856.0794466371624
 30
0.0
 11
13750.115706676423
 21
-1855.7243458151895
 31
0.0
  0
LINE
  5
D4
330
17
100
AcDbEntity
  8
FP-Fixture
100
AcDbLine
 10
13750.439131858202
 20
-1864.6725492360881
 30
0.0
 11
13750.439131858202
 21
-1856.4522833683982
 31
0.0
  0
LINE
  5
D5
330
17
100
AcDbEntity
  8
FP-Fixture
100
AcDbLine
 10
13750.829211045344
 20
-1864.6925668848385
 30
0.0
 11
13750.829211045344
 21
-1853.9139549130662
 31
0.0
  0
LINE
  5
D6
330
17
100
AcDbEntity
  8
FP-Fixture
100
AcDbLine
 10
13750.848638739606
 20
-1853.5152068950651
 30
0.0
 11
13750.842504727501
 21
-1847.0445225951066
 31
0.0
  0
LWPOLYLINE
  5
D7
330
17
100
AcDbEntity
  8
FP-Wall Detail
100
AcDbPolyline
 90
2
 70
0
 10
13754.582415352827
 20
-1906.033750928536
 10
13822.082476700147
 20
-1906.033750928536
  0
LINE
  5
D8
330
17
100
AcDbEntity
  8
FP-Fixture
100
AcDbLine
 10
13760.586349910616
 20
-1863.5338643031064
 30
0.0
 11
13784.586349910616
 21
-1863.5338643031062
 31
0.0
  0
LINE
  5
D9
330
17
100
AcDbEntity
  8
FP-Fixture
100
AcDbLine
 10
13760.586349910616
 20
-1863.5338643031064
 30
0.0
 11
13760.586349910616
 21
-1845.5338643031087
 31
0.0
  0
LINE
  5
DA
330
17
100
AcDbEntity
  8
FP-Fixture
100
AcDbLine
 10
13760.586349910616
 20
-1862.5338643031064
 30
0.0
 11
13784.586349910616
 21
-1862.5338643031062
 31
0.0
  0
LINE
  5
DB
330
17
100
AcDbEntity
  8
FP-Fixture
100
AcDbLine
 10
13760.586349910616
 20
-1845.5338643031087
 30
0.0
 11
13784.586349910616
 21
-1845.5338643031084
 31
0.0
  0
LWPOLYLINE
  5
DC
330
17
100
AcDbEntity
  8
FP-Door
100
AcDbPolyline
 90
4
 70
0
 10
13763.367566525421
 20
-1878.3223405357799
 10
13764.4282266972
 20
-1877.2616803639999
 10
13785.641430132797
 20
-1898.4748837995965
 10
13784.580769961018
 20
-1899.5355439713762
  0
LWPOLYLINE
  5
DD
330
17
100
AcDbEntity
  8
FP-Fixture
100
AcDbPolyline
 90
10
 70
0
 10
13771.836349910616
 20
-1848.5338643031068
 10
13765.586349910616
 20
-1848.5338643031068
 10
13765.086349910616
 20
-1849.0338643031068
 10
13765.086349910616
 20
-1859.5338643031068
 10
13765.586349910616
 20
-1860.0338643031068
 10
13779.586349910616
 20
-1860.0338643031068
 10
13780.086349910616
 20
-1859.5338643031068
 10
13780.086349910616
 20
-1849.0338643031068
 10
13779.586349910616
 20
-1848.5338643031068
 10
13773.336349910616
 20
-1848.5338643031068
  0
LWPOLYLINE
  5
DE
330
17
100
AcDbEntity
  8
FP-Fixture
100
AcDbPolyline
 90
6
 70
0
 10
13771.586349910616
 20
-1850.2838643031068
 10
13766.086349910616
 20
-1850.2838643031068
 10
13766.086349910616
 20
-1859.0338643031068
 10
13779.086349910616
 20
-1859.0338643031068
 10
13779.086349910616
 20
-1850.2838643031068
 10
13773.586349910616
 20
-1850.2838643031068
  0
LWPOLYLINE
  5
DF
330
17
100
AcDbEntity
  8
FP-Fixture
100
AcDbPolyline
 90
6
 70
0
 10
13773.336349910616
 20
-1851.0338643031068
 10
13773.586349910616
 20
-1851.0338643031068
 10
13773.586349910616
 20
-1849.0338643031068
 10
13771.586349910616
 20
-1849.0338643031068
 10
13771.586349910616
 20
-1851.0338643031068
 10
13771.836349910616
 20
-1851.0338643031068
  0
LWPOLYLINE
  5
E0
330
17
100
AcDbEntity
  8
FP-Fixture
100
AcDbPolyline
 90
4
 70
0
 10
13771.836349910616
 20
-1853.2838643031068
 10
13773.336349910616
 20
-1853.2838643031068
 10
13773.336349910616
 20
-1849.2838643031068
 10
13771.836349910616
 20
-1849.2838643031068
  0
LWPOLYLINE
  5
E1
330
17
100
AcDbEntity
  8
FP-Fixture
100
AcDbPolyline
 90
4
 70
0
 10
13771.836349910616
 20
-1848.5338643031068
 10
13771.836349910616
 20
-1848.7838643031068
 10
13773.336349910616
 20
-1848.7838643031068
 10
13773.336349910616
 20
-1848.5338643031068
  0
LWPOLYLINE
  5
E2
330
17
100
AcDbEntity
  8
FP-Fixture
100
AcDbPolyline
 90
4
 70
0
 10
13772.086349910616
 20
-1851.2838643031068
 10
13772.086349910616
 20
-1853.2838643031068
 10
13773.086349910616
 20
-1853.2838643031068
 10
13773.086349910616
 20
-1851.2838643031068
  0
LINE
  5
E3
330
17
100
AcDbEntity
  8
FP-Fixture
100
AcDbLine
 10
13772.336349910616
 20
-1848.7838643031068
 30
0.0
 11
13772.336349910616
 21
-1849.0338643031068
 31
0.0
  0
LINE
  5
E4
330
17
100
AcDbEntity
  8
FP-Fixture
100
AcDbLine
 10
13772.836349910616
 20
-1848.7838643031068
 30
0.0
 11
13772.836349910616
 21
-1849.0338643031068
 31
0.0
  0
LINE
  5
E5
330
17
100
AcDbEntity
  8
FP-Window
100
AcDbLine
 10
13779.08017582797
 20
-1562.3903583755127
 30
0.0
 11
13778.83017582797
 21
-1562.1403583755127
 31
0.0
  0
LINE
  5
E6
330
17
100
AcDbEntity
  8
FP-Window
100
AcDbLine
 10
13778.83017582797
 20
-1562.0153583755127
 30
0.0
 11
13778.83017582797
 21
-1562.1403583755127
 31
0.0
  0
LINE
  5
E7
330
17
100
AcDbEntity
  8
FP-Window
100
AcDbLine
 10
13778.83017582797
 20
-1561.1403583755127
 30
0.0
 11
13778.83017582797
 21
-1561.2653583755127
 31
0.0
  0
LINE
  5
E8
330
17
100
AcDbEntity
  8
FP-Window
100
AcDbLine
 10
13779.08017582797
 20
-1560.8903583755127
 30
0.0
 11
13778.83017582797
 21
-1561.1403583755127
 31
0.0
  0
LWPOLYLINE
  5
E9
330
17
100
AcDbEntity
  8
FP-Window
100
AcDbPolyline
 90
4
 70
0
 10
13779.08017582797
 20
-1560.8903583755127
 10
13781.08017582797
 20
-1560.8903583755127
 10
13781.08017582797
 20
-1562.3903583755127
 10
13779.08017582797
 20
-1562.3903583755127
  0
LINE
  5
EA
330
17
100
AcDbEntity
  8
FP-Window
100
AcDbLine
 10
13779.33017582797
 20
-1561.8903583755127
 30
0.0
 11
13779.33017582797
 21
-1561.3903583755127
 31
0.0
  0
LWPOLYLINE
  5
EB
330
17
100
AcDbEntity
  8
FP-Window
100
AcDbPolyline
 90
9
 70
0
 10
13782.33017582797
 20
-1559.6403583755127
 10
13781.33017582797
 20
-1559.6403583755127
 10
13781.33017582797
 20
-1562.6403583755127
 10
13780.83017582797
 20
-1562.6403583755127
 10
13780.83017582797
 20
-1563.1403583755127
 10
13781.33017582797
 20
-1563.1403583755127
 10
13781.33017582797
 20
-1565.1403583755127
 10
13782.33017582797
 20
-1565.1403583755127
 10
13782.33017582797
 20
-1559.6403583755127
  0
LINE
  5
EC
330
17
100
AcDbEntity
  8
FP-Furniture
100
AcDbLine
 10
13781.029114678524
 20
-1644.6747829564295
 30
0.0
 11
13811.076046270367
 21
-1644.6804220249696
 31
0.0
  0
LINE
  5
ED
330
17
100
AcDbEntity
  8
FP-Furniture
100
AcDbLine
 10
13781.033330951088
 20
-1610.976117959593
 30
0.0
 11
13781.029114678562
 21
-1644.6747829564288
 31
0.0
  0
LINE
  5
EE
330
17
100
AcDbEntity
  8
FP-Furniture
100
AcDbLine
 10
13781.033330951088
 20
-1610.976117959593
 30
0.0
 11
13811.080263013295
 21
-1610.9779976491004
 31
0.0
  0
LINE
  5
EF
330
17
100
AcDbEntity
  8
FP-Proposed Wall
100
AcDbLine
 10
13804.07950758889
 20
-1569.5337509285418
 30
0.0
 11
13782.330175827996
 21
-1569.53375092854
 31
0.0
  0
LINE
  5
F0
330
17
100
AcDbEntity
  8
FP-Proposed Wall
100
AcDbLine
 10
13782.330175827996
 20
-1569.5337509284818
 30
0.0
 11
13782.330175828
 21
-1558.53375092852
 31
0.0
  0
LWPOLYLINE
  5
F1
330
17
100
AcDbEntity
  8
FP-Wall Detail
100
AcDbPolyline
 90
6
 70
0
 10
13782.330175827996
 20
-1569.0337509285418
 10
13814.57950758889
 20
-1569.0337509285418
 10
13814.57950758889
 20
-1557.0337509285018
 10
13901.57950758889
 20
-1557.0337509284982
 10
13901.57950758889
 20
-1569.0337509284946
 10
13933.828839349782
 20
-1569.033750928509
  0
LWPOLYLINE
  5
F2
330
17
100
AcDbEntity
  8
FP-Wall Detail
100
AcDbPolyline
 90
6
 70
0
 10
13782.330175827998
 20
-1563.5337509285418
 10
13809.07950758889
 20
-1563.5337509285418
 10
13809.07950758889
 20
-1551.5337509285018
 10
13907.07950758889
 20
-1551.5337509284982
 10
13907.07950758889
 20
-1563.5337509284964
 10
13933.82883934978
 20
-1563.533750928509
  0
LWPOLYLINE
  5
F3
330
17
100
AcDbEntity
  8
FP-Wall Detail
100
AcDbPolyline
 90
6
 70
0
 10
13782.330175827998
 20
-1563.0337509285418
 10
13808.57950758889
 20
-1563.0337509285418
 10
13808.57950758889
 20
-1551.0337509285018
 10
13907.57950758889
 20
-1551.0337509284982
 10
13907.57950758889
 20
-1563.0337509284964
 10
13933.82883934978
 20
-1563.033750928509
  0
LWPOLYLINE
  5
F4
330
17
100
AcDbEntity
  8
FP-Wall Detail
100
AcDbPolyline
 90
6
 70
0
 10
13782.330175827998
 20
-1562.0337509285418
 10
13807.57950758889
 20
-1562.0337509285418
 10
13807.57950758889
 20
-1550.0337509285018
 10
13908.57950758889
 20
-1550.0337509284982
 10
13908.57950758889
 20
-1562.0337509284964
 10
13933.82883934978
 20
-1562.033750928509
  0
LINE
  5
F5
330
17
100
AcDbEntity
  8
FP-Proposed Wall
100
AcDbLine
 10
13804.07950758889
 20
-1558.5337509285418
 30
0.0
 11
13782.330175828003
 21
-1558.5337509285418
 31
0.0
  0
LINE
  5
F6
330
17
100
AcDbEntity
  8
FP-Window
100
AcDbLine
 10
13784.33017582797
 20
-1558.5337509284752
 30
0.0
 11
13784.33017582797
 21
-1556.5337509284752
 31
0.0
  0
LINE
  5
F7
330
17
100
AcDbEntity
  8
FP-Proposed Wall
100
AcDbLine
 10
13789.080844067119
 20
-1869.5290354767235
 30
0.0
 11
13784.580769961032
 21
-1869.5290354767235
 31
0.0
  0
LWPOLYLINE
  5
F8
330
17
100
AcDbEntity
  8
FP-Proposed Wall
100
AcDbPolyline
 90
2
 70
0
 10
13784.580844067117
 20
-1845.5337509285405
 10
13784.580844067119
 20
-1869.5290354767235
  0
LWPOLYLINE
  5
F9
330
17
100
AcDbEntity
  8
FP-Proposed Wall
100
AcDbPolyline
 90
2
 70
0
 10
13784.580844067119
 20
-1899.5337509285396
 10
13784.580844067119
 20
-1905.5337509285396
  0
LINE
  5
FA
330
17
100
AcDbEntity
  8
FP-Proposed Wall
100
AcDbLine
 10
13789.080844067119
 20
-1899.5304864029226
 30
0.0
 11
13784.580844067119
 21
-1899.5337509285396
 31
0.0
  0
LINE
  5
FB
330
17
100
AcDbEntity
  8
FP-Fixture
100
AcDbLine
 10
13784.586349910616
 20
-1845.5338643031084
 30
0.0
 11
13784.586349910616
 21
-1863.5338643031062
 31
0.0
  0
LWPOLYLINE
  5
FC
330
17
100
AcDbEntity
  8
FP-Window
100
AcDbPolyline
 90
5
 70
0
 10
13785.082476700147
 20
-1916.5337509285368
 10
13785.082476700147
 20
-1952.5337509285368
 10
13895.082476700149
 20
-1952.5337509285368
 10
13931.082476700149
 20
-1952.5337509285368
 10
13931.082476700149
 20
-1916.5337509285405
  0
LINE
  5
FD
330
17
100
AcDbEntity
  8
FP-Furniture
100
AcDbLine
 10
13788.033330951086
 20
-1610.9765558687454
 30
0.0
 11
13788.029114568983
 21
-1644.67609668389
 31
0.0
  0
LINE
  5
FE
330
17
100
AcDbEntity
  8
FP-Furniture
100
AcDbLine
 10
13811.075321793214
 20
-1639.680421870694
 30
0.0
 11
13788.029739973092
 21
-1639.6775384789207
 31
0.0
  0
LINE
  5
FF
330
17
100
AcDbEntity
  8
FP-Furniture
100
AcDbLine
 10
13788.032705366586
 20
-1615.9765558393947
 30
0.0
 11
13811.079402246274
 21
-1615.977997605036
 31
0.0
  0
LWPOLYLINE
  5
100
330
17
100
AcDbEntity
  8
FP-Proposed Wall
100
AcDbPolyline
 90
2
 70
0
 10
13789.080844067117
 20
-1845.5337509285405
 10
13789.080844067119
 20
-1869.5290354767235
  0
LWPOLYLINE
  5
101
330
17
100
AcDbEntity
  8
FP-Proposed Wall
100
AcDbPolyline
 90
2
 70
0
 10
13789.080844067117
 20
-1845.533750928536
 10
13789.080844067117
 20
-1837.533750928536
  0
LINE
  5
102
330
17
100
AcDbEntity
  8
FP-Proposed Wall
100
AcDbLine
 10
13789.080844067119
 20
-1905.5337509285405
 30
0.0
 11
13822.082476700147
 21
-1905.5337509285405
 31
0.0
  0
LWPOLYLINE
  5
103
330
17
100
AcDbEntity
  8
FP-Proposed Wall
100
AcDbPolyline
 90
2
 70
0
 10
13789.080844067119
 20
-1899.5304864029226
 10
13789.080844067119
 20
-1905.5337509285396
  0
LWPOLYLINE
  5
104
330
17
100
AcDbEntity
  8
FP-Window
100
AcDbPolyline
 90
5
 70
0
 10
13797.082476700147
 20
-1916.5337509285368
 10
13797.082476700147
 20
-1940.5337509285368
 10
13895.082476700149
 20
-1940.5337509285368
 10
13919.082476700149
 20
-1940.5337509285368
 10
13919.082476700149
 20
-1916.5337509285405
  0
LINE
  5
105
330
17
100
AcDbEntity
  8
FP-Proposed Wall
100
AcDbLine
 10
13828.07950758889
 20
-1583.5337509284982
 30
0.0
 11
13804.07950758889
 21
-1583.5337509284982
 31
0.0
  0
LINE
  5
106
330
17
100
AcDbEntity
  8
FP-Proposed Wall
100
AcDbLine
 10
13804.07950758889
 20
-1583.5337509284982
 30
0.0
 11
13804.07950758889
 21
-1569.5337509284982
 31
0.0
  0
LINE
  5
107
330
17
100
AcDbEntity
  8
FP-Proposed Wall
100
AcDbLine
 10
13804.07950758889
 20
-1558.5337509284982
 30
0.0
 11
13804.07950758889
 21
-1546.5337509284982
 31
0.0
  0
LINE
  5
108
330
17
100
AcDbEntity
  8
FP-Proposed Wall
100
AcDbLine
 10
13912.07950758889
 20
-1546.5337509284982
 30
0.0
 11
13804.07950758889
 21
-1546.5337509285018
 31
0.0
  0
LWPOLYLINE
  5
109
330
17
100
AcDbEntity
  8
FP-Window
100
AcDbPolyline
 90
5
 70
0
 10
13809.082476700147
 20
-1916.5337509285368
 10
13809.082476700147
 20
-1928.5337509285368
 10
13895.082476700149
 20
-1928.5337509285368
 10
13907.082476700149
 20
-1928.5337509285368
 10
13907.082476700149
 20
-1916.5337509285405
  0
LINE
  5
10A
330
17
100
AcDbEntity
  8
FP-Furniture
100
AcDbLine
 10
13811.080263013293
 20
-1610.9779976491022
 30
0.0
 11
13811.074461026212
 21
-1644.6804217274566
 31
0.0
  0
LINE
  5
10B
330
17
100
AcDbEntity
  8
FP-Furniture
100
AcDbLine
 10
13813.076871774178
 20
-1687.578566241889
 30
0.0
 11
13813.074992084647
 21
-1657.531634179682
 31
0.0
  0
LINE
  5
10C
330
17
100
AcDbEntity
  8
FP-Furniture
100
AcDbLine
 10
13813.074992084647
 20
-1657.531634179682
 30
0.0
 11
13903.074992084648
 21
-1657.5358674649196
 31
0.0
  0
LINE
  5
10D
330
17
100
AcDbEntity
  8
FP-Furniture
100
AcDbLine
 10
13813.076433865019
 20
-1680.5785662418898
 30
0.0
 11
13903.073908220023
 21
-1680.5789845686859
 31
0.0
  0
LINE
  5
10E
330
17
100
AcDbEntity
  8
FP-Furniture
100
AcDbLine
 10
13813.076871774178
 20
-1687.578566241889
 30
0.0
 11
13903.07357896542
 21
-1687.5789845686868
 31
0.0
  0
LINE
  5
10F
330
17
100
AcDbEntity
  8
FP-Furniture
100
AcDbLine
 10
13818.076433874805
 20
-1680.5785662418853
 30
0.0
 11
13818.074992109145
 21
-1657.5318693621962
 31
0.0
  0
LINE
  5
110
330
17
100
AcDbEntity
  8
FP-Above
100
AcDbLine
 10
13822.082476700147
 20
-1916.5337509285368
 30
0.0
 11
13894.082476700147
 21
-1916.5337509285368
 31
0.0
  0
LINE
  5
111
330
17
100
AcDbEntity
  8
FP-Proposed Wall
100
AcDbLine
 10
13822.082476700147
 20
-1905.5337509285405
 30
0.0
 11
13822.082476700147
 21
-1916.5337509285368
 31
0.0
  0
LWPOLYLINE
  5
112
330
17
100
AcDbEntity
  8
FP-Door
100
AcDbPolyline
 90
4
 70
0
 10
13847.538320822863
 20
-1880.0779068058248
 10
13848.598980994642
 20
-1881.1385669776046
 10
13823.143136871926
 20
-1906.5944111003203
 10
13822.082476700147
 20
-1905.5337509285405
  0
LINE
  5
113
330
17
100
AcDbEntity
  8
FP-Above
100
AcDbLine
 10
13822.082476700147
 20
-1905.5337509285405
 30
0.0
 11
13894.082476700147
 21
-1905.5337509285387
 31
0.0
  0
LWPOLYLINE
  5
114
330
17
100
AcDbEntity
  8
FP-Furniture
100
AcDbPolyline
 90
4
 70
1
 10
13828.074992084647
 20
-1613.5337509284982
 10
13888.074992084647
 20
-1613.5337509284982
 10
13888.076120960708
 20
-1643.5358674914696
 10
13828.076120960708
 20
-1643.5358674914696
  0
LINE
  5
115
330
17
100
AcDbEntity
  8
FP-Proposed Wall
100
AcDbLine
 10
13828.07950758889
 20
-1583.5337509284982
 30
0.0
 11
13828.07950758889
 21
-1569.5337509284982
 31
0.0
  0
LWPOLYLINE
  5
116
330
17
100
AcDbEntity
  8
FP-Furniture
100
AcDbPolyline
 90
2
 70
0
 10
13828.07950758889
 20
-1583.5337509284982
 10
13888.07950758889
 20
-1583.5337509284982
  0
LINE
  5
117
330
17
100
AcDbEntity
  8
FP-Proposed Wall
100
AcDbLine
 10
13888.07950758889
 20
-1569.5337509284982
 30
0.0
 11
13828.07950758889
 21
-1569.5337509284982
 31
0.0
  0
LINE
  5
118
330
17
100
AcDbEntity
  8
FP-Furniture
100
AcDbLine
 10
13844.74225866126
 20
-1680.5785662418853
 30
0.0
 11
13844.743342638276
 21
-1657.5331237481369
 31
0.0
  0
LWPOLYLINE
  5
119
330
17
100
AcDbEntity
  8
FP-Door
100
AcDbPolyline
 90
4
 70
0
 10
13868.62663257743
 20
-1880.077906805823
 10
13867.565972405651
 20
-1881.1385669776027
 10
13893.021816528368
 20
-1906.5944111003184
 10
13894.082476700147
 20
-1905.5337509285387
  0
LINE
  5
11A
330
17
100
AcDbEntity
  8
FP-Furniture
100
AcDbLine
 10
13871.408083447714
 20
-1680.5785662418853
 30
0.0
 11
13871.409167365735
 21
-1657.534378015272
 31
0.0
  0
LWPOLYLINE
  5
11B
330
17
100
AcDbEntity
  8
FP-Furniture
 62
8
100
AcDbPolyline
 90
4
 70
1
 10
13895.578171110625
 20
-1794.799005558411
 10
13895.578171110625
 20
-1778.426377254595
 10
13884.239710003603
 20
-1778.426377254606
 10
13884.239710003603
 20
-1794.7990055584146
  0
LWPOLYLINE
  5
11C
330
17
100
AcDbEntity
  8
FP-Furniture
 62
8
100
AcDbPolyline
 90
4
 70
1
 10
13895.578171110625
 20
-1756.4268468696087
 10
13895.578171110625
 20
-1772.7994751734245
 10
13884.239710003603
 20
-1772.7994751734136
 10
13884.239710003603
 20
-1756.426846869605
  0
LWPOLYLINE
  5
11D
330
17
100
AcDbEntity
  8
FP-Furniture
 62
8
100
AcDbPolyline
 90
4
 70
1
 10
13895.578171110661
 20
-1838.2994751734063
 10
13895.578171110661
 20
-1821.9268468695905
 10
13884.23971000364
 20
-1821.9268468696014
 10
13884.23971000364
 20
-1838.29947517341
  0
LWPOLYLINE
  5
11E
330
17
100
AcDbEntity
  8
FP-Furniture
 62
8
100
AcDbPolyline
 90
4
 70
1
 10
13895.578171110661
 20
-1816.7994751734136
 10
13895.578171110661
 20
-1800.4268468696014
 10
13884.23971000364
 20
-1800.4268468695977
 10
13884.23971000364
 20
-1816.7994751734027
  0
LWPOLYLINE
  5
11F
330
17
100
AcDbEntity
  8
FP-Furniture
 62
8
100
AcDbPolyline
 90
4
 70
1
 10
13895.578171110697
 20
-1860.299944788409
 10
13895.578171110697
 20
-1843.9273164845968
 10
13884.239710003676
 20
-1843.9273164845931
 10
13884.239710003676
 20
-1860.299944788398
  0
LWPOLYLINE
  5
120
330
17
100
AcDbEntity
  8
FP-Furniture
 62
8
100
AcDbPolyline
 90
4
 70
1
 10
13885.823590202417
 20
-1794.4308226170165
 10
13885.823590202417
 20
-1778.8572205340192
 10
13884.582320774593
 20
-1778.8572205340156
 10
13884.582320774593
 20
-1794.4308226170128
  0
LWPOLYLINE
  5
121
330
17
100
AcDbEntity
  8
FP-Furniture
 62
8
100
AcDbPolyline
 90
4
 70
1
 10
13885.823590202417
 20
-1756.7950298110031
 10
13885.823590202417
 20
-1772.3686318940004
 10
13884.582320774593
 20
-1772.368631894004
 10
13884.582320774593
 20
-1756.7950298110068
  0
LWPOLYLINE
  5
122
330
17
100
AcDbEntity
  8
FP-Furniture
 62
8
100
AcDbPolyline
 90
4
 70
1
 10
13885.823590202453
 20
-1816.43129223203
 10
13885.823590202446
 20
-1800.8576901490364
 10
13884.582320774622
 20
-1800.8576901490328
 10
13884.582320774622
 20
-1816.43129223203
  0
LWPOLYLINE
  5
123
330
17
100
AcDbEntity
  8
FP-Furniture
 62
8
100
AcDbPolyline
 90
4
 70
1
 10
13885.823590202453
 20
-1837.9312922320119
 10
13885.823590202453
 20
-1822.3576901490146
 10
13884.582320774629
 20
-1822.357690149011
 10
13884.582320774629
 20
-1837.9312922320082
  0
LWPOLYLINE
  5
124
330
17
100
AcDbEntity
  8
FP-Furniture
 62
8
100
AcDbPolyline
 90
4
 70
1
 10
13885.82359020249
 20
-1859.9317618470254
 10
13885.823590202483
 20
-1844.3581597640318
 10
13884.582320774658
 20
-1844.3581597640282
 10
13884.582320774658
 20
-1859.9317618470254
  0
LWPOLYLINE
  5
125
330
17
100
AcDbEntity
  8
FP-Furniture
 62
8
100
AcDbPolyline
 90
4
 70
0
 10
13895.578171110625
 20
-1794.5066696643285
 10
13886.491782858204
 20
-1794.5066696643285
 10
13886.491782858211
 20
-1791.7069582185345
 10
13895.578171110625
 20
-1791.7069582185454
  0
LWPOLYLINE
  5
126
330
17
100
AcDbEntity
  8
FP-Furniture
 62
8
100
AcDbPolyline
 90
4
 70
0
 10
13895.578171110625
 20
-1756.7191827636912
 10
13886.491782858204
 20
-1756.7191827636912
 10
13886.491782858211
 20
-1759.518894209485
 10
13895.578171110625
 20
-1759.5188942094742
  0
LWPOLYLINE
  5
127
330
17
100
AcDbEntity
  8
FP-Furniture
 62
8
100
AcDbPolyline
 90
4
 70
0
 10
13895.578171110625
 20
-1778.7813734867182
 10
13886.491782858211
 20
-1778.7813734867182
 10
13886.491782858218
 20
-1781.5810849324866
 10
13895.578171110625
 20
-1781.581084932494
  0
LWPOLYLINE
  5
128
330
17
100
AcDbEntity
  8
FP-Furniture
 62
8
100
AcDbPolyline
 90
4
 70
0
 10
13895.578171110625
 20
-1772.4444789413014
 10
13886.491782858211
 20
-1772.4444789413014
 10
13886.491782858218
 20
-1769.644767495533
 10
13895.578171110625
 20
-1769.6447674955257
  0
LWPOLYLINE
  5
129
330
17
100
AcDbEntity
  8
FP-Furniture
 62
8
100
AcDbPolyline
 90
4
 70
0
 10
13895.578171110661
 20
-1838.0071392793238
 10
13886.49178285824
 20
-1838.0071392793238
 10
13886.491782858247
 20
-1835.20742783353
 10
13895.578171110661
 20
-1835.2074278335408
  0
LWPOLYLINE
  5
12A
330
17
100
AcDbEntity
  8
FP-Furniture
 62
8
100
AcDbPolyline
 90
4
 70
0
 10
13895.578171110661
 20
-1816.5071392793348
 10
13886.49178285824
 20
-1816.507139279342
 10
13886.491782858247
 20
-1813.707427833559
 10
13895.578171110661
 20
-1813.7074278335554
  0
LWPOLYLINE
  5
12B
330
17
100
AcDbEntity
  8
FP-Furniture
 62
8
100
AcDbPolyline
 90
4
 70
0
 10
13895.578171110661
 20
-1822.2818431017135
 10
13886.491782858247
 20
-1822.2818431017135
 10
13886.491782858255
 20
-1825.081554547482
 10
13895.578171110661
 20
-1825.0815545474893
  0
LWPOLYLINE
  5
12C
330
17
100
AcDbEntity
  8
FP-Furniture
 62
8
100
AcDbPolyline
 90
4
 70
0
 10
13895.578171110661
 20
-1800.7818431017317
 10
13886.491782858247
 20
-1800.7818431017245
 10
13886.491782858247
 20
-1803.5815545475039
 10
13895.578171110661
 20
-1803.5815545475075
  0
LWPOLYLINE
  5
12D
330
17
100
AcDbEntity
  8
FP-Furniture
 62
8
100
AcDbPolyline
 90
4
 70
0
 10
13895.578171110697
 20
-1860.0076088943301
 10
13886.491782858277
 20
-1860.0076088943374
 10
13886.491782858284
 20
-1857.2078974485544
 10
13895.578171110697
 20
-1857.2078974485507
  0
LWPOLYLINE
  5
12E
330
17
100
AcDbEntity
  8
FP-Furniture
 62
8
100
AcDbPolyline
 90
4
 70
0
 10
13895.578171110697
 20
-1844.2823127167271
 10
13886.491782858284
 20
-1844.2823127167198
 10
13886.491782858284
 20
-1847.0820241624992
 10
13895.578171110697
 20
-1847.0820241625029
  0
LINE
  5
12F
330
17
100
AcDbEntity
  8
FP-Proposed Wall
100
AcDbLine
 10
13912.07950758889
 20
-1583.5337509284982
 30
0.0
 11
13888.07950758889
 21
-1583.5337509284982
 31
0.0
  0
LINE
  5
130
330
17
100
AcDbEntity
  8
FP-Proposed Wall
100
AcDbLine
 10
13888.07950758889
 20
-1583.5337509284982
 30
0.0
 11
13888.07950758889
 21
-1569.5337509284982
 31
0.0
  0
LINE
  5
131
330
17
100
AcDbEntity
  8
FP-Proposed Wall
100
AcDbLine
 10
13894.082476700147
 20
-1916.5337509285368
 30
0.0
 11
14002.578171110665
 21
-1916.5337509285405
 31
0.0
  0
LINE
  5
132
330
17
100
AcDbEntity
  8
FP-Proposed Wall
100
AcDbLine
 10
13894.082476700147
 20
-1905.5337509285387
 30
0.0
 11
13894.082476700147
 21
-1916.5337509285368
 31
0.0
  0
LWPOLYLINE
  5
133
330
17
100
AcDbEntity
  8
FP-Wall Detail
100
AcDbPolyline
 90
3
 70
0
 10
13999.078171110665
 20
-1617.533750928591
 10
13999.078171110665
 20
-1913.0337509285396
 10
13894.082476700147
 20
-1913.0337509285368
  0
LWPOLYLINE
  5
134
330
17
100
AcDbEntity
  8
FP-Wall Detail
100
AcDbPolyline
 90
3
 70
0
 10
13998.078171110665
 20
-1617.533750928591
 10
13998.078171110665
 20
-1912.0337509285396
 10
13894.082476700147
 20
-1912.0337509285368
  0
LWPOLYLINE
  5
135
330
17
100
AcDbEntity
  8
FP-Wall Detail
100
AcDbPolyline
 90
3
 70
0
 10
13997.578171110665
 20
-1617.533750928591
 10
13997.578171110665
 20
-1911.5337509285396
 10
13894.082476700147
 20
-1911.5337509285368
  0
LWPOLYLINE
  5
136
330
17
100
AcDbEntity
  8
FP-Wall Detail
100
AcDbPolyline
 90
2
 70
0
 10
13961.582538047467
 20
-1906.033750928536
 10
13894.082476700147
 20
-1906.033750928536
  0
LINE
  5
137
330
17
100
AcDbEntity
  8
FP-Proposed Wall
100
AcDbLine
 10
13894.082476700147
 20
-1905.5337509285387
 30
0.0
 11
13927.07817111066
 21
-1905.5337509285387
 31
0.0
  0
LWPOLYLINE
  5
138
330
17
100
AcDbEntity
  8
FP-Fixture
100
AcDbPolyline
 90
5
 70
0
 10
13895.578171110661
 20
-1753.0335161210464
 10
13931.578171110661
 20
-1753.0335161210464
 10
13931.578171110661
 20
-1864.0339857360345
 10
13895.578171110661
 20
-1864.0339857360345
 10
13895.578171110661
 20
-1753.0335161210464
  0
LINE
  5
139
330
17
100
AcDbEntity
  8
FP-Furniture
100
AcDbLine
 10
13898.074992090178
 20
-1657.5356322824073
 30
0.0
 11
13898.073908214492
 21
-1680.5789845686913
 31
0.0
  0
LINE
  5
13A
330
17
100
AcDbEntity
  8
FP-Furniture
100
AcDbLine
 10
13903.074992084648
 20
-1657.5358674649196
 30
0.0
 11
13903.07357896542
 21
-1687.5789845686868
 31
0.0
  0
LINE
  5
13B
330
17
100
AcDbEntity
  8
FP-Furniture
100
AcDbLine
 10
13935.118910970328
 20
-1610.976117959593
 30
0.0
 11
13905.071978908121
 21
-1610.9779976491004
 31
0.0
  0
LINE
  5
13C
330
17
100
AcDbEntity
  8
FP-Furniture
100
AcDbLine
 10
13905.071978908123
 20
-1610.9779976491022
 30
0.0
 11
13905.077780895204
 21
-1644.6804217274566
 31
0.0
  0
LINE
  5
13D
330
17
100
AcDbEntity
  8
FP-Furniture
100
AcDbLine
 10
13928.11953655483
 20
-1615.9765558393947
 30
0.0
 11
13905.072839675142
 21
-1615.977997605036
 31
0.0
  0
LINE
  5
13E
330
17
100
AcDbEntity
  8
FP-Furniture
100
AcDbLine
 10
13935.123127242892
 20
-1644.6747829564295
 30
0.0
 11
13905.076195651049
 21
-1644.6804220249696
 31
0.0
  0
LINE
  5
13F
330
17
100
AcDbEntity
  8
FP-Furniture
100
AcDbLine
 10
13905.076920128202
 20
-1639.680421870694
 30
0.0
 11
13928.122501948324
 21
-1639.6775384789207
 31
0.0
  0
LWPOLYLINE
  5
140
330
17
100
AcDbEntity
  8
FP-Mill
100
AcDbPolyline
 90
4
 70
1
 10
13907.578171110661
 20
-1754.0335161210464
 10
13930.578171110661
 20
-1754.0335161210464
 10
13930.578171110661
 20
-1863.0339857360345
 10
13907.578171110661
 20
-1863.0339857360345
  0
LINE
  5
141
330
17
100
AcDbEntity
  8
FP-Proposed Wall
100
AcDbLine
 10
13912.07950758889
 20
-1583.5337509284982
 30
0.0
 11
13912.07950758889
 21
-1569.5337509284982
 31
0.0
  0
LINE
  5
142
330
17
100
AcDbEntity
  8
FP-Proposed Wall
100
AcDbLine
 10
13933.828839349782
 20
-1569.53375092852
 30
0.0
 11
13912.07950758889
 21
-1569.53375092854
 31
0.0
  0
LINE
  5
143
330
17
100
AcDbEntity
  8
FP-Proposed Wall
100
AcDbLine
 10
13933.828839349775
 20
-1558.53375092852
 30
0.0
 11
13912.07950758889
 21
-1558.53375092854
 31
0.0
  0
LINE
  5
144
330
17
100
AcDbEntity
  8
FP-Proposed Wall
100
AcDbLine
 10
13912.07950758889
 20
-1558.5337509284982
 30
0.0
 11
13912.07950758889
 21
-1546.5337509284982
 31
0.0
  0
LINE
  5
145
330
17
100
AcDbEntity
  8
FP-Proposed Wall
100
AcDbLine
 10
13927.07817111066
 20
-1905.5337509285387
 30
0.0
 11
13931.57817111066
 21
-1905.5370154541556
 31
0.0
  0
LWPOLYLINE
  5
146
330
17
100
AcDbEntity
  8
FP-Proposed Wall
100
AcDbPolyline
 90
2
 70
0
 10
13927.07817111066
 20
-1905.5337509285387
 10
13927.07817111066
 20
-1905.5337509285396
  0
LINE
  5
147
330
17
100
AcDbEntity
  8
FP-Furniture
100
AcDbLine
 10
13928.11891097033
 20
-1610.9765558687454
 30
0.0
 11
13928.123127352434
 21
-1644.67609668389
 31
0.0
  0
LWPOLYLINE
  5
148
330
17
100
AcDbEntity
  8
FP-Proposed Wall
100
AcDbPolyline
 90
2
 70
0
 10
13931.57817111066
 20
-1905.5370154541556
 10
13931.57817111066
 20
-1905.5337509285396
  0
LINE
  5
149
330
17
100
AcDbEntity
  8
FP-Proposed Wall
100
AcDbLine
 10
13931.57817111066
 20
-1905.5337509285387
 30
0.0
 11
13961.08253804747
 21
-1905.5337509285405
 31
0.0
  0
LINE
  5
14A
330
17
100
AcDbEntity
  8
FP-Window
100
AcDbLine
 10
13931.828839349808
 20
-1558.5337509284752
 30
0.0
 11
13931.828839349808
 21
-1556.5337509284752
 31
0.0
  0
LINE
  5
14B
330
17
100
AcDbEntity
  8
FP-Window
100
AcDbLine
 10
13931.828839349808
 20
-1556.5337509284752
 30
0.0
 11
13971.828839349808
 21
-1556.5337509284916
 31
0.0
  0
LINE
  5
14C
330
17
100
AcDbEntity
  8
FP-Proposed Wall
100
AcDbLine
 10
13933.828839349782
 20
-1569.5337509284818
 30
0.0
 11
13933.828839349779
 21
-1558.53375092852
 31
0.0
  0
LINE
  5
14D
330
17
100
AcDbEntity
  8
FP-Window
100
AcDbLine
 10
13933.82883934978
 20
-1569.5337509284814
 30
0.0
 11
13969.82883934978
 21
-1569.5337509285578
 31
0.0
  0
LWPOLYLINE
  5
14E
330
17
100
AcDbEntity
  8
FP-Window
100
AcDbPolyline
 90
9
 70
0
 10
13933.828839349808
 20
-1559.6403583755127
 10
13934.828839349808
 20
-1559.6403583755127
 10
13934.828839349808
 20
-1562.6403583755127
 10
13935.328839349808
 20
-1562.6403583755127
 10
13935.328839349808
 20
-1563.1403583755127
 10
13934.828839349808
 20
-1563.1403583755127
 10
13934.828839349808
 20
-1565.1403583755127
 10
13933.828839349808
 20
-1565.1403583755127
 10
13933.828839349808
 20
-1559.6403583755127
  0
LINE
  5
14F
330
17
100
AcDbEntity
  8
FP-Window
100
AcDbLine
 10
13968.828839349806
 20
-1565.1403583756237
 30
0.0
 11
13934.828839349808
 21
-1565.1403583755127
 31
0.0
  0
LINE
  5
150
330
17
100
AcDbEntity
  8
FP-Window
100
AcDbLine
 10
13934.828839349808
 20
-1559.6403583755127
 30
0.0
 11
13968.828839349806
 21
-1559.6403583756237
 31
0.0
  0
LWPOLYLINE
  5
151
330
17
100
AcDbEntity
  8
FP-Window
100
AcDbPolyline
 90
4
 70
0
 10
13937.078839349808
 20
-1560.8903583755127
 10
13935.078839349808
 20
-1560.8903583755127
 10
13935.078839349808
 20
-1562.3903583755127
 10
13937.078839349808
 20
-1562.3903583755127
  0
LINE
  5
152
330
17
100
AcDbEntity
  8
FP-Furniture
100
AcDbLine
 10
13935.118910970328
 20
-1610.976117959593
 30
0.0
 11
13935.123127242854
 21
-1644.6747829564288
 31
0.0
  0
LWPOLYLINE
  5
153
330
17
100
AcDbEntity
  8
FP-Window
100
AcDbPolyline
 90
4
 70
0
 10
13936.828839349808
 20
-1562.0153583755127
 10
13966.82883934986
 20
-1562.0153583755673
 10
13966.82883934986
 20
-1561.8903583755673
 10
13936.828839349808
 20
-1561.8903583755127
  0
LINE
  5
154
330
17
100
AcDbEntity
  8
FP-Window
100
AcDbLine
 10
13936.828839349808
 20
-1561.8903583755127
 30
0.0
 11
13936.828839349808
 21
-1561.3903583755127
 31
0.0
  0
LWPOLYLINE
  5
155
330
17
100
AcDbEntity
  8
FP-Window
100
AcDbPolyline
 90
4
 70
0
 10
13936.828839349808
 20
-1561.2653583755127
 10
13966.82883934986
 20
-1561.2653583755673
 10
13966.82883934986
 20
-1561.3903583755673
 10
13936.828839349808
 20
-1561.3903583755127
  0
LINE
  5
156
330
17
100
AcDbEntity
  8
FP-Window
100
AcDbLine
 10
13937.078839349808
 20
-1562.3903583755127
 30
0.0
 11
13966.57883934986
 21
-1562.3903583755673
 31
0.0
  0
LINE
  5
157
330
17
100
AcDbEntity
  8
FP-Window
100
AcDbLine
 10
13937.078839349808
 20
-1562.3903583755127
 30
0.0
 11
13937.328839349808
 21
-1562.1403583755127
 31
0.0
  0
LINE
  5
158
330
17
100
AcDbEntity
  8
FP-Window
100
AcDbLine
 10
13937.078839349808
 20
-1560.8903583755127
 30
0.0
 11
13937.328839349808
 21
-1561.1403583755127
 31
0.0
  0
LINE
  5
159
330
17
100
AcDbEntity
  8
FP-Window
100
AcDbLine
 10
13966.57883934986
 20
-1560.8903583755673
 30
0.0
 11
13937.078839349808
 21
-1560.8903583755127
 31
0.0
  0
LINE
  5
15A
330
17
100
AcDbEntity
  8
FP-Window
100
AcDbLine
 10
13937.328839349808
 20
-1562.0153583755127
 30
0.0
 11
13937.328839349808
 21
-1562.1403583755127
 31
0.0
  0
LINE
  5
15B
330
17
100
AcDbEntity
  8
FP-Window
100
AcDbLine
 10
13937.328839349808
 20
-1561.1403583755127
 30
0.0
 11
13937.328839349808
 21
-1561.2653583755127
 31
0.0
  0
LINE
  5
15C
330
17
100
AcDbEntity
  8
FP-Proposed Wall
100
AcDbLine
 10
13961.08253804747
 20
-1905.5337509285405
 30
0.0
 11
13991.578171110665
 21
-1905.5337509285405
 31
0.0
  0
LWPOLYLINE
  5
15D
330
17
100
AcDbEntity
  8
FP-Wall Detail
100
AcDbPolyline
 90
3
 70
0
 10
13992.078171110665
 20
-1617.533750928591
 10
13992.078171110665
 20
-1906.0337509285396
 10
13961.582538047467
 20
-1906.033750928536
  0
LINE
  5
15E
330
17
100
AcDbEntity
  8
FP-Window
100
AcDbLine
 10
13966.578839349806
 20
-1562.3903583755127
 30
0.0
 11
13966.328839349806
 21
-1562.1403583755127
 31
0.0
  0
LINE
  5
15F
330
17
100
AcDbEntity
  8
FP-Window
100
AcDbLine
 10
13966.328839349806
 20
-1562.0153583755127
 30
0.0
 11
13966.328839349806
 21
-1562.1403583755127
 31
0.0
  0
LINE
  5
160
330
17
100
AcDbEntity
  8
FP-Window
100
AcDbLine
 10
13966.328839349806
 20
-1561.1403583755127
 30
0.0
 11
13966.328839349806
 21
-1561.2653583755127
 31
0.0
  0
LINE
  5
161
330
17
100
AcDbEntity
  8
FP-Window
100
AcDbLine
 10
13966.578839349806
 20
-1560.8903583755127
 30
0.0
 11
13966.328839349806
 21
-1561.1403583755127
 31
0.0
  0
LWPOLYLINE
  5
162
330
17
100
AcDbEntity
  8
FP-Window
100
AcDbPolyline
 90
4
 70
0
 10
13966.578839349806
 20
-1560.8903583755127
 10
13968.578839349806
 20
-1560.8903583755127
 10
13968.578839349806
 20
-1562.3903583755127
 10
13966.578839349806
 20
-1562.3903583755127
  0
LINE
  5
163
330
17
100
AcDbEntity
  8
FP-Window
100
AcDbLine
 10
13966.828839349806
 20
-1561.8903583755127
 30
0.0
 11
13966.828839349806
 21
-1561.3903583755127
 31
0.0
  0
LWPOLYLINE
  5
164
330
17
100
AcDbEntity
  8
FP-Fixture
100
AcDbPolyline
 90
2
 70
0
 10
13967.578171110665
 20
-1905.5337509285405
 10
13967.578171110661
 20
-1711.53375092854
  0
LINE
  5
165
330
17
100
AcDbEntity
  8
FP-Fixture
100
AcDbLine
 10
13967.578171110665
 20
-1712.53375092854
 30
0.0
 11
13991.578171110665
 21
-1712.53375092854
 31
0.0
  0
LINE
  5
166
330
17
100
AcDbEntity
  8
FP-Fixture
100
AcDbLine
 10
13967.578171110665
 20
-1711.53375092854
 30
0.0
 11
13991.578171110665
 21
-1711.53375092854
 31
0.0
  0
LWPOLYLINE
  5
167
330
17
100
AcDbEntity
  8
FP-Window
100
AcDbPolyline
 90
9
 70
0
 10
13969.828839349806
 20
-1559.6403583755127
 10
13968.828839349806
 20
-1559.6403583755127
 10
13968.828839349806
 20
-1562.6403583755127
 10
13968.328839349806
 20
-1562.6403583755127
 10
13968.328839349806
 20
-1563.1403583755127
 10
13968.828839349806
 20
-1563.1403583755127
 10
13968.828839349806
 20
-1565.1403583755127
 10
13969.828839349806
 20
-1565.1403583755127
 10
13969.828839349806
 20
-1559.6403583755127
  0
LWPOLYLINE
  5
168
330
17
100
AcDbEntity
  8
FP-Mill
100
AcDbPolyline
 90
2
 70
0
 10
13968.578171110661
 20
-1905.5337509285405
 10
13968.578171110661
 20
-1712.53375092854
  0
LWPOLYLINE
  5
169
330
17
100
AcDbEntity
  8
FP-Wall Detail
100
AcDbPolyline
 90
3
 70
0
 10
13969.828839349779
 20
-1562.0337509285255
 10
13999.078171110665
 20
-1562.0337509285382
 10
13999.078171110665
 20
-1581.5337509285928
  0
LWPOLYLINE
  5
16A
330
17
100
AcDbEntity
  8
FP-Wall Detail
100
AcDbPolyline
 90
3
 70
0
 10
13969.828839349779
 20
-1563.0337509285255
 10
13998.078171110665
 20
-1563.0337509285382
 10
13998.078171110665
 20
-1581.5337509285928
  0
LWPOLYLINE
  5
16B
330
17
100
AcDbEntity
  8
FP-Wall Detail
100
AcDbPolyline
 90
3
 70
0
 10
13969.828839349779
 20
-1563.5337509285255
 10
13997.578171110665
 20
-1563.5337509285382
 10
13997.578171110665
 20
-1581.5337509285928
  0
LWPOLYLINE
  5
16C
330
17
100
AcDbEntity
  8
FP-Wall Detail
100
AcDbPolyline
 90
3
 70
0
 10
13969.828839349779
 20
-1569.0337509285255
 10
13992.078171110665
 20
-1569.0337509285346
 10
13992.078171110665
 20
-1581.5337509285928
  0
LINE
  5
16D
330
17
100
AcDbEntity
  8
FP-Proposed Wall
100
AcDbLine
 10
13969.828839349779
 20
-1569.5337509284818
 30
0.0
 11
13969.828839349779
 21
-1558.53375092852
 31
0.0
  0
LINE
  5
16E
330
17
100
AcDbEntity
  8
FP-Window
100
AcDbLine
 10
13969.82883934978
 20
-1569.5337509284814
 30
0.0
 11
13969.82883934978
 21
-1569.5337509285578
 31
0.0
  0
LINE
  5
16F
330
17
100
AcDbEntity
  8
FP-Proposed Wall
100
AcDbLine
 10
13991.578171110665
 20
-1569.53375092854
 30
0.0
 11
13969.828839349782
 21
-1569.53375092852
 31
0.0
  0
LINE
  5
170
330
17
100
AcDbEntity
  8
FP-Proposed Wall
100
AcDbLine
 10
14002.578171110665
 20
-1558.53375092854
 30
0.0
 11
13969.828839349782
 21
-1558.53375092852
 31
0.0
  0
LWPOLYLINE
  5
171
330
17
100
AcDbEntity
  8
FP-Furniture
100
AcDbPolyline
 90
4
 70
1
 10
13971.578171110663
 20
-1795.5337509285405
 10
13971.578171110663
 20
-1821.5337509285405
 10
13989.578171110663
 20
-1821.5337509285405
 10
13989.578171110663
 20
-1795.5337509285405
  0
LINE
  5
172
330
17
100
AcDbEntity
  8
FP-Window
100
AcDbLine
 10
13971.828839349808
 20
-1556.5337509284916
 30
0.0
 11
13971.828839349808
 21
-1558.5337509284916
 31
0.0
  0
LWPOLYLINE
  5
173
330
17
100
AcDbEntity
  8
FP-Furniture
100
AcDbPolyline
 90
4
 70
1
 10
13972.578171110663
 20
-1796.5337509285405
 10
13972.578171110663
 20
-1820.5337509285405
 10
13988.578171110663
 20
-1820.5337509285405
 10
13988.578171110663
 20
-1796.5337509285405
  0
LINE
  5
174
330
17
100
AcDbEntity
  8
FP-Furniture
100
AcDbLine
 10
13972.578171110663
 20
-1796.5337509285405
 30
0.41353464330244805
 11
13988.578171110663
 21
-1820.5337509285405
 31
0.41353464330244805
  0
LINE
  5
175
330
17
100
AcDbEntity
  8
FP-Furniture
100
AcDbLine
 10
13988.578171110663
 20
-1796.5337509285405
 30
0.41353464330244805
 11
13972.578171110663
 21
-1820.5337509285405
 31
0.41353464330244805
  0
LWPOLYLINE
  5
176
330
17
100
AcDbEntity
  8
FP-Mill
100
AcDbPolyline
 90
2
 70
0
 10
13979.578171110661
 20
-1905.5337509285405
 10
13979.578171110661
 20
-1712.53375092854
  0
LINE
  5
177
330
17
100
AcDbEntity
  8
FP-Proposed Wall
100
AcDbLine
 10
13991.578171110665
 20
-1905.5337509285405
 30
0.0
 11
13991.578171110634
 21
-1845.5337509285405
 31
0.0
  0
LWPOLYLINE
  5
178
330
17
100
AcDbEntity
  8
FP-Proposed Wall
100
AcDbPolyline
 90
3
 70
0
 10
13991.578171110634
 20
-1845.5337509285405
 10
13991.578171110634
 20
-1845.5337509285405
 10
13991.578171110665
 20
-1837.5337509285405
  0
LINE
  5
179
330
17
100
AcDbEntity
  8
FP-Window
100
AcDbLine
 10
13991.578171110721
 20
-1617.533750928592
 30
0.0
 11
13991.578171110647
 21
-1581.5337509285932
 31
0.0
  0
LINE
  5
17A
330
17
100
AcDbEntity
  8
FP-Window
100
AcDbLine
 10
13991.578171110723
 20
-1581.5337509285928
 30
0.0
 11
13991.578171110647
 21
-1581.5337509285932
 31
0.0
  0
LINE
  5
17B
330
17
100
AcDbEntity
  8
FP-Proposed Wall
100
AcDbLine
 10
13991.578171110665
 20
-1837.5337509285405
 30
0.0
 11
13991.578171110665
 21
-1712.53375092854
 31
0.0
  0
LINE
  5
17C
330
17
100
AcDbEntity
  8
FP-Proposed Wall
100
AcDbLine
 10
13991.578171110665
 20
-1712.53375092854
 30
0.0
 11
13991.578171110665
 21
-1617.533750928591
 31
0.0
  0
LINE
  5
17D
330
17
100
AcDbEntity
  8
FP-Proposed Wall
100
AcDbLine
 10
13991.578171110665
 20
-1581.5337509285928
 30
0.0
 11
13991.578171110665
 21
-1569.53375092854
 31
0.0
  0
LWPOLYLINE
  5
17E
330
17
100
AcDbEntity
  8
FP-Proposed Wall
100
AcDbPolyline
 90
2
 70
0
 10
13991.578171110721
 20
-1617.533750928591
 10
14002.578171110641
 20
-1617.533750928591
  0
LWPOLYLINE
  5
17F
330
17
100
AcDbEntity
  8
FP-Proposed Wall
100
AcDbPolyline
 90
2
 70
0
 10
13991.578171110723
 20
-1581.5337509285928
 10
14002.578171110637
 20
-1581.5337509285928
  0
LINE
  5
180
330
17
100
AcDbEntity
  8
FP-Window
100
AcDbLine
 10
13995.971563663581
 20
-1582.5337509285666
 30
0.0
 11
13995.97156366369
 21
-1616.5337509285655
 31
0.0
  0
LWPOLYLINE
  5
181
330
17
100
AcDbEntity
  8
FP-Window
100
AcDbPolyline
 90
9
 70
0
 10
14001.47156366369
 20
-1617.5337509285657
 10
14001.47156366369
 20
-1616.5337509285657
 10
13998.47156366369
 20
-1616.5337509285655
 10
13998.47156366369
 20
-1616.0337509285655
 10
13997.97156366369
 20
-1616.0337509285655
 10
13997.97156366369
 20
-1616.5337509285655
 10
13995.97156366369
 20
-1616.5337509285655
 10
13995.97156366369
 20
-1617.5337509285655
 10
14001.47156366369
 20
-1617.5337509285657
  0
LWPOLYLINE
  5
182
330
17
100
AcDbEntity
  8
FP-Window
100
AcDbPolyline
 90
9
 70
0
 10
14001.471563663692
 20
-1581.5337509285666
 10
14001.471563663692
 20
-1582.5337509285666
 10
13998.471563663692
 20
-1582.5337509285666
 10
13998.471563663692
 20
-1583.0337509285666
 10
13997.971563663692
 20
-1583.0337509285666
 10
13997.971563663692
 20
-1582.5337509285666
 10
13995.971563663692
 20
-1582.5337509285666
 10
13995.971563663692
 20
-1581.5337509285666
 10
14001.471563663692
 20
-1581.5337509285666
  0
LINE
  5
183
330
17
100
AcDbEntity
  8
FP-Window
100
AcDbLine
 10
13998.72156366369
 20
-1614.2837509285657
 30
0.0
 11
13998.721563663637
 21
-1584.783750928512
 31
0.0
  0
LWPOLYLINE
  5
184
330
17
100
AcDbEntity
  8
FP-Window
100
AcDbPolyline
 90
4
 70
0
 10
14000.22156366369
 20
-1614.2837509285657
 10
14000.22156366369
 20
-1616.2837509285657
 10
13998.72156366369
 20
-1616.2837509285657
 10
13998.72156366369
 20
-1614.2837509285657
  0
LINE
  5
185
330
17
100
AcDbEntity
  8
FP-Window
100
AcDbLine
 10
13998.72156366369
 20
-1614.2837509285657
 30
0.0
 11
13998.97156366369
 21
-1614.0337509285657
 31
0.0
  0
LINE
  5
186
330
17
100
AcDbEntity
  8
FP-Window
100
AcDbLine
 10
13998.721563663692
 20
-1584.7837509285666
 30
0.0
 11
13998.971563663692
 21
-1585.0337509285666
 31
0.0
  0
LWPOLYLINE
  5
187
330
17
100
AcDbEntity
  8
FP-Window
100
AcDbPolyline
 90
4
 70
0
 10
14000.221563663692
 20
-1584.7837509285666
 10
14000.221563663692
 20
-1582.7837509285666
 10
13998.721563663692
 20
-1582.7837509285666
 10
13998.721563663692
 20
-1584.7837509285666
  0
LINE
  5
188
330
17
100
AcDbEntity
  8
FP-Window
100
AcDbLine
 10
13999.09656366369
 20
-1614.0337509285657
 30
0.0
 11
13998.97156366369
 21
-1614.0337509285657
 31
0.0
  0
LINE
  5
189
330
17
100
AcDbEntity
  8
FP-Window
100
AcDbLine
 10
13999.096563663692
 20
-1585.0337509285666
 30
0.0
 11
13998.971563663692
 21
-1585.0337509285666
 31
0.0
  0
LWPOLYLINE
  5
18A
330
17
100
AcDbEntity
  8
FP-Window
100
AcDbPolyline
 90
4
 70
0
 10
13999.09656366369
 20
-1614.5337509285657
 10
13999.096563663637
 20
-1584.533750928512
 10
13999.221563663637
 20
-1584.533750928512
 10
13999.22156366369
 20
-1614.5337509285657
  0
LINE
  5
18B
330
17
100
AcDbEntity
  8
FP-Window
100
AcDbLine
 10
13999.22156366369
 20
-1614.5337509285657
 30
0.0
 11
13999.72156366369
 21
-1614.5337509285657
 31
0.0
  0
LINE
  5
18C
330
17
100
AcDbEntity
  8
FP-Window
100
AcDbLine
 10
13999.221563663692
 20
-1584.5337509285666
 30
0.0
 11
13999.721563663692
 21
-1584.5337509285666
 31
0.0
  0
LWPOLYLINE
  5
18D
330
17
100
AcDbEntity
  8
FP-Window
100
AcDbPolyline
 90
4
 70
0
 10
13999.84656366369
 20
-1614.5337509285657
 10
13999.846563663637
 20
-1584.533750928512
 10
13999.721563663637
 20
-1584.533750928512
 10
13999.72156366369
 20
-1614.5337509285657
  0
LINE
  5
18E
330
17
100
AcDbEntity
  8
FP-Window
100
AcDbLine
 10
13999.97156366369
 20
-1614.0337509285657
 30
0.0
 11
13999.84656366369
 21
-1614.0337509285657
 31
0.0
  0
LINE
  5
18F
330
17
100
AcDbEntity
  8
FP-Window
100
AcDbLine
 10
13999.971563663692
 20
-1585.0337509285666
 30
0.0
 11
13999.846563663692
 21
-1585.0337509285666
 31
0.0
  0
LINE
  5
190
330
17
100
AcDbEntity
  8
FP-Window
100
AcDbLine
 10
14000.22156366369
 20
-1614.2837509285657
 30
0.0
 11
13999.97156366369
 21
-1614.0337509285657
 31
0.0
  0
LINE
  5
191
330
17
100
AcDbEntity
  8
FP-Window
100
AcDbLine
 10
14000.221563663692
 20
-1584.7837509285666
 30
0.0
 11
13999.971563663692
 21
-1585.0337509285666
 31
0.0
  0
LINE
  5
192
330
17
100
AcDbEntity
  8
FP-Window
100
AcDbLine
 10
14000.221563663637
 20
-1584.783750928512
 30
0.0
 11
14000.22156366369
 21
-1614.2837509285657
 31
0.0
  0
LINE
  5
193
330
17
100
AcDbEntity
  8
FP-Window
100
AcDbLine
 10
14001.47156366369
 20
-1616.5337509285657
 30
0.0
 11
14001.471563663581
 21
-1582.5337509285666
 31
0.0
  0
LINE
  5
194
330
17
100
AcDbEntity
  8
FP-Proposed Wall
100
AcDbLine
 10
14002.57817111063
 20
-1845.5337509285405
 30
0.0
 11
14002.578171110657
 21
-1844.5337509285423
 31
0.0
  0
LINE
  5
195
330
17
100
AcDbEntity
  8
FP-Proposed Wall
100
AcDbLine
 10
14002.578171110665
 20
-1916.5337509285405
 30
0.0
 11
14002.578171110634
 21
-1845.5337509285396
 31
0.0
  0
LINE
  5
196
330
17
100
AcDbEntity
  8
FP-Proposed Wall
100
AcDbLine
 10
14002.578171110637
 20
-1581.5337509285928
 30
0.0
 11
14002.578171110636
 21
-1558.53375092854
 31
0.0
  0
LINE
  5
197
330
17
100
AcDbEntity
  8
FP-Proposed Wall
100
AcDbLine
 10
14002.578171110643
 20
-1695.53375092854
 30
0.0
 11
14002.578171110641
 21
-1617.533750928591
 31
0.0
  0
LINE
  5
198
330
17
100
AcDbEntity
  8
FP-Proposed Wall
100
AcDbLine
 10
14002.578171110643
 20
-1695.53375092854
 30
0.0
 11
14002.578171110665
 21
-1695.53375092854
 31
0.0
  0
LINE
  5
199
330
17
100
AcDbEntity
  8
FP-Proposed Wall
100
AcDbLine
 10
14002.578171110661
 20
-1844.5337509285405
 30
0.0
 11
14002.578171110665
 21
-1844.5337509285405
 31
0.0
  0
LINE
  5
19A
330
17
100
AcDbEntity
  8
FP-Proposed Wall
100
AcDbLine
 10
14002.578171110665
 20
-1844.5337509285405
 30
0.0
 11
14002.578171110665
 21
-1695.53375092854
 31
0.0
  0
ENDSEC
  0
SECTION
  2
OBJECTS
  0
DICTIONARY
  5
A
330
0
100
AcDbDictionary
280
0
281
1
  3
ACAD_COLOR
350
B
  3
ACAD_GROUP
350
C
  3
ACAD_LAYOUT
350
D
  3
ACAD_MATERIAL
350
E
  3
ACAD_MLEADERSTYLE
350
F
  3
ACAD_MLINESTYLE
350
10
  3
ACAD_PLOTSETTINGS
350
11
  3
ACAD_PLOTSTYLENAME
350
12
  3
ACAD_SCALELIST
350
14
  3
ACAD_TABLESTYLE
350
15
  3
ACAD_VISUALSTYLE
350
16
  3
EZDXF_META
350
2D
  0
DICTIONARY
  5
B
330
A
100
AcDbDictionary
280
0
281
1
  0
DICTIONARY
  5
C
330
A
100
AcDbDictionary
280
0
281
1
  0
DICTIONARY
  5
D
330
A
100
AcDbDictionary
280
0
281
1
  3
Model
350
1A
  3
Layout1
350
1E
  0
DICTIONARY
  5
E
330
A
100
AcDbDictionary
280
0
281
1
  3
ByBlock
350
1F
  3
ByLayer
350
20
  3
Global
350
21
  0
DICTIONARY
  5
F
330
A
100
AcDbDictionary
280
0
281
1
  3
Standard
350
2C
  0
DICTIONARY
  5
10
330
A
100
AcDbDictionary
280
0
281
1
  3
Standard
350
22
  0
DICTIONARY
  5
11
330
A
100
AcDbDictionary
280
0
281
1
  0
ACDBDICTIONARYWDFLT
  5
12
330
A
100
AcDbDictionary
280
0
281
1
  3
Normal
350
13
100
AcDbDictionaryWithDefault
340
13
  0
ACDBPLACEHOLDER
  5
13
330
12
  0
DICTIONARY
  5
14
330
A
100
AcDbDictionary
280
0
281
1
  0
DICTIONARY
  5
15
330
A
100
AcDbDictionary
280
0
281
1
  0
DICTIONARY
  5
16
330
A
100
AcDbDictionary
280
0
281
1
  0
LAYOUT
  5
1A
330
D
100
AcDbPlotSettings
  1

  2
Adobe PDF
  4
A3
  6

 40
7.5
 41
20.0
 42
7.5
 43
20.0
 44
420.0
 45
297.0
 46
0.0
 47
0.0
 48
0.0
 49
0.0
140
0.0
141
0.0
142
1.0
143
1.0
 70
1024
 72
1
 73
0
 74
5
  7

 75
16
 76
0
 77
2
 78
300
147
1.0
148
0.0
149
0.0
100
AcDbLayout
  1
Model
 70
1
 71
0
 10
0.0
 20
0.0
 11
420.0
 21
297.0
 12
0.0
 22
0.0
 32
0.0
 14
1e+20
 24
1e+20
 34
1e+20
 15
-1e+20
 25
-1e+20
 35
-1e+20
146
0.0
 13
0.0
 23
0.0
 33
0.0
 16
1.0
 26
0.0
 36
0.0
 17
0.0
 27
1.0
 37
0.0
 76
1
330
17
  0
LAYOUT
  5
1E
330
D
100
AcDbPlotSettings
  1

  2
Adobe PDF
  4
A3
  6

 40
7.5
 41
20.0
 42
7.5
 43
20.0
 44
420.0
 45
297.0
 46
0.0
 47
0.0
 48
0.0
 49
0.0
140
0.0
141
0.0
142
1.0
143
1.0
 70
0
 72
1
 73
0
 74
5
  7

 75
16
 76
0
 77
2
 78
300
147
1.0
148
0.0
149
0.0
100
AcDbLayout
  1
Layout1
 70
1
 71
1
 10
0.0
 20
0.0
 11
420.0
 21
297.0
 12
0.0
 22
0.0
 32
0.0
 14
1e+20
 24
1e+20
 34
1e+20
 15
-1e+20
 25
-1e+20
 35
-1e+20
146
0.0
 13
0.0
 23
0.0
 33
0.0
 16
1.0
 26
0.0
 36
0.0
 17
0.0
 27
1.0
 37
0.0
 76
1
330
1B
  0
MATERIAL
  5
1F
102
{ACAD_REACTORS
330
E
102
}
330
E
100
AcDbMaterial
  1
ByBlock
  2

 70
0
 40
1.0
 71
1
 41
1.0
 91
-1023410177
 42
1.0
 72
1
  3

 73
1
 74
1
 75
1
 44
0.5
 73
0
 45
1.0
 46
1.0
 77
1
  4

 78
1
 79
1
170
1
 48
1.0
171
1
  6

172
1
173
1
174
1
140
1.0
141
1.0
175
1
  7

176
1
177
1
178
1
143
1.0
179
1
  8

270
1
271
1
272
1
145
1.0
146
1.0
273
1
  9

274
1
275
1
276
1
 42
1.0
 72
1
  3

 73
1
 74
1
 75
1
 94
63
  0
MATERIAL
  5
20
102
{ACAD_REACTORS
330
E
102
}
330
E
100
AcDbMaterial
  1
ByLayer
  2

 70
0
 40
1.0
 71
1
 41
1.0
 91
-1023410177
 42
1.0
 72
1
  3

 73
1
 74
1
 75
1
 44
0.5
 73
0
 45
1.0
 46
1.0
 77
1
  4

 78
1
 79
1
170
1
 48
1.0
171
1
  6

172
1
173
1
174
1
140
1.0
141
1.0
175
1
  7

176
1
177
1
178
1
143
1.0
179
1
  8

270
1
271
1
272
1
145
1.0
146
1.0
273
1
  9

274
1
275
1
276
1
 42
1.0
 72
1
  3

 73
1
 74
1
 75
1
 94
63
  0
MATERIAL
  5
21
102
{ACAD_REACTORS
330
E
102
}
330
E
100
AcDbMaterial
  1
Global
  2

 70
0
 40
1.0
 71
1
 41
1.0
 91
-1023410177
 42
1.0
 72
1
  3

 73
1
 74
1
 75
1
 44
0.5
 73
0
 45
1.0
 46
1.0
 77
1
  4

 78
1
 79
1
170
1
 48
1.0
171
1
  6

172
1
173
1
174
1
140
1.0
141
1.0
175
1
  7

176
1
177
1
178
1
143
1.0
179
1
  8

270
1
271
1
272
1
145
1.0
146
1.0
273
1
  9

274
1
275
1
276
1
 42
1.0
 72
1
  3

 73
1
 74
1
 75
1
 94
63
  0
MLINESTYLE
  5
22
102
{ACAD_REACTORS
330
10
102
}
330
10
100
AcDbMlineStyle
  2
Standard
 70
0
  3

 62
256
 51
90.0
 52
90.0
 71
2
 49
0.5
 62
256
  6
BYLAYER
 49
-0.5
 62
256
  6
BYLAYER
  0
MLEADERSTYLE
  5
2C
102
{ACAD_REACTORS
330
F
102
}
330
F
100
AcDbMLeaderStyle
179
2
170
2
171
1
172
0
 90
2
 40
0.0
 41
0.0
173
1
 91
-1056964608
 92
-2
290
1
 42
2.0
291
1
 43
8.0
  3
Standard
 44
4.0
300

342
29
174
1
175
1
176
0
178
1
 93
-1056964608
 45
4.0
292
0
297
0
 46
4.0
 94
-1056964608
 47
1.0
 49
1.0
140
1.0
294
1
141
0.0
177
0
142
1.0
295
0
296
0
143
3.75
271
0
272
9
273
9
  0
DICTIONARY
  5
2D
330
A
100
AcDbDictionary
281
1
  3
CREATED_BY_EZDXF
350
2E
  3
WRITTEN_BY_EZDXF
350
19D
  0
DICTIONARYVAR
  5
2E
330
2D
100
DictionaryVariables
280
0
  1
1.1.4 @ 2024-01-08T21:29:28.456100+00:00
  0
DICTIONARYVAR
  5
19D
330
2D
100
DictionaryVariables
280
0
  1
1.1.4 @ 2024-01-08T21:29:28.456100+00:00
  0
ENDSEC
  0
EOF
