  0
SECTION
  2
HEADER
  9
$ACADVER
  1
AC1027
  9
$ACADMAINTVER
 70
105
  9
$DWGCODEPAGE
  3
ANSI_1252
  9
$LASTSAVEDBY
  1
ezdxf
  9
$REQUIREDVERSIONS
160
0
  9
$INSBASE
 10
0.0
 20
0.0
 30
0.0
  9
$EXTMIN
 10
1e+20
 20
1e+20
 30
1e+20
  9
$EXTMAX
 10
-1e+20
 20
-1e+20
 30
-1e+20
  9
$LIMMIN
 10
0.0
 20
0.0
  9
$LIMMAX
 10
420.0
 20
297.0
  9
$ORTHOMODE
 70
0
  9
$REGENMODE
 70
1
  9
$FILLMODE
 70
1
  9
$QTEXTMODE
 70
0
  9
$MIRRTEXT
 70
1
  9
$LTSCALE
 40
1.0
  9
$ATTMODE
 70
1
  9
$TEXTSIZE
 40
2.5
  9
$TRACEWID
 40
1.0
  9
$TEXTSTYLE
  7
Standard
  9
$CLAYER
  8
0
  9
$CELTYPE
  6
ByLayer
  9
$CECOLOR
 62
256
  9
$CELTSCALE
 40
1.0
  9
$DISPSILH
 70
0
  9
$DIMSCALE
 40
1.0
  9
$DIMASZ
 40
2.5
  9
$DIMEXO
 40
0.625
  9
$DIMDLI
 40
3.75
  9
$DIMRND
 40
0.0
  9
$DIMDLE
 40
0.0
  9
$DIMEXE
 40
1.25
  9
$DIMTP
 40
0.0
  9
$DIMTM
 40
0.0
  9
$DIMTXT
 40
2.5
  9
$DIMCEN
 40
2.5
  9
$DIMTSZ
 40
0.0
  9
$DIMTOL
 70
0
  9
$DIMLIM
 70
0
  9
$DIMTIH
 70
0
  9
$DIMTOH
 70
0
  9
$DIMSE1
 70
0
  9
$DIMSE2
 70
0
  9
$DIMTAD
 70
1
  9
$DIMZIN
 70
8
  9
$DIMBLK
  1

  9
$DIMASO
 70
1
  9
$DIMSHO
 70
1
  9
$DIMPOST
  1

  9
$DIMAPOST
  1

  9
$DIMALT
 70
0
  9
$DIMALTD
 70
3
  9
$DIMALTF
 40
0.03937007874
  9
$DIMLFAC
 40
1.0
  9
$DIMTOFL
 70
1
  9
$DIMTVP
 40
0.0
  9
$DIMTIX
 70
0
  9
$DIMSOXD
 70
0
  9
$DIMSAH
 70
0
  9
$DIMBLK1
  1

  9
$DIMBLK2
  1

  9
$DIMSTYLE
  2
ISO-25
  9
$DIMCLRD
 70
0
  9
$DIMCLRE
 70
0
  9
$DIMCLRT
 70
0
  9
$DIMTFAC
 40
1.0
  9
$DIMGAP
 40
0.625
  9
$DIMJUST
 70
0
  9
$DIMSD1
 70
0
  9
$DIMSD2
 70
0
  9
$DIMTOLJ
 70
0
  9
$DIMTZIN
 70
8
  9
$DIMALTZ
 70
0
  9
$DIMALTTZ
 70
0
  9
$DIMUPT
 70
0
  9
$DIMDEC
 70
2
  9
$DIMTDEC
 70
2
  9
$DIMALTU
 70
2
  9
$DIMALTTD
 70
3
  9
$DIMTXSTY
  7
Standard
  9
$DIMAUNIT
 70
0
  9
$DIMADEC
 70
0
  9
$DIMALTRND
 40
0.0
  9
$DIMAZIN
 70
0
  9
$DIMDSEP
 70
44
  9
$DIMATFIT
 70
3
  9
$DIMFRAC
 70
0
  9
$DIMLDRBLK
  1

  9
$DIMLUNIT
 70
2
  9
$DIMLWD
 70
-2
  9
$DIMLWE
 70
-2
  9
$DIMTMOVE
 70
0
  9
$DIMFXL
 40
1.0
  9
$DIMFXLON
 70
0
  9
$DIMJOGANG
 40
0.785398163397
  9
$DIMTFILL
 70
0
  9
$DIMTFILLCLR
 70
0
  9
$DIMARCSYM
 70
0
  9
$DIMLTYPE
  6

  9
$DIMLTEX1
  6

  9
$DIMLTEX2
  6

  9
$DIMTXTDIRECTION
 70
0
  9
$LUNITS
 70
2
  9
$LUPREC
 70
4
  9
$SKETCHINC
 40
1.0
  9
$FILLETRAD
 40
10.0
  9
$AUNITS
 70
0
  9
$AUPREC
 70
2
  9
$MENU
  1
.
  9
$ELEVATION
 40
0.0
  9
$PELEVATION
 40
0.0
  9
$THICKNESS
 40
0.0
  9
$LIMCHECK
 70
0
  9
$CHAMFERA
 40
0.0
  9
$CHAMFERB
 40
0.0
  9
$CHAMFERC
 40
0.0
  9
$CHAMFERD
 40
0.0
  9
$SKPOLY
 70
0
  9
$TDCREATE
 40
2460333.8168171295
  9
$TDUCREATE
 40
2458532.153996898
  9
$TDUPDATE
 40
2460333.8168171295
  9
$TDUUPDATE
 40
2458532.1544311
  9
$TDINDWG
 40
0.0
  9
$TDUSRTIMER
 40
0.0
  9
$USRTIMER
 70
1
  9
$ANGBASE
 50
0.0
  9
$ANGDIR
 70
0
  9
$PDMODE
 70
0
  9
$PDSIZE
 40
0.0
  9
$PLINEWID
 40
0.0
  9
$SPLFRAME
 70
0
  9
$SPLINETYPE
 70
6
  9
$SPLINESEGS
 70
8
  9
$HANDSEED
  5
DE
  9
$SURFTAB1
 70
6
  9
$SURFTAB2
 70
6
  9
$SURFTYPE
 70
6
  9
$SURFU
 70
6
  9
$SURFV
 70
6
  9
$UCSBASE
  2

  9
$UCSNAME
  2

  9
$UCSORG
 10
0.0
 20
0.0
 30
0.0
  9
$UCSXDIR
 10
1.0
 20
0.0
 30
0.0
  9
$UCSYDIR
 10
0.0
 20
1.0
 30
0.0
  9
$UCSORTHOREF
  2

  9
$UCSORTHOVIEW
 70
0
  9
$UCSORGTOP
 10
0.0
 20
0.0
 30
0.0
  9
$UCSORGBOTTOM
 10
0.0
 20
0.0
 30
0.0
  9
$UCSORGLEFT
 10
0.0
 20
0.0
 30
0.0
  9
$UCSORGRIGHT
 10
0.0
 20
0.0
 30
0.0
  9
$UCSORGFRONT
 10
0.0
 20
0.0
 30
0.0
  9
$UCSORGBACK
 10
0.0
 20
0.0
 30
0.0
  9
$PUCSBASE
  2

  9
$PUCSNAME
  2

  9
$PUCSORG
 10
0.0
 20
0.0
 30
0.0
  9
$PUCSXDIR
 10
1.0
 20
0.0
 30
0.0
  9
$PUCSYDIR
 10
0.0
 20
1.0
 30
0.0
  9
$PUCSORTHOREF
  2

  9
$PUCSORTHOVIEW
 70
0
  9
$PUCSORGTOP
 10
0.0
 20
0.0
 30
0.0
  9
$PUCSORGBOTTOM
 10
0.0
 20
0.0
 30
0.0
  9
$PUCSORGLEFT
 10
0.0
 20
0.0
 30
0.0
  9
$PUCSORGRIGHT
 10
0.0
 20
0.0
 30
0.0
  9
$PUCSORGFRONT
 10
0.0
 20
0.0
 30
0.0
  9
$PUCSORGBACK
 10
0.0
 20
0.0
 30
0.0
  9
$USERI1
 70
0
  9
$USERI2
 70
0
  9
$USERI3
 70
0
  9
$USERI4
 70
0
  9
$USERI5
 70
0
  9
$USERR1
 40
0.0
  9
$USERR2
 40
0.0
  9
$USERR3
 40
0.0
  9
$USERR4
 40
0.0
  9
$USERR5
 40
0.0
  9
$WORLDVIEW
 70
1
  9
$SHADEDGE
 70
3
  9
$SHADEDIF
 70
70
  9
$TILEMODE
 70
1
  9
$MAXACTVP
 70
64
  9
$PINSBASE
 10
0.0
 20
0.0
 30
0.0
  9
$PLIMCHECK
 70
0
  9
$PEXTMIN
 10
1e+20
 20
1e+20
 30
1e+20
  9
$PEXTMAX
 10
-1e+20
 20
-1e+20
 30
-1e+20
  9
$PLIMMIN
 10
0.0
 20
0.0
  9
$PLIMMAX
 10
420.0
 20
297.0
  9
$UNITMODE
 70
0
  9
$VISRETAIN
 70
1
  9
$PLINEGEN
 70
0
  9
$PSLTSCALE
 70
1
  9
$TREEDEPTH
 70
3020
  9
$CMLSTYLE
  2
Standard
  9
$CMLJUST
 70
0
  9
$CMLSCALE
 40
20.0
  9
$PROXYGRAPHICS
 70
1
  9
$MEASUREMENT
 70
1
  9
$CELWEIGHT
370
-1
  9
$ENDCAPS
280
0
  9
$JOINSTYLE
280
0
  9
$LWDISPLAY
290
0
  9
$INSUNITS
 70
6
  9
$HYPERLINKBASE
  1

  9
$STYLESHEET
  1

  9
$XEDIT
290
1
  9
$CEPSNTYPE
380
0
  9
$PSTYLEMODE
290
1
  9
$FINGERPRINTGUID
  2
{5823D3FF-60FD-4EBA-9351-66B594DAE57D}
  9
$VERSIONGUID
  2
{EF84A145-6CC7-4E24-A1D4-A9CD35AF31F6}
  9
$EXTNAMES
290
1
  9
$PSVPSCALE
 40
0.0
  9
$OLESTARTUP
290
0
  9
$SORTENTS
280
127
  9
$INDEXCTL
280
0
  9
$HIDETEXT
280
1
  9
$XCLIPFRAME
280
0
  9
$HALOGAP
280
0
  9
$OBSCOLOR
 70
257
  9
$OBSLTYPE
280
0
  9
$INTERSECTIONDISPLAY
280
0
  9
$INTERSECTIONCOLOR
 70
257
  9
$DIMASSOC
280
2
  9
$PROJECTNAME
  1

  9
$CAMERADISPLAY
290
0
  9
$LENSLENGTH
 40
50.0
  9
$CAMERAHEIGHT
 40
0.0
  9
$STEPSPERSEC
 40
24.0
  9
$STEPSIZE
 40
100.0
  9
$3DDWFPREC
 40
2.0
  9
$PSOLWIDTH
 40
0.005
  9
$PSOLHEIGHT
 40
0.08
  9
$LOFTANG1
 40
1.570796326795
  9
$LOFTANG2
 40
1.570796326795
  9
$LOFTMAG1
 40
0.0
  9
$LOFTMAG2
 40
0.0
  9
$LOFTPARAM
 70
7
  9
$LOFTNORMALS
280
1
  9
$LATITUDE
 40
37.795
  9
$LONGITUDE
 40
-122.394
  9
$NORTHDIRECTION
 40
0.0
  9
$TIMEZONE
 70
-8000
  9
$LIGHTGLYPHDISPLAY
280
1
  9
$TILEMODELIGHTSYNCH
280
1
  9
$CMATERIAL
347
20
  9
$SOLIDHIST
280
0
  9
$SHOWHIST
280
1
  9
$DWFFRAME
280
2
  9
$DGNFRAME
280
2
  9
$REALWORLDSCALE
290
1
  9
$INTERFERECOLOR
 62
256
  9
$CSHADOW
280
0
  9
$SHADOWPLANELOCATION
 40
0.0
  0
ENDSEC
  0
SECTION
  2
CLASSES
  0
CLASS
  1
ACDBDICTIONARYWDFLT
  2
AcDbDictionaryWithDefault
  3
ObjectDBX Classes
 90
0
 91
0
280
0
281
0
  0
CLASS
  1
SUN
  2
AcDbSun
  3
SCENEOE
 90
1153
 91
0
280
0
281
0
  0
CLASS
  1
VISUALSTYLE
  2
AcDbVisualStyle
  3
ObjectDBX Classes
 90
4095
 91
0
280
0
281
0
  0
CLASS
  1
MATERIAL
  2
AcDbMaterial
  3
ObjectDBX Classes
 90
1153
 91
0
280
0
281
0
  0
CLASS
  1
SCALE
  2
AcDbScale
  3
ObjectDBX Classes
 90
1153
 91
0
280
0
281
0
  0
CLASS
  1
TABLESTYLE
  2
AcDbTableStyle
  3
ObjectDBX Classes
 90
4095
 91
0
280
0
281
0
  0
CLASS
  1
MLEADERSTYLE
  2
AcDbMLeaderStyle
  3
ACDB_MLEADERSTYLE_CLASS
 90
4095
 91
0
280
0
281
0
  0
CLASS
  1
DICTIONARYVAR
  2
AcDbDictionaryVar
  3
ObjectDBX Classes
 90
0
 91
0
280
0
281
0
  0
CLASS
  1
CELLSTYLEMAP
  2
AcDbCellStyleMap
  3
ObjectDBX Classes
 90
1152
 91
0
280
0
281
0
  0
CLASS
  1
MENTALRAYRENDERSETTINGS
  2
AcDbMentalRayRenderSettings
  3
SCENEOE
 90
1024
 91
0
280
0
281
0
  0
CLASS
  1
ACDBDETAILVIEWSTYLE
  2
AcDbDetailViewStyle
  3
ObjectDBX Classes
 90
1025
 91
0
280
0
281
0
  0
CLASS
  1
ACDBSECTIONVIEWSTYLE
  2
AcDbSectionViewStyle
  3
ObjectDBX Classes
 90
1025
 91
0
280
0
281
0
  0
CLASS
  1
RASTERVARIABLES
  2
AcDbRasterVariables
  3
ISM
 90
0
 91
0
280
0
281
0
  0
CLASS
  1
ACDBPLACEHOLDER
  2
AcDbPlaceHolder
  3
ObjectDBX Classes
 90
0
 91
0
280
0
281
0
  0
CLASS
  1
LAYOUT
  2
AcDbLayout
  3
ObjectDBX Classes
 90
0
 91
0
280
0
281
0
  0
ENDSEC
  0
SECTION
  2
TABLES
  0
TABLE
  2
VPORT
  5
8
330
0
100
AcDbSymbolTable
 70
1
  0
VPORT
  5
23
330
8
100
AcDbSymbolTableRecord
100
AcDbViewportTableRecord
  2
*Active
 70
0
 10
0.0
 20
0.0
 11
1.0
 21
1.0
 12
0.0
 22
0.0
 13
0.0
 23
0.0
 14
0.5
 24
0.5
 15
0.5
 25
0.5
 16
0.0
 26
0.0
 36
1.0
 17
0.0
 27
0.0
 37
0.0
 40
1000.0
 41
1.34
 42
50.0
 43
0.0
 44
0.0
 50
0.0
 51
0.0
 71
0
 72
1000
 73
1
 74
3
 75
0
 76
0
 77
0
 78
0
281
0
 65
0
146
0.0
  0
ENDTAB
  0
TABLE
  2
LTYPE
  5
2
330
0
100
AcDbSymbolTable
 70
3
  0
LTYPE
  5
24
330
2
100
AcDbSymbolTableRecord
100
AcDbLinetypeTableRecord
  2
ByBlock
 70
0
  3

 72
65
 73
0
 40
0.0
  0
LTYPE
  5
25
330
2
100
AcDbSymbolTableRecord
100
AcDbLinetypeTableRecord
  2
ByLayer
 70
0
  3

 72
65
 73
0
 40
0.0
  0
LTYPE
  5
26
330
2
100
AcDbSymbolTableRecord
100
AcDbLinetypeTableRecord
  2
Continuous
 70
0
  3

 72
65
 73
0
 40
0.0
  0
ENDTAB
  0
TABLE
  2
LAYER
  5
1
330
0
100
AcDbSymbolTable
 70
2
  0
LAYER
  5
27
330
1
100
AcDbSymbolTableRecord
100
AcDbLayerTableRecord
  2
0
 70
0
 62
7
  6
Continuous
370
-3
390
13
347
21
  0
LAYER
  5
28
330
1
100
AcDbSymbolTableRecord
100
AcDbLayerTableRecord
  2
Defpoints
 70
0
 62
7
  6
Continuous
290
0
370
-3
390
13
347
21
  0
ENDTAB
  0
TABLE
  2
STYLE
  5
5
330
0
100
AcDbSymbolTable
 70
1
  0
STYLE
  5
29
330
5
100
AcDbSymbolTableRecord
100
AcDbTextStyleTableRecord
  2
Standard
 70
0
 40
0.0
 41
1.0
 50
0.0
 71
0
 42
2.5
  3
txt
  4

  0
ENDTAB
  0
TABLE
  2
VIEW
  5
7
330
0
100
AcDbSymbolTable
 70
0
  0
ENDTAB
  0
TABLE
  2
UCS
  5
6
330
0
100
AcDbSymbolTable
 70
0
  0
ENDTAB
  0
TABLE
  2
APPID
  5
3
330
0
100
AcDbSymbolTable
 70
3
  0
APPID
  5
2A
330
3
100
AcDbSymbolTableRecord
100
AcDbRegAppTableRecord
  2
ACAD
 70
0
  0
APPID
  5
DB
330
3
100
AcDbSymbolTableRecord
100
AcDbRegAppTableRecord
  2
HATCHBACKGROUNDCOLOR
 70
0
  0
APPID
  5
DC
330
3
100
AcDbSymbolTableRecord
100
AcDbRegAppTableRecord
  2
EZDXF
 70
0
  0
ENDTAB
  0
TABLE
  2
DIMSTYLE
  5
4
330
0
100
AcDbSymbolTable
 70
1
100
AcDbDimStyleTable
  0
DIMSTYLE
105
2B
330
4
100
AcDbSymbolTableRecord
100
AcDbDimStyleTableRecord
  2
Standard
 70
0
 40
1.0
 41
2.5
 42
0.625
 43
3.75
 44
1.25
 45
0.0
 46
0.0
 47
0.0
 48
0.0
 49
2.5
140
2.5
141
2.5
142
0.0
143
0.03937007874
144
1.0
145
0.0
146
1.0
147
0.625
148
0.0
 69
0
 70
0
 71
0
 72
0
 73
0
 74
0
 75
0
 76
0
 77
1
 78
8
 79
3
170
0
171
3
172
1
173
0
174
0
175
0
176
0
177
0
178
0
179
2
271
2
272
2
273
2
274
3
275
0
276
0
277
2
278
44
279
0
280
0
281
0
282
0
283
0
284
8
285
0
286
0
288
0
289
3
290
0
371
-2
372
-2
  0
ENDTAB
  0
TABLE
  2
BLOCK_RECORD
  5
9
330
0
100
AcDbSymbolTable
 70
2
  0
BLOCK_RECORD
  5
17
330
9
100
AcDbSymbolTableRecord
100
AcDbBlockTableRecord
  2
*Model_Space
340
1A
 70
0
280
1
281
0
  0
BLOCK_RECORD
  5
1B
330
9
100
AcDbSymbolTableRecord
100
AcDbBlockTableRecord
  2
*Paper_Space
340
1E
 70
0
280
1
281
0
  0
ENDTAB
  0
ENDSEC
  0
SECTION
  2
BLOCKS
  0
BLOCK
  5
18
330
17
100
AcDbEntity
  8
0
100
AcDbBlockBegin
  2
*Model_Space
 70
0
 10
0.0
 20
0.0
 30
0.0
  3
*Model_Space
  1

  0
ENDBLK
  5
19
330
17
100
AcDbEntity
  8
0
100
AcDbBlockEnd
  0
BLOCK
  5
1C
330
1B
100
AcDbEntity
  8
0
100
AcDbBlockBegin
  2
*Paper_Space
 70
0
 10
0.0
 20
0.0
 30
0.0
  3
*Paper_Space
  1

  0
ENDBLK
  5
1D
330
1B
100
AcDbEntity
  8
0
100
AcDbBlockEnd
  0
ENDSEC
  0
SECTION
  2
ENTITIES
  0
LWPOLYLINE
  5
2F
330
17
100
AcDbEntity
  8
FP-Proposed Wall
 62
1
100
AcDbPolyline
 90
4
 70
0
 38
-24.501592595180888
 10
-202.34566718858514
 20
121.00204510564754
 10
-204.34566718858514
 20
121.00204510564754
 10
-204.34566718858514
 20
127.00204390272484
 10
-202.36828439176497
 20
127.00204390272484
  0
LWPOLYLINE
  5
30
330
17
100
AcDbEntity
  8
FP-Proposed Wall
 62
1
100
AcDbPolyline
 90
2
 70
0
 38
-24.501592595180888
 10
-202.36827766370152
 20
121.0020449917256
 10
-202.34566718858514
 20
119.50204510677577
  0
LINE
  5
31
330
17
100
AcDbEntity
  8
FP-Proposed Wall
 62
1
100
AcDbLine
 10
-172.36827875981362
 20
127.00201026242712
 30
0.0
 11
-202.3682642075819
 21
127.00204390272575
 31
-1.907807245515869e-12
  0
LINE
  5
32
330
17
100
AcDbEntity
  8
EL-Trim
 62
8
100
AcDbLine
 10
-202.34566718858514
 20
121.00204510564754
 30
-24.501592595180888
 11
-171.36828548772246
 21
121.00214441914022
 31
0.0
  0
LWPOLYLINE
  5
33
330
17
100
AcDbEntity
  8
FP-Proposed Wall
 62
1
100
AcDbPolyline
 90
4
 70
0
 10
-192.34566718858514
 20
128.5020437887888
 10
-194.34566718858514
 20
128.5020437887888
 10
-194.34566718858514
 20
134.5020425858661
 10
-192.36828439176497
 20
134.5020425858661
  0
LWPOLYLINE
  5
34
330
17
100
AcDbEntity
  8
FP-Proposed Wall
 62
1
100
AcDbPolyline
 90
2
 70
0
 10
-192.36827766370152
 20
128.5020437887888
 10
-192.36827766370152
 20
127.00207922006666
  0
LINE
  5
35
330
17
100
AcDbEntity
  8
FP-Proposed Wall
 62
1
100
AcDbLine
 10
-172.3682703497234
 20
134.5020201589898
 30
0.0
 11
-192.36827093564534
 21
134.502042585867
 31
-1.8189894035458565e-12
  0
LINE
  5
36
330
17
100
AcDbEntity
  8
EL-Trim
 62
8
100
AcDbLine
 10
-172.36827707757038
 20
128.50221429777685
 30
-1.8189894035458565e-12
 11
-192.3682642075819
 21
128.50204390272575
 31
-1.8189894035458565e-12
  0
LWPOLYLINE
  5
37
330
17
100
AcDbEntity
  8
FP-Proposed Wall
 62
1
100
AcDbPolyline
 90
4
 70
0
 10
-182.368271777048
 20
136.00204390272575
 10
-184.368271777048
 20
136.00204390272575
 10
-184.368271777048
 20
142.00204269980304
 10
-182.39088898022783
 20
142.00204269980304
  0
LINE
  5
38
330
17
100
AcDbEntity
  8
FP-Proposed Wall
 62
1
100
AcDbLine
 10
-173.40652171728107
 20
142.00246186579875
 30
-1.8189894035458565e-12
 11
-182.39088898022783
 21
142.00204269980304
 31
-1.8189894035458565e-12
  0
LWPOLYLINE
  5
39
330
17
100
AcDbEntity
  8
FP-Proposed Wall
 62
1
100
AcDbPolyline
 90
2
 70
0
 10
-182.368271777048
 20
136.00204390272575
 10
-182.36839876397062
 20
134.5021277823148
  0
LINE
  5
3A
330
17
100
AcDbEntity
  8
EL-Trim
 62
8
100
AcDbLine
 10
-172.368271777048
 20
136.00199813122754
 30
-1.8189894035458565e-12
 11
-182.368271777048
 21
136.00204390272575
 31
-1.8189894035458565e-12
  0
LINE
  5
3B
330
17
100
AcDbEntity
  8
FP-Footing
100
AcDbLine
 10
-177.36828717214303
 20
8.0
 30
0.0
 11
-177.36828717214303
 21
0.0
 31
0.0
  0
LINE
  5
3C
330
17
100
AcDbEntity
  8
FP-Footing
100
AcDbLine
 10
202.59579344002123
 20
5.18200317856099e-06
 30
-12.218747285821806
 11
-177.36828717214303
 21
5.18200317856099e-06
 31
0.0
  0
LINE
  5
3D
330
17
100
AcDbEntity
  8
FP-Footing
100
AcDbLine
 10
202.59579344002123
 20
8.000005182003179
 30
-12.218747285821806
 11
-177.36828717214303
 21
8.000005182003179
 31
0.0
  0
LWPOLYLINE
  5
3E
330
17
100
AcDbEntity
  8
FP-Proposed Wall
100
AcDbPolyline
 90
4
 70
0
 10
-173.40651748708297
 20
143.00204739236733
 10
-173.86647911667205
 20
143.00204790814178
 10
-173.86647350995372
 20
148.00204790813996
 10
7.267610416012758
 20
148.0017832980957
  0
LINE
  5
3F
330
17
100
AcDbEntity
  8
FP-Proposed Wall
100
AcDbLine
 10
-173.66399730964258
 20
249.72695322544473
 30
0.0
 11
-173.1156248020452
 21
250.00227918162796
 31
0.0
  0
LINE
  5
40
330
17
100
AcDbEntity
  8
EL-Trim
 62
8
100
AcDbLine
 10
120.53642785309057
 20
249.2514328461616
 30
0.0
 11
-173.57491350984492
 21
249.2514328461698
 31
0.0
  0
LINE
  5
41
330
17
100
AcDbEntity
  8
FP-Proposed Wall
100
AcDbLine
 10
-172.3682630609601
 20
141.00204622812498
 30
0.0
 11
-173.40651972977685
 21
141.00204416544648
 31
0.0
  0
LINE
  5
42
330
17
100
AcDbEntity
  8
FP-Proposed Wall
100
AcDbLine
 10
-173.40651748708297
 20
143.00204739236733
 30
0.0
 11
-173.4065197297732
 21
141.00204739236915
 31
0.0
  0
LINE
  5
43
330
17
100
AcDbEntity
  8
EL-Trim
 62
8
100
AcDbLine
 10
7.267610416012758
 20
143.00240155922756
 30
0.0
 11
-173.40651748708297
 21
143.00204739236733
 31
0.0
  0
LINE
  5
44
330
17
100
AcDbEntity
  8
EL-Trim
 62
8
100
AcDbLine
 10
120.53642785309057
 20
249.00143284615615
 30
0.0
 11
-173.30435535762444
 21
249.00143284614796
 31
0.0
  0
LINE
  5
45
330
17
100
AcDbEntity
  8
FP-Proposed Wall
100
AcDbLine
 10
-173.115623923386
 20
249.00227918162614
 30
0.0
 11
-173.30435392338768
 21
249.00227939325646
 31
0.0
  0
LWPOLYLINE
  5
46
330
17
100
AcDbEntity
  8
FP-Proposed Wall
100
AcDbPolyline
 90
2
 70
0
 10
-173.1155842197586
 20
291.0023208689197
 10
-173.30431226403562
 20
291.0024701484749
  0
LINE
  5
47
330
17
100
AcDbEntity
  8
FP-Proposed Wall
100
AcDbLine
 10
-173.1156270447318
 20
248.00227918162977
 30
0.0
 11
-173.1156259233867
 21
249.00227918162796
 31
0.0
  0
LINE
  5
48
330
17
100
AcDbEntity
  8
FP-Proposed Wall
100
AcDbLine
 10
-172.3656270445099
 20
248.00248061227603
 30
0.0
 11
-173.11562704450444
 21
248.0024814532842
 31
0.0
  0
LINE
  5
49
330
17
100
AcDbEntity
  8
FP-Proposed Wall
100
AcDbLine
 10
-172.36562480204884
 20
250.002278338741
 30
0.0
 11
-173.1156248020452
 21
250.00227918162796
 31
0.0
  0
LINE
  5
4A
330
17
100
AcDbEntity
  8
FP-Proposed Wall
100
AcDbLine
 10
-172.3655799491935
 20
290.001465629108
 30
0.0
 11
-173.11558534110372
 21
290.0023208689215
 31
0.0
  0
LINE
  5
4B
330
17
100
AcDbEntity
  8
FP-Proposed Wall
100
AcDbLine
 10
-173.11558534110372
 20
290.0023208689215
 30
0.0
 11
-173.1155842197586
 21
291.0023208689197
 31
0.0
  0
LINE
  5
4C
330
17
100
AcDbEntity
  8
EL-Trim
 62
8
100
AcDbLine
 10
186.38432116099284
 20
291.00105979421414
 30
0.0
 11
-173.1155842197586
 21
291.0023208689197
 31
0.0
  0
LINE
  5
4D
330
17
100
AcDbEntity
  8
FP-Proposed Wall
100
AcDbLine
 10
-172.36828044178947
 20
125.50204622812316
 30
0.0
 11
-172.3682630609601
 21
141.00204622812498
 31
0.0
  0
LINE
  5
4E
330
17
100
AcDbEntity
  8
FP-Proposed Wall
100
AcDbLine
 10
-171.36828044109097
 20
125.50266475560784
 30
0.0
 11
-172.3682804410946
 21
125.50266621834271
 31
0.0
  0
LINE
  5
4F
330
17
100
AcDbEntity
  8
FP-Stair
100
AcDbLine
 10
7.267610416012758
 20
141.0024031062278
 30
0.0
 11
-172.3682630609601
 21
141.00204622812498
 31
0.0
  0
LINE
  5
50
330
17
100
AcDbEntity
  8
FP-Proposed Wall
100
AcDbLine
 10
-172.3657391791421
 20
148.00227835170858
 30
0.0
 11
-172.36562704473545
 21
248.00227833874465
 31
0.0
  0
LINE
  5
51
330
17
100
AcDbEntity
  8
FP-Proposed Wall
 62
1
100
AcDbLine
 10
7.267610416012758
 20
248.0022791816109
 30
0.0
 11
-172.3656270445099
 21
248.00248061227603
 31
0.0
  0
LINE
  5
52
330
17
100
AcDbEntity
  8
FP-Proposed Wall
100
AcDbLine
 10
-172.36562480204884
 20
250.002278338741
 30
0.0
 11
-172.365579948284
 21
290.00227634093585
 31
0.0
  0
LINE
  5
53
330
17
100
AcDbEntity
  8
FP-Stair
100
AcDbLine
 10
120.53642785309057
 20
250.00227918162136
 30
0.0
 11
-172.3656248016796
 21
250.00260762563266
 31
0.0
  0
LINE
  5
54
330
17
100
AcDbEntity
  8
FP-Proposed Wall
 62
1
100
AcDbLine
 10
-172.3655799491935
 20
290.001465629108
 30
0.0
 11
186.38432228233432
 21
290.0010633469942
 31
0.0
  0
LINE
  5
55
330
17
100
AcDbEntity
  8
FP-Footing
100
AcDbLine
 10
-171.36828717214303
 20
119.50000000000182
 30
0.0
 11
-171.36828717214667
 21
8.0
 31
0.0
  0
LWPOLYLINE
  5
56
330
17
100
AcDbEntity
  8
FP-Proposed Wall
100
AcDbPolyline
 90
2
 70
0
 10
-171.36828044178583
 20
125.50204510677077
 10
-171.36828716984928
 20
119.5020451067744
  0
LINE
  5
57
330
17
100
AcDbEntity
  8
FP-Stair
100
AcDbLine
 10
7.267610416012758
 20
125.50240345867746
 30
0.0
 11
-171.36828044109097
 21
125.50266475560784
 31
0.0
  0
LINE
  5
58
330
17
100
AcDbEntity
  8
EL-Trim
 62
8
100
AcDbLine
 10
-165.0398111568211
 20
249.72694355476574
 30
0.0
 11
-164.4914386492237
 21
250.00226951094714
 31
0.0
  0
LINE
  5
59
330
17
100
AcDbEntity
  8
EL-Trim
 62
8
100
AcDbLine
 10
-164.49143777056452
 20
249.00226951094533
 30
0.0
 11
-164.6801677705662
 21
249.00226972257747
 31
0.0
  0
LINE
  5
5A
330
17
100
AcDbEntity
  8
EL-Trim
 62
8
100
AcDbLine
 10
-164.4913937954152
 20
290.00230705476656
 30
0.0
 11
-164.49139267407372
 21
291.00230705476656
 31
0.0
  0
LINE
  5
5B
330
17
100
AcDbEntity
  8
EL-Trim
 62
8
100
AcDbLine
 10
-164.48965919032344
 20
248.00226750895285
 30
0.0
 11
-164.48965806897831
 21
249.00226750895285
 31
0.0
  0
LINE
  5
5C
330
17
100
AcDbEntity
  8
EL-Trim
 62
8
100
AcDbLine
 10
-163.7396591902616
 20
248.00226866593562
 30
0.0
 11
-163.73977132467553
 21
148.00226667897164
 31
0.0
  0
LINE
  5
5D
330
17
100
AcDbEntity
  8
EL-Trim
 62
8
100
AcDbLine
 10
-163.73965694763683
 20
250.0022666679431
 30
0.0
 11
-163.73961209387198
 21
290.0022666808379
 31
0.0
  0
LINE
  5
5E
330
17
100
AcDbEntity
  8
EL-Trim
 62
8
100
AcDbLine
 10
-163.0398111568211
 20
249.72694131207732
 30
0.0
 11
-162.4914386492237
 21
250.00226726825872
 31
0.0
  0
LINE
  5
5F
330
17
100
AcDbEntity
  8
EL-Trim
 62
8
100
AcDbLine
 10
-162.49143777056452
 20
249.00226726825872
 30
0.0
 11
-162.6801677705662
 21
249.00226747988904
 31
0.0
  0
LINE
  5
60
330
17
100
AcDbEntity
  8
EL-Trim
 62
8
100
AcDbLine
 10
-162.49144089190668
 20
248.0022692682594
 30
0.0
 11
-161.74144089190668
 21
248.00226842725147
 31
0.0
  0
LINE
  5
61
330
17
100
AcDbEntity
  8
EL-Trim
 62
8
100
AcDbLine
 10
-162.4913937949059
 20
290.00230481207996
 30
0.0
 11
-162.4913926735644
 21
291.00230481207814
 31
0.0
  0
LINE
  5
62
330
17
100
AcDbEntity
  8
EL-Trim
 62
8
100
AcDbLine
 10
-162.48965919032344
 20
248.00226526626443
 30
0.0
 11
-162.48965806897831
 21
249.00226526626443
 31
0.0
  0
LWPOLYLINE
  5
63
330
17
100
AcDbEntity
  8
EL-Trim
 62
8
100
AcDbPolyline
 90
2
 70
0
 10
-161.74144089190668
 20
248.00226842725147
 10
-161.74155302632062
 20
148.00226643925976
  0
LWPOLYLINE
  5
64
330
17
100
AcDbEntity
  8
EL-Trim
 62
8
100
AcDbPolyline
 90
2
 70
0
 10
-161.73965694763683
 20
250.00226442525468
 10
-161.7396569476332
 20
250.00226642525354
  0
LINE
  5
65
330
17
100
AcDbEntity
  8
EL-Trim
 62
8
100
AcDbLine
 10
-161.73965694763683
 20
250.00226442525468
 30
0.0
 11
-161.7396120937192
 21
290.00226443794577
 31
0.0
  0
LINE
  5
66
330
17
100
AcDbEntity
  8
FP-Stair
100
AcDbLine
 10
7.267610416012758
 20
125.50240924848117
 30
0.0
 11
184.63701738090822
 21
125.50266869528855
 31
0.0
  0
LINE
  5
67
330
17
100
AcDbEntity
  8
FP-Stair
100
AcDbLine
 10
7.267610416012758
 20
141.00240889603174
 30
0.0
 11
185.63700000008612
 21
141.00266981663594
 31
0.0
  0
LWPOLYLINE
  5
68
330
17
100
AcDbEntity
  8
FP-Proposed Wall
100
AcDbPolyline
 90
4
 70
0
 10
186.67525442690385
 20
143.0020513320478
 10
187.13521605649294
 20
143.00205184782226
 10
187.13521044977097
 20
148.00205184782044
 10
7.267610416012758
 20
148.00178908792145
  0
LINE
  5
69
330
17
100
AcDbEntity
  8
EL-Trim
 62
8
100
AcDbLine
 10
7.267610416012758
 20
143.00240735948523
 30
0.0
 11
186.675254426209
 21
143.0026710851671
 31
0.0
  0
LINE
  5
6A
330
17
100
AcDbEntity
  8
FP-Proposed Wall
 62
1
100
AcDbLine
 10
7.267610416012758
 20
248.0022791816109
 30
0.0
 11
120.53642785309057
 21
248.00240619504666
 31
0.0
  0
LINE
  5
6B
330
17
100
AcDbEntity
  8
FP-Proposed Wall
 62
8
100
AcDbLine
 10
119.28642785231932
 20
290.0019545586706
 30
0.0
 11
118.53642785231932
 21
290.0019545586706
 31
0.0
  0
LINE
  5
6C
330
17
100
AcDbEntity
  8
FP-Proposed Wall
 62
8
100
AcDbLine
 10
118.53642785282864
 20
250.00195454595587
 30
0.0
 11
118.53642785267584
 21
290.0019545586706
 31
0.0
  0
LWPOLYLINE
  5
6D
330
17
100
AcDbEntity
  8
FP-Proposed Wall
 62
8
100
AcDbPolyline
 90
2
 70
0
 10
118.53642785282864
 20
248.00195654595473
 10
118.53642785282864
 20
148.00195455790117
  0
LINE
  5
6E
330
17
100
AcDbEntity
  8
FP-Proposed Wall
 62
8
100
AcDbLine
 10
119.28642785282864
 20
248.00195654595473
 30
0.0
 11
118.53642785282864
 21
248.00195654595473
 31
0.0
  0
LINE
  5
6F
330
17
100
AcDbEntity
  8
FP-Proposed Wall
 62
8
100
AcDbLine
 10
119.28642585231864
 20
291.00195255867175
 30
0.0
 11
119.47515585232031
 21
291.00195255867175
 31
0.0
  0
LINE
  5
70
330
17
100
AcDbEntity
  8
FP-Proposed Wall
 62
8
100
AcDbLine
 10
119.28642585282796
 20
249.00195454595587
 30
0.0
 11
119.47515585282963
 21
249.00195454595587
 31
0.0
  0
LINE
  5
71
330
17
100
AcDbEntity
  8
FP-Proposed Wall
 62
8
100
AcDbLine
 10
119.28642785231932
 20
290.00195255867175
 30
0.0
 11
119.28642785231932
 21
291.00195255867175
 31
0.0
  0
LINE
  5
72
330
17
100
AcDbEntity
  8
FP-Proposed Wall
 62
8
100
AcDbLine
 10
119.28642785282864
 20
248.00195454595587
 30
0.0
 11
119.28642785282864
 21
249.00195454595587
 31
0.0
  0
LINE
  5
73
330
17
100
AcDbEntity
  8
FP-Proposed Wall
 62
8
100
AcDbLine
 10
119.83480005169258
 20
249.72662797485964
 30
0.0
 11
119.28642785282864
 21
250.00195454595587
 31
0.0
  0
LINE
  5
74
330
17
100
AcDbEntity
  8
FP-Stair
100
AcDbLine
 10
120.53642785309057
 20
290.00117264962546
 30
0.0
 11
120.53642785309057
 21
148.00195455687208
 31
0.0
  0
LWPOLYLINE
  5
75
330
17
100
AcDbEntity
  8
FP-Stair
100
AcDbPolyline
 90
2
 70
0
 10
168.73241225024685
 20
274.09916484526593
 10
120.53642785309057
 20
274.09916484526593
  0
LINE
  5
76
330
17
100
AcDbEntity
  8
FP-Stair
100
AcDbLine
 10
121.28642785309057
 20
290.0011726494199
 30
0.0
 11
120.53642785309057
 21
290.0011726494199
 31
0.0
  0
LINE
  5
77
330
17
100
AcDbEntity
  8
FP-Stair
100
AcDbLine
 10
121.2864258530899
 20
291.00117064942106
 30
0.0
 11
121.47515585309156
 21
291.00117064942106
 31
0.0
  0
LINE
  5
78
330
17
100
AcDbEntity
  8
FP-Stair
100
AcDbLine
 10
121.28642785309057
 20
290.00117064942106
 30
0.0
 11
121.28642785309057
 21
291.00117064942106
 31
0.0
  0
LWPOLYLINE
  5
79
330
17
100
AcDbEntity
  8
FP-Proposed Wall
 62
8
100
AcDbPolyline
 90
4
 70
0
 10
166.73241225023958
 20
148.0020220423571
 10
166.73241225024685
 20
272.09916484526593
 10
122.53642785309057
 20
272.09916484526593
 10
122.53642785309057
 20
148.0019574785756
  0
LWPOLYLINE
  5
7A
330
17
100
AcDbEntity
  8
FP-Proposed Wall
 62
8
100
AcDbPolyline
 90
4
 70
0
 10
165.73241225023958
 20
148.00202058150535
 10
165.73241225024685
 20
271.09916484526593
 10
123.53642785309057
 20
271.09916484526593
 10
123.53642785309057
 20
148.00195893942737
  0
LWPOLYLINE
  5
7B
330
17
100
AcDbEntity
  8
FP-Proposed Wall
 62
1
100
AcDbPolyline
 90
5
 70
0
 10
162.63444780662394
 20
148.00201605583834
 10
162.6344200516687
 20
268.0011726466896
 10
126.63442005166871
 20
268.0011726466896
 10
126.63444780662394
 20
148.00201605583834
 10
162.63444780662394
 20
148.00201605583834
  0
LWPOLYLINE
  5
7C
330
17
100
AcDbEntity
  8
FP-Proposed Wall
 62
8
100
AcDbPolyline
 90
6
 70
0
 10
161.1344200516687
 20
180.8655806239899
 10
161.1344200516687
 20
266.5011726466896
 10
128.1344200516687
 20
266.5011726466896
 10
128.13444780662394
 20
149.50201605583834
 10
161.13444780662394
 20
149.50201605583834
 10
161.1344200516687
 20
180.8655806239899
  0
LWPOLYLINE
  5
7D
330
17
100
AcDbEntity
  8
FP-Proposed Wall
 62
8
100
AcDbPolyline
 90
6
 70
0
 10
160.1344200516687
 20
180.8655806239899
 10
160.1344200516687
 20
265.5011726466896
 10
129.1344200516687
 20
265.5011726466896
 10
129.13444780662394
 20
150.50201605583834
 10
160.13444780662394
 20
150.50201605583834
 10
160.1344200516687
 20
180.8655806239899
  0
LINE
  5
7E
330
17
100
AcDbEntity
  8
FP-Hatch
100
AcDbLine
 10
129.1344200516687
 20
169.50117265267772
 30
0.0
 11
160.1344200516687
 21
169.50117265267772
 31
0.0
  0
LINE
  5
7F
330
17
100
AcDbEntity
  8
FP-Hatch
100
AcDbLine
 10
129.1344200516687
 20
185.50117265267772
 30
0.0
 11
160.1344200516687
 21
185.50117265267772
 31
0.0
  0
LINE
  5
80
330
17
100
AcDbEntity
  8
FP-Hatch
100
AcDbLine
 10
129.1344200516687
 20
201.50117265267772
 30
0.0
 11
160.1344200516687
 21
201.50117265267772
 31
0.0
  0
LINE
  5
81
330
17
100
AcDbEntity
  8
FP-Hatch
100
AcDbLine
 10
129.1344200516687
 20
217.50117265267772
 30
0.0
 11
160.1344200516687
 21
217.50117265267772
 31
0.0
  0
LINE
  5
82
330
17
100
AcDbEntity
  8
FP-Hatch
100
AcDbLine
 10
129.1344200516687
 20
233.50117265267772
 30
0.0
 11
160.1344200516687
 21
233.50117265267772
 31
0.0
  0
LINE
  5
83
330
17
100
AcDbEntity
  8
FP-Hatch
100
AcDbLine
 10
129.1344200516687
 20
249.50117265267772
 30
0.0
 11
160.1344200516687
 21
249.50117265267772
 31
0.0
  0
LINE
  5
84
330
17
100
AcDbEntity
  8
FP-Hatch
100
AcDbLine
 10
144.6344200516687
 20
265.5011726466896
 30
0.0
 11
144.63444780662394
 21
150.50201605583834
 31
0.0
  0
LINE
  5
85
330
17
100
AcDbEntity
  8
FP-Stair
100
AcDbLine
 10
167.98241425024753
 20
291.00117064942106
 30
0.0
 11
167.79368425024586
 21
291.00117064942106
 31
0.0
  0
LINE
  5
86
330
17
100
AcDbEntity
  8
FP-Stair
100
AcDbLine
 10
167.98241225024685
 20
290.00117064942106
 30
0.0
 11
167.98241225024685
 21
291.00117064942106
 31
0.0
  0
LINE
  5
87
330
17
100
AcDbEntity
  8
FP-Stair
100
AcDbLine
 10
167.98241225024685
 20
290.0011726494199
 30
0.0
 11
168.73241225024685
 21
290.0011726494199
 31
0.0
  0
LINE
  5
88
330
17
100
AcDbEntity
  8
FP-Stair
100
AcDbLine
 10
168.73241225023958
 20
148.00202496406064
 30
0.0
 11
168.73241225024685
 21
290.00117264962546
 31
0.0
  0
LINE
  5
89
330
17
100
AcDbEntity
  8
FP-Proposed Wall
100
AcDbLine
 10
168.73241225024685
 20
248.0024602393787
 30
0.0
 11
185.63436398451813
 21
248.00231474567795
 31
0.0
  0
LINE
  5
8A
330
17
100
AcDbEntity
  8
EL-Trim
 62
8
100
AcDbLine
 10
168.73241225024685
 20
249.00143284616092
 30
0.0
 11
186.38436286416254
 21
249.0014328461616
 31
0.0
  0
LINE
  5
8B
330
17
100
AcDbEntity
  8
EL-Trim
 62
8
100
AcDbLine
 10
168.73241225024685
 20
249.25143284615683
 30
0.0
 11
186.8020947425175
 21
249.25143284615615
 31
0.0
  0
LINE
  5
8C
330
17
100
AcDbEntity
  8
FP-Stair
100
AcDbLine
 10
168.73241225024685
 20
250.00227918162614
 30
0.0
 11
185.63436174187154
 21
250.0022783405375
 31
0.0
  0
LINE
  5
8D
330
17
100
AcDbEntity
  8
EL-Trim
 62
8
100
AcDbLine
 10
175.75839613010248
 20
248.0023036731966
 30
0.0
 11
175.00839613010248
 21
248.00230283218866
 31
0.0
  0
LINE
  5
8E
330
17
100
AcDbEntity
  8
EL-Trim
 62
8
100
AcDbLine
 10
175.0101755890064
 20
250.0023028341841
 30
0.0
 11
175.01013073508875
 21
290.0023028468752
 31
0.0
  0
LWPOLYLINE
  5
8F
330
17
100
AcDbEntity
  8
EL-Trim
 62
8
100
AcDbPolyline
 90
2
 70
0
 10
175.0101755890064
 20
250.0023028341841
 10
175.01017558900276
 20
250.00230483418295
  0
LWPOLYLINE
  5
90
330
17
100
AcDbEntity
  8
EL-Trim
 62
8
100
AcDbPolyline
 90
2
 70
0
 10
175.01017783168936
 20
248.00230483418477
 10
175.0102899661033
 20
148.00230284619306
  0
LINE
  5
91
330
17
100
AcDbEntity
  8
EL-Trim
 62
8
100
AcDbLine
 10
175.75839300876032
 20
249.00230167319592
 30
0.0
 11
175.947123008762
 21
249.00230188482624
 31
0.0
  0
LINE
  5
92
330
17
100
AcDbEntity
  8
EL-Trim
 62
8
100
AcDbLine
 10
176.3067663950169
 20
249.7269757170145
 30
0.0
 11
175.75839388741952
 21
250.00230167319592
 31
0.0
  0
LINE
  5
93
330
17
100
AcDbEntity
  8
EL-Trim
 62
8
100
AcDbLine
 10
175.76013073468857
 20
290.00234121901326
 30
0.0
 11
175.7601296133471
 21
291.00234121901144
 31
0.0
  0
LINE
  5
94
330
17
100
AcDbEntity
  8
EL-Trim
 62
8
100
AcDbLine
 10
175.760177831693
 20
248.00230367519384
 30
0.0
 11
175.76017671034788
 21
249.00230367519384
 31
0.0
  0
LINE
  5
95
330
17
100
AcDbEntity
  8
EL-Trim
 62
8
100
AcDbLine
 10
177.0101755890064
 20
250.00230507687252
 30
0.0
 11
177.01013073524155
 21
290.00230508976733
 31
0.0
  0
LINE
  5
96
330
17
100
AcDbEntity
  8
EL-Trim
 62
8
100
AcDbLine
 10
177.01017783163115
 20
248.00230707486503
 30
0.0
 11
177.0102899660451
 21
148.00230508790105
 31
0.0
  0
LINE
  5
97
330
17
100
AcDbEntity
  8
EL-Trim
 62
8
100
AcDbLine
 10
177.75839300876032
 20
249.00230391588252
 30
0.0
 11
177.947123008762
 21
249.00230412751466
 31
0.0
  0
LINE
  5
98
330
17
100
AcDbEntity
  8
EL-Trim
 62
8
100
AcDbLine
 10
178.3067663950169
 20
249.72697795970294
 30
0.0
 11
177.75839388741952
 21
250.00230391588434
 31
0.0
  0
LINE
  5
99
330
17
100
AcDbEntity
  8
EL-Trim
 62
8
100
AcDbLine
 10
177.75839613010612
 20
248.00230391588616
 30
0.0
 11
177.758395008761
 21
249.00230391588616
 31
0.0
  0
LINE
  5
9A
330
17
100
AcDbEntity
  8
EL-Trim
 62
8
100
AcDbLine
 10
177.7601307351979
 20
290.00234346169987
 30
0.0
 11
177.7601296138564
 21
291.00234346169987
 31
0.0
  0
LWPOLYLINE
  5
9B
330
17
100
AcDbEntity
  8
FP-Proposed Wall
 62
1
100
AcDbPolyline
 90
4
 70
0
 38
-12.218747285821806
 10
198.63402375616351
 20
143.00097946137225
 10
199.0939853857526
 20
143.0009799771467
 10
199.09397977903427
 20
148.00097997714488
 10
182.44201728193366
 20
148.00090023806365
  0
LWPOLYLINE
  5
9C
330
17
100
AcDbEntity
  8
FP-Proposed Wall
100
AcDbPolyline
 90
2
 70
0
 10
184.6370173815667
 20
125.50208151370407
 10
184.63702410963015
 20
119.50208151370771
  0
LINE
  5
9D
330
17
100
AcDbEntity
  8
FP-Proposed Wall
100
AcDbLine
 10
184.6370173815667
 20
125.50208151370407
 30
0.0
 11
185.63701738157397
 21
125.50208263505647
 31
0.0
  0
LINE
  5
9E
330
17
100
AcDbEntity
  8
FP-Footing
100
AcDbLine
 10
184.63702411072154
 20
119.50110951993338
 30
0.0
 11
184.63702411072518
 21
8.00110951993156
 31
0.0
  0
LINE
  5
9F
330
17
100
AcDbEntity
  8
FP-Proposed Wall
 62
1
100
AcDbLine
 10
204.34566634755902
 20
266.002324316614
 30
8.253141918995453
 11
185.5956184174829
 21
266.00230329135707
 31
-2.0961010704922955e-13
  0
LINE
  5
A0
330
17
100
AcDbEntity
  8
EL-Trim
 62
8
100
AcDbLine
 10
203.34566718853966
 20
265.2523107819677
 30
8.253141918995455
 11
185.5956192584963
 21
265.2522908780527
 31
-5.666578317686799e-12
  0
LINE
  5
A1
330
17
100
AcDbEntity
  8
EL-Trim
 62
8
100
AcDbLine
 10
201.2206684216908
 20
263.12732081241506
 30
8.593445095552482
 11
185.5956216413215
 21
263.12732081241506
 31
-1.1191048088221578e-12
  0
LINE
  5
A2
330
17
100
AcDbEntity
  8
EL-Trim
 62
8
100
AcDbLine
 10
198.345671954281
 20
261.0023175885524
 30
8.253141918995453
 11
185.59562402418305
 21
261.0023175885524
 31
-1.1191048088221578e-12
  0
LINE
  5
A3
330
17
100
AcDbEntity
  8
FP-Proposed Wall
100
AcDbLine
 10
185.63436174183153
 20
250.0023147456743
 30
0.0
 11
185.63431688806668
 21
290.00231274786915
 31
0.0
  0
LINE
  5
A4
330
17
100
AcDbEntity
  8
FP-Proposed Wall
100
AcDbLine
 10
186.3843617418279
 20
250.00231558856126
 30
0.0
 11
185.63436174187154
 21
250.0022783405375
 31
0.0
  0
LINE
  5
A5
330
17
100
AcDbEntity
  8
FP-Proposed Wall
100
AcDbLine
 10
185.6344761189248
 20
148.0023147586419
 30
0.0
 11
185.63436398451813
 21
248.00231474567795
 31
0.0
  0
LINE
  5
A6
330
17
100
AcDbEntity
  8
FP-Proposed Wall
100
AcDbLine
 10
185.63436398451813
 20
248.00231474567795
 30
0.0
 11
186.38436398452177
 21
248.00230828960252
 31
0.0
  0
LINE
  5
A7
330
17
100
AcDbEntity
  8
FP-Proposed Wall
100
AcDbLine
 10
185.63701738157397
 20
125.50208263505647
 30
0.0
 11
185.6370000007446
 21
141.0020826350583
 31
0.0
  0
LINE
  5
A8
330
17
100
AcDbEntity
  8
FP-Proposed Wall
100
AcDbLine
 10
186.6752566695577
 20
141.00208379930245
 30
0.0
 11
185.6370000007446
 21
141.0020826350583
 31
0.0
  0
LWPOLYLINE
  5
A9
330
17
100
AcDbEntity
  8
EL-Trim
 62
8
100
AcDbPolyline
 90
2
 70
0
 38
-12.218747285821806
 10
196.5957867108773
 20
125.50097191307918
 10
185.6370173828327
 20
125.50095962453042
  0
LINE
  5
AA
330
17
100
AcDbEntity
  8
FP-Proposed Wall
 62
1
100
AcDbLine
 10
186.34563635896484
 20
250.0023155885608
 30
-1.1191048088221578e-12
 11
197.5956842890737
 21
250.00231474567386
 31
8.253141918995453
  0
LINE
  5
AB
330
17
100
AcDbEntity
  8
FP-Hatch
100
AcDbLine
 10
186.34563860166236
 20
248.0023021304503
 30
-2.9380942123680143e-12
 11
197.59568653175666
 21
248.0023147456775
 31
8.253141918995453
  0
LINE
  5
AC
330
17
100
AcDbEntity
  8
FP-Proposed Wall
100
AcDbLine
 10
186.3843222808864
 20
290.0023572758548
 30
0.0
 11
186.3843211595413
 21
291.002357275853
 31
0.0
  0
LWPOLYLINE
  5
AD
330
17
100
AcDbEntity
  8
FP-Proposed Wall
100
AcDbPolyline
 90
2
 70
0
 10
186.3843211595413
 20
291.002357275853
 10
186.57304920382012
 20
291.0025065554082
  0
LINE
  5
AE
330
17
100
AcDbEntity
  8
FP-Proposed Wall
100
AcDbLine
 10
186.3843608631687
 20
249.00231558855944
 30
0.0
 11
186.57309086317036
 21
249.00231580018976
 31
0.0
  0
LINE
  5
AF
330
17
100
AcDbEntity
  8
FP-Proposed Wall
100
AcDbLine
 10
186.93273424942527
 20
249.72698963237804
 30
0.0
 11
186.3843617418279
 21
250.00231558856126
 31
0.0
  0
LINE
  5
B0
330
17
100
AcDbEntity
  8
FP-Proposed Wall
100
AcDbLine
 10
186.3843639845145
 20
248.00231558856308
 30
0.0
 11
186.38436286316937
 21
249.00231558856126
 31
0.0
  0
LINE
  5
B1
330
17
100
AcDbEntity
  8
FP-Hatch
100
AcDbLine
 10
186.53436559541296
 20
249.00207617898627
 30
2.8698883482753472
 11
198.34568541139743
 21
249.00143284616115
 31
8.253141918995453
  0
LINE
  5
B2
330
17
100
AcDbEntity
  8
FP-Proposed Wall
100
AcDbLine
 10
186.67525442686747
 20
143.00208379930064
 30
0.0
 11
186.6752566695577
 21
141.00208379930245
 31
0.0
  0
LWPOLYLINE
  5
B3
330
17
100
AcDbEntity
  8
EL-Trim
 62
8
100
AcDbPolyline
 90
2
 70
0
 38
-12.218747285821806
 10
197.59576932878554
 20
141.00209604495217
 10
186.6752566695577
 20
141.00208379930245
  0
LINE
  5
B4
330
17
100
AcDbEntity
  8
FP-Hatch
100
AcDbLine
 10
186.76336935965446
 20
249.2514328461557
 30
-1.1191048088221578e-12
 11
198.76341728975603
 21
249.2514328461557
 31
8.253141918995453
  0
LINE
  5
B5
330
17
100
AcDbEntity
  8
FP-Hatch
100
AcDbLine
 10
187.71966821778915
 20
248.00232234856503
 30
-1.120881165661558e-12
 11
186.96966821778915
 21
248.0023215075571
 31
-1.120881165661558e-12
  0
LWPOLYLINE
  5
B6
330
17
100
AcDbEntity
  8
FP-Hatch
100
AcDbPolyline
 90
2
 70
0
 10
186.97144991937967
 20
248.0023235095532
 10
186.97156205378997
 20
148.0023215215615
  0
LWPOLYLINE
  5
B7
330
17
100
AcDbEntity
  8
EL-Trim
 62
8
100
AcDbPolyline
 90
2
 70
0
 38
-12.218747285821806
 10
198.63402375424994
 20
143.00268449507485
 10
187.13521605579444
 20
143.0026716009429
  0
LINE
  5
B8
330
17
100
AcDbEntity
  8
FP-Hatch
100
AcDbLine
 10
187.719665096447
 20
249.00232034856435
 30
-1.120881165661558e-12
 11
187.90839509644866
 21
249.00232056019468
 31
-1.120881165661558e-12
  0
LINE
  5
B9
330
17
100
AcDbEntity
  8
FP-Hatch
100
AcDbLine
 10
188.26803848270356
 20
249.72699439238295
 30
-1.120881165661558e-12
 11
187.71966597510618
 21
250.00232034856435
 31
-1.120881165661558e-12
  0
LINE
  5
BA
330
17
100
AcDbEntity
  8
FP-Hatch
100
AcDbLine
 10
187.72144991937967
 20
248.00232235056228
 30
-1.120881165661558e-12
 11
187.72144879803818
 21
249.00232235056228
 31
-1.120881165661558e-12
  0
LINE
  5
BB
330
17
100
AcDbEntity
  8
EL-Trim
 62
8
100
AcDbLine
 10
187.7214795670443
 20
261.00232865272005
 30
8.253141918995453
 11
187.721491901837
 21
250.00232665272847
 31
8.253141918995453
  0
LINE
  5
BC
330
17
100
AcDbEntity
  8
EL-Trim
 62
8
100
AcDbLine
 10
188.2214795670443
 20
261.0023292133926
 30
8.253141918995453
 11
187.7214795670443
 21
261.00232865272005
 31
8.253141918995453
  0
LINE
  5
BD
330
17
100
AcDbEntity
  8
FP-Hatch
100
AcDbLine
 10
188.97144991932146
 20
248.00232575023347
 30
-1.120881165661558e-12
 11
188.97156205373176
 21
148.0023237632695
 31
-1.120881165661558e-12
  0
LINE
  5
BE
330
17
100
AcDbEntity
  8
EL-Trim
 62
8
100
AcDbLine
 10
189.59647718419
 20
263.127330755239
 30
8.253141918995453
 11
189.59647774486075
 21
262.627330755239
 31
8.253141918995453
  0
LINE
  5
BF
330
17
100
AcDbEntity
  8
FP-Hatch
100
AcDbLine
 10
189.719665096447
 20
249.00232259125096
 30
-1.120881165661558e-12
 11
189.90839509644866
 21
249.0023228028831
 31
-1.120881165661558e-12
  0
LINE
  5
C0
330
17
100
AcDbEntity
  8
FP-Hatch
100
AcDbLine
 10
190.26803848270356
 20
249.72699663507137
 30
-1.120881165661558e-12
 11
189.71966597510618
 21
250.00232259125278
 31
-1.120881165661558e-12
  0
LINE
  5
C1
330
17
100
AcDbEntity
  8
FP-Hatch
100
AcDbLine
 10
189.71966821779642
 20
248.0023225912546
 30
-1.120881165661558e-12
 11
189.71966709644767
 21
249.0023225912546
 31
-1.120881165661558e-12
  0
LINE
  5
C2
330
17
100
AcDbEntity
  8
EL-Trim
 62
8
100
AcDbLine
 10
189.72147956755362
 20
261.0023308954085
 30
8.253141918995453
 11
189.72149190234632
 21
250.0023288954169
 31
8.253141918995453
  0
LINE
  5
C3
330
17
100
AcDbEntity
  8
EL-Trim
 62
8
100
AcDbLine
 10
190.22147956755362
 20
261.00233145608104
 30
8.253141918995453
 11
189.72147956755362
 21
261.0023308954085
 31
8.253141918995453
  0
LINE
  5
C4
330
17
100
AcDbEntity
  8
FP-Footing
100
AcDbLine
 10
190.63702411072154
 20
8.00110951993156
 30
0.0
 11
190.63702411072154
 21
0.0011095199315604987
 31
0.0
  0
LINE
  5
C5
330
17
100
AcDbEntity
  8
EL-Trim
 62
8
100
AcDbLine
 10
191.59647718469932
 20
263.1273329979274
 30
8.253141918995453
 11
191.59647774537007
 21
262.6273329979274
 31
8.253141918995453
  0
LINE
  5
C6
330
17
100
AcDbEntity
  8
EL-Trim
 62
8
100
AcDbLine
 10
191.59907546385512
 20
266.00233300084324
 30
8.253141918995453
 11
191.59907630486123
 21
265.25233300084324
 31
8.253141918995453
  0
LINE
  5
C7
330
17
100
AcDbEntity
  8
EL-Trim
 62
8
100
AcDbLine
 10
193.59907546436443
 20
266.00233524352984
 30
8.253141918995453
 11
193.59907630537055
 21
265.25233524353166
 31
8.253141918995453
  0
LWPOLYLINE
  5
C8
330
17
100
AcDbEntity
  8
FP-Proposed Wall
 62
1
100
AcDbPolyline
 90
2
 70
0
 38
-12.218747285821806
 10
196.59578671087002
 20
125.50097717577569
 10
196.59579343893347
 20
119.50097717577933
  0
LINE
  5
C9
330
17
100
AcDbEntity
  8
FP-Proposed Wall
 62
1
100
AcDbLine
 10
196.59578671087002
 20
125.50097717576273
 30
-12.218747285821806
 11
197.59578671087002
 21
125.50097829712809
 31
-12.218747285821806
  0
LINE
  5
CA
330
17
100
AcDbEntity
  8
FP-Footing
100
AcDbLine
 10
196.59579344002123
 20
119.500005182005
 30
-12.218747285821806
 11
196.5957934400285
 21
8.000005182003179
 31
-12.218747285821806
  0
LINE
  5
CB
330
17
100
AcDbEntity
  8
FP-Proposed Wall
 62
1
100
AcDbLine
 10
197.5939234275902
 20
250.00230844345992
 30
-1.1191048088221578e-12
 11
198.34385836183355
 21
250.0023092843985
 31
-1.1191048088221578e-12
  0
LINE
  5
CC
330
17
100
AcDbEntity
  8
FP-Proposed Wall
 62
1
100
AcDbLine
 10
197.59564603726176
 20
148.00121042070737
 30
-12.218747285821806
 11
197.5956865317603
 21
248.00231474568295
 31
8.253141918996569
  0
LINE
  5
CD
330
17
100
AcDbEntity
  8
FP-Proposed Wall
 62
1
100
AcDbLine
 10
197.5956842890737
 20
250.00231474567386
 30
8.253141918995453
 11
198.3456842890664
 21
250.0023155885608
 31
8.253141918995453
  0
LINE
  5
CE
330
17
100
AcDbEntity
  8
FP-Proposed Wall
 62
1
100
AcDbLine
 10
197.59568653175666
 20
248.0023147456775
 30
8.253141918995453
 11
198.34568653158567
 21
248.0024682498215
 31
8.253141918995453
  0
LINE
  5
CF
330
17
100
AcDbEntity
  8
FP-Proposed Wall
 62
1
100
AcDbLine
 10
197.59578671087002
 20
125.50097829712809
 30
-12.218747285821806
 11
197.59576933004064
 21
141.0009782971299
 31
-12.218747285821806
  0
LINE
  5
D0
330
17
100
AcDbEntity
  8
FP-Proposed Wall
 62
1
100
AcDbLine
 10
198.63402599885376
 20
141.00097946137407
 30
-12.218747285821806
 11
197.59576933004064
 21
141.00097946137407
 31
-12.218747285821806
  0
LINE
  5
D1
330
17
100
AcDbEntity
  8
FP-Proposed Wall
 62
1
100
AcDbLine
 10
198.345671954281
 20
261.0023175885524
 30
8.253141918995453
 11
198.3456842890664
 21
250.0023155885608
 31
8.253141918995453
  0
LINE
  5
D2
330
17
100
AcDbEntity
  8
FP-Proposed Wall
 62
1
100
AcDbLine
 10
199.345671954281
 20
261.0023187098975
 30
8.253141918995453
 11
198.345671954281
 21
261.0023175885524
 31
8.253141918995453
  0
LINE
  5
D3
330
17
100
AcDbEntity
  8
FP-Proposed Wall
 62
1
100
AcDbLine
 10
198.34568341040722
 20
249.002315588559
 30
8.253141918995453
 11
198.5344134104089
 21
249.0023158001893
 31
8.253141918995453
  0
LINE
  5
D4
330
17
100
AcDbEntity
  8
FP-Proposed Wall
 62
1
100
AcDbLine
 10
198.8940567966638
 20
249.72698963237758
 30
8.253141918995453
 11
198.3456842890664
 21
250.0023155885608
 31
8.253141918995453
  0
LINE
  5
D5
330
17
100
AcDbEntity
  8
FP-Proposed Wall
 62
1
100
AcDbLine
 10
198.34568653175666
 20
248.00231558856262
 30
8.253141918995453
 11
198.3456854104079
 21
249.0023155885608
 31
8.253141918995453
  0
LINE
  5
D6
330
17
100
AcDbEntity
  8
FP-Proposed Wall
 62
1
100
AcDbLine
 10
198.63402375616351
 20
143.00097946137225
 30
-12.218747285821806
 11
198.63402599885376
 21
141.00097946137407
 31
-12.218747285821806
  0
LINE
  5
D7
330
17
100
AcDbEntity
  8
FP-Proposed Wall
 62
1
100
AcDbLine
 10
201.2206695714267
 20
263.12732081241643
 30
8.253141918995453
 11
201.22067013209744
 21
262.62732081241643
 31
8.253141918995453
  0
LINE
  5
D8
330
17
100
AcDbEntity
  8
FP-Footing
100
AcDbLine
 10
202.59579344002123
 20
8.000005182003179
 30
-12.218747285821806
 11
202.59579344002123
 21
5.18200317856099e-06
 31
-12.218747285821806
  0
LINE
  5
D9
330
17
100
AcDbEntity
  8
FP-Proposed Wall
 62
1
100
AcDbLine
 10
203.34566718853966
 20
265.2523107819677
 30
8.253141918995455
 11
204.34566718858696
 21
265.2523060617575
 31
8.253141918995455
  0
LINE
  5
DA
330
17
100
AcDbEntity
  8
FP-Proposed Wall
 62
1
100
AcDbLine
 10
204.34566634755902
 20
266.002324316614
 30
8.253141918995453
 11
204.34566718856513
 21
265.252324316614
 31
8.253141918995453
  0
ENDSEC
  0
SECTION
  2
OBJECTS
  0
DICTIONARY
  5
A
330
0
100
AcDbDictionary
280
0
281
1
  3
ACAD_COLOR
350
B
  3
ACAD_GROUP
350
C
  3
ACAD_LAYOUT
350
D
  3
ACAD_MATERIAL
350
E
  3
ACAD_MLEADERSTYLE
350
F
  3
ACAD_MLINESTYLE
350
10
  3
ACAD_PLOTSETTINGS
350
11
  3
ACAD_PLOTSTYLENAME
350
12
  3
ACAD_SCALELIST
350
14
  3
ACAD_TABLESTYLE
350
15
  3
ACAD_VISUALSTYLE
350
16
  3
EZDXF_META
350
2D
  0
DICTIONARY
  5
B
330
A
100
AcDbDictionary
280
0
281
1
  0
DICTIONARY
  5
C
330
A
100
AcDbDictionary
280
0
281
1
  0
DICTIONARY
  5
D
330
A
100
AcDbDictionary
280
0
281
1
  3
Model
350
1A
  3
Layout1
350
1E
  0
DICTIONARY
  5
E
330
A
100
AcDbDictionary
280
0
281
1
  3
ByBlock
350
1F
  3
ByLayer
350
20
  3
Global
350
21
  0
DICTIONARY
  5
F
330
A
100
AcDbDictionary
280
0
281
1
  3
Standard
350
2C
  0
DICTIONARY
  5
10
330
A
100
AcDbDictionary
280
0
281
1
  3
Standard
350
22
  0
DICTIONARY
  5
11
330
A
100
AcDbDictionary
280
0
281
1
  0
ACDBDICTIONARYWDFLT
  5
12
330
A
100
AcDbDictionary
280
0
281
1
  3
Normal
350
13
100
AcDbDictionaryWithDefault
340
13
  0
ACDBPLACEHOLDER
  5
13
330
12
  0
DICTIONARY
  5
14
330
A
100
AcDbDictionary
280
0
281
1
  0
DICTIONARY
  5
15
330
A
100
AcDbDictionary
280
0
281
1
  0
DICTIONARY
  5
16
330
A
100
AcDbDictionary
280
0
281
1
  0
LAYOUT
  5
1A
330
D
100
AcDbPlotSettings
  1

  2
Adobe PDF
  4
A3
  6

 40
7.5
 41
20.0
 42
7.5
 43
20.0
 44
420.0
 45
297.0
 46
0.0
 47
0.0
 48
0.0
 49
0.0
140
0.0
141
0.0
142
1.0
143
1.0
 70
1024
 72
1
 73
0
 74
5
  7

 75
16
 76
0
 77
2
 78
300
147
1.0
148
0.0
149
0.0
100
AcDbLayout
  1
Model
 70
1
 71
0
 10
0.0
 20
0.0
 11
420.0
 21
297.0
 12
0.0
 22
0.0
 32
0.0
 14
1e+20
 24
1e+20
 34
1e+20
 15
-1e+20
 25
-1e+20
 35
-1e+20
146
0.0
 13
0.0
 23
0.0
 33
0.0
 16
1.0
 26
0.0
 36
0.0
 17
0.0
 27
1.0
 37
0.0
 76
1
330
17
  0
LAYOUT
  5
1E
330
D
100
AcDbPlotSettings
  1

  2
Adobe PDF
  4
A3
  6

 40
7.5
 41
20.0
 42
7.5
 43
20.0
 44
420.0
 45
297.0
 46
0.0
 47
0.0
 48
0.0
 49
0.0
140
0.0
141
0.0
142
1.0
143
1.0
 70
0
 72
1
 73
0
 74
5
  7

 75
16
 76
0
 77
2
 78
300
147
1.0
148
0.0
149
0.0
100
AcDbLayout
  1
Layout1
 70
1
 71
1
 10
0.0
 20
0.0
 11
420.0
 21
297.0
 12
0.0
 22
0.0
 32
0.0
 14
1e+20
 24
1e+20
 34
1e+20
 15
-1e+20
 25
-1e+20
 35
-1e+20
146
0.0
 13
0.0
 23
0.0
 33
0.0
 16
1.0
 26
0.0
 36
0.0
 17
0.0
 27
1.0
 37
0.0
 76
1
330
1B
  0
MATERIAL
  5
1F
102
{ACAD_REACTORS
330
E
102
}
330
E
100
AcDbMaterial
  1
ByBlock
  2

 70
0
 40
1.0
 71
1
 41
1.0
 91
-1023410177
 42
1.0
 72
1
  3

 73
1
 74
1
 75
1
 44
0.5
 73
0
 45
1.0
 46
1.0
 77
1
  4

 78
1
 79
1
170
1
 48
1.0
171
1
  6

172
1
173
1
174
1
140
1.0
141
1.0
175
1
  7

176
1
177
1
178
1
143
1.0
179
1
  8

270
1
271
1
272
1
145
1.0
146
1.0
273
1
  9

274
1
275
1
276
1
 42
1.0
 72
1
  3

 73
1
 74
1
 75
1
 94
63
  0
MATERIAL
  5
20
102
{ACAD_REACTORS
330
E
102
}
330
E
100
AcDbMaterial
  1
ByLayer
  2

 70
0
 40
1.0
 71
1
 41
1.0
 91
-1023410177
 42
1.0
 72
1
  3

 73
1
 74
1
 75
1
 44
0.5
 73
0
 45
1.0
 46
1.0
 77
1
  4

 78
1
 79
1
170
1
 48
1.0
171
1
  6

172
1
173
1
174
1
140
1.0
141
1.0
175
1
  7

176
1
177
1
178
1
143
1.0
179
1
  8

270
1
271
1
272
1
145
1.0
146
1.0
273
1
  9

274
1
275
1
276
1
 42
1.0
 72
1
  3

 73
1
 74
1
 75
1
 94
63
  0
MATERIAL
  5
21
102
{ACAD_REACTORS
330
E
102
}
330
E
100
AcDbMaterial
  1
Global
  2

 70
0
 40
1.0
 71
1
 41
1.0
 91
-1023410177
 42
1.0
 72
1
  3

 73
1
 74
1
 75
1
 44
0.5
 73
0
 45
1.0
 46
1.0
 77
1
  4

 78
1
 79
1
170
1
 48
1.0
171
1
  6

172
1
173
1
174
1
140
1.0
141
1.0
175
1
  7

176
1
177
1
178
1
143
1.0
179
1
  8

270
1
271
1
272
1
145
1.0
146
1.0
273
1
  9

274
1
275
1
276
1
 42
1.0
 72
1
  3

 73
1
 74
1
 75
1
 94
63
  0
MLINESTYLE
  5
22
102
{ACAD_REACTORS
330
10
102
}
330
10
100
AcDbMlineStyle
  2
Standard
 70
0
  3

 62
256
 51
90.0
 52
90.0
 71
2
 49
0.5
 62
256
  6
BYLAYER
 49
-0.5
 62
256
  6
BYLAYER
  0
MLEADERSTYLE
  5
2C
102
{ACAD_REACTORS
330
F
102
}
330
F
100
AcDbMLeaderStyle
179
2
170
2
171
1
172
0
 90
2
 40
0.0
 41
0.0
173
1
 91
-1056964608
 92
-2
290
1
 42
2.0
291
1
 43
8.0
  3
Standard
 44
4.0
300

342
29
174
1
175
1
176
0
178
1
 93
-1056964608
 45
4.0
292
0
297
0
 46
4.0
 94
-1056964608
 47
1.0
 49
1.0
140
1.0
294
1
141
0.0
177
0
142
1.0
295
0
296
0
143
3.75
271
0
272
9
273
9
  0
DICTIONARY
  5
2D
330
A
100
AcDbDictionary
281
1
  3
CREATED_BY_EZDXF
350
2E
  3
WRITTEN_BY_EZDXF
350
DD
  0
DICTIONARYVAR
  5
2E
330
2D
100
DictionaryVariables
280
0
  1
1.1.4 @ 2024-01-23T16:06:01.634757+00:00
  0
DICTIONARYVAR
  5
DD
330
2D
100
DictionaryVariables
280
0
  1
1.1.4 @ 2024-01-23T16:06:13.271876+00:00
  0
ENDSEC
  0
EOF
