  0
SECTION
  2
HEADER
  9
$ACADVER
  1
AC1027
  9
$ACADMAINTVER
 70
105
  9
$DWGCODEPAGE
  3
ANSI_1252
  9
$LASTSAVEDBY
  1
ezdxf
  9
$REQUIREDVERSIONS
160
0
  9
$INSBASE
 10
0.0
 20
0.0
 30
0.0
  9
$EXTMIN
 10
1e+20
 20
1e+20
 30
1e+20
  9
$EXTMAX
 10
-1e+20
 20
-1e+20
 30
-1e+20
  9
$LIMMIN
 10
0.0
 20
0.0
  9
$LIMMAX
 10
420.0
 20
297.0
  9
$ORTHOMODE
 70
0
  9
$REGENMODE
 70
1
  9
$FILLMODE
 70
1
  9
$QTEXTMODE
 70
0
  9
$MIRRTEXT
 70
1
  9
$LTSCALE
 40
1.0
  9
$ATTMODE
 70
1
  9
$TEXTSIZE
 40
2.5
  9
$TRACEWID
 40
1.0
  9
$TEXTSTYLE
  7
Standard
  9
$CLAYER
  8
0
  9
$CELTYPE
  6
ByLayer
  9
$CECOLOR
 62
256
  9
$CELTSCALE
 40
1.0
  9
$DISPSILH
 70
0
  9
$DIMSCALE
 40
1.0
  9
$DIMASZ
 40
2.5
  9
$DIMEXO
 40
0.625
  9
$DIMDLI
 40
3.75
  9
$DIMRND
 40
0.0
  9
$DIMDLE
 40
0.0
  9
$DIMEXE
 40
1.25
  9
$DIMTP
 40
0.0
  9
$DIMTM
 40
0.0
  9
$DIMTXT
 40
2.5
  9
$DIMCEN
 40
2.5
  9
$DIMTSZ
 40
0.0
  9
$DIMTOL
 70
0
  9
$DIMLIM
 70
0
  9
$DIMTIH
 70
0
  9
$DIMTOH
 70
0
  9
$DIMSE1
 70
0
  9
$DIMSE2
 70
0
  9
$DIMTAD
 70
1
  9
$DIMZIN
 70
8
  9
$DIMBLK
  1

  9
$DIMASO
 70
1
  9
$DIMSHO
 70
1
  9
$DIMPOST
  1

  9
$DIMAPOST
  1

  9
$DIMALT
 70
0
  9
$DIMALTD
 70
3
  9
$DIMALTF
 40
0.03937007874
  9
$DIMLFAC
 40
1.0
  9
$DIMTOFL
 70
1
  9
$DIMTVP
 40
0.0
  9
$DIMTIX
 70
0
  9
$DIMSOXD
 70
0
  9
$DIMSAH
 70
0
  9
$DIMBLK1
  1

  9
$DIMBLK2
  1

  9
$DIMSTYLE
  2
ISO-25
  9
$DIMCLRD
 70
0
  9
$DIMCLRE
 70
0
  9
$DIMCLRT
 70
0
  9
$DIMTFAC
 40
1.0
  9
$DIMGAP
 40
0.625
  9
$DIMJUST
 70
0
  9
$DIMSD1
 70
0
  9
$DIMSD2
 70
0
  9
$DIMTOLJ
 70
0
  9
$DIMTZIN
 70
8
  9
$DIMALTZ
 70
0
  9
$DIMALTTZ
 70
0
  9
$DIMUPT
 70
0
  9
$DIMDEC
 70
2
  9
$DIMTDEC
 70
2
  9
$DIMALTU
 70
2
  9
$DIMALTTD
 70
3
  9
$DIMTXSTY
  7
Standard
  9
$DIMAUNIT
 70
0
  9
$DIMADEC
 70
0
  9
$DIMALTRND
 40
0.0
  9
$DIMAZIN
 70
0
  9
$DIMDSEP
 70
44
  9
$DIMATFIT
 70
3
  9
$DIMFRAC
 70
0
  9
$DIMLDRBLK
  1

  9
$DIMLUNIT
 70
2
  9
$DIMLWD
 70
-2
  9
$DIMLWE
 70
-2
  9
$DIMTMOVE
 70
0
  9
$DIMFXL
 40
1.0
  9
$DIMFXLON
 70
0
  9
$DIMJOGANG
 40
0.785398163397
  9
$DIMTFILL
 70
0
  9
$DIMTFILLCLR
 70
0
  9
$DIMARCSYM
 70
0
  9
$DIMLTYPE
  6

  9
$DIMLTEX1
  6

  9
$DIMLTEX2
  6

  9
$DIMTXTDIRECTION
 70
0
  9
$LUNITS
 70
2
  9
$LUPREC
 70
4
  9
$SKETCHINC
 40
1.0
  9
$FILLETRAD
 40
10.0
  9
$AUNITS
 70
0
  9
$AUPREC
 70
2
  9
$MENU
  1
.
  9
$ELEVATION
 40
0.0
  9
$PELEVATION
 40
0.0
  9
$THICKNESS
 40
0.0
  9
$LIMCHECK
 70
0
  9
$CHAMFERA
 40
0.0
  9
$CHAMFERB
 40
0.0
  9
$CHAMFERC
 40
0.0
  9
$CHAMFERD
 40
0.0
  9
$SKPOLY
 70
0
  9
$TDCREATE
 40
2460319.0412962963
  9
$TDUCREATE
 40
2458532.153996898
  9
$TDUPDATE
 40
2460319.0412962963
  9
$TDUUPDATE
 40
2458532.1544311
  9
$TDINDWG
 40
0.0
  9
$TDUSRTIMER
 40
0.0
  9
$USRTIMER
 70
1
  9
$ANGBASE
 50
0.0
  9
$ANGDIR
 70
0
  9
$PDMODE
 70
0
  9
$PDSIZE
 40
0.0
  9
$PLINEWID
 40
0.0
  9
$SPLFRAME
 70
0
  9
$SPLINETYPE
 70
6
  9
$SPLINESEGS
 70
8
  9
$HANDSEED
  5
DE
  9
$SURFTAB1
 70
6
  9
$SURFTAB2
 70
6
  9
$SURFTYPE
 70
6
  9
$SURFU
 70
6
  9
$SURFV
 70
6
  9
$UCSBASE
  2

  9
$UCSNAME
  2

  9
$UCSORG
 10
0.0
 20
0.0
 30
0.0
  9
$UCSXDIR
 10
1.0
 20
0.0
 30
0.0
  9
$UCSYDIR
 10
0.0
 20
1.0
 30
0.0
  9
$UCSORTHOREF
  2

  9
$UCSORTHOVIEW
 70
0
  9
$UCSORGTOP
 10
0.0
 20
0.0
 30
0.0
  9
$UCSORGBOTTOM
 10
0.0
 20
0.0
 30
0.0
  9
$UCSORGLEFT
 10
0.0
 20
0.0
 30
0.0
  9
$UCSORGRIGHT
 10
0.0
 20
0.0
 30
0.0
  9
$UCSORGFRONT
 10
0.0
 20
0.0
 30
0.0
  9
$UCSORGBACK
 10
0.0
 20
0.0
 30
0.0
  9
$PUCSBASE
  2

  9
$PUCSNAME
  2

  9
$PUCSORG
 10
0.0
 20
0.0
 30
0.0
  9
$PUCSXDIR
 10
1.0
 20
0.0
 30
0.0
  9
$PUCSYDIR
 10
0.0
 20
1.0
 30
0.0
  9
$PUCSORTHOREF
  2

  9
$PUCSORTHOVIEW
 70
0
  9
$PUCSORGTOP
 10
0.0
 20
0.0
 30
0.0
  9
$PUCSORGBOTTOM
 10
0.0
 20
0.0
 30
0.0
  9
$PUCSORGLEFT
 10
0.0
 20
0.0
 30
0.0
  9
$PUCSORGRIGHT
 10
0.0
 20
0.0
 30
0.0
  9
$PUCSORGFRONT
 10
0.0
 20
0.0
 30
0.0
  9
$PUCSORGBACK
 10
0.0
 20
0.0
 30
0.0
  9
$USERI1
 70
0
  9
$USERI2
 70
0
  9
$USERI3
 70
0
  9
$USERI4
 70
0
  9
$USERI5
 70
0
  9
$USERR1
 40
0.0
  9
$USERR2
 40
0.0
  9
$USERR3
 40
0.0
  9
$USERR4
 40
0.0
  9
$USERR5
 40
0.0
  9
$WORLDVIEW
 70
1
  9
$SHADEDGE
 70
3
  9
$SHADEDIF
 70
70
  9
$TILEMODE
 70
1
  9
$MAXACTVP
 70
64
  9
$PINSBASE
 10
0.0
 20
0.0
 30
0.0
  9
$PLIMCHECK
 70
0
  9
$PEXTMIN
 10
1e+20
 20
1e+20
 30
1e+20
  9
$PEXTMAX
 10
-1e+20
 20
-1e+20
 30
-1e+20
  9
$PLIMMIN
 10
0.0
 20
0.0
  9
$PLIMMAX
 10
420.0
 20
297.0
  9
$UNITMODE
 70
0
  9
$VISRETAIN
 70
1
  9
$PLINEGEN
 70
0
  9
$PSLTSCALE
 70
1
  9
$TREEDEPTH
 70
3020
  9
$CMLSTYLE
  2
Standard
  9
$CMLJUST
 70
0
  9
$CMLSCALE
 40
20.0
  9
$PROXYGRAPHICS
 70
1
  9
$MEASUREMENT
 70
1
  9
$CELWEIGHT
370
-1
  9
$ENDCAPS
280
0
  9
$JOINSTYLE
280
0
  9
$LWDISPLAY
290
0
  9
$INSUNITS
 70
6
  9
$HYPERLINKBASE
  1

  9
$STYLESHEET
  1

  9
$XEDIT
290
1
  9
$CEPSNTYPE
380
0
  9
$PSTYLEMODE
290
1
  9
$FINGERPRINTGUID
  2
{9DB140D4-01F3-49E4-9BEF-B5F6572013CA}
  9
$VERSIONGUID
  2
{78C0FC01-A6E2-4D05-BC5D-AA3CF6AFF691}
  9
$EXTNAMES
290
1
  9
$PSVPSCALE
 40
0.0
  9
$OLESTARTUP
290
0
  9
$SORTENTS
280
127
  9
$INDEXCTL
280
0
  9
$HIDETEXT
280
1
  9
$XCLIPFRAME
280
0
  9
$HALOGAP
280
0
  9
$OBSCOLOR
 70
257
  9
$OBSLTYPE
280
0
  9
$INTERSECTIONDISPLAY
280
0
  9
$INTERSECTIONCOLOR
 70
257
  9
$DIMASSOC
280
2
  9
$PROJECTNAME
  1

  9
$CAMERADISPLAY
290
0
  9
$LENSLENGTH
 40
50.0
  9
$CAMERAHEIGHT
 40
0.0
  9
$STEPSPERSEC
 40
24.0
  9
$STEPSIZE
 40
100.0
  9
$3DDWFPREC
 40
2.0
  9
$PSOLWIDTH
 40
0.005
  9
$PSOLHEIGHT
 40
0.08
  9
$LOFTANG1
 40
1.570796326795
  9
$LOFTANG2
 40
1.570796326795
  9
$LOFTMAG1
 40
0.0
  9
$LOFTMAG2
 40
0.0
  9
$LOFTPARAM
 70
7
  9
$LOFTNORMALS
280
1
  9
$LATITUDE
 40
37.795
  9
$LONGITUDE
 40
-122.394
  9
$NORTHDIRECTION
 40
0.0
  9
$TIMEZONE
 70
-8000
  9
$LIGHTGLYPHDISPLAY
280
1
  9
$TILEMODELIGHTSYNCH
280
1
  9
$CMATERIAL
347
20
  9
$SOLIDHIST
280
0
  9
$SHOWHIST
280
1
  9
$DWFFRAME
280
2
  9
$DGNFRAME
280
2
  9
$REALWORLDSCALE
290
1
  9
$INTERFERECOLOR
 62
256
  9
$CSHADOW
280
0
  9
$SHADOWPLANELOCATION
 40
0.0
  0
ENDSEC
  0
SECTION
  2
CLASSES
  0
CLASS
  1
ACDBDICTIONARYWDFLT
  2
AcDbDictionaryWithDefault
  3
ObjectDBX Classes
 90
0
 91
0
280
0
281
0
  0
CLASS
  1
SUN
  2
AcDbSun
  3
SCENEOE
 90
1153
 91
0
280
0
281
0
  0
CLASS
  1
VISUALSTYLE
  2
AcDbVisualStyle
  3
ObjectDBX Classes
 90
4095
 91
0
280
0
281
0
  0
CLASS
  1
MATERIAL
  2
AcDbMaterial
  3
ObjectDBX Classes
 90
1153
 91
0
280
0
281
0
  0
CLASS
  1
SCALE
  2
AcDbScale
  3
ObjectDBX Classes
 90
1153
 91
0
280
0
281
0
  0
CLASS
  1
TABLESTYLE
  2
AcDbTableStyle
  3
ObjectDBX Classes
 90
4095
 91
0
280
0
281
0
  0
CLASS
  1
MLEADERSTYLE
  2
AcDbMLeaderStyle
  3
ACDB_MLEADERSTYLE_CLASS
 90
4095
 91
0
280
0
281
0
  0
CLASS
  1
DICTIONARYVAR
  2
AcDbDictionaryVar
  3
ObjectDBX Classes
 90
0
 91
0
280
0
281
0
  0
CLASS
  1
CELLSTYLEMAP
  2
AcDbCellStyleMap
  3
ObjectDBX Classes
 90
1152
 91
0
280
0
281
0
  0
CLASS
  1
MENTALRAYRENDERSETTINGS
  2
AcDbMentalRayRenderSettings
  3
SCENEOE
 90
1024
 91
0
280
0
281
0
  0
CLASS
  1
ACDBDETAILVIEWSTYLE
  2
AcDbDetailViewStyle
  3
ObjectDBX Classes
 90
1025
 91
0
280
0
281
0
  0
CLASS
  1
ACDBSECTIONVIEWSTYLE
  2
AcDbSectionViewStyle
  3
ObjectDBX Classes
 90
1025
 91
0
280
0
281
0
  0
CLASS
  1
RASTERVARIABLES
  2
AcDbRasterVariables
  3
ISM
 90
0
 91
0
280
0
281
0
  0
CLASS
  1
LAYOUT
  2
AcDbLayout
  3
ObjectDBX Classes
 90
0
 91
0
280
0
281
0
  0
CLASS
  1
ACDBPLACEHOLDER
  2
AcDbPlaceHolder
  3
ObjectDBX Classes
 90
0
 91
0
280
0
281
0
  0
ENDSEC
  0
SECTION
  2
TABLES
  0
TABLE
  2
VPORT
  5
8
330
0
100
AcDbSymbolTable
 70
1
  0
VPORT
  5
23
330
8
100
AcDbSymbolTableRecord
100
AcDbViewportTableRecord
  2
*Active
 70
0
 10
0.0
 20
0.0
 11
1.0
 21
1.0
 12
0.0
 22
0.0
 13
0.0
 23
0.0
 14
0.5
 24
0.5
 15
0.5
 25
0.5
 16
0.0
 26
0.0
 36
1.0
 17
0.0
 27
0.0
 37
0.0
 40
1000.0
 41
1.34
 42
50.0
 43
0.0
 44
0.0
 50
0.0
 51
0.0
 71
0
 72
1000
 73
1
 74
3
 75
0
 76
0
 77
0
 78
0
281
0
 65
0
146
0.0
  0
ENDTAB
  0
TABLE
  2
LTYPE
  5
2
330
0
100
AcDbSymbolTable
 70
3
  0
LTYPE
  5
24
330
2
100
AcDbSymbolTableRecord
100
AcDbLinetypeTableRecord
  2
ByBlock
 70
0
  3

 72
65
 73
0
 40
0.0
  0
LTYPE
  5
25
330
2
100
AcDbSymbolTableRecord
100
AcDbLinetypeTableRecord
  2
ByLayer
 70
0
  3

 72
65
 73
0
 40
0.0
  0
LTYPE
  5
26
330
2
100
AcDbSymbolTableRecord
100
AcDbLinetypeTableRecord
  2
Continuous
 70
0
  3

 72
65
 73
0
 40
0.0
  0
ENDTAB
  0
TABLE
  2
LAYER
  5
1
330
0
100
AcDbSymbolTable
 70
2
  0
LAYER
  5
27
330
1
100
AcDbSymbolTableRecord
100
AcDbLayerTableRecord
  2
0
 70
0
 62
7
  6
Continuous
370
-3
390
13
347
21
  0
LAYER
  5
28
330
1
100
AcDbSymbolTableRecord
100
AcDbLayerTableRecord
  2
Defpoints
 70
0
 62
7
  6
Continuous
290
0
370
-3
390
13
347
21
  0
ENDTAB
  0
TABLE
  2
STYLE
  5
5
330
0
100
AcDbSymbolTable
 70
1
  0
STYLE
  5
29
330
5
100
AcDbSymbolTableRecord
100
AcDbTextStyleTableRecord
  2
Standard
 70
0
 40
0.0
 41
1.0
 50
0.0
 71
0
 42
2.5
  3
txt
  4

  0
ENDTAB
  0
TABLE
  2
VIEW
  5
7
330
0
100
AcDbSymbolTable
 70
0
  0
ENDTAB
  0
TABLE
  2
UCS
  5
6
330
0
100
AcDbSymbolTable
 70
0
  0
ENDTAB
  0
TABLE
  2
APPID
  5
3
330
0
100
AcDbSymbolTable
 70
3
  0
APPID
  5
2A
330
3
100
AcDbSymbolTableRecord
100
AcDbRegAppTableRecord
  2
ACAD
 70
0
  0
APPID
  5
DB
330
3
100
AcDbSymbolTableRecord
100
AcDbRegAppTableRecord
  2
HATCHBACKGROUNDCOLOR
 70
0
  0
APPID
  5
DC
330
3
100
AcDbSymbolTableRecord
100
AcDbRegAppTableRecord
  2
EZDXF
 70
0
  0
ENDTAB
  0
TABLE
  2
DIMSTYLE
  5
4
330
0
100
AcDbSymbolTable
 70
1
100
AcDbDimStyleTable
  0
DIMSTYLE
105
2B
330
4
100
AcDbSymbolTableRecord
100
AcDbDimStyleTableRecord
  2
Standard
 70
0
 40
1.0
 41
2.5
 42
0.625
 43
3.75
 44
1.25
 45
0.0
 46
0.0
 47
0.0
 48
0.0
 49
2.5
140
2.5
141
2.5
142
0.0
143
0.03937007874
144
1.0
145
0.0
146
1.0
147
0.625
148
0.0
 69
0
 70
0
 71
0
 72
0
 73
0
 74
0
 75
0
 76
0
 77
1
 78
8
 79
3
170
0
171
3
172
1
173
0
174
0
175
0
176
0
177
0
178
0
179
2
271
2
272
2
273
2
274
3
275
0
276
0
277
2
278
44
279
0
280
0
281
0
282
0
283
0
284
8
285
0
286
0
288
0
289
3
290
0
371
-2
372
-2
  0
ENDTAB
  0
TABLE
  2
BLOCK_RECORD
  5
9
330
0
100
AcDbSymbolTable
 70
2
  0
BLOCK_RECORD
  5
17
330
9
100
AcDbSymbolTableRecord
100
AcDbBlockTableRecord
  2
*Model_Space
340
1A
 70
0
280
1
281
0
  0
BLOCK_RECORD
  5
1B
330
9
100
AcDbSymbolTableRecord
100
AcDbBlockTableRecord
  2
*Paper_Space
340
1E
 70
0
280
1
281
0
  0
ENDTAB
  0
ENDSEC
  0
SECTION
  2
BLOCKS
  0
BLOCK
  5
18
330
17
100
AcDbEntity
  8
0
100
AcDbBlockBegin
  2
*Model_Space
 70
0
 10
0.0
 20
0.0
 30
0.0
  3
*Model_Space
  1

  0
ENDBLK
  5
19
330
17
100
AcDbEntity
  8
0
100
AcDbBlockEnd
  0
BLOCK
  5
1C
330
1B
100
AcDbEntity
  8
0
100
AcDbBlockBegin
  2
*Paper_Space
 70
0
 10
0.0
 20
0.0
 30
0.0
  3
*Paper_Space
  1

  0
ENDBLK
  5
1D
330
1B
100
AcDbEntity
  8
0
100
AcDbBlockEnd
  0
ENDSEC
  0
SECTION
  2
ENTITIES
  0
LWPOLYLINE
  5
2F
330
17
100
AcDbEntity
  8
FP-Proposed Wall
 62
1
100
AcDbPolyline
 90
4
 70
0
 38
-24.501592595180888
 10
16195.03559371835
 20
-1768.9107436184804
 10
16193.03559371835
 20
-1768.9107436184804
 10
16193.03559371835
 20
-1762.9107448214031
 10
16195.01297651517
 20
-1762.9107448214031
  0
LWPOLYLINE
  5
30
330
17
100
AcDbEntity
  8
FP-Proposed Wall
 62
1
100
AcDbPolyline
 90
2
 70
0
 38
-24.501592595180888
 10
16195.012983243234
 20
-1768.9107437324024
 10
16195.03559371835
 20
-1770.4107436173522
  0
LINE
  5
31
330
17
100
AcDbEntity
  8
FP-Proposed Wall
 62
1
100
AcDbLine
 10
16225.012982147122
 20
-1762.9107784617008
 30
0.0
 11
16195.012996699354
 21
-1762.9107448214022
 31
-1.907807245515869e-12
  0
LINE
  5
32
330
17
100
AcDbEntity
  8
EL-Trim
 62
8
100
AcDbLine
 10
16195.03559371835
 20
-1768.9107436184804
 30
-24.501592595180888
 11
16226.012975419213
 21
-1768.9106443049877
 31
0.0
  0
LWPOLYLINE
  5
33
330
17
100
AcDbEntity
  8
FP-Proposed Wall
 62
1
100
AcDbPolyline
 90
4
 70
0
 10
16205.03559371835
 20
-1761.4107449353392
 10
16203.03559371835
 20
-1761.4107449353392
 10
16203.03559371835
 20
-1755.4107461382619
 10
16205.01297651517
 20
-1755.4107461382619
  0
LWPOLYLINE
  5
34
330
17
100
AcDbEntity
  8
FP-Proposed Wall
 62
1
100
AcDbPolyline
 90
2
 70
0
 10
16205.012983243234
 20
-1761.4107449353392
 10
16205.012983243234
 20
-1762.9107095040613
  0
LINE
  5
35
330
17
100
AcDbEntity
  8
FP-Proposed Wall
 62
1
100
AcDbLine
 10
16225.012990557212
 20
-1755.4107685651381
 30
0.0
 11
16205.01298997129
 21
-1755.410746138261
 31
-1.8189894035458565e-12
  0
LINE
  5
36
330
17
100
AcDbEntity
  8
EL-Trim
 62
8
100
AcDbLine
 10
16225.012983829365
 20
-1761.410574426351
 30
-1.8189894035458565e-12
 11
16205.012996699354
 21
-1761.4107448214022
 31
-1.8189894035458565e-12
  0
LWPOLYLINE
  5
37
330
17
100
AcDbEntity
  8
FP-Proposed Wall
 62
1
100
AcDbPolyline
 90
4
 70
0
 10
16215.012989129888
 20
-1753.9107448214022
 10
16213.012989129888
 20
-1753.9107448214022
 10
16213.012989129888
 20
-1747.910746024325
 10
16214.990371926708
 20
-1747.910746024325
  0
LINE
  5
38
330
17
100
AcDbEntity
  8
FP-Proposed Wall
 62
1
100
AcDbLine
 10
16223.974739189654
 20
-1747.9103268583292
 30
-1.8189894035458565e-12
 11
16214.990371926708
 21
-1747.910746024325
 31
-1.8189894035458565e-12
  0
LWPOLYLINE
  5
39
330
17
100
AcDbEntity
  8
FP-Proposed Wall
 62
1
100
AcDbPolyline
 90
2
 70
0
 10
16215.012989129888
 20
-1753.9107448214022
 10
16215.012862142965
 20
-1755.4106609418131
  0
LINE
  5
3A
330
17
100
AcDbEntity
  8
EL-Trim
 62
8
100
AcDbLine
 10
16225.012989129888
 20
-1753.9107905929004
 30
-1.8189894035458565e-12
 11
16215.012989129888
 21
-1753.9107448214022
 31
-1.8189894035458565e-12
  0
LINE
  5
3B
330
17
100
AcDbEntity
  8
FP-Footing
100
AcDbLine
 10
16220.012973734792
 20
-1881.912788724128
 30
0.0
 11
16220.012973734792
 21
-1889.912788724128
 31
0.0
  0
LINE
  5
3C
330
17
100
AcDbEntity
  8
FP-Footing
100
AcDbLine
 10
16599.977054346957
 20
-1889.9127835421248
 30
-12.218747285821806
 11
16220.012973734792
 21
-1889.9127835421248
 31
0.0
  0
LINE
  5
3D
330
17
100
AcDbEntity
  8
FP-Footing
100
AcDbLine
 10
16599.977054346957
 20
-1881.9127835421248
 30
-12.218747285821806
 11
16220.012973734792
 21
-1881.9127835421248
 31
0.0
  0
LWPOLYLINE
  5
3E
330
17
100
AcDbEntity
  8
FP-Proposed Wall
100
AcDbPolyline
 90
4
 70
0
 10
16223.974743419853
 20
-1746.9107413317606
 10
16223.514781790263
 20
-1746.9107408159862
 10
16223.514787396982
 20
-1741.910740815988
 10
16404.64887132295
 20
-1741.9110054260323
  0
LINE
  5
3F
330
17
100
AcDbEntity
  8
FP-Proposed Wall
100
AcDbLine
 10
16223.717263597293
 20
-1640.1858354986832
 30
0.0
 11
16224.26563610489
 21
-1639.9105095425
 31
0.0
  0
LINE
  5
40
330
17
100
AcDbEntity
  8
EL-Trim
 62
8
100
AcDbLine
 10
16517.917688760026
 20
-1640.6613558779663
 30
0.0
 11
16223.80634739709
 21
-1640.6613558779582
 31
0.0
  0
LINE
  5
41
330
17
100
AcDbEntity
  8
FP-Proposed Wall
100
AcDbLine
 10
16225.012997845975
 20
-1748.910742496003
 30
0.0
 11
16223.974741177159
 21
-1748.9107445586815
 31
0.0
  0
LINE
  5
42
330
17
100
AcDbEntity
  8
FP-Proposed Wall
100
AcDbLine
 10
16223.974743419853
 20
-1746.9107413317606
 30
0.0
 11
16223.974741177162
 21
-1748.9107413317588
 31
0.0
  0
LINE
  5
43
330
17
100
AcDbEntity
  8
EL-Trim
 62
8
100
AcDbLine
 10
16404.64887132295
 20
-1746.9103871649004
 30
0.0
 11
16223.974743419853
 21
-1746.9107413317606
 31
0.0
  0
LINE
  5
44
330
17
100
AcDbEntity
  8
EL-Trim
 62
8
100
AcDbLine
 10
16517.917688760026
 20
-1640.9113558779718
 30
0.0
 11
16224.076905549311
 21
-1640.91135587798
 31
0.0
  0
LINE
  5
45
330
17
100
AcDbEntity
  8
FP-Proposed Wall
100
AcDbLine
 10
16224.26563698355
 20
-1640.9105095425018
 30
0.0
 11
16224.076906983548
 21
-1640.9105093308715
 31
0.0
  0
LWPOLYLINE
  5
46
330
17
100
AcDbEntity
  8
FP-Proposed Wall
100
AcDbPolyline
 90
2
 70
0
 10
16224.265676687177
 20
-1598.9104678552083
 10
16224.0769486429
 20
-1598.910318575653
  0
LINE
  5
47
330
17
100
AcDbEntity
  8
FP-Proposed Wall
100
AcDbLine
 10
16224.265633862204
 20
-1641.9105095424982
 30
0.0
 11
16224.265634983549
 21
-1640.9105095425
 31
0.0
  0
LINE
  5
48
330
17
100
AcDbEntity
  8
FP-Proposed Wall
100
AcDbLine
 10
16225.015633862426
 20
-1641.910308111852
 30
0.0
 11
16224.265633862431
 21
-1641.9103072708438
 31
0.0
  0
LINE
  5
49
330
17
100
AcDbEntity
  8
FP-Proposed Wall
100
AcDbLine
 10
16225.015636104887
 20
-1639.910510385387
 30
0.0
 11
16224.26563610489
 21
-1639.9105095425
 31
0.0
  0
LINE
  5
4A
330
17
100
AcDbEntity
  8
FP-Proposed Wall
100
AcDbLine
 10
16225.015680957742
 20
-1599.91132309502
 30
0.0
 11
16224.265675565832
 21
-1599.9104678552064
 31
0.0
  0
LINE
  5
4B
330
17
100
AcDbEntity
  8
FP-Proposed Wall
100
AcDbLine
 10
16224.265675565832
 20
-1599.9104678552064
 30
0.0
 11
16224.265676687177
 21
-1598.9104678552083
 31
0.0
  0
LINE
  5
4C
330
17
100
AcDbEntity
  8
EL-Trim
 62
8
100
AcDbLine
 10
16583.76558206793
 20
-1598.9117289299138
 30
0.0
 11
16224.265676687177
 21
-1598.9104678552083
 31
0.0
  0
LINE
  5
4D
330
17
100
AcDbEntity
  8
FP-Proposed Wall
100
AcDbLine
 10
16225.012980465146
 20
-1764.4107424960048
 30
0.0
 11
16225.012997845975
 21
-1748.910742496003
 31
0.0
  0
LINE
  5
4E
330
17
100
AcDbEntity
  8
FP-Proposed Wall
100
AcDbLine
 10
16226.012980465845
 20
-1764.41012396852
 30
0.0
 11
16225.01298046584
 21
-1764.4101225057852
 31
0.0
  0
LINE
  5
4F
330
17
100
AcDbEntity
  8
FP-Stair
100
AcDbLine
 10
16404.64887132295
 20
-1748.9103856179001
 30
0.0
 11
16225.012997845975
 21
-1748.910742496003
 31
0.0
  0
LINE
  5
50
330
17
100
AcDbEntity
  8
FP-Proposed Wall
100
AcDbLine
 10
16225.015521727793
 20
-1741.9105103724194
 30
0.0
 11
16225.0156338622
 21
-1641.9105103853833
 31
0.0
  0
LINE
  5
51
330
17
100
AcDbEntity
  8
FP-Proposed Wall
 62
1
100
AcDbLine
 10
16404.64887132295
 20
-1641.910509542517
 30
0.0
 11
16225.015633862426
 21
-1641.910308111852
 31
0.0
  0
LINE
  5
52
330
17
100
AcDbEntity
  8
FP-Proposed Wall
100
AcDbLine
 10
16225.015636104887
 20
-1639.910510385387
 30
0.0
 11
16225.015680958652
 21
-1599.910512383192
 31
0.0
  0
LINE
  5
53
330
17
100
AcDbEntity
  8
FP-Stair
100
AcDbLine
 10
16517.917688760026
 20
-1639.9105095425066
 30
0.0
 11
16225.015636105256
 21
-1639.9101810984953
 31
0.0
  0
LINE
  5
54
330
17
100
AcDbEntity
  8
FP-Proposed Wall
 62
1
100
AcDbLine
 10
16225.015680957742
 20
-1599.91132309502
 30
0.0
 11
16583.76558318927
 21
-1599.9117253771337
 31
0.0
  0
LINE
  5
55
330
17
100
AcDbEntity
  8
FP-Footing
100
AcDbLine
 10
16226.012973734792
 20
-1770.4127887241261
 30
0.0
 11
16226.012973734789
 21
-1881.912788724128
 31
0.0
  0
LWPOLYLINE
  5
56
330
17
100
AcDbEntity
  8
FP-Proposed Wall
100
AcDbPolyline
 90
2
 70
0
 10
16226.01298046515
 20
-1764.4107436173572
 10
16226.012973737086
 20
-1770.4107436173535
  0
LINE
  5
57
330
17
100
AcDbEntity
  8
FP-Stair
100
AcDbLine
 10
16404.64887132295
 20
-1764.4103852654505
 30
0.0
 11
16226.012980465845
 21
-1764.41012396852
 31
0.0
  0
LINE
  5
58
330
17
100
AcDbEntity
  8
EL-Trim
 62
8
100
AcDbLine
 10
16232.341449750114
 20
-1640.1858451693622
 30
0.0
 11
16232.889822257712
 21
-1639.9105192131808
 31
0.0
  0
LINE
  5
59
330
17
100
AcDbEntity
  8
EL-Trim
 62
8
100
AcDbLine
 10
16232.889823136371
 20
-1640.9105192131826
 30
0.0
 11
16232.70109313637
 21
-1640.9105190015505
 31
0.0
  0
LINE
  5
5A
330
17
100
AcDbEntity
  8
EL-Trim
 62
8
100
AcDbLine
 10
16232.88986711152
 20
-1599.9104816693614
 30
0.0
 11
16232.889868232862
 21
-1598.9104816693614
 31
0.0
  0
LINE
  5
5B
330
17
100
AcDbEntity
  8
EL-Trim
 62
8
100
AcDbLine
 10
16232.891601716612
 20
-1641.910521215175
 30
0.0
 11
16232.891602837957
 21
-1640.910521215175
 31
0.0
  0
LINE
  5
5C
330
17
100
AcDbEntity
  8
EL-Trim
 62
8
100
AcDbLine
 10
16233.641601716674
 20
-1641.9105200581923
 30
0.0
 11
16233.64148958226
 21
-1741.9105220451563
 31
0.0
  0
LINE
  5
5D
330
17
100
AcDbEntity
  8
EL-Trim
 62
8
100
AcDbLine
 10
16233.641603959299
 20
-1639.9105220561848
 30
0.0
 11
16233.641648813064
 21
-1599.91052204329
 31
0.0
  0
LINE
  5
5E
330
17
100
AcDbEntity
  8
EL-Trim
 62
8
100
AcDbLine
 10
16234.341449750114
 20
-1640.1858474120506
 30
0.0
 11
16234.889822257712
 21
-1639.9105214558692
 31
0.0
  0
LINE
  5
5F
330
17
100
AcDbEntity
  8
EL-Trim
 62
8
100
AcDbLine
 10
16234.889823136371
 20
-1640.9105214558692
 30
0.0
 11
16234.70109313637
 21
-1640.910521244239
 31
0.0
  0
LINE
  5
60
330
17
100
AcDbEntity
  8
EL-Trim
 62
8
100
AcDbLine
 10
16234.889820015029
 20
-1641.9105194558686
 30
0.0
 11
16235.639820015029
 21
-1641.9105202968765
 31
0.0
  0
LINE
  5
61
330
17
100
AcDbEntity
  8
EL-Trim
 62
8
100
AcDbLine
 10
16234.88986711203
 20
-1599.910483912048
 30
0.0
 11
16234.889868233371
 21
-1598.9104839120498
 31
0.0
  0
LINE
  5
62
330
17
100
AcDbEntity
  8
EL-Trim
 62
8
100
AcDbLine
 10
16234.891601716612
 20
-1641.9105234578635
 30
0.0
 11
16234.891602837957
 21
-1640.9105234578635
 31
0.0
  0
LWPOLYLINE
  5
63
330
17
100
AcDbEntity
  8
EL-Trim
 62
8
100
AcDbPolyline
 90
2
 70
0
 10
16235.639820015029
 20
-1641.9105202968765
 10
16235.639707880615
 20
-1741.9105222848682
  0
LWPOLYLINE
  5
64
330
17
100
AcDbEntity
  8
EL-Trim
 62
8
100
AcDbPolyline
 90
2
 70
0
 10
16235.641603959299
 20
-1639.9105242988733
 10
16235.641603959302
 20
-1639.9105222988744
  0
LINE
  5
65
330
17
100
AcDbEntity
  8
EL-Trim
 62
8
100
AcDbLine
 10
16235.641603959299
 20
-1639.9105242988733
 30
0.0
 11
16235.641648813216
 21
-1599.9105242861822
 31
0.0
  0
LINE
  5
66
330
17
100
AcDbEntity
  8
FP-Stair
100
AcDbLine
 10
16404.64887132295
 20
-1764.4103794756468
 30
0.0
 11
16582.018278287844
 21
-1764.4101200288394
 31
0.0
  0
LINE
  5
67
330
17
100
AcDbEntity
  8
FP-Stair
100
AcDbLine
 10
16404.64887132295
 20
-1748.9103798280962
 30
0.0
 11
16583.01826090702
 21
-1748.910118907492
 31
0.0
  0
LWPOLYLINE
  5
68
330
17
100
AcDbEntity
  8
FP-Proposed Wall
100
AcDbPolyline
 90
4
 70
0
 10
16584.05651533384
 20
-1746.9107373920801
 10
16584.51647696343
 20
-1746.9107368763057
 10
16584.516471356706
 20
-1741.9107368763075
 10
16404.64887132295
 20
-1741.9109996362065
  0
LINE
  5
69
330
17
100
AcDbEntity
  8
EL-Trim
 62
8
100
AcDbLine
 10
16404.64887132295
 20
-1746.9103813646427
 30
0.0
 11
16584.056515333144
 21
-1746.9101176389609
 31
0.0
  0
LINE
  5
6A
330
17
100
AcDbEntity
  8
FP-Proposed Wall
 62
1
100
AcDbLine
 10
16404.64887132295
 20
-1641.910509542517
 30
0.0
 11
16517.917688760026
 21
-1641.9103825290813
 31
0.0
  0
LINE
  5
6B
330
17
100
AcDbEntity
  8
FP-Proposed Wall
 62
8
100
AcDbLine
 10
16516.667688759255
 20
-1599.9108341654573
 30
0.0
 11
16515.917688759255
 21
-1599.9108341654573
 31
0.0
  0
LINE
  5
6C
330
17
100
AcDbEntity
  8
FP-Proposed Wall
 62
8
100
AcDbLine
 10
16515.917688759764
 20
-1639.910834178172
 30
0.0
 11
16515.91768875961
 21
-1599.9108341654573
 31
0.0
  0
LWPOLYLINE
  5
6D
330
17
100
AcDbEntity
  8
FP-Proposed Wall
 62
8
100
AcDbPolyline
 90
2
 70
0
 10
16515.917688759764
 20
-1641.9108321781732
 10
16515.917688759764
 20
-1741.9108341662268
  0
LINE
  5
6E
330
17
100
AcDbEntity
  8
FP-Proposed Wall
 62
8
100
AcDbLine
 10
16516.667688759764
 20
-1641.9108321781732
 30
0.0
 11
16515.917688759764
 21
-1641.9108321781732
 31
0.0
  0
LINE
  5
6F
330
17
100
AcDbEntity
  8
FP-Proposed Wall
 62
8
100
AcDbLine
 10
16516.667686759254
 20
-1598.9108361654562
 30
0.0
 11
16516.856416759256
 21
-1598.9108361654562
 31
0.0
  0
LINE
  5
70
330
17
100
AcDbEntity
  8
FP-Proposed Wall
 62
8
100
AcDbLine
 10
16516.667686759763
 20
-1640.910834178172
 30
0.0
 11
16516.856416759765
 21
-1640.910834178172
 31
0.0
  0
LINE
  5
71
330
17
100
AcDbEntity
  8
FP-Proposed Wall
 62
8
100
AcDbLine
 10
16516.667688759255
 20
-1599.9108361654562
 30
0.0
 11
16516.667688759255
 21
-1598.9108361654562
 31
0.0
  0
LINE
  5
72
330
17
100
AcDbEntity
  8
FP-Proposed Wall
 62
8
100
AcDbLine
 10
16516.667688759764
 20
-1641.910834178172
 30
0.0
 11
16516.667688759764
 21
-1640.910834178172
 31
0.0
  0
LINE
  5
73
330
17
100
AcDbEntity
  8
FP-Proposed Wall
 62
8
100
AcDbLine
 10
16517.216060958628
 20
-1640.1861607492683
 30
0.0
 11
16516.667688759764
 21
-1639.910834178172
 31
0.0
  0
LINE
  5
74
330
17
100
AcDbEntity
  8
FP-Stair
100
AcDbLine
 10
16517.917688760026
 20
-1599.9116160745025
 30
0.0
 11
16517.917688760026
 21
-1741.9108341672559
 31
0.0
  0
LWPOLYLINE
  5
75
330
17
100
AcDbEntity
  8
FP-Stair
100
AcDbPolyline
 90
2
 70
0
 10
16566.113673157182
 20
-1615.813623878862
 10
16517.917688760026
 20
-1615.813623878862
  0
LINE
  5
76
330
17
100
AcDbEntity
  8
FP-Stair
100
AcDbLine
 10
16518.667688760026
 20
-1599.911616074708
 30
0.0
 11
16517.917688760026
 21
-1599.911616074708
 31
0.0
  0
LINE
  5
77
330
17
100
AcDbEntity
  8
FP-Stair
100
AcDbLine
 10
16518.667686760025
 20
-1598.911618074707
 30
0.0
 11
16518.856416760027
 21
-1598.911618074707
 31
0.0
  0
LINE
  5
78
330
17
100
AcDbEntity
  8
FP-Stair
100
AcDbLine
 10
16518.667688760026
 20
-1599.911618074707
 30
0.0
 11
16518.667688760026
 21
-1598.911618074707
 31
0.0
  0
LWPOLYLINE
  5
79
330
17
100
AcDbEntity
  8
FP-Proposed Wall
 62
8
100
AcDbPolyline
 90
4
 70
0
 10
16564.113673157175
 20
-1741.9107666817708
 10
16564.113673157182
 20
-1617.813623878862
 10
16519.917688760026
 20
-1617.813623878862
 10
16519.917688760026
 20
-1741.9108312455523
  0
LWPOLYLINE
  5
7A
330
17
100
AcDbEntity
  8
FP-Proposed Wall
 62
8
100
AcDbPolyline
 90
4
 70
0
 10
16563.113673157175
 20
-1741.9107681426226
 10
16563.113673157182
 20
-1618.813623878862
 10
16520.917688760026
 20
-1618.813623878862
 10
16520.917688760026
 20
-1741.9108297847006
  0
LWPOLYLINE
  5
7B
330
17
100
AcDbEntity
  8
FP-Proposed Wall
 62
1
100
AcDbPolyline
 90
5
 70
0
 10
16560.01570871356
 20
-1741.9107726682896
 10
16560.015680958604
 20
-1621.9116160774383
 10
16524.015680958604
 20
-1621.9116160774383
 10
16524.01570871356
 20
-1741.9107726682896
 10
16560.01570871356
 20
-1741.9107726682896
  0
LWPOLYLINE
  5
7C
330
17
100
AcDbEntity
  8
FP-Proposed Wall
 62
8
100
AcDbPolyline
 90
6
 70
0
 10
16558.515680958604
 20
-1709.047208100138
 10
16558.515680958604
 20
-1623.4116160774383
 10
16525.515680958604
 20
-1623.4116160774383
 10
16525.51570871356
 20
-1740.4107726682896
 10
16558.51570871356
 20
-1740.4107726682896
 10
16558.515680958604
 20
-1709.047208100138
  0
LWPOLYLINE
  5
7D
330
17
100
AcDbEntity
  8
FP-Proposed Wall
 62
8
100
AcDbPolyline
 90
6
 70
0
 10
16557.515680958604
 20
-1709.047208100138
 10
16557.515680958604
 20
-1624.4116160774383
 10
16526.515680958604
 20
-1624.4116160774383
 10
16526.51570871356
 20
-1739.4107726682896
 10
16557.51570871356
 20
-1739.4107726682896
 10
16557.515680958604
 20
-1709.047208100138
  0
LINE
  5
7E
330
17
100
AcDbEntity
  8
FP-Hatch
100
AcDbLine
 10
16526.515680958604
 20
-1720.4116160714502
 30
0.0
 11
16557.515680958604
 21
-1720.4116160714502
 31
0.0
  0
LINE
  5
7F
330
17
100
AcDbEntity
  8
FP-Hatch
100
AcDbLine
 10
16526.515680958604
 20
-1704.4116160714502
 30
0.0
 11
16557.515680958604
 21
-1704.4116160714502
 31
0.0
  0
LINE
  5
80
330
17
100
AcDbEntity
  8
FP-Hatch
100
AcDbLine
 10
16526.515680958604
 20
-1688.4116160714502
 30
0.0
 11
16557.515680958604
 21
-1688.4116160714502
 31
0.0
  0
LINE
  5
81
330
17
100
AcDbEntity
  8
FP-Hatch
100
AcDbLine
 10
16526.515680958604
 20
-1672.4116160714502
 30
0.0
 11
16557.515680958604
 21
-1672.4116160714502
 31
0.0
  0
LINE
  5
82
330
17
100
AcDbEntity
  8
FP-Hatch
100
AcDbLine
 10
16526.515680958604
 20
-1656.4116160714502
 30
0.0
 11
16557.515680958604
 21
-1656.4116160714502
 31
0.0
  0
LINE
  5
83
330
17
100
AcDbEntity
  8
FP-Hatch
100
AcDbLine
 10
16526.515680958604
 20
-1640.4116160714502
 30
0.0
 11
16557.515680958604
 21
-1640.4116160714502
 31
0.0
  0
LINE
  5
84
330
17
100
AcDbEntity
  8
FP-Hatch
100
AcDbLine
 10
16542.015680958604
 20
-1624.4116160774383
 30
0.0
 11
16542.01570871356
 21
-1739.4107726682896
 31
0.0
  0
LINE
  5
85
330
17
100
AcDbEntity
  8
FP-Stair
100
AcDbLine
 10
16565.363675157183
 20
-1598.911618074707
 30
0.0
 11
16565.17494515718
 21
-1598.911618074707
 31
0.0
  0
LINE
  5
86
330
17
100
AcDbEntity
  8
FP-Stair
100
AcDbLine
 10
16565.363673157182
 20
-1599.911618074707
 30
0.0
 11
16565.363673157182
 21
-1598.911618074707
 31
0.0
  0
LINE
  5
87
330
17
100
AcDbEntity
  8
FP-Stair
100
AcDbLine
 10
16565.363673157182
 20
-1599.911616074708
 30
0.0
 11
16566.113673157182
 21
-1599.911616074708
 31
0.0
  0
LINE
  5
88
330
17
100
AcDbEntity
  8
FP-Stair
100
AcDbLine
 10
16566.113673157175
 20
-1741.9107637600673
 30
0.0
 11
16566.113673157182
 21
-1599.9116160745025
 31
0.0
  0
LINE
  5
89
330
17
100
AcDbEntity
  8
FP-Proposed Wall
100
AcDbLine
 10
16566.113673157182
 20
-1641.9103284847492
 30
0.0
 11
16583.015624891454
 21
-1641.91047397845
 31
0.0
  0
LINE
  5
8A
330
17
100
AcDbEntity
  8
EL-Trim
 62
8
100
AcDbLine
 10
16566.113673157182
 20
-1640.911355877967
 30
0.0
 11
16583.765623771098
 21
-1640.9113558779663
 31
0.0
  0
LINE
  5
8B
330
17
100
AcDbEntity
  8
EL-Trim
 62
8
100
AcDbLine
 10
16566.113673157182
 20
-1640.6613558779711
 30
0.0
 11
16584.183355649453
 21
-1640.6613558779718
 31
0.0
  0
LINE
  5
8C
330
17
100
AcDbEntity
  8
FP-Stair
100
AcDbLine
 10
16566.113673157182
 20
-1639.9105095425018
 30
0.0
 11
16583.015622648807
 21
-1639.9105103835905
 31
0.0
  0
LINE
  5
8D
330
17
100
AcDbEntity
  8
EL-Trim
 62
8
100
AcDbLine
 10
16573.139657037038
 20
-1641.9104850509314
 30
0.0
 11
16572.389657037038
 21
-1641.9104858919393
 31
0.0
  0
LINE
  5
8E
330
17
100
AcDbEntity
  8
EL-Trim
 62
8
100
AcDbLine
 10
16572.391436495942
 20
-1639.9104858899439
 30
0.0
 11
16572.391391642024
 21
-1599.9104858772528
 31
0.0
  0
LWPOLYLINE
  5
8F
330
17
100
AcDbEntity
  8
EL-Trim
 62
8
100
AcDbPolyline
 90
2
 70
0
 10
16572.391436495942
 20
-1639.9104858899439
 10
16572.39143649594
 20
-1639.910483889945
  0
LWPOLYLINE
  5
90
330
17
100
AcDbEntity
  8
EL-Trim
 62
8
100
AcDbPolyline
 90
2
 70
0
 10
16572.391438738625
 20
-1641.9104838899432
 10
16572.39155087304
 20
-1741.910485877935
  0
LINE
  5
91
330
17
100
AcDbEntity
  8
EL-Trim
 62
8
100
AcDbLine
 10
16573.139653915696
 20
-1640.910487050932
 30
0.0
 11
16573.328383915697
 21
-1640.9104868393017
 31
0.0
  0
LINE
  5
92
330
17
100
AcDbEntity
  8
EL-Trim
 62
8
100
AcDbLine
 10
16573.688027301952
 20
-1640.1858130071134
 30
0.0
 11
16573.139654794355
 21
-1639.910487050932
 31
0.0
  0
LINE
  5
93
330
17
100
AcDbEntity
  8
EL-Trim
 62
8
100
AcDbLine
 10
16573.141391641624
 20
-1599.9104475051147
 30
0.0
 11
16573.141390520283
 21
-1598.9104475051165
 31
0.0
  0
LINE
  5
94
330
17
100
AcDbEntity
  8
EL-Trim
 62
8
100
AcDbLine
 10
16573.14143873863
 20
-1641.910485048934
 30
0.0
 11
16573.141437617283
 21
-1640.910485048934
 31
0.0
  0
LINE
  5
95
330
17
100
AcDbEntity
  8
EL-Trim
 62
8
100
AcDbLine
 10
16574.391436495942
 20
-1639.9104836472554
 30
0.0
 11
16574.391391642177
 21
-1599.9104836343606
 31
0.0
  0
LINE
  5
96
330
17
100
AcDbEntity
  8
EL-Trim
 62
8
100
AcDbLine
 10
16574.391438738567
 20
-1641.910481649263
 30
0.0
 11
16574.39155087298
 21
-1741.910483636227
 31
0.0
  0
LINE
  5
97
330
17
100
AcDbEntity
  8
EL-Trim
 62
8
100
AcDbLine
 10
16575.139653915696
 20
-1640.9104848082454
 30
0.0
 11
16575.328383915697
 21
-1640.9104845966133
 31
0.0
  0
LINE
  5
98
330
17
100
AcDbEntity
  8
EL-Trim
 62
8
100
AcDbLine
 10
16575.688027301952
 20
-1640.185810764425
 30
0.0
 11
16575.139654794355
 21
-1639.9104848082436
 31
0.0
  0
LINE
  5
99
330
17
100
AcDbEntity
  8
EL-Trim
 62
8
100
AcDbLine
 10
16575.13965703704
 20
-1641.9104848082418
 30
0.0
 11
16575.139655915696
 21
-1640.9104848082418
 31
0.0
  0
LINE
  5
9A
330
17
100
AcDbEntity
  8
EL-Trim
 62
8
100
AcDbLine
 10
16575.141391642133
 20
-1599.910445262428
 30
0.0
 11
16575.141390520792
 21
-1598.910445262428
 31
0.0
  0
LWPOLYLINE
  5
9B
330
17
100
AcDbEntity
  8
FP-Proposed Wall
 62
1
100
AcDbPolyline
 90
4
 70
0
 38
-12.218747285821806
 10
16596.0152846631
 20
-1746.9118092627557
 10
16596.475246292688
 20
-1746.9118087469813
 10
16596.47524068597
 20
-1741.911808746983
 10
16579.82327818887
 20
-1741.9118884860643
  0
LWPOLYLINE
  5
9C
330
17
100
AcDbEntity
  8
FP-Proposed Wall
100
AcDbPolyline
 90
2
 70
0
 10
16582.018278288502
 20
-1764.4107072104239
 10
16582.018285016566
 20
-1770.4107072104202
  0
LINE
  5
9D
330
17
100
AcDbEntity
  8
FP-Proposed Wall
100
AcDbLine
 10
16582.018278288502
 20
-1764.4107072104239
 30
0.0
 11
16583.01827828851
 21
-1764.4107060890715
 31
0.0
  0
LINE
  5
9E
330
17
100
AcDbEntity
  8
FP-Footing
100
AcDbLine
 10
16582.018285017657
 20
-1770.4116792041946
 30
0.0
 11
16582.01828501766
 21
-1881.9116792041964
 31
0.0
  0
LINE
  5
9F
330
17
100
AcDbEntity
  8
FP-Proposed Wall
 62
1
100
AcDbLine
 10
16601.726927254495
 20
-1623.910464407514
 30
8.253141918995453
 11
16582.97687932442
 21
-1623.9104854327709
 31
-2.0961010704922955e-13
  0
LINE
  5
A0
330
17
100
AcDbEntity
  8
EL-Trim
 62
8
100
AcDbLine
 10
16600.726928095475
 20
-1624.6604779421602
 30
8.253141918995455
 11
16582.97688016543
 21
-1624.6604978460753
 31
-5.666578317686799e-12
  0
LINE
  5
A1
330
17
100
AcDbEntity
  8
EL-Trim
 62
8
100
AcDbLine
 10
16598.601929328626
 20
-1626.7854679117129
 30
8.593445095552482
 11
16582.976882548257
 21
-1626.7854679117129
 31
-1.1191048088221578e-12
  0
LINE
  5
A2
330
17
100
AcDbEntity
  8
EL-Trim
 62
8
100
AcDbLine
 10
16595.726932861216
 20
-1628.9104711355756
 30
8.253141918995453
 11
16582.97688493112
 21
-1628.9104711355756
 31
-1.1191048088221578e-12
  0
LINE
  5
A3
330
17
100
AcDbEntity
  8
FP-Proposed Wall
100
AcDbLine
 10
16583.015622648767
 20
-1639.9104739784536
 30
0.0
 11
16583.015577795002
 21
-1599.9104759762588
 31
0.0
  0
LINE
  5
A4
330
17
100
AcDbEntity
  8
FP-Proposed Wall
100
AcDbLine
 10
16583.765622648763
 20
-1639.9104731355667
 30
0.0
 11
16583.015622648807
 21
-1639.9105103835905
 31
0.0
  0
LINE
  5
A5
330
17
100
AcDbEntity
  8
FP-Proposed Wall
100
AcDbLine
 10
16583.01573702586
 20
-1741.910473965486
 30
0.0
 11
16583.015624891454
 21
-1641.91047397845
 31
0.0
  0
LINE
  5
A6
330
17
100
AcDbEntity
  8
FP-Proposed Wall
100
AcDbLine
 10
16583.015624891454
 20
-1641.91047397845
 30
0.0
 11
16583.765624891457
 21
-1641.9104804345254
 31
0.0
  0
LINE
  5
A7
330
17
100
AcDbEntity
  8
FP-Proposed Wall
100
AcDbLine
 10
16583.01827828851
 20
-1764.4107060890715
 30
0.0
 11
16583.01826090768
 21
-1748.9107060890697
 31
0.0
  0
LINE
  5
A8
330
17
100
AcDbEntity
  8
FP-Proposed Wall
100
AcDbLine
 10
16584.056517576493
 20
-1748.9107049248255
 30
0.0
 11
16583.01826090768
 21
-1748.9107060890697
 31
0.0
  0
LWPOLYLINE
  5
A9
330
17
100
AcDbEntity
  8
EL-Trim
 62
8
100
AcDbPolyline
 90
2
 70
0
 38
-12.218747285821806
 10
16593.977047617813
 20
-1764.4118168110488
 10
16583.01827828977
 20
-1764.4118290995975
  0
LINE
  5
AA
330
17
100
AcDbEntity
  8
FP-Proposed Wall
 62
1
100
AcDbLine
 10
16583.7268972659
 20
-1639.9104731355671
 30
-1.1191048088221578e-12
 11
16594.97694519601
 21
-1639.910473978454
 31
8.253141918995453
  0
LINE
  5
AB
330
17
100
AcDbEntity
  8
FP-Hatch
100
AcDbLine
 10
16583.726899508598
 20
-1641.9104865936777
 30
-2.9380942123680143e-12
 11
16594.976947438692
 21
-1641.9104739784505
 31
8.253141918995453
  0
LINE
  5
AC
330
17
100
AcDbEntity
  8
FP-Proposed Wall
100
AcDbLine
 10
16583.765583187822
 20
-1599.9104314482731
 30
0.0
 11
16583.765582066477
 21
-1598.910431448275
 31
0.0
  0
LWPOLYLINE
  5
AD
330
17
100
AcDbEntity
  8
FP-Proposed Wall
100
AcDbPolyline
 90
2
 70
0
 10
16583.765582066477
 20
-1598.910431448275
 10
16583.954310110756
 20
-1598.9102821687197
  0
LINE
  5
AE
330
17
100
AcDbEntity
  8
FP-Proposed Wall
100
AcDbLine
 10
16583.765621770104
 20
-1640.9104731355685
 30
0.0
 11
16583.954351770106
 21
-1640.9104729239382
 31
0.0
  0
LINE
  5
AF
330
17
100
AcDbEntity
  8
FP-Proposed Wall
100
AcDbLine
 10
16584.31399515636
 20
-1640.18579909175
 30
0.0
 11
16583.765622648763
 21
-1639.9104731355667
 31
0.0
  0
LINE
  5
B0
330
17
100
AcDbEntity
  8
FP-Proposed Wall
100
AcDbLine
 10
16583.76562489145
 20
-1641.9104731355649
 30
0.0
 11
16583.765623770105
 21
-1640.9104731355667
 31
0.0
  0
LINE
  5
B1
330
17
100
AcDbEntity
  8
FP-Hatch
100
AcDbLine
 10
16583.91562650235
 20
-1640.9107125451417
 30
2.8698883482753472
 11
16595.726946318333
 21
-1640.9113558779668
 31
8.253141918995453
  0
LINE
  5
B2
330
17
100
AcDbEntity
  8
FP-Proposed Wall
100
AcDbLine
 10
16584.056515333803
 20
-1746.9107049248273
 30
0.0
 11
16584.056517576493
 21
-1748.9107049248255
 31
0.0
  0
LWPOLYLINE
  5
B3
330
17
100
AcDbEntity
  8
EL-Trim
 62
8
100
AcDbPolyline
 90
2
 70
0
 38
-12.218747285821806
 10
16594.97703023572
 20
-1748.9106926791758
 10
16584.056517576493
 20
-1748.9107049248255
  0
LINE
  5
B4
330
17
100
AcDbEntity
  8
FP-Hatch
100
AcDbLine
 10
16584.14463026659
 20
-1640.6613558779723
 30
-1.1191048088221578e-12
 11
16596.14467819669
 21
-1640.6613558779723
 31
8.253141918995453
  0
LINE
  5
B5
330
17
100
AcDbEntity
  8
FP-Hatch
100
AcDbLine
 10
16585.100929124725
 20
-1641.910466375563
 30
-1.120881165661558e-12
 11
16584.350929124725
 21
-1641.9104672165709
 31
-1.120881165661558e-12
  0
LWPOLYLINE
  5
B6
330
17
100
AcDbEntity
  8
FP-Hatch
100
AcDbPolyline
 90
2
 70
0
 10
16584.352710826315
 20
-1641.9104652145747
 10
16584.352822960725
 20
-1741.9104672025665
  0
LWPOLYLINE
  5
B7
330
17
100
AcDbEntity
  8
EL-Trim
 62
8
100
AcDbPolyline
 90
2
 70
0
 38
-12.218747285821806
 10
16596.015284661185
 20
-1746.910104229053
 10
16584.51647696273
 20
-1746.910117123185
  0
LINE
  5
B8
330
17
100
AcDbEntity
  8
FP-Hatch
100
AcDbLine
 10
16585.100926003382
 20
-1640.9104683755636
 30
-1.120881165661558e-12
 11
16585.289656003384
 21
-1640.9104681639333
 31
-1.120881165661558e-12
  0
LINE
  5
B9
330
17
100
AcDbEntity
  8
FP-Hatch
100
AcDbLine
 10
16585.64929938964
 20
-1640.185794331745
 30
-1.120881165661558e-12
 11
16585.10092688204
 21
-1639.9104683755636
 31
-1.120881165661558e-12
  0
LINE
  5
BA
330
17
100
AcDbEntity
  8
FP-Hatch
100
AcDbLine
 10
16585.102710826315
 20
-1641.9104663735657
 30
-1.120881165661558e-12
 11
16585.102709704974
 21
-1640.9104663735657
 31
-1.120881165661558e-12
  0
LINE
  5
BB
330
17
100
AcDbEntity
  8
EL-Trim
 62
8
100
AcDbLine
 10
16585.10274047398
 20
-1628.910460071408
 30
8.253141918995453
 11
16585.102752808772
 21
-1639.9104620713995
 31
8.253141918995453
  0
LINE
  5
BC
330
17
100
AcDbEntity
  8
EL-Trim
 62
8
100
AcDbLine
 10
16585.60274047398
 20
-1628.9104595107353
 30
8.253141918995453
 11
16585.10274047398
 21
-1628.910460071408
 31
8.253141918995453
  0
LINE
  5
BD
330
17
100
AcDbEntity
  8
FP-Hatch
100
AcDbLine
 10
16586.352710826257
 20
-1641.9104629738945
 30
-1.120881165661558e-12
 11
16586.352822960667
 21
-1741.9104649608585
 31
-1.120881165661558e-12
  0
LINE
  5
BE
330
17
100
AcDbEntity
  8
EL-Trim
 62
8
100
AcDbLine
 10
16586.977738091126
 20
-1626.785457968889
 30
8.253141918995453
 11
16586.977738651796
 21
-1627.285457968889
 31
8.253141918995453
  0
LINE
  5
BF
330
17
100
AcDbEntity
  8
FP-Hatch
100
AcDbLine
 10
16587.100926003382
 20
-1640.910466132877
 30
-1.120881165661558e-12
 11
16587.289656003384
 21
-1640.9104659212448
 31
-1.120881165661558e-12
  0
LINE
  5
C0
330
17
100
AcDbEntity
  8
FP-Hatch
100
AcDbLine
 10
16587.64929938964
 20
-1640.1857920890566
 30
-1.120881165661558e-12
 11
16587.10092688204
 21
-1639.9104661328752
 31
-1.120881165661558e-12
  0
LINE
  5
C1
330
17
100
AcDbEntity
  8
FP-Hatch
100
AcDbLine
 10
16587.100929124732
 20
-1641.9104661328734
 30
-1.120881165661558e-12
 11
16587.100928003383
 21
-1640.9104661328734
 31
-1.120881165661558e-12
  0
LINE
  5
C2
330
17
100
AcDbEntity
  8
EL-Trim
 62
8
100
AcDbLine
 10
16587.10274047449
 20
-1628.9104578287195
 30
8.253141918995453
 11
16587.10275280928
 21
-1639.910459828711
 31
8.253141918995453
  0
LINE
  5
C3
330
17
100
AcDbEntity
  8
EL-Trim
 62
8
100
AcDbLine
 10
16587.60274047449
 20
-1628.910457268047
 30
8.253141918995453
 11
16587.10274047449
 21
-1628.9104578287195
 31
8.253141918995453
  0
LINE
  5
C4
330
17
100
AcDbEntity
  8
FP-Footing
100
AcDbLine
 10
16588.018285017657
 20
-1881.9116792041964
 30
0.0
 11
16588.018285017657
 21
-1889.9116792041964
 31
0.0
  0
LINE
  5
C5
330
17
100
AcDbEntity
  8
EL-Trim
 62
8
100
AcDbLine
 10
16588.977738091635
 20
-1626.7854557262006
 30
8.253141918995453
 11
16588.977738652306
 21
-1627.2854557262006
 31
8.253141918995453
  0
LINE
  5
C6
330
17
100
AcDbEntity
  8
EL-Trim
 62
8
100
AcDbLine
 10
16588.98033637079
 20
-1623.9104557232847
 30
8.253141918995453
 11
16588.980337211797
 21
-1624.6604557232847
 31
8.253141918995453
  0
LINE
  5
C7
330
17
100
AcDbEntity
  8
EL-Trim
 62
8
100
AcDbLine
 10
16590.9803363713
 20
-1623.910453480598
 30
8.253141918995453
 11
16590.980337212306
 21
-1624.6604534805963
 31
8.253141918995453
  0
LWPOLYLINE
  5
C8
330
17
100
AcDbEntity
  8
FP-Proposed Wall
 62
1
100
AcDbPolyline
 90
2
 70
0
 38
-12.218747285821806
 10
16593.977047617806
 20
-1764.4118115483523
 10
16593.97705434587
 20
-1770.4118115483486
  0
LINE
  5
C9
330
17
100
AcDbEntity
  8
FP-Proposed Wall
 62
1
100
AcDbLine
 10
16593.977047617806
 20
-1764.4118115483652
 30
-12.218747285821806
 11
16594.977047617806
 21
-1764.4118104269999
 31
-12.218747285821806
  0
LINE
  5
CA
330
17
100
AcDbEntity
  8
FP-Footing
100
AcDbLine
 10
16593.977054346957
 20
-1770.412783542123
 30
-12.218747285821806
 11
16593.977054346964
 21
-1881.9127835421248
 31
-12.218747285821806
  0
LINE
  5
CB
330
17
100
AcDbEntity
  8
FP-Proposed Wall
 62
1
100
AcDbLine
 10
16594.975184334526
 20
-1639.910480280668
 30
-1.1191048088221578e-12
 11
16595.72511926877
 21
-1639.9104794397294
 31
-1.1191048088221578e-12
  0
LINE
  5
CC
330
17
100
AcDbEntity
  8
FP-Proposed Wall
 62
1
100
AcDbLine
 10
16594.976906944197
 20
-1741.9115783034206
 30
-12.218747285821806
 11
16594.976947438696
 21
-1641.910473978445
 31
8.253141918996569
  0
LINE
  5
CD
330
17
100
AcDbEntity
  8
FP-Proposed Wall
 62
1
100
AcDbLine
 10
16594.97694519601
 20
-1639.910473978454
 30
8.253141918995453
 11
16595.726945196002
 21
-1639.9104731355671
 31
8.253141918995453
  0
LINE
  5
CE
330
17
100
AcDbEntity
  8
FP-Proposed Wall
 62
1
100
AcDbLine
 10
16594.976947438692
 20
-1641.9104739784505
 30
8.253141918995453
 11
16595.72694743852
 21
-1641.9103204743064
 31
8.253141918995453
  0
LINE
  5
CF
330
17
100
AcDbEntity
  8
FP-Proposed Wall
 62
1
100
AcDbLine
 10
16594.977047617806
 20
-1764.4118104269999
 30
-12.218747285821806
 11
16594.977030236976
 21
-1748.911810426998
 31
-12.218747285821806
  0
LINE
  5
D0
330
17
100
AcDbEntity
  8
FP-Proposed Wall
 62
1
100
AcDbLine
 10
16596.01528690579
 20
-1748.9118092627539
 30
-12.218747285821806
 11
16594.977030236976
 21
-1748.9118092627539
 31
-12.218747285821806
  0
LINE
  5
D1
330
17
100
AcDbEntity
  8
FP-Proposed Wall
 62
1
100
AcDbLine
 10
16595.726932861216
 20
-1628.9104711355756
 30
8.253141918995453
 11
16595.726945196002
 21
-1639.9104731355671
 31
8.253141918995453
  0
LINE
  5
D2
330
17
100
AcDbEntity
  8
FP-Proposed Wall
 62
1
100
AcDbLine
 10
16596.726932861216
 20
-1628.9104700142304
 30
8.253141918995453
 11
16595.726932861216
 21
-1628.9104711355756
 31
8.253141918995453
  0
LINE
  5
D3
330
17
100
AcDbEntity
  8
FP-Proposed Wall
 62
1
100
AcDbLine
 10
16595.726944317343
 20
-1640.910473135569
 30
8.253141918995453
 11
16595.915674317344
 21
-1640.9104729239386
 31
8.253141918995453
  0
LINE
  5
D4
330
17
100
AcDbEntity
  8
FP-Proposed Wall
 62
1
100
AcDbLine
 10
16596.2753177036
 20
-1640.1857990917504
 30
8.253141918995453
 11
16595.726945196002
 21
-1639.9104731355671
 31
8.253141918995453
  0
LINE
  5
D5
330
17
100
AcDbEntity
  8
FP-Proposed Wall
 62
1
100
AcDbLine
 10
16595.726947438692
 20
-1641.9104731355653
 30
8.253141918995453
 11
16595.726946317343
 21
-1640.9104731355671
 31
8.253141918995453
  0
LINE
  5
D6
330
17
100
AcDbEntity
  8
FP-Proposed Wall
 62
1
100
AcDbLine
 10
16596.0152846631
 20
-1746.9118092627557
 30
-12.218747285821806
 11
16596.01528690579
 21
-1748.9118092627539
 31
-12.218747285821806
  0
LINE
  5
D7
330
17
100
AcDbEntity
  8
FP-Proposed Wall
 62
1
100
AcDbLine
 10
16598.601930478362
 20
-1626.7854679117115
 30
8.253141918995453
 11
16598.601931039033
 21
-1627.2854679117115
 31
8.253141918995453
  0
LINE
  5
D8
330
17
100
AcDbEntity
  8
FP-Footing
100
AcDbLine
 10
16599.977054346957
 20
-1881.9127835421248
 30
-12.218747285821806
 11
16599.977054346957
 21
-1889.9127835421248
 31
-12.218747285821806
  0
LINE
  5
D9
330
17
100
AcDbEntity
  8
FP-Proposed Wall
 62
1
100
AcDbLine
 10
16600.726928095475
 20
-1624.6604779421602
 30
8.253141918995455
 11
16601.726928095522
 21
-1624.6604826623704
 31
8.253141918995455
  0
LINE
  5
DA
330
17
100
AcDbEntity
  8
FP-Proposed Wall
 62
1
100
AcDbLine
 10
16601.726927254495
 20
-1623.910464407514
 30
8.253141918995453
 11
16601.7269280955
 21
-1624.660464407514
 31
8.253141918995453
  0
ENDSEC
  0
SECTION
  2
OBJECTS
  0
DICTIONARY
  5
A
330
0
100
AcDbDictionary
280
0
281
1
  3
ACAD_COLOR
350
B
  3
ACAD_GROUP
350
C
  3
ACAD_LAYOUT
350
D
  3
ACAD_MATERIAL
350
E
  3
ACAD_MLEADERSTYLE
350
F
  3
ACAD_MLINESTYLE
350
10
  3
ACAD_PLOTSETTINGS
350
11
  3
ACAD_PLOTSTYLENAME
350
12
  3
ACAD_SCALELIST
350
14
  3
ACAD_TABLESTYLE
350
15
  3
ACAD_VISUALSTYLE
350
16
  3
EZDXF_META
350
2D
  0
DICTIONARY
  5
B
330
A
100
AcDbDictionary
280
0
281
1
  0
DICTIONARY
  5
C
330
A
100
AcDbDictionary
280
0
281
1
  0
DICTIONARY
  5
D
330
A
100
AcDbDictionary
280
0
281
1
  3
Model
350
1A
  3
Layout1
350
1E
  0
DICTIONARY
  5
E
330
A
100
AcDbDictionary
280
0
281
1
  3
ByBlock
350
1F
  3
ByLayer
350
20
  3
Global
350
21
  0
DICTIONARY
  5
F
330
A
100
AcDbDictionary
280
0
281
1
  3
Standard
350
2C
  0
DICTIONARY
  5
10
330
A
100
AcDbDictionary
280
0
281
1
  3
Standard
350
22
  0
DICTIONARY
  5
11
330
A
100
AcDbDictionary
280
0
281
1
  0
ACDBDICTIONARYWDFLT
  5
12
330
A
100
AcDbDictionary
280
0
281
1
  3
Normal
350
13
100
AcDbDictionaryWithDefault
340
13
  0
ACDBPLACEHOLDER
  5
13
330
12
  0
DICTIONARY
  5
14
330
A
100
AcDbDictionary
280
0
281
1
  0
DICTIONARY
  5
15
330
A
100
AcDbDictionary
280
0
281
1
  0
DICTIONARY
  5
16
330
A
100
AcDbDictionary
280
0
281
1
  0
LAYOUT
  5
1A
330
D
100
AcDbPlotSettings
  1

  2
Adobe PDF
  4
A3
  6

 40
7.5
 41
20.0
 42
7.5
 43
20.0
 44
420.0
 45
297.0
 46
0.0
 47
0.0
 48
0.0
 49
0.0
140
0.0
141
0.0
142
1.0
143
1.0
 70
1024
 72
1
 73
0
 74
5
  7

 75
16
 76
0
 77
2
 78
300
147
1.0
148
0.0
149
0.0
100
AcDbLayout
  1
Model
 70
1
 71
0
 10
0.0
 20
0.0
 11
420.0
 21
297.0
 12
0.0
 22
0.0
 32
0.0
 14
1e+20
 24
1e+20
 34
1e+20
 15
-1e+20
 25
-1e+20
 35
-1e+20
146
0.0
 13
0.0
 23
0.0
 33
0.0
 16
1.0
 26
0.0
 36
0.0
 17
0.0
 27
1.0
 37
0.0
 76
1
330
17
  0
LAYOUT
  5
1E
330
D
100
AcDbPlotSettings
  1

  2
Adobe PDF
  4
A3
  6

 40
7.5
 41
20.0
 42
7.5
 43
20.0
 44
420.0
 45
297.0
 46
0.0
 47
0.0
 48
0.0
 49
0.0
140
0.0
141
0.0
142
1.0
143
1.0
 70
0
 72
1
 73
0
 74
5
  7

 75
16
 76
0
 77
2
 78
300
147
1.0
148
0.0
149
0.0
100
AcDbLayout
  1
Layout1
 70
1
 71
1
 10
0.0
 20
0.0
 11
420.0
 21
297.0
 12
0.0
 22
0.0
 32
0.0
 14
1e+20
 24
1e+20
 34
1e+20
 15
-1e+20
 25
-1e+20
 35
-1e+20
146
0.0
 13
0.0
 23
0.0
 33
0.0
 16
1.0
 26
0.0
 36
0.0
 17
0.0
 27
1.0
 37
0.0
 76
1
330
1B
  0
MATERIAL
  5
1F
102
{ACAD_REACTORS
330
E
102
}
330
E
100
AcDbMaterial
  1
ByBlock
  2

 70
0
 40
1.0
 71
1
 41
1.0
 91
-1023410177
 42
1.0
 72
1
  3

 73
1
 74
1
 75
1
 44
0.5
 73
0
 45
1.0
 46
1.0
 77
1
  4

 78
1
 79
1
170
1
 48
1.0
171
1
  6

172
1
173
1
174
1
140
1.0
141
1.0
175
1
  7

176
1
177
1
178
1
143
1.0
179
1
  8

270
1
271
1
272
1
145
1.0
146
1.0
273
1
  9

274
1
275
1
276
1
 42
1.0
 72
1
  3

 73
1
 74
1
 75
1
 94
63
  0
MATERIAL
  5
20
102
{ACAD_REACTORS
330
E
102
}
330
E
100
AcDbMaterial
  1
ByLayer
  2

 70
0
 40
1.0
 71
1
 41
1.0
 91
-1023410177
 42
1.0
 72
1
  3

 73
1
 74
1
 75
1
 44
0.5
 73
0
 45
1.0
 46
1.0
 77
1
  4

 78
1
 79
1
170
1
 48
1.0
171
1
  6

172
1
173
1
174
1
140
1.0
141
1.0
175
1
  7

176
1
177
1
178
1
143
1.0
179
1
  8

270
1
271
1
272
1
145
1.0
146
1.0
273
1
  9

274
1
275
1
276
1
 42
1.0
 72
1
  3

 73
1
 74
1
 75
1
 94
63
  0
MATERIAL
  5
21
102
{ACAD_REACTORS
330
E
102
}
330
E
100
AcDbMaterial
  1
Global
  2

 70
0
 40
1.0
 71
1
 41
1.0
 91
-1023410177
 42
1.0
 72
1
  3

 73
1
 74
1
 75
1
 44
0.5
 73
0
 45
1.0
 46
1.0
 77
1
  4

 78
1
 79
1
170
1
 48
1.0
171
1
  6

172
1
173
1
174
1
140
1.0
141
1.0
175
1
  7

176
1
177
1
178
1
143
1.0
179
1
  8

270
1
271
1
272
1
145
1.0
146
1.0
273
1
  9

274
1
275
1
276
1
 42
1.0
 72
1
  3

 73
1
 74
1
 75
1
 94
63
  0
MLINESTYLE
  5
22
102
{ACAD_REACTORS
330
10
102
}
330
10
100
AcDbMlineStyle
  2
Standard
 70
0
  3

 62
256
 51
90.0
 52
90.0
 71
2
 49
0.5
 62
256
  6
BYLAYER
 49
-0.5
 62
256
  6
BYLAYER
  0
MLEADERSTYLE
  5
2C
102
{ACAD_REACTORS
330
F
102
}
330
F
100
AcDbMLeaderStyle
179
2
170
2
171
1
172
0
 90
2
 40
0.0
 41
0.0
173
1
 91
-1056964608
 92
-2
290
1
 42
2.0
291
1
 43
8.0
  3
Standard
 44
4.0
300

342
29
174
1
175
1
176
0
178
1
 93
-1056964608
 45
4.0
292
0
297
0
 46
4.0
 94
-1056964608
 47
1.0
 49
1.0
140
1.0
294
1
141
0.0
177
0
142
1.0
295
0
296
0
143
3.75
271
0
272
9
273
9
  0
DICTIONARY
  5
2D
330
A
100
AcDbDictionary
281
1
  3
CREATED_BY_EZDXF
350
2E
  3
WRITTEN_BY_EZDXF
350
DD
  0
DICTIONARYVAR
  5
2E
330
2D
100
DictionaryVariables
280
0
  1
1.1.4 @ 2024-01-08T21:29:28.470110+00:00
  0
DICTIONARYVAR
  5
DD
330
2D
100
DictionaryVariables
280
0
  1
1.1.4 @ 2024-01-08T21:29:28.485816+00:00
  0
ENDSEC
  0
EOF
