  0
SECTION
  2
HEADER
  9
$ACADVER
  1
AC1027
  9
$ACADMAINTVER
 70
105
  9
$DWGCODEPAGE
  3
ANSI_1252
  9
$LASTSAVEDBY
  1
ezdxf
  9
$REQUIREDVERSIONS
160
0
  9
$INSBASE
 10
0.0
 20
0.0
 30
0.0
  9
$EXTMIN
 10
1e+20
 20
1e+20
 30
1e+20
  9
$EXTMAX
 10
-1e+20
 20
-1e+20
 30
-1e+20
  9
$LIMMIN
 10
0.0
 20
0.0
  9
$LIMMAX
 10
420.0
 20
297.0
  9
$ORTHOMODE
 70
0
  9
$REGENMODE
 70
1
  9
$FILLMODE
 70
1
  9
$QTEXTMODE
 70
0
  9
$MIRRTEXT
 70
1
  9
$LTSCALE
 40
1.0
  9
$ATTMODE
 70
1
  9
$TEXTSIZE
 40
2.5
  9
$TRACEWID
 40
1.0
  9
$TEXTSTYLE
  7
Standard
  9
$CLAYER
  8
0
  9
$CELTYPE
  6
ByLayer
  9
$CECOLOR
 62
256
  9
$CELTSCALE
 40
1.0
  9
$DISPSILH
 70
0
  9
$DIMSCALE
 40
1.0
  9
$DIMASZ
 40
2.5
  9
$DIMEXO
 40
0.625
  9
$DIMDLI
 40
3.75
  9
$DIMRND
 40
0.0
  9
$DIMDLE
 40
0.0
  9
$DIMEXE
 40
1.25
  9
$DIMTP
 40
0.0
  9
$DIMTM
 40
0.0
  9
$DIMTXT
 40
2.5
  9
$DIMCEN
 40
2.5
  9
$DIMTSZ
 40
0.0
  9
$DIMTOL
 70
0
  9
$DIMLIM
 70
0
  9
$DIMTIH
 70
0
  9
$DIMTOH
 70
0
  9
$DIMSE1
 70
0
  9
$DIMSE2
 70
0
  9
$DIMTAD
 70
1
  9
$DIMZIN
 70
8
  9
$DIMBLK
  1

  9
$DIMASO
 70
1
  9
$DIMSHO
 70
1
  9
$DIMPOST
  1

  9
$DIMAPOST
  1

  9
$DIMALT
 70
0
  9
$DIMALTD
 70
3
  9
$DIMALTF
 40
0.03937007874
  9
$DIMLFAC
 40
1.0
  9
$DIMTOFL
 70
1
  9
$DIMTVP
 40
0.0
  9
$DIMTIX
 70
0
  9
$DIMSOXD
 70
0
  9
$DIMSAH
 70
0
  9
$DIMBLK1
  1

  9
$DIMBLK2
  1

  9
$DIMSTYLE
  2
ISO-25
  9
$DIMCLRD
 70
0
  9
$DIMCLRE
 70
0
  9
$DIMCLRT
 70
0
  9
$DIMTFAC
 40
1.0
  9
$DIMGAP
 40
0.625
  9
$DIMJUST
 70
0
  9
$DIMSD1
 70
0
  9
$DIMSD2
 70
0
  9
$DIMTOLJ
 70
0
  9
$DIMTZIN
 70
8
  9
$DIMALTZ
 70
0
  9
$DIMALTTZ
 70
0
  9
$DIMUPT
 70
0
  9
$DIMDEC
 70
2
  9
$DIMTDEC
 70
2
  9
$DIMALTU
 70
2
  9
$DIMALTTD
 70
3
  9
$DIMTXSTY
  7
Standard
  9
$DIMAUNIT
 70
0
  9
$DIMADEC
 70
0
  9
$DIMALTRND
 40
0.0
  9
$DIMAZIN
 70
0
  9
$DIMDSEP
 70
44
  9
$DIMATFIT
 70
3
  9
$DIMFRAC
 70
0
  9
$DIMLDRBLK
  1

  9
$DIMLUNIT
 70
2
  9
$DIMLWD
 70
-2
  9
$DIMLWE
 70
-2
  9
$DIMTMOVE
 70
0
  9
$DIMFXL
 40
1.0
  9
$DIMFXLON
 70
0
  9
$DIMJOGANG
 40
0.785398163397
  9
$DIMTFILL
 70
0
  9
$DIMTFILLCLR
 70
0
  9
$DIMARCSYM
 70
0
  9
$DIMLTYPE
  6

  9
$DIMLTEX1
  6

  9
$DIMLTEX2
  6

  9
$DIMTXTDIRECTION
 70
0
  9
$LUNITS
 70
2
  9
$LUPREC
 70
4
  9
$SKETCHINC
 40
1.0
  9
$FILLETRAD
 40
10.0
  9
$AUNITS
 70
0
  9
$AUPREC
 70
2
  9
$MENU
  1
.
  9
$ELEVATION
 40
0.0
  9
$PELEVATION
 40
0.0
  9
$THICKNESS
 40
0.0
  9
$LIMCHECK
 70
0
  9
$CHAMFERA
 40
0.0
  9
$CHAMFERB
 40
0.0
  9
$CHAMFERC
 40
0.0
  9
$CHAMFERD
 40
0.0
  9
$SKPOLY
 70
0
  9
$TDCREATE
 40
2460319.0412962963
  9
$TDUCREATE
 40
2458532.153996898
  9
$TDUPDATE
 40
2460319.0412962963
  9
$TDUUPDATE
 40
2458532.1544311
  9
$TDINDWG
 40
0.0
  9
$TDUSRTIMER
 40
0.0
  9
$USRTIMER
 70
1
  9
$ANGBASE
 50
0.0
  9
$ANGDIR
 70
0
  9
$PDMODE
 70
0
  9
$PDSIZE
 40
0.0
  9
$PLINEWID
 40
0.0
  9
$SPLFRAME
 70
0
  9
$SPLINETYPE
 70
6
  9
$SPLINESEGS
 70
8
  9
$HANDSEED
  5
164
  9
$SURFTAB1
 70
6
  9
$SURFTAB2
 70
6
  9
$SURFTYPE
 70
6
  9
$SURFU
 70
6
  9
$SURFV
 70
6
  9
$UCSBASE
  2

  9
$UCSNAME
  2

  9
$UCSORG
 10
0.0
 20
0.0
 30
0.0
  9
$UCSXDIR
 10
1.0
 20
0.0
 30
0.0
  9
$UCSYDIR
 10
0.0
 20
1.0
 30
0.0
  9
$UCSORTHOREF
  2

  9
$UCSORTHOVIEW
 70
0
  9
$UCSORGTOP
 10
0.0
 20
0.0
 30
0.0
  9
$UCSORGBOTTOM
 10
0.0
 20
0.0
 30
0.0
  9
$UCSORGLEFT
 10
0.0
 20
0.0
 30
0.0
  9
$UCSORGRIGHT
 10
0.0
 20
0.0
 30
0.0
  9
$UCSORGFRONT
 10
0.0
 20
0.0
 30
0.0
  9
$UCSORGBACK
 10
0.0
 20
0.0
 30
0.0
  9
$PUCSBASE
  2

  9
$PUCSNAME
  2

  9
$PUCSORG
 10
0.0
 20
0.0
 30
0.0
  9
$PUCSXDIR
 10
1.0
 20
0.0
 30
0.0
  9
$PUCSYDIR
 10
0.0
 20
1.0
 30
0.0
  9
$PUCSORTHOREF
  2

  9
$PUCSORTHOVIEW
 70
0
  9
$PUCSORGTOP
 10
0.0
 20
0.0
 30
0.0
  9
$PUCSORGBOTTOM
 10
0.0
 20
0.0
 30
0.0
  9
$PUCSORGLEFT
 10
0.0
 20
0.0
 30
0.0
  9
$PUCSORGRIGHT
 10
0.0
 20
0.0
 30
0.0
  9
$PUCSORGFRONT
 10
0.0
 20
0.0
 30
0.0
  9
$PUCSORGBACK
 10
0.0
 20
0.0
 30
0.0
  9
$USERI1
 70
0
  9
$USERI2
 70
0
  9
$USERI3
 70
0
  9
$USERI4
 70
0
  9
$USERI5
 70
0
  9
$USERR1
 40
0.0
  9
$USERR2
 40
0.0
  9
$USERR3
 40
0.0
  9
$USERR4
 40
0.0
  9
$USERR5
 40
0.0
  9
$WORLDVIEW
 70
1
  9
$SHADEDGE
 70
3
  9
$SHADEDIF
 70
70
  9
$TILEMODE
 70
1
  9
$MAXACTVP
 70
64
  9
$PINSBASE
 10
0.0
 20
0.0
 30
0.0
  9
$PLIMCHECK
 70
0
  9
$PEXTMIN
 10
1e+20
 20
1e+20
 30
1e+20
  9
$PEXTMAX
 10
-1e+20
 20
-1e+20
 30
-1e+20
  9
$PLIMMIN
 10
0.0
 20
0.0
  9
$PLIMMAX
 10
420.0
 20
297.0
  9
$UNITMODE
 70
0
  9
$VISRETAIN
 70
1
  9
$PLINEGEN
 70
0
  9
$PSLTSCALE
 70
1
  9
$TREEDEPTH
 70
3020
  9
$CMLSTYLE
  2
Standard
  9
$CMLJUST
 70
0
  9
$CMLSCALE
 40
20.0
  9
$PROXYGRAPHICS
 70
1
  9
$MEASUREMENT
 70
1
  9
$CELWEIGHT
370
-1
  9
$ENDCAPS
280
0
  9
$JOINSTYLE
280
0
  9
$LWDISPLAY
290
0
  9
$INSUNITS
 70
6
  9
$HYPERLINKBASE
  1

  9
$STYLESHEET
  1

  9
$XEDIT
290
1
  9
$CEPSNTYPE
380
0
  9
$PSTYLEMODE
290
1
  9
$FINGERPRINTGUID
  2
{214983A7-D511-4557-BF26-F321F8B5A4A3}
  9
$VERSIONGUID
  2
{84CEAFCA-7D10-4C34-8B7D-D2C3485F90C7}
  9
$EXTNAMES
290
1
  9
$PSVPSCALE
 40
0.0
  9
$OLESTARTUP
290
0
  9
$SORTENTS
280
127
  9
$INDEXCTL
280
0
  9
$HIDETEXT
280
1
  9
$XCLIPFRAME
280
0
  9
$HALOGAP
280
0
  9
$OBSCOLOR
 70
257
  9
$OBSLTYPE
280
0
  9
$INTERSECTIONDISPLAY
280
0
  9
$INTERSECTIONCOLOR
 70
257
  9
$DIMASSOC
280
2
  9
$PROJECTNAME
  1

  9
$CAMERADISPLAY
290
0
  9
$LENSLENGTH
 40
50.0
  9
$CAMERAHEIGHT
 40
0.0
  9
$STEPSPERSEC
 40
24.0
  9
$STEPSIZE
 40
100.0
  9
$3DDWFPREC
 40
2.0
  9
$PSOLWIDTH
 40
0.005
  9
$PSOLHEIGHT
 40
0.08
  9
$LOFTANG1
 40
1.570796326795
  9
$LOFTANG2
 40
1.570796326795
  9
$LOFTMAG1
 40
0.0
  9
$LOFTMAG2
 40
0.0
  9
$LOFTPARAM
 70
7
  9
$LOFTNORMALS
280
1
  9
$LATITUDE
 40
37.795
  9
$LONGITUDE
 40
-122.394
  9
$NORTHDIRECTION
 40
0.0
  9
$TIMEZONE
 70
-8000
  9
$LIGHTGLYPHDISPLAY
280
1
  9
$TILEMODELIGHTSYNCH
280
1
  9
$CMATERIAL
347
20
  9
$SOLIDHIST
280
0
  9
$SHOWHIST
280
1
  9
$DWFFRAME
280
2
  9
$DGNFRAME
280
2
  9
$REALWORLDSCALE
290
1
  9
$INTERFERECOLOR
 62
256
  9
$CSHADOW
280
0
  9
$SHADOWPLANELOCATION
 40
0.0
  0
ENDSEC
  0
SECTION
  2
CLASSES
  0
CLASS
  1
ACDBDICTIONARYWDFLT
  2
AcDbDictionaryWithDefault
  3
ObjectDBX Classes
 90
0
 91
0
280
0
281
0
  0
CLASS
  1
SUN
  2
AcDbSun
  3
SCENEOE
 90
1153
 91
0
280
0
281
0
  0
CLASS
  1
VISUALSTYLE
  2
AcDbVisualStyle
  3
ObjectDBX Classes
 90
4095
 91
0
280
0
281
0
  0
CLASS
  1
MATERIAL
  2
AcDbMaterial
  3
ObjectDBX Classes
 90
1153
 91
0
280
0
281
0
  0
CLASS
  1
SCALE
  2
AcDbScale
  3
ObjectDBX Classes
 90
1153
 91
0
280
0
281
0
  0
CLASS
  1
TABLESTYLE
  2
AcDbTableStyle
  3
ObjectDBX Classes
 90
4095
 91
0
280
0
281
0
  0
CLASS
  1
MLEADERSTYLE
  2
AcDbMLeaderStyle
  3
ACDB_MLEADERSTYLE_CLASS
 90
4095
 91
0
280
0
281
0
  0
CLASS
  1
DICTIONARYVAR
  2
AcDbDictionaryVar
  3
ObjectDBX Classes
 90
0
 91
0
280
0
281
0
  0
CLASS
  1
CELLSTYLEMAP
  2
AcDbCellStyleMap
  3
ObjectDBX Classes
 90
1152
 91
0
280
0
281
0
  0
CLASS
  1
MENTALRAYRENDERSETTINGS
  2
AcDbMentalRayRenderSettings
  3
SCENEOE
 90
1024
 91
0
280
0
281
0
  0
CLASS
  1
ACDBDETAILVIEWSTYLE
  2
AcDbDetailViewStyle
  3
ObjectDBX Classes
 90
1025
 91
0
280
0
281
0
  0
CLASS
  1
ACDBSECTIONVIEWSTYLE
  2
AcDbSectionViewStyle
  3
ObjectDBX Classes
 90
1025
 91
0
280
0
281
0
  0
CLASS
  1
RASTERVARIABLES
  2
AcDbRasterVariables
  3
ISM
 90
0
 91
0
280
0
281
0
  0
CLASS
  1
LAYOUT
  2
AcDbLayout
  3
ObjectDBX Classes
 90
0
 91
0
280
0
281
0
  0
CLASS
  1
ACDBPLACEHOLDER
  2
AcDbPlaceHolder
  3
ObjectDBX Classes
 90
0
 91
0
280
0
281
0
  0
ENDSEC
  0
SECTION
  2
TABLES
  0
TABLE
  2
VPORT
  5
8
330
0
100
AcDbSymbolTable
 70
1
  0
VPORT
  5
23
330
8
100
AcDbSymbolTableRecord
100
AcDbViewportTableRecord
  2
*Active
 70
0
 10
0.0
 20
0.0
 11
1.0
 21
1.0
 12
0.0
 22
0.0
 13
0.0
 23
0.0
 14
0.5
 24
0.5
 15
0.5
 25
0.5
 16
0.0
 26
0.0
 36
1.0
 17
0.0
 27
0.0
 37
0.0
 40
1000.0
 41
1.34
 42
50.0
 43
0.0
 44
0.0
 50
0.0
 51
0.0
 71
0
 72
1000
 73
1
 74
3
 75
0
 76
0
 77
0
 78
0
281
0
 65
0
146
0.0
  0
ENDTAB
  0
TABLE
  2
LTYPE
  5
2
330
0
100
AcDbSymbolTable
 70
3
  0
LTYPE
  5
24
330
2
100
AcDbSymbolTableRecord
100
AcDbLinetypeTableRecord
  2
ByBlock
 70
0
  3

 72
65
 73
0
 40
0.0
  0
LTYPE
  5
25
330
2
100
AcDbSymbolTableRecord
100
AcDbLinetypeTableRecord
  2
ByLayer
 70
0
  3

 72
65
 73
0
 40
0.0
  0
LTYPE
  5
26
330
2
100
AcDbSymbolTableRecord
100
AcDbLinetypeTableRecord
  2
Continuous
 70
0
  3

 72
65
 73
0
 40
0.0
  0
ENDTAB
  0
TABLE
  2
LAYER
  5
1
330
0
100
AcDbSymbolTable
 70
2
  0
LAYER
  5
27
330
1
100
AcDbSymbolTableRecord
100
AcDbLayerTableRecord
  2
0
 70
0
 62
7
  6
Continuous
370
-3
390
13
347
21
  0
LAYER
  5
28
330
1
100
AcDbSymbolTableRecord
100
AcDbLayerTableRecord
  2
Defpoints
 70
0
 62
7
  6
Continuous
290
0
370
-3
390
13
347
21
  0
ENDTAB
  0
TABLE
  2
STYLE
  5
5
330
0
100
AcDbSymbolTable
 70
1
  0
STYLE
  5
29
330
5
100
AcDbSymbolTableRecord
100
AcDbTextStyleTableRecord
  2
Standard
 70
0
 40
0.0
 41
1.0
 50
0.0
 71
0
 42
2.5
  3
txt
  4

  0
ENDTAB
  0
TABLE
  2
VIEW
  5
7
330
0
100
AcDbSymbolTable
 70
0
  0
ENDTAB
  0
TABLE
  2
UCS
  5
6
330
0
100
AcDbSymbolTable
 70
0
  0
ENDTAB
  0
TABLE
  2
APPID
  5
3
330
0
100
AcDbSymbolTable
 70
3
  0
APPID
  5
2A
330
3
100
AcDbSymbolTableRecord
100
AcDbRegAppTableRecord
  2
ACAD
 70
0
  0
APPID
  5
161
330
3
100
AcDbSymbolTableRecord
100
AcDbRegAppTableRecord
  2
HATCHBACKGROUNDCOLOR
 70
0
  0
APPID
  5
162
330
3
100
AcDbSymbolTableRecord
100
AcDbRegAppTableRecord
  2
EZDXF
 70
0
  0
ENDTAB
  0
TABLE
  2
DIMSTYLE
  5
4
330
0
100
AcDbSymbolTable
 70
1
100
AcDbDimStyleTable
  0
DIMSTYLE
105
2B
330
4
100
AcDbSymbolTableRecord
100
AcDbDimStyleTableRecord
  2
Standard
 70
0
 40
1.0
 41
2.5
 42
0.625
 43
3.75
 44
1.25
 45
0.0
 46
0.0
 47
0.0
 48
0.0
 49
2.5
140
2.5
141
2.5
142
0.0
143
0.03937007874
144
1.0
145
0.0
146
1.0
147
0.625
148
0.0
 69
0
 70
0
 71
0
 72
0
 73
0
 74
0
 75
0
 76
0
 77
1
 78
8
 79
3
170
0
171
3
172
1
173
0
174
0
175
0
176
0
177
0
178
0
179
2
271
2
272
2
273
2
274
3
275
0
276
0
277
2
278
44
279
0
280
0
281
0
282
0
283
0
284
8
285
0
286
0
288
0
289
3
290
0
371
-2
372
-2
  0
ENDTAB
  0
TABLE
  2
BLOCK_RECORD
  5
9
330
0
100
AcDbSymbolTable
 70
2
  0
BLOCK_RECORD
  5
17
330
9
100
AcDbSymbolTableRecord
100
AcDbBlockTableRecord
  2
*Model_Space
340
1A
 70
0
280
1
281
0
  0
BLOCK_RECORD
  5
1B
330
9
100
AcDbSymbolTableRecord
100
AcDbBlockTableRecord
  2
*Paper_Space
340
1E
 70
0
280
1
281
0
  0
ENDTAB
  0
ENDSEC
  0
SECTION
  2
BLOCKS
  0
BLOCK
  5
18
330
17
100
AcDbEntity
  8
0
100
AcDbBlockBegin
  2
*Model_Space
 70
0
 10
0.0
 20
0.0
 30
0.0
  3
*Model_Space
  1

  0
ENDBLK
  5
19
330
17
100
AcDbEntity
  8
0
100
AcDbBlockEnd
  0
BLOCK
  5
1C
330
1B
100
AcDbEntity
  8
0
100
AcDbBlockBegin
  2
*Paper_Space
 70
0
 10
0.0
 20
0.0
 30
0.0
  3
*Paper_Space
  1

  0
ENDBLK
  5
1D
330
1B
100
AcDbEntity
  8
0
100
AcDbBlockEnd
  0
ENDSEC
  0
SECTION
  2
ENTITIES
  0
LINE
  5
2F
330
17
100
AcDbEntity
  8
FP-Footing
100
AcDbLine
 10
17294.868680211504
 20
-1881.9182125106631
 30
0.0
 11
17294.868680211504
 21
-1889.9182125106631
 31
0.0
  0
LINE
  5
30
330
17
100
AcDbEntity
  8
FP-Footing
100
AcDbLine
 10
17593.871215379233
 20
-1889.9107072104227
 30
0.0
 11
17294.868680211504
 21
-1889.9182125106631
 31
0.0
  0
LINE
  5
31
330
17
100
AcDbEntity
  8
FP-Footing
100
AcDbLine
 10
17294.868680211504
 20
-1881.9182125106631
 30
0.0
 11
17593.871215379233
 21
-1881.9107072104227
 31
0.0
  0
LWPOLYLINE
  5
32
330
17
100
AcDbEntity
  8
FP-Proposed Wall
100
AcDbPolyline
 90
4
 70
0
 10
17298.83044990265
 20
-1746.9107373920808
 10
17298.37048827306
 20
-1746.9107368763064
 10
17298.37049387978
 20
-1741.9107368763082
 10
17440.350393034496
 20
-1741.908410554088
  0
LINE
  5
33
330
17
100
AcDbEntity
  8
FP-Proposed Wall
100
AcDbLine
 10
17298.572970080128
 20
-1640.1857990917506
 30
0.0
 11
17299.121342587725
 21
-1639.9104731355674
 31
0.0
  0
LINE
  5
34
330
17
100
AcDbEntity
  8
EL-Trim
 62
8
100
AcDbLine
 10
17326.52262384011
 20
-1640.6613558779718
 30
0.0
 11
17298.703609587046
 21
-1640.6613558779736
 31
0.0
  0
LINE
  5
35
330
17
100
AcDbEntity
  8
FP-Proposed Wall
100
AcDbLine
 10
17298.830447659995
 20
-1748.9107049248262
 30
0.0
 11
17299.86870432881
 21
-1748.9107060890703
 31
0.0
  0
LINE
  5
36
330
17
100
AcDbEntity
  8
FP-Proposed Wall
100
AcDbLine
 10
17298.830449902685
 20
-1746.910704924828
 30
0.0
 11
17298.830447659995
 21
-1748.9107049248262
 31
0.0
  0
LINE
  5
37
330
17
100
AcDbEntity
  8
EL-Trim
 62
8
100
AcDbLine
 10
17440.350393034496
 20
-1746.9077920035559
 30
-24.501591741473234
 11
17298.830449903344
 21
-1746.9101176389615
 31
0.0
  0
LINE
  5
38
330
17
100
AcDbEntity
  8
FP-Proposed Wall
100
AcDbLine
 10
17299.121343466384
 20
-1640.9104731355692
 30
0.0
 11
17298.932613466382
 21
-1640.9104729239389
 31
0.0
  0
LWPOLYLINE
  5
39
330
17
100
AcDbEntity
  8
FP-Proposed Wall
100
AcDbPolyline
 90
2
 70
0
 10
17299.12138317001
 20
-1598.9104314482756
 10
17298.932655125733
 20
-1598.9102821687204
  0
LINE
  5
3A
330
17
100
AcDbEntity
  8
FP-Stair
100
AcDbLine
 10
17326.52262384011
 20
-1639.9105095425025
 30
0.0
 11
17299.12127007527
 21
-1639.910509542501
 31
0.0
  0
LINE
  5
3B
330
17
100
AcDbEntity
  8
FP-Proposed Wall
100
AcDbLine
 10
17299.121340345035
 20
-1641.9104731355656
 30
0.0
 11
17299.121341466383
 21
-1640.9104731355674
 31
0.0
  0
LINE
  5
3C
330
17
100
AcDbEntity
  8
FP-Proposed Wall
 62
1
100
AcDbLine
 10
17326.52262384011
 20
-1641.91032848475
 30
0.0
 11
17299.121340345224
 21
-1641.91030869082
 31
0.0
  0
LINE
  5
3D
330
17
100
AcDbEntity
  8
EL-Trim
 62
8
100
AcDbLine
 10
17326.52262384011
 20
-1640.9113558779677
 30
0.0
 11
17299.12134146539
 21
-1640.911355877966
 31
0.0
  0
LINE
  5
3E
330
17
100
AcDbEntity
  8
FP-Proposed Wall
 62
1
100
AcDbLine
 10
17444.37027745997
 20
-1599.9083803683845
 30
-30.343027464939198
 11
17299.121382047215
 21
-1599.9117253771344
 31
0.0
  0
LINE
  5
3F
330
17
100
AcDbEntity
  8
FP-Proposed Wall
100
AcDbLine
 10
17299.121382048663
 20
-1599.9104314482738
 30
0.0
 11
17299.12138317001
 21
-1598.9104314482756
 31
0.0
  0
LINE
  5
40
330
17
100
AcDbEntity
  8
EL-Trim
 62
8
100
AcDbLine
 10
17299.12138316856
 20
-1598.9117289299145
 30
0.0
 11
17444.37027745997
 21
-1598.9084092950445
 31
-30.085959325189382
  0
LINE
  5
41
330
17
100
AcDbEntity
  8
FP-Proposed Wall
100
AcDbLine
 10
17299.86868694798
 20
-1764.4107060890722
 30
0.0
 11
17300.868686947982
 21
-1764.4107072104161
 31
0.0
  0
LINE
  5
42
330
17
100
AcDbEntity
  8
FP-Proposed Wall
100
AcDbLine
 10
17299.86868694798
 20
-1764.4107060890722
 30
0.0
 11
17299.86870432881
 21
-1748.9107060890703
 31
0.0
  0
LINE
  5
43
330
17
100
AcDbEntity
  8
FP-Stair
100
AcDbLine
 10
17440.350393034496
 20
-1748.9077907465683
 30
-24.501591741473234
 11
17299.86870433226
 21
-1748.9076332182938
 31
-4.547473508864641e-13
  0
LINE
  5
44
330
17
100
AcDbEntity
  8
FP-Proposed Wall
100
AcDbLine
 10
17299.871228210624
 20
-1741.9104739654867
 30
0.0
 11
17299.871340345035
 21
-1641.9104739784507
 31
0.0
  0
LINE
  5
45
330
17
100
AcDbEntity
  8
FP-Proposed Wall
100
AcDbLine
 10
17299.871342587718
 20
-1639.9104739784543
 30
0.0
 11
17299.871387441486
 21
-1599.9104759762595
 31
0.0
  0
LINE
  5
46
330
17
100
AcDbEntity
  8
FP-Footing
100
AcDbLine
 10
17300.868680211504
 20
-1770.4182125106613
 30
0.0
 11
17300.8686802115
 21
-1881.9182125106631
 31
0.0
  0
LWPOLYLINE
  5
47
330
17
100
AcDbEntity
  8
FP-Proposed Wall
100
AcDbPolyline
 90
2
 70
0
 10
17300.868686947982
 20
-1764.4107072104246
 10
17300.86868021992
 20
-1770.410707210421
  0
LINE
  5
48
330
17
100
AcDbEntity
  8
FP-Stair
100
AcDbLine
 10
17440.350393034496
 20
-1764.4077903941186
 30
-24.501591741473234
 11
17300.868686947982
 21
-1764.4107072104246
 31
0.0
  0
LINE
  5
49
330
17
100
AcDbEntity
  8
EL-Trim
 62
8
100
AcDbLine
 10
17307.197156232945
 20
-1640.1858087624296
 30
0.0
 11
17307.745528740543
 21
-1639.9104828062482
 31
0.0
  0
LINE
  5
4A
330
17
100
AcDbEntity
  8
EL-Trim
 62
8
100
AcDbLine
 10
17307.745529619202
 20
-1640.91048280625
 30
0.0
 11
17307.5567996192
 21
-1640.9104825946179
 31
0.0
  0
LINE
  5
4B
330
17
100
AcDbEntity
  8
EL-Trim
 62
8
100
AcDbLine
 10
17307.74552649786
 20
-1641.9104828062464
 30
0.0
 11
17307.7455276192
 21
-1640.9104828062464
 31
0.0
  0
LINE
  5
4C
330
17
100
AcDbEntity
  8
EL-Trim
 62
8
100
AcDbLine
 10
17307.745573594355
 20
-1599.9104452624288
 30
0.0
 11
17307.745574715696
 21
-1598.9104452624288
 31
0.0
  0
LINE
  5
4D
330
17
100
AcDbEntity
  8
EL-Trim
 62
8
100
AcDbLine
 10
17308.495528740543
 20
-1639.9104836472561
 30
0.0
 11
17308.49557359431
 21
-1599.9104836343613
 31
0.0
  0
LINE
  5
4E
330
17
100
AcDbEntity
  8
EL-Trim
 62
8
100
AcDbLine
 10
17308.49730819951
 20
-1641.9104836512597
 30
0.0
 11
17308.49719606509
 21
-1741.9104856382237
 31
0.0
  0
LINE
  5
4F
330
17
100
AcDbEntity
  8
EL-Trim
 62
8
100
AcDbLine
 10
17309.197156232945
 20
-1640.185811005118
 30
0.0
 11
17309.745528740543
 21
-1639.9104850489366
 31
0.0
  0
LINE
  5
50
330
17
100
AcDbEntity
  8
EL-Trim
 62
8
100
AcDbLine
 10
17309.747311320793
 20
-1640.9104870509327
 30
0.0
 11
17309.55858132079
 21
-1640.9104868393024
 31
0.0
  0
LINE
  5
51
330
17
100
AcDbEntity
  8
EL-Trim
 62
8
100
AcDbLine
 10
17309.745573594864
 20
-1599.9104475051154
 30
0.0
 11
17309.745574716206
 21
-1598.9104475051172
 31
0.0
  0
LINE
  5
52
330
17
100
AcDbEntity
  8
EL-Trim
 62
8
100
AcDbLine
 10
17309.747308199443
 20
-1641.910487050931
 30
0.0
 11
17309.747309320792
 21
-1640.910487050931
 31
0.0
  0
LINE
  5
53
330
17
100
AcDbEntity
  8
EL-Trim
 62
8
100
AcDbLine
 10
17309.74730819945
 20
-1641.910485050932
 30
0.0
 11
17310.49730819945
 21
-1641.91048589194
 31
0.0
  0
LINE
  5
54
330
17
100
AcDbEntity
  8
EL-Trim
 62
8
100
AcDbLine
 10
17310.495528740543
 20
-1639.9104858899445
 30
0.0
 11
17310.495573594464
 21
-1599.9104858772534
 31
0.0
  0
LWPOLYLINE
  5
55
330
17
100
AcDbEntity
  8
EL-Trim
 62
8
100
AcDbPolyline
 90
2
 70
0
 10
17310.49730819945
 20
-1641.91048589194
 10
17310.497196065033
 20
-1741.9104878799317
  0
LWPOLYLINE
  5
56
330
17
100
AcDbEntity
  8
EL-Trim
 62
8
100
AcDbPolyline
 90
2
 70
0
 10
17310.497310442133
 20
-1639.9104878919406
 10
17310.497310442133
 20
-1639.9104858919418
  0
LINE
  5
57
330
17
100
AcDbEntity
  8
EL-Trim
 62
8
100
AcDbLine
 10
17324.52265086059
 20
-1639.910137611777
 30
0.0
 11
17324.52260600667
 21
-1599.9101375990856
 31
0.0
  0
LWPOLYLINE
  5
58
330
17
100
AcDbEntity
  8
EL-Trim
 62
8
100
AcDbPolyline
 90
2
 70
0
 10
17324.52265310366
 20
-1641.9104831433774
 10
17324.522765238078
 20
-1741.9104851313691
  0
LINE
  5
59
330
17
100
AcDbEntity
  8
EL-Trim
 62
8
100
AcDbLine
 10
17325.27265310366
 20
-1641.9104823023695
 30
0.0
 11
17324.52265310366
 21
-1641.9104831433774
 31
0.0
  0
LINE
  5
5A
330
17
100
AcDbEntity
  8
EL-Trim
 62
8
100
AcDbLine
 10
17325.27264998232
 20
-1640.9104843023702
 30
0.0
 11
17325.46137998232
 21
-1640.9104840907398
 31
0.0
  0
LINE
  5
5B
330
17
100
AcDbEntity
  8
EL-Trim
 62
8
100
AcDbLine
 10
17325.272653103668
 20
-1641.9104843023683
 30
0.0
 11
17325.27265198232
 21
-1640.9104843023683
 31
0.0
  0
LINE
  5
5C
330
17
100
AcDbEntity
  8
EL-Trim
 62
8
100
AcDbLine
 10
17325.273340337255
 20
-1599.9104859140366
 30
0.0
 11
17325.273339215913
 21
-1598.9104859140384
 31
0.0
  0
LINE
  5
5D
330
17
100
AcDbEntity
  8
EL-Trim
 62
8
100
AcDbLine
 10
17325.822805070165
 20
-1640.1858082565554
 30
0.0
 11
17325.274432562568
 21
-1639.910482300374
 31
0.0
  0
LWPOLYLINE
  5
5E
330
17
100
AcDbEntity
  8
FP-Stair
100
AcDbPolyline
 90
4
 70
0
 10
17326.52262384012
 20
-1741.910763760068
 10
17326.52262384011
 20
-1615.8136238788627
 10
17374.718608237265
 20
-1615.8136238788627
 10
17374.718608237265
 20
-1741.9108341672566
  0
LINE
  5
5F
330
17
100
AcDbEntity
  8
FP-Stair
100
AcDbLine
 10
17326.52262384011
 20
-1615.8136238788545
 30
0.0
 11
17326.52438770841
 21
-1599.9101333541973
 31
0.0
  0
LINE
  5
60
330
17
100
AcDbEntity
  8
FP-Stair
100
AcDbLine
 10
17327.273340337764
 20
-1599.91048367135
 30
0.0
 11
17327.273339216423
 21
-1598.91048367135
 31
0.0
  0
LWPOLYLINE
  5
61
330
17
100
AcDbEntity
  8
FP-Proposed Wall
 62
8
100
AcDbPolyline
 90
4
 70
0
 10
17328.52262384012
 20
-1741.9107666817715
 10
17328.52262384011
 20
-1617.8136238788627
 10
17372.718608237265
 20
-1617.8136238788627
 10
17372.718608237265
 20
-1741.910831245553
  0
LWPOLYLINE
  5
62
330
17
100
AcDbEntity
  8
FP-Proposed Wall
 62
8
100
AcDbPolyline
 90
4
 70
0
 10
17329.52262384012
 20
-1741.9107681426233
 10
17329.52262384011
 20
-1618.8136238788627
 10
17371.718608237265
 20
-1618.8136238788627
 10
17371.718608237265
 20
-1741.9108297847013
  0
LWPOLYLINE
  5
63
330
17
100
AcDbEntity
  8
FP-Proposed Wall
 62
1
100
AcDbPolyline
 90
5
 70
0
 10
17332.620588283735
 20
-1741.9107726682903
 10
17332.620616038686
 20
-1621.911616077439
 10
17368.620616038686
 20
-1621.911616077439
 10
17368.620588283735
 20
-1741.9107726682903
 10
17332.620588283735
 20
-1741.9107726682903
  0
LWPOLYLINE
  5
64
330
17
100
AcDbEntity
  8
FP-Proposed Wall
 62
8
100
AcDbPolyline
 90
6
 70
0
 10
17334.120616038686
 20
-1709.0472081001387
 10
17334.120616038686
 20
-1623.411616077439
 10
17367.120616038686
 20
-1623.411616077439
 10
17367.120588283735
 20
-1740.4107726682903
 10
17334.120588283735
 20
-1740.4107726682903
 10
17334.120616038686
 20
-1709.0472081001387
  0
LWPOLYLINE
  5
65
330
17
100
AcDbEntity
  8
FP-Proposed Wall
 62
8
100
AcDbPolyline
 90
6
 70
0
 10
17335.120616038686
 20
-1709.0472081001387
 10
17335.120616038686
 20
-1624.411616077439
 10
17366.120616038686
 20
-1624.411616077439
 10
17366.120588283735
 20
-1739.4107726682903
 10
17335.120588283735
 20
-1739.4107726682903
 10
17335.120616038686
 20
-1709.0472081001387
  0
LINE
  5
66
330
17
100
AcDbEntity
  8
FP-Hatch
100
AcDbLine
 10
17366.120616038686
 20
-1720.411616071451
 30
0.0
 11
17335.120616038686
 21
-1720.411616071451
 31
0.0
  0
LINE
  5
67
330
17
100
AcDbEntity
  8
FP-Hatch
100
AcDbLine
 10
17366.120616038686
 20
-1704.411616071451
 30
0.0
 11
17335.120616038686
 21
-1704.411616071451
 31
0.0
  0
LINE
  5
68
330
17
100
AcDbEntity
  8
FP-Hatch
100
AcDbLine
 10
17366.120616038686
 20
-1688.411616071451
 30
0.0
 11
17335.120616038686
 21
-1688.411616071451
 31
0.0
  0
LINE
  5
69
330
17
100
AcDbEntity
  8
FP-Hatch
100
AcDbLine
 10
17366.120616038686
 20
-1672.411616071451
 30
0.0
 11
17335.120616038686
 21
-1672.411616071451
 31
0.0
  0
LINE
  5
6A
330
17
100
AcDbEntity
  8
FP-Hatch
100
AcDbLine
 10
17366.120616038686
 20
-1656.411616071451
 30
0.0
 11
17335.120616038686
 21
-1656.411616071451
 31
0.0
  0
LINE
  5
6B
330
17
100
AcDbEntity
  8
FP-Hatch
100
AcDbLine
 10
17366.120616038686
 20
-1640.411616071451
 30
0.0
 11
17335.120616038686
 21
-1640.411616071451
 31
0.0
  0
LINE
  5
6C
330
17
100
AcDbEntity
  8
FP-Hatch
100
AcDbLine
 10
17350.620616038686
 20
-1624.411616077439
 30
0.0
 11
17350.620588283735
 21
-1739.4107726682903
 31
0.0
  0
LINE
  5
6D
330
17
100
AcDbEntity
  8
FP-Stair
100
AcDbLine
 10
17373.96789173961
 20
-1599.91048367135
 30
0.0
 11
17373.96789286095
 21
-1598.91048367135
 31
0.0
  0
LINE
  5
6E
330
17
100
AcDbEntity
  8
FP-Stair
100
AcDbLine
 10
17374.718608237265
 20
-1615.8136238788545
 30
0.0
 11
17374.716844368962
 21
-1599.9101333541973
 31
0.0
  0
LINE
  5
6F
330
17
100
AcDbEntity
  8
FP-Proposed Wall
 62
1
100
AcDbLine
 10
17480.393032344164
 20
-1641.9101371912711
 30
-23.562462567328257
 11
17374.718608237265
 21
-1641.910382529082
 31
0.0
  0
LINE
  5
70
330
17
100
AcDbEntity
  8
EL-Trim
 62
8
100
AcDbLine
 10
17480.992469212346
 20
-1640.9110490221697
 30
-23.786243734705685
 11
17374.718608237265
 21
-1640.9113558779725
 31
0.0
  0
LINE
  5
71
330
17
100
AcDbEntity
  8
EL-Trim
 62
8
100
AcDbLine
 10
17481.1424686828
 20
-1640.6610432179646
 30
-23.842241385810958
 11
17374.718608237265
 21
-1640.661355877967
 31
0.0
  0
LINE
  5
72
330
17
100
AcDbEntity
  8
FP-Stair
100
AcDbLine
 10
17480.76981180307
 20
-1639.9101367687717
 30
-23.562462567328257
 11
17374.718608237265
 21
-1639.9105095425073
 31
0.0
  0
LINE
  5
73
330
17
100
AcDbEntity
  8
EL-Trim
 62
8
100
AcDbLine
 10
17375.418427007597
 20
-1640.1854627249531
 30
0.0
 11
17375.966799515194
 21
-1639.9101367687717
 31
0.0
  0
LINE
  5
74
330
17
100
AcDbEntity
  8
EL-Trim
 62
8
100
AcDbLine
 10
17375.968582095444
 20
-1640.9101387707678
 30
0.0
 11
17375.779852095442
 21
-1640.9101385591375
 31
0.0
  0
LINE
  5
75
330
17
100
AcDbEntity
  8
EL-Trim
 62
8
100
AcDbLine
 10
17375.967891740118
 20
-1599.9104859140366
 30
0.0
 11
17375.96789286146
 21
-1598.9104859140384
 31
0.0
  0
LINE
  5
76
330
17
100
AcDbEntity
  8
EL-Trim
 62
8
100
AcDbLine
 10
17375.968578974094
 20
-1641.910138770766
 30
0.0
 11
17375.968580095443
 21
-1640.910138770766
 31
0.0
  0
LINE
  5
77
330
17
100
AcDbEntity
  8
EL-Trim
 62
8
100
AcDbLine
 10
17375.9685789741
 20
-1641.9101367707672
 30
0.0
 11
17376.7185789741
 21
-1641.910137611775
 31
0.0
  0
LWPOLYLINE
  5
78
330
17
100
AcDbEntity
  8
EL-Trim
 62
8
100
AcDbPolyline
 90
2
 70
0
 10
17376.7185789741
 20
-1641.910137611775
 10
17376.718466839684
 20
-1741.9101395997668
  0
LWPOLYLINE
  5
79
330
17
100
AcDbEntity
  8
EL-Trim
 62
8
100
AcDbPolyline
 90
2
 70
0
 10
17376.718581216785
 20
-1639.9101396117758
 10
17376.718581216785
 20
-1639.910137611777
  0
LINE
  5
7A
330
17
100
AcDbEntity
  8
EL-Trim
 62
8
100
AcDbLine
 10
17376.718581216785
 20
-1639.910137611777
 30
0.0
 11
17376.718626070702
 21
-1599.9101375990856
 31
0.0
  0
LWPOLYLINE
  5
7B
330
17
100
AcDbEntity
  8
EL-Trim
 62
8
100
AcDbPolyline
 90
2
 70
0
 10
17390.74392163524
 20
-1639.9104878919406
 10
17390.74392163524
 20
-1639.9104858919418
  0
LWPOLYLINE
  5
7C
330
17
100
AcDbEntity
  8
EL-Trim
 62
8
100
AcDbPolyline
 90
2
 70
0
 10
17390.743923877922
 20
-1641.91048589194
 10
17390.74403601234
 20
-1741.9104878799317
  0
LINE
  5
7D
330
17
100
AcDbEntity
  8
EL-Trim
 62
8
100
AcDbLine
 10
17391.493923877922
 20
-1641.910485050932
 30
0.0
 11
17390.743923877922
 21
-1641.91048589194
 31
0.0
  0
LINE
  5
7E
330
17
100
AcDbEntity
  8
EL-Trim
 62
8
100
AcDbLine
 10
17390.74570333683
 20
-1639.9104858899445
 30
0.0
 11
17390.74565848291
 21
-1599.9104858772534
 31
0.0
  0
LINE
  5
7F
330
17
100
AcDbEntity
  8
EL-Trim
 62
8
100
AcDbLine
 10
17391.49392075658
 20
-1640.9104870509327
 30
0.0
 11
17391.682650756582
 21
-1640.9104868393024
 31
0.0
  0
LINE
  5
80
330
17
100
AcDbEntity
  8
EL-Trim
 62
8
100
AcDbLine
 10
17391.49392387793
 20
-1641.910487050931
 30
0.0
 11
17391.49392275658
 21
-1640.910487050931
 31
0.0
  0
LINE
  5
81
330
17
100
AcDbEntity
  8
EL-Trim
 62
8
100
AcDbLine
 10
17391.49565848251
 20
-1599.9104475051154
 30
0.0
 11
17391.495657361167
 21
-1598.9104475051172
 31
0.0
  0
LINE
  5
82
330
17
100
AcDbEntity
  8
EL-Trim
 62
8
100
AcDbLine
 10
17392.044075844427
 20
-1640.185811005118
 30
0.0
 11
17391.49570333683
 21
-1639.9104850489366
 31
0.0
  0
LINE
  5
83
330
17
100
AcDbEntity
  8
EL-Trim
 62
8
100
AcDbLine
 10
17392.743923877864
 20
-1641.9104836512597
 30
0.0
 11
17392.744036012282
 21
-1741.9104856382237
 31
0.0
  0
LINE
  5
84
330
17
100
AcDbEntity
  8
EL-Trim
 62
8
100
AcDbLine
 10
17392.74570333683
 20
-1639.9104836472561
 30
0.0
 11
17392.74565848306
 21
-1599.9104836343613
 31
0.0
  0
LINE
  5
85
330
17
100
AcDbEntity
  8
EL-Trim
 62
8
100
AcDbLine
 10
17393.495658483018
 20
-1599.9104452624288
 30
0.0
 11
17393.495657361676
 21
-1598.9104452624288
 31
0.0
  0
LINE
  5
86
330
17
100
AcDbEntity
  8
EL-Trim
 62
8
100
AcDbLine
 10
17393.49570245817
 20
-1640.91048280625
 30
0.0
 11
17393.684432458173
 21
-1640.9104825946179
 31
0.0
  0
LINE
  5
87
330
17
100
AcDbEntity
  8
EL-Trim
 62
8
100
AcDbLine
 10
17394.044075844427
 20
-1640.1858087624296
 30
0.0
 11
17393.49570333683
 21
-1639.9104828062482
 31
0.0
  0
LINE
  5
88
330
17
100
AcDbEntity
  8
EL-Trim
 62
8
100
AcDbLine
 10
17393.495705579513
 20
-1641.9104828062464
 30
0.0
 11
17393.49570445817
 21
-1640.9104828062464
 31
0.0
  0
LWPOLYLINE
  5
89
330
17
100
AcDbEntity
  8
FP-Proposed Wall
100
AcDbPolyline
 90
2
 70
0
 38
-23.562462567328257
 10
17401.266446844573
 20
-1624.6601280407185
 10
17402.266446844573
 20
-1624.6601291620595
  0
LINE
  5
8A
330
17
100
AcDbEntity
  8
FP-Proposed Wall
100
AcDbLine
 10
17401.26644768558
 20
-1623.9101280407185
 30
-23.562462567328257
 11
17401.266446844573
 21
-1624.6601280407185
 31
-23.562462567328257
  0
LINE
  5
8B
330
17
100
AcDbEntity
  8
FP-Proposed Wall
100
AcDbLine
 10
17401.266446844573
 20
-1624.6601280407185
 30
-23.562462567328257
 11
17402.266446844573
 21
-1624.6601280407185
 31
-23.562462567328257
  0
LINE
  5
8C
330
17
100
AcDbEntity
  8
FP-Proposed Wall
100
AcDbLine
 10
17401.266446844573
 20
-1623.9101280407185
 30
-23.562462567328257
 11
17401.266446844573
 21
-1624.6601280407185
 31
-23.562462567328257
  0
LINE
  5
8D
330
17
100
AcDbEntity
  8
FP-Proposed Wall
100
AcDbLine
 10
17401.26644768558
 20
-1623.9101280407185
 30
-23.562462567328257
 11
17486.769793861455
 21
-1623.9100321622695
 31
-23.562462567328257
  0
LINE
  5
8E
330
17
100
AcDbEntity
  8
EL-Trim
 62
8
100
AcDbLine
 10
17402.266446844573
 20
-1624.660131544918
 30
-23.22215939077123
 11
17485.769794700926
 21
-1624.660131544918
 31
-23.22215939077123
  0
LINE
  5
8F
330
17
100
AcDbEntity
  8
FP-Footing
100
AcDbLine
 10
17403.367644275997
 20
-1881.9183341753157
 30
0.0
 11
17403.367644275997
 21
-1889.9183341753157
 31
0.0
  0
LINE
  5
90
330
17
100
AcDbEntity
  8
FP-Proposed Wall
100
AcDbLine
 10
17404.39144446171
 20
-1626.785131544916
 30
-23.562462567328257
 11
17404.39144390104
 21
-1627.285131544916
 31
-23.562462567328257
  0
LINE
  5
91
330
17
100
AcDbEntity
  8
EL-Trim
 62
8
100
AcDbLine
 10
17404.391445611447
 20
-1626.7851315449175
 30
-23.22215939077123
 11
17483.644797085333
 21
-1626.7850426751806
 31
-23.562462567328254
  0
LINE
  5
92
330
17
100
AcDbEntity
  8
FP-Proposed Wall
100
AcDbLine
 10
17406.266442078857
 20
-1628.910133647435
 30
-23.562462567328257
 11
17407.266442078857
 21
-1628.9101347687802
 31
-23.562462567328257
  0
LINE
  5
93
330
17
100
AcDbEntity
  8
FP-Proposed Wall
100
AcDbLine
 10
17406.718057236474
 20
-1640.1854627249531
 30
-23.562462567328257
 11
17407.26642974407
 21
-1639.9101367687717
 31
-23.562462567328257
  0
LWPOLYLINE
  5
94
330
17
100
AcDbEntity
  8
FP-Proposed Wall
100
AcDbPolyline
 90
4
 70
0
 10
17407.329561501007
 20
-1746.9093535458082
 10
17406.869599871417
 20
-1746.9093530300338
 10
17406.869605478136
 20
-1741.9093530300356
 10
17435.871439350158
 20
-1741.9094680617657
  0
LINE
  5
95
330
17
100
AcDbEntity
  8
FP-Proposed Wall
100
AcDbLine
 10
17407.26821232432
 20
-1640.9101387707678
 30
-23.562462567328257
 11
17407.07948232432
 21
-1640.9101385591375
 31
-23.562462567328257
  0
LINE
  5
96
330
17
100
AcDbEntity
  8
FP-Proposed Wall
100
AcDbLine
 10
17407.266442078857
 20
-1628.9101347687802
 30
-23.562462567328257
 11
17407.26642974407
 21
-1639.9101367687717
 31
-23.562462567328257
  0
LINE
  5
97
330
17
100
AcDbEntity
  8
FP-Proposed Wall
 62
1
100
AcDbLine
 10
17407.266442078857
 20
-1628.9101347687802
 30
-23.562462567328257
 11
17480.7697994682
 21
-1628.9100523462369
 31
-23.562462567328257
  0
LINE
  5
98
330
17
100
AcDbEntity
  8
FP-Proposed Wall
100
AcDbLine
 10
17407.26820920297
 20
-1641.910138770766
 30
-23.562462567328257
 11
17407.26821032432
 21
-1640.910138770766
 31
-23.562462567328257
  0
LINE
  5
99
330
17
100
AcDbEntity
  8
FP-Proposed Wall
100
AcDbLine
 10
17407.26820920298
 20
-1641.9101367707672
 30
-23.562462567328257
 11
17408.01820920298
 21
-1641.910137611775
 31
-23.562462567328257
  0
LINE
  5
9A
330
17
100
AcDbEntity
  8
FP-Proposed Wall
100
AcDbLine
 10
17407.32941396892
 20
-1746.909269656978
 30
0.0
 11
17407.32941172623
 21
-1748.9092696569762
 31
0.0
  0
LINE
  5
9B
330
17
100
AcDbEntity
  8
FP-Proposed Wall
100
AcDbLine
 10
17408.370192276863
 20
-1741.9090386976368
 30
0.0
 11
17408.01820920298
 21
-1641.910137611775
 31
-23.562462567328257
  0
LINE
  5
9C
330
17
100
AcDbEntity
  8
FP-Proposed Wall
100
AcDbLine
 10
17408.367651014214
 20
-1764.4092708212222
 30
0.0
 11
17408.367668395043
 21
-1748.9092708212204
 31
0.0
  0
LINE
  5
9D
330
17
100
AcDbEntity
  8
FP-Footing
100
AcDbLine
 10
17409.367644275997
 20
-1770.418334175314
 30
0.0
 11
17409.367644275993
 21
-1881.9183341753157
 31
0.0
  0
LWPOLYLINE
  5
9E
330
17
100
AcDbEntity
  8
FP-Proposed Wall
100
AcDbPolyline
 90
2
 70
0
 10
17409.36765101422
 20
-1764.4092719425746
 10
17409.367644286158
 20
-1770.409271942571
  0
LINE
  5
9F
330
17
100
AcDbEntity
  8
EL-Trim
 62
8
100
AcDbLine
 10
17412.013035616194
 20
-1623.9101304206588
 30
-23.562603874273965
 11
17412.013034775187
 21
-1624.660130420657
 31
-23.562603874273965
  0
LINE
  5
A0
330
17
100
AcDbEntity
  8
EL-Trim
 62
8
100
AcDbLine
 10
17414.013035616703
 20
-1623.9101326633454
 30
-23.562603874273965
 11
17414.013034775697
 21
-1624.6601326633454
 31
-23.562603874273965
  0
LINE
  5
A1
330
17
100
AcDbEntity
  8
EL-Trim
 62
8
100
AcDbLine
 10
17414.01563389586
 20
-1626.7851326662612
 30
-23.562603874273965
 11
17414.015633335188
 21
-1627.2851326662612
 31
-23.562603874273965
  0
LINE
  5
A2
330
17
100
AcDbEntity
  8
EL-Trim
 62
8
100
AcDbLine
 10
17415.342246670614
 20
-1640.1854627249531
 30
-23.562603874273965
 11
17415.89061917821
 21
-1639.9101367687717
 31
-23.562603874273965
  0
LINE
  5
A3
330
17
100
AcDbEntity
  8
EL-Trim
 62
8
100
AcDbLine
 10
17415.390631513004
 20
-1628.9101342081076
 30
-23.562603874273965
 11
17415.890631513004
 21
-1628.9101347687802
 31
-23.562603874273965
  0
LINE
  5
A4
330
17
100
AcDbEntity
  8
EL-Trim
 62
8
100
AcDbLine
 10
17415.89240175846
 20
-1640.9101387707678
 30
-23.562603874273965
 11
17415.70367175846
 21
-1640.9101385591375
 31
-23.562603874273965
  0
LINE
  5
A5
330
17
100
AcDbEntity
  8
EL-Trim
 62
8
100
AcDbLine
 10
17415.890631513004
 20
-1628.9101347687802
 30
-23.562603874273965
 11
17415.89061917821
 21
-1639.9101367687717
 31
-23.562603874273965
  0
LINE
  5
A6
330
17
100
AcDbEntity
  8
EL-Trim
 62
8
100
AcDbLine
 10
17415.892398637112
 20
-1641.910138770766
 30
-23.562603874273965
 11
17415.89239975846
 21
-1640.910138770766
 31
-23.562603874273965
  0
LINE
  5
A7
330
17
100
AcDbEntity
  8
EL-Trim
 62
8
100
AcDbLine
 10
17415.89239863712
 20
-1641.9101367707672
 30
-23.562603874273965
 11
17416.64239863712
 21
-1641.910137611775
 31
-23.562603874273965
  0
LINE
  5
A8
330
17
100
AcDbEntity
  8
EL-Trim
 62
8
100
AcDbLine
 10
17416.015633896368
 20
-1626.7851349089497
 30
-23.562603874273965
 11
17416.015633335697
 21
-1627.2851349089497
 31
-23.562603874273965
  0
LINE
  5
A9
330
17
100
AcDbEntity
  8
EL-Trim
 62
8
100
AcDbLine
 10
17416.99438382189
 20
-1741.9096384031748
 30
0.0
 11
17416.642398637123
 21
-1641.9101376117749
 31
-23.562603874274018
  0
LINE
  5
AA
330
17
100
AcDbEntity
  8
EL-Trim
 62
8
100
AcDbLine
 10
17417.34224666323
 20
-1640.1854627249531
 30
-23.562604402711962
 11
17417.890619170827
 21
-1639.9101367687717
 31
-23.562604402711962
  0
LINE
  5
AB
330
17
100
AcDbEntity
  8
EL-Trim
 62
8
100
AcDbLine
 10
17417.390631513514
 20
-1628.910136450796
 30
-23.562603874273965
 11
17417.890631513514
 21
-1628.9101370114686
 31
-23.562603874273965
  0
LINE
  5
AC
330
17
100
AcDbEntity
  8
EL-Trim
 62
8
100
AcDbLine
 10
17417.892401751076
 20
-1640.9101387707678
 30
-23.562604402711962
 11
17417.703671751075
 21
-1640.9101385591375
 31
-23.562604402711962
  0
LINE
  5
AD
330
17
100
AcDbEntity
  8
EL-Trim
 62
8
100
AcDbLine
 10
17417.890631513514
 20
-1628.9101370114686
 30
-23.562603874273965
 11
17417.89061917872
 21
-1639.9101390114602
 31
-23.562603874273965
  0
LINE
  5
AE
330
17
100
AcDbEntity
  8
EL-Trim
 62
8
100
AcDbLine
 10
17417.892398629727
 20
-1641.910138770766
 30
-23.562604402711962
 11
17417.892399751076
 21
-1640.910138770766
 31
-23.562604402711962
  0
LINE
  5
AF
330
17
100
AcDbEntity
  8
EL-Trim
 62
8
100
AcDbLine
 10
17417.892398629734
 20
-1641.9101367707672
 30
-23.562604402711962
 11
17418.642398629734
 21
-1641.910137611775
 31
-23.562604402711962
  0
LINE
  5
B0
330
17
100
AcDbEntity
  8
EL-Trim
 62
8
100
AcDbLine
 10
17418.9943838224
 20
-1741.9096406458614
 30
0.0
 11
17418.64239863763
 21
-1641.9101398544628
 31
-23.562603874273695
  0
LWPOLYLINE
  5
B1
330
17
100
AcDbEntity
  8
FP-Proposed Wall
100
AcDbPolyline
 90
4
 70
0
 10
17481.411082719434
 20
-1746.9094230032626
 10
17481.871044349024
 20
-1746.9094224874882
 10
17481.8710387423
 20
-1741.90942248749
 10
17435.871439350158
 20
-1741.9094680617657
  0
LINE
  5
B2
330
17
100
AcDbEntity
  8
FP-Stair
100
AcDbLine
 10
17440.350393034496
 20
-1764.4077903941186
 30
-24.501591741473234
 11
17587.87120865117
 21
-1764.4107072104246
 31
0.0
  0
LINE
  5
B3
330
17
100
AcDbEntity
  8
FP-Stair
100
AcDbLine
 10
17440.350393034496
 20
-1748.9077907465683
 30
-24.501591741473234
 11
17588.871191266888
 21
-1748.907624203652
 31
4.547473508864641e-13
  0
LWPOLYLINE
  5
B4
330
17
100
AcDbEntity
  8
FP-Proposed Wall
100
AcDbPolyline
 90
4
 70
0
 10
17589.909445696503
 20
-1746.9107373920808
 10
17590.369407326092
 20
-1746.9107368763064
 10
17590.369401719374
 20
-1741.9107368763082
 10
17440.350393034496
 20
-1741.908410554088
  0
LINE
  5
B5
330
17
100
AcDbEntity
  8
EL-Trim
 62
8
100
AcDbLine
 10
17440.350393034496
 20
-1746.9077920035559
 30
-24.501591741473234
 11
17589.90944569581
 21
-1746.9101176389615
 31
0.0
  0
LINE
  5
B6
330
17
100
AcDbEntity
  8
FP-Proposed Wall
 62
1
100
AcDbLine
 10
17444.37027745997
 20
-1599.9083936170423
 30
-30.343048011456855
 11
17588.868508159067
 21
-1599.9117262181487
 31
0.0
  0
LINE
  5
B7
330
17
100
AcDbEntity
  8
EL-Trim
 62
8
100
AcDbLine
 10
17589.618512430592
 20
-1598.9117289299145
 30
0.0
 11
17444.37027745997
 21
-1598.9084225188637
 31
-30.08597838613577
  0
LINE
  5
B8
330
17
100
AcDbEntity
  8
EL-Trim
 62
8
100
AcDbLine
 10
17469.745936020925
 20
-1741.9096406458614
 30
0.0
 11
17469.393842909518
 21
-1641.9101398544628
 31
-23.562603874273695
  0
LINE
  5
B9
330
17
100
AcDbEntity
  8
EL-Trim
 62
8
100
AcDbLine
 10
17470.14384291741
 20
-1641.9101367707672
 30
-23.562604402711962
 11
17469.39384291741
 21
-1641.910137611775
 31
-23.562604402711962
  0
LINE
  5
BA
330
17
100
AcDbEntity
  8
EL-Trim
 62
8
100
AcDbLine
 10
17470.143839796066
 20
-1640.9101387707678
 30
-23.562604402711962
 11
17470.332569796068
 21
-1640.9101385591375
 31
-23.562604402711962
  0
LINE
  5
BB
330
17
100
AcDbEntity
  8
EL-Trim
 62
8
100
AcDbLine
 10
17470.143842917416
 20
-1641.910138770766
 30
-23.562604402711962
 11
17470.143841796067
 21
-1640.910138770766
 31
-23.562604402711962
  0
LINE
  5
BC
330
17
100
AcDbEntity
  8
EL-Trim
 62
8
100
AcDbLine
 10
17470.145610033538
 20
-1628.9100557772251
 30
-23.562603874273965
 11
17470.14562236833
 21
-1639.9100577772167
 31
-23.562603874273965
  0
LINE
  5
BD
330
17
100
AcDbEntity
  8
EL-Trim
 62
8
100
AcDbLine
 10
17470.645610033538
 20
-1628.9100552165526
 30
-23.562603874273965
 11
17470.145610033538
 21
-1628.9100557772251
 31
-23.562603874273965
  0
LINE
  5
BE
330
17
100
AcDbEntity
  8
EL-Trim
 62
8
100
AcDbLine
 10
17470.693994883914
 20
-1640.1854627249531
 30
-23.562604402711962
 11
17470.145622376316
 21
-1639.9101367687717
 31
-23.562604402711962
  0
LINE
  5
BF
330
17
100
AcDbEntity
  8
EL-Trim
 62
8
100
AcDbLine
 10
17472.143842910024
 20
-1641.9101367707672
 30
-23.562603874273965
 11
17471.393842910024
 21
-1641.910137611775
 31
-23.562603874273965
  0
LINE
  5
C0
330
17
100
AcDbEntity
  8
EL-Trim
 62
8
100
AcDbLine
 10
17471.745936021434
 20
-1741.9096384031748
 30
0.0
 11
17471.393842910027
 21
-1641.910137611775
 31
-23.562603874273965
  0
LINE
  5
C1
330
17
100
AcDbEntity
  8
EL-Trim
 62
8
100
AcDbLine
 10
17472.020607650684
 20
-1626.7850536747062
 30
-23.562603874273965
 11
17472.020608211355
 21
-1627.2850536747062
 31
-23.562603874273965
  0
LINE
  5
C2
330
17
100
AcDbEntity
  8
EL-Trim
 62
8
100
AcDbLine
 10
17472.14383978868
 20
-1640.9101387707678
 30
-23.562603874273965
 11
17472.332569788683
 21
-1640.9101385591375
 31
-23.562603874273965
  0
LINE
  5
C3
330
17
100
AcDbEntity
  8
EL-Trim
 62
8
100
AcDbLine
 10
17472.14384291003
 20
-1641.910138770766
 30
-23.562603874273965
 11
17472.143841788682
 21
-1640.910138770766
 31
-23.562603874273965
  0
LINE
  5
C4
330
17
100
AcDbEntity
  8
EL-Trim
 62
8
100
AcDbLine
 10
17472.145610034047
 20
-1628.9100535345367
 30
-23.562603874273965
 11
17472.14562236884
 21
-1639.9100555345283
 31
-23.562603874273965
  0
LINE
  5
C5
330
17
100
AcDbEntity
  8
EL-Trim
 62
8
100
AcDbLine
 10
17472.645610034047
 20
-1628.9100529738641
 30
-23.562603874273965
 11
17472.145610034047
 21
-1628.9100535345367
 31
-23.562603874273965
  0
LINE
  5
C6
330
17
100
AcDbEntity
  8
EL-Trim
 62
8
100
AcDbLine
 10
17472.69399487653
 20
-1640.1854627249531
 30
-23.562603874273965
 11
17472.14562236893
 21
-1639.9101367687717
 31
-23.562603874273965
  0
LINE
  5
C7
330
17
100
AcDbEntity
  8
EL-Trim
 62
8
100
AcDbLine
 10
17474.020607651193
 20
-1626.7850514320178
 30
-23.562603874273965
 11
17474.020608211864
 21
-1627.2850514320178
 31
-23.562603874273965
  0
LINE
  5
C8
330
17
100
AcDbEntity
  8
EL-Trim
 62
8
100
AcDbLine
 10
17474.02320593035
 20
-1623.910051429102
 30
-23.562603874273965
 11
17474.023206771355
 21
-1624.660051429102
 31
-23.562603874273965
  0
LINE
  5
C9
330
17
100
AcDbEntity
  8
EL-Trim
 62
8
100
AcDbLine
 10
17476.02320593086
 20
-1623.9100491864153
 30
-23.562603874273965
 11
17476.023206771864
 21
-1624.6600491864135
 31
-23.562603874273965
  0
LWPOLYLINE
  5
CA
330
17
100
AcDbEntity
  8
FP-Proposed Wall
100
AcDbPolyline
 90
2
 70
0
 10
17479.372845673915
 20
-1764.4092719425746
 10
17479.37285240198
 20
-1770.409271942571
  0
LINE
  5
CB
330
17
100
AcDbEntity
  8
FP-Footing
100
AcDbLine
 10
17479.372853233872
 20
-1770.418334175314
 30
0.0
 11
17479.372853233876
 21
-1881.9183341753157
 31
0.0
  0
LINE
  5
CC
330
17
100
AcDbEntity
  8
FP-Proposed Wall
100
AcDbLine
 10
17480.37030441127
 20
-1741.9090386976368
 30
0.0
 11
17480.018032344164
 21
-1641.910137611775
 31
-23.562462567328257
  0
LINE
  5
CD
330
17
100
AcDbEntity
  8
FP-Proposed Wall
100
AcDbLine
 10
17480.768032344164
 20
-1641.9101367707672
 30
-23.562462567328257
 11
17480.018032344164
 21
-1641.910137611775
 31
-23.562462567328257
  0
LINE
  5
CE
330
17
100
AcDbEntity
  8
FP-Proposed Wall
100
AcDbLine
 10
17480.372845673915
 20
-1764.4092708212222
 30
0.0
 11
17480.372828293086
 21
-1748.9092708212204
 31
0.0
  0
LINE
  5
CF
330
17
100
AcDbEntity
  8
FP-Proposed Wall
100
AcDbLine
 10
17480.76802922282
 20
-1640.9101387707678
 30
-23.562462567328257
 11
17480.956759222823
 21
-1640.9101385591375
 31
-23.562462567328257
  0
LINE
  5
D0
330
17
100
AcDbEntity
  8
FP-Proposed Wall
100
AcDbLine
 10
17480.76803234417
 20
-1641.910138770766
 30
-23.562462567328257
 11
17480.768031222822
 21
-1640.910138770766
 31
-23.562462567328257
  0
LINE
  5
D1
330
17
100
AcDbEntity
  8
FP-Proposed Wall
 62
1
100
AcDbLine
 10
17480.768032343352
 20
-1641.9094082810598
 30
-24.523334048231774
 11
17514.021287361888
 21
-1641.910382529082
 31
0.0
  0
LINE
  5
D2
330
17
100
AcDbEntity
  8
FP-Proposed Wall
100
AcDbLine
 10
17480.769799468195
 20
-1628.9100535345367
 30
-23.562462567328257
 11
17480.76981180298
 21
-1639.9100555345283
 31
-23.562462567328257
  0
LINE
  5
D3
330
17
100
AcDbEntity
  8
FP-Proposed Wall
100
AcDbLine
 10
17481.769799468195
 20
-1628.9100524131916
 30
-23.562462567328257
 11
17480.769799468195
 21
-1628.9100535345367
 31
-23.562462567328257
  0
LINE
  5
D4
330
17
100
AcDbEntity
  8
FP-Proposed Wall
100
AcDbLine
 10
17481.31818431067
 20
-1640.1854627249531
 30
-23.562462567328257
 11
17480.76981180307
 21
-1639.9101367687717
 31
-23.562462567328257
  0
LINE
  5
D5
330
17
100
AcDbEntity
  8
FP-Stair
100
AcDbLine
 10
17480.76981180307
 20
-1639.9101367687717
 30
-23.562462567328257
 11
17514.021287361888
 21
-1639.9105095425073
 31
0.0
  0
LINE
  5
D6
330
17
100
AcDbEntity
  8
EL-Trim
 62
8
100
AcDbLine
 10
17480.958541249824
 20
-1640.9097329094275
 30
-23.902765743896275
 11
17514.021287361888
 21
-1640.9113558779725
 31
0.0
  0
LINE
  5
D7
330
17
100
AcDbEntity
  8
EL-Trim
 62
8
100
AcDbLine
 10
17481.19805675084
 20
-1640.6603562093378
 30
-23.902765743896275
 11
17514.021287361888
 21
-1640.661355877967
 31
0.0
  0
LINE
  5
D8
330
17
100
AcDbEntity
  8
FP-Proposed Wall
100
AcDbLine
 10
17481.41108271921
 20
-1746.909269656978
 30
0.0
 11
17481.4110849619
 21
-1748.9092696569762
 31
0.0
  0
LINE
  5
D9
330
17
100
AcDbEntity
  8
FP-Proposed Wall
100
AcDbLine
 10
17483.64479708534
 20
-1626.7850503106727
 30
-23.562462567328257
 11
17483.64479764601
 21
-1627.2850503106727
 31
-23.562462567328257
  0
LINE
  5
DA
330
17
100
AcDbEntity
  8
FP-Footing
100
AcDbLine
 10
17485.372853233872
 20
-1881.9183341753157
 30
0.0
 11
17485.372853233872
 21
-1889.9183341753157
 31
0.0
  0
LWPOLYLINE
  5
DB
330
17
100
AcDbEntity
  8
FP-Proposed Wall
100
AcDbPolyline
 90
2
 70
0
 38
-23.562462567328257
 10
17486.76979470248
 20
-1624.660046806475
 10
17485.76979470248
 20
-1624.660047927816
  0
LINE
  5
DC
330
17
100
AcDbEntity
  8
FP-Proposed Wall
100
AcDbLine
 10
17486.76979470248
 20
-1624.660046806475
 30
-23.562462567328257
 11
17485.76979470248
 21
-1624.660046806475
 31
-23.562462567328257
  0
LINE
  5
DD
330
17
100
AcDbEntity
  8
FP-Proposed Wall
100
AcDbLine
 10
17486.769793861473
 20
-1623.910046806475
 30
-23.562462567328257
 11
17486.76979470248
 21
-1624.660046806475
 31
-23.562462567328257
  0
LINE
  5
DE
330
17
100
AcDbEntity
  8
FP-Proposed Wall
100
AcDbLine
 10
17486.76979470248
 20
-1623.910046806475
 30
-23.562462567328257
 11
17486.76979470248
 21
-1624.660046806475
 31
-23.562462567328257
  0
LINE
  5
DF
330
17
100
AcDbEntity
  8
EL-Trim
 62
8
100
AcDbLine
 10
17494.69642166544
 20
-1640.1858087624296
 30
0.0
 11
17495.24479417304
 21
-1639.9104828062482
 31
0.0
  0
LINE
  5
E0
330
17
100
AcDbEntity
  8
EL-Trim
 62
8
100
AcDbLine
 10
17495.244795051698
 20
-1640.91048280625
 30
0.0
 11
17495.056065051696
 21
-1640.9104825946179
 31
0.0
  0
LINE
  5
E1
330
17
100
AcDbEntity
  8
EL-Trim
 62
8
100
AcDbLine
 10
17495.244791930356
 20
-1641.9104828062464
 30
0.0
 11
17495.244793051697
 21
-1640.9104828062464
 31
0.0
  0
LINE
  5
E2
330
17
100
AcDbEntity
  8
EL-Trim
 62
8
100
AcDbLine
 10
17495.24483902685
 20
-1599.9104452624288
 30
0.0
 11
17495.244840148192
 21
-1598.9104452624288
 31
0.0
  0
LINE
  5
E3
330
17
100
AcDbEntity
  8
EL-Trim
 62
8
100
AcDbLine
 10
17495.99479417304
 20
-1639.9104836472561
 30
0.0
 11
17495.994839026807
 21
-1599.9104836343613
 31
0.0
  0
LINE
  5
E4
330
17
100
AcDbEntity
  8
EL-Trim
 62
8
100
AcDbLine
 10
17495.996573632005
 20
-1641.9104836512597
 30
0.0
 11
17495.996461497587
 21
-1741.9104856382237
 31
0.0
  0
LINE
  5
E5
330
17
100
AcDbEntity
  8
EL-Trim
 62
8
100
AcDbLine
 10
17496.69642166544
 20
-1640.185811005118
 30
0.0
 11
17497.24479417304
 21
-1639.9104850489366
 31
0.0
  0
LINE
  5
E6
330
17
100
AcDbEntity
  8
EL-Trim
 62
8
100
AcDbLine
 10
17497.24657675329
 20
-1640.9104870509327
 30
0.0
 11
17497.057846753287
 21
-1640.9104868393024
 31
0.0
  0
LINE
  5
E7
330
17
100
AcDbEntity
  8
EL-Trim
 62
8
100
AcDbLine
 10
17497.24483902736
 20
-1599.9104475051154
 30
0.0
 11
17497.2448401487
 21
-1598.9104475051172
 31
0.0
  0
LINE
  5
E8
330
17
100
AcDbEntity
  8
EL-Trim
 62
8
100
AcDbLine
 10
17497.24657363194
 20
-1641.910487050931
 30
0.0
 11
17497.246574753288
 21
-1640.910487050931
 31
0.0
  0
LINE
  5
E9
330
17
100
AcDbEntity
  8
EL-Trim
 62
8
100
AcDbLine
 10
17497.246573631946
 20
-1641.910485050932
 30
0.0
 11
17497.996573631946
 21
-1641.91048589194
 31
0.0
  0
LINE
  5
EA
330
17
100
AcDbEntity
  8
EL-Trim
 62
8
100
AcDbLine
 10
17497.99479417304
 20
-1639.9104858899445
 30
0.0
 11
17497.99483902696
 21
-1599.9104858772534
 31
0.0
  0
LWPOLYLINE
  5
EB
330
17
100
AcDbEntity
  8
EL-Trim
 62
8
100
AcDbPolyline
 90
2
 70
0
 10
17497.996573631946
 20
-1641.91048589194
 10
17497.99646149753
 20
-1741.9104878799317
  0
LWPOLYLINE
  5
EC
330
17
100
AcDbEntity
  8
EL-Trim
 62
8
100
AcDbPolyline
 90
2
 70
0
 10
17497.99657587463
 20
-1639.9104878919406
 10
17497.99657587463
 20
-1639.9104858919418
  0
LINE
  5
ED
330
17
100
AcDbEntity
  8
EL-Trim
 62
8
100
AcDbLine
 10
17512.021916293084
 20
-1639.910137611777
 30
0.0
 11
17512.021871439167
 21
-1599.9101375990856
 31
0.0
  0
LWPOLYLINE
  5
EE
330
17
100
AcDbEntity
  8
EL-Trim
 62
8
100
AcDbPolyline
 90
2
 70
0
 10
17512.021916293084
 20
-1639.9101396117758
 10
17512.021916293084
 20
-1639.910137611777
  0
LWPOLYLINE
  5
EF
330
17
100
AcDbEntity
  8
EL-Trim
 62
8
100
AcDbPolyline
 90
2
 70
0
 10
17512.021918535767
 20
-1641.910137611775
 10
17512.022030670185
 20
-1741.9101395997668
  0
LINE
  5
F0
330
17
100
AcDbEntity
  8
EL-Trim
 62
8
100
AcDbLine
 10
17512.771918535767
 20
-1641.9101367707672
 30
0.0
 11
17512.021918535767
 21
-1641.910137611775
 31
0.0
  0
LINE
  5
F1
330
17
100
AcDbEntity
  8
EL-Trim
 62
8
100
AcDbLine
 10
17512.771915414425
 20
-1640.9101387707678
 30
0.0
 11
17512.960645414427
 21
-1640.9101385591375
 31
0.0
  0
LINE
  5
F2
330
17
100
AcDbEntity
  8
EL-Trim
 62
8
100
AcDbLine
 10
17512.771918535775
 20
-1641.910138770766
 30
0.0
 11
17512.771917414426
 21
-1640.910138770766
 31
0.0
  0
LINE
  5
F3
330
17
100
AcDbEntity
  8
EL-Trim
 62
8
100
AcDbLine
 10
17512.77260576975
 20
-1599.9104859140366
 30
0.0
 11
17512.77260464841
 21
-1598.9104859140384
 31
0.0
  0
LINE
  5
F4
330
17
100
AcDbEntity
  8
EL-Trim
 62
8
100
AcDbLine
 10
17513.322070502272
 20
-1640.1854627249531
 30
0.0
 11
17512.773697994675
 21
-1639.9101367687717
 31
0.0
  0
LWPOLYLINE
  5
F5
330
17
100
AcDbEntity
  8
FP-Stair
100
AcDbPolyline
 90
4
 70
0
 10
17562.217271759033
 20
-1741.910763760068
 10
17562.217271759044
 20
-1615.8136238788627
 10
17514.021287361888
 20
-1615.8136238788627
 10
17514.021287361888
 20
-1741.9108341672566
  0
LINE
  5
F6
330
17
100
AcDbEntity
  8
FP-Stair
100
AcDbLine
 10
17514.021889272604
 20
-1615.8136238788545
 30
0.0
 11
17514.023653140906
 21
-1599.9101333541973
 31
0.0
  0
LINE
  5
F7
330
17
100
AcDbEntity
  8
FP-Stair
100
AcDbLine
 10
17514.77260577026
 20
-1599.91048367135
 30
0.0
 11
17514.77260464892
 21
-1598.91048367135
 31
0.0
  0
LWPOLYLINE
  5
F8
330
17
100
AcDbEntity
  8
FP-Proposed Wall
 62
8
100
AcDbPolyline
 90
4
 70
0
 10
17560.217271759033
 20
-1741.9107666817715
 10
17560.217271759044
 20
-1617.8136238788627
 10
17516.021287361888
 20
-1617.8136238788627
 10
17516.021287361888
 20
-1741.910831245553
  0
LWPOLYLINE
  5
F9
330
17
100
AcDbEntity
  8
FP-Proposed Wall
 62
8
100
AcDbPolyline
 90
4
 70
0
 10
17559.217271759033
 20
-1741.9107681426233
 10
17559.217271759044
 20
-1618.8136238788627
 10
17517.021287361888
 20
-1618.8136238788627
 10
17517.021287361888
 20
-1741.9108297847013
  0
LWPOLYLINE
  5
FA
330
17
100
AcDbEntity
  8
FP-Proposed Wall
 62
1
100
AcDbPolyline
 90
5
 70
0
 10
17556.119307315417
 20
-1741.9107726682903
 10
17556.119279560466
 20
-1621.911616077439
 10
17520.119279560466
 20
-1621.911616077439
 10
17520.119307315417
 20
-1741.9107726682903
 10
17556.119307315417
 20
-1741.9107726682903
  0
LWPOLYLINE
  5
FB
330
17
100
AcDbEntity
  8
FP-Proposed Wall
 62
8
100
AcDbPolyline
 90
6
 70
0
 10
17554.619279560466
 20
-1709.0472081001387
 10
17554.619279560466
 20
-1623.411616077439
 10
17521.619279560466
 20
-1623.411616077439
 10
17521.619307315417
 20
-1740.4107726682903
 10
17554.619307315417
 20
-1740.4107726682903
 10
17554.619279560466
 20
-1709.0472081001387
  0
LWPOLYLINE
  5
FC
330
17
100
AcDbEntity
  8
FP-Proposed Wall
 62
8
100
AcDbPolyline
 90
6
 70
0
 10
17553.619279560466
 20
-1709.0472081001387
 10
17553.619279560466
 20
-1624.411616077439
 10
17522.619279560466
 20
-1624.411616077439
 10
17522.619307315417
 20
-1739.4107726682903
 10
17553.619307315417
 20
-1739.4107726682903
 10
17553.619279560466
 20
-1709.0472081001387
  0
LINE
  5
FD
330
17
100
AcDbEntity
  8
FP-Hatch
100
AcDbLine
 10
17522.619279560466
 20
-1720.411616071451
 30
0.0
 11
17553.619279560466
 21
-1720.411616071451
 31
0.0
  0
LINE
  5
FE
330
17
100
AcDbEntity
  8
FP-Hatch
100
AcDbLine
 10
17522.619279560466
 20
-1704.411616071451
 30
0.0
 11
17553.619279560466
 21
-1704.411616071451
 31
0.0
  0
LINE
  5
FF
330
17
100
AcDbEntity
  8
FP-Hatch
100
AcDbLine
 10
17522.619279560466
 20
-1688.411616071451
 30
0.0
 11
17553.619279560466
 21
-1688.411616071451
 31
0.0
  0
LINE
  5
100
330
17
100
AcDbEntity
  8
FP-Hatch
100
AcDbLine
 10
17522.619279560466
 20
-1672.411616071451
 30
0.0
 11
17553.619279560466
 21
-1672.411616071451
 31
0.0
  0
LINE
  5
101
330
17
100
AcDbEntity
  8
FP-Hatch
100
AcDbLine
 10
17522.619279560466
 20
-1656.411616071451
 30
0.0
 11
17553.619279560466
 21
-1656.411616071451
 31
0.0
  0
LINE
  5
102
330
17
100
AcDbEntity
  8
FP-Hatch
100
AcDbLine
 10
17522.619279560466
 20
-1640.411616071451
 30
0.0
 11
17553.619279560466
 21
-1640.411616071451
 31
0.0
  0
LINE
  5
103
330
17
100
AcDbEntity
  8
FP-Hatch
100
AcDbLine
 10
17538.119279560466
 20
-1624.411616077439
 30
0.0
 11
17538.119307315417
 21
-1739.4107726682903
 31
0.0
  0
LINE
  5
104
330
17
100
AcDbEntity
  8
FP-Stair
100
AcDbLine
 10
17561.467157172105
 20
-1599.91048367135
 30
0.0
 11
17561.467158293446
 21
-1598.91048367135
 31
0.0
  0
LINE
  5
105
330
17
100
AcDbEntity
  8
FP-Stair
100
AcDbLine
 10
17562.21787366976
 20
-1615.8136238788545
 30
0.0
 11
17562.21610980146
 21
-1599.9101333541973
 31
0.0
  0
LINE
  5
106
330
17
100
AcDbEntity
  8
FP-Proposed Wall
 62
1
100
AcDbLine
 10
17562.217271759044
 20
-1641.91032848475
 30
0.0
 11
17588.868555254117
 21
-1641.9104739784507
 31
0.0
  0
LINE
  5
107
330
17
100
AcDbEntity
  8
EL-Trim
 62
8
100
AcDbLine
 10
17562.217271759044
 20
-1640.9113558779677
 30
0.0
 11
17589.61855413376
 21
-1640.911355877966
 31
0.0
  0
LINE
  5
108
330
17
100
AcDbEntity
  8
EL-Trim
 62
8
100
AcDbLine
 10
17562.217271759044
 20
-1640.6613558779718
 30
0.0
 11
17590.036286012106
 21
-1640.6613558779736
 31
0.0
  0
LINE
  5
109
330
17
100
AcDbEntity
  8
FP-Stair
100
AcDbLine
 10
17562.217271759044
 20
-1639.9105095425025
 30
0.0
 11
17588.868553011434
 21
-1639.9104739784543
 31
0.0
  0
LINE
  5
10A
330
17
100
AcDbEntity
  8
EL-Trim
 62
8
100
AcDbLine
 10
17562.917692439703
 20
-1640.1858082565554
 30
0.0
 11
17563.4660649473
 21
-1639.910482300374
 31
0.0
  0
LINE
  5
10B
330
17
100
AcDbEntity
  8
EL-Trim
 62
8
100
AcDbLine
 10
17563.46784752755
 20
-1640.9104843023702
 30
0.0
 11
17563.27911752755
 21
-1640.9104840907398
 31
0.0
  0
LINE
  5
10C
330
17
100
AcDbEntity
  8
EL-Trim
 62
8
100
AcDbLine
 10
17563.467157172614
 20
-1599.9104859140366
 30
0.0
 11
17563.467158293955
 21
-1598.9104859140384
 31
0.0
  0
LINE
  5
10D
330
17
100
AcDbEntity
  8
EL-Trim
 62
8
100
AcDbLine
 10
17563.4678444062
 20
-1641.9104843023683
 30
0.0
 11
17563.46784552755
 21
-1640.9104843023683
 31
0.0
  0
LINE
  5
10E
330
17
100
AcDbEntity
  8
EL-Trim
 62
8
100
AcDbLine
 10
17563.46784440621
 20
-1641.9104823023695
 30
0.0
 11
17564.21784440621
 21
-1641.9104831433774
 31
0.0
  0
LWPOLYLINE
  5
10F
330
17
100
AcDbEntity
  8
EL-Trim
 62
8
100
AcDbPolyline
 90
2
 70
0
 10
17564.21784440621
 20
-1641.9104831433774
 10
17564.21773227179
 20
-1741.9104851313691
  0
LINE
  5
110
330
17
100
AcDbEntity
  8
EL-Trim
 62
8
100
AcDbLine
 10
17564.21784664928
 20
-1639.910137611777
 30
0.0
 11
17564.2178915032
 21
-1599.9101375990856
 31
0.0
  0
LWPOLYLINE
  5
111
330
17
100
AcDbEntity
  8
EL-Trim
 62
8
100
AcDbPolyline
 90
2
 70
0
 10
17578.24258515702
 20
-1639.9104878919406
 10
17578.24258515702
 20
-1639.9104858919418
  0
LWPOLYLINE
  5
112
330
17
100
AcDbEntity
  8
EL-Trim
 62
8
100
AcDbPolyline
 90
2
 70
0
 10
17578.2425873997
 20
-1641.91048589194
 10
17578.24269953412
 20
-1741.9104878799317
  0
LINE
  5
113
330
17
100
AcDbEntity
  8
EL-Trim
 62
8
100
AcDbLine
 10
17578.994369101292
 20
-1641.910483048936
 30
0.0
 11
17578.244369101292
 21
-1641.9104838899439
 31
0.0
  0
LINE
  5
114
330
17
100
AcDbEntity
  8
EL-Trim
 62
8
100
AcDbLine
 10
17578.244968769326
 20
-1639.9104858899445
 30
0.0
 11
17578.244923915405
 21
-1599.9104858772534
 31
0.0
  0
LINE
  5
115
330
17
100
AcDbEntity
  8
EL-Trim
 62
8
100
AcDbLine
 10
17579.540957664616
 20
-1640.1858130071141
 30
0.0
 11
17578.99258515702
 21
-1639.9104870509327
 31
0.0
  0
LINE
  5
116
330
17
100
AcDbEntity
  8
EL-Trim
 62
8
100
AcDbLine
 10
17578.993186189076
 20
-1640.9104870509327
 30
0.0
 11
17579.181916189078
 21
-1640.9104868393024
 31
0.0
  0
LINE
  5
117
330
17
100
AcDbEntity
  8
EL-Trim
 62
8
100
AcDbLine
 10
17578.994322004288
 20
-1599.9104475051154
 30
0.0
 11
17578.994320882946
 21
-1598.9104475051172
 31
0.0
  0
LINE
  5
118
330
17
100
AcDbEntity
  8
EL-Trim
 62
8
100
AcDbLine
 10
17578.994369101292
 20
-1641.9104850489348
 30
0.0
 11
17578.99436797995
 21
-1640.9104850489348
 31
0.0
  0
LINE
  5
119
330
17
100
AcDbEntity
  8
EL-Trim
 62
8
100
AcDbLine
 10
17580.24318931036
 20
-1641.9104836512597
 30
0.0
 11
17580.243301444778
 21
-1741.9104856382237
 31
0.0
  0
LINE
  5
11A
330
17
100
AcDbEntity
  8
EL-Trim
 62
8
100
AcDbLine
 10
17580.24436685861
 20
-1639.9104836472561
 30
0.0
 11
17580.24432200484
 21
-1599.9104836343613
 31
0.0
  0
LINE
  5
11B
330
17
100
AcDbEntity
  8
EL-Trim
 62
8
100
AcDbLine
 10
17580.99436597995
 20
-1640.91048280625
 30
0.0
 11
17581.18309597995
 21
-1640.9104825946179
 31
0.0
  0
LINE
  5
11C
330
17
100
AcDbEntity
  8
EL-Trim
 62
8
100
AcDbLine
 10
17580.994369101292
 20
-1641.9104828062464
 30
0.0
 11
17580.99436797995
 21
-1640.9104828062464
 31
0.0
  0
LINE
  5
11D
330
17
100
AcDbEntity
  8
EL-Trim
 62
8
100
AcDbLine
 10
17580.994923915514
 20
-1599.9104452624288
 30
0.0
 11
17580.994922794172
 21
-1598.9104452624288
 31
0.0
  0
LINE
  5
11E
330
17
100
AcDbEntity
  8
EL-Trim
 62
8
100
AcDbLine
 10
17581.543341276923
 20
-1640.1858087624296
 30
0.0
 11
17580.994968769326
 21
-1639.9104828062482
 31
0.0
  0
LWPOLYLINE
  5
11F
330
17
100
AcDbEntity
  8
FP-Proposed Wall
100
AcDbPolyline
 90
2
 70
0
 10
17587.87120865117
 20
-1764.4107072104246
 10
17587.871215379233
 20
-1770.410707210421
  0
LINE
  5
120
330
17
100
AcDbEntity
  8
FP-Proposed Wall
100
AcDbLine
 10
17588.871208651173
 20
-1764.4107060890722
 30
0.0
 11
17587.87120865117
 21
-1764.4107072104161
 31
0.0
  0
LINE
  5
121
330
17
100
AcDbEntity
  8
FP-Footing
100
AcDbLine
 10
17587.871215379233
 20
-1770.410707210421
 30
0.0
 11
17587.871215379237
 21
-1881.9107072104227
 31
0.0
  0
LINE
  5
122
330
17
100
AcDbEntity
  8
FP-Proposed Wall
100
AcDbLine
 10
17589.61851355049
 20
-1599.9104314482738
 30
0.0
 11
17588.868508157615
 21
-1599.9104314482738
 31
0.0
  0
LINE
  5
123
330
17
100
AcDbEntity
  8
FP-Proposed Wall
100
AcDbLine
 10
17588.868553011434
 20
-1639.9104739784543
 30
0.0
 11
17588.868508157666
 21
-1599.9104759762595
 31
0.0
  0
LINE
  5
124
330
17
100
AcDbEntity
  8
FP-Proposed Wall
100
AcDbLine
 10
17588.868553011434
 20
-1639.9104739784543
 30
0.0
 11
17589.618553011427
 21
-1639.9104731355674
 31
0.0
  0
LINE
  5
125
330
17
100
AcDbEntity
  8
FP-Proposed Wall
100
AcDbLine
 10
17588.868667388528
 20
-1741.9104739654867
 30
0.0
 11
17588.868555254117
 21
-1641.9104739784507
 31
0.0
  0
LINE
  5
126
330
17
100
AcDbEntity
  8
FP-Proposed Wall
100
AcDbLine
 10
17588.868555254117
 20
-1641.9104739784507
 30
0.0
 11
17589.618555254125
 21
-1641.910478072823
 31
0.0
  0
LINE
  5
127
330
17
100
AcDbEntity
  8
FP-Proposed Wall
100
AcDbLine
 10
17588.871208651173
 20
-1764.4107060890722
 30
0.0
 11
17588.871191270344
 21
-1748.9107060890703
 31
0.0
  0
LINE
  5
128
330
17
100
AcDbEntity
  8
FP-Proposed Wall
100
AcDbLine
 10
17589.909447939157
 20
-1748.9107049248262
 30
0.0
 11
17588.871191270344
 21
-1748.9107060890703
 31
0.0
  0
LINE
  5
129
330
17
100
AcDbEntity
  8
EL-Trim
 62
8
100
AcDbLine
 10
17614.868620011734
 20
-1764.4107072104246
 30
0.0
 11
17588.871208651173
 21
-1764.4107060890722
 31
0.0
  0
LINE
  5
12A
330
17
100
AcDbEntity
  8
FP-Proposed Wall
100
AcDbLine
 10
17589.61851355049
 20
-1599.9104314482738
 30
0.0
 11
17589.61851242914
 21
-1598.9104314482756
 31
0.0
  0
LWPOLYLINE
  5
12B
330
17
100
AcDbEntity
  8
FP-Proposed Wall
100
AcDbPolyline
 90
2
 70
0
 10
17589.61851242914
 20
-1598.9104314482756
 10
17589.80724047342
 20
-1598.9102821687204
  0
LWPOLYLINE
  5
12C
330
17
100
AcDbEntity
  8
FP-Hatch
100
AcDbPolyline
 90
2
 70
0
 10
17615.865966614867
 20
-1599.9104314482738
 10
17589.61851355049
 20
-1599.9104314482738
  0
LINE
  5
12D
330
17
100
AcDbEntity
  8
FP-Proposed Wall
100
AcDbLine
 10
17589.618552132768
 20
-1640.9104731355692
 30
0.0
 11
17589.80728213277
 21
-1640.9104729239389
 31
0.0
  0
LINE
  5
12E
330
17
100
AcDbEntity
  8
FP-Proposed Wall
100
AcDbLine
 10
17590.166925519025
 20
-1640.1857990917506
 30
0.0
 11
17589.618553011427
 21
-1639.9104731355674
 31
0.0
  0
LINE
  5
12F
330
17
100
AcDbEntity
  8
FP-Proposed Wall
100
AcDbLine
 10
17589.618555254117
 20
-1641.9104731355656
 30
0.0
 11
17589.61855413277
 21
-1640.9104731355674
 31
0.0
  0
LINE
  5
130
330
17
100
AcDbEntity
  8
EL-Trim
 62
8
100
AcDbLine
 10
17615.86596661468
 20
-1641.9104739784507
 30
0.0
 11
17589.61855525413
 21
-1641.9104854674988
 31
0.0
  0
LINE
  5
131
330
17
100
AcDbEntity
  8
FP-Proposed Wall
 62
1
100
AcDbLine
 10
17616.615964372177
 20
-1639.9106378814188
 30
0.0
 11
17589.61888113922
 21
-1639.910650213352
 31
0.0
  0
LWPOLYLINE
  5
132
330
17
100
AcDbEntity
  8
FP-Hatch
100
AcDbPolyline
 90
2
 70
0
 38
0.34030317655702724
 10
17616.615900427718
 20
-1598.9104011748002
 10
17589.80724042914
 20
-1598.9104312366412
  0
LINE
  5
133
330
17
100
AcDbEntity
  8
EL-Trim
 62
8
100
AcDbLine
 10
17616.615963493517
 20
-1640.9106378814206
 30
0.0
 11
17589.80728213278
 21
-1640.9104852558721
 31
0.0
  0
LINE
  5
134
330
17
100
AcDbEntity
  8
FP-Proposed Wall
100
AcDbLine
 10
17589.909445696467
 20
-1746.910704924828
 30
0.0
 11
17589.909447939157
 21
-1748.9107049248262
 31
0.0
  0
LINE
  5
135
330
17
100
AcDbEntity
  8
EL-Trim
 62
8
100
AcDbLine
 10
17615.86860262745
 20
-1748.907624203652
 30
0.0
 11
17589.909447941696
 21
-1748.912969364022
 31
0.0
  0
LINE
  5
136
330
17
100
AcDbEntity
  8
EL-Trim
 62
8
100
AcDbLine
 10
17590.057281852445
 20
-1640.6604849755347
 30
0.7485075755405345
 11
17617.063767390664
 21
-1640.6604726436015
 31
0.7485075755405345
  0
LINE
  5
137
330
17
100
AcDbEntity
  8
FP-Proposed Wall
 62
1
100
AcDbLine
 10
17590.369401720392
 20
-1741.9116446679752
 30
0.0
 11
17615.866078750372
 21
-1741.9116160774379
 31
0.0
  0
LINE
  5
138
330
17
100
AcDbEntity
  8
EL-Trim
 62
8
100
AcDbLine
 10
17616.906857056372
 20
-1746.9101176389615
 30
0.0
 11
17590.369407326107
 21
-1746.9107492081837
 31
0.0
  0
LINE
  5
139
330
17
100
AcDbEntity
  8
FP-Footing
100
AcDbLine
 10
17593.871215379233
 20
-1881.9107072104227
 30
0.0
 11
17593.871215379233
 21
-1889.9107072104227
 31
0.0
  0
LWPOLYLINE
  5
13A
330
17
100
AcDbEntity
  8
EL-Trim
 62
8
100
AcDbPolyline
 90
2
 70
0
 38
0.34030317655702724
 10
17605.239972603722
 20
-1639.9104971046397
 10
17605.239972603722
 20
-1639.9104951046409
  0
LWPOLYLINE
  5
13B
330
17
100
AcDbEntity
  8
EL-Trim
 62
8
100
AcDbPolyline
 90
2
 70
0
 38
0.34030317655702724
 10
17605.239974846405
 20
-1641.910495104639
 10
17605.240086980823
 20
-1741.9104970926307
  0
LINE
  5
13C
330
17
100
AcDbEntity
  8
EL-Trim
 62
8
100
AcDbLine
 10
17605.991756547995
 20
-1641.910492261635
 30
0.34030317655702724
 11
17605.241756547995
 21
-1641.910493102643
 31
0.34030317655702724
  0
LINE
  5
13D
330
17
100
AcDbEntity
  8
EL-Trim
 62
8
100
AcDbLine
 10
17605.24235621603
 20
-1639.9104951026436
 30
0.34030317655702724
 11
17605.242311362108
 21
-1599.9104950899525
 31
0.34030317655702724
  0
LINE
  5
13E
330
17
100
AcDbEntity
  8
EL-Trim
 62
8
100
AcDbLine
 10
17606.53834511132
 20
-1640.1858222198132
 30
0.34030317655702724
 11
17605.989972603722
 21
-1639.9104962636318
 31
0.34030317655702724
  0
LINE
  5
13F
330
17
100
AcDbEntity
  8
EL-Trim
 62
8
100
AcDbLine
 10
17605.99057363578
 20
-1640.9104962636318
 30
0.34030317655702724
 11
17606.17930363578
 21
-1640.9104960520015
 31
0.34030317655702724
  0
LINE
  5
140
330
17
100
AcDbEntity
  8
EL-Trim
 62
8
100
AcDbLine
 10
17605.99170945099
 20
-1599.9104567178144
 30
0.34030317655702724
 11
17605.99170832965
 21
-1598.9104567178163
 31
0.34030317655702724
  0
LINE
  5
141
330
17
100
AcDbEntity
  8
EL-Trim
 62
8
100
AcDbLine
 10
17605.991756547995
 20
-1641.9104942616339
 30
0.34030317655702724
 11
17605.991755426654
 21
-1640.9104942616339
 31
0.34030317655702724
  0
LINE
  5
142
330
17
100
AcDbEntity
  8
EL-Trim
 62
8
100
AcDbLine
 10
17607.240576757064
 20
-1641.9104928639588
 30
0.34030317655702724
 11
17607.24068889148
 21
-1741.9104948509228
 31
0.34030317655702724
  0
LINE
  5
143
330
17
100
AcDbEntity
  8
EL-Trim
 62
8
100
AcDbLine
 10
17607.241754305312
 20
-1639.9104928599552
 30
0.34030317655702724
 11
17607.241709451544
 21
-1599.9104928470604
 31
0.34030317655702724
  0
LINE
  5
144
330
17
100
AcDbEntity
  8
EL-Trim
 62
8
100
AcDbLine
 10
17607.991753426653
 20
-1640.910492018949
 30
0.34030317655702724
 11
17608.180483426655
 21
-1640.910491807317
 31
0.34030317655702724
  0
LINE
  5
145
330
17
100
AcDbEntity
  8
EL-Trim
 62
8
100
AcDbLine
 10
17607.991756547995
 20
-1641.9104920189454
 30
0.34030317655702724
 11
17607.991755426654
 21
-1640.9104920189454
 31
0.34030317655702724
  0
LINE
  5
146
330
17
100
AcDbEntity
  8
EL-Trim
 62
8
100
AcDbLine
 10
17607.992311362217
 20
-1599.9104544751278
 30
0.34030317655702724
 11
17607.992310240876
 21
-1598.9104544751278
 31
0.34030317655702724
  0
LINE
  5
147
330
17
100
AcDbEntity
  8
EL-Trim
 62
8
100
AcDbLine
 10
17608.540728723627
 20
-1640.1858179751287
 30
0.34030317655702724
 11
17607.99235621603
 21
-1639.9104920189473
 31
0.34030317655702724
  0
LWPOLYLINE
  5
148
330
17
100
AcDbEntity
  8
FP-Proposed Wall
 62
1
100
AcDbPolyline
 90
2
 70
0
 10
17614.868620011734
 20
-1764.4107072104246
 10
17614.868626739797
 20
-1770.410707210421
  0
LINE
  5
149
330
17
100
AcDbEntity
  8
FP-Proposed Wall
 62
1
100
AcDbLine
 10
17615.868620011737
 20
-1764.4107060890722
 30
0.0
 11
17614.868620011734
 21
-1764.4107072104161
 31
0.0
  0
LINE
  5
14A
330
17
100
AcDbEntity
  8
EL-Trim
 62
8
100
AcDbLine
 10
17645.846000327376
 20
-1768.9104034844497
 30
-24.501592595180888
 11
17614.86862505679
 21
-1768.910022028643
 31
-24.501592595180888
  0
LINE
  5
14B
330
17
100
AcDbEntity
  8
FP-Proposed Wall
 62
1
100
AcDbLine
 10
17615.86607874909
 20
-1741.9104739654867
 30
0.0
 11
17615.86596661468
 21
-1641.9104739784507
 31
0.0
  0
LINE
  5
14C
330
17
100
AcDbEntity
  8
FP-Proposed Wall
 62
1
100
AcDbLine
 10
17616.615966614867
 20
-1641.910637881417
 30
0.0
 11
17615.865966614867
 21
-1641.9106387224283
 31
0.0
  0
LINE
  5
14D
330
17
100
AcDbEntity
  8
FP-Proposed Wall
 62
1
100
AcDbLine
 10
17615.865966614867
 20
-1599.9104414687897
 30
0.0
 11
17615.865966614867
 21
-1639.9106386153558
 31
0.0
  0
LINE
  5
14E
330
17
100
AcDbEntity
  8
FP-Proposed Wall
 62
1
100
AcDbLine
 10
17615.865966614867
 20
-1599.9104414687897
 30
0.0
 11
17616.61590154911
 21
-1599.9104406278511
 31
0.0
  0
LWPOLYLINE
  5
14F
330
17
100
AcDbEntity
  8
FP-Proposed Wall
 62
1
100
AcDbPolyline
 90
6
 70
0
 10
17615.86607874909
 20
-1741.9104739654867
 10
17617.36681307964
 20
-1741.9104722826478
 10
17617.366818686656
 20
-1746.9107368763064
 10
17616.906857056372
 20
-1746.9101176389615
 10
17616.90685929972
 20
-1748.9107049248262
 10
17615.86860262745
 20
-1748.907624203652
  0
LINE
  5
150
330
17
100
AcDbEntity
  8
FP-Proposed Wall
 62
1
100
AcDbLine
 10
17615.868620011737
 20
-1764.4107060890722
 30
0.0
 11
17615.868602630908
 21
-1748.9107060890703
 31
0.0
  0
LINE
  5
151
330
17
100
AcDbEntity
  8
EL-Trim
 62
8
100
AcDbLine
 10
17615.86860823746
 20
-1753.910754185967
 30
-1.8189894035458565e-12
 11
17625.86860491584
 21
-1753.9104046873715
 31
-1.8189894035458565e-12
  0
LINE
  5
152
330
17
100
AcDbEntity
  8
FP-Proposed Wall
 62
1
100
AcDbLine
 10
17615.868609919107
 20
-1755.4104284311002
 30
4.1359030627651384e-25
 11
17635.868604074436
 21
-1755.4104060042303
 31
-1.8189894035458565e-12
  0
LINE
  5
153
330
17
100
AcDbEntity
  8
EL-Trim
 62
8
100
AcDbLine
 10
17615.868616647167
 20
-1761.4104271142264
 30
4.1359030627651384e-25
 11
17635.868597346373
 21
-1761.4104046873715
 31
-1.8189894035458565e-12
  0
LINE
  5
154
330
17
100
AcDbEntity
  8
FP-Proposed Wall
 62
1
100
AcDbLine
 10
17615.868618329147
 20
-1762.9103917968991
 30
0.0
 11
17645.868597346373
 21
-1762.9104046873715
 31
-1.907807245515869e-12
  0
LINE
  5
155
330
17
100
AcDbEntity
  8
FP-Proposed Wall
 62
1
100
AcDbLine
 10
17616.61590154911
 20
-1599.9104406278511
 30
-1.7763568394002505e-15
 11
17616.61590042776
 21
-1598.910440627853
 31
-1.7763568394002505e-15
  0
LINE
  5
156
330
17
100
AcDbEntity
  8
FP-Proposed Wall
100
AcDbLine
 10
17616.61590042776
 20
-1598.910440627853
 30
-1.7763568394002505e-15
 11
17616.804628427763
 21
-1598.9104401358873
 31
0.34030317655702724
  0
LINE
  5
157
330
17
100
AcDbEntity
  8
FP-Proposed Wall
 62
1
100
AcDbLine
 10
17616.615963493517
 20
-1640.9106378814206
 30
0.0
 11
17616.80469349352
 21
-1640.9106376697903
 31
0.0
  0
LINE
  5
158
330
17
100
AcDbEntity
  8
FP-Proposed Wall
 62
1
100
AcDbLine
 10
17617.164336879774
 20
-1640.185963837602
 30
0.0
 11
17616.615964372177
 21
-1639.9106378814188
 31
0.0
  0
LINE
  5
159
330
17
100
AcDbEntity
  8
FP-Proposed Wall
 62
1
100
AcDbLine
 10
17616.615966614867
 20
-1641.910637881417
 30
0.0
 11
17616.615965493518
 21
-1640.9106378814188
 31
0.0
  0
LINE
  5
15A
330
17
100
AcDbEntity
  8
FP-Proposed Wall
 62
1
100
AcDbLine
 10
17616.906858177692
 20
-1747.910290451396
 30
-1.8189894035458565e-12
 11
17625.89122211902
 21
-1747.9104058902942
 31
-1.8189894035458565e-12
  0
LWPOLYLINE
  5
15B
330
17
100
AcDbEntity
  8
FP-Proposed Wall
 62
1
100
AcDbPolyline
 90
2
 70
0
 10
17625.86860491584
 20
-1753.9104046873715
 10
17625.86859213692
 20
-1755.4103208065917
  0
LWPOLYLINE
  5
15C
330
17
100
AcDbEntity
  8
FP-Proposed Wall
 62
1
100
AcDbPolyline
 90
4
 70
0
 10
17625.86860491584
 20
-1753.9104046873715
 10
17627.86860491584
 20
-1753.9104046873715
 10
17627.86860491584
 20
-1747.9104058902942
 10
17625.89122211902
 20
-1747.9104058902942
  0
LWPOLYLINE
  5
15D
330
17
100
AcDbEntity
  8
FP-Proposed Wall
 62
1
100
AcDbPolyline
 90
4
 70
0
 10
17635.846000327376
 20
-1761.4104048013085
 10
17637.846000327376
 20
-1761.4104048013085
 10
17637.846000327376
 20
-1755.4104060042312
 10
17635.868617530556
 20
-1755.4104060042312
  0
LWPOLYLINE
  5
15E
330
17
100
AcDbEntity
  8
FP-Proposed Wall
 62
1
100
AcDbPolyline
 90
2
 70
0
 10
17635.868610802492
 20
-1761.4104048013085
 10
17635.868610802492
 20
-1762.9103693700306
  0
LWPOLYLINE
  5
15F
330
17
100
AcDbEntity
  8
FP-Proposed Wall
 62
1
100
AcDbPolyline
 90
2
 70
0
 38
-24.501592595180888
 10
17645.868610802492
 20
-1768.9104035983717
 10
17645.846000327376
 20
-1770.4104034833215
  0
LWPOLYLINE
  5
160
330
17
100
AcDbEntity
  8
FP-Proposed Wall
 62
1
100
AcDbPolyline
 90
4
 70
0
 38
-24.501592595180888
 10
17645.846000327376
 20
-1768.9104034844497
 10
17647.846000327376
 20
-1768.9104034844497
 10
17647.846000327376
 20
-1762.9104046873724
 10
17645.868617530556
 20
-1762.9104046873724
  0
ENDSEC
  0
SECTION
  2
OBJECTS
  0
DICTIONARY
  5
A
330
0
100
AcDbDictionary
280
0
281
1
  3
ACAD_COLOR
350
B
  3
ACAD_GROUP
350
C
  3
ACAD_LAYOUT
350
D
  3
ACAD_MATERIAL
350
E
  3
ACAD_MLEADERSTYLE
350
F
  3
ACAD_MLINESTYLE
350
10
  3
ACAD_PLOTSETTINGS
350
11
  3
ACAD_PLOTSTYLENAME
350
12
  3
ACAD_SCALELIST
350
14
  3
ACAD_TABLESTYLE
350
15
  3
ACAD_VISUALSTYLE
350
16
  3
EZDXF_META
350
2D
  0
DICTIONARY
  5
B
330
A
100
AcDbDictionary
280
0
281
1
  0
DICTIONARY
  5
C
330
A
100
AcDbDictionary
280
0
281
1
  0
DICTIONARY
  5
D
330
A
100
AcDbDictionary
280
0
281
1
  3
Model
350
1A
  3
Layout1
350
1E
  0
DICTIONARY
  5
E
330
A
100
AcDbDictionary
280
0
281
1
  3
ByBlock
350
1F
  3
ByLayer
350
20
  3
Global
350
21
  0
DICTIONARY
  5
F
330
A
100
AcDbDictionary
280
0
281
1
  3
Standard
350
2C
  0
DICTIONARY
  5
10
330
A
100
AcDbDictionary
280
0
281
1
  3
Standard
350
22
  0
DICTIONARY
  5
11
330
A
100
AcDbDictionary
280
0
281
1
  0
ACDBDICTIONARYWDFLT
  5
12
330
A
100
AcDbDictionary
280
0
281
1
  3
Normal
350
13
100
AcDbDictionaryWithDefault
340
13
  0
ACDBPLACEHOLDER
  5
13
330
12
  0
DICTIONARY
  5
14
330
A
100
AcDbDictionary
280
0
281
1
  0
DICTIONARY
  5
15
330
A
100
AcDbDictionary
280
0
281
1
  0
DICTIONARY
  5
16
330
A
100
AcDbDictionary
280
0
281
1
  0
LAYOUT
  5
1A
330
D
100
AcDbPlotSettings
  1

  2
Adobe PDF
  4
A3
  6

 40
7.5
 41
20.0
 42
7.5
 43
20.0
 44
420.0
 45
297.0
 46
0.0
 47
0.0
 48
0.0
 49
0.0
140
0.0
141
0.0
142
1.0
143
1.0
 70
1024
 72
1
 73
0
 74
5
  7

 75
16
 76
0
 77
2
 78
300
147
1.0
148
0.0
149
0.0
100
AcDbLayout
  1
Model
 70
1
 71
0
 10
0.0
 20
0.0
 11
420.0
 21
297.0
 12
0.0
 22
0.0
 32
0.0
 14
1e+20
 24
1e+20
 34
1e+20
 15
-1e+20
 25
-1e+20
 35
-1e+20
146
0.0
 13
0.0
 23
0.0
 33
0.0
 16
1.0
 26
0.0
 36
0.0
 17
0.0
 27
1.0
 37
0.0
 76
1
330
17
  0
LAYOUT
  5
1E
330
D
100
AcDbPlotSettings
  1

  2
Adobe PDF
  4
A3
  6

 40
7.5
 41
20.0
 42
7.5
 43
20.0
 44
420.0
 45
297.0
 46
0.0
 47
0.0
 48
0.0
 49
0.0
140
0.0
141
0.0
142
1.0
143
1.0
 70
0
 72
1
 73
0
 74
5
  7

 75
16
 76
0
 77
2
 78
300
147
1.0
148
0.0
149
0.0
100
AcDbLayout
  1
Layout1
 70
1
 71
1
 10
0.0
 20
0.0
 11
420.0
 21
297.0
 12
0.0
 22
0.0
 32
0.0
 14
1e+20
 24
1e+20
 34
1e+20
 15
-1e+20
 25
-1e+20
 35
-1e+20
146
0.0
 13
0.0
 23
0.0
 33
0.0
 16
1.0
 26
0.0
 36
0.0
 17
0.0
 27
1.0
 37
0.0
 76
1
330
1B
  0
MATERIAL
  5
1F
102
{ACAD_REACTORS
330
E
102
}
330
E
100
AcDbMaterial
  1
ByBlock
  2

 70
0
 40
1.0
 71
1
 41
1.0
 91
-1023410177
 42
1.0
 72
1
  3

 73
1
 74
1
 75
1
 44
0.5
 73
0
 45
1.0
 46
1.0
 77
1
  4

 78
1
 79
1
170
1
 48
1.0
171
1
  6

172
1
173
1
174
1
140
1.0
141
1.0
175
1
  7

176
1
177
1
178
1
143
1.0
179
1
  8

270
1
271
1
272
1
145
1.0
146
1.0
273
1
  9

274
1
275
1
276
1
 42
1.0
 72
1
  3

 73
1
 74
1
 75
1
 94
63
  0
MATERIAL
  5
20
102
{ACAD_REACTORS
330
E
102
}
330
E
100
AcDbMaterial
  1
ByLayer
  2

 70
0
 40
1.0
 71
1
 41
1.0
 91
-1023410177
 42
1.0
 72
1
  3

 73
1
 74
1
 75
1
 44
0.5
 73
0
 45
1.0
 46
1.0
 77
1
  4

 78
1
 79
1
170
1
 48
1.0
171
1
  6

172
1
173
1
174
1
140
1.0
141
1.0
175
1
  7

176
1
177
1
178
1
143
1.0
179
1
  8

270
1
271
1
272
1
145
1.0
146
1.0
273
1
  9

274
1
275
1
276
1
 42
1.0
 72
1
  3

 73
1
 74
1
 75
1
 94
63
  0
MATERIAL
  5
21
102
{ACAD_REACTORS
330
E
102
}
330
E
100
AcDbMaterial
  1
Global
  2

 70
0
 40
1.0
 71
1
 41
1.0
 91
-1023410177
 42
1.0
 72
1
  3

 73
1
 74
1
 75
1
 44
0.5
 73
0
 45
1.0
 46
1.0
 77
1
  4

 78
1
 79
1
170
1
 48
1.0
171
1
  6

172
1
173
1
174
1
140
1.0
141
1.0
175
1
  7

176
1
177
1
178
1
143
1.0
179
1
  8

270
1
271
1
272
1
145
1.0
146
1.0
273
1
  9

274
1
275
1
276
1
 42
1.0
 72
1
  3

 73
1
 74
1
 75
1
 94
63
  0
MLINESTYLE
  5
22
102
{ACAD_REACTORS
330
10
102
}
330
10
100
AcDbMlineStyle
  2
Standard
 70
0
  3

 62
256
 51
90.0
 52
90.0
 71
2
 49
0.5
 62
256
  6
BYLAYER
 49
-0.5
 62
256
  6
BYLAYER
  0
MLEADERSTYLE
  5
2C
102
{ACAD_REACTORS
330
F
102
}
330
F
100
AcDbMLeaderStyle
179
2
170
2
171
1
172
0
 90
2
 40
0.0
 41
0.0
173
1
 91
-1056964608
 92
-2
290
1
 42
2.0
291
1
 43
8.0
  3
Standard
 44
4.0
300

342
29
174
1
175
1
176
0
178
1
 93
-1056964608
 45
4.0
292
0
297
0
 46
4.0
 94
-1056964608
 47
1.0
 49
1.0
140
1.0
294
1
141
0.0
177
0
142
1.0
295
0
296
0
143
3.75
271
0
272
9
273
9
  0
DICTIONARY
  5
2D
330
A
100
AcDbDictionary
281
1
  3
CREATED_BY_EZDXF
350
2E
  3
WRITTEN_BY_EZDXF
350
163
  0
DICTIONARYVAR
  5
2E
330
2D
100
DictionaryVariables
280
0
  1
1.1.4 @ 2024-01-08T21:29:28.495410+00:00
  0
DICTIONARYVAR
  5
163
330
2D
100
DictionaryVariables
280
0
  1
1.1.4 @ 2024-01-08T21:29:28.495410+00:00
  0
ENDSEC
  0
EOF
