  0
SECTION
  2
HEADER
  9
$ACADVER
  1
AC1027
  9
$ACADMAINTVER
 70
105
  9
$DWGCODEPAGE
  3
ANSI_1252
  9
$LASTSAVEDBY
  1
ezdxf
  9
$REQUIREDVERSIONS
160
0
  9
$INSBASE
 10
0.0
 20
0.0
 30
0.0
  9
$EXTMIN
 10
1e+20
 20
1e+20
 30
1e+20
  9
$EXTMAX
 10
-1e+20
 20
-1e+20
 30
-1e+20
  9
$LIMMIN
 10
0.0
 20
0.0
  9
$LIMMAX
 10
420.0
 20
297.0
  9
$ORTHOMODE
 70
0
  9
$REGENMODE
 70
1
  9
$FILLMODE
 70
1
  9
$QTEXTMODE
 70
0
  9
$MIRRTEXT
 70
1
  9
$LTSCALE
 40
1.0
  9
$ATTMODE
 70
1
  9
$TEXTSIZE
 40
2.5
  9
$TRACEWID
 40
1.0
  9
$TEXTSTYLE
  7
Standard
  9
$CLAYER
  8
0
  9
$CELTYPE
  6
ByLayer
  9
$CECOLOR
 62
256
  9
$CELTSCALE
 40
1.0
  9
$DISPSILH
 70
0
  9
$DIMSCALE
 40
1.0
  9
$DIMASZ
 40
2.5
  9
$DIMEXO
 40
0.625
  9
$DIMDLI
 40
3.75
  9
$DIMRND
 40
0.0
  9
$DIMDLE
 40
0.0
  9
$DIMEXE
 40
1.25
  9
$DIMTP
 40
0.0
  9
$DIMTM
 40
0.0
  9
$DIMTXT
 40
2.5
  9
$DIMCEN
 40
2.5
  9
$DIMTSZ
 40
0.0
  9
$DIMTOL
 70
0
  9
$DIMLIM
 70
0
  9
$DIMTIH
 70
0
  9
$DIMTOH
 70
0
  9
$DIMSE1
 70
0
  9
$DIMSE2
 70
0
  9
$DIMTAD
 70
1
  9
$DIMZIN
 70
8
  9
$DIMBLK
  1

  9
$DIMASO
 70
1
  9
$DIMSHO
 70
1
  9
$DIMPOST
  1

  9
$DIMAPOST
  1

  9
$DIMALT
 70
0
  9
$DIMALTD
 70
3
  9
$DIMALTF
 40
0.03937007874
  9
$DIMLFAC
 40
1.0
  9
$DIMTOFL
 70
1
  9
$DIMTVP
 40
0.0
  9
$DIMTIX
 70
0
  9
$DIMSOXD
 70
0
  9
$DIMSAH
 70
0
  9
$DIMBLK1
  1

  9
$DIMBLK2
  1

  9
$DIMSTYLE
  2
ISO-25
  9
$DIMCLRD
 70
0
  9
$DIMCLRE
 70
0
  9
$DIMCLRT
 70
0
  9
$DIMTFAC
 40
1.0
  9
$DIMGAP
 40
0.625
  9
$DIMJUST
 70
0
  9
$DIMSD1
 70
0
  9
$DIMSD2
 70
0
  9
$DIMTOLJ
 70
0
  9
$DIMTZIN
 70
8
  9
$DIMALTZ
 70
0
  9
$DIMALTTZ
 70
0
  9
$DIMUPT
 70
0
  9
$DIMDEC
 70
2
  9
$DIMTDEC
 70
2
  9
$DIMALTU
 70
2
  9
$DIMALTTD
 70
3
  9
$DIMTXSTY
  7
Standard
  9
$DIMAUNIT
 70
0
  9
$DIMADEC
 70
0
  9
$DIMALTRND
 40
0.0
  9
$DIMAZIN
 70
0
  9
$DIMDSEP
 70
44
  9
$DIMATFIT
 70
3
  9
$DIMFRAC
 70
0
  9
$DIMLDRBLK
  1

  9
$DIMLUNIT
 70
2
  9
$DIMLWD
 70
-2
  9
$DIMLWE
 70
-2
  9
$DIMTMOVE
 70
0
  9
$DIMFXL
 40
1.0
  9
$DIMFXLON
 70
0
  9
$DIMJOGANG
 40
0.785398163397
  9
$DIMTFILL
 70
0
  9
$DIMTFILLCLR
 70
0
  9
$DIMARCSYM
 70
0
  9
$DIMLTYPE
  6

  9
$DIMLTEX1
  6

  9
$DIMLTEX2
  6

  9
$DIMTXTDIRECTION
 70
0
  9
$LUNITS
 70
2
  9
$LUPREC
 70
4
  9
$SKETCHINC
 40
1.0
  9
$FILLETRAD
 40
10.0
  9
$AUNITS
 70
0
  9
$AUPREC
 70
2
  9
$MENU
  1
.
  9
$ELEVATION
 40
0.0
  9
$PELEVATION
 40
0.0
  9
$THICKNESS
 40
0.0
  9
$LIMCHECK
 70
0
  9
$CHAMFERA
 40
0.0
  9
$CHAMFERB
 40
0.0
  9
$CHAMFERC
 40
0.0
  9
$CHAMFERD
 40
0.0
  9
$SKPOLY
 70
0
  9
$TDCREATE
 40
2460333.8168171295
  9
$TDUCREATE
 40
2458532.153996898
  9
$TDUPDATE
 40
2460333.8168171295
  9
$TDUUPDATE
 40
2458532.1544311
  9
$TDINDWG
 40
0.0
  9
$TDUSRTIMER
 40
0.0
  9
$USRTIMER
 70
1
  9
$ANGBASE
 50
0.0
  9
$ANGDIR
 70
0
  9
$PDMODE
 70
0
  9
$PDSIZE
 40
0.0
  9
$PLINEWID
 40
0.0
  9
$SPLFRAME
 70
0
  9
$SPLINETYPE
 70
6
  9
$SPLINESEGS
 70
8
  9
$HANDSEED
  5
164
  9
$SURFTAB1
 70
6
  9
$SURFTAB2
 70
6
  9
$SURFTYPE
 70
6
  9
$SURFU
 70
6
  9
$SURFV
 70
6
  9
$UCSBASE
  2

  9
$UCSNAME
  2

  9
$UCSORG
 10
0.0
 20
0.0
 30
0.0
  9
$UCSXDIR
 10
1.0
 20
0.0
 30
0.0
  9
$UCSYDIR
 10
0.0
 20
1.0
 30
0.0
  9
$UCSORTHOREF
  2

  9
$UCSORTHOVIEW
 70
0
  9
$UCSORGTOP
 10
0.0
 20
0.0
 30
0.0
  9
$UCSORGBOTTOM
 10
0.0
 20
0.0
 30
0.0
  9
$UCSORGLEFT
 10
0.0
 20
0.0
 30
0.0
  9
$UCSORGRIGHT
 10
0.0
 20
0.0
 30
0.0
  9
$UCSORGFRONT
 10
0.0
 20
0.0
 30
0.0
  9
$UCSORGBACK
 10
0.0
 20
0.0
 30
0.0
  9
$PUCSBASE
  2

  9
$PUCSNAME
  2

  9
$PUCSORG
 10
0.0
 20
0.0
 30
0.0
  9
$PUCSXDIR
 10
1.0
 20
0.0
 30
0.0
  9
$PUCSYDIR
 10
0.0
 20
1.0
 30
0.0
  9
$PUCSORTHOREF
  2

  9
$PUCSORTHOVIEW
 70
0
  9
$PUCSORGTOP
 10
0.0
 20
0.0
 30
0.0
  9
$PUCSORGBOTTOM
 10
0.0
 20
0.0
 30
0.0
  9
$PUCSORGLEFT
 10
0.0
 20
0.0
 30
0.0
  9
$PUCSORGRIGHT
 10
0.0
 20
0.0
 30
0.0
  9
$PUCSORGFRONT
 10
0.0
 20
0.0
 30
0.0
  9
$PUCSORGBACK
 10
0.0
 20
0.0
 30
0.0
  9
$USERI1
 70
0
  9
$USERI2
 70
0
  9
$USERI3
 70
0
  9
$USERI4
 70
0
  9
$USERI5
 70
0
  9
$USERR1
 40
0.0
  9
$USERR2
 40
0.0
  9
$USERR3
 40
0.0
  9
$USERR4
 40
0.0
  9
$USERR5
 40
0.0
  9
$WORLDVIEW
 70
1
  9
$SHADEDGE
 70
3
  9
$SHADEDIF
 70
70
  9
$TILEMODE
 70
1
  9
$MAXACTVP
 70
64
  9
$PINSBASE
 10
0.0
 20
0.0
 30
0.0
  9
$PLIMCHECK
 70
0
  9
$PEXTMIN
 10
1e+20
 20
1e+20
 30
1e+20
  9
$PEXTMAX
 10
-1e+20
 20
-1e+20
 30
-1e+20
  9
$PLIMMIN
 10
0.0
 20
0.0
  9
$PLIMMAX
 10
420.0
 20
297.0
  9
$UNITMODE
 70
0
  9
$VISRETAIN
 70
1
  9
$PLINEGEN
 70
0
  9
$PSLTSCALE
 70
1
  9
$TREEDEPTH
 70
3020
  9
$CMLSTYLE
  2
Standard
  9
$CMLJUST
 70
0
  9
$CMLSCALE
 40
20.0
  9
$PROXYGRAPHICS
 70
1
  9
$MEASUREMENT
 70
1
  9
$CELWEIGHT
370
-1
  9
$ENDCAPS
280
0
  9
$JOINSTYLE
280
0
  9
$LWDISPLAY
290
0
  9
$INSUNITS
 70
6
  9
$HYPERLINKBASE
  1

  9
$STYLESHEET
  1

  9
$XEDIT
290
1
  9
$CEPSNTYPE
380
0
  9
$PSTYLEMODE
290
1
  9
$FINGERPRINTGUID
  2
{44A63DE6-A6A9-4ED7-9F9B-85DDCEFCC713}
  9
$VERSIONGUID
  2
{E20EA2C0-CD01-403F-A0B8-E020E26AE3D6}
  9
$EXTNAMES
290
1
  9
$PSVPSCALE
 40
0.0
  9
$OLESTARTUP
290
0
  9
$SORTENTS
280
127
  9
$INDEXCTL
280
0
  9
$HIDETEXT
280
1
  9
$XCLIPFRAME
280
0
  9
$HALOGAP
280
0
  9
$OBSCOLOR
 70
257
  9
$OBSLTYPE
280
0
  9
$INTERSECTIONDISPLAY
280
0
  9
$INTERSECTIONCOLOR
 70
257
  9
$DIMASSOC
280
2
  9
$PROJECTNAME
  1

  9
$CAMERADISPLAY
290
0
  9
$LENSLENGTH
 40
50.0
  9
$CAMERAHEIGHT
 40
0.0
  9
$STEPSPERSEC
 40
24.0
  9
$STEPSIZE
 40
100.0
  9
$3DDWFPREC
 40
2.0
  9
$PSOLWIDTH
 40
0.005
  9
$PSOLHEIGHT
 40
0.08
  9
$LOFTANG1
 40
1.570796326795
  9
$LOFTANG2
 40
1.570796326795
  9
$LOFTMAG1
 40
0.0
  9
$LOFTMAG2
 40
0.0
  9
$LOFTPARAM
 70
7
  9
$LOFTNORMALS
280
1
  9
$LATITUDE
 40
37.795
  9
$LONGITUDE
 40
-122.394
  9
$NORTHDIRECTION
 40
0.0
  9
$TIMEZONE
 70
-8000
  9
$LIGHTGLYPHDISPLAY
280
1
  9
$TILEMODELIGHTSYNCH
280
1
  9
$CMATERIAL
347
20
  9
$SOLIDHIST
280
0
  9
$SHOWHIST
280
1
  9
$DWFFRAME
280
2
  9
$DGNFRAME
280
2
  9
$REALWORLDSCALE
290
1
  9
$INTERFERECOLOR
 62
256
  9
$CSHADOW
280
0
  9
$SHADOWPLANELOCATION
 40
0.0
  0
ENDSEC
  0
SECTION
  2
CLASSES
  0
CLASS
  1
ACDBDICTIONARYWDFLT
  2
AcDbDictionaryWithDefault
  3
ObjectDBX Classes
 90
0
 91
0
280
0
281
0
  0
CLASS
  1
SUN
  2
AcDbSun
  3
SCENEOE
 90
1153
 91
0
280
0
281
0
  0
CLASS
  1
VISUALSTYLE
  2
AcDbVisualStyle
  3
ObjectDBX Classes
 90
4095
 91
0
280
0
281
0
  0
CLASS
  1
MATERIAL
  2
AcDbMaterial
  3
ObjectDBX Classes
 90
1153
 91
0
280
0
281
0
  0
CLASS
  1
SCALE
  2
AcDbScale
  3
ObjectDBX Classes
 90
1153
 91
0
280
0
281
0
  0
CLASS
  1
TABLESTYLE
  2
AcDbTableStyle
  3
ObjectDBX Classes
 90
4095
 91
0
280
0
281
0
  0
CLASS
  1
MLEADERSTYLE
  2
AcDbMLeaderStyle
  3
ACDB_MLEADERSTYLE_CLASS
 90
4095
 91
0
280
0
281
0
  0
CLASS
  1
DICTIONARYVAR
  2
AcDbDictionaryVar
  3
ObjectDBX Classes
 90
0
 91
0
280
0
281
0
  0
CLASS
  1
CELLSTYLEMAP
  2
AcDbCellStyleMap
  3
ObjectDBX Classes
 90
1152
 91
0
280
0
281
0
  0
CLASS
  1
MENTALRAYRENDERSETTINGS
  2
AcDbMentalRayRenderSettings
  3
SCENEOE
 90
1024
 91
0
280
0
281
0
  0
CLASS
  1
ACDBDETAILVIEWSTYLE
  2
AcDbDetailViewStyle
  3
ObjectDBX Classes
 90
1025
 91
0
280
0
281
0
  0
CLASS
  1
ACDBSECTIONVIEWSTYLE
  2
AcDbSectionViewStyle
  3
ObjectDBX Classes
 90
1025
 91
0
280
0
281
0
  0
CLASS
  1
RASTERVARIABLES
  2
AcDbRasterVariables
  3
ISM
 90
0
 91
0
280
0
281
0
  0
CLASS
  1
ACDBPLACEHOLDER
  2
AcDbPlaceHolder
  3
ObjectDBX Classes
 90
0
 91
0
280
0
281
0
  0
CLASS
  1
LAYOUT
  2
AcDbLayout
  3
ObjectDBX Classes
 90
0
 91
0
280
0
281
0
  0
ENDSEC
  0
SECTION
  2
TABLES
  0
TABLE
  2
VPORT
  5
8
330
0
100
AcDbSymbolTable
 70
1
  0
VPORT
  5
23
330
8
100
AcDbSymbolTableRecord
100
AcDbViewportTableRecord
  2
*Active
 70
0
 10
0.0
 20
0.0
 11
1.0
 21
1.0
 12
0.0
 22
0.0
 13
0.0
 23
0.0
 14
0.5
 24
0.5
 15
0.5
 25
0.5
 16
0.0
 26
0.0
 36
1.0
 17
0.0
 27
0.0
 37
0.0
 40
1000.0
 41
1.34
 42
50.0
 43
0.0
 44
0.0
 50
0.0
 51
0.0
 71
0
 72
1000
 73
1
 74
3
 75
0
 76
0
 77
0
 78
0
281
0
 65
0
146
0.0
  0
ENDTAB
  0
TABLE
  2
LTYPE
  5
2
330
0
100
AcDbSymbolTable
 70
3
  0
LTYPE
  5
24
330
2
100
AcDbSymbolTableRecord
100
AcDbLinetypeTableRecord
  2
ByBlock
 70
0
  3

 72
65
 73
0
 40
0.0
  0
LTYPE
  5
25
330
2
100
AcDbSymbolTableRecord
100
AcDbLinetypeTableRecord
  2
ByLayer
 70
0
  3

 72
65
 73
0
 40
0.0
  0
LTYPE
  5
26
330
2
100
AcDbSymbolTableRecord
100
AcDbLinetypeTableRecord
  2
Continuous
 70
0
  3

 72
65
 73
0
 40
0.0
  0
ENDTAB
  0
TABLE
  2
LAYER
  5
1
330
0
100
AcDbSymbolTable
 70
2
  0
LAYER
  5
27
330
1
100
AcDbSymbolTableRecord
100
AcDbLayerTableRecord
  2
0
 70
0
 62
7
  6
Continuous
370
-3
390
13
347
21
  0
LAYER
  5
28
330
1
100
AcDbSymbolTableRecord
100
AcDbLayerTableRecord
  2
Defpoints
 70
0
 62
7
  6
Continuous
290
0
370
-3
390
13
347
21
  0
ENDTAB
  0
TABLE
  2
STYLE
  5
5
330
0
100
AcDbSymbolTable
 70
1
  0
STYLE
  5
29
330
5
100
AcDbSymbolTableRecord
100
AcDbTextStyleTableRecord
  2
Standard
 70
0
 40
0.0
 41
1.0
 50
0.0
 71
0
 42
2.5
  3
txt
  4

  0
ENDTAB
  0
TABLE
  2
VIEW
  5
7
330
0
100
AcDbSymbolTable
 70
0
  0
ENDTAB
  0
TABLE
  2
UCS
  5
6
330
0
100
AcDbSymbolTable
 70
0
  0
ENDTAB
  0
TABLE
  2
APPID
  5
3
330
0
100
AcDbSymbolTable
 70
3
  0
APPID
  5
2A
330
3
100
AcDbSymbolTableRecord
100
AcDbRegAppTableRecord
  2
ACAD
 70
0
  0
APPID
  5
161
330
3
100
AcDbSymbolTableRecord
100
AcDbRegAppTableRecord
  2
HATCHBACKGROUNDCOLOR
 70
0
  0
APPID
  5
162
330
3
100
AcDbSymbolTableRecord
100
AcDbRegAppTableRecord
  2
EZDXF
 70
0
  0
ENDTAB
  0
TABLE
  2
DIMSTYLE
  5
4
330
0
100
AcDbSymbolTable
 70
1
100
AcDbDimStyleTable
  0
DIMSTYLE
105
2B
330
4
100
AcDbSymbolTableRecord
100
AcDbDimStyleTableRecord
  2
Standard
 70
0
 40
1.0
 41
2.5
 42
0.625
 43
3.75
 44
1.25
 45
0.0
 46
0.0
 47
0.0
 48
0.0
 49
2.5
140
2.5
141
2.5
142
0.0
143
0.03937007874
144
1.0
145
0.0
146
1.0
147
0.625
148
0.0
 69
0
 70
0
 71
0
 72
0
 73
0
 74
0
 75
0
 76
0
 77
1
 78
8
 79
3
170
0
171
3
172
1
173
0
174
0
175
0
176
0
177
0
178
0
179
2
271
2
272
2
273
2
274
3
275
0
276
0
277
2
278
44
279
0
280
0
281
0
282
0
283
0
284
8
285
0
286
0
288
0
289
3
290
0
371
-2
372
-2
  0
ENDTAB
  0
TABLE
  2
BLOCK_RECORD
  5
9
330
0
100
AcDbSymbolTable
 70
2
  0
BLOCK_RECORD
  5
17
330
9
100
AcDbSymbolTableRecord
100
AcDbBlockTableRecord
  2
*Model_Space
340
1A
 70
0
280
1
281
0
  0
BLOCK_RECORD
  5
1B
330
9
100
AcDbSymbolTableRecord
100
AcDbBlockTableRecord
  2
*Paper_Space
340
1E
 70
0
280
1
281
0
  0
ENDTAB
  0
ENDSEC
  0
SECTION
  2
BLOCKS
  0
BLOCK
  5
18
330
17
100
AcDbEntity
  8
0
100
AcDbBlockBegin
  2
*Model_Space
 70
0
 10
0.0
 20
0.0
 30
0.0
  3
*Model_Space
  1

  0
ENDBLK
  5
19
330
17
100
AcDbEntity
  8
0
100
AcDbBlockEnd
  0
BLOCK
  5
1C
330
1B
100
AcDbEntity
  8
0
100
AcDbBlockBegin
  2
*Paper_Space
 70
0
 10
0.0
 20
0.0
 30
0.0
  3
*Paper_Space
  1

  0
ENDBLK
  5
1D
330
1B
100
AcDbEntity
  8
0
100
AcDbBlockEnd
  0
ENDSEC
  0
SECTION
  2
ENTITIES
  0
LINE
  5
2F
330
17
100
AcDbEntity
  8
FP-Footing
100
AcDbLine
 10
-176.48866005793388
 20
8.000121664652625
 30
0.0
 11
-176.48866005793388
 21
0.0001216646526245313
 31
0.0
  0
LINE
  5
30
330
17
100
AcDbEntity
  8
FP-Footing
100
AcDbLine
 10
122.51387510979475
 20
0.007626964893006516
 30
0.0
 11
-176.48866005793388
 21
0.0001216646526245313
 31
0.0
  0
LINE
  5
31
330
17
100
AcDbEntity
  8
FP-Footing
100
AcDbLine
 10
-176.48866005793388
 20
8.000121664652625
 30
0.0
 11
122.51387510979475
 21
8.007626964893007
 31
0.0
  0
LWPOLYLINE
  5
32
330
17
100
AcDbEntity
  8
FP-Proposed Wall
100
AcDbPolyline
 90
4
 70
0
 10
-172.5268903667893
 20
143.00759678323493
 10
-172.9868519963784
 20
143.00759729900938
 10
-172.98684638966006
 20
148.00759729900756
 10
-31.006947234942345
 20
148.0099236212277
  0
LINE
  5
33
330
17
100
AcDbEntity
  8
FP-Proposed Wall
100
AcDbLine
 10
-172.78437018931072
 20
249.73253508356515
 30
0.0
 11
-172.23599768171334
 21
250.00786103974838
 31
0.0
  0
LINE
  5
34
330
17
100
AcDbEntity
  8
EL-Trim
 62
8
100
AcDbLine
 10
-144.83471642933
 20
249.25697829734395
 30
0.0
 11
-172.65373068239205
 21
249.25697829734213
 31
0.0
  0
LINE
  5
35
330
17
100
AcDbEntity
  8
FP-Proposed Wall
100
AcDbLine
 10
-172.52689260944317
 20
141.00762925048957
 30
0.0
 11
-171.48863594063005
 21
141.0076280862454
 31
0.0
  0
LINE
  5
36
330
17
100
AcDbEntity
  8
FP-Proposed Wall
100
AcDbLine
 10
-172.52689036675292
 20
143.00762925048775
 30
0.0
 11
-172.52689260944317
 21
141.00762925048957
 31
0.0
  0
LINE
  5
37
330
17
100
AcDbEntity
  8
EL-Trim
 62
8
100
AcDbLine
 10
-31.006947234942345
 20
143.01054217175988
 30
-24.501591741473234
 11
-172.52689036609445
 21
143.0082165363542
 31
0.0
  0
LINE
  5
38
330
17
100
AcDbEntity
  8
FP-Proposed Wall
100
AcDbLine
 10
-172.23599680305415
 20
249.00786103974656
 30
0.0
 11
-172.42472680305582
 21
249.00786125137688
 31
0.0
  0
LWPOLYLINE
  5
39
330
17
100
AcDbEntity
  8
FP-Proposed Wall
100
AcDbPolyline
 90
2
 70
0
 10
-172.23595709942674
 20
291.0079027270401
 10
-172.42468514370557
 20
291.00805200659534
  0
LINE
  5
3A
330
17
100
AcDbEntity
  8
FP-Stair
100
AcDbLine
 10
-144.83471642933
 20
250.00782463281325
 30
0.0
 11
-172.23607019416886
 21
250.00782463281485
 31
0.0
  0
LINE
  5
3B
330
17
100
AcDbEntity
  8
FP-Proposed Wall
100
AcDbLine
 10
-172.2359999244036
 20
248.0078610397502
 30
0.0
 11
-172.23599880305483
 21
249.00786103974838
 31
0.0
  0
LINE
  5
3C
330
17
100
AcDbEntity
  8
FP-Proposed Wall
 62
1
100
AcDbLine
 10
-144.83471642933
 20
248.00800569056582
 30
0.0
 11
-172.2359999242144
 21
248.00802548449565
 31
0.0
  0
LINE
  5
3D
330
17
100
AcDbEntity
  8
EL-Trim
 62
8
100
AcDbLine
 10
-144.83471642933
 20
249.00697829734804
 30
0.0
 11
-172.235998804048
 21
249.00697829734986
 31
0.0
  0
LINE
  5
3E
330
17
100
AcDbEntity
  8
FP-Proposed Wall
 62
1
100
AcDbLine
 10
-26.987062809468625
 20
290.0099538069312
 30
-30.343027464939198
 11
-172.23595822222342
 21
290.00660879818133
 31
0.0
  0
LINE
  5
3F
330
17
100
AcDbEntity
  8
FP-Proposed Wall
100
AcDbLine
 10
-172.2359582207755
 20
290.00790272704194
 30
0.0
 11
-172.23595709942674
 21
291.0079027270401
 31
0.0
  0
LINE
  5
40
330
17
100
AcDbEntity
  8
EL-Trim
 62
8
100
AcDbLine
 10
-172.2359571008783
 20
291.00660524540126
 30
0.0
 11
-26.987062809468625
 21
291.0099248802712
 31
-30.085959325189382
  0
LINE
  5
41
330
17
100
AcDbEntity
  8
FP-Proposed Wall
100
AcDbLine
 10
-171.48865332145942
 20
125.50762808624359
 30
0.0
 11
-170.48865332145579
 21
125.5076269648996
 31
0.0
  0
LINE
  5
42
330
17
100
AcDbEntity
  8
FP-Proposed Wall
100
AcDbLine
 10
-171.48865332145942
 20
125.50762808624359
 30
0.0
 11
-171.48863594063005
 21
141.0076280862454
 31
0.0
  0
LINE
  5
43
330
17
100
AcDbEntity
  8
FP-Stair
100
AcDbLine
 10
-31.006947234942345
 20
141.0105434287475
 30
-24.501591741473234
 11
-171.4886359371776
 21
141.01070095702198
 31
-4.547473508864641e-13
  0
LINE
  5
44
330
17
100
AcDbEntity
  8
FP-Proposed Wall
100
AcDbLine
 10
-171.4861120588139
 20
148.007860209829
 30
0.0
 11
-171.4859999244036
 21
248.00786019686507
 31
0.0
  0
LINE
  5
45
330
17
100
AcDbEntity
  8
FP-Proposed Wall
100
AcDbLine
 10
-171.48599768172062
 20
250.00786019686143
 30
0.0
 11
-171.48595282795213
 21
290.0078581990563
 31
0.0
  0
LINE
  5
46
330
17
100
AcDbEntity
  8
FP-Footing
100
AcDbLine
 10
-170.48866005793388
 20
119.50012166465444
 30
0.0
 11
-170.48866005793752
 21
8.000121664652625
 31
0.0
  0
LWPOLYLINE
  5
47
330
17
100
AcDbEntity
  8
FP-Proposed Wall
100
AcDbPolyline
 90
2
 70
0
 10
-170.48865332145579
 20
125.50762696489119
 10
-170.48866004951924
 20
119.50762696489483
  0
LINE
  5
48
330
17
100
AcDbEntity
  8
FP-Stair
100
AcDbLine
 10
-31.006947234942345
 20
125.51054378119716
 30
-24.501591741473234
 11
-170.48865332145579
 21
125.50762696489119
 31
0.0
  0
LINE
  5
49
330
17
100
AcDbEntity
  8
EL-Trim
 62
8
100
AcDbLine
 10
-164.16018403649286
 20
249.73252541288616
 30
0.0
 11
-163.6118115288955
 21
250.00785136906757
 31
0.0
  0
LINE
  5
4A
330
17
100
AcDbEntity
  8
EL-Trim
 62
8
100
AcDbLine
 10
-163.6118106502363
 20
249.00785136906575
 30
0.0
 11
-163.80054065023796
 21
249.0078515806979
 31
0.0
  0
LINE
  5
4B
330
17
100
AcDbEntity
  8
EL-Trim
 62
8
100
AcDbLine
 10
-163.61181377157845
 20
248.00785136906939
 30
0.0
 11
-163.61181265023697
 21
249.00785136906939
 31
0.0
  0
LINE
  5
4C
330
17
100
AcDbEntity
  8
EL-Trim
 62
8
100
AcDbLine
 10
-163.61176667508335
 20
290.007888912887
 30
0.0
 11
-163.61176555374186
 21
291.007888912887
 31
0.0
  0
LINE
  5
4D
330
17
100
AcDbEntity
  8
EL-Trim
 62
8
100
AcDbLine
 10
-162.8618115288955
 20
250.00785052805963
 30
0.0
 11
-162.861766675127
 21
290.00785054095445
 31
0.0
  0
LINE
  5
4E
330
17
100
AcDbEntity
  8
EL-Trim
 62
8
100
AcDbLine
 10
-162.86003206992973
 20
248.00785052405604
 30
0.0
 11
-162.8601442043473
 21
148.00784853709206
 31
0.0
  0
LINE
  5
4F
330
17
100
AcDbEntity
  8
EL-Trim
 62
8
100
AcDbLine
 10
-162.16018403649286
 20
249.73252317019774
 30
0.0
 11
-161.6118115288955
 21
250.00784912637914
 31
0.0
  0
LINE
  5
50
330
17
100
AcDbEntity
  8
EL-Trim
 62
8
100
AcDbLine
 10
-161.61002894864578
 20
249.00784712438303
 30
0.0
 11
-161.79875894864745
 21
249.00784733601336
 31
0.0
  0
LINE
  5
51
330
17
100
AcDbEntity
  8
EL-Trim
 62
8
100
AcDbLine
 10
-161.61176667457403
 20
290.0078866702004
 30
0.0
 11
-161.61176555323254
 21
291.00788667019856
 31
0.0
  0
LINE
  5
52
330
17
100
AcDbEntity
  8
EL-Trim
 62
8
100
AcDbLine
 10
-161.6100320699952
 20
248.00784712438485
 30
0.0
 11
-161.61003094864645
 21
249.00784712438485
 31
0.0
  0
LINE
  5
53
330
17
100
AcDbEntity
  8
EL-Trim
 62
8
100
AcDbLine
 10
-161.61003206998794
 20
248.0078491243837
 30
0.0
 11
-160.86003206998794
 21
248.00784828337578
 31
0.0
  0
LINE
  5
54
330
17
100
AcDbEntity
  8
EL-Trim
 62
8
100
AcDbLine
 10
-160.8618115288955
 20
250.0078482853712
 30
0.0
 11
-160.8617666749742
 21
290.0078482980623
 31
0.0
  0
LWPOLYLINE
  5
55
330
17
100
AcDbEntity
  8
EL-Trim
 62
8
100
AcDbPolyline
 90
2
 70
0
 10
-160.86003206998794
 20
248.00784828337578
 10
-160.86014420440551
 20
148.00784629538407
  0
LWPOLYLINE
  5
56
330
17
100
AcDbEntity
  8
EL-Trim
 62
8
100
AcDbPolyline
 90
2
 70
0
 10
-160.86002982730497
 20
250.0078462833751
 10
-160.86002982730497
 20
250.00784828337396
  0
LINE
  5
57
330
17
100
AcDbEntity
  8
EL-Trim
 62
8
100
AcDbLine
 10
-146.83468940884995
 20
250.00819656353883
 30
0.0
 11
-146.8347342627676
 21
290.00819657623015
 31
0.0
  0
LWPOLYLINE
  5
58
330
17
100
AcDbEntity
  8
EL-Trim
 62
8
100
AcDbPolyline
 90
2
 70
0
 10
-146.83468716577772
 20
248.00785103193834
 10
-146.83457503136015
 20
148.00784904394663
  0
LINE
  5
59
330
17
100
AcDbEntity
  8
EL-Trim
 62
8
100
AcDbLine
 10
-146.08468716577772
 20
248.00785187294628
 30
0.0
 11
-146.83468716577772
 21
248.00785103193834
 31
0.0
  0
LINE
  5
5A
330
17
100
AcDbEntity
  8
EL-Trim
 62
8
100
AcDbLine
 10
-146.08469028711988
 20
249.0078498729456
 30
0.0
 11
-145.8959602871182
 21
249.00785008457592
 31
0.0
  0
LINE
  5
5B
330
17
100
AcDbEntity
  8
EL-Trim
 62
8
100
AcDbLine
 10
-146.08468716577045
 20
248.00784987294742
 30
0.0
 11
-146.0846882871192
 21
249.00784987294742
 31
0.0
  0
LINE
  5
5C
330
17
100
AcDbEntity
  8
EL-Trim
 62
8
100
AcDbLine
 10
-146.08399993218336
 20
290.00784826127915
 30
0.0
 11
-146.08400105352484
 21
291.00784826127733
 31
0.0
  0
LINE
  5
5D
330
17
100
AcDbEntity
  8
EL-Trim
 62
8
100
AcDbLine
 10
-145.5345351992728
 20
249.7325259187603
 30
0.0
 11
-146.08290770687017
 21
250.0078518749417
 31
0.0
  0
LWPOLYLINE
  5
5E
330
17
100
AcDbEntity
  8
FP-Stair
100
AcDbPolyline
 90
4
 70
0
 10
-144.8347164293191
 20
148.00757041524776
 10
-144.83471642933
 20
274.10471029645305
 10
-96.63873203217372
 20
274.10471029645305
 10
-96.63873203217372
 20
148.0075000080592
  0
LINE
  5
5F
330
17
100
AcDbEntity
  8
FP-Stair
100
AcDbLine
 10
-144.83471642933
 20
274.10471029646123
 30
0.0
 11
-144.83295256102792
 21
290.0082008211184
 31
0.0
  0
LINE
  5
60
330
17
100
AcDbEntity
  8
FP-Stair
100
AcDbLine
 10
-144.08399993167404
 20
290.00785050396576
 30
0.0
 11
-144.08400105301553
 21
291.00785050396576
 31
0.0
  0
LWPOLYLINE
  5
61
330
17
100
AcDbEntity
  8
FP-Proposed Wall
 62
8
100
AcDbPolyline
 90
4
 70
0
 10
-142.8347164293191
 20
148.00756749354423
 10
-142.83471642933
 20
272.10471029645305
 10
-98.63873203217372
 20
272.10471029645305
 10
-98.63873203217372
 20
148.00750292976272
  0
LWPOLYLINE
  5
62
330
17
100
AcDbEntity
  8
FP-Proposed Wall
 62
8
100
AcDbPolyline
 90
4
 70
0
 10
-141.8347164293191
 20
148.00756603269247
 10
-141.83471642933
 20
271.10471029645305
 10
-99.63873203217372
 20
271.10471029645305
 10
-99.63873203217372
 20
148.00750439061449
  0
LWPOLYLINE
  5
63
330
17
100
AcDbEntity
  8
FP-Proposed Wall
 62
1
100
AcDbPolyline
 90
5
 70
0
 10
-138.73675198570345
 20
148.00756150702546
 10
-138.73672423075186
 20
268.0067180978767
 10
-102.73672423075186
 20
268.0067180978767
 10
-102.73675198570345
 20
148.00756150702546
 10
-138.73675198570345
 20
148.00756150702546
  0
LWPOLYLINE
  5
64
330
17
100
AcDbEntity
  8
FP-Proposed Wall
 62
8
100
AcDbPolyline
 90
6
 70
0
 10
-137.23672423075186
 20
180.87112607517702
 10
-137.23672423075186
 20
266.5067180978767
 10
-104.23672423075186
 20
266.5067180978767
 10
-104.23675198570345
 20
149.50756150702546
 10
-137.23675198570345
 20
149.50756150702546
 10
-137.23672423075186
 20
180.87112607517702
  0
LWPOLYLINE
  5
65
330
17
100
AcDbEntity
  8
FP-Proposed Wall
 62
8
100
AcDbPolyline
 90
6
 70
0
 10
-136.23672423075186
 20
180.87112607517702
 10
-136.23672423075186
 20
265.5067180978767
 10
-105.23672423075186
 20
265.5067180978767
 10
-105.23675198570345
 20
150.50756150702546
 10
-136.23675198570345
 20
150.50756150702546
 10
-136.23672423075186
 20
180.87112607517702
  0
LINE
  5
66
330
17
100
AcDbEntity
  8
FP-Hatch
100
AcDbLine
 10
-105.23672423075186
 20
169.50671810386484
 30
0.0
 11
-136.23672423075186
 21
169.50671810386484
 31
0.0
  0
LINE
  5
67
330
17
100
AcDbEntity
  8
FP-Hatch
100
AcDbLine
 10
-105.23672423075186
 20
185.50671810386484
 30
0.0
 11
-136.23672423075186
 21
185.50671810386484
 31
0.0
  0
LINE
  5
68
330
17
100
AcDbEntity
  8
FP-Hatch
100
AcDbLine
 10
-105.23672423075186
 20
201.50671810386484
 30
0.0
 11
-136.23672423075186
 21
201.50671810386484
 31
0.0
  0
LINE
  5
69
330
17
100
AcDbEntity
  8
FP-Hatch
100
AcDbLine
 10
-105.23672423075186
 20
217.50671810386484
 30
0.0
 11
-136.23672423075186
 21
217.50671810386484
 31
0.0
  0
LINE
  5
6A
330
17
100
AcDbEntity
  8
FP-Hatch
100
AcDbLine
 10
-105.23672423075186
 20
233.50671810386484
 30
0.0
 11
-136.23672423075186
 21
233.50671810386484
 31
0.0
  0
LINE
  5
6B
330
17
100
AcDbEntity
  8
FP-Hatch
100
AcDbLine
 10
-105.23672423075186
 20
249.50671810386484
 30
0.0
 11
-136.23672423075186
 21
249.50671810386484
 31
0.0
  0
LINE
  5
6C
330
17
100
AcDbEntity
  8
FP-Hatch
100
AcDbLine
 10
-120.73672423075186
 20
265.5067180978767
 30
0.0
 11
-120.73675198570345
 21
150.50756150702546
 31
0.0
  0
LINE
  5
6D
330
17
100
AcDbEntity
  8
FP-Stair
100
AcDbLine
 10
-97.38944852982968
 20
290.00785050396576
 30
0.0
 11
-97.3894474084882
 21
291.00785050396576
 31
0.0
  0
LINE
  5
6E
330
17
100
AcDbEntity
  8
FP-Stair
100
AcDbLine
 10
-96.63873203217372
 20
274.10471029646123
 30
0.0
 11
-96.6404959004758
 21
290.0082008211184
 31
0.0
  0
LINE
  5
6F
330
17
100
AcDbEntity
  8
FP-Proposed Wall
 62
1
100
AcDbLine
 10
9.035692074725375
 20
248.00819698404462
 30
-23.562462567328257
 11
-96.63873203217372
 21
248.00795164623378
 31
0.0
  0
LINE
  5
70
330
17
100
AcDbEntity
  8
EL-Trim
 62
8
100
AcDbLine
 10
9.635128942907613
 20
249.00728515314609
 30
-23.786243734705685
 11
-96.63873203217372
 21
249.00697829734327
 31
0.0
  0
LINE
  5
71
330
17
100
AcDbEntity
  8
EL-Trim
 62
8
100
AcDbLine
 10
9.785128413361235
 20
249.2572909573512
 30
-23.842241385810958
 11
-96.63873203217372
 21
249.25697829734872
 31
0.0
  0
LINE
  5
72
330
17
100
AcDbEntity
  8
FP-Stair
100
AcDbLine
 10
9.412471533632925
 20
250.008197406544
 30
-23.562462567328257
 11
-96.63873203217372
 21
250.00782463280848
 31
0.0
  0
LINE
  5
73
330
17
100
AcDbEntity
  8
EL-Trim
 62
8
100
AcDbLine
 10
-95.93891326184166
 20
249.7328714503626
 30
0.0
 11
-95.39054075424428
 21
250.008197406544
 31
0.0
  0
LINE
  5
74
330
17
100
AcDbEntity
  8
EL-Trim
 62
8
100
AcDbLine
 10
-95.38875817399457
 20
249.0081954045479
 30
0.0
 11
-95.57748817399624
 21
249.00819561617823
 31
0.0
  0
LINE
  5
75
330
17
100
AcDbEntity
  8
EL-Trim
 62
8
100
AcDbLine
 10
-95.38944852932036
 20
290.00784826127915
 30
0.0
 11
-95.38944740797888
 21
291.00784826127733
 31
0.0
  0
LINE
  5
76
330
17
100
AcDbEntity
  8
EL-Trim
 62
8
100
AcDbLine
 10
-95.38876129534401
 20
248.00819540454972
 30
0.0
 11
-95.38876017399525
 21
249.00819540454972
 31
0.0
  0
LINE
  5
77
330
17
100
AcDbEntity
  8
EL-Trim
 62
8
100
AcDbLine
 10
-95.38876129533674
 20
248.00819740454858
 30
0.0
 11
-94.63876129533674
 21
248.00819656354065
 31
0.0
  0
LWPOLYLINE
  5
78
330
17
100
AcDbEntity
  8
EL-Trim
 62
8
100
AcDbPolyline
 90
2
 70
0
 10
-94.63876129533674
 20
248.00819656354065
 10
-94.63887342975431
 20
148.00819457554894
  0
LWPOLYLINE
  5
79
330
17
100
AcDbEntity
  8
EL-Trim
 62
8
100
AcDbPolyline
 90
2
 70
0
 10
-94.63875905265377
 20
250.00819456353997
 10
-94.63875905265377
 20
250.00819656353883
  0
LINE
  5
7A
330
17
100
AcDbEntity
  8
EL-Trim
 62
8
100
AcDbLine
 10
-94.63875905265377
 20
250.00819656353883
 30
0.0
 11
-94.63871419873612
 21
290.00819657623015
 31
0.0
  0
LWPOLYLINE
  5
7B
330
17
100
AcDbEntity
  8
EL-Trim
 62
8
100
AcDbPolyline
 90
2
 70
0
 10
-80.61341863419875
 20
250.0078462833751
 10
-80.61341863419875
 20
250.00784828337396
  0
LWPOLYLINE
  5
7C
330
17
100
AcDbEntity
  8
EL-Trim
 62
8
100
AcDbPolyline
 90
2
 70
0
 10
-80.61341639151578
 20
248.00784828337578
 10
-80.6133042570982
 20
148.00784629538407
  0
LINE
  5
7D
330
17
100
AcDbEntity
  8
EL-Trim
 62
8
100
AcDbLine
 10
-79.86341639151578
 20
248.0078491243837
 30
0.0
 11
-80.61341639151578
 21
248.00784828337578
 31
0.0
  0
LINE
  5
7E
330
17
100
AcDbEntity
  8
EL-Trim
 62
8
100
AcDbLine
 10
-80.61163693260823
 20
250.0078482853712
 30
0.0
 11
-80.61168178652952
 21
290.0078482980623
 31
0.0
  0
LINE
  5
7F
330
17
100
AcDbEntity
  8
EL-Trim
 62
8
100
AcDbLine
 10
-79.86341951285794
 20
249.00784712438303
 30
0.0
 11
-79.67468951285628
 21
249.00784733601336
 31
0.0
  0
LINE
  5
80
330
17
100
AcDbEntity
  8
EL-Trim
 62
8
100
AcDbLine
 10
-79.86341639150851
 20
248.00784712438485
 30
0.0
 11
-79.86341751285727
 21
249.00784712438485
 31
0.0
  0
LINE
  5
81
330
17
100
AcDbEntity
  8
EL-Trim
 62
8
100
AcDbLine
 10
-79.8616817869297
 20
290.0078866702004
 30
0.0
 11
-79.86168290827118
 21
291.00788667019856
 31
0.0
  0
LINE
  5
82
330
17
100
AcDbEntity
  8
EL-Trim
 62
8
100
AcDbLine
 10
-79.31326442501086
 20
249.73252317019774
 30
0.0
 11
-79.86163693260823
 21
250.00784912637914
 31
0.0
  0
LINE
  5
83
330
17
100
AcDbEntity
  8
EL-Trim
 62
8
100
AcDbLine
 10
-78.61341639157399
 20
248.00785052405604
 30
0.0
 11
-78.61330425715641
 21
148.00784853709206
 31
0.0
  0
LINE
  5
84
330
17
100
AcDbEntity
  8
EL-Trim
 62
8
100
AcDbLine
 10
-78.61163693260823
 20
250.00785052805963
 30
0.0
 11
-78.61168178637672
 21
290.00785054095445
 31
0.0
  0
LINE
  5
85
330
17
100
AcDbEntity
  8
EL-Trim
 62
8
100
AcDbLine
 10
-77.86168178642038
 20
290.007888912887
 30
0.0
 11
-77.86168290776186
 21
291.007888912887
 31
0.0
  0
LINE
  5
86
330
17
100
AcDbEntity
  8
EL-Trim
 62
8
100
AcDbLine
 10
-77.86163781126743
 20
249.00785136906575
 30
0.0
 11
-77.67290781126576
 21
249.0078515806979
 31
0.0
  0
LINE
  5
87
330
17
100
AcDbEntity
  8
EL-Trim
 62
8
100
AcDbLine
 10
-77.31326442501086
 20
249.73252541288616
 30
0.0
 11
-77.86163693260823
 21
250.00785136906757
 31
0.0
  0
LINE
  5
88
330
17
100
AcDbEntity
  8
EL-Trim
 62
8
100
AcDbLine
 10
-77.86163468992527
 20
248.00785136906939
 30
0.0
 11
-77.86163581126675
 21
249.00785136906939
 31
0.0
  0
LWPOLYLINE
  5
89
330
17
100
AcDbEntity
  8
FP-Proposed Wall
100
AcDbPolyline
 90
2
 70
0
 38
-23.562462567328257
 10
-70.0908934248655
 20
265.25820613459723
 10
-69.0908934248655
 20
265.2582050132562
  0
LINE
  5
8A
330
17
100
AcDbEntity
  8
FP-Proposed Wall
100
AcDbLine
 10
-70.09089258385939
 20
266.00820613459723
 30
-23.562462567328257
 11
-70.0908934248655
 21
265.25820613459723
 31
-23.562462567328257
  0
LINE
  5
8B
330
17
100
AcDbEntity
  8
FP-Proposed Wall
100
AcDbLine
 10
-70.0908934248655
 20
265.25820613459723
 30
-23.562462567328257
 11
-69.0908934248655
 21
265.25820613459723
 31
-23.562462567328257
  0
LINE
  5
8C
330
17
100
AcDbEntity
  8
FP-Proposed Wall
100
AcDbLine
 10
-70.0908934248655
 20
266.00820613459723
 30
-23.562462567328257
 11
-70.0908934248655
 21
265.25820613459723
 31
-23.562462567328257
  0
LINE
  5
8D
330
17
100
AcDbEntity
  8
FP-Proposed Wall
100
AcDbLine
 10
-70.09089258385939
 20
266.00820613459723
 30
-23.562462567328257
 11
15.41245359201639
 21
266.0083020130462
 31
-23.562462567328257
  0
LINE
  5
8E
330
17
100
AcDbEntity
  8
EL-Trim
 62
8
100
AcDbLine
 10
-69.0908934248655
 20
265.2582026303978
 30
-23.22215939077123
 11
14.412454431487276
 21
265.2582026303978
 31
-23.22215939077123
  0
LINE
  5
8F
330
17
100
AcDbEntity
  8
FP-Footing
100
AcDbLine
 10
-67.98969599344127
 20
8.0
 30
0.0
 11
-67.98969599344127
 21
0.0
 31
0.0
  0
LINE
  5
90
330
17
100
AcDbEntity
  8
FP-Proposed Wall
100
AcDbLine
 10
-66.96589580772707
 20
263.13320263039964
 30
-23.562462567328257
 11
-66.96589636839781
 21
262.63320263039964
 31
-23.562462567328257
  0
LINE
  5
91
330
17
100
AcDbEntity
  8
EL-Trim
 62
8
100
AcDbLine
 10
-66.96589465799116
 20
263.1332026303983
 30
-23.22215939077123
 11
12.287456815894984
 21
263.1332915001351
 31
-23.562462567328254
  0
LINE
  5
92
330
17
100
AcDbEntity
  8
FP-Proposed Wall
100
AcDbLine
 10
-65.09089819058136
 20
261.0082005278807
 30
-23.562462567328257
 11
-64.09089819058136
 21
261.0081994065356
 31
-23.562462567328257
  0
LINE
  5
93
330
17
100
AcDbEntity
  8
FP-Proposed Wall
100
AcDbLine
 10
-64.63928303296416
 20
249.7328714503626
 30
-23.562462567328257
 11
-64.09091052536678
 21
250.008197406544
 31
-23.562462567328257
  0
LWPOLYLINE
  5
94
330
17
100
AcDbEntity
  8
FP-Proposed Wall
100
AcDbPolyline
 90
4
 70
0
 10
-64.02777876843174
 20
143.0089806295075
 10
-64.48774039802083
 20
143.00898114528195
 10
-64.4877347913025
 20
148.00898114528013
 10
-35.48590091928054
 20
148.00886611355008
  0
LINE
  5
95
330
17
100
AcDbEntity
  8
FP-Proposed Wall
100
AcDbLine
 10
-64.08912794511707
 20
249.0081954045479
 30
-23.562462567328257
 11
-64.27785794511874
 21
249.00819561617823
 31
-23.562462567328257
  0
LINE
  5
96
330
17
100
AcDbEntity
  8
FP-Proposed Wall
100
AcDbLine
 10
-64.09089819058136
 20
261.0081994065356
 30
-23.562462567328257
 11
-64.09091052536678
 21
250.008197406544
 31
-23.562462567328257
  0
LINE
  5
97
330
17
100
AcDbEntity
  8
FP-Proposed Wall
 62
1
100
AcDbLine
 10
-64.09089819058136
 20
261.0081994065356
 30
-23.562462567328257
 11
9.412459198760189
 21
261.0082818290789
 31
-23.562462567328257
  0
LINE
  5
98
330
17
100
AcDbEntity
  8
FP-Proposed Wall
100
AcDbLine
 10
-64.0891310664665
 20
248.00819540454972
 30
-23.562462567328257
 11
-64.08912994511775
 21
249.00819540454972
 31
-23.562462567328257
  0
LINE
  5
99
330
17
100
AcDbEntity
  8
FP-Proposed Wall
100
AcDbLine
 10
-64.08913106645923
 20
248.00819740454858
 30
-23.562462567328257
 11
-63.33913106645923
 21
248.00819656354065
 31
-23.562462567328257
  0
LINE
  5
9A
330
17
100
AcDbEntity
  8
FP-Proposed Wall
100
AcDbLine
 10
-64.02792630051772
 20
143.0090645183377
 30
0.0
 11
-64.02792854320796
 21
141.00906451833953
 31
0.0
  0
LINE
  5
9B
330
17
100
AcDbEntity
  8
FP-Proposed Wall
100
AcDbLine
 10
-62.987147992575046
 20
148.00929547767896
 30
0.0
 11
-63.33913106645923
 21
248.00819656354065
 31
-23.562462567328257
  0
LINE
  5
9C
330
17
100
AcDbEntity
  8
FP-Proposed Wall
100
AcDbLine
 10
-62.98968925522422
 20
125.50906335409354
 30
0.0
 11
-62.989671874394844
 21
141.00906335409536
 31
0.0
  0
LINE
  5
9D
330
17
100
AcDbEntity
  8
FP-Footing
100
AcDbLine
 10
-61.98969599344127
 20
119.50000000000182
 30
0.0
 11
-61.98969599344491
 21
8.0
 31
0.0
  0
LWPOLYLINE
  5
9E
330
17
100
AcDbEntity
  8
FP-Proposed Wall
100
AcDbPolyline
 90
2
 70
0
 10
-61.989689255216945
 20
125.50906223274114
 10
-61.9896959832804
 20
119.50906223274478
  0
LINE
  5
9F
330
17
100
AcDbEntity
  8
EL-Trim
 62
8
100
AcDbLine
 10
-59.34430465324476
 20
266.00820375465696
 30
-23.562603874273965
 11
-59.344305494250875
 21
265.2582037546588
 31
-23.562603874273965
  0
LINE
  5
A0
330
17
100
AcDbEntity
  8
EL-Trim
 62
8
100
AcDbLine
 10
-57.344304652735445
 20
266.00820151197036
 30
-23.562603874273965
 11
-57.34430549374156
 21
265.25820151197036
 31
-23.562603874273965
  0
LINE
  5
A1
330
17
100
AcDbEntity
  8
EL-Trim
 62
8
100
AcDbLine
 10
-57.341706373579655
 20
263.1332015090545
 30
-23.562603874273965
 11
-57.341706934250396
 21
262.6332015090545
 31
-23.562603874273965
  0
LINE
  5
A2
330
17
100
AcDbEntity
  8
EL-Trim
 62
8
100
AcDbLine
 10
-56.01509359882402
 20
249.7328714503626
 30
-23.562603874273965
 11
-55.466721091226646
 21
250.008197406544
 31
-23.562603874273965
  0
LINE
  5
A3
330
17
100
AcDbEntity
  8
EL-Trim
 62
8
100
AcDbLine
 10
-55.966708756433945
 20
261.00819996720816
 30
-23.562603874273965
 11
-55.466708756433945
 21
261.0081994065356
 31
-23.562603874273965
  0
LINE
  5
A4
330
17
100
AcDbEntity
  8
EL-Trim
 62
8
100
AcDbLine
 10
-55.464938510976936
 20
249.0081954045479
 30
-23.562603874273965
 11
-55.653668510978605
 21
249.00819561617823
 31
-23.562603874273965
  0
LINE
  5
A5
330
17
100
AcDbEntity
  8
EL-Trim
 62
8
100
AcDbLine
 10
-55.466708756433945
 20
261.0081994065356
 30
-23.562603874273965
 11
-55.466721091226646
 21
250.008197406544
 31
-23.562603874273965
  0
LINE
  5
A6
330
17
100
AcDbEntity
  8
EL-Trim
 62
8
100
AcDbLine
 10
-55.46494163232637
 20
248.00819540454972
 30
-23.562603874273965
 11
-55.46494051097761
 21
249.00819540454972
 31
-23.562603874273965
  0
LINE
  5
A7
330
17
100
AcDbEntity
  8
EL-Trim
 62
8
100
AcDbLine
 10
-55.464941632319096
 20
248.00819740454858
 30
-23.562603874273965
 11
-54.714941632319096
 21
248.00819656354065
 31
-23.562603874273965
  0
LINE
  5
A8
330
17
100
AcDbEntity
  8
EL-Trim
 62
8
100
AcDbLine
 10
-55.34170637307034
 20
263.1331992663661
 30
-23.562603874273965
 11
-55.34170693374108
 21
262.6331992663661
 31
-23.562603874273965
  0
LINE
  5
A9
330
17
100
AcDbEntity
  8
EL-Trim
 62
8
100
AcDbLine
 10
-54.36295644754864
 20
148.00869577214098
 30
0.0
 11
-54.71494163231546
 21
248.00819656354088
 31
-23.562603874274018
  0
LINE
  5
AA
330
17
100
AcDbEntity
  8
EL-Trim
 62
8
100
AcDbLine
 10
-54.01509360620912
 20
249.7328714503626
 30
-23.562604402711962
 11
-53.46672109861174
 21
250.008197406544
 31
-23.562604402711962
  0
LINE
  5
AB
330
17
100
AcDbEntity
  8
EL-Trim
 62
8
100
AcDbLine
 10
-53.96670875592463
 20
261.00819772451973
 30
-23.562603874273965
 11
-53.46670875592463
 21
261.00819716384717
 31
-23.562603874273965
  0
LINE
  5
AC
330
17
100
AcDbEntity
  8
EL-Trim
 62
8
100
AcDbLine
 10
-53.46493851836203
 20
249.0081954045479
 30
-23.562604402711962
 11
-53.6536685183637
 21
249.00819561617823
 31
-23.562604402711962
  0
LINE
  5
AD
330
17
100
AcDbEntity
  8
EL-Trim
 62
8
100
AcDbLine
 10
-53.46670875592463
 20
261.00819716384717
 30
-23.562603874273965
 11
-53.46672109071733
 21
250.0081951638556
 31
-23.562603874273965
  0
LINE
  5
AE
330
17
100
AcDbEntity
  8
EL-Trim
 62
8
100
AcDbLine
 10
-53.46494163971147
 20
248.00819540454972
 30
-23.562604402711962
 11
-53.46494051836271
 21
249.00819540454972
 31
-23.562604402711962
  0
LINE
  5
AF
330
17
100
AcDbEntity
  8
EL-Trim
 62
8
100
AcDbLine
 10
-53.46494163970419
 20
248.00819740454858
 30
-23.562604402711962
 11
-52.71494163970419
 21
248.00819656354065
 31
-23.562604402711962
  0
LINE
  5
B0
330
17
100
AcDbEntity
  8
EL-Trim
 62
8
100
AcDbLine
 10
-52.36295644703932
 20
148.00869352945438
 30
0.0
 11
-52.71494163180978
 21
248.0081943208529
 31
-23.562603874273695
  0
LWPOLYLINE
  5
B1
330
17
100
AcDbEntity
  8
FP-Proposed Wall
100
AcDbPolyline
 90
4
 70
0
 10
10.053742449996207
 20
143.0089111720531
 10
10.513704079585295
 20
143.00891168782755
 10
10.513698472863325
 20
148.00891168782573
 10
-35.48590091928054
 20
148.00886611355008
  0
LINE
  5
B2
330
17
100
AcDbEntity
  8
FP-Stair
100
AcDbLine
 10
-31.006947234942345
 20
125.51054378119716
 30
-24.501591741473234
 11
116.5138683817313
 21
125.50762696489119
 31
0.0
  0
LINE
  5
B3
330
17
100
AcDbEntity
  8
FP-Stair
100
AcDbLine
 10
-31.006947234942345
 20
141.0105434287475
 30
-24.501591741473234
 11
117.51385099744948
 21
141.0107099716638
 31
4.547473508864641e-13
  0
LWPOLYLINE
  5
B4
330
17
100
AcDbEntity
  8
FP-Proposed Wall
100
AcDbPolyline
 90
4
 70
0
 10
118.55210542706482
 20
143.00759678323493
 10
119.0120670566539
 20
143.00759729900938
 10
119.01206144993557
 20
148.00759729900756
 10
-31.006947234942345
 20
148.0099236212277
  0
LINE
  5
B5
330
17
100
AcDbEntity
  8
EL-Trim
 62
8
100
AcDbLine
 10
-31.006947234942345
 20
143.01054217175988
 30
-24.501591741473234
 11
118.55210542636996
 21
143.0082165363542
 31
0.0
  0
LINE
  5
B6
330
17
100
AcDbEntity
  8
FP-Proposed Wall
 62
1
100
AcDbLine
 10
-26.987062809468625
 20
290.00994055827346
 30
-30.343048011456855
 11
117.51116788962827
 21
290.00660795716703
 31
0.0
  0
LINE
  5
B7
330
17
100
AcDbEntity
  8
EL-Trim
 62
8
100
AcDbLine
 10
118.26117216115381
 20
291.00660524540126
 30
0.0
 11
-26.987062809468625
 21
291.009911656452
 31
-30.08597838613577
  0
LINE
  5
B8
330
17
100
AcDbEntity
  8
EL-Trim
 62
8
100
AcDbLine
 10
-1.6114042485132813
 20
148.00869352945438
 30
0.0
 11
-1.9634973599204386
 21
248.0081943208529
 31
-23.562603874273695
  0
LINE
  5
B9
330
17
100
AcDbEntity
  8
EL-Trim
 62
8
100
AcDbLine
 10
-1.2134973520296626
 20
248.00819740454858
 30
-23.562604402711962
 11
-1.9634973520296626
 21
248.00819656354065
 31
-23.562604402711962
  0
LINE
  5
BA
330
17
100
AcDbEntity
  8
EL-Trim
 62
8
100
AcDbLine
 10
-1.2135004733718233
 20
249.0081954045479
 30
-23.562604402711962
 11
-1.024770473370154
 21
249.00819561617823
 31
-23.562604402711962
  0
LINE
  5
BB
330
17
100
AcDbEntity
  8
EL-Trim
 62
8
100
AcDbLine
 10
-1.2134973520223866
 20
248.00819540454972
 30
-23.562604402711962
 11
-1.2134984733711462
 21
249.00819540454972
 31
-23.562604402711962
  0
LINE
  5
BC
330
17
100
AcDbEntity
  8
EL-Trim
 62
8
100
AcDbLine
 10
-1.211730235900177
 20
261.0082783980906
 30
-23.562603874273965
 11
-1.2117179011074768
 21
250.00827639809904
 31
-23.562603874273965
  0
LINE
  5
BD
330
17
100
AcDbEntity
  8
EL-Trim
 62
8
100
AcDbLine
 10
-0.7117302359001769
 20
261.0082789587632
 30
-23.562603874273965
 11
-1.211730235900177
 21
261.0082783980906
 31
-23.562603874273965
  0
LINE
  5
BE
330
17
100
AcDbEntity
  8
EL-Trim
 62
8
100
AcDbLine
 10
-0.6633453855247353
 20
249.7328714503626
 30
-23.562604402711962
 11
-1.2117178931221133
 21
250.008197406544
 31
-23.562604402711962
  0
LINE
  5
BF
330
17
100
AcDbEntity
  8
EL-Trim
 62
8
100
AcDbLine
 10
0.7865026405852404
 20
248.00819740454858
 30
-23.562603874273965
 11
0.03650264058524044
 21
248.00819656354065
 31
-23.562603874273965
  0
LINE
  5
C0
330
17
100
AcDbEntity
  8
EL-Trim
 62
8
100
AcDbLine
 10
0.3885957519960357
 20
148.00869577214098
 30
0.0
 11
0.03650264058887842
 21
248.00819656354065
 31
-23.562603874273965
  0
LINE
  5
C1
330
17
100
AcDbEntity
  8
EL-Trim
 62
8
100
AcDbLine
 10
0.6632673812455323
 20
263.13328050060954
 30
-23.562603874273965
 11
0.6632679419162741
 21
262.63328050060954
 31
-23.562603874273965
  0
LINE
  5
C2
330
17
100
AcDbEntity
  8
EL-Trim
 62
8
100
AcDbLine
 10
0.7864995192430797
 20
249.0081954045479
 30
-23.562603874273965
 11
0.9752295192447491
 21
249.00819561617823
 31
-23.562603874273965
  0
LINE
  5
C3
330
17
100
AcDbEntity
  8
EL-Trim
 62
8
100
AcDbLine
 10
0.7865026405925164
 20
248.00819540454972
 30
-23.562603874273965
 11
0.7865015192437568
 21
249.00819540454972
 31
-23.562603874273965
  0
LINE
  5
C4
330
17
100
AcDbEntity
  8
EL-Trim
 62
8
100
AcDbLine
 10
0.7882697646091401
 20
261.00828064077905
 30
-23.562603874273965
 11
0.7882820994018402
 21
250.00827864078747
 31
-23.562603874273965
  0
LINE
  5
C5
330
17
100
AcDbEntity
  8
EL-Trim
 62
8
100
AcDbLine
 10
1.2882697646091401
 20
261.0082812014516
 30
-23.562603874273965
 11
0.7882697646091401
 21
261.00828064077905
 31
-23.562603874273965
  0
LINE
  5
C6
330
17
100
AcDbEntity
  8
EL-Trim
 62
8
100
AcDbLine
 10
1.3366546070901677
 20
249.7328714503626
 30
-23.562603874273965
 11
0.7882820994927897
 21
250.008197406544
 31
-23.562603874273965
  0
LINE
  5
C7
330
17
100
AcDbEntity
  8
EL-Trim
 62
8
100
AcDbLine
 10
2.6632673817548493
 20
263.13328274329797
 30
-23.562603874273965
 11
2.663267942425591
 21
262.63328274329797
 31
-23.562603874273965
  0
LINE
  5
C8
330
17
100
AcDbEntity
  8
EL-Trim
 62
8
100
AcDbLine
 10
2.66586566091064
 20
266.0082827462138
 30
-23.562603874273965
 11
2.665866501916753
 21
265.2582827462138
 31
-23.562603874273965
  0
LINE
  5
C9
330
17
100
AcDbEntity
  8
EL-Trim
 62
8
100
AcDbLine
 10
4.665865661419957
 20
266.0082849889004
 30
-23.562603874273965
 11
4.66586650242607
 21
265.25828498890223
 31
-23.562603874273965
  0
LWPOLYLINE
  5
CA
330
17
100
AcDbEntity
  8
FP-Proposed Wall
100
AcDbPolyline
 90
2
 70
0
 10
8.015505404477153
 20
125.50906223274114
 10
8.015512132540607
 20
119.50906223274478
  0
LINE
  5
CB
330
17
100
AcDbEntity
  8
FP-Footing
100
AcDbLine
 10
8.015512964433583
 20
119.50000000000182
 30
0.0
 11
8.015512964437221
 21
8.0
 31
0.0
  0
LINE
  5
CC
330
17
100
AcDbEntity
  8
FP-Proposed Wall
100
AcDbLine
 10
9.012964141831617
 20
148.00929547767896
 30
0.0
 11
8.660692074725375
 21
248.00819656354065
 31
-23.562462567328257
  0
LINE
  5
CD
330
17
100
AcDbEntity
  8
FP-Proposed Wall
100
AcDbLine
 10
9.410692074725375
 20
248.00819740454858
 30
-23.562462567328257
 11
8.660692074725375
 21
248.00819656354065
 31
-23.562462567328257
  0
LINE
  5
CE
330
17
100
AcDbEntity
  8
FP-Proposed Wall
100
AcDbLine
 10
9.015505404477153
 20
125.50906335409354
 30
0.0
 11
9.015488023647777
 21
141.00906335409536
 31
0.0
  0
LINE
  5
CF
330
17
100
AcDbEntity
  8
FP-Proposed Wall
100
AcDbLine
 10
9.410688953383215
 20
249.0081954045479
 30
-23.562462567328257
 11
9.599418953384884
 21
249.00819561617823
 31
-23.562462567328257
  0
LINE
  5
D0
330
17
100
AcDbEntity
  8
FP-Proposed Wall
100
AcDbLine
 10
9.410692074732651
 20
248.00819540454972
 30
-23.562462567328257
 11
9.410690953383892
 21
249.00819540454972
 31
-23.562462567328257
  0
LINE
  5
D1
330
17
100
AcDbEntity
  8
FP-Proposed Wall
 62
1
100
AcDbLine
 10
9.410692073914106
 20
248.00892589425598
 30
-24.523334048231774
 11
42.663947092449234
 21
248.00795164623378
 31
0.0
  0
LINE
  5
D2
330
17
100
AcDbEntity
  8
FP-Proposed Wall
100
AcDbLine
 10
9.412459198756551
 20
261.00828064077905
 30
-23.562462567328257
 11
9.412471533541975
 21
250.00827864078747
 31
-23.562462567328257
  0
LINE
  5
D3
330
17
100
AcDbEntity
  8
FP-Proposed Wall
100
AcDbLine
 10
10.412459198756551
 20
261.00828176212417
 30
-23.562462567328257
 11
9.412459198756551
 21
261.00828064077905
 31
-23.562462567328257
  0
LINE
  5
D4
330
17
100
AcDbEntity
  8
FP-Proposed Wall
100
AcDbLine
 10
9.960844041230303
 20
249.7328714503626
 30
-23.562462567328257
 11
9.412471533632925
 21
250.008197406544
 31
-23.562462567328257
  0
LINE
  5
D5
330
17
100
AcDbEntity
  8
FP-Stair
100
AcDbLine
 10
9.412471533632925
 20
250.008197406544
 30
-23.562462567328257
 11
42.663947092449234
 21
250.00782463280848
 31
0.0
  0
LINE
  5
D6
330
17
100
AcDbEntity
  8
EL-Trim
 62
8
100
AcDbLine
 10
9.601200980385329
 20
249.00860126588827
 30
-23.902765743896275
 11
42.663947092449234
 21
249.00697829734327
 31
0.0
  0
LINE
  5
D7
330
17
100
AcDbEntity
  8
EL-Trim
 62
8
100
AcDbLine
 10
9.840716481401614
 20
249.25797796597794
 30
-23.902765743896275
 11
42.663947092449234
 21
249.25697829734872
 31
0.0
  0
LINE
  5
D8
330
17
100
AcDbEntity
  8
FP-Proposed Wall
100
AcDbLine
 10
10.053742449770652
 20
143.0090645183377
 30
0.0
 11
10.053744692460896
 21
141.00906451833953
 31
0.0
  0
LINE
  5
D9
330
17
100
AcDbEntity
  8
FP-Proposed Wall
100
AcDbLine
 10
12.28745681590226
 20
263.1332838646431
 30
-23.562462567328257
 11
12.287457376573002
 21
262.6332838646431
 31
-23.562462567328257
  0
LINE
  5
DA
330
17
100
AcDbEntity
  8
FP-Footing
100
AcDbLine
 10
14.015512964433583
 20
8.0
 30
0.0
 11
14.015512964433583
 21
0.0
 31
0.0
  0
LWPOLYLINE
  5
DB
330
17
100
AcDbEntity
  8
FP-Proposed Wall
100
AcDbPolyline
 90
2
 70
0
 38
-23.562462567328257
 10
15.412454433040693
 20
265.2582873688407
 10
14.412454433040693
 20
265.25828624749965
  0
LINE
  5
DC
330
17
100
AcDbEntity
  8
FP-Proposed Wall
100
AcDbLine
 10
15.412454433040693
 20
265.2582873688407
 30
-23.562462567328257
 11
14.412454433040693
 21
265.2582873688407
 31
-23.562462567328257
  0
LINE
  5
DD
330
17
100
AcDbEntity
  8
FP-Proposed Wall
100
AcDbLine
 10
15.41245359203458
 20
266.0082873688407
 30
-23.562462567328257
 11
15.412454433040693
 21
265.2582873688407
 31
-23.562462567328257
  0
LINE
  5
DE
330
17
100
AcDbEntity
  8
FP-Proposed Wall
100
AcDbLine
 10
15.412454433040693
 20
266.0082873688407
 30
-23.562462567328257
 11
15.412454433040693
 21
265.2582873688407
 31
-23.562462567328257
  0
LINE
  5
DF
330
17
100
AcDbEntity
  8
EL-Trim
 62
8
100
AcDbLine
 10
23.339081396003166
 20
249.73252541288616
 30
0.0
 11
23.887453903600544
 21
250.00785136906757
 31
0.0
  0
LINE
  5
E0
330
17
100
AcDbEntity
  8
EL-Trim
 62
8
100
AcDbLine
 10
23.887454782259738
 20
249.00785136906575
 30
0.0
 11
23.69872478225807
 21
249.0078515806979
 31
0.0
  0
LINE
  5
E1
330
17
100
AcDbEntity
  8
EL-Trim
 62
8
100
AcDbLine
 10
23.887451660917577
 20
248.00785136906939
 30
0.0
 11
23.88745278225906
 21
249.00785136906939
 31
0.0
  0
LINE
  5
E2
330
17
100
AcDbEntity
  8
EL-Trim
 62
8
100
AcDbLine
 10
23.887498757412686
 20
290.007888912887
 30
0.0
 11
23.88749987875417
 21
291.007888912887
 31
0.0
  0
LINE
  5
E3
330
17
100
AcDbEntity
  8
EL-Trim
 62
8
100
AcDbLine
 10
24.637453903600544
 20
250.00785052805963
 30
0.0
 11
24.63749875736903
 21
290.00785054095445
 31
0.0
  0
LINE
  5
E4
330
17
100
AcDbEntity
  8
EL-Trim
 62
8
100
AcDbLine
 10
24.6392333625663
 20
248.00785052405604
 30
0.0
 11
24.639121228148724
 21
148.00784853709206
 31
0.0
  0
LINE
  5
E5
330
17
100
AcDbEntity
  8
EL-Trim
 62
8
100
AcDbLine
 10
25.339081396003166
 20
249.73252317019774
 30
0.0
 11
25.887453903600544
 21
250.00784912637914
 31
0.0
  0
LINE
  5
E6
330
17
100
AcDbEntity
  8
EL-Trim
 62
8
100
AcDbLine
 10
25.889236483850254
 20
249.00784712438303
 30
0.0
 11
25.700506483848585
 21
249.00784733601336
 31
0.0
  0
LINE
  5
E7
330
17
100
AcDbEntity
  8
EL-Trim
 62
8
100
AcDbLine
 10
25.887498757922003
 20
290.0078866702004
 30
0.0
 11
25.887499879263487
 21
291.00788667019856
 31
0.0
  0
LINE
  5
E8
330
17
100
AcDbEntity
  8
EL-Trim
 62
8
100
AcDbLine
 10
25.889233362500818
 20
248.00784712438485
 30
0.0
 11
25.889234483849577
 21
249.00784712438485
 31
0.0
  0
LINE
  5
E9
330
17
100
AcDbEntity
  8
EL-Trim
 62
8
100
AcDbLine
 10
25.889233362508094
 20
248.0078491243837
 30
0.0
 11
26.639233362508094
 21
248.00784828337578
 31
0.0
  0
LINE
  5
EA
330
17
100
AcDbEntity
  8
EL-Trim
 62
8
100
AcDbLine
 10
26.637453903600544
 20
250.0078482853712
 30
0.0
 11
26.637498757521826
 21
290.0078482980623
 31
0.0
  0
LWPOLYLINE
  5
EB
330
17
100
AcDbEntity
  8
EL-Trim
 62
8
100
AcDbPolyline
 90
2
 70
0
 10
26.639233362508094
 20
248.00784828337578
 10
26.639121228090517
 20
148.00784629538407
  0
LWPOLYLINE
  5
EC
330
17
100
AcDbEntity
  8
EL-Trim
 62
8
100
AcDbPolyline
 90
2
 70
0
 10
26.63923560519106
 20
250.0078462833751
 10
26.63923560519106
 20
250.00784828337396
  0
LINE
  5
ED
330
17
100
AcDbEntity
  8
EL-Trim
 62
8
100
AcDbLine
 10
40.66457602364608
 20
250.00819656353883
 30
0.0
 11
40.664531169728434
 21
290.00819657623015
 31
0.0
  0
LWPOLYLINE
  5
EE
330
17
100
AcDbEntity
  8
EL-Trim
 62
8
100
AcDbPolyline
 90
2
 70
0
 10
40.66457602364608
 20
250.00819456353997
 10
40.66457602364608
 20
250.00819656353883
  0
LWPOLYLINE
  5
EF
330
17
100
AcDbEntity
  8
EL-Trim
 62
8
100
AcDbPolyline
 90
2
 70
0
 10
40.664578266329045
 20
248.00819656354065
 10
40.66469040074662
 20
148.00819457554894
  0
LINE
  5
F0
330
17
100
AcDbEntity
  8
EL-Trim
 62
8
100
AcDbLine
 10
41.414578266329045
 20
248.00819740454858
 30
0.0
 11
40.664578266329045
 21
248.00819656354065
 31
0.0
  0
LINE
  5
F1
330
17
100
AcDbEntity
  8
EL-Trim
 62
8
100
AcDbLine
 10
41.414575144986884
 20
249.0081954045479
 30
0.0
 11
41.60330514498855
 21
249.00819561617823
 31
0.0
  0
LINE
  5
F2
330
17
100
AcDbEntity
  8
EL-Trim
 62
8
100
AcDbLine
 10
41.41457826633632
 20
248.00819540454972
 30
0.0
 11
41.41457714498756
 21
249.00819540454972
 31
0.0
  0
LINE
  5
F3
330
17
100
AcDbEntity
  8
EL-Trim
 62
8
100
AcDbLine
 10
41.41526550031267
 20
290.00784826127915
 30
0.0
 11
41.41526437897119
 21
291.00784826127733
 31
0.0
  0
LINE
  5
F4
330
17
100
AcDbEntity
  8
EL-Trim
 62
8
100
AcDbLine
 10
41.96473023283397
 20
249.7328714503626
 30
0.0
 11
41.416357725236594
 21
250.008197406544
 31
0.0
  0
LWPOLYLINE
  5
F5
330
17
100
AcDbEntity
  8
FP-Stair
100
AcDbPolyline
 90
4
 70
0
 10
90.8599314895946
 20
148.00757041524776
 10
90.85993148960551
 20
274.10471029645305
 10
42.663947092449234
 20
274.10471029645305
 10
42.663947092449234
 20
148.0075000080592
  0
LINE
  5
F6
330
17
100
AcDbEntity
  8
FP-Stair
100
AcDbLine
 10
42.66454900316603
 20
274.10471029646123
 30
0.0
 11
42.66631287146811
 21
290.0082008211184
 31
0.0
  0
LINE
  5
F7
330
17
100
AcDbEntity
  8
FP-Stair
100
AcDbLine
 10
43.41526550082199
 20
290.00785050396576
 30
0.0
 11
43.415264379480504
 21
291.00785050396576
 31
0.0
  0
LWPOLYLINE
  5
F8
330
17
100
AcDbEntity
  8
FP-Proposed Wall
 62
8
100
AcDbPolyline
 90
4
 70
0
 10
88.8599314895946
 20
148.00756749354423
 10
88.85993148960551
 20
272.10471029645305
 10
44.663947092449234
 20
272.10471029645305
 10
44.663947092449234
 20
148.00750292976272
  0
LWPOLYLINE
  5
F9
330
17
100
AcDbEntity
  8
FP-Proposed Wall
 62
8
100
AcDbPolyline
 90
4
 70
0
 10
87.8599314895946
 20
148.00756603269247
 10
87.85993148960551
 20
271.10471029645305
 10
45.663947092449234
 20
271.10471029645305
 10
45.663947092449234
 20
148.00750439061449
  0
LWPOLYLINE
  5
FA
330
17
100
AcDbEntity
  8
FP-Proposed Wall
 62
1
100
AcDbPolyline
 90
5
 70
0
 10
84.76196704597896
 20
148.00756150702546
 10
84.76193929102737
 20
268.0067180978767
 10
48.761939291027375
 20
268.0067180978767
 10
48.76196704597896
 20
148.00756150702546
 10
84.76196704597896
 20
148.00756150702546
  0
LWPOLYLINE
  5
FB
330
17
100
AcDbEntity
  8
FP-Proposed Wall
 62
8
100
AcDbPolyline
 90
6
 70
0
 10
83.26193929102737
 20
180.87112607517702
 10
83.26193929102737
 20
266.5067180978767
 10
50.261939291027375
 20
266.5067180978767
 10
50.26196704597896
 20
149.50756150702546
 10
83.26196704597896
 20
149.50756150702546
 10
83.26193929102737
 20
180.87112607517702
  0
LWPOLYLINE
  5
FC
330
17
100
AcDbEntity
  8
FP-Proposed Wall
 62
8
100
AcDbPolyline
 90
6
 70
0
 10
82.26193929102737
 20
180.87112607517702
 10
82.26193929102737
 20
265.5067180978767
 10
51.261939291027375
 20
265.5067180978767
 10
51.26196704597896
 20
150.50756150702546
 10
82.26196704597896
 20
150.50756150702546
 10
82.26193929102737
 20
180.87112607517702
  0
LINE
  5
FD
330
17
100
AcDbEntity
  8
FP-Hatch
100
AcDbLine
 10
51.261939291027375
 20
169.50671810386484
 30
0.0
 11
82.26193929102737
 21
169.50671810386484
 31
0.0
  0
LINE
  5
FE
330
17
100
AcDbEntity
  8
FP-Hatch
100
AcDbLine
 10
51.261939291027375
 20
185.50671810386484
 30
0.0
 11
82.26193929102737
 21
185.50671810386484
 31
0.0
  0
LINE
  5
FF
330
17
100
AcDbEntity
  8
FP-Hatch
100
AcDbLine
 10
51.261939291027375
 20
201.50671810386484
 30
0.0
 11
82.26193929102737
 21
201.50671810386484
 31
0.0
  0
LINE
  5
100
330
17
100
AcDbEntity
  8
FP-Hatch
100
AcDbLine
 10
51.261939291027375
 20
217.50671810386484
 30
0.0
 11
82.26193929102737
 21
217.50671810386484
 31
0.0
  0
LINE
  5
101
330
17
100
AcDbEntity
  8
FP-Hatch
100
AcDbLine
 10
51.261939291027375
 20
233.50671810386484
 30
0.0
 11
82.26193929102737
 21
233.50671810386484
 31
0.0
  0
LINE
  5
102
330
17
100
AcDbEntity
  8
FP-Hatch
100
AcDbLine
 10
51.261939291027375
 20
249.50671810386484
 30
0.0
 11
82.26193929102737
 21
249.50671810386484
 31
0.0
  0
LINE
  5
103
330
17
100
AcDbEntity
  8
FP-Hatch
100
AcDbLine
 10
66.76193929102737
 20
265.5067180978767
 30
0.0
 11
66.76196704597896
 21
150.50756150702546
 31
0.0
  0
LINE
  5
104
330
17
100
AcDbEntity
  8
FP-Stair
100
AcDbLine
 10
90.10981690266635
 20
290.00785050396576
 30
0.0
 11
90.10981802400784
 21
291.00785050396576
 31
0.0
  0
LINE
  5
105
330
17
100
AcDbEntity
  8
FP-Stair
100
AcDbLine
 10
90.86053340032231
 20
274.10471029646123
 30
0.0
 11
90.85876953202023
 21
290.0082008211184
 31
0.0
  0
LINE
  5
106
330
17
100
AcDbEntity
  8
FP-Proposed Wall
 62
1
100
AcDbLine
 10
90.85993148960551
 20
248.00800569056582
 30
0.0
 11
117.5112149846791
 21
248.00786019686507
 31
0.0
  0
LINE
  5
107
330
17
100
AcDbEntity
  8
EL-Trim
 62
8
100
AcDbLine
 10
90.85993148960551
 20
249.00697829734804
 30
0.0
 11
118.26121386432351
 21
249.00697829734986
 31
0.0
  0
LINE
  5
108
330
17
100
AcDbEntity
  8
EL-Trim
 62
8
100
AcDbLine
 10
90.85993148960551
 20
249.25697829734395
 30
0.0
 11
118.67894574266757
 21
249.25697829734213
 31
0.0
  0
LINE
  5
109
330
17
100
AcDbEntity
  8
FP-Stair
100
AcDbLine
 10
90.85993148960551
 20
250.00782463281325
 30
0.0
 11
117.51121274199613
 21
250.00786019686143
 31
0.0
  0
LINE
  5
10A
330
17
100
AcDbEntity
  8
EL-Trim
 62
8
100
AcDbLine
 10
91.5603521702651
 20
249.7325259187603
 30
0.0
 11
92.10872467786248
 21
250.0078518749417
 31
0.0
  0
LINE
  5
10B
330
17
100
AcDbEntity
  8
EL-Trim
 62
8
100
AcDbLine
 10
92.1105072581122
 20
249.0078498729456
 30
0.0
 11
91.92177725811052
 21
249.00785008457592
 31
0.0
  0
LINE
  5
10C
330
17
100
AcDbEntity
  8
EL-Trim
 62
8
100
AcDbLine
 10
92.10981690317567
 20
290.00784826127915
 30
0.0
 11
92.10981802451715
 21
291.00784826127733
 31
0.0
  0
LINE
  5
10D
330
17
100
AcDbEntity
  8
EL-Trim
 62
8
100
AcDbLine
 10
92.11050413676276
 20
248.00784987294742
 30
0.0
 11
92.11050525811152
 21
249.00784987294742
 31
0.0
  0
LINE
  5
10E
330
17
100
AcDbEntity
  8
EL-Trim
 62
8
100
AcDbLine
 10
92.11050413677003
 20
248.00785187294628
 30
0.0
 11
92.86050413677003
 21
248.00785103193834
 31
0.0
  0
LWPOLYLINE
  5
10F
330
17
100
AcDbEntity
  8
EL-Trim
 62
8
100
AcDbPolyline
 90
2
 70
0
 10
92.86050413677003
 20
248.00785103193834
 10
92.86039200235246
 20
148.00784904394663
  0
LINE
  5
110
330
17
100
AcDbEntity
  8
EL-Trim
 62
8
100
AcDbLine
 10
92.86050637984226
 20
250.00819656353883
 30
0.0
 11
92.8605512337599
 21
290.00819657623015
 31
0.0
  0
LWPOLYLINE
  5
111
330
17
100
AcDbEntity
  8
EL-Trim
 62
8
100
AcDbPolyline
 90
2
 70
0
 10
106.88524488758048
 20
250.0078462833751
 10
106.88524488758048
 20
250.00784828337396
  0
LWPOLYLINE
  5
112
330
17
100
AcDbEntity
  8
EL-Trim
 62
8
100
AcDbPolyline
 90
2
 70
0
 10
106.88524713026345
 20
248.00784828337578
 10
106.88535926468103
 20
148.00784629538407
  0
LINE
  5
113
330
17
100
AcDbEntity
  8
EL-Trim
 62
8
100
AcDbLine
 10
107.63702883185397
 20
248.00785112637982
 30
0.0
 11
106.88702883185397
 21
248.0078502853719
 31
0.0
  0
LINE
  5
114
330
17
100
AcDbEntity
  8
EL-Trim
 62
8
100
AcDbLine
 10
106.8876284998878
 20
250.0078482853712
 30
0.0
 11
106.88758364596652
 21
290.0078482980623
 31
0.0
  0
LINE
  5
115
330
17
100
AcDbEntity
  8
EL-Trim
 62
8
100
AcDbLine
 10
108.18361739517786
 20
249.73252116820163
 30
0.0
 11
107.63524488758048
 21
250.00784712438303
 31
0.0
  0
LINE
  5
116
330
17
100
AcDbEntity
  8
EL-Trim
 62
8
100
AcDbLine
 10
107.63584591963809
 20
249.00784712438303
 30
0.0
 11
107.82457591963976
 21
249.00784733601336
 31
0.0
  0
LINE
  5
117
330
17
100
AcDbEntity
  8
EL-Trim
 62
8
100
AcDbLine
 10
107.63698173484954
 20
290.0078866702004
 30
0.0
 11
107.63698061350806
 21
291.00788667019856
 31
0.0
  0
LINE
  5
118
330
17
100
AcDbEntity
  8
EL-Trim
 62
8
100
AcDbLine
 10
107.63702883185397
 20
248.00784912638096
 30
0.0
 11
107.63702771051248
 21
249.00784912638096
 31
0.0
  0
LINE
  5
119
330
17
100
AcDbEntity
  8
EL-Trim
 62
8
100
AcDbLine
 10
108.88584904092204
 20
248.00785052405604
 30
0.0
 11
108.88596117533962
 21
148.00784853709206
 31
0.0
  0
LINE
  5
11A
330
17
100
AcDbEntity
  8
EL-Trim
 62
8
100
AcDbLine
 10
108.887026589171
 20
250.00785052805963
 30
0.0
 11
108.88698173540251
 21
290.00785054095445
 31
0.0
  0
LINE
  5
11B
330
17
100
AcDbEntity
  8
EL-Trim
 62
8
100
AcDbLine
 10
109.63702571051181
 20
249.00785136906575
 30
0.0
 11
109.82575571051348
 21
249.0078515806979
 31
0.0
  0
LINE
  5
11C
330
17
100
AcDbEntity
  8
EL-Trim
 62
8
100
AcDbLine
 10
109.63702883185397
 20
248.00785136906939
 30
0.0
 11
109.63702771051248
 21
249.00785136906939
 31
0.0
  0
LINE
  5
11D
330
17
100
AcDbEntity
  8
EL-Trim
 62
8
100
AcDbLine
 10
109.63758364607565
 20
290.007888912887
 30
0.0
 11
109.63758252473417
 21
291.007888912887
 31
0.0
  0
LINE
  5
11E
330
17
100
AcDbEntity
  8
EL-Trim
 62
8
100
AcDbLine
 10
110.18600100748517
 20
249.73252541288616
 30
0.0
 11
109.6376284998878
 21
250.00785136906757
 31
0.0
  0
LWPOLYLINE
  5
11F
330
17
100
AcDbEntity
  8
FP-Proposed Wall
100
AcDbPolyline
 90
2
 70
0
 10
116.5138683817313
 20
125.50762696489119
 10
116.51387510979475
 20
119.50762696489483
  0
LINE
  5
120
330
17
100
AcDbEntity
  8
FP-Proposed Wall
100
AcDbLine
 10
117.51386838173494
 20
125.50762808624359
 30
0.0
 11
116.5138683817313
 21
125.5076269648996
 31
0.0
  0
LINE
  5
121
330
17
100
AcDbEntity
  8
FP-Footing
100
AcDbLine
 10
116.51387510979475
 20
119.50762696489483
 30
0.0
 11
116.51387510979839
 21
8.007626964893007
 31
0.0
  0
LINE
  5
122
330
17
100
AcDbEntity
  8
FP-Proposed Wall
100
AcDbLine
 10
118.26117328105101
 20
290.00790272704194
 30
0.0
 11
117.51116788817671
 21
290.00790272704194
 31
0.0
  0
LINE
  5
123
330
17
100
AcDbEntity
  8
FP-Proposed Wall
100
AcDbLine
 10
117.51121274199613
 20
250.00786019686143
 30
0.0
 11
117.51116788822765
 21
290.0078581990563
 31
0.0
  0
LINE
  5
124
330
17
100
AcDbEntity
  8
FP-Proposed Wall
100
AcDbLine
 10
117.51121274199613
 20
250.00786019686143
 30
0.0
 11
118.26121274198886
 21
250.00786103974838
 31
0.0
  0
LINE
  5
125
330
17
100
AcDbEntity
  8
FP-Proposed Wall
100
AcDbLine
 10
117.5113271190894
 20
148.007860209829
 30
0.0
 11
117.5112149846791
 21
248.00786019686507
 31
0.0
  0
LINE
  5
126
330
17
100
AcDbEntity
  8
FP-Proposed Wall
100
AcDbLine
 10
117.5112149846791
 20
248.00786019686507
 30
0.0
 11
118.26121498468638
 21
248.00785610249272
 31
0.0
  0
LINE
  5
127
330
17
100
AcDbEntity
  8
FP-Proposed Wall
100
AcDbLine
 10
117.51386838173494
 20
125.50762808624359
 30
0.0
 11
117.51385100090556
 21
141.0076280862454
 31
0.0
  0
LINE
  5
128
330
17
100
AcDbEntity
  8
FP-Proposed Wall
100
AcDbLine
 10
118.55210766971868
 20
141.00762925048957
 30
0.0
 11
117.51385100090556
 21
141.0076280862454
 31
0.0
  0
LINE
  5
129
330
17
100
AcDbEntity
  8
EL-Trim
 62
8
100
AcDbLine
 10
143.5112797422953
 20
125.50762696489119
 30
0.0
 11
117.51386838173494
 21
125.50762808624359
 31
0.0
  0
LINE
  5
12A
330
17
100
AcDbEntity
  8
FP-Proposed Wall
100
AcDbLine
 10
118.26117328105101
 20
290.00790272704194
 30
0.0
 11
118.26117215970226
 21
291.0079027270401
 31
0.0
  0
LWPOLYLINE
  5
12B
330
17
100
AcDbEntity
  8
FP-Proposed Wall
100
AcDbPolyline
 90
2
 70
0
 10
118.26117215970226
 20
291.0079027270401
 10
118.44990020398109
 20
291.00805200659534
  0
LWPOLYLINE
  5
12C
330
17
100
AcDbEntity
  8
FP-Hatch
100
AcDbPolyline
 90
2
 70
0
 10
144.50862634542864
 20
290.00790272704194
 10
118.26117328105101
 20
290.00790272704194
  0
LINE
  5
12D
330
17
100
AcDbEntity
  8
FP-Proposed Wall
100
AcDbLine
 10
118.26121186332966
 20
249.00786103974656
 30
0.0
 11
118.44994186333133
 21
249.00786125137688
 31
0.0
  0
LINE
  5
12E
330
17
100
AcDbEntity
  8
FP-Proposed Wall
100
AcDbLine
 10
118.80958524958623
 20
249.73253508356515
 30
0.0
 11
118.26121274198886
 21
250.00786103974838
 31
0.0
  0
LINE
  5
12F
330
17
100
AcDbEntity
  8
FP-Proposed Wall
100
AcDbLine
 10
118.2612149846791
 20
248.0078610397502
 30
0.0
 11
118.26121386333034
 21
249.00786103974838
 31
0.0
  0
LINE
  5
130
330
17
100
AcDbEntity
  8
EL-Trim
 62
8
100
AcDbLine
 10
144.5086263452431
 20
248.00786019686507
 30
0.0
 11
118.26121498469001
 21
248.00784870781695
 31
0.0
  0
LINE
  5
131
330
17
100
AcDbEntity
  8
FP-Proposed Wall
 62
1
100
AcDbLine
 10
145.2586241027384
 20
250.00769629389697
 30
0.0
 11
118.26154086978204
 21
250.00768396196372
 31
0.0
  0
LWPOLYLINE
  5
132
330
17
100
AcDbEntity
  8
FP-Hatch
100
AcDbPolyline
 90
2
 70
0
 38
0.34030317655702724
 10
145.25856015827958
 20
291.00793300051555
 10
118.44990015970325
 20
291.00790293867453
  0
LINE
  5
133
330
17
100
AcDbEntity
  8
EL-Trim
 62
8
100
AcDbLine
 10
145.2586232240792
 20
249.00769629389515
 30
0.0
 11
118.44994186334225
 21
249.00784891944363
 31
0.0
  0
LINE
  5
134
330
17
100
AcDbEntity
  8
FP-Proposed Wall
100
AcDbLine
 10
118.55210542702844
 20
143.00762925048775
 30
0.0
 11
118.55210766971868
 21
141.00762925048957
 31
0.0
  0
LINE
  5
135
330
17
100
AcDbEntity
  8
EL-Trim
 62
8
100
AcDbLine
 10
144.51126235801348
 20
141.0107099716638
 30
0.0
 11
118.55210767225799
 21
141.0053648112937
 31
0.0
  0
LINE
  5
136
330
17
100
AcDbEntity
  8
EL-Trim
 62
8
100
AcDbLine
 10
118.69994158300688
 20
249.25784919978105
 30
0.7485075755405345
 11
145.70642712122572
 21
249.2578615317143
 31
0.7485075755405345
  0
LINE
  5
137
330
17
100
AcDbEntity
  8
FP-Proposed Wall
 62
1
100
AcDbLine
 10
119.0120614509542
 20
148.00668950734052
 30
0.0
 11
144.50873848093397
 21
148.00671809787787
 31
0.0
  0
LINE
  5
138
330
17
100
AcDbEntity
  8
EL-Trim
 62
8
100
AcDbLine
 10
145.54951678693396
 20
143.0082165363542
 30
0.0
 11
119.01206705666846
 21
143.00758496713206
 31
0.0
  0
LINE
  5
139
330
17
100
AcDbEntity
  8
FP-Footing
100
AcDbLine
 10
122.51387510979475
 20
8.007626964893007
 30
0.0
 11
122.51387510979475
 21
0.007626964893006516
 31
0.0
  0
LWPOLYLINE
  5
13A
330
17
100
AcDbEntity
  8
EL-Trim
 62
8
100
AcDbPolyline
 90
2
 70
0
 38
0.34030317655702724
 10
133.8826323342837
 20
250.00783707067603
 10
133.8826323342837
 20
250.0078390706749
  0
LWPOLYLINE
  5
13B
330
17
100
AcDbEntity
  8
EL-Trim
 62
8
100
AcDbPolyline
 90
2
 70
0
 38
0.34030317655702724
 10
133.88263457696667
 20
248.0078390706767
 10
133.88274671138424
 20
148.007837082685
  0
LINE
  5
13C
330
17
100
AcDbEntity
  8
EL-Trim
 62
8
100
AcDbLine
 10
134.63441627855718
 20
248.00784191368075
 30
0.34030317655702724
 11
133.88441627855718
 21
248.00784107267282
 31
0.34030317655702724
  0
LINE
  5
13D
330
17
100
AcDbEntity
  8
EL-Trim
 62
8
100
AcDbLine
 10
133.885015946591
 20
250.00783907267214
 30
0.34030317655702724
 11
133.88497109266973
 21
290.00783908536323
 31
0.34030317655702724
  0
LINE
  5
13E
330
17
100
AcDbEntity
  8
EL-Trim
 62
8
100
AcDbLine
 10
135.18100484188108
 20
249.73251195550256
 30
0.34030317655702724
 11
134.6326323342837
 21
250.00783791168396
 31
0.34030317655702724
  0
LINE
  5
13F
330
17
100
AcDbEntity
  8
EL-Trim
 62
8
100
AcDbLine
 10
134.6332333663413
 20
249.00783791168396
 30
0.34030317655702724
 11
134.82196336634297
 21
249.0078381233143
 31
0.34030317655702724
  0
LINE
  5
140
330
17
100
AcDbEntity
  8
EL-Trim
 62
8
100
AcDbLine
 10
134.63436918155276
 20
290.0078774575013
 30
0.34030317655702724
 11
134.63436806021127
 21
291.0078774574995
 31
0.34030317655702724
  0
LINE
  5
141
330
17
100
AcDbEntity
  8
EL-Trim
 62
8
100
AcDbLine
 10
134.63441627855718
 20
248.0078399136819
 30
0.34030317655702724
 11
134.6344151572157
 21
249.0078399136819
 31
0.34030317655702724
  0
LINE
  5
142
330
17
100
AcDbEntity
  8
EL-Trim
 62
8
100
AcDbLine
 10
135.88323648762525
 20
248.00784131135697
 30
0.34030317655702724
 11
135.88334862204283
 21
148.007839324393
 31
0.34030317655702724
  0
LINE
  5
143
330
17
100
AcDbEntity
  8
EL-Trim
 62
8
100
AcDbLine
 10
135.88441403587422
 20
250.00784131536057
 30
0.34030317655702724
 11
135.88436918210573
 21
290.0078413282554
 31
0.34030317655702724
  0
LINE
  5
144
330
17
100
AcDbEntity
  8
EL-Trim
 62
8
100
AcDbLine
 10
136.63441315721502
 20
249.00784215636668
 30
0.34030317655702724
 11
136.8231431572167
 21
249.00784236799882
 31
0.34030317655702724
  0
LINE
  5
145
330
17
100
AcDbEntity
  8
EL-Trim
 62
8
100
AcDbLine
 10
136.63441627855718
 20
248.00784215637032
 30
0.34030317655702724
 11
136.6344151572157
 21
249.00784215637032
 31
0.34030317655702724
  0
LINE
  5
146
330
17
100
AcDbEntity
  8
EL-Trim
 62
8
100
AcDbLine
 10
136.63497109277887
 20
290.0078797001879
 30
0.34030317655702724
 11
136.63496997143739
 21
291.0078797001879
 31
0.34030317655702724
  0
LINE
  5
147
330
17
100
AcDbEntity
  8
EL-Trim
 62
8
100
AcDbLine
 10
137.1833884541884
 20
249.7325162001871
 30
0.34030317655702724
 11
136.635015946591
 21
250.0078421563685
 31
0.34030317655702724
  0
LWPOLYLINE
  5
148
330
17
100
AcDbEntity
  8
FP-Proposed Wall
 62
1
100
AcDbPolyline
 90
2
 70
0
 10
143.5112797422953
 20
125.50762696489119
 10
143.51128647035875
 20
119.50762696489483
  0
LINE
  5
149
330
17
100
AcDbEntity
  8
FP-Proposed Wall
 62
1
100
AcDbLine
 10
144.51127974229894
 20
125.50762808624359
 30
0.0
 11
143.5112797422953
 21
125.5076269648996
 31
0.0
  0
LINE
  5
14A
330
17
100
AcDbEntity
  8
EL-Trim
 62
8
100
AcDbLine
 10
174.48866005793752
 20
121.00793069086603
 30
-24.501592595180888
 11
143.51128478735336
 21
121.00831214667278
 31
-24.501592595180888
  0
LINE
  5
14B
330
17
100
AcDbEntity
  8
FP-Proposed Wall
 62
1
100
AcDbLine
 10
144.5087384796534
 20
148.007860209829
 30
0.0
 11
144.5086263452431
 21
248.00786019686507
 31
0.0
  0
LINE
  5
14C
330
17
100
AcDbEntity
  8
FP-Proposed Wall
 62
1
100
AcDbLine
 10
145.25862634542864
 20
248.0076962938988
 30
0.0
 11
144.50862634542864
 21
248.00769545288745
 31
0.0
  0
LINE
  5
14D
330
17
100
AcDbEntity
  8
FP-Proposed Wall
 62
1
100
AcDbLine
 10
144.50862634542864
 20
290.00789270652604
 30
0.0
 11
144.50862634542864
 21
250.00769555995998
 31
0.0
  0
LINE
  5
14E
330
17
100
AcDbEntity
  8
FP-Proposed Wall
 62
1
100
AcDbLine
 10
144.50862634542864
 20
290.00789270652604
 30
0.0
 11
145.258561279672
 21
290.0078935474646
 31
0.0
  0
LWPOLYLINE
  5
14F
330
17
100
AcDbEntity
  8
FP-Proposed Wall
 62
1
100
AcDbPolyline
 90
6
 70
0
 10
144.5087384796534
 20
148.007860209829
 10
146.00947281020126
 20
148.00786189266796
 10
146.0094784172179
 20
143.00759729900938
 10
145.54951678693396
 20
143.0082165363542
 10
145.54951903028268
 20
141.00762925048957
 10
144.51126235801348
 20
141.0107099716638
  0
LINE
  5
150
330
17
100
AcDbEntity
  8
FP-Proposed Wall
 62
1
100
AcDbLine
 10
144.51127974229894
 20
125.50762808624359
 30
0.0
 11
144.51126236146956
 21
141.0076280862454
 31
0.0
  0
LINE
  5
151
330
17
100
AcDbEntity
  8
EL-Trim
 62
8
100
AcDbLine
 10
144.51126796802055
 20
136.00757998934864
 30
-1.8189894035458565e-12
 11
154.51126464640038
 21
136.00792948794424
 31
-1.8189894035458565e-12
  0
LINE
  5
152
330
17
100
AcDbEntity
  8
FP-Proposed Wall
 62
1
100
AcDbLine
 10
144.51126964966898
 20
134.50790574421558
 30
4.1359030627651384e-25
 11
164.51126380499772
 21
134.5079281710855
 31
-1.8189894035458565e-12
  0
LINE
  5
153
330
17
100
AcDbEntity
  8
EL-Trim
 62
8
100
AcDbLine
 10
144.5112763777288
 20
128.50790706108933
 30
4.1359030627651384e-25
 11
164.51125707693427
 21
128.50792948794424
 31
-1.8189894035458565e-12
  0
LINE
  5
154
330
17
100
AcDbEntity
  8
FP-Proposed Wall
 62
1
100
AcDbLine
 10
144.51127805970827
 20
127.0079423784166
 30
0.0
 11
174.51125707693427
 21
127.00792948794424
 31
-1.907807245515869e-12
  0
LINE
  5
155
330
17
100
AcDbEntity
  8
FP-Proposed Wall
 62
1
100
AcDbLine
 10
145.258561279672
 20
290.0078935474646
 30
-1.7763568394002505e-15
 11
145.25856015832323
 21
291.0078935474628
 31
-1.7763568394002505e-15
  0
LINE
  5
156
330
17
100
AcDbEntity
  8
FP-Proposed Wall
100
AcDbLine
 10
145.25856015832323
 20
291.0078935474628
 30
-1.7763568394002505e-15
 11
145.44728815832423
 21
291.0078940394285
 31
0.34030317655702724
  0
LINE
  5
157
330
17
100
AcDbEntity
  8
FP-Proposed Wall
 62
1
100
AcDbLine
 10
145.2586232240792
 20
249.00769629389515
 30
0.0
 11
145.44735322408087
 21
249.00769650552547
 31
0.0
  0
LINE
  5
158
330
17
100
AcDbEntity
  8
FP-Proposed Wall
 62
1
100
AcDbLine
 10
145.80699661033577
 20
249.73237033771375
 30
0.0
 11
145.2586241027384
 21
250.00769629389697
 31
0.0
  0
LINE
  5
159
330
17
100
AcDbEntity
  8
FP-Proposed Wall
 62
1
100
AcDbLine
 10
145.25862634542864
 20
248.0076962938988
 30
0.0
 11
145.25862522407988
 21
249.00769629389697
 31
0.0
  0
LINE
  5
15A
330
17
100
AcDbEntity
  8
FP-Proposed Wall
 62
1
100
AcDbLine
 10
145.54951790825362
 20
142.00804372391985
 30
-1.8189894035458565e-12
 11
154.5338818495802
 21
142.00792828502153
 31
-1.8189894035458565e-12
  0
LWPOLYLINE
  5
15B
330
17
100
AcDbEntity
  8
FP-Proposed Wall
 62
1
100
AcDbPolyline
 90
2
 70
0
 10
154.51126464640038
 20
136.00792948794424
 10
154.51125186748322
 20
134.50801336872405
  0
LWPOLYLINE
  5
15C
330
17
100
AcDbEntity
  8
FP-Proposed Wall
 62
1
100
AcDbPolyline
 90
4
 70
0
 10
154.51126464640038
 20
136.00792948794424
 10
156.51126464640038
 20
136.00792948794424
 10
156.51126464640038
 20
142.00792828502153
 10
154.5338818495802
 20
142.00792828502153
  0
LWPOLYLINE
  5
15D
330
17
100
AcDbEntity
  8
FP-Proposed Wall
 62
1
100
AcDbPolyline
 90
4
 70
0
 10
164.48866005793752
 20
128.5079293740073
 10
166.48866005793752
 20
128.5079293740073
 10
166.48866005793752
 20
134.5079281710846
 10
164.51127726111736
 20
134.5079281710846
  0
LWPOLYLINE
  5
15E
330
17
100
AcDbEntity
  8
FP-Proposed Wall
 62
1
100
AcDbPolyline
 90
2
 70
0
 10
164.5112705330539
 20
128.5079293740073
 10
164.5112705330539
 20
127.00796480528516
  0
LWPOLYLINE
  5
15F
330
17
100
AcDbEntity
  8
FP-Proposed Wall
 62
1
100
AcDbPolyline
 90
2
 70
0
 38
-24.501592595180888
 10
174.5112705330539
 20
121.00793057694409
 10
174.48866005793752
 20
119.50793069199426
  0
LWPOLYLINE
  5
160
330
17
100
AcDbEntity
  8
FP-Proposed Wall
 62
1
100
AcDbPolyline
 90
4
 70
0
 38
-24.501592595180888
 10
174.48866005793752
 20
121.00793069086603
 10
176.48866005793752
 20
121.00793069086603
 10
176.48866005793752
 20
127.00792948794333
 10
174.51127726111736
 20
127.00792948794333
  0
ENDSEC
  0
SECTION
  2
OBJECTS
  0
DICTIONARY
  5
A
330
0
100
AcDbDictionary
280
0
281
1
  3
ACAD_COLOR
350
B
  3
ACAD_GROUP
350
C
  3
ACAD_LAYOUT
350
D
  3
ACAD_MATERIAL
350
E
  3
ACAD_MLEADERSTYLE
350
F
  3
ACAD_MLINESTYLE
350
10
  3
ACAD_PLOTSETTINGS
350
11
  3
ACAD_PLOTSTYLENAME
350
12
  3
ACAD_SCALELIST
350
14
  3
ACAD_TABLESTYLE
350
15
  3
ACAD_VISUALSTYLE
350
16
  3
EZDXF_META
350
2D
  0
DICTIONARY
  5
B
330
A
100
AcDbDictionary
280
0
281
1
  0
DICTIONARY
  5
C
330
A
100
AcDbDictionary
280
0
281
1
  0
DICTIONARY
  5
D
330
A
100
AcDbDictionary
280
0
281
1
  3
Model
350
1A
  3
Layout1
350
1E
  0
DICTIONARY
  5
E
330
A
100
AcDbDictionary
280
0
281
1
  3
ByBlock
350
1F
  3
ByLayer
350
20
  3
Global
350
21
  0
DICTIONARY
  5
F
330
A
100
AcDbDictionary
280
0
281
1
  3
Standard
350
2C
  0
DICTIONARY
  5
10
330
A
100
AcDbDictionary
280
0
281
1
  3
Standard
350
22
  0
DICTIONARY
  5
11
330
A
100
AcDbDictionary
280
0
281
1
  0
ACDBDICTIONARYWDFLT
  5
12
330
A
100
AcDbDictionary
280
0
281
1
  3
Normal
350
13
100
AcDbDictionaryWithDefault
340
13
  0
ACDBPLACEHOLDER
  5
13
330
12
  0
DICTIONARY
  5
14
330
A
100
AcDbDictionary
280
0
281
1
  0
DICTIONARY
  5
15
330
A
100
AcDbDictionary
280
0
281
1
  0
DICTIONARY
  5
16
330
A
100
AcDbDictionary
280
0
281
1
  0
LAYOUT
  5
1A
330
D
100
AcDbPlotSettings
  1

  2
Adobe PDF
  4
A3
  6

 40
7.5
 41
20.0
 42
7.5
 43
20.0
 44
420.0
 45
297.0
 46
0.0
 47
0.0
 48
0.0
 49
0.0
140
0.0
141
0.0
142
1.0
143
1.0
 70
1024
 72
1
 73
0
 74
5
  7

 75
16
 76
0
 77
2
 78
300
147
1.0
148
0.0
149
0.0
100
AcDbLayout
  1
Model
 70
1
 71
0
 10
0.0
 20
0.0
 11
420.0
 21
297.0
 12
0.0
 22
0.0
 32
0.0
 14
1e+20
 24
1e+20
 34
1e+20
 15
-1e+20
 25
-1e+20
 35
-1e+20
146
0.0
 13
0.0
 23
0.0
 33
0.0
 16
1.0
 26
0.0
 36
0.0
 17
0.0
 27
1.0
 37
0.0
 76
1
330
17
  0
LAYOUT
  5
1E
330
D
100
AcDbPlotSettings
  1

  2
Adobe PDF
  4
A3
  6

 40
7.5
 41
20.0
 42
7.5
 43
20.0
 44
420.0
 45
297.0
 46
0.0
 47
0.0
 48
0.0
 49
0.0
140
0.0
141
0.0
142
1.0
143
1.0
 70
0
 72
1
 73
0
 74
5
  7

 75
16
 76
0
 77
2
 78
300
147
1.0
148
0.0
149
0.0
100
AcDbLayout
  1
Layout1
 70
1
 71
1
 10
0.0
 20
0.0
 11
420.0
 21
297.0
 12
0.0
 22
0.0
 32
0.0
 14
1e+20
 24
1e+20
 34
1e+20
 15
-1e+20
 25
-1e+20
 35
-1e+20
146
0.0
 13
0.0
 23
0.0
 33
0.0
 16
1.0
 26
0.0
 36
0.0
 17
0.0
 27
1.0
 37
0.0
 76
1
330
1B
  0
MATERIAL
  5
1F
102
{ACAD_REACTORS
330
E
102
}
330
E
100
AcDbMaterial
  1
ByBlock
  2

 70
0
 40
1.0
 71
1
 41
1.0
 91
-1023410177
 42
1.0
 72
1
  3

 73
1
 74
1
 75
1
 44
0.5
 73
0
 45
1.0
 46
1.0
 77
1
  4

 78
1
 79
1
170
1
 48
1.0
171
1
  6

172
1
173
1
174
1
140
1.0
141
1.0
175
1
  7

176
1
177
1
178
1
143
1.0
179
1
  8

270
1
271
1
272
1
145
1.0
146
1.0
273
1
  9

274
1
275
1
276
1
 42
1.0
 72
1
  3

 73
1
 74
1
 75
1
 94
63
  0
MATERIAL
  5
20
102
{ACAD_REACTORS
330
E
102
}
330
E
100
AcDbMaterial
  1
ByLayer
  2

 70
0
 40
1.0
 71
1
 41
1.0
 91
-1023410177
 42
1.0
 72
1
  3

 73
1
 74
1
 75
1
 44
0.5
 73
0
 45
1.0
 46
1.0
 77
1
  4

 78
1
 79
1
170
1
 48
1.0
171
1
  6

172
1
173
1
174
1
140
1.0
141
1.0
175
1
  7

176
1
177
1
178
1
143
1.0
179
1
  8

270
1
271
1
272
1
145
1.0
146
1.0
273
1
  9

274
1
275
1
276
1
 42
1.0
 72
1
  3

 73
1
 74
1
 75
1
 94
63
  0
MATERIAL
  5
21
102
{ACAD_REACTORS
330
E
102
}
330
E
100
AcDbMaterial
  1
Global
  2

 70
0
 40
1.0
 71
1
 41
1.0
 91
-1023410177
 42
1.0
 72
1
  3

 73
1
 74
1
 75
1
 44
0.5
 73
0
 45
1.0
 46
1.0
 77
1
  4

 78
1
 79
1
170
1
 48
1.0
171
1
  6

172
1
173
1
174
1
140
1.0
141
1.0
175
1
  7

176
1
177
1
178
1
143
1.0
179
1
  8

270
1
271
1
272
1
145
1.0
146
1.0
273
1
  9

274
1
275
1
276
1
 42
1.0
 72
1
  3

 73
1
 74
1
 75
1
 94
63
  0
MLINESTYLE
  5
22
102
{ACAD_REACTORS
330
10
102
}
330
10
100
AcDbMlineStyle
  2
Standard
 70
0
  3

 62
256
 51
90.0
 52
90.0
 71
2
 49
0.5
 62
256
  6
BYLAYER
 49
-0.5
 62
256
  6
BYLAYER
  0
MLEADERSTYLE
  5
2C
102
{ACAD_REACTORS
330
F
102
}
330
F
100
AcDbMLeaderStyle
179
2
170
2
171
1
172
0
 90
2
 40
0.0
 41
0.0
173
1
 91
-1056964608
 92
-2
290
1
 42
2.0
291
1
 43
8.0
  3
Standard
 44
4.0
300

342
29
174
1
175
1
176
0
178
1
 93
-1056964608
 45
4.0
292
0
297
0
 46
4.0
 94
-1056964608
 47
1.0
 49
1.0
140
1.0
294
1
141
0.0
177
0
142
1.0
295
0
296
0
143
3.75
271
0
272
9
273
9
  0
DICTIONARY
  5
2D
330
A
100
AcDbDictionary
281
1
  3
CREATED_BY_EZDXF
350
2E
  3
WRITTEN_BY_EZDXF
350
163
  0
DICTIONARYVAR
  5
2E
330
2D
100
DictionaryVariables
280
0
  1
1.1.4 @ 2024-01-23T16:06:01.656327+00:00
  0
DICTIONARYVAR
  5
163
330
2D
100
DictionaryVariables
280
0
  1
1.1.4 @ 2024-01-23T16:06:13.320400+00:00
  0
ENDSEC
  0
EOF
