  0
SECTION
  2
HEADER
  9
$ACADVER
  1
AC1027
  9
$ACADMAINTVER
 70
105
  9
$DWGCODEPAGE
  3
ANSI_1252
  9
$LASTSAVEDBY
  1
ezdxf
  9
$REQUIREDVERSIONS
160
0
  9
$INSBASE
 10
0.0
 20
0.0
 30
0.0
  9
$EXTMIN
 10
1e+20
 20
1e+20
 30
1e+20
  9
$EXTMAX
 10
-1e+20
 20
-1e+20
 30
-1e+20
  9
$LIMMIN
 10
0.0
 20
0.0
  9
$LIMMAX
 10
420.0
 20
297.0
  9
$ORTHOMODE
 70
0
  9
$REGENMODE
 70
1
  9
$FILLMODE
 70
1
  9
$QTEXTMODE
 70
0
  9
$MIRRTEXT
 70
1
  9
$LTSCALE
 40
1.0
  9
$ATTMODE
 70
1
  9
$TEXTSIZE
 40
2.5
  9
$TRACEWID
 40
1.0
  9
$TEXTSTYLE
  7
Standard
  9
$CLAYER
  8
0
  9
$CELTYPE
  6
ByLayer
  9
$CECOLOR
 62
256
  9
$CELTSCALE
 40
1.0
  9
$DISPSILH
 70
0
  9
$DIMSCALE
 40
1.0
  9
$DIMASZ
 40
2.5
  9
$DIMEXO
 40
0.625
  9
$DIMDLI
 40
3.75
  9
$DIMRND
 40
0.0
  9
$DIMDLE
 40
0.0
  9
$DIMEXE
 40
1.25
  9
$DIMTP
 40
0.0
  9
$DIMTM
 40
0.0
  9
$DIMTXT
 40
2.5
  9
$DIMCEN
 40
2.5
  9
$DIMTSZ
 40
0.0
  9
$DIMTOL
 70
0
  9
$DIMLIM
 70
0
  9
$DIMTIH
 70
0
  9
$DIMTOH
 70
0
  9
$DIMSE1
 70
0
  9
$DIMSE2
 70
0
  9
$DIMTAD
 70
1
  9
$DIMZIN
 70
8
  9
$DIMBLK
  1

  9
$DIMASO
 70
1
  9
$DIMSHO
 70
1
  9
$DIMPOST
  1

  9
$DIMAPOST
  1

  9
$DIMALT
 70
0
  9
$DIMALTD
 70
3
  9
$DIMALTF
 40
0.03937007874
  9
$DIMLFAC
 40
1.0
  9
$DIMTOFL
 70
1
  9
$DIMTVP
 40
0.0
  9
$DIMTIX
 70
0
  9
$DIMSOXD
 70
0
  9
$DIMSAH
 70
0
  9
$DIMBLK1
  1

  9
$DIMBLK2
  1

  9
$DIMSTYLE
  2
ISO-25
  9
$DIMCLRD
 70
0
  9
$DIMCLRE
 70
0
  9
$DIMCLRT
 70
0
  9
$DIMTFAC
 40
1.0
  9
$DIMGAP
 40
0.625
  9
$DIMJUST
 70
0
  9
$DIMSD1
 70
0
  9
$DIMSD2
 70
0
  9
$DIMTOLJ
 70
0
  9
$DIMTZIN
 70
8
  9
$DIMALTZ
 70
0
  9
$DIMALTTZ
 70
0
  9
$DIMUPT
 70
0
  9
$DIMDEC
 70
2
  9
$DIMTDEC
 70
2
  9
$DIMALTU
 70
2
  9
$DIMALTTD
 70
3
  9
$DIMTXSTY
  7
Standard
  9
$DIMAUNIT
 70
0
  9
$DIMADEC
 70
0
  9
$DIMALTRND
 40
0.0
  9
$DIMAZIN
 70
0
  9
$DIMDSEP
 70
44
  9
$DIMATFIT
 70
3
  9
$DIMFRAC
 70
0
  9
$DIMLDRBLK
  1

  9
$DIMLUNIT
 70
2
  9
$DIMLWD
 70
-2
  9
$DIMLWE
 70
-2
  9
$DIMTMOVE
 70
0
  9
$DIMFXL
 40
1.0
  9
$DIMFXLON
 70
0
  9
$DIMJOGANG
 40
0.785398163397
  9
$DIMTFILL
 70
0
  9
$DIMTFILLCLR
 70
0
  9
$DIMARCSYM
 70
0
  9
$DIMLTYPE
  6

  9
$DIMLTEX1
  6

  9
$DIMLTEX2
  6

  9
$DIMTXTDIRECTION
 70
0
  9
$LUNITS
 70
2
  9
$LUPREC
 70
4
  9
$SKETCHINC
 40
1.0
  9
$FILLETRAD
 40
10.0
  9
$AUNITS
 70
0
  9
$AUPREC
 70
2
  9
$MENU
  1
.
  9
$ELEVATION
 40
0.0
  9
$PELEVATION
 40
0.0
  9
$THICKNESS
 40
0.0
  9
$LIMCHECK
 70
0
  9
$CHAMFERA
 40
0.0
  9
$CHAMFERB
 40
0.0
  9
$CHAMFERC
 40
0.0
  9
$CHAMFERD
 40
0.0
  9
$SKPOLY
 70
0
  9
$TDCREATE
 40
2460332.886099537
  9
$TDUCREATE
 40
2458532.153996898
  9
$TDUPDATE
 40
2460332.886099537
  9
$TDUUPDATE
 40
2458532.1544311
  9
$TDINDWG
 40
0.0
  9
$TDUSRTIMER
 40
0.0
  9
$USRTIMER
 70
1
  9
$ANGBASE
 50
0.0
  9
$ANGDIR
 70
0
  9
$PDMODE
 70
0
  9
$PDSIZE
 40
0.0
  9
$PLINEWID
 40
0.0
  9
$SPLFRAME
 70
0
  9
$SPLINETYPE
 70
6
  9
$SPLINESEGS
 70
8
  9
$HANDSEED
  5
7C
  9
$SURFTAB1
 70
6
  9
$SURFTAB2
 70
6
  9
$SURFTYPE
 70
6
  9
$SURFU
 70
6
  9
$SURFV
 70
6
  9
$UCSBASE
  2

  9
$UCSNAME
  2

  9
$UCSORG
 10
0.0
 20
0.0
 30
0.0
  9
$UCSXDIR
 10
1.0
 20
0.0
 30
0.0
  9
$UCSYDIR
 10
0.0
 20
1.0
 30
0.0
  9
$UCSORTHOREF
  2

  9
$UCSORTHOVIEW
 70
0
  9
$UCSORGTOP
 10
0.0
 20
0.0
 30
0.0
  9
$UCSORGBOTTOM
 10
0.0
 20
0.0
 30
0.0
  9
$UCSORGLEFT
 10
0.0
 20
0.0
 30
0.0
  9
$UCSORGRIGHT
 10
0.0
 20
0.0
 30
0.0
  9
$UCSORGFRONT
 10
0.0
 20
0.0
 30
0.0
  9
$UCSORGBACK
 10
0.0
 20
0.0
 30
0.0
  9
$PUCSBASE
  2

  9
$PUCSNAME
  2

  9
$PUCSORG
 10
0.0
 20
0.0
 30
0.0
  9
$PUCSXDIR
 10
1.0
 20
0.0
 30
0.0
  9
$PUCSYDIR
 10
0.0
 20
1.0
 30
0.0
  9
$PUCSORTHOREF
  2

  9
$PUCSORTHOVIEW
 70
0
  9
$PUCSORGTOP
 10
0.0
 20
0.0
 30
0.0
  9
$PUCSORGBOTTOM
 10
0.0
 20
0.0
 30
0.0
  9
$PUCSORGLEFT
 10
0.0
 20
0.0
 30
0.0
  9
$PUCSORGRIGHT
 10
0.0
 20
0.0
 30
0.0
  9
$PUCSORGFRONT
 10
0.0
 20
0.0
 30
0.0
  9
$PUCSORGBACK
 10
0.0
 20
0.0
 30
0.0
  9
$USERI1
 70
0
  9
$USERI2
 70
0
  9
$USERI3
 70
0
  9
$USERI4
 70
0
  9
$USERI5
 70
0
  9
$USERR1
 40
0.0
  9
$USERR2
 40
0.0
  9
$USERR3
 40
0.0
  9
$USERR4
 40
0.0
  9
$USERR5
 40
0.0
  9
$WORLDVIEW
 70
1
  9
$SHADEDGE
 70
3
  9
$SHADEDIF
 70
70
  9
$TILEMODE
 70
1
  9
$MAXACTVP
 70
64
  9
$PINSBASE
 10
0.0
 20
0.0
 30
0.0
  9
$PLIMCHECK
 70
0
  9
$PEXTMIN
 10
1e+20
 20
1e+20
 30
1e+20
  9
$PEXTMAX
 10
-1e+20
 20
-1e+20
 30
-1e+20
  9
$PLIMMIN
 10
0.0
 20
0.0
  9
$PLIMMAX
 10
420.0
 20
297.0
  9
$UNITMODE
 70
0
  9
$VISRETAIN
 70
1
  9
$PLINEGEN
 70
0
  9
$PSLTSCALE
 70
1
  9
$TREEDEPTH
 70
3020
  9
$CMLSTYLE
  2
Standard
  9
$CMLJUST
 70
0
  9
$CMLSCALE
 40
20.0
  9
$PROXYGRAPHICS
 70
1
  9
$MEASUREMENT
 70
1
  9
$CELWEIGHT
370
-1
  9
$ENDCAPS
280
0
  9
$JOINSTYLE
280
0
  9
$LWDISPLAY
290
0
  9
$INSUNITS
 70
6
  9
$HYPERLINKBASE
  1

  9
$STYLESHEET
  1

  9
$XEDIT
290
1
  9
$CEPSNTYPE
380
0
  9
$PSTYLEMODE
290
1
  9
$FINGERPRINTGUID
  2
{BEB62D42-5049-4A00-8729-1B077D59F45C}
  9
$VERSIONGUID
  2
{148497D9-A903-47CA-825C-D45220D9BF85}
  9
$EXTNAMES
290
1
  9
$PSVPSCALE
 40
0.0
  9
$OLESTARTUP
290
0
  9
$SORTENTS
280
127
  9
$INDEXCTL
280
0
  9
$HIDETEXT
280
1
  9
$XCLIPFRAME
280
0
  9
$HALOGAP
280
0
  9
$OBSCOLOR
 70
257
  9
$OBSLTYPE
280
0
  9
$INTERSECTIONDISPLAY
280
0
  9
$INTERSECTIONCOLOR
 70
257
  9
$DIMASSOC
280
2
  9
$PROJECTNAME
  1

  9
$CAMERADISPLAY
290
0
  9
$LENSLENGTH
 40
50.0
  9
$CAMERAHEIGHT
 40
0.0
  9
$STEPSPERSEC
 40
24.0
  9
$STEPSIZE
 40
100.0
  9
$3DDWFPREC
 40
2.0
  9
$PSOLWIDTH
 40
0.005
  9
$PSOLHEIGHT
 40
0.08
  9
$LOFTANG1
 40
1.570796326795
  9
$LOFTANG2
 40
1.570796326795
  9
$LOFTMAG1
 40
0.0
  9
$LOFTMAG2
 40
0.0
  9
$LOFTPARAM
 70
7
  9
$LOFTNORMALS
280
1
  9
$LATITUDE
 40
37.795
  9
$LONGITUDE
 40
-122.394
  9
$NORTHDIRECTION
 40
0.0
  9
$TIMEZONE
 70
-8000
  9
$LIGHTGLYPHDISPLAY
280
1
  9
$TILEMODELIGHTSYNCH
280
1
  9
$CMATERIAL
347
20
  9
$SOLIDHIST
280
0
  9
$SHOWHIST
280
1
  9
$DWFFRAME
280
2
  9
$DGNFRAME
280
2
  9
$REALWORLDSCALE
290
1
  9
$INTERFERECOLOR
 62
256
  9
$CSHADOW
280
0
  9
$SHADOWPLANELOCATION
 40
0.0
  0
ENDSEC
  0
SECTION
  2
CLASSES
  0
CLASS
  1
ACDBDICTIONARYWDFLT
  2
AcDbDictionaryWithDefault
  3
ObjectDBX Classes
 90
0
 91
0
280
0
281
0
  0
CLASS
  1
SUN
  2
AcDbSun
  3
SCENEOE
 90
1153
 91
0
280
0
281
0
  0
CLASS
  1
VISUALSTYLE
  2
AcDbVisualStyle
  3
ObjectDBX Classes
 90
4095
 91
0
280
0
281
0
  0
CLASS
  1
MATERIAL
  2
AcDbMaterial
  3
ObjectDBX Classes
 90
1153
 91
0
280
0
281
0
  0
CLASS
  1
SCALE
  2
AcDbScale
  3
ObjectDBX Classes
 90
1153
 91
0
280
0
281
0
  0
CLASS
  1
TABLESTYLE
  2
AcDbTableStyle
  3
ObjectDBX Classes
 90
4095
 91
0
280
0
281
0
  0
CLASS
  1
MLEADERSTYLE
  2
AcDbMLeaderStyle
  3
ACDB_MLEADERSTYLE_CLASS
 90
4095
 91
0
280
0
281
0
  0
CLASS
  1
DICTIONARYVAR
  2
AcDbDictionaryVar
  3
ObjectDBX Classes
 90
0
 91
0
280
0
281
0
  0
CLASS
  1
CELLSTYLEMAP
  2
AcDbCellStyleMap
  3
ObjectDBX Classes
 90
1152
 91
0
280
0
281
0
  0
CLASS
  1
MENTALRAYRENDERSETTINGS
  2
AcDbMentalRayRenderSettings
  3
SCENEOE
 90
1024
 91
0
280
0
281
0
  0
CLASS
  1
ACDBDETAILVIEWSTYLE
  2
AcDbDetailViewStyle
  3
ObjectDBX Classes
 90
1025
 91
0
280
0
281
0
  0
CLASS
  1
ACDBSECTIONVIEWSTYLE
  2
AcDbSectionViewStyle
  3
ObjectDBX Classes
 90
1025
 91
0
280
0
281
0
  0
CLASS
  1
RASTERVARIABLES
  2
AcDbRasterVariables
  3
ISM
 90
0
 91
0
280
0
281
0
  0
CLASS
  1
ACDBPLACEHOLDER
  2
AcDbPlaceHolder
  3
ObjectDBX Classes
 90
0
 91
0
280
0
281
0
  0
CLASS
  1
LAYOUT
  2
AcDbLayout
  3
ObjectDBX Classes
 90
0
 91
0
280
0
281
0
  0
ENDSEC
  0
SECTION
  2
TABLES
  0
TABLE
  2
VPORT
  5
8
330
0
100
AcDbSymbolTable
 70
1
  0
VPORT
  5
23
330
8
100
AcDbSymbolTableRecord
100
AcDbViewportTableRecord
  2
*Active
 70
0
 10
0.0
 20
0.0
 11
1.0
 21
1.0
 12
0.0
 22
0.0
 13
0.0
 23
0.0
 14
0.5
 24
0.5
 15
0.5
 25
0.5
 16
0.0
 26
0.0
 36
1.0
 17
0.0
 27
0.0
 37
0.0
 40
1000.0
 41
1.34
 42
50.0
 43
0.0
 44
0.0
 50
0.0
 51
0.0
 71
0
 72
1000
 73
1
 74
3
 75
0
 76
0
 77
0
 78
0
281
0
 65
0
146
0.0
  0
ENDTAB
  0
TABLE
  2
LTYPE
  5
2
330
0
100
AcDbSymbolTable
 70
3
  0
LTYPE
  5
24
330
2
100
AcDbSymbolTableRecord
100
AcDbLinetypeTableRecord
  2
ByBlock
 70
0
  3

 72
65
 73
0
 40
0.0
  0
LTYPE
  5
25
330
2
100
AcDbSymbolTableRecord
100
AcDbLinetypeTableRecord
  2
ByLayer
 70
0
  3

 72
65
 73
0
 40
0.0
  0
LTYPE
  5
26
330
2
100
AcDbSymbolTableRecord
100
AcDbLinetypeTableRecord
  2
Continuous
 70
0
  3

 72
65
 73
0
 40
0.0
  0
ENDTAB
  0
TABLE
  2
LAYER
  5
1
330
0
100
AcDbSymbolTable
 70
2
  0
LAYER
  5
27
330
1
100
AcDbSymbolTableRecord
100
AcDbLayerTableRecord
  2
0
 70
0
 62
7
  6
Continuous
370
-3
390
13
347
21
  0
LAYER
  5
28
330
1
100
AcDbSymbolTableRecord
100
AcDbLayerTableRecord
  2
Defpoints
 70
0
 62
7
  6
Continuous
290
0
370
-3
390
13
347
21
  0
ENDTAB
  0
TABLE
  2
STYLE
  5
5
330
0
100
AcDbSymbolTable
 70
1
  0
STYLE
  5
29
330
5
100
AcDbSymbolTableRecord
100
AcDbTextStyleTableRecord
  2
Standard
 70
0
 40
0.0
 41
1.0
 50
0.0
 71
0
 42
2.5
  3
txt
  4

  0
ENDTAB
  0
TABLE
  2
VIEW
  5
7
330
0
100
AcDbSymbolTable
 70
0
  0
ENDTAB
  0
TABLE
  2
UCS
  5
6
330
0
100
AcDbSymbolTable
 70
0
  0
ENDTAB
  0
TABLE
  2
APPID
  5
3
330
0
100
AcDbSymbolTable
 70
3
  0
APPID
  5
2A
330
3
100
AcDbSymbolTableRecord
100
AcDbRegAppTableRecord
  2
ACAD
 70
0
  0
APPID
  5
79
330
3
100
AcDbSymbolTableRecord
100
AcDbRegAppTableRecord
  2
HATCHBACKGROUNDCOLOR
 70
0
  0
APPID
  5
7A
330
3
100
AcDbSymbolTableRecord
100
AcDbRegAppTableRecord
  2
EZDXF
 70
0
  0
ENDTAB
  0
TABLE
  2
DIMSTYLE
  5
4
330
0
100
AcDbSymbolTable
 70
1
100
AcDbDimStyleTable
  0
DIMSTYLE
105
2B
330
4
100
AcDbSymbolTableRecord
100
AcDbDimStyleTableRecord
  2
Standard
 70
0
 40
1.0
 41
2.5
 42
0.625
 43
3.75
 44
1.25
 45
0.0
 46
0.0
 47
0.0
 48
0.0
 49
2.5
140
2.5
141
2.5
142
0.0
143
0.03937007874
144
1.0
145
0.0
146
1.0
147
0.625
148
0.0
 69
0
 70
0
 71
0
 72
0
 73
0
 74
0
 75
0
 76
0
 77
1
 78
8
 79
3
170
0
171
3
172
1
173
0
174
0
175
0
176
0
177
0
178
0
179
2
271
2
272
2
273
2
274
3
275
0
276
0
277
2
278
44
279
0
280
0
281
0
282
0
283
0
284
8
285
0
286
0
288
0
289
3
290
0
371
-2
372
-2
  0
ENDTAB
  0
TABLE
  2
BLOCK_RECORD
  5
9
330
0
100
AcDbSymbolTable
 70
2
  0
BLOCK_RECORD
  5
17
330
9
100
AcDbSymbolTableRecord
100
AcDbBlockTableRecord
  2
*Model_Space
340
1A
 70
0
280
1
281
0
  0
BLOCK_RECORD
  5
1B
330
9
100
AcDbSymbolTableRecord
100
AcDbBlockTableRecord
  2
*Paper_Space
340
1E
 70
0
280
1
281
0
  0
ENDTAB
  0
ENDSEC
  0
SECTION
  2
BLOCKS
  0
BLOCK
  5
18
330
17
100
AcDbEntity
  8
0
100
AcDbBlockBegin
  2
*Model_Space
 70
0
 10
0.0
 20
0.0
 30
0.0
  3
*Model_Space
  1

  0
ENDBLK
  5
19
330
17
100
AcDbEntity
  8
0
100
AcDbBlockEnd
  0
BLOCK
  5
1C
330
1B
100
AcDbEntity
  8
0
100
AcDbBlockBegin
  2
*Paper_Space
 70
0
 10
0.0
 20
0.0
 30
0.0
  3
*Paper_Space
  1

  0
ENDBLK
  5
1D
330
1B
100
AcDbEntity
  8
0
100
AcDbBlockEnd
  0
ENDSEC
  0
SECTION
  2
ENTITIES
  0
LWPOLYLINE
  5
2F
330
17
100
AcDbEntity
  8
FP-Proposed Wall
100
AcDbPolyline
 90
9
 70
0
 10
-173.997240058834
 20
0.7512921502836889
 10
-173.997240058834
 20
1.6161546665114201
 10
-176.497240058834
 20
1.6161546665132391
 10
-177.100994245342
 20
2.9510089412958678
 10
-178.0013977939052
 20
5.001292150247309
 10
-178.5013977939052
 20
5.001292150247309
 10
-178.5013977939052
 20
5.751292150247309
 10
-173.997240058834
 20
5.751292150247309
 10
-173.997240058834
 20
6.751292150283689
  0
LINE
  5
30
330
17
100
AcDbEntity
  8
FP-Proposed Wall
 62
8
100
AcDbLine
 10
151.004758088402
 20
5.001292150247309
 30
0.0
 11
-178.0013977939052
 21
5.001292150247309
 31
-1.887379141862766e-15
  0
LWPOLYLINE
  5
31
330
17
100
AcDbEntity
  8
FP-Proposed Wall
100
AcDbPolyline
 90
2
 70
0
 10
-173.9972418755242
 20
6.751289164621767
 10
146.99876545573352
 20
6.753682397123384
  0
LWPOLYLINE
  5
32
330
17
100
AcDbEntity
  8
FP-Proposed Wall
100
AcDbPolyline
 90
2
 70
0
 10
147.0006003533308
 20
0.7512921502836889
 10
-173.997240058834
 20
0.7512891646217668
  0
LINE
  5
33
330
17
100
AcDbEntity
  8
FP-Proposed Wall
 62
8
100
AcDbLine
 10
-17.518057624016365
 20
1.6185478984896235
 30
-24.501591741473238
 11
-173.997240058834
 21
1.6161546665114201
 31
-1.887379141862766e-15
  0
LINE
  5
34
330
17
100
AcDbEntity
  8
FP-Proposed Wall
 62
8
100
AcDbLine
 10
-17.518057624016365
 20
5.753685382192089
 30
-24.501591741473238
 11
-173.997240058834
 21
5.751292150247309
 31
-1.887379141862766e-15
  0
LWPOLYLINE
  5
35
330
17
100
AcDbEntity
  8
FP-Proposed Wall
100
AcDbPolyline
 90
2
 70
0
 10
-173.99723821962834
 20
6.7512951729529505
 10
-120.68391728629649
 20
93.50443474226336
  0
LWPOLYLINE
  5
36
330
17
100
AcDbEntity
  8
FP-Note
100
AcDbPolyline
 90
4
 70
0
 10
-153.59721488820287
 20
48.69437557849642
 10
-165.59721488820287
 20
48.69437557849642
 10
-165.59721488820287
 20
28.69437557849642
 10
-153.59721488820287
 20
48.69437557849642
  0
LWPOLYLINE
  5
37
330
17
100
AcDbEntity
  8
FP-Proposed Wall
100
AcDbPolyline
 90
2
 70
0
 10
-164.747240058834
 20
0.0012891276144273434
 10
-163.747240058834
 20
0.0012880062733984232
  0
LINE
  5
38
330
17
100
AcDbEntity
  8
FP-Proposed Wall
100
AcDbLine
 10
-164.74723921782788
 20
0.7512891276144273
 30
0.0
 11
-164.747240058834
 21
0.0012891276144273434
 31
0.0
  0
LINE
  5
39
330
17
100
AcDbEntity
  8
FP-Proposed Wall
100
AcDbLine
 10
-164.747240058834
 20
0.0012891276144273434
 30
0.0
 11
-163.747240058834
 21
0.0012891276144273434
 31
0.0
  0
LINE
  5
3A
330
17
100
AcDbEntity
  8
FP-Proposed Wall
100
AcDbLine
 10
-164.747240058834
 20
0.7512891276144273
 30
0.0
 11
-164.747240058834
 21
0.0012891276144273434
 31
0.0
  0
LINE
  5
3B
330
17
100
AcDbEntity
  8
EL-Trim
 62
8
100
AcDbLine
 10
-13.498363990718644
 20
0.0031448378394998144
 30
-28.482579807931362
 11
-163.747240059467
 21
0.0
 31
0.0
  0
LINE
  5
3C
330
17
100
AcDbEntity
  8
EL-Trim
 62
8
100
AcDbLine
 10
-154.0006491756685
 20
0.7512729335210224
 30
0.0
 11
-154.00065001667463
 21
0.001272933522841413
 31
0.0
  0
LINE
  5
3D
330
17
100
AcDbEntity
  8
EL-Trim
 62
8
100
AcDbLine
 10
-152.0006491751592
 20
0.7512706908344171
 30
0.0
 11
-152.0006500161653
 21
0.0012706908344171097
 31
0.0
  0
LINE
  5
3E
330
17
100
AcDbEntity
  8
EL-Trim
 62
8
100
AcDbLine
 10
-128.71771979409823
 20
0.7512322819131896
 30
0.0
 11
-128.71771895309212
 21
0.0012322819131895812
 31
0.0
  0
LINE
  5
3F
330
17
100
AcDbEntity
  8
FP-Stair
100
AcDbLine
 10
-126.71771979358891
 20
0.7512345245997949
 30
0.0
 11
-126.7177189525828
 21
0.0012345246016138844
 31
0.0
  0
LINE
  5
40
330
17
100
AcDbEntity
  8
FP-Proposed Wall
100
AcDbLine
 10
-121.43391328629514
 20
95.50443474226336
 30
0.0
 11
-121.81137328629848
 21
95.50443474226336
 31
0.0
  0
LINE
  5
41
330
17
100
AcDbEntity
  8
FP-Proposed Wall
100
AcDbLine
 10
-121.43391728629649
 20
93.50443474226336
 30
0.0
 11
-121.43391728629649
 21
95.50443474226336
 31
0.0
  0
LINE
  5
42
330
17
100
AcDbEntity
  8
FP-Proposed Wall
100
AcDbLine
 10
-121.43391728629649
 20
93.50443874226289
 30
0.0
 11
-120.68391728629649
 21
93.50443474226336
 31
0.0
  0
LINE
  5
43
330
17
100
AcDbEntity
  8
FP-Proposed Wall
 62
8
100
AcDbLine
 10
-121.43391728629649
 20
95.50443474226336
 30
0.0
 11
-13.498319852751592
 21
95.50661384852606
 31
6.109373642910903
  0
LINE
  5
44
330
17
100
AcDbEntity
  8
FP-Proposed Wall
100
AcDbLine
 10
-120.68391728629649
 20
93.50443474226336
 30
0.0
 11
-13.498319852751592
 21
93.50663008972674
 31
6.109373642910903
  0
LINE
  5
45
330
17
100
AcDbEntity
  8
FP-Stair
100
AcDbLine
 10
-87.77833103041485
 20
0.7512345245997949
 30
0.0
 11
-87.77833187142096
 21
0.0012345246016138844
 31
0.0
  0
LINE
  5
46
330
17
100
AcDbEntity
  8
EL-Trim
 62
8
100
AcDbLine
 10
-85.77833102990553
 20
0.7512322819131896
 30
0.0
 11
-85.77833187091164
 21
0.0012322819131895812
 31
0.0
  0
LINE
  5
47
330
17
100
AcDbEntity
  8
FP-Proposed Wall
 62
8
100
AcDbLine
 10
42.50564538450635
 20
5.00232690268399
 30
-21.240556023305594
 11
-70.00241174914845
 21
5.003699110112166
 31
-33.4593033091274
  0
LWPOLYLINE
  5
48
330
17
100
AcDbEntity
  8
FP-Proposed Wall
100
AcDbPolyline
 90
2
 70
0
 38
-33.4593033091274
 10
-65.99826001327529
 20
0.753699110607613
 10
38.00148346692367
 20
0.7523269035684734
  0
LWPOLYLINE
  5
49
330
17
100
AcDbEntity
  8
FP-Proposed Wall
100
AcDbPolyline
 90
2
 70
0
 38
-33.4593033091274
 10
-65.99825583076745
 20
6.753696124486623
 10
38.00148764943515
 20
6.752323917447711
  0
LINE
  5
4A
330
17
100
AcDbEntity
  8
FP-Proposed Wall
 62
8
100
AcDbLine
 10
40.50148764937694
 20
1.6171894190013063
 30
-21.240556023305594
 11
-65.99825401407725
 21
1.6185616263762768
 31
-33.4593033091274
  0
LINE
  5
4B
330
17
100
AcDbEntity
  8
FP-Proposed Wall
 62
8
100
AcDbLine
 10
42.50564538450635
 20
5.75232690270127
 30
-21.240556023305594
 11
-65.99825401407725
 21
5.753699110112166
 31
-33.4593033091274
  0
LINE
  5
4C
330
17
100
AcDbEntity
  8
EL-Trim
 62
8
100
AcDbLine
 10
-62.49540164884456
 20
0.7512706908344171
 30
0.0
 11
-62.49540080783845
 21
0.0012706908344171097
 31
0.0
  0
LINE
  5
4D
330
17
100
AcDbEntity
  8
EL-Trim
 62
8
100
AcDbLine
 10
-60.495401648335246
 20
0.7512729335210224
 30
0.0
 11
-60.49540080732913
 21
0.001272933522841413
 31
0.0
  0
LINE
  5
4E
330
17
100
AcDbEntity
  8
FP-Proposed Wall
 62
8
100
AcDbLine
 10
-17.518057624016365
 20
1.6185478984896235
 30
-24.501591741473238
 11
147.00023434096147
 21
1.6161546665114201
 31
-1.887379141862766e-15
  0
LINE
  5
4F
330
17
100
AcDbEntity
  8
FP-Proposed Wall
 62
8
100
AcDbLine
 10
-17.518057624016365
 20
5.753685382192089
 30
-24.501591741473238
 11
147.00023434096147
 21
5.751292150247309
 31
-1.887379141862766e-15
  0
LINE
  5
50
330
17
100
AcDbEntity
  8
EL-Trim
 62
8
100
AcDbLine
 10
-13.498363990718644
 20
0.0031332196244875377
 30
-28.482587283297732
 11
136.74985275724248
 21
0.0
 31
0.0
  0
LINE
  5
51
330
17
100
AcDbEntity
  8
FP-Proposed Wall
100
AcDbLine
 10
93.68709721473715
 20
93.50413265264638
 30
0.0
 11
-13.498319852751592
 21
93.50663008972674
 31
6.109373642910903
  0
LINE
  5
52
330
17
100
AcDbEntity
  8
FP-Proposed Wall
 62
8
100
AcDbLine
 10
94.43709721473715
 20
95.50413265264638
 30
0.0
 11
-13.498319852751592
 21
95.50661384852606
 31
6.109373642910903
  0
LINE
  5
53
330
17
100
AcDbEntity
  8
EL-Trim
 62
8
100
AcDbLine
 10
33.49861625682752
 20
0.7512729335210224
 30
0.0
 11
33.498615415821405
 21
0.001272933522841413
 31
0.0
  0
LINE
  5
54
330
17
100
AcDbEntity
  8
EL-Trim
 62
8
100
AcDbLine
 10
35.498616257336835
 20
0.7512706908344171
 30
0.0
 11
35.49861541633072
 21
0.0012706908344171097
 31
0.0
  0
LINE
  5
55
330
17
100
AcDbEntity
  8
EL-Trim
 62
8
100
AcDbLine
 10
58.7815456383978
 20
0.7512322819131896
 30
0.0
 11
58.781546479403914
 21
0.0012322819131895812
 31
0.0
  0
LINE
  5
56
330
17
100
AcDbEntity
  8
FP-Stair
100
AcDbLine
 10
60.78154563890712
 20
0.7512345245997949
 30
0.0
 11
60.78154647991323
 21
0.0012345246016138844
 31
0.0
  0
LWPOLYLINE
  5
57
330
17
100
AcDbEntity
  8
FP-Proposed Wall
100
AcDbPolyline
 90
2
 70
0
 10
147.00023250175582
 20
6.7512951729529505
 10
93.68691156786372
 20
93.50443474317149
  0
LINE
  5
58
330
17
100
AcDbEntity
  8
FP-Proposed Wall
100
AcDbLine
 10
94.43709721473715
 20
93.50413665264591
 30
0.0
 11
93.68709721473715
 21
93.50413265264638
 31
0.0
  0
LINE
  5
59
330
17
100
AcDbEntity
  8
FP-Proposed Wall
100
AcDbLine
 10
94.4370932147358
 20
95.50413265264638
 30
0.0
 11
94.81455321473914
 21
95.50413265264638
 31
0.0
  0
LWPOLYLINE
  5
5A
330
17
100
AcDbEntity
  8
FP-Hatch
100
AcDbPolyline
 90
2
 70
0
 38
-0.23179745379062222
 10
121.83588381350273
 20
93.50403816357516
 10
94.43709721473715
 20
93.50403777876909
  0
LINE
  5
5B
330
17
100
AcDbEntity
  8
FP-Proposed Wall
100
AcDbLine
 10
94.43709721473715
 20
93.50413265264638
 30
0.0
 11
94.43709721473715
 21
95.50413265264638
 31
0.0
  0
LINE
  5
5C
330
17
100
AcDbEntity
  8
FP-Hatch
100
AcDbLine
 10
94.81455321545218
 20
95.50415937280968
 30
-0.34030317655698217
 11
122.58588157081249
 21
95.5040394278401
 31
0.0
  0
LINE
  5
5D
330
17
100
AcDbEntity
  8
FP-Stair
100
AcDbLine
 10
99.72093440208118
 20
0.7512345245997949
 30
0.0
 11
99.72093356107507
 21
0.0012345246016138844
 31
0.0
  0
LINE
  5
5E
330
17
100
AcDbEntity
  8
EL-Trim
 62
8
100
AcDbLine
 10
101.7209344025905
 20
0.7512322819131896
 30
0.0
 11
101.72093356158439
 21
0.0012322819131895812
 31
0.0
  0
LWPOLYLINE
  5
5F
330
17
100
AcDbEntity
  8
FP-Proposed Wall
 62
1
100
AcDbPolyline
 90
2
 70
0
 10
121.83588381350273
 20
93.50403816357493
 10
173.99723990445273
 20
6.751282950722498
  0
LINE
  5
60
330
17
100
AcDbEntity
  8
FP-Proposed Wall
 62
1
100
AcDbLine
 10
122.58588381349546
 20
93.50404300458263
 30
0.0
 11
121.83588381350273
 21
93.50403816357516
 31
0.0
  0
LINE
  5
61
330
17
100
AcDbEntity
  8
FP-Proposed Wall
 62
1
100
AcDbLine
 10
122.58588381350273
 20
93.50403900458309
 30
0.0
 11
122.58588157081249
 21
95.50403900458309
 31
0.0
  0
LINE
  5
62
330
17
100
AcDbEntity
  8
FP-Proposed Wall
 62
1
100
AcDbLine
 10
122.58588157081249
 20
95.5040394278401
 30
0.0
 11
122.96333757081447
 21
95.5040394278501
 31
-0.34030317655698283
  0
LINE
  5
63
330
17
100
AcDbEntity
  8
EL-Trim
 62
8
100
AcDbLine
 10
125.00386378365147
 20
0.7512706908344171
 30
0.0
 11
125.00386462465758
 21
0.0012706908344171097
 31
0.0
  0
LINE
  5
64
330
17
100
AcDbEntity
  8
EL-Trim
 62
8
100
AcDbLine
 10
127.00386378416079
 20
0.7512729335210224
 30
0.0
 11
127.0038646251669
 21
0.001272933522841413
 31
0.0
  0
LWPOLYLINE
  5
65
330
17
100
AcDbEntity
  8
FP-Proposed Wall
100
AcDbPolyline
 90
2
 70
0
 10
137.74985275660947
 20
0.0012891276144273434
 10
136.74985275660947
 20
0.0012880062733984232
  0
LINE
  5
66
330
17
100
AcDbEntity
  8
FP-Proposed Wall
100
AcDbLine
 10
137.74985191560336
 20
0.7512891276144273
 30
0.0
 11
137.74985275660947
 21
0.0012891276144273434
 31
0.0
  0
LWPOLYLINE
  5
67
330
17
100
AcDbEntity
  8
FP-Hatch
100
AcDbPolyline
 90
2
 70
0
 10
163.74724075520498
 20
0.0012664133907946962
 10
137.74985275660947
 20
0.0012891276144273434
  0
LINE
  5
68
330
17
100
AcDbEntity
  8
FP-Proposed Wall
 62
1
100
AcDbLine
 10
147.0006003533308
 20
0.7512921502836889
 30
0.0
 11
173.99723991422434
 21
0.7512829707063702
 31
0.0
  0
LWPOLYLINE
  5
69
330
17
100
AcDbEntity
  8
FP-Proposed Wall
100
AcDbPolyline
 90
9
 70
0
 10
147.0006003533308
 20
0.7512921502836889
 10
147.0006003533308
 20
1.6161546665114201
 10
149.5006003533308
 20
1.6161546665132391
 10
150.10435453983882
 20
2.9510089412958678
 10
151.004758088402
 20
5.001292150247309
 10
151.504758088402
 20
5.001292150247309
 10
151.504758088402
 20
5.751292150247309
 10
147.0006003533308
 20
5.751292150247309
 10
147.0006003533308
 20
6.751292150283689
  0
LWPOLYLINE
  5
6A
330
17
100
AcDbEntity
  8
FP-Proposed Wall
 62
1
100
AcDbPolyline
 90
2
 70
0
 10
173.99723807501505
 20
6.751285993375632
 10
147.0006003533308
 20
6.753682410803776
  0
LINE
  5
6B
330
17
100
AcDbEntity
  8
FP-Hatch
100
AcDbLine
 10
173.99723991422434
 20
1.6161514946606985
 30
0.0
 11
149.5006003533308
 21
1.6161546665132391
 31
0.0
  0
LINE
  5
6C
330
17
100
AcDbEntity
  8
FP-Hatch
100
AcDbLine
 10
178.00139764929554
 20
5.00128297066999
 30
0.0
 11
151.504758088402
 21
5.00124932579638
 31
0.0
  0
LINE
  5
6D
330
17
100
AcDbEntity
  8
FP-Hatch
100
AcDbLine
 10
173.99723991422434
 20
5.75128297066999
 30
0.0
 11
151.504758088402
 21
5.751292150247309
 31
0.0
  0
LINE
  5
6E
330
17
100
AcDbEntity
  8
EL-Trim
 62
8
100
AcDbLine
 10
152.00125123035468
 20
0.7512614781353477
 30
0.34030317655702724
 11
152.0012520713608
 21
0.0012614781353477156
 31
0.34030317655702724
  0
LWPOLYLINE
  5
6F
330
17
100
AcDbEntity
  8
FP-Note
100
AcDbPolyline
 90
4
 70
0
 38
0.15667887986761997
 10
153.7616730002701
 20
48.110804377946806
 10
165.7616730002701
 20
48.110804377946806
 10
165.7616730002701
 20
28.110804377946806
 10
153.7616730002701
 20
48.110804377947034
  0
LINE
  5
70
330
17
100
AcDbEntity
  8
EL-Trim
 62
8
100
AcDbLine
 10
154.001251230864
 20
0.751263720821953
 30
0.34030317655702724
 11
154.0012520718701
 21
0.0012637208237720188
 31
0.34030317655702724
  0
LINE
  5
71
330
17
100
AcDbEntity
  8
FP-Proposed Wall
 62
1
100
AcDbLine
 10
163.74724075520498
 20
0.0012664133907946962
 30
0.0
 11
164.74724075525228
 21
0.0012616931805951026
 31
0.0
  0
LINE
  5
72
330
17
100
AcDbEntity
  8
FP-Proposed Wall
 62
1
100
AcDbLine
 10
164.74723991422434
 20
0.7512799480371086
 30
-1.7763568394002505e-15
 11
164.74724075523045
 21
0.0012799480371086247
 31
-1.7763568394002505e-15
  0
LWPOLYLINE
  5
73
330
17
100
AcDbEntity
  8
FP-Proposed Wall
 62
1
100
AcDbPolyline
 90
2
 70
0
 10
173.99723991422434
 20
0.7512829707063702
 10
173.99723991422434
 20
1.6161454869341014
  0
LWPOLYLINE
  5
74
330
17
100
AcDbEntity
  8
FP-Proposed Wall
 62
1
100
AcDbPolyline
 90
4
 70
0
 10
173.99723991422434
 20
1.6161514946606985
 10
176.49723991422434
 20
1.6161454869359204
 10
177.10099410073235
 20
2.950999761718549
 10
178.00139764929554
 20
5.00128297066999
  0
LWPOLYLINE
  5
75
330
17
100
AcDbEntity
  8
FP-Proposed Wall
 62
1
100
AcDbPolyline
 90
2
 70
0
 10
173.99723991422434
 20
5.75128297066999
 10
173.99723991422434
 20
6.75128297070637
  0
LINE
  5
76
330
17
100
AcDbEntity
  8
FP-Proposed Wall
 62
1
100
AcDbLine
 10
178.5013977939052
 20
5.75128297066999
 30
0.0
 11
173.99723991422434
 21
5.7512838391296555
 31
0.0
  0
LINE
  5
77
330
17
100
AcDbEntity
  8
FP-Proposed Wall
 62
1
100
AcDbLine
 10
178.00139754015254
 20
5.001283704606976
 30
0.0
 11
178.50139754015254
 21
5.001283704606976
 31
0.0
  0
LINE
  5
78
330
17
100
AcDbEntity
  8
FP-Proposed Wall
 62
1
100
AcDbLine
 10
178.50139754015254
 20
5.001283704606976
 30
0.0
 11
178.5013976847622
 21
5.751283704606976
 31
0.0
  0
ENDSEC
  0
SECTION
  2
OBJECTS
  0
DICTIONARY
  5
A
330
0
100
AcDbDictionary
280
0
281
1
  3
ACAD_COLOR
350
B
  3
ACAD_GROUP
350
C
  3
ACAD_LAYOUT
350
D
  3
ACAD_MATERIAL
350
E
  3
ACAD_MLEADERSTYLE
350
F
  3
ACAD_MLINESTYLE
350
10
  3
ACAD_PLOTSETTINGS
350
11
  3
ACAD_PLOTSTYLENAME
350
12
  3
ACAD_SCALELIST
350
14
  3
ACAD_TABLESTYLE
350
15
  3
ACAD_VISUALSTYLE
350
16
  3
EZDXF_META
350
2D
  0
DICTIONARY
  5
B
330
A
100
AcDbDictionary
280
0
281
1
  0
DICTIONARY
  5
C
330
A
100
AcDbDictionary
280
0
281
1
  0
DICTIONARY
  5
D
330
A
100
AcDbDictionary
280
0
281
1
  3
Model
350
1A
  3
Layout1
350
1E
  0
DICTIONARY
  5
E
330
A
100
AcDbDictionary
280
0
281
1
  3
ByBlock
350
1F
  3
ByLayer
350
20
  3
Global
350
21
  0
DICTIONARY
  5
F
330
A
100
AcDbDictionary
280
0
281
1
  3
Standard
350
2C
  0
DICTIONARY
  5
10
330
A
100
AcDbDictionary
280
0
281
1
  3
Standard
350
22
  0
DICTIONARY
  5
11
330
A
100
AcDbDictionary
280
0
281
1
  0
ACDBDICTIONARYWDFLT
  5
12
330
A
100
AcDbDictionary
280
0
281
1
  3
Normal
350
13
100
AcDbDictionaryWithDefault
340
13
  0
ACDBPLACEHOLDER
  5
13
330
12
  0
DICTIONARY
  5
14
330
A
100
AcDbDictionary
280
0
281
1
  0
DICTIONARY
  5
15
330
A
100
AcDbDictionary
280
0
281
1
  0
DICTIONARY
  5
16
330
A
100
AcDbDictionary
280
0
281
1
  0
LAYOUT
  5
1A
330
D
100
AcDbPlotSettings
  1

  2
Adobe PDF
  4
A3
  6

 40
7.5
 41
20.0
 42
7.5
 43
20.0
 44
420.0
 45
297.0
 46
0.0
 47
0.0
 48
0.0
 49
0.0
140
0.0
141
0.0
142
1.0
143
1.0
 70
1024
 72
1
 73
0
 74
5
  7

 75
16
 76
0
 77
2
 78
300
147
1.0
148
0.0
149
0.0
100
AcDbLayout
  1
Model
 70
1
 71
0
 10
0.0
 20
0.0
 11
420.0
 21
297.0
 12
0.0
 22
0.0
 32
0.0
 14
1e+20
 24
1e+20
 34
1e+20
 15
-1e+20
 25
-1e+20
 35
-1e+20
146
0.0
 13
0.0
 23
0.0
 33
0.0
 16
1.0
 26
0.0
 36
0.0
 17
0.0
 27
1.0
 37
0.0
 76
1
330
17
  0
LAYOUT
  5
1E
330
D
100
AcDbPlotSettings
  1

  2
Adobe PDF
  4
A3
  6

 40
7.5
 41
20.0
 42
7.5
 43
20.0
 44
420.0
 45
297.0
 46
0.0
 47
0.0
 48
0.0
 49
0.0
140
0.0
141
0.0
142
1.0
143
1.0
 70
0
 72
1
 73
0
 74
5
  7

 75
16
 76
0
 77
2
 78
300
147
1.0
148
0.0
149
0.0
100
AcDbLayout
  1
Layout1
 70
1
 71
1
 10
0.0
 20
0.0
 11
420.0
 21
297.0
 12
0.0
 22
0.0
 32
0.0
 14
1e+20
 24
1e+20
 34
1e+20
 15
-1e+20
 25
-1e+20
 35
-1e+20
146
0.0
 13
0.0
 23
0.0
 33
0.0
 16
1.0
 26
0.0
 36
0.0
 17
0.0
 27
1.0
 37
0.0
 76
1
330
1B
  0
MATERIAL
  5
1F
102
{ACAD_REACTORS
330
E
102
}
330
E
100
AcDbMaterial
  1
ByBlock
  2

 70
0
 40
1.0
 71
1
 41
1.0
 91
-1023410177
 42
1.0
 72
1
  3

 73
1
 74
1
 75
1
 44
0.5
 73
0
 45
1.0
 46
1.0
 77
1
  4

 78
1
 79
1
170
1
 48
1.0
171
1
  6

172
1
173
1
174
1
140
1.0
141
1.0
175
1
  7

176
1
177
1
178
1
143
1.0
179
1
  8

270
1
271
1
272
1
145
1.0
146
1.0
273
1
  9

274
1
275
1
276
1
 42
1.0
 72
1
  3

 73
1
 74
1
 75
1
 94
63
  0
MATERIAL
  5
20
102
{ACAD_REACTORS
330
E
102
}
330
E
100
AcDbMaterial
  1
ByLayer
  2

 70
0
 40
1.0
 71
1
 41
1.0
 91
-1023410177
 42
1.0
 72
1
  3

 73
1
 74
1
 75
1
 44
0.5
 73
0
 45
1.0
 46
1.0
 77
1
  4

 78
1
 79
1
170
1
 48
1.0
171
1
  6

172
1
173
1
174
1
140
1.0
141
1.0
175
1
  7

176
1
177
1
178
1
143
1.0
179
1
  8

270
1
271
1
272
1
145
1.0
146
1.0
273
1
  9

274
1
275
1
276
1
 42
1.0
 72
1
  3

 73
1
 74
1
 75
1
 94
63
  0
MATERIAL
  5
21
102
{ACAD_REACTORS
330
E
102
}
330
E
100
AcDbMaterial
  1
Global
  2

 70
0
 40
1.0
 71
1
 41
1.0
 91
-1023410177
 42
1.0
 72
1
  3

 73
1
 74
1
 75
1
 44
0.5
 73
0
 45
1.0
 46
1.0
 77
1
  4

 78
1
 79
1
170
1
 48
1.0
171
1
  6

172
1
173
1
174
1
140
1.0
141
1.0
175
1
  7

176
1
177
1
178
1
143
1.0
179
1
  8

270
1
271
1
272
1
145
1.0
146
1.0
273
1
  9

274
1
275
1
276
1
 42
1.0
 72
1
  3

 73
1
 74
1
 75
1
 94
63
  0
MLINESTYLE
  5
22
102
{ACAD_REACTORS
330
10
102
}
330
10
100
AcDbMlineStyle
  2
Standard
 70
0
  3

 62
256
 51
90.0
 52
90.0
 71
2
 49
0.5
 62
256
  6
BYLAYER
 49
-0.5
 62
256
  6
BYLAYER
  0
MLEADERSTYLE
  5
2C
102
{ACAD_REACTORS
330
F
102
}
330
F
100
AcDbMLeaderStyle
179
2
170
2
171
1
172
0
 90
2
 40
0.0
 41
0.0
173
1
 91
-1056964608
 92
-2
290
1
 42
2.0
291
1
 43
8.0
  3
Standard
 44
4.0
300

342
29
174
1
175
1
176
0
178
1
 93
-1056964608
 45
4.0
292
0
297
0
 46
4.0
 94
-1056964608
 47
1.0
 49
1.0
140
1.0
294
1
141
0.0
177
0
142
1.0
295
0
296
0
143
3.75
271
0
272
9
273
9
  0
DICTIONARY
  5
2D
330
A
100
AcDbDictionary
281
1
  3
CREATED_BY_EZDXF
350
2E
  3
WRITTEN_BY_EZDXF
350
7B
  0
DICTIONARYVAR
  5
2E
330
2D
100
DictionaryVariables
280
0
  1
1.1.4 @ 2024-01-22T17:45:52.471496+00:00
  0
DICTIONARYVAR
  5
7B
330
2D
100
DictionaryVariables
280
0
  1
1.1.4 @ 2024-01-22T17:45:59.453763+00:00
  0
ENDSEC
  0
EOF
