  0
SECTION
  2
HEADER
  9
$ACADVER
  1
AC1027
  9
$ACADMAINTVER
 70
105
  9
$DWGCODEPAGE
  3
ANSI_1252
  9
$LASTSAVEDBY
  1
ezdxf
  9
$REQUIREDVERSIONS
160
0
  9
$INSBASE
 10
0.0
 20
0.0
 30
0.0
  9
$EXTMIN
 10
1e+20
 20
1e+20
 30
1e+20
  9
$EXTMAX
 10
-1e+20
 20
-1e+20
 30
-1e+20
  9
$LIMMIN
 10
0.0
 20
0.0
  9
$LIMMAX
 10
420.0
 20
297.0
  9
$ORTHOMODE
 70
0
  9
$REGENMODE
 70
1
  9
$FILLMODE
 70
1
  9
$QTEXTMODE
 70
0
  9
$MIRRTEXT
 70
1
  9
$LTSCALE
 40
1.0
  9
$ATTMODE
 70
1
  9
$TEXTSIZE
 40
2.5
  9
$TRACEWID
 40
1.0
  9
$TEXTSTYLE
  7
Standard
  9
$CLAYER
  8
0
  9
$CELTYPE
  6
ByLayer
  9
$CECOLOR
 62
256
  9
$CELTSCALE
 40
1.0
  9
$DISPSILH
 70
0
  9
$DIMSCALE
 40
1.0
  9
$DIMASZ
 40
2.5
  9
$DIMEXO
 40
0.625
  9
$DIMDLI
 40
3.75
  9
$DIMRND
 40
0.0
  9
$DIMDLE
 40
0.0
  9
$DIMEXE
 40
1.25
  9
$DIMTP
 40
0.0
  9
$DIMTM
 40
0.0
  9
$DIMTXT
 40
2.5
  9
$DIMCEN
 40
2.5
  9
$DIMTSZ
 40
0.0
  9
$DIMTOL
 70
0
  9
$DIMLIM
 70
0
  9
$DIMTIH
 70
0
  9
$DIMTOH
 70
0
  9
$DIMSE1
 70
0
  9
$DIMSE2
 70
0
  9
$DIMTAD
 70
1
  9
$DIMZIN
 70
8
  9
$DIMBLK
  1

  9
$DIMASO
 70
1
  9
$DIMSHO
 70
1
  9
$DIMPOST
  1

  9
$DIMAPOST
  1

  9
$DIMALT
 70
0
  9
$DIMALTD
 70
3
  9
$DIMALTF
 40
0.03937007874
  9
$DIMLFAC
 40
1.0
  9
$DIMTOFL
 70
1
  9
$DIMTVP
 40
0.0
  9
$DIMTIX
 70
0
  9
$DIMSOXD
 70
0
  9
$DIMSAH
 70
0
  9
$DIMBLK1
  1

  9
$DIMBLK2
  1

  9
$DIMSTYLE
  2
ISO-25
  9
$DIMCLRD
 70
0
  9
$DIMCLRE
 70
0
  9
$DIMCLRT
 70
0
  9
$DIMTFAC
 40
1.0
  9
$DIMGAP
 40
0.625
  9
$DIMJUST
 70
0
  9
$DIMSD1
 70
0
  9
$DIMSD2
 70
0
  9
$DIMTOLJ
 70
0
  9
$DIMTZIN
 70
8
  9
$DIMALTZ
 70
0
  9
$DIMALTTZ
 70
0
  9
$DIMUPT
 70
0
  9
$DIMDEC
 70
2
  9
$DIMTDEC
 70
2
  9
$DIMALTU
 70
2
  9
$DIMALTTD
 70
3
  9
$DIMTXSTY
  7
Standard
  9
$DIMAUNIT
 70
0
  9
$DIMADEC
 70
0
  9
$DIMALTRND
 40
0.0
  9
$DIMAZIN
 70
0
  9
$DIMDSEP
 70
44
  9
$DIMATFIT
 70
3
  9
$DIMFRAC
 70
0
  9
$DIMLDRBLK
  1

  9
$DIMLUNIT
 70
2
  9
$DIMLWD
 70
-2
  9
$DIMLWE
 70
-2
  9
$DIMTMOVE
 70
0
  9
$DIMFXL
 40
1.0
  9
$DIMFXLON
 70
0
  9
$DIMJOGANG
 40
0.785398163397
  9
$DIMTFILL
 70
0
  9
$DIMTFILLCLR
 70
0
  9
$DIMARCSYM
 70
0
  9
$DIMLTYPE
  6

  9
$DIMLTEX1
  6

  9
$DIMLTEX2
  6

  9
$DIMTXTDIRECTION
 70
0
  9
$LUNITS
 70
2
  9
$LUPREC
 70
4
  9
$SKETCHINC
 40
1.0
  9
$FILLETRAD
 40
10.0
  9
$AUNITS
 70
0
  9
$AUPREC
 70
2
  9
$MENU
  1
.
  9
$ELEVATION
 40
0.0
  9
$PELEVATION
 40
0.0
  9
$THICKNESS
 40
0.0
  9
$LIMCHECK
 70
0
  9
$CHAMFERA
 40
0.0
  9
$CHAMFERB
 40
0.0
  9
$CHAMFERC
 40
0.0
  9
$CHAMFERD
 40
0.0
  9
$SKPOLY
 70
0
  9
$TDCREATE
 40
2460332.886099537
  9
$TDUCREATE
 40
2458532.153996898
  9
$TDUPDATE
 40
2460332.886099537
  9
$TDUUPDATE
 40
2458532.1544311
  9
$TDINDWG
 40
0.0
  9
$TDUSRTIMER
 40
0.0
  9
$USRTIMER
 70
1
  9
$ANGBASE
 50
0.0
  9
$ANGDIR
 70
0
  9
$PDMODE
 70
0
  9
$PDSIZE
 40
0.0
  9
$PLINEWID
 40
0.0
  9
$SPLFRAME
 70
0
  9
$SPLINETYPE
 70
6
  9
$SPLINESEGS
 70
8
  9
$HANDSEED
  5
2AF
  9
$SURFTAB1
 70
6
  9
$SURFTAB2
 70
6
  9
$SURFTYPE
 70
6
  9
$SURFU
 70
6
  9
$SURFV
 70
6
  9
$UCSBASE
  2

  9
$UCSNAME
  2

  9
$UCSORG
 10
0.0
 20
0.0
 30
0.0
  9
$UCSXDIR
 10
1.0
 20
0.0
 30
0.0
  9
$UCSYDIR
 10
0.0
 20
1.0
 30
0.0
  9
$UCSORTHOREF
  2

  9
$UCSORTHOVIEW
 70
0
  9
$UCSORGTOP
 10
0.0
 20
0.0
 30
0.0
  9
$UCSORGBOTTOM
 10
0.0
 20
0.0
 30
0.0
  9
$UCSORGLEFT
 10
0.0
 20
0.0
 30
0.0
  9
$UCSORGRIGHT
 10
0.0
 20
0.0
 30
0.0
  9
$UCSORGFRONT
 10
0.0
 20
0.0
 30
0.0
  9
$UCSORGBACK
 10
0.0
 20
0.0
 30
0.0
  9
$PUCSBASE
  2

  9
$PUCSNAME
  2

  9
$PUCSORG
 10
0.0
 20
0.0
 30
0.0
  9
$PUCSXDIR
 10
1.0
 20
0.0
 30
0.0
  9
$PUCSYDIR
 10
0.0
 20
1.0
 30
0.0
  9
$PUCSORTHOREF
  2

  9
$PUCSORTHOVIEW
 70
0
  9
$PUCSORGTOP
 10
0.0
 20
0.0
 30
0.0
  9
$PUCSORGBOTTOM
 10
0.0
 20
0.0
 30
0.0
  9
$PUCSORGLEFT
 10
0.0
 20
0.0
 30
0.0
  9
$PUCSORGRIGHT
 10
0.0
 20
0.0
 30
0.0
  9
$PUCSORGFRONT
 10
0.0
 20
0.0
 30
0.0
  9
$PUCSORGBACK
 10
0.0
 20
0.0
 30
0.0
  9
$USERI1
 70
0
  9
$USERI2
 70
0
  9
$USERI3
 70
0
  9
$USERI4
 70
0
  9
$USERI5
 70
0
  9
$USERR1
 40
0.0
  9
$USERR2
 40
0.0
  9
$USERR3
 40
0.0
  9
$USERR4
 40
0.0
  9
$USERR5
 40
0.0
  9
$WORLDVIEW
 70
1
  9
$SHADEDGE
 70
3
  9
$SHADEDIF
 70
70
  9
$TILEMODE
 70
1
  9
$MAXACTVP
 70
64
  9
$PINSBASE
 10
0.0
 20
0.0
 30
0.0
  9
$PLIMCHECK
 70
0
  9
$PEXTMIN
 10
1e+20
 20
1e+20
 30
1e+20
  9
$PEXTMAX
 10
-1e+20
 20
-1e+20
 30
-1e+20
  9
$PLIMMIN
 10
0.0
 20
0.0
  9
$PLIMMAX
 10
420.0
 20
297.0
  9
$UNITMODE
 70
0
  9
$VISRETAIN
 70
1
  9
$PLINEGEN
 70
0
  9
$PSLTSCALE
 70
1
  9
$TREEDEPTH
 70
3020
  9
$CMLSTYLE
  2
Standard
  9
$CMLJUST
 70
0
  9
$CMLSCALE
 40
20.0
  9
$PROXYGRAPHICS
 70
1
  9
$MEASUREMENT
 70
1
  9
$CELWEIGHT
370
-1
  9
$ENDCAPS
280
0
  9
$JOINSTYLE
280
0
  9
$LWDISPLAY
290
0
  9
$INSUNITS
 70
6
  9
$HYPERLINKBASE
  1

  9
$STYLESHEET
  1

  9
$XEDIT
290
1
  9
$CEPSNTYPE
380
0
  9
$PSTYLEMODE
290
1
  9
$FINGERPRINTGUID
  2
{42EB00D9-FF5A-4214-8C03-754BE11CA068}
  9
$VERSIONGUID
  2
{8D1F7CA5-5E41-43B6-AE47-460CF576183D}
  9
$EXTNAMES
290
1
  9
$PSVPSCALE
 40
0.0
  9
$OLESTARTUP
290
0
  9
$SORTENTS
280
127
  9
$INDEXCTL
280
0
  9
$HIDETEXT
280
1
  9
$XCLIPFRAME
280
0
  9
$HALOGAP
280
0
  9
$OBSCOLOR
 70
257
  9
$OBSLTYPE
280
0
  9
$INTERSECTIONDISPLAY
280
0
  9
$INTERSECTIONCOLOR
 70
257
  9
$DIMASSOC
280
2
  9
$PROJECTNAME
  1

  9
$CAMERADISPLAY
290
0
  9
$LENSLENGTH
 40
50.0
  9
$CAMERAHEIGHT
 40
0.0
  9
$STEPSPERSEC
 40
24.0
  9
$STEPSIZE
 40
100.0
  9
$3DDWFPREC
 40
2.0
  9
$PSOLWIDTH
 40
0.005
  9
$PSOLHEIGHT
 40
0.08
  9
$LOFTANG1
 40
1.570796326795
  9
$LOFTANG2
 40
1.570796326795
  9
$LOFTMAG1
 40
0.0
  9
$LOFTMAG2
 40
0.0
  9
$LOFTPARAM
 70
7
  9
$LOFTNORMALS
280
1
  9
$LATITUDE
 40
37.795
  9
$LONGITUDE
 40
-122.394
  9
$NORTHDIRECTION
 40
0.0
  9
$TIMEZONE
 70
-8000
  9
$LIGHTGLYPHDISPLAY
280
1
  9
$TILEMODELIGHTSYNCH
280
1
  9
$CMATERIAL
347
20
  9
$SOLIDHIST
280
0
  9
$SHOWHIST
280
1
  9
$DWFFRAME
280
2
  9
$DGNFRAME
280
2
  9
$REALWORLDSCALE
290
1
  9
$INTERFERECOLOR
 62
256
  9
$CSHADOW
280
0
  9
$SHADOWPLANELOCATION
 40
0.0
  0
ENDSEC
  0
SECTION
  2
CLASSES
  0
CLASS
  1
ACDBDICTIONARYWDFLT
  2
AcDbDictionaryWithDefault
  3
ObjectDBX Classes
 90
0
 91
0
280
0
281
0
  0
CLASS
  1
SUN
  2
AcDbSun
  3
SCENEOE
 90
1153
 91
0
280
0
281
0
  0
CLASS
  1
VISUALSTYLE
  2
AcDbVisualStyle
  3
ObjectDBX Classes
 90
4095
 91
0
280
0
281
0
  0
CLASS
  1
MATERIAL
  2
AcDbMaterial
  3
ObjectDBX Classes
 90
1153
 91
0
280
0
281
0
  0
CLASS
  1
SCALE
  2
AcDbScale
  3
ObjectDBX Classes
 90
1153
 91
0
280
0
281
0
  0
CLASS
  1
TABLESTYLE
  2
AcDbTableStyle
  3
ObjectDBX Classes
 90
4095
 91
0
280
0
281
0
  0
CLASS
  1
MLEADERSTYLE
  2
AcDbMLeaderStyle
  3
ACDB_MLEADERSTYLE_CLASS
 90
4095
 91
0
280
0
281
0
  0
CLASS
  1
DICTIONARYVAR
  2
AcDbDictionaryVar
  3
ObjectDBX Classes
 90
0
 91
0
280
0
281
0
  0
CLASS
  1
CELLSTYLEMAP
  2
AcDbCellStyleMap
  3
ObjectDBX Classes
 90
1152
 91
0
280
0
281
0
  0
CLASS
  1
MENTALRAYRENDERSETTINGS
  2
AcDbMentalRayRenderSettings
  3
SCENEOE
 90
1024
 91
0
280
0
281
0
  0
CLASS
  1
ACDBDETAILVIEWSTYLE
  2
AcDbDetailViewStyle
  3
ObjectDBX Classes
 90
1025
 91
0
280
0
281
0
  0
CLASS
  1
ACDBSECTIONVIEWSTYLE
  2
AcDbSectionViewStyle
  3
ObjectDBX Classes
 90
1025
 91
0
280
0
281
0
  0
CLASS
  1
RASTERVARIABLES
  2
AcDbRasterVariables
  3
ISM
 90
0
 91
0
280
0
281
0
  0
CLASS
  1
ACDBPLACEHOLDER
  2
AcDbPlaceHolder
  3
ObjectDBX Classes
 90
0
 91
0
280
0
281
0
  0
CLASS
  1
LAYOUT
  2
AcDbLayout
  3
ObjectDBX Classes
 90
0
 91
0
280
0
281
0
  0
ENDSEC
  0
SECTION
  2
TABLES
  0
TABLE
  2
VPORT
  5
8
330
0
100
AcDbSymbolTable
 70
1
  0
VPORT
  5
23
330
8
100
AcDbSymbolTableRecord
100
AcDbViewportTableRecord
  2
*Active
 70
0
 10
0.0
 20
0.0
 11
1.0
 21
1.0
 12
0.0
 22
0.0
 13
0.0
 23
0.0
 14
0.5
 24
0.5
 15
0.5
 25
0.5
 16
0.0
 26
0.0
 36
1.0
 17
0.0
 27
0.0
 37
0.0
 40
1000.0
 41
1.34
 42
50.0
 43
0.0
 44
0.0
 50
0.0
 51
0.0
 71
0
 72
1000
 73
1
 74
3
 75
0
 76
0
 77
0
 78
0
281
0
 65
0
146
0.0
  0
ENDTAB
  0
TABLE
  2
LTYPE
  5
2
330
0
100
AcDbSymbolTable
 70
3
  0
LTYPE
  5
24
330
2
100
AcDbSymbolTableRecord
100
AcDbLinetypeTableRecord
  2
ByBlock
 70
0
  3

 72
65
 73
0
 40
0.0
  0
LTYPE
  5
25
330
2
100
AcDbSymbolTableRecord
100
AcDbLinetypeTableRecord
  2
ByLayer
 70
0
  3

 72
65
 73
0
 40
0.0
  0
LTYPE
  5
26
330
2
100
AcDbSymbolTableRecord
100
AcDbLinetypeTableRecord
  2
Continuous
 70
0
  3

 72
65
 73
0
 40
0.0
  0
ENDTAB
  0
TABLE
  2
LAYER
  5
1
330
0
100
AcDbSymbolTable
 70
2
  0
LAYER
  5
27
330
1
100
AcDbSymbolTableRecord
100
AcDbLayerTableRecord
  2
0
 70
0
 62
7
  6
Continuous
370
-3
390
13
347
21
  0
LAYER
  5
28
330
1
100
AcDbSymbolTableRecord
100
AcDbLayerTableRecord
  2
Defpoints
 70
0
 62
7
  6
Continuous
290
0
370
-3
390
13
347
21
  0
ENDTAB
  0
TABLE
  2
STYLE
  5
5
330
0
100
AcDbSymbolTable
 70
1
  0
STYLE
  5
29
330
5
100
AcDbSymbolTableRecord
100
AcDbTextStyleTableRecord
  2
Standard
 70
0
 40
0.0
 41
1.0
 50
0.0
 71
0
 42
2.5
  3
txt
  4

  0
ENDTAB
  0
TABLE
  2
VIEW
  5
7
330
0
100
AcDbSymbolTable
 70
0
  0
ENDTAB
  0
TABLE
  2
UCS
  5
6
330
0
100
AcDbSymbolTable
 70
0
  0
ENDTAB
  0
TABLE
  2
APPID
  5
3
330
0
100
AcDbSymbolTable
 70
3
  0
APPID
  5
2A
330
3
100
AcDbSymbolTableRecord
100
AcDbRegAppTableRecord
  2
ACAD
 70
0
  0
APPID
  5
2AC
330
3
100
AcDbSymbolTableRecord
100
AcDbRegAppTableRecord
  2
HATCHBACKGROUNDCOLOR
 70
0
  0
APPID
  5
2AD
330
3
100
AcDbSymbolTableRecord
100
AcDbRegAppTableRecord
  2
EZDXF
 70
0
  0
ENDTAB
  0
TABLE
  2
DIMSTYLE
  5
4
330
0
100
AcDbSymbolTable
 70
1
100
AcDbDimStyleTable
  0
DIMSTYLE
105
2B
330
4
100
AcDbSymbolTableRecord
100
AcDbDimStyleTableRecord
  2
Standard
 70
0
 40
1.0
 41
2.5
 42
0.625
 43
3.75
 44
1.25
 45
0.0
 46
0.0
 47
0.0
 48
0.0
 49
2.5
140
2.5
141
2.5
142
0.0
143
0.03937007874
144
1.0
145
0.0
146
1.0
147
0.625
148
0.0
 69
0
 70
0
 71
0
 72
0
 73
0
 74
0
 75
0
 76
0
 77
1
 78
8
 79
3
170
0
171
3
172
1
173
0
174
0
175
0
176
0
177
0
178
0
179
2
271
2
272
2
273
2
274
3
275
0
276
0
277
2
278
44
279
0
280
0
281
0
282
0
283
0
284
8
285
0
286
0
288
0
289
3
290
0
371
-2
372
-2
  0
ENDTAB
  0
TABLE
  2
BLOCK_RECORD
  5
9
330
0
100
AcDbSymbolTable
 70
2
  0
BLOCK_RECORD
  5
17
330
9
100
AcDbSymbolTableRecord
100
AcDbBlockTableRecord
  2
*Model_Space
340
1A
 70
0
280
1
281
0
  0
BLOCK_RECORD
  5
1B
330
9
100
AcDbSymbolTableRecord
100
AcDbBlockTableRecord
  2
*Paper_Space
340
1E
 70
0
280
1
281
0
  0
ENDTAB
  0
ENDSEC
  0
SECTION
  2
BLOCKS
  0
BLOCK
  5
18
330
17
100
AcDbEntity
  8
0
100
AcDbBlockBegin
  2
*Model_Space
 70
0
 10
0.0
 20
0.0
 30
0.0
  3
*Model_Space
  1

  0
ENDBLK
  5
19
330
17
100
AcDbEntity
  8
0
100
AcDbBlockEnd
  0
BLOCK
  5
1C
330
1B
100
AcDbEntity
  8
0
100
AcDbBlockBegin
  2
*Paper_Space
 70
0
 10
0.0
 20
0.0
 30
0.0
  3
*Paper_Space
  1

  0
ENDBLK
  5
1D
330
1B
100
AcDbEntity
  8
0
100
AcDbBlockEnd
  0
ENDSEC
  0
SECTION
  2
ENTITIES
  0
LINE
  5
2F
330
17
100
AcDbEntity
  8
FP-Proposed Wall
 62
1
100
AcDbLine
 10
-203.3650305684605
 20
265.252305599965
 30
8.253141918996574
 11
-204.3650305685078
 21
265.2523008797548
 31
8.253141918996574
  0
LINE
  5
30
330
17
100
AcDbEntity
  8
FP-Proposed Wall
 62
1
100
AcDbLine
 10
-204.36502972747985
 20
266.0023191346113
 30
8.253141918996572
 11
-204.36503056848596
 21
265.2523191346113
 31
8.253141918996572
  0
LINE
  5
31
330
17
100
AcDbEntity
  8
FP-Proposed Wall
 62
1
100
AcDbLine
 10
-204.36502972747985
 20
266.0023191346113
 30
8.253141918996572
 11
-185.61498179740374
 21
266.00229810935434
 31
9.094947017729282e-13
  0
LINE
  5
32
330
17
100
AcDbEntity
  8
FP-Proposed Wall
 62
1
100
AcDbLine
 10
-187.1158484468324
 20
148.00204666581726
 30
0.0
 11
-203.77033791530266
 21
148.0009747951417
 31
-12.218747285821806
  0
LINE
  5
33
330
17
100
AcDbEntity
  8
EL-Trim
 62
8
100
AcDbLine
 10
-203.3650305684605
 20
265.252305599965
 30
8.253141918996574
 11
-185.61498263841713
 21
265.25228569604997
 31
-4.547473508864641e-12
  0
LINE
  5
34
330
17
100
AcDbEntity
  8
FP-Footing
100
AcDbLine
 10
-202.61766041932424
 20
8.0
 30
-12.218747285821806
 11
-202.61766041932424
 21
0.0
 31
-12.218747285821806
  0
LINE
  5
35
330
17
100
AcDbEntity
  8
FP-Footing
100
AcDbLine
 10
-202.61766041932424
 20
0.0
 30
-12.218747285821806
 11
177.3876673030245
 21
0.0
 31
2.2737367544323206e-13
  0
LINE
  5
36
330
17
100
AcDbEntity
  8
FP-Footing
100
AcDbLine
 10
-202.61766041932424
 20
8.0
 30
-12.218747285821806
 11
177.3876673030245
 21
8.0
 31
2.2737367544323206e-13
  0
LINE
  5
37
330
17
100
AcDbEntity
  8
FP-Proposed Wall
 62
1
100
AcDbLine
 10
-201.24003295134753
 20
263.1273156304137
 30
8.253141918996572
 11
-201.24003351201827
 21
262.6273156304137
 31
8.253141918996572
  0
LINE
  5
38
330
17
100
AcDbEntity
  8
EL-Trim
 62
8
100
AcDbLine
 10
-201.24003180161162
 20
263.12731563041234
 30
8.593445095553601
 11
-185.61498502124232
 21
263.12731563041234
 31
0.0
  0
LINE
  5
39
330
17
100
AcDbEntity
  8
FP-Proposed Wall
 62
1
100
AcDbLine
 10
-199.36503533420182
 20
261.0023135278948
 30
8.253141918996572
 11
-198.36503533420182
 21
261.00231240654966
 31
8.253141918996572
  0
LINE
  5
3A
330
17
100
AcDbEntity
  8
FP-Proposed Wall
 62
1
100
AcDbLine
 10
-198.6558907354629
 20
143.00097427936907
 30
-12.218747285821806
 11
-199.11585236505198
 21
143.00097479514375
 31
-12.218747285821806
  0
LWPOLYLINE
  5
3B
330
17
100
AcDbEntity
  8
FP-Proposed Wall
 62
1
100
AcDbPolyline
 90
2
 70
0
 38
-12.218747285821806
 10
-199.11585236505198
 20
143.00097479514352
 10
-199.11584675833728
 20
148.0009747951417
  0
LINE
  5
3C
330
17
100
AcDbEntity
  8
FP-Proposed Wall
 62
1
100
AcDbLine
 10
-198.91342017658462
 20
249.72698445037486
 30
8.253141918996572
 11
-198.36504766898724
 21
250.00231040655808
 31
8.253141918996572
  0
LINE
  5
3D
330
17
100
AcDbEntity
  8
FP-Hatch
100
AcDbLine
 10
-186.7827327395753
 20
249.25142766415297
 30
0.0
 11
-198.78278066967687
 21
249.25142766415297
 31
8.253141918996572
  0
LINE
  5
3E
330
17
100
AcDbEntity
  8
FP-Proposed Wall
 62
1
100
AcDbLine
 10
-197.61763630934
 20
141.00097311512673
 30
-12.218747285821806
 11
-198.65589297815313
 21
141.0009742793709
 31
-12.218747285821806
  0
LINE
  5
3F
330
17
100
AcDbEntity
  8
FP-Proposed Wall
 62
1
100
AcDbLine
 10
-198.6558907354629
 20
143.00097427936907
 30
-12.218747285821806
 11
-198.65589297815313
 21
141.0009742793709
 31
-12.218747285821806
  0
LINE
  5
40
330
17
100
AcDbEntity
  8
FP-Hatch
100
AcDbLine
 10
-198.65589073547017
 20
143.0009690600782
 30
-12.218747285821806
 11
-187.11585405355072
 21
143.00204666581908
 31
0.0
  0
LINE
  5
41
330
17
100
AcDbEntity
  8
FP-Proposed Wall
 62
1
100
AcDbLine
 10
-198.36504679032805
 20
249.00231040655626
 30
8.253141918996572
 11
-198.55377679032972
 21
249.00231061818658
 31
8.253141918996572
  0
LINE
  5
42
330
17
100
AcDbEntity
  8
FP-Proposed Wall
 62
1
100
AcDbLine
 10
-198.3650499116775
 20
248.0023104065599
 30
8.253141918996572
 11
-198.36504879032873
 21
249.00231040655808
 31
8.253141918996572
  0
LINE
  5
43
330
17
100
AcDbEntity
  8
FP-Proposed Wall
 62
1
100
AcDbLine
 10
-197.6150499116775
 20
248.00230956367477
 30
8.253141918996572
 11
-198.3650499115065
 21
248.00246306781878
 31
8.253141918996572
  0
LINE
  5
44
330
17
100
AcDbEntity
  8
FP-Hatch
100
AcDbLine
 10
-186.5537289753338
 20
249.00207099698355
 30
2.8698883482764663
 11
-198.36504879131826
 21
249.00142766415843
 31
8.253141918996572
  0
LINE
  5
45
330
17
100
AcDbEntity
  8
FP-Proposed Wall
 62
1
100
AcDbLine
 10
-197.61504766899452
 20
250.00230956367113
 30
8.253141918996572
 11
-198.36504766898724
 21
250.00231040655808
 31
8.253141918996572
  0
LINE
  5
46
330
17
100
AcDbEntity
  8
FP-Proposed Wall
 62
1
100
AcDbLine
 10
-198.36503533420182
 20
261.00231240654966
 30
8.253141918996572
 11
-198.36504766898724
 21
250.00231040655808
 31
8.253141918996572
  0
LINE
  5
47
330
17
100
AcDbEntity
  8
EL-Trim
 62
8
100
AcDbLine
 10
-198.36503533420182
 20
261.00231240654966
 30
8.253141918996572
 11
-185.61498740410389
 21
261.00231240654966
 31
0.0
  0
LINE
  5
48
330
17
100
AcDbEntity
  8
FP-Proposed Wall
 62
1
100
AcDbLine
 10
-197.61328680751103
 20
250.0023032614572
 30
0.0
 11
-198.3632217417544
 21
250.00230410239578
 31
0.0
  0
LINE
  5
49
330
17
100
AcDbEntity
  8
FP-Proposed Wall
 62
1
100
AcDbLine
 10
-197.6176536901694
 20
125.5009731151249
 30
-12.218747285821806
 11
-197.61763630934
 21
141.00097311512673
 31
-12.218747285821806
  0
LINE
  5
4A
330
17
100
AcDbEntity
  8
FP-Proposed Wall
 62
1
100
AcDbLine
 10
-196.61765368891065
 20
125.5020950071198
 30
-12.218747285821806
 11
-197.617653688907
 21
125.50209612846356
 31
-12.218747285821802
  0
LWPOLYLINE
  5
4B
330
17
100
AcDbEntity
  8
FP-Hatch
100
AcDbPolyline
 90
2
 70
0
 38
-12.218747285821806
 10
-197.6176363093473
 20
141.000967895842
 10
-186.6558946666155
 20
141.00207861729928
  0
LINE
  5
4C
330
17
100
AcDbEntity
  8
FP-Proposed Wall
 62
1
100
AcDbLine
 10
-197.6151124275275
 20
148.00120523871033
 30
-12.218747285821806
 11
-197.61504991168113
 21
248.00230956367477
 31
8.253141918996569
  0
LINE
  5
4D
330
17
100
AcDbEntity
  8
FP-Hatch
100
AcDbLine
 10
-186.3650019815832
 20
248.00229694844757
 30
-1.8189894035458565e-12
 11
-197.6150499116775
 21
248.00230956367477
 31
8.253141918996572
  0
LINE
  5
4E
330
17
100
AcDbEntity
  8
FP-Proposed Wall
 62
1
100
AcDbLine
 10
-186.36499973888567
 20
250.00231040655808
 30
0.0
 11
-197.61504766899452
 21
250.00230956367113
 31
8.253141918996572
  0
LINE
  5
4F
330
17
100
AcDbEntity
  8
FP-Footing
100
AcDbLine
 10
-196.61766041932424
 20
119.50000000000182
 30
-12.218747285821806
 11
-196.61766041932788
 21
8.0
 31
-12.218747285821806
  0
LWPOLYLINE
  5
50
330
17
100
AcDbEntity
  8
FP-Proposed Wall
 62
1
100
AcDbPolyline
 90
2
 70
0
 38
-12.218747285821806
 10
-196.6176536901694
 20
125.50097199377251
 10
-196.61766041823284
 20
119.50097199377615
  0
LWPOLYLINE
  5
51
330
17
100
AcDbEntity
  8
FP-Hatch
100
AcDbPolyline
 90
2
 70
0
 38
-12.218747285821806
 10
-196.61765368891065
 20
125.5020950071198
 10
-185.61765537863175
 20
125.50207745305329
  0
LINE
  5
52
330
17
100
AcDbEntity
  8
EL-Trim
 62
8
100
AcDbLine
 10
-193.61843884428527
 20
266.0023300615271
 30
8.253141918996572
 11
-193.61843968529138
 21
265.25233006152894
 31
8.253141918996572
  0
LINE
  5
53
330
17
100
AcDbEntity
  8
EL-Trim
 62
8
100
AcDbLine
 10
-191.61843884377595
 20
266.0023278188405
 30
8.253141918996572
 11
-191.61843968478206
 21
265.2523278188405
 31
8.253141918996572
  0
LINE
  5
54
330
17
100
AcDbEntity
  8
EL-Trim
 62
8
100
AcDbLine
 10
-191.61584056462016
 20
263.1273278159247
 30
8.253141918996572
 11
-191.6158411252909
 21
262.6273278159247
 31
8.253141918996572
  0
LINE
  5
55
330
17
100
AcDbEntity
  8
FP-Footing
100
AcDbLine
 10
-190.61766210778296
 20
8.001104337928382
 30
0.0
 11
-190.61766210778296
 21
0.0011043379283819377
 31
0.0
  0
LINE
  5
56
330
17
100
AcDbEntity
  8
FP-Hatch
100
AcDbLine
 10
-190.2874018626244
 20
249.72699145306865
 30
-1.7763568394002505e-15
 11
-189.73902935502701
 21
250.00231740925005
 31
-1.7763568394002505e-15
  0
LINE
  5
57
330
17
100
AcDbEntity
  8
EL-Trim
 62
8
100
AcDbLine
 10
-190.24084294747445
 20
261.0023262740783
 30
8.253141918996572
 11
-189.74084294747445
 21
261.00232571340575
 31
8.253141918996572
  0
LINE
  5
58
330
17
100
AcDbEntity
  8
FP-Hatch
100
AcDbLine
 10
-189.73902847636782
 20
249.00231740924823
 30
-1.7763568394002505e-15
 11
-189.9277584763695
 21
249.00231762088038
 31
-1.7763568394002505e-15
  0
LINE
  5
59
330
17
100
AcDbEntity
  8
EL-Trim
 62
8
100
AcDbLine
 10
-189.74084294747445
 20
261.00232571340575
 30
8.253141918996572
 11
-189.74085528226715
 21
250.00232371341417
 31
8.253141918996572
  0
LINE
  5
5A
330
17
100
AcDbEntity
  8
FP-Hatch
100
AcDbLine
 10
-189.73903159771726
 20
248.00231740925187
 30
-1.7763568394002505e-15
 11
-189.7390304763685
 21
249.00231740925187
 31
-1.7763568394002505e-15
  0
LINE
  5
5B
330
17
100
AcDbEntity
  8
EL-Trim
 62
8
100
AcDbLine
 10
-189.61584056411084
 20
263.12732557323625
 30
8.253141918996572
 11
-189.61584112478158
 21
262.62732557323625
 31
8.253141918996572
  0
LINE
  5
5C
330
17
100
AcDbEntity
  8
FP-Hatch
100
AcDbLine
 10
-188.9908132992423
 20
248.00232056823074
 30
-1.7763568394002505e-15
 11
-188.9909254336526
 21
148.00231858126676
 31
-1.7763568394002505e-15
  0
LINE
  5
5D
330
17
100
AcDbEntity
  8
FP-Hatch
100
AcDbLine
 10
-188.2874018626244
 20
249.72698921038022
 30
-1.7763568394002505e-15
 11
-187.73902935502701
 21
250.00231516656163
 31
-1.7763568394002505e-15
  0
LINE
  5
5E
330
17
100
AcDbEntity
  8
EL-Trim
 62
8
100
AcDbLine
 10
-188.24084294696513
 20
261.0023240313899
 30
8.253141918996572
 11
-187.74084294696513
 21
261.00232347071733
 31
8.253141918996572
  0
LINE
  5
5F
330
17
100
AcDbEntity
  8
FP-Hatch
100
AcDbLine
 10
-187.73902847636782
 20
249.00231516656163
 30
-1.7763568394002505e-15
 11
-187.9277584763695
 21
249.00231537819195
 31
-1.7763568394002505e-15
  0
LINE
  5
60
330
17
100
AcDbEntity
  8
EL-Trim
 62
8
100
AcDbLine
 10
-187.74084294696513
 20
261.00232347071733
 30
8.253141918996572
 11
-187.74085528175783
 21
250.00232147072575
 31
8.253141918996572
  0
LINE
  5
61
330
17
100
AcDbEntity
  8
FP-Hatch
100
AcDbLine
 10
-187.7408132993005
 20
248.00231716855956
 30
-1.7763568394002505e-15
 11
-187.74081217795901
 21
249.00231716855956
 31
-1.7763568394002505e-15
  0
LINE
  5
62
330
17
100
AcDbEntity
  8
FP-Hatch
100
AcDbLine
 10
-187.73903159770998
 20
248.0023171665623
 30
-1.7763568394002505e-15
 11
-186.98903159770998
 21
248.00231632555437
 31
-1.7763568394002505e-15
  0
LWPOLYLINE
  5
63
330
17
100
AcDbEntity
  8
FP-Proposed Wall
100
AcDbPolyline
 90
4
 70
0
 10
-186.65589242396163
 20
143.00204615004463
 10
-187.11585405355072
 20
143.00204666581908
 10
-187.1158484468324
 20
148.00204666581726
 10
-9.247357562257093
 20
148.00178390591827
  0
LWPOLYLINE
  5
64
330
17
100
AcDbEntity
  8
FP-Proposed Wall
100
AcDbPolyline
 90
5
 70
0
 10
-186.6558946666155
 20
141.3024158220578
 10
-186.6558921672804
 20
143.00266590316346
 10
-187.11585405285587
 20
143.00266641893882
 10
-187.11584844781828
 20
148.00116746468757
 10
-185.61511411598622
 20
148.0023095766387
  0
LWPOLYLINE
  5
65
330
17
100
AcDbEntity
  8
FP-Hatch
100
AcDbPolyline
 90
2
 70
0
 10
-186.9908132993005
 20
248.00231832755048
 10
-186.9909254337108
 20
148.00231633955877
  0
LWPOLYLINE
  5
66
330
17
100
AcDbEntity
  8
FP-Hatch
100
AcDbPolyline
 90
2
 70
0
 10
-186.99081105661753
 20
250.0023163275498
 10
-186.99081105661026
 20
250.00231832754866
  0
LINE
  5
67
330
17
100
AcDbEntity
  8
FP-Proposed Wall
100
AcDbLine
 10
-186.91337224648305
 20
249.72698445037486
 30
0.0
 11
-186.36499973888567
 21
250.00231040655808
 31
0.0
  0
LINE
  5
68
330
17
100
AcDbEntity
  8
FP-Hatch
100
AcDbLine
 10
-168.71305024730827
 20
249.25142766415365
 30
0.0
 11
-186.7827327395753
 21
249.25142766415297
 31
0.0
  0
LINE
  5
69
330
17
100
AcDbEntity
  8
FP-Proposed Wall
100
AcDbLine
 10
-186.65589242392525
 20
143.00207861729746
 30
0.0
 11
-186.6558946666155
 21
141.00207861729928
 31
0.0
  0
LINE
  5
6A
330
17
100
AcDbEntity
  8
FP-Proposed Wall
100
AcDbLine
 10
-186.6558946666155
 20
141.00207861729928
 30
0.0
 11
-185.61763799780238
 21
141.00207861729928
 31
0.0
  0
LINE
  5
6B
330
17
100
AcDbEntity
  8
FP-Hatch
100
AcDbLine
 10
-7.2482484130741796
 20
143.00240217748205
 30
0.0
 11
-186.65589242326678
 21
143.00266590316392
 31
0.0
  0
LINE
  5
6C
330
17
100
AcDbEntity
  8
FP-Proposed Wall
100
AcDbLine
 10
-186.36499886022648
 20
249.00231040655626
 30
0.0
 11
-186.55372886022815
 21
249.00231061818658
 31
0.0
  0
LWPOLYLINE
  5
6D
330
17
100
AcDbEntity
  8
FP-Proposed Wall
100
AcDbPolyline
 90
2
 70
0
 10
-186.36495915659907
 20
291.0023520938498
 10
-186.5536872008779
 20
291.00250137340504
  0
LINE
  5
6E
330
17
100
AcDbEntity
  8
FP-Proposed Wall
100
AcDbLine
 10
-186.36500198157592
 20
248.0023104065599
 30
0.0
 11
-186.36500086022716
 21
249.00231040655808
 31
0.0
  0
LINE
  5
6F
330
17
100
AcDbEntity
  8
FP-Proposed Wall
100
AcDbLine
 10
-185.61500198157592
 20
248.00230956367477
 30
0.0
 11
-186.36500198140493
 21
248.00246306781878
 31
0.0
  0
LINE
  5
70
330
17
100
AcDbEntity
  8
FP-Hatch
100
AcDbLine
 10
-168.71305024730827
 20
249.00142766415775
 30
0.0
 11
-186.36500086121669
 21
249.00142766415843
 31
0.0
  0
LINE
  5
71
330
17
100
AcDbEntity
  8
FP-Proposed Wall
100
AcDbLine
 10
-185.61499973889295
 20
250.00230956367113
 30
0.0
 11
-186.36499973888567
 21
250.00231040655808
 31
0.0
  0
LINE
  5
72
330
17
100
AcDbEntity
  8
FP-Proposed Wall
100
AcDbLine
 10
-185.61495488652145
 20
290.0010607884917
 30
0.0
 11
-186.36496027939938
 21
290.00105816499104
 31
0.0
  0
LINE
  5
73
330
17
100
AcDbEntity
  8
FP-Proposed Wall
100
AcDbLine
 10
-186.36496027794783
 20
290.00235209385164
 30
0.0
 11
-186.36495915659907
 21
291.0023520938498
 31
0.0
  0
LINE
  5
74
330
17
100
AcDbEntity
  8
FP-Hatch
100
AcDbLine
 10
-186.36495915659907
 20
291.0023520938498
 30
0.0
 11
173.13494622270082
 21
291.0023156869165
 31
0.0
  0
LINE
  5
75
330
17
100
AcDbEntity
  8
FP-Proposed Wall
100
AcDbLine
 10
-185.61765537863175
 20
125.50207745305329
 30
0.0
 11
-185.61763799780238
 21
141.0020774530551
 31
0.0
  0
LINE
  5
76
330
17
100
AcDbEntity
  8
FP-Proposed Wall
100
AcDbLine
 10
-185.61765537863175
 20
125.50207745305329
 30
0.0
 11
-184.61765537796964
 21
125.50266385468967
 31
0.0
  0
LINE
  5
77
330
17
100
AcDbEntity
  8
FP-Stair
100
AcDbLine
 10
-102.62898497137212
 20
141.00157957864258
 30
0.0
 11
-185.61763799906112
 21
141.00095443969622
 31
0.0
  0
LINE
  5
78
330
17
100
AcDbEntity
  8
FP-Proposed Wall
100
AcDbLine
 10
-185.61511411598622
 20
148.0023095766387
 30
0.0
 11
-185.61500198157592
 21
248.00230956367477
 31
0.0
  0
LINE
  5
79
330
17
100
AcDbEntity
  8
FP-Proposed Wall
 62
1
100
AcDbLine
 10
-168.71305024730827
 20
248.00245505737553
 30
0.0
 11
-185.61500198157592
 21
248.00230956367477
 31
0.0
  0
LINE
  5
7A
330
17
100
AcDbEntity
  8
FP-Stair
100
AcDbLine
 10
-168.71305024730827
 20
250.00227399962296
 30
0.0
 11
-185.61499973889295
 21
250.00230956367113
 31
0.0
  0
LINE
  5
7B
330
17
100
AcDbEntity
  8
FP-Proposed Wall
100
AcDbLine
 10
-185.61499973889295
 20
250.00230956367113
 30
0.0
 11
-185.61495488512446
 21
290.002307565866
 31
0.0
  0
LINE
  5
7C
330
17
100
AcDbEntity
  8
FP-Proposed Wall
 62
1
100
AcDbLine
 10
172.38503912301894
 20
290.0025527677733
 30
0.0
 11
-185.61495488652145
 21
290.0010607884917
 31
0.0
  0
LINE
  5
7D
330
17
100
AcDbEntity
  8
FP-Footing
100
AcDbLine
 10
-184.61766210778296
 20
119.5011043379302
 30
0.0
 11
-184.61766210778296
 21
8.001104337928382
 31
0.0
  0
LWPOLYLINE
  5
7E
330
17
100
AcDbEntity
  8
FP-Proposed Wall
100
AcDbPolyline
 90
2
 70
0
 10
-184.61765537862811
 20
125.50207633170089
 10
-184.61766210669157
 20
119.50207633170453
  0
LINE
  5
7F
330
17
100
AcDbEntity
  8
FP-Stair
100
AcDbLine
 10
-126.6063803833058
 20
125.50255259580626
 30
0.0
 11
-184.61765537796964
 21
125.50266385468967
 31
0.0
  0
LINE
  5
80
330
17
100
AcDbEntity
  8
FP-Hatch
100
AcDbLine
 10
-178.28740439207468
 20
249.72697277769976
 30
0.0
 11
-177.7390318844773
 21
250.00229873388116
 31
0.0
  0
LINE
  5
81
330
17
100
AcDbEntity
  8
FP-Hatch
100
AcDbLine
 10
-177.7390310058181
 20
249.00229873387934
 30
0.0
 11
-177.92776100581978
 21
249.00229894551148
 31
0.0
  0
LINE
  5
82
330
17
100
AcDbEntity
  8
EL-Trim
 62
8
100
AcDbLine
 10
-177.74076873225567
 20
290.0023382796967
 30
0.0
 11
-177.7407676109142
 21
291.0023382796967
 31
0.0
  0
LINE
  5
83
330
17
100
AcDbEntity
  8
FP-Hatch
100
AcDbLine
 10
-177.73903412716754
 20
248.00229873388298
 30
0.0
 11
-177.73903300581878
 21
249.00229873388298
 31
0.0
  0
LINE
  5
84
330
17
100
AcDbEntity
  8
FP-Hatch
100
AcDbLine
 10
-176.99081582869258
 20
248.00230189286185
 30
0.0
 11
-176.99092796310288
 21
148.00229990589787
 31
0.0
  0
LINE
  5
85
330
17
100
AcDbEntity
  8
FP-Hatch
100
AcDbLine
 10
-176.99081358606782
 20
250.00229989486934
 30
0.0
 11
-176.99076873229933
 21
290.00229990776415
 31
0.0
  0
LINE
  5
86
330
17
100
AcDbEntity
  8
FP-Hatch
100
AcDbLine
 10
-176.28740439207468
 20
249.72697053501133
 30
0.0
 11
-175.7390318844773
 21
250.00229649119274
 31
0.0
  0
LINE
  5
87
330
17
100
AcDbEntity
  8
FP-Hatch
100
AcDbLine
 10
-175.7390310058181
 20
249.00229649119274
 30
0.0
 11
-175.92776100581978
 21
249.00229670282306
 31
0.0
  0
LINE
  5
88
330
17
100
AcDbEntity
  8
FP-Hatch
100
AcDbLine
 10
-175.74081582875078
 20
248.00229849319066
 30
0.0
 11
-175.7408147074093
 21
249.00229849319066
 31
0.0
  0
LINE
  5
89
330
17
100
AcDbEntity
  8
EL-Trim
 62
8
100
AcDbLine
 10
-175.74076873174636
 20
290.0023360370101
 30
0.0
 11
-175.74076761040487
 21
291.00233603700826
 31
0.0
  0
LINE
  5
8A
330
17
100
AcDbEntity
  8
FP-Hatch
100
AcDbLine
 10
-175.73903412716027
 20
248.00229849119341
 30
0.0
 11
-174.98903412716027
 21
248.00229765018548
 31
0.0
  0
LWPOLYLINE
  5
8B
330
17
100
AcDbEntity
  8
FP-Hatch
100
AcDbPolyline
 90
2
 70
0
 10
-174.99081582875078
 20
248.0022996521816
 10
-174.99092796316108
 20
148.00229766418988
  0
LWPOLYLINE
  5
8C
330
17
100
AcDbEntity
  8
FP-Hatch
100
AcDbPolyline
 90
2
 70
0
 10
-174.99081358606782
 20
250.0022976521809
 10
-174.99081358606054
 20
250.00229965217977
  0
LINE
  5
8D
330
17
100
AcDbEntity
  8
FP-Hatch
100
AcDbLine
 10
-174.99081358606782
 20
250.0022976521809
 30
0.0
 11
-174.99076873214653
 21
290.002297664872
 31
0.0
  0
LINE
  5
8E
330
17
100
AcDbEntity
  8
FP-Stair
100
AcDbLine
 10
-168.71305024729736
 20
148.00201978205746
 30
0.0
 11
-168.71305024730827
 21
290.0011674676223
 31
0.0
  0
LWPOLYLINE
  5
8F
330
17
100
AcDbEntity
  8
FP-Stair
100
AcDbPolyline
 90
2
 70
0
 10
-168.71305024730827
 20
274.09915966326275
 10
-120.517065850152
 20
274.09915966326275
  0
LINE
  5
90
330
17
100
AcDbEntity
  8
FP-Stair
100
AcDbLine
 10
-167.96305024730827
 20
290.00116746741674
 30
0.0
 11
-168.71305024730827
 21
290.00116746741674
 31
0.0
  0
LINE
  5
91
330
17
100
AcDbEntity
  8
FP-Stair
100
AcDbLine
 10
-167.96305224730895
 20
291.0011654674179
 30
0.0
 11
-167.77432224730728
 21
291.0011654674179
 31
0.0
  0
LINE
  5
92
330
17
100
AcDbEntity
  8
FP-Stair
100
AcDbLine
 10
-167.96305024730827
 20
290.0011654674179
 30
0.0
 11
-167.96305024730827
 21
291.0011654674179
 31
0.0
  0
LWPOLYLINE
  5
93
330
17
100
AcDbEntity
  8
FP-Hatch
100
AcDbPolyline
 90
4
 70
0
 10
-166.71305024729736
 20
148.00201686035393
 10
-166.71305024730827
 20
272.09915966326275
 10
-122.517065850152
 20
272.09915966326275
 10
-122.517065850152
 20
148.00195229657243
  0
LWPOLYLINE
  5
94
330
17
100
AcDbEntity
  8
FP-Hatch
100
AcDbPolyline
 90
4
 70
0
 10
-165.71305024729736
 20
148.00201539950217
 10
-165.71305024730827
 20
271.09915966326275
 10
-123.517065850152
 20
271.09915966326275
 10
-123.517065850152
 20
148.0019537574242
  0
LWPOLYLINE
  5
95
330
17
100
AcDbEntity
  8
FP-Proposed Wall
 62
1
100
AcDbPolyline
 90
5
 70
0
 10
-162.61508580368172
 20
148.00201087383516
 10
-162.61505804873013
 20
268.00116746468643
 10
-126.61505804873013
 20
268.00116746468643
 10
-126.61508580368172
 20
148.00201087383516
 10
-162.61508580368172
 20
148.00201087383516
  0
LWPOLYLINE
  5
96
330
17
100
AcDbEntity
  8
FP-Hatch
100
AcDbPolyline
 90
6
 70
0
 10
-161.11505804873013
 20
180.86557544198672
 10
-161.11505804873013
 20
266.50116746468643
 10
-128.11505804873013
 20
266.50116746468643
 10
-128.11508580368172
 20
149.50201087383516
 10
-161.11508580368172
 20
149.50201087383516
 10
-161.11505804873013
 20
180.86557544198672
  0
LWPOLYLINE
  5
97
330
17
100
AcDbEntity
  8
FP-Hatch
100
AcDbPolyline
 90
6
 70
0
 10
-160.11505804873013
 20
180.86557544198672
 10
-160.11505804873013
 20
265.50116746468643
 10
-129.11505804873013
 20
265.50116746468643
 10
-129.11508580368172
 20
150.50201087383516
 10
-160.11508580368172
 20
150.50201087383516
 10
-160.11505804873013
 20
180.86557544198672
  0
LINE
  5
98
330
17
100
AcDbEntity
  8
FP-Hatch
100
AcDbLine
 10
-129.11505804873013
 20
169.50116747067455
 30
0.0
 11
-160.11505804873013
 21
169.50116747067455
 31
0.0
  0
LINE
  5
99
330
17
100
AcDbEntity
  8
FP-Hatch
100
AcDbLine
 10
-129.11505804873013
 20
185.50116747067455
 30
0.0
 11
-160.11505804873013
 21
185.50116747067455
 31
0.0
  0
LINE
  5
9A
330
17
100
AcDbEntity
  8
FP-Hatch
100
AcDbLine
 10
-129.11505804873013
 20
201.50116747067455
 30
0.0
 11
-160.11505804873013
 21
201.50116747067455
 31
0.0
  0
LINE
  5
9B
330
17
100
AcDbEntity
  8
FP-Hatch
100
AcDbLine
 10
-129.11505804873013
 20
217.50116747067455
 30
0.0
 11
-160.11505804873013
 21
217.50116747067455
 31
0.0
  0
LINE
  5
9C
330
17
100
AcDbEntity
  8
FP-Hatch
100
AcDbLine
 10
-129.11505804873013
 20
233.50116747067455
 30
0.0
 11
-160.11505804873013
 21
233.50116747067455
 31
0.0
  0
LINE
  5
9D
330
17
100
AcDbEntity
  8
FP-Hatch
100
AcDbLine
 10
-129.11505804873013
 20
249.50116747067455
 30
0.0
 11
-160.11505804873013
 21
249.50116747067455
 31
0.0
  0
LINE
  5
9E
330
17
100
AcDbEntity
  8
FP-Hatch
100
AcDbLine
 10
-144.61505804873013
 20
265.50116746468643
 30
0.0
 11
-144.61508580368172
 21
150.50201087383516
 31
0.0
  0
LWPOLYLINE
  5
9F
330
17
100
AcDbEntity
  8
FP-Proposed Wall
100
AcDbPolyline
 90
4
 70
0
 10
-124.6063803833058
 20
121.0020763305763
 10
-126.6063803833058
 20
121.0020763305763
 10
-126.6063803833058
 20
127.0020751276536
 10
-112.62899758648564
 20
127.0020751276536
  0
LWPOLYLINE
  5
A0
330
17
100
AcDbEntity
  8
FP-Proposed Wall
100
AcDbPolyline
 90
2
 70
0
 10
-124.62899085842218
 20
121.00207621665436
 10
-124.6063803833058
 20
119.50207633170453
  0
LINE
  5
A1
330
17
100
AcDbEntity
  8
FP-Proposed Wall
 62
1
100
AcDbLine
 10
-124.6063803833058
 20
121.0020763305763
 30
0.0
 11
111.41857891431937
 21
121.0020763305763
 31
0.0
  0
LINE
  5
A2
330
17
100
AcDbEntity
  8
FP-Stair
100
AcDbLine
 10
-121.26706385015132
 20
291.0011654674179
 30
0.0
 11
-121.45579385015299
 21
291.0011654674179
 31
0.0
  0
LINE
  5
A3
330
17
100
AcDbEntity
  8
FP-Stair
100
AcDbLine
 10
-121.267065850152
 20
290.0011654674179
 30
0.0
 11
-121.267065850152
 21
291.0011654674179
 31
0.0
  0
LINE
  5
A4
330
17
100
AcDbEntity
  8
FP-Stair
100
AcDbLine
 10
-121.267065850152
 20
290.00116746741674
 30
0.0
 11
-120.517065850152
 21
290.00116746741674
 31
0.0
  0
LINE
  5
A5
330
17
100
AcDbEntity
  8
FP-Stair
100
AcDbLine
 10
-120.517065850152
 20
290.0011674676223
 30
0.0
 11
-120.517065850152
 21
148.0019493748689
 31
0.0
  0
LINE
  5
A6
330
17
100
AcDbEntity
  8
FP-Proposed Wall
 62
1
100
AcDbLine
 10
-96.6163368075213
 20
248.00237373056234
 30
0.0
 11
-120.517065850152
 21
248.00240101304348
 31
0.0
  0
LINE
  5
A7
330
17
100
AcDbEntity
  8
FP-Hatch
100
AcDbLine
 10
-120.517065850152
 20
249.00142766415297
 30
0.0
 11
-96.6163368075213
 21
249.0014276641523
 31
0.0
  0
LINE
  5
A8
330
17
100
AcDbEntity
  8
FP-Hatch
100
AcDbLine
 10
-120.517065850152
 20
249.25142766415843
 30
0.0
 11
-96.6163368075213
 21
249.2514276641591
 31
0.0
  0
LINE
  5
A9
330
17
100
AcDbEntity
  8
FP-Stair
100
AcDbLine
 10
-120.517065850152
 20
250.00227399961818
 30
0.0
 11
-96.6163368075213
 21
250.0022739996175
 31
0.0
  0
LINE
  5
AA
330
17
100
AcDbEntity
  8
FP-Proposed Wall
100
AcDbLine
 10
-119.81543804875037
 20
249.72662279285646
 30
0.0
 11
-119.26706584988642
 21
250.0019493639527
 31
0.0
  0
LINE
  5
AB
330
17
100
AcDbEntity
  8
FP-Proposed Wall
100
AcDbLine
 10
-119.26706384937643
 20
291.00194737666857
 30
0.0
 11
-119.4557938493781
 21
291.00194737666857
 31
0.0
  0
LINE
  5
AC
330
17
100
AcDbEntity
  8
FP-Proposed Wall
100
AcDbLine
 10
-119.26706584988642
 20
248.0019493639527
 30
0.0
 11
-119.26706584988642
 21
249.0019493639527
 31
0.0
  0
LINE
  5
AD
330
17
100
AcDbEntity
  8
FP-Proposed Wall
100
AcDbLine
 10
-119.26706584988642
 20
248.00195136395155
 30
0.0
 11
-118.51706584988642
 21
248.00195136395155
 31
0.0
  0
LINE
  5
AE
330
17
100
AcDbEntity
  8
FP-Proposed Wall
100
AcDbLine
 10
-119.2670658493771
 20
290.00194737666857
 30
0.0
 11
-119.2670658493771
 21
291.00194737666857
 31
0.0
  0
LINE
  5
AF
330
17
100
AcDbEntity
  8
FP-Proposed Wall
100
AcDbLine
 10
-119.2670658493771
 20
290.0019493766674
 30
0.0
 11
-118.5170658493771
 21
290.0019493766674
 31
0.0
  0
LWPOLYLINE
  5
B0
330
17
100
AcDbEntity
  8
FP-Proposed Wall
100
AcDbPolyline
 90
2
 70
0
 10
-118.51706584988642
 20
248.00195136395155
 10
-118.51706584988642
 20
148.001949375898
  0
LINE
  5
B1
330
17
100
AcDbEntity
  8
FP-Proposed Wall
100
AcDbLine
 10
-118.51706584988642
 20
250.0019493639527
 30
0.0
 11
-118.51706584973363
 21
290.0019493766674
 31
0.0
  0
LINE
  5
B2
330
17
100
AcDbEntity
  8
FP-Hatch
100
AcDbLine
 10
-115.7252188506427
 20
225.8190098297846
 30
0.0
 11
-115.65803877933286
 21
225.8190098297846
 31
0.0
  0
LINE
  5
B3
330
17
100
AcDbEntity
  8
FP-Hatch
100
AcDbLine
 10
-115.72150182107362
 20
225.81950169589095
 30
-0.07616669536480747
 11
-99.462141678443
 21
225.81950169589095
 31
-0.07616669536480747
  0
LINE
  5
B4
330
17
100
AcDbEntity
  8
FP-Hatch
100
AcDbLine
 10
-115.65803877933286
 20
225.64504221099742
 30
0.0
 11
-114.90803877933286
 21
225.64504221099742
 31
0.0
  0
LINE
  5
B5
330
17
100
AcDbEntity
  8
FP-Hatch
100
AcDbLine
 10
-115.65803877933286
 20
225.64504221099742
 30
0.0
 11
-115.65803877933286
 21
225.8190098297846
 31
0.0
  0
LINE
  5
B6
330
17
100
AcDbEntity
  8
FP-Hatch
100
AcDbLine
 10
-115.65803877933286
 20
225.8190098297846
 30
0.0
 11
-107.59553877933286
 21
225.8190098297846
 31
0.0
  0
LINE
  5
B7
330
17
100
AcDbEntity
  8
FP-Hatch
100
AcDbLine
 10
-115.65432174976377
 20
225.64553407710378
 30
-0.07616669536480747
 11
-99.52932174975285
 21
225.64553407710378
 31
-0.07616669536480747
  0
LINE
  5
B8
330
17
100
AcDbEntity
  8
FP-Hatch
100
AcDbLine
 10
-115.65432174976377
 20
225.64553407710378
 30
-0.07616669536480747
 11
-115.65432174976377
 21
225.81950169589095
 31
-0.07616669536480747
  0
LINE
  5
B9
330
17
100
AcDbEntity
  8
FP-Hatch
100
AcDbLine
 10
-114.90803877933286
 20
225.64504221099742
 30
0.0
 11
-107.59553877933286
 21
225.64504221099742
 31
0.0
  0
LINE
  5
BA
330
17
100
AcDbEntity
  8
FP-Hatch
100
AcDbLine
 10
-114.72053877933286
 20
225.45754221099742
 30
0.0
 11
-107.59553877933286
 21
225.45754221099742
 31
0.0
  0
LINE
  5
BB
330
17
100
AcDbEntity
  8
FP-Hatch
100
AcDbLine
 10
-114.72053877933286
 20
226.77004221099742
 30
0.0
 11
-107.59553877933286
 21
226.77004221099742
 31
0.0
  0
LINE
  5
BC
330
17
100
AcDbEntity
  8
FP-Hatch
100
AcDbLine
 10
-114.72053877933286
 20
226.77004221099742
 30
0.0
 11
-114.72053877933286
 21
227.14504221099742
 31
0.0
  0
LINE
  5
BD
330
17
100
AcDbEntity
  8
FP-Hatch
100
AcDbLine
 10
-114.72053877933286
 20
227.14504221099742
 30
0.0
 11
-107.59553877933286
 21
227.14504221099742
 31
0.0
  0
LINE
  5
BE
330
17
100
AcDbEntity
  8
FP-Hatch
100
AcDbLine
 10
-114.72053877932922
 20
224.52004221099742
 30
0.0
 11
-114.57053877932776
 21
224.52004221099742
 31
0.0
  0
LINE
  5
BF
330
17
100
AcDbEntity
  8
FP-Hatch
100
AcDbLine
 10
-114.71682174976377
 20
225.45803407710378
 30
-0.07616669536480747
 11
-100.46682174975285
 21
225.45803407710378
 31
-0.07616669536480747
  0
LINE
  5
C0
330
17
100
AcDbEntity
  8
FP-Hatch
100
AcDbLine
 10
-114.71682174976377
 20
226.77053407710378
 30
-0.07616669536480747
 11
-100.46682174975285
 21
226.77053407710378
 31
-0.07616669536480747
  0
LINE
  5
C1
330
17
100
AcDbEntity
  8
FP-Hatch
100
AcDbLine
 10
-114.71682174976377
 20
226.77053407710378
 30
-0.07616669536480747
 11
-114.71682174976377
 21
227.14553407710378
 31
-0.07616669536480747
  0
LINE
  5
C2
330
17
100
AcDbEntity
  8
FP-Hatch
100
AcDbLine
 10
-114.71682174976377
 20
227.14553407710378
 30
-0.07616669536480747
 11
-100.46682174975285
 21
227.14553407710378
 31
-0.07616669536480747
  0
LINE
  5
C3
330
17
100
AcDbEntity
  8
FP-Hatch
100
AcDbLine
 10
-114.71682174976013
 20
224.52053407710378
 30
-0.07616669536480747
 11
-100.46682174976013
 21
224.52053407710378
 31
-0.07616669536480747
  0
LWPOLYLINE
  5
C4
330
17
100
AcDbEntity
  8
FP-Proposed Wall
100
AcDbPolyline
 90
4
 70
0
 38
24.501592026040623
 10
-112.6063803833058
 20
128.50207501371756
 10
-114.6063803833058
 20
128.50207501371756
 10
-114.6063803833058
 20
134.50207381079485
 10
-100.62899758648564
 20
134.50207381079485
  0
LINE
  5
C5
330
17
100
AcDbEntity
  8
FP-Hatch
100
AcDbLine
 10
-114.57053877932776
 20
224.52004221099742
 30
0.0
 11
-107.59553877933286
 21
224.52004221099742
 31
0.0
  0
LINE
  5
C6
330
17
100
AcDbEntity
  8
FP-Hatch
100
AcDbLine
 10
-114.2323962526716
 20
224.33254221099742
 30
0.0
 11
-114.38303877932776
 21
224.33254221099742
 31
0.0
  0
LINE
  5
C7
330
17
100
AcDbEntity
  8
FP-Hatch
100
AcDbLine
 10
-100.80432174975431
 20
224.33303407710378
 30
-0.07616669536480747
 11
-114.37932174975867
 21
224.33303407710378
 31
-0.07616669536480747
  0
LINE
  5
C8
330
17
100
AcDbEntity
  8
FP-Hatch
100
AcDbLine
 10
-114.2323962526716
 20
224.33254221099742
 30
0.0
 11
-107.59553877932922
 21
224.33254221099742
 31
0.0
  0
LINE
  5
C9
330
17
100
AcDbEntity
  8
FP-Hatch
100
AcDbLine
 10
-114.1505012974012
 20
223.95754221099742
 30
0.0
 11
-114.22552461924352
 21
223.95754221099742
 31
0.0
  0
LINE
  5
CA
330
17
100
AcDbEntity
  8
FP-Hatch
100
AcDbLine
 10
-107.77932174976013
 20
223.95803407710378
 30
-0.07616669536480747
 11
-114.22180758967443
 21
223.95803407710378
 31
-0.07616669536480747
  0
LINE
  5
CB
330
17
100
AcDbEntity
  8
FP-Hatch
100
AcDbLine
 10
-114.1505012974012
 20
223.95754221099742
 30
0.0
 11
-107.78303877932922
 21
223.95754221099742
 31
0.0
  0
LINE
  5
CC
330
17
100
AcDbEntity
  8
FP-Hatch
100
AcDbLine
 10
-113.96095732621689
 20
223.8825422109985
 30
0.0
 11
-108.04553877932631
 21
223.8825422109985
 31
0.0
  0
LINE
  5
CD
330
17
100
AcDbEntity
  8
FP-Hatch
100
AcDbLine
 10
-113.9572402966478
 20
223.8830340771035
 30
-0.07616669536480747
 11
-108.04182174975722
 21
223.88303407710487
 31
-0.07616669536480747
  0
LWPOLYLINE
  5
CE
330
17
100
AcDbEntity
  8
FP-Proposed Wall
100
AcDbPolyline
 90
2
 70
0
 38
24.501592026040623
 10
-112.62899085842218
 20
128.50207501371756
 10
-112.6063803833058
 20
127.00207512876773
  0
LINE
  5
CF
330
17
100
AcDbEntity
  8
FP-Proposed Wall
100
AcDbLine
 10
99.4411961174992
 20
127.0020751276536
 30
0.0
 11
-112.62897740230255
 21
127.0020751276545
 31
24.50159259517898
  0
LINE
  5
D0
330
17
100
AcDbEntity
  8
FP-Proposed Wall
 62
1
100
AcDbLine
 10
99.41857891431937
 20
128.50207501371756
 30
24.501592026040623
 11
-112.62897740230255
 21
128.5020751276545
 31
24.50159259517898
  0
LINE
  5
D1
330
17
100
AcDbEntity
  8
FP-Hatch
100
AcDbLine
 10
-111.80413718644559
 20
211.14084559367575
 30
0.0
 11
-111.73695711513574
 21
211.14084559367438
 31
0.0
  0
LINE
  5
D2
330
17
100
AcDbEntity
  8
FP-Hatch
100
AcDbLine
 10
-111.8004201568765
 20
211.1413374597821
 30
-0.07616669536480747
 11
-103.38322334264012
 21
211.1413374597821
 31
-0.07616669536480747
  0
LINE
  5
D3
330
17
100
AcDbEntity
  8
FP-Hatch
100
AcDbLine
 10
-111.73695711513574
 20
211.05386178428216
 30
0.0
 11
-111.54945711513574
 21
211.05386178428216
 31
0.0
  0
LINE
  5
D4
330
17
100
AcDbEntity
  8
FP-Hatch
100
AcDbLine
 10
-111.73695711513574
 20
211.05386178428216
 30
0.0
 11
-111.73695711513574
 21
211.14084559367575
 31
0.0
  0
LINE
  5
D5
330
17
100
AcDbEntity
  8
FP-Hatch
100
AcDbLine
 10
-111.73695711513574
 20
211.14084559367438
 30
0.0
 11
-107.59553877933286
 21
211.14084559367438
 31
0.0
  0
LINE
  5
D6
330
17
100
AcDbEntity
  8
FP-Hatch
100
AcDbLine
 10
-111.73324008556665
 20
211.05435365038852
 30
-0.07616669536480747
 11
-103.45040341394997
 21
211.05435365038852
 31
-0.07616669536480747
  0
LINE
  5
D7
330
17
100
AcDbEntity
  8
FP-Hatch
100
AcDbLine
 10
-111.73324008556665
 20
211.05435365038852
 30
-0.07616669536480747
 11
-111.73324008556665
 21
211.1413374597821
 31
-0.07616669536480747
  0
LINE
  5
D8
330
17
100
AcDbEntity
  8
FP-Hatch
100
AcDbLine
 10
-111.54945711513574
 20
211.05386178428216
 30
0.0
 11
-107.59553877933286
 21
211.05386178428216
 31
0.0
  0
LINE
  5
D9
330
17
100
AcDbEntity
  8
FP-Hatch
100
AcDbLine
 10
-111.45570711513574
 20
210.96011178428216
 30
0.0
 11
-110.71272627932922
 21
210.96011178428216
 31
0.0
  0
LINE
  5
DA
330
17
100
AcDbEntity
  8
FP-Hatch
100
AcDbLine
 10
-111.45199008556665
 20
210.96060365038852
 30
-0.07616669536480747
 11
-103.73165341394997
 21
210.96060365038852
 31
-0.07616669536480747
  0
LINE
  5
DB
330
17
100
AcDbEntity
  8
FP-Hatch
100
AcDbLine
 10
-111.29573944474396
 20
212.2332873135665
 30
0.0
 11
-111.36318398216099
 21
212.20048130234318
 31
0.0
  0
LINE
  5
DC
330
17
100
AcDbEntity
  8
FP-Hatch
100
AcDbLine
 10
-111.29202241517487
 20
212.23377917967287
 30
-0.07616669536480747
 11
-111.3594669525919
 21
212.20097316844954
 31
-0.07616669536480747
  0
LINE
  5
DD
330
17
100
AcDbEntity
  8
FP-Hatch
100
AcDbLine
 10
-111.34389232078684
 20
211.6707873135665
 30
0.0
 11
-107.59553877932922
 21
211.6707873135665
 31
0.0
  0
LINE
  5
DE
330
17
100
AcDbEntity
  8
FP-Hatch
100
AcDbLine
 10
-111.34389232078684
 20
211.6707873135665
 30
0.0
 11
-111.34389232078684
 21
211.8582873135665
 31
0.0
  0
LINE
  5
DF
330
17
100
AcDbEntity
  8
FP-Hatch
100
AcDbLine
 10
-111.34389232078684
 20
211.8582873135665
 30
0.0
 11
-107.59553877932922
 21
211.8582873135665
 31
0.0
  0
LINE
  5
E0
330
17
100
AcDbEntity
  8
FP-Hatch
100
AcDbLine
 10
-111.34017529121775
 20
211.67127917967287
 30
-0.07616669536480747
 11
-103.84346820829523
 21
211.67127917967287
 31
-0.07616669536480747
  0
LINE
  5
E1
330
17
100
AcDbEntity
  8
FP-Hatch
100
AcDbLine
 10
-111.34017529121775
 20
211.67127917967287
 30
-0.07616669536480747
 11
-111.34017529121775
 21
211.85877917967287
 31
-0.07616669536480747
  0
LINE
  5
E2
330
17
100
AcDbEntity
  8
FP-Hatch
100
AcDbLine
 10
-111.34017529121775
 20
211.85877917967287
 30
-0.07616669536480747
 11
-103.84346820829523
 21
211.85877917967287
 31
-0.07616669536480747
  0
LINE
  5
E3
330
17
100
AcDbEntity
  8
FP-Hatch
100
AcDbLine
 10
-111.29573944474396
 20
212.2332873135665
 30
0.0
 11
-107.59553877932922
 21
212.2332873135665
 31
0.0
  0
LINE
  5
E4
330
17
100
AcDbEntity
  8
FP-Hatch
100
AcDbLine
 10
-111.29202241517487
 20
212.23377917967287
 30
-0.07616669536480747
 11
-103.89162108434539
 21
212.23377917967287
 31
-0.07616669536480747
  0
LINE
  5
E5
330
17
100
AcDbEntity
  8
FP-Hatch
100
AcDbLine
 10
-111.12371469039863
 20
212.30828731356542
 30
0.0
 11
-108.04553877933358
 21
212.30828731356678
 31
0.0
  0
LINE
  5
E6
330
17
100
AcDbEntity
  8
FP-Hatch
100
AcDbLine
 10
-111.11999766082954
 20
212.30877917967177
 30
-0.07616669536480747
 11
-108.0418217497645
 21
212.3087791796745
 31
-0.07616669536480747
  0
LINE
  5
E7
330
17
100
AcDbEntity
  8
FP-Hatch
100
AcDbLine
 10
-110.71272627932922
 20
210.96011178428216
 30
0.0
 11
-107.59553877933286
 21
210.96011178428216
 31
0.0
  0
LINE
  5
E8
330
17
100
AcDbEntity
  8
FP-Hatch
100
AcDbLine
 10
-109.16271885063907
 20
233.89504221099878
 30
0.0
 11
-109.09553877932922
 21
233.89504221099742
 31
0.0
  0
LINE
  5
E9
330
17
100
AcDbEntity
  8
FP-Hatch
100
AcDbLine
 10
-109.16271885063179
 20
207.35073678428216
 30
0.0
 11
-109.09553877932194
 21
207.35073678428216
 31
0.0
  0
LINE
  5
EA
330
17
100
AcDbEntity
  8
FP-Hatch
100
AcDbLine
 10
-109.15900182106998
 20
233.89553407710514
 30
-0.07616669536480747
 11
-106.09182174976013
 21
233.89553407710378
 31
-0.07616669536480747
  0
LINE
  5
EB
330
17
100
AcDbEntity
  8
FP-Hatch
100
AcDbLine
 10
-109.1590018210627
 20
207.35122865038852
 30
-0.07616669536480747
 11
-106.09182174976377
 21
207.35122865038852
 31
-0.07616669536480747
  0
LWPOLYLINE
  5
EC
330
17
100
AcDbEntity
  8
FP-Hatch
100
AcDbPolyline
 90
3
 70
0
 10
-109.09553877933286
 20
232.39504221099742
 10
-109.09553877933286
 20
232.58254221099742
 10
-108.90803877933286
 20
232.58254221099742
  0
LINE
  5
ED
330
17
100
AcDbEntity
  8
FP-Hatch
100
AcDbLine
 10
-109.09553877933286
 20
232.39504221099742
 30
0.0
 11
-107.59553877933286
 21
232.39504221099742
 31
0.0
  0
LWPOLYLINE
  5
EE
330
17
100
AcDbEntity
  8
FP-Hatch
100
AcDbPolyline
 90
3
 70
0
 10
-109.09553877932922
 20
208.85073678428216
 10
-109.09553877932922
 20
208.66323678428216
 10
-108.90803877932922
 20
208.66323678428216
  0
LINE
  5
EF
330
17
100
AcDbEntity
  8
FP-Hatch
100
AcDbLine
 10
-109.09553877932922
 20
208.85073678428216
 30
0.0
 11
-107.59553877932922
 21
208.85073678428216
 31
0.0
  0
LWPOLYLINE
  5
F0
330
17
100
AcDbEntity
  8
FP-Hatch
100
AcDbPolyline
 90
2
 70
0
 10
-109.09553877932922
 20
233.89504221099742
 10
-109.09553877932922
 20
233.70754221099742
  0
LINE
  5
F1
330
17
100
AcDbEntity
  8
FP-Hatch
100
AcDbLine
 10
-109.09553877932922
 20
233.70754221099742
 30
0.0
 11
-107.59553877933286
 21
233.70754221099742
 31
0.0
  0
LINE
  5
F2
330
17
100
AcDbEntity
  8
FP-Hatch
100
AcDbLine
 10
-109.09553877932922
 20
233.89504221099742
 30
0.0
 11
-107.59553877932922
 21
233.89504221099742
 31
0.0
  0
LWPOLYLINE
  5
F3
330
17
100
AcDbEntity
  8
FP-Hatch
100
AcDbPolyline
 90
2
 70
0
 10
-109.09553877932194
 20
207.35073678428216
 10
-109.09553877932194
 20
207.53823678428216
  0
LINE
  5
F4
330
17
100
AcDbEntity
  8
FP-Hatch
100
AcDbLine
 10
-109.09553877932194
 20
207.35073678428216
 30
0.0
 11
-107.59553877932194
 21
207.35073678428216
 31
0.0
  0
LINE
  5
F5
330
17
100
AcDbEntity
  8
FP-Hatch
100
AcDbLine
 10
-109.09553877932194
 20
207.53823678428216
 30
0.0
 11
-107.59553877932922
 21
207.53823678428216
 31
0.0
  0
LWPOLYLINE
  5
F6
330
17
100
AcDbEntity
  8
FP-Hatch
100
AcDbPolyline
 90
3
 70
0
 38
-0.07616669536480747
 10
-109.09182174976377
 20
232.39553407710378
 10
-109.09182174976377
 20
232.58303407710378
 10
-106.09182174975285
 20
232.58303407710378
  0
LINE
  5
F7
330
17
100
AcDbEntity
  8
FP-Hatch
100
AcDbLine
 10
-109.09182174976377
 20
232.39553407710378
 30
-0.07616669536480747
 11
-106.09182174975285
 21
232.39553407710378
 31
-0.07616669536480747
  0
LWPOLYLINE
  5
F8
330
17
100
AcDbEntity
  8
FP-Hatch
100
AcDbPolyline
 90
3
 70
0
 38
-0.07616669536480747
 10
-109.09182174976013
 20
208.85122865038852
 10
-109.09182174976013
 20
208.66372865038852
 10
-106.09182174976013
 20
208.66372865038852
  0
LINE
  5
F9
330
17
100
AcDbEntity
  8
FP-Hatch
100
AcDbLine
 10
-109.09182174976013
 20
208.85122865038852
 30
-0.07616669536480747
 11
-106.09182174976013
 21
208.85122865038852
 31
-0.07616669536480747
  0
LWPOLYLINE
  5
FA
330
17
100
AcDbEntity
  8
FP-Hatch
100
AcDbPolyline
 90
2
 70
0
 38
-0.07616669536480747
 10
-109.09182174976013
 20
233.89553407710378
 10
-109.09182174976013
 20
233.70803407710378
  0
LINE
  5
FB
330
17
100
AcDbEntity
  8
FP-Hatch
100
AcDbLine
 10
-109.09182174976013
 20
233.70803407710378
 30
-0.07616669536480747
 11
-106.09182174976013
 21
233.70803407710378
 31
-0.07616669536480747
  0
LWPOLYLINE
  5
FC
330
17
100
AcDbEntity
  8
FP-Hatch
100
AcDbPolyline
 90
2
 70
0
 38
-0.07616669536480747
 10
-109.09182174975285
 20
207.35122865038852
 10
-109.09182174975285
 20
207.53872865038852
  0
LINE
  5
FD
330
17
100
AcDbEntity
  8
FP-Hatch
100
AcDbLine
 10
-109.09182174975285
 20
207.53872865038852
 30
-0.07616669536480747
 11
-106.09182174976377
 21
207.53872865038852
 31
-0.07616669536480747
  0
LINE
  5
FE
330
17
100
AcDbEntity
  8
FP-Hatch
100
AcDbLine
 10
-108.90803877933286
 20
232.58254221099742
 30
0.0
 11
-107.59553877933286
 21
232.58254221099742
 31
0.0
  0
LINE
  5
FF
330
17
100
AcDbEntity
  8
FP-Hatch
100
AcDbLine
 10
-108.90803877932922
 20
208.66323678428216
 30
0.0
 11
-107.59553877932922
 21
208.66323678428216
 31
0.0
  0
LWPOLYLINE
  5
100
330
17
100
AcDbEntity
  8
FP-Hatch
100
AcDbPolyline
 90
5
 70
0
 10
-108.17678877932849
 20
235.78357459221297
 10
-108.25178877932922
 20
235.78357459221297
 10
-108.34553877932922
 20
235.68982459221297
 10
-108.34553877932922
 20
235.68982459221297
 10
-108.25178877932922
 20
235.59607459221297
  0
LWPOLYLINE
  5
101
330
17
100
AcDbEntity
  8
FP-Hatch
100
AcDbPolyline
 90
5
 70
0
 10
-108.17678877932485
 20
204.33720440306934
 10
-108.25178877932194
 20
204.33720440306934
 10
-108.34553877932194
 20
204.43095440306934
 10
-108.34553877932194
 20
204.43095440306934
 10
-108.25178877932194
 20
204.52470440306934
  0
LINE
  5
102
330
17
100
AcDbEntity
  8
FP-Hatch
100
AcDbLine
 10
-108.19755539364269
 20
235.5960745922116
 30
0.0
 11
-108.25178877932922
 21
235.59607459221297
 31
0.0
  0
LINE
  5
103
330
17
100
AcDbEntity
  8
FP-Hatch
100
AcDbLine
 10
-108.19755539364269
 20
204.52470440306934
 30
0.0
 11
-108.25178877932194
 21
204.52470440306934
 31
0.0
  0
LWPOLYLINE
  5
104
330
17
100
AcDbEntity
  8
FP-Hatch
100
AcDbPolyline
 90
3
 70
0
 38
-0.07616669536480747
 10
-106.93557174976013
 20
235.78406645831933
 10
-108.24807174976013
 20
235.78406645831933
 10
-108.24923318695801
 20
235.59657365292264
  0
LINE
  5
105
330
17
100
AcDbEntity
  8
FP-Hatch
100
AcDbLine
 10
-106.98980513543938
 20
235.59656645831933
 30
-0.07616669536480747
 11
-108.24807174976013
 21
235.59656645831933
 31
-0.07616669536480747
  0
LINE
  5
106
330
17
100
AcDbEntity
  8
FP-Hatch
100
AcDbLine
 10
-106.93557174976377
 20
204.3376962691757
 30
-0.07616669536480747
 11
-108.24807174975285
 21
204.3376962691757
 31
-0.07616669536480747
  0
LINE
  5
107
330
17
100
AcDbEntity
  8
FP-Hatch
100
AcDbLine
 10
-106.98980513544302
 20
204.5251962691757
 30
-0.07616669536480747
 11
-108.24807174975285
 21
204.5251962691757
 31
-0.07616669536480747
  0
LINE
  5
108
330
17
100
AcDbEntity
  8
FP-Hatch
100
AcDbLine
 10
-108.19755539364996
 20
235.59607459221297
 30
0.0
 11
-107.59553877933286
 21
235.59607459221297
 31
0.0
  0
LINE
  5
109
330
17
100
AcDbEntity
  8
FP-Hatch
100
AcDbLine
 10
-108.19755539364269
 20
204.52470440306934
 30
0.0
 11
-107.59553877932922
 21
204.52470440306934
 31
0.0
  0
LINE
  5
10A
330
17
100
AcDbEntity
  8
FP-Hatch
100
AcDbLine
 10
-107.59553877933286
 20
235.78357459221297
 30
0.0
 11
-108.17678877932849
 21
235.78357459221297
 31
0.0
  0
LINE
  5
10B
330
17
100
AcDbEntity
  8
FP-Hatch
100
AcDbLine
 10
-107.59553877932922
 20
204.33720440306934
 30
0.0
 11
-108.17678877932485
 21
204.33720440306934
 31
0.0
  0
LWPOLYLINE
  5
10C
330
17
100
AcDbEntity
  8
FP-Hatch
100
AcDbPolyline
 90
3
 70
0
 10
-108.06428877932922
 20
235.03357459221297
 10
-108.15803877932922
 20
234.93982459221297
 10
-108.15803877932922
 20
234.84607459221297
  0
LINE
  5
10D
330
17
100
AcDbEntity
  8
FP-Hatch
100
AcDbLine
 10
-108.15803877932922
 20
234.84607459221297
 30
0.0
 11
-107.59553877933286
 21
234.84607459221297
 31
0.0
  0
LWPOLYLINE
  5
10E
330
17
100
AcDbEntity
  8
FP-Hatch
100
AcDbPolyline
 90
3
 70
0
 10
-108.06428877932194
 20
206.21220440306934
 10
-108.15803877932194
 20
206.30595440306934
 10
-108.15803877932194
 20
206.39970440306934
  0
LINE
  5
10F
330
17
100
AcDbEntity
  8
FP-Hatch
100
AcDbLine
 10
-108.15803877932194
 20
206.39970440306934
 30
0.0
 11
-107.59553877932922
 21
206.39970440306934
 31
0.0
  0
LWPOLYLINE
  5
110
330
17
100
AcDbEntity
  8
FP-Hatch
100
AcDbPolyline
 90
3
 70
0
 38
-0.07616669536480747
 10
-108.06057174976013
 20
235.03406645831933
 10
-108.15432174976013
 20
234.94031645831933
 10
-108.15432174976013
 20
234.84656645831933
  0
LINE
  5
111
330
17
100
AcDbEntity
  8
FP-Hatch
100
AcDbLine
 10
-108.15432174976013
 20
234.84656645831933
 30
-0.07616669536480747
 11
-107.02932174976013
 21
234.84656645831933
 31
-0.07616669536480747
  0
LWPOLYLINE
  5
112
330
17
100
AcDbEntity
  8
FP-Hatch
100
AcDbPolyline
 90
3
 70
0
 38
-0.07616669536480747
 10
-108.06057174975285
 20
206.2126962691757
 10
-108.15432174975285
 20
206.3064462691757
 10
-108.15432174975285
 20
206.4001962691757
  0
LINE
  5
113
330
17
100
AcDbEntity
  8
FP-Hatch
100
AcDbLine
 10
-108.15432174975285
 20
206.4001962691757
 30
-0.07616669536480747
 11
-107.02932174976377
 21
206.4001962691757
 31
-0.07616669536480747
  0
LINE
  5
114
330
17
100
AcDbEntity
  8
FP-Hatch
100
AcDbLine
 10
-108.06428877932922
 20
235.03357459221297
 30
0.0
 11
-107.59553877933286
 21
235.03357459221297
 31
0.0
  0
LINE
  5
115
330
17
100
AcDbEntity
  8
FP-Hatch
100
AcDbLine
 10
-108.06428877932194
 20
206.21220440306934
 30
0.0
 11
-107.59553877932922
 21
206.21220440306934
 31
0.0
  0
LINE
  5
116
330
17
100
AcDbEntity
  8
FP-Hatch
100
AcDbLine
 10
-108.06057174976013
 20
235.03406645831933
 30
-0.07616669536480747
 11
-107.12307174976013
 21
235.03406645831933
 31
-0.07616669536480747
  0
LINE
  5
117
330
17
100
AcDbEntity
  8
FP-Hatch
100
AcDbLine
 10
-108.06057174975285
 20
206.2126962691757
 30
-0.07616669536480747
 11
-107.12307174976377
 21
206.2126962691757
 31
-0.07616669536480747
  0
LINE
  5
118
330
17
100
AcDbEntity
  8
FP-Hatch
100
AcDbLine
 10
-108.04553877932631
 20
212.2332873135665
 30
0.0
 11
-108.04553877932631
 21
223.95754221099742
 31
0.0
  0
LINE
  5
119
330
17
100
AcDbEntity
  8
FP-Hatch
100
AcDbLine
 10
-108.04182174975722
 20
212.23377917967287
 30
-0.07616669536480747
 11
-108.04182174975722
 21
223.95803407710378
 31
-0.07616669536480747
  0
LINE
  5
11A
330
17
100
AcDbEntity
  8
FP-Hatch
100
AcDbLine
 10
-107.97053877932922
 20
212.2332873135665
 30
0.0
 11
-107.97053877932922
 21
223.95754221099742
 31
0.0
  0
LINE
  5
11B
330
17
100
AcDbEntity
  8
FP-Hatch
100
AcDbLine
 10
-107.96682174976013
 20
212.23377917967287
 30
-0.07616669536480747
 11
-107.96682174976013
 21
223.95803407710378
 31
-0.07616669536480747
  0
LWPOLYLINE
  5
11C
330
17
100
AcDbEntity
  8
FP-Hatch
100
AcDbPolyline
 90
4
 70
0
 10
-107.78303877932922
 20
222.45754221099742
 10
-107.78303877932922
 20
224.33254221099742
 10
-107.40803877932922
 20
224.33254221099742
 10
-107.40803877932922
 20
222.45754221099742
  0
LWPOLYLINE
  5
11D
330
17
100
AcDbEntity
  8
FP-Hatch
100
AcDbPolyline
 90
2
 70
0
 38
-0.07616669536480747
 10
-107.77932174976013
 20
224.33303407710378
 10
-107.77932174976013
 20
222.45803407710378
  0
LINE
  5
11E
330
17
100
AcDbEntity
  8
FP-Hatch
100
AcDbLine
 10
-106.09553877933286
 20
207.35073678428216
 30
0.0
 11
-107.59553877933286
 21
207.35073678428216
 31
0.0
  0
LINE
  5
11F
330
17
100
AcDbEntity
  8
FP-Hatch
100
AcDbLine
 10
-107.59553877932922
 20
204.33720440306934
 30
0.0
 11
-107.01428877933358
 21
204.33720440306934
 31
0.0
  0
LINE
  5
120
330
17
100
AcDbEntity
  8
FP-Hatch
100
AcDbLine
 10
-106.99352216501211
 20
204.52470440306934
 30
0.0
 11
-107.59553877932922
 21
204.52470440306934
 31
0.0
  0
LINE
  5
121
330
17
100
AcDbEntity
  8
FP-Hatch
100
AcDbLine
 10
-107.12678877933286
 20
206.21220440306934
 30
0.0
 11
-107.59553877932922
 21
206.21220440306934
 31
0.0
  0
LINE
  5
122
330
17
100
AcDbEntity
  8
FP-Hatch
100
AcDbLine
 10
-107.03303877933286
 20
206.39970440306934
 30
0.0
 11
-107.59553877932922
 21
206.39970440306934
 31
0.0
  0
LINE
  5
123
330
17
100
AcDbEntity
  8
FP-Hatch
100
AcDbLine
 10
-106.09553877933286
 20
207.53823678428216
 30
0.0
 11
-107.59553877932922
 21
207.53823678428216
 31
0.0
  0
LINE
  5
124
330
17
100
AcDbEntity
  8
FP-Hatch
100
AcDbLine
 10
-106.28303877932922
 20
208.66323678428216
 30
0.0
 11
-107.59553877932922
 21
208.66323678428216
 31
0.0
  0
LINE
  5
125
330
17
100
AcDbEntity
  8
FP-Hatch
100
AcDbLine
 10
-106.09553877932922
 20
208.85073678428216
 30
0.0
 11
-107.59553877932922
 21
208.85073678428216
 31
0.0
  0
LINE
  5
126
330
17
100
AcDbEntity
  8
FP-Hatch
100
AcDbLine
 10
-103.84718523786432
 20
211.6707873135665
 30
0.0
 11
-107.59553877932922
 21
211.6707873135665
 31
0.0
  0
LINE
  5
127
330
17
100
AcDbEntity
  8
FP-Hatch
100
AcDbLine
 10
-103.84718523786432
 20
211.8582873135665
 30
0.0
 11
-107.59553877932922
 21
211.8582873135665
 31
0.0
  0
LINE
  5
128
330
17
100
AcDbEntity
  8
FP-Hatch
100
AcDbLine
 10
-103.89533811391448
 20
212.2332873135665
 30
0.0
 11
-107.59553877932922
 21
212.2332873135665
 31
0.0
  0
LINE
  5
129
330
17
100
AcDbEntity
  8
FP-Hatch
100
AcDbLine
 10
-100.95868130598683
 20
224.33254221099742
 30
0.0
 11
-107.59553877932922
 21
224.33254221099742
 31
0.0
  0
LINE
  5
12A
330
17
100
AcDbEntity
  8
FP-Hatch
100
AcDbLine
 10
-106.09553877932922
 20
233.89504221099742
 30
0.0
 11
-107.59553877932922
 21
233.89504221099742
 31
0.0
  0
LINE
  5
12B
330
17
100
AcDbEntity
  8
FP-Hatch
100
AcDbLine
 10
-104.47835127932922
 20
210.96011178428216
 30
0.0
 11
-107.59553877932194
 21
210.96011178428216
 31
0.0
  0
LINE
  5
12C
330
17
100
AcDbEntity
  8
FP-Hatch
100
AcDbLine
 10
-103.64162044351906
 20
211.05386178428216
 30
0.0
 11
-107.59553877932194
 21
211.05386178428216
 31
0.0
  0
LINE
  5
12D
330
17
100
AcDbEntity
  8
FP-Hatch
100
AcDbLine
 10
-103.45412044351906
 20
211.14084559367438
 30
0.0
 11
-107.59553877932194
 21
211.14084559367438
 31
0.0
  0
LINE
  5
12E
330
17
100
AcDbEntity
  8
FP-Hatch
100
AcDbLine
 10
-100.6205387793234
 20
224.52004221099742
 30
0.0
 11
-107.59553877932194
 21
224.52004221099742
 31
0.0
  0
LINE
  5
12F
330
17
100
AcDbEntity
  8
FP-Hatch
100
AcDbLine
 10
-100.47053877932194
 20
225.45754221099742
 30
0.0
 11
-107.59553877932194
 21
225.45754221099742
 31
0.0
  0
LINE
  5
130
330
17
100
AcDbEntity
  8
FP-Hatch
100
AcDbLine
 10
-100.28303877932194
 20
225.64504221099742
 30
0.0
 11
-107.59553877932194
 21
225.64504221099742
 31
0.0
  0
LINE
  5
131
330
17
100
AcDbEntity
  8
FP-Hatch
100
AcDbLine
 10
-99.53303877932194
 20
225.8190098297846
 30
0.0
 11
-107.59553877932194
 21
225.8190098297846
 31
0.0
  0
LINE
  5
132
330
17
100
AcDbEntity
  8
FP-Hatch
100
AcDbLine
 10
-100.47053877932194
 20
226.77004221099742
 30
0.0
 11
-107.59553877932194
 21
226.77004221099742
 31
0.0
  0
LINE
  5
133
330
17
100
AcDbEntity
  8
FP-Hatch
100
AcDbLine
 10
-100.47053877932194
 20
227.14504221099742
 30
0.0
 11
-107.59553877932194
 21
227.14504221099742
 31
0.0
  0
LINE
  5
134
330
17
100
AcDbEntity
  8
FP-Hatch
100
AcDbLine
 10
-106.09553877932194
 20
232.39504221099742
 30
0.0
 11
-107.59553877932194
 21
232.39504221099742
 31
0.0
  0
LINE
  5
135
330
17
100
AcDbEntity
  8
FP-Hatch
100
AcDbLine
 10
-106.28303877932194
 20
232.58254221099742
 30
0.0
 11
-107.59553877932194
 21
232.58254221099742
 31
0.0
  0
LINE
  5
136
330
17
100
AcDbEntity
  8
FP-Hatch
100
AcDbLine
 10
-106.09553877932922
 20
233.70754221099742
 30
0.0
 11
-107.59553877932194
 21
233.70754221099742
 31
0.0
  0
LINE
  5
137
330
17
100
AcDbEntity
  8
FP-Hatch
100
AcDbLine
 10
-107.03303877932922
 20
234.84607459221297
 30
0.0
 11
-107.59553877932194
 21
234.84607459221297
 31
0.0
  0
LINE
  5
138
330
17
100
AcDbEntity
  8
FP-Hatch
100
AcDbLine
 10
-107.12678877932922
 20
235.03357459221297
 30
0.0
 11
-107.59553877932194
 21
235.03357459221297
 31
0.0
  0
LINE
  5
139
330
17
100
AcDbEntity
  8
FP-Hatch
100
AcDbLine
 10
-106.99352216500847
 20
235.59607459221297
 30
0.0
 11
-107.59553877932194
 21
235.59607459221297
 31
0.0
  0
LINE
  5
13A
330
17
100
AcDbEntity
  8
FP-Hatch
100
AcDbLine
 10
-107.59553877932194
 20
235.78357459221297
 30
0.0
 11
-107.01428877932631
 21
235.78357459221297
 31
0.0
  0
LINE
  5
13B
330
17
100
AcDbEntity
  8
FP-Hatch
100
AcDbLine
 10
-101.04057626124995
 20
223.95754221099742
 30
0.0
 11
-107.40803877932922
 21
223.95754221099742
 31
0.0
  0
LWPOLYLINE
  5
13C
330
17
100
AcDbEntity
  8
FP-Hatch
100
AcDbPolyline
 90
2
 70
0
 38
-0.07616669536480747
 10
-107.40432174976013
 20
222.45803407710378
 10
-107.40432174976013
 20
224.33303407710378
  0
LINE
  5
13D
330
17
100
AcDbEntity
  8
FP-Hatch
100
AcDbLine
 10
-100.96183590983856
 20
223.95803407710378
 30
-0.07616669536480747
 11
-107.40432174976013
 21
223.95803407710378
 31
-0.07616669536480747
  0
LINE
  5
13E
330
17
100
AcDbEntity
  8
FP-Hatch
100
AcDbLine
 10
-107.22053877932922
 20
212.2332873135665
 30
0.0
 11
-107.22053877932922
 21
223.95754221099742
 31
0.0
  0
LINE
  5
13F
330
17
100
AcDbEntity
  8
FP-Hatch
100
AcDbLine
 10
-107.21682174976013
 20
212.23377917967287
 30
-0.07616669536480747
 11
-107.21682174976013
 21
223.95803407710378
 31
-0.07616669536480747
  0
LINE
  5
140
330
17
100
AcDbEntity
  8
FP-Hatch
100
AcDbLine
 10
-107.14553877932849
 20
212.2332873135665
 30
0.0
 11
-107.14553877932849
 21
223.95754221099742
 31
0.0
  0
LINE
  5
141
330
17
100
AcDbEntity
  8
FP-Hatch
100
AcDbLine
 10
-101.23012023243791
 20
223.88254221099714
 30
0.0
 11
-107.14553877932849
 21
223.8825422109985
 31
0.0
  0
LINE
  5
142
330
17
100
AcDbEntity
  8
FP-Hatch
100
AcDbLine
 10
-104.06736286825617
 20
212.30828731356542
 30
0.0
 11
-107.14553877932485
 21
212.30828731356814
 31
0.0
  0
LINE
  5
143
330
17
100
AcDbEntity
  8
FP-Hatch
100
AcDbLine
 10
-107.1418217497594
 20
212.23377917967287
 30
-0.07616669536480747
 11
-107.1418217497594
 21
223.95803407710378
 31
-0.07616669536480747
  0
LINE
  5
144
330
17
100
AcDbEntity
  8
FP-Hatch
100
AcDbLine
 10
-101.22640320286882
 20
223.88303407710487
 30
-0.07616669536480747
 11
-107.1418217497594
 21
223.88303407710487
 31
-0.07616669536480747
  0
LINE
  5
145
330
17
100
AcDbEntity
  8
FP-Hatch
100
AcDbLine
 10
-104.06364583868708
 20
212.30877917967177
 30
-0.07616669536480747
 11
-107.14182174975576
 21
212.30877917967314
 31
-0.07616669536480747
  0
LWPOLYLINE
  5
146
330
17
100
AcDbEntity
  8
FP-Hatch
100
AcDbPolyline
 90
3
 70
0
 10
-107.12678877933286
 20
206.21220440306934
 10
-107.03303877933286
 20
206.30595440306934
 10
-107.03303877933286
 20
206.39970440306934
  0
LWPOLYLINE
  5
147
330
17
100
AcDbEntity
  8
FP-Hatch
100
AcDbPolyline
 90
3
 70
0
 10
-107.12678877932922
 20
235.03357459221297
 10
-107.03303877932922
 20
234.93982459221297
 10
-107.03303877932922
 20
234.84607459221297
  0
LWPOLYLINE
  5
148
330
17
100
AcDbEntity
  8
FP-Hatch
100
AcDbPolyline
 90
3
 70
0
 38
-0.07616669536480747
 10
-107.12307174976377
 20
206.2126962691757
 10
-107.02932174976377
 20
206.3064462691757
 10
-107.02932174976377
 20
206.4001962691757
  0
LWPOLYLINE
  5
149
330
17
100
AcDbEntity
  8
FP-Hatch
100
AcDbPolyline
 90
3
 70
0
 38
-0.07616669536480747
 10
-107.12307174976013
 20
235.03406645831933
 10
-107.02932174976013
 20
234.94031645831933
 10
-107.02932174976013
 20
234.84656645831933
  0
LWPOLYLINE
  5
14A
330
17
100
AcDbEntity
  8
FP-Hatch
100
AcDbPolyline
 90
5
 70
0
 10
-107.01428877933358
 20
204.33720440306934
 10
-106.93928877933286
 20
204.33720440306934
 10
-106.84553877933286
 20
204.43095440306934
 10
-106.84553877933286
 20
204.43095440306934
 10
-106.93928877933286
 20
204.52470440306934
  0
LWPOLYLINE
  5
14B
330
17
100
AcDbEntity
  8
FP-Hatch
100
AcDbPolyline
 90
5
 70
0
 10
-107.01428877932631
 20
235.78357459221297
 10
-106.93928877932922
 20
235.78357459221297
 10
-106.84553877932922
 20
235.68982459221297
 10
-106.84553877932922
 20
235.68982459221297
 10
-106.93928877932922
 20
235.59607459221297
  0
LINE
  5
14C
330
17
100
AcDbEntity
  8
FP-Hatch
100
AcDbLine
 10
-106.99352216501211
 20
204.52470440306934
 30
0.0
 11
-106.93928877933286
 21
204.52470440306934
 31
0.0
  0
LINE
  5
14D
330
17
100
AcDbEntity
  8
FP-Hatch
100
AcDbLine
 10
-106.99352216501211
 20
235.5960745922116
 30
0.0
 11
-106.93928877932922
 21
235.59607459221297
 31
0.0
  0
LWPOLYLINE
  5
14E
330
17
100
AcDbEntity
  8
FP-Hatch
100
AcDbPolyline
 90
2
 70
0
 38
-0.07616669536480747
 10
-106.93557174976377
 20
204.3376962691757
 10
-106.93988444904244
 20
204.52509701997315
  0
LWPOLYLINE
  5
14F
330
17
100
AcDbEntity
  8
FP-Hatch
100
AcDbPolyline
 90
3
 70
0
 10
-106.09553877932922
 20
208.85073678428216
 10
-106.09553877932922
 20
208.66323678428216
 10
-106.28303877932922
 20
208.66323678428216
  0
LWPOLYLINE
  5
150
330
17
100
AcDbEntity
  8
FP-Hatch
100
AcDbPolyline
 90
3
 70
0
 10
-106.09553877932194
 20
232.39504221099742
 10
-106.09553877932194
 20
232.58254221099742
 10
-106.28303877932194
 20
232.58254221099742
  0
LWPOLYLINE
  5
151
330
17
100
AcDbEntity
  8
FP-Hatch
100
AcDbPolyline
 90
2
 70
0
 10
-106.09553877933286
 20
207.35073678428216
 10
-106.09553877933286
 20
207.53823678428216
  0
LINE
  5
152
330
17
100
AcDbEntity
  8
FP-Hatch
100
AcDbLine
 10
-106.028358708023
 20
207.35073678428216
 30
0.0
 11
-106.09553877933286
 21
207.35073678428216
 31
0.0
  0
LWPOLYLINE
  5
153
330
17
100
AcDbEntity
  8
FP-Hatch
100
AcDbPolyline
 90
2
 70
0
 10
-106.09553877932922
 20
233.89504221099742
 10
-106.09553877932922
 20
233.70754221099742
  0
LINE
  5
154
330
17
100
AcDbEntity
  8
FP-Hatch
100
AcDbLine
 10
-106.02835870801937
 20
233.89504221099878
 30
0.0
 11
-106.09553877932922
 21
233.89504221099742
 31
0.0
  0
LWPOLYLINE
  5
155
330
17
100
AcDbEntity
  8
FP-Hatch
100
AcDbPolyline
 90
2
 70
0
 38
-0.07616669536480747
 10
-106.09182174976377
 20
207.35122865038852
 10
-106.09182174976377
 20
207.53872865038852
  0
LWPOLYLINE
  5
156
330
17
100
AcDbEntity
  8
FP-Hatch
100
AcDbPolyline
 90
2
 70
0
 38
-0.07616669536480747
 10
-106.09182174976013
 20
208.85122865038852
 10
-106.09182174976013
 20
208.66372865038852
  0
LWPOLYLINE
  5
157
330
17
100
AcDbEntity
  8
FP-Hatch
100
AcDbPolyline
 90
2
 70
0
 38
-0.07616669536480747
 10
-106.09182174976013
 20
233.89553407710378
 10
-106.09182174976013
 20
233.70803407710378
  0
LWPOLYLINE
  5
158
330
17
100
AcDbEntity
  8
FP-Hatch
100
AcDbPolyline
 90
2
 70
0
 38
-0.07616669536480747
 10
-106.09182174975285
 20
232.39553407710378
 10
-106.09182174975285
 20
232.58303407710378
  0
LINE
  5
159
330
17
100
AcDbEntity
  8
FP-Hatch
100
AcDbLine
 10
-103.73537044351906
 20
210.96011178428216
 30
0.0
 11
-104.47835127932922
 21
210.96011178428216
 31
0.0
  0
LINE
  5
15A
330
17
100
AcDbEntity
  8
FP-Hatch
100
AcDbLine
 10
-103.89533811391448
 20
212.2332873135665
 30
0.0
 11
-103.8278935764938
 21
212.20048130234318
 31
0.0
  0
LINE
  5
15B
330
17
100
AcDbEntity
  8
FP-Hatch
100
AcDbLine
 10
-103.89162108434539
 20
212.23377917967287
 30
-0.07616669536480747
 11
-103.82417654692472
 21
212.20097316844954
 31
-0.07616669536480747
  0
LINE
  5
15C
330
17
100
AcDbEntity
  8
FP-Hatch
100
AcDbLine
 10
-103.84718523786432
 20
211.6707873135665
 30
0.0
 11
-103.84718523786432
 21
211.8582873135665
 31
0.0
  0
LINE
  5
15D
330
17
100
AcDbEntity
  8
FP-Hatch
100
AcDbLine
 10
-103.84346820829523
 20
211.67127917967287
 30
-0.07616669536480747
 11
-103.84346820829523
 21
211.85877917967287
 31
-0.07616669536480747
  0
LINE
  5
15E
330
17
100
AcDbEntity
  8
FP-Hatch
100
AcDbLine
 10
-103.45412044351906
 20
211.05386178428216
 30
0.0
 11
-103.64162044351906
 21
211.05386178428216
 31
0.0
  0
LINE
  5
15F
330
17
100
AcDbEntity
  8
FP-Hatch
100
AcDbLine
 10
-103.45412044351906
 20
211.05386178428216
 30
0.0
 11
-103.45412044351906
 21
211.14084559367575
 31
0.0
  0
LINE
  5
160
330
17
100
AcDbEntity
  8
FP-Hatch
100
AcDbLine
 10
-103.38694037220921
 20
211.14084559367575
 30
0.0
 11
-103.45412044351906
 21
211.14084559367438
 31
0.0
  0
LINE
  5
161
330
17
100
AcDbEntity
  8
FP-Hatch
100
AcDbLine
 10
-103.45040341394997
 20
211.05435365038852
 30
-0.07616669536480747
 11
-103.45040341394997
 21
211.1413374597821
 31
-0.07616669536480747
  0
LWPOLYLINE
  5
162
330
17
100
AcDbEntity
  8
FP-Proposed Wall
100
AcDbPolyline
 90
4
 70
0
 38
24.501592595179027
 10
-100.62898497137212
 20
136.0020751276545
 10
-102.62898497137212
 20
136.0020751276545
 10
-102.62898497137212
 20
142.0020739247318
 10
-100.65160217455195
 20
142.0020739247318
  0
LINE
  5
163
330
17
100
AcDbEntity
  8
FP-Footing
100
AcDbLine
 10
-101.61888479931804
 20
8.001104337928382
 30
0.0
 11
-101.61888479931804
 21
0.0011043379283819377
 31
0.0
  0
LINE
  5
164
330
17
100
AcDbEntity
  8
FP-Hatch
100
AcDbLine
 10
-101.04057626124995
 20
223.95754221099742
 30
0.0
 11
-100.96555293940764
 21
223.95754221099742
 31
0.0
  0
LINE
  5
165
330
17
100
AcDbEntity
  8
FP-Hatch
100
AcDbLine
 10
-100.95868130598683
 20
224.33254221099742
 30
0.0
 11
-100.8080387793234
 21
224.33254221099742
 31
0.0
  0
LINE
  5
166
330
17
100
AcDbEntity
  8
FP-Proposed Wall
100
AcDbLine
 10
89.44118350238568
 20
142.0020739247318
 30
24.501592595179027
 11
-100.65160217455195
 21
142.0020739247318
 31
49.00318433665029
  0
LWPOLYLINE
  5
167
330
17
100
AcDbEntity
  8
FP-Proposed Wall
100
AcDbPolyline
 90
2
 70
0
 38
24.501592595179027
 10
-100.62898497137212
 20
136.0020751276545
 10
-100.628984130366
 20
134.50207381079554
  0
LINE
  5
168
330
17
100
AcDbEntity
  8
FP-Proposed Wall
 62
1
100
AcDbLine
 10
87.44118350232384
 20
136.00196291969723
 30
24.501592595179027
 11
-100.62898497137212
 21
136.0020751276545
 31
24.50159259517898
  0
LINE
  5
169
330
17
100
AcDbEntity
  8
FP-Proposed Wall
100
AcDbLine
 10
87.44118266172154
 20
134.50268161646864
 30
24.501592595179027
 11
-100.628984130366
 21
134.50207381079554
 31
24.50159259517898
  0
LINE
  5
16A
330
17
100
AcDbEntity
  8
FP-Hatch
100
AcDbLine
 10
-100.47053877932922
 20
224.52004221099742
 30
0.0
 11
-100.6205387793234
 21
224.52004221099742
 31
0.0
  0
LINE
  5
16B
330
17
100
AcDbEntity
  8
FP-Hatch
100
AcDbLine
 10
-100.47053877932194
 20
226.77004221099742
 30
0.0
 11
-100.47053877932194
 21
227.14504221099742
 31
0.0
  0
LINE
  5
16C
330
17
100
AcDbEntity
  8
FP-Hatch
100
AcDbLine
 10
-100.46682174975285
 20
226.77053407710378
 30
-0.07616669536480747
 11
-100.46682174975285
 21
227.14553407710378
 31
-0.07616669536480747
  0
LINE
  5
16D
330
17
100
AcDbEntity
  8
FP-Hatch
100
AcDbLine
 10
-99.53303877932194
 20
225.64504221099742
 30
0.0
 11
-100.28303877932194
 21
225.64504221099742
 31
0.0
  0
LINE
  5
16E
330
17
100
AcDbEntity
  8
FP-Hatch
100
AcDbLine
 10
-99.53303877932194
 20
225.64504221099742
 30
0.0
 11
-99.53303877932194
 21
225.8190098297846
 31
0.0
  0
LINE
  5
16F
330
17
100
AcDbEntity
  8
FP-Hatch
100
AcDbLine
 10
-99.46585870801209
 20
225.8190098297846
 30
0.0
 11
-99.53303877932194
 21
225.8190098297846
 31
0.0
  0
LINE
  5
170
330
17
100
AcDbEntity
  8
FP-Hatch
100
AcDbLine
 10
-99.52932174975285
 20
225.64553407710378
 30
-0.07616669536480747
 11
-99.52932174975285
 21
225.81950169589095
 31
-0.07616669536480747
  0
LINE
  5
171
330
17
100
AcDbEntity
  8
FP-Proposed Wall
100
AcDbLine
 10
-96.6163368075213
 20
274.00116746468643
 30
0.0
 11
-96.6181633628621
 21
290.0022614988427
 31
0.0
  0
LWPOLYLINE
  5
172
330
17
100
AcDbEntity
  8
FP-Stair
100
AcDbPolyline
 90
4
 70
0
 10
-96.6163368075213
 20
148.00116746468643
 10
-96.6163368075213
 20
274.00116746468643
 10
83.38370046025739
 20
274.00116746468643
 10
83.38291783949171
 20
148.00119515571077
  0
LINE
  5
173
330
17
100
AcDbEntity
  8
FP-Proposed Wall
100
AcDbLine
 10
-95.86638166131888
 20
290.00230187277134
 30
0.0
 11
-95.86638278266037
 21
291.00230187277134
 31
0.0
  0
LINE
  5
174
330
17
100
AcDbEntity
  8
FP-Footing
100
AcDbLine
 10
-95.61888479931804
 20
119.5011043379302
 30
0.0
 11
-95.61888479931804
 21
8.001104337928382
 31
0.0
  0
LWPOLYLINE
  5
175
330
17
100
AcDbEntity
  8
EL-Trim
 62
8
100
AcDbPolyline
 90
4
 70
1
 10
-94.6181633628621
 20
288.0022614988427
 10
81.3836631924787
 20
288.0022614988427
 10
81.3836631924787
 20
276.00116746468643
 10
-94.6181633628621
 20
276.00116746468643
  0
LWPOLYLINE
  5
176
330
17
100
AcDbEntity
  8
FP-Hatch
100
AcDbPolyline
 90
4
 70
0
 10
-94.6163368075213
 20
148.00116746468643
 10
-94.6163368075213
 20
272.00116746468643
 10
81.38368803766207
 20
272.00116746468643
 10
81.38291783953173
 20
148.0012075782654
  0
LWPOLYLINE
  5
177
330
17
100
AcDbEntity
  8
EL-Trim
 62
8
100
AcDbPolyline
 90
4
 70
1
 10
-93.6181633628621
 20
287.0022614988427
 10
80.3836631924787
 20
287.0022614988427
 10
80.3836631924787
 20
277.00116746468643
 10
-93.6181633628621
 20
277.00116746468643
  0
LWPOLYLINE
  5
178
330
17
100
AcDbEntity
  8
FP-Hatch
100
AcDbPolyline
 90
4
 70
0
 10
-93.6163368075213
 20
148.00116746468643
 10
-93.6163368075213
 20
271.00116746468643
 10
80.38368182636623
 20
271.00116746468643
 10
80.38291783954992
 20
148.0012137895426
  0
LWPOLYLINE
  5
179
330
17
100
AcDbEntity
  8
FP-Proposed Wall
 62
1
100
AcDbPolyline
 90
3
 70
0
 10
77.39257170046767
 20
148.00116756948637
 10
-90.61811850911545
 20
148.00116744500042
 10
-90.61811850911909
 20
268.0011674232089
  0
LWPOLYLINE
  5
17A
330
17
100
AcDbEntity
  8
FP-Proposed Wall
 62
1
100
AcDbPolyline
 90
3
 70
0
 10
-90.6163368075213
 20
268.00116746468643
 10
77.3836631924787
 20
268.00116746468643
 10
77.38291783960813
 20
148.0012324233744
  0
LWPOLYLINE
  5
17B
330
17
100
AcDbEntity
  8
FP-Hatch
100
AcDbPolyline
 90
2
 70
0
 10
-64.11633680753584
 20
266.50116744498473
 10
-89.11811850912636
 20
266.5011674450004
  0
LWPOLYLINE
  5
17C
330
17
100
AcDbEntity
  8
FP-Hatch
100
AcDbPolyline
 90
4
 70
0
 10
-64.1163368075213
 20
266.5011674449938
 10
-64.1163368075213
 20
149.50116744505203
 10
-89.11811850911545
 20
149.50116744500224
 10
-89.11811850911909
 20
266.5011674450004
  0
LWPOLYLINE
  5
17D
330
17
100
AcDbEntity
  8
FP-Hatch
100
AcDbPolyline
 90
4
 70
0
 10
-65.11633796250317
 20
265.5011674646869
 10
-65.11633796250317
 20
150.50116745461378
 10
-88.11811735412994
 20
150.50116745457444
 10
-88.11811735413357
 20
265.501167464693
  0
LWPOLYLINE
  5
17E
330
17
100
AcDbEntity
  8
FP-Hatch
100
AcDbPolyline
 90
2
 70
0
 10
-65.11633796250317
 20
265.5011674646928
 10
-88.11811735413357
 20
265.5011674646935
  0
LWPOLYLINE
  5
17F
330
17
100
AcDbEntity
  8
FP-Hatch
100
AcDbPolyline
 90
2
 70
0
 10
-62.616336807517655
 20
148.00116744500042
 10
-62.61633680752129
 20
268.0011674232089
  0
LWPOLYLINE
  5
180
330
17
100
AcDbEntity
  8
FP-Hatch
100
AcDbPolyline
 90
2
 70
0
 10
-36.11455510593805
 20
266.50116744498473
 10
-61.11633680752857
 20
266.5011674450004
  0
LWPOLYLINE
  5
181
330
17
100
AcDbEntity
  8
FP-Hatch
100
AcDbPolyline
 90
4
 70
0
 10
-36.1145551059235
 20
266.5011674449938
 10
-36.1145551059235
 20
149.50116744505203
 10
-61.116336807517655
 20
149.50116744500224
 10
-61.11633680752129
 20
266.5011674450004
  0
LWPOLYLINE
  5
182
330
17
100
AcDbEntity
  8
FP-Hatch
100
AcDbPolyline
 90
4
 70
0
 10
-37.11633796250317
 20
265.5011674646878
 10
-37.11633796250317
 20
150.5011674546147
 10
-60.118117354129936
 20
150.50116745457535
 10
-60.118117354133574
 20
265.50116746469394
  0
LWPOLYLINE
  5
183
330
17
100
AcDbEntity
  8
FP-Hatch
100
AcDbPolyline
 90
2
 70
0
 10
-37.11633796250317
 20
265.5011674646937
 10
-60.118117354133574
 20
265.5011674646944
  0
LWPOLYLINE
  5
184
330
17
100
AcDbEntity
  8
FP-Hatch
100
AcDbPolyline
 90
2
 70
0
 10
-34.61455510591986
 20
148.00116744500042
 10
-34.6145551059235
 20
268.0011674232089
  0
LWPOLYLINE
  5
185
330
17
100
AcDbEntity
  8
FP-Hatch
100
AcDbPolyline
 90
2
 70
0
 10
-8.11277340434026
 20
266.50116744498473
 10
-33.114555105930776
 20
266.5011674450004
  0
LWPOLYLINE
  5
186
330
17
100
AcDbEntity
  8
FP-Hatch
100
AcDbPolyline
 90
4
 70
0
 10
-8.112773404325708
 20
266.5011674449938
 10
-8.112773404325708
 20
149.50116744505203
 10
-33.11455510591986
 20
149.50116744500224
 10
-33.1145551059235
 20
266.5011674450004
  0
LWPOLYLINE
  5
187
330
17
100
AcDbEntity
  8
FP-Hatch
100
AcDbPolyline
 90
4
 70
0
 10
-9.114556260905374
 20
265.5011674646885
 10
-9.114556260905374
 20
150.50116745461537
 10
-32.11633565253214
 20
150.50116745457603
 10
-32.11633565253578
 20
265.5011674646946
  0
LWPOLYLINE
  5
188
330
17
100
AcDbEntity
  8
FP-Hatch
100
AcDbPolyline
 90
2
 70
0
 10
-9.114556260905374
 20
265.5011674646944
 10
-32.11633565253578
 20
265.5011674646951
  0
LWPOLYLINE
  5
189
330
17
100
AcDbEntity
  8
FP-Proposed Wall
100
AcDbPolyline
 90
4
 70
0
 10
173.42587949002336
 20
143.00204221036415
 10
173.88584111961245
 20
143.0020427261386
 10
173.88583551289412
 20
148.00204272613678
 10
-9.247357562257093
 20
148.0017781160925
  0
LINE
  5
18A
330
17
100
AcDbEntity
  8
FP-Hatch
100
AcDbLine
 10
-7.2482484130741796
 20
143.0023963772244
 30
0.0
 11
173.42587949002336
 21
143.00204221036415
 31
0.0
  0
LWPOLYLINE
  5
18B
330
17
100
AcDbEntity
  8
FP-Hatch
100
AcDbPolyline
 90
2
 70
0
 10
-6.61277340432207
 20
148.00116748647793
 10
-6.612773404325708
 20
268.00116746468643
  0
LWPOLYLINE
  5
18C
330
17
100
AcDbEntity
  8
FP-Hatch
100
AcDbPolyline
 90
2
 70
0
 10
19.889008297257533
 20
266.50116748646224
 10
-5.112773404332984
 20
266.5011674864779
  0
LWPOLYLINE
  5
18D
330
17
100
AcDbEntity
  8
FP-Hatch
100
AcDbPolyline
 90
4
 70
0
 10
19.889008297272085
 20
266.50116748647133
 10
19.889008297272085
 20
149.50116748652954
 10
-5.11277340432207
 20
149.50116748647974
 10
-5.112773404325708
 20
266.5011674864779
  0
LWPOLYLINE
  5
18E
330
17
100
AcDbEntity
  8
FP-Hatch
100
AcDbPolyline
 90
4
 70
0
 10
18.88722544069242
 20
265.5011674646869
 10
18.88722544069242
 20
150.50116745461378
 10
-4.114553950934351
 20
150.50116745457444
 10
-4.114553950937989
 20
265.501167464693
  0
LWPOLYLINE
  5
18F
330
17
100
AcDbEntity
  8
FP-Hatch
100
AcDbPolyline
 90
2
 70
0
 10
18.88722544069242
 20
265.5011674646928
 10
-4.114553950937989
 20
265.5011674646935
  0
LWPOLYLINE
  5
190
330
17
100
AcDbEntity
  8
FP-Hatch
100
AcDbPolyline
 90
2
 70
0
 10
21.389008297272085
 20
268.00116748647133
 10
21.389008297272085
 20
148.00116748653136
  0
LWPOLYLINE
  5
191
330
17
100
AcDbEntity
  8
FP-Hatch
100
AcDbPolyline
 90
2
 70
0
 10
47.890789998855325
 20
266.50116752793974
 10
22.88900829726481
 20
266.50116752795543
  0
LWPOLYLINE
  5
192
330
17
100
AcDbEntity
  8
FP-Hatch
100
AcDbPolyline
 90
4
 70
0
 10
47.89078999886988
 20
266.50116752794884
 10
47.89078999886988
 20
149.50116752800704
 10
22.889008297275723
 20
149.50116752795725
 10
22.889008297272085
 20
266.50116752795543
  0
LWPOLYLINE
  5
193
330
17
100
AcDbEntity
  8
FP-Hatch
100
AcDbPolyline
 90
4
 70
0
 10
46.88900714229021
 20
265.5011674864718
 10
46.88900714229021
 20
150.50116747639868
 10
23.887227750663442
 20
150.50116747635934
 10
23.887227750659804
 20
265.5011674864779
  0
LWPOLYLINE
  5
194
330
17
100
AcDbEntity
  8
FP-Hatch
100
AcDbPolyline
 90
2
 70
0
 10
46.88900714229021
 20
265.5011674864777
 10
23.887227750659804
 20
265.5011674864784
  0
LWPOLYLINE
  5
195
330
17
100
AcDbEntity
  8
FP-Hatch
100
AcDbPolyline
 90
2
 70
0
 10
49.39078999886988
 20
268.00116752794884
 10
49.39078999886988
 20
148.00116752800886
  0
LWPOLYLINE
  5
196
330
17
100
AcDbEntity
  8
FP-Hatch
100
AcDbPolyline
 90
2
 70
0
 10
75.89257170045312
 20
266.50116756941725
 10
50.8907899988626
 20
266.50116756943294
  0
LWPOLYLINE
  5
197
330
17
100
AcDbEntity
  8
FP-Hatch
100
AcDbPolyline
 90
4
 70
0
 10
75.89257170046767
 20
266.50116756942634
 10
75.89257170046767
 20
149.50116756948455
 10
50.890789998873515
 20
149.50116756943476
 10
50.89078999886988
 20
266.50116756943294
  0
LWPOLYLINE
  5
198
330
17
100
AcDbEntity
  8
FP-Hatch
100
AcDbPolyline
 90
4
 70
0
 10
74.890788843888
 20
265.5011674646869
 10
74.890788843888
 20
150.50116745461378
 10
51.889009452261234
 20
150.50116745457444
 10
51.889009452257596
 20
265.501167464693
  0
LWPOLYLINE
  5
199
330
17
100
AcDbEntity
  8
FP-Hatch
100
AcDbPolyline
 90
2
 70
0
 10
74.890788843888
 20
265.5011674646928
 10
51.889009452257596
 20
265.5011674646935
  0
LINE
  5
19A
330
17
100
AcDbEntity
  8
FP-Footing
100
AcDbLine
 10
82.38548397056366
 20
119.5016571551696
 30
0.0
 11
82.38548397056366
 21
8.001657155167777
 31
0.0
  0
LINE
  5
19B
330
17
100
AcDbEntity
  8
FP-Proposed Wall
100
AcDbLine
 10
82.6337080462763
 20
290.00230187277134
 30
0.0
 11
82.63370916761778
 21
291.00230187277134
 31
0.0
  0
LINE
  5
19C
330
17
100
AcDbEntity
  8
FP-Proposed Wall
 62
1
100
AcDbLine
 10
83.38353897392153
 20
248.0022739996091
 30
0.0
 11
107.28567099390784
 21
248.00227399960954
 31
0.0
  0
LINE
  5
19D
330
17
100
AcDbEntity
  8
FP-Hatch
100
AcDbLine
 10
83.3835451799423
 20
249.0014276641475
 30
0.0
 11
107.28567099390784
 21
249.00142766414683
 31
0.0
  0
LINE
  5
19E
330
17
100
AcDbEntity
  8
FP-Hatch
100
AcDbLine
 10
83.38354673275899
 20
249.2514276641641
 30
0.0
 11
107.28567099391148
 21
249.2514276641648
 31
0.0
  0
LINE
  5
19F
330
17
100
AcDbEntity
  8
FP-Stair
100
AcDbLine
 10
83.38355139647683
 20
250.0022739996125
 30
0.0
 11
107.28567099390784
 21
250.00227399961182
 31
0.0
  0
LINE
  5
1A0
330
17
100
AcDbEntity
  8
FP-Proposed Wall
100
AcDbLine
 10
83.3836631924787
 20
274.00116746468643
 30
0.0
 11
83.38548974781952
 21
290.0022614988427
 31
0.0
  0
LINE
  5
1A1
330
17
100
AcDbEntity
  8
FP-Hatch
100
AcDbLine
 10
86.29520669631529
 20
225.81950169589095
 30
-0.07616669536480747
 11
102.5545668389459
 21
225.81950169589095
 31
-0.07616669536480747
  0
LINE
  5
1A2
330
17
100
AcDbEntity
  8
FP-Hatch
100
AcDbLine
 10
86.30051226088472
 20
225.81511430506998
 30
0.0
 11
86.36769233219457
 21
225.81511430506998
 31
0.0
  0
LINE
  5
1A3
330
17
100
AcDbEntity
  8
FP-Hatch
100
AcDbLine
 10
86.36238676762514
 20
225.64553407710378
 30
-0.07616669536480747
 11
102.48738676763605
 21
225.64553407710378
 31
-0.07616669536480747
  0
LINE
  5
1A4
330
17
100
AcDbEntity
  8
FP-Hatch
100
AcDbLine
 10
86.36238676762514
 20
225.64553407710378
 30
-0.07616669536480747
 11
86.36238676762514
 21
225.81950169589095
 31
-0.07616669536480747
  0
LINE
  5
1A5
330
17
100
AcDbEntity
  8
FP-Hatch
100
AcDbLine
 10
86.36769233219457
 20
225.6411466862828
 30
0.0
 11
87.11769233219457
 21
225.6411466862828
 31
0.0
  0
LINE
  5
1A6
330
17
100
AcDbEntity
  8
FP-Hatch
100
AcDbLine
 10
86.36769233219457
 20
225.6411466862828
 30
0.0
 11
86.36769233219457
 21
225.81511430506998
 31
0.0
  0
LINE
  5
1A7
330
17
100
AcDbEntity
  8
FP-Hatch
100
AcDbLine
 10
86.36769233219457
 20
225.81511430506998
 30
0.0
 11
94.43019233219457
 21
225.81511430506998
 31
0.0
  0
LINE
  5
1A8
330
17
100
AcDbEntity
  8
FP-Hatch
100
AcDbLine
 10
87.11769233219457
 20
225.6411466862828
 30
0.0
 11
94.43019233219457
 21
225.6411466862828
 31
0.0
  0
LINE
  5
1A9
330
17
100
AcDbEntity
  8
FP-Hatch
100
AcDbLine
 10
87.29988676762514
 20
225.45803407710378
 30
-0.07616669536480747
 11
101.54988676763605
 21
225.45803407710378
 31
-0.07616669536480747
  0
LINE
  5
1AA
330
17
100
AcDbEntity
  8
FP-Hatch
100
AcDbLine
 10
87.29988676762514
 20
226.77053407710378
 30
-0.07616669536480747
 11
101.54988676763605
 21
226.77053407710378
 31
-0.07616669536480747
  0
LINE
  5
1AB
330
17
100
AcDbEntity
  8
FP-Hatch
100
AcDbLine
 10
87.29988676762514
 20
226.77053407710378
 30
-0.07616669536480747
 11
87.29988676762514
 21
227.14553407710378
 31
-0.07616669536480747
  0
LINE
  5
1AC
330
17
100
AcDbEntity
  8
FP-Hatch
100
AcDbLine
 10
87.29988676762514
 20
227.14553407710378
 30
-0.07616669536480747
 11
101.54988676763605
 21
227.14553407710378
 31
-0.07616669536480747
  0
LINE
  5
1AD
330
17
100
AcDbEntity
  8
FP-Hatch
100
AcDbLine
 10
87.29988676762878
 20
224.52053407710378
 30
-0.07616669536480747
 11
101.54988676762878
 21
224.52053407710378
 31
-0.07616669536480747
  0
LINE
  5
1AE
330
17
100
AcDbEntity
  8
FP-Hatch
100
AcDbLine
 10
87.30519233219457
 20
225.4536466862828
 30
0.0
 11
94.43019233219457
 21
225.4536466862828
 31
0.0
  0
LINE
  5
1AF
330
17
100
AcDbEntity
  8
FP-Hatch
100
AcDbLine
 10
87.30519233219457
 20
226.7661466862828
 30
0.0
 11
94.43019233219457
 21
226.7661466862828
 31
0.0
  0
LINE
  5
1B0
330
17
100
AcDbEntity
  8
FP-Hatch
100
AcDbLine
 10
87.30519233219457
 20
226.7661466862828
 30
0.0
 11
87.30519233219457
 21
227.1411466862828
 31
0.0
  0
LINE
  5
1B1
330
17
100
AcDbEntity
  8
FP-Hatch
100
AcDbLine
 10
87.30519233219457
 20
227.1411466862828
 30
0.0
 11
94.43019233219457
 21
227.1411466862828
 31
0.0
  0
LINE
  5
1B2
330
17
100
AcDbEntity
  8
FP-Hatch
100
AcDbLine
 10
87.3051923321982
 20
224.5161466862828
 30
0.0
 11
87.45519233219966
 21
224.5161466862828
 31
0.0
  0
LWPOLYLINE
  5
1B3
330
17
100
AcDbEntity
  8
FP-Proposed Wall
100
AcDbPolyline
 90
2
 70
0
 38
24.501592595179027
 10
87.44118350238568
 20
136.0020751276545
 10
87.44118266137957
 20
134.50207381079554
  0
LWPOLYLINE
  5
1B4
330
17
100
AcDbEntity
  8
FP-Proposed Wall
100
AcDbPolyline
 90
4
 70
0
 38
24.501592595179027
 10
87.44118350238568
 20
136.0020751276545
 10
89.44118350238568
 20
136.0020751276545
 10
89.44118350238568
 20
142.0020739247318
 10
87.46380070556552
 20
142.0020739247318
  0
LWPOLYLINE
  5
1B5
330
17
100
AcDbEntity
  8
FP-Proposed Wall
100
AcDbPolyline
 90
4
 70
0
 38
24.501592026040623
 10
99.41857891431937
 20
128.50207501371756
 10
101.41857891431937
 20
128.50207501371756
 10
101.41857891431937
 20
134.50207381079485
 10
87.4411961174992
 20
134.50207381079485
  0
LINE
  5
1B6
330
17
100
AcDbEntity
  8
FP-Hatch
100
AcDbLine
 10
87.45519233219966
 20
224.5161466862828
 30
0.0
 11
94.43019233219457
 21
224.5161466862828
 31
0.0
  0
LINE
  5
1B7
330
17
100
AcDbEntity
  8
FP-Hatch
100
AcDbLine
 10
101.2123867676346
 20
224.33303407710378
 30
-0.07616669536480747
 11
87.63738676763023
 21
224.33303407710378
 31
-0.07616669536480747
  0
LINE
  5
1B8
330
17
100
AcDbEntity
  8
FP-Hatch
100
AcDbLine
 10
87.79333485885581
 20
224.3286466862828
 30
0.0
 11
87.64269233219966
 21
224.3286466862828
 31
0.0
  0
LINE
  5
1B9
330
17
100
AcDbEntity
  8
FP-Hatch
100
AcDbLine
 10
87.79333485885581
 20
224.3286466862828
 30
0.0
 11
94.4301923321982
 21
224.3286466862828
 31
0.0
  0
LINE
  5
1BA
330
17
100
AcDbEntity
  8
FP-Hatch
100
AcDbLine
 10
94.23738676762878
 20
223.95803407710378
 30
-0.07616669536480747
 11
87.79490092771448
 21
223.95803407710378
 31
-0.07616669536480747
  0
LINE
  5
1BB
330
17
100
AcDbEntity
  8
FP-Hatch
100
AcDbLine
 10
87.87522981412621
 20
223.9536466862828
 30
0.0
 11
87.8002064922839
 21
223.9536466862828
 31
0.0
  0
LINE
  5
1BC
330
17
100
AcDbEntity
  8
FP-Hatch
100
AcDbLine
 10
87.87522981412621
 20
223.9536466862828
 30
0.0
 11
94.2426923321982
 21
223.9536466862828
 31
0.0
  0
LINE
  5
1BD
330
17
100
AcDbEntity
  8
FP-Hatch
100
AcDbLine
 10
88.05946822074111
 20
223.8830340771035
 30
-0.07616669536480747
 11
93.97488676763169
 21
223.88303407710487
 31
-0.07616669536480747
  0
LINE
  5
1BE
330
17
100
AcDbEntity
  8
FP-Hatch
100
AcDbLine
 10
88.06477378531054
 20
223.8786466862839
 30
0.0
 11
93.98019233220111
 21
223.8786466862839
 31
0.0
  0
LINE
  5
1BF
330
17
100
AcDbEntity
  8
FP-Footing
100
AcDbLine
 10
88.38548397056366
 20
8.001657155167777
 30
0.0
 11
88.38548397056366
 21
0.0016571551677770913
 31
0.0
  0
LINE
  5
1C0
330
17
100
AcDbEntity
  8
FP-Stair
100
AcDbLine
 10
89.44118350238568
 20
141.00219388994856
 30
0.0
 11
172.3876250639005
 21
141.0020410461218
 31
0.0
  0
LINE
  5
1C1
330
17
100
AcDbEntity
  8
FP-Hatch
100
AcDbLine
 10
90.22159392508183
 20
211.13695006896114
 30
0.0
 11
90.28877399639168
 21
211.13695006895978
 31
0.0
  0
LINE
  5
1C2
330
17
100
AcDbEntity
  8
FP-Hatch
100
AcDbLine
 10
90.28346843182226
 20
211.05435365038852
 30
-0.07616669536480747
 11
98.56630510343894
 21
211.05435365038852
 31
-0.07616669536480747
  0
LINE
  5
1C3
330
17
100
AcDbEntity
  8
FP-Hatch
100
AcDbLine
 10
90.28346843182226
 20
211.05435365038852
 30
-0.07616669536480747
 11
90.28346843182226
 21
211.1413374597821
 31
-0.07616669536480747
  0
LINE
  5
1C4
330
17
100
AcDbEntity
  8
FP-Hatch
100
AcDbLine
 10
90.28346843182226
 20
211.14133745978074
 30
-0.07616669536480747
 11
98.63348517474878
 21
211.1413374597821
 31
-0.07616669536480747
  0
LINE
  5
1C5
330
17
100
AcDbEntity
  8
FP-Hatch
100
AcDbLine
 10
90.28877399639168
 20
211.04996625956755
 30
0.0
 11
90.47627399639168
 21
211.04996625956755
 31
0.0
  0
LINE
  5
1C6
330
17
100
AcDbEntity
  8
FP-Hatch
100
AcDbLine
 10
90.28877399639168
 20
211.04996625956755
 30
0.0
 11
90.28877399639168
 21
211.13695006896114
 31
0.0
  0
LINE
  5
1C7
330
17
100
AcDbEntity
  8
FP-Hatch
100
AcDbLine
 10
90.28877399639168
 20
211.13695006895978
 30
0.0
 11
94.43019233219457
 21
211.13695006895978
 31
0.0
  0
LINE
  5
1C8
330
17
100
AcDbEntity
  8
FP-Hatch
100
AcDbLine
 10
90.47627399639168
 20
211.04996625956755
 30
0.0
 11
94.43019233219457
 21
211.04996625956755
 31
0.0
  0
LINE
  5
1C9
330
17
100
AcDbEntity
  8
FP-Hatch
100
AcDbLine
 10
90.56471843182226
 20
210.96060365038852
 30
-0.07616669536480747
 11
98.28505510343894
 21
210.96060365038852
 31
-0.07616669536480747
  0
LINE
  5
1CA
330
17
100
AcDbEntity
  8
FP-Hatch
100
AcDbLine
 10
90.57002399639168
 20
210.95621625956755
 30
0.0
 11
91.3130048321982
 21
210.95621625956755
 31
0.0
  0
LINE
  5
1CB
330
17
100
AcDbEntity
  8
FP-Hatch
100
AcDbLine
 10
90.72468610221404
 20
212.23377917967287
 30
-0.07616669536480747
 11
90.657241564797
 21
212.20097316844954
 31
-0.07616669536480747
  0
LINE
  5
1CC
330
17
100
AcDbEntity
  8
FP-Hatch
100
AcDbLine
 10
90.72999166678346
 20
212.2293917888519
 30
0.0
 11
90.66254712936643
 21
212.19658577762857
 31
0.0
  0
LINE
  5
1CD
330
17
100
AcDbEntity
  8
FP-Hatch
100
AcDbLine
 10
90.67653322617116
 20
211.67127917967287
 30
-0.07616669536480747
 11
98.17324030909367
 21
211.67127917967287
 31
-0.07616669536480747
  0
LINE
  5
1CE
330
17
100
AcDbEntity
  8
FP-Hatch
100
AcDbLine
 10
90.67653322617116
 20
211.67127917967287
 30
-0.07616669536480747
 11
90.67653322617116
 21
211.85877917967287
 31
-0.07616669536480747
  0
LINE
  5
1CF
330
17
100
AcDbEntity
  8
FP-Hatch
100
AcDbLine
 10
90.67653322617116
 20
211.85877917967287
 30
-0.07616669536480747
 11
98.17324030909367
 21
211.85877917967287
 31
-0.07616669536480747
  0
LINE
  5
1D0
330
17
100
AcDbEntity
  8
FP-Hatch
100
AcDbLine
 10
90.68183879074058
 20
211.6668917888519
 30
0.0
 11
94.4301923321982
 21
211.6668917888519
 31
0.0
  0
LINE
  5
1D1
330
17
100
AcDbEntity
  8
FP-Hatch
100
AcDbLine
 10
90.68183879074058
 20
211.6668917888519
 30
0.0
 11
90.68183879074058
 21
211.8543917888519
 31
0.0
  0
LINE
  5
1D2
330
17
100
AcDbEntity
  8
FP-Hatch
100
AcDbLine
 10
90.68183879074058
 20
211.8543917888519
 30
0.0
 11
94.4301923321982
 21
211.8543917888519
 31
0.0
  0
LINE
  5
1D3
330
17
100
AcDbEntity
  8
FP-Hatch
100
AcDbLine
 10
90.72468610221404
 20
212.23377917967287
 30
-0.07616669536480747
 11
98.12508743304352
 21
212.23377917967287
 31
-0.07616669536480747
  0
LINE
  5
1D4
330
17
100
AcDbEntity
  8
FP-Hatch
100
AcDbLine
 10
90.72999166678346
 20
212.2293917888519
 30
0.0
 11
94.4301923321982
 21
212.2293917888519
 31
0.0
  0
LINE
  5
1D5
330
17
100
AcDbEntity
  8
FP-Hatch
100
AcDbLine
 10
90.89671085655937
 20
212.30877917967177
 30
-0.07616669536480747
 11
93.97488676762441
 21
212.3087791796745
 31
-0.07616669536480747
  0
LINE
  5
1D6
330
17
100
AcDbEntity
  8
FP-Hatch
100
AcDbLine
 10
90.90201642112879
 20
212.3043917888508
 30
0.0
 11
93.98019233219384
 21
212.30439178885217
 31
0.0
  0
LINE
  5
1D7
330
17
100
AcDbEntity
  8
FP-Hatch
100
AcDbLine
 10
91.3130048321982
 20
210.95621625956755
 30
0.0
 11
94.43019233219457
 21
210.95621625956755
 31
0.0
  0
LINE
  5
1D8
330
17
100
AcDbEntity
  8
FP-Hatch
100
AcDbLine
 10
92.85770669631893
 20
233.89553407710514
 30
-0.07616669536480747
 11
95.92488676762878
 21
233.89553407710378
 31
-0.07616669536480747
  0
LINE
  5
1D9
330
17
100
AcDbEntity
  8
FP-Hatch
100
AcDbLine
 10
92.8577066963262
 20
207.35122865038852
 30
-0.07616669536480747
 11
95.92488676762514
 21
207.35122865038852
 31
-0.07616669536480747
  0
LINE
  5
1DA
330
17
100
AcDbEntity
  8
FP-Hatch
100
AcDbLine
 10
92.86301226088835
 20
233.89114668628417
 30
0.0
 11
92.9301923321982
 21
233.8911466862828
 31
0.0
  0
LINE
  5
1DB
330
17
100
AcDbEntity
  8
FP-Hatch
100
AcDbLine
 10
92.86301226089563
 20
207.34684125956755
 30
0.0
 11
92.93019233220548
 21
207.34684125956755
 31
0.0
  0
LWPOLYLINE
  5
1DC
330
17
100
AcDbEntity
  8
FP-Hatch
100
AcDbPolyline
 90
3
 70
0
 38
-0.07616669536480747
 10
92.92488676762514
 20
232.39553407710378
 10
92.92488676762514
 20
232.58303407710378
 10
95.92488676763605
 20
232.58303407710378
  0
LINE
  5
1DD
330
17
100
AcDbEntity
  8
FP-Hatch
100
AcDbLine
 10
92.92488676762514
 20
232.39553407710378
 30
-0.07616669536480747
 11
95.92488676763605
 21
232.39553407710378
 31
-0.07616669536480747
  0
LWPOLYLINE
  5
1DE
330
17
100
AcDbEntity
  8
FP-Hatch
100
AcDbPolyline
 90
3
 70
0
 38
-0.07616669536480747
 10
92.92488676762878
 20
208.85122865038852
 10
92.92488676762878
 20
208.66372865038852
 10
95.92488676762878
 20
208.66372865038852
  0
LINE
  5
1DF
330
17
100
AcDbEntity
  8
FP-Hatch
100
AcDbLine
 10
92.92488676762878
 20
208.85122865038852
 30
-0.07616669536480747
 11
95.92488676762878
 21
208.85122865038852
 31
-0.07616669536480747
  0
LWPOLYLINE
  5
1E0
330
17
100
AcDbEntity
  8
FP-Hatch
100
AcDbPolyline
 90
2
 70
0
 38
-0.07616669536480747
 10
92.92488676762878
 20
233.89553407710378
 10
92.92488676762878
 20
233.70803407710378
  0
LINE
  5
1E1
330
17
100
AcDbEntity
  8
FP-Hatch
100
AcDbLine
 10
92.92488676762878
 20
233.70803407710378
 30
-0.07616669536480747
 11
95.92488676762878
 21
233.70803407710378
 31
-0.07616669536480747
  0
LWPOLYLINE
  5
1E2
330
17
100
AcDbEntity
  8
FP-Hatch
100
AcDbPolyline
 90
2
 70
0
 38
-0.07616669536480747
 10
92.92488676763605
 20
207.35122865038852
 10
92.92488676763605
 20
207.53872865038852
  0
LINE
  5
1E3
330
17
100
AcDbEntity
  8
FP-Hatch
100
AcDbLine
 10
92.92488676763605
 20
207.53872865038852
 30
-0.07616669536480747
 11
95.92488676762514
 21
207.53872865038852
 31
-0.07616669536480747
  0
LWPOLYLINE
  5
1E4
330
17
100
AcDbEntity
  8
FP-Hatch
100
AcDbPolyline
 90
3
 70
0
 10
92.93019233219457
 20
232.3911466862828
 10
92.93019233219457
 20
232.5786466862828
 10
93.11769233219457
 20
232.5786466862828
  0
LINE
  5
1E5
330
17
100
AcDbEntity
  8
FP-Hatch
100
AcDbLine
 10
92.93019233219457
 20
232.3911466862828
 30
0.0
 11
94.43019233219457
 21
232.3911466862828
 31
0.0
  0
LWPOLYLINE
  5
1E6
330
17
100
AcDbEntity
  8
FP-Hatch
100
AcDbPolyline
 90
3
 70
0
 10
92.9301923321982
 20
208.84684125956755
 10
92.9301923321982
 20
208.65934125956755
 10
93.1176923321982
 20
208.65934125956755
  0
LINE
  5
1E7
330
17
100
AcDbEntity
  8
FP-Hatch
100
AcDbLine
 10
92.9301923321982
 20
208.84684125956755
 30
0.0
 11
94.4301923321982
 21
208.84684125956755
 31
0.0
  0
LWPOLYLINE
  5
1E8
330
17
100
AcDbEntity
  8
FP-Hatch
100
AcDbPolyline
 90
2
 70
0
 10
92.9301923321982
 20
233.8911466862828
 10
92.9301923321982
 20
233.7036466862828
  0
LINE
  5
1E9
330
17
100
AcDbEntity
  8
FP-Hatch
100
AcDbLine
 10
92.9301923321982
 20
233.7036466862828
 30
0.0
 11
94.43019233219457
 21
233.7036466862828
 31
0.0
  0
LINE
  5
1EA
330
17
100
AcDbEntity
  8
FP-Hatch
100
AcDbLine
 10
92.9301923321982
 20
233.8911466862828
 30
0.0
 11
94.4301923321982
 21
233.8911466862828
 31
0.0
  0
LWPOLYLINE
  5
1EB
330
17
100
AcDbEntity
  8
FP-Hatch
100
AcDbPolyline
 90
2
 70
0
 10
92.93019233220548
 20
207.34684125956755
 10
92.93019233220548
 20
207.53434125956755
  0
LINE
  5
1EC
330
17
100
AcDbEntity
  8
FP-Hatch
100
AcDbLine
 10
92.93019233220548
 20
207.34684125956755
 30
0.0
 11
94.43019233220548
 21
207.34684125956755
 31
0.0
  0
LINE
  5
1ED
330
17
100
AcDbEntity
  8
FP-Hatch
100
AcDbLine
 10
92.93019233220548
 20
207.53434125956755
 30
0.0
 11
94.4301923321982
 21
207.53434125956755
 31
0.0
  0
LINE
  5
1EE
330
17
100
AcDbEntity
  8
FP-Hatch
100
AcDbLine
 10
93.11769233219457
 20
232.5786466862828
 30
0.0
 11
94.43019233219457
 21
232.5786466862828
 31
0.0
  0
LINE
  5
1EF
330
17
100
AcDbEntity
  8
FP-Hatch
100
AcDbLine
 10
93.1176923321982
 20
208.65934125956755
 30
0.0
 11
94.4301923321982
 21
208.65934125956755
 31
0.0
  0
LWPOLYLINE
  5
1F0
330
17
100
AcDbEntity
  8
FP-Hatch
100
AcDbPolyline
 90
5
 70
0
 10
93.84894233219893
 20
235.77967906749836
 10
93.7739423321982
 20
235.77967906749836
 10
93.6801923321982
 20
235.68592906749836
 10
93.6801923321982
 20
235.68592906749836
 10
93.7739423321982
 20
235.59217906749836
  0
LWPOLYLINE
  5
1F1
330
17
100
AcDbEntity
  8
FP-Hatch
100
AcDbPolyline
 90
5
 70
0
 10
93.84894233220257
 20
204.33330887835473
 10
93.77394233220548
 20
204.33330887835473
 10
93.68019233220548
 20
204.42705887835473
 10
93.68019233220548
 20
204.42705887835473
 10
93.77394233220548
 20
204.52080887835473
  0
LWPOLYLINE
  5
1F2
330
17
100
AcDbEntity
  8
FP-Hatch
100
AcDbPolyline
 90
3
 70
0
 38
-0.07616669536480747
 10
95.00613676763169
 20
235.78406645831933
 10
93.76863676762878
 20
235.78406645831933
 10
93.7674753304309
 20
235.59657365292264
  0
LINE
  5
1F3
330
17
100
AcDbEntity
  8
FP-Hatch
100
AcDbLine
 10
95.02690338194952
 20
235.59656645831933
 30
-0.07616669536480747
 11
93.76863676762878
 21
235.59656645831933
 31
-0.07616669536480747
  0
LINE
  5
1F4
330
17
100
AcDbEntity
  8
FP-Hatch
100
AcDbLine
 10
95.00613676762441
 20
204.3376962691757
 30
-0.07616669536480747
 11
93.76863676763605
 21
204.3376962691757
 31
-0.07616669536480747
  0
LINE
  5
1F5
330
17
100
AcDbEntity
  8
FP-Hatch
100
AcDbLine
 10
95.02690338194589
 20
204.5251962691757
 30
-0.07616669536480747
 11
93.76863676763605
 21
204.5251962691757
 31
-0.07616669536480747
  0
LINE
  5
1F6
330
17
100
AcDbEntity
  8
FP-Hatch
100
AcDbLine
 10
93.82817571788473
 20
235.592179067497
 30
0.0
 11
93.7739423321982
 21
235.59217906749836
 31
0.0
  0
LINE
  5
1F7
330
17
100
AcDbEntity
  8
FP-Hatch
100
AcDbLine
 10
93.82817571788473
 20
204.52080887835473
 30
0.0
 11
93.77394233220548
 21
204.52080887835473
 31
0.0
  0
LINE
  5
1F8
330
17
100
AcDbEntity
  8
FP-Hatch
100
AcDbLine
 10
93.82817571787746
 20
235.59217906749836
 30
0.0
 11
94.43019233219457
 21
235.59217906749836
 31
0.0
  0
LINE
  5
1F9
330
17
100
AcDbEntity
  8
FP-Hatch
100
AcDbLine
 10
93.82817571788473
 20
204.52080887835473
 30
0.0
 11
94.4301923321982
 21
204.52080887835473
 31
0.0
  0
LINE
  5
1FA
330
17
100
AcDbEntity
  8
FP-Hatch
100
AcDbLine
 10
94.43019233219457
 20
235.77967906749836
 30
0.0
 11
93.84894233219893
 21
235.77967906749836
 31
0.0
  0
LINE
  5
1FB
330
17
100
AcDbEntity
  8
FP-Hatch
100
AcDbLine
 10
94.4301923321982
 20
204.33330887835473
 30
0.0
 11
93.84894233220257
 21
204.33330887835473
 31
0.0
  0
LWPOLYLINE
  5
1FC
330
17
100
AcDbEntity
  8
FP-Hatch
100
AcDbPolyline
 90
3
 70
0
 38
-0.07616669536480747
 10
93.95613676762878
 20
235.03406645831933
 10
93.86238676762878
 20
234.94031645831933
 10
93.86238676762878
 20
234.84656645831933
  0
LINE
  5
1FD
330
17
100
AcDbEntity
  8
FP-Hatch
100
AcDbLine
 10
93.86238676762878
 20
234.84656645831933
 30
-0.07616669536480747
 11
94.98738676762878
 21
234.84656645831933
 31
-0.07616669536480747
  0
LWPOLYLINE
  5
1FE
330
17
100
AcDbEntity
  8
FP-Hatch
100
AcDbPolyline
 90
3
 70
0
 38
-0.07616669536480747
 10
93.95613676763605
 20
206.2126962691757
 10
93.86238676763605
 20
206.3064462691757
 10
93.86238676763605
 20
206.4001962691757
  0
LINE
  5
1FF
330
17
100
AcDbEntity
  8
FP-Hatch
100
AcDbLine
 10
93.86238676763605
 20
206.4001962691757
 30
-0.07616669536480747
 11
94.98738676762514
 21
206.4001962691757
 31
-0.07616669536480747
  0
LWPOLYLINE
  5
200
330
17
100
AcDbEntity
  8
FP-Hatch
100
AcDbPolyline
 90
3
 70
0
 10
93.9614423321982
 20
235.02967906749836
 10
93.8676923321982
 20
234.93592906749836
 10
93.8676923321982
 20
234.84217906749836
  0
LINE
  5
201
330
17
100
AcDbEntity
  8
FP-Hatch
100
AcDbLine
 10
93.8676923321982
 20
234.84217906749836
 30
0.0
 11
94.43019233219457
 21
234.84217906749836
 31
0.0
  0
LWPOLYLINE
  5
202
330
17
100
AcDbEntity
  8
FP-Hatch
100
AcDbPolyline
 90
3
 70
0
 10
93.96144233220548
 20
206.20830887835473
 10
93.86769233220548
 20
206.30205887835473
 10
93.86769233220548
 20
206.39580887835473
  0
LINE
  5
203
330
17
100
AcDbEntity
  8
FP-Hatch
100
AcDbLine
 10
93.86769233220548
 20
206.39580887835473
 30
0.0
 11
94.4301923321982
 21
206.39580887835473
 31
0.0
  0
LINE
  5
204
330
17
100
AcDbEntity
  8
FP-Hatch
100
AcDbLine
 10
93.95613676762878
 20
235.03406645831933
 30
-0.07616669536480747
 11
94.89363676762878
 21
235.03406645831933
 31
-0.07616669536480747
  0
LINE
  5
205
330
17
100
AcDbEntity
  8
FP-Hatch
100
AcDbLine
 10
93.95613676763605
 20
206.2126962691757
 30
-0.07616669536480747
 11
94.89363676762514
 21
206.2126962691757
 31
-0.07616669536480747
  0
LINE
  5
206
330
17
100
AcDbEntity
  8
FP-Hatch
100
AcDbLine
 10
93.9614423321982
 20
235.02967906749836
 30
0.0
 11
94.43019233219457
 21
235.02967906749836
 31
0.0
  0
LINE
  5
207
330
17
100
AcDbEntity
  8
FP-Hatch
100
AcDbLine
 10
93.96144233220548
 20
206.20830887835473
 30
0.0
 11
94.4301923321982
 21
206.20830887835473
 31
0.0
  0
LINE
  5
208
330
17
100
AcDbEntity
  8
FP-Hatch
100
AcDbLine
 10
93.97488676763169
 20
212.23377917967287
 30
-0.07616669536480747
 11
93.97488676763169
 21
223.95803407710378
 31
-0.07616669536480747
  0
LINE
  5
209
330
17
100
AcDbEntity
  8
FP-Hatch
100
AcDbLine
 10
93.98019233220111
 20
212.2293917888519
 30
0.0
 11
93.98019233220111
 21
223.9536466862828
 31
0.0
  0
LINE
  5
20A
330
17
100
AcDbEntity
  8
FP-Hatch
100
AcDbLine
 10
94.04988676762878
 20
212.23377917967287
 30
-0.07616669536480747
 11
94.04988676762878
 21
223.95803407710378
 31
-0.07616669536480747
  0
LINE
  5
20B
330
17
100
AcDbEntity
  8
FP-Hatch
100
AcDbLine
 10
94.0551923321982
 20
212.2293917888519
 30
0.0
 11
94.0551923321982
 21
223.9536466862828
 31
0.0
  0
LWPOLYLINE
  5
20C
330
17
100
AcDbEntity
  8
FP-Hatch
100
AcDbPolyline
 90
2
 70
0
 38
-0.07616669536480747
 10
94.23738676762878
 20
224.33303407710378
 10
94.23738676762878
 20
222.45803407710378
  0
LWPOLYLINE
  5
20D
330
17
100
AcDbEntity
  8
FP-Hatch
100
AcDbPolyline
 90
4
 70
0
 10
94.2426923321982
 20
222.4536466862828
 10
94.2426923321982
 20
224.3286466862828
 10
94.6176923321982
 20
224.3286466862828
 10
94.6176923321982
 20
222.4536466862828
  0
LINE
  5
20E
330
17
100
AcDbEntity
  8
FP-Hatch
100
AcDbLine
 10
95.93019233219457
 20
207.34684125956755
 30
0.0
 11
94.43019233219457
 21
207.34684125956755
 31
0.0
  0
LINE
  5
20F
330
17
100
AcDbEntity
  8
FP-Hatch
100
AcDbLine
 10
94.4301923321982
 20
204.33330887835473
 30
0.0
 11
95.01144233219384
 21
204.33330887835473
 31
0.0
  0
LINE
  5
210
330
17
100
AcDbEntity
  8
FP-Hatch
100
AcDbLine
 10
95.03220894651531
 20
204.52080887835473
 30
0.0
 11
94.4301923321982
 21
204.52080887835473
 31
0.0
  0
LINE
  5
211
330
17
100
AcDbEntity
  8
FP-Hatch
100
AcDbLine
 10
94.89894233219457
 20
206.20830887835473
 30
0.0
 11
94.4301923321982
 21
206.20830887835473
 31
0.0
  0
LINE
  5
212
330
17
100
AcDbEntity
  8
FP-Hatch
100
AcDbLine
 10
94.99269233219457
 20
206.39580887835473
 30
0.0
 11
94.4301923321982
 21
206.39580887835473
 31
0.0
  0
LINE
  5
213
330
17
100
AcDbEntity
  8
FP-Hatch
100
AcDbLine
 10
95.93019233219457
 20
207.53434125956755
 30
0.0
 11
94.4301923321982
 21
207.53434125956755
 31
0.0
  0
LINE
  5
214
330
17
100
AcDbEntity
  8
FP-Hatch
100
AcDbLine
 10
95.7426923321982
 20
208.65934125956755
 30
0.0
 11
94.4301923321982
 21
208.65934125956755
 31
0.0
  0
LINE
  5
215
330
17
100
AcDbEntity
  8
FP-Hatch
100
AcDbLine
 10
95.9301923321982
 20
208.84684125956755
 30
0.0
 11
94.4301923321982
 21
208.84684125956755
 31
0.0
  0
LINE
  5
216
330
17
100
AcDbEntity
  8
FP-Hatch
100
AcDbLine
 10
98.1785458736631
 20
211.6668917888519
 30
0.0
 11
94.4301923321982
 21
211.6668917888519
 31
0.0
  0
LINE
  5
217
330
17
100
AcDbEntity
  8
FP-Hatch
100
AcDbLine
 10
98.1785458736631
 20
211.8543917888519
 30
0.0
 11
94.4301923321982
 21
211.8543917888519
 31
0.0
  0
LINE
  5
218
330
17
100
AcDbEntity
  8
FP-Hatch
100
AcDbLine
 10
98.13039299761294
 20
212.2293917888519
 30
0.0
 11
94.4301923321982
 21
212.2293917888519
 31
0.0
  0
LINE
  5
219
330
17
100
AcDbEntity
  8
FP-Hatch
100
AcDbLine
 10
101.06704980554059
 20
224.3286466862828
 30
0.0
 11
94.4301923321982
 21
224.3286466862828
 31
0.0
  0
LINE
  5
21A
330
17
100
AcDbEntity
  8
FP-Hatch
100
AcDbLine
 10
95.9301923321982
 20
233.8911466862828
 30
0.0
 11
94.4301923321982
 21
233.8911466862828
 31
0.0
  0
LINE
  5
21B
330
17
100
AcDbEntity
  8
FP-Hatch
100
AcDbLine
 10
97.5473798321982
 20
210.95621625956755
 30
0.0
 11
94.43019233220548
 21
210.95621625956755
 31
0.0
  0
LINE
  5
21C
330
17
100
AcDbEntity
  8
FP-Hatch
100
AcDbLine
 10
98.38411066800836
 20
211.04996625956755
 30
0.0
 11
94.43019233220548
 21
211.04996625956755
 31
0.0
  0
LINE
  5
21D
330
17
100
AcDbEntity
  8
FP-Hatch
100
AcDbLine
 10
98.57161066800836
 20
211.13695006895978
 30
0.0
 11
94.43019233220548
 21
211.13695006895978
 31
0.0
  0
LINE
  5
21E
330
17
100
AcDbEntity
  8
FP-Hatch
100
AcDbLine
 10
101.40519233220402
 20
224.5161466862828
 30
0.0
 11
94.43019233220548
 21
224.5161466862828
 31
0.0
  0
LINE
  5
21F
330
17
100
AcDbEntity
  8
FP-Hatch
100
AcDbLine
 10
101.55519233220548
 20
225.4536466862828
 30
0.0
 11
94.43019233220548
 21
225.4536466862828
 31
0.0
  0
LINE
  5
220
330
17
100
AcDbEntity
  8
FP-Hatch
100
AcDbLine
 10
101.74269233220548
 20
225.6411466862828
 30
0.0
 11
94.43019233220548
 21
225.6411466862828
 31
0.0
  0
LINE
  5
221
330
17
100
AcDbEntity
  8
FP-Hatch
100
AcDbLine
 10
102.49269233220548
 20
225.81511430506998
 30
0.0
 11
94.43019233220548
 21
225.81511430506998
 31
0.0
  0
LINE
  5
222
330
17
100
AcDbEntity
  8
FP-Hatch
100
AcDbLine
 10
101.55519233220548
 20
226.7661466862828
 30
0.0
 11
94.43019233220548
 21
226.7661466862828
 31
0.0
  0
LINE
  5
223
330
17
100
AcDbEntity
  8
FP-Hatch
100
AcDbLine
 10
101.55519233220548
 20
227.1411466862828
 30
0.0
 11
94.43019233220548
 21
227.1411466862828
 31
0.0
  0
LINE
  5
224
330
17
100
AcDbEntity
  8
FP-Hatch
100
AcDbLine
 10
95.93019233220548
 20
232.3911466862828
 30
0.0
 11
94.43019233220548
 21
232.3911466862828
 31
0.0
  0
LINE
  5
225
330
17
100
AcDbEntity
  8
FP-Hatch
100
AcDbLine
 10
95.74269233220548
 20
232.5786466862828
 30
0.0
 11
94.43019233220548
 21
232.5786466862828
 31
0.0
  0
LINE
  5
226
330
17
100
AcDbEntity
  8
FP-Hatch
100
AcDbLine
 10
95.9301923321982
 20
233.7036466862828
 30
0.0
 11
94.43019233220548
 21
233.7036466862828
 31
0.0
  0
LINE
  5
227
330
17
100
AcDbEntity
  8
FP-Hatch
100
AcDbLine
 10
94.9926923321982
 20
234.84217906749836
 30
0.0
 11
94.43019233220548
 21
234.84217906749836
 31
0.0
  0
LINE
  5
228
330
17
100
AcDbEntity
  8
FP-Hatch
100
AcDbLine
 10
94.8989423321982
 20
235.02967906749836
 30
0.0
 11
94.43019233220548
 21
235.02967906749836
 31
0.0
  0
LINE
  5
229
330
17
100
AcDbEntity
  8
FP-Hatch
100
AcDbLine
 10
95.03220894651895
 20
235.59217906749836
 30
0.0
 11
94.43019233220548
 21
235.59217906749836
 31
0.0
  0
LINE
  5
22A
330
17
100
AcDbEntity
  8
FP-Hatch
100
AcDbLine
 10
94.43019233220548
 20
235.77967906749836
 30
0.0
 11
95.01144233220111
 21
235.77967906749836
 31
0.0
  0
LWPOLYLINE
  5
22B
330
17
100
AcDbEntity
  8
FP-Hatch
100
AcDbPolyline
 90
2
 70
0
 38
-0.07616669536480747
 10
94.61238676762878
 20
222.45803407710378
 10
94.61238676762878
 20
224.33303407710378
  0
LINE
  5
22C
330
17
100
AcDbEntity
  8
FP-Hatch
100
AcDbLine
 10
101.05487260755035
 20
223.95803407710378
 30
-0.07616669536480747
 11
94.61238676762878
 21
223.95803407710378
 31
-0.07616669536480747
  0
LINE
  5
22D
330
17
100
AcDbEntity
  8
FP-Hatch
100
AcDbLine
 10
100.98515485027747
 20
223.9536466862828
 30
0.0
 11
94.6176923321982
 21
223.9536466862828
 31
0.0
  0
LINE
  5
22E
330
17
100
AcDbEntity
  8
FP-Hatch
100
AcDbLine
 10
94.79988676762878
 20
212.23377917967287
 30
-0.07616669536480747
 11
94.79988676762878
 21
223.95803407710378
 31
-0.07616669536480747
  0
LINE
  5
22F
330
17
100
AcDbEntity
  8
FP-Hatch
100
AcDbLine
 10
94.8051923321982
 20
212.2293917888519
 30
0.0
 11
94.8051923321982
 21
223.9536466862828
 31
0.0
  0
LINE
  5
230
330
17
100
AcDbEntity
  8
FP-Hatch
100
AcDbLine
 10
94.8748867676295
 20
212.23377917967287
 30
-0.07616669536480747
 11
94.8748867676295
 21
223.95803407710378
 31
-0.07616669536480747
  0
LINE
  5
231
330
17
100
AcDbEntity
  8
FP-Hatch
100
AcDbLine
 10
100.79030531452008
 20
223.88303407710487
 30
-0.07616669536480747
 11
94.8748867676295
 21
223.88303407710487
 31
-0.07616669536480747
  0
LINE
  5
232
330
17
100
AcDbEntity
  8
FP-Hatch
100
AcDbLine
 10
97.95306267870183
 20
212.30877917967177
 30
-0.07616669536480747
 11
94.87488676763314
 21
212.30877917967314
 31
-0.07616669536480747
  0
LINE
  5
233
330
17
100
AcDbEntity
  8
FP-Hatch
100
AcDbLine
 10
94.88019233219893
 20
212.2293917888519
 30
0.0
 11
94.88019233219893
 21
223.9536466862828
 31
0.0
  0
LINE
  5
234
330
17
100
AcDbEntity
  8
FP-Hatch
100
AcDbLine
 10
100.79561087908951
 20
223.87864668628254
 30
0.0
 11
94.88019233219893
 21
223.8786466862839
 31
0.0
  0
LINE
  5
235
330
17
100
AcDbEntity
  8
FP-Hatch
100
AcDbLine
 10
97.95836824327125
 20
212.3043917888508
 30
0.0
 11
94.88019233220257
 21
212.30439178885354
 31
0.0
  0
LWPOLYLINE
  5
236
330
17
100
AcDbEntity
  8
FP-Hatch
100
AcDbPolyline
 90
3
 70
0
 38
-0.07616669536480747
 10
94.89363676762514
 20
206.2126962691757
 10
94.98738676762514
 20
206.3064462691757
 10
94.98738676762514
 20
206.4001962691757
  0
LWPOLYLINE
  5
237
330
17
100
AcDbEntity
  8
FP-Hatch
100
AcDbPolyline
 90
3
 70
0
 38
-0.07616669536480747
 10
94.89363676762878
 20
235.03406645831933
 10
94.98738676762878
 20
234.94031645831933
 10
94.98738676762878
 20
234.84656645831933
  0
LWPOLYLINE
  5
238
330
17
100
AcDbEntity
  8
FP-Hatch
100
AcDbPolyline
 90
3
 70
0
 10
94.89894233219457
 20
206.20830887835473
 10
94.99269233219457
 20
206.30205887835473
 10
94.99269233219457
 20
206.39580887835473
  0
LWPOLYLINE
  5
239
330
17
100
AcDbEntity
  8
FP-Hatch
100
AcDbPolyline
 90
3
 70
0
 10
94.8989423321982
 20
235.02967906749836
 10
94.9926923321982
 20
234.93592906749836
 10
94.9926923321982
 20
234.84217906749836
  0
LWPOLYLINE
  5
23A
330
17
100
AcDbEntity
  8
FP-Hatch
100
AcDbPolyline
 90
5
 70
0
 10
95.01144233219384
 20
204.33330887835473
 10
95.08644233219457
 20
204.33330887835473
 10
95.18019233219457
 20
204.42705887835473
 10
95.18019233219457
 20
204.42705887835473
 10
95.08644233219457
 20
204.52080887835473
  0
LWPOLYLINE
  5
23B
330
17
100
AcDbEntity
  8
FP-Hatch
100
AcDbPolyline
 90
5
 70
0
 10
95.01144233220111
 20
235.77967906749836
 10
95.0864423321982
 20
235.77967906749836
 10
95.1801923321982
 20
235.68592906749836
 10
95.1801923321982
 20
235.68592906749836
 10
95.0864423321982
 20
235.59217906749836
  0
LINE
  5
23C
330
17
100
AcDbEntity
  8
FP-Hatch
100
AcDbLine
 10
95.03220894651531
 20
204.52080887835473
 30
0.0
 11
95.08644233219457
 21
204.52080887835473
 31
0.0
  0
LINE
  5
23D
330
17
100
AcDbEntity
  8
FP-Hatch
100
AcDbLine
 10
95.03220894651531
 20
235.592179067497
 30
0.0
 11
95.0864423321982
 21
235.59217906749836
 31
0.0
  0
LWPOLYLINE
  5
23E
330
17
100
AcDbEntity
  8
FP-Hatch
100
AcDbPolyline
 90
2
 70
0
 38
-0.07616669536480747
 10
95.08113676762514
 20
204.3376962691757
 10
95.07682406834647
 20
204.52509701997315
  0
LWPOLYLINE
  5
23F
330
17
100
AcDbEntity
  8
FP-Hatch
100
AcDbPolyline
 90
3
 70
0
 10
95.9301923321982
 20
208.84684125956755
 10
95.9301923321982
 20
208.65934125956755
 10
95.7426923321982
 20
208.65934125956755
  0
LWPOLYLINE
  5
240
330
17
100
AcDbEntity
  8
FP-Hatch
100
AcDbPolyline
 90
3
 70
0
 10
95.93019233220548
 20
232.3911466862828
 10
95.93019233220548
 20
232.5786466862828
 10
95.74269233220548
 20
232.5786466862828
  0
LWPOLYLINE
  5
241
330
17
100
AcDbEntity
  8
FP-Hatch
100
AcDbPolyline
 90
2
 70
0
 38
-0.07616669536480747
 10
95.92488676762514
 20
207.35122865038852
 10
95.92488676762514
 20
207.53872865038852
  0
LWPOLYLINE
  5
242
330
17
100
AcDbEntity
  8
FP-Hatch
100
AcDbPolyline
 90
2
 70
0
 38
-0.07616669536480747
 10
95.92488676762878
 20
208.85122865038852
 10
95.92488676762878
 20
208.66372865038852
  0
LWPOLYLINE
  5
243
330
17
100
AcDbEntity
  8
FP-Hatch
100
AcDbPolyline
 90
2
 70
0
 38
-0.07616669536480747
 10
95.92488676762878
 20
233.89553407710378
 10
95.92488676762878
 20
233.70803407710378
  0
LWPOLYLINE
  5
244
330
17
100
AcDbEntity
  8
FP-Hatch
100
AcDbPolyline
 90
2
 70
0
 38
-0.07616669536480747
 10
95.92488676763605
 20
232.39553407710378
 10
95.92488676763605
 20
232.58303407710378
  0
LWPOLYLINE
  5
245
330
17
100
AcDbEntity
  8
FP-Hatch
100
AcDbPolyline
 90
2
 70
0
 10
95.93019233219457
 20
207.34684125956755
 10
95.93019233219457
 20
207.53434125956755
  0
LINE
  5
246
330
17
100
AcDbEntity
  8
FP-Hatch
100
AcDbLine
 10
95.99737240350441
 20
207.34684125956755
 30
0.0
 11
95.93019233219457
 21
207.34684125956755
 31
0.0
  0
LWPOLYLINE
  5
247
330
17
100
AcDbEntity
  8
FP-Hatch
100
AcDbPolyline
 90
2
 70
0
 10
95.9301923321982
 20
233.8911466862828
 10
95.9301923321982
 20
233.7036466862828
  0
LINE
  5
248
330
17
100
AcDbEntity
  8
FP-Hatch
100
AcDbLine
 10
95.99737240350805
 20
233.89114668628417
 30
0.0
 11
95.9301923321982
 21
233.8911466862828
 31
0.0
  0
LINE
  5
249
330
17
100
AcDbEntity
  8
FP-Hatch
100
AcDbLine
 10
98.29036066800836
 20
210.95621625956755
 30
0.0
 11
97.5473798321982
 21
210.95621625956755
 31
0.0
  0
LINE
  5
24A
330
17
100
AcDbEntity
  8
FP-Hatch
100
AcDbLine
 10
98.12508743304352
 20
212.23377917967287
 30
-0.07616669536480747
 11
98.19253197046419
 21
212.20097316844954
 31
-0.07616669536480747
  0
LINE
  5
24B
330
17
100
AcDbEntity
  8
FP-Hatch
100
AcDbLine
 10
98.13039299761294
 20
212.2293917888519
 30
0.0
 11
98.19783753503361
 21
212.19658577762857
 31
0.0
  0
LINE
  5
24C
330
17
100
AcDbEntity
  8
FP-Hatch
100
AcDbLine
 10
98.17324030909367
 20
211.67127917967287
 30
-0.07616669536480747
 11
98.17324030909367
 21
211.85877917967287
 31
-0.07616669536480747
  0
LINE
  5
24D
330
17
100
AcDbEntity
  8
FP-Hatch
100
AcDbLine
 10
98.1785458736631
 20
211.6668917888519
 30
0.0
 11
98.1785458736631
 21
211.8543917888519
 31
0.0
  0
LINE
  5
24E
330
17
100
AcDbEntity
  8
FP-Hatch
100
AcDbLine
 10
98.57161066800836
 20
211.04996625956755
 30
0.0
 11
98.38411066800836
 21
211.04996625956755
 31
0.0
  0
LINE
  5
24F
330
17
100
AcDbEntity
  8
FP-Hatch
100
AcDbLine
 10
98.56630510343894
 20
211.05435365038852
 30
-0.07616669536480747
 11
98.56630510343894
 21
211.1413374597821
 31
-0.07616669536480747
  0
LINE
  5
250
330
17
100
AcDbEntity
  8
FP-Hatch
100
AcDbLine
 10
98.57161066800836
 20
211.04996625956755
 30
0.0
 11
98.57161066800836
 21
211.13695006896114
 31
0.0
  0
LINE
  5
251
330
17
100
AcDbEntity
  8
FP-Hatch
100
AcDbLine
 10
98.63879073931821
 20
211.13695006896114
 30
0.0
 11
98.57161066800836
 21
211.13695006895978
 31
0.0
  0
LWPOLYLINE
  5
252
330
17
100
AcDbEntity
  8
FP-Proposed Wall
100
AcDbPolyline
 90
2
 70
0
 38
24.501592026040623
 10
99.44118938943575
 20
128.50207501371756
 10
99.41857891431937
 20
127.00207512876773
  0
LWPOLYLINE
  5
253
330
17
100
AcDbEntity
  8
FP-Proposed Wall
100
AcDbPolyline
 90
4
 70
0
 10
111.41857891431937
 20
121.0020763305763
 10
113.41857891431937
 20
121.0020763305763
 10
113.41857891431937
 20
127.0020751276536
 10
99.4411961174992
 20
127.0020751276536
  0
LINE
  5
254
330
17
100
AcDbEntity
  8
FP-Hatch
100
AcDbLine
 10
100.98515485027747
 20
223.9536466862828
 30
0.0
 11
101.06017817211978
 21
223.9536466862828
 31
0.0
  0
LINE
  5
255
330
17
100
AcDbEntity
  8
FP-Hatch
100
AcDbLine
 10
101.06704980554059
 20
224.3286466862828
 30
0.0
 11
101.21769233220402
 21
224.3286466862828
 31
0.0
  0
LINE
  5
256
330
17
100
AcDbEntity
  8
FP-Hatch
100
AcDbLine
 10
101.5551923321982
 20
224.5161466862828
 30
0.0
 11
101.40519233220402
 21
224.5161466862828
 31
0.0
  0
LINE
  5
257
330
17
100
AcDbEntity
  8
FP-Hatch
100
AcDbLine
 10
101.54988676763605
 20
226.77053407710378
 30
-0.07616669536480747
 11
101.54988676763605
 21
227.14553407710378
 31
-0.07616669536480747
  0
LINE
  5
258
330
17
100
AcDbEntity
  8
FP-Hatch
100
AcDbLine
 10
101.55519233220548
 20
226.7661466862828
 30
0.0
 11
101.55519233220548
 21
227.1411466862828
 31
0.0
  0
LINE
  5
259
330
17
100
AcDbEntity
  8
FP-Hatch
100
AcDbLine
 10
102.49269233220548
 20
225.6411466862828
 30
0.0
 11
101.74269233220548
 21
225.6411466862828
 31
0.0
  0
LINE
  5
25A
330
17
100
AcDbEntity
  8
FP-Hatch
100
AcDbLine
 10
102.48738676763605
 20
225.64553407710378
 30
-0.07616669536480747
 11
102.48738676763605
 21
225.81950169589095
 31
-0.07616669536480747
  0
LINE
  5
25B
330
17
100
AcDbEntity
  8
FP-Hatch
100
AcDbLine
 10
102.49269233220548
 20
225.6411466862828
 30
0.0
 11
102.49269233220548
 21
225.81511430506998
 31
0.0
  0
LINE
  5
25C
330
17
100
AcDbEntity
  8
FP-Hatch
100
AcDbLine
 10
102.55987240351533
 20
225.81511430506998
 30
0.0
 11
102.49269233220548
 21
225.81511430506998
 31
0.0
  0
LINE
  5
25D
330
17
100
AcDbEntity
  8
FP-Proposed Wall
100
AcDbLine
 10
106.02911049011891
 20
290.0653919863296
 30
0.0
 11
105.27911060906263
 21
290.0649695916468
 31
0.0
  0
LINE
  5
25E
330
17
100
AcDbEntity
  8
FP-Proposed Wall
100
AcDbLine
 10
105.30163832599646
 20
250.06497592265782
 30
0.0
 11
105.27911060941915
 21
290.064969591647
 31
0.0
  0
LWPOLYLINE
  5
25F
330
17
100
AcDbEntity
  8
FP-Proposed Wall
100
AcDbPolyline
 90
2
 70
0
 10
105.30276471069374
 20
248.06497823984273
 10
105.35908400285552
 20
148.0649921111035
  0
LINE
  5
260
330
17
100
AcDbEntity
  8
FP-Proposed Wall
100
AcDbLine
 10
106.05276459175002
 20
248.06540063452553
 30
0.0
 11
105.30276471069374
 21
248.06497823984273
 31
0.0
  0
LINE
  5
261
330
17
100
AcDbEntity
  8
FP-Proposed Wall
100
AcDbLine
 10
106.02854529833348
 20
291.06538982661164
 30
0.0
 11
106.2172752684055
 21
291.0654961180096
 31
0.0
  0
LINE
  5
262
330
17
100
AcDbEntity
  8
FP-Proposed Wall
100
AcDbLine
 10
106.02911049124668
 20
290.0653899863312
 30
0.0
 11
106.02854729833416
 21
291.06538982773804
 31
0.0
  0
LINE
  5
263
330
17
100
AcDbEntity
  8
FP-Proposed Wall
100
AcDbLine
 10
106.60016538092168
 20
249.79038062924405
 30
0.0
 11
106.05163820705275
 21
250.06539831734085
 31
0.0
  0
LINE
  5
264
330
17
100
AcDbEntity
  8
FP-Proposed Wall
100
AcDbLine
 10
106.05219939996459
 20
249.06539847480758
 30
0.0
 11
106.24092937003661
 21
249.06550476620555
 31
0.0
  0
LINE
  5
265
330
17
100
AcDbEntity
  8
FP-Proposed Wall
100
AcDbLine
 10
106.05276459287415
 20
248.06539863452713
 30
0.0
 11
106.05220139996527
 21
249.065398475934
 31
0.0
  0
LINE
  5
266
330
17
100
AcDbEntity
  8
FP-Stair
100
AcDbLine
 10
107.28567099391512
 20
148.00201978205746
 30
0.0
 11
107.2856709939042
 21
290.0011674676223
 31
0.0
  0
LWPOLYLINE
  5
267
330
17
100
AcDbEntity
  8
FP-Stair
100
AcDbPolyline
 90
2
 70
0
 10
107.2856709939042
 20
274.09915966326275
 10
155.48165539106049
 20
274.09915966326275
  0
LINE
  5
268
330
17
100
AcDbEntity
  8
FP-Stair
100
AcDbLine
 10
108.0356709939042
 20
290.00116746741674
 30
0.0
 11
107.2856709939042
 21
290.00116746741674
 31
0.0
  0
LINE
  5
269
330
17
100
AcDbEntity
  8
FP-Stair
100
AcDbLine
 10
108.03566899390353
 20
291.0011654674179
 30
0.0
 11
108.2243989939052
 21
291.0011654674179
 31
0.0
  0
LINE
  5
26A
330
17
100
AcDbEntity
  8
FP-Stair
100
AcDbLine
 10
108.0356709939042
 20
290.0011654674179
 30
0.0
 11
108.0356709939042
 21
291.0011654674179
 31
0.0
  0
LWPOLYLINE
  5
26B
330
17
100
AcDbEntity
  8
FP-Hatch
100
AcDbPolyline
 90
4
 70
0
 10
109.28567099391512
 20
148.00201686035393
 10
109.2856709939042
 20
272.09915966326275
 10
153.48165539106049
 20
272.09915966326275
 10
153.48165539106049
 20
148.00195229657243
  0
LWPOLYLINE
  5
26C
330
17
100
AcDbEntity
  8
FP-Hatch
100
AcDbPolyline
 90
4
 70
0
 10
110.28567099391512
 20
148.00201539950217
 10
110.2856709939042
 20
271.09915966326275
 10
152.48165539106049
 20
271.09915966326275
 10
152.48165539106049
 20
148.0019537574242
  0
LWPOLYLINE
  5
26D
330
17
100
AcDbEntity
  8
FP-Proposed Wall
100
AcDbPolyline
 90
2
 70
0
 10
111.44118938943575
 20
121.00207621665436
 10
111.41857891431937
 20
119.50207633170453
  0
LWPOLYLINE
  5
26E
330
17
100
AcDbEntity
  8
FP-Proposed Wall
 62
1
100
AcDbPolyline
 90
5
 70
0
 10
113.38363543753076
 20
148.00201087383516
 10
113.38366319248235
 20
268.00116746468643
 10
149.38366319248235
 20
268.00116746468643
 10
149.38363543753076
 20
148.00201087383516
 10
113.38363543753076
 20
148.00201087383516
  0
LINE
  5
26F
330
17
100
AcDbEntity
  8
FP-Stair
100
AcDbLine
 10
113.41857891431937
 20
125.50254846849725
 30
0.0
 11
171.38764244403137
 21
125.50265957360466
 31
0.0
  0
LWPOLYLINE
  5
270
330
17
100
AcDbEntity
  8
FP-Hatch
100
AcDbPolyline
 90
6
 70
0
 10
114.88366319248235
 20
180.86557544198672
 10
114.88366319248235
 20
266.50116746468643
 10
147.88366319248235
 20
266.50116746468643
 10
147.88363543753076
 20
149.50201087383516
 10
114.88363543753076
 20
149.50201087383516
 10
114.88366319248235
 20
180.86557544198672
  0
LWPOLYLINE
  5
271
330
17
100
AcDbEntity
  8
FP-Hatch
100
AcDbPolyline
 90
6
 70
0
 10
115.88366319248235
 20
180.86557544198672
 10
115.88366319248235
 20
265.50116746468643
 10
146.88366319248235
 20
265.50116746468643
 10
146.88363543753076
 20
150.50201087383516
 10
115.88363543753076
 20
150.50201087383516
 10
115.88366319248235
 20
180.86557544198672
  0
LINE
  5
272
330
17
100
AcDbEntity
  8
FP-Hatch
100
AcDbLine
 10
146.88366319248235
 20
169.50116747067455
 30
0.0
 11
115.88366319248235
 21
169.50116747067455
 31
0.0
  0
LINE
  5
273
330
17
100
AcDbEntity
  8
FP-Hatch
100
AcDbLine
 10
146.88366319248235
 20
185.50116747067455
 30
0.0
 11
115.88366319248235
 21
185.50116747067455
 31
0.0
  0
LINE
  5
274
330
17
100
AcDbEntity
  8
FP-Hatch
100
AcDbLine
 10
146.88366319248235
 20
201.50116747067455
 30
0.0
 11
115.88366319248235
 21
201.50116747067455
 31
0.0
  0
LINE
  5
275
330
17
100
AcDbEntity
  8
FP-Hatch
100
AcDbLine
 10
146.88366319248235
 20
217.50116747067455
 30
0.0
 11
115.88366319248235
 21
217.50116747067455
 31
0.0
  0
LINE
  5
276
330
17
100
AcDbEntity
  8
FP-Hatch
100
AcDbLine
 10
146.88366319248235
 20
233.50116747067455
 30
0.0
 11
115.88366319248235
 21
233.50116747067455
 31
0.0
  0
LINE
  5
277
330
17
100
AcDbEntity
  8
FP-Hatch
100
AcDbLine
 10
146.88366319248235
 20
249.50116747067455
 30
0.0
 11
115.88366319248235
 21
249.50116747067455
 31
0.0
  0
LINE
  5
278
330
17
100
AcDbEntity
  8
FP-Hatch
100
AcDbLine
 10
131.38366319248235
 20
265.50116746468643
 30
0.0
 11
131.38363543753076
 21
150.50201087383516
 31
0.0
  0
LINE
  5
279
330
17
100
AcDbEntity
  8
FP-Stair
100
AcDbLine
 10
154.73165739106116
 20
291.0011654674179
 30
0.0
 11
154.5429273910595
 21
291.0011654674179
 31
0.0
  0
LINE
  5
27A
330
17
100
AcDbEntity
  8
FP-Stair
100
AcDbLine
 10
154.73165539106049
 20
290.0011654674179
 30
0.0
 11
154.73165539106049
 21
291.0011654674179
 31
0.0
  0
LINE
  5
27B
330
17
100
AcDbEntity
  8
FP-Stair
100
AcDbLine
 10
154.73165539106049
 20
290.00116746741674
 30
0.0
 11
155.48165539106049
 21
290.00116746741674
 31
0.0
  0
LINE
  5
27C
330
17
100
AcDbEntity
  8
FP-Stair
100
AcDbLine
 10
155.48165539106049
 20
290.0011674676223
 30
0.0
 11
155.48165539106049
 21
148.0019493748689
 31
0.0
  0
LINE
  5
27D
330
17
100
AcDbEntity
  8
FP-Proposed Wall
 62
1
100
AcDbLine
 10
155.48165539106049
 20
248.00227399961045
 30
0.0
 11
172.38498904765584
 21
248.00229379502593
 31
0.0
  0
LINE
  5
27E
330
17
100
AcDbEntity
  8
FP-Hatch
100
AcDbLine
 10
155.48165539106049
 20
249.00142766414547
 30
0.0
 11
173.1349879262816
 21
249.00231866595232
 31
-9.094947017729282e-13
  0
LINE
  5
27F
330
17
100
AcDbEntity
  8
FP-Hatch
100
AcDbLine
 10
155.48165539106049
 20
249.25142766416616
 30
0.0
 11
173.5531563398763
 21
249.2514276641666
 31
0.0
  0
LINE
  5
280
330
17
100
AcDbEntity
  8
FP-Stair
100
AcDbLine
 10
155.48165539106049
 20
250.00227399961068
 30
0.0
 11
172.38498680498742
 21
250.00227315673783
 31
0.0
  0
LINE
  5
281
330
17
100
AcDbEntity
  8
FP-Hatch
100
AcDbLine
 10
161.75901895057905
 20
250.0022592432515
 30
0.0
 11
161.75897409665777
 21
290.0022592559426
 31
0.0
  0
LWPOLYLINE
  5
282
330
17
100
AcDbEntity
  8
EL-Trim
 62
8
100
AcDbPolyline
 90
2
 70
0
 10
161.75901895057905
 20
250.0022592432515
 10
161.75901895057177
 20
250.00226124325036
  0
LWPOLYLINE
  5
283
330
17
100
AcDbEntity
  8
EL-Trim
 62
8
100
AcDbPolyline
 90
2
 70
0
 10
161.76080289484526
 20
248.0022632452483
 10
161.76091502926283
 20
148.00226125725658
  0
LINE
  5
284
330
17
100
AcDbEntity
  8
EL-Trim
 62
8
100
AcDbLine
 10
162.51080289484526
 20
248.00226408625622
 30
0.0
 11
161.76080289484526
 21
248.0022632452483
 31
0.0
  0
LINE
  5
285
330
17
100
AcDbEntity
  8
EL-Trim
 62
8
100
AcDbLine
 10
162.50902119326202
 20
248.00226008426125
 30
0.0
 11
162.50902007192053
 21
249.00226008426125
 31
0.0
  0
LINE
  5
286
330
17
100
AcDbEntity
  8
EL-Trim
 62
8
100
AcDbLine
 10
162.5107557978481
 20
290.0022996300768
 30
0.0
 11
162.51075467650662
 21
291.00229963007496
 31
0.0
  0
LINE
  5
287
330
17
100
AcDbEntity
  8
EL-Trim
 62
8
100
AcDbLine
 10
162.5107997735031
 20
249.00226208625554
 30
0.0
 11
162.69952977350476
 21
249.00226229788586
 31
0.0
  0
LINE
  5
288
330
17
100
AcDbEntity
  8
EL-Trim
 62
8
100
AcDbLine
 10
163.05917315975967
 20
249.72693613007414
 30
0.0
 11
162.5108006521623
 21
250.00226208625554
 31
0.0
  0
LINE
  5
289
330
17
100
AcDbEntity
  8
EL-Trim
 62
8
100
AcDbLine
 10
163.75901895057905
 20
250.00226148593993
 30
0.0
 11
163.75897409681056
 21
290.00226149883474
 31
0.0
  0
LINE
  5
28A
330
17
100
AcDbEntity
  8
EL-Trim
 62
8
100
AcDbLine
 10
163.7590211932038
 20
248.00226348393244
 30
0.0
 11
163.7591333276141
 21
148.00226149696846
 31
0.0
  0
LINE
  5
28B
330
17
100
AcDbEntity
  8
EL-Trim
 62
8
100
AcDbLine
 10
164.50902119326202
 20
248.00226232694968
 30
0.0
 11
164.50902007192053
 21
249.00226232694968
 31
0.0
  0
LINE
  5
28C
330
17
100
AcDbEntity
  8
EL-Trim
 62
8
100
AcDbLine
 10
164.51075579835742
 20
290.0023018727634
 30
0.0
 11
164.51075467701594
 21
291.0023018727634
 31
0.0
  0
LINE
  5
28D
330
17
100
AcDbEntity
  8
EL-Trim
 62
8
100
AcDbLine
 10
164.5107997735031
 20
249.00226432894215
 30
0.0
 11
164.69952977350476
 21
249.0022645405743
 31
0.0
  0
LINE
  5
28E
330
17
100
AcDbEntity
  8
EL-Trim
 62
8
100
AcDbLine
 10
165.05917315975967
 20
249.72693837276256
 30
0.0
 11
164.5108006521623
 21
250.00226432894397
 31
0.0
  0
LWPOLYLINE
  5
28F
330
17
100
AcDbEntity
  8
FP-Proposed Wall
100
AcDbPolyline
 90
2
 70
0
 10
171.38764244472623
 20
125.50203992476759
 10
171.38764917278968
 20
119.50203992477122
  0
LINE
  5
290
330
17
100
AcDbEntity
  8
FP-Proposed Wall
100
AcDbLine
 10
172.38764244472986
 20
125.50204104611998
 30
0.0
 11
171.38764244472623
 21
125.50203992476759
 31
0.0
  0
LINE
  5
291
330
17
100
AcDbEntity
  8
FP-Hatch
100
AcDbLine
 10
202.36503056851143
 20
121.00234365066012
 30
-24.50159259517907
 11
171.3876474900062
 21
121.00272510656305
 31
-24.50159259517907
  0
LINE
  5
292
330
17
100
AcDbEntity
  8
FP-Footing
100
AcDbLine
 10
171.3876673030245
 20
119.5011043379302
 30
0.0
 11
171.3876673030245
 21
8.001104337928382
 31
0.0
  0
LINE
  5
293
330
17
100
AcDbEntity
  8
FP-Proposed Wall
100
AcDbLine
 10
172.38498680498742
 20
250.00227315673783
 30
0.0
 11
172.3849419512262
 21
290.0022711589327
 31
0.0
  0
LINE
  5
294
330
17
100
AcDbEntity
  8
FP-Proposed Wall
100
AcDbLine
 10
173.13498680498742
 20
250.00227399962478
 30
0.0
 11
172.38498680498742
 21
250.00227315673783
 31
0.0
  0
LINE
  5
295
330
17
100
AcDbEntity
  8
FP-Proposed Wall
100
AcDbLine
 10
173.1349890476704
 20
248.0022739996266
 30
0.0
 11
172.38498904765584
 21
248.00229379502593
 31
0.0
  0
LINE
  5
296
330
17
100
AcDbEntity
  8
FP-Proposed Wall
100
AcDbLine
 10
172.3851011820807
 20
148.0022731697054
 30
0.0
 11
172.38498904767766
 21
248.00227315674147
 31
0.0
  0
LINE
  5
297
330
17
100
AcDbEntity
  8
FP-Proposed Wall
100
AcDbLine
 10
173.1349473440423
 20
290.00231568691834
 30
0.0
 11
172.38503912301894
 21
290.0025527677733
 31
0.0
  0
LINE
  5
298
330
17
100
AcDbEntity
  8
FP-Proposed Wall
100
AcDbLine
 10
172.38764244472986
 20
125.50204104611998
 30
0.0
 11
172.3876250639005
 21
141.0020410461218
 31
0.0
  0
LINE
  5
299
330
17
100
AcDbEntity
  8
FP-Proposed Wall
100
AcDbLine
 10
172.3876250639005
 20
141.0020410461218
 30
0.0
 11
173.42588173272088
 21
141.00203819936087
 31
0.0
  0
LINE
  5
29A
330
17
100
AcDbEntity
  8
FP-Hatch
100
AcDbLine
 10
172.3876306706734
 20
136.00199294922504
 30
-1.8189894035458565e-12
 11
182.38763515697428
 21
136.00234244773833
 31
0.0
  0
LINE
  5
29B
330
17
100
AcDbEntity
  8
FP-Proposed Wall
 62
1
100
AcDbLine
 10
172.38763235210718
 20
134.50251152597002
 30
0.0
 11
192.38763431557163
 21
134.50234113087959
 31
0.0
  0
LINE
  5
29C
330
17
100
AcDbEntity
  8
FP-Hatch
100
AcDbLine
 10
172.38763908038527
 20
128.50232002087478
 30
0.0
 11
192.38762758750818
 21
128.50234244773833
 31
0.0
  0
LINE
  5
29D
330
17
100
AcDbEntity
  8
FP-Proposed Wall
 62
1
100
AcDbLine
 10
172.38764076225561
 20
127.00244839985703
 30
-9.132572917228579
 11
202.38762758750818
 21
127.00234244773833
 31
-8.881784197001252e-14
  0
LINE
  5
29E
330
17
100
AcDbEntity
  8
FP-Proposed Wall
100
AcDbLine
 10
173.1349473440423
 20
290.00231568691834
 30
0.0
 11
173.13494622270082
 21
291.0023156869165
 31
0.0
  0
LWPOLYLINE
  5
29F
330
17
100
AcDbEntity
  8
FP-Proposed Wall
100
AcDbPolyline
 90
2
 70
0
 10
173.13494622270082
 20
291.0023156869165
 10
173.323674266976
 20
291.00246496647173
  0
LINE
  5
2A0
330
17
100
AcDbEntity
  8
FP-Proposed Wall
100
AcDbLine
 10
173.13498592632823
 20
249.00227399962296
 30
0.0
 11
173.3237159263299
 21
249.00227421125328
 31
0.0
  0
LINE
  5
2A1
330
17
100
AcDbEntity
  8
FP-Proposed Wall
100
AcDbLine
 10
173.6833593125848
 20
249.72694804344155
 30
0.0
 11
173.13498680498742
 21
250.00227399962478
 31
0.0
  0
LINE
  5
2A2
330
17
100
AcDbEntity
  8
FP-Proposed Wall
100
AcDbLine
 10
173.1349890476704
 20
248.0022739996266
 30
0.0
 11
173.1349879263289
 21
249.00227399962478
 31
0.0
  0
LINE
  5
2A3
330
17
100
AcDbEntity
  8
FP-Proposed Wall
100
AcDbLine
 10
173.42587949002336
 20
143.00204221036415
 30
0.0
 11
173.4258817327136
 21
141.00204221036597
 31
0.0
  0
LINE
  5
2A4
330
17
100
AcDbEntity
  8
FP-Proposed Wall
 62
1
100
AcDbLine
 10
173.42588061090646
 20
142.00245668379625
 30
-1.8189894035458565e-12
 11
182.41025236015412
 21
142.00234124481563
 31
0.0
  0
LINE
  5
2A5
330
17
100
AcDbEntity
  8
FP-Footing
100
AcDbLine
 10
177.3876673030245
 20
8.001104337928382
 30
0.0
 11
177.3876673030245
 21
0.0011043379283819377
 31
0.0
  0
LWPOLYLINE
  5
2A6
330
17
100
AcDbEntity
  8
FP-Proposed Wall
 62
1
100
AcDbPolyline
 90
2
 70
0
 10
182.38763515697428
 20
136.00234244773833
 10
182.38762237805713
 20
134.50242632851814
  0
LWPOLYLINE
  5
2A7
330
17
100
AcDbEntity
  8
FP-Proposed Wall
 62
1
100
AcDbPolyline
 90
4
 70
0
 10
182.38763515697428
 20
136.00234244773833
 10
184.38763515697428
 20
136.00234244773833
 10
184.38763515697428
 20
142.00234124481563
 10
182.41025236015412
 20
142.00234124481563
  0
LWPOLYLINE
  5
2A8
330
17
100
AcDbEntity
  8
FP-Proposed Wall
 62
1
100
AcDbPolyline
 90
4
 70
0
 10
192.36503056851143
 20
128.50234233380138
 10
194.36503056851143
 20
128.50234233380138
 10
194.36503056851143
 20
134.50234113087868
 10
192.38764777169126
 20
134.50234113087868
  0
LWPOLYLINE
  5
2A9
330
17
100
AcDbEntity
  8
FP-Proposed Wall
 62
1
100
AcDbPolyline
 90
2
 70
0
 10
192.3876410436278
 20
128.50234233380138
 10
192.3876410436278
 20
127.00237776507925
  0
LWPOLYLINE
  5
2AA
330
17
100
AcDbEntity
  8
FP-Proposed Wall
 62
1
100
AcDbPolyline
 90
2
 70
0
 38
-24.50159259517907
 10
202.3876410436278
 20
121.00234353673818
 10
202.36503056851143
 20
119.50234365178835
  0
LWPOLYLINE
  5
2AB
330
17
100
AcDbEntity
  8
FP-Proposed Wall
 62
1
100
AcDbPolyline
 90
4
 70
0
 38
-24.50159259517907
 10
202.36503056851143
 20
121.00234365066012
 10
204.36503056851143
 20
121.00234365066012
 10
204.36503056851143
 20
127.00234244773742
 10
202.38764777169126
 20
127.00234244773742
  0
ENDSEC
  0
SECTION
  2
OBJECTS
  0
DICTIONARY
  5
A
330
0
100
AcDbDictionary
280
0
281
1
  3
ACAD_COLOR
350
B
  3
ACAD_GROUP
350
C
  3
ACAD_LAYOUT
350
D
  3
ACAD_MATERIAL
350
E
  3
ACAD_MLEADERSTYLE
350
F
  3
ACAD_MLINESTYLE
350
10
  3
ACAD_PLOTSETTINGS
350
11
  3
ACAD_PLOTSTYLENAME
350
12
  3
ACAD_SCALELIST
350
14
  3
ACAD_TABLESTYLE
350
15
  3
ACAD_VISUALSTYLE
350
16
  3
EZDXF_META
350
2D
  0
DICTIONARY
  5
B
330
A
100
AcDbDictionary
280
0
281
1
  0
DICTIONARY
  5
C
330
A
100
AcDbDictionary
280
0
281
1
  0
DICTIONARY
  5
D
330
A
100
AcDbDictionary
280
0
281
1
  3
Model
350
1A
  3
Layout1
350
1E
  0
DICTIONARY
  5
E
330
A
100
AcDbDictionary
280
0
281
1
  3
ByBlock
350
1F
  3
ByLayer
350
20
  3
Global
350
21
  0
DICTIONARY
  5
F
330
A
100
AcDbDictionary
280
0
281
1
  3
Standard
350
2C
  0
DICTIONARY
  5
10
330
A
100
AcDbDictionary
280
0
281
1
  3
Standard
350
22
  0
DICTIONARY
  5
11
330
A
100
AcDbDictionary
280
0
281
1
  0
ACDBDICTIONARYWDFLT
  5
12
330
A
100
AcDbDictionary
280
0
281
1
  3
Normal
350
13
100
AcDbDictionaryWithDefault
340
13
  0
ACDBPLACEHOLDER
  5
13
330
12
  0
DICTIONARY
  5
14
330
A
100
AcDbDictionary
280
0
281
1
  0
DICTIONARY
  5
15
330
A
100
AcDbDictionary
280
0
281
1
  0
DICTIONARY
  5
16
330
A
100
AcDbDictionary
280
0
281
1
  0
LAYOUT
  5
1A
330
D
100
AcDbPlotSettings
  1

  2
Adobe PDF
  4
A3
  6

 40
7.5
 41
20.0
 42
7.5
 43
20.0
 44
420.0
 45
297.0
 46
0.0
 47
0.0
 48
0.0
 49
0.0
140
0.0
141
0.0
142
1.0
143
1.0
 70
1024
 72
1
 73
0
 74
5
  7

 75
16
 76
0
 77
2
 78
300
147
1.0
148
0.0
149
0.0
100
AcDbLayout
  1
Model
 70
1
 71
0
 10
0.0
 20
0.0
 11
420.0
 21
297.0
 12
0.0
 22
0.0
 32
0.0
 14
1e+20
 24
1e+20
 34
1e+20
 15
-1e+20
 25
-1e+20
 35
-1e+20
146
0.0
 13
0.0
 23
0.0
 33
0.0
 16
1.0
 26
0.0
 36
0.0
 17
0.0
 27
1.0
 37
0.0
 76
1
330
17
  0
LAYOUT
  5
1E
330
D
100
AcDbPlotSettings
  1

  2
Adobe PDF
  4
A3
  6

 40
7.5
 41
20.0
 42
7.5
 43
20.0
 44
420.0
 45
297.0
 46
0.0
 47
0.0
 48
0.0
 49
0.0
140
0.0
141
0.0
142
1.0
143
1.0
 70
0
 72
1
 73
0
 74
5
  7

 75
16
 76
0
 77
2
 78
300
147
1.0
148
0.0
149
0.0
100
AcDbLayout
  1
Layout1
 70
1
 71
1
 10
0.0
 20
0.0
 11
420.0
 21
297.0
 12
0.0
 22
0.0
 32
0.0
 14
1e+20
 24
1e+20
 34
1e+20
 15
-1e+20
 25
-1e+20
 35
-1e+20
146
0.0
 13
0.0
 23
0.0
 33
0.0
 16
1.0
 26
0.0
 36
0.0
 17
0.0
 27
1.0
 37
0.0
 76
1
330
1B
  0
MATERIAL
  5
1F
102
{ACAD_REACTORS
330
E
102
}
330
E
100
AcDbMaterial
  1
ByBlock
  2

 70
0
 40
1.0
 71
1
 41
1.0
 91
-1023410177
 42
1.0
 72
1
  3

 73
1
 74
1
 75
1
 44
0.5
 73
0
 45
1.0
 46
1.0
 77
1
  4

 78
1
 79
1
170
1
 48
1.0
171
1
  6

172
1
173
1
174
1
140
1.0
141
1.0
175
1
  7

176
1
177
1
178
1
143
1.0
179
1
  8

270
1
271
1
272
1
145
1.0
146
1.0
273
1
  9

274
1
275
1
276
1
 42
1.0
 72
1
  3

 73
1
 74
1
 75
1
 94
63
  0
MATERIAL
  5
20
102
{ACAD_REACTORS
330
E
102
}
330
E
100
AcDbMaterial
  1
ByLayer
  2

 70
0
 40
1.0
 71
1
 41
1.0
 91
-1023410177
 42
1.0
 72
1
  3

 73
1
 74
1
 75
1
 44
0.5
 73
0
 45
1.0
 46
1.0
 77
1
  4

 78
1
 79
1
170
1
 48
1.0
171
1
  6

172
1
173
1
174
1
140
1.0
141
1.0
175
1
  7

176
1
177
1
178
1
143
1.0
179
1
  8

270
1
271
1
272
1
145
1.0
146
1.0
273
1
  9

274
1
275
1
276
1
 42
1.0
 72
1
  3

 73
1
 74
1
 75
1
 94
63
  0
MATERIAL
  5
21
102
{ACAD_REACTORS
330
E
102
}
330
E
100
AcDbMaterial
  1
Global
  2

 70
0
 40
1.0
 71
1
 41
1.0
 91
-1023410177
 42
1.0
 72
1
  3

 73
1
 74
1
 75
1
 44
0.5
 73
0
 45
1.0
 46
1.0
 77
1
  4

 78
1
 79
1
170
1
 48
1.0
171
1
  6

172
1
173
1
174
1
140
1.0
141
1.0
175
1
  7

176
1
177
1
178
1
143
1.0
179
1
  8

270
1
271
1
272
1
145
1.0
146
1.0
273
1
  9

274
1
275
1
276
1
 42
1.0
 72
1
  3

 73
1
 74
1
 75
1
 94
63
  0
MLINESTYLE
  5
22
102
{ACAD_REACTORS
330
10
102
}
330
10
100
AcDbMlineStyle
  2
Standard
 70
0
  3

 62
256
 51
90.0
 52
90.0
 71
2
 49
0.5
 62
256
  6
BYLAYER
 49
-0.5
 62
256
  6
BYLAYER
  0
MLEADERSTYLE
  5
2C
102
{ACAD_REACTORS
330
F
102
}
330
F
100
AcDbMLeaderStyle
179
2
170
2
171
1
172
0
 90
2
 40
0.0
 41
0.0
173
1
 91
-1056964608
 92
-2
290
1
 42
2.0
291
1
 43
8.0
  3
Standard
 44
4.0
300

342
29
174
1
175
1
176
0
178
1
 93
-1056964608
 45
4.0
292
0
297
0
 46
4.0
 94
-1056964608
 47
1.0
 49
1.0
140
1.0
294
1
141
0.0
177
0
142
1.0
295
0
296
0
143
3.75
271
0
272
9
273
9
  0
DICTIONARY
  5
2D
330
A
100
AcDbDictionary
281
1
  3
CREATED_BY_EZDXF
350
2E
  3
WRITTEN_BY_EZDXF
350
2AE
  0
DICTIONARYVAR
  5
2E
330
2D
100
DictionaryVariables
280
0
  1
1.1.4 @ 2024-01-22T17:45:52.487368+00:00
  0
DICTIONARYVAR
  5
2AE
330
2D
100
DictionaryVariables
280
0
  1
1.1.4 @ 2024-01-22T17:45:59.490118+00:00
  0
ENDSEC
  0
EOF
