  0
SECTION
  2
HEADER
  9
$ACADVER
  1
AC1027
  9
$ACADMAINTVER
 70
105
  9
$DWGCODEPAGE
  3
ANSI_1252
  9
$LASTSAVEDBY
  1
ezdxf
  9
$REQUIREDVERSIONS
160
0
  9
$INSBASE
 10
0.0
 20
0.0
 30
0.0
  9
$EXTMIN
 10
1e+20
 20
1e+20
 30
1e+20
  9
$EXTMAX
 10
-1e+20
 20
-1e+20
 30
-1e+20
  9
$LIMMIN
 10
0.0
 20
0.0
  9
$LIMMAX
 10
420.0
 20
297.0
  9
$ORTHOMODE
 70
0
  9
$REGENMODE
 70
1
  9
$FILLMODE
 70
1
  9
$QTEXTMODE
 70
0
  9
$MIRRTEXT
 70
1
  9
$LTSCALE
 40
1.0
  9
$ATTMODE
 70
1
  9
$TEXTSIZE
 40
2.5
  9
$TRACEWID
 40
1.0
  9
$TEXTSTYLE
  7
Standard
  9
$CLAYER
  8
0
  9
$CELTYPE
  6
ByLayer
  9
$CECOLOR
 62
256
  9
$CELTSCALE
 40
1.0
  9
$DISPSILH
 70
0
  9
$DIMSCALE
 40
1.0
  9
$DIMASZ
 40
2.5
  9
$DIMEXO
 40
0.625
  9
$DIMDLI
 40
3.75
  9
$DIMRND
 40
0.0
  9
$DIMDLE
 40
0.0
  9
$DIMEXE
 40
1.25
  9
$DIMTP
 40
0.0
  9
$DIMTM
 40
0.0
  9
$DIMTXT
 40
2.5
  9
$DIMCEN
 40
2.5
  9
$DIMTSZ
 40
0.0
  9
$DIMTOL
 70
0
  9
$DIMLIM
 70
0
  9
$DIMTIH
 70
0
  9
$DIMTOH
 70
0
  9
$DIMSE1
 70
0
  9
$DIMSE2
 70
0
  9
$DIMTAD
 70
1
  9
$DIMZIN
 70
8
  9
$DIMBLK
  1

  9
$DIMASO
 70
1
  9
$DIMSHO
 70
1
  9
$DIMPOST
  1

  9
$DIMAPOST
  1

  9
$DIMALT
 70
0
  9
$DIMALTD
 70
3
  9
$DIMALTF
 40
0.03937007874
  9
$DIMLFAC
 40
1.0
  9
$DIMTOFL
 70
1
  9
$DIMTVP
 40
0.0
  9
$DIMTIX
 70
0
  9
$DIMSOXD
 70
0
  9
$DIMSAH
 70
0
  9
$DIMBLK1
  1

  9
$DIMBLK2
  1

  9
$DIMSTYLE
  2
ISO-25
  9
$DIMCLRD
 70
0
  9
$DIMCLRE
 70
0
  9
$DIMCLRT
 70
0
  9
$DIMTFAC
 40
1.0
  9
$DIMGAP
 40
0.625
  9
$DIMJUST
 70
0
  9
$DIMSD1
 70
0
  9
$DIMSD2
 70
0
  9
$DIMTOLJ
 70
0
  9
$DIMTZIN
 70
8
  9
$DIMALTZ
 70
0
  9
$DIMALTTZ
 70
0
  9
$DIMUPT
 70
0
  9
$DIMDEC
 70
2
  9
$DIMTDEC
 70
2
  9
$DIMALTU
 70
2
  9
$DIMALTTD
 70
3
  9
$DIMTXSTY
  7
Standard
  9
$DIMAUNIT
 70
0
  9
$DIMADEC
 70
0
  9
$DIMALTRND
 40
0.0
  9
$DIMAZIN
 70
0
  9
$DIMDSEP
 70
44
  9
$DIMATFIT
 70
3
  9
$DIMFRAC
 70
0
  9
$DIMLDRBLK
  1

  9
$DIMLUNIT
 70
2
  9
$DIMLWD
 70
-2
  9
$DIMLWE
 70
-2
  9
$DIMTMOVE
 70
0
  9
$DIMFXL
 40
1.0
  9
$DIMFXLON
 70
0
  9
$DIMJOGANG
 40
0.785398163397
  9
$DIMTFILL
 70
0
  9
$DIMTFILLCLR
 70
0
  9
$DIMARCSYM
 70
0
  9
$DIMLTYPE
  6

  9
$DIMLTEX1
  6

  9
$DIMLTEX2
  6

  9
$DIMTXTDIRECTION
 70
0
  9
$LUNITS
 70
2
  9
$LUPREC
 70
4
  9
$SKETCHINC
 40
1.0
  9
$FILLETRAD
 40
10.0
  9
$AUNITS
 70
0
  9
$AUPREC
 70
2
  9
$MENU
  1
.
  9
$ELEVATION
 40
0.0
  9
$PELEVATION
 40
0.0
  9
$THICKNESS
 40
0.0
  9
$LIMCHECK
 70
0
  9
$CHAMFERA
 40
0.0
  9
$CHAMFERB
 40
0.0
  9
$CHAMFERC
 40
0.0
  9
$CHAMFERD
 40
0.0
  9
$SKPOLY
 70
0
  9
$TDCREATE
 40
2460299.996006944
  9
$TDUCREATE
 40
2458532.153996898
  9
$TDUPDATE
 40
2460299.996006944
  9
$TDUUPDATE
 40
2458532.1544311
  9
$TDINDWG
 40
0.0
  9
$TDUSRTIMER
 40
0.0
  9
$USRTIMER
 70
1
  9
$ANGBASE
 50
0.0
  9
$ANGDIR
 70
0
  9
$PDMODE
 70
0
  9
$PDSIZE
 40
0.0
  9
$PLINEWID
 40
0.0
  9
$SPLFRAME
 70
0
  9
$SPLINETYPE
 70
6
  9
$SPLINESEGS
 70
8
  9
$HANDSEED
  5
2AF
  9
$SURFTAB1
 70
6
  9
$SURFTAB2
 70
6
  9
$SURFTYPE
 70
6
  9
$SURFU
 70
6
  9
$SURFV
 70
6
  9
$UCSBASE
  2

  9
$UCSNAME
  2

  9
$UCSORG
 10
0.0
 20
0.0
 30
0.0
  9
$UCSXDIR
 10
1.0
 20
0.0
 30
0.0
  9
$UCSYDIR
 10
0.0
 20
1.0
 30
0.0
  9
$UCSORTHOREF
  2

  9
$UCSORTHOVIEW
 70
0
  9
$UCSORGTOP
 10
0.0
 20
0.0
 30
0.0
  9
$UCSORGBOTTOM
 10
0.0
 20
0.0
 30
0.0
  9
$UCSORGLEFT
 10
0.0
 20
0.0
 30
0.0
  9
$UCSORGRIGHT
 10
0.0
 20
0.0
 30
0.0
  9
$UCSORGFRONT
 10
0.0
 20
0.0
 30
0.0
  9
$UCSORGBACK
 10
0.0
 20
0.0
 30
0.0
  9
$PUCSBASE
  2

  9
$PUCSNAME
  2

  9
$PUCSORG
 10
0.0
 20
0.0
 30
0.0
  9
$PUCSXDIR
 10
1.0
 20
0.0
 30
0.0
  9
$PUCSYDIR
 10
0.0
 20
1.0
 30
0.0
  9
$PUCSORTHOREF
  2

  9
$PUCSORTHOVIEW
 70
0
  9
$PUCSORGTOP
 10
0.0
 20
0.0
 30
0.0
  9
$PUCSORGBOTTOM
 10
0.0
 20
0.0
 30
0.0
  9
$PUCSORGLEFT
 10
0.0
 20
0.0
 30
0.0
  9
$PUCSORGRIGHT
 10
0.0
 20
0.0
 30
0.0
  9
$PUCSORGFRONT
 10
0.0
 20
0.0
 30
0.0
  9
$PUCSORGBACK
 10
0.0
 20
0.0
 30
0.0
  9
$USERI1
 70
0
  9
$USERI2
 70
0
  9
$USERI3
 70
0
  9
$USERI4
 70
0
  9
$USERI5
 70
0
  9
$USERR1
 40
0.0
  9
$USERR2
 40
0.0
  9
$USERR3
 40
0.0
  9
$USERR4
 40
0.0
  9
$USERR5
 40
0.0
  9
$WORLDVIEW
 70
1
  9
$SHADEDGE
 70
3
  9
$SHADEDIF
 70
70
  9
$TILEMODE
 70
1
  9
$MAXACTVP
 70
64
  9
$PINSBASE
 10
0.0
 20
0.0
 30
0.0
  9
$PLIMCHECK
 70
0
  9
$PEXTMIN
 10
1e+20
 20
1e+20
 30
1e+20
  9
$PEXTMAX
 10
-1e+20
 20
-1e+20
 30
-1e+20
  9
$PLIMMIN
 10
0.0
 20
0.0
  9
$PLIMMAX
 10
420.0
 20
297.0
  9
$UNITMODE
 70
0
  9
$VISRETAIN
 70
1
  9
$PLINEGEN
 70
0
  9
$PSLTSCALE
 70
1
  9
$TREEDEPTH
 70
3020
  9
$CMLSTYLE
  2
Standard
  9
$CMLJUST
 70
0
  9
$CMLSCALE
 40
20.0
  9
$PROXYGRAPHICS
 70
1
  9
$MEASUREMENT
 70
1
  9
$CELWEIGHT
370
-1
  9
$ENDCAPS
280
0
  9
$JOINSTYLE
280
0
  9
$LWDISPLAY
290
0
  9
$INSUNITS
 70
6
  9
$HYPERLINKBASE
  1

  9
$STYLESHEET
  1

  9
$XEDIT
290
1
  9
$CEPSNTYPE
380
0
  9
$PSTYLEMODE
290
1
  9
$FINGERPRINTGUID
  2
{4EB10B8C-5572-436E-99BB-A73785CFA144}
  9
$VERSIONGUID
  2
{89433692-505B-4B65-9ABF-895E76306212}
  9
$EXTNAMES
290
1
  9
$PSVPSCALE
 40
0.0
  9
$OLESTARTUP
290
0
  9
$SORTENTS
280
127
  9
$INDEXCTL
280
0
  9
$HIDETEXT
280
1
  9
$XCLIPFRAME
280
0
  9
$HALOGAP
280
0
  9
$OBSCOLOR
 70
257
  9
$OBSLTYPE
280
0
  9
$INTERSECTIONDISPLAY
280
0
  9
$INTERSECTIONCOLOR
 70
257
  9
$DIMASSOC
280
2
  9
$PROJECTNAME
  1

  9
$CAMERADISPLAY
290
0
  9
$LENSLENGTH
 40
50.0
  9
$CAMERAHEIGHT
 40
0.0
  9
$STEPSPERSEC
 40
24.0
  9
$STEPSIZE
 40
100.0
  9
$3DDWFPREC
 40
2.0
  9
$PSOLWIDTH
 40
0.005
  9
$PSOLHEIGHT
 40
0.08
  9
$LOFTANG1
 40
1.570796326795
  9
$LOFTANG2
 40
1.570796326795
  9
$LOFTMAG1
 40
0.0
  9
$LOFTMAG2
 40
0.0
  9
$LOFTPARAM
 70
7
  9
$LOFTNORMALS
280
1
  9
$LATITUDE
 40
37.795
  9
$LONGITUDE
 40
-122.394
  9
$NORTHDIRECTION
 40
0.0
  9
$TIMEZONE
 70
-8000
  9
$LIGHTGLYPHDISPLAY
280
1
  9
$TILEMODELIGHTSYNCH
280
1
  9
$CMATERIAL
347
20
  9
$SOLIDHIST
280
0
  9
$SHOWHIST
280
1
  9
$DWFFRAME
280
2
  9
$DGNFRAME
280
2
  9
$REALWORLDSCALE
290
1
  9
$INTERFERECOLOR
 62
256
  9
$CSHADOW
280
0
  9
$SHADOWPLANELOCATION
 40
0.0
  0
ENDSEC
  0
SECTION
  2
CLASSES
  0
CLASS
  1
ACDBDICTIONARYWDFLT
  2
AcDbDictionaryWithDefault
  3
ObjectDBX Classes
 90
0
 91
0
280
0
281
0
  0
CLASS
  1
SUN
  2
AcDbSun
  3
SCENEOE
 90
1153
 91
0
280
0
281
0
  0
CLASS
  1
VISUALSTYLE
  2
AcDbVisualStyle
  3
ObjectDBX Classes
 90
4095
 91
0
280
0
281
0
  0
CLASS
  1
MATERIAL
  2
AcDbMaterial
  3
ObjectDBX Classes
 90
1153
 91
0
280
0
281
0
  0
CLASS
  1
SCALE
  2
AcDbScale
  3
ObjectDBX Classes
 90
1153
 91
0
280
0
281
0
  0
CLASS
  1
TABLESTYLE
  2
AcDbTableStyle
  3
ObjectDBX Classes
 90
4095
 91
0
280
0
281
0
  0
CLASS
  1
MLEADERSTYLE
  2
AcDbMLeaderStyle
  3
ACDB_MLEADERSTYLE_CLASS
 90
4095
 91
0
280
0
281
0
  0
CLASS
  1
DICTIONARYVAR
  2
AcDbDictionaryVar
  3
ObjectDBX Classes
 90
0
 91
0
280
0
281
0
  0
CLASS
  1
CELLSTYLEMAP
  2
AcDbCellStyleMap
  3
ObjectDBX Classes
 90
1152
 91
0
280
0
281
0
  0
CLASS
  1
MENTALRAYRENDERSETTINGS
  2
AcDbMentalRayRenderSettings
  3
SCENEOE
 90
1024
 91
0
280
0
281
0
  0
CLASS
  1
ACDBDETAILVIEWSTYLE
  2
AcDbDetailViewStyle
  3
ObjectDBX Classes
 90
1025
 91
0
280
0
281
0
  0
CLASS
  1
ACDBSECTIONVIEWSTYLE
  2
AcDbSectionViewStyle
  3
ObjectDBX Classes
 90
1025
 91
0
280
0
281
0
  0
CLASS
  1
RASTERVARIABLES
  2
AcDbRasterVariables
  3
ISM
 90
0
 91
0
280
0
281
0
  0
CLASS
  1
LAYOUT
  2
AcDbLayout
  3
ObjectDBX Classes
 90
0
 91
0
280
0
281
0
  0
CLASS
  1
ACDBPLACEHOLDER
  2
AcDbPlaceHolder
  3
ObjectDBX Classes
 90
0
 91
0
280
0
281
0
  0
ENDSEC
  0
SECTION
  2
TABLES
  0
TABLE
  2
VPORT
  5
8
330
0
100
AcDbSymbolTable
 70
1
  0
VPORT
  5
23
330
8
100
AcDbSymbolTableRecord
100
AcDbViewportTableRecord
  2
*Active
 70
0
 10
0.0
 20
0.0
 11
1.0
 21
1.0
 12
0.0
 22
0.0
 13
0.0
 23
0.0
 14
0.5
 24
0.5
 15
0.5
 25
0.5
 16
0.0
 26
0.0
 36
1.0
 17
0.0
 27
0.0
 37
0.0
 40
1000.0
 41
1.34
 42
50.0
 43
0.0
 44
0.0
 50
0.0
 51
0.0
 71
0
 72
1000
 73
1
 74
3
 75
0
 76
0
 77
0
 78
0
281
0
 65
0
146
0.0
  0
ENDTAB
  0
TABLE
  2
LTYPE
  5
2
330
0
100
AcDbSymbolTable
 70
3
  0
LTYPE
  5
24
330
2
100
AcDbSymbolTableRecord
100
AcDbLinetypeTableRecord
  2
ByBlock
 70
0
  3

 72
65
 73
0
 40
0.0
  0
LTYPE
  5
25
330
2
100
AcDbSymbolTableRecord
100
AcDbLinetypeTableRecord
  2
ByLayer
 70
0
  3

 72
65
 73
0
 40
0.0
  0
LTYPE
  5
26
330
2
100
AcDbSymbolTableRecord
100
AcDbLinetypeTableRecord
  2
Continuous
 70
0
  3

 72
65
 73
0
 40
0.0
  0
ENDTAB
  0
TABLE
  2
LAYER
  5
1
330
0
100
AcDbSymbolTable
 70
2
  0
LAYER
  5
27
330
1
100
AcDbSymbolTableRecord
100
AcDbLayerTableRecord
  2
0
 70
0
 62
7
  6
Continuous
370
-3
390
13
347
21
  0
LAYER
  5
28
330
1
100
AcDbSymbolTableRecord
100
AcDbLayerTableRecord
  2
Defpoints
 70
0
 62
7
  6
Continuous
290
0
370
-3
390
13
347
21
  0
ENDTAB
  0
TABLE
  2
STYLE
  5
5
330
0
100
AcDbSymbolTable
 70
1
  0
STYLE
  5
29
330
5
100
AcDbSymbolTableRecord
100
AcDbTextStyleTableRecord
  2
Standard
 70
0
 40
0.0
 41
1.0
 50
0.0
 71
0
 42
2.5
  3
txt
  4

  0
ENDTAB
  0
TABLE
  2
VIEW
  5
7
330
0
100
AcDbSymbolTable
 70
0
  0
ENDTAB
  0
TABLE
  2
UCS
  5
6
330
0
100
AcDbSymbolTable
 70
0
  0
ENDTAB
  0
TABLE
  2
APPID
  5
3
330
0
100
AcDbSymbolTable
 70
3
  0
APPID
  5
2A
330
3
100
AcDbSymbolTableRecord
100
AcDbRegAppTableRecord
  2
ACAD
 70
0
  0
APPID
  5
2AC
330
3
100
AcDbSymbolTableRecord
100
AcDbRegAppTableRecord
  2
HATCHBACKGROUNDCOLOR
 70
0
  0
APPID
  5
2AD
330
3
100
AcDbSymbolTableRecord
100
AcDbRegAppTableRecord
  2
EZDXF
 70
0
  0
ENDTAB
  0
TABLE
  2
DIMSTYLE
  5
4
330
0
100
AcDbSymbolTable
 70
1
100
AcDbDimStyleTable
  0
DIMSTYLE
105
2B
330
4
100
AcDbSymbolTableRecord
100
AcDbDimStyleTableRecord
  2
Standard
 70
0
 40
1.0
 41
2.5
 42
0.625
 43
3.75
 44
1.25
 45
0.0
 46
0.0
 47
0.0
 48
0.0
 49
2.5
140
2.5
141
2.5
142
0.0
143
0.03937007874
144
1.0
145
0.0
146
1.0
147
0.625
148
0.0
 69
0
 70
0
 71
0
 72
0
 73
0
 74
0
 75
0
 76
0
 77
1
 78
8
 79
3
170
0
171
3
172
1
173
0
174
0
175
0
176
0
177
0
178
0
179
2
271
2
272
2
273
2
274
3
275
0
276
0
277
2
278
44
279
0
280
0
281
0
282
0
283
0
284
8
285
0
286
0
288
0
289
3
290
0
371
-2
372
-2
  0
ENDTAB
  0
TABLE
  2
BLOCK_RECORD
  5
9
330
0
100
AcDbSymbolTable
 70
2
  0
BLOCK_RECORD
  5
17
330
9
100
AcDbSymbolTableRecord
100
AcDbBlockTableRecord
  2
*Model_Space
340
1A
 70
0
280
1
281
0
  0
BLOCK_RECORD
  5
1B
330
9
100
AcDbSymbolTableRecord
100
AcDbBlockTableRecord
  2
*Paper_Space
340
1E
 70
0
280
1
281
0
  0
ENDTAB
  0
ENDSEC
  0
SECTION
  2
BLOCKS
  0
BLOCK
  5
18
330
17
100
AcDbEntity
  8
0
100
AcDbBlockBegin
  2
*Model_Space
 70
0
 10
0.0
 20
0.0
 30
0.0
  3
*Model_Space
  1

  0
ENDBLK
  5
19
330
17
100
AcDbEntity
  8
0
100
AcDbBlockEnd
  0
BLOCK
  5
1C
330
1B
100
AcDbEntity
  8
0
100
AcDbBlockBegin
  2
*Paper_Space
 70
0
 10
0.0
 20
0.0
 30
0.0
  3
*Paper_Space
  1

  0
ENDBLK
  5
1D
330
1B
100
AcDbEntity
  8
0
100
AcDbBlockEnd
  0
ENDSEC
  0
SECTION
  2
ENTITIES
  0
LINE
  5
2F
330
17
100
AcDbEntity
  8
FP-Proposed Wall
 62
1
100
AcDbLine
 10
18161.57000613274
 20
-1624.6604779421605
 30
8.253141918996574
 11
18160.570006132693
 21
-1624.6604826623707
 31
8.253141918996574
  0
LINE
  5
30
330
17
100
AcDbEntity
  8
FP-Proposed Wall
 62
1
100
AcDbLine
 10
18160.57000697372
 20
-1623.9104644075142
 30
8.253141918996572
 11
18160.570006132715
 21
-1624.6604644075142
 31
8.253141918996572
  0
LINE
  5
31
330
17
100
AcDbEntity
  8
FP-Proposed Wall
 62
1
100
AcDbLine
 10
18160.57000697372
 20
-1623.9104644075142
 30
8.253141918996572
 11
18179.320054903797
 21
-1623.910485432771
 31
9.094947017729282e-13
  0
LINE
  5
32
330
17
100
AcDbEntity
  8
FP-Proposed Wall
 62
1
100
AcDbLine
 10
18177.81918825437
 20
-1741.9107368763082
 30
0.0
 11
18161.1646987859
 21
-1741.9118087469838
 31
-12.218747285821806
  0
LINE
  5
33
330
17
100
AcDbEntity
  8
EL-Trim
 62
8
100
AcDbLine
 10
18161.57000613274
 20
-1624.6604779421605
 30
8.253141918996574
 11
18179.320054062784
 21
-1624.6604978460755
 31
-4.547473508864641e-12
  0
LINE
  5
34
330
17
100
AcDbEntity
  8
FP-Footing
100
AcDbLine
 10
18162.317376281877
 20
-1881.9127835421255
 30
-12.218747285821806
 11
18162.317376281877
 21
-1889.9127835421255
 31
-12.218747285821806
  0
LINE
  5
35
330
17
100
AcDbEntity
  8
FP-Footing
100
AcDbLine
 10
18162.317376281877
 20
-1889.9127835421255
 30
-12.218747285821806
 11
18542.322704004226
 21
-1889.9127835421255
 31
2.2737367544323206e-13
  0
LINE
  5
36
330
17
100
AcDbEntity
  8
FP-Footing
100
AcDbLine
 10
18162.317376281877
 20
-1881.9127835421255
 30
-12.218747285821806
 11
18542.322704004226
 21
-1881.9127835421255
 31
2.2737367544323206e-13
  0
LINE
  5
37
330
17
100
AcDbEntity
  8
FP-Proposed Wall
 62
1
100
AcDbLine
 10
18163.695003749854
 20
-1626.7854679117117
 30
8.253141918996572
 11
18163.695003189183
 21
-1627.2854679117117
 31
8.253141918996572
  0
LINE
  5
38
330
17
100
AcDbEntity
  8
EL-Trim
 62
8
100
AcDbLine
 10
18163.69500489959
 20
-1626.785467911713
 30
8.593445095553601
 11
18179.32005167996
 21
-1626.785467911713
 31
0.0
  0
LINE
  5
39
330
17
100
AcDbEntity
  8
FP-Proposed Wall
 62
1
100
AcDbLine
 10
18165.570001367
 20
-1628.9104700142307
 30
8.253141918996572
 11
18166.570001367
 21
-1628.9104711355758
 31
8.253141918996572
  0
LINE
  5
3A
330
17
100
AcDbEntity
  8
FP-Proposed Wall
 62
1
100
AcDbLine
 10
18166.27914596574
 20
-1746.9118092627564
 30
-12.218747285821806
 11
18165.81918433615
 21
-1746.9118087469817
 31
-12.218747285821806
  0
LWPOLYLINE
  5
3B
330
17
100
AcDbEntity
  8
FP-Proposed Wall
 62
1
100
AcDbPolyline
 90
2
 70
0
 38
-12.218747285821806
 10
18165.81918433615
 20
-1746.911808746982
 10
18165.819189942864
 20
-1741.9118087469838
  0
LINE
  5
3C
330
17
100
AcDbEntity
  8
FP-Proposed Wall
 62
1
100
AcDbLine
 10
18166.021616524617
 20
-1640.1857990917506
 30
8.253141918996572
 11
18166.569989032214
 21
-1639.9104731355674
 31
8.253141918996572
  0
LINE
  5
3D
330
17
100
AcDbEntity
  8
FP-Hatch
100
AcDbLine
 10
18178.152303961626
 20
-1640.6613558779725
 30
0.0
 11
18166.152256031524
 21
-1640.6613558779725
 31
8.253141918996572
  0
LINE
  5
3E
330
17
100
AcDbEntity
  8
FP-Proposed Wall
 62
1
100
AcDbLine
 10
18167.31740039186
 20
-1748.9118104269987
 30
-12.218747285821806
 11
18166.279143723048
 21
-1748.9118092627546
 31
-12.218747285821806
  0
LINE
  5
3F
330
17
100
AcDbEntity
  8
FP-Proposed Wall
 62
1
100
AcDbLine
 10
18166.27914596574
 20
-1746.9118092627564
 30
-12.218747285821806
 11
18166.279143723048
 21
-1748.9118092627546
 31
-12.218747285821806
  0
LINE
  5
40
330
17
100
AcDbEntity
  8
FP-Hatch
100
AcDbLine
 10
18166.27914596573
 20
-1746.9118144820472
 30
-12.218747285821806
 11
18177.81918264765
 21
-1746.9107368763064
 31
0.0
  0
LINE
  5
41
330
17
100
AcDbEntity
  8
FP-Proposed Wall
 62
1
100
AcDbLine
 10
18166.569989910873
 20
-1640.9104731355692
 30
8.253141918996572
 11
18166.38125991087
 21
-1640.9104729239389
 31
8.253141918996572
  0
LINE
  5
42
330
17
100
AcDbEntity
  8
FP-Proposed Wall
 62
1
100
AcDbLine
 10
18166.569986789524
 20
-1641.9104731355656
 30
8.253141918996572
 11
18166.569987910872
 21
-1640.9104731355674
 31
8.253141918996572
  0
LINE
  5
43
330
17
100
AcDbEntity
  8
FP-Proposed Wall
 62
1
100
AcDbLine
 10
18167.319986789524
 20
-1641.9104739784507
 30
8.253141918996572
 11
18166.569986789695
 21
-1641.9103204743067
 31
8.253141918996572
  0
LINE
  5
44
330
17
100
AcDbEntity
  8
FP-Hatch
100
AcDbLine
 10
18178.381307725867
 20
-1640.910712545142
 30
2.8698883482764663
 11
18166.569987909883
 21
-1640.911355877967
 31
8.253141918996572
  0
LINE
  5
45
330
17
100
AcDbEntity
  8
FP-Proposed Wall
 62
1
100
AcDbLine
 10
18167.319989032207
 20
-1639.9104739784543
 30
8.253141918996572
 11
18166.569989032214
 21
-1639.9104731355674
 31
8.253141918996572
  0
LINE
  5
46
330
17
100
AcDbEntity
  8
FP-Proposed Wall
 62
1
100
AcDbLine
 10
18166.570001367
 20
-1628.9104711355758
 30
8.253141918996572
 11
18166.569989032214
 21
-1639.9104731355674
 31
8.253141918996572
  0
LINE
  5
47
330
17
100
AcDbEntity
  8
EL-Trim
 62
8
100
AcDbLine
 10
18166.570001367
 20
-1628.9104711355758
 30
8.253141918996572
 11
18179.320049297097
 21
-1628.9104711355758
 31
0.0
  0
LINE
  5
48
330
17
100
AcDbEntity
  8
FP-Proposed Wall
 62
1
100
AcDbLine
 10
18167.32174989369
 20
-1639.9104802806683
 30
0.0
 11
18166.571814959447
 21
-1639.9104794397297
 31
0.0
  0
LINE
  5
49
330
17
100
AcDbEntity
  8
FP-Proposed Wall
 62
1
100
AcDbLine
 10
18167.31738301103
 20
-1764.4118104270005
 30
-12.218747285821806
 11
18167.31740039186
 21
-1748.9118104269987
 31
-12.218747285821806
  0
LINE
  5
4A
330
17
100
AcDbEntity
  8
FP-Proposed Wall
 62
1
100
AcDbLine
 10
18168.31738301229
 20
-1764.4106885350056
 30
-12.218747285821806
 11
18167.317383012294
 21
-1764.410687413662
 31
-12.218747285821802
  0
LWPOLYLINE
  5
4B
330
17
100
AcDbEntity
  8
FP-Hatch
100
AcDbPolyline
 90
2
 70
0
 38
-12.218747285821806
 10
18167.317400391854
 20
-1748.9118156462835
 10
18178.279142034586
 20
-1748.9107049248262
  0
LINE
  5
4C
330
17
100
AcDbEntity
  8
FP-Proposed Wall
 62
1
100
AcDbLine
 10
18167.319924273674
 20
-1741.9115783034151
 30
-12.218747285821806
 11
18167.31998678952
 21
-1641.9104739784507
 31
8.253141918996569
  0
LINE
  5
4D
330
17
100
AcDbEntity
  8
FP-Hatch
100
AcDbLine
 10
18178.570034719618
 20
-1641.910486593678
 30
-1.8189894035458565e-12
 11
18167.319986789524
 21
-1641.9104739784507
 31
8.253141918996572
  0
LINE
  5
4E
330
17
100
AcDbEntity
  8
FP-Proposed Wall
 62
1
100
AcDbLine
 10
18178.570036962315
 20
-1639.9104731355674
 30
0.0
 11
18167.319989032207
 21
-1639.9104739784543
 31
8.253141918996572
  0
LINE
  5
4F
330
17
100
AcDbEntity
  8
FP-Footing
100
AcDbLine
 10
18168.317376281877
 20
-1770.4127835421236
 30
-12.218747285821806
 11
18168.317376281873
 21
-1881.9127835421255
 31
-12.218747285821806
  0
LWPOLYLINE
  5
50
330
17
100
AcDbEntity
  8
FP-Proposed Wall
 62
1
100
AcDbPolyline
 90
2
 70
0
 38
-12.218747285821806
 10
18168.31738301103
 20
-1764.411811548353
 10
18168.31737628297
 20
-1770.4118115483493
  0
LWPOLYLINE
  5
51
330
17
100
AcDbEntity
  8
FP-Hatch
100
AcDbPolyline
 90
2
 70
0
 38
-12.218747285821806
 10
18168.31738301229
 20
-1764.4106885350056
 10
18179.31738132257
 20
-1764.4107060890722
  0
LINE
  5
52
330
17
100
AcDbEntity
  8
EL-Trim
 62
8
100
AcDbLine
 10
18171.316597856916
 20
-1623.9104534805983
 30
8.253141918996572
 11
18171.31659701591
 21
-1624.6604534805965
 31
8.253141918996572
  0
LINE
  5
53
330
17
100
AcDbEntity
  8
EL-Trim
 62
8
100
AcDbLine
 10
18173.316597857425
 20
-1623.910455723285
 30
8.253141918996572
 11
18173.31659701642
 21
-1624.660455723285
 31
8.253141918996572
  0
LINE
  5
54
330
17
100
AcDbEntity
  8
EL-Trim
 62
8
100
AcDbLine
 10
18173.31919613658
 20
-1626.7854557262008
 30
8.253141918996572
 11
18173.31919557591
 21
-1627.2854557262008
 31
8.253141918996572
  0
LINE
  5
55
330
17
100
AcDbEntity
  8
FP-Footing
100
AcDbLine
 10
18174.31737459342
 20
-1881.911679204197
 30
0.0
 11
18174.31737459342
 21
-1889.911679204197
 31
0.0
  0
LINE
  5
56
330
17
100
AcDbEntity
  8
FP-Hatch
100
AcDbLine
 10
18174.647634838577
 20
-1640.1857920890568
 30
-1.7763568394002505e-15
 11
18175.196007346174
 21
-1639.9104661328754
 31
-1.7763568394002505e-15
  0
LINE
  5
57
330
17
100
AcDbEntity
  8
EL-Trim
 62
8
100
AcDbLine
 10
18174.694193753727
 20
-1628.9104572680471
 30
8.253141918996572
 11
18175.194193753727
 21
-1628.9104578287197
 31
8.253141918996572
  0
LINE
  5
58
330
17
100
AcDbEntity
  8
FP-Hatch
100
AcDbLine
 10
18175.196008224833
 20
-1640.9104661328772
 30
-1.7763568394002505e-15
 11
18175.00727822483
 21
-1640.910465921245
 31
-1.7763568394002505e-15
  0
LINE
  5
59
330
17
100
AcDbEntity
  8
EL-Trim
 62
8
100
AcDbLine
 10
18175.194193753727
 20
-1628.9104578287197
 30
8.253141918996572
 11
18175.194181418934
 21
-1639.9104598287113
 31
8.253141918996572
  0
LINE
  5
5A
330
17
100
AcDbEntity
  8
FP-Hatch
100
AcDbLine
 10
18175.196005103484
 20
-1641.9104661328736
 30
-1.7763568394002505e-15
 11
18175.196006224833
 21
-1640.9104661328736
 31
-1.7763568394002505e-15
  0
LINE
  5
5B
330
17
100
AcDbEntity
  8
EL-Trim
 62
8
100
AcDbLine
 10
18175.31919613709
 20
-1626.7854579688892
 30
8.253141918996572
 11
18175.31919557642
 21
-1627.2854579688892
 31
8.253141918996572
  0
LINE
  5
5C
330
17
100
AcDbEntity
  8
FP-Hatch
100
AcDbLine
 10
18175.94422340196
 20
-1641.9104629738947
 30
-1.7763568394002505e-15
 11
18175.94411126755
 21
-1741.9104649608587
 31
-1.7763568394002505e-15
  0
LINE
  5
5D
330
17
100
AcDbEntity
  8
FP-Hatch
100
AcDbLine
 10
18176.647634838577
 20
-1640.1857943317452
 30
-1.7763568394002505e-15
 11
18177.196007346174
 21
-1639.9104683755638
 31
-1.7763568394002505e-15
  0
LINE
  5
5E
330
17
100
AcDbEntity
  8
EL-Trim
 62
8
100
AcDbLine
 10
18176.694193754236
 20
-1628.9104595107356
 30
8.253141918996572
 11
18177.194193754236
 21
-1628.9104600714081
 31
8.253141918996572
  0
LINE
  5
5F
330
17
100
AcDbEntity
  8
FP-Hatch
100
AcDbLine
 10
18177.196008224833
 20
-1640.9104683755638
 30
-1.7763568394002505e-15
 11
18177.00727822483
 21
-1640.9104681639335
 31
-1.7763568394002505e-15
  0
LINE
  5
60
330
17
100
AcDbEntity
  8
EL-Trim
 62
8
100
AcDbLine
 10
18177.194193754236
 20
-1628.9104600714081
 30
8.253141918996572
 11
18177.194181419443
 21
-1639.9104620713997
 31
8.253141918996572
  0
LINE
  5
61
330
17
100
AcDbEntity
  8
FP-Hatch
100
AcDbLine
 10
18177.1942234019
 20
-1641.910466373566
 30
-1.7763568394002505e-15
 11
18177.194224523242
 21
-1640.910466373566
 31
-1.7763568394002505e-15
  0
LINE
  5
62
330
17
100
AcDbEntity
  8
FP-Hatch
100
AcDbLine
 10
18177.19600510349
 20
-1641.9104663755631
 30
-1.7763568394002505e-15
 11
18177.94600510349
 21
-1641.910467216571
 31
-1.7763568394002505e-15
  0
LWPOLYLINE
  5
63
330
17
100
AcDbEntity
  8
FP-Proposed Wall
100
AcDbPolyline
 90
4
 70
0
 10
18178.27914427724
 20
-1746.9107373920808
 10
18177.81918264765
 20
-1746.9107368763064
 10
18177.81918825437
 20
-1741.9107368763082
 10
18355.687679138944
 20
-1741.9109996362072
  0
LWPOLYLINE
  5
64
330
17
100
AcDbEntity
  8
FP-Proposed Wall
100
AcDbPolyline
 90
5
 70
0
 10
18178.279142034586
 20
-1748.6103677200676
 10
18178.27914453392
 20
-1746.910117638962
 10
18177.819182648345
 20
-1746.9101171231866
 10
18177.819188253383
 20
-1741.9116160774379
 10
18179.319922585215
 20
-1741.9104739654867
  0
LWPOLYLINE
  5
65
330
17
100
AcDbEntity
  8
FP-Hatch
100
AcDbPolyline
 90
2
 70
0
 10
18177.9442234019
 20
-1641.910465214575
 10
18177.94411126749
 20
-1741.9104672025667
  0
LWPOLYLINE
  5
66
330
17
100
AcDbEntity
  8
FP-Hatch
100
AcDbPolyline
 90
2
 70
0
 10
18177.944225644584
 20
-1639.9104672145756
 10
18177.94422564459
 20
-1639.9104652145768
  0
LINE
  5
67
330
17
100
AcDbEntity
  8
FP-Proposed Wall
100
AcDbLine
 10
18178.021664454718
 20
-1640.1857990917506
 30
0.0
 11
18178.570036962315
 21
-1639.9104731355674
 31
0.0
  0
LINE
  5
68
330
17
100
AcDbEntity
  8
FP-Hatch
100
AcDbLine
 10
18196.221986453893
 20
-1640.6613558779718
 30
0.0
 11
18178.152303961626
 21
-1640.6613558779725
 31
0.0
  0
LINE
  5
69
330
17
100
AcDbEntity
  8
FP-Proposed Wall
100
AcDbLine
 10
18178.279144277276
 20
-1746.910704924828
 30
0.0
 11
18178.279142034586
 21
-1748.9107049248262
 31
0.0
  0
LINE
  5
6A
330
17
100
AcDbEntity
  8
FP-Proposed Wall
100
AcDbLine
 10
18178.279142034586
 20
-1748.9107049248262
 30
0.0
 11
18179.3173987034
 21
-1748.9107049248262
 31
0.0
  0
LINE
  5
6B
330
17
100
AcDbEntity
  8
FP-Hatch
100
AcDbLine
 10
18357.686788288127
 20
-1746.9103813646434
 30
0.0
 11
18178.279144277934
 21
-1746.9101176389615
 31
0.0
  0
LINE
  5
6C
330
17
100
AcDbEntity
  8
FP-Proposed Wall
100
AcDbLine
 10
18178.570037840975
 20
-1640.9104731355692
 30
0.0
 11
18178.381307840973
 21
-1640.9104729239389
 31
0.0
  0
LWPOLYLINE
  5
6D
330
17
100
AcDbEntity
  8
FP-Proposed Wall
100
AcDbPolyline
 90
2
 70
0
 10
18178.570077544602
 20
-1598.9104314482756
 10
18178.381349500323
 20
-1598.9102821687204
  0
LINE
  5
6E
330
17
100
AcDbEntity
  8
FP-Proposed Wall
100
AcDbLine
 10
18178.570034719625
 20
-1641.9104731355656
 30
0.0
 11
18178.570035840974
 21
-1640.9104731355674
 31
0.0
  0
LINE
  5
6F
330
17
100
AcDbEntity
  8
FP-Proposed Wall
100
AcDbLine
 10
18179.320034719625
 20
-1641.9104739784507
 30
0.0
 11
18178.570034719796
 21
-1641.9103204743067
 31
0.0
  0
LINE
  5
70
330
17
100
AcDbEntity
  8
FP-Hatch
100
AcDbLine
 10
18196.221986453893
 20
-1640.9113558779677
 30
0.0
 11
18178.570035839984
 21
-1640.911355877967
 31
0.0
  0
LINE
  5
71
330
17
100
AcDbEntity
  8
FP-Proposed Wall
100
AcDbLine
 10
18179.32003696231
 20
-1639.9104739784543
 30
0.0
 11
18178.570036962315
 21
-1639.9104731355674
 31
0.0
  0
LINE
  5
72
330
17
100
AcDbEntity
  8
FP-Proposed Wall
100
AcDbLine
 10
18179.32008181468
 20
-1599.9117227536337
 30
0.0
 11
18178.5700764218
 21
-1599.9117253771344
 31
0.0
  0
LINE
  5
73
330
17
100
AcDbEntity
  8
FP-Proposed Wall
100
AcDbLine
 10
18178.570076423253
 20
-1599.9104314482738
 30
0.0
 11
18178.570077544602
 21
-1598.9104314482756
 31
0.0
  0
LINE
  5
74
330
17
100
AcDbEntity
  8
FP-Hatch
100
AcDbLine
 10
18178.570077544602
 20
-1598.9104314482756
 30
0.0
 11
18538.069982923902
 21
-1598.910467855209
 31
0.0
  0
LINE
  5
75
330
17
100
AcDbEntity
  8
FP-Proposed Wall
100
AcDbLine
 10
18179.31738132257
 20
-1764.4107060890722
 30
0.0
 11
18179.3173987034
 21
-1748.9107060890703
 31
0.0
  0
LINE
  5
76
330
17
100
AcDbEntity
  8
FP-Proposed Wall
100
AcDbLine
 10
18179.31738132257
 20
-1764.4107060890722
 30
0.0
 11
18180.31738132323
 21
-1764.4101196874358
 31
0.0
  0
LINE
  5
77
330
17
100
AcDbEntity
  8
FP-Stair
100
AcDbLine
 10
18262.30605172983
 20
-1748.9112039634829
 30
0.0
 11
18179.31739870214
 21
-1748.9118291024292
 31
0.0
  0
LINE
  5
78
330
17
100
AcDbEntity
  8
FP-Proposed Wall
100
AcDbLine
 10
18179.319922585215
 20
-1741.9104739654867
 30
0.0
 11
18179.320034719625
 21
-1641.9104739784507
 31
0.0
  0
LINE
  5
79
330
17
100
AcDbEntity
  8
FP-Proposed Wall
 62
1
100
AcDbLine
 10
18196.221986453893
 20
-1641.91032848475
 30
0.0
 11
18179.320034719625
 21
-1641.9104739784507
 31
0.0
  0
LINE
  5
7A
330
17
100
AcDbEntity
  8
FP-Stair
100
AcDbLine
 10
18196.221986453893
 20
-1639.9105095425025
 30
0.0
 11
18179.32003696231
 21
-1639.9104739784543
 31
0.0
  0
LINE
  5
7B
330
17
100
AcDbEntity
  8
FP-Proposed Wall
100
AcDbLine
 10
18179.32003696231
 20
-1639.9104739784543
 30
0.0
 11
18179.320081816077
 21
-1599.9104759762595
 31
0.0
  0
LINE
  5
7C
330
17
100
AcDbEntity
  8
FP-Proposed Wall
 62
1
100
AcDbLine
 10
18537.32007582422
 20
-1599.9102307743522
 30
0.0
 11
18179.32008181468
 21
-1599.9117227536337
 31
0.0
  0
LINE
  5
7D
330
17
100
AcDbEntity
  8
FP-Footing
100
AcDbLine
 10
18180.31737459342
 20
-1770.4116792041953
 30
0.0
 11
18180.31737459342
 21
-1881.911679204197
 31
0.0
  0
LWPOLYLINE
  5
7E
330
17
100
AcDbEntity
  8
FP-Proposed Wall
100
AcDbPolyline
 90
2
 70
0
 10
18180.317381322573
 20
-1764.4107072104246
 10
18180.31737459451
 20
-1770.410707210421
  0
LINE
  5
7F
330
17
100
AcDbEntity
  8
FP-Stair
100
AcDbLine
 10
18238.328656317895
 20
-1764.4102309463192
 30
0.0
 11
18180.31738132323
 21
-1764.4101196874358
 31
0.0
  0
LINE
  5
80
330
17
100
AcDbEntity
  8
FP-Hatch
100
AcDbLine
 10
18186.647632309126
 20
-1640.1858107644257
 30
0.0
 11
18187.196004816724
 21
-1639.9104848082443
 31
0.0
  0
LINE
  5
81
330
17
100
AcDbEntity
  8
FP-Hatch
100
AcDbLine
 10
18187.196005695383
 20
-1640.910484808246
 30
0.0
 11
18187.00727569538
 21
-1640.910484596614
 31
0.0
  0
LINE
  5
82
330
17
100
AcDbEntity
  8
EL-Trim
 62
8
100
AcDbLine
 10
18187.194267968945
 20
-1599.9104452624288
 30
0.0
 11
18187.194269090287
 21
-1598.9104452624288
 31
0.0
  0
LINE
  5
83
330
17
100
AcDbEntity
  8
FP-Hatch
100
AcDbLine
 10
18187.196002574034
 20
-1641.9104848082425
 30
0.0
 11
18187.196003695382
 21
-1640.9104848082425
 31
0.0
  0
LINE
  5
84
330
17
100
AcDbEntity
  8
FP-Hatch
100
AcDbLine
 10
18187.94422087251
 20
-1641.9104816492636
 30
0.0
 11
18187.9441087381
 21
-1741.9104836362276
 31
0.0
  0
LINE
  5
85
330
17
100
AcDbEntity
  8
FP-Hatch
100
AcDbLine
 10
18187.944223115133
 20
-1639.9104836472561
 30
0.0
 11
18187.944267968902
 21
-1599.9104836343613
 31
0.0
  0
LINE
  5
86
330
17
100
AcDbEntity
  8
FP-Hatch
100
AcDbLine
 10
18188.647632309126
 20
-1640.1858130071141
 30
0.0
 11
18189.196004816724
 21
-1639.9104870509327
 31
0.0
  0
LINE
  5
87
330
17
100
AcDbEntity
  8
FP-Hatch
100
AcDbLine
 10
18189.196005695383
 20
-1640.9104870509327
 30
0.0
 11
18189.00727569538
 21
-1640.9104868393024
 31
0.0
  0
LINE
  5
88
330
17
100
AcDbEntity
  8
FP-Hatch
100
AcDbLine
 10
18189.19422087245
 20
-1641.9104850489348
 30
0.0
 11
18189.194221993792
 21
-1640.9104850489348
 31
0.0
  0
LINE
  5
89
330
17
100
AcDbEntity
  8
EL-Trim
 62
8
100
AcDbLine
 10
18189.194267969455
 20
-1599.9104475051154
 30
0.0
 11
18189.194269090796
 21
-1598.9104475051172
 31
0.0
  0
LINE
  5
8A
330
17
100
AcDbEntity
  8
FP-Hatch
100
AcDbLine
 10
18189.19600257404
 20
-1641.910485050932
 30
0.0
 11
18189.94600257404
 21
-1641.91048589194
 31
0.0
  0
LWPOLYLINE
  5
8B
330
17
100
AcDbEntity
  8
FP-Hatch
100
AcDbPolyline
 90
2
 70
0
 10
18189.94422087245
 20
-1641.9104838899439
 10
18189.94410873804
 20
-1741.9104858779356
  0
LWPOLYLINE
  5
8C
330
17
100
AcDbEntity
  8
FP-Hatch
100
AcDbPolyline
 90
2
 70
0
 10
18189.944223115133
 20
-1639.9104858899445
 10
18189.94422311514
 20
-1639.9104838899457
  0
LINE
  5
8D
330
17
100
AcDbEntity
  8
FP-Hatch
100
AcDbLine
 10
18189.944223115133
 20
-1639.9104858899445
 30
0.0
 11
18189.944267969055
 21
-1599.9104858772534
 31
0.0
  0
LINE
  5
8E
330
17
100
AcDbEntity
  8
FP-Stair
100
AcDbLine
 10
18196.221986453904
 20
-1741.910763760068
 30
0.0
 11
18196.221986453893
 21
-1599.9116160745032
 31
0.0
  0
LWPOLYLINE
  5
8F
330
17
100
AcDbEntity
  8
FP-Stair
100
AcDbPolyline
 90
2
 70
0
 10
18196.221986453893
 20
-1615.8136238788627
 10
18244.41797085105
 20
-1615.8136238788627
  0
LINE
  5
90
330
17
100
AcDbEntity
  8
FP-Stair
100
AcDbLine
 10
18196.971986453893
 20
-1599.9116160747087
 30
0.0
 11
18196.221986453893
 21
-1599.9116160747087
 31
0.0
  0
LINE
  5
91
330
17
100
AcDbEntity
  8
FP-Stair
100
AcDbLine
 10
18196.971984453892
 20
-1598.9116180747076
 30
0.0
 11
18197.160714453894
 21
-1598.9116180747076
 31
0.0
  0
LINE
  5
92
330
17
100
AcDbEntity
  8
FP-Stair
100
AcDbLine
 10
18196.971986453893
 20
-1599.9116180747076
 30
0.0
 11
18196.971986453893
 21
-1598.9116180747076
 31
0.0
  0
LWPOLYLINE
  5
93
330
17
100
AcDbEntity
  8
FP-Hatch
100
AcDbPolyline
 90
4
 70
0
 10
18198.221986453904
 20
-1741.9107666817715
 10
18198.221986453893
 20
-1617.8136238788627
 10
18242.41797085105
 20
-1617.8136238788627
 10
18242.41797085105
 20
-1741.910831245553
  0
LWPOLYLINE
  5
94
330
17
100
AcDbEntity
  8
FP-Hatch
100
AcDbPolyline
 90
4
 70
0
 10
18199.221986453904
 20
-1741.9107681426233
 10
18199.221986453893
 20
-1618.8136238788627
 10
18241.41797085105
 20
-1618.8136238788627
 10
18241.41797085105
 20
-1741.9108297847013
  0
LWPOLYLINE
  5
95
330
17
100
AcDbEntity
  8
FP-Proposed Wall
 62
1
100
AcDbPolyline
 90
5
 70
0
 10
18202.31995089752
 20
-1741.9107726682903
 10
18202.31997865247
 20
-1621.911616077439
 10
18238.31997865247
 20
-1621.911616077439
 10
18238.31995089752
 20
-1741.9107726682903
 10
18202.31995089752
 20
-1741.9107726682903
  0
LWPOLYLINE
  5
96
330
17
100
AcDbEntity
  8
FP-Hatch
100
AcDbPolyline
 90
6
 70
0
 10
18203.81997865247
 20
-1709.0472081001387
 10
18203.81997865247
 20
-1623.411616077439
 10
18236.81997865247
 20
-1623.411616077439
 10
18236.81995089752
 20
-1740.4107726682903
 10
18203.81995089752
 20
-1740.4107726682903
 10
18203.81997865247
 20
-1709.0472081001387
  0
LWPOLYLINE
  5
97
330
17
100
AcDbEntity
  8
FP-Hatch
100
AcDbPolyline
 90
6
 70
0
 10
18204.81997865247
 20
-1709.0472081001387
 10
18204.81997865247
 20
-1624.411616077439
 10
18235.81997865247
 20
-1624.411616077439
 10
18235.81995089752
 20
-1739.4107726682903
 10
18204.81995089752
 20
-1739.4107726682903
 10
18204.81997865247
 20
-1709.0472081001387
  0
LINE
  5
98
330
17
100
AcDbEntity
  8
FP-Hatch
100
AcDbLine
 10
18235.81997865247
 20
-1720.411616071451
 30
0.0
 11
18204.81997865247
 21
-1720.411616071451
 31
0.0
  0
LINE
  5
99
330
17
100
AcDbEntity
  8
FP-Hatch
100
AcDbLine
 10
18235.81997865247
 20
-1704.411616071451
 30
0.0
 11
18204.81997865247
 21
-1704.411616071451
 31
0.0
  0
LINE
  5
9A
330
17
100
AcDbEntity
  8
FP-Hatch
100
AcDbLine
 10
18235.81997865247
 20
-1688.411616071451
 30
0.0
 11
18204.81997865247
 21
-1688.411616071451
 31
0.0
  0
LINE
  5
9B
330
17
100
AcDbEntity
  8
FP-Hatch
100
AcDbLine
 10
18235.81997865247
 20
-1672.411616071451
 30
0.0
 11
18204.81997865247
 21
-1672.411616071451
 31
0.0
  0
LINE
  5
9C
330
17
100
AcDbEntity
  8
FP-Hatch
100
AcDbLine
 10
18235.81997865247
 20
-1656.411616071451
 30
0.0
 11
18204.81997865247
 21
-1656.411616071451
 31
0.0
  0
LINE
  5
9D
330
17
100
AcDbEntity
  8
FP-Hatch
100
AcDbLine
 10
18235.81997865247
 20
-1640.411616071451
 30
0.0
 11
18204.81997865247
 21
-1640.411616071451
 31
0.0
  0
LINE
  5
9E
330
17
100
AcDbEntity
  8
FP-Hatch
100
AcDbLine
 10
18220.31997865247
 20
-1624.411616077439
 30
0.0
 11
18220.31995089752
 21
-1739.4107726682903
 31
0.0
  0
LWPOLYLINE
  5
9F
330
17
100
AcDbEntity
  8
FP-Proposed Wall
100
AcDbPolyline
 90
4
 70
0
 10
18240.328656317895
 20
-1768.9107072115492
 10
18238.328656317895
 20
-1768.9107072115492
 10
18238.328656317895
 20
-1762.9107084144719
 10
18252.306039114716
 20
-1762.9107084144719
  0
LWPOLYLINE
  5
A0
330
17
100
AcDbEntity
  8
FP-Proposed Wall
100
AcDbPolyline
 90
2
 70
0
 10
18240.30604584278
 20
-1768.910707325471
 10
18240.328656317895
 20
-1770.410707210421
  0
LINE
  5
A1
330
17
100
AcDbEntity
  8
FP-Proposed Wall
 62
1
100
AcDbLine
 10
18240.328656317895
 20
-1768.9107072115492
 30
0.0
 11
18476.35361561552
 21
-1768.9107072115492
 31
0.0
  0
LINE
  5
A2
330
17
100
AcDbEntity
  8
FP-Stair
100
AcDbLine
 10
18243.66797285105
 20
-1598.9116180747076
 30
0.0
 11
18243.47924285105
 21
-1598.9116180747076
 31
0.0
  0
LINE
  5
A3
330
17
100
AcDbEntity
  8
FP-Stair
100
AcDbLine
 10
18243.66797085105
 20
-1599.9116180747076
 30
0.0
 11
18243.66797085105
 21
-1598.9116180747076
 31
0.0
  0
LINE
  5
A4
330
17
100
AcDbEntity
  8
FP-Stair
100
AcDbLine
 10
18243.66797085105
 20
-1599.9116160747087
 30
0.0
 11
18244.41797085105
 21
-1599.9116160747087
 31
0.0
  0
LINE
  5
A5
330
17
100
AcDbEntity
  8
FP-Stair
100
AcDbLine
 10
18244.41797085105
 20
-1599.9116160745032
 30
0.0
 11
18244.41797085105
 21
-1741.9108341672566
 31
0.0
  0
LINE
  5
A6
330
17
100
AcDbEntity
  8
FP-Proposed Wall
 62
1
100
AcDbLine
 10
18268.31869989368
 20
-1641.910409811563
 30
0.0
 11
18244.41797085105
 21
-1641.910382529082
 31
0.0
  0
LINE
  5
A7
330
17
100
AcDbEntity
  8
FP-Hatch
100
AcDbLine
 10
18244.41797085105
 20
-1640.9113558779725
 30
0.0
 11
18268.31869989368
 21
-1640.9113558779732
 31
0.0
  0
LINE
  5
A8
330
17
100
AcDbEntity
  8
FP-Hatch
100
AcDbLine
 10
18244.41797085105
 20
-1640.661355877967
 30
0.0
 11
18268.31869989368
 21
-1640.6613558779663
 31
0.0
  0
LINE
  5
A9
330
17
100
AcDbEntity
  8
FP-Stair
100
AcDbLine
 10
18244.41797085105
 20
-1639.9105095425073
 30
0.0
 11
18268.31869989368
 21
-1639.910509542508
 31
0.0
  0
LINE
  5
AA
330
17
100
AcDbEntity
  8
FP-Proposed Wall
100
AcDbLine
 10
18245.11959865245
 20
-1640.186160749269
 30
0.0
 11
18245.667970851315
 21
-1639.9108341781728
 31
0.0
  0
LINE
  5
AB
330
17
100
AcDbEntity
  8
FP-Proposed Wall
100
AcDbLine
 10
18245.667972851825
 20
-1598.9108361654569
 30
0.0
 11
18245.479242851823
 21
-1598.9108361654569
 31
0.0
  0
LINE
  5
AC
330
17
100
AcDbEntity
  8
FP-Proposed Wall
100
AcDbLine
 10
18245.667970851315
 20
-1641.9108341781728
 30
0.0
 11
18245.667970851315
 21
-1640.9108341781728
 31
0.0
  0
LINE
  5
AD
330
17
100
AcDbEntity
  8
FP-Proposed Wall
100
AcDbLine
 10
18245.667970851315
 20
-1641.910832178174
 30
0.0
 11
18246.417970851315
 21
-1641.910832178174
 31
0.0
  0
LINE
  5
AE
330
17
100
AcDbEntity
  8
FP-Proposed Wall
100
AcDbLine
 10
18245.667970851824
 20
-1599.9108361654569
 30
0.0
 11
18245.667970851824
 21
-1598.9108361654569
 31
0.0
  0
LINE
  5
AF
330
17
100
AcDbEntity
  8
FP-Proposed Wall
100
AcDbLine
 10
18245.667970851824
 20
-1599.910834165458
 30
0.0
 11
18246.417970851824
 21
-1599.910834165458
 31
0.0
  0
LWPOLYLINE
  5
B0
330
17
100
AcDbEntity
  8
FP-Proposed Wall
100
AcDbPolyline
 90
2
 70
0
 10
18246.417970851315
 20
-1641.910832178174
 10
18246.417970851315
 20
-1741.9108341662275
  0
LINE
  5
B1
330
17
100
AcDbEntity
  8
FP-Proposed Wall
100
AcDbLine
 10
18246.417970851315
 20
-1639.9108341781728
 30
0.0
 11
18246.417970851468
 21
-1599.910834165458
 31
0.0
  0
LINE
  5
B2
330
17
100
AcDbEntity
  8
FP-Hatch
100
AcDbLine
 10
18249.20981785056
 20
-1664.0937737123409
 30
0.0
 11
18249.27699792187
 21
-1664.0937737123409
 31
0.0
  0
LINE
  5
B3
330
17
100
AcDbEntity
  8
FP-Hatch
100
AcDbLine
 10
18249.213534880128
 20
-1664.0932818462345
 30
-0.07616669536480747
 11
18265.472895022758
 21
-1664.0932818462345
 31
-0.07616669536480747
  0
LINE
  5
B4
330
17
100
AcDbEntity
  8
FP-Hatch
100
AcDbLine
 10
18249.27699792187
 20
-1664.267741331128
 30
0.0
 11
18250.02699792187
 21
-1664.267741331128
 31
0.0
  0
LINE
  5
B5
330
17
100
AcDbEntity
  8
FP-Hatch
100
AcDbLine
 10
18249.27699792187
 20
-1664.267741331128
 30
0.0
 11
18249.27699792187
 21
-1664.0937737123409
 31
0.0
  0
LINE
  5
B6
330
17
100
AcDbEntity
  8
FP-Hatch
100
AcDbLine
 10
18249.27699792187
 20
-1664.0937737123409
 30
0.0
 11
18257.33949792187
 21
-1664.0937737123409
 31
0.0
  0
LINE
  5
B7
330
17
100
AcDbEntity
  8
FP-Hatch
100
AcDbLine
 10
18249.280714951437
 20
-1664.2672494650217
 30
-0.07616669536480747
 11
18265.40571495145
 21
-1664.2672494650217
 31
-0.07616669536480747
  0
LINE
  5
B8
330
17
100
AcDbEntity
  8
FP-Hatch
100
AcDbLine
 10
18249.280714951437
 20
-1664.2672494650217
 30
-0.07616669536480747
 11
18249.280714951437
 21
-1664.0932818462345
 31
-0.07616669536480747
  0
LINE
  5
B9
330
17
100
AcDbEntity
  8
FP-Hatch
100
AcDbLine
 10
18250.02699792187
 20
-1664.267741331128
 30
0.0
 11
18257.33949792187
 21
-1664.267741331128
 31
0.0
  0
LINE
  5
BA
330
17
100
AcDbEntity
  8
FP-Hatch
100
AcDbLine
 10
18250.21449792187
 20
-1664.455241331128
 30
0.0
 11
18257.33949792187
 21
-1664.455241331128
 31
0.0
  0
LINE
  5
BB
330
17
100
AcDbEntity
  8
FP-Hatch
100
AcDbLine
 10
18250.21449792187
 20
-1663.142741331128
 30
0.0
 11
18257.33949792187
 21
-1663.142741331128
 31
0.0
  0
LINE
  5
BC
330
17
100
AcDbEntity
  8
FP-Hatch
100
AcDbLine
 10
18250.21449792187
 20
-1663.142741331128
 30
0.0
 11
18250.21449792187
 21
-1662.767741331128
 31
0.0
  0
LINE
  5
BD
330
17
100
AcDbEntity
  8
FP-Hatch
100
AcDbLine
 10
18250.21449792187
 20
-1662.767741331128
 30
0.0
 11
18257.33949792187
 21
-1662.767741331128
 31
0.0
  0
LINE
  5
BE
330
17
100
AcDbEntity
  8
FP-Hatch
100
AcDbLine
 10
18250.214497921872
 20
-1665.392741331128
 30
0.0
 11
18250.364497921873
 21
-1665.392741331128
 31
0.0
  0
LINE
  5
BF
330
17
100
AcDbEntity
  8
FP-Hatch
100
AcDbLine
 10
18250.218214951437
 20
-1664.4547494650217
 30
-0.07616669536480747
 11
18264.46821495145
 21
-1664.4547494650217
 31
-0.07616669536480747
  0
LINE
  5
C0
330
17
100
AcDbEntity
  8
FP-Hatch
100
AcDbLine
 10
18250.218214951437
 20
-1663.1422494650217
 30
-0.07616669536480747
 11
18264.46821495145
 21
-1663.1422494650217
 31
-0.07616669536480747
  0
LINE
  5
C1
330
17
100
AcDbEntity
  8
FP-Hatch
100
AcDbLine
 10
18250.218214951437
 20
-1663.1422494650217
 30
-0.07616669536480747
 11
18250.218214951437
 21
-1662.7672494650217
 31
-0.07616669536480747
  0
LINE
  5
C2
330
17
100
AcDbEntity
  8
FP-Hatch
100
AcDbLine
 10
18250.218214951437
 20
-1662.7672494650217
 30
-0.07616669536480747
 11
18264.46821495145
 21
-1662.7672494650217
 31
-0.07616669536480747
  0
LINE
  5
C3
330
17
100
AcDbEntity
  8
FP-Hatch
100
AcDbLine
 10
18250.21821495144
 20
-1665.3922494650217
 30
-0.07616669536480747
 11
18264.46821495144
 21
-1665.3922494650217
 31
-0.07616669536480747
  0
LWPOLYLINE
  5
C4
330
17
100
AcDbEntity
  8
FP-Proposed Wall
100
AcDbPolyline
 90
4
 70
0
 38
24.501592026040623
 10
18252.328656317895
 20
-1761.410708528408
 10
18250.328656317895
 20
-1761.410708528408
 10
18250.328656317895
 20
-1755.4107097313306
 10
18264.306039114716
 20
-1755.4107097313306
  0
LINE
  5
C5
330
17
100
AcDbEntity
  8
FP-Hatch
100
AcDbLine
 10
18250.364497921873
 20
-1665.392741331128
 30
0.0
 11
18257.33949792187
 21
-1665.392741331128
 31
0.0
  0
LINE
  5
C6
330
17
100
AcDbEntity
  8
FP-Hatch
100
AcDbLine
 10
18250.70264044853
 20
-1665.580241331128
 30
0.0
 11
18250.551997921873
 21
-1665.580241331128
 31
0.0
  0
LINE
  5
C7
330
17
100
AcDbEntity
  8
FP-Hatch
100
AcDbLine
 10
18264.130714951447
 20
-1665.5797494650217
 30
-0.07616669536480747
 11
18250.555714951442
 21
-1665.5797494650217
 31
-0.07616669536480747
  0
LINE
  5
C8
330
17
100
AcDbEntity
  8
FP-Hatch
100
AcDbLine
 10
18250.70264044853
 20
-1665.580241331128
 30
0.0
 11
18257.339497921872
 21
-1665.580241331128
 31
0.0
  0
LINE
  5
C9
330
17
100
AcDbEntity
  8
FP-Hatch
100
AcDbLine
 10
18250.7845354038
 20
-1665.955241331128
 30
0.0
 11
18250.709512081958
 21
-1665.955241331128
 31
0.0
  0
LINE
  5
CA
330
17
100
AcDbEntity
  8
FP-Hatch
100
AcDbLine
 10
18257.15571495144
 20
-1665.9547494650217
 30
-0.07616669536480747
 11
18250.713229111527
 21
-1665.9547494650217
 31
-0.07616669536480747
  0
LINE
  5
CB
330
17
100
AcDbEntity
  8
FP-Hatch
100
AcDbLine
 10
18250.7845354038
 20
-1665.955241331128
 30
0.0
 11
18257.151997921872
 21
-1665.955241331128
 31
0.0
  0
LINE
  5
CC
330
17
100
AcDbEntity
  8
FP-Hatch
100
AcDbLine
 10
18250.974079374984
 20
-1666.030241331127
 30
0.0
 11
18256.889497921875
 21
-1666.030241331127
 31
0.0
  0
LINE
  5
CD
330
17
100
AcDbEntity
  8
FP-Hatch
100
AcDbLine
 10
18250.977796404553
 20
-1666.029749465022
 30
-0.07616669536480747
 11
18256.893214951444
 21
-1666.0297494650206
 31
-0.07616669536480747
  0
LWPOLYLINE
  5
CE
330
17
100
AcDbEntity
  8
FP-Proposed Wall
100
AcDbPolyline
 90
2
 70
0
 38
24.501592026040623
 10
18252.30604584278
 20
-1761.410708528408
 10
18252.328656317895
 20
-1762.9107084133577
  0
LINE
  5
CF
330
17
100
AcDbEntity
  8
FP-Proposed Wall
100
AcDbLine
 10
18464.3762328187
 20
-1762.9107084144719
 30
0.0
 11
18252.3060592989
 21
-1762.910708414471
 31
24.50159259517898
  0
LINE
  5
D0
330
17
100
AcDbEntity
  8
FP-Proposed Wall
 62
1
100
AcDbLine
 10
18464.35361561552
 20
-1761.410708528408
 30
24.501592026040623
 11
18252.3060592989
 21
-1761.410708414471
 31
24.50159259517898
  0
LINE
  5
D1
330
17
100
AcDbEntity
  8
FP-Hatch
100
AcDbLine
 10
18253.130899514756
 20
-1678.7719379484497
 30
0.0
 11
18253.198079586065
 21
-1678.771937948451
 31
0.0
  0
LINE
  5
D2
330
17
100
AcDbEntity
  8
FP-Hatch
100
AcDbLine
 10
18253.134616544325
 20
-1678.7714460823433
 30
-0.07616669536480747
 11
18261.55181335856
 21
-1678.7714460823433
 31
-0.07616669536480747
  0
LINE
  5
D3
330
17
100
AcDbEntity
  8
FP-Hatch
100
AcDbLine
 10
18253.198079586065
 20
-1678.8589217578433
 30
0.0
 11
18253.385579586065
 21
-1678.8589217578433
 31
0.0
  0
LINE
  5
D4
330
17
100
AcDbEntity
  8
FP-Hatch
100
AcDbLine
 10
18253.198079586065
 20
-1678.8589217578433
 30
0.0
 11
18253.198079586065
 21
-1678.7719379484497
 31
0.0
  0
LINE
  5
D5
330
17
100
AcDbEntity
  8
FP-Hatch
100
AcDbLine
 10
18253.198079586065
 20
-1678.771937948451
 30
0.0
 11
18257.33949792187
 21
-1678.771937948451
 31
0.0
  0
LINE
  5
D6
330
17
100
AcDbEntity
  8
FP-Hatch
100
AcDbLine
 10
18253.201796615635
 20
-1678.858429891737
 30
-0.07616669536480747
 11
18261.48463328725
 21
-1678.858429891737
 31
-0.07616669536480747
  0
LINE
  5
D7
330
17
100
AcDbEntity
  8
FP-Hatch
100
AcDbLine
 10
18253.201796615635
 20
-1678.858429891737
 30
-0.07616669536480747
 11
18253.201796615635
 21
-1678.7714460823433
 31
-0.07616669536480747
  0
LINE
  5
D8
330
17
100
AcDbEntity
  8
FP-Hatch
100
AcDbLine
 10
18253.385579586065
 20
-1678.8589217578433
 30
0.0
 11
18257.33949792187
 21
-1678.8589217578433
 31
0.0
  0
LINE
  5
D9
330
17
100
AcDbEntity
  8
FP-Hatch
100
AcDbLine
 10
18253.479329586065
 20
-1678.9526717578433
 30
0.0
 11
18254.222310421872
 21
-1678.9526717578433
 31
0.0
  0
LINE
  5
DA
330
17
100
AcDbEntity
  8
FP-Hatch
100
AcDbLine
 10
18253.483046615635
 20
-1678.952179891737
 30
-0.07616669536480747
 11
18261.20338328725
 21
-1678.952179891737
 31
-0.07616669536480747
  0
LINE
  5
DB
330
17
100
AcDbEntity
  8
FP-Hatch
100
AcDbLine
 10
18253.639297256457
 20
-1677.679496228559
 30
0.0
 11
18253.57185271904
 21
-1677.7123022397823
 31
0.0
  0
LINE
  5
DC
330
17
100
AcDbEntity
  8
FP-Hatch
100
AcDbLine
 10
18253.643014286026
 20
-1677.6790043624526
 30
-0.07616669536480747
 11
18253.57556974861
 21
-1677.711810373676
 31
-0.07616669536480747
  0
LINE
  5
DD
330
17
100
AcDbEntity
  8
FP-Hatch
100
AcDbLine
 10
18253.591144380414
 20
-1678.241996228559
 30
0.0
 11
18257.339497921872
 21
-1678.241996228559
 31
0.0
  0
LINE
  5
DE
330
17
100
AcDbEntity
  8
FP-Hatch
100
AcDbLine
 10
18253.591144380414
 20
-1678.241996228559
 30
0.0
 11
18253.591144380414
 21
-1678.054496228559
 31
0.0
  0
LINE
  5
DF
330
17
100
AcDbEntity
  8
FP-Hatch
100
AcDbLine
 10
18253.591144380414
 20
-1678.054496228559
 30
0.0
 11
18257.339497921872
 21
-1678.054496228559
 31
0.0
  0
LINE
  5
E0
330
17
100
AcDbEntity
  8
FP-Hatch
100
AcDbLine
 10
18253.594861409983
 20
-1678.2415043624526
 30
-0.07616669536480747
 11
18261.091568492906
 21
-1678.2415043624526
 31
-0.07616669536480747
  0
LINE
  5
E1
330
17
100
AcDbEntity
  8
FP-Hatch
100
AcDbLine
 10
18253.594861409983
 20
-1678.2415043624526
 30
-0.07616669536480747
 11
18253.594861409983
 21
-1678.0540043624526
 31
-0.07616669536480747
  0
LINE
  5
E2
330
17
100
AcDbEntity
  8
FP-Hatch
100
AcDbLine
 10
18253.594861409983
 20
-1678.0540043624526
 30
-0.07616669536480747
 11
18261.091568492906
 21
-1678.0540043624526
 31
-0.07616669536480747
  0
LINE
  5
E3
330
17
100
AcDbEntity
  8
FP-Hatch
100
AcDbLine
 10
18253.639297256457
 20
-1677.679496228559
 30
0.0
 11
18257.339497921872
 21
-1677.679496228559
 31
0.0
  0
LINE
  5
E4
330
17
100
AcDbEntity
  8
FP-Hatch
100
AcDbLine
 10
18253.643014286026
 20
-1677.6790043624526
 30
-0.07616669536480747
 11
18261.043415616856
 21
-1677.6790043624526
 31
-0.07616669536480747
  0
LINE
  5
E5
330
17
100
AcDbEntity
  8
FP-Hatch
100
AcDbLine
 10
18253.811322010803
 20
-1677.60449622856
 30
0.0
 11
18256.889497921868
 21
-1677.6044962285587
 31
0.0
  0
LINE
  5
E6
330
17
100
AcDbEntity
  8
FP-Hatch
100
AcDbLine
 10
18253.81503904037
 20
-1677.6040043624537
 30
-0.07616669536480747
 11
18256.893214951437
 21
-1677.604004362451
 31
-0.07616669536480747
  0
LINE
  5
E7
330
17
100
AcDbEntity
  8
FP-Hatch
100
AcDbLine
 10
18254.222310421872
 20
-1678.9526717578433
 30
0.0
 11
18257.33949792187
 21
-1678.9526717578433
 31
0.0
  0
LINE
  5
E8
330
17
100
AcDbEntity
  8
FP-Hatch
100
AcDbLine
 10
18255.772317850562
 20
-1656.0177413311267
 30
0.0
 11
18255.839497921872
 21
-1656.017741331128
 31
0.0
  0
LINE
  5
E9
330
17
100
AcDbEntity
  8
FP-Hatch
100
AcDbLine
 10
18255.77231785057
 20
-1682.5620467578433
 30
0.0
 11
18255.83949792188
 21
-1682.5620467578433
 31
0.0
  0
LINE
  5
EA
330
17
100
AcDbEntity
  8
FP-Hatch
100
AcDbLine
 10
18255.77603488013
 20
-1656.0172494650203
 30
-0.07616669536480747
 11
18258.84321495144
 21
-1656.0172494650217
 31
-0.07616669536480747
  0
LINE
  5
EB
330
17
100
AcDbEntity
  8
FP-Hatch
100
AcDbLine
 10
18255.77603488014
 20
-1682.561554891737
 30
-0.07616669536480747
 11
18258.843214951437
 21
-1682.561554891737
 31
-0.07616669536480747
  0
LWPOLYLINE
  5
EC
330
17
100
AcDbEntity
  8
FP-Hatch
100
AcDbPolyline
 90
3
 70
0
 10
18255.83949792187
 20
-1657.517741331128
 10
18255.83949792187
 20
-1657.330241331128
 10
18256.02699792187
 20
-1657.330241331128
  0
LINE
  5
ED
330
17
100
AcDbEntity
  8
FP-Hatch
100
AcDbLine
 10
18255.83949792187
 20
-1657.517741331128
 30
0.0
 11
18257.33949792187
 21
-1657.517741331128
 31
0.0
  0
LWPOLYLINE
  5
EE
330
17
100
AcDbEntity
  8
FP-Hatch
100
AcDbPolyline
 90
3
 70
0
 10
18255.839497921872
 20
-1681.0620467578433
 10
18255.839497921872
 20
-1681.2495467578433
 10
18256.026997921872
 20
-1681.2495467578433
  0
LINE
  5
EF
330
17
100
AcDbEntity
  8
FP-Hatch
100
AcDbLine
 10
18255.839497921872
 20
-1681.0620467578433
 30
0.0
 11
18257.339497921872
 21
-1681.0620467578433
 31
0.0
  0
LWPOLYLINE
  5
F0
330
17
100
AcDbEntity
  8
FP-Hatch
100
AcDbPolyline
 90
2
 70
0
 10
18255.839497921872
 20
-1656.017741331128
 10
18255.839497921872
 20
-1656.205241331128
  0
LINE
  5
F1
330
17
100
AcDbEntity
  8
FP-Hatch
100
AcDbLine
 10
18255.839497921872
 20
-1656.205241331128
 30
0.0
 11
18257.33949792187
 21
-1656.205241331128
 31
0.0
  0
LINE
  5
F2
330
17
100
AcDbEntity
  8
FP-Hatch
100
AcDbLine
 10
18255.839497921872
 20
-1656.017741331128
 30
0.0
 11
18257.339497921872
 21
-1656.017741331128
 31
0.0
  0
LWPOLYLINE
  5
F3
330
17
100
AcDbEntity
  8
FP-Hatch
100
AcDbPolyline
 90
2
 70
0
 10
18255.83949792188
 20
-1682.5620467578433
 10
18255.83949792188
 20
-1682.3745467578433
  0
LINE
  5
F4
330
17
100
AcDbEntity
  8
FP-Hatch
100
AcDbLine
 10
18255.83949792188
 20
-1682.5620467578433
 30
0.0
 11
18257.33949792188
 21
-1682.5620467578433
 31
0.0
  0
LINE
  5
F5
330
17
100
AcDbEntity
  8
FP-Hatch
100
AcDbLine
 10
18255.83949792188
 20
-1682.3745467578433
 30
0.0
 11
18257.339497921872
 21
-1682.3745467578433
 31
0.0
  0
LWPOLYLINE
  5
F6
330
17
100
AcDbEntity
  8
FP-Hatch
100
AcDbPolyline
 90
3
 70
0
 38
-0.07616669536480747
 10
18255.843214951437
 20
-1657.5172494650217
 10
18255.843214951437
 20
-1657.3297494650217
 10
18258.84321495145
 20
-1657.3297494650217
  0
LINE
  5
F7
330
17
100
AcDbEntity
  8
FP-Hatch
100
AcDbLine
 10
18255.843214951437
 20
-1657.5172494650217
 30
-0.07616669536480747
 11
18258.84321495145
 21
-1657.5172494650217
 31
-0.07616669536480747
  0
LWPOLYLINE
  5
F8
330
17
100
AcDbEntity
  8
FP-Hatch
100
AcDbPolyline
 90
3
 70
0
 38
-0.07616669536480747
 10
18255.84321495144
 20
-1681.061554891737
 10
18255.84321495144
 20
-1681.249054891737
 10
18258.84321495144
 20
-1681.249054891737
  0
LINE
  5
F9
330
17
100
AcDbEntity
  8
FP-Hatch
100
AcDbLine
 10
18255.84321495144
 20
-1681.061554891737
 30
-0.07616669536480747
 11
18258.84321495144
 21
-1681.061554891737
 31
-0.07616669536480747
  0
LWPOLYLINE
  5
FA
330
17
100
AcDbEntity
  8
FP-Hatch
100
AcDbPolyline
 90
2
 70
0
 38
-0.07616669536480747
 10
18255.84321495144
 20
-1656.0172494650217
 10
18255.84321495144
 20
-1656.2047494650217
  0
LINE
  5
FB
330
17
100
AcDbEntity
  8
FP-Hatch
100
AcDbLine
 10
18255.84321495144
 20
-1656.2047494650217
 30
-0.07616669536480747
 11
18258.84321495144
 21
-1656.2047494650217
 31
-0.07616669536480747
  0
LWPOLYLINE
  5
FC
330
17
100
AcDbEntity
  8
FP-Hatch
100
AcDbPolyline
 90
2
 70
0
 38
-0.07616669536480747
 10
18255.84321495145
 20
-1682.561554891737
 10
18255.84321495145
 20
-1682.374054891737
  0
LINE
  5
FD
330
17
100
AcDbEntity
  8
FP-Hatch
100
AcDbLine
 10
18255.84321495145
 20
-1682.374054891737
 30
-0.07616669536480747
 11
18258.843214951437
 21
-1682.374054891737
 31
-0.07616669536480747
  0
LINE
  5
FE
330
17
100
AcDbEntity
  8
FP-Hatch
100
AcDbLine
 10
18256.02699792187
 20
-1657.330241331128
 30
0.0
 11
18257.33949792187
 21
-1657.330241331128
 31
0.0
  0
LINE
  5
FF
330
17
100
AcDbEntity
  8
FP-Hatch
100
AcDbLine
 10
18256.026997921872
 20
-1681.2495467578433
 30
0.0
 11
18257.339497921872
 21
-1681.2495467578433
 31
0.0
  0
LWPOLYLINE
  5
100
330
17
100
AcDbEntity
  8
FP-Hatch
100
AcDbPolyline
 90
5
 70
0
 10
18256.758247921873
 20
-1654.1292089499125
 10
18256.683247921872
 20
-1654.1292089499125
 10
18256.589497921872
 20
-1654.2229589499125
 10
18256.589497921872
 20
-1654.2229589499125
 10
18256.683247921872
 20
-1654.3167089499125
  0
LWPOLYLINE
  5
101
330
17
100
AcDbEntity
  8
FP-Hatch
100
AcDbPolyline
 90
5
 70
0
 10
18256.758247921876
 20
-1685.5755791390561
 10
18256.68324792188
 20
-1685.5755791390561
 10
18256.58949792188
 20
-1685.4818291390561
 10
18256.58949792188
 20
-1685.4818291390561
 10
18256.68324792188
 20
-1685.3880791390561
  0
LINE
  5
102
330
17
100
AcDbEntity
  8
FP-Hatch
100
AcDbLine
 10
18256.73748130756
 20
-1654.3167089499138
 30
0.0
 11
18256.683247921872
 21
-1654.3167089499125
 31
0.0
  0
LINE
  5
103
330
17
100
AcDbEntity
  8
FP-Hatch
100
AcDbLine
 10
18256.73748130756
 20
-1685.3880791390561
 30
0.0
 11
18256.68324792188
 21
-1685.3880791390561
 31
0.0
  0
LWPOLYLINE
  5
104
330
17
100
AcDbEntity
  8
FP-Hatch
100
AcDbPolyline
 90
3
 70
0
 38
-0.07616669536480747
 10
18257.99946495144
 20
-1654.1287170838061
 10
18256.68696495144
 20
-1654.1287170838061
 42
0.9938246167365051
 10
18256.685803514243
 20
-1654.3162098892028
  0
LINE
  5
105
330
17
100
AcDbEntity
  8
FP-Hatch
100
AcDbLine
 10
18257.94523156576
 20
-1654.3162170838061
 30
-0.07616669536480747
 11
18256.68696495144
 21
-1654.3162170838061
 31
-0.07616669536480747
  0
LINE
  5
106
330
17
100
AcDbEntity
  8
FP-Hatch
100
AcDbLine
 10
18257.999464951437
 20
-1685.5750872729498
 30
-0.07616669536480747
 11
18256.68696495145
 21
-1685.5750872729498
 31
-0.07616669536480747
  0
LINE
  5
107
330
17
100
AcDbEntity
  8
FP-Hatch
100
AcDbLine
 10
18257.945231565758
 20
-1685.3875872729498
 30
-0.07616669536480747
 11
18256.68696495145
 21
-1685.3875872729498
 31
-0.07616669536480747
  0
LINE
  5
108
330
17
100
AcDbEntity
  8
FP-Hatch
100
AcDbLine
 10
18256.73748130755
 20
-1654.3167089499125
 30
0.0
 11
18257.33949792187
 21
-1654.3167089499125
 31
0.0
  0
LINE
  5
109
330
17
100
AcDbEntity
  8
FP-Hatch
100
AcDbLine
 10
18256.73748130756
 20
-1685.3880791390561
 30
0.0
 11
18257.339497921872
 21
-1685.3880791390561
 31
0.0
  0
LINE
  5
10A
330
17
100
AcDbEntity
  8
FP-Hatch
100
AcDbLine
 10
18257.33949792187
 20
-1654.1292089499125
 30
0.0
 11
18256.758247921873
 21
-1654.1292089499125
 31
0.0
  0
LINE
  5
10B
330
17
100
AcDbEntity
  8
FP-Hatch
100
AcDbLine
 10
18257.339497921872
 20
-1685.5755791390561
 30
0.0
 11
18256.758247921876
 21
-1685.5755791390561
 31
0.0
  0
LWPOLYLINE
  5
10C
330
17
100
AcDbEntity
  8
FP-Hatch
100
AcDbPolyline
 90
3
 70
0
 10
18256.870747921872
 20
-1654.8792089499125
 10
18256.776997921872
 20
-1654.9729589499125
 10
18256.776997921872
 20
-1655.0667089499125
  0
LINE
  5
10D
330
17
100
AcDbEntity
  8
FP-Hatch
100
AcDbLine
 10
18256.776997921872
 20
-1655.0667089499125
 30
0.0
 11
18257.33949792187
 21
-1655.0667089499125
 31
0.0
  0
LWPOLYLINE
  5
10E
330
17
100
AcDbEntity
  8
FP-Hatch
100
AcDbPolyline
 90
3
 70
0
 10
18256.87074792188
 20
-1683.7005791390561
 10
18256.77699792188
 20
-1683.6068291390561
 10
18256.77699792188
 20
-1683.5130791390561
  0
LINE
  5
10F
330
17
100
AcDbEntity
  8
FP-Hatch
100
AcDbLine
 10
18256.77699792188
 20
-1683.5130791390561
 30
0.0
 11
18257.339497921872
 21
-1683.5130791390561
 31
0.0
  0
LWPOLYLINE
  5
110
330
17
100
AcDbEntity
  8
FP-Hatch
100
AcDbPolyline
 90
3
 70
0
 38
-0.07616669536480747
 10
18256.87446495144
 20
-1654.8787170838061
 42
0.4142135623730951
 10
18256.78071495144
 20
-1654.9724670838061
 10
18256.78071495144
 20
-1655.0662170838061
  0
LINE
  5
111
330
17
100
AcDbEntity
  8
FP-Hatch
100
AcDbLine
 10
18256.78071495144
 20
-1655.0662170838061
 30
-0.07616669536480747
 11
18257.90571495144
 21
-1655.0662170838061
 31
-0.07616669536480747
  0
LWPOLYLINE
  5
112
330
17
100
AcDbEntity
  8
FP-Hatch
100
AcDbPolyline
 90
3
 70
0
 38
-0.07616669536480747
 10
18256.87446495145
 20
-1683.7000872729498
 42
-0.4142135623730951
 10
18256.78071495145
 20
-1683.6063372729498
 10
18256.78071495145
 20
-1683.5125872729498
  0
LINE
  5
113
330
17
100
AcDbEntity
  8
FP-Hatch
100
AcDbLine
 10
18256.78071495145
 20
-1683.5125872729498
 30
-0.07616669536480747
 11
18257.905714951437
 21
-1683.5125872729498
 31
-0.07616669536480747
  0
LINE
  5
114
330
17
100
AcDbEntity
  8
FP-Hatch
100
AcDbLine
 10
18256.870747921872
 20
-1654.8792089499125
 30
0.0
 11
18257.33949792187
 21
-1654.8792089499125
 31
0.0
  0
LINE
  5
115
330
17
100
AcDbEntity
  8
FP-Hatch
100
AcDbLine
 10
18256.87074792188
 20
-1683.7005791390561
 30
0.0
 11
18257.339497921872
 21
-1683.7005791390561
 31
0.0
  0
LINE
  5
116
330
17
100
AcDbEntity
  8
FP-Hatch
100
AcDbLine
 10
18256.87446495144
 20
-1654.8787170838061
 30
-0.07616669536480747
 11
18257.81196495144
 21
-1654.8787170838061
 31
-0.07616669536480747
  0
LINE
  5
117
330
17
100
AcDbEntity
  8
FP-Hatch
100
AcDbLine
 10
18256.87446495145
 20
-1683.7000872729498
 30
-0.07616669536480747
 11
18257.811964951437
 21
-1683.7000872729498
 31
-0.07616669536480747
  0
LINE
  5
118
330
17
100
AcDbEntity
  8
FP-Hatch
100
AcDbLine
 10
18256.889497921875
 20
-1677.679496228559
 30
0.0
 11
18256.889497921875
 21
-1665.955241331128
 31
0.0
  0
LINE
  5
119
330
17
100
AcDbEntity
  8
FP-Hatch
100
AcDbLine
 10
18256.893214951444
 20
-1677.6790043624526
 30
-0.07616669536480747
 11
18256.893214951444
 21
-1665.9547494650217
 31
-0.07616669536480747
  0
LINE
  5
11A
330
17
100
AcDbEntity
  8
FP-Hatch
100
AcDbLine
 10
18256.964497921872
 20
-1677.679496228559
 30
0.0
 11
18256.964497921872
 21
-1665.955241331128
 31
0.0
  0
LINE
  5
11B
330
17
100
AcDbEntity
  8
FP-Hatch
100
AcDbLine
 10
18256.96821495144
 20
-1677.6790043624526
 30
-0.07616669536480747
 11
18256.96821495144
 21
-1665.9547494650217
 31
-0.07616669536480747
  0
LWPOLYLINE
  5
11C
330
17
100
AcDbEntity
  8
FP-Hatch
100
AcDbPolyline
 90
4
 70
0
 10
18257.151997921872
 20
-1667.455241331128
 10
18257.151997921872
 20
-1665.580241331128
 10
18257.526997921872
 20
-1665.580241331128
 10
18257.526997921872
 20
-1667.455241331128
  0
LWPOLYLINE
  5
11D
330
17
100
AcDbEntity
  8
FP-Hatch
100
AcDbPolyline
 90
2
 70
0
 38
-0.07616669536480747
 10
18257.15571495144
 20
-1665.5797494650217
 10
18257.15571495144
 20
-1667.4547494650217
  0
LINE
  5
11E
330
17
100
AcDbEntity
  8
FP-Hatch
100
AcDbLine
 10
18258.83949792187
 20
-1682.5620467578433
 30
0.0
 11
18257.33949792187
 21
-1682.5620467578433
 31
0.0
  0
LINE
  5
11F
330
17
100
AcDbEntity
  8
FP-Hatch
100
AcDbLine
 10
18257.339497921872
 20
-1685.5755791390561
 30
0.0
 11
18257.920747921868
 21
-1685.5755791390561
 31
0.0
  0
LINE
  5
120
330
17
100
AcDbEntity
  8
FP-Hatch
100
AcDbLine
 10
18257.94151453619
 20
-1685.3880791390561
 30
0.0
 11
18257.339497921872
 21
-1685.3880791390561
 31
0.0
  0
LINE
  5
121
330
17
100
AcDbEntity
  8
FP-Hatch
100
AcDbLine
 10
18257.80824792187
 20
-1683.7005791390561
 30
0.0
 11
18257.339497921872
 21
-1683.7005791390561
 31
0.0
  0
LINE
  5
122
330
17
100
AcDbEntity
  8
FP-Hatch
100
AcDbLine
 10
18257.90199792187
 20
-1683.5130791390561
 30
0.0
 11
18257.339497921872
 21
-1683.5130791390561
 31
0.0
  0
LINE
  5
123
330
17
100
AcDbEntity
  8
FP-Hatch
100
AcDbLine
 10
18258.83949792187
 20
-1682.3745467578433
 30
0.0
 11
18257.339497921872
 21
-1682.3745467578433
 31
0.0
  0
LINE
  5
124
330
17
100
AcDbEntity
  8
FP-Hatch
100
AcDbLine
 10
18258.651997921872
 20
-1681.2495467578433
 30
0.0
 11
18257.339497921872
 21
-1681.2495467578433
 31
0.0
  0
LINE
  5
125
330
17
100
AcDbEntity
  8
FP-Hatch
100
AcDbLine
 10
18258.839497921872
 20
-1681.0620467578433
 30
0.0
 11
18257.339497921872
 21
-1681.0620467578433
 31
0.0
  0
LINE
  5
126
330
17
100
AcDbEntity
  8
FP-Hatch
100
AcDbLine
 10
18261.087851463337
 20
-1678.241996228559
 30
0.0
 11
18257.339497921872
 21
-1678.241996228559
 31
0.0
  0
LINE
  5
127
330
17
100
AcDbEntity
  8
FP-Hatch
100
AcDbLine
 10
18261.087851463337
 20
-1678.054496228559
 30
0.0
 11
18257.339497921872
 21
-1678.054496228559
 31
0.0
  0
LINE
  5
128
330
17
100
AcDbEntity
  8
FP-Hatch
100
AcDbLine
 10
18261.039698587287
 20
-1677.679496228559
 30
0.0
 11
18257.339497921872
 21
-1677.679496228559
 31
0.0
  0
LINE
  5
129
330
17
100
AcDbEntity
  8
FP-Hatch
100
AcDbLine
 10
18263.976355395214
 20
-1665.580241331128
 30
0.0
 11
18257.339497921872
 21
-1665.580241331128
 31
0.0
  0
LINE
  5
12A
330
17
100
AcDbEntity
  8
FP-Hatch
100
AcDbLine
 10
18258.839497921872
 20
-1656.017741331128
 30
0.0
 11
18257.339497921872
 21
-1656.017741331128
 31
0.0
  0
LINE
  5
12B
330
17
100
AcDbEntity
  8
FP-Hatch
100
AcDbLine
 10
18260.456685421872
 20
-1678.9526717578433
 30
0.0
 11
18257.33949792188
 21
-1678.9526717578433
 31
0.0
  0
LINE
  5
12C
330
17
100
AcDbEntity
  8
FP-Hatch
100
AcDbLine
 10
18261.293416257682
 20
-1678.8589217578433
 30
0.0
 11
18257.33949792188
 21
-1678.8589217578433
 31
0.0
  0
LINE
  5
12D
330
17
100
AcDbEntity
  8
FP-Hatch
100
AcDbLine
 10
18261.480916257682
 20
-1678.771937948451
 30
0.0
 11
18257.33949792188
 21
-1678.771937948451
 31
0.0
  0
LINE
  5
12E
330
17
100
AcDbEntity
  8
FP-Hatch
100
AcDbLine
 10
18264.314497921878
 20
-1665.392741331128
 30
0.0
 11
18257.33949792188
 21
-1665.392741331128
 31
0.0
  0
LINE
  5
12F
330
17
100
AcDbEntity
  8
FP-Hatch
100
AcDbLine
 10
18264.46449792188
 20
-1664.455241331128
 30
0.0
 11
18257.33949792188
 21
-1664.455241331128
 31
0.0
  0
LINE
  5
130
330
17
100
AcDbEntity
  8
FP-Hatch
100
AcDbLine
 10
18264.65199792188
 20
-1664.267741331128
 30
0.0
 11
18257.33949792188
 21
-1664.267741331128
 31
0.0
  0
LINE
  5
131
330
17
100
AcDbEntity
  8
FP-Hatch
100
AcDbLine
 10
18265.40199792188
 20
-1664.0937737123409
 30
0.0
 11
18257.33949792188
 21
-1664.0937737123409
 31
0.0
  0
LINE
  5
132
330
17
100
AcDbEntity
  8
FP-Hatch
100
AcDbLine
 10
18264.46449792188
 20
-1663.142741331128
 30
0.0
 11
18257.33949792188
 21
-1663.142741331128
 31
0.0
  0
LINE
  5
133
330
17
100
AcDbEntity
  8
FP-Hatch
100
AcDbLine
 10
18264.46449792188
 20
-1662.767741331128
 30
0.0
 11
18257.33949792188
 21
-1662.767741331128
 31
0.0
  0
LINE
  5
134
330
17
100
AcDbEntity
  8
FP-Hatch
100
AcDbLine
 10
18258.83949792188
 20
-1657.517741331128
 30
0.0
 11
18257.33949792188
 21
-1657.517741331128
 31
0.0
  0
LINE
  5
135
330
17
100
AcDbEntity
  8
FP-Hatch
100
AcDbLine
 10
18258.65199792188
 20
-1657.330241331128
 30
0.0
 11
18257.33949792188
 21
-1657.330241331128
 31
0.0
  0
LINE
  5
136
330
17
100
AcDbEntity
  8
FP-Hatch
100
AcDbLine
 10
18258.839497921872
 20
-1656.205241331128
 30
0.0
 11
18257.33949792188
 21
-1656.205241331128
 31
0.0
  0
LINE
  5
137
330
17
100
AcDbEntity
  8
FP-Hatch
100
AcDbLine
 10
18257.901997921872
 20
-1655.0667089499125
 30
0.0
 11
18257.33949792188
 21
-1655.0667089499125
 31
0.0
  0
LINE
  5
138
330
17
100
AcDbEntity
  8
FP-Hatch
100
AcDbLine
 10
18257.808247921872
 20
-1654.8792089499125
 30
0.0
 11
18257.33949792188
 21
-1654.8792089499125
 31
0.0
  0
LINE
  5
139
330
17
100
AcDbEntity
  8
FP-Hatch
100
AcDbLine
 10
18257.941514536193
 20
-1654.3167089499125
 30
0.0
 11
18257.33949792188
 21
-1654.3167089499125
 31
0.0
  0
LINE
  5
13A
330
17
100
AcDbEntity
  8
FP-Hatch
100
AcDbLine
 10
18257.33949792188
 20
-1654.1292089499125
 30
0.0
 11
18257.920747921875
 21
-1654.1292089499125
 31
0.0
  0
LINE
  5
13B
330
17
100
AcDbEntity
  8
FP-Hatch
100
AcDbLine
 10
18263.89446043995
 20
-1665.955241331128
 30
0.0
 11
18257.526997921872
 21
-1665.955241331128
 31
0.0
  0
LWPOLYLINE
  5
13C
330
17
100
AcDbEntity
  8
FP-Hatch
100
AcDbPolyline
 90
2
 70
0
 38
-0.07616669536480747
 10
18257.53071495144
 20
-1667.4547494650217
 10
18257.53071495144
 20
-1665.5797494650217
  0
LINE
  5
13D
330
17
100
AcDbEntity
  8
FP-Hatch
100
AcDbLine
 10
18263.973200791363
 20
-1665.9547494650217
 30
-0.07616669536480747
 11
18257.53071495144
 21
-1665.9547494650217
 31
-0.07616669536480747
  0
LINE
  5
13E
330
17
100
AcDbEntity
  8
FP-Hatch
100
AcDbLine
 10
18257.714497921872
 20
-1677.679496228559
 30
0.0
 11
18257.714497921872
 21
-1665.955241331128
 31
0.0
  0
LINE
  5
13F
330
17
100
AcDbEntity
  8
FP-Hatch
100
AcDbLine
 10
18257.71821495144
 20
-1677.6790043624526
 30
-0.07616669536480747
 11
18257.71821495144
 21
-1665.9547494650217
 31
-0.07616669536480747
  0
LINE
  5
140
330
17
100
AcDbEntity
  8
FP-Hatch
100
AcDbLine
 10
18257.789497921873
 20
-1677.679496228559
 30
0.0
 11
18257.789497921873
 21
-1665.955241331128
 31
0.0
  0
LINE
  5
141
330
17
100
AcDbEntity
  8
FP-Hatch
100
AcDbLine
 10
18263.704916468763
 20
-1666.0302413311283
 30
0.0
 11
18257.789497921873
 21
-1666.030241331127
 31
0.0
  0
LINE
  5
142
330
17
100
AcDbEntity
  8
FP-Hatch
100
AcDbLine
 10
18260.867673832945
 20
-1677.60449622856
 30
0.0
 11
18257.789497921876
 21
-1677.6044962285573
 31
0.0
  0
LINE
  5
143
330
17
100
AcDbEntity
  8
FP-Hatch
100
AcDbLine
 10
18257.79321495144
 20
-1677.6790043624526
 30
-0.07616669536480747
 11
18257.79321495144
 21
-1665.9547494650217
 31
-0.07616669536480747
  0
LINE
  5
144
330
17
100
AcDbEntity
  8
FP-Hatch
100
AcDbLine
 10
18263.708633498332
 20
-1666.0297494650206
 30
-0.07616669536480747
 11
18257.79321495144
 21
-1666.0297494650206
 31
-0.07616669536480747
  0
LINE
  5
145
330
17
100
AcDbEntity
  8
FP-Hatch
100
AcDbLine
 10
18260.871390862514
 20
-1677.6040043624537
 30
-0.07616669536480747
 11
18257.793214951445
 21
-1677.6040043624523
 31
-0.07616669536480747
  0
LWPOLYLINE
  5
146
330
17
100
AcDbEntity
  8
FP-Hatch
100
AcDbPolyline
 90
3
 70
0
 10
18257.80824792187
 20
-1683.7005791390561
 10
18257.90199792187
 20
-1683.6068291390561
 10
18257.90199792187
 20
-1683.5130791390561
  0
LWPOLYLINE
  5
147
330
17
100
AcDbEntity
  8
FP-Hatch
100
AcDbPolyline
 90
3
 70
0
 10
18257.808247921872
 20
-1654.8792089499125
 10
18257.901997921872
 20
-1654.9729589499125
 10
18257.901997921872
 20
-1655.0667089499125
  0
LWPOLYLINE
  5
148
330
17
100
AcDbEntity
  8
FP-Hatch
100
AcDbPolyline
 90
3
 70
0
 38
-0.07616669536480747
 10
18257.811964951437
 20
-1683.7000872729498
 42
0.4142135623730951
 10
18257.905714951437
 20
-1683.6063372729498
 10
18257.905714951437
 20
-1683.5125872729498
  0
LWPOLYLINE
  5
149
330
17
100
AcDbEntity
  8
FP-Hatch
100
AcDbPolyline
 90
3
 70
0
 38
-0.07616669536480747
 10
18257.81196495144
 20
-1654.8787170838061
 42
-0.4142135623730951
 10
18257.90571495144
 20
-1654.9724670838061
 10
18257.90571495144
 20
-1655.0662170838061
  0
LWPOLYLINE
  5
14A
330
17
100
AcDbEntity
  8
FP-Hatch
100
AcDbPolyline
 90
5
 70
0
 10
18257.920747921868
 20
-1685.5755791390561
 10
18257.99574792187
 20
-1685.5755791390561
 10
18258.08949792187
 20
-1685.4818291390561
 10
18258.08949792187
 20
-1685.4818291390561
 10
18257.99574792187
 20
-1685.3880791390561
  0
LWPOLYLINE
  5
14B
330
17
100
AcDbEntity
  8
FP-Hatch
100
AcDbPolyline
 90
5
 70
0
 10
18257.920747921875
 20
-1654.1292089499125
 10
18257.995747921872
 20
-1654.1292089499125
 10
18258.089497921872
 20
-1654.2229589499125
 10
18258.089497921872
 20
-1654.2229589499125
 10
18257.995747921872
 20
-1654.3167089499125
  0
LINE
  5
14C
330
17
100
AcDbEntity
  8
FP-Hatch
100
AcDbLine
 10
18257.94151453619
 20
-1685.3880791390561
 30
0.0
 11
18257.99574792187
 21
-1685.3880791390561
 31
0.0
  0
LINE
  5
14D
330
17
100
AcDbEntity
  8
FP-Hatch
100
AcDbLine
 10
18257.94151453619
 20
-1654.3167089499138
 30
0.0
 11
18257.995747921872
 21
-1654.3167089499125
 31
0.0
  0
LWPOLYLINE
  5
14E
330
17
100
AcDbEntity
  8
FP-Hatch
100
AcDbPolyline
 90
2
 70
0
 38
-0.07616669536480747
 10
18257.999464951437
 20
-1685.5750872729498
 42
1.023278014056661
 10
18257.99515225216
 20
-1685.3876865221523
  0
LWPOLYLINE
  5
14F
330
17
100
AcDbEntity
  8
FP-Hatch
100
AcDbPolyline
 90
3
 70
0
 10
18258.839497921872
 20
-1681.0620467578433
 10
18258.839497921872
 20
-1681.2495467578433
 10
18258.651997921872
 20
-1681.2495467578433
  0
LWPOLYLINE
  5
150
330
17
100
AcDbEntity
  8
FP-Hatch
100
AcDbPolyline
 90
3
 70
0
 10
18258.83949792188
 20
-1657.517741331128
 10
18258.83949792188
 20
-1657.330241331128
 10
18258.65199792188
 20
-1657.330241331128
  0
LWPOLYLINE
  5
151
330
17
100
AcDbEntity
  8
FP-Hatch
100
AcDbPolyline
 90
2
 70
0
 10
18258.83949792187
 20
-1682.5620467578433
 10
18258.83949792187
 20
-1682.3745467578433
  0
LINE
  5
152
330
17
100
AcDbEntity
  8
FP-Hatch
100
AcDbLine
 10
18258.906677993178
 20
-1682.5620467578433
 30
0.0
 11
18258.83949792187
 21
-1682.5620467578433
 31
0.0
  0
LWPOLYLINE
  5
153
330
17
100
AcDbEntity
  8
FP-Hatch
100
AcDbPolyline
 90
2
 70
0
 10
18258.839497921872
 20
-1656.017741331128
 10
18258.839497921872
 20
-1656.205241331128
  0
LINE
  5
154
330
17
100
AcDbEntity
  8
FP-Hatch
100
AcDbLine
 10
18258.90667799318
 20
-1656.0177413311267
 30
0.0
 11
18258.839497921872
 21
-1656.017741331128
 31
0.0
  0
LWPOLYLINE
  5
155
330
17
100
AcDbEntity
  8
FP-Hatch
100
AcDbPolyline
 90
2
 70
0
 38
-0.07616669536480747
 10
18258.843214951437
 20
-1682.561554891737
 10
18258.843214951437
 20
-1682.374054891737
  0
LWPOLYLINE
  5
156
330
17
100
AcDbEntity
  8
FP-Hatch
100
AcDbPolyline
 90
2
 70
0
 38
-0.07616669536480747
 10
18258.84321495144
 20
-1681.061554891737
 10
18258.84321495144
 20
-1681.249054891737
  0
LWPOLYLINE
  5
157
330
17
100
AcDbEntity
  8
FP-Hatch
100
AcDbPolyline
 90
2
 70
0
 38
-0.07616669536480747
 10
18258.84321495144
 20
-1656.0172494650217
 10
18258.84321495144
 20
-1656.2047494650217
  0
LWPOLYLINE
  5
158
330
17
100
AcDbEntity
  8
FP-Hatch
100
AcDbPolyline
 90
2
 70
0
 38
-0.07616669536480747
 10
18258.84321495145
 20
-1657.5172494650217
 10
18258.84321495145
 20
-1657.3297494650217
  0
LINE
  5
159
330
17
100
AcDbEntity
  8
FP-Hatch
100
AcDbLine
 10
18261.199666257682
 20
-1678.9526717578433
 30
0.0
 11
18260.456685421872
 21
-1678.9526717578433
 31
0.0
  0
LINE
  5
15A
330
17
100
AcDbEntity
  8
FP-Hatch
100
AcDbLine
 10
18261.039698587287
 20
-1677.679496228559
 30
0.0
 11
18261.107143124707
 21
-1677.7123022397823
 31
0.0
  0
LINE
  5
15B
330
17
100
AcDbEntity
  8
FP-Hatch
100
AcDbLine
 10
18261.043415616856
 20
-1677.6790043624526
 30
-0.07616669536480747
 11
18261.110860154276
 21
-1677.711810373676
 31
-0.07616669536480747
  0
LINE
  5
15C
330
17
100
AcDbEntity
  8
FP-Hatch
100
AcDbLine
 10
18261.087851463337
 20
-1678.241996228559
 30
0.0
 11
18261.087851463337
 21
-1678.054496228559
 31
0.0
  0
LINE
  5
15D
330
17
100
AcDbEntity
  8
FP-Hatch
100
AcDbLine
 10
18261.091568492906
 20
-1678.2415043624526
 30
-0.07616669536480747
 11
18261.091568492906
 21
-1678.0540043624526
 31
-0.07616669536480747
  0
LINE
  5
15E
330
17
100
AcDbEntity
  8
FP-Hatch
100
AcDbLine
 10
18261.480916257682
 20
-1678.8589217578433
 30
0.0
 11
18261.293416257682
 21
-1678.8589217578433
 31
0.0
  0
LINE
  5
15F
330
17
100
AcDbEntity
  8
FP-Hatch
100
AcDbLine
 10
18261.480916257682
 20
-1678.8589217578433
 30
0.0
 11
18261.480916257682
 21
-1678.7719379484497
 31
0.0
  0
LINE
  5
160
330
17
100
AcDbEntity
  8
FP-Hatch
100
AcDbLine
 10
18261.548096328992
 20
-1678.7719379484497
 30
0.0
 11
18261.480916257682
 21
-1678.771937948451
 31
0.0
  0
LINE
  5
161
330
17
100
AcDbEntity
  8
FP-Hatch
100
AcDbLine
 10
18261.48463328725
 20
-1678.858429891737
 30
-0.07616669536480747
 11
18261.48463328725
 21
-1678.7714460823433
 31
-0.07616669536480747
  0
LWPOLYLINE
  5
162
330
17
100
AcDbEntity
  8
FP-Proposed Wall
100
AcDbPolyline
 90
4
 70
0
 38
24.501592595179027
 10
18264.30605172983
 20
-1753.910708414471
 10
18262.30605172983
 20
-1753.910708414471
 10
18262.30605172983
 20
-1747.9107096173936
 10
18264.28343452665
 20
-1747.9107096173936
  0
LINE
  5
163
330
17
100
AcDbEntity
  8
FP-Footing
100
AcDbLine
 10
18263.316151901883
 20
-1881.911679204197
 30
0.0
 11
18263.316151901883
 21
-1889.911679204197
 31
0.0
  0
LINE
  5
164
330
17
100
AcDbEntity
  8
FP-Hatch
100
AcDbLine
 10
18263.89446043995
 20
-1665.955241331128
 30
0.0
 11
18263.969483761794
 21
-1665.955241331128
 31
0.0
  0
LINE
  5
165
330
17
100
AcDbEntity
  8
FP-Hatch
100
AcDbLine
 10
18263.976355395214
 20
-1665.580241331128
 30
0.0
 11
18264.126997921878
 21
-1665.580241331128
 31
0.0
  0
LINE
  5
166
330
17
100
AcDbEntity
  8
FP-Proposed Wall
100
AcDbLine
 10
18454.376220203587
 20
-1747.9107096173936
 30
24.501592595179027
 11
18264.28343452665
 21
-1747.9107096173936
 31
49.00318433665029
  0
LWPOLYLINE
  5
167
330
17
100
AcDbEntity
  8
FP-Proposed Wall
100
AcDbPolyline
 90
2
 70
0
 38
24.501592595179027
 10
18264.30605172983
 20
-1753.910708414471
 10
18264.306052570835
 20
-1755.41070973133
  0
LINE
  5
168
330
17
100
AcDbEntity
  8
FP-Proposed Wall
 62
1
100
AcDbLine
 10
18452.376220203525
 20
-1753.9108206224282
 30
24.501592595179027
 11
18264.30605172983
 21
-1753.910708414471
 31
24.50159259517898
  0
LINE
  5
169
330
17
100
AcDbEntity
  8
FP-Proposed Wall
100
AcDbLine
 10
18452.376219362923
 20
-1755.4101019256568
 30
24.501592595179027
 11
18264.306052570835
 21
-1755.41070973133
 31
24.50159259517898
  0
LINE
  5
16A
330
17
100
AcDbEntity
  8
FP-Hatch
100
AcDbLine
 10
18264.464497921872
 20
-1665.392741331128
 30
0.0
 11
18264.314497921878
 21
-1665.392741331128
 31
0.0
  0
LINE
  5
16B
330
17
100
AcDbEntity
  8
FP-Hatch
100
AcDbLine
 10
18264.46449792188
 20
-1663.142741331128
 30
0.0
 11
18264.46449792188
 21
-1662.767741331128
 31
0.0
  0
LINE
  5
16C
330
17
100
AcDbEntity
  8
FP-Hatch
100
AcDbLine
 10
18264.46821495145
 20
-1663.1422494650217
 30
-0.07616669536480747
 11
18264.46821495145
 21
-1662.7672494650217
 31
-0.07616669536480747
  0
LINE
  5
16D
330
17
100
AcDbEntity
  8
FP-Hatch
100
AcDbLine
 10
18265.40199792188
 20
-1664.267741331128
 30
0.0
 11
18264.65199792188
 21
-1664.267741331128
 31
0.0
  0
LINE
  5
16E
330
17
100
AcDbEntity
  8
FP-Hatch
100
AcDbLine
 10
18265.40199792188
 20
-1664.267741331128
 30
0.0
 11
18265.40199792188
 21
-1664.0937737123409
 31
0.0
  0
LINE
  5
16F
330
17
100
AcDbEntity
  8
FP-Hatch
100
AcDbLine
 10
18265.46917799319
 20
-1664.0937737123409
 30
0.0
 11
18265.40199792188
 21
-1664.0937737123409
 31
0.0
  0
LINE
  5
170
330
17
100
AcDbEntity
  8
FP-Hatch
100
AcDbLine
 10
18265.40571495145
 20
-1664.2672494650217
 30
-0.07616669536480747
 11
18265.40571495145
 21
-1664.0932818462345
 31
-0.07616669536480747
  0
LINE
  5
171
330
17
100
AcDbEntity
  8
FP-Proposed Wall
100
AcDbLine
 10
18268.31869989368
 20
-1615.911616077439
 30
0.0
 11
18268.31687333834
 21
-1599.9105220432828
 31
0.0
  0
LWPOLYLINE
  5
172
330
17
100
AcDbEntity
  8
FP-Stair
100
AcDbPolyline
 90
4
 70
0
 10
18268.31869989368
 20
-1741.911616077439
 10
18268.31869989368
 20
-1615.911616077439
 10
18448.31873716146
 20
-1615.911616077439
 10
18448.317954540693
 20
-1741.9115883864147
  0
LINE
  5
173
330
17
100
AcDbEntity
  8
FP-Proposed Wall
100
AcDbLine
 10
18269.068655039882
 20
-1599.910481669354
 30
0.0
 11
18269.06865391854
 21
-1598.910481669354
 31
0.0
  0
LINE
  5
174
330
17
100
AcDbEntity
  8
FP-Footing
100
AcDbLine
 10
18269.316151901883
 20
-1770.4116792041953
 30
0.0
 11
18269.316151901883
 21
-1881.911679204197
 31
0.0
  0
LWPOLYLINE
  5
175
330
17
100
AcDbEntity
  8
EL-Trim
 62
8
100
AcDbPolyline
 90
4
 70
1
 10
18270.31687333834
 20
-1601.9105220432828
 10
18446.31869989368
 20
-1601.9105220432828
 10
18446.31869989368
 20
-1613.911616077439
 10
18270.31687333834
 20
-1613.911616077439
  0
LWPOLYLINE
  5
176
330
17
100
AcDbEntity
  8
FP-Hatch
100
AcDbPolyline
 90
4
 70
0
 10
18270.31869989368
 20
-1741.911616077439
 10
18270.31869989368
 20
-1617.911616077439
 10
18446.318724738863
 20
-1617.911616077439
 10
18446.317954540733
 20
-1741.91157596386
  0
LWPOLYLINE
  5
177
330
17
100
AcDbEntity
  8
EL-Trim
 62
8
100
AcDbPolyline
 90
4
 70
1
 10
18271.31687333834
 20
-1602.9105220432828
 10
18445.31869989368
 20
-1602.9105220432828
 10
18445.31869989368
 20
-1612.911616077439
 10
18271.31687333834
 20
-1612.911616077439
  0
LWPOLYLINE
  5
178
330
17
100
AcDbEntity
  8
FP-Hatch
100
AcDbPolyline
 90
4
 70
0
 10
18271.31869989368
 20
-1741.911616077439
 10
18271.31869989368
 20
-1618.911616077439
 10
18445.318718527567
 20
-1618.911616077439
 10
18445.31795454075
 20
-1741.9115697525829
  0
LWPOLYLINE
  5
179
330
17
100
AcDbEntity
  8
FP-Proposed Wall
 62
1
100
AcDbPolyline
 90
3
 70
0
 10
18442.32760840167
 20
-1741.911615972639
 10
18274.316918192086
 20
-1741.911616097125
 10
18274.316918192082
 20
-1621.9116161189165
  0
LWPOLYLINE
  5
17A
330
17
100
AcDbEntity
  8
FP-Proposed Wall
 62
1
100
AcDbPolyline
 90
3
 70
0
 10
18274.31869989368
 20
-1621.911616077439
 10
18442.31869989368
 20
-1621.911616077439
 10
18442.31795454081
 20
-1741.911551118751
  0
LWPOLYLINE
  5
17B
330
17
100
AcDbEntity
  8
FP-Hatch
100
AcDbPolyline
 90
2
 70
0
 10
18300.818699893665
 20
-1623.4116160971407
 10
18275.816918192075
 20
-1623.411616097125
  0
LWPOLYLINE
  5
17C
330
17
100
AcDbEntity
  8
FP-Hatch
100
AcDbPolyline
 90
4
 70
0
 10
18300.81869989368
 20
-1623.4116160971316
 10
18300.81869989368
 20
-1740.4116160970734
 10
18275.816918192086
 20
-1740.4116160971232
 10
18275.816918192082
 20
-1623.411616097125
  0
LWPOLYLINE
  5
17D
330
17
100
AcDbEntity
  8
FP-Hatch
100
AcDbPolyline
 90
4
 70
0
 10
18299.818698738698
 20
-1624.4116160774386
 10
18299.818698738698
 20
-1739.4116160875117
 10
18276.81691934707
 20
-1739.411616087551
 10
18276.816919347068
 20
-1624.4116160774324
  0
LWPOLYLINE
  5
17E
330
17
100
AcDbEntity
  8
FP-Hatch
100
AcDbPolyline
 90
2
 70
0
 10
18299.818698738698
 20
-1624.4116160774327
 10
18276.816919347068
 20
-1624.411616077432
  0
LWPOLYLINE
  5
17F
330
17
100
AcDbEntity
  8
FP-Hatch
100
AcDbPolyline
 90
2
 70
0
 10
18302.318699893684
 20
-1741.911616097125
 10
18302.31869989368
 20
-1621.9116161189165
  0
LWPOLYLINE
  5
180
330
17
100
AcDbEntity
  8
FP-Hatch
100
AcDbPolyline
 90
2
 70
0
 10
18328.820481595263
 20
-1623.4116160971407
 10
18303.818699893673
 20
-1623.411616097125
  0
LWPOLYLINE
  5
181
330
17
100
AcDbEntity
  8
FP-Hatch
100
AcDbPolyline
 90
4
 70
0
 10
18328.820481595278
 20
-1623.4116160971316
 10
18328.820481595278
 20
-1740.4116160970734
 10
18303.818699893684
 20
-1740.4116160971232
 10
18303.81869989368
 20
-1623.411616097125
  0
LWPOLYLINE
  5
182
330
17
100
AcDbEntity
  8
FP-Hatch
100
AcDbPolyline
 90
4
 70
0
 10
18327.818698738698
 20
-1624.4116160774377
 10
18327.818698738698
 20
-1739.4116160875108
 10
18304.81691934707
 20
-1739.41161608755
 10
18304.816919347068
 20
-1624.4116160774315
  0
LWPOLYLINE
  5
183
330
17
100
AcDbEntity
  8
FP-Hatch
100
AcDbPolyline
 90
2
 70
0
 10
18327.818698738698
 20
-1624.4116160774317
 10
18304.816919347068
 20
-1624.411616077431
  0
LWPOLYLINE
  5
184
330
17
100
AcDbEntity
  8
FP-Hatch
100
AcDbPolyline
 90
2
 70
0
 10
18330.32048159528
 20
-1741.911616097125
 10
18330.320481595278
 20
-1621.9116161189165
  0
LWPOLYLINE
  5
185
330
17
100
AcDbEntity
  8
FP-Hatch
100
AcDbPolyline
 90
2
 70
0
 10
18356.82226329686
 20
-1623.4116160971407
 10
18331.82048159527
 20
-1623.411616097125
  0
LWPOLYLINE
  5
186
330
17
100
AcDbEntity
  8
FP-Hatch
100
AcDbPolyline
 90
4
 70
0
 10
18356.822263296875
 20
-1623.4116160971316
 10
18356.822263296875
 20
-1740.4116160970734
 10
18331.82048159528
 20
-1740.4116160971232
 10
18331.820481595278
 20
-1623.411616097125
  0
LWPOLYLINE
  5
187
330
17
100
AcDbEntity
  8
FP-Hatch
100
AcDbPolyline
 90
4
 70
0
 10
18355.820480440296
 20
-1624.411616077437
 10
18355.820480440296
 20
-1739.41161608751
 10
18332.81870104867
 20
-1739.4116160875494
 10
18332.818701048665
 20
-1624.4116160774308
  0
LWPOLYLINE
  5
188
330
17
100
AcDbEntity
  8
FP-Hatch
100
AcDbPolyline
 90
2
 70
0
 10
18355.820480440296
 20
-1624.411616077431
 10
18332.818701048665
 20
-1624.4116160774304
  0
LWPOLYLINE
  5
189
330
17
100
AcDbEntity
  8
FP-Proposed Wall
100
AcDbPolyline
 90
4
 70
0
 10
18538.360916191225
 20
-1746.9107413317613
 10
18538.820877820814
 20
-1746.9107408159869
 10
18538.820872214095
 20
-1741.9107408159887
 10
18355.687679138944
 20
-1741.911005426033
  0
LINE
  5
18A
330
17
100
AcDbEntity
  8
FP-Hatch
100
AcDbLine
 10
18357.686788288127
 20
-1746.910387164901
 30
0.0
 11
18538.360916191225
 21
-1746.9107413317613
 31
0.0
  0
LWPOLYLINE
  5
18B
330
17
100
AcDbEntity
  8
FP-Hatch
100
AcDbPolyline
 90
2
 70
0
 10
18358.32226329688
 20
-1741.9116160556475
 10
18358.322263296875
 20
-1621.911616077439
  0
LWPOLYLINE
  5
18C
330
17
100
AcDbEntity
  8
FP-Hatch
100
AcDbPolyline
 90
2
 70
0
 10
18384.82404499846
 20
-1623.4116160556632
 10
18359.82226329687
 20
-1623.4116160556475
  0
LWPOLYLINE
  5
18D
330
17
100
AcDbEntity
  8
FP-Hatch
100
AcDbPolyline
 90
4
 70
0
 10
18384.824044998473
 20
-1623.4116160556541
 10
18384.824044998473
 20
-1740.411616055596
 10
18359.82226329688
 20
-1740.4116160556457
 10
18359.822263296875
 20
-1623.4116160556475
  0
LWPOLYLINE
  5
18E
330
17
100
AcDbEntity
  8
FP-Hatch
100
AcDbPolyline
 90
4
 70
0
 10
18383.822262141894
 20
-1624.4116160774386
 10
18383.822262141894
 20
-1739.4116160875117
 10
18360.820482750267
 20
-1739.411616087551
 10
18360.820482750263
 20
-1624.4116160774324
  0
LWPOLYLINE
  5
18F
330
17
100
AcDbEntity
  8
FP-Hatch
100
AcDbPolyline
 90
2
 70
0
 10
18383.822262141894
 20
-1624.4116160774327
 10
18360.820482750263
 20
-1624.411616077432
  0
LWPOLYLINE
  5
190
330
17
100
AcDbEntity
  8
FP-Hatch
100
AcDbPolyline
 90
2
 70
0
 10
18386.324044998473
 20
-1621.9116160556541
 10
18386.324044998473
 20
-1741.911616055594
  0
LWPOLYLINE
  5
191
330
17
100
AcDbEntity
  8
FP-Hatch
100
AcDbPolyline
 90
2
 70
0
 10
18412.825826700056
 20
-1623.4116160141857
 10
18387.824044998466
 20
-1623.41161601417
  0
LWPOLYLINE
  5
192
330
17
100
AcDbEntity
  8
FP-Hatch
100
AcDbPolyline
 90
4
 70
0
 10
18412.82582670007
 20
-1623.4116160141766
 10
18412.82582670007
 20
-1740.4116160141184
 10
18387.824044998477
 20
-1740.4116160141682
 10
18387.824044998473
 20
-1623.41161601417
  0
LWPOLYLINE
  5
193
330
17
100
AcDbEntity
  8
FP-Hatch
100
AcDbPolyline
 90
4
 70
0
 10
18411.82404384349
 20
-1624.4116160556537
 10
18411.82404384349
 20
-1739.4116160657268
 10
18388.822264451865
 20
-1739.411616065766
 10
18388.82226445186
 20
-1624.4116160556475
  0
LWPOLYLINE
  5
194
330
17
100
AcDbEntity
  8
FP-Hatch
100
AcDbPolyline
 90
2
 70
0
 10
18411.82404384349
 20
-1624.4116160556478
 10
18388.82226445186
 20
-1624.411616055647
  0
LWPOLYLINE
  5
195
330
17
100
AcDbEntity
  8
FP-Hatch
100
AcDbPolyline
 90
2
 70
0
 10
18414.32582670007
 20
-1621.9116160141766
 10
18414.32582670007
 20
-1741.9116160141166
  0
LWPOLYLINE
  5
196
330
17
100
AcDbEntity
  8
FP-Hatch
100
AcDbPolyline
 90
2
 70
0
 10
18440.827608401654
 20
-1623.4116159727082
 10
18415.825826700064
 20
-1623.4116159726925
  0
LWPOLYLINE
  5
197
330
17
100
AcDbEntity
  8
FP-Hatch
100
AcDbPolyline
 90
4
 70
0
 10
18440.82760840167
 20
-1623.411615972699
 10
18440.82760840167
 20
-1740.411615972641
 10
18415.825826700075
 20
-1740.4116159726907
 10
18415.82582670007
 20
-1623.4116159726925
  0
LWPOLYLINE
  5
198
330
17
100
AcDbEntity
  8
FP-Hatch
100
AcDbPolyline
 90
4
 70
0
 10
18439.82582554509
 20
-1624.4116160774386
 10
18439.82582554509
 20
-1739.4116160875117
 10
18416.824046153462
 20
-1739.411616087551
 10
18416.82404615346
 20
-1624.4116160774324
  0
LWPOLYLINE
  5
199
330
17
100
AcDbEntity
  8
FP-Hatch
100
AcDbPolyline
 90
2
 70
0
 10
18439.82582554509
 20
-1624.4116160774327
 10
18416.82404615346
 20
-1624.411616077432
  0
LINE
  5
19A
330
17
100
AcDbEntity
  8
FP-Footing
100
AcDbLine
 10
18447.320520671765
 20
-1770.4111263869559
 30
0.0
 11
18447.320520671765
 21
-1881.9111263869577
 31
0.0
  0
LINE
  5
19B
330
17
100
AcDbEntity
  8
FP-Proposed Wall
100
AcDbLine
 10
18447.568744747477
 20
-1599.910481669354
 30
0.0
 11
18447.56874586882
 21
-1598.910481669354
 31
0.0
  0
LINE
  5
19C
330
17
100
AcDbEntity
  8
FP-Proposed Wall
 62
1
100
AcDbLine
 10
18448.318575675123
 20
-1641.9105095425164
 30
0.0
 11
18472.22070769511
 21
-1641.910509542516
 31
0.0
  0
LINE
  5
19D
330
17
100
AcDbEntity
  8
FP-Hatch
100
AcDbLine
 10
18448.318581881143
 20
-1640.911355877978
 30
0.0
 11
18472.22070769511
 21
-1640.9113558779786
 31
0.0
  0
LINE
  5
19E
330
17
100
AcDbEntity
  8
FP-Hatch
100
AcDbLine
 10
18448.31858343396
 20
-1640.6613558779613
 30
0.0
 11
18472.220707695113
 21
-1640.6613558779607
 31
0.0
  0
LINE
  5
19F
330
17
100
AcDbEntity
  8
FP-Stair
100
AcDbLine
 10
18448.318588097678
 20
-1639.910509542513
 30
0.0
 11
18472.22070769511
 21
-1639.9105095425136
 31
0.0
  0
LINE
  5
1A0
330
17
100
AcDbEntity
  8
FP-Proposed Wall
100
AcDbLine
 10
18448.31869989368
 20
-1615.911616077439
 30
0.0
 11
18448.32052644902
 21
-1599.9105220432828
 31
0.0
  0
LINE
  5
1A1
330
17
100
AcDbEntity
  8
FP-Hatch
100
AcDbLine
 10
18451.230243397516
 20
-1664.0932818462345
 30
-0.07616669536480747
 11
18467.489603540147
 21
-1664.0932818462345
 31
-0.07616669536480747
  0
LINE
  5
1A2
330
17
100
AcDbEntity
  8
FP-Hatch
100
AcDbLine
 10
18451.235548962086
 20
-1664.0976692370555
 30
0.0
 11
18451.302729033396
 21
-1664.0976692370555
 31
0.0
  0
LINE
  5
1A3
330
17
100
AcDbEntity
  8
FP-Hatch
100
AcDbLine
 10
18451.297423468826
 20
-1664.2672494650217
 30
-0.07616669536480747
 11
18467.422423468837
 21
-1664.2672494650217
 31
-0.07616669536480747
  0
LINE
  5
1A4
330
17
100
AcDbEntity
  8
FP-Hatch
100
AcDbLine
 10
18451.297423468826
 20
-1664.2672494650217
 30
-0.07616669536480747
 11
18451.297423468826
 21
-1664.0932818462345
 31
-0.07616669536480747
  0
LINE
  5
1A5
330
17
100
AcDbEntity
  8
FP-Hatch
100
AcDbLine
 10
18451.302729033396
 20
-1664.2716368558426
 30
0.0
 11
18452.052729033396
 21
-1664.2716368558426
 31
0.0
  0
LINE
  5
1A6
330
17
100
AcDbEntity
  8
FP-Hatch
100
AcDbLine
 10
18451.302729033396
 20
-1664.2716368558426
 30
0.0
 11
18451.302729033396
 21
-1664.0976692370555
 31
0.0
  0
LINE
  5
1A7
330
17
100
AcDbEntity
  8
FP-Hatch
100
AcDbLine
 10
18451.302729033396
 20
-1664.0976692370555
 30
0.0
 11
18459.365229033396
 21
-1664.0976692370555
 31
0.0
  0
LINE
  5
1A8
330
17
100
AcDbEntity
  8
FP-Hatch
100
AcDbLine
 10
18452.052729033396
 20
-1664.2716368558426
 30
0.0
 11
18459.365229033396
 21
-1664.2716368558426
 31
0.0
  0
LINE
  5
1A9
330
17
100
AcDbEntity
  8
FP-Hatch
100
AcDbLine
 10
18452.234923468826
 20
-1664.4547494650217
 30
-0.07616669536480747
 11
18466.484923468837
 21
-1664.4547494650217
 31
-0.07616669536480747
  0
LINE
  5
1AA
330
17
100
AcDbEntity
  8
FP-Hatch
100
AcDbLine
 10
18452.234923468826
 20
-1663.1422494650217
 30
-0.07616669536480747
 11
18466.484923468837
 21
-1663.1422494650217
 31
-0.07616669536480747
  0
LINE
  5
1AB
330
17
100
AcDbEntity
  8
FP-Hatch
100
AcDbLine
 10
18452.234923468826
 20
-1663.1422494650217
 30
-0.07616669536480747
 11
18452.234923468826
 21
-1662.7672494650217
 31
-0.07616669536480747
  0
LINE
  5
1AC
330
17
100
AcDbEntity
  8
FP-Hatch
100
AcDbLine
 10
18452.234923468826
 20
-1662.7672494650217
 30
-0.07616669536480747
 11
18466.484923468837
 21
-1662.7672494650217
 31
-0.07616669536480747
  0
LINE
  5
1AD
330
17
100
AcDbEntity
  8
FP-Hatch
100
AcDbLine
 10
18452.23492346883
 20
-1665.3922494650217
 30
-0.07616669536480747
 11
18466.48492346883
 21
-1665.3922494650217
 31
-0.07616669536480747
  0
LINE
  5
1AE
330
17
100
AcDbEntity
  8
FP-Hatch
100
AcDbLine
 10
18452.240229033396
 20
-1664.4591368558426
 30
0.0
 11
18459.365229033396
 21
-1664.4591368558426
 31
0.0
  0
LINE
  5
1AF
330
17
100
AcDbEntity
  8
FP-Hatch
100
AcDbLine
 10
18452.240229033396
 20
-1663.1466368558426
 30
0.0
 11
18459.365229033396
 21
-1663.1466368558426
 31
0.0
  0
LINE
  5
1B0
330
17
100
AcDbEntity
  8
FP-Hatch
100
AcDbLine
 10
18452.240229033396
 20
-1663.1466368558426
 30
0.0
 11
18452.240229033396
 21
-1662.7716368558426
 31
0.0
  0
LINE
  5
1B1
330
17
100
AcDbEntity
  8
FP-Hatch
100
AcDbLine
 10
18452.240229033396
 20
-1662.7716368558426
 30
0.0
 11
18459.365229033396
 21
-1662.7716368558426
 31
0.0
  0
LINE
  5
1B2
330
17
100
AcDbEntity
  8
FP-Hatch
100
AcDbLine
 10
18452.2402290334
 20
-1665.3966368558426
 30
0.0
 11
18452.3902290334
 21
-1665.3966368558426
 31
0.0
  0
LWPOLYLINE
  5
1B3
330
17
100
AcDbEntity
  8
FP-Proposed Wall
100
AcDbPolyline
 90
2
 70
0
 38
24.501592595179027
 10
18452.376220203587
 20
-1753.910708414471
 10
18452.37621936258
 20
-1755.41070973133
  0
LWPOLYLINE
  5
1B4
330
17
100
AcDbEntity
  8
FP-Proposed Wall
100
AcDbPolyline
 90
4
 70
0
 38
24.501592595179027
 10
18452.376220203587
 20
-1753.910708414471
 10
18454.376220203587
 20
-1753.910708414471
 10
18454.376220203587
 20
-1747.9107096173936
 10
18452.398837406767
 20
-1747.9107096173936
  0
LWPOLYLINE
  5
1B5
330
17
100
AcDbEntity
  8
FP-Proposed Wall
100
AcDbPolyline
 90
4
 70
0
 38
24.501592026040623
 10
18464.35361561552
 20
-1761.410708528408
 10
18466.35361561552
 20
-1761.410708528408
 10
18466.35361561552
 20
-1755.4107097313306
 10
18452.3762328187
 20
-1755.4107097313306
  0
LINE
  5
1B6
330
17
100
AcDbEntity
  8
FP-Hatch
100
AcDbLine
 10
18452.3902290334
 20
-1665.3966368558426
 30
0.0
 11
18459.365229033396
 21
-1665.3966368558426
 31
0.0
  0
LINE
  5
1B7
330
17
100
AcDbEntity
  8
FP-Hatch
100
AcDbLine
 10
18466.147423468836
 20
-1665.5797494650217
 30
-0.07616669536480747
 11
18452.57242346883
 21
-1665.5797494650217
 31
-0.07616669536480747
  0
LINE
  5
1B8
330
17
100
AcDbEntity
  8
FP-Hatch
100
AcDbLine
 10
18452.728371560057
 20
-1665.5841368558426
 30
0.0
 11
18452.5777290334
 21
-1665.5841368558426
 31
0.0
  0
LINE
  5
1B9
330
17
100
AcDbEntity
  8
FP-Hatch
100
AcDbLine
 10
18452.728371560057
 20
-1665.5841368558426
 30
0.0
 11
18459.3652290334
 21
-1665.5841368558426
 31
0.0
  0
LINE
  5
1BA
330
17
100
AcDbEntity
  8
FP-Hatch
100
AcDbLine
 10
18459.17242346883
 20
-1665.9547494650217
 30
-0.07616669536480747
 11
18452.729937628916
 21
-1665.9547494650217
 31
-0.07616669536480747
  0
LINE
  5
1BB
330
17
100
AcDbEntity
  8
FP-Hatch
100
AcDbLine
 10
18452.810266515327
 20
-1665.9591368558426
 30
0.0
 11
18452.735243193485
 21
-1665.9591368558426
 31
0.0
  0
LINE
  5
1BC
330
17
100
AcDbEntity
  8
FP-Hatch
100
AcDbLine
 10
18452.810266515327
 20
-1665.9591368558426
 30
0.0
 11
18459.1777290334
 21
-1665.9591368558426
 31
0.0
  0
LINE
  5
1BD
330
17
100
AcDbEntity
  8
FP-Hatch
100
AcDbLine
 10
18452.994504921942
 20
-1666.029749465022
 30
-0.07616669536480747
 11
18458.909923468833
 21
-1666.0297494650206
 31
-0.07616669536480747
  0
LINE
  5
1BE
330
17
100
AcDbEntity
  8
FP-Hatch
100
AcDbLine
 10
18452.99981048651
 20
-1666.0341368558416
 30
0.0
 11
18458.915229033402
 21
-1666.0341368558416
 31
0.0
  0
LINE
  5
1BF
330
17
100
AcDbEntity
  8
FP-Footing
100
AcDbLine
 10
18453.320520671765
 20
-1881.9111263869577
 30
0.0
 11
18453.320520671765
 21
-1889.9111263869577
 31
0.0
  0
LINE
  5
1C0
330
17
100
AcDbEntity
  8
FP-Stair
100
AcDbLine
 10
18454.376220203587
 20
-1748.910589652177
 30
0.0
 11
18537.3226617651
 21
-1748.9107424960036
 31
0.0
  0
LINE
  5
1C1
330
17
100
AcDbEntity
  8
FP-Hatch
100
AcDbLine
 10
18455.156630626283
 20
-1678.7758334731643
 30
0.0
 11
18455.223810697593
 21
-1678.7758334731657
 31
0.0
  0
LINE
  5
1C2
330
17
100
AcDbEntity
  8
FP-Hatch
100
AcDbLine
 10
18455.218505133023
 20
-1678.858429891737
 30
-0.07616669536480747
 11
18463.50134180464
 21
-1678.858429891737
 31
-0.07616669536480747
  0
LINE
  5
1C3
330
17
100
AcDbEntity
  8
FP-Hatch
100
AcDbLine
 10
18455.218505133023
 20
-1678.858429891737
 30
-0.07616669536480747
 11
18455.218505133023
 21
-1678.7714460823433
 31
-0.07616669536480747
  0
LINE
  5
1C4
330
17
100
AcDbEntity
  8
FP-Hatch
100
AcDbLine
 10
18455.218505133023
 20
-1678.7714460823447
 30
-0.07616669536480747
 11
18463.56852187595
 21
-1678.7714460823433
 31
-0.07616669536480747
  0
LINE
  5
1C5
330
17
100
AcDbEntity
  8
FP-Hatch
100
AcDbLine
 10
18455.223810697593
 20
-1678.862817282558
 30
0.0
 11
18455.411310697593
 21
-1678.862817282558
 31
0.0
  0
LINE
  5
1C6
330
17
100
AcDbEntity
  8
FP-Hatch
100
AcDbLine
 10
18455.223810697593
 20
-1678.862817282558
 30
0.0
 11
18455.223810697593
 21
-1678.7758334731643
 31
0.0
  0
LINE
  5
1C7
330
17
100
AcDbEntity
  8
FP-Hatch
100
AcDbLine
 10
18455.223810697593
 20
-1678.7758334731657
 30
0.0
 11
18459.365229033396
 21
-1678.7758334731657
 31
0.0
  0
LINE
  5
1C8
330
17
100
AcDbEntity
  8
FP-Hatch
100
AcDbLine
 10
18455.411310697593
 20
-1678.862817282558
 30
0.0
 11
18459.365229033396
 21
-1678.862817282558
 31
0.0
  0
LINE
  5
1C9
330
17
100
AcDbEntity
  8
FP-Hatch
100
AcDbLine
 10
18455.499755133023
 20
-1678.952179891737
 30
-0.07616669536480747
 11
18463.22009180464
 21
-1678.952179891737
 31
-0.07616669536480747
  0
LINE
  5
1CA
330
17
100
AcDbEntity
  8
FP-Hatch
100
AcDbLine
 10
18455.505060697593
 20
-1678.956567282558
 30
0.0
 11
18456.2480415334
 21
-1678.956567282558
 31
0.0
  0
LINE
  5
1CB
330
17
100
AcDbEntity
  8
FP-Hatch
100
AcDbLine
 10
18455.659722803415
 20
-1677.6790043624526
 30
-0.07616669536480747
 11
18455.592278265998
 21
-1677.711810373676
 31
-0.07616669536480747
  0
LINE
  5
1CC
330
17
100
AcDbEntity
  8
FP-Hatch
100
AcDbLine
 10
18455.665028367985
 20
-1677.6833917532736
 30
0.0
 11
18455.597583830568
 21
-1677.7161977644969
 31
0.0
  0
LINE
  5
1CD
330
17
100
AcDbEntity
  8
FP-Hatch
100
AcDbLine
 10
18455.611569927372
 20
-1678.2415043624526
 30
-0.07616669536480747
 11
18463.108277010295
 21
-1678.2415043624526
 31
-0.07616669536480747
  0
LINE
  5
1CE
330
17
100
AcDbEntity
  8
FP-Hatch
100
AcDbLine
 10
18455.611569927372
 20
-1678.2415043624526
 30
-0.07616669536480747
 11
18455.611569927372
 21
-1678.0540043624526
 31
-0.07616669536480747
  0
LINE
  5
1CF
330
17
100
AcDbEntity
  8
FP-Hatch
100
AcDbLine
 10
18455.611569927372
 20
-1678.0540043624526
 30
-0.07616669536480747
 11
18463.108277010295
 21
-1678.0540043624526
 31
-0.07616669536480747
  0
LINE
  5
1D0
330
17
100
AcDbEntity
  8
FP-Hatch
100
AcDbLine
 10
18455.61687549194
 20
-1678.2458917532736
 30
0.0
 11
18459.3652290334
 21
-1678.2458917532736
 31
0.0
  0
LINE
  5
1D1
330
17
100
AcDbEntity
  8
FP-Hatch
100
AcDbLine
 10
18455.61687549194
 20
-1678.2458917532736
 30
0.0
 11
18455.61687549194
 21
-1678.0583917532736
 31
0.0
  0
LINE
  5
1D2
330
17
100
AcDbEntity
  8
FP-Hatch
100
AcDbLine
 10
18455.61687549194
 20
-1678.0583917532736
 30
0.0
 11
18459.3652290334
 21
-1678.0583917532736
 31
0.0
  0
LINE
  5
1D3
330
17
100
AcDbEntity
  8
FP-Hatch
100
AcDbLine
 10
18455.659722803415
 20
-1677.6790043624526
 30
-0.07616669536480747
 11
18463.060124134245
 21
-1677.6790043624526
 31
-0.07616669536480747
  0
LINE
  5
1D4
330
17
100
AcDbEntity
  8
FP-Hatch
100
AcDbLine
 10
18455.665028367985
 20
-1677.6833917532736
 30
0.0
 11
18459.3652290334
 21
-1677.6833917532736
 31
0.0
  0
LINE
  5
1D5
330
17
100
AcDbEntity
  8
FP-Hatch
100
AcDbLine
 10
18455.83174755776
 20
-1677.6040043624537
 30
-0.07616669536480747
 11
18458.909923468826
 21
-1677.604004362451
 31
-0.07616669536480747
  0
LINE
  5
1D6
330
17
100
AcDbEntity
  8
FP-Hatch
100
AcDbLine
 10
18455.83705312233
 20
-1677.6083917532746
 30
0.0
 11
18458.915229033395
 21
-1677.6083917532733
 31
0.0
  0
LINE
  5
1D7
330
17
100
AcDbEntity
  8
FP-Hatch
100
AcDbLine
 10
18456.2480415334
 20
-1678.956567282558
 30
0.0
 11
18459.365229033396
 21
-1678.956567282558
 31
0.0
  0
LINE
  5
1D8
330
17
100
AcDbEntity
  8
FP-Hatch
100
AcDbLine
 10
18457.79274339752
 20
-1656.0172494650203
 30
-0.07616669536480747
 11
18460.85992346883
 21
-1656.0172494650217
 31
-0.07616669536480747
  0
LINE
  5
1D9
330
17
100
AcDbEntity
  8
FP-Hatch
100
AcDbLine
 10
18457.792743397527
 20
-1682.561554891737
 30
-0.07616669536480747
 11
18460.859923468826
 21
-1682.561554891737
 31
-0.07616669536480747
  0
LINE
  5
1DA
330
17
100
AcDbEntity
  8
FP-Hatch
100
AcDbLine
 10
18457.79804896209
 20
-1656.0216368558413
 30
0.0
 11
18457.8652290334
 21
-1656.0216368558426
 31
0.0
  0
LINE
  5
1DB
330
17
100
AcDbEntity
  8
FP-Hatch
100
AcDbLine
 10
18457.798048962097
 20
-1682.565942282558
 30
0.0
 11
18457.865229033407
 21
-1682.565942282558
 31
0.0
  0
LWPOLYLINE
  5
1DC
330
17
100
AcDbEntity
  8
FP-Hatch
100
AcDbPolyline
 90
3
 70
0
 38
-0.07616669536480747
 10
18457.859923468826
 20
-1657.5172494650217
 10
18457.859923468826
 20
-1657.3297494650217
 10
18460.859923468837
 20
-1657.3297494650217
  0
LINE
  5
1DD
330
17
100
AcDbEntity
  8
FP-Hatch
100
AcDbLine
 10
18457.859923468826
 20
-1657.5172494650217
 30
-0.07616669536480747
 11
18460.859923468837
 21
-1657.5172494650217
 31
-0.07616669536480747
  0
LWPOLYLINE
  5
1DE
330
17
100
AcDbEntity
  8
FP-Hatch
100
AcDbPolyline
 90
3
 70
0
 38
-0.07616669536480747
 10
18457.85992346883
 20
-1681.061554891737
 10
18457.85992346883
 20
-1681.249054891737
 10
18460.85992346883
 20
-1681.249054891737
  0
LINE
  5
1DF
330
17
100
AcDbEntity
  8
FP-Hatch
100
AcDbLine
 10
18457.85992346883
 20
-1681.061554891737
 30
-0.07616669536480747
 11
18460.85992346883
 21
-1681.061554891737
 31
-0.07616669536480747
  0
LWPOLYLINE
  5
1E0
330
17
100
AcDbEntity
  8
FP-Hatch
100
AcDbPolyline
 90
2
 70
0
 38
-0.07616669536480747
 10
18457.85992346883
 20
-1656.0172494650217
 10
18457.85992346883
 20
-1656.2047494650217
  0
LINE
  5
1E1
330
17
100
AcDbEntity
  8
FP-Hatch
100
AcDbLine
 10
18457.85992346883
 20
-1656.2047494650217
 30
-0.07616669536480747
 11
18460.85992346883
 21
-1656.2047494650217
 31
-0.07616669536480747
  0
LWPOLYLINE
  5
1E2
330
17
100
AcDbEntity
  8
FP-Hatch
100
AcDbPolyline
 90
2
 70
0
 38
-0.07616669536480747
 10
18457.859923468837
 20
-1682.561554891737
 10
18457.859923468837
 20
-1682.374054891737
  0
LINE
  5
1E3
330
17
100
AcDbEntity
  8
FP-Hatch
100
AcDbLine
 10
18457.859923468837
 20
-1682.374054891737
 30
-0.07616669536480747
 11
18460.859923468826
 21
-1682.374054891737
 31
-0.07616669536480747
  0
LWPOLYLINE
  5
1E4
330
17
100
AcDbEntity
  8
FP-Hatch
100
AcDbPolyline
 90
3
 70
0
 10
18457.865229033396
 20
-1657.5216368558426
 10
18457.865229033396
 20
-1657.3341368558426
 10
18458.052729033396
 20
-1657.3341368558426
  0
LINE
  5
1E5
330
17
100
AcDbEntity
  8
FP-Hatch
100
AcDbLine
 10
18457.865229033396
 20
-1657.5216368558426
 30
0.0
 11
18459.365229033396
 21
-1657.5216368558426
 31
0.0
  0
LWPOLYLINE
  5
1E6
330
17
100
AcDbEntity
  8
FP-Hatch
100
AcDbPolyline
 90
3
 70
0
 10
18457.8652290334
 20
-1681.065942282558
 10
18457.8652290334
 20
-1681.253442282558
 10
18458.0527290334
 20
-1681.253442282558
  0
LINE
  5
1E7
330
17
100
AcDbEntity
  8
FP-Hatch
100
AcDbLine
 10
18457.8652290334
 20
-1681.065942282558
 30
0.0
 11
18459.3652290334
 21
-1681.065942282558
 31
0.0
  0
LWPOLYLINE
  5
1E8
330
17
100
AcDbEntity
  8
FP-Hatch
100
AcDbPolyline
 90
2
 70
0
 10
18457.8652290334
 20
-1656.0216368558426
 10
18457.8652290334
 20
-1656.2091368558426
  0
LINE
  5
1E9
330
17
100
AcDbEntity
  8
FP-Hatch
100
AcDbLine
 10
18457.8652290334
 20
-1656.2091368558426
 30
0.0
 11
18459.365229033396
 21
-1656.2091368558426
 31
0.0
  0
LINE
  5
1EA
330
17
100
AcDbEntity
  8
FP-Hatch
100
AcDbLine
 10
18457.8652290334
 20
-1656.0216368558426
 30
0.0
 11
18459.3652290334
 21
-1656.0216368558426
 31
0.0
  0
LWPOLYLINE
  5
1EB
330
17
100
AcDbEntity
  8
FP-Hatch
100
AcDbPolyline
 90
2
 70
0
 10
18457.865229033407
 20
-1682.565942282558
 10
18457.865229033407
 20
-1682.378442282558
  0
LINE
  5
1EC
330
17
100
AcDbEntity
  8
FP-Hatch
100
AcDbLine
 10
18457.865229033407
 20
-1682.565942282558
 30
0.0
 11
18459.365229033407
 21
-1682.565942282558
 31
0.0
  0
LINE
  5
1ED
330
17
100
AcDbEntity
  8
FP-Hatch
100
AcDbLine
 10
18457.865229033407
 20
-1682.378442282558
 30
0.0
 11
18459.3652290334
 21
-1682.378442282558
 31
0.0
  0
LINE
  5
1EE
330
17
100
AcDbEntity
  8
FP-Hatch
100
AcDbLine
 10
18458.052729033396
 20
-1657.3341368558426
 30
0.0
 11
18459.365229033396
 21
-1657.3341368558426
 31
0.0
  0
LINE
  5
1EF
330
17
100
AcDbEntity
  8
FP-Hatch
100
AcDbLine
 10
18458.0527290334
 20
-1681.253442282558
 30
0.0
 11
18459.3652290334
 21
-1681.253442282558
 31
0.0
  0
LWPOLYLINE
  5
1F0
330
17
100
AcDbEntity
  8
FP-Hatch
100
AcDbPolyline
 90
5
 70
0
 10
18458.7839790334
 20
-1654.133104474627
 10
18458.7089790334
 20
-1654.133104474627
 10
18458.6152290334
 20
-1654.226854474627
 10
18458.6152290334
 20
-1654.226854474627
 10
18458.7089790334
 20
-1654.320604474627
  0
LWPOLYLINE
  5
1F1
330
17
100
AcDbEntity
  8
FP-Hatch
100
AcDbPolyline
 90
5
 70
0
 10
18458.783979033404
 20
-1685.5794746637707
 10
18458.708979033407
 20
-1685.5794746637707
 10
18458.615229033407
 20
-1685.4857246637707
 10
18458.615229033407
 20
-1685.4857246637707
 10
18458.708979033407
 20
-1685.3919746637707
  0
LWPOLYLINE
  5
1F2
330
17
100
AcDbEntity
  8
FP-Hatch
100
AcDbPolyline
 90
3
 70
0
 38
-0.07616669536480747
 10
18459.941173468833
 20
-1654.1287170838061
 10
18458.70367346883
 20
-1654.1287170838061
 42
0.9938246167365051
 10
18458.702512031632
 20
-1654.3162098892028
  0
LINE
  5
1F3
330
17
100
AcDbEntity
  8
FP-Hatch
100
AcDbLine
 10
18459.96194008315
 20
-1654.3162170838061
 30
-0.07616669536480747
 11
18458.70367346883
 21
-1654.3162170838061
 31
-0.07616669536480747
  0
LINE
  5
1F4
330
17
100
AcDbEntity
  8
FP-Hatch
100
AcDbLine
 10
18459.941173468826
 20
-1685.5750872729498
 30
-0.07616669536480747
 11
18458.703673468837
 21
-1685.5750872729498
 31
-0.07616669536480747
  0
LINE
  5
1F5
330
17
100
AcDbEntity
  8
FP-Hatch
100
AcDbLine
 10
18459.961940083147
 20
-1685.3875872729498
 30
-0.07616669536480747
 11
18458.703673468837
 21
-1685.3875872729498
 31
-0.07616669536480747
  0
LINE
  5
1F6
330
17
100
AcDbEntity
  8
FP-Hatch
100
AcDbLine
 10
18458.763212419086
 20
-1654.3206044746285
 30
0.0
 11
18458.7089790334
 21
-1654.320604474627
 31
0.0
  0
LINE
  5
1F7
330
17
100
AcDbEntity
  8
FP-Hatch
100
AcDbLine
 10
18458.763212419086
 20
-1685.3919746637707
 30
0.0
 11
18458.708979033407
 21
-1685.3919746637707
 31
0.0
  0
LINE
  5
1F8
330
17
100
AcDbEntity
  8
FP-Hatch
100
AcDbLine
 10
18458.76321241908
 20
-1654.320604474627
 30
0.0
 11
18459.365229033396
 21
-1654.320604474627
 31
0.0
  0
LINE
  5
1F9
330
17
100
AcDbEntity
  8
FP-Hatch
100
AcDbLine
 10
18458.763212419086
 20
-1685.3919746637707
 30
0.0
 11
18459.3652290334
 21
-1685.3919746637707
 31
0.0
  0
LINE
  5
1FA
330
17
100
AcDbEntity
  8
FP-Hatch
100
AcDbLine
 10
18459.365229033396
 20
-1654.133104474627
 30
0.0
 11
18458.7839790334
 21
-1654.133104474627
 31
0.0
  0
LINE
  5
1FB
330
17
100
AcDbEntity
  8
FP-Hatch
100
AcDbLine
 10
18459.3652290334
 20
-1685.5794746637707
 30
0.0
 11
18458.783979033404
 21
-1685.5794746637707
 31
0.0
  0
LWPOLYLINE
  5
1FC
330
17
100
AcDbEntity
  8
FP-Hatch
100
AcDbPolyline
 90
3
 70
0
 38
-0.07616669536480747
 10
18458.89117346883
 20
-1654.8787170838061
 42
0.4142135623730951
 10
18458.79742346883
 20
-1654.9724670838061
 10
18458.79742346883
 20
-1655.0662170838061
  0
LINE
  5
1FD
330
17
100
AcDbEntity
  8
FP-Hatch
100
AcDbLine
 10
18458.79742346883
 20
-1655.0662170838061
 30
-0.07616669536480747
 11
18459.92242346883
 21
-1655.0662170838061
 31
-0.07616669536480747
  0
LWPOLYLINE
  5
1FE
330
17
100
AcDbEntity
  8
FP-Hatch
100
AcDbPolyline
 90
3
 70
0
 38
-0.07616669536480747
 10
18458.891173468837
 20
-1683.7000872729498
 42
-0.4142135623730951
 10
18458.797423468837
 20
-1683.6063372729498
 10
18458.797423468837
 20
-1683.5125872729498
  0
LINE
  5
1FF
330
17
100
AcDbEntity
  8
FP-Hatch
100
AcDbLine
 10
18458.797423468837
 20
-1683.5125872729498
 30
-0.07616669536480747
 11
18459.922423468826
 21
-1683.5125872729498
 31
-0.07616669536480747
  0
LWPOLYLINE
  5
200
330
17
100
AcDbEntity
  8
FP-Hatch
100
AcDbPolyline
 90
3
 70
0
 10
18458.8964790334
 20
-1654.883104474627
 10
18458.8027290334
 20
-1654.976854474627
 10
18458.8027290334
 20
-1655.070604474627
  0
LINE
  5
201
330
17
100
AcDbEntity
  8
FP-Hatch
100
AcDbLine
 10
18458.8027290334
 20
-1655.070604474627
 30
0.0
 11
18459.365229033396
 21
-1655.070604474627
 31
0.0
  0
LWPOLYLINE
  5
202
330
17
100
AcDbEntity
  8
FP-Hatch
100
AcDbPolyline
 90
3
 70
0
 10
18458.896479033407
 20
-1683.7044746637707
 10
18458.802729033407
 20
-1683.6107246637707
 10
18458.802729033407
 20
-1683.5169746637707
  0
LINE
  5
203
330
17
100
AcDbEntity
  8
FP-Hatch
100
AcDbLine
 10
18458.802729033407
 20
-1683.5169746637707
 30
0.0
 11
18459.3652290334
 21
-1683.5169746637707
 31
0.0
  0
LINE
  5
204
330
17
100
AcDbEntity
  8
FP-Hatch
100
AcDbLine
 10
18458.89117346883
 20
-1654.8787170838061
 30
-0.07616669536480747
 11
18459.82867346883
 21
-1654.8787170838061
 31
-0.07616669536480747
  0
LINE
  5
205
330
17
100
AcDbEntity
  8
FP-Hatch
100
AcDbLine
 10
18458.891173468837
 20
-1683.7000872729498
 30
-0.07616669536480747
 11
18459.828673468826
 21
-1683.7000872729498
 31
-0.07616669536480747
  0
LINE
  5
206
330
17
100
AcDbEntity
  8
FP-Hatch
100
AcDbLine
 10
18458.8964790334
 20
-1654.883104474627
 30
0.0
 11
18459.365229033396
 21
-1654.883104474627
 31
0.0
  0
LINE
  5
207
330
17
100
AcDbEntity
  8
FP-Hatch
100
AcDbLine
 10
18458.896479033407
 20
-1683.7044746637707
 30
0.0
 11
18459.3652290334
 21
-1683.7044746637707
 31
0.0
  0
LINE
  5
208
330
17
100
AcDbEntity
  8
FP-Hatch
100
AcDbLine
 10
18458.909923468833
 20
-1677.6790043624526
 30
-0.07616669536480747
 11
18458.909923468833
 21
-1665.9547494650217
 31
-0.07616669536480747
  0
LINE
  5
209
330
17
100
AcDbEntity
  8
FP-Hatch
100
AcDbLine
 10
18458.915229033402
 20
-1677.6833917532736
 30
0.0
 11
18458.915229033402
 21
-1665.9591368558426
 31
0.0
  0
LINE
  5
20A
330
17
100
AcDbEntity
  8
FP-Hatch
100
AcDbLine
 10
18458.98492346883
 20
-1677.6790043624526
 30
-0.07616669536480747
 11
18458.98492346883
 21
-1665.9547494650217
 31
-0.07616669536480747
  0
LINE
  5
20B
330
17
100
AcDbEntity
  8
FP-Hatch
100
AcDbLine
 10
18458.9902290334
 20
-1677.6833917532736
 30
0.0
 11
18458.9902290334
 21
-1665.9591368558426
 31
0.0
  0
LWPOLYLINE
  5
20C
330
17
100
AcDbEntity
  8
FP-Hatch
100
AcDbPolyline
 90
2
 70
0
 38
-0.07616669536480747
 10
18459.17242346883
 20
-1665.5797494650217
 10
18459.17242346883
 20
-1667.4547494650217
  0
LWPOLYLINE
  5
20D
330
17
100
AcDbEntity
  8
FP-Hatch
100
AcDbPolyline
 90
4
 70
0
 10
18459.1777290334
 20
-1667.4591368558426
 10
18459.1777290334
 20
-1665.5841368558426
 10
18459.5527290334
 20
-1665.5841368558426
 10
18459.5527290334
 20
-1667.4591368558426
  0
LINE
  5
20E
330
17
100
AcDbEntity
  8
FP-Hatch
100
AcDbLine
 10
18460.865229033396
 20
-1682.565942282558
 30
0.0
 11
18459.365229033396
 21
-1682.565942282558
 31
0.0
  0
LINE
  5
20F
330
17
100
AcDbEntity
  8
FP-Hatch
100
AcDbLine
 10
18459.3652290334
 20
-1685.5794746637707
 30
0.0
 11
18459.946479033395
 21
-1685.5794746637707
 31
0.0
  0
LINE
  5
210
330
17
100
AcDbEntity
  8
FP-Hatch
100
AcDbLine
 10
18459.967245647716
 20
-1685.3919746637707
 30
0.0
 11
18459.3652290334
 21
-1685.3919746637707
 31
0.0
  0
LINE
  5
211
330
17
100
AcDbEntity
  8
FP-Hatch
100
AcDbLine
 10
18459.833979033396
 20
-1683.7044746637707
 30
0.0
 11
18459.3652290334
 21
-1683.7044746637707
 31
0.0
  0
LINE
  5
212
330
17
100
AcDbEntity
  8
FP-Hatch
100
AcDbLine
 10
18459.927729033396
 20
-1683.5169746637707
 30
0.0
 11
18459.3652290334
 21
-1683.5169746637707
 31
0.0
  0
LINE
  5
213
330
17
100
AcDbEntity
  8
FP-Hatch
100
AcDbLine
 10
18460.865229033396
 20
-1682.378442282558
 30
0.0
 11
18459.3652290334
 21
-1682.378442282558
 31
0.0
  0
LINE
  5
214
330
17
100
AcDbEntity
  8
FP-Hatch
100
AcDbLine
 10
18460.6777290334
 20
-1681.253442282558
 30
0.0
 11
18459.3652290334
 21
-1681.253442282558
 31
0.0
  0
LINE
  5
215
330
17
100
AcDbEntity
  8
FP-Hatch
100
AcDbLine
 10
18460.8652290334
 20
-1681.065942282558
 30
0.0
 11
18459.3652290334
 21
-1681.065942282558
 31
0.0
  0
LINE
  5
216
330
17
100
AcDbEntity
  8
FP-Hatch
100
AcDbLine
 10
18463.113582574864
 20
-1678.2458917532736
 30
0.0
 11
18459.3652290334
 21
-1678.2458917532736
 31
0.0
  0
LINE
  5
217
330
17
100
AcDbEntity
  8
FP-Hatch
100
AcDbLine
 10
18463.113582574864
 20
-1678.0583917532736
 30
0.0
 11
18459.3652290334
 21
-1678.0583917532736
 31
0.0
  0
LINE
  5
218
330
17
100
AcDbEntity
  8
FP-Hatch
100
AcDbLine
 10
18463.065429698814
 20
-1677.6833917532736
 30
0.0
 11
18459.3652290334
 21
-1677.6833917532736
 31
0.0
  0
LINE
  5
219
330
17
100
AcDbEntity
  8
FP-Hatch
100
AcDbLine
 10
18466.00208650674
 20
-1665.5841368558426
 30
0.0
 11
18459.3652290334
 21
-1665.5841368558426
 31
0.0
  0
LINE
  5
21A
330
17
100
AcDbEntity
  8
FP-Hatch
100
AcDbLine
 10
18460.8652290334
 20
-1656.0216368558426
 30
0.0
 11
18459.3652290334
 21
-1656.0216368558426
 31
0.0
  0
LINE
  5
21B
330
17
100
AcDbEntity
  8
FP-Hatch
100
AcDbLine
 10
18462.4824165334
 20
-1678.956567282558
 30
0.0
 11
18459.365229033407
 21
-1678.956567282558
 31
0.0
  0
LINE
  5
21C
330
17
100
AcDbEntity
  8
FP-Hatch
100
AcDbLine
 10
18463.31914736921
 20
-1678.862817282558
 30
0.0
 11
18459.365229033407
 21
-1678.862817282558
 31
0.0
  0
LINE
  5
21D
330
17
100
AcDbEntity
  8
FP-Hatch
100
AcDbLine
 10
18463.50664736921
 20
-1678.7758334731657
 30
0.0
 11
18459.365229033407
 21
-1678.7758334731657
 31
0.0
  0
LINE
  5
21E
330
17
100
AcDbEntity
  8
FP-Hatch
100
AcDbLine
 10
18466.340229033405
 20
-1665.3966368558426
 30
0.0
 11
18459.365229033407
 21
-1665.3966368558426
 31
0.0
  0
LINE
  5
21F
330
17
100
AcDbEntity
  8
FP-Hatch
100
AcDbLine
 10
18466.490229033407
 20
-1664.4591368558426
 30
0.0
 11
18459.365229033407
 21
-1664.4591368558426
 31
0.0
  0
LINE
  5
220
330
17
100
AcDbEntity
  8
FP-Hatch
100
AcDbLine
 10
18466.677729033407
 20
-1664.2716368558426
 30
0.0
 11
18459.365229033407
 21
-1664.2716368558426
 31
0.0
  0
LINE
  5
221
330
17
100
AcDbEntity
  8
FP-Hatch
100
AcDbLine
 10
18467.427729033407
 20
-1664.0976692370555
 30
0.0
 11
18459.365229033407
 21
-1664.0976692370555
 31
0.0
  0
LINE
  5
222
330
17
100
AcDbEntity
  8
FP-Hatch
100
AcDbLine
 10
18466.490229033407
 20
-1663.1466368558426
 30
0.0
 11
18459.365229033407
 21
-1663.1466368558426
 31
0.0
  0
LINE
  5
223
330
17
100
AcDbEntity
  8
FP-Hatch
100
AcDbLine
 10
18466.490229033407
 20
-1662.7716368558426
 30
0.0
 11
18459.365229033407
 21
-1662.7716368558426
 31
0.0
  0
LINE
  5
224
330
17
100
AcDbEntity
  8
FP-Hatch
100
AcDbLine
 10
18460.865229033407
 20
-1657.5216368558426
 30
0.0
 11
18459.365229033407
 21
-1657.5216368558426
 31
0.0
  0
LINE
  5
225
330
17
100
AcDbEntity
  8
FP-Hatch
100
AcDbLine
 10
18460.677729033407
 20
-1657.3341368558426
 30
0.0
 11
18459.365229033407
 21
-1657.3341368558426
 31
0.0
  0
LINE
  5
226
330
17
100
AcDbEntity
  8
FP-Hatch
100
AcDbLine
 10
18460.8652290334
 20
-1656.2091368558426
 30
0.0
 11
18459.365229033407
 21
-1656.2091368558426
 31
0.0
  0
LINE
  5
227
330
17
100
AcDbEntity
  8
FP-Hatch
100
AcDbLine
 10
18459.9277290334
 20
-1655.070604474627
 30
0.0
 11
18459.365229033407
 21
-1655.070604474627
 31
0.0
  0
LINE
  5
228
330
17
100
AcDbEntity
  8
FP-Hatch
100
AcDbLine
 10
18459.8339790334
 20
-1654.883104474627
 30
0.0
 11
18459.365229033407
 21
-1654.883104474627
 31
0.0
  0
LINE
  5
229
330
17
100
AcDbEntity
  8
FP-Hatch
100
AcDbLine
 10
18459.96724564772
 20
-1654.320604474627
 30
0.0
 11
18459.365229033407
 21
-1654.320604474627
 31
0.0
  0
LINE
  5
22A
330
17
100
AcDbEntity
  8
FP-Hatch
100
AcDbLine
 10
18459.365229033407
 20
-1654.133104474627
 30
0.0
 11
18459.946479033402
 21
-1654.133104474627
 31
0.0
  0
LWPOLYLINE
  5
22B
330
17
100
AcDbEntity
  8
FP-Hatch
100
AcDbPolyline
 90
2
 70
0
 38
-0.07616669536480747
 10
18459.54742346883
 20
-1667.4547494650217
 10
18459.54742346883
 20
-1665.5797494650217
  0
LINE
  5
22C
330
17
100
AcDbEntity
  8
FP-Hatch
100
AcDbLine
 10
18465.98990930875
 20
-1665.9547494650217
 30
-0.07616669536480747
 11
18459.54742346883
 21
-1665.9547494650217
 31
-0.07616669536480747
  0
LINE
  5
22D
330
17
100
AcDbEntity
  8
FP-Hatch
100
AcDbLine
 10
18465.92019155148
 20
-1665.9591368558426
 30
0.0
 11
18459.5527290334
 21
-1665.9591368558426
 31
0.0
  0
LINE
  5
22E
330
17
100
AcDbEntity
  8
FP-Hatch
100
AcDbLine
 10
18459.73492346883
 20
-1677.6790043624526
 30
-0.07616669536480747
 11
18459.73492346883
 21
-1665.9547494650217
 31
-0.07616669536480747
  0
LINE
  5
22F
330
17
100
AcDbEntity
  8
FP-Hatch
100
AcDbLine
 10
18459.7402290334
 20
-1677.6833917532736
 30
0.0
 11
18459.7402290334
 21
-1665.9591368558426
 31
0.0
  0
LINE
  5
230
330
17
100
AcDbEntity
  8
FP-Hatch
100
AcDbLine
 10
18459.80992346883
 20
-1677.6790043624526
 30
-0.07616669536480747
 11
18459.80992346883
 21
-1665.9547494650217
 31
-0.07616669536480747
  0
LINE
  5
231
330
17
100
AcDbEntity
  8
FP-Hatch
100
AcDbLine
 10
18465.72534201572
 20
-1666.0297494650206
 30
-0.07616669536480747
 11
18459.80992346883
 21
-1666.0297494650206
 31
-0.07616669536480747
  0
LINE
  5
232
330
17
100
AcDbEntity
  8
FP-Hatch
100
AcDbLine
 10
18462.888099379903
 20
-1677.6040043624537
 30
-0.07616669536480747
 11
18459.809923468834
 21
-1677.6040043624523
 31
-0.07616669536480747
  0
LINE
  5
233
330
17
100
AcDbEntity
  8
FP-Hatch
100
AcDbLine
 10
18459.8152290334
 20
-1677.6833917532736
 30
0.0
 11
18459.8152290334
 21
-1665.9591368558426
 31
0.0
  0
LINE
  5
234
330
17
100
AcDbEntity
  8
FP-Hatch
100
AcDbLine
 10
18465.73064758029
 20
-1666.034136855843
 30
0.0
 11
18459.8152290334
 21
-1666.0341368558416
 31
0.0
  0
LINE
  5
235
330
17
100
AcDbEntity
  8
FP-Hatch
100
AcDbLine
 10
18462.893404944472
 20
-1677.6083917532746
 30
0.0
 11
18459.815229033404
 21
-1677.608391753272
 31
0.0
  0
LWPOLYLINE
  5
236
330
17
100
AcDbEntity
  8
FP-Hatch
100
AcDbPolyline
 90
3
 70
0
 38
-0.07616669536480747
 10
18459.828673468826
 20
-1683.7000872729498
 42
0.4142135623730951
 10
18459.922423468826
 20
-1683.6063372729498
 10
18459.922423468826
 20
-1683.5125872729498
  0
LWPOLYLINE
  5
237
330
17
100
AcDbEntity
  8
FP-Hatch
100
AcDbPolyline
 90
3
 70
0
 38
-0.07616669536480747
 10
18459.82867346883
 20
-1654.8787170838061
 42
-0.4142135623730951
 10
18459.92242346883
 20
-1654.9724670838061
 10
18459.92242346883
 20
-1655.0662170838061
  0
LWPOLYLINE
  5
238
330
17
100
AcDbEntity
  8
FP-Hatch
100
AcDbPolyline
 90
3
 70
0
 10
18459.833979033396
 20
-1683.7044746637707
 10
18459.927729033396
 20
-1683.6107246637707
 10
18459.927729033396
 20
-1683.5169746637707
  0
LWPOLYLINE
  5
239
330
17
100
AcDbEntity
  8
FP-Hatch
100
AcDbPolyline
 90
3
 70
0
 10
18459.8339790334
 20
-1654.883104474627
 10
18459.9277290334
 20
-1654.976854474627
 10
18459.9277290334
 20
-1655.070604474627
  0
LWPOLYLINE
  5
23A
330
17
100
AcDbEntity
  8
FP-Hatch
100
AcDbPolyline
 90
5
 70
0
 10
18459.946479033395
 20
-1685.5794746637707
 10
18460.021479033396
 20
-1685.5794746637707
 10
18460.115229033396
 20
-1685.4857246637707
 10
18460.115229033396
 20
-1685.4857246637707
 10
18460.021479033396
 20
-1685.3919746637707
  0
LWPOLYLINE
  5
23B
330
17
100
AcDbEntity
  8
FP-Hatch
100
AcDbPolyline
 90
5
 70
0
 10
18459.946479033402
 20
-1654.133104474627
 10
18460.0214790334
 20
-1654.133104474627
 10
18460.1152290334
 20
-1654.226854474627
 10
18460.1152290334
 20
-1654.226854474627
 10
18460.0214790334
 20
-1654.320604474627
  0
LINE
  5
23C
330
17
100
AcDbEntity
  8
FP-Hatch
100
AcDbLine
 10
18459.967245647716
 20
-1685.3919746637707
 30
0.0
 11
18460.021479033396
 21
-1685.3919746637707
 31
0.0
  0
LINE
  5
23D
330
17
100
AcDbEntity
  8
FP-Hatch
100
AcDbLine
 10
18459.967245647716
 20
-1654.3206044746285
 30
0.0
 11
18460.0214790334
 21
-1654.320604474627
 31
0.0
  0
LWPOLYLINE
  5
23E
330
17
100
AcDbEntity
  8
FP-Hatch
100
AcDbPolyline
 90
2
 70
0
 38
-0.07616669536480747
 10
18460.016173468826
 20
-1685.5750872729498
 42
1.023278014056661
 10
18460.011860769548
 20
-1685.3876865221523
  0
LWPOLYLINE
  5
23F
330
17
100
AcDbEntity
  8
FP-Hatch
100
AcDbPolyline
 90
3
 70
0
 10
18460.8652290334
 20
-1681.065942282558
 10
18460.8652290334
 20
-1681.253442282558
 10
18460.6777290334
 20
-1681.253442282558
  0
LWPOLYLINE
  5
240
330
17
100
AcDbEntity
  8
FP-Hatch
100
AcDbPolyline
 90
3
 70
0
 10
18460.865229033407
 20
-1657.5216368558426
 10
18460.865229033407
 20
-1657.3341368558426
 10
18460.677729033407
 20
-1657.3341368558426
  0
LWPOLYLINE
  5
241
330
17
100
AcDbEntity
  8
FP-Hatch
100
AcDbPolyline
 90
2
 70
0
 38
-0.07616669536480747
 10
18460.859923468826
 20
-1682.561554891737
 10
18460.859923468826
 20
-1682.374054891737
  0
LWPOLYLINE
  5
242
330
17
100
AcDbEntity
  8
FP-Hatch
100
AcDbPolyline
 90
2
 70
0
 38
-0.07616669536480747
 10
18460.85992346883
 20
-1681.061554891737
 10
18460.85992346883
 20
-1681.249054891737
  0
LWPOLYLINE
  5
243
330
17
100
AcDbEntity
  8
FP-Hatch
100
AcDbPolyline
 90
2
 70
0
 38
-0.07616669536480747
 10
18460.85992346883
 20
-1656.0172494650217
 10
18460.85992346883
 20
-1656.2047494650217
  0
LWPOLYLINE
  5
244
330
17
100
AcDbEntity
  8
FP-Hatch
100
AcDbPolyline
 90
2
 70
0
 38
-0.07616669536480747
 10
18460.859923468837
 20
-1657.5172494650217
 10
18460.859923468837
 20
-1657.3297494650217
  0
LWPOLYLINE
  5
245
330
17
100
AcDbEntity
  8
FP-Hatch
100
AcDbPolyline
 90
2
 70
0
 10
18460.865229033396
 20
-1682.565942282558
 10
18460.865229033396
 20
-1682.378442282558
  0
LINE
  5
246
330
17
100
AcDbEntity
  8
FP-Hatch
100
AcDbLine
 10
18460.932409104706
 20
-1682.565942282558
 30
0.0
 11
18460.865229033396
 21
-1682.565942282558
 31
0.0
  0
LWPOLYLINE
  5
247
330
17
100
AcDbEntity
  8
FP-Hatch
100
AcDbPolyline
 90
2
 70
0
 10
18460.8652290334
 20
-1656.0216368558426
 10
18460.8652290334
 20
-1656.2091368558426
  0
LINE
  5
248
330
17
100
AcDbEntity
  8
FP-Hatch
100
AcDbLine
 10
18460.93240910471
 20
-1656.0216368558413
 30
0.0
 11
18460.8652290334
 21
-1656.0216368558426
 31
0.0
  0
LINE
  5
249
330
17
100
AcDbEntity
  8
FP-Hatch
100
AcDbLine
 10
18463.22539736921
 20
-1678.956567282558
 30
0.0
 11
18462.4824165334
 21
-1678.956567282558
 31
0.0
  0
LINE
  5
24A
330
17
100
AcDbEntity
  8
FP-Hatch
100
AcDbLine
 10
18463.060124134245
 20
-1677.6790043624526
 30
-0.07616669536480747
 11
18463.127568671665
 21
-1677.711810373676
 31
-0.07616669536480747
  0
LINE
  5
24B
330
17
100
AcDbEntity
  8
FP-Hatch
100
AcDbLine
 10
18463.065429698814
 20
-1677.6833917532736
 30
0.0
 11
18463.132874236235
 21
-1677.7161977644969
 31
0.0
  0
LINE
  5
24C
330
17
100
AcDbEntity
  8
FP-Hatch
100
AcDbLine
 10
18463.108277010295
 20
-1678.2415043624526
 30
-0.07616669536480747
 11
18463.108277010295
 21
-1678.0540043624526
 31
-0.07616669536480747
  0
LINE
  5
24D
330
17
100
AcDbEntity
  8
FP-Hatch
100
AcDbLine
 10
18463.113582574864
 20
-1678.2458917532736
 30
0.0
 11
18463.113582574864
 21
-1678.0583917532736
 31
0.0
  0
LINE
  5
24E
330
17
100
AcDbEntity
  8
FP-Hatch
100
AcDbLine
 10
18463.50664736921
 20
-1678.862817282558
 30
0.0
 11
18463.31914736921
 21
-1678.862817282558
 31
0.0
  0
LINE
  5
24F
330
17
100
AcDbEntity
  8
FP-Hatch
100
AcDbLine
 10
18463.50134180464
 20
-1678.858429891737
 30
-0.07616669536480747
 11
18463.50134180464
 21
-1678.7714460823433
 31
-0.07616669536480747
  0
LINE
  5
250
330
17
100
AcDbEntity
  8
FP-Hatch
100
AcDbLine
 10
18463.50664736921
 20
-1678.862817282558
 30
0.0
 11
18463.50664736921
 21
-1678.7758334731643
 31
0.0
  0
LINE
  5
251
330
17
100
AcDbEntity
  8
FP-Hatch
100
AcDbLine
 10
18463.57382744052
 20
-1678.7758334731643
 30
0.0
 11
18463.50664736921
 21
-1678.7758334731657
 31
0.0
  0
LWPOLYLINE
  5
252
330
17
100
AcDbEntity
  8
FP-Proposed Wall
100
AcDbPolyline
 90
2
 70
0
 38
24.501592026040623
 10
18464.376226090637
 20
-1761.410708528408
 10
18464.35361561552
 20
-1762.9107084133577
  0
LWPOLYLINE
  5
253
330
17
100
AcDbEntity
  8
FP-Proposed Wall
100
AcDbPolyline
 90
4
 70
0
 10
18476.35361561552
 20
-1768.9107072115492
 10
18478.35361561552
 20
-1768.9107072115492
 10
18478.35361561552
 20
-1762.9107084144719
 10
18464.3762328187
 20
-1762.9107084144719
  0
LINE
  5
254
330
17
100
AcDbEntity
  8
FP-Hatch
100
AcDbLine
 10
18465.92019155148
 20
-1665.9591368558426
 30
0.0
 11
18465.99521487332
 21
-1665.9591368558426
 31
0.0
  0
LINE
  5
255
330
17
100
AcDbEntity
  8
FP-Hatch
100
AcDbLine
 10
18466.00208650674
 20
-1665.5841368558426
 30
0.0
 11
18466.152729033405
 21
-1665.5841368558426
 31
0.0
  0
LINE
  5
256
330
17
100
AcDbEntity
  8
FP-Hatch
100
AcDbLine
 10
18466.4902290334
 20
-1665.3966368558426
 30
0.0
 11
18466.340229033405
 21
-1665.3966368558426
 31
0.0
  0
LINE
  5
257
330
17
100
AcDbEntity
  8
FP-Hatch
100
AcDbLine
 10
18466.484923468837
 20
-1663.1422494650217
 30
-0.07616669536480747
 11
18466.484923468837
 21
-1662.7672494650217
 31
-0.07616669536480747
  0
LINE
  5
258
330
17
100
AcDbEntity
  8
FP-Hatch
100
AcDbLine
 10
18466.490229033407
 20
-1663.1466368558426
 30
0.0
 11
18466.490229033407
 21
-1662.7716368558426
 31
0.0
  0
LINE
  5
259
330
17
100
AcDbEntity
  8
FP-Hatch
100
AcDbLine
 10
18467.427729033407
 20
-1664.2716368558426
 30
0.0
 11
18466.677729033407
 21
-1664.2716368558426
 31
0.0
  0
LINE
  5
25A
330
17
100
AcDbEntity
  8
FP-Hatch
100
AcDbLine
 10
18467.422423468837
 20
-1664.2672494650217
 30
-0.07616669536480747
 11
18467.422423468837
 21
-1664.0932818462345
 31
-0.07616669536480747
  0
LINE
  5
25B
330
17
100
AcDbEntity
  8
FP-Hatch
100
AcDbLine
 10
18467.427729033407
 20
-1664.2716368558426
 30
0.0
 11
18467.427729033407
 21
-1664.0976692370555
 31
0.0
  0
LINE
  5
25C
330
17
100
AcDbEntity
  8
FP-Hatch
100
AcDbLine
 10
18467.494909104716
 20
-1664.0976692370555
 30
0.0
 11
18467.427729033407
 21
-1664.0976692370555
 31
0.0
  0
LINE
  5
25D
330
17
100
AcDbEntity
  8
FP-Proposed Wall
100
AcDbLine
 10
18470.96414719132
 20
-1599.8473915557959
 30
0.0
 11
18470.214147310264
 21
-1599.8478139504787
 31
0.0
  0
LINE
  5
25E
330
17
100
AcDbEntity
  8
FP-Proposed Wall
100
AcDbLine
 10
18470.236675027198
 20
-1639.8478076194676
 30
0.0
 11
18470.21414731062
 21
-1599.8478139504784
 31
0.0
  0
LWPOLYLINE
  5
25F
330
17
100
AcDbEntity
  8
FP-Proposed Wall
100
AcDbPolyline
 90
2
 70
0
 10
18470.237801411895
 20
-1641.8478053022827
 10
18470.294120704057
 20
-1741.847791431022
  0
LINE
  5
260
330
17
100
AcDbEntity
  8
FP-Proposed Wall
100
AcDbLine
 10
18470.98780129295
 20
-1641.8473829076
 30
0.0
 11
18470.237801411895
 21
-1641.8478053022827
 31
0.0
  0
LINE
  5
261
330
17
100
AcDbEntity
  8
FP-Proposed Wall
100
AcDbLine
 10
18470.963581999535
 20
-1598.8473937155138
 30
0.0
 11
18471.152311969607
 21
-1598.8472874241158
 31
0.0
  0
LINE
  5
262
330
17
100
AcDbEntity
  8
FP-Proposed Wall
100
AcDbLine
 10
18470.964147192448
 20
-1599.8473935557943
 30
0.0
 11
18470.963583999535
 21
-1598.8473937143874
 31
0.0
  0
LINE
  5
263
330
17
100
AcDbEntity
  8
FP-Proposed Wall
100
AcDbLine
 10
18471.535202082123
 20
-1640.1224029128814
 30
0.0
 11
18470.986674908254
 21
-1639.8473852247846
 31
0.0
  0
LINE
  5
264
330
17
100
AcDbEntity
  8
FP-Proposed Wall
100
AcDbLine
 10
18470.987236101166
 20
-1640.8473850673179
 30
0.0
 11
18471.175966071238
 21
-1640.84727877592
 31
0.0
  0
LINE
  5
265
330
17
100
AcDbEntity
  8
FP-Proposed Wall
100
AcDbLine
 10
18470.987801294075
 20
-1641.8473849075983
 30
0.0
 11
18470.987238101166
 21
-1640.8473850661915
 31
0.0
  0
LINE
  5
266
330
17
100
AcDbEntity
  8
FP-Stair
100
AcDbLine
 10
18472.220707695116
 20
-1741.910763760068
 30
0.0
 11
18472.220707695105
 21
-1599.9116160745032
 31
0.0
  0
LWPOLYLINE
  5
267
330
17
100
AcDbEntity
  8
FP-Stair
100
AcDbPolyline
 90
2
 70
0
 10
18472.220707695105
 20
-1615.8136238788627
 10
18520.41669209226
 20
-1615.8136238788627
  0
LINE
  5
268
330
17
100
AcDbEntity
  8
FP-Stair
100
AcDbLine
 10
18472.970707695105
 20
-1599.9116160747087
 30
0.0
 11
18472.220707695105
 21
-1599.9116160747087
 31
0.0
  0
LINE
  5
269
330
17
100
AcDbEntity
  8
FP-Stair
100
AcDbLine
 10
18472.970705695105
 20
-1598.9116180747076
 30
0.0
 11
18473.159435695106
 21
-1598.9116180747076
 31
0.0
  0
LINE
  5
26A
330
17
100
AcDbEntity
  8
FP-Stair
100
AcDbLine
 10
18472.970707695105
 20
-1599.9116180747076
 30
0.0
 11
18472.970707695105
 21
-1598.9116180747076
 31
0.0
  0
LWPOLYLINE
  5
26B
330
17
100
AcDbEntity
  8
FP-Hatch
100
AcDbPolyline
 90
4
 70
0
 10
18474.220707695116
 20
-1741.9107666817715
 10
18474.220707695105
 20
-1617.8136238788627
 10
18518.41669209226
 20
-1617.8136238788627
 10
18518.41669209226
 20
-1741.910831245553
  0
LWPOLYLINE
  5
26C
330
17
100
AcDbEntity
  8
FP-Hatch
100
AcDbPolyline
 90
4
 70
0
 10
18475.220707695116
 20
-1741.9107681426233
 10
18475.220707695105
 20
-1618.8136238788627
 10
18517.41669209226
 20
-1618.8136238788627
 10
18517.41669209226
 20
-1741.9108297847013
  0
LWPOLYLINE
  5
26D
330
17
100
AcDbEntity
  8
FP-Proposed Wall
100
AcDbPolyline
 90
2
 70
0
 10
18476.376226090637
 20
-1768.910707325471
 10
18476.35361561552
 20
-1770.410707210421
  0
LWPOLYLINE
  5
26E
330
17
100
AcDbEntity
  8
FP-Proposed Wall
 62
1
100
AcDbPolyline
 90
5
 70
0
 10
18478.318672138732
 20
-1741.9107726682903
 10
18478.318699893684
 20
-1621.911616077439
 10
18514.318699893684
 20
-1621.911616077439
 10
18514.318672138732
 20
-1741.9107726682903
 10
18478.318672138732
 20
-1741.9107726682903
  0
LINE
  5
26F
330
17
100
AcDbEntity
  8
FP-Stair
100
AcDbLine
 10
18478.35361561552
 20
-1764.4102350736282
 30
0.0
 11
18536.322679145233
 21
-1764.4101239685208
 31
0.0
  0
LWPOLYLINE
  5
270
330
17
100
AcDbEntity
  8
FP-Hatch
100
AcDbPolyline
 90
6
 70
0
 10
18479.818699893684
 20
-1709.0472081001387
 10
18479.818699893684
 20
-1623.411616077439
 10
18512.818699893684
 20
-1623.411616077439
 10
18512.818672138732
 20
-1740.4107726682903
 10
18479.818672138732
 20
-1740.4107726682903
 10
18479.818699893684
 20
-1709.0472081001387
  0
LWPOLYLINE
  5
271
330
17
100
AcDbEntity
  8
FP-Hatch
100
AcDbPolyline
 90
6
 70
0
 10
18480.818699893684
 20
-1709.0472081001387
 10
18480.818699893684
 20
-1624.411616077439
 10
18511.818699893684
 20
-1624.411616077439
 10
18511.818672138732
 20
-1739.4107726682903
 10
18480.818672138732
 20
-1739.4107726682903
 10
18480.818699893684
 20
-1709.0472081001387
  0
LINE
  5
272
330
17
100
AcDbEntity
  8
FP-Hatch
100
AcDbLine
 10
18511.818699893684
 20
-1720.411616071451
 30
0.0
 11
18480.818699893684
 21
-1720.411616071451
 31
0.0
  0
LINE
  5
273
330
17
100
AcDbEntity
  8
FP-Hatch
100
AcDbLine
 10
18511.818699893684
 20
-1704.411616071451
 30
0.0
 11
18480.818699893684
 21
-1704.411616071451
 31
0.0
  0
LINE
  5
274
330
17
100
AcDbEntity
  8
FP-Hatch
100
AcDbLine
 10
18511.818699893684
 20
-1688.411616071451
 30
0.0
 11
18480.818699893684
 21
-1688.411616071451
 31
0.0
  0
LINE
  5
275
330
17
100
AcDbEntity
  8
FP-Hatch
100
AcDbLine
 10
18511.818699893684
 20
-1672.411616071451
 30
0.0
 11
18480.818699893684
 21
-1672.411616071451
 31
0.0
  0
LINE
  5
276
330
17
100
AcDbEntity
  8
FP-Hatch
100
AcDbLine
 10
18511.818699893684
 20
-1656.411616071451
 30
0.0
 11
18480.818699893684
 21
-1656.411616071451
 31
0.0
  0
LINE
  5
277
330
17
100
AcDbEntity
  8
FP-Hatch
100
AcDbLine
 10
18511.818699893684
 20
-1640.411616071451
 30
0.0
 11
18480.818699893684
 21
-1640.411616071451
 31
0.0
  0
LINE
  5
278
330
17
100
AcDbEntity
  8
FP-Hatch
100
AcDbLine
 10
18496.318699893684
 20
-1624.411616077439
 30
0.0
 11
18496.318672138732
 21
-1739.4107726682903
 31
0.0
  0
LINE
  5
279
330
17
100
AcDbEntity
  8
FP-Stair
100
AcDbLine
 10
18519.666694092262
 20
-1598.9116180747076
 30
0.0
 11
18519.47796409226
 21
-1598.9116180747076
 31
0.0
  0
LINE
  5
27A
330
17
100
AcDbEntity
  8
FP-Stair
100
AcDbLine
 10
18519.66669209226
 20
-1599.9116180747076
 30
0.0
 11
18519.66669209226
 21
-1598.9116180747076
 31
0.0
  0
LINE
  5
27B
330
17
100
AcDbEntity
  8
FP-Stair
100
AcDbLine
 10
18519.66669209226
 20
-1599.9116160747087
 30
0.0
 11
18520.41669209226
 21
-1599.9116160747087
 31
0.0
  0
LINE
  5
27C
330
17
100
AcDbEntity
  8
FP-Stair
100
AcDbLine
 10
18520.41669209226
 20
-1599.9116160745032
 30
0.0
 11
18520.41669209226
 21
-1741.9108341672566
 31
0.0
  0
LINE
  5
27D
330
17
100
AcDbEntity
  8
FP-Proposed Wall
 62
1
100
AcDbLine
 10
18520.41669209226
 20
-1641.910509542515
 30
0.0
 11
18537.320025748857
 21
-1641.9104897470995
 31
0.0
  0
LINE
  5
27E
330
17
100
AcDbEntity
  8
FP-Hatch
100
AcDbLine
 10
18520.41669209226
 20
-1640.91135587798
 30
0.0
 11
18538.070024627483
 21
-1640.9104648761731
 31
-9.094947017729282e-13
  0
LINE
  5
27F
330
17
100
AcDbEntity
  8
FP-Hatch
100
AcDbLine
 10
18520.41669209226
 20
-1640.6613558779593
 30
0.0
 11
18538.488193041077
 21
-1640.6613558779588
 31
0.0
  0
LINE
  5
280
330
17
100
AcDbEntity
  8
FP-Stair
100
AcDbLine
 10
18520.41669209226
 20
-1639.9105095425148
 30
0.0
 11
18537.32002350619
 21
-1639.9105103853876
 31
0.0
  0
LINE
  5
281
330
17
100
AcDbEntity
  8
FP-Hatch
100
AcDbLine
 10
18526.69405565178
 20
-1639.910524298874
 30
0.0
 11
18526.69401079786
 21
-1599.9105242861829
 31
0.0
  0
LWPOLYLINE
  5
282
330
17
100
AcDbEntity
  8
EL-Trim
 62
8
100
AcDbPolyline
 90
2
 70
0
 10
18526.69405565178
 20
-1639.910524298874
 10
18526.694055651773
 20
-1639.910522298875
  0
LWPOLYLINE
  5
283
330
17
100
AcDbEntity
  8
EL-Trim
 62
8
100
AcDbPolyline
 90
2
 70
0
 10
18526.695839596046
 20
-1641.9105202968772
 10
18526.695951730464
 20
-1741.9105222848689
  0
LINE
  5
284
330
17
100
AcDbEntity
  8
EL-Trim
 62
8
100
AcDbLine
 10
18527.445839596046
 20
-1641.9105194558692
 30
0.0
 11
18526.695839596046
 21
-1641.9105202968772
 31
0.0
  0
LINE
  5
285
330
17
100
AcDbEntity
  8
EL-Trim
 62
8
100
AcDbLine
 10
18527.444057894463
 20
-1641.9105234578642
 30
0.0
 11
18527.44405677312
 21
-1640.9105234578642
 31
0.0
  0
LINE
  5
286
330
17
100
AcDbEntity
  8
EL-Trim
 62
8
100
AcDbLine
 10
18527.44579249905
 20
-1599.9104839120487
 30
0.0
 11
18527.445791377708
 21
-1598.9104839120505
 31
0.0
  0
LINE
  5
287
330
17
100
AcDbEntity
  8
EL-Trim
 62
8
100
AcDbLine
 10
18527.445836474704
 20
-1640.91052145587
 30
0.0
 11
18527.634566474706
 21
-1640.9105212442396
 31
0.0
  0
LINE
  5
288
330
17
100
AcDbEntity
  8
EL-Trim
 62
8
100
AcDbLine
 10
18527.99420986096
 20
-1640.1858474120513
 30
0.0
 11
18527.445837353363
 21
-1639.91052145587
 31
0.0
  0
LINE
  5
289
330
17
100
AcDbEntity
  8
EL-Trim
 62
8
100
AcDbLine
 10
18528.69405565178
 20
-1639.9105220561855
 30
0.0
 11
18528.69401079801
 21
-1599.9105220432907
 31
0.0
  0
LINE
  5
28A
330
17
100
AcDbEntity
  8
EL-Trim
 62
8
100
AcDbLine
 10
18528.694057894405
 20
-1641.910520058193
 30
0.0
 11
18528.694170028815
 21
-1741.910522045157
 31
0.0
  0
LINE
  5
28B
330
17
100
AcDbEntity
  8
EL-Trim
 62
8
100
AcDbLine
 10
18529.444057894463
 20
-1641.9105212151758
 30
0.0
 11
18529.44405677312
 21
-1640.9105212151758
 31
0.0
  0
LINE
  5
28C
330
17
100
AcDbEntity
  8
EL-Trim
 62
8
100
AcDbLine
 10
18529.44579249956
 20
-1599.910481669362
 30
0.0
 11
18529.445791378217
 21
-1598.910481669362
 31
0.0
  0
LINE
  5
28D
330
17
100
AcDbEntity
  8
EL-Trim
 62
8
100
AcDbLine
 10
18529.445836474704
 20
-1640.9105192131833
 30
0.0
 11
18529.634566474706
 21
-1640.9105190015512
 31
0.0
  0
LINE
  5
28E
330
17
100
AcDbEntity
  8
EL-Trim
 62
8
100
AcDbLine
 10
18529.99420986096
 20
-1640.185845169363
 30
0.0
 11
18529.445837353363
 21
-1639.9105192131815
 31
0.0
  0
LWPOLYLINE
  5
28F
330
17
100
AcDbEntity
  8
FP-Proposed Wall
100
AcDbPolyline
 90
2
 70
0
 10
18536.322679145927
 20
-1764.4107436173579
 10
18536.32268587399
 20
-1770.4107436173542
  0
LINE
  5
290
330
17
100
AcDbEntity
  8
FP-Proposed Wall
100
AcDbLine
 10
18537.32267914593
 20
-1764.4107424960055
 30
0.0
 11
18536.322679145927
 21
-1764.4107436173579
 31
0.0
  0
LINE
  5
291
330
17
100
AcDbEntity
  8
FP-Hatch
100
AcDbLine
 10
18567.300067269713
 20
-1768.9104398914653
 30
-24.50159259517907
 11
18536.322684191207
 21
-1768.9100584355624
 31
-24.50159259517907
  0
LINE
  5
292
330
17
100
AcDbEntity
  8
FP-Footing
100
AcDbLine
 10
18536.322704004226
 20
-1770.4116792041953
 30
0.0
 11
18536.322704004226
 21
-1881.911679204197
 31
0.0
  0
LINE
  5
293
330
17
100
AcDbEntity
  8
FP-Proposed Wall
100
AcDbLine
 10
18537.32002350619
 20
-1639.9105103853876
 30
0.0
 11
18537.319978652427
 21
-1599.9105123831928
 31
0.0
  0
LINE
  5
294
330
17
100
AcDbEntity
  8
FP-Proposed Wall
100
AcDbLine
 10
18538.07002350619
 20
-1639.9105095425007
 30
0.0
 11
18537.32002350619
 21
-1639.9105103853876
 31
0.0
  0
LINE
  5
295
330
17
100
AcDbEntity
  8
FP-Proposed Wall
100
AcDbLine
 10
18538.07002574887
 20
-1641.9105095424989
 30
0.0
 11
18537.320025748857
 21
-1641.9104897470995
 31
0.0
  0
LINE
  5
296
330
17
100
AcDbEntity
  8
FP-Proposed Wall
100
AcDbLine
 10
18537.320137883282
 20
-1741.91051037242
 30
0.0
 11
18537.32002574888
 21
-1641.910510385384
 31
0.0
  0
LINE
  5
297
330
17
100
AcDbEntity
  8
FP-Proposed Wall
100
AcDbLine
 10
18538.069984045243
 20
-1599.9104678552071
 30
0.0
 11
18537.32007582422
 21
-1599.9102307743522
 31
0.0
  0
LINE
  5
298
330
17
100
AcDbEntity
  8
FP-Proposed Wall
100
AcDbLine
 10
18537.32267914593
 20
-1764.4107424960055
 30
0.0
 11
18537.3226617651
 21
-1748.9107424960036
 31
0.0
  0
LINE
  5
299
330
17
100
AcDbEntity
  8
FP-Proposed Wall
100
AcDbLine
 10
18537.3226617651
 20
-1748.9107424960036
 30
0.0
 11
18538.360918433922
 21
-1748.9107453427646
 31
0.0
  0
LINE
  5
29A
330
17
100
AcDbEntity
  8
FP-Hatch
100
AcDbLine
 10
18537.322667371875
 20
-1753.9107905929004
 30
-1.8189894035458565e-12
 11
18547.322671858175
 21
-1753.9104410943871
 31
0.0
  0
LINE
  5
29B
330
17
100
AcDbEntity
  8
FP-Proposed Wall
 62
1
100
AcDbLine
 10
18537.32266905331
 20
-1755.4102720161554
 30
0.0
 11
18557.322671016773
 21
-1755.4104424112459
 31
0.0
  0
LINE
  5
29C
330
17
100
AcDbEntity
  8
FP-Hatch
100
AcDbLine
 10
18537.322675781586
 20
-1761.4104635212507
 30
0.0
 11
18557.32266428871
 21
-1761.4104410943871
 31
0.0
  0
LINE
  5
29D
330
17
100
AcDbEntity
  8
FP-Proposed Wall
 62
1
100
AcDbLine
 10
18537.322677463457
 20
-1762.9103351422684
 30
-9.132572917228579
 11
18567.32266428871
 21
-1762.9104410943871
 31
-8.881784197001252e-14
  0
LINE
  5
29E
330
17
100
AcDbEntity
  8
FP-Proposed Wall
100
AcDbLine
 10
18538.069984045243
 20
-1599.9104678552071
 30
0.0
 11
18538.069982923902
 21
-1598.910467855209
 31
0.0
  0
LWPOLYLINE
  5
29F
330
17
100
AcDbEntity
  8
FP-Proposed Wall
100
AcDbPolyline
 90
2
 70
0
 10
18538.069982923902
 20
-1598.910467855209
 10
18538.258710968177
 20
-1598.9103185756537
  0
LINE
  5
2A0
330
17
100
AcDbEntity
  8
FP-Proposed Wall
100
AcDbLine
 10
18538.07002262753
 20
-1640.9105095425025
 30
0.0
 11
18538.25875262753
 21
-1640.9105093308722
 31
0.0
  0
LINE
  5
2A1
330
17
100
AcDbEntity
  8
FP-Proposed Wall
100
AcDbLine
 10
18538.618396013786
 20
-1640.185835498684
 30
0.0
 11
18538.07002350619
 21
-1639.9105095425007
 31
0.0
  0
LINE
  5
2A2
330
17
100
AcDbEntity
  8
FP-Proposed Wall
100
AcDbLine
 10
18538.07002574887
 20
-1641.9105095424989
 30
0.0
 11
18538.07002462753
 21
-1640.9105095425007
 31
0.0
  0
LINE
  5
2A3
330
17
100
AcDbEntity
  8
FP-Proposed Wall
100
AcDbLine
 10
18538.360916191225
 20
-1746.9107413317613
 30
0.0
 11
18538.360918433915
 21
-1748.9107413317595
 31
0.0
  0
LINE
  5
2A4
330
17
100
AcDbEntity
  8
FP-Proposed Wall
 62
1
100
AcDbLine
 10
18538.360917312108
 20
-1747.9103268583292
 30
-1.8189894035458565e-12
 11
18547.345289061355
 21
-1747.9104422973098
 31
0.0
  0
LINE
  5
2A5
330
17
100
AcDbEntity
  8
FP-Footing
100
AcDbLine
 10
18542.322704004226
 20
-1881.911679204197
 30
0.0
 11
18542.322704004226
 21
-1889.911679204197
 31
0.0
  0
LWPOLYLINE
  5
2A6
330
17
100
AcDbEntity
  8
FP-Proposed Wall
 62
1
100
AcDbPolyline
 90
2
 70
0
 10
18547.322671858175
 20
-1753.9104410943871
 10
18547.32265907926
 20
-1755.4103572136073
  0
LWPOLYLINE
  5
2A7
330
17
100
AcDbEntity
  8
FP-Proposed Wall
 62
1
100
AcDbPolyline
 90
4
 70
0
 10
18547.322671858175
 20
-1753.9104410943871
 10
18549.322671858175
 20
-1753.9104410943871
 10
18549.322671858175
 20
-1747.9104422973098
 10
18547.345289061355
 20
-1747.9104422973098
  0
LWPOLYLINE
  5
2A8
330
17
100
AcDbEntity
  8
FP-Proposed Wall
 62
1
100
AcDbPolyline
 90
4
 70
0
 10
18557.300067269713
 20
-1761.410441208324
 10
18559.300067269713
 20
-1761.410441208324
 10
18559.300067269713
 20
-1755.4104424112468
 10
18557.322684472892
 20
-1755.4104424112468
  0
LWPOLYLINE
  5
2A9
330
17
100
AcDbEntity
  8
FP-Proposed Wall
 62
1
100
AcDbPolyline
 90
2
 70
0
 10
18557.32267774483
 20
-1761.410441208324
 10
18557.32267774483
 20
-1762.9104057770462
  0
LWPOLYLINE
  5
2AA
330
17
100
AcDbEntity
  8
FP-Proposed Wall
 62
1
100
AcDbPolyline
 90
2
 70
0
 38
-24.50159259517907
 10
18567.32267774483
 20
-1768.9104400053873
 10
18567.300067269713
 20
-1770.410439890337
  0
LWPOLYLINE
  5
2AB
330
17
100
AcDbEntity
  8
FP-Proposed Wall
 62
1
100
AcDbPolyline
 90
4
 70
0
 38
-24.50159259517907
 10
18567.300067269713
 20
-1768.9104398914653
 10
18569.300067269713
 20
-1768.9104398914653
 10
18569.300067269713
 20
-1762.910441094388
 10
18567.322684472892
 20
-1762.910441094388
  0
ENDSEC
  0
SECTION
  2
OBJECTS
  0
DICTIONARY
  5
A
330
0
100
AcDbDictionary
280
0
281
1
  3
ACAD_COLOR
350
B
  3
ACAD_GROUP
350
C
  3
ACAD_LAYOUT
350
D
  3
ACAD_MATERIAL
350
E
  3
ACAD_MLEADERSTYLE
350
F
  3
ACAD_MLINESTYLE
350
10
  3
ACAD_PLOTSETTINGS
350
11
  3
ACAD_PLOTSTYLENAME
350
12
  3
ACAD_SCALELIST
350
14
  3
ACAD_TABLESTYLE
350
15
  3
ACAD_VISUALSTYLE
350
16
  3
EZDXF_META
350
2D
  0
DICTIONARY
  5
B
330
A
100
AcDbDictionary
280
0
281
1
  0
DICTIONARY
  5
C
330
A
100
AcDbDictionary
280
0
281
1
  0
DICTIONARY
  5
D
330
A
100
AcDbDictionary
280
0
281
1
  3
Model
350
1A
  3
Layout1
350
1E
  0
DICTIONARY
  5
E
330
A
100
AcDbDictionary
280
0
281
1
  3
ByBlock
350
1F
  3
ByLayer
350
20
  3
Global
350
21
  0
DICTIONARY
  5
F
330
A
100
AcDbDictionary
280
0
281
1
  3
Standard
350
2C
  0
DICTIONARY
  5
10
330
A
100
AcDbDictionary
280
0
281
1
  3
Standard
350
22
  0
DICTIONARY
  5
11
330
A
100
AcDbDictionary
280
0
281
1
  0
ACDBDICTIONARYWDFLT
  5
12
330
A
100
AcDbDictionary
280
0
281
1
  3
Normal
350
13
100
AcDbDictionaryWithDefault
340
13
  0
ACDBPLACEHOLDER
  5
13
330
12
  0
DICTIONARY
  5
14
330
A
100
AcDbDictionary
280
0
281
1
  0
DICTIONARY
  5
15
330
A
100
AcDbDictionary
280
0
281
1
  0
DICTIONARY
  5
16
330
A
100
AcDbDictionary
280
0
281
1
  0
LAYOUT
  5
1A
330
D
100
AcDbPlotSettings
  1

  2
Adobe PDF
  4
A3
  6

 40
7.5
 41
20.0
 42
7.5
 43
20.0
 44
420.0
 45
297.0
 46
0.0
 47
0.0
 48
0.0
 49
0.0
140
0.0
141
0.0
142
1.0
143
1.0
 70
1024
 72
1
 73
0
 74
5
  7

 75
16
 76
0
 77
2
 78
300
147
1.0
148
0.0
149
0.0
100
AcDbLayout
  1
Model
 70
1
 71
0
 10
0.0
 20
0.0
 11
420.0
 21
297.0
 12
0.0
 22
0.0
 32
0.0
 14
1e+20
 24
1e+20
 34
1e+20
 15
-1e+20
 25
-1e+20
 35
-1e+20
146
0.0
 13
0.0
 23
0.0
 33
0.0
 16
1.0
 26
0.0
 36
0.0
 17
0.0
 27
1.0
 37
0.0
 76
1
330
17
  0
LAYOUT
  5
1E
330
D
100
AcDbPlotSettings
  1

  2
Adobe PDF
  4
A3
  6

 40
7.5
 41
20.0
 42
7.5
 43
20.0
 44
420.0
 45
297.0
 46
0.0
 47
0.0
 48
0.0
 49
0.0
140
0.0
141
0.0
142
1.0
143
1.0
 70
0
 72
1
 73
0
 74
5
  7

 75
16
 76
0
 77
2
 78
300
147
1.0
148
0.0
149
0.0
100
AcDbLayout
  1
Layout1
 70
1
 71
1
 10
0.0
 20
0.0
 11
420.0
 21
297.0
 12
0.0
 22
0.0
 32
0.0
 14
1e+20
 24
1e+20
 34
1e+20
 15
-1e+20
 25
-1e+20
 35
-1e+20
146
0.0
 13
0.0
 23
0.0
 33
0.0
 16
1.0
 26
0.0
 36
0.0
 17
0.0
 27
1.0
 37
0.0
 76
1
330
1B
  0
MATERIAL
  5
1F
102
{ACAD_REACTORS
330
E
102
}
330
E
100
AcDbMaterial
  1
ByBlock
  2

 70
0
 40
1.0
 71
1
 41
1.0
 91
-1023410177
 42
1.0
 72
1
  3

 73
1
 74
1
 75
1
 44
0.5
 73
0
 45
1.0
 46
1.0
 77
1
  4

 78
1
 79
1
170
1
 48
1.0
171
1
  6

172
1
173
1
174
1
140
1.0
141
1.0
175
1
  7

176
1
177
1
178
1
143
1.0
179
1
  8

270
1
271
1
272
1
145
1.0
146
1.0
273
1
  9

274
1
275
1
276
1
 42
1.0
 72
1
  3

 73
1
 74
1
 75
1
 94
63
  0
MATERIAL
  5
20
102
{ACAD_REACTORS
330
E
102
}
330
E
100
AcDbMaterial
  1
ByLayer
  2

 70
0
 40
1.0
 71
1
 41
1.0
 91
-1023410177
 42
1.0
 72
1
  3

 73
1
 74
1
 75
1
 44
0.5
 73
0
 45
1.0
 46
1.0
 77
1
  4

 78
1
 79
1
170
1
 48
1.0
171
1
  6

172
1
173
1
174
1
140
1.0
141
1.0
175
1
  7

176
1
177
1
178
1
143
1.0
179
1
  8

270
1
271
1
272
1
145
1.0
146
1.0
273
1
  9

274
1
275
1
276
1
 42
1.0
 72
1
  3

 73
1
 74
1
 75
1
 94
63
  0
MATERIAL
  5
21
102
{ACAD_REACTORS
330
E
102
}
330
E
100
AcDbMaterial
  1
Global
  2

 70
0
 40
1.0
 71
1
 41
1.0
 91
-1023410177
 42
1.0
 72
1
  3

 73
1
 74
1
 75
1
 44
0.5
 73
0
 45
1.0
 46
1.0
 77
1
  4

 78
1
 79
1
170
1
 48
1.0
171
1
  6

172
1
173
1
174
1
140
1.0
141
1.0
175
1
  7

176
1
177
1
178
1
143
1.0
179
1
  8

270
1
271
1
272
1
145
1.0
146
1.0
273
1
  9

274
1
275
1
276
1
 42
1.0
 72
1
  3

 73
1
 74
1
 75
1
 94
63
  0
MLINESTYLE
  5
22
102
{ACAD_REACTORS
330
10
102
}
330
10
100
AcDbMlineStyle
  2
Standard
 70
0
  3

 62
256
 51
90.0
 52
90.0
 71
2
 49
0.5
 62
256
  6
BYLAYER
 49
-0.5
 62
256
  6
BYLAYER
  0
MLEADERSTYLE
  5
2C
102
{ACAD_REACTORS
330
F
102
}
330
F
100
AcDbMLeaderStyle
179
2
170
2
171
1
172
0
 90
2
 40
0.0
 41
0.0
173
1
 91
-1056964608
 92
-2
290
1
 42
2.0
291
1
 43
8.0
  3
Standard
 44
4.0
300

342
29
174
1
175
1
176
0
178
1
 93
-1056964608
 45
4.0
292
0
297
0
 46
4.0
 94
-1056964608
 47
1.0
 49
1.0
140
1.0
294
1
141
0.0
177
0
142
1.0
295
0
296
0
143
3.75
271
0
272
9
273
9
  0
DICTIONARY
  5
2D
330
A
100
AcDbDictionary
281
1
  3
CREATED_BY_EZDXF
350
2E
  3
WRITTEN_BY_EZDXF
350
2AE
  0
DICTIONARYVAR
  5
2E
330
2D
100
DictionaryVariables
280
0
  1
1.0.3 @ 2023-12-20T20:24:15.019280+00:00
  0
DICTIONARYVAR
  5
2AE
330
2D
100
DictionaryVariables
280
0
  1
1.0.3 @ 2023-12-20T20:24:15.051171+00:00
  0
ENDSEC
  0
EOF
