  0
SECTION
  2
HEADER
  9
$ACADVER
  1
AC1027
  9
$ACADMAINTVER
 70
105
  9
$DWGCODEPAGE
  3
ANSI_1252
  9
$LASTSAVEDBY
  1
ezdxf
  9
$REQUIREDVERSIONS
160
0
  9
$INSBASE
 10
0.0
 20
0.0
 30
0.0
  9
$EXTMIN
 10
1e+20
 20
1e+20
 30
1e+20
  9
$EXTMAX
 10
-1e+20
 20
-1e+20
 30
-1e+20
  9
$LIMMIN
 10
0.0
 20
0.0
  9
$LIMMAX
 10
420.0
 20
297.0
  9
$ORTHOMODE
 70
0
  9
$REGENMODE
 70
1
  9
$FILLMODE
 70
1
  9
$QTEXTMODE
 70
0
  9
$MIRRTEXT
 70
1
  9
$LTSCALE
 40
1.0
  9
$ATTMODE
 70
1
  9
$TEXTSIZE
 40
2.5
  9
$TRACEWID
 40
1.0
  9
$TEXTSTYLE
  7
Standard
  9
$CLAYER
  8
0
  9
$CELTYPE
  6
ByLayer
  9
$CECOLOR
 62
256
  9
$CELTSCALE
 40
1.0
  9
$DISPSILH
 70
0
  9
$DIMSCALE
 40
1.0
  9
$DIMASZ
 40
2.5
  9
$DIMEXO
 40
0.625
  9
$DIMDLI
 40
3.75
  9
$DIMRND
 40
0.0
  9
$DIMDLE
 40
0.0
  9
$DIMEXE
 40
1.25
  9
$DIMTP
 40
0.0
  9
$DIMTM
 40
0.0
  9
$DIMTXT
 40
2.5
  9
$DIMCEN
 40
2.5
  9
$DIMTSZ
 40
0.0
  9
$DIMTOL
 70
0
  9
$DIMLIM
 70
0
  9
$DIMTIH
 70
0
  9
$DIMTOH
 70
0
  9
$DIMSE1
 70
0
  9
$DIMSE2
 70
0
  9
$DIMTAD
 70
1
  9
$DIMZIN
 70
8
  9
$DIMBLK
  1

  9
$DIMASO
 70
1
  9
$DIMSHO
 70
1
  9
$DIMPOST
  1

  9
$DIMAPOST
  1

  9
$DIMALT
 70
0
  9
$DIMALTD
 70
3
  9
$DIMALTF
 40
0.03937007874
  9
$DIMLFAC
 40
1.0
  9
$DIMTOFL
 70
1
  9
$DIMTVP
 40
0.0
  9
$DIMTIX
 70
0
  9
$DIMSOXD
 70
0
  9
$DIMSAH
 70
0
  9
$DIMBLK1
  1

  9
$DIMBLK2
  1

  9
$DIMSTYLE
  2
ISO-25
  9
$DIMCLRD
 70
0
  9
$DIMCLRE
 70
0
  9
$DIMCLRT
 70
0
  9
$DIMTFAC
 40
1.0
  9
$DIMGAP
 40
0.625
  9
$DIMJUST
 70
0
  9
$DIMSD1
 70
0
  9
$DIMSD2
 70
0
  9
$DIMTOLJ
 70
0
  9
$DIMTZIN
 70
8
  9
$DIMALTZ
 70
0
  9
$DIMALTTZ
 70
0
  9
$DIMUPT
 70
0
  9
$DIMDEC
 70
2
  9
$DIMTDEC
 70
2
  9
$DIMALTU
 70
2
  9
$DIMALTTD
 70
3
  9
$DIMTXSTY
  7
Standard
  9
$DIMAUNIT
 70
0
  9
$DIMADEC
 70
0
  9
$DIMALTRND
 40
0.0
  9
$DIMAZIN
 70
0
  9
$DIMDSEP
 70
44
  9
$DIMATFIT
 70
3
  9
$DIMFRAC
 70
0
  9
$DIMLDRBLK
  1

  9
$DIMLUNIT
 70
2
  9
$DIMLWD
 70
-2
  9
$DIMLWE
 70
-2
  9
$DIMTMOVE
 70
0
  9
$DIMFXL
 40
1.0
  9
$DIMFXLON
 70
0
  9
$DIMJOGANG
 40
0.785398163397
  9
$DIMTFILL
 70
0
  9
$DIMTFILLCLR
 70
0
  9
$DIMARCSYM
 70
0
  9
$DIMLTYPE
  6

  9
$DIMLTEX1
  6

  9
$DIMLTEX2
  6

  9
$DIMTXTDIRECTION
 70
0
  9
$LUNITS
 70
2
  9
$LUPREC
 70
4
  9
$SKETCHINC
 40
1.0
  9
$FILLETRAD
 40
10.0
  9
$AUNITS
 70
0
  9
$AUPREC
 70
2
  9
$MENU
  1
.
  9
$ELEVATION
 40
0.0
  9
$PELEVATION
 40
0.0
  9
$THICKNESS
 40
0.0
  9
$LIMCHECK
 70
0
  9
$CHAMFERA
 40
0.0
  9
$CHAMFERB
 40
0.0
  9
$CHAMFERC
 40
0.0
  9
$CHAMFERD
 40
0.0
  9
$SKPOLY
 70
0
  9
$TDCREATE
 40
2460332.886099537
  9
$TDUCREATE
 40
2458532.153996898
  9
$TDUPDATE
 40
2460332.886099537
  9
$TDUUPDATE
 40
2458532.1544311
  9
$TDINDWG
 40
0.0
  9
$TDUSRTIMER
 40
0.0
  9
$USRTIMER
 70
1
  9
$ANGBASE
 50
0.0
  9
$ANGDIR
 70
0
  9
$PDMODE
 70
0
  9
$PDSIZE
 40
0.0
  9
$PLINEWID
 40
0.0
  9
$SPLFRAME
 70
0
  9
$SPLINETYPE
 70
6
  9
$SPLINESEGS
 70
8
  9
$HANDSEED
  5
7A
  9
$SURFTAB1
 70
6
  9
$SURFTAB2
 70
6
  9
$SURFTYPE
 70
6
  9
$SURFU
 70
6
  9
$SURFV
 70
6
  9
$UCSBASE
  2

  9
$UCSNAME
  2

  9
$UCSORG
 10
0.0
 20
0.0
 30
0.0
  9
$UCSXDIR
 10
1.0
 20
0.0
 30
0.0
  9
$UCSYDIR
 10
0.0
 20
1.0
 30
0.0
  9
$UCSORTHOREF
  2

  9
$UCSORTHOVIEW
 70
0
  9
$UCSORGTOP
 10
0.0
 20
0.0
 30
0.0
  9
$UCSORGBOTTOM
 10
0.0
 20
0.0
 30
0.0
  9
$UCSORGLEFT
 10
0.0
 20
0.0
 30
0.0
  9
$UCSORGRIGHT
 10
0.0
 20
0.0
 30
0.0
  9
$UCSORGFRONT
 10
0.0
 20
0.0
 30
0.0
  9
$UCSORGBACK
 10
0.0
 20
0.0
 30
0.0
  9
$PUCSBASE
  2

  9
$PUCSNAME
  2

  9
$PUCSORG
 10
0.0
 20
0.0
 30
0.0
  9
$PUCSXDIR
 10
1.0
 20
0.0
 30
0.0
  9
$PUCSYDIR
 10
0.0
 20
1.0
 30
0.0
  9
$PUCSORTHOREF
  2

  9
$PUCSORTHOVIEW
 70
0
  9
$PUCSORGTOP
 10
0.0
 20
0.0
 30
0.0
  9
$PUCSORGBOTTOM
 10
0.0
 20
0.0
 30
0.0
  9
$PUCSORGLEFT
 10
0.0
 20
0.0
 30
0.0
  9
$PUCSORGRIGHT
 10
0.0
 20
0.0
 30
0.0
  9
$PUCSORGFRONT
 10
0.0
 20
0.0
 30
0.0
  9
$PUCSORGBACK
 10
0.0
 20
0.0
 30
0.0
  9
$USERI1
 70
0
  9
$USERI2
 70
0
  9
$USERI3
 70
0
  9
$USERI4
 70
0
  9
$USERI5
 70
0
  9
$USERR1
 40
0.0
  9
$USERR2
 40
0.0
  9
$USERR3
 40
0.0
  9
$USERR4
 40
0.0
  9
$USERR5
 40
0.0
  9
$WORLDVIEW
 70
1
  9
$SHADEDGE
 70
3
  9
$SHADEDIF
 70
70
  9
$TILEMODE
 70
1
  9
$MAXACTVP
 70
64
  9
$PINSBASE
 10
0.0
 20
0.0
 30
0.0
  9
$PLIMCHECK
 70
0
  9
$PEXTMIN
 10
1e+20
 20
1e+20
 30
1e+20
  9
$PEXTMAX
 10
-1e+20
 20
-1e+20
 30
-1e+20
  9
$PLIMMIN
 10
0.0
 20
0.0
  9
$PLIMMAX
 10
420.0
 20
297.0
  9
$UNITMODE
 70
0
  9
$VISRETAIN
 70
1
  9
$PLINEGEN
 70
0
  9
$PSLTSCALE
 70
1
  9
$TREEDEPTH
 70
3020
  9
$CMLSTYLE
  2
Standard
  9
$CMLJUST
 70
0
  9
$CMLSCALE
 40
20.0
  9
$PROXYGRAPHICS
 70
1
  9
$MEASUREMENT
 70
1
  9
$CELWEIGHT
370
-1
  9
$ENDCAPS
280
0
  9
$JOINSTYLE
280
0
  9
$LWDISPLAY
290
0
  9
$INSUNITS
 70
6
  9
$HYPERLINKBASE
  1

  9
$STYLESHEET
  1

  9
$XEDIT
290
1
  9
$CEPSNTYPE
380
0
  9
$PSTYLEMODE
290
1
  9
$FINGERPRINTGUID
  2
{5F87CFE6-1884-4FFE-8468-6C63756F8C94}
  9
$VERSIONGUID
  2
{C02B39C8-C7CC-4E60-A6A9-E647FBC39BAE}
  9
$EXTNAMES
290
1
  9
$PSVPSCALE
 40
0.0
  9
$OLESTARTUP
290
0
  9
$SORTENTS
280
127
  9
$INDEXCTL
280
0
  9
$HIDETEXT
280
1
  9
$XCLIPFRAME
280
0
  9
$HALOGAP
280
0
  9
$OBSCOLOR
 70
257
  9
$OBSLTYPE
280
0
  9
$INTERSECTIONDISPLAY
280
0
  9
$INTERSECTIONCOLOR
 70
257
  9
$DIMASSOC
280
2
  9
$PROJECTNAME
  1

  9
$CAMERADISPLAY
290
0
  9
$LENSLENGTH
 40
50.0
  9
$CAMERAHEIGHT
 40
0.0
  9
$STEPSPERSEC
 40
24.0
  9
$STEPSIZE
 40
100.0
  9
$3DDWFPREC
 40
2.0
  9
$PSOLWIDTH
 40
0.005
  9
$PSOLHEIGHT
 40
0.08
  9
$LOFTANG1
 40
1.570796326795
  9
$LOFTANG2
 40
1.570796326795
  9
$LOFTMAG1
 40
0.0
  9
$LOFTMAG2
 40
0.0
  9
$LOFTPARAM
 70
7
  9
$LOFTNORMALS
280
1
  9
$LATITUDE
 40
37.795
  9
$LONGITUDE
 40
-122.394
  9
$NORTHDIRECTION
 40
0.0
  9
$TIMEZONE
 70
-8000
  9
$LIGHTGLYPHDISPLAY
280
1
  9
$TILEMODELIGHTSYNCH
280
1
  9
$CMATERIAL
347
20
  9
$SOLIDHIST
280
0
  9
$SHOWHIST
280
1
  9
$DWFFRAME
280
2
  9
$DGNFRAME
280
2
  9
$REALWORLDSCALE
290
1
  9
$INTERFERECOLOR
 62
256
  9
$CSHADOW
280
0
  9
$SHADOWPLANELOCATION
 40
0.0
  0
ENDSEC
  0
SECTION
  2
CLASSES
  0
CLASS
  1
ACDBDICTIONARYWDFLT
  2
AcDbDictionaryWithDefault
  3
ObjectDBX Classes
 90
0
 91
0
280
0
281
0
  0
CLASS
  1
SUN
  2
AcDbSun
  3
SCENEOE
 90
1153
 91
0
280
0
281
0
  0
CLASS
  1
VISUALSTYLE
  2
AcDbVisualStyle
  3
ObjectDBX Classes
 90
4095
 91
0
280
0
281
0
  0
CLASS
  1
MATERIAL
  2
AcDbMaterial
  3
ObjectDBX Classes
 90
1153
 91
0
280
0
281
0
  0
CLASS
  1
SCALE
  2
AcDbScale
  3
ObjectDBX Classes
 90
1153
 91
0
280
0
281
0
  0
CLASS
  1
TABLESTYLE
  2
AcDbTableStyle
  3
ObjectDBX Classes
 90
4095
 91
0
280
0
281
0
  0
CLASS
  1
MLEADERSTYLE
  2
AcDbMLeaderStyle
  3
ACDB_MLEADERSTYLE_CLASS
 90
4095
 91
0
280
0
281
0
  0
CLASS
  1
DICTIONARYVAR
  2
AcDbDictionaryVar
  3
ObjectDBX Classes
 90
0
 91
0
280
0
281
0
  0
CLASS
  1
CELLSTYLEMAP
  2
AcDbCellStyleMap
  3
ObjectDBX Classes
 90
1152
 91
0
280
0
281
0
  0
CLASS
  1
MENTALRAYRENDERSETTINGS
  2
AcDbMentalRayRenderSettings
  3
SCENEOE
 90
1024
 91
0
280
0
281
0
  0
CLASS
  1
ACDBDETAILVIEWSTYLE
  2
AcDbDetailViewStyle
  3
ObjectDBX Classes
 90
1025
 91
0
280
0
281
0
  0
CLASS
  1
ACDBSECTIONVIEWSTYLE
  2
AcDbSectionViewStyle
  3
ObjectDBX Classes
 90
1025
 91
0
280
0
281
0
  0
CLASS
  1
RASTERVARIABLES
  2
AcDbRasterVariables
  3
ISM
 90
0
 91
0
280
0
281
0
  0
CLASS
  1
ACDBPLACEHOLDER
  2
AcDbPlaceHolder
  3
ObjectDBX Classes
 90
0
 91
0
280
0
281
0
  0
CLASS
  1
LAYOUT
  2
AcDbLayout
  3
ObjectDBX Classes
 90
0
 91
0
280
0
281
0
  0
ENDSEC
  0
SECTION
  2
TABLES
  0
TABLE
  2
VPORT
  5
8
330
0
100
AcDbSymbolTable
 70
1
  0
VPORT
  5
23
330
8
100
AcDbSymbolTableRecord
100
AcDbViewportTableRecord
  2
*Active
 70
0
 10
0.0
 20
0.0
 11
1.0
 21
1.0
 12
0.0
 22
0.0
 13
0.0
 23
0.0
 14
0.5
 24
0.5
 15
0.5
 25
0.5
 16
0.0
 26
0.0
 36
1.0
 17
0.0
 27
0.0
 37
0.0
 40
1000.0
 41
1.34
 42
50.0
 43
0.0
 44
0.0
 50
0.0
 51
0.0
 71
0
 72
1000
 73
1
 74
3
 75
0
 76
0
 77
0
 78
0
281
0
 65
0
146
0.0
  0
ENDTAB
  0
TABLE
  2
LTYPE
  5
2
330
0
100
AcDbSymbolTable
 70
3
  0
LTYPE
  5
24
330
2
100
AcDbSymbolTableRecord
100
AcDbLinetypeTableRecord
  2
ByBlock
 70
0
  3

 72
65
 73
0
 40
0.0
  0
LTYPE
  5
25
330
2
100
AcDbSymbolTableRecord
100
AcDbLinetypeTableRecord
  2
ByLayer
 70
0
  3

 72
65
 73
0
 40
0.0
  0
LTYPE
  5
26
330
2
100
AcDbSymbolTableRecord
100
AcDbLinetypeTableRecord
  2
Continuous
 70
0
  3

 72
65
 73
0
 40
0.0
  0
ENDTAB
  0
TABLE
  2
LAYER
  5
1
330
0
100
AcDbSymbolTable
 70
2
  0
LAYER
  5
27
330
1
100
AcDbSymbolTableRecord
100
AcDbLayerTableRecord
  2
0
 70
0
 62
7
  6
Continuous
370
-3
390
13
347
21
  0
LAYER
  5
28
330
1
100
AcDbSymbolTableRecord
100
AcDbLayerTableRecord
  2
Defpoints
 70
0
 62
7
  6
Continuous
290
0
370
-3
390
13
347
21
  0
ENDTAB
  0
TABLE
  2
STYLE
  5
5
330
0
100
AcDbSymbolTable
 70
1
  0
STYLE
  5
29
330
5
100
AcDbSymbolTableRecord
100
AcDbTextStyleTableRecord
  2
Standard
 70
0
 40
0.0
 41
1.0
 50
0.0
 71
0
 42
2.5
  3
txt
  4

  0
ENDTAB
  0
TABLE
  2
VIEW
  5
7
330
0
100
AcDbSymbolTable
 70
0
  0
ENDTAB
  0
TABLE
  2
UCS
  5
6
330
0
100
AcDbSymbolTable
 70
0
  0
ENDTAB
  0
TABLE
  2
APPID
  5
3
330
0
100
AcDbSymbolTable
 70
3
  0
APPID
  5
2A
330
3
100
AcDbSymbolTableRecord
100
AcDbRegAppTableRecord
  2
ACAD
 70
0
  0
APPID
  5
77
330
3
100
AcDbSymbolTableRecord
100
AcDbRegAppTableRecord
  2
HATCHBACKGROUNDCOLOR
 70
0
  0
APPID
  5
78
330
3
100
AcDbSymbolTableRecord
100
AcDbRegAppTableRecord
  2
EZDXF
 70
0
  0
ENDTAB
  0
TABLE
  2
DIMSTYLE
  5
4
330
0
100
AcDbSymbolTable
 70
1
100
AcDbDimStyleTable
  0
DIMSTYLE
105
2B
330
4
100
AcDbSymbolTableRecord
100
AcDbDimStyleTableRecord
  2
Standard
 70
0
 40
1.0
 41
2.5
 42
0.625
 43
3.75
 44
1.25
 45
0.0
 46
0.0
 47
0.0
 48
0.0
 49
2.5
140
2.5
141
2.5
142
0.0
143
0.03937007874
144
1.0
145
0.0
146
1.0
147
0.625
148
0.0
 69
0
 70
0
 71
0
 72
0
 73
0
 74
0
 75
0
 76
0
 77
1
 78
8
 79
3
170
0
171
3
172
1
173
0
174
0
175
0
176
0
177
0
178
0
179
2
271
2
272
2
273
2
274
3
275
0
276
0
277
2
278
44
279
0
280
0
281
0
282
0
283
0
284
8
285
0
286
0
288
0
289
3
290
0
371
-2
372
-2
  0
ENDTAB
  0
TABLE
  2
BLOCK_RECORD
  5
9
330
0
100
AcDbSymbolTable
 70
2
  0
BLOCK_RECORD
  5
17
330
9
100
AcDbSymbolTableRecord
100
AcDbBlockTableRecord
  2
*Model_Space
340
1A
 70
0
280
1
281
0
  0
BLOCK_RECORD
  5
1B
330
9
100
AcDbSymbolTableRecord
100
AcDbBlockTableRecord
  2
*Paper_Space
340
1E
 70
0
280
1
281
0
  0
ENDTAB
  0
ENDSEC
  0
SECTION
  2
BLOCKS
  0
BLOCK
  5
18
330
17
100
AcDbEntity
  8
0
100
AcDbBlockBegin
  2
*Model_Space
 70
0
 10
0.0
 20
0.0
 30
0.0
  3
*Model_Space
  1

  0
ENDBLK
  5
19
330
17
100
AcDbEntity
  8
0
100
AcDbBlockEnd
  0
BLOCK
  5
1C
330
1B
100
AcDbEntity
  8
0
100
AcDbBlockBegin
  2
*Paper_Space
 70
0
 10
0.0
 20
0.0
 30
0.0
  3
*Paper_Space
  1

  0
ENDBLK
  5
1D
330
1B
100
AcDbEntity
  8
0
100
AcDbBlockEnd
  0
ENDSEC
  0
SECTION
  2
ENTITIES
  0
LWPOLYLINE
  5
2F
330
17
100
AcDbEntity
  8
FP-Proposed Wall
100
AcDbPolyline
 90
9
 70
0
 10
-194.9999803815008
 20
0.7512921502836889
 10
-194.9999803815008
 20
1.6161546665114201
 10
-197.4999803815008
 20
1.6161546665132391
 10
-198.1037345680088
 20
2.9510089412958678
 10
-199.004138116572
 20
5.001292150247309
 10
-199.504138116572
 20
5.001292150247309
 10
-199.504138116572
 20
5.751292150247309
 10
-194.9999803815008
 20
5.751292150247309
 10
-194.9999803815008
 20
6.751292150283689
  0
LINE
  5
30
330
17
100
AcDbEntity
  8
FP-Hatch
100
AcDbLine
 10
-0.6330970676935976
 20
5.0011149270856095
 30
-1.887379141862766e-15
 11
-199.004138116572
 21
5.001292150247309
 31
-1.887379141862766e-15
  0
LWPOLYLINE
  5
31
330
17
100
AcDbEntity
  8
FP-Proposed Wall
100
AcDbPolyline
 90
2
 70
0
 10
-194.999982198191
 20
6.751289164621767
 10
-0.6330970676935976
 20
6.7511119039274945
  0
LINE
  5
32
330
17
100
AcDbEntity
  8
FP-Proposed Wall
100
AcDbLine
 10
-185.7499803815008
 20
0.7511116129430775
 30
0.0
 11
-194.9999803815008
 21
0.7512921502836889
 31
0.0
  0
LINE
  5
33
330
17
100
AcDbEntity
  8
FP-Hatch
100
AcDbLine
 10
-0.6330970676935976
 20
1.6159774051830027
 30
-1.887379141862766e-15
 11
-194.9999803815008
 21
1.6161546665114201
 31
-1.887379141862766e-15
  0
LINE
  5
34
330
17
100
AcDbEntity
  8
FP-Hatch
100
AcDbLine
 10
-0.6330970676935976
 20
5.751114888878419
 30
-1.887379141862766e-15
 11
-194.9999803815008
 21
5.751292150247309
 31
-1.887379141862766e-15
  0
LWPOLYLINE
  5
35
330
17
100
AcDbEntity
  8
FP-Proposed Wall
100
AcDbPolyline
 90
2
 70
0
 10
-194.99997854229514
 20
6.7512951729529505
 10
-141.68683124952076
 20
93.5041521887947
  0
LWPOLYLINE
  5
36
330
17
100
AcDbEntity
  8
FP-Note
100
AcDbPolyline
 90
4
 70
0
 38
0.15667887986761997
 10
-175.94934019746506
 20
48.11080511188379
 10
-187.94934019746506
 20
48.11080511188379
 10
-187.94934019746506
 20
28.110805111883792
 10
-175.94934019746506
 20
48.11080511188402
  0
LINE
  5
37
330
17
100
AcDbEntity
  8
FP-Proposed Wall
100
AcDbLine
 10
-185.75016628102094
 20
0.00023722390255898063
 30
0.0
 11
-184.75016628102094
 21
0.00023613151529389143
 31
0.0
  0
LINE
  5
38
330
17
100
AcDbEntity
  8
FP-Proposed Wall
100
AcDbLine
 10
-185.75016546173356
 20
0.7502372239021042
 30
0.0
 11
-185.75016628102094
 21
0.00023722390255898063
 31
0.0
  0
LWPOLYLINE
  5
39
330
17
100
AcDbEntity
  8
FP-Proposed Wall
100
AcDbPolyline
 90
2
 70
0
 10
-185.74998038213016
 20
1.121341028920142e-06
 10
-184.7499803821338
 20
0.0
  0
LINE
  5
3A
330
17
100
AcDbEntity
  8
FP-Proposed Wall
100
AcDbLine
 10
-185.74997954112405
 20
0.7500011213410289
 30
0.0
 11
-185.74998038213016
 21
1.121341028920142e-06
 31
0.0
  0
LWPOLYLINE
  5
3B
330
17
100
AcDbEntity
  8
FP-Proposed Wall
100
AcDbPolyline
 90
2
 70
0
 10
-0.3183191111238557
 20
0.7511116129430775
 10
-185.7499803815008
 20
0.7511116129430775
  0
LINE
  5
3C
330
17
100
AcDbEntity
  8
FP-Hatch
100
AcDbLine
 10
-2.632397009001579
 20
0.00022889582601237635
 30
0.0
 11
-184.7499803821338
 21
0.0
 31
0.0
  0
LINE
  5
3D
330
17
100
AcDbEntity
  8
EL-Trim
 62
8
100
AcDbLine
 10
-175.0033894983353
 20
0.7512729335210224
 30
0.0
 11
-175.00339033934142
 21
0.001272933522841413
 31
0.0
  0
LINE
  5
3E
330
17
100
AcDbEntity
  8
EL-Trim
 62
8
100
AcDbLine
 10
-173.003389497826
 20
0.7512706908344171
 30
0.0
 11
-173.0033903388321
 21
0.0012706908344171097
 31
0.0
  0
LINE
  5
3F
330
17
100
AcDbEntity
  8
FP-Stair
100
AcDbLine
 10
-157.47048819051997
 20
9.577312812325545e-05
 30
0.0
 11
-157.97048819051997
 21
9.577312812325545e-05
 31
0.0
  0
LINE
  5
40
330
17
100
AcDbEntity
  8
FP-Stair
100
AcDbLine
 10
-157.47048819051997
 20
0.7500957731281233
 30
0.0
 11
-157.47048819051997
 21
9.577312812325545e-05
 31
0.0
  0
LINE
  5
41
330
17
100
AcDbEntity
  8
FP-Proposed Wall
100
AcDbLine
 10
-142.43683925527512
 20
95.50413265264683
 30
0.0
 11
-142.81429925527846
 21
95.50413265264683
 31
0.0
  0
LINE
  5
42
330
17
100
AcDbEntity
  8
FP-Proposed Wall
100
AcDbLine
 10
-142.43684325527647
 20
93.50413265264683
 30
0.0
 11
-142.43684325527647
 21
95.50413265264683
 31
0.0
  0
LINE
  5
43
330
17
100
AcDbEntity
  8
FP-Proposed Wall
100
AcDbLine
 10
-142.43684325527647
 20
93.50413665264637
 30
0.0
 11
-141.68684325527647
 21
93.50413265264683
 31
0.0
  0
LINE
  5
44
330
17
100
AcDbEntity
  8
FP-Hatch
100
AcDbLine
 10
-142.43684325527647
 20
95.50413265264683
 30
0.0
 11
141.38358742128185
 21
95.50450416341528
 31
0.0
  0
LINE
  5
45
330
17
100
AcDbEntity
  8
FP-Proposed Wall
100
AcDbLine
 10
-141.68684325527647
 20
93.50413265264683
 30
0.0
 11
140.63358739943214
 21
93.50454606413541
 31
0.0
  0
LWPOLYLINE
  5
46
330
17
100
AcDbEntity
  8
FP-Proposed Wall
100
AcDbPolyline
 90
9
 70
0
 10
-127.77970679965438
 20
0.7512921502836889
 10
-127.77970679965438
 20
1.6161546665114201
 10
-130.27970679965438
 20
1.6161546665132391
 10
-130.8834609861624
 20
2.9510089412958678
 10
-131.78386453472558
 20
5.001292150247309
 10
-132.28386453472558
 20
5.001292150247309
 10
-132.28386453472558
 20
5.751292150247309
 10
-127.77970679965438
 20
5.751292150247309
 10
-127.77970679965438
 20
6.751292150283689
  0
LINE
  5
47
330
17
100
AcDbEntity
  8
FP-Proposed Wall
100
AcDbLine
 10
-116.52970679965438
 20
0.7511116129430775
 30
0.0
 11
-127.77970679965438
 21
0.7512921502836889
 31
0.0
  0
LWPOLYLINE
  5
48
330
17
100
AcDbEntity
  8
FP-Proposed Wall
100
AcDbPolyline
 90
2
 70
0
 10
-127.7796643124675
 20
6.751361286790598
 10
-74.46650916399085
 20
93.50423108568725
  0
LWPOLYLINE
  5
49
330
17
100
AcDbEntity
  8
FP-Note
100
AcDbPolyline
 90
4
 70
0
 38
0.15667887986761997
 10
-107.79023273403072
 20
48.11080511188379
 10
-119.79023273403072
 20
48.11080511188379
 10
-119.79023273403072
 20
28.110805111883792
 10
-107.79023273403072
 20
48.11080511188402
  0
LINE
  5
4A
330
17
100
AcDbEntity
  8
FP-Stair
100
AcDbLine
 10
-118.52970680042927
 20
9.577312812325545e-05
 30
0.0
 11
-118.02970680042927
 21
9.577312812325545e-05
 31
0.0
  0
LINE
  5
4B
330
17
100
AcDbEntity
  8
FP-Stair
100
AcDbLine
 10
-118.52970680042927
 20
0.7500957731281233
 30
0.0
 11
-118.52970680042927
 21
9.577312812325545e-05
 31
0.0
  0
LINE
  5
4C
330
17
100
AcDbEntity
  8
FP-Proposed Wall
100
AcDbLine
 10
-116.52970679965438
 20
0.0008776823788139154
 30
0.0
 11
-116.02970679965438
 21
0.0008776823788139154
 31
0.0
  0
LINE
  5
4D
330
17
100
AcDbEntity
  8
FP-Proposed Wall
100
AcDbLine
 10
-116.52970679965438
 20
0.7508776823788139
 30
0.0
 11
-116.52970679965438
 21
0.0008776823788139154
 31
0.0
  0
LINE
  5
4E
330
17
100
AcDbEntity
  8
FP-Proposed Wall
100
AcDbLine
 10
-85.37383978872822
 20
0.751236526595676
 30
0.0
 11
-85.3738389477221
 21
0.001236526597494958
 31
0.0
  0
LINE
  5
4F
330
17
100
AcDbEntity
  8
FP-Proposed Wall
100
AcDbLine
 10
-75.2165051639895
 20
95.50423108568725
 30
0.0
 11
-75.59396516399283
 21
95.50423108568725
 31
0.0
  0
LINE
  5
50
330
17
100
AcDbEntity
  8
FP-Proposed Wall
100
AcDbLine
 10
-75.21650916399085
 20
93.50423108568725
 30
0.0
 11
-75.21650916399085
 21
95.50423108568725
 31
0.0
  0
LINE
  5
51
330
17
100
AcDbEntity
  8
FP-Proposed Wall
100
AcDbLine
 10
-75.21650916399085
 20
93.50423508568679
 30
0.0
 11
-74.46650916399085
 21
93.50423108568725
 31
0.0
  0
LINE
  5
52
330
17
100
AcDbEntity
  8
FP-Hatch
100
AcDbLine
 10
184.75177488854388
 20
0.0012910520838431694
 30
0.0
 11
-2.632397009001579
 21
0.00022889582601237635
 31
0.0
  0
LWPOLYLINE
  5
53
330
17
100
AcDbEntity
  8
FP-Proposed Wall
100
AcDbPolyline
 90
2
 70
0
 10
-0.6330970676935976
 20
0.7511124800182643
 10
185.7498877128346
 20
0.751487818746682
  0
LINE
  5
54
330
17
100
AcDbEntity
  8
FP-Hatch
100
AcDbLine
 10
-0.6330970676935976
 20
1.6159779812555826
 30
-1.887379141862766e-15
 11
194.9999803815008
 21
1.6159779812555826
 31
0.0
  0
LINE
  5
55
330
17
100
AcDbEntity
  8
FP-Hatch
100
AcDbLine
 10
-0.6330970676935976
 20
5.001115490983693
 30
-1.887379141862766e-15
 11
199.004138116572
 21
5.001501176884858
 31
-1.887379141862766e-15
  0
LINE
  5
56
330
17
100
AcDbEntity
  8
FP-Hatch
100
AcDbLine
 10
-0.6330970676935976
 20
5.751115464951226
 30
-1.887379141862766e-15
 11
194.9999803815008
 21
5.751501176884858
 31
-1.887379141862766e-15
  0
LWPOLYLINE
  5
57
330
17
100
AcDbEntity
  8
FP-Proposed Wall
100
AcDbPolyline
 90
2
 70
0
 10
194.999982198191
 20
6.751498191259316
 10
-0.6330970676935976
 20
6.751112479998028
  0
LWPOLYLINE
  5
58
330
17
100
AcDbEntity
  8
FP-Proposed Wall
100
AcDbPolyline
 90
2
 70
0
 10
127.77512773578565
 20
6.751292150283689
 10
74.46179608061357
 20
93.50444916651213
  0
LINE
  5
59
330
17
100
AcDbEntity
  8
FP-Proposed Wall
100
AcDbLine
 10
75.21179608061357
 20
93.50445316651167
 30
0.0
 11
74.46179608061357
 21
93.50444916651213
 31
0.0
  0
LINE
  5
5A
330
17
100
AcDbEntity
  8
FP-Proposed Wall
100
AcDbLine
 10
75.21179208061221
 20
95.50444916651213
 30
0.0
 11
75.58925208061555
 21
95.50444916651213
 31
0.0
  0
LINE
  5
5B
330
17
100
AcDbEntity
  8
FP-Proposed Wall
100
AcDbLine
 10
75.21179608061357
 20
93.50444916651213
 30
0.0
 11
75.21179608061357
 21
95.50444916651213
 31
0.0
  0
LINE
  5
5C
330
17
100
AcDbEntity
  8
FP-Proposed Wall
100
AcDbLine
 10
85.37108728019666
 20
0.751236526595676
 30
0.0
 11
85.37108643919055
 21
0.001236526597494958
 31
0.0
  0
LWPOLYLINE
  5
5D
330
17
100
AcDbEntity
  8
FP-Note
100
AcDbPolyline
 90
4
 70
0
 38
0.15667887986761997
 10
106.52403859864353
 20
48.11080511188379
 10
118.52403859864353
 20
48.11080511188379
 10
118.52403859864353
 20
28.110805111883792
 10
106.52403859864353
 20
48.11080511188402
  0
LINE
  5
5E
330
17
100
AcDbEntity
  8
FP-Proposed Wall
100
AcDbLine
 10
116.51435110946841
 20
0.0015443025752119866
 30
0.0
 11
116.01435110946841
 21
0.0015443025752119866
 31
0.0
  0
LINE
  5
5F
330
17
100
AcDbEntity
  8
FP-Proposed Wall
100
AcDbLine
 10
116.51435110946841
 20
0.751544302575212
 30
0.0
 11
116.51435110946841
 21
0.0015443025752119866
 31
0.0
  0
LINE
  5
60
330
17
100
AcDbEntity
  8
FP-Proposed Wall
100
AcDbLine
 10
116.52512773578565
 20
0.7511116129430775
 30
0.0
 11
127.77512773578565
 21
0.7512921502836889
 31
0.0
  0
LINE
  5
61
330
17
100
AcDbEntity
  8
FP-Stair
100
AcDbLine
 10
118.5282330506925
 20
9.577312812325545e-05
 30
0.0
 11
118.0282330506925
 21
9.577312812325545e-05
 31
0.0
  0
LINE
  5
62
330
17
100
AcDbEntity
  8
FP-Stair
100
AcDbLine
 10
118.5282330506925
 20
0.7500957731281233
 30
0.0
 11
118.5282330506925
 21
9.577312812325545e-05
 31
0.0
  0
LWPOLYLINE
  5
63
330
17
100
AcDbEntity
  8
FP-Proposed Wall
100
AcDbPolyline
 90
9
 70
0
 10
127.77512773578565
 20
0.7512921502836889
 10
127.77512773578565
 20
1.6161546665114201
 10
130.27512773578565
 20
1.6161546665132391
 10
130.87888192229366
 20
2.9510089412958678
 10
131.77928547085685
 20
5.001292150247309
 10
132.27928547085685
 20
5.001292150247309
 10
132.27928547085685
 20
5.751292150247309
 10
127.77512773578565
 20
5.751292150247309
 10
127.77512773578565
 20
6.751292150283689
  0
LINE
  5
64
330
17
100
AcDbEntity
  8
FP-Proposed Wall
100
AcDbLine
 10
141.38358742128185
 20
93.50455006413517
 30
0.0
 11
140.63358742128185
 21
93.50454606413564
 31
0.0
  0
LWPOLYLINE
  5
65
330
17
100
AcDbEntity
  8
FP-Proposed Wall
100
AcDbPolyline
 90
2
 70
0
 10
194.999982198191
 20
6.751498191259316
 10
140.6335998565155
 20
93.50452614211054
  0
LINE
  5
66
330
17
100
AcDbEntity
  8
FP-Proposed Wall
100
AcDbLine
 10
141.3835834212805
 20
95.50454606413564
 30
0.0
 11
141.76104342128383
 21
95.50454606413564
 31
0.0
  0
LINE
  5
67
330
17
100
AcDbEntity
  8
FP-Proposed Wall
100
AcDbLine
 10
141.38358742128185
 20
93.50454606413564
 30
0.0
 11
141.38358742128185
 21
95.50454606413564
 31
0.0
  0
LINE
  5
68
330
17
100
AcDbEntity
  8
FP-Stair
100
AcDbLine
 10
157.4690144407832
 20
9.577312812325545e-05
 30
0.0
 11
157.9690144407832
 21
9.577312812325545e-05
 31
0.0
  0
LINE
  5
69
330
17
100
AcDbEntity
  8
FP-Stair
100
AcDbLine
 10
157.4690144407832
 20
0.7500957731281233
 30
0.0
 11
157.4690144407832
 21
9.577312812325545e-05
 31
0.0
  0
LINE
  5
6A
330
17
100
AcDbEntity
  8
EL-Trim
 62
8
100
AcDbLine
 10
173.00329767043877
 20
0.7512342839011126
 30
0.0
 11
173.00329851144488
 21
0.0012342839011125761
 31
0.0
  0
LINE
  5
6B
330
17
100
AcDbEntity
  8
EL-Trim
 62
8
100
AcDbLine
 10
175.0032976709481
 20
0.7512365265877179
 30
0.0
 11
175.0032985119542
 21
0.0012365265895368793
 31
0.0
  0
LWPOLYLINE
  5
6C
330
17
100
AcDbEntity
  8
FP-Note
100
AcDbPolyline
 90
4
 70
0
 38
0.15667887986761997
 10
176.4691778741726
 20
48.11100813019016
 10
189.23101322248476
 20
48.11080511188379
 10
188.4691778741726
 20
28.111008130190157
 10
176.4691778741726
 20
48.111008130190385
  0
LWPOLYLINE
  5
6D
330
17
100
AcDbEntity
  8
FP-Proposed Wall
100
AcDbPolyline
 90
2
 70
0
 10
185.7498885541063
 20
0.0012527206811228098
 10
184.74988855410993
 20
0.0012515993400938896
  0
LINE
  5
6E
330
17
100
AcDbEntity
  8
FP-Proposed Wall
100
AcDbLine
 10
185.75007445299707
 20
0.0014888232426528702
 30
0.0
 11
184.75007445299707
 21
0.001487730855387781
 31
0.0
  0
LINE
  5
6F
330
17
100
AcDbEntity
  8
FP-Proposed Wall
100
AcDbLine
 10
185.74988771310018
 20
0.7512527206811228
 30
0.0
 11
185.7498885541063
 21
0.0012527206811228098
 31
0.0
  0
LINE
  5
70
330
17
100
AcDbEntity
  8
FP-Proposed Wall
100
AcDbLine
 10
185.7500736337097
 20
0.7514888232421981
 30
0.0
 11
185.75007445299707
 21
0.0014888232426528702
 31
0.0
  0
LINE
  5
71
330
17
100
AcDbEntity
  8
FP-Proposed Wall
100
AcDbLine
 10
185.7500736337097
 20
0.7514888232421981
 30
0.0
 11
194.9999803815008
 21
0.7514888232421981
 31
0.0
  0
LWPOLYLINE
  5
72
330
17
100
AcDbEntity
  8
FP-Proposed Wall
100
AcDbPolyline
 90
3
 70
0
 10
194.9999803815008
 20
0.7515011769212379
 10
194.9999803815008
 20
1.616363693148969
 10
194.9999803815008
 20
1.616363693148969
  0
LINE
  5
73
330
17
100
AcDbEntity
  8
FP-Proposed Wall
100
AcDbLine
 10
194.9999803815008
 20
1.6159779812555826
 30
0.0
 11
197.49995411937925
 21
1.6159779812555826
 31
0.0
  0
LWPOLYLINE
  5
74
330
17
100
AcDbEntity
  8
FP-Proposed Wall
100
AcDbPolyline
 90
3
 70
0
 10
199.504138116572
 20
5.751501176884858
 10
194.9999803815008
 20
5.751501176884858
 10
194.9999803815008
 20
6.751501176921238
  0
LWPOLYLINE
  5
75
330
17
100
AcDbEntity
  8
FP-Proposed Wall
100
AcDbPolyline
 90
4
 70
0
 10
197.4999803815008
 20
1.616363693150788
 10
198.1037345680088
 20
2.9512179679334167
 10
199.004138116572
 20
5.001501176884858
 10
199.504138116572
 20
5.001501176884858
  0
LWPOLYLINE
  5
76
330
17
100
AcDbEntity
  8
FP-Proposed Wall
100
AcDbPolyline
 90
2
 70
0
 10
199.504138116572
 20
5.001501176884858
 10
199.504138116572
 20
5.751501176884858
  0
ENDSEC
  0
SECTION
  2
OBJECTS
  0
DICTIONARY
  5
A
330
0
100
AcDbDictionary
280
0
281
1
  3
ACAD_COLOR
350
B
  3
ACAD_GROUP
350
C
  3
ACAD_LAYOUT
350
D
  3
ACAD_MATERIAL
350
E
  3
ACAD_MLEADERSTYLE
350
F
  3
ACAD_MLINESTYLE
350
10
  3
ACAD_PLOTSETTINGS
350
11
  3
ACAD_PLOTSTYLENAME
350
12
  3
ACAD_SCALELIST
350
14
  3
ACAD_TABLESTYLE
350
15
  3
ACAD_VISUALSTYLE
350
16
  3
EZDXF_META
350
2D
  0
DICTIONARY
  5
B
330
A
100
AcDbDictionary
280
0
281
1
  0
DICTIONARY
  5
C
330
A
100
AcDbDictionary
280
0
281
1
  0
DICTIONARY
  5
D
330
A
100
AcDbDictionary
280
0
281
1
  3
Model
350
1A
  3
Layout1
350
1E
  0
DICTIONARY
  5
E
330
A
100
AcDbDictionary
280
0
281
1
  3
ByBlock
350
1F
  3
ByLayer
350
20
  3
Global
350
21
  0
DICTIONARY
  5
F
330
A
100
AcDbDictionary
280
0
281
1
  3
Standard
350
2C
  0
DICTIONARY
  5
10
330
A
100
AcDbDictionary
280
0
281
1
  3
Standard
350
22
  0
DICTIONARY
  5
11
330
A
100
AcDbDictionary
280
0
281
1
  0
ACDBDICTIONARYWDFLT
  5
12
330
A
100
AcDbDictionary
280
0
281
1
  3
Normal
350
13
100
AcDbDictionaryWithDefault
340
13
  0
ACDBPLACEHOLDER
  5
13
330
12
  0
DICTIONARY
  5
14
330
A
100
AcDbDictionary
280
0
281
1
  0
DICTIONARY
  5
15
330
A
100
AcDbDictionary
280
0
281
1
  0
DICTIONARY
  5
16
330
A
100
AcDbDictionary
280
0
281
1
  0
LAYOUT
  5
1A
330
D
100
AcDbPlotSettings
  1

  2
Adobe PDF
  4
A3
  6

 40
7.5
 41
20.0
 42
7.5
 43
20.0
 44
420.0
 45
297.0
 46
0.0
 47
0.0
 48
0.0
 49
0.0
140
0.0
141
0.0
142
1.0
143
1.0
 70
1024
 72
1
 73
0
 74
5
  7

 75
16
 76
0
 77
2
 78
300
147
1.0
148
0.0
149
0.0
100
AcDbLayout
  1
Model
 70
1
 71
0
 10
0.0
 20
0.0
 11
420.0
 21
297.0
 12
0.0
 22
0.0
 32
0.0
 14
1e+20
 24
1e+20
 34
1e+20
 15
-1e+20
 25
-1e+20
 35
-1e+20
146
0.0
 13
0.0
 23
0.0
 33
0.0
 16
1.0
 26
0.0
 36
0.0
 17
0.0
 27
1.0
 37
0.0
 76
1
330
17
  0
LAYOUT
  5
1E
330
D
100
AcDbPlotSettings
  1

  2
Adobe PDF
  4
A3
  6

 40
7.5
 41
20.0
 42
7.5
 43
20.0
 44
420.0
 45
297.0
 46
0.0
 47
0.0
 48
0.0
 49
0.0
140
0.0
141
0.0
142
1.0
143
1.0
 70
0
 72
1
 73
0
 74
5
  7

 75
16
 76
0
 77
2
 78
300
147
1.0
148
0.0
149
0.0
100
AcDbLayout
  1
Layout1
 70
1
 71
1
 10
0.0
 20
0.0
 11
420.0
 21
297.0
 12
0.0
 22
0.0
 32
0.0
 14
1e+20
 24
1e+20
 34
1e+20
 15
-1e+20
 25
-1e+20
 35
-1e+20
146
0.0
 13
0.0
 23
0.0
 33
0.0
 16
1.0
 26
0.0
 36
0.0
 17
0.0
 27
1.0
 37
0.0
 76
1
330
1B
  0
MATERIAL
  5
1F
102
{ACAD_REACTORS
330
E
102
}
330
E
100
AcDbMaterial
  1
ByBlock
  2

 70
0
 40
1.0
 71
1
 41
1.0
 91
-1023410177
 42
1.0
 72
1
  3

 73
1
 74
1
 75
1
 44
0.5
 73
0
 45
1.0
 46
1.0
 77
1
  4

 78
1
 79
1
170
1
 48
1.0
171
1
  6

172
1
173
1
174
1
140
1.0
141
1.0
175
1
  7

176
1
177
1
178
1
143
1.0
179
1
  8

270
1
271
1
272
1
145
1.0
146
1.0
273
1
  9

274
1
275
1
276
1
 42
1.0
 72
1
  3

 73
1
 74
1
 75
1
 94
63
  0
MATERIAL
  5
20
102
{ACAD_REACTORS
330
E
102
}
330
E
100
AcDbMaterial
  1
ByLayer
  2

 70
0
 40
1.0
 71
1
 41
1.0
 91
-1023410177
 42
1.0
 72
1
  3

 73
1
 74
1
 75
1
 44
0.5
 73
0
 45
1.0
 46
1.0
 77
1
  4

 78
1
 79
1
170
1
 48
1.0
171
1
  6

172
1
173
1
174
1
140
1.0
141
1.0
175
1
  7

176
1
177
1
178
1
143
1.0
179
1
  8

270
1
271
1
272
1
145
1.0
146
1.0
273
1
  9

274
1
275
1
276
1
 42
1.0
 72
1
  3

 73
1
 74
1
 75
1
 94
63
  0
MATERIAL
  5
21
102
{ACAD_REACTORS
330
E
102
}
330
E
100
AcDbMaterial
  1
Global
  2

 70
0
 40
1.0
 71
1
 41
1.0
 91
-1023410177
 42
1.0
 72
1
  3

 73
1
 74
1
 75
1
 44
0.5
 73
0
 45
1.0
 46
1.0
 77
1
  4

 78
1
 79
1
170
1
 48
1.0
171
1
  6

172
1
173
1
174
1
140
1.0
141
1.0
175
1
  7

176
1
177
1
178
1
143
1.0
179
1
  8

270
1
271
1
272
1
145
1.0
146
1.0
273
1
  9

274
1
275
1
276
1
 42
1.0
 72
1
  3

 73
1
 74
1
 75
1
 94
63
  0
MLINESTYLE
  5
22
102
{ACAD_REACTORS
330
10
102
}
330
10
100
AcDbMlineStyle
  2
Standard
 70
0
  3

 62
256
 51
90.0
 52
90.0
 71
2
 49
0.5
 62
256
  6
BYLAYER
 49
-0.5
 62
256
  6
BYLAYER
  0
MLEADERSTYLE
  5
2C
102
{ACAD_REACTORS
330
F
102
}
330
F
100
AcDbMLeaderStyle
179
2
170
2
171
1
172
0
 90
2
 40
0.0
 41
0.0
173
1
 91
-1056964608
 92
-2
290
1
 42
2.0
291
1
 43
8.0
  3
Standard
 44
4.0
300

342
29
174
1
175
1
176
0
178
1
 93
-1056964608
 45
4.0
292
0
297
0
 46
4.0
 94
-1056964608
 47
1.0
 49
1.0
140
1.0
294
1
141
0.0
177
0
142
1.0
295
0
296
0
143
3.75
271
0
272
9
273
9
  0
DICTIONARY
  5
2D
330
A
100
AcDbDictionary
281
1
  3
CREATED_BY_EZDXF
350
2E
  3
WRITTEN_BY_EZDXF
350
79
  0
DICTIONARYVAR
  5
2E
330
2D
100
DictionaryVariables
280
0
  1
1.1.4 @ 2024-01-22T17:45:52.524122+00:00
  0
DICTIONARYVAR
  5
79
330
2D
100
DictionaryVariables
280
0
  1
1.1.4 @ 2024-01-22T17:45:59.520524+00:00
  0
ENDSEC
  0
EOF
