  0
SECTION
  2
HEADER
  9
$ACADVER
  1
AC1027
  9
$ACADMAINTVER
 70
105
  9
$DWGCODEPAGE
  3
ANSI_1252
  9
$LASTSAVEDBY
  1
ezdxf
  9
$REQUIREDVERSIONS
160
0
  9
$INSBASE
 10
0.0
 20
0.0
 30
0.0
  9
$EXTMIN
 10
1e+20
 20
1e+20
 30
1e+20
  9
$EXTMAX
 10
-1e+20
 20
-1e+20
 30
-1e+20
  9
$LIMMIN
 10
0.0
 20
0.0
  9
$LIMMAX
 10
420.0
 20
297.0
  9
$ORTHOMODE
 70
0
  9
$REGENMODE
 70
1
  9
$FILLMODE
 70
1
  9
$QTEXTMODE
 70
0
  9
$MIRRTEXT
 70
1
  9
$LTSCALE
 40
1.0
  9
$ATTMODE
 70
1
  9
$TEXTSIZE
 40
2.5
  9
$TRACEWID
 40
1.0
  9
$TEXTSTYLE
  7
Standard
  9
$CLAYER
  8
0
  9
$CELTYPE
  6
ByLayer
  9
$CECOLOR
 62
256
  9
$CELTSCALE
 40
1.0
  9
$DISPSILH
 70
0
  9
$DIMSCALE
 40
1.0
  9
$DIMASZ
 40
2.5
  9
$DIMEXO
 40
0.625
  9
$DIMDLI
 40
3.75
  9
$DIMRND
 40
0.0
  9
$DIMDLE
 40
0.0
  9
$DIMEXE
 40
1.25
  9
$DIMTP
 40
0.0
  9
$DIMTM
 40
0.0
  9
$DIMTXT
 40
2.5
  9
$DIMCEN
 40
2.5
  9
$DIMTSZ
 40
0.0
  9
$DIMTOL
 70
0
  9
$DIMLIM
 70
0
  9
$DIMTIH
 70
0
  9
$DIMTOH
 70
0
  9
$DIMSE1
 70
0
  9
$DIMSE2
 70
0
  9
$DIMTAD
 70
1
  9
$DIMZIN
 70
8
  9
$DIMBLK
  1

  9
$DIMASO
 70
1
  9
$DIMSHO
 70
1
  9
$DIMPOST
  1

  9
$DIMAPOST
  1

  9
$DIMALT
 70
0
  9
$DIMALTD
 70
3
  9
$DIMALTF
 40
0.03937007874
  9
$DIMLFAC
 40
1.0
  9
$DIMTOFL
 70
1
  9
$DIMTVP
 40
0.0
  9
$DIMTIX
 70
0
  9
$DIMSOXD
 70
0
  9
$DIMSAH
 70
0
  9
$DIMBLK1
  1

  9
$DIMBLK2
  1

  9
$DIMSTYLE
  2
ISO-25
  9
$DIMCLRD
 70
0
  9
$DIMCLRE
 70
0
  9
$DIMCLRT
 70
0
  9
$DIMTFAC
 40
1.0
  9
$DIMGAP
 40
0.625
  9
$DIMJUST
 70
0
  9
$DIMSD1
 70
0
  9
$DIMSD2
 70
0
  9
$DIMTOLJ
 70
0
  9
$DIMTZIN
 70
8
  9
$DIMALTZ
 70
0
  9
$DIMALTTZ
 70
0
  9
$DIMUPT
 70
0
  9
$DIMDEC
 70
2
  9
$DIMTDEC
 70
2
  9
$DIMALTU
 70
2
  9
$DIMALTTD
 70
3
  9
$DIMTXSTY
  7
Standard
  9
$DIMAUNIT
 70
0
  9
$DIMADEC
 70
0
  9
$DIMALTRND
 40
0.0
  9
$DIMAZIN
 70
0
  9
$DIMDSEP
 70
44
  9
$DIMATFIT
 70
3
  9
$DIMFRAC
 70
0
  9
$DIMLDRBLK
  1

  9
$DIMLUNIT
 70
2
  9
$DIMLWD
 70
-2
  9
$DIMLWE
 70
-2
  9
$DIMTMOVE
 70
0
  9
$DIMFXL
 40
1.0
  9
$DIMFXLON
 70
0
  9
$DIMJOGANG
 40
0.785398163397
  9
$DIMTFILL
 70
0
  9
$DIMTFILLCLR
 70
0
  9
$DIMARCSYM
 70
0
  9
$DIMLTYPE
  6

  9
$DIMLTEX1
  6

  9
$DIMLTEX2
  6

  9
$DIMTXTDIRECTION
 70
0
  9
$LUNITS
 70
2
  9
$LUPREC
 70
4
  9
$SKETCHINC
 40
1.0
  9
$FILLETRAD
 40
10.0
  9
$AUNITS
 70
0
  9
$AUPREC
 70
2
  9
$MENU
  1
.
  9
$ELEVATION
 40
0.0
  9
$PELEVATION
 40
0.0
  9
$THICKNESS
 40
0.0
  9
$LIMCHECK
 70
0
  9
$CHAMFERA
 40
0.0
  9
$CHAMFERB
 40
0.0
  9
$CHAMFERC
 40
0.0
  9
$CHAMFERD
 40
0.0
  9
$SKPOLY
 70
0
  9
$TDCREATE
 40
2460312.6744328705
  9
$TDUCREATE
 40
2458532.153996898
  9
$TDUPDATE
 40
2460312.6744328705
  9
$TDUUPDATE
 40
2458532.1544311
  9
$TDINDWG
 40
0.0
  9
$TDUSRTIMER
 40
0.0
  9
$USRTIMER
 70
1
  9
$ANGBASE
 50
0.0
  9
$ANGDIR
 70
0
  9
$PDMODE
 70
0
  9
$PDSIZE
 40
0.0
  9
$PLINEWID
 40
0.0
  9
$SPLFRAME
 70
0
  9
$SPLINETYPE
 70
6
  9
$SPLINESEGS
 70
8
  9
$HANDSEED
  5
7A
  9
$SURFTAB1
 70
6
  9
$SURFTAB2
 70
6
  9
$SURFTYPE
 70
6
  9
$SURFU
 70
6
  9
$SURFV
 70
6
  9
$UCSBASE
  2

  9
$UCSNAME
  2

  9
$UCSORG
 10
0.0
 20
0.0
 30
0.0
  9
$UCSXDIR
 10
1.0
 20
0.0
 30
0.0
  9
$UCSYDIR
 10
0.0
 20
1.0
 30
0.0
  9
$UCSORTHOREF
  2

  9
$UCSORTHOVIEW
 70
0
  9
$UCSORGTOP
 10
0.0
 20
0.0
 30
0.0
  9
$UCSORGBOTTOM
 10
0.0
 20
0.0
 30
0.0
  9
$UCSORGLEFT
 10
0.0
 20
0.0
 30
0.0
  9
$UCSORGRIGHT
 10
0.0
 20
0.0
 30
0.0
  9
$UCSORGFRONT
 10
0.0
 20
0.0
 30
0.0
  9
$UCSORGBACK
 10
0.0
 20
0.0
 30
0.0
  9
$PUCSBASE
  2

  9
$PUCSNAME
  2

  9
$PUCSORG
 10
0.0
 20
0.0
 30
0.0
  9
$PUCSXDIR
 10
1.0
 20
0.0
 30
0.0
  9
$PUCSYDIR
 10
0.0
 20
1.0
 30
0.0
  9
$PUCSORTHOREF
  2

  9
$PUCSORTHOVIEW
 70
0
  9
$PUCSORGTOP
 10
0.0
 20
0.0
 30
0.0
  9
$PUCSORGBOTTOM
 10
0.0
 20
0.0
 30
0.0
  9
$PUCSORGLEFT
 10
0.0
 20
0.0
 30
0.0
  9
$PUCSORGRIGHT
 10
0.0
 20
0.0
 30
0.0
  9
$PUCSORGFRONT
 10
0.0
 20
0.0
 30
0.0
  9
$PUCSORGBACK
 10
0.0
 20
0.0
 30
0.0
  9
$USERI1
 70
0
  9
$USERI2
 70
0
  9
$USERI3
 70
0
  9
$USERI4
 70
0
  9
$USERI5
 70
0
  9
$USERR1
 40
0.0
  9
$USERR2
 40
0.0
  9
$USERR3
 40
0.0
  9
$USERR4
 40
0.0
  9
$USERR5
 40
0.0
  9
$WORLDVIEW
 70
1
  9
$SHADEDGE
 70
3
  9
$SHADEDIF
 70
70
  9
$TILEMODE
 70
1
  9
$MAXACTVP
 70
64
  9
$PINSBASE
 10
0.0
 20
0.0
 30
0.0
  9
$PLIMCHECK
 70
0
  9
$PEXTMIN
 10
1e+20
 20
1e+20
 30
1e+20
  9
$PEXTMAX
 10
-1e+20
 20
-1e+20
 30
-1e+20
  9
$PLIMMIN
 10
0.0
 20
0.0
  9
$PLIMMAX
 10
420.0
 20
297.0
  9
$UNITMODE
 70
0
  9
$VISRETAIN
 70
1
  9
$PLINEGEN
 70
0
  9
$PSLTSCALE
 70
1
  9
$TREEDEPTH
 70
3020
  9
$CMLSTYLE
  2
Standard
  9
$CMLJUST
 70
0
  9
$CMLSCALE
 40
20.0
  9
$PROXYGRAPHICS
 70
1
  9
$MEASUREMENT
 70
1
  9
$CELWEIGHT
370
-1
  9
$ENDCAPS
280
0
  9
$JOINSTYLE
280
0
  9
$LWDISPLAY
290
0
  9
$INSUNITS
 70
6
  9
$HYPERLINKBASE
  1

  9
$STYLESHEET
  1

  9
$XEDIT
290
1
  9
$CEPSNTYPE
380
0
  9
$PSTYLEMODE
290
1
  9
$FINGERPRINTGUID
  2
{A9EF65FC-11F9-4231-A043-9E13C3A141FE}
  9
$VERSIONGUID
  2
{DC40083E-A31D-42A3-AE8B-AC5AA631D14C}
  9
$EXTNAMES
290
1
  9
$PSVPSCALE
 40
0.0
  9
$OLESTARTUP
290
0
  9
$SORTENTS
280
127
  9
$INDEXCTL
280
0
  9
$HIDETEXT
280
1
  9
$XCLIPFRAME
280
0
  9
$HALOGAP
280
0
  9
$OBSCOLOR
 70
257
  9
$OBSLTYPE
280
0
  9
$INTERSECTIONDISPLAY
280
0
  9
$INTERSECTIONCOLOR
 70
257
  9
$DIMASSOC
280
2
  9
$PROJECTNAME
  1

  9
$CAMERADISPLAY
290
0
  9
$LENSLENGTH
 40
50.0
  9
$CAMERAHEIGHT
 40
0.0
  9
$STEPSPERSEC
 40
24.0
  9
$STEPSIZE
 40
100.0
  9
$3DDWFPREC
 40
2.0
  9
$PSOLWIDTH
 40
0.005
  9
$PSOLHEIGHT
 40
0.08
  9
$LOFTANG1
 40
1.570796326795
  9
$LOFTANG2
 40
1.570796326795
  9
$LOFTMAG1
 40
0.0
  9
$LOFTMAG2
 40
0.0
  9
$LOFTPARAM
 70
7
  9
$LOFTNORMALS
280
1
  9
$LATITUDE
 40
37.795
  9
$LONGITUDE
 40
-122.394
  9
$NORTHDIRECTION
 40
0.0
  9
$TIMEZONE
 70
-8000
  9
$LIGHTGLYPHDISPLAY
280
1
  9
$TILEMODELIGHTSYNCH
280
1
  9
$CMATERIAL
347
20
  9
$SOLIDHIST
280
0
  9
$SHOWHIST
280
1
  9
$DWFFRAME
280
2
  9
$DGNFRAME
280
2
  9
$REALWORLDSCALE
290
1
  9
$INTERFERECOLOR
 62
256
  9
$CSHADOW
280
0
  9
$SHADOWPLANELOCATION
 40
0.0
  0
ENDSEC
  0
SECTION
  2
CLASSES
  0
CLASS
  1
ACDBDICTIONARYWDFLT
  2
AcDbDictionaryWithDefault
  3
ObjectDBX Classes
 90
0
 91
0
280
0
281
0
  0
CLASS
  1
SUN
  2
AcDbSun
  3
SCENEOE
 90
1153
 91
0
280
0
281
0
  0
CLASS
  1
VISUALSTYLE
  2
AcDbVisualStyle
  3
ObjectDBX Classes
 90
4095
 91
0
280
0
281
0
  0
CLASS
  1
MATERIAL
  2
AcDbMaterial
  3
ObjectDBX Classes
 90
1153
 91
0
280
0
281
0
  0
CLASS
  1
SCALE
  2
AcDbScale
  3
ObjectDBX Classes
 90
1153
 91
0
280
0
281
0
  0
CLASS
  1
TABLESTYLE
  2
AcDbTableStyle
  3
ObjectDBX Classes
 90
4095
 91
0
280
0
281
0
  0
CLASS
  1
MLEADERSTYLE
  2
AcDbMLeaderStyle
  3
ACDB_MLEADERSTYLE_CLASS
 90
4095
 91
0
280
0
281
0
  0
CLASS
  1
DICTIONARYVAR
  2
AcDbDictionaryVar
  3
ObjectDBX Classes
 90
0
 91
0
280
0
281
0
  0
CLASS
  1
CELLSTYLEMAP
  2
AcDbCellStyleMap
  3
ObjectDBX Classes
 90
1152
 91
0
280
0
281
0
  0
CLASS
  1
MENTALRAYRENDERSETTINGS
  2
AcDbMentalRayRenderSettings
  3
SCENEOE
 90
1024
 91
0
280
0
281
0
  0
CLASS
  1
ACDBDETAILVIEWSTYLE
  2
AcDbDetailViewStyle
  3
ObjectDBX Classes
 90
1025
 91
0
280
0
281
0
  0
CLASS
  1
ACDBSECTIONVIEWSTYLE
  2
AcDbSectionViewStyle
  3
ObjectDBX Classes
 90
1025
 91
0
280
0
281
0
  0
CLASS
  1
RASTERVARIABLES
  2
AcDbRasterVariables
  3
ISM
 90
0
 91
0
280
0
281
0
  0
CLASS
  1
LAYOUT
  2
AcDbLayout
  3
ObjectDBX Classes
 90
0
 91
0
280
0
281
0
  0
CLASS
  1
ACDBPLACEHOLDER
  2
AcDbPlaceHolder
  3
ObjectDBX Classes
 90
0
 91
0
280
0
281
0
  0
ENDSEC
  0
SECTION
  2
TABLES
  0
TABLE
  2
VPORT
  5
8
330
0
100
AcDbSymbolTable
 70
1
  0
VPORT
  5
23
330
8
100
AcDbSymbolTableRecord
100
AcDbViewportTableRecord
  2
*Active
 70
0
 10
0.0
 20
0.0
 11
1.0
 21
1.0
 12
0.0
 22
0.0
 13
0.0
 23
0.0
 14
0.5
 24
0.5
 15
0.5
 25
0.5
 16
0.0
 26
0.0
 36
1.0
 17
0.0
 27
0.0
 37
0.0
 40
1000.0
 41
1.34
 42
50.0
 43
0.0
 44
0.0
 50
0.0
 51
0.0
 71
0
 72
1000
 73
1
 74
3
 75
0
 76
0
 77
0
 78
0
281
0
 65
0
146
0.0
  0
ENDTAB
  0
TABLE
  2
LTYPE
  5
2
330
0
100
AcDbSymbolTable
 70
3
  0
LTYPE
  5
24
330
2
100
AcDbSymbolTableRecord
100
AcDbLinetypeTableRecord
  2
ByBlock
 70
0
  3

 72
65
 73
0
 40
0.0
  0
LTYPE
  5
25
330
2
100
AcDbSymbolTableRecord
100
AcDbLinetypeTableRecord
  2
ByLayer
 70
0
  3

 72
65
 73
0
 40
0.0
  0
LTYPE
  5
26
330
2
100
AcDbSymbolTableRecord
100
AcDbLinetypeTableRecord
  2
Continuous
 70
0
  3

 72
65
 73
0
 40
0.0
  0
ENDTAB
  0
TABLE
  2
LAYER
  5
1
330
0
100
AcDbSymbolTable
 70
2
  0
LAYER
  5
27
330
1
100
AcDbSymbolTableRecord
100
AcDbLayerTableRecord
  2
0
 70
0
 62
7
  6
Continuous
370
-3
390
13
347
21
  0
LAYER
  5
28
330
1
100
AcDbSymbolTableRecord
100
AcDbLayerTableRecord
  2
Defpoints
 70
0
 62
7
  6
Continuous
290
0
370
-3
390
13
347
21
  0
ENDTAB
  0
TABLE
  2
STYLE
  5
5
330
0
100
AcDbSymbolTable
 70
1
  0
STYLE
  5
29
330
5
100
AcDbSymbolTableRecord
100
AcDbTextStyleTableRecord
  2
Standard
 70
0
 40
0.0
 41
1.0
 50
0.0
 71
0
 42
2.5
  3
txt
  4

  0
ENDTAB
  0
TABLE
  2
VIEW
  5
7
330
0
100
AcDbSymbolTable
 70
0
  0
ENDTAB
  0
TABLE
  2
UCS
  5
6
330
0
100
AcDbSymbolTable
 70
0
  0
ENDTAB
  0
TABLE
  2
APPID
  5
3
330
0
100
AcDbSymbolTable
 70
3
  0
APPID
  5
2A
330
3
100
AcDbSymbolTableRecord
100
AcDbRegAppTableRecord
  2
ACAD
 70
0
  0
APPID
  5
77
330
3
100
AcDbSymbolTableRecord
100
AcDbRegAppTableRecord
  2
HATCHBACKGROUNDCOLOR
 70
0
  0
APPID
  5
78
330
3
100
AcDbSymbolTableRecord
100
AcDbRegAppTableRecord
  2
EZDXF
 70
0
  0
ENDTAB
  0
TABLE
  2
DIMSTYLE
  5
4
330
0
100
AcDbSymbolTable
 70
1
100
AcDbDimStyleTable
  0
DIMSTYLE
105
2B
330
4
100
AcDbSymbolTableRecord
100
AcDbDimStyleTableRecord
  2
Standard
 70
0
 40
1.0
 41
2.5
 42
0.625
 43
3.75
 44
1.25
 45
0.0
 46
0.0
 47
0.0
 48
0.0
 49
2.5
140
2.5
141
2.5
142
0.0
143
0.03937007874
144
1.0
145
0.0
146
1.0
147
0.625
148
0.0
 69
0
 70
0
 71
0
 72
0
 73
0
 74
0
 75
0
 76
0
 77
1
 78
8
 79
3
170
0
171
3
172
1
173
0
174
0
175
0
176
0
177
0
178
0
179
2
271
2
272
2
273
2
274
3
275
0
276
0
277
2
278
44
279
0
280
0
281
0
282
0
283
0
284
8
285
0
286
0
288
0
289
3
290
0
371
-2
372
-2
  0
ENDTAB
  0
TABLE
  2
BLOCK_RECORD
  5
9
330
0
100
AcDbSymbolTable
 70
2
  0
BLOCK_RECORD
  5
17
330
9
100
AcDbSymbolTableRecord
100
AcDbBlockTableRecord
  2
*Model_Space
340
1A
 70
0
280
1
281
0
  0
BLOCK_RECORD
  5
1B
330
9
100
AcDbSymbolTableRecord
100
AcDbBlockTableRecord
  2
*Paper_Space
340
1E
 70
0
280
1
281
0
  0
ENDTAB
  0
ENDSEC
  0
SECTION
  2
BLOCKS
  0
BLOCK
  5
18
330
17
100
AcDbEntity
  8
0
100
AcDbBlockBegin
  2
*Model_Space
 70
0
 10
0.0
 20
0.0
 30
0.0
  3
*Model_Space
  1

  0
ENDBLK
  5
19
330
17
100
AcDbEntity
  8
0
100
AcDbBlockEnd
  0
BLOCK
  5
1C
330
1B
100
AcDbEntity
  8
0
100
AcDbBlockBegin
  2
*Paper_Space
 70
0
 10
0.0
 20
0.0
 30
0.0
  3
*Paper_Space
  1

  0
ENDBLK
  5
1D
330
1B
100
AcDbEntity
  8
0
100
AcDbBlockEnd
  0
ENDSEC
  0
SECTION
  2
ENTITIES
  0
LWPOLYLINE
  5
2F
330
17
100
AcDbEntity
  8
FP-Proposed Wall
100
AcDbPolyline
 90
9
 70
0
 10
18163.320095766445
 20
-1581.9104196975532
 10
18163.320095766445
 20
-1581.0455571813254
 10
18160.820095766445
 20
-1581.0455571813236
 42
0.18026028669588867
 10
18160.216341579937
 20
-1579.710702906541
 42
-0.28832886185093176
 10
18159.315938031374
 20
-1577.6604196975895
 10
18158.815938031374
 20
-1577.6604196975895
 10
18158.815938031374
 20
-1576.9104196975895
 10
18163.320095766445
 20
-1576.9104196975895
 10
18163.320095766445
 20
-1575.9104196975532
  0
LINE
  5
30
330
17
100
AcDbEntity
  8
FP-Hatch
100
AcDbLine
 10
18357.686979080252
 20
-1577.6605969207512
 30
-1.887379141862766e-15
 11
18159.315938031374
 21
-1577.6604196975895
 31
-1.887379141862766e-15
  0
LWPOLYLINE
  5
31
330
17
100
AcDbEntity
  8
FP-Proposed Wall
100
AcDbPolyline
 90
2
 70
0
 10
18163.320093949755
 20
-1575.910422683215
 10
18357.686979080252
 20
-1575.9105999439093
  0
LINE
  5
32
330
17
100
AcDbEntity
  8
FP-Proposed Wall
100
AcDbLine
 10
18172.570095766445
 20
-1581.9106002348938
 30
0.0
 11
18163.320095766445
 21
-1581.9104196975532
 31
0.0
  0
LINE
  5
33
330
17
100
AcDbEntity
  8
FP-Hatch
100
AcDbLine
 10
18357.686979080252
 20
-1581.0457344426538
 30
-1.887379141862766e-15
 11
18163.320095766445
 21
-1581.0455571813254
 31
-1.887379141862766e-15
  0
LINE
  5
34
330
17
100
AcDbEntity
  8
FP-Hatch
100
AcDbLine
 10
18357.686979080252
 20
-1576.9105969589584
 30
-1.887379141862766e-15
 11
18163.320095766445
 21
-1576.9104196975895
 31
-1.887379141862766e-15
  0
LWPOLYLINE
  5
35
330
17
100
AcDbEntity
  8
FP-Proposed Wall
100
AcDbPolyline
 90
2
 70
0
 10
18163.32009760565
 20
-1575.910416674884
 10
18216.633244898425
 20
-1489.1575596590421
  0
LWPOLYLINE
  5
36
330
17
100
AcDbEntity
  8
FP-Note
100
AcDbPolyline
 90
4
 70
0
 38
0.15667887986761997
 10
18182.37073595048
 20
-1534.550906735953
 10
18170.37073595048
 20
-1534.550906735953
 10
18170.37073595048
 20
-1554.550906735953
 10
18182.37073595048
 20
-1534.5509067359528
  0
LINE
  5
37
330
17
100
AcDbEntity
  8
FP-Proposed Wall
100
AcDbLine
 10
18172.569909866925
 20
-1582.6614746239343
 30
0.0
 11
18173.569909866925
 21
-1582.6614757163215
 31
0.0
  0
LINE
  5
38
330
17
100
AcDbEntity
  8
FP-Proposed Wall
100
AcDbLine
 10
18172.569910686212
 20
-1581.9114746239347
 30
0.0
 11
18172.569909866925
 21
-1582.6614746239343
 31
0.0
  0
LWPOLYLINE
  5
39
330
17
100
AcDbEntity
  8
FP-Proposed Wall
100
AcDbPolyline
 90
2
 70
0
 10
18172.570095765815
 20
-1582.6617107264958
 10
18173.570095765812
 20
-1582.6617118478368
  0
LINE
  5
3A
330
17
100
AcDbEntity
  8
FP-Proposed Wall
100
AcDbLine
 10
18172.57009660682
 20
-1581.9117107264958
 30
0.0
 11
18172.570095765815
 21
-1582.6617107264958
 31
0.0
  0
LWPOLYLINE
  5
3B
330
17
100
AcDbEntity
  8
FP-Proposed Wall
100
AcDbPolyline
 90
2
 70
0
 10
18358.00175703682
 20
-1581.9106002348938
 10
18172.570095766445
 20
-1581.9106002348938
  0
LINE
  5
3C
330
17
100
AcDbEntity
  8
FP-Hatch
100
AcDbLine
 10
18355.687679138944
 20
-1582.6614829520108
 30
0.0
 11
18173.570095765812
 21
-1582.6617118478368
 31
0.0
  0
LINE
  5
3D
330
17
100
AcDbEntity
  8
EL-Trim
 62
8
100
AcDbLine
 10
18183.31668664961
 20
-1581.9104389143158
 30
0.0
 11
18183.316685808604
 21
-1582.660438914314
 31
0.0
  0
LINE
  5
3E
330
17
100
AcDbEntity
  8
EL-Trim
 62
8
100
AcDbLine
 10
18185.31668665012
 20
-1581.9104411570024
 30
0.0
 11
18185.316685809114
 21
-1582.6604411570024
 31
0.0
  0
LINE
  5
3F
330
17
100
AcDbEntity
  8
FP-Stair
100
AcDbLine
 10
18200.849587957426
 20
-1582.6616160747087
 30
0.0
 11
18200.349587957426
 21
-1582.6616160747087
 31
0.0
  0
LINE
  5
40
330
17
100
AcDbEntity
  8
FP-Stair
100
AcDbLine
 10
18200.849587957426
 20
-1581.9116160747087
 30
0.0
 11
18200.849587957426
 21
-1582.6616160747087
 31
0.0
  0
LINE
  5
41
330
17
100
AcDbEntity
  8
FP-Proposed Wall
100
AcDbLine
 10
18215.88323689267
 20
-1487.15757919519
 30
0.0
 11
18215.505776892667
 21
-1487.15757919519
 31
0.0
  0
LINE
  5
42
330
17
100
AcDbEntity
  8
FP-Proposed Wall
100
AcDbLine
 10
18215.88323289267
 20
-1489.15757919519
 30
0.0
 11
18215.88323289267
 21
-1487.15757919519
 31
0.0
  0
LINE
  5
43
330
17
100
AcDbEntity
  8
FP-Proposed Wall
100
AcDbLine
 10
18215.88323289267
 20
-1489.1575751951905
 30
0.0
 11
18216.63323289267
 21
-1489.15757919519
 31
0.0
  0
LINE
  5
44
330
17
100
AcDbEntity
  8
FP-Hatch
100
AcDbLine
 10
18215.88323289267
 20
-1487.15757919519
 30
0.0
 11
18499.703663569228
 21
-1487.1572076844216
 31
0.0
  0
LINE
  5
45
330
17
100
AcDbEntity
  8
FP-Proposed Wall
100
AcDbLine
 10
18216.63323289267
 20
-1489.15757919519
 30
0.0
 11
18498.953663547378
 21
-1489.1571657837014
 31
0.0
  0
LWPOLYLINE
  5
46
330
17
100
AcDbEntity
  8
FP-Proposed Wall
100
AcDbPolyline
 90
9
 70
0
 10
18230.54036934829
 20
-1581.9104196975532
 10
18230.54036934829
 20
-1581.0455571813254
 10
18228.04036934829
 20
-1581.0455571813236
 42
0.18026028669588867
 10
18227.436615161783
 20
-1579.710702906541
 42
-0.28832886185093176
 10
18226.53621161322
 20
-1577.6604196975895
 10
18226.03621161322
 20
-1577.6604196975895
 10
18226.03621161322
 20
-1576.9104196975895
 10
18230.54036934829
 20
-1576.9104196975895
 10
18230.54036934829
 20
-1575.9104196975532
  0
LINE
  5
47
330
17
100
AcDbEntity
  8
FP-Proposed Wall
100
AcDbLine
 10
18241.79036934829
 20
-1581.9106002348938
 30
0.0
 11
18230.54036934829
 21
-1581.9104196975532
 31
0.0
  0
LWPOLYLINE
  5
48
330
17
100
AcDbEntity
  8
FP-Proposed Wall
100
AcDbPolyline
 90
2
 70
0
 10
18230.540411835478
 20
-1575.9103505610462
 10
18283.853566983955
 20
-1489.1574807621496
  0
LWPOLYLINE
  5
49
330
17
100
AcDbEntity
  8
FP-Note
100
AcDbPolyline
 90
4
 70
0
 38
0.15667887986761997
 10
18250.529843413915
 20
-1534.550906735953
 10
18238.529843413915
 20
-1534.550906735953
 10
18238.529843413915
 20
-1554.550906735953
 10
18250.529843413915
 20
-1534.5509067359528
  0
LINE
  5
4A
330
17
100
AcDbEntity
  8
FP-Stair
100
AcDbLine
 10
18239.790369347516
 20
-1582.6616160747087
 30
0.0
 11
18240.290369347516
 21
-1582.6616160747087
 31
0.0
  0
LINE
  5
4B
330
17
100
AcDbEntity
  8
FP-Stair
100
AcDbLine
 10
18239.790369347516
 20
-1581.9116160747087
 30
0.0
 11
18239.790369347516
 21
-1582.6616160747087
 31
0.0
  0
LINE
  5
4C
330
17
100
AcDbEntity
  8
FP-Proposed Wall
100
AcDbLine
 10
18241.79036934829
 20
-1582.660834165458
 30
0.0
 11
18242.29036934829
 21
-1582.660834165458
 31
0.0
  0
LINE
  5
4D
330
17
100
AcDbEntity
  8
FP-Proposed Wall
100
AcDbLine
 10
18241.79036934829
 20
-1581.910834165458
 30
0.0
 11
18241.79036934829
 21
-1582.660834165458
 31
0.0
  0
LINE
  5
4E
330
17
100
AcDbEntity
  8
FP-Proposed Wall
100
AcDbLine
 10
18272.946236359217
 20
-1581.9104753212412
 30
0.0
 11
18272.946237200224
 21
-1582.6604753212393
 31
0.0
  0
LINE
  5
4F
330
17
100
AcDbEntity
  8
FP-Proposed Wall
100
AcDbLine
 10
18283.103570983956
 20
-1487.1574807621496
 30
0.0
 11
18282.726110983953
 21
-1487.1574807621496
 31
0.0
  0
LINE
  5
50
330
17
100
AcDbEntity
  8
FP-Proposed Wall
100
AcDbLine
 10
18283.103566983955
 20
-1489.1574807621496
 30
0.0
 11
18283.103566983955
 21
-1487.1574807621496
 31
0.0
  0
LINE
  5
51
330
17
100
AcDbEntity
  8
FP-Proposed Wall
100
AcDbLine
 10
18283.103566983955
 20
-1489.15747676215
 30
0.0
 11
18283.853566983955
 21
-1489.1574807621496
 31
0.0
  0
LINE
  5
52
330
17
100
AcDbEntity
  8
FP-Hatch
100
AcDbLine
 10
18543.07185103649
 20
-1582.660420795753
 30
0.0
 11
18355.687679138944
 21
-1582.6614829520108
 31
0.0
  0
LWPOLYLINE
  5
53
330
17
100
AcDbEntity
  8
FP-Proposed Wall
100
AcDbPolyline
 90
2
 70
0
 10
18357.686979080252
 20
-1581.9105993678186
 10
18544.06996386078
 20
-1581.9102240290902
  0
LINE
  5
54
330
17
100
AcDbEntity
  8
FP-Hatch
100
AcDbLine
 10
18357.686979080252
 20
-1581.0457338665813
 30
-1.887379141862766e-15
 11
18553.320056529446
 21
-1581.0457338665813
 31
0.0
  0
LINE
  5
55
330
17
100
AcDbEntity
  8
FP-Hatch
100
AcDbLine
 10
18357.686979080252
 20
-1577.6605963568531
 30
-1.887379141862766e-15
 11
18557.324214264518
 21
-1577.660210670952
 31
-1.887379141862766e-15
  0
LINE
  5
56
330
17
100
AcDbEntity
  8
FP-Hatch
100
AcDbLine
 10
18357.686979080252
 20
-1576.9105963828856
 30
-1.887379141862766e-15
 11
18553.320056529446
 21
-1576.910210670952
 31
-1.887379141862766e-15
  0
LWPOLYLINE
  5
57
330
17
100
AcDbEntity
  8
FP-Proposed Wall
100
AcDbPolyline
 90
2
 70
0
 10
18553.320058346137
 20
-1575.9102136565775
 10
18357.686979080252
 20
-1575.9105993678388
  0
LWPOLYLINE
  5
58
330
17
100
AcDbEntity
  8
FP-Proposed Wall
100
AcDbPolyline
 90
2
 70
0
 10
18486.09520388373
 20
-1575.9104196975532
 10
18432.78187222856
 20
-1489.1572626813247
  0
LINE
  5
59
330
17
100
AcDbEntity
  8
FP-Proposed Wall
100
AcDbLine
 10
18433.53187222856
 20
-1489.1572586813252
 30
0.0
 11
18432.78187222856
 21
-1489.1572626813247
 31
0.0
  0
LINE
  5
5A
330
17
100
AcDbEntity
  8
FP-Proposed Wall
100
AcDbLine
 10
18433.531868228558
 20
-1487.1572626813247
 30
0.0
 11
18433.90932822856
 21
-1487.1572626813247
 31
0.0
  0
LINE
  5
5B
330
17
100
AcDbEntity
  8
FP-Proposed Wall
100
AcDbLine
 10
18433.53187222856
 20
-1489.1572626813247
 30
0.0
 11
18433.53187222856
 21
-1487.1572626813247
 31
0.0
  0
LINE
  5
5C
330
17
100
AcDbEntity
  8
FP-Proposed Wall
100
AcDbLine
 10
18443.691163428142
 20
-1581.9104753212412
 30
0.0
 11
18443.691162587136
 21
-1582.6604753212393
 31
0.0
  0
LWPOLYLINE
  5
5D
330
17
100
AcDbEntity
  8
FP-Note
100
AcDbPolyline
 90
4
 70
0
 38
0.15667887986761997
 10
18464.84411474659
 20
-1534.550906735953
 10
18476.84411474659
 20
-1534.550906735953
 10
18476.84411474659
 20
-1554.550906735953
 10
18464.84411474659
 20
-1534.5509067359528
  0
LINE
  5
5E
330
17
100
AcDbEntity
  8
FP-Proposed Wall
100
AcDbLine
 10
18474.834427257414
 20
-1582.6601675452616
 30
0.0
 11
18474.334427257414
 21
-1582.6601675452616
 31
0.0
  0
LINE
  5
5F
330
17
100
AcDbEntity
  8
FP-Proposed Wall
100
AcDbLine
 10
18474.834427257414
 20
-1581.9101675452616
 30
0.0
 11
18474.834427257414
 21
-1582.6601675452616
 31
0.0
  0
LINE
  5
60
330
17
100
AcDbEntity
  8
FP-Proposed Wall
100
AcDbLine
 10
18474.84520388373
 20
-1581.9106002348938
 30
0.0
 11
18486.09520388373
 21
-1581.9104196975532
 31
0.0
  0
LINE
  5
61
330
17
100
AcDbEntity
  8
FP-Stair
100
AcDbLine
 10
18476.848309198638
 20
-1582.6616160747087
 30
0.0
 11
18476.348309198638
 21
-1582.6616160747087
 31
0.0
  0
LINE
  5
62
330
17
100
AcDbEntity
  8
FP-Stair
100
AcDbLine
 10
18476.848309198638
 20
-1581.9116160747087
 30
0.0
 11
18476.848309198638
 21
-1582.6616160747087
 31
0.0
  0
LWPOLYLINE
  5
63
330
17
100
AcDbEntity
  8
FP-Proposed Wall
100
AcDbPolyline
 90
9
 70
0
 10
18486.09520388373
 20
-1581.9104196975532
 10
18486.09520388373
 20
-1581.0455571813254
 10
18488.59520388373
 20
-1581.0455571813236
 42
-0.18026028669588867
 10
18489.19895807024
 20
-1579.710702906541
 42
0.28832886185093176
 10
18490.099361618803
 20
-1577.6604196975895
 10
18490.599361618803
 20
-1577.6604196975895
 10
18490.599361618803
 20
-1576.9104196975895
 10
18486.09520388373
 20
-1576.9104196975895
 10
18486.09520388373
 20
-1575.9104196975532
  0
LINE
  5
64
330
17
100
AcDbEntity
  8
FP-Proposed Wall
100
AcDbLine
 10
18499.703663569228
 20
-1489.1571617837017
 30
0.0
 11
18498.953663569228
 21
-1489.1571657837012
 31
0.0
  0
LWPOLYLINE
  5
65
330
17
100
AcDbEntity
  8
FP-Proposed Wall
100
AcDbPolyline
 90
2
 70
0
 10
18553.320058346137
 20
-1575.9102136565775
 10
18498.95367600446
 20
-1489.1571857057263
  0
LINE
  5
66
330
17
100
AcDbEntity
  8
FP-Proposed Wall
100
AcDbLine
 10
18499.703659569226
 20
-1487.1571657837012
 30
0.0
 11
18500.08111956923
 21
-1487.1571657837012
 31
0.0
  0
LINE
  5
67
330
17
100
AcDbEntity
  8
FP-Proposed Wall
100
AcDbLine
 10
18499.703663569228
 20
-1489.1571657837012
 30
0.0
 11
18499.703663569228
 21
-1487.1571657837012
 31
0.0
  0
LINE
  5
68
330
17
100
AcDbEntity
  8
FP-Stair
100
AcDbLine
 10
18515.78909058873
 20
-1582.6616160747087
 30
0.0
 11
18516.28909058873
 21
-1582.6616160747087
 31
0.0
  0
LINE
  5
69
330
17
100
AcDbEntity
  8
FP-Stair
100
AcDbLine
 10
18515.78909058873
 20
-1581.9116160747087
 30
0.0
 11
18515.78909058873
 21
-1582.6616160747087
 31
0.0
  0
LINE
  5
6A
330
17
100
AcDbEntity
  8
EL-Trim
 62
8
100
AcDbLine
 10
18531.323373818384
 20
-1581.9104775639357
 30
0.0
 11
18531.32337465939
 21
-1582.6604775639357
 31
0.0
  0
LINE
  5
6B
330
17
100
AcDbEntity
  8
EL-Trim
 62
8
100
AcDbLine
 10
18533.323373818894
 20
-1581.9104753212491
 30
0.0
 11
18533.3233746599
 21
-1582.6604753212473
 31
0.0
  0
LWPOLYLINE
  5
6C
330
17
100
AcDbEntity
  8
FP-Note
100
AcDbPolyline
 90
4
 70
0
 38
0.15667887986761997
 10
18534.78925402212
 20
-1534.5507037176467
 10
18547.55108937043
 20
-1534.550906735953
 10
18546.78925402212
 20
-1554.5507037176467
 10
18534.78925402212
 20
-1534.5507037176465
  0
LWPOLYLINE
  5
6D
330
17
100
AcDbEntity
  8
FP-Proposed Wall
100
AcDbPolyline
 90
2
 70
0
 10
18544.069964702052
 20
-1582.6604591271557
 10
18543.069964702056
 20
-1582.6604602484967
  0
LINE
  5
6E
330
17
100
AcDbEntity
  8
FP-Proposed Wall
100
AcDbLine
 10
18544.070150600943
 20
-1582.6602230245942
 30
0.0
 11
18543.070150600943
 21
-1582.6602241169815
 31
0.0
  0
LINE
  5
6F
330
17
100
AcDbEntity
  8
FP-Proposed Wall
100
AcDbLine
 10
18544.069963861046
 20
-1581.9104591271557
 30
0.0
 11
18544.069964702052
 21
-1582.6604591271557
 31
0.0
  0
LINE
  5
70
330
17
100
AcDbEntity
  8
FP-Proposed Wall
100
AcDbLine
 10
18544.070149781655
 20
-1581.9102230245946
 30
0.0
 11
18544.070150600943
 21
-1582.6602230245942
 31
0.0
  0
LINE
  5
71
330
17
100
AcDbEntity
  8
FP-Proposed Wall
100
AcDbLine
 10
18544.070149781655
 20
-1581.9102230245946
 30
0.0
 11
18553.320056529446
 21
-1581.9102230245946
 31
0.0
  0
LWPOLYLINE
  5
72
330
17
100
AcDbEntity
  8
FP-Proposed Wall
100
AcDbPolyline
 90
3
 70
0
 10
18553.320056529446
 20
-1581.9102106709156
 10
18553.320056529446
 20
-1581.0453481546879
 10
18553.320056529446
 20
-1581.0453481546879
  0
LINE
  5
73
330
17
100
AcDbEntity
  8
FP-Proposed Wall
100
AcDbLine
 10
18553.320056529446
 20
-1581.0457338665813
 30
0.0
 11
18555.820030267325
 21
-1581.0457338665813
 31
0.0
  0
LWPOLYLINE
  5
74
330
17
100
AcDbEntity
  8
FP-Proposed Wall
100
AcDbPolyline
 90
3
 70
0
 10
18557.824214264518
 20
-1576.910210670952
 10
18553.320056529446
 20
-1576.910210670952
 10
18553.320056529446
 20
-1575.9102106709156
  0
LWPOLYLINE
  5
75
330
17
100
AcDbEntity
  8
FP-Proposed Wall
100
AcDbPolyline
 90
4
 70
0
 10
18555.820056529446
 20
-1581.045348154686
 42
-0.18026028669588867
 10
18556.423810715954
 20
-1579.7104938799034
 42
0.28832886185093176
 10
18557.324214264518
 20
-1577.660210670952
 10
18557.824214264518
 20
-1577.660210670952
  0
LWPOLYLINE
  5
76
330
17
100
AcDbEntity
  8
FP-Proposed Wall
100
AcDbPolyline
 90
2
 70
0
 10
18557.824214264518
 20
-1577.660210670952
 10
18557.824214264518
 20
-1576.910210670952
  0
ENDSEC
  0
SECTION
  2
OBJECTS
  0
DICTIONARY
  5
A
330
0
100
AcDbDictionary
280
0
281
1
  3
ACAD_COLOR
350
B
  3
ACAD_GROUP
350
C
  3
ACAD_LAYOUT
350
D
  3
ACAD_MATERIAL
350
E
  3
ACAD_MLEADERSTYLE
350
F
  3
ACAD_MLINESTYLE
350
10
  3
ACAD_PLOTSETTINGS
350
11
  3
ACAD_PLOTSTYLENAME
350
12
  3
ACAD_SCALELIST
350
14
  3
ACAD_TABLESTYLE
350
15
  3
ACAD_VISUALSTYLE
350
16
  3
EZDXF_META
350
2D
  0
DICTIONARY
  5
B
330
A
100
AcDbDictionary
280
0
281
1
  0
DICTIONARY
  5
C
330
A
100
AcDbDictionary
280
0
281
1
  0
DICTIONARY
  5
D
330
A
100
AcDbDictionary
280
0
281
1
  3
Model
350
1A
  3
Layout1
350
1E
  0
DICTIONARY
  5
E
330
A
100
AcDbDictionary
280
0
281
1
  3
ByBlock
350
1F
  3
ByLayer
350
20
  3
Global
350
21
  0
DICTIONARY
  5
F
330
A
100
AcDbDictionary
280
0
281
1
  3
Standard
350
2C
  0
DICTIONARY
  5
10
330
A
100
AcDbDictionary
280
0
281
1
  3
Standard
350
22
  0
DICTIONARY
  5
11
330
A
100
AcDbDictionary
280
0
281
1
  0
ACDBDICTIONARYWDFLT
  5
12
330
A
100
AcDbDictionary
280
0
281
1
  3
Normal
350
13
100
AcDbDictionaryWithDefault
340
13
  0
ACDBPLACEHOLDER
  5
13
330
12
  0
DICTIONARY
  5
14
330
A
100
AcDbDictionary
280
0
281
1
  0
DICTIONARY
  5
15
330
A
100
AcDbDictionary
280
0
281
1
  0
DICTIONARY
  5
16
330
A
100
AcDbDictionary
280
0
281
1
  0
LAYOUT
  5
1A
330
D
100
AcDbPlotSettings
  1

  2
Adobe PDF
  4
A3
  6

 40
7.5
 41
20.0
 42
7.5
 43
20.0
 44
420.0
 45
297.0
 46
0.0
 47
0.0
 48
0.0
 49
0.0
140
0.0
141
0.0
142
1.0
143
1.0
 70
1024
 72
1
 73
0
 74
5
  7

 75
16
 76
0
 77
2
 78
300
147
1.0
148
0.0
149
0.0
100
AcDbLayout
  1
Model
 70
1
 71
0
 10
0.0
 20
0.0
 11
420.0
 21
297.0
 12
0.0
 22
0.0
 32
0.0
 14
1e+20
 24
1e+20
 34
1e+20
 15
-1e+20
 25
-1e+20
 35
-1e+20
146
0.0
 13
0.0
 23
0.0
 33
0.0
 16
1.0
 26
0.0
 36
0.0
 17
0.0
 27
1.0
 37
0.0
 76
1
330
17
  0
LAYOUT
  5
1E
330
D
100
AcDbPlotSettings
  1

  2
Adobe PDF
  4
A3
  6

 40
7.5
 41
20.0
 42
7.5
 43
20.0
 44
420.0
 45
297.0
 46
0.0
 47
0.0
 48
0.0
 49
0.0
140
0.0
141
0.0
142
1.0
143
1.0
 70
0
 72
1
 73
0
 74
5
  7

 75
16
 76
0
 77
2
 78
300
147
1.0
148
0.0
149
0.0
100
AcDbLayout
  1
Layout1
 70
1
 71
1
 10
0.0
 20
0.0
 11
420.0
 21
297.0
 12
0.0
 22
0.0
 32
0.0
 14
1e+20
 24
1e+20
 34
1e+20
 15
-1e+20
 25
-1e+20
 35
-1e+20
146
0.0
 13
0.0
 23
0.0
 33
0.0
 16
1.0
 26
0.0
 36
0.0
 17
0.0
 27
1.0
 37
0.0
 76
1
330
1B
  0
MATERIAL
  5
1F
102
{ACAD_REACTORS
330
E
102
}
330
E
100
AcDbMaterial
  1
ByBlock
  2

 70
0
 40
1.0
 71
1
 41
1.0
 91
-1023410177
 42
1.0
 72
1
  3

 73
1
 74
1
 75
1
 44
0.5
 73
0
 45
1.0
 46
1.0
 77
1
  4

 78
1
 79
1
170
1
 48
1.0
171
1
  6

172
1
173
1
174
1
140
1.0
141
1.0
175
1
  7

176
1
177
1
178
1
143
1.0
179
1
  8

270
1
271
1
272
1
145
1.0
146
1.0
273
1
  9

274
1
275
1
276
1
 42
1.0
 72
1
  3

 73
1
 74
1
 75
1
 94
63
  0
MATERIAL
  5
20
102
{ACAD_REACTORS
330
E
102
}
330
E
100
AcDbMaterial
  1
ByLayer
  2

 70
0
 40
1.0
 71
1
 41
1.0
 91
-1023410177
 42
1.0
 72
1
  3

 73
1
 74
1
 75
1
 44
0.5
 73
0
 45
1.0
 46
1.0
 77
1
  4

 78
1
 79
1
170
1
 48
1.0
171
1
  6

172
1
173
1
174
1
140
1.0
141
1.0
175
1
  7

176
1
177
1
178
1
143
1.0
179
1
  8

270
1
271
1
272
1
145
1.0
146
1.0
273
1
  9

274
1
275
1
276
1
 42
1.0
 72
1
  3

 73
1
 74
1
 75
1
 94
63
  0
MATERIAL
  5
21
102
{ACAD_REACTORS
330
E
102
}
330
E
100
AcDbMaterial
  1
Global
  2

 70
0
 40
1.0
 71
1
 41
1.0
 91
-1023410177
 42
1.0
 72
1
  3

 73
1
 74
1
 75
1
 44
0.5
 73
0
 45
1.0
 46
1.0
 77
1
  4

 78
1
 79
1
170
1
 48
1.0
171
1
  6

172
1
173
1
174
1
140
1.0
141
1.0
175
1
  7

176
1
177
1
178
1
143
1.0
179
1
  8

270
1
271
1
272
1
145
1.0
146
1.0
273
1
  9

274
1
275
1
276
1
 42
1.0
 72
1
  3

 73
1
 74
1
 75
1
 94
63
  0
MLINESTYLE
  5
22
102
{ACAD_REACTORS
330
10
102
}
330
10
100
AcDbMlineStyle
  2
Standard
 70
0
  3

 62
256
 51
90.0
 52
90.0
 71
2
 49
0.5
 62
256
  6
BYLAYER
 49
-0.5
 62
256
  6
BYLAYER
  0
MLEADERSTYLE
  5
2C
102
{ACAD_REACTORS
330
F
102
}
330
F
100
AcDbMLeaderStyle
179
2
170
2
171
1
172
0
 90
2
 40
0.0
 41
0.0
173
1
 91
-1056964608
 92
-2
290
1
 42
2.0
291
1
 43
8.0
  3
Standard
 44
4.0
300

342
29
174
1
175
1
176
0
178
1
 93
-1056964608
 45
4.0
292
0
297
0
 46
4.0
 94
-1056964608
 47
1.0
 49
1.0
140
1.0
294
1
141
0.0
177
0
142
1.0
295
0
296
0
143
3.75
271
0
272
9
273
9
  0
DICTIONARY
  5
2D
330
A
100
AcDbDictionary
281
1
  3
CREATED_BY_EZDXF
350
2E
  3
WRITTEN_BY_EZDXF
350
79
  0
DICTIONARYVAR
  5
2E
330
2D
100
DictionaryVariables
280
0
  1
1.0.3 @ 2024-01-02T12:41:11.724587+00:00
  0
DICTIONARYVAR
  5
79
330
2D
100
DictionaryVariables
280
0
  1
1.0.3 @ 2024-01-02T12:41:11.738495+00:00
  0
ENDSEC
  0
EOF
