  0
SECTION
  2
HEADER
  9
$ACADVER
  1
AC1027
  9
$ACADMAINTVER
 70
105
  9
$DWGCODEPAGE
  3
ANSI_1252
  9
$LASTSAVEDBY
  1
ezdxf
  9
$REQUIREDVERSIONS
160
0
  9
$INSBASE
 10
0.0
 20
0.0
 30
0.0
  9
$EXTMIN
 10
1e+20
 20
1e+20
 30
1e+20
  9
$EXTMAX
 10
-1e+20
 20
-1e+20
 30
-1e+20
  9
$LIMMIN
 10
0.0
 20
0.0
  9
$LIMMAX
 10
420.0
 20
297.0
  9
$ORTHOMODE
 70
0
  9
$REGENMODE
 70
1
  9
$FILLMODE
 70
1
  9
$QTEXTMODE
 70
0
  9
$MIRRTEXT
 70
1
  9
$LTSCALE
 40
1.0
  9
$ATTMODE
 70
1
  9
$TEXTSIZE
 40
2.5
  9
$TRACEWID
 40
1.0
  9
$TEXTSTYLE
  7
Standard
  9
$CLAYER
  8
0
  9
$CELTYPE
  6
ByLayer
  9
$CECOLOR
 62
256
  9
$CELTSCALE
 40
1.0
  9
$DISPSILH
 70
0
  9
$DIMSCALE
 40
1.0
  9
$DIMASZ
 40
2.5
  9
$DIMEXO
 40
0.625
  9
$DIMDLI
 40
3.75
  9
$DIMRND
 40
0.0
  9
$DIMDLE
 40
0.0
  9
$DIMEXE
 40
1.25
  9
$DIMTP
 40
0.0
  9
$DIMTM
 40
0.0
  9
$DIMTXT
 40
2.5
  9
$DIMCEN
 40
2.5
  9
$DIMTSZ
 40
0.0
  9
$DIMTOL
 70
0
  9
$DIMLIM
 70
0
  9
$DIMTIH
 70
0
  9
$DIMTOH
 70
0
  9
$DIMSE1
 70
0
  9
$DIMSE2
 70
0
  9
$DIMTAD
 70
1
  9
$DIMZIN
 70
8
  9
$DIMBLK
  1

  9
$DIMASO
 70
1
  9
$DIMSHO
 70
1
  9
$DIMPOST
  1

  9
$DIMAPOST
  1

  9
$DIMALT
 70
0
  9
$DIMALTD
 70
3
  9
$DIMALTF
 40
0.03937007874
  9
$DIMLFAC
 40
1.0
  9
$DIMTOFL
 70
1
  9
$DIMTVP
 40
0.0
  9
$DIMTIX
 70
0
  9
$DIMSOXD
 70
0
  9
$DIMSAH
 70
0
  9
$DIMBLK1
  1

  9
$DIMBLK2
  1

  9
$DIMSTYLE
  2
ISO-25
  9
$DIMCLRD
 70
0
  9
$DIMCLRE
 70
0
  9
$DIMCLRT
 70
0
  9
$DIMTFAC
 40
1.0
  9
$DIMGAP
 40
0.625
  9
$DIMJUST
 70
0
  9
$DIMSD1
 70
0
  9
$DIMSD2
 70
0
  9
$DIMTOLJ
 70
0
  9
$DIMTZIN
 70
8
  9
$DIMALTZ
 70
0
  9
$DIMALTTZ
 70
0
  9
$DIMUPT
 70
0
  9
$DIMDEC
 70
2
  9
$DIMTDEC
 70
2
  9
$DIMALTU
 70
2
  9
$DIMALTTD
 70
3
  9
$DIMTXSTY
  7
Standard
  9
$DIMAUNIT
 70
0
  9
$DIMADEC
 70
0
  9
$DIMALTRND
 40
0.0
  9
$DIMAZIN
 70
0
  9
$DIMDSEP
 70
44
  9
$DIMATFIT
 70
3
  9
$DIMFRAC
 70
0
  9
$DIMLDRBLK
  1

  9
$DIMLUNIT
 70
2
  9
$DIMLWD
 70
-2
  9
$DIMLWE
 70
-2
  9
$DIMTMOVE
 70
0
  9
$DIMFXL
 40
1.0
  9
$DIMFXLON
 70
0
  9
$DIMJOGANG
 40
0.785398163397
  9
$DIMTFILL
 70
0
  9
$DIMTFILLCLR
 70
0
  9
$DIMARCSYM
 70
0
  9
$DIMLTYPE
  6

  9
$DIMLTEX1
  6

  9
$DIMLTEX2
  6

  9
$DIMTXTDIRECTION
 70
0
  9
$LUNITS
 70
2
  9
$LUPREC
 70
4
  9
$SKETCHINC
 40
1.0
  9
$FILLETRAD
 40
10.0
  9
$AUNITS
 70
0
  9
$AUPREC
 70
2
  9
$MENU
  1
.
  9
$ELEVATION
 40
0.0
  9
$PELEVATION
 40
0.0
  9
$THICKNESS
 40
0.0
  9
$LIMCHECK
 70
0
  9
$CHAMFERA
 40
0.0
  9
$CHAMFERB
 40
0.0
  9
$CHAMFERC
 40
0.0
  9
$CHAMFERD
 40
0.0
  9
$SKPOLY
 70
0
  9
$TDCREATE
 40
2460195.762928241
  9
$TDUCREATE
 40
2458532.153996898
  9
$TDUPDATE
 40
2460195.762928241
  9
$TDUUPDATE
 40
2458532.1544311
  9
$TDINDWG
 40
0.0
  9
$TDUSRTIMER
 40
0.0
  9
$USRTIMER
 70
1
  9
$ANGBASE
 50
0.0
  9
$ANGDIR
 70
0
  9
$PDMODE
 70
0
  9
$PDSIZE
 40
0.0
  9
$PLINEWID
 40
0.0
  9
$SPLFRAME
 70
0
  9
$SPLINETYPE
 70
6
  9
$SPLINESEGS
 70
8
  9
$HANDSEED
  5
356
  9
$SURFTAB1
 70
6
  9
$SURFTAB2
 70
6
  9
$SURFTYPE
 70
6
  9
$SURFU
 70
6
  9
$SURFV
 70
6
  9
$UCSBASE
  2

  9
$UCSNAME
  2

  9
$UCSORG
 10
0.0
 20
0.0
 30
0.0
  9
$UCSXDIR
 10
1.0
 20
0.0
 30
0.0
  9
$UCSYDIR
 10
0.0
 20
1.0
 30
0.0
  9
$UCSORTHOREF
  2

  9
$UCSORTHOVIEW
 70
0
  9
$UCSORGTOP
 10
0.0
 20
0.0
 30
0.0
  9
$UCSORGBOTTOM
 10
0.0
 20
0.0
 30
0.0
  9
$UCSORGLEFT
 10
0.0
 20
0.0
 30
0.0
  9
$UCSORGRIGHT
 10
0.0
 20
0.0
 30
0.0
  9
$UCSORGFRONT
 10
0.0
 20
0.0
 30
0.0
  9
$UCSORGBACK
 10
0.0
 20
0.0
 30
0.0
  9
$PUCSBASE
  2

  9
$PUCSNAME
  2

  9
$PUCSORG
 10
0.0
 20
0.0
 30
0.0
  9
$PUCSXDIR
 10
1.0
 20
0.0
 30
0.0
  9
$PUCSYDIR
 10
0.0
 20
1.0
 30
0.0
  9
$PUCSORTHOREF
  2

  9
$PUCSORTHOVIEW
 70
0
  9
$PUCSORGTOP
 10
0.0
 20
0.0
 30
0.0
  9
$PUCSORGBOTTOM
 10
0.0
 20
0.0
 30
0.0
  9
$PUCSORGLEFT
 10
0.0
 20
0.0
 30
0.0
  9
$PUCSORGRIGHT
 10
0.0
 20
0.0
 30
0.0
  9
$PUCSORGFRONT
 10
0.0
 20
0.0
 30
0.0
  9
$PUCSORGBACK
 10
0.0
 20
0.0
 30
0.0
  9
$USERI1
 70
0
  9
$USERI2
 70
0
  9
$USERI3
 70
0
  9
$USERI4
 70
0
  9
$USERI5
 70
0
  9
$USERR1
 40
0.0
  9
$USERR2
 40
0.0
  9
$USERR3
 40
0.0
  9
$USERR4
 40
0.0
  9
$USERR5
 40
0.0
  9
$WORLDVIEW
 70
1
  9
$SHADEDGE
 70
3
  9
$SHADEDIF
 70
70
  9
$TILEMODE
 70
1
  9
$MAXACTVP
 70
64
  9
$PINSBASE
 10
0.0
 20
0.0
 30
0.0
  9
$PLIMCHECK
 70
0
  9
$PEXTMIN
 10
1e+20
 20
1e+20
 30
1e+20
  9
$PEXTMAX
 10
-1e+20
 20
-1e+20
 30
-1e+20
  9
$PLIMMIN
 10
0.0
 20
0.0
  9
$PLIMMAX
 10
420.0
 20
297.0
  9
$UNITMODE
 70
0
  9
$VISRETAIN
 70
1
  9
$PLINEGEN
 70
0
  9
$PSLTSCALE
 70
1
  9
$TREEDEPTH
 70
3020
  9
$CMLSTYLE
  2
Standard
  9
$CMLJUST
 70
0
  9
$CMLSCALE
 40
20.0
  9
$PROXYGRAPHICS
 70
1
  9
$MEASUREMENT
 70
1
  9
$CELWEIGHT
370
-1
  9
$ENDCAPS
280
0
  9
$JOINSTYLE
280
0
  9
$LWDISPLAY
290
0
  9
$INSUNITS
 70
6
  9
$HYPERLINKBASE
  1

  9
$STYLESHEET
  1

  9
$XEDIT
290
1
  9
$CEPSNTYPE
380
0
  9
$PSTYLEMODE
290
1
  9
$FINGERPRINTGUID
  2
{B03574EC-D173-4DF0-A57F-D21BD8B79D33}
  9
$VERSIONGUID
  2
{28A80978-0337-4533-A62F-A75BF3CAAAEF}
  9
$EXTNAMES
290
1
  9
$PSVPSCALE
 40
0.0
  9
$OLESTARTUP
290
0
  9
$SORTENTS
280
127
  9
$INDEXCTL
280
0
  9
$HIDETEXT
280
1
  9
$XCLIPFRAME
280
0
  9
$HALOGAP
280
0
  9
$OBSCOLOR
 70
257
  9
$OBSLTYPE
280
0
  9
$INTERSECTIONDISPLAY
280
0
  9
$INTERSECTIONCOLOR
 70
257
  9
$DIMASSOC
280
2
  9
$PROJECTNAME
  1

  9
$CAMERADISPLAY
290
0
  9
$LENSLENGTH
 40
50.0
  9
$CAMERAHEIGHT
 40
0.0
  9
$STEPSPERSEC
 40
24.0
  9
$STEPSIZE
 40
100.0
  9
$3DDWFPREC
 40
2.0
  9
$PSOLWIDTH
 40
0.005
  9
$PSOLHEIGHT
 40
0.08
  9
$LOFTANG1
 40
1.570796326795
  9
$LOFTANG2
 40
1.570796326795
  9
$LOFTMAG1
 40
0.0
  9
$LOFTMAG2
 40
0.0
  9
$LOFTPARAM
 70
7
  9
$LOFTNORMALS
280
1
  9
$LATITUDE
 40
37.795
  9
$LONGITUDE
 40
-122.394
  9
$NORTHDIRECTION
 40
0.0
  9
$TIMEZONE
 70
-8000
  9
$LIGHTGLYPHDISPLAY
280
1
  9
$TILEMODELIGHTSYNCH
280
1
  9
$CMATERIAL
347
20
  9
$SOLIDHIST
280
0
  9
$SHOWHIST
280
1
  9
$DWFFRAME
280
2
  9
$DGNFRAME
280
2
  9
$REALWORLDSCALE
290
1
  9
$INTERFERECOLOR
 62
256
  9
$CSHADOW
280
0
  9
$SHADOWPLANELOCATION
 40
0.0
  0
ENDSEC
  0
SECTION
  2
CLASSES
  0
CLASS
  1
ACDBDICTIONARYWDFLT
  2
AcDbDictionaryWithDefault
  3
ObjectDBX Classes
 90
0
 91
0
280
0
281
0
  0
CLASS
  1
SUN
  2
AcDbSun
  3
SCENEOE
 90
1153
 91
0
280
0
281
0
  0
CLASS
  1
VISUALSTYLE
  2
AcDbVisualStyle
  3
ObjectDBX Classes
 90
4095
 91
0
280
0
281
0
  0
CLASS
  1
MATERIAL
  2
AcDbMaterial
  3
ObjectDBX Classes
 90
1153
 91
0
280
0
281
0
  0
CLASS
  1
SCALE
  2
AcDbScale
  3
ObjectDBX Classes
 90
1153
 91
0
280
0
281
0
  0
CLASS
  1
TABLESTYLE
  2
AcDbTableStyle
  3
ObjectDBX Classes
 90
4095
 91
0
280
0
281
0
  0
CLASS
  1
MLEADERSTYLE
  2
AcDbMLeaderStyle
  3
ACDB_MLEADERSTYLE_CLASS
 90
4095
 91
0
280
0
281
0
  0
CLASS
  1
DICTIONARYVAR
  2
AcDbDictionaryVar
  3
ObjectDBX Classes
 90
0
 91
0
280
0
281
0
  0
CLASS
  1
CELLSTYLEMAP
  2
AcDbCellStyleMap
  3
ObjectDBX Classes
 90
1152
 91
0
280
0
281
0
  0
CLASS
  1
MENTALRAYRENDERSETTINGS
  2
AcDbMentalRayRenderSettings
  3
SCENEOE
 90
1024
 91
0
280
0
281
0
  0
CLASS
  1
ACDBDETAILVIEWSTYLE
  2
AcDbDetailViewStyle
  3
ObjectDBX Classes
 90
1025
 91
0
280
0
281
0
  0
CLASS
  1
ACDBSECTIONVIEWSTYLE
  2
AcDbSectionViewStyle
  3
ObjectDBX Classes
 90
1025
 91
0
280
0
281
0
  0
CLASS
  1
RASTERVARIABLES
  2
AcDbRasterVariables
  3
ISM
 90
0
 91
0
280
0
281
0
  0
CLASS
  1
ACDBPLACEHOLDER
  2
AcDbPlaceHolder
  3
ObjectDBX Classes
 90
0
 91
0
280
0
281
0
  0
CLASS
  1
LAYOUT
  2
AcDbLayout
  3
ObjectDBX Classes
 90
0
 91
0
280
0
281
0
  0
ENDSEC
  0
SECTION
  2
TABLES
  0
TABLE
  2
VPORT
  5
8
330
0
100
AcDbSymbolTable
 70
1
  0
VPORT
  5
23
330
8
100
AcDbSymbolTableRecord
100
AcDbViewportTableRecord
  2
*Active
 70
0
 10
0.0
 20
0.0
 11
1.0
 21
1.0
 12
0.0
 22
0.0
 13
0.0
 23
0.0
 14
0.5
 24
0.5
 15
0.5
 25
0.5
 16
0.0
 26
0.0
 36
1.0
 17
0.0
 27
0.0
 37
0.0
 40
1000.0
 41
1.34
 42
50.0
 43
0.0
 44
0.0
 50
0.0
 51
0.0
 71
0
 72
1000
 73
1
 74
3
 75
0
 76
0
 77
0
 78
0
281
0
 65
0
146
0.0
  0
ENDTAB
  0
TABLE
  2
LTYPE
  5
2
330
0
100
AcDbSymbolTable
 70
3
  0
LTYPE
  5
24
330
2
100
AcDbSymbolTableRecord
100
AcDbLinetypeTableRecord
  2
ByBlock
 70
0
  3

 72
65
 73
0
 40
0.0
  0
LTYPE
  5
25
330
2
100
AcDbSymbolTableRecord
100
AcDbLinetypeTableRecord
  2
ByLayer
 70
0
  3

 72
65
 73
0
 40
0.0
  0
LTYPE
  5
26
330
2
100
AcDbSymbolTableRecord
100
AcDbLinetypeTableRecord
  2
Continuous
 70
0
  3

 72
65
 73
0
 40
0.0
  0
ENDTAB
  0
TABLE
  2
LAYER
  5
1
330
0
100
AcDbSymbolTable
 70
2
  0
LAYER
  5
27
330
1
100
AcDbSymbolTableRecord
100
AcDbLayerTableRecord
  2
0
 70
0
 62
7
  6
Continuous
370
-3
390
13
347
21
  0
LAYER
  5
28
330
1
100
AcDbSymbolTableRecord
100
AcDbLayerTableRecord
  2
Defpoints
 70
0
 62
7
  6
Continuous
290
0
370
-3
390
13
347
21
  0
ENDTAB
  0
TABLE
  2
STYLE
  5
5
330
0
100
AcDbSymbolTable
 70
1
  0
STYLE
  5
29
330
5
100
AcDbSymbolTableRecord
100
AcDbTextStyleTableRecord
  2
Standard
 70
0
 40
0.0
 41
1.0
 50
0.0
 71
0
 42
2.5
  3
txt
  4

  0
ENDTAB
  0
TABLE
  2
VIEW
  5
7
330
0
100
AcDbSymbolTable
 70
0
  0
ENDTAB
  0
TABLE
  2
UCS
  5
6
330
0
100
AcDbSymbolTable
 70
0
  0
ENDTAB
  0
TABLE
  2
APPID
  5
3
330
0
100
AcDbSymbolTable
 70
3
  0
APPID
  5
2A
330
3
100
AcDbSymbolTableRecord
100
AcDbRegAppTableRecord
  2
ACAD
 70
0
  0
APPID
  5
353
330
3
100
AcDbSymbolTableRecord
100
AcDbRegAppTableRecord
  2
HATCHBACKGROUNDCOLOR
 70
0
  0
APPID
  5
354
330
3
100
AcDbSymbolTableRecord
100
AcDbRegAppTableRecord
  2
EZDXF
 70
0
  0
ENDTAB
  0
TABLE
  2
DIMSTYLE
  5
4
330
0
100
AcDbSymbolTable
 70
1
100
AcDbDimStyleTable
  0
DIMSTYLE
105
2B
330
4
100
AcDbSymbolTableRecord
100
AcDbDimStyleTableRecord
  2
Standard
 70
0
 40
1.0
 41
2.5
 42
0.625
 43
3.75
 44
1.25
 45
0.0
 46
0.0
 47
0.0
 48
0.0
 49
2.5
140
2.5
141
2.5
142
0.0
143
0.03937007874
144
1.0
145
0.0
146
1.0
147
0.625
148
0.0
 69
0
 70
0
 71
0
 72
0
 73
0
 74
0
 75
0
 76
0
 77
1
 78
8
 79
3
170
0
171
3
172
1
173
0
174
0
175
0
176
0
177
0
178
0
179
2
271
2
272
2
273
2
274
3
275
0
276
0
277
2
278
44
279
0
280
0
281
0
282
0
283
0
284
8
285
0
286
0
288
0
289
3
290
0
371
-2
372
-2
  0
ENDTAB
  0
TABLE
  2
BLOCK_RECORD
  5
9
330
0
100
AcDbSymbolTable
 70
2
  0
BLOCK_RECORD
  5
17
330
9
100
AcDbSymbolTableRecord
100
AcDbBlockTableRecord
  2
*Model_Space
340
1A
 70
0
280
1
281
0
  0
BLOCK_RECORD
  5
1B
330
9
100
AcDbSymbolTableRecord
100
AcDbBlockTableRecord
  2
*Paper_Space
340
1E
 70
0
280
1
281
0
  0
ENDTAB
  0
ENDSEC
  0
SECTION
  2
BLOCKS
  0
BLOCK
  5
18
330
17
100
AcDbEntity
  8
0
100
AcDbBlockBegin
  2
*Model_Space
 70
0
 10
0.0
 20
0.0
 30
0.0
  3
*Model_Space
  1

  0
ENDBLK
  5
19
330
17
100
AcDbEntity
  8
0
100
AcDbBlockEnd
  0
BLOCK
  5
1C
330
1B
100
AcDbEntity
  8
0
100
AcDbBlockBegin
  2
*Paper_Space
 70
0
 10
0.0
 20
0.0
 30
0.0
  3
*Paper_Space
  1

  0
ENDBLK
  5
1D
330
1B
100
AcDbEntity
  8
0
100
AcDbBlockEnd
  0
ENDSEC
  0
SECTION
  2
ENTITIES
  0
LINE
  5
2F
330
17
100
AcDbEntity
  8
0
100
AcDbLine
 10
17370.090310420273
 20
-1581.910477323237
 30
0.0
 11
17370.090309579267
 21
-1582.6604773232352
 31
0.0
  0
LINE
  5
30
330
17
100
AcDbEntity
  8
0
100
AcDbLine
 10
17372.090310420783
 20
-1581.9104795659237
 30
0.0
 11
17372.090309579777
 21
-1582.6604795659237
 31
0.0
  0
LINE
  5
31
330
17
100
AcDbEntity
  8
0
100
AcDbLine
 10
17397.373239802353
 20
-1581.9104389143158
 30
0.0
 11
17397.37324064336
 21
-1582.660438914314
 31
0.0
  0
LINE
  5
32
330
17
100
AcDbEntity
  8
0
100
AcDbLine
 10
17395.373239801844
 20
-1581.9104411570024
 30
0.0
 11
17395.37324064285
 21
-1582.6604411570024
 31
0.0
  0
ARC
  5
33
330
17
100
AcDbEntity
  8
0
100
AcDbCircle
 10
17308.430444306698
 20
-1582.7958193154427
 30
2.1776215042060394
 40
2.0668911301654735
100
AcDbArc
 50
176.24454255400548
 51
254.28413503444847
  0
ARC
  5
34
330
17
100
AcDbEntity
  8
0
100
AcDbCircle
 10
17309.306846716205
 20
-1598.9104470131515
 30
2.1776215042060394
 40
0.24999999999999997
100
AcDbArc
 50
359.99993575280354
 51
89.99993575186559
  0
ARC
  5
35
330
17
100
AcDbEntity
  8
0
100
AcDbCircle
 10
17309.306847276875
 20
-1598.4104470131515
 30
2.1776215042060394
 40
0.24999999999999997
100
AcDbArc
 50
116.01304605069757
 51
269.99993575186556
  0
LINE
  5
36
330
17
100
AcDbEntity
  8
0
100
AcDbLine
 10
17307.745573594355
 20
-1599.9104452624288
 30
0.0
 11
17307.745574715696
 21
-1598.9104452624288
 31
0.0
  0
LINE
  5
37
330
17
100
AcDbEntity
  8
0
100
AcDbLine
 10
17307.74558817183
 20
-1586.9104432624372
 30
0.0
 11
17307.745575837038
 21
-1597.9104452624288
 31
0.0
  0
LINE
  5
38
330
17
100
AcDbEntity
  8
0
100
AcDbLine
 10
17307.19720332944
 20
-1598.185771218612
 30
0.0
 11
17307.745575837038
 21
-1597.9104452624288
 31
0.0
  0
LINE
  5
39
330
17
100
AcDbEntity
  8
0
100
AcDbLine
 10
17307.24558817183
 20
-1586.9104427017646
 30
0.0
 11
17307.74558817183
 21
-1586.9104432624372
 31
0.0
  0
LINE
  5
3A
330
17
100
AcDbEntity
  8
0
100
AcDbLine
 10
17305.870590554685
 20
-1584.7854411599183
 30
0.0
 11
17305.870589994014
 21
-1585.2854411599183
 31
0.0
  0
ARC
  5
3B
330
17
100
AcDbEntity
  8
0
100
AcDbCircle
 10
17306.430444306196
 20
-1582.7958170727543
 30
2.1776215041997835
 40
2.0668911301654735
100
AcDbArc
 50
176.24454255400548
 51
254.28413503444847
  0
LINE
  5
3C
330
17
100
AcDbEntity
  8
0
100
AcDbLine
 10
17303.86799227502
 20
-1581.9104389143158
 30
0.0
 11
17303.867991434014
 21
-1582.660438914314
 31
0.0
  0
ARC
  5
3D
330
17
100
AcDbEntity
  8
0
100
AcDbCircle
 10
17307.306846715695
 20
-1598.910444770463
 30
2.1776215041997835
 40
0.24999999999999997
100
AcDbArc
 50
359.99993575280354
 51
89.99993575186559
  0
ARC
  5
3E
330
17
100
AcDbEntity
  8
0
100
AcDbCircle
 10
17307.306847276366
 20
-1598.410444770463
 30
2.1776215041997835
 40
0.24999999999999997
100
AcDbArc
 50
116.01304605069757
 51
269.99993575186556
  0
LINE
  5
3F
330
17
100
AcDbEntity
  8
0
100
AcDbLine
 10
17309.745573594864
 20
-1599.9104475051154
 30
0.0
 11
17309.745574716206
 21
-1598.9104475051172
 31
0.0
  0
LINE
  5
40
330
17
100
AcDbEntity
  8
0
100
AcDbLine
 10
17309.74558817234
 20
-1586.9104455051256
 30
0.0
 11
17309.745575837547
 21
-1597.9104475051172
 31
0.0
  0
LINE
  5
41
330
17
100
AcDbEntity
  8
0
100
AcDbLine
 10
17309.19720332995
 20
-1598.1857734612986
 30
0.0
 11
17309.745575837547
 21
-1597.9104475051172
 31
0.0
  0
LINE
  5
42
330
17
100
AcDbEntity
  8
0
100
AcDbLine
 10
17309.24558817234
 20
-1586.910444944453
 30
0.0
 11
17309.74558817234
 21
-1586.9104455051256
 31
0.0
  0
LINE
  5
43
330
17
100
AcDbEntity
  8
0
100
AcDbLine
 10
17307.870590555194
 20
-1584.7854434026067
 30
0.0
 11
17307.870589994523
 21
-1585.2854434026067
 31
0.0
  0
LINE
  5
44
330
17
100
AcDbEntity
  8
0
100
AcDbLine
 10
17305.86799227553
 20
-1581.9104411570024
 30
0.0
 11
17305.867991434523
 21
-1582.6604411570024
 31
0.0
  0
ARC
  5
45
330
17
100
AcDbEntity
  8
0
100
AcDbCircle
 10
17296.246401391854
 20
-1582.6604262244218
 30
0.340303176557029
 40
2.1249999999999996
100
AcDbArc
 50
179.99993575165715
 51
269.999966751603
  0
ARC
  5
46
330
17
100
AcDbEntity
  8
0
100
AcDbCircle
 10
17298.68265517001
 20
-1598.91043095631
 30
0.340303176557029
 40
0.24999999999999997
100
AcDbArc
 50
359.99993575280354
 51
89.99993575186559
  0
ARC
  5
47
330
17
100
AcDbEntity
  8
0
100
AcDbCircle
 10
17298.68265573068
 20
-1598.41043095631
 30
0.340303176557029
 40
0.24999999999999997
100
AcDbArc
 50
116.01304605069757
 51
269.99993575186556
  0
LINE
  5
48
330
17
100
AcDbEntity
  8
0
100
AcDbLine
 10
17299.121382048663
 20
-1599.9104314482738
 30
0.0
 11
17299.12138317001
 21
-1598.9104314482756
 31
0.0
  0
LINE
  5
49
330
17
100
AcDbEntity
  8
0
100
AcDbLine
 10
17299.12139662614
 20
-1586.910429448284
 30
0.0
 11
17299.121384291353
 21
-1597.9104314482756
 31
0.0
  0
LINE
  5
4A
330
17
100
AcDbEntity
  8
0
100
AcDbLine
 10
17298.573011783756
 20
-1598.185757404457
 30
0.0
 11
17299.121384291353
 21
-1597.9104314482756
 31
0.0
  0
LINE
  5
4B
330
17
100
AcDbEntity
  8
0
100
AcDbLine
 10
17298.12139662614
 20
-1586.910428326939
 30
0.0
 11
17299.12139662614
 21
-1586.910429448284
 31
0.0
  0
LINE
  5
4C
330
17
100
AcDbEntity
  8
0
100
AcDbLine
 10
17296.246399008993
 20
-1584.78542622442
 30
0.0
 11
17296.246398448322
 21
-1585.28542622442
 31
0.0
  0
LINE
  5
4D
330
17
100
AcDbEntity
  8
0
100
AcDbLine
 10
17293.12140223286
 20
-1581.9104227202224
 30
0.0
 11
17293.121401391854
 21
-1582.6604227202224
 31
0.0
  0
LINE
  5
4E
330
17
100
AcDbEntity
  8
0
100
AcDbLine
 10
17299.871228210624
 20
-1741.9104739654867
 30
0.0
 11
17299.871340345035
 21
-1641.9104739784507
 31
0.0
  0
LINE
  5
4F
330
17
100
AcDbEntity
  8
0
100
AcDbLine
 10
17299.871342587718
 20
-1639.9104739784543
 30
0.0
 11
17299.871387441486
 21
-1599.9104759762595
 31
0.0
  0
LINE
  5
50
330
17
100
AcDbEntity
  8
0
100
AcDbLine
 10
17307.745529619202
 20
-1640.91048280625
 30
0.0
 11
17307.5567996192
 21
-1640.9104825946179
 31
0.0
  0
LINE
  5
51
330
17
100
AcDbEntity
  8
0
100
AcDbLine
 10
17307.74552649786
 20
-1641.9104828062464
 30
0.0
 11
17307.7455276192
 21
-1640.9104828062464
 31
0.0
  0
LINE
  5
52
330
17
100
AcDbEntity
  8
0
100
AcDbLine
 10
17307.197156232945
 20
-1640.1858087624296
 30
0.0
 11
17307.745528740543
 21
-1639.9104828062482
 31
0.0
  0
ARC
  5
53
330
17
100
AcDbEntity
  8
0
100
AcDbCircle
 10
17307.3067996192
 20
-1640.9104823142825
 30
-0.3403031765680179
 40
0.24999999999999997
100
AcDbArc
 50
359.99993575280354
 51
89.99993575186559
  0
ARC
  5
54
330
17
100
AcDbEntity
  8
0
100
AcDbCircle
 10
17309.3067996192
 20
-1640.910484556971
 30
-0.3403031765680179
 40
0.24999999999999997
100
AcDbArc
 50
359.99993575280354
 51
89.99993575186559
  0
LINE
  5
55
330
17
100
AcDbEntity
  8
0
100
AcDbLine
 10
17308.495528740543
 20
-1639.9104836472561
 30
0.0
 11
17308.49557359431
 21
-1599.9104836343613
 31
0.0
  0
LINE
  5
56
330
17
100
AcDbEntity
  8
0
100
AcDbLine
 10
17310.495528740543
 20
-1639.9104858899445
 30
0.0
 11
17310.495573594464
 21
-1599.9104858772534
 31
0.0
  0
LINE
  5
57
330
17
100
AcDbEntity
  8
0
100
AcDbLine
 10
17309.197156232945
 20
-1640.185811005118
 30
0.0
 11
17309.745528740543
 21
-1639.9104850489366
 31
0.0
  0
LINE
  5
58
330
17
100
AcDbEntity
  8
0
100
AcDbLine
 10
17299.121343466384
 20
-1640.9104731355692
 30
0.0
 11
17298.932613466382
 21
-1640.9104729239389
 31
0.0
  0
LINE
  5
59
330
17
100
AcDbEntity
  8
0
100
AcDbLine
 10
17299.121340345035
 20
-1641.9104731355656
 30
0.0
 11
17299.121341466383
 21
-1640.9104731355674
 31
0.0
  0
LINE
  5
5A
330
17
100
AcDbEntity
  8
0
100
AcDbLine
 10
17298.572970080128
 20
-1640.1857990917506
 30
0.0
 11
17299.121342587725
 21
-1639.9104731355674
 31
0.0
  0
ARC
  5
5B
330
17
100
AcDbEntity
  8
0
100
AcDbCircle
 10
17298.682613466382
 20
-1640.9104726436017
 30
0.7485075755405345
 40
0.24999999999999997
100
AcDbArc
 50
359.99993575280354
 51
89.99993575186559
  0
ARC
  5
5C
330
17
100
AcDbEntity
  8
0
100
AcDbCircle
 10
17298.682614027053
 20
-1640.4104726436017
 30
0.7485075755405345
 40
0.24999999999999997
100
AcDbArc
 50
116.01304605069757
 51
269.99993575186556
  0
LINE
  5
5D
330
17
100
AcDbEntity
  8
0
100
AcDbLine
 10
17308.49730819951
 20
-1641.9104836512597
 30
0.0
 11
17308.49719606509
 21
-1741.9104856382237
 31
0.0
  0
ARC
  5
5E
330
17
100
AcDbEntity
  8
0
100
AcDbCircle
 10
17307.30858188146
 20
-1640.4104843162786
 30
-0.3403031765680179
 40
0.24999999999999997
100
AcDbArc
 50
116.01304605069757
 51
269.99993575186556
  0
ARC
  5
5F
330
17
100
AcDbEntity
  8
0
100
AcDbCircle
 10
17309.30858188146
 20
-1640.410486558967
 30
-0.3403031765680179
 40
0.24999999999999997
100
AcDbArc
 50
116.01304605069757
 51
269.99993575186556
  0
LINE
  5
60
330
17
100
AcDbEntity
  8
0
100
AcDbLine
 10
17309.747311320793
 20
-1640.9104870509327
 30
0.0
 11
17309.55858132079
 21
-1640.9104868393024
 31
0.0
  0
LINE
  5
61
330
17
100
AcDbEntity
  8
0
100
AcDbLine
 10
17309.747308199443
 20
-1641.910487050931
 30
0.0
 11
17309.747309320792
 21
-1640.910487050931
 31
0.0
  0
LINE
  5
62
330
17
100
AcDbEntity
  8
0
100
AcDbLine
 10
17309.74730819945
 20
-1641.910485050932
 30
0.0
 11
17310.49730819945
 21
-1641.91048589194
 31
0.0
  0
LINE
  5
63
330
17
100
AcDbEntity
  8
0
100
AcDbLine
 10
17299.86868694798
 20
-1764.4107060890722
 30
0.0
 11
17299.86870432881
 21
-1748.9107060890703
 31
0.0
  0
LINE
  5
64
330
17
100
AcDbEntity
  8
0
100
AcDbLine
 10
17298.830449902685
 20
-1746.910704924828
 30
0.0
 11
17298.830447659995
 21
-1748.9107049248262
 31
0.0
  0
LINE
  5
65
330
17
100
AcDbEntity
  8
0
100
AcDbLine
 10
17440.350393034496
 20
-1746.9077920035559
 30
-24.501591741473234
 11
17298.830449903344
 21
-1746.9101176389615
 31
0.0
  0
LINE
  5
66
330
17
100
AcDbEntity
  8
0
100
AcDbLine
 10
17440.350393034496
 20
-1748.9077907465683
 30
-24.501591741473234
 11
17299.86870433226
 21
-1748.9076332182938
 31
-4.547473508864641e-13
  0
LINE
  5
67
330
17
100
AcDbEntity
  8
0
100
AcDbLine
 10
17440.350393034496
 20
-1764.4077903941186
 30
-24.501591741473234
 11
17300.868686947982
 21
-1764.4107072104246
 31
0.0
  0
LINE
  5
68
330
17
100
AcDbEntity
  8
0
100
AcDbLine
 10
17481.1424686828
 20
-1640.6610432179646
 30
-23.842241385810958
 11
17374.718608237265
 21
-1640.661355877967
 31
0.0
  0
LINE
  5
69
330
17
100
AcDbEntity
  8
0
100
AcDbLine
 10
17326.52262384011
 20
-1640.6613558779718
 30
0.0
 11
17298.703609587046
 21
-1640.6613558779736
 31
0.0
  0
LINE
  5
6A
330
17
100
AcDbEntity
  8
0
100
AcDbLine
 10
17480.992469212346
 20
-1640.9110490221697
 30
-23.786243734705685
 11
17374.718608237265
 21
-1640.9113558779725
 31
0.0
  0
LINE
  5
6B
330
17
100
AcDbEntity
  8
0
100
AcDbLine
 10
17326.52262384011
 20
-1640.9113558779677
 30
0.0
 11
17299.12134146539
 21
-1640.911355877966
 31
0.0
  0
LINE
  5
6C
330
17
100
AcDbEntity
  8
0
100
AcDbLine
 10
17480.393032344164
 20
-1641.9101371912711
 30
-23.562462567328257
 11
17374.718608237265
 21
-1641.910382529082
 31
0.0
  0
LINE
  5
6D
330
17
100
AcDbEntity
  8
0
100
AcDbLine
 10
17326.52262384011
 20
-1641.91032848475
 30
0.0
 11
17299.121340345224
 21
-1641.91030869082
 31
0.0
  0
LINE
  5
6E
330
17
100
AcDbEntity
  8
0
100
AcDbLine
 10
17480.76981180307
 20
-1639.9101367687717
 30
-23.562462567328257
 11
17374.718608237265
 21
-1639.9105095425073
 31
0.0
  0
LINE
  5
6F
330
17
100
AcDbEntity
  8
0
100
AcDbLine
 10
17326.52262384011
 20
-1639.9105095425025
 30
0.0
 11
17299.12127007527
 21
-1639.910509542501
 31
0.0
  0
LINE
  5
70
330
17
100
AcDbEntity
  8
0
100
AcDbLine
 10
17444.37027745997
 20
-1584.7835540116364
 30
-28.54919270332589
 11
17296.24639900759
 21
-1584.7866845035908
 31
0.0
  0
LINE
  5
71
330
17
100
AcDbEntity
  8
0
100
AcDbLine
 10
17444.37027745997
 20
-1585.2835538897243
 30
-28.550366849192592
 11
17296.28277151674
 21
-1585.2866844628193
 31
0.0
  0
LINE
  5
72
330
17
100
AcDbEntity
  8
0
100
AcDbLine
 10
17444.37027745997
 20
-1586.9085633849402
 30
-28.6429191252626
 11
17299.12139662467
 21
-1586.9117417519537
 31
0.0
  0
LINE
  5
73
330
17
100
AcDbEntity
  8
0
100
AcDbLine
 10
17299.12138316856
 20
-1598.9117289299145
 30
0.0
 11
17444.37027745997
 21
-1598.9084092950445
 31
-30.085959325189382
  0
LINE
  5
74
330
17
100
AcDbEntity
  8
0
100
AcDbLine
 10
17444.37027745997
 20
-1599.9083803683845
 30
-30.343027464939198
 11
17299.121382047215
 21
-1599.9117253771344
 31
0.0
  0
LINE
  5
75
330
17
100
AcDbEntity
  8
0
100
AcDbLine
 10
17444.37027745997
 20
-1582.6585670099973
 30
-28.482579807931362
 11
17294.12140139122
 21
-1582.6617118478368
 31
0.0
  0
LINE
  5
76
330
17
100
AcDbEntity
  8
0
100
AcDbLine
 10
17298.686225892106
 20
-1598.6616857801
 30
0.0
 11
17444.37027745997
 21
-1598.6584071542459
 31
-30.002174368167548
  0
LINE
  5
77
330
17
100
AcDbEntity
  8
0
100
AcDbLine
 10
17299.121335449872
 20
-1597.911685292191
 30
0.0
 11
17444.37027745997
 21
-1597.9084246992795
 31
-29.83320339327416
  0
LINE
  5
78
330
17
100
AcDbEntity
  8
0
100
AcDbLine
 10
17608.87339953909
 20
-1577.6604196975895
 30
0.0
 11
17279.867243656783
 21
-1577.6604196975895
 31
-1.887379141862766e-15
  0
LINE
  5
79
330
17
100
AcDbEntity
  8
0
100
AcDbLine
 10
17440.350583826672
 20
-1576.9080264656448
 30
-24.501591741473238
 11
17283.871401391854
 21
-1576.9104196975895
 31
-1.887379141862766e-15
  0
LINE
  5
7A
330
17
100
AcDbEntity
  8
0
100
AcDbLine
 10
17440.350583826672
 20
-1581.0431639493472
 30
-24.501591741473238
 11
17283.871401391854
 21
-1581.0455571813254
 31
-1.887379141862766e-15
  0
ARC
  5
7B
330
17
100
AcDbEntity
  8
0
100
AcDbCircle
 10
17335.55726816439
 20
-1487.1572771055735
 30
-0.34030317655698217
 40
0.5
100
AcDbArc
 50
1.1464245738241618e-09
 51
90.0
  0
ARC
  5
7C
330
17
100
AcDbEntity
  8
0
100
AcDbCircle
 10
17335.55726816439
 20
-1486.1572771055735
 30
-0.34030317655698217
 40
0.5
100
AcDbArc
 50
116.01311029877637
 51
270.0
  0
LINE
  5
7D
330
17
100
AcDbEntity
  8
0
100
AcDbLine
 10
17336.434728164393
 20
-1487.1572771055735
 30
0.0
 11
17336.05726816439
 21
-1487.1572771055735
 31
0.0
  0
LINE
  5
7E
330
17
100
AcDbEntity
  8
0
100
AcDbLine
 10
17336.43472416439
 20
-1489.1572771055735
 30
0.0
 11
17336.43472416439
 21
-1487.1572771055735
 31
0.0
  0
LINE
  5
7F
330
17
100
AcDbEntity
  8
0
100
AcDbLine
 10
17336.43472416439
 20
-1489.157273105574
 30
0.0
 11
17337.18472416439
 21
-1489.1572771055735
 31
0.0
  0
LINE
  5
80
330
17
100
AcDbEntity
  8
0
100
AcDbLine
 10
17335.337979766664
 20
-1485.707930247766
 30
0.0
 11
17336.43472416439
 21
-1485.1572771055735
 31
0.0
  0
LINE
  5
81
330
17
100
AcDbEntity
  8
0
100
AcDbLine
 10
17336.43472416439
 20
-1487.1572771055735
 30
0.0
 11
17444.370321597937
 21
-1487.1550979993108
 31
6.109373642910903
  0
LINE
  5
82
330
17
100
AcDbEntity
  8
0
100
AcDbLine
 10
17336.434728164393
 20
-1485.1572771055717
 30
0.0
 11
17444.370321597937
 21
-1485.1550979993547
 31
6.109373642910903
  0
LINE
  5
83
330
17
100
AcDbEntity
  8
0
100
AcDbLine
 10
17335.55726816439
 20
-1486.6572771055735
 30
0.0
 11
17444.370321597937
 21
-1486.655099215594
 31
6.109373642910903
  0
LINE
  5
84
330
17
100
AcDbEntity
  8
0
100
AcDbLine
 10
17337.18472416439
 20
-1489.1572771055735
 30
0.0
 11
17444.370321597937
 21
-1489.15508175811
 31
6.109373642910903
  0
LINE
  5
85
330
17
100
AcDbEntity
  8
0
100
AcDbLine
 10
17293.121401391854
 20
-1582.6604227202224
 30
0.0
 11
17294.121401391854
 21
-1582.6604227202224
 31
0.0
  0
LINE
  5
86
330
17
100
AcDbEntity
  8
0
100
AcDbLine
 10
17293.121401391854
 20
-1581.9104227202224
 30
0.0
 11
17293.121401391854
 21
-1582.6604227202224
 31
0.0
  0
LINE
  5
87
330
17
100
AcDbEntity
  8
0
100
AcDbLine
 10
17350.620616038686
 20
-1624.411616077439
 30
0.0
 11
17350.620588283735
 21
-1739.4107726682903
 31
0.0
  0
LINE
  5
88
330
17
100
AcDbEntity
  8
0
100
AcDbLine
 10
17366.120616038686
 20
-1656.411616071451
 30
0.0
 11
17335.120616038686
 21
-1656.411616071451
 31
0.0
  0
LINE
  5
89
330
17
100
AcDbEntity
  8
0
100
AcDbLine
 10
17366.120616038686
 20
-1640.411616071451
 30
0.0
 11
17335.120616038686
 21
-1640.411616071451
 31
0.0
  0
LINE
  5
8A
330
17
100
AcDbEntity
  8
0
100
AcDbLine
 10
17366.120616038686
 20
-1688.411616071451
 30
0.0
 11
17335.120616038686
 21
-1688.411616071451
 31
0.0
  0
LINE
  5
8B
330
17
100
AcDbEntity
  8
0
100
AcDbLine
 10
17366.120616038686
 20
-1672.411616071451
 30
0.0
 11
17335.120616038686
 21
-1672.411616071451
 31
0.0
  0
LINE
  5
8C
330
17
100
AcDbEntity
  8
0
100
AcDbLine
 10
17366.120616038686
 20
-1704.411616071451
 30
0.0
 11
17335.120616038686
 21
-1704.411616071451
 31
0.0
  0
LINE
  5
8D
330
17
100
AcDbEntity
  8
0
100
AcDbLine
 10
17366.120616038686
 20
-1720.411616071451
 30
0.0
 11
17335.120616038686
 21
-1720.411616071451
 31
0.0
  0
ARC
  5
8E
330
17
100
AcDbEntity
  8
0
100
AcDbCircle
 10
17580.309451292454
 20
-1582.7958193154427
 30
2.1776215042060394
 40
2.0668911301654735
100
AcDbArc
 50
285.7158649655514
 51
3.755457445981668
  0
ARC
  5
8F
330
17
100
AcDbEntity
  8
0
100
AcDbCircle
 10
17582.309451292957
 20
-1582.7958170727543
 30
2.1776215041997835
 40
2.0668911301654735
100
AcDbArc
 50
285.7158649655514
 51
3.755457445981668
  0
ARC
  5
90
330
17
100
AcDbEntity
  8
0
100
AcDbCircle
 10
17581.433048322786
 20
-1598.410444770463
 30
2.1776215041997835
 40
0.24999999999999997
100
AcDbArc
 50
270.00006424813444
 51
63.98695394930243
  0
LINE
  5
91
330
17
100
AcDbEntity
  8
0
100
AcDbLine
 10
17578.994322004288
 20
-1599.9104475051154
 30
0.0
 11
17578.994320882946
 21
-1598.9104475051172
 31
0.0
  0
LINE
  5
92
330
17
100
AcDbEntity
  8
0
100
AcDbLine
 10
17578.994307426812
 20
-1586.9104455051256
 30
0.0
 11
17578.994319761605
 21
-1597.9104475051172
 31
0.0
  0
LINE
  5
93
330
17
100
AcDbEntity
  8
0
100
AcDbLine
 10
17579.542692269202
 20
-1598.1857734612986
 30
0.0
 11
17578.994319761605
 21
-1597.9104475051172
 31
0.0
  0
LINE
  5
94
330
17
100
AcDbEntity
  8
0
100
AcDbLine
 10
17579.494307426812
 20
-1586.910444944453
 30
0.0
 11
17578.994307426812
 21
-1586.9104455051256
 31
0.0
  0
LINE
  5
95
330
17
100
AcDbEntity
  8
0
100
AcDbLine
 10
17580.869305043958
 20
-1584.7854434026067
 30
0.0
 11
17580.86930560463
 21
-1585.2854434026067
 31
0.0
  0
ARC
  5
96
330
17
100
AcDbEntity
  8
0
100
AcDbCircle
 10
17592.493494207298
 20
-1582.6604262244218
 30
0.340303176557029
 40
2.1249999999999996
100
AcDbArc
 50
270.000033248397
 51
6.424834284793034e-05
  0
ARC
  5
97
330
17
100
AcDbEntity
  8
0
100
AcDbCircle
 10
17590.05724042914
 20
-1598.91043095631
 30
0.340303176557029
 40
0.24999999999999997
100
AcDbArc
 50
90.00006424813441
 51
180.0000642471964
  0
ARC
  5
98
330
17
100
AcDbEntity
  8
0
100
AcDbCircle
 10
17590.05723986847
 20
-1598.41043095631
 30
0.340303176557029
 40
0.24999999999999997
100
AcDbArc
 50
270.00006424813444
 51
63.98695394930243
  0
LINE
  5
99
330
17
100
AcDbEntity
  8
0
100
AcDbLine
 10
17589.61851355049
 20
-1599.9104314482738
 30
0.0
 11
17589.61851242914
 21
-1598.9104314482756
 31
0.0
  0
LINE
  5
9A
330
17
100
AcDbEntity
  8
0
100
AcDbLine
 10
17589.618498973014
 20
-1586.910429448284
 30
0.0
 11
17589.6185113078
 21
-1597.9104314482756
 31
0.0
  0
LINE
  5
9B
330
17
100
AcDbEntity
  8
0
100
AcDbLine
 10
17590.166883815396
 20
-1598.185757404457
 30
0.0
 11
17589.6185113078
 21
-1597.9104314482756
 31
0.0
  0
LINE
  5
9C
330
17
100
AcDbEntity
  8
0
100
AcDbLine
 10
17590.618498973014
 20
-1586.910428326939
 30
0.0
 11
17589.618498973014
 21
-1586.910429448284
 31
0.0
  0
LINE
  5
9D
330
17
100
AcDbEntity
  8
0
100
AcDbLine
 10
17592.49349659016
 20
-1584.78542622442
 30
0.0
 11
17592.49349715083
 21
-1585.28542622442
 31
0.0
  0
LINE
  5
9E
330
17
100
AcDbEntity
  8
0
100
AcDbLine
 10
17595.61849336629
 20
-1581.9104227202224
 30
0.0
 11
17595.618494207298
 21
-1582.6604227202224
 31
0.0
  0
LINE
  5
9F
330
17
100
AcDbEntity
  8
0
100
AcDbLine
 10
17588.868667388528
 20
-1741.9104739654867
 30
0.0
 11
17588.868555254117
 21
-1641.9104739784507
 31
0.0
  0
LINE
  5
A0
330
17
100
AcDbEntity
  8
0
100
AcDbLine
 10
17588.868553011434
 20
-1639.9104739784543
 30
0.0
 11
17588.868508157666
 21
-1599.9104759762595
 31
0.0
  0
LINE
  5
A1
330
17
100
AcDbEntity
  8
0
100
AcDbLine
 10
17580.99436597995
 20
-1640.91048280625
 30
0.0
 11
17581.18309597995
 21
-1640.9104825946179
 31
0.0
  0
LINE
  5
A2
330
17
100
AcDbEntity
  8
0
100
AcDbLine
 10
17580.994369101292
 20
-1641.9104828062464
 30
0.0
 11
17580.99436797995
 21
-1640.9104828062464
 31
0.0
  0
ARC
  5
A3
330
17
100
AcDbEntity
  8
0
100
AcDbCircle
 10
17581.43309541928
 20
-1640.4104823142825
 30
-0.3403031765680179
 40
0.24999999999999997
100
AcDbArc
 50
270.00006424813444
 51
63.98695394930243
  0
LINE
  5
A4
330
17
100
AcDbEntity
  8
0
100
AcDbLine
 10
17580.24436685861
 20
-1639.9104836472561
 30
0.0
 11
17580.24432200484
 21
-1599.9104836343613
 31
0.0
  0
LINE
  5
A5
330
17
100
AcDbEntity
  8
0
100
AcDbLine
 10
17578.994369101292
 20
-1641.9104850489348
 30
0.0
 11
17578.99436797995
 21
-1640.9104850489348
 31
0.0
  0
LINE
  5
A6
330
17
100
AcDbEntity
  8
0
100
AcDbLine
 10
17578.994369101292
 20
-1641.910483048936
 30
0.0
 11
17578.244369101292
 21
-1641.9104838899439
 31
0.0
  0
LINE
  5
A7
330
17
100
AcDbEntity
  8
0
100
AcDbLine
 10
17589.618552132768
 20
-1640.9104731355692
 30
0.0
 11
17589.80728213277
 21
-1640.9104729239389
 31
0.0
  0
LINE
  5
A8
330
17
100
AcDbEntity
  8
0
100
AcDbLine
 10
17589.618555254117
 20
-1641.9104731355656
 30
0.0
 11
17589.61855413277
 21
-1640.9104731355674
 31
0.0
  0
LINE
  5
A9
330
17
100
AcDbEntity
  8
0
100
AcDbLine
 10
17590.166925519025
 20
-1640.1857990917506
 30
0.0
 11
17589.618553011427
 21
-1639.9104731355674
 31
0.0
  0
ARC
  5
AA
330
17
100
AcDbEntity
  8
0
100
AcDbCircle
 10
17590.05728213277
 20
-1640.9104726436017
 30
0.7485075755405345
 40
0.24999999999999997
100
AcDbArc
 50
90.00006424813441
 51
180.0000642471964
  0
ARC
  5
AB
330
17
100
AcDbEntity
  8
0
100
AcDbCircle
 10
17590.0572815721
 20
-1640.4104726436017
 30
0.7485075755405345
 40
0.24999999999999997
100
AcDbArc
 50
270.00006424813444
 51
63.98695394930243
  0
LINE
  5
AC
330
17
100
AcDbEntity
  8
0
100
AcDbLine
 10
17579.540957664616
 20
-1640.1858130071141
 30
0.0
 11
17578.99258515702
 21
-1639.9104870509327
 31
0.0
  0
LINE
  5
AD
330
17
100
AcDbEntity
  8
0
100
AcDbLine
 10
17588.871208651173
 20
-1764.4107060890722
 30
0.0
 11
17588.871191270344
 21
-1748.9107060890703
 31
0.0
  0
LINE
  5
AE
330
17
100
AcDbEntity
  8
0
100
AcDbLine
 10
17589.909445696467
 20
-1746.910704924828
 30
0.0
 11
17589.909447939157
 21
-1748.9107049248262
 31
0.0
  0
LINE
  5
AF
330
17
100
AcDbEntity
  8
0
100
AcDbLine
 10
17440.350393034496
 20
-1746.9077920035559
 30
-24.501591741473234
 11
17589.90944569581
 21
-1746.9101176389615
 31
0.0
  0
LINE
  5
B0
330
17
100
AcDbEntity
  8
0
100
AcDbLine
 10
17440.350393034496
 20
-1748.9077907465683
 30
-24.501591741473234
 11
17588.871191266888
 21
-1748.907624203652
 31
4.547473508864641e-13
  0
LINE
  5
B1
330
17
100
AcDbEntity
  8
0
100
AcDbLine
 10
17440.350393034496
 20
-1764.4077903941186
 30
-24.501591741473234
 11
17587.87120865117
 21
-1764.4107072104246
 31
0.0
  0
LINE
  5
B2
330
17
100
AcDbEntity
  8
0
100
AcDbLine
 10
17481.19805675084
 20
-1640.6603562093378
 30
-23.902765743896275
 11
17514.021287361888
 21
-1640.661355877967
 31
0.0
  0
LINE
  5
B3
330
17
100
AcDbEntity
  8
0
100
AcDbLine
 10
17562.217271759044
 20
-1640.6613558779718
 30
0.0
 11
17590.036286012106
 21
-1640.6613558779736
 31
0.0
  0
LINE
  5
B4
330
17
100
AcDbEntity
  8
0
100
AcDbLine
 10
17480.958541249824
 20
-1640.9097329094275
 30
-23.902765743896275
 11
17514.021287361888
 21
-1640.9113558779725
 31
0.0
  0
LINE
  5
B5
330
17
100
AcDbEntity
  8
0
100
AcDbLine
 10
17562.217271759044
 20
-1640.9113558779677
 30
0.0
 11
17589.61855413376
 21
-1640.911355877966
 31
0.0
  0
LINE
  5
B6
330
17
100
AcDbEntity
  8
0
100
AcDbLine
 10
17480.768032343352
 20
-1641.9094082810598
 30
-24.523334048231774
 11
17514.021287361888
 21
-1641.910382529082
 31
0.0
  0
LINE
  5
B7
330
17
100
AcDbEntity
  8
0
100
AcDbLine
 10
17562.217271759044
 20
-1641.91032848475
 30
0.0
 11
17588.868555254117
 21
-1641.9104739784507
 31
0.0
  0
LINE
  5
B8
330
17
100
AcDbEntity
  8
0
100
AcDbLine
 10
17480.76981180307
 20
-1639.9101367687717
 30
-23.562462567328257
 11
17514.021287361888
 21
-1639.9105095425073
 31
0.0
  0
LINE
  5
B9
330
17
100
AcDbEntity
  8
0
100
AcDbLine
 10
17562.217271759044
 20
-1639.9105095425025
 30
0.0
 11
17588.868553011434
 21
-1639.9104739784543
 31
0.0
  0
LINE
  5
BA
330
17
100
AcDbEntity
  8
0
100
AcDbLine
 10
17444.37027745997
 20
-1584.7835645153548
 30
-28.54920061862431
 11
17592.493496591564
 21
-1584.7866845035908
 31
0.0
  0
LINE
  5
BB
330
17
100
AcDbEntity
  8
0
100
AcDbLine
 10
17444.37027745997
 20
-1585.2835643938743
 30
-28.550374772317465
 11
17592.45712408241
 21
-1585.2866844628193
 31
0.0
  0
LINE
  5
BC
330
17
100
AcDbEntity
  8
0
100
AcDbLine
 10
17444.37027745997
 20
-1586.908576515906
 30
-28.642927677250725
 11
17589.618498974483
 21
-1586.9117417519537
 31
0.0
  0
LINE
  5
BD
330
17
100
AcDbEntity
  8
0
100
AcDbLine
 10
17589.618512430592
 20
-1598.9117289299145
 30
0.0
 11
17444.37027745997
 21
-1598.9084225188637
 31
-30.08597838613577
  0
LINE
  5
BE
330
17
100
AcDbEntity
  8
0
100
AcDbLine
 10
17444.37027745997
 20
-1599.9083936170423
 30
-30.343048011456855
 11
17588.868508159067
 21
-1599.9117262181487
 31
0.0
  0
LINE
  5
BF
330
17
100
AcDbEntity
  8
0
100
AcDbLine
 10
17444.37027745997
 20
-1582.6585786282124
 30
-28.482587283297732
 11
17594.61849420793
 21
-1582.6617118478368
 31
0.0
  0
LINE
  5
C0
330
17
100
AcDbEntity
  8
0
100
AcDbLine
 10
17590.053669707046
 20
-1598.6616857801
 30
0.0
 11
17444.37027745997
 21
-1598.6584181914934
 31
-30.002192444650273
  0
LINE
  5
C1
330
17
100
AcDbEntity
  8
0
100
AcDbLine
 10
17589.61856014928
 20
-1597.911685292191
 30
0.0
 11
17444.37027745997
 21
-1597.9084356744536
 31
-29.83322055757483
  0
LINE
  5
C2
330
17
100
AcDbEntity
  8
0
100
AcDbLine
 10
17440.350583826672
 20
-1576.9080264656448
 30
-24.501591741473238
 11
17604.86887579165
 21
-1576.9104196975895
 31
-1.887379141862766e-15
  0
LINE
  5
C3
330
17
100
AcDbEntity
  8
0
100
AcDbLine
 10
17440.350583826672
 20
-1581.0431639493472
 30
-24.501591741473238
 11
17604.86887579165
 21
-1581.0455571813254
 31
-1.887379141862766e-15
  0
ARC
  5
C4
330
17
100
AcDbEntity
  8
0
100
AcDbCircle
 10
17553.183194665427
 20
-1487.1575791951905
 30
-0.34030317655698217
 40
0.5
100
AcDbArc
 50
90.0
 51
179.99999999885358
  0
ARC
  5
C5
330
17
100
AcDbEntity
  8
0
100
AcDbCircle
 10
17553.183194665427
 20
-1486.1575791951905
 30
-0.34030317655698217
 40
0.5
100
AcDbArc
 50
270.0
 51
63.986889701223625
  0
LINE
  5
C6
330
17
100
AcDbEntity
  8
0
100
AcDbLine
 10
17552.305734665424
 20
-1487.1575791951905
 30
0.0
 11
17552.683194665427
 21
-1487.1575791951905
 31
0.0
  0
LINE
  5
C7
330
17
100
AcDbEntity
  8
0
100
AcDbLine
 10
17552.305738665425
 20
-1489.1575791951905
 30
0.0
 11
17552.305738665425
 21
-1487.1575791951905
 31
0.0
  0
LINE
  5
C8
330
17
100
AcDbEntity
  8
0
100
AcDbLine
 10
17552.305738665425
 20
-1489.157575195191
 30
0.0
 11
17551.555738665425
 21
-1489.1575791951905
 31
0.0
  0
LINE
  5
C9
330
17
100
AcDbEntity
  8
0
100
AcDbLine
 10
17553.402483063153
 20
-1485.708232337383
 30
0.0
 11
17552.305738665425
 21
-1485.1575791951905
 31
0.0
  0
LINE
  5
CA
330
17
100
AcDbEntity
  8
0
100
AcDbLine
 10
17552.305738665425
 20
-1487.1575791951905
 30
0.0
 11
17444.370321597937
 21
-1487.1550979993108
 31
6.109373642910903
  0
LINE
  5
CB
330
17
100
AcDbEntity
  8
0
100
AcDbLine
 10
17552.305734665424
 20
-1485.1575791951886
 30
0.0
 11
17444.370321597937
 21
-1485.1550979993547
 31
6.109373642910903
  0
LINE
  5
CC
330
17
100
AcDbEntity
  8
0
100
AcDbLine
 10
17553.183194665427
 20
-1486.6575791951905
 30
0.0
 11
17444.370321597937
 21
-1486.655099215594
 31
6.109373642910903
  0
LINE
  5
CD
330
17
100
AcDbEntity
  8
0
100
AcDbLine
 10
17551.555738665425
 20
-1489.1575791951905
 30
0.0
 11
17444.370321597937
 21
-1489.15508175811
 31
6.109373642910903
  0
LINE
  5
CE
330
17
100
AcDbEntity
  8
0
100
AcDbLine
 10
17538.119279560466
 20
-1624.411616077439
 30
0.0
 11
17538.119307315417
 21
-1739.4107726682903
 31
0.0
  0
LINE
  5
CF
330
17
100
AcDbEntity
  8
0
100
AcDbLine
 10
17522.619279560466
 20
-1656.411616071451
 30
0.0
 11
17553.619279560466
 21
-1656.411616071451
 31
0.0
  0
LINE
  5
D0
330
17
100
AcDbEntity
  8
0
100
AcDbLine
 10
17522.619279560466
 20
-1640.411616071451
 30
0.0
 11
17553.619279560466
 21
-1640.411616071451
 31
0.0
  0
LINE
  5
D1
330
17
100
AcDbEntity
  8
0
100
AcDbLine
 10
17522.619279560466
 20
-1688.411616071451
 30
0.0
 11
17553.619279560466
 21
-1688.411616071451
 31
0.0
  0
LINE
  5
D2
330
17
100
AcDbEntity
  8
0
100
AcDbLine
 10
17522.619279560466
 20
-1672.411616071451
 30
0.0
 11
17553.619279560466
 21
-1672.411616071451
 31
0.0
  0
LINE
  5
D3
330
17
100
AcDbEntity
  8
0
100
AcDbLine
 10
17522.619279560466
 20
-1704.411616071451
 30
0.0
 11
17553.619279560466
 21
-1704.411616071451
 31
0.0
  0
LINE
  5
D4
330
17
100
AcDbEntity
  8
0
100
AcDbLine
 10
17522.619279560466
 20
-1720.411616071451
 30
0.0
 11
17553.619279560466
 21
-1720.411616071451
 31
0.0
  0
LINE
  5
D5
330
17
100
AcDbEntity
  8
0
100
AcDbLine
 10
17480.37030441127
 20
-1741.9090386976368
 30
0.0
 11
17480.018032344164
 21
-1641.910137611775
 31
-23.562462567328257
  0
LINE
  5
D6
330
17
100
AcDbEntity
  8
0
100
AcDbLine
 10
17480.372845673915
 20
-1764.4092708212222
 30
0.0
 11
17480.372828293086
 21
-1748.9092708212204
 31
0.0
  0
LINE
  5
D7
330
17
100
AcDbEntity
  8
0
100
AcDbLine
 10
17481.41108271921
 20
-1746.909269656978
 30
0.0
 11
17481.4110849619
 21
-1748.9092696569762
 31
0.0
  0
LINE
  5
D8
330
17
100
AcDbEntity
  8
0
100
AcDbLine
 10
17408.370192276863
 20
-1741.9090386976368
 30
0.0
 11
17408.01820920298
 21
-1641.910137611775
 31
-23.562462567328257
  0
LINE
  5
D9
330
17
100
AcDbEntity
  8
0
100
AcDbLine
 10
17408.367651014214
 20
-1764.4092708212222
 30
0.0
 11
17408.367668395043
 21
-1748.9092708212204
 31
0.0
  0
LINE
  5
DA
330
17
100
AcDbEntity
  8
0
100
AcDbLine
 10
17407.32941396892
 20
-1746.909269656978
 30
0.0
 11
17407.32941172623
 21
-1748.9092696569762
 31
0.0
  0
LINE
  5
DB
330
17
100
AcDbEntity
  8
0
100
AcDbLine
 10
17326.52262384011
 20
-1615.8136238788545
 30
0.0
 11
17326.52438770841
 21
-1599.9101333541973
 31
0.0
  0
LINE
  5
DC
330
17
100
AcDbEntity
  8
0
100
AcDbLine
 10
17324.52265086059
 20
-1639.910137611777
 30
0.0
 11
17324.52260600667
 21
-1599.9101375990856
 31
0.0
  0
ARC
  5
DD
330
17
100
AcDbEntity
  8
0
100
AcDbCircle
 10
17326.58846962542
 20
-1582.795857724364
 30
2.1776215042060394
 40
2.0668911301654735
100
AcDbArc
 50
285.7158649655514
 51
3.755457445981668
  0
ARC
  5
DE
330
17
100
AcDbEntity
  8
0
100
AcDbCircle
 10
17325.712067215914
 20
-1598.9104854220727
 30
2.1776215042060394
 40
0.24999999999999997
100
AcDbArc
 50
90.00006424813441
 51
180.0000642471964
  0
ARC
  5
DF
330
17
100
AcDbEntity
  8
0
100
AcDbCircle
 10
17325.712066655244
 20
-1598.4104854220727
 30
2.1776215042060394
 40
0.24999999999999997
100
AcDbArc
 50
270.00006424813444
 51
63.98695394930243
  0
LINE
  5
E0
330
17
100
AcDbEntity
  8
0
100
AcDbLine
 10
17327.273340337764
 20
-1599.91048367135
 30
0.0
 11
17327.273339216423
 21
-1598.91048367135
 31
0.0
  0
LINE
  5
E1
330
17
100
AcDbEntity
  8
0
100
AcDbLine
 10
17327.27332576029
 20
-1586.9104816713584
 30
0.0
 11
17327.27333809508
 21
-1597.91048367135
 31
0.0
  0
LINE
  5
E2
330
17
100
AcDbEntity
  8
0
100
AcDbLine
 10
17327.82171060268
 20
-1598.1858096275332
 30
0.0
 11
17327.27333809508
 21
-1597.91048367135
 31
0.0
  0
LINE
  5
E3
330
17
100
AcDbEntity
  8
0
100
AcDbLine
 10
17327.77332576029
 20
-1586.9104811106859
 30
0.0
 11
17327.27332576029
 21
-1586.9104816713584
 31
0.0
  0
LINE
  5
E4
330
17
100
AcDbEntity
  8
0
100
AcDbLine
 10
17329.148323377434
 20
-1584.7854795688395
 30
0.0
 11
17329.148323938105
 21
-1585.2854795688395
 31
0.0
  0
ARC
  5
E5
330
17
100
AcDbEntity
  8
0
100
AcDbCircle
 10
17328.588469625924
 20
-1582.7958554816755
 30
2.1776215041997835
 40
2.0668911301654735
100
AcDbArc
 50
285.7158649655514
 51
3.755457445981668
  0
LINE
  5
E6
330
17
100
AcDbEntity
  8
0
100
AcDbLine
 10
17331.1509216571
 20
-1581.910477323237
 30
0.0
 11
17331.150922498106
 21
-1582.6604773232352
 31
0.0
  0
ARC
  5
E7
330
17
100
AcDbEntity
  8
0
100
AcDbCircle
 10
17327.712067216424
 20
-1598.9104831793843
 30
2.1776215041997835
 40
0.24999999999999997
100
AcDbArc
 50
90.00006424813441
 51
180.0000642471964
  0
ARC
  5
E8
330
17
100
AcDbEntity
  8
0
100
AcDbCircle
 10
17327.712066655753
 20
-1598.4104831793843
 30
2.1776215041997835
 40
0.24999999999999997
100
AcDbArc
 50
270.00006424813444
 51
63.98695394930243
  0
LINE
  5
E9
330
17
100
AcDbEntity
  8
0
100
AcDbLine
 10
17325.273340337255
 20
-1599.9104859140366
 30
0.0
 11
17325.273339215913
 21
-1598.9104859140384
 31
0.0
  0
LINE
  5
EA
330
17
100
AcDbEntity
  8
0
100
AcDbLine
 10
17325.27332575978
 20
-1586.9104839140468
 30
0.0
 11
17325.273338094572
 21
-1597.9104859140384
 31
0.0
  0
LINE
  5
EB
330
17
100
AcDbEntity
  8
0
100
AcDbLine
 10
17325.82171060217
 20
-1598.1858118702198
 30
0.0
 11
17325.273338094572
 21
-1597.9104859140384
 31
0.0
  0
LINE
  5
EC
330
17
100
AcDbEntity
  8
0
100
AcDbLine
 10
17325.77332575978
 20
-1586.9104833533743
 30
0.0
 11
17325.27332575978
 21
-1586.9104839140468
 31
0.0
  0
LINE
  5
ED
330
17
100
AcDbEntity
  8
0
100
AcDbLine
 10
17327.148323376925
 20
-1584.785481811528
 30
0.0
 11
17327.148323937596
 21
-1585.285481811528
 31
0.0
  0
LINE
  5
EE
330
17
100
AcDbEntity
  8
0
100
AcDbLine
 10
17329.15092165659
 20
-1581.9104795659237
 30
0.0
 11
17329.150922497596
 21
-1582.6604795659237
 31
0.0
  0
LINE
  5
EF
330
17
100
AcDbEntity
  8
0
100
AcDbLine
 10
17374.718608237265
 20
-1615.8136238788545
 30
0.0
 11
17374.716844368962
 21
-1599.9101333541973
 31
0.0
  0
LINE
  5
F0
330
17
100
AcDbEntity
  8
0
100
AcDbLine
 10
17376.718581216785
 20
-1639.910137611777
 30
0.0
 11
17376.718626070702
 21
-1599.9101375990856
 31
0.0
  0
ARC
  5
F1
330
17
100
AcDbEntity
  8
0
100
AcDbCircle
 10
17374.65276245195
 20
-1582.795857724364
 30
2.1776215042060394
 40
2.0668911301654735
100
AcDbArc
 50
176.2445425540314
 51
254.28413503444847
  0
ARC
  5
F2
330
17
100
AcDbEntity
  8
0
100
AcDbCircle
 10
17375.52916486146
 20
-1598.9104854220727
 30
2.1776215042060394
 40
0.24999999999999997
100
AcDbArc
 50
359.99993575280354
 51
89.99993575186559
  0
ARC
  5
F3
330
17
100
AcDbEntity
  8
0
100
AcDbCircle
 10
17375.52916542213
 20
-1598.4104854220727
 30
2.1776215042060394
 40
0.24999999999999997
100
AcDbArc
 50
116.01304605069757
 51
269.99993575186556
  0
LINE
  5
F4
330
17
100
AcDbEntity
  8
0
100
AcDbLine
 10
17373.96789173961
 20
-1599.91048367135
 30
0.0
 11
17373.96789286095
 21
-1598.91048367135
 31
0.0
  0
LINE
  5
F5
330
17
100
AcDbEntity
  8
0
100
AcDbLine
 10
17373.967906317084
 20
-1586.9104816713584
 30
0.0
 11
17373.96789398229
 21
-1597.91048367135
 31
0.0
  0
LINE
  5
F6
330
17
100
AcDbEntity
  8
0
100
AcDbLine
 10
17373.419521474694
 20
-1598.1858096275332
 30
0.0
 11
17373.96789398229
 21
-1597.91048367135
 31
0.0
  0
LINE
  5
F7
330
17
100
AcDbEntity
  8
0
100
AcDbLine
 10
17373.467906317084
 20
-1586.9104811106859
 30
0.0
 11
17373.967906317084
 21
-1586.9104816713584
 31
0.0
  0
LINE
  5
F8
330
17
100
AcDbEntity
  8
0
100
AcDbLine
 10
17372.09290869994
 20
-1584.7854795688395
 30
0.0
 11
17372.092908139268
 21
-1585.2854795688395
 31
0.0
  0
ARC
  5
F9
330
17
100
AcDbEntity
  8
0
100
AcDbCircle
 10
17372.65276245145
 20
-1582.7958554816755
 30
2.1776215041997835
 40
2.0668911301654735
100
AcDbArc
 50
176.2445425540314
 51
254.28413503444847
  0
ARC
  5
FA
330
17
100
AcDbEntity
  8
0
100
AcDbCircle
 10
17373.52916486095
 20
-1598.9104831793843
 30
2.1776215041997835
 40
0.24999999999999997
100
AcDbArc
 50
359.99993575280354
 51
89.99993575186559
  0
ARC
  5
FB
330
17
100
AcDbEntity
  8
0
100
AcDbCircle
 10
17373.52916542162
 20
-1598.4104831793843
 30
2.1776215041997835
 40
0.24999999999999997
100
AcDbArc
 50
116.01304605069757
 51
269.99993575186556
  0
LINE
  5
FC
330
17
100
AcDbEntity
  8
0
100
AcDbLine
 10
17375.967891740118
 20
-1599.9104859140366
 30
0.0
 11
17375.96789286146
 21
-1598.9104859140384
 31
0.0
  0
LINE
  5
FD
330
17
100
AcDbEntity
  8
0
100
AcDbLine
 10
17375.967906317594
 20
-1586.9104839140468
 30
0.0
 11
17375.9678939828
 21
-1597.9104859140384
 31
0.0
  0
LINE
  5
FE
330
17
100
AcDbEntity
  8
0
100
AcDbLine
 10
17375.419521475204
 20
-1598.1858118702198
 30
0.0
 11
17375.9678939828
 21
-1597.9104859140384
 31
0.0
  0
LINE
  5
FF
330
17
100
AcDbEntity
  8
0
100
AcDbLine
 10
17375.467906317594
 20
-1586.9104833533743
 30
0.0
 11
17375.967906317594
 21
-1586.9104839140468
 31
0.0
  0
LINE
  5
100
330
17
100
AcDbEntity
  8
0
100
AcDbLine
 10
17374.092908700448
 20
-1584.785481811528
 30
0.0
 11
17374.092908139777
 21
-1585.285481811528
 31
0.0
  0
ARC
  5
101
330
17
100
AcDbEntity
  8
0
100
AcDbCircle
 10
17375.52807039385
 20
-1640.910136276806
 30
-0.3403031765680179
 40
0.24999999999999997
100
AcDbArc
 50
359.99993575280354
 51
89.99993575186559
  0
LINE
  5
102
330
17
100
AcDbEntity
  8
0
100
AcDbLine
 10
17375.418427007597
 20
-1640.1854627249531
 30
0.0
 11
17375.966799515194
 21
-1639.9101367687717
 31
0.0
  0
LINE
  5
103
330
17
100
AcDbEntity
  8
0
100
AcDbLine
 10
17375.968582095444
 20
-1640.9101387707678
 30
0.0
 11
17375.779852095442
 21
-1640.9101385591375
 31
0.0
  0
LINE
  5
104
330
17
100
AcDbEntity
  8
0
100
AcDbLine
 10
17375.968578974094
 20
-1641.910138770766
 30
0.0
 11
17375.968580095443
 21
-1640.910138770766
 31
0.0
  0
LINE
  5
105
330
17
100
AcDbEntity
  8
0
100
AcDbLine
 10
17375.9685789741
 20
-1641.9101367707672
 30
0.0
 11
17376.7185789741
 21
-1641.910137611775
 31
0.0
  0
ARC
  5
106
330
17
100
AcDbEntity
  8
0
100
AcDbCircle
 10
17375.529852656113
 20
-1640.4101382788022
 30
-0.3403031765680179
 40
0.24999999999999997
100
AcDbArc
 50
116.01304605069757
 51
269.99993575186556
  0
ARC
  5
107
330
17
100
AcDbEntity
  8
0
100
AcDbCircle
 10
17325.71316168391
 20
-1640.9104818084083
 30
-0.3403031765680179
 40
0.24999999999999997
100
AcDbArc
 50
90.00006424813441
 51
180.0000642471964
  0
LINE
  5
108
330
17
100
AcDbEntity
  8
0
100
AcDbLine
 10
17325.822805070165
 20
-1640.1858082565554
 30
0.0
 11
17325.274432562568
 21
-1639.910482300374
 31
0.0
  0
ARC
  5
109
330
17
100
AcDbEntity
  8
0
100
AcDbCircle
 10
17325.71137942165
 20
-1640.4104838104045
 30
-0.3403031765680179
 40
0.24999999999999997
100
AcDbArc
 50
270.00006424813444
 51
63.98695394930243
  0
LINE
  5
10A
330
17
100
AcDbEntity
  8
0
100
AcDbLine
 10
17325.27264998232
 20
-1640.9104843023702
 30
0.0
 11
17325.46137998232
 21
-1640.9104840907398
 31
0.0
  0
LINE
  5
10B
330
17
100
AcDbEntity
  8
0
100
AcDbLine
 10
17325.272653103668
 20
-1641.9104843023683
 30
0.0
 11
17325.27265198232
 21
-1640.9104843023683
 31
0.0
  0
LINE
  5
10C
330
17
100
AcDbEntity
  8
0
100
AcDbLine
 10
17325.27265310366
 20
-1641.9104823023695
 30
0.0
 11
17324.52265310366
 21
-1641.9104831433774
 31
0.0
  0
ARC
  5
10D
330
17
100
AcDbEntity
  8
0
100
AcDbCircle
 10
17392.810787770675
 20
-1582.7958193154427
 30
2.1776215042060394
 40
2.0668911301654735
100
AcDbArc
 50
285.7158649655514
 51
3.755457445981668
  0
ARC
  5
10E
330
17
100
AcDbEntity
  8
0
100
AcDbCircle
 10
17391.934385361168
 20
-1598.9104470131515
 30
2.1776215042060394
 40
0.24999999999999997
100
AcDbArc
 50
90.00006424813441
 51
180.0000642471964
  0
ARC
  5
10F
330
17
100
AcDbEntity
  8
0
100
AcDbCircle
 10
17391.934384800497
 20
-1598.4104470131515
 30
2.1776215042060394
 40
0.24999999999999997
100
AcDbArc
 50
270.00006424813444
 51
63.98695394930243
  0
LINE
  5
110
330
17
100
AcDbEntity
  8
0
100
AcDbLine
 10
17393.495658483018
 20
-1599.9104452624288
 30
0.0
 11
17393.495657361676
 21
-1598.9104452624288
 31
0.0
  0
LINE
  5
111
330
17
100
AcDbEntity
  8
0
100
AcDbLine
 10
17393.495643905542
 20
-1586.9104432624372
 30
0.0
 11
17393.495656240335
 21
-1597.9104452624288
 31
0.0
  0
LINE
  5
112
330
17
100
AcDbEntity
  8
0
100
AcDbLine
 10
17394.044028747932
 20
-1598.185771218612
 30
0.0
 11
17393.495656240335
 21
-1597.9104452624288
 31
0.0
  0
LINE
  5
113
330
17
100
AcDbEntity
  8
0
100
AcDbLine
 10
17393.995643905542
 20
-1586.9104427017646
 30
0.0
 11
17393.495643905542
 21
-1586.9104432624372
 31
0.0
  0
LINE
  5
114
330
17
100
AcDbEntity
  8
0
100
AcDbLine
 10
17395.370641522688
 20
-1584.7854411599183
 30
0.0
 11
17395.37064208336
 21
-1585.2854411599183
 31
0.0
  0
ARC
  5
115
330
17
100
AcDbEntity
  8
0
100
AcDbCircle
 10
17394.810787771177
 20
-1582.7958170727543
 30
2.1776215041997835
 40
2.0668911301654735
100
AcDbArc
 50
285.7158649655514
 51
3.755457445981668
  0
ARC
  5
116
330
17
100
AcDbEntity
  8
0
100
AcDbCircle
 10
17393.934385361677
 20
-1598.910444770463
 30
2.1776215041997835
 40
0.24999999999999997
100
AcDbArc
 50
90.00006424813441
 51
180.0000642471964
  0
ARC
  5
117
330
17
100
AcDbEntity
  8
0
100
AcDbCircle
 10
17393.934384801007
 20
-1598.410444770463
 30
2.1776215041997835
 40
0.24999999999999997
100
AcDbArc
 50
270.00006424813444
 51
63.98695394930243
  0
LINE
  5
118
330
17
100
AcDbEntity
  8
0
100
AcDbLine
 10
17391.49565848251
 20
-1599.9104475051154
 30
0.0
 11
17391.495657361167
 21
-1598.9104475051172
 31
0.0
  0
LINE
  5
119
330
17
100
AcDbEntity
  8
0
100
AcDbLine
 10
17391.495643905033
 20
-1586.9104455051256
 30
0.0
 11
17391.495656239826
 21
-1597.9104475051172
 31
0.0
  0
LINE
  5
11A
330
17
100
AcDbEntity
  8
0
100
AcDbLine
 10
17392.044028747423
 20
-1598.1857734612986
 30
0.0
 11
17391.495656239826
 21
-1597.9104475051172
 31
0.0
  0
LINE
  5
11B
330
17
100
AcDbEntity
  8
0
100
AcDbLine
 10
17391.995643905033
 20
-1586.910444944453
 30
0.0
 11
17391.495643905033
 21
-1586.9104455051256
 31
0.0
  0
LINE
  5
11C
330
17
100
AcDbEntity
  8
0
100
AcDbLine
 10
17393.37064152218
 20
-1584.7854434026067
 30
0.0
 11
17393.37064208285
 21
-1585.2854434026067
 31
0.0
  0
LINE
  5
11D
330
17
100
AcDbEntity
  8
0
100
AcDbLine
 10
17393.49570245817
 20
-1640.91048280625
 30
0.0
 11
17393.684432458173
 21
-1640.9104825946179
 31
0.0
  0
LINE
  5
11E
330
17
100
AcDbEntity
  8
0
100
AcDbLine
 10
17393.495705579513
 20
-1641.9104828062464
 30
0.0
 11
17393.49570445817
 21
-1640.9104828062464
 31
0.0
  0
LINE
  5
11F
330
17
100
AcDbEntity
  8
0
100
AcDbLine
 10
17394.044075844427
 20
-1640.1858087624296
 30
0.0
 11
17393.49570333683
 21
-1639.9104828062482
 31
0.0
  0
ARC
  5
120
330
17
100
AcDbEntity
  8
0
100
AcDbCircle
 10
17393.934432458173
 20
-1640.9104823142825
 30
-0.3403031765680179
 40
0.24999999999999997
100
AcDbArc
 50
90.00006424813441
 51
180.0000642471964
  0
ARC
  5
121
330
17
100
AcDbEntity
  8
0
100
AcDbCircle
 10
17391.934432458173
 20
-1640.910484556971
 30
-0.3403031765680179
 40
0.24999999999999997
100
AcDbArc
 50
90.00006424813441
 51
180.0000642471964
  0
LINE
  5
122
330
17
100
AcDbEntity
  8
0
100
AcDbLine
 10
17392.74570333683
 20
-1639.9104836472561
 30
0.0
 11
17392.74565848306
 21
-1599.9104836343613
 31
0.0
  0
LINE
  5
123
330
17
100
AcDbEntity
  8
0
100
AcDbLine
 10
17390.74570333683
 20
-1639.9104858899445
 30
0.0
 11
17390.74565848291
 21
-1599.9104858772534
 31
0.0
  0
LINE
  5
124
330
17
100
AcDbEntity
  8
0
100
AcDbLine
 10
17392.044075844427
 20
-1640.185811005118
 30
0.0
 11
17391.49570333683
 21
-1639.9104850489366
 31
0.0
  0
LINE
  5
125
330
17
100
AcDbEntity
  8
0
100
AcDbLine
 10
17392.743923877864
 20
-1641.9104836512597
 30
0.0
 11
17392.744036012282
 21
-1741.9104856382237
 31
0.0
  0
ARC
  5
126
330
17
100
AcDbEntity
  8
0
100
AcDbCircle
 10
17393.93265019591
 20
-1640.4104843162786
 30
-0.3403031765680179
 40
0.24999999999999997
100
AcDbArc
 50
270.00006424813444
 51
63.98695394930243
  0
ARC
  5
127
330
17
100
AcDbEntity
  8
0
100
AcDbCircle
 10
17391.93265019591
 20
-1640.410486558967
 30
-0.3403031765680179
 40
0.24999999999999997
100
AcDbArc
 50
270.00006424813444
 51
63.98695394930243
  0
LINE
  5
128
330
17
100
AcDbEntity
  8
0
100
AcDbLine
 10
17391.49392075658
 20
-1640.9104870509327
 30
0.0
 11
17391.682650756582
 21
-1640.9104868393024
 31
0.0
  0
LINE
  5
129
330
17
100
AcDbEntity
  8
0
100
AcDbLine
 10
17391.49392387793
 20
-1641.910487050931
 30
0.0
 11
17391.49392275658
 21
-1640.910487050931
 31
0.0
  0
LINE
  5
12A
330
17
100
AcDbEntity
  8
0
100
AcDbLine
 10
17391.493923877922
 20
-1641.910485050932
 30
0.0
 11
17390.743923877922
 21
-1641.91048589194
 31
0.0
  0
ARC
  5
12B
330
17
100
AcDbEntity
  8
0
100
AcDbCircle
 10
17579.433650793664
 20
-1598.9104470131515
 30
2.1776215042060394
 40
0.24999999999999997
100
AcDbArc
 50
90.00006424813441
 51
180.0000642471964
  0
ARC
  5
12C
330
17
100
AcDbEntity
  8
0
100
AcDbCircle
 10
17579.433650232993
 20
-1598.4104470131515
 30
2.1776215042060394
 40
0.24999999999999997
100
AcDbArc
 50
270.00006424813444
 51
63.98695394930243
  0
LINE
  5
12D
330
17
100
AcDbEntity
  8
0
100
AcDbLine
 10
17580.994923915514
 20
-1599.9104452624288
 30
0.0
 11
17580.994922794172
 21
-1598.9104452624288
 31
0.0
  0
LINE
  5
12E
330
17
100
AcDbEntity
  8
0
100
AcDbLine
 10
17580.99490933804
 20
-1586.9104432624372
 30
0.0
 11
17580.99492167283
 21
-1597.9104452624288
 31
0.0
  0
LINE
  5
12F
330
17
100
AcDbEntity
  8
0
100
AcDbLine
 10
17581.54329418043
 20
-1598.185771218612
 30
0.0
 11
17580.99492167283
 21
-1597.9104452624288
 31
0.0
  0
LINE
  5
130
330
17
100
AcDbEntity
  8
0
100
AcDbLine
 10
17581.49490933804
 20
-1586.9104427017646
 30
0.0
 11
17580.99490933804
 21
-1586.9104432624372
 31
0.0
  0
LINE
  5
131
330
17
100
AcDbEntity
  8
0
100
AcDbLine
 10
17582.869906955184
 20
-1584.7854411599183
 30
0.0
 11
17582.869907515855
 21
-1585.2854411599183
 31
0.0
  0
LINE
  5
132
330
17
100
AcDbEntity
  8
0
100
AcDbLine
 10
17584.87250523485
 20
-1581.9104389143158
 30
0.0
 11
17584.872506075855
 21
-1582.660438914314
 31
0.0
  0
ARC
  5
133
330
17
100
AcDbEntity
  8
0
100
AcDbCircle
 10
17581.433650794173
 20
-1598.910444770463
 30
2.1776215041997835
 40
0.24999999999999997
100
AcDbArc
 50
90.00006424813441
 51
180.0000642471964
  0
LINE
  5
134
330
17
100
AcDbEntity
  8
0
100
AcDbLine
 10
17582.87250523434
 20
-1581.9104411570024
 30
0.0
 11
17582.872506075346
 21
-1582.6604411570024
 31
0.0
  0
LINE
  5
135
330
17
100
AcDbEntity
  8
0
100
AcDbLine
 10
17581.543341276923
 20
-1640.1858087624296
 30
0.0
 11
17580.994968769326
 21
-1639.9104828062482
 31
0.0
  0
ARC
  5
136
330
17
100
AcDbEntity
  8
0
100
AcDbCircle
 10
17581.43369789067
 20
-1640.9104823142825
 30
-0.3403031765680179
 40
0.24999999999999997
100
AcDbArc
 50
90.00006424813441
 51
180.0000642471964
  0
ARC
  5
137
330
17
100
AcDbEntity
  8
0
100
AcDbCircle
 10
17579.43369789067
 20
-1640.910484556971
 30
-0.3403031765680179
 40
0.24999999999999997
100
AcDbArc
 50
90.00006424813441
 51
180.0000642471964
  0
LINE
  5
138
330
17
100
AcDbEntity
  8
0
100
AcDbLine
 10
17578.244968769326
 20
-1639.9104858899445
 30
0.0
 11
17578.244923915405
 21
-1599.9104858772534
 31
0.0
  0
LINE
  5
139
330
17
100
AcDbEntity
  8
0
100
AcDbLine
 10
17580.24318931036
 20
-1641.9104836512597
 30
0.0
 11
17580.243301444778
 21
-1741.9104856382237
 31
0.0
  0
ARC
  5
13A
330
17
100
AcDbEntity
  8
0
100
AcDbCircle
 10
17579.431915628407
 20
-1640.410486558967
 30
-0.3403031765680179
 40
0.24999999999999997
100
AcDbArc
 50
270.00006424813444
 51
63.98695394930243
  0
LINE
  5
13B
330
17
100
AcDbEntity
  8
0
100
AcDbLine
 10
17578.993186189076
 20
-1640.9104870509327
 30
0.0
 11
17579.181916189078
 21
-1640.9104868393024
 31
0.0
  0
LINE
  5
13C
330
17
100
AcDbEntity
  8
0
100
AcDbLine
 10
17562.21787366976
 20
-1615.8136238788545
 30
0.0
 11
17562.21610980146
 21
-1599.9101333541973
 31
0.0
  0
LINE
  5
13D
330
17
100
AcDbEntity
  8
0
100
AcDbLine
 10
17564.21784664928
 20
-1639.910137611777
 30
0.0
 11
17564.2178915032
 21
-1599.9101375990856
 31
0.0
  0
ARC
  5
13E
330
17
100
AcDbEntity
  8
0
100
AcDbCircle
 10
17562.152027884447
 20
-1582.795857724364
 30
2.1776215042060394
 40
2.0668911301654735
100
AcDbArc
 50
176.2445425540314
 51
254.28413503444847
  0
ARC
  5
13F
330
17
100
AcDbEntity
  8
0
100
AcDbCircle
 10
17563.028430293954
 20
-1598.9104854220727
 30
2.1776215042060394
 40
0.24999999999999997
100
AcDbArc
 50
359.99993575280354
 51
89.99993575186559
  0
ARC
  5
140
330
17
100
AcDbEntity
  8
0
100
AcDbCircle
 10
17563.028430854625
 20
-1598.4104854220727
 30
2.1776215042060394
 40
0.24999999999999997
100
AcDbArc
 50
116.01304605069757
 51
269.99993575186556
  0
LINE
  5
141
330
17
100
AcDbEntity
  8
0
100
AcDbLine
 10
17561.467157172105
 20
-1599.91048367135
 30
0.0
 11
17561.467158293446
 21
-1598.91048367135
 31
0.0
  0
LINE
  5
142
330
17
100
AcDbEntity
  8
0
100
AcDbLine
 10
17561.46717174958
 20
-1586.9104816713584
 30
0.0
 11
17561.467159414788
 21
-1597.91048367135
 31
0.0
  0
LINE
  5
143
330
17
100
AcDbEntity
  8
0
100
AcDbLine
 10
17560.91878690719
 20
-1598.1858096275332
 30
0.0
 11
17561.467159414788
 21
-1597.91048367135
 31
0.0
  0
LINE
  5
144
330
17
100
AcDbEntity
  8
0
100
AcDbLine
 10
17560.96717174958
 20
-1586.9104811106859
 30
0.0
 11
17561.46717174958
 21
-1586.9104816713584
 31
0.0
  0
LINE
  5
145
330
17
100
AcDbEntity
  8
0
100
AcDbLine
 10
17559.592174132435
 20
-1584.7854795688395
 30
0.0
 11
17559.592173571764
 21
-1585.2854795688395
 31
0.0
  0
ARC
  5
146
330
17
100
AcDbEntity
  8
0
100
AcDbCircle
 10
17560.152027883945
 20
-1582.7958554816755
 30
2.1776215041997835
 40
2.0668911301654735
100
AcDbArc
 50
176.2445425540314
 51
254.28413503444847
  0
LINE
  5
147
330
17
100
AcDbEntity
  8
0
100
AcDbLine
 10
17557.58957585277
 20
-1581.910477323237
 30
0.0
 11
17557.589575011763
 21
-1582.6604773232352
 31
0.0
  0
ARC
  5
148
330
17
100
AcDbEntity
  8
0
100
AcDbCircle
 10
17561.028430293445
 20
-1598.9104831793843
 30
2.1776215041997835
 40
0.24999999999999997
100
AcDbArc
 50
359.99993575280354
 51
89.99993575186559
  0
ARC
  5
149
330
17
100
AcDbEntity
  8
0
100
AcDbCircle
 10
17561.028430854116
 20
-1598.4104831793843
 30
2.1776215041997835
 40
0.24999999999999997
100
AcDbArc
 50
116.01304605069757
 51
269.99993575186556
  0
LINE
  5
14A
330
17
100
AcDbEntity
  8
0
100
AcDbLine
 10
17563.467157172614
 20
-1599.9104859140366
 30
0.0
 11
17563.467158293955
 21
-1598.9104859140384
 31
0.0
  0
LINE
  5
14B
330
17
100
AcDbEntity
  8
0
100
AcDbLine
 10
17563.46717175009
 20
-1586.9104839140468
 30
0.0
 11
17563.467159415297
 21
-1597.9104859140384
 31
0.0
  0
LINE
  5
14C
330
17
100
AcDbEntity
  8
0
100
AcDbLine
 10
17562.9187869077
 20
-1598.1858118702198
 30
0.0
 11
17563.467159415297
 21
-1597.9104859140384
 31
0.0
  0
LINE
  5
14D
330
17
100
AcDbEntity
  8
0
100
AcDbLine
 10
17562.96717175009
 20
-1586.9104833533743
 30
0.0
 11
17563.46717175009
 21
-1586.9104839140468
 31
0.0
  0
LINE
  5
14E
330
17
100
AcDbEntity
  8
0
100
AcDbLine
 10
17561.592174132944
 20
-1584.785481811528
 30
0.0
 11
17561.592173572273
 21
-1585.285481811528
 31
0.0
  0
LINE
  5
14F
330
17
100
AcDbEntity
  8
0
100
AcDbLine
 10
17559.58957585328
 20
-1581.9104795659237
 30
0.0
 11
17559.589575012273
 21
-1582.6604795659237
 31
0.0
  0
LINE
  5
150
330
17
100
AcDbEntity
  8
0
100
AcDbLine
 10
17514.021889272604
 20
-1615.8136238788545
 30
0.0
 11
17514.023653140906
 21
-1599.9101333541973
 31
0.0
  0
LINE
  5
151
330
17
100
AcDbEntity
  8
0
100
AcDbLine
 10
17512.021916293084
 20
-1639.910137611777
 30
0.0
 11
17512.021871439167
 21
-1599.9101375990856
 31
0.0
  0
ARC
  5
152
330
17
100
AcDbEntity
  8
0
100
AcDbCircle
 10
17514.087735057918
 20
-1582.795857724364
 30
2.1776215042060394
 40
2.0668911301654735
100
AcDbArc
 50
285.7158649655514
 51
3.7554574459555563
  0
ARC
  5
153
330
17
100
AcDbEntity
  8
0
100
AcDbCircle
 10
17513.21133264841
 20
-1598.9104854220727
 30
2.1776215042060394
 40
0.24999999999999997
100
AcDbArc
 50
90.00006424813441
 51
180.0000642471964
  0
ARC
  5
154
330
17
100
AcDbEntity
  8
0
100
AcDbCircle
 10
17513.21133208774
 20
-1598.4104854220727
 30
2.1776215042060394
 40
0.24999999999999997
100
AcDbArc
 50
270.00006424813444
 51
63.98695394930243
  0
LINE
  5
155
330
17
100
AcDbEntity
  8
0
100
AcDbLine
 10
17514.77260577026
 20
-1599.91048367135
 30
0.0
 11
17514.77260464892
 21
-1598.91048367135
 31
0.0
  0
LINE
  5
156
330
17
100
AcDbEntity
  8
0
100
AcDbLine
 10
17514.772591192785
 20
-1586.9104816713584
 30
0.0
 11
17514.772603527577
 21
-1597.91048367135
 31
0.0
  0
LINE
  5
157
330
17
100
AcDbEntity
  8
0
100
AcDbLine
 10
17515.320976035175
 20
-1598.1858096275332
 30
0.0
 11
17514.772603527577
 21
-1597.91048367135
 31
0.0
  0
LINE
  5
158
330
17
100
AcDbEntity
  8
0
100
AcDbLine
 10
17515.272591192785
 20
-1586.9104811106859
 30
0.0
 11
17514.772591192785
 21
-1586.9104816713584
 31
0.0
  0
LINE
  5
159
330
17
100
AcDbEntity
  8
0
100
AcDbLine
 10
17516.64758880993
 20
-1584.7854795688395
 30
0.0
 11
17516.6475893706
 21
-1585.2854795688395
 31
0.0
  0
ARC
  5
15A
330
17
100
AcDbEntity
  8
0
100
AcDbCircle
 10
17516.08773505842
 20
-1582.7958554816755
 30
2.1776215041997835
 40
2.0668911301654735
100
AcDbArc
 50
285.7158649655514
 51
3.7554574459555563
  0
LINE
  5
15B
330
17
100
AcDbEntity
  8
0
100
AcDbLine
 10
17518.650187089595
 20
-1581.910477323237
 30
0.0
 11
17518.6501879306
 21
-1582.6604773232352
 31
0.0
  0
ARC
  5
15C
330
17
100
AcDbEntity
  8
0
100
AcDbCircle
 10
17515.21133264892
 20
-1598.9104831793843
 30
2.1776215041997835
 40
0.24999999999999997
100
AcDbArc
 50
90.00006424813441
 51
180.0000642471964
  0
ARC
  5
15D
330
17
100
AcDbEntity
  8
0
100
AcDbCircle
 10
17515.21133208825
 20
-1598.4104831793843
 30
2.1776215041997835
 40
0.24999999999999997
100
AcDbArc
 50
270.00006424813444
 51
63.98695394930243
  0
LINE
  5
15E
330
17
100
AcDbEntity
  8
0
100
AcDbLine
 10
17512.77260576975
 20
-1599.9104859140366
 30
0.0
 11
17512.77260464841
 21
-1598.9104859140384
 31
0.0
  0
LINE
  5
15F
330
17
100
AcDbEntity
  8
0
100
AcDbLine
 10
17512.772591192275
 20
-1586.9104839140468
 30
0.0
 11
17512.772603527068
 21
-1597.9104859140384
 31
0.0
  0
LINE
  5
160
330
17
100
AcDbEntity
  8
0
100
AcDbLine
 10
17513.320976034665
 20
-1598.1858118702198
 30
0.0
 11
17512.772603527068
 21
-1597.9104859140384
 31
0.0
  0
LINE
  5
161
330
17
100
AcDbEntity
  8
0
100
AcDbLine
 10
17513.272591192275
 20
-1586.9104833533743
 30
0.0
 11
17512.772591192275
 21
-1586.9104839140468
 31
0.0
  0
LINE
  5
162
330
17
100
AcDbEntity
  8
0
100
AcDbLine
 10
17514.64758880942
 20
-1584.785481811528
 30
0.0
 11
17514.64758937009
 21
-1585.285481811528
 31
0.0
  0
LINE
  5
163
330
17
100
AcDbEntity
  8
0
100
AcDbLine
 10
17516.650187089086
 20
-1581.9104795659237
 30
0.0
 11
17516.650187930092
 21
-1582.6604795659237
 31
0.0
  0
ARC
  5
164
330
17
100
AcDbEntity
  8
0
100
AcDbCircle
 10
17513.212427116017
 20
-1640.910136276806
 30
-0.3403031765680179
 40
0.24999999999999997
100
AcDbArc
 50
90.00006424813441
 51
180.0000642471964
  0
LINE
  5
165
330
17
100
AcDbEntity
  8
0
100
AcDbLine
 10
17513.322070502272
 20
-1640.1854627249531
 30
0.0
 11
17512.773697994675
 21
-1639.9101367687717
 31
0.0
  0
LINE
  5
166
330
17
100
AcDbEntity
  8
0
100
AcDbLine
 10
17512.771915414425
 20
-1640.9101387707678
 30
0.0
 11
17512.960645414427
 21
-1640.9101385591375
 31
0.0
  0
LINE
  5
167
330
17
100
AcDbEntity
  8
0
100
AcDbLine
 10
17512.771918535775
 20
-1641.910138770766
 30
0.0
 11
17512.771917414426
 21
-1640.910138770766
 31
0.0
  0
LINE
  5
168
330
17
100
AcDbEntity
  8
0
100
AcDbLine
 10
17512.771918535767
 20
-1641.9101367707672
 30
0.0
 11
17512.021918535767
 21
-1641.910137611775
 31
0.0
  0
ARC
  5
169
330
17
100
AcDbEntity
  8
0
100
AcDbCircle
 10
17513.210644853756
 20
-1640.4101382788022
 30
-0.3403031765680179
 40
0.24999999999999997
100
AcDbArc
 50
270.00006424813444
 51
63.98695394930243
  0
ARC
  5
16A
330
17
100
AcDbEntity
  8
0
100
AcDbCircle
 10
17563.02733582596
 20
-1640.9104818084083
 30
-0.3403031765680179
 40
0.24999999999999997
100
AcDbArc
 50
359.99993575280354
 51
89.99993575186559
  0
LINE
  5
16B
330
17
100
AcDbEntity
  8
0
100
AcDbLine
 10
17562.917692439703
 20
-1640.1858082565554
 30
0.0
 11
17563.4660649473
 21
-1639.910482300374
 31
0.0
  0
ARC
  5
16C
330
17
100
AcDbEntity
  8
0
100
AcDbCircle
 10
17563.02911808822
 20
-1640.4104838104045
 30
-0.3403031765680179
 40
0.24999999999999997
100
AcDbArc
 50
116.01304605069757
 51
269.99993575186556
  0
LINE
  5
16D
330
17
100
AcDbEntity
  8
0
100
AcDbLine
 10
17563.46784752755
 20
-1640.9104843023702
 30
0.0
 11
17563.27911752755
 21
-1640.9104840907398
 31
0.0
  0
LINE
  5
16E
330
17
100
AcDbEntity
  8
0
100
AcDbLine
 10
17563.4678444062
 20
-1641.9104843023683
 30
0.0
 11
17563.46784552755
 21
-1640.9104843023683
 31
0.0
  0
LINE
  5
16F
330
17
100
AcDbEntity
  8
0
100
AcDbLine
 10
17563.46784440621
 20
-1641.9104823023695
 30
0.0
 11
17564.21784440621
 21
-1641.9104831433774
 31
0.0
  0
ARC
  5
170
330
17
100
AcDbEntity
  8
0
100
AcDbCircle
 10
17495.929709739194
 20
-1582.7958193154427
 30
2.1776215042060394
 40
2.0668911301654735
100
AcDbArc
 50
176.2445425540314
 51
254.28413503444847
  0
ARC
  5
171
330
17
100
AcDbEntity
  8
0
100
AcDbCircle
 10
17496.8061121487
 20
-1598.9104470131515
 30
2.1776215042060394
 40
0.24999999999999997
100
AcDbArc
 50
359.99993575280354
 51
89.99993575186559
  0
ARC
  5
172
330
17
100
AcDbEntity
  8
0
100
AcDbCircle
 10
17496.80611270937
 20
-1598.4104470131515
 30
2.1776215042060394
 40
0.24999999999999997
100
AcDbArc
 50
116.01304605069757
 51
269.99993575186556
  0
LINE
  5
173
330
17
100
AcDbEntity
  8
0
100
AcDbLine
 10
17495.24483902685
 20
-1599.9104452624288
 30
0.0
 11
17495.244840148192
 21
-1598.9104452624288
 31
0.0
  0
LINE
  5
174
330
17
100
AcDbEntity
  8
0
100
AcDbLine
 10
17495.244853604327
 20
-1586.9104432624372
 30
0.0
 11
17495.244841269534
 21
-1597.9104452624288
 31
0.0
  0
LINE
  5
175
330
17
100
AcDbEntity
  8
0
100
AcDbLine
 10
17494.696468761937
 20
-1598.185771218612
 30
0.0
 11
17495.244841269534
 21
-1597.9104452624288
 31
0.0
  0
LINE
  5
176
330
17
100
AcDbEntity
  8
0
100
AcDbLine
 10
17494.744853604327
 20
-1586.9104427017646
 30
0.0
 11
17495.244853604327
 21
-1586.9104432624372
 31
0.0
  0
LINE
  5
177
330
17
100
AcDbEntity
  8
0
100
AcDbLine
 10
17493.36985598718
 20
-1584.7854411599183
 30
0.0
 11
17493.36985542651
 21
-1585.2854411599183
 31
0.0
  0
ARC
  5
178
330
17
100
AcDbEntity
  8
0
100
AcDbCircle
 10
17493.92970973869
 20
-1582.7958170727543
 30
2.1776215041997835
 40
2.0668911301654735
100
AcDbArc
 50
176.2445425540314
 51
254.28413503444847
  0
LINE
  5
179
330
17
100
AcDbEntity
  8
0
100
AcDbLine
 10
17491.367257707516
 20
-1581.9104389143158
 30
0.0
 11
17491.36725686651
 21
-1582.660438914314
 31
0.0
  0
ARC
  5
17A
330
17
100
AcDbEntity
  8
0
100
AcDbCircle
 10
17494.80611214819
 20
-1598.910444770463
 30
2.1776215041997835
 40
0.24999999999999997
100
AcDbArc
 50
359.99993575280354
 51
89.99993575186559
  0
ARC
  5
17B
330
17
100
AcDbEntity
  8
0
100
AcDbCircle
 10
17494.806112708862
 20
-1598.410444770463
 30
2.1776215041997835
 40
0.24999999999999997
100
AcDbArc
 50
116.01304605069757
 51
269.99993575186556
  0
LINE
  5
17C
330
17
100
AcDbEntity
  8
0
100
AcDbLine
 10
17497.24483902736
 20
-1599.9104475051154
 30
0.0
 11
17497.2448401487
 21
-1598.9104475051172
 31
0.0
  0
LINE
  5
17D
330
17
100
AcDbEntity
  8
0
100
AcDbLine
 10
17497.244853604836
 20
-1586.9104455051256
 30
0.0
 11
17497.244841270043
 21
-1597.9104475051172
 31
0.0
  0
LINE
  5
17E
330
17
100
AcDbEntity
  8
0
100
AcDbLine
 10
17496.696468762446
 20
-1598.1857734612986
 30
0.0
 11
17497.244841270043
 21
-1597.9104475051172
 31
0.0
  0
LINE
  5
17F
330
17
100
AcDbEntity
  8
0
100
AcDbLine
 10
17496.744853604836
 20
-1586.910444944453
 30
0.0
 11
17497.244853604836
 21
-1586.9104455051256
 31
0.0
  0
LINE
  5
180
330
17
100
AcDbEntity
  8
0
100
AcDbLine
 10
17495.36985598769
 20
-1584.7854434026067
 30
0.0
 11
17495.36985542702
 21
-1585.2854434026067
 31
0.0
  0
LINE
  5
181
330
17
100
AcDbEntity
  8
0
100
AcDbLine
 10
17493.367257708025
 20
-1581.9104411570024
 30
0.0
 11
17493.36725686702
 21
-1582.6604411570024
 31
0.0
  0
LINE
  5
182
330
17
100
AcDbEntity
  8
0
100
AcDbLine
 10
17495.244795051698
 20
-1640.91048280625
 30
0.0
 11
17495.056065051696
 21
-1640.9104825946179
 31
0.0
  0
LINE
  5
183
330
17
100
AcDbEntity
  8
0
100
AcDbLine
 10
17495.244791930356
 20
-1641.9104828062464
 30
0.0
 11
17495.244793051697
 21
-1640.9104828062464
 31
0.0
  0
LINE
  5
184
330
17
100
AcDbEntity
  8
0
100
AcDbLine
 10
17494.69642166544
 20
-1640.1858087624296
 30
0.0
 11
17495.24479417304
 21
-1639.9104828062482
 31
0.0
  0
ARC
  5
185
330
17
100
AcDbEntity
  8
0
100
AcDbCircle
 10
17494.806065051696
 20
-1640.9104823142825
 30
-0.3403031765680179
 40
0.24999999999999997
100
AcDbArc
 50
359.99993575280354
 51
89.99993575186559
  0
ARC
  5
186
330
17
100
AcDbEntity
  8
0
100
AcDbCircle
 10
17496.806065051696
 20
-1640.910484556971
 30
-0.3403031765680179
 40
0.24999999999999997
100
AcDbArc
 50
359.99993575280354
 51
89.99993575186559
  0
LINE
  5
187
330
17
100
AcDbEntity
  8
0
100
AcDbLine
 10
17495.99479417304
 20
-1639.9104836472561
 30
0.0
 11
17495.994839026807
 21
-1599.9104836343613
 31
0.0
  0
LINE
  5
188
330
17
100
AcDbEntity
  8
0
100
AcDbLine
 10
17497.99479417304
 20
-1639.9104858899445
 30
0.0
 11
17497.99483902696
 21
-1599.9104858772534
 31
0.0
  0
LINE
  5
189
330
17
100
AcDbEntity
  8
0
100
AcDbLine
 10
17496.69642166544
 20
-1640.185811005118
 30
0.0
 11
17497.24479417304
 21
-1639.9104850489366
 31
0.0
  0
LINE
  5
18A
330
17
100
AcDbEntity
  8
0
100
AcDbLine
 10
17495.996573632005
 20
-1641.9104836512597
 30
0.0
 11
17495.996461497587
 21
-1741.9104856382237
 31
0.0
  0
ARC
  5
18B
330
17
100
AcDbEntity
  8
0
100
AcDbCircle
 10
17494.807847313958
 20
-1640.4104843162786
 30
-0.3403031765680179
 40
0.24999999999999997
100
AcDbArc
 50
116.01304605069757
 51
269.99993575186556
  0
ARC
  5
18C
330
17
100
AcDbEntity
  8
0
100
AcDbCircle
 10
17496.807847313958
 20
-1640.410486558967
 30
-0.3403031765680179
 40
0.24999999999999997
100
AcDbArc
 50
116.01304605069757
 51
269.99993575186556
  0
LINE
  5
18D
330
17
100
AcDbEntity
  8
0
100
AcDbLine
 10
17497.24657675329
 20
-1640.9104870509327
 30
0.0
 11
17497.057846753287
 21
-1640.9104868393024
 31
0.0
  0
LINE
  5
18E
330
17
100
AcDbEntity
  8
0
100
AcDbLine
 10
17497.24657363194
 20
-1641.910487050931
 30
0.0
 11
17497.246574753288
 21
-1640.910487050931
 31
0.0
  0
LINE
  5
18F
330
17
100
AcDbEntity
  8
0
100
AcDbLine
 10
17497.246573631946
 20
-1641.910485050932
 30
0.0
 11
17497.996573631946
 21
-1641.91048589194
 31
0.0
  0
LINE
  5
190
330
17
100
AcDbEntity
  8
0
100
AcDbLine
 10
17300.868680211504
 20
-1770.4182125106613
 30
0.0
 11
17300.8686802115
 21
-1881.9182125106631
 31
0.0
  0
LINE
  5
191
330
17
100
AcDbEntity
  8
0
100
AcDbLine
 10
17294.868680211504
 20
-1881.9182125106631
 30
0.0
 11
17294.868680211504
 21
-1889.9182125106631
 31
0.0
  0
LINE
  5
192
330
17
100
AcDbEntity
  8
0
100
AcDbLine
 10
17409.367644275997
 20
-1770.418334175314
 30
0.0
 11
17409.367644275993
 21
-1881.9183341753157
 31
0.0
  0
LINE
  5
193
330
17
100
AcDbEntity
  8
0
100
AcDbLine
 10
17403.367644275997
 20
-1881.9183341753157
 30
0.0
 11
17403.367644275997
 21
-1889.9183341753157
 31
0.0
  0
LINE
  5
194
330
17
100
AcDbEntity
  8
0
100
AcDbLine
 10
17479.372853233872
 20
-1770.418334175314
 30
0.0
 11
17479.372853233876
 21
-1881.9183341753157
 31
0.0
  0
LINE
  5
195
330
17
100
AcDbEntity
  8
0
100
AcDbLine
 10
17485.372853233872
 20
-1881.9183341753157
 30
0.0
 11
17485.372853233872
 21
-1889.9183341753157
 31
0.0
  0
LINE
  5
196
330
17
100
AcDbEntity
  8
0
100
AcDbLine
 10
17587.871215379233
 20
-1770.410707210421
 30
0.0
 11
17587.871215379237
 21
-1881.9107072104227
 31
0.0
  0
LINE
  5
197
330
17
100
AcDbEntity
  8
0
100
AcDbLine
 10
17593.871215379233
 20
-1881.9107072104227
 30
0.0
 11
17593.871215379233
 21
-1889.9107072104227
 31
0.0
  0
LINE
  5
198
330
17
100
AcDbEntity
  8
0
100
AcDbLine
 10
17500.374286835195
 20
-1577.6593849451529
 30
-21.240556023305594
 11
17387.86622970154
 21
-1577.6580127377247
 31
-33.4593033091274
  0
LINE
  5
199
330
17
100
AcDbEntity
  8
0
100
AcDbLine
 10
17500.374286835195
 20
-1576.9093849451356
 30
-21.240556023305594
 11
17391.87038743661
 21
-1576.9080127377247
 31
-33.4593033091274
  0
LINE
  5
19A
330
17
100
AcDbEntity
  8
0
100
AcDbLine
 10
17498.370129100065
 20
-1581.0445224288355
 30
-21.240556023305594
 11
17391.87038743661
 21
-1581.0431502214606
 31
-33.4593033091274
  0
LINE
  5
19B
330
17
100
AcDbEntity
  8
0
100
AcDbLine
 10
17416.99438382189
 20
-1741.9096384031748
 30
0.0
 11
17416.642398637123
 21
-1641.9101376117749
 31
-23.562603874274018
  0
LINE
  5
19C
330
17
100
AcDbEntity
  8
0
100
AcDbLine
 10
17418.9943838224
 20
-1741.9096406458614
 30
0.0
 11
17418.64239863763
 21
-1641.9101398544628
 31
-23.562603874273695
  0
LINE
  5
19D
330
17
100
AcDbEntity
  8
0
100
AcDbLine
 10
17471.745936021434
 20
-1741.9096384031748
 30
0.0
 11
17471.393842910027
 21
-1641.910137611775
 31
-23.562603874273965
  0
LINE
  5
19E
330
17
100
AcDbEntity
  8
0
100
AcDbLine
 10
17469.745936020925
 20
-1741.9096406458614
 30
0.0
 11
17469.393842909518
 21
-1641.9101398544628
 31
-23.562603874273695
  0
LINE
  5
19F
330
17
100
AcDbEntity
  8
0
100
AcDbLine
 10
16404.64887132295
 20
-1746.9103871649004
 30
0.0
 11
16223.974743419853
 21
-1746.9107413317606
 31
0.0
  0
LINE
  5
1A0
330
17
100
AcDbEntity
  8
0
100
AcDbLine
 10
16404.64887132295
 20
-1748.9103856179001
 30
0.0
 11
16225.012997845975
 21
-1748.910742496003
 31
0.0
  0
LINE
  5
1A1
330
17
100
AcDbEntity
  8
0
100
AcDbLine
 10
16404.64887132295
 20
-1764.4103852654505
 30
0.0
 11
16226.012980465845
 21
-1764.41012396852
 31
0.0
  0
ARC
  5
1A2
330
17
100
AcDbEntity
  8
0
100
AcDbCircle
 10
16233.574737823867
 20
-1582.7958557223753
 30
2.1776215042060394
 40
2.0668911301654735
100
AcDbArc
 50
176.24454255401844
 51
254.28413503444858
  0
ARC
  5
1A3
330
17
100
AcDbEntity
  8
0
100
AcDbCircle
 10
16234.45114023337
 20
-1598.9104834200841
 30
2.1776215042060394
 40
0.24999999999999997
100
AcDbArc
 50
359.99993575280354
 51
89.99993575186559
  0
ARC
  5
1A4
330
17
100
AcDbEntity
  8
0
100
AcDbCircle
 10
16234.451140794044
 20
-1598.4104834200841
 30
2.1776215042060394
 40
0.24999999999999997
100
AcDbArc
 50
116.01304605069761
 51
269.99993575186556
  0
LINE
  5
1A5
330
17
100
AcDbEntity
  8
0
100
AcDbLine
 10
16232.88986711152
 20
-1599.9104816693614
 30
0.0
 11
16232.889868232862
 21
-1598.9104816693614
 31
0.0
  0
LINE
  5
1A6
330
17
100
AcDbEntity
  8
0
100
AcDbLine
 10
16232.889881688996
 20
-1586.9104796693698
 30
0.0
 11
16232.889869354207
 21
-1597.9104816693614
 31
0.0
  0
LINE
  5
1A7
330
17
100
AcDbEntity
  8
0
100
AcDbLine
 10
16232.341496846606
 20
-1598.1858076255446
 30
0.0
 11
16232.889869354207
 21
-1597.9104816693614
 31
0.0
  0
LINE
  5
1A8
330
17
100
AcDbEntity
  8
0
100
AcDbLine
 10
16232.389881688996
 20
-1586.9104791086972
 30
0.0
 11
16232.889881688996
 21
-1586.9104796693698
 31
0.0
  0
LINE
  5
1A9
330
17
100
AcDbEntity
  8
0
100
AcDbLine
 10
16231.014884071854
 20
-1584.785477566851
 30
0.0
 11
16231.014883511183
 21
-1585.285477566851
 31
0.0
  0
ARC
  5
1AA
330
17
100
AcDbEntity
  8
0
100
AcDbCircle
 10
16231.574737823361
 20
-1582.795853479687
 30
2.1776215041997835
 40
2.0668911301654735
100
AcDbArc
 50
176.24454255401844
 51
254.28413503444858
  0
LINE
  5
1AB
330
17
100
AcDbEntity
  8
0
100
AcDbLine
 10
16229.012285792185
 20
-1581.9104753212484
 30
0.0
 11
16229.012284951179
 21
-1582.6604753212466
 31
0.0
  0
ARC
  5
1AC
330
17
100
AcDbEntity
  8
0
100
AcDbCircle
 10
16232.45114023286
 20
-1598.9104811773957
 30
2.1776215041997835
 40
0.24999999999999997
100
AcDbArc
 50
359.99993575280354
 51
89.99993575186559
  0
ARC
  5
1AD
330
17
100
AcDbEntity
  8
0
100
AcDbCircle
 10
16232.451140793535
 20
-1598.4104811773957
 30
2.1776215041997835
 40
0.24999999999999997
100
AcDbArc
 50
116.01304605069761
 51
269.99993575186556
  0
LINE
  5
1AE
330
17
100
AcDbEntity
  8
0
100
AcDbLine
 10
16234.88986711203
 20
-1599.910483912048
 30
0.0
 11
16234.889868233371
 21
-1598.9104839120498
 31
0.0
  0
LINE
  5
1AF
330
17
100
AcDbEntity
  8
0
100
AcDbLine
 10
16234.889881689505
 20
-1586.9104819120582
 30
0.0
 11
16234.889869354716
 21
-1597.9104839120498
 31
0.0
  0
LINE
  5
1B0
330
17
100
AcDbEntity
  8
0
100
AcDbLine
 10
16234.341496847115
 20
-1598.1858098682312
 30
0.0
 11
16234.889869354716
 21
-1597.9104839120498
 31
0.0
  0
LINE
  5
1B1
330
17
100
AcDbEntity
  8
0
100
AcDbLine
 10
16234.389881689505
 20
-1586.9104813513857
 30
0.0
 11
16234.889881689505
 21
-1586.9104819120582
 31
0.0
  0
LINE
  5
1B2
330
17
100
AcDbEntity
  8
0
100
AcDbLine
 10
16233.01488407236
 20
-1584.7854798095393
 30
0.0
 11
16233.014883511689
 21
-1585.2854798095393
 31
0.0
  0
LINE
  5
1B3
330
17
100
AcDbEntity
  8
0
100
AcDbLine
 10
16231.012285792694
 20
-1581.910477563935
 30
0.0
 11
16231.012284951688
 21
-1582.660477563935
 31
0.0
  0
ARC
  5
1B4
330
17
100
AcDbEntity
  8
0
100
AcDbCircle
 10
16221.39069490902
 20
-1582.6604626313544
 30
0.340303176557029
 40
2.1249999999999996
100
AcDbArc
 50
179.99993575165715
 51
269.999966751603
  0
ARC
  5
1B5
330
17
100
AcDbEntity
  8
0
100
AcDbCircle
 10
16223.826948687176
 20
-1598.9104673632426
 30
0.340303176557029
 40
0.24999999999999997
100
AcDbArc
 50
359.99993575280354
 51
89.99993575186559
  0
ARC
  5
1B6
330
17
100
AcDbEntity
  8
0
100
AcDbCircle
 10
16223.826949247847
 20
-1598.4104673632426
 30
0.340303176557029
 40
0.24999999999999997
100
AcDbArc
 50
116.01304605069761
 51
269.99993575186556
  0
LINE
  5
1B7
330
17
100
AcDbEntity
  8
0
100
AcDbLine
 10
16224.265675565832
 20
-1599.9104678552064
 30
0.0
 11
16224.265676687177
 21
-1598.9104678552083
 31
0.0
  0
LINE
  5
1B8
330
17
100
AcDbEntity
  8
0
100
AcDbLine
 10
16224.265690143307
 20
-1586.9104658552167
 30
0.0
 11
16224.265677808518
 21
-1597.9104678552083
 31
0.0
  0
LINE
  5
1B9
330
17
100
AcDbEntity
  8
0
100
AcDbLine
 10
16223.717305300921
 20
-1598.1857938113897
 30
0.0
 11
16224.265677808518
 21
-1597.9104678552083
 31
0.0
  0
LINE
  5
1BA
330
17
100
AcDbEntity
  8
0
100
AcDbLine
 10
16223.265690143307
 20
-1586.9104647338715
 30
0.0
 11
16224.265690143307
 21
-1586.9104658552167
 31
0.0
  0
LINE
  5
1BB
330
17
100
AcDbEntity
  8
0
100
AcDbLine
 10
16221.390692526162
 20
-1584.7854626313526
 30
0.0
 11
16221.390691965491
 21
-1585.2854626313526
 31
0.0
  0
LINE
  5
1BC
330
17
100
AcDbEntity
  8
0
100
AcDbLine
 10
16218.26569575003
 20
-1581.910459127155
 30
0.0
 11
16218.265694909023
 21
-1582.660459127155
 31
0.0
  0
LINE
  5
1BD
330
17
100
AcDbEntity
  8
0
100
AcDbLine
 10
16225.015521727793
 20
-1741.9105103724194
 30
0.0
 11
16225.0156338622
 21
-1641.9105103853833
 31
0.0
  0
LINE
  5
1BE
330
17
100
AcDbEntity
  8
0
100
AcDbLine
 10
16225.015636104887
 20
-1639.910510385387
 30
0.0
 11
16225.015680958652
 21
-1599.910512383192
 31
0.0
  0
LINE
  5
1BF
330
17
100
AcDbEntity
  8
0
100
AcDbLine
 10
16232.889823136371
 20
-1640.9105192131826
 30
0.0
 11
16232.70109313637
 21
-1640.9105190015505
 31
0.0
  0
LINE
  5
1C0
330
17
100
AcDbEntity
  8
0
100
AcDbLine
 10
16232.341449750114
 20
-1640.1858451693622
 30
0.0
 11
16232.889822257712
 21
-1639.9105192131808
 31
0.0
  0
ARC
  5
1C1
330
17
100
AcDbEntity
  8
0
100
AcDbCircle
 10
16232.45109313637
 20
-1640.910518721215
 30
-0.3403031765680179
 40
0.24999999999999997
100
AcDbArc
 50
359.99993575280354
 51
89.99993575186559
  0
ARC
  5
1C2
330
17
100
AcDbEntity
  8
0
100
AcDbCircle
 10
16232.45109369704
 20
-1640.410518721215
 30
-0.3403031765680179
 40
0.24999999999999997
100
AcDbArc
 50
116.01304605069761
 51
269.99993575186556
  0
ARC
  5
1C3
330
17
100
AcDbEntity
  8
0
100
AcDbCircle
 10
16234.45109313637
 20
-1640.9105209639035
 30
-0.3403031765680179
 40
0.24999999999999997
100
AcDbArc
 50
359.99993575280354
 51
89.99993575186559
  0
ARC
  5
1C4
330
17
100
AcDbEntity
  8
0
100
AcDbCircle
 10
16234.45109369704
 20
-1640.4105209639035
 30
-0.3403031765680179
 40
0.24999999999999997
100
AcDbArc
 50
116.01304605069761
 51
269.99993575186556
  0
LINE
  5
1C5
330
17
100
AcDbEntity
  8
0
100
AcDbLine
 10
16234.889823136371
 20
-1640.9105214558692
 30
0.0
 11
16234.70109313637
 21
-1640.910521244239
 31
0.0
  0
LINE
  5
1C6
330
17
100
AcDbEntity
  8
0
100
AcDbLine
 10
16234.889820015029
 20
-1641.9105194558686
 30
0.0
 11
16235.639820015029
 21
-1641.9105202968765
 31
0.0
  0
LINE
  5
1C7
330
17
100
AcDbEntity
  8
0
100
AcDbLine
 10
16234.341449750114
 20
-1640.1858474120506
 30
0.0
 11
16234.889822257712
 21
-1639.9105214558692
 31
0.0
  0
LINE
  5
1C8
330
17
100
AcDbEntity
  8
0
100
AcDbLine
 10
16224.26563698355
 20
-1640.9105095425018
 30
0.0
 11
16224.076906983548
 21
-1640.9105093308715
 31
0.0
  0
LINE
  5
1C9
330
17
100
AcDbEntity
  8
0
100
AcDbLine
 10
16224.265633862204
 20
-1641.9105095424982
 30
0.0
 11
16224.265634983549
 21
-1640.9105095425
 31
0.0
  0
LINE
  5
1CA
330
17
100
AcDbEntity
  8
0
100
AcDbLine
 10
16223.717263597293
 20
-1640.1858354986832
 30
0.0
 11
16224.26563610489
 21
-1639.9105095425
 31
0.0
  0
ARC
  5
1CB
330
17
100
AcDbEntity
  8
0
100
AcDbCircle
 10
16223.826906983548
 20
-1640.9105090505343
 30
0.7485075755405345
 40
0.24999999999999997
100
AcDbArc
 50
359.99993575280354
 51
89.99993575186559
  0
ARC
  5
1CC
330
17
100
AcDbEntity
  8
0
100
AcDbCircle
 10
16223.826907544219
 20
-1640.4105090505343
 30
0.7485075755405345
 40
0.24999999999999997
100
AcDbArc
 50
116.01304605069761
 51
269.99993575186556
  0
LINE
  5
1CD
330
17
100
AcDbEntity
  8
0
100
AcDbLine
 10
16233.641601716674
 20
-1641.9105200581923
 30
0.0
 11
16233.64148958226
 21
-1741.9105220451563
 31
0.0
  0
LINE
  5
1CE
330
17
100
AcDbEntity
  8
0
100
AcDbLine
 10
16232.891601716612
 20
-1641.910521215175
 30
0.0
 11
16232.891602837957
 21
-1640.910521215175
 31
0.0
  0
LINE
  5
1CF
330
17
100
AcDbEntity
  8
0
100
AcDbLine
 10
16233.641603959299
 20
-1639.9105220561848
 30
0.0
 11
16233.641648813064
 21
-1599.91052204329
 31
0.0
  0
LINE
  5
1D0
330
17
100
AcDbEntity
  8
0
100
AcDbLine
 10
16235.641603959299
 20
-1639.9105242988733
 30
0.0
 11
16235.641648813216
 21
-1599.9105242861822
 31
0.0
  0
LINE
  5
1D1
330
17
100
AcDbEntity
  8
0
100
AcDbLine
 10
16234.891601716612
 20
-1641.9105234578635
 30
0.0
 11
16234.891602837957
 21
-1640.9105234578635
 31
0.0
  0
LINE
  5
1D2
330
17
100
AcDbEntity
  8
0
100
AcDbLine
 10
16225.012980465146
 20
-1764.4107424960048
 30
0.0
 11
16225.012997845975
 21
-1748.910742496003
 31
0.0
  0
LINE
  5
1D3
330
17
100
AcDbEntity
  8
0
100
AcDbLine
 10
16223.974743419853
 20
-1746.9107413317606
 30
0.0
 11
16223.974741177162
 21
-1748.9107413317588
 31
0.0
  0
LINE
  5
1D4
330
17
100
AcDbEntity
  8
0
100
AcDbLine
 10
16225.196393069938
 20
-1582.6602884620802
 30
0.0
 11
16219.265694909765
 21
-1582.6605189324123
 31
0.0
  0
LINE
  5
1D5
330
17
100
AcDbEntity
  8
0
100
AcDbLine
 10
16517.917688760026
 20
-1640.6613558779663
 30
0.0
 11
16223.80634739709
 21
-1640.6613558779582
 31
0.0
  0
LINE
  5
1D6
330
17
100
AcDbEntity
  8
0
100
AcDbLine
 10
16517.917688760026
 20
-1640.9113558779718
 30
0.0
 11
16224.076905549311
 21
-1640.91135587798
 31
0.0
  0
LINE
  5
1D7
330
17
100
AcDbEntity
  8
0
100
AcDbLine
 10
16404.64887132295
 20
-1641.910509542517
 30
0.0
 11
16225.015633862426
 21
-1641.910308111852
 31
0.0
  0
LINE
  5
1D8
330
17
100
AcDbEntity
  8
0
100
AcDbLine
 10
16517.917688760026
 20
-1639.9105095425066
 30
0.0
 11
16225.015636105256
 21
-1639.9101810984953
 31
0.0
  0
ARC
  5
1D9
330
17
100
AcDbEntity
  8
0
100
AcDbCircle
 10
16574.456520929787
 20
-1582.795819315442
 30
2.1776215042060394
 40
2.0668911301654735
100
AcDbArc
 50
285.7158649655514
 51
3.7554574459945913
  0
ARC
  5
1DA
330
17
100
AcDbEntity
  8
0
100
AcDbCircle
 10
16573.580118520284
 20
-1598.9104470131508
 30
2.1776215042060394
 40
0.24999999999999997
100
AcDbArc
 50
90.00006424813441
 51
180.00006424719643
  0
ARC
  5
1DB
330
17
100
AcDbEntity
  8
0
100
AcDbCircle
 10
16573.58011795961
 20
-1598.4104470131508
 30
2.1776215042060394
 40
0.24999999999999997
100
AcDbArc
 50
270.00006424813444
 51
63.9869539493024
  0
LINE
  5
1DC
330
17
100
AcDbEntity
  8
0
100
AcDbLine
 10
16575.141391642133
 20
-1599.910445262428
 30
0.0
 11
16575.141390520792
 21
-1598.910445262428
 31
0.0
  0
LINE
  5
1DD
330
17
100
AcDbEntity
  8
0
100
AcDbLine
 10
16575.141377064658
 20
-1586.9104432624365
 30
0.0
 11
16575.141389399447
 21
-1597.910445262428
 31
0.0
  0
LINE
  5
1DE
330
17
100
AcDbEntity
  8
0
100
AcDbLine
 10
16575.689761907048
 20
-1598.1857712186113
 30
0.0
 11
16575.141389399447
 21
-1597.910445262428
 31
0.0
  0
LINE
  5
1DF
330
17
100
AcDbEntity
  8
0
100
AcDbLine
 10
16575.641377064658
 20
-1586.910442701764
 30
0.0
 11
16575.141377064658
 21
-1586.9104432624365
 31
0.0
  0
LINE
  5
1E0
330
17
100
AcDbEntity
  8
0
100
AcDbLine
 10
16577.0163746818
 20
-1584.7854411599176
 30
0.0
 11
16577.01637524247
 21
-1585.2854411599176
 31
0.0
  0
ARC
  5
1E1
330
17
100
AcDbEntity
  8
0
100
AcDbCircle
 10
16576.456520930293
 20
-1582.7958170727536
 30
2.1776215041997835
 40
2.0668911301654735
100
AcDbArc
 50
285.7158649655514
 51
3.7554574459945913
  0
LINE
  5
1E2
330
17
100
AcDbEntity
  8
0
100
AcDbLine
 10
16579.01897296147
 20
-1581.9104389143151
 30
0.0
 11
16579.018973802475
 21
-1582.6604389143133
 31
0.0
  0
ARC
  5
1E3
330
17
100
AcDbEntity
  8
0
100
AcDbCircle
 10
16575.580118520793
 20
-1598.9104447704624
 30
2.1776215041997835
 40
0.24999999999999997
100
AcDbArc
 50
90.00006424813441
 51
180.00006424719643
  0
ARC
  5
1E4
330
17
100
AcDbEntity
  8
0
100
AcDbCircle
 10
16575.58011796012
 20
-1598.4104447704624
 30
2.1776215041997835
 40
0.24999999999999997
100
AcDbArc
 50
270.00006424813444
 51
63.9869539493024
  0
LINE
  5
1E5
330
17
100
AcDbEntity
  8
0
100
AcDbLine
 10
16573.141391641624
 20
-1599.9104475051147
 30
0.0
 11
16573.141390520283
 21
-1598.9104475051165
 31
0.0
  0
LINE
  5
1E6
330
17
100
AcDbEntity
  8
0
100
AcDbLine
 10
16573.14137706415
 20
-1586.910445505125
 30
0.0
 11
16573.141389398937
 21
-1597.9104475051165
 31
0.0
  0
LINE
  5
1E7
330
17
100
AcDbEntity
  8
0
100
AcDbLine
 10
16573.68976190654
 20
-1598.185773461298
 30
0.0
 11
16573.141389398937
 21
-1597.9104475051165
 31
0.0
  0
LINE
  5
1E8
330
17
100
AcDbEntity
  8
0
100
AcDbLine
 10
16573.64137706415
 20
-1586.9104449444524
 30
0.0
 11
16573.14137706415
 21
-1586.910445505125
 31
0.0
  0
LINE
  5
1E9
330
17
100
AcDbEntity
  8
0
100
AcDbLine
 10
16575.016374681294
 20
-1584.785443402606
 30
0.0
 11
16575.016375241965
 21
-1585.285443402606
 31
0.0
  0
LINE
  5
1EA
330
17
100
AcDbEntity
  8
0
100
AcDbLine
 10
16577.01897296096
 20
-1581.9104411570017
 30
0.0
 11
16577.018973801965
 21
-1582.6604411570017
 31
0.0
  0
ARC
  5
1EB
330
17
100
AcDbEntity
  8
0
100
AcDbCircle
 10
16586.640563844634
 20
-1582.6604262244211
 30
0.340303176557029
 40
2.1249999999999996
100
AcDbArc
 50
270.000033248397
 51
6.424834284788994e-05
  0
ARC
  5
1EC
330
17
100
AcDbEntity
  8
0
100
AcDbCircle
 10
16584.204310066478
 20
-1598.9104309563093
 30
0.340303176557029
 40
0.24999999999999997
100
AcDbArc
 50
90.00006424813441
 51
180.00006424719643
  0
ARC
  5
1ED
330
17
100
AcDbEntity
  8
0
100
AcDbCircle
 10
16584.204309505807
 20
-1598.4104309563093
 30
0.340303176557029
 40
0.24999999999999997
100
AcDbArc
 50
270.00006424813444
 51
63.9869539493024
  0
LINE
  5
1EE
330
17
100
AcDbEntity
  8
0
100
AcDbLine
 10
16583.765583187822
 20
-1599.9104314482731
 30
0.0
 11
16583.765582066477
 21
-1598.910431448275
 31
0.0
  0
LINE
  5
1EF
330
17
100
AcDbEntity
  8
0
100
AcDbLine
 10
16583.765568610346
 20
-1586.9104294482834
 30
0.0
 11
16583.765580945135
 21
-1597.910431448275
 31
0.0
  0
LINE
  5
1F0
330
17
100
AcDbEntity
  8
0
100
AcDbLine
 10
16584.313953452733
 20
-1598.1857574044564
 30
0.0
 11
16583.765580945135
 21
-1597.910431448275
 31
0.0
  0
LINE
  5
1F1
330
17
100
AcDbEntity
  8
0
100
AcDbLine
 10
16584.765568610346
 20
-1586.9104283269382
 30
0.0
 11
16583.765568610346
 21
-1586.9104294482834
 31
0.0
  0
LINE
  5
1F2
330
17
100
AcDbEntity
  8
0
100
AcDbLine
 10
16586.640566227492
 20
-1584.7854262244193
 30
0.0
 11
16586.640566788163
 21
-1585.2854262244193
 31
0.0
  0
LINE
  5
1F3
330
17
100
AcDbEntity
  8
0
100
AcDbLine
 10
16589.765563003624
 20
-1581.9104227202217
 30
0.0
 11
16589.76556384463
 21
-1582.6604227202217
 31
0.0
  0
LINE
  5
1F4
330
17
100
AcDbEntity
  8
0
100
AcDbLine
 10
16583.01573702586
 20
-1741.910473965486
 30
0.0
 11
16583.015624891454
 21
-1641.91047397845
 31
0.0
  0
LINE
  5
1F5
330
17
100
AcDbEntity
  8
0
100
AcDbLine
 10
16583.015622648767
 20
-1639.9104739784536
 30
0.0
 11
16583.015577795002
 21
-1599.9104759762588
 31
0.0
  0
LINE
  5
1F6
330
17
100
AcDbEntity
  8
0
100
AcDbLine
 10
16574.391438738567
 20
-1641.910481649263
 30
0.0
 11
16574.39155087298
 21
-1741.910483636227
 31
0.0
  0
ARC
  5
1F7
330
17
100
AcDbEntity
  8
0
100
AcDbCircle
 10
16575.580165617284
 20
-1640.9104823142818
 30
-0.3403031765680179
 40
0.24999999999999997
100
AcDbArc
 50
90.00006424813441
 51
180.00006424719643
  0
ARC
  5
1F8
330
17
100
AcDbEntity
  8
0
100
AcDbCircle
 10
16573.580165617284
 20
-1640.9104845569702
 30
-0.3403031765680179
 40
0.24999999999999997
100
AcDbArc
 50
90.00006424813441
 51
180.00006424719643
  0
ARC
  5
1F9
330
17
100
AcDbEntity
  8
0
100
AcDbCircle
 10
16573.580165056614
 20
-1640.4104845569702
 30
-0.3403031765680179
 40
0.24999999999999997
100
AcDbArc
 50
270.00006424813444
 51
63.9869539493024
  0
LINE
  5
1FA
330
17
100
AcDbEntity
  8
0
100
AcDbLine
 10
16574.391436495942
 20
-1639.9104836472554
 30
0.0
 11
16574.391391642177
 21
-1599.9104836343606
 31
0.0
  0
LINE
  5
1FB
330
17
100
AcDbEntity
  8
0
100
AcDbLine
 10
16572.391436495942
 20
-1639.9104858899439
 30
0.0
 11
16572.391391642024
 21
-1599.9104858772528
 31
0.0
  0
LINE
  5
1FC
330
17
100
AcDbEntity
  8
0
100
AcDbLine
 10
16573.14143873863
 20
-1641.910485048934
 30
0.0
 11
16573.141437617283
 21
-1640.910485048934
 31
0.0
  0
LINE
  5
1FD
330
17
100
AcDbEntity
  8
0
100
AcDbLine
 10
16583.765621770104
 20
-1640.9104731355685
 30
0.0
 11
16583.954351770106
 21
-1640.9104729239382
 31
0.0
  0
LINE
  5
1FE
330
17
100
AcDbEntity
  8
0
100
AcDbLine
 10
16583.76562489145
 20
-1641.9104731355649
 30
0.0
 11
16583.765623770105
 21
-1640.9104731355667
 31
0.0
  0
LINE
  5
1FF
330
17
100
AcDbEntity
  8
0
100
AcDbLine
 10
16584.31399515636
 20
-1640.18579909175
 30
0.0
 11
16583.765622648763
 21
-1639.9104731355667
 31
0.0
  0
ARC
  5
200
330
17
100
AcDbEntity
  8
0
100
AcDbCircle
 10
16584.204351770106
 20
-1640.910472643601
 30
0.7485075755405345
 40
0.24999999999999997
100
AcDbArc
 50
90.00006424813441
 51
180.00006424719643
  0
LINE
  5
201
330
17
100
AcDbEntity
  8
0
100
AcDbLine
 10
16575.139653915696
 20
-1640.9104848082454
 30
0.0
 11
16575.328383915697
 21
-1640.9104845966133
 31
0.0
  0
LINE
  5
202
330
17
100
AcDbEntity
  8
0
100
AcDbLine
 10
16575.13965703704
 20
-1641.9104848082418
 30
0.0
 11
16575.139655915696
 21
-1640.9104848082418
 31
0.0
  0
LINE
  5
203
330
17
100
AcDbEntity
  8
0
100
AcDbLine
 10
16575.688027301952
 20
-1640.185810764425
 30
0.0
 11
16575.139654794355
 21
-1639.9104848082436
 31
0.0
  0
ARC
  5
204
330
17
100
AcDbEntity
  8
0
100
AcDbCircle
 10
16575.578383355027
 20
-1640.410484316278
 30
-0.3403031765680179
 40
0.24999999999999997
100
AcDbArc
 50
270.00006424813444
 51
63.9869539493024
  0
LINE
  5
205
330
17
100
AcDbEntity
  8
0
100
AcDbLine
 10
16573.139653915696
 20
-1640.910487050932
 30
0.0
 11
16573.328383915697
 21
-1640.9104868393017
 31
0.0
  0
LINE
  5
206
330
17
100
AcDbEntity
  8
0
100
AcDbLine
 10
16573.139657037038
 20
-1641.9104850509314
 30
0.0
 11
16572.389657037038
 21
-1641.9104858919393
 31
0.0
  0
LINE
  5
207
330
17
100
AcDbEntity
  8
0
100
AcDbLine
 10
16573.688027301952
 20
-1640.1858130071134
 30
0.0
 11
16573.139654794355
 21
-1639.910487050932
 31
0.0
  0
LINE
  5
208
330
17
100
AcDbEntity
  8
0
100
AcDbLine
 10
16583.01827828851
 20
-1764.4107060890715
 30
0.0
 11
16583.01826090768
 21
-1748.9107060890697
 31
0.0
  0
LINE
  5
209
330
17
100
AcDbEntity
  8
0
100
AcDbLine
 10
16584.056515333803
 20
-1746.9107049248273
 30
0.0
 11
16584.056517576493
 21
-1748.9107049248255
 31
0.0
  0
LINE
  5
20A
330
17
100
AcDbEntity
  8
0
100
AcDbLine
 10
16404.64887132295
 20
-1746.9103813646427
 30
0.0
 11
16584.056515333144
 21
-1746.9101176389609
 31
0.0
  0
LINE
  5
20B
330
17
100
AcDbEntity
  8
0
100
AcDbLine
 10
16404.64887132295
 20
-1748.9103798280962
 30
0.0
 11
16583.01826090702
 21
-1748.910118907492
 31
0.0
  0
LINE
  5
20C
330
17
100
AcDbEntity
  8
0
100
AcDbLine
 10
16404.64887132295
 20
-1764.4103794756468
 30
0.0
 11
16582.018278287844
 21
-1764.4101200288394
 31
0.0
  0
LINE
  5
20D
330
17
100
AcDbEntity
  8
0
100
AcDbLine
 10
16566.113673157182
 20
-1640.6613558779711
 30
0.0
 11
16584.183355649453
 21
-1640.6613558779718
 31
0.0
  0
LINE
  5
20E
330
17
100
AcDbEntity
  8
0
100
AcDbLine
 10
16566.113673157182
 20
-1640.911355877967
 30
0.0
 11
16583.765623771098
 21
-1640.9113558779663
 31
0.0
  0
LINE
  5
20F
330
17
100
AcDbEntity
  8
0
100
AcDbLine
 10
16404.64887132295
 20
-1641.910509542517
 30
0.0
 11
16517.917688760026
 21
-1641.9103825290813
 31
0.0
  0
LINE
  5
210
330
17
100
AcDbEntity
  8
0
100
AcDbLine
 10
16566.113673157182
 20
-1641.9103284847492
 30
0.0
 11
16583.015624891454
 21
-1641.91047397845
 31
0.0
  0
LINE
  5
211
330
17
100
AcDbEntity
  8
0
100
AcDbLine
 10
16566.113673157182
 20
-1639.9105095425018
 30
0.0
 11
16583.015622648807
 21
-1639.9105103835905
 31
0.0
  0
LINE
  5
212
330
17
100
AcDbEntity
  8
0
100
AcDbLine
 10
16221.390692526162
 20
-1584.7854626313526
 30
0.0
 11
16586.6405662289
 21
-1584.78668450359
 31
0.0
  0
LINE
  5
213
330
17
100
AcDbEntity
  8
0
100
AcDbLine
 10
16221.390692526162
 20
-1585.2854626313556
 30
0.0
 11
16586.604193719744
 21
-1585.2866844628186
 31
0.0
  0
LINE
  5
214
330
17
100
AcDbEntity
  8
0
100
AcDbLine
 10
16224.265690143307
 20
-1586.9104658552167
 30
0.0
 11
16583.765568611816
 21
-1586.911741751953
 31
0.0
  0
LINE
  5
215
330
17
100
AcDbEntity
  8
0
100
AcDbLine
 10
16583.76558206793
 20
-1598.9117289299138
 30
0.0
 11
16224.265676687177
 21
-1598.9104678552083
 31
0.0
  0
LINE
  5
216
330
17
100
AcDbEntity
  8
0
100
AcDbLine
 10
16225.015680957742
 20
-1599.91132309502
 30
0.0
 11
16583.76558318927
 21
-1599.9117253771337
 31
0.0
  0
LINE
  5
217
330
17
100
AcDbEntity
  8
0
100
AcDbLine
 10
16225.196393069938
 20
-1582.6614829520101
 30
0.0
 11
16588.765563845263
 21
-1582.6617118478362
 31
0.0
  0
LINE
  5
218
330
17
100
AcDbEntity
  8
0
100
AcDbLine
 10
16584.20073934438
 20
-1598.6616857800993
 30
0.0
 11
16223.84947654256
 21
-1598.661484440672
 31
0.340303176557029
  0
LINE
  5
219
330
17
100
AcDbEntity
  8
0
100
AcDbLine
 10
16583.765629786616
 20
-1597.9116852921902
 30
0.0
 11
16224.265677807382
 21
-1597.9114833970193
 31
0.0
  0
LINE
  5
21A
330
17
100
AcDbEntity
  8
0
100
AcDbLine
 10
16404.648723307066
 20
-1577.6608330231516
 30
-1.887379141862766e-15
 11
16603.019764355937
 21
-1577.6606557999899
 31
-1.887379141862766e-15
  0
LINE
  5
21B
330
17
100
AcDbEntity
  8
0
100
AcDbLine
 10
16404.648723307066
 20
-1576.9108330613587
 30
-1.887379141862766e-15
 11
16599.015606620866
 21
-1576.9106557999899
 31
-1.887379141862766e-15
  0
LINE
  5
21C
330
17
100
AcDbEntity
  8
0
100
AcDbLine
 10
16404.648723307066
 20
-1581.0459705450542
 30
-1.887379141862766e-15
 11
16599.015606620866
 21
-1581.0457932837257
 31
-1.887379141862766e-15
  0
LINE
  5
21D
330
17
100
AcDbEntity
  8
0
100
AcDbLine
 10
16405.398723307066
 20
-1577.6608324592535
 30
-1.887379141862766e-15
 11
16204.99964911859
 21
-1577.6606557999899
 31
-1.887379141862766e-15
  0
LINE
  5
21E
330
17
100
AcDbEntity
  8
0
100
AcDbLine
 10
16405.398723307066
 20
-1576.910832485286
 30
-1.887379141862766e-15
 11
16209.003806853661
 21
-1576.9106557999899
 31
-1.887379141862766e-15
  0
LINE
  5
21F
330
17
100
AcDbEntity
  8
0
100
AcDbLine
 10
16405.398723307066
 20
-1581.0459699689816
 30
-1.887379141862766e-15
 11
16209.003806853661
 21
-1581.0457932837257
 31
-1.887379141862766e-15
  0
ARC
  5
220
330
17
100
AcDbEntity
  8
0
100
AcDbCircle
 10
16547.329983982574
 20
-1487.1579104710115
 30
-0.34030317655698217
 40
0.5
100
AcDbArc
 50
90.0
 51
179.99999999885358
  0
ARC
  5
221
330
17
100
AcDbEntity
  8
0
100
AcDbCircle
 10
16547.329983982574
 20
-1486.1579104710115
 30
-0.34030317655698217
 40
0.5
100
AcDbArc
 50
270.0
 51
63.98688970122333
  0
LINE
  5
222
330
17
100
AcDbEntity
  8
0
100
AcDbLine
 10
16546.45252398257
 20
-1487.1579104710115
 30
0.0
 11
16546.829983982574
 21
-1487.1579104710115
 31
0.0
  0
LINE
  5
223
330
17
100
AcDbEntity
  8
0
100
AcDbLine
 10
16546.452527982572
 20
-1489.1579104710115
 30
0.0
 11
16546.452527982572
 21
-1487.1579104710115
 31
0.0
  0
LINE
  5
224
330
17
100
AcDbEntity
  8
0
100
AcDbLine
 10
16546.452527982572
 20
-1489.157906471012
 30
0.0
 11
16545.702527982572
 21
-1489.1579104710115
 31
0.0
  0
LINE
  5
225
330
17
100
AcDbEntity
  8
0
100
AcDbLine
 10
16547.5492723803
 20
-1485.708563613204
 30
0.0
 11
16546.452527982572
 21
-1485.1579104710115
 31
0.0
  0
LINE
  5
226
330
17
100
AcDbEntity
  8
0
100
AcDbLine
 10
16546.452527982572
 20
-1487.1579104710115
 30
0.0
 11
16262.620135322406
 21
-1487.1577526196709
 31
0.0
  0
LINE
  5
227
330
17
100
AcDbEntity
  8
0
100
AcDbLine
 10
16546.45252398257
 20
-1485.1579104710097
 30
0.0
 11
16262.62005186796
 21
-1485.1577526197382
 31
0.0
  0
LINE
  5
228
330
17
100
AcDbEntity
  8
0
100
AcDbLine
 10
16547.329983982574
 20
-1486.6579104710115
 30
0.0
 11
16261.749408111637
 21
-1486.6577559976051
 31
0.0
  0
LINE
  5
229
330
17
100
AcDbEntity
  8
0
100
AcDbLine
 10
16545.702527982572
 20
-1489.1579104710115
 30
0.0
 11
16263.370135344256
 21
-1489.1577107189507
 31
0.0
  0
ARC
  5
22A
330
17
100
AcDbEntity
  8
0
100
AcDbCircle
 10
16261.742679322404
 20
-1487.1577107189505
 30
-0.34030317655698217
 40
0.5
100
AcDbArc
 50
1.1464245738241618e-09
 51
90.0
  0
ARC
  5
22B
330
17
100
AcDbEntity
  8
0
100
AcDbCircle
 10
16261.742679322404
 20
-1486.1577107189505
 30
-0.34030317655698217
 40
0.5
100
AcDbArc
 50
116.01311029877667
 51
270.0
  0
LINE
  5
22C
330
17
100
AcDbEntity
  8
0
100
AcDbLine
 10
16262.620139322407
 20
-1487.1577107189505
 30
0.0
 11
16262.242679322404
 21
-1487.1577107189505
 31
0.0
  0
LINE
  5
22D
330
17
100
AcDbEntity
  8
0
100
AcDbLine
 10
16262.620135322406
 20
-1489.1577107189505
 30
0.0
 11
16262.620135322406
 21
-1487.1577107189505
 31
0.0
  0
LINE
  5
22E
330
17
100
AcDbEntity
  8
0
100
AcDbLine
 10
16262.620135322406
 20
-1489.157706718951
 30
0.0
 11
16263.370135322406
 21
-1489.1577107189505
 31
0.0
  0
LINE
  5
22F
330
17
100
AcDbEntity
  8
0
100
AcDbLine
 10
16261.523390924678
 20
-1485.708363861143
 30
0.0
 11
16262.620135322406
 21
-1485.1577107189505
 31
0.0
  0
LINE
  5
230
330
17
100
AcDbEntity
  8
0
100
AcDbLine
 10
16542.015680958604
 20
-1624.4116160774383
 30
0.0
 11
16542.01570871356
 21
-1739.4107726682896
 31
0.0
  0
LINE
  5
231
330
17
100
AcDbEntity
  8
0
100
AcDbLine
 10
16526.515680958604
 20
-1656.4116160714502
 30
0.0
 11
16557.515680958604
 21
-1656.4116160714502
 31
0.0
  0
LINE
  5
232
330
17
100
AcDbEntity
  8
0
100
AcDbLine
 10
16526.515680958604
 20
-1640.4116160714502
 30
0.0
 11
16557.515680958604
 21
-1640.4116160714502
 31
0.0
  0
LINE
  5
233
330
17
100
AcDbEntity
  8
0
100
AcDbLine
 10
16526.515680958604
 20
-1688.4116160714502
 30
0.0
 11
16557.515680958604
 21
-1688.4116160714502
 31
0.0
  0
LINE
  5
234
330
17
100
AcDbEntity
  8
0
100
AcDbLine
 10
16526.515680958604
 20
-1672.4116160714502
 30
0.0
 11
16557.515680958604
 21
-1672.4116160714502
 31
0.0
  0
LINE
  5
235
330
17
100
AcDbEntity
  8
0
100
AcDbLine
 10
16526.515680958604
 20
-1704.4116160714502
 30
0.0
 11
16557.515680958604
 21
-1704.4116160714502
 31
0.0
  0
LINE
  5
236
330
17
100
AcDbEntity
  8
0
100
AcDbLine
 10
16526.515680958604
 20
-1720.4116160714502
 30
0.0
 11
16557.515680958604
 21
-1720.4116160714502
 31
0.0
  0
LINE
  5
237
330
17
100
AcDbEntity
  8
0
100
AcDbLine
 10
16594.977047617806
 20
-1764.4118104269999
 30
-12.218747285821806
 11
16594.977030236976
 21
-1748.911810426998
 31
-12.218747285821806
  0
LINE
  5
238
330
17
100
AcDbEntity
  8
0
100
AcDbLine
 10
16596.0152846631
 20
-1746.9118092627557
 30
-12.218747285821806
 11
16596.01528690579
 21
-1748.9118092627539
 31
-12.218747285821806
  0
LINE
  5
239
330
17
100
AcDbEntity
  8
0
100
AcDbLine
 10
16565.363675157183
 20
-1598.911618074707
 30
0.0
 11
16565.17494515718
 21
-1598.911618074707
 31
0.0
  0
LINE
  5
23A
330
17
100
AcDbEntity
  8
0
100
AcDbLine
 10
16565.363673157182
 20
-1599.911618074707
 30
0.0
 11
16565.363673157182
 21
-1598.911618074707
 31
0.0
  0
LINE
  5
23B
330
17
100
AcDbEntity
  8
0
100
AcDbLine
 10
16565.363673157182
 20
-1599.911616074708
 30
0.0
 11
16566.113673157182
 21
-1599.911616074708
 31
0.0
  0
LINE
  5
23C
330
17
100
AcDbEntity
  8
0
100
AcDbLine
 10
16565.363673157182
 20
-1586.911616074708
 30
0.0
 11
16565.363673157182
 21
-1597.911618074707
 31
0.0
  0
LINE
  5
23D
330
17
100
AcDbEntity
  8
0
100
AcDbLine
 10
16564.81530095832
 20
-1598.1869446458031
 30
0.0
 11
16565.363673157182
 21
-1597.911618074707
 31
0.0
  0
LINE
  5
23E
330
17
100
AcDbEntity
  8
0
100
AcDbLine
 10
16564.863673157182
 20
-1586.911616074708
 30
0.0
 11
16565.363673157182
 21
-1586.911616074708
 31
0.0
  0
LINE
  5
23F
330
17
100
AcDbEntity
  8
0
100
AcDbLine
 10
16561.48607165365
 20
-1582.661616074708
 30
0.0
 11
16561.98607165365
 21
-1582.661616074708
 31
0.0
  0
LINE
  5
240
330
17
100
AcDbEntity
  8
0
100
AcDbLine
 10
16563.488673157182
 20
-1584.786616074708
 30
0.0
 11
16563.488673157182
 21
-1585.286616074708
 31
0.0
  0
ARC
  5
241
330
17
100
AcDbEntity
  8
0
100
AcDbCircle
 10
16564.048524677637
 20
-1582.7969913597562
 30
1.0888107520912411
 40
2.066891130165474
100
AcDbArc
 50
176.24460680233193
 51
254.28419928272413
  0
LINE
  5
242
330
17
100
AcDbEntity
  8
0
100
AcDbLine
 10
16561.48607165365
 20
-1581.911616074708
 30
0.0
 11
16561.48607165365
 21
-1582.661616074708
 31
0.0
  0
ARC
  5
243
330
17
100
AcDbEntity
  8
0
100
AcDbCircle
 10
16564.92494515718
 20
-1598.911618074707
 30
1.0888107520912411
 40
0.25
100
AcDbArc
 50
1.1464245738241618e-09
 51
90.0
  0
ARC
  5
244
330
17
100
AcDbEntity
  8
0
100
AcDbCircle
 10
16564.92494515718
 20
-1598.411618074707
 30
1.0888107520912411
 40
0.25
100
AcDbArc
 50
116.01311029877638
 51
270.0
  0
LINE
  5
245
330
17
100
AcDbEntity
  8
0
100
AcDbLine
 10
16518.667686760025
 20
-1598.911618074707
 30
0.0
 11
16518.856416760027
 21
-1598.911618074707
 31
0.0
  0
LINE
  5
246
330
17
100
AcDbEntity
  8
0
100
AcDbLine
 10
16518.667688760026
 20
-1599.911618074707
 30
0.0
 11
16518.667688760026
 21
-1598.911618074707
 31
0.0
  0
LINE
  5
247
330
17
100
AcDbEntity
  8
0
100
AcDbLine
 10
16518.667688760026
 20
-1599.911616074708
 30
0.0
 11
16517.917688760026
 21
-1599.911616074708
 31
0.0
  0
LINE
  5
248
330
17
100
AcDbEntity
  8
0
100
AcDbLine
 10
16518.667688760026
 20
-1586.911616074708
 30
0.0
 11
16518.667688760026
 21
-1597.911618074707
 31
0.0
  0
LINE
  5
249
330
17
100
AcDbEntity
  8
0
100
AcDbLine
 10
16519.21606095889
 20
-1598.1869446458031
 30
0.0
 11
16518.667688760026
 21
-1597.911618074707
 31
0.0
  0
LINE
  5
24A
330
17
100
AcDbEntity
  8
0
100
AcDbLine
 10
16519.167688760026
 20
-1586.911616074708
 30
0.0
 11
16518.667688760026
 21
-1586.911616074708
 31
0.0
  0
LINE
  5
24B
330
17
100
AcDbEntity
  8
0
100
AcDbLine
 10
16522.54529026356
 20
-1582.661616074708
 30
0.0
 11
16522.04529026356
 21
-1582.661616074708
 31
0.0
  0
LINE
  5
24C
330
17
100
AcDbEntity
  8
0
100
AcDbLine
 10
16520.542688760026
 20
-1584.786616074708
 30
0.0
 11
16520.542688760026
 21
-1585.286616074708
 31
0.0
  0
ARC
  5
24D
330
17
100
AcDbEntity
  8
0
100
AcDbCircle
 10
16519.98283723957
 20
-1582.7969913597562
 30
1.0888107520912411
 40
2.066891130165474
100
AcDbArc
 50
285.7158007172759
 51
3.755393197668064
  0
LINE
  5
24E
330
17
100
AcDbEntity
  8
0
100
AcDbLine
 10
16522.54529026356
 20
-1581.911616074708
 30
0.0
 11
16522.54529026356
 21
-1582.661616074708
 31
0.0
  0
ARC
  5
24F
330
17
100
AcDbEntity
  8
0
100
AcDbCircle
 10
16519.106416760027
 20
-1598.911618074707
 30
1.0888107520912411
 40
0.25
100
AcDbArc
 50
90.0
 51
179.99999999885358
  0
ARC
  5
250
330
17
100
AcDbEntity
  8
0
100
AcDbCircle
 10
16519.106416760027
 20
-1598.411618074707
 30
1.0888107520912411
 40
0.25
100
AcDbArc
 50
270.0
 51
63.98688970122362
  0
ARC
  5
251
330
17
100
AcDbEntity
  8
0
100
AcDbCircle
 10
16517.106416759765
 20
-1640.910834178172
 30
-0.34030317655698217
 40
0.25
100
AcDbArc
 50
90.0
 51
179.99999999885358
  0
ARC
  5
252
330
17
100
AcDbEntity
  8
0
100
AcDbCircle
 10
16517.106416759765
 20
-1640.410834178172
 30
-0.34030317655698217
 40
0.25
100
AcDbArc
 50
270.0
 51
63.98688970122362
  0
ARC
  5
253
330
17
100
AcDbEntity
  8
0
100
AcDbCircle
 10
16517.9828372388
 20
-1582.7962094505056
 30
2.1776215042170755
 40
2.066891130165474
100
AcDbArc
 50
285.7158007172759
 51
3.755393197668064
  0
ARC
  5
254
330
17
100
AcDbEntity
  8
0
100
AcDbCircle
 10
16517.106416759256
 20
-1598.9108361654562
 30
2.1776215042170755
 40
0.25
100
AcDbArc
 50
90.0
 51
179.99999999885358
  0
ARC
  5
255
330
17
100
AcDbEntity
  8
0
100
AcDbCircle
 10
16517.106416759256
 20
-1598.4108361654562
 30
2.1776215042170755
 40
0.25
100
AcDbArc
 50
270.0
 51
63.98688970122362
  0
LINE
  5
256
330
17
100
AcDbEntity
  8
0
100
AcDbLine
 10
16515.917688759764
 20
-1639.910834178172
 30
0.0
 11
16515.91768875961
 21
-1599.9108341654573
 31
0.0
  0
LINE
  5
257
330
17
100
AcDbEntity
  8
0
100
AcDbLine
 10
16516.667686759763
 20
-1640.910834178172
 30
0.0
 11
16516.856416759765
 21
-1640.910834178172
 31
0.0
  0
LINE
  5
258
330
17
100
AcDbEntity
  8
0
100
AcDbLine
 10
16516.667688759764
 20
-1641.910834178172
 30
0.0
 11
16516.667688759764
 21
-1640.910834178172
 31
0.0
  0
LINE
  5
259
330
17
100
AcDbEntity
  8
0
100
AcDbLine
 10
16516.667688759764
 20
-1641.9108321781732
 30
0.0
 11
16515.917688759764
 21
-1641.9108321781732
 31
0.0
  0
LINE
  5
25A
330
17
100
AcDbEntity
  8
0
100
AcDbLine
 10
16517.216060958628
 20
-1640.1861607492683
 30
0.0
 11
16516.667688759764
 21
-1639.910834178172
 31
0.0
  0
LINE
  5
25B
330
17
100
AcDbEntity
  8
0
100
AcDbLine
 10
16516.667686759254
 20
-1598.9108361654562
 30
0.0
 11
16516.856416759256
 21
-1598.9108361654562
 31
0.0
  0
LINE
  5
25C
330
17
100
AcDbEntity
  8
0
100
AcDbLine
 10
16516.667688759255
 20
-1599.9108361654562
 30
0.0
 11
16516.667688759255
 21
-1598.9108361654562
 31
0.0
  0
LINE
  5
25D
330
17
100
AcDbEntity
  8
0
100
AcDbLine
 10
16516.667688759255
 20
-1599.9108341654573
 30
0.0
 11
16515.917688759255
 21
-1599.9108341654573
 31
0.0
  0
LINE
  5
25E
330
17
100
AcDbEntity
  8
0
100
AcDbLine
 10
16516.667688759255
 20
-1586.9108341654573
 30
0.0
 11
16516.667688759255
 21
-1597.9108361654562
 31
0.0
  0
LINE
  5
25F
330
17
100
AcDbEntity
  8
0
100
AcDbLine
 10
16517.21606095812
 20
-1598.1861627365524
 30
0.0
 11
16516.667688759255
 21
-1597.9108361654562
 31
0.0
  0
LINE
  5
260
330
17
100
AcDbEntity
  8
0
100
AcDbLine
 10
16517.167688759255
 20
-1586.9108341654573
 30
0.0
 11
16516.667688759255
 21
-1586.9108341654573
 31
0.0
  0
LINE
  5
261
330
17
100
AcDbEntity
  8
0
100
AcDbLine
 10
16520.545290262788
 20
-1582.6608341654573
 30
0.0
 11
16520.045290262788
 21
-1582.6608341654573
 31
0.0
  0
LINE
  5
262
330
17
100
AcDbEntity
  8
0
100
AcDbLine
 10
16518.542688759255
 20
-1584.7858341654573
 30
0.0
 11
16518.542688759255
 21
-1585.2858341654573
 31
0.0
  0
LINE
  5
263
330
17
100
AcDbEntity
  8
0
100
AcDbLine
 10
16520.545290262788
 20
-1581.9108341654573
 30
0.0
 11
16520.545290262788
 21
-1582.6608341654573
 31
0.0
  0
LINE
  5
264
330
17
100
AcDbEntity
  8
0
100
AcDbLine
 10
16517.917688760026
 20
-1599.9116160745025
 30
0.0
 11
16517.917688760026
 21
-1741.9108341672559
 31
0.0
  0
LINE
  5
265
330
17
100
AcDbEntity
  8
0
100
AcDbLine
 10
16566.113673157175
 20
-1741.9107637600673
 30
0.0
 11
16566.113673157182
 21
-1599.9116160745025
 31
0.0
  0
LINE
  5
266
330
17
100
AcDbEntity
  8
0
100
AcDbLine
 10
16226.012973734792
 20
-1770.4127887241261
 30
0.0
 11
16226.012973734789
 21
-1881.912788724128
 31
0.0
  0
LINE
  5
267
330
17
100
AcDbEntity
  8
0
100
AcDbLine
 10
16220.012973734792
 20
-1881.912788724128
 30
0.0
 11
16220.012973734792
 21
-1889.912788724128
 31
0.0
  0
LINE
  5
268
330
17
100
AcDbEntity
  8
0
100
AcDbLine
 10
16582.018285017657
 20
-1770.4116792041946
 30
0.0
 11
16582.01828501766
 21
-1881.9116792041964
 31
0.0
  0
LINE
  5
269
330
17
100
AcDbEntity
  8
0
100
AcDbLine
 10
16588.018285017657
 20
-1881.9116792041964
 30
0.0
 11
16588.018285017657
 21
-1889.9116792041964
 31
0.0
  0
LINE
  5
26A
330
17
100
AcDbEntity
  8
0
100
AcDbLine
 10
16593.977054346957
 20
-1770.412783542123
 30
-12.218747285821806
 11
16593.977054346964
 21
-1881.9127835421248
 31
-12.218747285821806
  0
LINE
  5
26B
330
17
100
AcDbEntity
  8
0
100
AcDbLine
 10
16599.977054346957
 20
-1881.9127835421248
 30
-12.218747285821806
 11
16599.977054346957
 21
-1889.9127835421248
 31
-12.218747285821806
  0
LINE
  5
26C
330
17
100
AcDbEntity
  8
0
100
AcDbLine
 10
16599.977054346957
 20
-1881.9127835421248
 30
-12.218747285821806
 11
16220.012973734792
 21
-1881.9127835421248
 31
0.0
  0
LINE
  5
26D
330
17
100
AcDbEntity
  8
0
100
AcDbLine
 10
16599.977054346957
 20
-1889.9127835421248
 30
-12.218747285821806
 11
16220.012973734792
 21
-1889.9127835421248
 31
0.0
  0
LINE
  5
26E
330
17
100
AcDbEntity
  8
0
100
AcDbLine
 10
17294.868680211504
 20
-1881.9182125106631
 30
0.0
 11
17593.871215379233
 21
-1881.9107072104227
 31
0.0
  0
LINE
  5
26F
330
17
100
AcDbEntity
  8
0
100
AcDbLine
 10
17593.871215379233
 20
-1889.9107072104227
 30
0.0
 11
17294.868680211504
 21
-1889.9182125106631
 31
0.0
  0
LINE
  5
270
330
17
100
AcDbEntity
  8
0
100
AcDbLine
 10
17298.830447659995
 20
-1748.9107049248262
 30
0.0
 11
17299.86870432881
 21
-1748.9107060890703
 31
0.0
  0
LINE
  5
271
330
17
100
AcDbEntity
  8
0
100
AcDbLine
 10
17299.86868694798
 20
-1764.4107060890722
 30
0.0
 11
17300.868686947982
 21
-1764.4107072104161
 31
0.0
  0
LINE
  5
272
330
17
100
AcDbEntity
  8
0
100
AcDbLine
 10
17588.871208651173
 20
-1764.4107060890722
 30
0.0
 11
17587.87120865117
 21
-1764.4107072104161
 31
0.0
  0
LINE
  5
273
330
17
100
AcDbEntity
  8
0
100
AcDbLine
 10
17589.909447939157
 20
-1748.9107049248262
 30
0.0
 11
17588.871191270344
 21
-1748.9107060890703
 31
0.0
  0
LINE
  5
274
330
17
100
AcDbEntity
  8
0
100
AcDbLine
 10
17615.868609919107
 20
-1755.4104284311002
 30
4.1359030627651384e-25
 11
17635.868604074436
 21
-1755.4104060042303
 31
-1.8189894035458565e-12
  0
LINE
  5
275
330
17
100
AcDbEntity
  8
0
100
AcDbLine
 10
17615.868618329147
 20
-1762.9103917968991
 30
0.0
 11
17645.868597346373
 21
-1762.9104046873715
 31
-1.907807245515869e-12
  0
LINE
  5
276
330
17
100
AcDbEntity
  8
0
100
AcDbLine
 10
17615.868616647167
 20
-1761.4104271142264
 30
4.1359030627651384e-25
 11
17635.868597346373
 21
-1761.4104046873715
 31
-1.8189894035458565e-12
  0
LINE
  5
277
330
17
100
AcDbEntity
  8
0
100
AcDbLine
 10
17645.846000327376
 20
-1768.9104034844497
 30
-24.501592595180888
 11
17614.86862505679
 21
-1768.910022028643
 31
-24.501592595180888
  0
LINE
  5
278
330
17
100
AcDbEntity
  8
0
100
AcDbLine
 10
17615.86860823746
 20
-1753.910754185967
 30
-1.8189894035458565e-12
 11
17625.86860491584
 21
-1753.9104046873715
 31
-1.8189894035458565e-12
  0
LINE
  5
279
330
17
100
AcDbEntity
  8
0
100
AcDbLine
 10
17616.906858177692
 20
-1747.910290451396
 30
-1.8189894035458565e-12
 11
17625.89122211902
 21
-1747.9104058902942
 31
-1.8189894035458565e-12
  0
LINE
  5
27A
330
17
100
AcDbEntity
  8
0
100
AcDbLine
 10
16225.015633862426
 20
-1641.910308111852
 30
0.0
 11
16224.265633862431
 21
-1641.9103072708438
 31
0.0
  0
LINE
  5
27B
330
17
100
AcDbEntity
  8
0
100
AcDbLine
 10
16225.015636104887
 20
-1639.910510385387
 30
0.0
 11
16224.26563610489
 21
-1639.9105095425
 31
0.0
  0
LINE
  5
27C
330
17
100
AcDbEntity
  8
0
100
AcDbLine
 10
16226.012980465845
 20
-1764.41012396852
 30
0.0
 11
16225.01298046584
 21
-1764.4101225057852
 31
0.0
  0
LINE
  5
27D
330
17
100
AcDbEntity
  8
0
100
AcDbLine
 10
16225.012997845975
 20
-1748.910742496003
 30
0.0
 11
16223.974741177159
 21
-1748.9107445586815
 31
0.0
  0
LINE
  5
27E
330
17
100
AcDbEntity
  8
0
100
AcDbLine
 10
16582.018278288502
 20
-1764.4107072104239
 30
0.0
 11
16583.01827828851
 21
-1764.4107060890715
 31
0.0
  0
LINE
  5
27F
330
17
100
AcDbEntity
  8
0
100
AcDbLine
 10
16593.977047617806
 20
-1764.4118115483652
 30
-12.218747285821806
 11
16594.977047617806
 21
-1764.4118104269999
 31
-12.218747285821806
  0
LINE
  5
280
330
17
100
AcDbEntity
  8
0
100
AcDbLine
 10
16584.056517576493
 20
-1748.9107049248255
 30
0.0
 11
16583.01826090768
 21
-1748.9107060890697
 31
0.0
  0
LINE
  5
281
330
17
100
AcDbEntity
  8
0
100
AcDbLine
 10
16596.01528690579
 20
-1748.9118092627539
 30
-12.218747285821806
 11
16594.977030236976
 21
-1748.9118092627539
 31
-12.218747285821806
  0
LINE
  5
282
330
17
100
AcDbEntity
  8
0
100
AcDbLine
 10
16583.765622648763
 20
-1639.9104731355667
 30
0.0
 11
16583.015622648807
 21
-1639.9105103835905
 31
0.0
  0
LINE
  5
283
330
17
100
AcDbEntity
  8
0
100
AcDbLine
 10
16583.015624891454
 20
-1641.91047397845
 30
0.0
 11
16583.765624891457
 21
-1641.9104804345254
 31
0.0
  0
LINE
  5
284
330
17
100
AcDbEntity
  8
0
100
AcDbLine
 10
16225.012990557212
 20
-1755.4107685651381
 30
0.0
 11
16205.01298997129
 21
-1755.410746138261
 31
-1.8189894035458565e-12
  0
LINE
  5
285
330
17
100
AcDbEntity
  8
0
100
AcDbLine
 10
16225.012982147122
 20
-1762.9107784617008
 30
0.0
 11
16195.012996699354
 21
-1762.9107448214022
 31
-1.907807245515869e-12
  0
LINE
  5
286
330
17
100
AcDbEntity
  8
0
100
AcDbLine
 10
16225.012983829365
 20
-1761.410574426351
 30
-1.8189894035458565e-12
 11
16205.012996699354
 21
-1761.4107448214022
 31
-1.8189894035458565e-12
  0
LINE
  5
287
330
17
100
AcDbEntity
  8
0
100
AcDbLine
 10
16195.03559371835
 20
-1768.9107436184804
 30
-24.501592595180888
 11
16226.012975419213
 21
-1768.9106443049877
 31
0.0
  0
LINE
  5
288
330
17
100
AcDbEntity
  8
0
100
AcDbLine
 10
16225.012989129888
 20
-1753.9107905929004
 30
-1.8189894035458565e-12
 11
16215.012989129888
 21
-1753.9107448214022
 31
-1.8189894035458565e-12
  0
LINE
  5
289
330
17
100
AcDbEntity
  8
0
100
AcDbLine
 10
16223.974739189654
 20
-1747.9103268583292
 30
-1.8189894035458565e-12
 11
16214.990371926708
 21
-1747.910746024325
 31
-1.8189894035458565e-12
  0
LINE
  5
28A
330
17
100
AcDbEntity
  8
0
100
AcDbLine
 10
16225.015680957742
 20
-1599.91132309502
 30
0.0
 11
16224.265675565832
 21
-1599.9104678552064
 31
0.0
  0
ARC
  5
28B
330
17
100
AcDbEntity
  8
0
100
AcDbCircle
 10
17406.82770062273
 20
-1640.910136276806
 30
-23.902765743896275
 40
0.24999999999999997
100
AcDbArc
 50
359.99993575280354
 51
89.99993575186559
  0
LINE
  5
28C
330
17
100
AcDbEntity
  8
0
100
AcDbLine
 10
17406.718057236474
 20
-1640.1854627249531
 30
-23.562462567328257
 11
17407.26642974407
 21
-1639.9101367687717
 31
-23.562462567328257
  0
LINE
  5
28D
330
17
100
AcDbEntity
  8
0
100
AcDbLine
 10
17407.26821232432
 20
-1640.9101387707678
 30
-23.562462567328257
 11
17407.07948232432
 21
-1640.9101385591375
 31
-23.562462567328257
  0
LINE
  5
28E
330
17
100
AcDbEntity
  8
0
100
AcDbLine
 10
17407.26820920297
 20
-1641.910138770766
 30
-23.562462567328257
 11
17407.26821032432
 21
-1640.910138770766
 31
-23.562462567328257
  0
LINE
  5
28F
330
17
100
AcDbEntity
  8
0
100
AcDbLine
 10
17407.26820920298
 20
-1641.9101367707672
 30
-23.562462567328257
 11
17408.01820920298
 21
-1641.910137611775
 31
-23.562462567328257
  0
ARC
  5
290
330
17
100
AcDbEntity
  8
0
100
AcDbCircle
 10
17406.82948288499
 20
-1640.4101382788022
 30
-23.902765743896275
 40
0.24999999999999997
100
AcDbArc
 50
116.01304605069755
 51
269.99993575186556
  0
ARC
  5
291
330
17
100
AcDbEntity
  8
0
100
AcDbCircle
 10
17415.45189005687
 20
-1640.910136276806
 30
-23.902907050841982
 40
0.24999999999999997
100
AcDbArc
 50
359.99993575280354
 51
89.99993575186559
  0
LINE
  5
292
330
17
100
AcDbEntity
  8
0
100
AcDbLine
 10
17415.342246670614
 20
-1640.1854627249531
 30
-23.562603874273965
 11
17415.89061917821
 21
-1639.9101367687717
 31
-23.562603874273965
  0
LINE
  5
293
330
17
100
AcDbEntity
  8
0
100
AcDbLine
 10
17415.89240175846
 20
-1640.9101387707678
 30
-23.562603874273965
 11
17415.70367175846
 21
-1640.9101385591375
 31
-23.562603874273965
  0
LINE
  5
294
330
17
100
AcDbEntity
  8
0
100
AcDbLine
 10
17415.892398637112
 20
-1641.910138770766
 30
-23.562603874273965
 11
17415.89239975846
 21
-1640.910138770766
 31
-23.562603874273965
  0
LINE
  5
295
330
17
100
AcDbEntity
  8
0
100
AcDbLine
 10
17415.89239863712
 20
-1641.9101367707672
 30
-23.562603874273965
 11
17416.64239863712
 21
-1641.910137611775
 31
-23.562603874273965
  0
ARC
  5
296
330
17
100
AcDbEntity
  8
0
100
AcDbCircle
 10
17415.45367231913
 20
-1640.4101382788022
 30
-23.902907050841982
 40
0.24999999999999997
100
AcDbArc
 50
116.01304605069755
 51
269.99993575186556
  0
ARC
  5
297
330
17
100
AcDbEntity
  8
0
100
AcDbCircle
 10
17417.451890049484
 20
-1640.910136276806
 30
-23.90290757927998
 40
0.24999999999999997
100
AcDbArc
 50
359.99993575280354
 51
89.99993575186559
  0
LINE
  5
298
330
17
100
AcDbEntity
  8
0
100
AcDbLine
 10
17417.34224666323
 20
-1640.1854627249531
 30
-23.562604402711962
 11
17417.890619170827
 21
-1639.9101367687717
 31
-23.562604402711962
  0
LINE
  5
299
330
17
100
AcDbEntity
  8
0
100
AcDbLine
 10
17417.892401751076
 20
-1640.9101387707678
 30
-23.562604402711962
 11
17417.703671751075
 21
-1640.9101385591375
 31
-23.562604402711962
  0
LINE
  5
29A
330
17
100
AcDbEntity
  8
0
100
AcDbLine
 10
17417.892398629727
 20
-1641.910138770766
 30
-23.562604402711962
 11
17417.892399751076
 21
-1640.910138770766
 31
-23.562604402711962
  0
LINE
  5
29B
330
17
100
AcDbEntity
  8
0
100
AcDbLine
 10
17417.892398629734
 20
-1641.9101367707672
 30
-23.562604402711962
 11
17418.642398629734
 21
-1641.910137611775
 31
-23.562604402711962
  0
ARC
  5
29C
330
17
100
AcDbEntity
  8
0
100
AcDbCircle
 10
17417.453672311745
 20
-1640.4101382788022
 30
-23.90290757927998
 40
0.24999999999999997
100
AcDbArc
 50
116.01304605069755
 51
269.99993575186556
  0
ARC
  5
29D
330
17
100
AcDbEntity
  8
0
100
AcDbCircle
 10
17481.208540924414
 20
-1640.910136276806
 30
-23.902765743896275
 40
0.24999999999999997
100
AcDbArc
 50
90.00006424813441
 51
180.0000642471964
  0
LINE
  5
29E
330
17
100
AcDbEntity
  8
0
100
AcDbLine
 10
17481.31818431067
 20
-1640.1854627249531
 30
-23.562462567328257
 11
17480.76981180307
 21
-1639.9101367687717
 31
-23.562462567328257
  0
LINE
  5
29F
330
17
100
AcDbEntity
  8
0
100
AcDbLine
 10
17480.76802922282
 20
-1640.9101387707678
 30
-23.562462567328257
 11
17480.956759222823
 21
-1640.9101385591375
 31
-23.562462567328257
  0
LINE
  5
2A0
330
17
100
AcDbEntity
  8
0
100
AcDbLine
 10
17480.76803234417
 20
-1641.910138770766
 30
-23.562462567328257
 11
17480.768031222822
 21
-1640.910138770766
 31
-23.562462567328257
  0
LINE
  5
2A1
330
17
100
AcDbEntity
  8
0
100
AcDbLine
 10
17480.768032344164
 20
-1641.9101367707672
 30
-23.562462567328257
 11
17480.018032344164
 21
-1641.910137611775
 31
-23.562462567328257
  0
ARC
  5
2A2
330
17
100
AcDbEntity
  8
0
100
AcDbCircle
 10
17481.206758662152
 20
-1640.4101382788022
 30
-23.902765743896275
 40
0.24999999999999997
100
AcDbArc
 50
270.00006424813444
 51
63.9869539493032
  0
ARC
  5
2A3
330
17
100
AcDbEntity
  8
0
100
AcDbCircle
 10
17472.584351490274
 20
-1640.910136276806
 30
-23.902907050841982
 40
0.24999999999999997
100
AcDbArc
 50
90.00006424813441
 51
180.0000642471964
  0
LINE
  5
2A4
330
17
100
AcDbEntity
  8
0
100
AcDbLine
 10
17472.69399487653
 20
-1640.1854627249531
 30
-23.562603874273965
 11
17472.14562236893
 21
-1639.9101367687717
 31
-23.562603874273965
  0
LINE
  5
2A5
330
17
100
AcDbEntity
  8
0
100
AcDbLine
 10
17472.14383978868
 20
-1640.9101387707678
 30
-23.562603874273965
 11
17472.332569788683
 21
-1640.9101385591375
 31
-23.562603874273965
  0
LINE
  5
2A6
330
17
100
AcDbEntity
  8
0
100
AcDbLine
 10
17472.14384291003
 20
-1641.910138770766
 30
-23.562603874273965
 11
17472.143841788682
 21
-1640.910138770766
 31
-23.562603874273965
  0
LINE
  5
2A7
330
17
100
AcDbEntity
  8
0
100
AcDbLine
 10
17472.143842910024
 20
-1641.9101367707672
 30
-23.562603874273965
 11
17471.393842910024
 21
-1641.910137611775
 31
-23.562603874273965
  0
ARC
  5
2A8
330
17
100
AcDbEntity
  8
0
100
AcDbCircle
 10
17472.582569228012
 20
-1640.4101382788022
 30
-23.902907050841982
 40
0.24999999999999997
100
AcDbArc
 50
270.00006424813444
 51
63.9869539493032
  0
ARC
  5
2A9
330
17
100
AcDbEntity
  8
0
100
AcDbCircle
 10
17470.58435149766
 20
-1640.910136276806
 30
-23.90290757927998
 40
0.24999999999999997
100
AcDbArc
 50
90.00006424813441
 51
180.0000642471964
  0
LINE
  5
2AA
330
17
100
AcDbEntity
  8
0
100
AcDbLine
 10
17470.693994883914
 20
-1640.1854627249531
 30
-23.562604402711962
 11
17470.145622376316
 21
-1639.9101367687717
 31
-23.562604402711962
  0
LINE
  5
2AB
330
17
100
AcDbEntity
  8
0
100
AcDbLine
 10
17470.143839796066
 20
-1640.9101387707678
 30
-23.562604402711962
 11
17470.332569796068
 21
-1640.9101385591375
 31
-23.562604402711962
  0
LINE
  5
2AC
330
17
100
AcDbEntity
  8
0
100
AcDbLine
 10
17470.143842917416
 20
-1641.910138770766
 30
-23.562604402711962
 11
17470.143841796067
 21
-1640.910138770766
 31
-23.562604402711962
  0
LINE
  5
2AD
330
17
100
AcDbEntity
  8
0
100
AcDbLine
 10
17470.14384291741
 20
-1641.9101367707672
 30
-23.562604402711962
 11
17469.39384291741
 21
-1641.910137611775
 31
-23.562604402711962
  0
ARC
  5
2AE
330
17
100
AcDbEntity
  8
0
100
AcDbCircle
 10
17470.582569235397
 20
-1640.4101382788022
 30
-23.90290757927998
 40
0.24999999999999997
100
AcDbArc
 50
270.00006424813444
 51
63.9869539493032
  0
LINE
  5
2AF
330
17
100
AcDbEntity
  8
0
100
AcDbLine
 10
17615.86607874909
 20
-1741.9104739654867
 30
0.0
 11
17615.86596661468
 21
-1641.9104739784507
 31
0.0
  0
LINE
  5
2B0
330
17
100
AcDbEntity
  8
0
100
AcDbLine
 10
17615.868620011737
 20
-1764.4107060890722
 30
0.0
 11
17615.868602630908
 21
-1748.9107060890703
 31
0.0
  0
LINE
  5
2B1
330
17
100
AcDbEntity
  8
0
100
AcDbLine
 10
17615.868620011737
 20
-1764.4107060890722
 30
0.0
 11
17614.868620011734
 21
-1764.4107072104161
 31
0.0
  0
LINE
  5
2B2
330
17
100
AcDbEntity
  8
0
100
AcDbLine
 10
17590.369401720392
 20
-1741.9116446679752
 30
0.0
 11
17615.866078750372
 21
-1741.9116160774379
 31
0.0
  0
LINE
  5
2B3
330
17
100
AcDbEntity
  8
0
100
AcDbLine
 10
17616.906857056372
 20
-1746.9101176389615
 30
0.0
 11
17590.369407326107
 21
-1746.9107492081837
 31
0.0
  0
LINE
  5
2B4
330
17
100
AcDbEntity
  8
0
100
AcDbLine
 10
17615.86860262745
 20
-1748.907624203652
 30
0.0
 11
17589.909447941696
 21
-1748.912969364022
 31
0.0
  0
LINE
  5
2B5
330
17
100
AcDbEntity
  8
0
100
AcDbLine
 10
17614.868620011734
 20
-1764.4107072104246
 30
0.0
 11
17588.871208651173
 21
-1764.4107060890722
 31
0.0
  0
LINE
  5
2B6
330
17
100
AcDbEntity
  8
0
100
AcDbLine
 10
17616.615963493517
 20
-1640.9106378814206
 30
0.0
 11
17616.80469349352
 21
-1640.9106376697903
 31
0.0
  0
LINE
  5
2B7
330
17
100
AcDbEntity
  8
0
100
AcDbLine
 10
17616.615966614867
 20
-1641.910637881417
 30
0.0
 11
17616.615965493518
 21
-1640.9106378814188
 31
0.0
  0
LINE
  5
2B8
330
17
100
AcDbEntity
  8
0
100
AcDbLine
 10
17617.164336879774
 20
-1640.185963837602
 30
0.0
 11
17616.615964372177
 21
-1639.9106378814188
 31
0.0
  0
ARC
  5
2B9
330
17
100
AcDbEntity
  8
0
100
AcDbCircle
 10
17617.05469349352
 20
-1640.910637389453
 30
0.7485075755405345
 40
0.24999999999999997
100
AcDbArc
 50
90.00006424813441
 51
180.00006424719635
  0
ARC
  5
2BA
330
17
100
AcDbEntity
  8
0
100
AcDbCircle
 10
17617.05469293285
 20
-1640.410637389453
 30
0.7485075755405345
 40
0.24999999999999997
100
AcDbArc
 50
270.00006424813444
 51
63.98695394930246
  0
LINE
  5
2BB
330
17
100
AcDbEntity
  8
0
100
AcDbLine
 10
17588.868553011434
 20
-1639.9104739784543
 30
0.0
 11
17589.618553011427
 21
-1639.9104731355674
 31
0.0
  0
LINE
  5
2BC
330
17
100
AcDbEntity
  8
0
100
AcDbLine
 10
17588.868555254117
 20
-1641.9104739784507
 30
0.0
 11
17589.618555254125
 21
-1641.910478072823
 31
0.0
  0
LINE
  5
2BD
330
17
100
AcDbEntity
  8
0
100
AcDbLine
 10
17616.615966614867
 20
-1641.910637881417
 30
0.0
 11
17615.865966614867
 21
-1641.9106387224283
 31
0.0
  0
LINE
  5
2BE
330
17
100
AcDbEntity
  8
0
100
AcDbLine
 10
17615.86596661468
 20
-1641.9104739784507
 30
0.0
 11
17589.61855525413
 21
-1641.9104854674988
 31
0.0
  0
LINE
  5
2BF
330
17
100
AcDbEntity
  8
0
100
AcDbLine
 10
17616.615964372177
 20
-1639.9106378814188
 30
0.0
 11
17589.61888113922
 21
-1639.910650213352
 31
0.0
  0
LINE
  5
2C0
330
17
100
AcDbEntity
  8
0
100
AcDbLine
 10
17616.615963493517
 20
-1640.9106378814206
 30
0.0
 11
17589.80728213278
 21
-1640.9104852558721
 31
0.0
  0
LINE
  5
2C1
330
17
100
AcDbEntity
  8
0
100
AcDbLine
 10
17590.057281852445
 20
-1640.6604849755347
 30
0.7485075755405345
 11
17617.063767390664
 21
-1640.6604726436015
 31
0.7485075755405345
  0
ARC
  5
2C2
330
17
100
AcDbEntity
  8
0
100
AcDbCircle
 10
17619.49088220592
 20
-1582.6604354039991
 30
0.34030317655702724
 40
2.1249999999999996
100
AcDbArc
 50
270.000033248397
 51
6.424834285489297e-05
  0
ARC
  5
2C3
330
17
100
AcDbEntity
  8
0
100
AcDbCircle
 10
17617.054628427763
 20
-1598.9104401358873
 30
0.34030317655702724
 40
0.24999999999999997
100
AcDbArc
 50
90.00006424813441
 51
180.0000642471964
  0
ARC
  5
2C4
330
17
100
AcDbEntity
  8
0
100
AcDbCircle
 10
17617.05462786709
 20
-1598.4104401358873
 30
0.34030317655702724
 40
0.24999999999999997
100
AcDbArc
 50
270.00006424813444
 51
63.98695394930336
  0
LINE
  5
2C5
330
17
100
AcDbEntity
  8
0
100
AcDbLine
 10
17616.61590154911
 20
-1599.9104406278511
 30
-1.7763568394002505e-15
 11
17616.61590042776
 21
-1598.910440627853
 31
-1.7763568394002505e-15
  0
LINE
  5
2C6
330
17
100
AcDbEntity
  8
0
100
AcDbLine
 10
17616.615886971635
 20
-1586.9104386278614
 30
-1.7763568394002505e-15
 11
17616.61589930642
 21
-1597.910440627853
 31
-1.7763568394002505e-15
  0
LINE
  5
2C7
330
17
100
AcDbEntity
  8
0
100
AcDbLine
 10
17617.164271814017
 20
-1598.1857665840344
 30
-1.7763568394002505e-15
 11
17616.61589930642
 21
-1597.910440627853
 31
-1.7763568394002505e-15
  0
LINE
  5
2C8
330
17
100
AcDbEntity
  8
0
100
AcDbLine
 10
17617.615886971635
 20
-1586.9104375065162
 30
-1.7763568394002505e-15
 11
17616.615886971635
 21
-1586.9104386278614
 31
-1.7763568394002505e-15
  0
LINE
  5
2C9
330
17
100
AcDbEntity
  8
0
100
AcDbLine
 10
17619.49088458878
 20
-1584.7854354039973
 30
-1.7763568394002505e-15
 11
17619.49088514945
 21
-1585.2854354039973
 31
-1.7763568394002505e-15
  0
LINE
  5
2CA
330
17
100
AcDbEntity
  8
0
100
AcDbLine
 10
17622.615881364913
 20
-1581.9104318997997
 30
-1.7763568394002505e-15
 11
17622.61588220592
 21
-1582.6604318997997
 31
-1.7763568394002505e-15
  0
ARC
  5
2CB
330
17
100
AcDbEntity
  8
0
100
AcDbCircle
 10
17581.331979021503
 20
-1487.1576718593242
 30
-0.34030317655698283
 40
0.49999999999999994
100
AcDbArc
 50
90.00006424813441
 51
180.00006424719643
  0
ARC
  5
2CC
330
17
100
AcDbEntity
  8
0
100
AcDbCircle
 10
17581.33197790016
 20
-1486.1576718593242
 30
-0.34030317655698283
 40
0.49999999999999994
100
AcDbArc
 50
270.00006424813444
 51
63.98695394930339
  0
LINE
  5
2CD
330
17
100
AcDbEntity
  8
0
100
AcDbLine
 10
17552.68319466614
 20
-1487.1575524750272
 30
-0.34030317655698217
 11
17580.4545230215
 21
-1487.1576724199967
 31
0.0
  0
LINE
  5
2CE
330
17
100
AcDbEntity
  8
0
100
AcDbLine
 10
17580.45452526419
 20
-1489.1576728432537
 30
0.0
 11
17580.4545230215
 21
-1487.1576728432537
 31
0.0
  0
LINE
  5
2CF
330
17
100
AcDbEntity
  8
0
100
AcDbLine
 10
17580.454525264184
 20
-1489.1576688432542
 30
0.0
 11
17579.70452526419
 21
-1489.1576736842617
 31
0.0
  0
LINE
  5
2D0
330
17
100
AcDbEntity
  8
0
100
AcDbLine
 10
17581.551265794013
 20
-1485.7083247556202
 30
0.0
 11
17580.45452077881
 21
-1485.1576728432556
 31
0.0
  0
LINE
  5
2D1
330
17
100
AcDbEntity
  8
0
100
AcDbLine
 10
17580.45452077881
 20
-1485.1576728432556
 30
0.0
 11
17552.306208914233
 21
-1485.157815297589
 31
0.0
  0
LINE
  5
2D2
330
17
100
AcDbEntity
  8
0
100
AcDbLine
 10
17615.865966614867
 20
-1599.9104414687897
 30
0.0
 11
17616.61590154911
 21
-1599.9104406278511
 31
0.0
  0
LINE
  5
2D3
330
17
100
AcDbEntity
  8
0
100
AcDbLine
 10
17604.86924180402
 20
-1581.9104196975532
 30
0.0
 11
17631.865881364913
 21
-1581.9104288771305
 31
0.0
  0
LINE
  5
2D4
330
17
100
AcDbEntity
  8
0
100
AcDbLine
 10
17621.615882205893
 20
-1582.660445434446
 30
0.0
 11
17622.61588220594
 21
-1582.6604501546562
 31
0.0
  0
LINE
  5
2D5
330
17
100
AcDbEntity
  8
0
100
AcDbLine
 10
17635.87003899084
 20
-1577.6604281432299
 30
0.0
 11
17636.37003899084
 21
-1577.6604281432299
 31
0.0
  0
LINE
  5
2D6
330
17
100
AcDbEntity
  8
0
100
AcDbLine
 10
17636.37003899084
 20
-1577.6604281432299
 30
0.0
 11
17636.37003913545
 21
-1576.9104281432299
 31
0.0
  0
LINE
  5
2D7
330
17
100
AcDbEntity
  8
0
100
AcDbLine
 10
17636.370039244593
 20
-1576.9104288771669
 30
0.0
 11
17631.865881364913
 21
-1576.9104280087072
 31
0.0
  0
LINE
  5
2D8
330
17
100
AcDbEntity
  8
0
100
AcDbLine
 10
17635.870039099984
 20
-1577.6604288771669
 30
0.0
 11
17609.37339953909
 21
-1577.6604625220405
 31
0.0
  0
LINE
  5
2D9
330
17
100
AcDbEntity
  8
0
100
AcDbLine
 10
17631.865881364913
 20
-1576.9104288771669
 30
0.0
 11
17609.37339953909
 21
-1576.9104196975895
 31
0.0
  0
LINE
  5
2DA
330
17
100
AcDbEntity
  8
0
100
AcDbLine
 10
17580.4545230215
 20
-1487.1576724199967
 30
0.0
 11
17580.831979021503
 21
-1487.1576724199867
 31
-0.34030317655698283
  0
LINE
  5
2DB
330
17
100
AcDbEntity
  8
0
100
AcDbLine
 10
17631.865881364913
 20
-1581.0455603531761
 30
0.0
 11
17607.36924180402
 21
-1581.0455571813236
 31
0.0
  0
LINE
  5
2DC
330
17
100
AcDbEntity
  8
0
100
AcDbLine
 10
17615.865966614867
 20
-1599.9104414687897
 30
0.0
 11
17615.865966614867
 21
-1639.9106386153558
 31
0.0
  0
LINE
  5
2DD
330
17
100
AcDbEntity
  8
0
100
AcDbLine
 10
17616.61590042776
 20
-1598.910440627853
 30
-1.7763568394002505e-15
 11
17616.804628427763
 21
-1598.9104401358873
 31
0.34030317655702724
  0
LINE
  5
2DE
330
17
100
AcDbEntity
  8
0
100
AcDbLine
 10
17589.61851355049
 20
-1599.9104314482738
 30
0.0
 11
17588.868508157615
 21
-1599.9104314482738
 31
0.0
  0
LINE
  5
2DF
330
17
100
AcDbEntity
  8
0
100
AcDbLine
 10
16594.976906944197
 20
-1741.9115783034206
 30
-12.218747285821806
 11
16594.976947438696
 21
-1641.910473978445
 31
8.253141918996569
  0
ARC
  5
2E0
330
17
100
AcDbEntity
  8
0
100
AcDbCircle
 10
17607.306838739158
 20
-1582.7958285281418
 30
2.5179246807630666
 40
2.0668911301654735
100
AcDbArc
 50
285.7158649655514
 51
3.7554574459816723
  0
ARC
  5
2E1
330
17
100
AcDbEntity
  8
0
100
AcDbCircle
 10
17609.30683873966
 20
-1582.7958262854534
 30
2.5179246807568108
 40
2.0668911301654735
100
AcDbArc
 50
285.7158649655514
 51
3.7554574459816723
  0
ARC
  5
2E2
330
17
100
AcDbEntity
  8
0
100
AcDbCircle
 10
17608.43043576949
 20
-1598.4104539831621
 30
2.5179246807568108
 40
0.24999999999999997
100
AcDbArc
 50
270.00006424813444
 51
63.98695394930245
  0
LINE
  5
2E3
330
17
100
AcDbEntity
  8
0
100
AcDbLine
 10
17605.99170945099
 20
-1599.9104567178144
 30
0.34030317655702724
 11
17605.99170832965
 21
-1598.9104567178163
 31
0.34030317655702724
  0
LINE
  5
2E4
330
17
100
AcDbEntity
  8
0
100
AcDbLine
 10
17605.991694873515
 20
-1586.9104547178247
 30
0.34030317655702724
 11
17605.991707208308
 21
-1597.9104567178163
 31
0.34030317655702724
  0
LINE
  5
2E5
330
17
100
AcDbEntity
  8
0
100
AcDbLine
 10
17606.540079715905
 20
-1598.1857826739977
 30
0.34030317655702724
 11
17605.991707208308
 21
-1597.9104567178163
 31
0.34030317655702724
  0
LINE
  5
2E6
330
17
100
AcDbEntity
  8
0
100
AcDbLine
 10
17606.491694873515
 20
-1586.9104541571521
 30
0.34030317655702724
 11
17605.991694873515
 21
-1586.9104547178247
 31
0.34030317655702724
  0
LINE
  5
2E7
330
17
100
AcDbEntity
  8
0
100
AcDbLine
 10
17607.86669249066
 20
-1584.7854526153058
 30
0.34030317655702724
 11
17607.866693051332
 21
-1585.2854526153058
 31
0.34030317655702724
  0
LINE
  5
2E8
330
17
100
AcDbEntity
  8
0
100
AcDbLine
 10
17607.991753426653
 20
-1640.910492018949
 30
0.34030317655702724
 11
17608.180483426655
 21
-1640.910491807317
 31
0.34030317655702724
  0
LINE
  5
2E9
330
17
100
AcDbEntity
  8
0
100
AcDbLine
 10
17607.991756547995
 20
-1641.9104920189454
 30
0.34030317655702724
 11
17607.991755426654
 21
-1640.9104920189454
 31
0.34030317655702724
  0
ARC
  5
2EA
330
17
100
AcDbEntity
  8
0
100
AcDbCircle
 10
17608.430482865984
 20
-1640.4104915269816
 30
-1.0990652832276737e-11
 40
0.24999999999999997
100
AcDbArc
 50
270.00006424813444
 51
63.98695394930245
  0
LINE
  5
2EB
330
17
100
AcDbEntity
  8
0
100
AcDbLine
 10
17607.241754305312
 20
-1639.9104928599552
 30
0.34030317655702724
 11
17607.241709451544
 21
-1599.9104928470604
 31
0.34030317655702724
  0
LINE
  5
2EC
330
17
100
AcDbEntity
  8
0
100
AcDbLine
 10
17605.991756547995
 20
-1641.9104942616339
 30
0.34030317655702724
 11
17605.991755426654
 21
-1640.9104942616339
 31
0.34030317655702724
  0
LINE
  5
2ED
330
17
100
AcDbEntity
  8
0
100
AcDbLine
 10
17605.991756547995
 20
-1641.910492261635
 30
0.34030317655702724
 11
17605.241756547995
 21
-1641.910493102643
 31
0.34030317655702724
  0
LINE
  5
2EE
330
17
100
AcDbEntity
  8
0
100
AcDbLine
 10
17606.53834511132
 20
-1640.1858222198132
 30
0.34030317655702724
 11
17605.989972603722
 21
-1639.9104962636318
 31
0.34030317655702724
  0
ARC
  5
2EF
330
17
100
AcDbEntity
  8
0
100
AcDbCircle
 10
17606.431038240367
 20
-1598.9104562258506
 30
2.5179246807630666
 40
0.24999999999999997
100
AcDbArc
 50
90.00006424813441
 51
180.00006424719635
  0
ARC
  5
2F0
330
17
100
AcDbEntity
  8
0
100
AcDbCircle
 10
17606.431037679697
 20
-1598.4104562258506
 30
2.5179246807630666
 40
0.24999999999999997
100
AcDbArc
 50
270.00006424813444
 51
63.98695394930245
  0
LINE
  5
2F1
330
17
100
AcDbEntity
  8
0
100
AcDbLine
 10
17607.992311362217
 20
-1599.9104544751278
 30
0.34030317655702724
 11
17607.992310240876
 21
-1598.9104544751278
 31
0.34030317655702724
  0
LINE
  5
2F2
330
17
100
AcDbEntity
  8
0
100
AcDbLine
 10
17607.99229678474
 20
-1586.9104524751363
 30
0.34030317655702724
 11
17607.992309119534
 21
-1597.9104544751278
 31
0.34030317655702724
  0
LINE
  5
2F3
330
17
100
AcDbEntity
  8
0
100
AcDbLine
 10
17608.54068162713
 20
-1598.185780431311
 30
0.34030317655702724
 11
17607.992309119534
 21
-1597.9104544751278
 31
0.34030317655702724
  0
LINE
  5
2F4
330
17
100
AcDbEntity
  8
0
100
AcDbLine
 10
17608.49229678474
 20
-1586.9104519144637
 30
0.34030317655702724
 11
17607.99229678474
 21
-1586.9104524751363
 31
0.34030317655702724
  0
LINE
  5
2F5
330
17
100
AcDbEntity
  8
0
100
AcDbLine
 10
17609.867294401887
 20
-1584.7854503726173
 30
0.34030317655702724
 11
17609.867294962558
 21
-1585.2854503726173
 31
0.34030317655702724
  0
LINE
  5
2F6
330
17
100
AcDbEntity
  8
0
100
AcDbLine
 10
17611.869892681552
 20
-1581.910448127015
 30
0.34030317655702724
 11
17611.86989352256
 21
-1582.660448127013
 31
0.34030317655702724
  0
ARC
  5
2F7
330
17
100
AcDbEntity
  8
0
100
AcDbCircle
 10
17608.431038240877
 20
-1598.9104539831621
 30
2.5179246807568108
 40
0.24999999999999997
100
AcDbArc
 50
90.00006424813441
 51
180.00006424719635
  0
LINE
  5
2F8
330
17
100
AcDbEntity
  8
0
100
AcDbLine
 10
17609.869892681043
 20
-1581.9104503697015
 30
0.34030317655702724
 11
17609.86989352205
 21
-1582.6604503697015
 31
0.34030317655702724
  0
LINE
  5
2F9
330
17
100
AcDbEntity
  8
0
100
AcDbLine
 10
17608.540728723627
 20
-1640.1858179751287
 30
0.34030317655702724
 11
17607.99235621603
 21
-1639.9104920189473
 31
0.34030317655702724
  0
ARC
  5
2FA
330
17
100
AcDbEntity
  8
0
100
AcDbCircle
 10
17608.43108533737
 20
-1640.9104915269816
 30
-1.0990652832276737e-11
 40
0.24999999999999997
100
AcDbArc
 50
90.00006424813441
 51
180.00006424719635
  0
ARC
  5
2FB
330
17
100
AcDbEntity
  8
0
100
AcDbCircle
 10
17606.43108533737
 20
-1640.91049376967
 30
-1.0990652832276737e-11
 40
0.24999999999999997
100
AcDbArc
 50
90.00006424813441
 51
180.00006424719635
  0
LINE
  5
2FC
330
17
100
AcDbEntity
  8
0
100
AcDbLine
 10
17605.24235621603
 20
-1639.9104951026436
 30
0.34030317655702724
 11
17605.242311362108
 21
-1599.9104950899525
 31
0.34030317655702724
  0
LINE
  5
2FD
330
17
100
AcDbEntity
  8
0
100
AcDbLine
 10
17607.240576757064
 20
-1641.9104928639588
 30
0.34030317655702724
 11
17607.24068889148
 21
-1741.9104948509228
 31
0.34030317655702724
  0
ARC
  5
2FE
330
17
100
AcDbEntity
  8
0
100
AcDbCircle
 10
17606.42930307511
 20
-1640.410495771666
 30
-1.0990652832276737e-11
 40
0.24999999999999997
100
AcDbArc
 50
270.00006424813444
 51
63.98695394930245
  0
LINE
  5
2FF
330
17
100
AcDbEntity
  8
0
100
AcDbLine
 10
17605.99057363578
 20
-1640.9104962636318
 30
0.34030317655702724
 11
17606.17930363578
 21
-1640.9104960520015
 31
0.34030317655702724
  0
ARC
  5
300
330
17
100
AcDbEntity
  8
0
100
AcDbCircle
 10
17404.391446844573
 20
-1624.660131544918
 30
-23.22215939077123
 40
2.1249999999999996
100
AcDbArc
 50
179.99993575165715
 51
269.999966751603
  0
LINE
  5
301
330
17
100
AcDbEntity
  8
0
100
AcDbLine
 10
17407.266442078857
 20
-1628.9101347687802
 30
-23.562462567328257
 11
17407.26642974407
 21
-1639.9101367687717
 31
-23.562462567328257
  0
LINE
  5
302
330
17
100
AcDbEntity
  8
0
100
AcDbLine
 10
17406.266442078857
 20
-1628.910133647435
 30
-23.562462567328257
 11
17407.266442078857
 21
-1628.9101347687802
 31
-23.562462567328257
  0
LINE
  5
303
330
17
100
AcDbEntity
  8
0
100
AcDbLine
 10
17404.39144446171
 20
-1626.785131544916
 30
-23.562462567328257
 11
17404.39144390104
 21
-1627.285131544916
 31
-23.562462567328257
  0
LINE
  5
304
330
17
100
AcDbEntity
  8
0
100
AcDbLine
 10
17401.26644768558
 20
-1623.9101280407185
 30
-23.562462567328257
 11
17401.266446844573
 21
-1624.6601280407185
 31
-23.562462567328257
  0
LINE
  5
305
330
17
100
AcDbEntity
  8
0
100
AcDbLine
 10
17401.266446844573
 20
-1624.6601280407185
 30
-23.562462567328257
 11
17402.266446844573
 21
-1624.6601280407185
 31
-23.562462567328257
  0
LINE
  5
306
330
17
100
AcDbEntity
  8
0
100
AcDbLine
 10
17401.266446844573
 20
-1623.9101280407185
 30
-23.562462567328257
 11
17401.266446844573
 21
-1624.6601280407185
 31
-23.562462567328257
  0
ARC
  5
307
330
17
100
AcDbEntity
  8
0
100
AcDbCircle
 10
17416.57548764787
 20
-1624.7955108217857
 30
-21.384982370067924
 40
2.0668911301654735
100
AcDbArc
 50
176.2445425540055
 51
254.28413503444835
  0
LINE
  5
308
330
17
100
AcDbEntity
  8
0
100
AcDbLine
 10
17415.890631513004
 20
-1628.9101347687802
 30
-23.562603874273965
 11
17415.89061917821
 21
-1639.9101367687717
 31
-23.562603874273965
  0
LINE
  5
309
330
17
100
AcDbEntity
  8
0
100
AcDbLine
 10
17415.390631513004
 20
-1628.9101342081076
 30
-23.562603874273965
 11
17415.890631513004
 21
-1628.9101347687802
 31
-23.562603874273965
  0
LINE
  5
30A
330
17
100
AcDbEntity
  8
0
100
AcDbLine
 10
17414.01563389586
 20
-1626.7851326662612
 30
-23.562603874273965
 11
17414.015633335188
 21
-1627.2851326662612
 31
-23.562603874273965
  0
ARC
  5
30B
330
17
100
AcDbEntity
  8
0
100
AcDbCircle
 10
17414.57548764737
 20
-1624.7955085790973
 30
-21.38498237007418
 40
2.0668911301654735
100
AcDbArc
 50
176.2445425540055
 51
254.28413503444835
  0
LINE
  5
30C
330
17
100
AcDbEntity
  8
0
100
AcDbLine
 10
17412.013035616194
 20
-1623.9101304206588
 30
-23.562603874273965
 11
17412.013034775187
 21
-1624.660130420657
 31
-23.562603874273965
  0
LINE
  5
30D
330
17
100
AcDbEntity
  8
0
100
AcDbLine
 10
17417.890631513514
 20
-1628.9101370114686
 30
-23.562603874273965
 11
17417.89061917872
 21
-1639.9101390114602
 31
-23.562603874273965
  0
LINE
  5
30E
330
17
100
AcDbEntity
  8
0
100
AcDbLine
 10
17417.390631513514
 20
-1628.910136450796
 30
-23.562603874273965
 11
17417.890631513514
 21
-1628.9101370114686
 31
-23.562603874273965
  0
LINE
  5
30F
330
17
100
AcDbEntity
  8
0
100
AcDbLine
 10
17416.015633896368
 20
-1626.7851349089497
 30
-23.562603874273965
 11
17416.015633335697
 21
-1627.2851349089497
 31
-23.562603874273965
  0
LINE
  5
310
330
17
100
AcDbEntity
  8
0
100
AcDbLine
 10
17414.013035616703
 20
-1623.9101326633454
 30
-23.562603874273965
 11
17414.013034775697
 21
-1624.6601326633454
 31
-23.562603874273965
  0
ARC
  5
311
330
17
100
AcDbEntity
  8
0
100
AcDbCircle
 10
17483.64479470248
 20
-1624.6600503106745
 30
-23.22215939077123
 40
2.1249999999999996
100
AcDbArc
 50
270.000033248397
 51
6.424834285489324e-05
  0
LINE
  5
312
330
17
100
AcDbEntity
  8
0
100
AcDbLine
 10
17480.769799468195
 20
-1628.9100535345367
 30
-23.562462567328257
 11
17480.76981180298
 21
-1639.9100555345283
 31
-23.562462567328257
  0
LINE
  5
313
330
17
100
AcDbEntity
  8
0
100
AcDbLine
 10
17481.769799468195
 20
-1628.9100524131916
 30
-23.562462567328257
 11
17480.769799468195
 21
-1628.9100535345367
 31
-23.562462567328257
  0
LINE
  5
314
330
17
100
AcDbEntity
  8
0
100
AcDbLine
 10
17483.64479708534
 20
-1626.7850503106727
 30
-23.562462567328257
 11
17483.64479764601
 21
-1627.2850503106727
 31
-23.562462567328257
  0
LINE
  5
315
330
17
100
AcDbEntity
  8
0
100
AcDbLine
 10
17486.769793861473
 20
-1623.910046806475
 30
-23.562462567328257
 11
17486.76979470248
 21
-1624.660046806475
 31
-23.562462567328257
  0
LINE
  5
316
330
17
100
AcDbEntity
  8
0
100
AcDbLine
 10
17486.76979470248
 20
-1624.660046806475
 30
-23.562462567328257
 11
17485.76979470248
 21
-1624.660046806475
 31
-23.562462567328257
  0
LINE
  5
317
330
17
100
AcDbEntity
  8
0
100
AcDbLine
 10
17486.76979470248
 20
-1623.910046806475
 30
-23.562462567328257
 11
17486.76979470248
 21
-1624.660046806475
 31
-23.562462567328257
  0
ARC
  5
318
330
17
100
AcDbEntity
  8
0
100
AcDbCircle
 10
17471.46075389918
 20
-1624.7954295875422
 30
-21.384982370067924
 40
2.0668911301654735
100
AcDbArc
 50
285.71586496555165
 51
3.75545744598255
  0
LINE
  5
319
330
17
100
AcDbEntity
  8
0
100
AcDbLine
 10
17472.145610034047
 20
-1628.9100535345367
 30
-23.562603874273965
 11
17472.14562236884
 21
-1639.9100555345283
 31
-23.562603874273965
  0
LINE
  5
31A
330
17
100
AcDbEntity
  8
0
100
AcDbLine
 10
17472.645610034047
 20
-1628.9100529738641
 30
-23.562603874273965
 11
17472.145610034047
 21
-1628.9100535345367
 31
-23.562603874273965
  0
LINE
  5
31B
330
17
100
AcDbEntity
  8
0
100
AcDbLine
 10
17474.020607651193
 20
-1626.7850514320178
 30
-23.562603874273965
 11
17474.020608211864
 21
-1627.2850514320178
 31
-23.562603874273965
  0
ARC
  5
31C
330
17
100
AcDbEntity
  8
0
100
AcDbCircle
 10
17473.460753899682
 20
-1624.7954273448538
 30
-21.38498237007418
 40
2.0668911301654735
100
AcDbArc
 50
285.71586496555165
 51
3.75545744598255
  0
LINE
  5
31D
330
17
100
AcDbEntity
  8
0
100
AcDbLine
 10
17476.02320593086
 20
-1623.9100491864153
 30
-23.562603874273965
 11
17476.023206771864
 21
-1624.6600491864135
 31
-23.562603874273965
  0
LINE
  5
31E
330
17
100
AcDbEntity
  8
0
100
AcDbLine
 10
17470.145610033538
 20
-1628.9100557772251
 30
-23.562603874273965
 11
17470.14562236833
 21
-1639.9100577772167
 31
-23.562603874273965
  0
LINE
  5
31F
330
17
100
AcDbEntity
  8
0
100
AcDbLine
 10
17470.645610033538
 20
-1628.9100552165526
 30
-23.562603874273965
 11
17470.145610033538
 21
-1628.9100557772251
 31
-23.562603874273965
  0
LINE
  5
320
330
17
100
AcDbEntity
  8
0
100
AcDbLine
 10
17472.020607650684
 20
-1626.7850536747062
 30
-23.562603874273965
 11
17472.020608211355
 21
-1627.2850536747062
 31
-23.562603874273965
  0
LINE
  5
321
330
17
100
AcDbEntity
  8
0
100
AcDbLine
 10
17474.02320593035
 20
-1623.910051429102
 30
-23.562603874273965
 11
17474.023206771355
 21
-1624.660051429102
 31
-23.562603874273965
  0
LINE
  5
322
330
17
100
AcDbEntity
  8
0
100
AcDbLine
 10
17401.26644768558
 20
-1623.9101280407185
 30
-23.562462567328257
 11
17486.769793861455
 21
-1623.9100321622695
 31
-23.562462567328257
  0
LINE
  5
323
330
17
100
AcDbEntity
  8
0
100
AcDbLine
 10
17402.266446844573
 20
-1624.660131544918
 30
-23.22215939077123
 11
17485.769794700926
 21
-1624.660131544918
 31
-23.22215939077123
  0
LINE
  5
324
330
17
100
AcDbEntity
  8
0
100
AcDbLine
 10
17404.391445611447
 20
-1626.7851315449175
 30
-23.22215939077123
 11
17483.644797085333
 21
-1626.7850426751806
 31
-23.562462567328254
  0
LINE
  5
325
330
17
100
AcDbEntity
  8
0
100
AcDbLine
 10
17407.266442078857
 20
-1628.9101347687802
 30
-23.562462567328257
 11
17480.7697994682
 21
-1628.9100523462369
 31
-23.562462567328257
  0
ARC
  5
326
330
17
100
AcDbEntity
  8
0
100
AcDbCircle
 10
16598.6019280955
 20
-1624.6604679117133
 30
8.593445095552482
 40
2.1249999999999996
100
AcDbArc
 50
270.000033248397
 51
6.424834285489297e-05
  0
LINE
  5
327
330
17
100
AcDbEntity
  8
0
100
AcDbLine
 10
16595.726932861216
 20
-1628.9104711355756
 30
8.253141918995453
 11
16595.726945196002
 21
-1639.9104731355671
 31
8.253141918995453
  0
LINE
  5
328
330
17
100
AcDbEntity
  8
0
100
AcDbLine
 10
16596.726932861216
 20
-1628.9104700142304
 30
8.253141918995453
 11
16595.726932861216
 21
-1628.9104711355756
 31
8.253141918995453
  0
LINE
  5
329
330
17
100
AcDbEntity
  8
0
100
AcDbLine
 10
16598.601930478362
 20
-1626.7854679117115
 30
8.253141918995453
 11
16598.601931039033
 21
-1627.2854679117115
 31
8.253141918995453
  0
LINE
  5
32A
330
17
100
AcDbEntity
  8
0
100
AcDbLine
 10
16601.726927254495
 20
-1623.910464407514
 30
8.253141918995453
 11
16601.7269280955
 21
-1624.660464407514
 31
8.253141918995453
  0
LINE
  5
32B
330
17
100
AcDbEntity
  8
0
100
AcDbLine
 10
16594.975184334526
 20
-1639.910480280668
 30
-1.1191048088221578e-12
 11
16595.72511926877
 21
-1639.9104794397294
 31
-1.1191048088221578e-12
  0
LINE
  5
32C
330
17
100
AcDbEntity
  8
0
100
AcDbLine
 10
16600.726928095475
 20
-1624.6604779421602
 30
8.253141918995455
 11
16601.726928095522
 21
-1624.6604826623704
 31
8.253141918995455
  0
LINE
  5
32D
330
17
100
AcDbEntity
  8
0
100
AcDbLine
 10
16595.726944317343
 20
-1640.910473135569
 30
8.253141918995453
 11
16595.915674317344
 21
-1640.9104729239386
 31
8.253141918995453
  0
LINE
  5
32E
330
17
100
AcDbEntity
  8
0
100
AcDbLine
 10
16595.726947438692
 20
-1641.9104731355653
 30
8.253141918995453
 11
16595.726946317343
 21
-1640.9104731355671
 31
8.253141918995453
  0
LINE
  5
32F
330
17
100
AcDbEntity
  8
0
100
AcDbLine
 10
16596.2753177036
 20
-1640.1857990917504
 30
8.253141918995453
 11
16595.726945196002
 21
-1639.9104731355671
 31
8.253141918995453
  0
ARC
  5
330
330
17
100
AcDbEntity
  8
0
100
AcDbCircle
 10
16596.165674317344
 20
-1640.9104726436015
 30
9.001649494535988
 40
0.24999999999999997
100
AcDbArc
 50
90.00006424813441
 51
180.00006424719643
  0
ARC
  5
331
330
17
100
AcDbEntity
  8
0
100
AcDbCircle
 10
16596.165673756674
 20
-1640.4104726436015
 30
9.001649494535988
 40
0.24999999999999997
100
AcDbArc
 50
270.00006424813444
 51
63.98695394930336
  0
LINE
  5
332
330
17
100
AcDbEntity
  8
0
100
AcDbLine
 10
16584.14463026659
 20
-1640.6613558779723
 30
-1.1191048088221578e-12
 11
16596.14467819669
 21
-1640.6613558779723
 31
8.253141918995453
  0
LINE
  5
333
330
17
100
AcDbEntity
  8
0
100
AcDbLine
 10
16583.91562650235
 20
-1640.9107125451417
 30
2.8698883482753472
 11
16595.726946318333
 21
-1640.9113558779668
 31
8.253141918995453
  0
LINE
  5
334
330
17
100
AcDbEntity
  8
0
100
AcDbLine
 10
16583.726899508598
 20
-1641.9104865936777
 30
-2.9380942123680143e-12
 11
16594.976947438692
 21
-1641.9104739784505
 31
8.253141918995453
  0
LINE
  5
335
330
17
100
AcDbEntity
  8
0
100
AcDbLine
 10
16583.7268972659
 20
-1639.9104731355671
 30
-1.1191048088221578e-12
 11
16594.97694519601
 21
-1639.910473978454
 31
8.253141918995453
  0
LINE
  5
336
330
17
100
AcDbEntity
  8
0
100
AcDbLine
 10
16594.97694519601
 20
-1639.910473978454
 30
8.253141918995453
 11
16595.726945196002
 21
-1639.9104731355671
 31
8.253141918995453
  0
LINE
  5
337
330
17
100
AcDbEntity
  8
0
100
AcDbLine
 10
16594.976947438692
 20
-1641.9104739784505
 30
8.253141918995453
 11
16595.72694743852
 21
-1641.9103204743064
 31
8.253141918995453
  0
ARC
  5
338
330
17
100
AcDbEntity
  8
0
100
AcDbCircle
 10
16586.417884339622
 20
-1624.795833881725
 30
10.430763423201492
 40
2.0668911301654735
100
AcDbArc
 50
285.71586496555165
 51
3.7554574459697236
  0
LINE
  5
339
330
17
100
AcDbEntity
  8
0
100
AcDbLine
 10
16587.10274047449
 20
-1628.9104578287195
 30
8.253141918995453
 11
16587.10275280928
 21
-1639.910459828711
 31
8.253141918995453
  0
LINE
  5
33A
330
17
100
AcDbEntity
  8
0
100
AcDbLine
 10
16587.60274047449
 20
-1628.910457268047
 30
8.253141918995453
 11
16587.10274047449
 21
-1628.9104578287195
 31
8.253141918995453
  0
LINE
  5
33B
330
17
100
AcDbEntity
  8
0
100
AcDbLine
 10
16588.977738091635
 20
-1626.7854557262006
 30
8.253141918995453
 11
16588.977738652306
 21
-1627.2854557262006
 31
8.253141918995453
  0
ARC
  5
33C
330
17
100
AcDbEntity
  8
0
100
AcDbCircle
 10
16588.417884340124
 20
-1624.7958316390366
 30
10.430763423195238
 40
2.0668911301654735
100
AcDbArc
 50
285.71586496555165
 51
3.7554574459697236
  0
LINE
  5
33D
330
17
100
AcDbEntity
  8
0
100
AcDbLine
 10
16590.9803363713
 20
-1623.910453480598
 30
8.253141918995453
 11
16590.980337212306
 21
-1624.6604534805963
 31
8.253141918995453
  0
LINE
  5
33E
330
17
100
AcDbEntity
  8
0
100
AcDbLine
 10
16585.10274047398
 20
-1628.910460071408
 30
8.253141918995453
 11
16585.102752808772
 21
-1639.9104620713995
 31
8.253141918995453
  0
LINE
  5
33F
330
17
100
AcDbEntity
  8
0
100
AcDbLine
 10
16585.60274047398
 20
-1628.9104595107353
 30
8.253141918995453
 11
16585.10274047398
 21
-1628.910460071408
 31
8.253141918995453
  0
LINE
  5
340
330
17
100
AcDbEntity
  8
0
100
AcDbLine
 10
16586.977738091126
 20
-1626.785457968889
 30
8.253141918995453
 11
16586.977738651796
 21
-1627.285457968889
 31
8.253141918995453
  0
LINE
  5
341
330
17
100
AcDbEntity
  8
0
100
AcDbLine
 10
16588.98033637079
 20
-1623.9104557232847
 30
8.253141918995453
 11
16588.980337211797
 21
-1624.6604557232847
 31
8.253141918995453
  0
LINE
  5
342
330
17
100
AcDbEntity
  8
0
100
AcDbLine
 10
16586.352710826257
 20
-1641.9104629738945
 30
-1.120881165661558e-12
 11
16586.352822960667
 21
-1741.9104649608585
 31
-1.120881165661558e-12
  0
ARC
  5
343
330
17
100
AcDbEntity
  8
0
100
AcDbCircle
 10
16587.541437704975
 20
-1640.9104636389134
 30
-0.3403031765691388
 40
0.24999999999999997
100
AcDbArc
 50
90.00006424813441
 51
180.00006424719643
  0
ARC
  5
344
330
17
100
AcDbEntity
  8
0
100
AcDbCircle
 10
16585.541437704975
 20
-1640.9104658816018
 30
-0.3403031765691388
 40
0.24999999999999997
100
AcDbArc
 50
90.00006424813441
 51
180.00006424719643
  0
ARC
  5
345
330
17
100
AcDbEntity
  8
0
100
AcDbCircle
 10
16585.541437144304
 20
-1640.4104658816018
 30
-0.3403031765691388
 40
0.24999999999999997
100
AcDbArc
 50
270.00006424813444
 51
63.98695394930336
  0
LINE
  5
346
330
17
100
AcDbEntity
  8
0
100
AcDbLine
 10
16585.102710826315
 20
-1641.9104663735657
 30
-1.120881165661558e-12
 11
16585.102709704974
 21
-1640.9104663735657
 31
-1.120881165661558e-12
  0
LINE
  5
347
330
17
100
AcDbEntity
  8
0
100
AcDbLine
 10
16587.100926003382
 20
-1640.910466132877
 30
-1.120881165661558e-12
 11
16587.289656003384
 21
-1640.9104659212448
 31
-1.120881165661558e-12
  0
LINE
  5
348
330
17
100
AcDbEntity
  8
0
100
AcDbLine
 10
16587.100929124732
 20
-1641.9104661328734
 30
-1.120881165661558e-12
 11
16587.100928003383
 21
-1640.9104661328734
 31
-1.120881165661558e-12
  0
LINE
  5
349
330
17
100
AcDbEntity
  8
0
100
AcDbLine
 10
16587.64929938964
 20
-1640.1857920890566
 30
-1.120881165661558e-12
 11
16587.10092688204
 21
-1639.9104661328752
 31
-1.120881165661558e-12
  0
ARC
  5
34A
330
17
100
AcDbEntity
  8
0
100
AcDbCircle
 10
16587.539655442713
 20
-1640.4104656409095
 30
-0.3403031765691388
 40
0.24999999999999997
100
AcDbArc
 50
270.00006424813444
 51
63.98695394930336
  0
LINE
  5
34B
330
17
100
AcDbEntity
  8
0
100
AcDbLine
 10
16585.100926003382
 20
-1640.9104683755636
 30
-1.120881165661558e-12
 11
16585.289656003384
 21
-1640.9104681639333
 31
-1.120881165661558e-12
  0
LINE
  5
34C
330
17
100
AcDbEntity
  8
0
100
AcDbLine
 10
16585.100929124725
 20
-1641.910466375563
 30
-1.120881165661558e-12
 11
16584.350929124725
 21
-1641.9104672165709
 31
-1.120881165661558e-12
  0
LINE
  5
34D
330
17
100
AcDbEntity
  8
0
100
AcDbLine
 10
16585.64929938964
 20
-1640.185794331745
 30
-1.120881165661558e-12
 11
16585.10092688204
 21
-1639.9104683755636
 31
-1.120881165661558e-12
  0
LINE
  5
34E
330
17
100
AcDbEntity
  8
0
100
AcDbLine
 10
16601.726927254495
 20
-1623.910464407514
 30
8.253141918995453
 11
16582.97687932442
 21
-1623.9104854327709
 31
-2.0961010704922955e-13
  0
LINE
  5
34F
330
17
100
AcDbEntity
  8
0
100
AcDbLine
 10
16600.726928095475
 20
-1624.6604779421602
 30
8.253141918995455
 11
16582.97688016543
 21
-1624.6604978460753
 31
-5.666578317686799e-12
  0
LINE
  5
350
330
17
100
AcDbEntity
  8
0
100
AcDbLine
 10
16598.601929328626
 20
-1626.7854679117129
 30
8.593445095552482
 11
16582.976882548257
 21
-1626.7854679117129
 31
-1.1191048088221578e-12
  0
LINE
  5
351
330
17
100
AcDbEntity
  8
0
100
AcDbLine
 10
16595.726932861216
 20
-1628.9104711355756
 30
8.253141918995453
 11
16582.97688493112
 21
-1628.9104711355756
 31
-1.1191048088221578e-12
  0
ARC
  5
352
330
17
100
AcDbEntity
  8
0
100
AcDbCircle
 10
16584.206132911026
 20
-1640.4104706416067
 30
-0.3403031765680179
 40
0.24999999999999997
100
AcDbArc
 50
270.00006424813444
 51
63.98695394930336
  0
ENDSEC
  0
SECTION
  2
OBJECTS
  0
DICTIONARY
  5
A
330
0
100
AcDbDictionary
280
0
281
1
  3
ACAD_COLOR
350
B
  3
ACAD_GROUP
350
C
  3
ACAD_LAYOUT
350
D
  3
ACAD_MATERIAL
350
E
  3
ACAD_MLEADERSTYLE
350
F
  3
ACAD_MLINESTYLE
350
10
  3
ACAD_PLOTSETTINGS
350
11
  3
ACAD_PLOTSTYLENAME
350
12
  3
ACAD_SCALELIST
350
14
  3
ACAD_TABLESTYLE
350
15
  3
ACAD_VISUALSTYLE
350
16
  3
EZDXF_META
350
2D
  0
DICTIONARY
  5
B
330
A
100
AcDbDictionary
280
0
281
1
  0
DICTIONARY
  5
C
330
A
100
AcDbDictionary
280
0
281
1
  0
DICTIONARY
  5
D
330
A
100
AcDbDictionary
280
0
281
1
  3
Model
350
1A
  3
Layout1
350
1E
  0
DICTIONARY
  5
E
330
A
100
AcDbDictionary
280
0
281
1
  3
ByBlock
350
1F
  3
ByLayer
350
20
  3
Global
350
21
  0
DICTIONARY
  5
F
330
A
100
AcDbDictionary
280
0
281
1
  3
Standard
350
2C
  0
DICTIONARY
  5
10
330
A
100
AcDbDictionary
280
0
281
1
  3
Standard
350
22
  0
DICTIONARY
  5
11
330
A
100
AcDbDictionary
280
0
281
1
  0
ACDBDICTIONARYWDFLT
  5
12
330
A
100
AcDbDictionary
280
0
281
1
  3
Normal
350
13
100
AcDbDictionaryWithDefault
340
13
  0
ACDBPLACEHOLDER
  5
13
330
12
  0
DICTIONARY
  5
14
330
A
100
AcDbDictionary
280
0
281
1
  0
DICTIONARY
  5
15
330
A
100
AcDbDictionary
280
0
281
1
  0
DICTIONARY
  5
16
330
A
100
AcDbDictionary
280
0
281
1
  0
LAYOUT
  5
1A
330
D
100
AcDbPlotSettings
  1

  2
Adobe PDF
  4
A3
  6

 40
7.5
 41
20.0
 42
7.5
 43
20.0
 44
420.0
 45
297.0
 46
0.0
 47
0.0
 48
0.0
 49
0.0
140
0.0
141
0.0
142
1.0
143
1.0
 70
1024
 72
1
 73
0
 74
5
  7

 75
16
 76
0
 77
2
 78
300
147
1.0
148
0.0
149
0.0
100
AcDbLayout
  1
Model
 70
1
 71
0
 10
0.0
 20
0.0
 11
420.0
 21
297.0
 12
0.0
 22
0.0
 32
0.0
 14
1e+20
 24
1e+20
 34
1e+20
 15
-1e+20
 25
-1e+20
 35
-1e+20
146
0.0
 13
0.0
 23
0.0
 33
0.0
 16
1.0
 26
0.0
 36
0.0
 17
0.0
 27
1.0
 37
0.0
 76
1
330
17
  0
LAYOUT
  5
1E
330
D
100
AcDbPlotSettings
  1

  2
Adobe PDF
  4
A3
  6

 40
7.5
 41
20.0
 42
7.5
 43
20.0
 44
420.0
 45
297.0
 46
0.0
 47
0.0
 48
0.0
 49
0.0
140
0.0
141
0.0
142
1.0
143
1.0
 70
0
 72
1
 73
0
 74
5
  7

 75
16
 76
0
 77
2
 78
300
147
1.0
148
0.0
149
0.0
100
AcDbLayout
  1
Layout1
 70
1
 71
1
 10
0.0
 20
0.0
 11
420.0
 21
297.0
 12
0.0
 22
0.0
 32
0.0
 14
1e+20
 24
1e+20
 34
1e+20
 15
-1e+20
 25
-1e+20
 35
-1e+20
146
0.0
 13
0.0
 23
0.0
 33
0.0
 16
1.0
 26
0.0
 36
0.0
 17
0.0
 27
1.0
 37
0.0
 76
1
330
1B
  0
MATERIAL
  5
1F
102
{ACAD_REACTORS
330
E
102
}
330
E
100
AcDbMaterial
  1
ByBlock
  2

 70
0
 40
1.0
 71
1
 41
1.0
 91
-1023410177
 42
1.0
 72
1
  3

 73
1
 74
1
 75
1
 44
0.5
 73
0
 45
1.0
 46
1.0
 77
1
  4

 78
1
 79
1
170
1
 48
1.0
171
1
  6

172
1
173
1
174
1
140
1.0
141
1.0
175
1
  7

176
1
177
1
178
1
143
1.0
179
1
  8

270
1
271
1
272
1
145
1.0
146
1.0
273
1
  9

274
1
275
1
276
1
 42
1.0
 72
1
  3

 73
1
 74
1
 75
1
 94
63
  0
MATERIAL
  5
20
102
{ACAD_REACTORS
330
E
102
}
330
E
100
AcDbMaterial
  1
ByLayer
  2

 70
0
 40
1.0
 71
1
 41
1.0
 91
-1023410177
 42
1.0
 72
1
  3

 73
1
 74
1
 75
1
 44
0.5
 73
0
 45
1.0
 46
1.0
 77
1
  4

 78
1
 79
1
170
1
 48
1.0
171
1
  6

172
1
173
1
174
1
140
1.0
141
1.0
175
1
  7

176
1
177
1
178
1
143
1.0
179
1
  8

270
1
271
1
272
1
145
1.0
146
1.0
273
1
  9

274
1
275
1
276
1
 42
1.0
 72
1
  3

 73
1
 74
1
 75
1
 94
63
  0
MATERIAL
  5
21
102
{ACAD_REACTORS
330
E
102
}
330
E
100
AcDbMaterial
  1
Global
  2

 70
0
 40
1.0
 71
1
 41
1.0
 91
-1023410177
 42
1.0
 72
1
  3

 73
1
 74
1
 75
1
 44
0.5
 73
0
 45
1.0
 46
1.0
 77
1
  4

 78
1
 79
1
170
1
 48
1.0
171
1
  6

172
1
173
1
174
1
140
1.0
141
1.0
175
1
  7

176
1
177
1
178
1
143
1.0
179
1
  8

270
1
271
1
272
1
145
1.0
146
1.0
273
1
  9

274
1
275
1
276
1
 42
1.0
 72
1
  3

 73
1
 74
1
 75
1
 94
63
  0
MLINESTYLE
  5
22
102
{ACAD_REACTORS
330
10
102
}
330
10
100
AcDbMlineStyle
  2
Standard
 70
0
  3

 62
256
 51
90.0
 52
90.0
 71
2
 49
0.5
 62
256
  6
BYLAYER
 49
-0.5
 62
256
  6
BYLAYER
  0
MLEADERSTYLE
  5
2C
102
{ACAD_REACTORS
330
F
102
}
330
F
100
AcDbMLeaderStyle
179
2
170
2
171
1
172
0
 90
2
 40
0.0
 41
0.0
173
1
 91
-1056964608
 92
-2
290
1
 42
2.0
291
1
 43
8.0
  3
Standard
 44
4.0
300

342
29
174
1
175
1
176
0
178
1
 93
-1056964608
 45
4.0
292
0
297
0
 46
4.0
 94
-1056964608
 47
1.0
 49
1.0
140
1.0
294
1
141
0.0
177
0
142
1.0
295
0
296
0
143
3.75
271
0
272
9
273
9
  0
DICTIONARY
  5
2D
330
A
100
AcDbDictionary
281
1
  3
CREATED_BY_EZDXF
350
2E
  3
WRITTEN_BY_EZDXF
350
355
  0
DICTIONARYVAR
  5
2E
330
2D
100
DictionaryVariables
280
0
  1
1.0.3 @ 2023-09-07T14:48:37.730863+00:00
  0
DICTIONARYVAR
  5
355
330
2D
100
DictionaryVariables
280
0
  1
1.0.3 @ 2023-09-07T14:48:37.762111+00:00
  0
ENDSEC
  0
EOF
