  0
SECTION
  2
HEADER
  9
$ACADVER
  1
AC1027
  9
$ACADMAINTVER
 70
105
  9
$DWGCODEPAGE
  3
ANSI_1252
  9
$LASTSAVEDBY
  1
ezdxf
  9
$REQUIREDVERSIONS
160
0
  9
$INSBASE
 10
0.0
 20
0.0
 30
0.0
  9
$EXTMIN
 10
1e+20
 20
1e+20
 30
1e+20
  9
$EXTMAX
 10
-1e+20
 20
-1e+20
 30
-1e+20
  9
$LIMMIN
 10
0.0
 20
0.0
  9
$LIMMAX
 10
420.0
 20
297.0
  9
$ORTHOMODE
 70
0
  9
$REGENMODE
 70
1
  9
$FILLMODE
 70
1
  9
$QTEXTMODE
 70
0
  9
$MIRRTEXT
 70
1
  9
$LTSCALE
 40
1.0
  9
$ATTMODE
 70
1
  9
$TEXTSIZE
 40
2.5
  9
$TRACEWID
 40
1.0
  9
$TEXTSTYLE
  7
Standard
  9
$CLAYER
  8
0
  9
$CELTYPE
  6
ByLayer
  9
$CECOLOR
 62
256
  9
$CELTSCALE
 40
1.0
  9
$DISPSILH
 70
0
  9
$DIMSCALE
 40
1.0
  9
$DIMASZ
 40
2.5
  9
$DIMEXO
 40
0.625
  9
$DIMDLI
 40
3.75
  9
$DIMRND
 40
0.0
  9
$DIMDLE
 40
0.0
  9
$DIMEXE
 40
1.25
  9
$DIMTP
 40
0.0
  9
$DIMTM
 40
0.0
  9
$DIMTXT
 40
2.5
  9
$DIMCEN
 40
2.5
  9
$DIMTSZ
 40
0.0
  9
$DIMTOL
 70
0
  9
$DIMLIM
 70
0
  9
$DIMTIH
 70
0
  9
$DIMTOH
 70
0
  9
$DIMSE1
 70
0
  9
$DIMSE2
 70
0
  9
$DIMTAD
 70
1
  9
$DIMZIN
 70
8
  9
$DIMBLK
  1

  9
$DIMASO
 70
1
  9
$DIMSHO
 70
1
  9
$DIMPOST
  1

  9
$DIMAPOST
  1

  9
$DIMALT
 70
0
  9
$DIMALTD
 70
3
  9
$DIMALTF
 40
0.03937007874
  9
$DIMLFAC
 40
1.0
  9
$DIMTOFL
 70
1
  9
$DIMTVP
 40
0.0
  9
$DIMTIX
 70
0
  9
$DIMSOXD
 70
0
  9
$DIMSAH
 70
0
  9
$DIMBLK1
  1

  9
$DIMBLK2
  1

  9
$DIMSTYLE
  2
ISO-25
  9
$DIMCLRD
 70
0
  9
$DIMCLRE
 70
0
  9
$DIMCLRT
 70
0
  9
$DIMTFAC
 40
1.0
  9
$DIMGAP
 40
0.625
  9
$DIMJUST
 70
0
  9
$DIMSD1
 70
0
  9
$DIMSD2
 70
0
  9
$DIMTOLJ
 70
0
  9
$DIMTZIN
 70
8
  9
$DIMALTZ
 70
0
  9
$DIMALTTZ
 70
0
  9
$DIMUPT
 70
0
  9
$DIMDEC
 70
2
  9
$DIMTDEC
 70
2
  9
$DIMALTU
 70
2
  9
$DIMALTTD
 70
3
  9
$DIMTXSTY
  7
Standard
  9
$DIMAUNIT
 70
0
  9
$DIMADEC
 70
0
  9
$DIMALTRND
 40
0.0
  9
$DIMAZIN
 70
0
  9
$DIMDSEP
 70
44
  9
$DIMATFIT
 70
3
  9
$DIMFRAC
 70
0
  9
$DIMLDRBLK
  1

  9
$DIMLUNIT
 70
2
  9
$DIMLWD
 70
-2
  9
$DIMLWE
 70
-2
  9
$DIMTMOVE
 70
0
  9
$DIMFXL
 40
1.0
  9
$DIMFXLON
 70
0
  9
$DIMJOGANG
 40
0.785398163397
  9
$DIMTFILL
 70
0
  9
$DIMTFILLCLR
 70
0
  9
$DIMARCSYM
 70
0
  9
$DIMLTYPE
  6

  9
$DIMLTEX1
  6

  9
$DIMLTEX2
  6

  9
$DIMTXTDIRECTION
 70
0
  9
$LUNITS
 70
2
  9
$LUPREC
 70
4
  9
$SKETCHINC
 40
1.0
  9
$FILLETRAD
 40
10.0
  9
$AUNITS
 70
0
  9
$AUPREC
 70
2
  9
$MENU
  1
.
  9
$ELEVATION
 40
0.0
  9
$PELEVATION
 40
0.0
  9
$THICKNESS
 40
0.0
  9
$LIMCHECK
 70
0
  9
$CHAMFERA
 40
0.0
  9
$CHAMFERB
 40
0.0
  9
$CHAMFERC
 40
0.0
  9
$CHAMFERD
 40
0.0
  9
$SKPOLY
 70
0
  9
$TDCREATE
 40
2460195.762928241
  9
$TDUCREATE
 40
2458532.153996898
  9
$TDUPDATE
 40
2460195.762928241
  9
$TDUUPDATE
 40
2458532.1544311
  9
$TDINDWG
 40
0.0
  9
$TDUSRTIMER
 40
0.0
  9
$USRTIMER
 70
1
  9
$ANGBASE
 50
0.0
  9
$ANGDIR
 70
0
  9
$PDMODE
 70
0
  9
$PDSIZE
 40
0.0
  9
$PLINEWID
 40
0.0
  9
$SPLFRAME
 70
0
  9
$SPLINETYPE
 70
6
  9
$SPLINESEGS
 70
8
  9
$HANDSEED
  5
316
  9
$SURFTAB1
 70
6
  9
$SURFTAB2
 70
6
  9
$SURFTYPE
 70
6
  9
$SURFU
 70
6
  9
$SURFV
 70
6
  9
$UCSBASE
  2

  9
$UCSNAME
  2

  9
$UCSORG
 10
0.0
 20
0.0
 30
0.0
  9
$UCSXDIR
 10
1.0
 20
0.0
 30
0.0
  9
$UCSYDIR
 10
0.0
 20
1.0
 30
0.0
  9
$UCSORTHOREF
  2

  9
$UCSORTHOVIEW
 70
0
  9
$UCSORGTOP
 10
0.0
 20
0.0
 30
0.0
  9
$UCSORGBOTTOM
 10
0.0
 20
0.0
 30
0.0
  9
$UCSORGLEFT
 10
0.0
 20
0.0
 30
0.0
  9
$UCSORGRIGHT
 10
0.0
 20
0.0
 30
0.0
  9
$UCSORGFRONT
 10
0.0
 20
0.0
 30
0.0
  9
$UCSORGBACK
 10
0.0
 20
0.0
 30
0.0
  9
$PUCSBASE
  2

  9
$PUCSNAME
  2

  9
$PUCSORG
 10
0.0
 20
0.0
 30
0.0
  9
$PUCSXDIR
 10
1.0
 20
0.0
 30
0.0
  9
$PUCSYDIR
 10
0.0
 20
1.0
 30
0.0
  9
$PUCSORTHOREF
  2

  9
$PUCSORTHOVIEW
 70
0
  9
$PUCSORGTOP
 10
0.0
 20
0.0
 30
0.0
  9
$PUCSORGBOTTOM
 10
0.0
 20
0.0
 30
0.0
  9
$PUCSORGLEFT
 10
0.0
 20
0.0
 30
0.0
  9
$PUCSORGRIGHT
 10
0.0
 20
0.0
 30
0.0
  9
$PUCSORGFRONT
 10
0.0
 20
0.0
 30
0.0
  9
$PUCSORGBACK
 10
0.0
 20
0.0
 30
0.0
  9
$USERI1
 70
0
  9
$USERI2
 70
0
  9
$USERI3
 70
0
  9
$USERI4
 70
0
  9
$USERI5
 70
0
  9
$USERR1
 40
0.0
  9
$USERR2
 40
0.0
  9
$USERR3
 40
0.0
  9
$USERR4
 40
0.0
  9
$USERR5
 40
0.0
  9
$WORLDVIEW
 70
1
  9
$SHADEDGE
 70
3
  9
$SHADEDIF
 70
70
  9
$TILEMODE
 70
1
  9
$MAXACTVP
 70
64
  9
$PINSBASE
 10
0.0
 20
0.0
 30
0.0
  9
$PLIMCHECK
 70
0
  9
$PEXTMIN
 10
1e+20
 20
1e+20
 30
1e+20
  9
$PEXTMAX
 10
-1e+20
 20
-1e+20
 30
-1e+20
  9
$PLIMMIN
 10
0.0
 20
0.0
  9
$PLIMMAX
 10
420.0
 20
297.0
  9
$UNITMODE
 70
0
  9
$VISRETAIN
 70
1
  9
$PLINEGEN
 70
0
  9
$PSLTSCALE
 70
1
  9
$TREEDEPTH
 70
3020
  9
$CMLSTYLE
  2
Standard
  9
$CMLJUST
 70
0
  9
$CMLSCALE
 40
20.0
  9
$PROXYGRAPHICS
 70
1
  9
$MEASUREMENT
 70
1
  9
$CELWEIGHT
370
-1
  9
$ENDCAPS
280
0
  9
$JOINSTYLE
280
0
  9
$LWDISPLAY
290
0
  9
$INSUNITS
 70
6
  9
$HYPERLINKBASE
  1

  9
$STYLESHEET
  1

  9
$XEDIT
290
1
  9
$CEPSNTYPE
380
0
  9
$PSTYLEMODE
290
1
  9
$FINGERPRINTGUID
  2
{F7FCF5AB-5811-43C4-9342-EF15AE69DA7C}
  9
$VERSIONGUID
  2
{29027A19-316E-440F-822E-D986941CD479}
  9
$EXTNAMES
290
1
  9
$PSVPSCALE
 40
0.0
  9
$OLESTARTUP
290
0
  9
$SORTENTS
280
127
  9
$INDEXCTL
280
0
  9
$HIDETEXT
280
1
  9
$XCLIPFRAME
280
0
  9
$HALOGAP
280
0
  9
$OBSCOLOR
 70
257
  9
$OBSLTYPE
280
0
  9
$INTERSECTIONDISPLAY
280
0
  9
$INTERSECTIONCOLOR
 70
257
  9
$DIMASSOC
280
2
  9
$PROJECTNAME
  1

  9
$CAMERADISPLAY
290
0
  9
$LENSLENGTH
 40
50.0
  9
$CAMERAHEIGHT
 40
0.0
  9
$STEPSPERSEC
 40
24.0
  9
$STEPSIZE
 40
100.0
  9
$3DDWFPREC
 40
2.0
  9
$PSOLWIDTH
 40
0.005
  9
$PSOLHEIGHT
 40
0.08
  9
$LOFTANG1
 40
1.570796326795
  9
$LOFTANG2
 40
1.570796326795
  9
$LOFTMAG1
 40
0.0
  9
$LOFTMAG2
 40
0.0
  9
$LOFTPARAM
 70
7
  9
$LOFTNORMALS
280
1
  9
$LATITUDE
 40
37.795
  9
$LONGITUDE
 40
-122.394
  9
$NORTHDIRECTION
 40
0.0
  9
$TIMEZONE
 70
-8000
  9
$LIGHTGLYPHDISPLAY
280
1
  9
$TILEMODELIGHTSYNCH
280
1
  9
$CMATERIAL
347
20
  9
$SOLIDHIST
280
0
  9
$SHOWHIST
280
1
  9
$DWFFRAME
280
2
  9
$DGNFRAME
280
2
  9
$REALWORLDSCALE
290
1
  9
$INTERFERECOLOR
 62
256
  9
$CSHADOW
280
0
  9
$SHADOWPLANELOCATION
 40
0.0
  0
ENDSEC
  0
SECTION
  2
CLASSES
  0
CLASS
  1
ACDBDICTIONARYWDFLT
  2
AcDbDictionaryWithDefault
  3
ObjectDBX Classes
 90
0
 91
0
280
0
281
0
  0
CLASS
  1
SUN
  2
AcDbSun
  3
SCENEOE
 90
1153
 91
0
280
0
281
0
  0
CLASS
  1
VISUALSTYLE
  2
AcDbVisualStyle
  3
ObjectDBX Classes
 90
4095
 91
0
280
0
281
0
  0
CLASS
  1
MATERIAL
  2
AcDbMaterial
  3
ObjectDBX Classes
 90
1153
 91
0
280
0
281
0
  0
CLASS
  1
SCALE
  2
AcDbScale
  3
ObjectDBX Classes
 90
1153
 91
0
280
0
281
0
  0
CLASS
  1
TABLESTYLE
  2
AcDbTableStyle
  3
ObjectDBX Classes
 90
4095
 91
0
280
0
281
0
  0
CLASS
  1
MLEADERSTYLE
  2
AcDbMLeaderStyle
  3
ACDB_MLEADERSTYLE_CLASS
 90
4095
 91
0
280
0
281
0
  0
CLASS
  1
DICTIONARYVAR
  2
AcDbDictionaryVar
  3
ObjectDBX Classes
 90
0
 91
0
280
0
281
0
  0
CLASS
  1
CELLSTYLEMAP
  2
AcDbCellStyleMap
  3
ObjectDBX Classes
 90
1152
 91
0
280
0
281
0
  0
CLASS
  1
MENTALRAYRENDERSETTINGS
  2
AcDbMentalRayRenderSettings
  3
SCENEOE
 90
1024
 91
0
280
0
281
0
  0
CLASS
  1
ACDBDETAILVIEWSTYLE
  2
AcDbDetailViewStyle
  3
ObjectDBX Classes
 90
1025
 91
0
280
0
281
0
  0
CLASS
  1
ACDBSECTIONVIEWSTYLE
  2
AcDbSectionViewStyle
  3
ObjectDBX Classes
 90
1025
 91
0
280
0
281
0
  0
CLASS
  1
RASTERVARIABLES
  2
AcDbRasterVariables
  3
ISM
 90
0
 91
0
280
0
281
0
  0
CLASS
  1
ACDBPLACEHOLDER
  2
AcDbPlaceHolder
  3
ObjectDBX Classes
 90
0
 91
0
280
0
281
0
  0
CLASS
  1
LAYOUT
  2
AcDbLayout
  3
ObjectDBX Classes
 90
0
 91
0
280
0
281
0
  0
ENDSEC
  0
SECTION
  2
TABLES
  0
TABLE
  2
VPORT
  5
8
330
0
100
AcDbSymbolTable
 70
1
  0
VPORT
  5
23
330
8
100
AcDbSymbolTableRecord
100
AcDbViewportTableRecord
  2
*Active
 70
0
 10
0.0
 20
0.0
 11
1.0
 21
1.0
 12
0.0
 22
0.0
 13
0.0
 23
0.0
 14
0.5
 24
0.5
 15
0.5
 25
0.5
 16
0.0
 26
0.0
 36
1.0
 17
0.0
 27
0.0
 37
0.0
 40
1000.0
 41
1.34
 42
50.0
 43
0.0
 44
0.0
 50
0.0
 51
0.0
 71
0
 72
1000
 73
1
 74
3
 75
0
 76
0
 77
0
 78
0
281
0
 65
0
146
0.0
  0
ENDTAB
  0
TABLE
  2
LTYPE
  5
2
330
0
100
AcDbSymbolTable
 70
3
  0
LTYPE
  5
24
330
2
100
AcDbSymbolTableRecord
100
AcDbLinetypeTableRecord
  2
ByBlock
 70
0
  3

 72
65
 73
0
 40
0.0
  0
LTYPE
  5
25
330
2
100
AcDbSymbolTableRecord
100
AcDbLinetypeTableRecord
  2
ByLayer
 70
0
  3

 72
65
 73
0
 40
0.0
  0
LTYPE
  5
26
330
2
100
AcDbSymbolTableRecord
100
AcDbLinetypeTableRecord
  2
Continuous
 70
0
  3

 72
65
 73
0
 40
0.0
  0
ENDTAB
  0
TABLE
  2
LAYER
  5
1
330
0
100
AcDbSymbolTable
 70
2
  0
LAYER
  5
27
330
1
100
AcDbSymbolTableRecord
100
AcDbLayerTableRecord
  2
0
 70
0
 62
7
  6
Continuous
370
-3
390
13
347
21
  0
LAYER
  5
28
330
1
100
AcDbSymbolTableRecord
100
AcDbLayerTableRecord
  2
Defpoints
 70
0
 62
7
  6
Continuous
290
0
370
-3
390
13
347
21
  0
ENDTAB
  0
TABLE
  2
STYLE
  5
5
330
0
100
AcDbSymbolTable
 70
1
  0
STYLE
  5
29
330
5
100
AcDbSymbolTableRecord
100
AcDbTextStyleTableRecord
  2
Standard
 70
0
 40
0.0
 41
1.0
 50
0.0
 71
0
 42
2.5
  3
txt
  4

  0
ENDTAB
  0
TABLE
  2
VIEW
  5
7
330
0
100
AcDbSymbolTable
 70
0
  0
ENDTAB
  0
TABLE
  2
UCS
  5
6
330
0
100
AcDbSymbolTable
 70
0
  0
ENDTAB
  0
TABLE
  2
APPID
  5
3
330
0
100
AcDbSymbolTable
 70
3
  0
APPID
  5
2A
330
3
100
AcDbSymbolTableRecord
100
AcDbRegAppTableRecord
  2
ACAD
 70
0
  0
APPID
  5
313
330
3
100
AcDbSymbolTableRecord
100
AcDbRegAppTableRecord
  2
HATCHBACKGROUNDCOLOR
 70
0
  0
APPID
  5
314
330
3
100
AcDbSymbolTableRecord
100
AcDbRegAppTableRecord
  2
EZDXF
 70
0
  0
ENDTAB
  0
TABLE
  2
DIMSTYLE
  5
4
330
0
100
AcDbSymbolTable
 70
1
100
AcDbDimStyleTable
  0
DIMSTYLE
105
2B
330
4
100
AcDbSymbolTableRecord
100
AcDbDimStyleTableRecord
  2
Standard
 70
0
 40
1.0
 41
2.5
 42
0.625
 43
3.75
 44
1.25
 45
0.0
 46
0.0
 47
0.0
 48
0.0
 49
2.5
140
2.5
141
2.5
142
0.0
143
0.03937007874
144
1.0
145
0.0
146
1.0
147
0.625
148
0.0
 69
0
 70
0
 71
0
 72
0
 73
0
 74
0
 75
0
 76
0
 77
1
 78
8
 79
3
170
0
171
3
172
1
173
0
174
0
175
0
176
0
177
0
178
0
179
2
271
2
272
2
273
2
274
3
275
0
276
0
277
2
278
44
279
0
280
0
281
0
282
0
283
0
284
8
285
0
286
0
288
0
289
3
290
0
371
-2
372
-2
  0
ENDTAB
  0
TABLE
  2
BLOCK_RECORD
  5
9
330
0
100
AcDbSymbolTable
 70
2
  0
BLOCK_RECORD
  5
17
330
9
100
AcDbSymbolTableRecord
100
AcDbBlockTableRecord
  2
*Model_Space
340
1A
 70
0
280
1
281
0
  0
BLOCK_RECORD
  5
1B
330
9
100
AcDbSymbolTableRecord
100
AcDbBlockTableRecord
  2
*Paper_Space
340
1E
 70
0
280
1
281
0
  0
ENDTAB
  0
ENDSEC
  0
SECTION
  2
BLOCKS
  0
BLOCK
  5
18
330
17
100
AcDbEntity
  8
0
100
AcDbBlockBegin
  2
*Model_Space
 70
0
 10
0.0
 20
0.0
 30
0.0
  3
*Model_Space
  1

  0
ENDBLK
  5
19
330
17
100
AcDbEntity
  8
0
100
AcDbBlockEnd
  0
BLOCK
  5
1C
330
1B
100
AcDbEntity
  8
0
100
AcDbBlockBegin
  2
*Paper_Space
 70
0
 10
0.0
 20
0.0
 30
0.0
  3
*Paper_Space
  1

  0
ENDBLK
  5
1D
330
1B
100
AcDbEntity
  8
0
100
AcDbBlockEnd
  0
ENDSEC
  0
SECTION
  2
ENTITIES
  0
LINE
  5
2F
330
17
100
AcDbEntity
  8
0
100
AcDbLine
 10
11404.169934041649
 20
5570.706031677909
 30
-2.3138712776836745
 11
11167.368591401177
 21
5588.8129068363
 31
0.0
  0
LINE
  5
30
330
17
100
AcDbEntity
  8
0
100
AcDbLine
 10
11167.368591401211
 20
5570.706031677909
 30
0.0
 11
11404.169934041653
 21
5588.624836557105
 31
0.0
  0
LINE
  5
31
330
17
100
AcDbEntity
  8
0
100
AcDbLine
 10
11737.767035257728
 20
6536.539305627638
 30
0.0
 11
11707.271402194545
 21
6536.539305642566
 31
0.0
  0
LINE
  5
32
330
17
100
AcDbEntity
  8
0
100
AcDbLine
 10
11479.27127947249
 20
6536.539305627638
 30
0.0
 11
11448.769743419562
 21
6536.539305627638
 31
0.0
  0
LINE
  5
33
330
17
100
AcDbEntity
  8
0
100
AcDbLine
 10
11448.769743419562
 20
6536.539305627638
 30
0.0
 11
11448.7697082142
 21
6497.789305628197
 31
0.0
  0
LINE
  5
34
330
17
100
AcDbEntity
  8
0
100
AcDbLine
 10
11459.769708214204
 20
6497.789305628197
 30
0.0
 11
11122.770599199663
 21
6497.789305628195
 31
0.0
  0
LINE
  5
35
330
17
100
AcDbEntity
  8
0
100
AcDbLine
 10
11122.770599199663
 20
6497.789305628195
 30
0.0
 11
11122.770599199666
 21
6536.539305627638
 31
0.0
  0
LINE
  5
36
330
17
100
AcDbEntity
  8
0
100
AcDbLine
 10
11122.770599199666
 20
6536.539305627638
 30
0.0
 11
10833.771490185152
 21
6536.539305627638
 31
0.0
  0
LINE
  5
37
330
17
100
AcDbEntity
  8
0
100
AcDbLine
 10
10833.771490185152
 20
6536.539305627638
 30
0.0
 11
10833.771462863422
 21
6457.61399078649
 31
0.0
  0
LINE
  5
38
330
17
100
AcDbEntity
  8
0
100
AcDbLine
 10
10833.771433086213
 20
6361.613995167306
 30
0.0
 11
10833.771411634063
 21
6328.78841537673
 31
0.0
  0
LINE
  5
39
330
17
100
AcDbEntity
  8
0
100
AcDbLine
 10
10833.771411634063
 20
6328.78841537673
 30
0.0
 11
10647.770596094642
 21
6328.788473130471
 31
0.0
  0
LINE
  5
3A
330
17
100
AcDbEntity
  8
0
100
AcDbLine
 10
10647.770596094642
 20
6328.788473130471
 30
0.0
 11
10647.770599199668
 21
6226.206120776457
 31
0.0
  0
LINE
  5
3B
330
17
100
AcDbEntity
  8
0
100
AcDbLine
 10
10647.770599199668
 20
6226.206120776457
 30
0.0
 11
10557.770599199668
 21
6226.206120776457
 31
0.0
  0
LINE
  5
3C
330
17
100
AcDbEntity
  8
0
100
AcDbLine
 10
10557.770599199668
 20
6226.206120776457
 30
0.0
 11
10557.770599199668
 21
6210.705972295419
 31
0.0
  0
LINE
  5
3D
330
17
100
AcDbEntity
  8
0
100
AcDbLine
 10
10557.770599199665
 20
6069.205823814379
 30
0.0
 11
10585.770599199665
 21
6069.205823814379
 31
0.0
  0
LINE
  5
3E
330
17
100
AcDbEntity
  8
0
100
AcDbLine
 10
10585.770599199665
 20
6069.205823814379
 30
0.0
 11
10585.770599199665
 21
5652.706120776457
 31
0.0
  0
LINE
  5
3F
330
17
100
AcDbEntity
  8
0
100
AcDbLine
 10
10834.771411308515
 20
6327.7884150662285
 30
0.0
 11
10648.770596094642
 21
6327.788472819968
 31
0.0
  0
LINE
  5
40
330
17
100
AcDbEntity
  8
0
100
AcDbLine
 10
10648.770596094642
 20
6327.788472819968
 30
0.0
 11
10648.770599199668
 21
6225.206120776457
 31
0.0
  0
LINE
  5
41
330
17
100
AcDbEntity
  8
0
100
AcDbLine
 10
10648.770599199668
 20
6225.206120776457
 30
0.0
 11
10558.770599199668
 21
6225.206120776457
 31
0.0
  0
LINE
  5
42
330
17
100
AcDbEntity
  8
0
100
AcDbLine
 10
10558.770599199668
 20
6225.206120776457
 30
0.0
 11
10558.770599199668
 21
6209.705972295419
 31
0.0
  0
LINE
  5
43
330
17
100
AcDbEntity
  8
0
100
AcDbLine
 10
10558.770599199665
 20
6070.205823814379
 30
0.0
 11
10586.770599199665
 21
6070.205823814379
 31
0.0
  0
LINE
  5
44
330
17
100
AcDbEntity
  8
0
100
AcDbLine
 10
10586.770599199665
 20
6070.205823814379
 30
0.0
 11
10586.770599199665
 21
5653.706120776457
 31
0.0
  0
LINE
  5
45
330
17
100
AcDbEntity
  8
0
100
AcDbLine
 10
10586.770599199665
 20
5653.706120776457
 30
0.0
 11
10635.501954261692
 21
5653.706120776457
 31
0.0
  0
LINE
  5
46
330
17
100
AcDbEntity
  8
0
100
AcDbLine
 10
10635.501954261692
 20
5653.706120776457
 30
0.0
 11
10635.501954261692
 21
5635.706120776454
 31
0.0
  0
LINE
  5
47
330
17
100
AcDbEntity
  8
0
100
AcDbLine
 10
10635.501954261692
 20
5635.706120776454
 30
0.0
 11
10798.039244137644
 21
5635.706120775777
 31
0.0
  0
LINE
  5
48
330
17
100
AcDbEntity
  8
0
100
AcDbLine
 10
10798.039244137644
 20
5635.706120775777
 30
0.0
 11
10798.039244137644
 21
5653.706120776457
 31
0.0
  0
LINE
  5
49
330
17
100
AcDbEntity
  8
0
100
AcDbLine
 10
10798.039244137644
 20
5653.706120776457
 30
0.0
 11
10846.770599199665
 21
5653.706120776457
 31
0.0
  0
LINE
  5
4A
330
17
100
AcDbEntity
  8
0
100
AcDbLine
 10
10846.770599199665
 20
5653.706120776457
 30
0.0
 11
10846.770599199299
 21
5721.205967536444
 31
0.0
  0
LINE
  5
4B
330
17
100
AcDbEntity
  8
0
100
AcDbLine
 10
10846.770599199299
 20
5721.205967536444
 30
0.0
 11
10863.770599768364
 21
5721.205967536444
 31
0.0
  0
LINE
  5
4C
330
17
100
AcDbEntity
  8
0
100
AcDbLine
 10
11167.36859140101
 20
5678.205742436986
 30
0.0
 11
11185.368145900387
 21
5678.205680884569
 31
0.0
  0
LINE
  5
4D
330
17
100
AcDbEntity
  8
0
100
AcDbLine
 10
11185.368145900387
 20
5678.205680884569
 30
0.0
 11
11185.36814590061
 21
5588.70608634297
 31
0.0
  0
LINE
  5
4E
330
17
100
AcDbEntity
  8
0
100
AcDbLine
 10
11234.765883744352
 20
5604.706031677909
 30
0.0
 11
11234.765883744352
 21
5604.706031677909
 31
0.0
  0
LINE
  5
4F
330
17
100
AcDbEntity
  8
0
100
AcDbLine
 10
11234.818343473078
 20
5598.706031677912
 30
0.0
 11
11234.765883744354
 21
5630.103324020815
 31
0.0
  0
LINE
  5
50
330
17
100
AcDbEntity
  8
0
100
AcDbLine
 10
11234.765883744354
 20
5630.103324020815
 30
0.0
 11
11214.765883744354
 21
5630.103324020815
 31
0.0
  0
LINE
  5
51
330
17
100
AcDbEntity
  8
0
100
AcDbLine
 10
11214.765883744354
 20
5630.103324020815
 30
0.0
 11
11214.765883744356
 21
5700.705967536443
 31
0.0
  0
LINE
  5
52
330
17
100
AcDbEntity
  8
0
100
AcDbLine
 10
11214.765883744356
 20
5700.705967536443
 30
0.0
 11
11356.772641698526
 21
5700.705967536443
 31
0.0
  0
LINE
  5
53
330
17
100
AcDbEntity
  8
0
100
AcDbLine
 10
11356.772641698526
 20
5700.705967536443
 30
0.0
 11
11356.772641698526
 21
5630.103324020815
 31
0.0
  0
LINE
  5
54
330
17
100
AcDbEntity
  8
0
100
AcDbLine
 10
11356.772641698526
 20
5630.103324020815
 30
0.0
 11
11336.772641698526
 21
5630.103324020815
 31
0.0
  0
LINE
  5
55
330
17
100
AcDbEntity
  8
0
100
AcDbLine
 10
11336.772641698526
 20
5630.103324020815
 30
0.0
 11
11336.772641698526
 21
5598.706031677909
 31
0.0
  0
LINE
  5
56
330
17
100
AcDbEntity
  8
0
100
AcDbLine
 10
11204.765883744352
 20
5606.706031677909
 30
0.0
 11
11204.765883744354
 21
5678.205706880284
 31
0.0
  0
LINE
  5
57
330
17
100
AcDbEntity
  8
0
100
AcDbLine
 10
11205.765883744356
 20
5710.705967536443
 30
-3.006217268921735e-14
 11
11366.772641698526
 21
5710.705967536443
 31
-2.3138712776837047
  0
LINE
  5
58
330
17
100
AcDbEntity
  8
0
100
AcDbLine
 10
11366.772641698526
 20
5710.705967536443
 30
-2.3138712776837047
 11
11366.772641698526
 21
5688.217252870891
 31
-1.8135249023991584
  0
LINE
  5
59
330
17
100
AcDbEntity
  8
0
100
AcDbLine
 10
11386.170379542562
 20
5588.706031677909
 30
0.0
 11
11386.170379542693
 21
5678.206120776457
 31
0.0
  0
LINE
  5
5A
330
17
100
AcDbEntity
  8
0
100
AcDbLine
 10
11386.170379542693
 20
5678.206120776457
 30
0.0
 11
11404.169934041669
 21
5678.206120776457
 31
0.0
  0
LINE
  5
5B
330
17
100
AcDbEntity
  8
0
100
AcDbLine
 10
11366.772641698526
 20
5606.706031677909
 30
0.0
 11
11376.170379542595
 21
5606.706031677909
 31
0.0
  0
LINE
  5
5C
330
17
100
AcDbEntity
  8
0
100
AcDbLine
 10
11376.170379542595
 20
5606.706031677909
 30
0.0
 11
11376.170379542711
 21
5678.206120776459
 31
0.0
  0
LINE
  5
5D
330
17
100
AcDbEntity
  8
0
100
AcDbLine
 10
11654.767925105758
 20
5721.205967536444
 30
0.0
 11
11671.767925674943
 21
5721.205967536444
 31
0.0
  0
LINE
  5
5E
330
17
100
AcDbEntity
  8
0
100
AcDbLine
 10
11724.767926243216
 20
5721.205967536444
 30
0.0
 11
11724.767926243216
 21
5653.706120776457
 31
0.0
  0
LINE
  5
5F
330
17
100
AcDbEntity
  8
0
100
AcDbLine
 10
11724.767926243216
 20
5653.706120776457
 30
0.0
 11
11773.500172156031
 21
5653.706120776457
 31
0.0
  0
LINE
  5
60
330
17
100
AcDbEntity
  8
0
100
AcDbLine
 10
11773.500172156031
 20
5653.706120776457
 30
0.0
 11
11773.500172156031
 21
5635.706120776459
 31
0.0
  0
LINE
  5
61
330
17
100
AcDbEntity
  8
0
100
AcDbLine
 10
11773.500172156031
 20
5635.706120776459
 30
0.0
 11
11936.037462031984
 21
5635.70612077681
 31
0.0
  0
LINE
  5
62
330
17
100
AcDbEntity
  8
0
100
AcDbLine
 10
11936.037462031984
 20
5635.70612077681
 30
0.0
 11
11936.037462031984
 21
5653.706120776457
 31
0.0
  0
LINE
  5
63
330
17
100
AcDbEntity
  8
0
100
AcDbLine
 10
11936.037462031984
 20
5653.706120776457
 30
0.0
 11
11984.76815952773
 21
5653.718113994132
 31
0.0
  0
LINE
  5
64
330
17
100
AcDbEntity
  8
0
100
AcDbLine
 10
11984.76815952773
 20
5653.718113994132
 30
0.0
 11
11984.864181447205
 21
6070.217817032054
 31
0.0
  0
LINE
  5
65
330
17
100
AcDbEntity
  8
0
100
AcDbLine
 10
11984.864181447205
 20
6070.217817032054
 30
0.0
 11
12012.863900989985
 21
6070.213619413209
 31
0.0
  0
LINE
  5
66
330
17
100
AcDbEntity
  8
0
100
AcDbLine
 10
12012.863900989985
 20
6070.213619413209
 30
0.0
 11
12012.863900989985
 21
6085.713767894249
 31
0.0
  0
LINE
  5
67
330
17
100
AcDbEntity
  8
0
100
AcDbLine
 10
11922.863948162687
 20
6327.78847313096
 30
0.0
 11
11736.76703513889
 21
6327.788460437433
 31
0.0
  0
LINE
  5
68
330
17
100
AcDbEntity
  8
0
100
AcDbLine
 10
11736.76703513889
 20
6327.788460437433
 30
0.0
 11
11736.767035156545
 21
6362.613995167306
 31
0.0
  0
LINE
  5
69
330
17
100
AcDbEntity
  8
0
100
AcDbLine
 10
10855.771490184787
 20
5740.205967536444
 30
0.0
 11
10863.770599767939
 21
5740.205967536444
 31
0.0
  0
LINE
  5
6A
330
17
100
AcDbEntity
  8
0
100
AcDbLine
 10
10935.770599768286
 20
5740.205967536444
 30
0.0
 11
10935.770599768286
 21
5722.205967536444
 31
0.0
  0
LINE
  5
6B
330
17
100
AcDbEntity
  8
0
100
AcDbLine
 10
11955.861465840166
 20
6092.7068915559385
 30
-0.26018290938205313
 11
11955.85519708673
 21
6196.789070801611
 31
4.0024625845543
  0
LINE
  5
6C
330
17
100
AcDbEntity
  8
0
100
AcDbLine
 10
11879.8639518132
 20
6308.782878121126
 30
0.0
 11
11727.768313625067
 21
6308.788460425958
 31
0.7910703484001029
  0
LINE
  5
6D
330
17
100
AcDbEntity
  8
0
100
AcDbLine
 10
11717.767035129606
 20
6308.788460446735
 30
0.0
 11
11717.76703514948
 21
6426.090228127777
 31
0.0
  0
LINE
  5
6E
330
17
100
AcDbEntity
  8
0
100
AcDbLine
 10
11717.772304131993
 20
6432.590246866684
 30
0.0
 11
11717.772304227265
 21
6516.539324376335
 31
0.0
  0
LINE
  5
6F
330
17
100
AcDbEntity
  8
0
100
AcDbLine
 10
11717.772304227265
 20
6516.539324376335
 30
0.0
 11
11663.271402194541
 21
6516.539305745367
 31
0.0
  0
LINE
  5
70
330
17
100
AcDbEntity
  8
0
100
AcDbLine
 10
11585.395543575876
 20
6516.539291727079
 30
0.0
 11
11468.769725215732
 21
6516.539324366544
 31
0.0
  0
LINE
  5
71
330
17
100
AcDbEntity
  8
0
100
AcDbLine
 10
11462.269916119318
 20
6477.789324367102
 30
0.0
 11
11393.774649494424
 21
6477.784681678873
 31
0.0
  0
LINE
  5
72
330
17
100
AcDbEntity
  8
0
100
AcDbLine
 10
11177.774276644299
 20
6477.789305628182
 30
0.0
 11
11109.270599199663
 21
6477.789305628182
 31
0.0
  0
LINE
  5
73
330
17
100
AcDbEntity
  8
0
100
AcDbLine
 10
11102.770599199666
 20
6466.781873441561
 30
0.0
 11
11102.770599199666
 21
6466.781873441561
 31
0.0
  0
LINE
  5
74
330
17
100
AcDbEntity
  8
0
100
AcDbLine
 10
11102.770599199666
 20
6516.539305627636
 30
0.0
 11
10853.771483674192
 21
6516.539305627636
 31
0.0
  0
LINE
  5
75
330
17
100
AcDbEntity
  8
0
100
AcDbLine
 10
10853.769215694309
 20
6516.539305627636
 30
0.0
 11
10853.771140700077
 21
6345.451203174763
 31
0.0
  0
LINE
  5
76
330
17
100
AcDbEntity
  8
0
100
AcDbLine
 10
10853.771134567478
 20
6345.451203174763
 30
0.0
 11
10853.77141034419
 21
6315.288409166681
 31
0.0
  0
LINE
  5
77
330
17
100
AcDbEntity
  8
0
100
AcDbLine
 10
10853.771408228127
 20
6308.788409166681
 30
0.0
 11
10853.771391381151
 21
6203.289305628744
 31
0.0
  0
LINE
  5
78
330
17
100
AcDbEntity
  8
0
100
AcDbLine
 10
10929.770980448582
 20
6308.7883986645875
 30
0.0
 11
10929.770978479442
 21
6295.2884117921485
 31
0.0
  0
LINE
  5
79
330
17
100
AcDbEntity
  8
0
100
AcDbLine
 10
10847.271407239159
 20
6308.788411184947
 30
0.0
 11
10667.770596094642
 21
6308.788466920416
 31
0.0
  0
LINE
  5
7A
330
17
100
AcDbEntity
  8
0
100
AcDbLine
 10
10667.770596094642
 20
6308.788466920416
 30
0.0
 11
10667.770599199675
 21
6213.307638962096
 31
0.0
  0
LINE
  5
7B
330
17
100
AcDbEntity
  8
0
100
AcDbLine
 10
10667.770599199675
 20
6206.747638962094
 30
0.0
 11
10667.770599199665
 21
6092.706863280901
 31
0.0
  0
LINE
  5
7C
330
17
100
AcDbEntity
  8
0
100
AcDbLine
 10
11734.768313630018
 20
6073.706611824023
 30
2.3138712776836745
 11
11974.864988328552
 21
6073.718856498576
 31
0.0
  0
LINE
  5
7D
330
17
100
AcDbEntity
  8
0
100
AcDbLine
 10
11734.768313630006
 20
5721.205716079564
 30
2.3138712776836745
 11
11734.768313630018
 21
6073.706611824023
 31
2.3138712776836745
  0
LINE
  5
7E
330
17
100
AcDbEntity
  8
0
100
AcDbLine
 10
11724.768313630018
 20
5731.205716079566
 30
2.3138712776836745
 11
11724.768313630018
 21
6083.706611824023
 31
2.3138712776836745
  0
LINE
  5
7F
330
17
100
AcDbEntity
  8
0
100
AcDbLine
 10
11724.768313630018
 20
6083.706611824023
 30
2.3138712776836745
 11
11964.863948162687
 21
6083.706863280901
 31
0.0
  0
LINE
  5
80
330
17
100
AcDbEntity
  8
0
100
AcDbLine
 10
11975.863948162687
 20
6083.706863280901
 30
0.0
 11
12002.863900989985
 21
6083.714658879731
 31
0.0
  0
LINE
  5
81
330
17
100
AcDbEntity
  8
0
100
AcDbLine
 10
11715.768313630018
 20
5740.205716079566
 30
2.3138712776836745
 11
11715.768313630022
 21
5957.705673861329
 31
2.3138712776836745
  0
LINE
  5
82
330
17
100
AcDbEntity
  8
0
100
AcDbLine
 10
11715.768313630022
 20
5983.705716078995
 30
2.3138712776836745
 11
11715.768313630011
 21
6134.747387505214
 31
2.3138712776836745
  0
LINE
  5
83
330
17
100
AcDbEntity
  8
0
100
AcDbLine
 10
11092.26850606993
 20
6676.5393092786535
 30
-0.6806063531139644
 11
10864.268975684918
 21
6676.5393092786535
 31
-0.6806063531139644
  0
LINE
  5
84
330
17
100
AcDbEntity
  8
0
100
AcDbLine
 10
10864.268975684918
 20
6676.5393092786535
 30
-0.6806063531139644
 11
10864.268975684916
 21
6536.539305627638
 31
0.0
  0
LINE
  5
85
330
17
100
AcDbEntity
  8
0
100
AcDbLine
 10
11092.268506069928
 20
6536.539305627638
 30
0.0
 11
11092.26850606993
 21
6676.5393092786535
 31
-0.6806063531139644
  0
LINE
  5
86
330
17
100
AcDbEntity
  8
0
100
AcDbLine
 10
11083.26850606993
 20
6667.5393092786535
 30
-0.6806063531139644
 11
10873.268975684916
 21
6535.539305627638
 31
0.0
  0
LINE
  5
87
330
17
100
AcDbEntity
  8
0
100
AcDbLine
 10
10873.268975684914
 20
6667.5393092786535
 30
-0.6806063531139644
 11
11083.268506069924
 21
6535.539305627638
 31
0.0
  0
LINE
  5
88
330
17
100
AcDbEntity
  8
0
100
AcDbLine
 10
10836.771490185152
 20
6073.706863280901
 30
0.0
 11
10596.770599199665
 21
6073.706863280901
 31
0.0
  0
LINE
  5
89
330
17
100
AcDbEntity
  8
0
100
AcDbLine
 10
10846.771490184787
 20
5731.205967536444
 30
0.0
 11
10846.771490185152
 21
6083.706863280901
 31
0.0
  0
LINE
  5
8A
330
17
100
AcDbEntity
  8
0
100
AcDbLine
 10
10853.771390433029
 20
6108.705972295441
 30
0.0
 11
10853.771390433036
 21
6134.747638962094
 31
0.0
  0
LINE
  5
8B
330
17
100
AcDbEntity
  8
0
100
AcDbLine
 10
10853.771390433036
 20
6170.747638962094
 30
0.0
 11
10853.77139043304
 21
6196.789305628744
 31
0.0
  0
LINE
  5
8C
330
17
100
AcDbEntity
  8
0
100
AcDbLine
 10
10847.271410344181
 20
6170.747638962094
 30
0.0
 11
10847.271410344189
 21
6206.747638962094
 31
0.0
  0
LINE
  5
8D
330
17
100
AcDbEntity
  8
0
100
AcDbLine
 10
10847.271410344189
 20
6213.307638962096
 30
0.0
 11
10847.271407239159
 21
6308.788411184947
 31
0.0
  0
LINE
  5
8E
330
17
100
AcDbEntity
  8
0
100
AcDbLine
 10
10846.771490185152
 20
6083.706863280901
 30
0.0
 11
10658.770599199668
 21
6083.706863280901
 31
0.0
  0
LINE
  5
8F
330
17
100
AcDbEntity
  8
0
100
AcDbLine
 10
10648.770599199668
 20
6083.706863280901
 30
0.0
 11
10568.770599199665
 21
6083.706863280901
 31
0.0
  0
LINE
  5
90
330
17
100
AcDbEntity
  8
0
100
AcDbLine
 10
10855.771490184787
 20
5740.205967536444
 30
0.0
 11
10855.771490185152
 21
5962.70686931189
 31
0.0
  0
LINE
  5
91
330
17
100
AcDbEntity
  8
0
100
AcDbLine
 10
10855.771490185149
 20
5969.206869299837
 30
0.0
 11
10855.771490185152
 21
6096.705972295421
 31
0.0
  0
LINE
  5
92
330
17
100
AcDbEntity
  8
0
100
AcDbLine
 10
10847.271410344189
 20
6092.706863280901
 30
0.0
 11
10667.770599199665
 21
6092.706863280901
 31
0.0
  0
LINE
  5
93
330
17
100
AcDbEntity
  8
0
100
AcDbLine
 10
10847.271410344189
 20
6116.706863280901
 30
0.0
 11
10667.770599199665
 21
6116.706863280901
 31
0.0
  0
LINE
  5
94
330
17
100
AcDbEntity
  8
0
100
AcDbLine
 10
10847.271410344189
 20
6115.706863280901
 30
0.0
 11
10667.770599199665
 21
6115.706863280901
 31
0.0
  0
LINE
  5
95
330
17
100
AcDbEntity
  8
0
100
AcDbLine
 10
10847.271410344189
 20
6104.706863280901
 30
0.0
 11
10667.770599199665
 21
6104.706863280901
 31
0.0
  0
LINE
  5
96
330
17
100
AcDbEntity
  8
0
100
AcDbLine
 10
10836.771490185152
 20
6073.706863280901
 30
0.0
 11
10596.770599199665
 21
5663.706120776457
 31
0.0
  0
LINE
  5
97
330
17
100
AcDbEntity
  8
0
100
AcDbLine
 10
10596.770599199665
 20
6073.706863280901
 30
0.0
 11
10836.771490185152
 21
5663.706120776457
 31
0.0
  0
LINE
  5
98
330
17
100
AcDbEntity
  8
0
100
AcDbLine
 10
11974.767929009317
 20
6073.718856498576
 30
0.0
 11
11734.767035257728
 21
5663.706120776457
 31
0.0
  0
LINE
  5
99
330
17
100
AcDbEntity
  8
0
100
AcDbLine
 10
11734.768313630018
 20
6073.706611824023
 30
2.3138712776836745
 11
11974.767929009317
 21
5663.718113994132
 31
0.0
  0
LINE
  5
9A
330
17
100
AcDbEntity
  8
0
100
AcDbLine
 10
11166.27059919966
 20
6096.705972295415
 30
0.0
 11
11166.27059919966
 21
6052.705972295415
 31
0.0
  0
LINE
  5
9B
330
17
100
AcDbEntity
  8
0
100
AcDbLine
 10
11166.27059919966
 20
6049.705972295415
 30
0.0
 11
11166.27059919966
 21
6006.739870600498
 31
0.0
  0
LINE
  5
9C
330
17
100
AcDbEntity
  8
0
100
AcDbLine
 10
11166.27059919966
 20
5984.705972295415
 30
0.0
 11
11166.270599199665
 21
5927.705972295415
 31
0.0
  0
LINE
  5
9D
330
17
100
AcDbEntity
  8
0
100
AcDbLine
 10
11166.270599199665
 20
5927.705972295415
 30
0.0
 11
11166.270599199665
 21
5879.705972295415
 31
0.0
  0
LINE
  5
9E
330
17
100
AcDbEntity
  8
0
100
AcDbLine
 10
11177.27059919966
 20
6096.705972295417
 30
0.0
 11
11177.270599199668
 21
6052.705972295415
 31
0.0
  0
LINE
  5
9F
330
17
100
AcDbEntity
  8
0
100
AcDbLine
 10
11177.270599199668
 20
6049.705972295415
 30
0.0
 11
11177.270599199668
 21
6048.705972295415
 31
0.0
  0
LINE
  5
A0
330
17
100
AcDbEntity
  8
0
100
AcDbLine
 10
11177.270599199665
 20
5927.705972295415
 30
0.0
 11
11177.270599199665
 21
5879.705972295415
 31
0.0
  0
LINE
  5
A1
330
17
100
AcDbEntity
  8
0
100
AcDbLine
 10
11188.27059919966
 20
6096.705972295417
 30
0.0
 11
11188.270599199665
 21
6052.705972295415
 31
0.0
  0
LINE
  5
A2
330
17
100
AcDbEntity
  8
0
100
AcDbLine
 10
11188.270599199665
 20
6049.705972295415
 30
0.0
 11
11188.270599199665
 21
6048.705972295415
 31
0.0
  0
LINE
  5
A3
330
17
100
AcDbEntity
  8
0
100
AcDbLine
 10
11188.270599199665
 20
5927.705972295415
 30
0.0
 11
11188.270599199665
 21
5879.705972295417
 31
0.0
  0
LINE
  5
A4
330
17
100
AcDbEntity
  8
0
100
AcDbLine
 10
11199.27059919966
 20
6096.705972295417
 30
0.0
 11
11199.270599199668
 21
6052.705972295415
 31
0.0
  0
LINE
  5
A5
330
17
100
AcDbEntity
  8
0
100
AcDbLine
 10
11199.270599199668
 20
6049.705972295415
 30
0.0
 11
11199.270599199668
 21
6048.705972295415
 31
0.0
  0
LINE
  5
A6
330
17
100
AcDbEntity
  8
0
100
AcDbLine
 10
11199.270599199665
 20
5927.705972295415
 30
0.0
 11
11199.270599199665
 21
5879.705972295417
 31
0.0
  0
LINE
  5
A7
330
17
100
AcDbEntity
  8
0
100
AcDbLine
 10
11210.27059919966
 20
6096.705972295417
 30
0.0
 11
11210.270599199657
 21
6052.705972295415
 31
0.0
  0
LINE
  5
A8
330
17
100
AcDbEntity
  8
0
100
AcDbLine
 10
11218.270599199679
 20
5927.705972295422
 30
0.0
 11
11218.270599199679
 21
5879.705972295424
 31
0.0
  0
LINE
  5
A9
330
17
100
AcDbEntity
  8
0
100
AcDbLine
 10
11118.270599199665
 20
6048.705972295415
 30
0.0
 11
11162.270599199665
 21
6048.705972295415
 31
0.0
  0
LINE
  5
AA
330
17
100
AcDbEntity
  8
0
100
AcDbLine
 10
11165.270599199665
 20
6048.705972295415
 30
0.0
 11
11210.270599199668
 21
6048.705972295415
 31
0.0
  0
LINE
  5
AB
330
17
100
AcDbEntity
  8
0
100
AcDbLine
 10
11640.271165962655
 20
6091.705716079566
 30
2.3138712776836745
 11
11680.270708886477
 21
6091.705716079564
 31
2.3138712776836745
  0
LINE
  5
AC
330
17
100
AcDbEntity
  8
0
100
AcDbLine
 10
11683.270486135305
 20
6091.705716079566
 30
2.3138712776836745
 11
11715.768313630026
 21
6091.705716079566
 31
2.3138712776836745
  0
LINE
  5
AD
330
17
100
AcDbEntity
  8
0
100
AcDbLine
 10
11640.270795678382
 20
6081.705464598702
 30
2.3138712776836745
 11
11680.270931631596
 21
6081.705736473105
 31
2.3138712776836745
  0
LINE
  5
AE
330
17
100
AcDbEntity
  8
0
100
AcDbLine
 10
11683.270486135301
 20
6081.705716079564
 30
2.3138712776836745
 11
11715.768313630026
 21
6081.705716079566
 31
2.3138712776836745
  0
LINE
  5
AF
330
17
100
AcDbEntity
  8
0
100
AcDbLine
 10
11640.270795678382
 20
6071.705464598702
 30
2.3138712776836745
 11
11680.271154377166
 21
6071.705736474619
 31
2.3138712776836745
  0
LINE
  5
B0
330
17
100
AcDbEntity
  8
0
100
AcDbLine
 10
11680.27115437762
 20
6071.705716079566
 30
2.3138712776836745
 11
11681.270486135298
 21
6071.705716079566
 31
2.3138712776836745
  0
LINE
  5
B1
330
17
100
AcDbEntity
  8
0
100
AcDbLine
 10
11683.270486135301
 20
6071.705716079566
 30
2.3138712776836745
 11
11715.768313630026
 21
6071.705716079566
 31
2.3138712776836745
  0
LINE
  5
B2
330
17
100
AcDbEntity
  8
0
100
AcDbLine
 10
11640.270795678382
 20
6061.705464598702
 30
2.3138712776836745
 11
11680.271377122739
 21
6061.705736476132
 31
2.3138712776836745
  0
LINE
  5
B3
330
17
100
AcDbEntity
  8
0
100
AcDbLine
 10
11680.27137712319
 20
6061.705716079566
 30
2.3138712776836745
 11
11681.270486135298
 21
6061.705716079566
 31
2.3138712776836745
  0
LINE
  5
B4
330
17
100
AcDbEntity
  8
0
100
AcDbLine
 10
11683.270486135298
 20
6061.705716079566
 30
2.3138712776836745
 11
11715.768313630026
 21
6061.705716079566
 31
2.3138712776836745
  0
LINE
  5
B5
330
17
100
AcDbEntity
  8
0
100
AcDbLine
 10
11640.270795678382
 20
6051.705464598702
 30
2.3138712776836745
 11
11680.271599868312
 21
6051.705736477646
 31
2.3138712776836745
  0
LINE
  5
B6
330
17
100
AcDbEntity
  8
0
100
AcDbLine
 10
11680.271599868764
 20
6051.705716079566
 30
2.3138712776836745
 11
11681.270486135298
 21
6051.705716079566
 31
2.3138712776836745
  0
LINE
  5
B7
330
17
100
AcDbEntity
  8
0
100
AcDbLine
 10
11683.270486135301
 20
6051.705716079566
 30
2.3138712776836745
 11
11715.768313630026
 21
6051.705716079566
 31
2.3138712776836745
  0
LINE
  5
B8
330
17
100
AcDbEntity
  8
0
100
AcDbLine
 10
11640.270795678382
 20
6041.705464598702
 30
2.3138712776836745
 11
11680.271822613882
 21
6041.705736479161
 31
2.3138712776836745
  0
LINE
  5
B9
330
17
100
AcDbEntity
  8
0
100
AcDbLine
 10
11680.271822614337
 20
6041.705716079566
 30
2.3138712776836745
 11
11681.270486135298
 21
6041.705716079566
 31
2.3138712776836745
  0
LINE
  5
BA
330
17
100
AcDbEntity
  8
0
100
AcDbLine
 10
11683.270486135301
 20
6041.705716079566
 30
2.3138712776836745
 11
11699.519399882662
 21
6041.705716079566
 31
2.3138712776836745
  0
LINE
  5
BB
330
17
100
AcDbEntity
  8
0
100
AcDbLine
 10
11640.270795678382
 20
6031.705464598702
 30
2.3138712776836745
 11
11680.272045359452
 21
6031.705736480674
 31
2.3138712776836745
  0
LINE
  5
BC
330
17
100
AcDbEntity
  8
0
100
AcDbLine
 10
11680.272045359889
 20
6031.705716079564
 30
2.3138712776836745
 11
11715.768313630026
 21
6031.705716079566
 31
2.3138712776836745
  0
LINE
  5
BD
330
17
100
AcDbEntity
  8
0
100
AcDbLine
 10
11681.270486135316
 20
6104.705967536444
 30
2.3138712776836745
 11
11681.270486135298
 21
6034.102002018167
 31
2.3138712776836745
  0
LINE
  5
BE
330
17
100
AcDbEntity
  8
0
100
AcDbLine
 10
11683.270486135309
 20
6104.705967536444
 30
2.3138712776836745
 11
11683.270486135298
 21
6034.935335351501
 31
2.3138712776836745
  0
LINE
  5
BF
330
17
100
AcDbEntity
  8
0
100
AcDbLine
 10
11680.270486135301
 20
6101.705967536444
 30
2.3138712776836745
 11
11680.272001250702
 21
6033.685966649585
 31
2.3138712776836745
  0
LINE
  5
C0
330
17
100
AcDbEntity
  8
0
100
AcDbLine
 10
11680.270486135254
 20
6031.708416735878
 30
2.3138712776836745
 11
11680.270486135832
 21
5983.705716079566
 31
2.3138712776836745
  0
LINE
  5
C1
330
17
100
AcDbEntity
  8
0
100
AcDbLine
 10
11680.272045359903
 20
6031.705716079555
 30
2.3138712776836745
 11
11715.768313630026
 21
6011.211936038578
 31
2.3138712776836745
  0
LINE
  5
C2
330
17
100
AcDbEntity
  8
0
100
AcDbLine
 10
11680.270486135312
 20
6031.708416735771
 30
2.3138712776836745
 11
11707.984858282682
 21
5983.70571607912
 31
2.3138712776836745
  0
LINE
  5
C3
330
17
100
AcDbEntity
  8
0
100
AcDbLine
 10
11683.270486135309
 20
6101.705716079566
 30
2.3138712776836745
 11
11715.768313630022
 21
6101.7057160795675
 31
2.3138712776836745
  0
LINE
  5
C4
330
17
100
AcDbEntity
  8
0
100
AcDbLine
 10
11680.270486135301
 20
6101.705967536444
 30
2.3138712776836745
 11
11681.270486135316
 21
6101.705967536444
 31
2.3138712776836745
  0
LINE
  5
C5
330
17
100
AcDbEntity
  8
0
100
AcDbLine
 10
11681.27048613532
 20
6104.705967536444
 30
2.3138712776836745
 11
11683.270486135305
 21
6104.705967536443
 31
2.3138712776836745
  0
LINE
  5
C6
330
17
100
AcDbEntity
  8
0
100
AcDbLine
 10
11640.271165962655
 20
6101.705967536444
 30
2.3138712776836745
 11
11680.270486135305
 21
6101.705967536444
 31
2.3138712776836745
  0
LINE
  5
C7
330
17
100
AcDbEntity
  8
0
100
AcDbLine
 10
11118.27059919966
 20
6096.705972295417
 30
0.0
 11
11118.27059919966
 21
5984.705972295415
 31
0.0
  0
LINE
  5
C8
330
17
100
AcDbEntity
  8
0
100
AcDbLine
 10
11218.270599199679
 20
5879.705972295424
 30
0.0
 11
11171.271806831488
 21
5879.705972295465
 31
0.00550371429034513
  0
LINE
  5
C9
330
17
100
AcDbEntity
  8
0
100
AcDbLine
 10
11164.771806831488
 20
5879.705972295465
 30
0.00550371429034513
 11
11128.771806831492
 21
5879.705972295465
 31
0.00550371429034513
  0
LINE
  5
CA
330
17
100
AcDbEntity
  8
0
100
AcDbLine
 10
11164.771806831488
 20
5867.705972295418
 30
0.00550371429034513
 11
11140.771806831484
 21
5867.705972295418
 31
0.00550371429034513
  0
LINE
  5
CB
330
17
100
AcDbEntity
  8
0
100
AcDbLine
 10
11223.083480145044
 20
6096.705972298952
 30
0.0
 11
11223.083480145044
 21
6108.70597229895
 31
0.0
  0
LINE
  5
CC
330
17
100
AcDbEntity
  8
0
100
AcDbLine
 10
11378.082589228063
 20
6096.705972295419
 30
0.0
 11
11378.082589228063
 21
6108.705972295417
 31
0.0
  0
LINE
  5
CD
330
17
100
AcDbEntity
  8
0
100
AcDbLine
 10
11118.270599199665
 20
6108.705972295439
 30
0.0
 11
11118.270599199665
 21
6116.705972295437
 31
0.0
  0
LINE
  5
CE
330
17
100
AcDbEntity
  8
0
100
AcDbLine
 10
11106.27059919966
 20
6108.705972295439
 30
0.0
 11
11106.270599199665
 21
6116.705972295437
 31
0.0
  0
LINE
  5
CF
330
17
100
AcDbEntity
  8
0
100
AcDbLine
 10
11715.768313630022
 20
5983.705716078995
 30
2.3138712776836745
 11
11640.271121924845
 21
5983.70571608021
 31
2.3138712776836745
  0
LINE
  5
D0
330
17
100
AcDbEntity
  8
0
100
AcDbLine
 10
11640.271168574971
 20
6108.705720838537
 30
2.3138712776836745
 11
11640.271126623433
 21
5983.70571608021
 31
2.3138712776836745
  0
LINE
  5
D1
330
17
100
AcDbEntity
  8
0
100
AcDbLine
 10
11633.771166149156
 20
6102.205720838537
 30
2.3138712776836745
 11
11633.771141517871
 21
5969.705661312934
 31
2.3138712776836745
  0
LINE
  5
D2
330
17
100
AcDbEntity
  8
0
100
AcDbLine
 10
11685.769860719773
 20
5957.705925319527
 30
0.0
 11
11685.769841126743
 21
5957.705925319527
 31
0.0
  0
LINE
  5
D3
330
17
100
AcDbEntity
  8
0
100
AcDbLine
 10
11477.769708214188
 20
6102.205972295415
 30
0.0
 11
11460.395543513076
 21
6102.205972295415
 31
0.0
  0
LINE
  5
D4
330
17
100
AcDbEntity
  8
0
100
AcDbLine
 10
11424.395543513076
 20
6102.205972295415
 30
0.0
 11
11411.76970821418
 21
6102.205972295415
 31
0.0
  0
LINE
  5
D5
330
17
100
AcDbEntity
  8
0
100
AcDbLine
 10
11111.770599199665
 20
6096.705972295421
 30
0.0
 11
11026.770986241634
 21
6096.705972295421
 31
0.0
  0
LINE
  5
D6
330
17
100
AcDbEntity
  8
0
100
AcDbLine
 10
11020.27100283818
 20
6096.705972295419
 30
0.0
 11
10996.270996287667
 21
6096.705972295419
 31
0.0
  0
LINE
  5
D7
330
17
100
AcDbEntity
  8
0
100
AcDbLine
 10
10960.27099628767
 20
6096.705972295392
 30
0.0
 11
10936.271004807319
 21
6096.705972295398
 31
0.0
  0
LINE
  5
D8
330
17
100
AcDbEntity
  8
0
100
AcDbLine
 10
10929.770971363794
 20
6096.7059722954
 30
0.0
 11
10855.771490185152
 21
6096.705972295421
 31
0.0
  0
LINE
  5
D9
330
17
100
AcDbEntity
  8
0
100
AcDbLine
 10
10853.771391381151
 20
6203.289305628744
 30
0.0
 11
10929.77099941161
 21
6203.289308254215
 31
0.0
  0
LINE
  5
DA
330
17
100
AcDbEntity
  8
0
100
AcDbLine
 10
11026.770995861893
 20
6203.2893086049735
 30
0.0
 11
11102.770599199666
 21
6203.289305628735
 31
0.0
  0
LINE
  5
DB
330
17
100
AcDbEntity
  8
0
100
AcDbLine
 10
11109.270599199666
 20
6208.789305628735
 30
0.0
 11
11223.083480213196
 21
6208.78930566998
 31
0.0
  0
LINE
  5
DC
330
17
100
AcDbEntity
  8
0
100
AcDbLine
 10
10847.271410344189
 20
6170.747638962094
 30
0.0
 11
10853.771390433043
 21
6170.747638962094
 31
0.0
  0
LINE
  5
DD
330
17
100
AcDbEntity
  8
0
100
AcDbLine
 10
10936.27099704513
 20
6203.289308254213
 30
0.0
 11
10960.270996287674
 21
6203.289308254213
 31
0.0
  0
LINE
  5
DE
330
17
100
AcDbEntity
  8
0
100
AcDbLine
 10
10996.270996287618
 20
6203.289305628744
 30
0.0
 11
11020.271012458443
 21
6203.289308604972
 31
0.0
  0
LINE
  5
DF
330
17
100
AcDbEntity
  8
0
100
AcDbLine
 10
10996.270996287618
 20
6196.789305628742
 30
0.0
 11
11028.020816218701
 21
6196.789305628744
 31
0.0
  0
LINE
  5
E0
330
17
100
AcDbEntity
  8
0
100
AcDbLine
 10
11036.020799371294
 20
6196.789305628744
 30
0.0
 11
11066.520796115987
 21
6196.789305628748
 31
0.0
  0
LINE
  5
E1
330
17
100
AcDbEntity
  8
0
100
AcDbLine
 10
11074.520779268576
 20
6196.789305628748
 30
0.0
 11
11106.27059919966
 21
6196.789305628749
 31
0.0
  0
LINE
  5
E2
330
17
100
AcDbEntity
  8
0
100
AcDbLine
 10
11118.270599199665
 20
6196.7893056287585
 30
0.0
 11
11223.083480213196
 21
6196.78930566998
 31
0.0
  0
LINE
  5
E3
330
17
100
AcDbEntity
  8
0
100
AcDbLine
 10
11378.082589228066
 20
6196.789305564449
 30
0.0
 11
11483.194022630605
 21
6196.789305628746
 31
0.0
  0
LINE
  5
E4
330
17
100
AcDbEntity
  8
0
100
AcDbLine
 10
11495.194022630609
 20
6196.789305628746
 30
0.0
 11
11508.269708213333
 21
6196.78930560335
 31
0.0
  0
LINE
  5
E5
330
17
100
AcDbEntity
  8
0
100
AcDbLine
 10
11544.269708245969
 20
6196.789305454347
 30
0.0
 11
11585.395543521303
 21
6196.7893057611955
 31
0.0
  0
LINE
  5
E6
330
17
100
AcDbEntity
  8
0
100
AcDbLine
 10
11597.395543521303
 20
6196.789305774196
 30
0.0
 11
11641.581928575659
 21
6196.789211855657
 31
0.8637257297269307
  0
LINE
  5
E7
330
17
100
AcDbEntity
  8
0
100
AcDbLine
 10
11585.39554351895
 20
6188.7893057611955
 30
0.0
 11
11597.395543518953
 21
6188.789305774196
 31
0.0
  0
LINE
  5
E8
330
17
100
AcDbEntity
  8
0
100
AcDbLine
 10
11591.895543518613
 20
6203.289305479929
 30
0.0
 11
11641.58192857566
 21
6203.289208963563
 31
0.8886560842965466
  0
LINE
  5
E9
330
17
100
AcDbEntity
  8
0
100
AcDbLine
 10
11111.77059919965
 20
6096.705972295421
 30
0.0
 11
11111.770599199654
 21
5969.206869364666
 31
0.0
  0
LINE
  5
EA
330
17
100
AcDbEntity
  8
0
100
AcDbLine
 10
11128.771806831488
 20
5879.705972295465
 30
0.00550371429034513
 11
11128.770599199492
 21
5719.706458122697
 31
0.0
  0
LINE
  5
EB
330
17
100
AcDbEntity
  8
0
100
AcDbLine
 10
11140.771806831488
 20
5867.705972295418
 30
0.00550371429034513
 11
11140.770599199492
 21
5731.7064581226505
 31
0.0
  0
LINE
  5
EC
330
17
100
AcDbEntity
  8
0
100
AcDbLine
 10
10996.270996287667
 20
6096.705972295397
 30
0.0
 11
10996.270996287667
 21
6108.705972295397
 31
0.0
  0
LINE
  5
ED
330
17
100
AcDbEntity
  8
0
100
AcDbLine
 10
10960.27099628767
 20
6096.705972295375
 30
0.0
 11
10960.270996287674
 21
6108.705972295374
 31
0.0
  0
LINE
  5
EE
330
17
100
AcDbEntity
  8
0
100
AcDbLine
 10
10936.270980448575
 20
6295.2884117921485
 30
0.0
 11
10936.270980448578
 21
6303.2884117921485
 31
0.0
  0
LINE
  5
EF
330
17
100
AcDbEntity
  8
0
100
AcDbLine
 10
10948.271188167526
 20
6303.2884117921485
 30
0.0
 11
10948.271188167526
 21
6315.2884117921485
 31
0.0
  0
LINE
  5
F0
330
17
100
AcDbEntity
  8
0
100
AcDbLine
 10
11020.270995861894
 20
6295.288414768376
 30
0.0
 11
11020.270995861894
 21
6303.288412142909
 31
0.0
  0
LINE
  5
F1
330
17
100
AcDbEntity
  8
0
100
AcDbLine
 10
11008.27082137633
 20
6303.288409166679
 30
0.0
 11
11008.27082137633
 21
6315.288409166681
 31
0.0
  0
LINE
  5
F2
330
17
100
AcDbEntity
  8
0
100
AcDbLine
 10
11026.770995861894
 20
6295.288414768376
 30
0.0
 11
11026.770995861894
 21
6308.788412142909
 31
0.0
  0
LINE
  5
F3
330
17
100
AcDbEntity
  8
0
100
AcDbLine
 10
10853.771408228124
 20
6308.788409166679
 30
0.0
 11
10929.770980448582
 21
6308.7884117921485
 31
0.0
  0
LINE
  5
F4
330
17
100
AcDbEntity
  8
0
100
AcDbLine
 10
11026.770995861894
 20
6308.788412142907
 30
0.0
 11
11102.770599199665
 21
6308.788409166668
 31
0.0
  0
LINE
  5
F5
330
17
100
AcDbEntity
  8
0
100
AcDbLine
 10
10853.771410344187
 20
6315.288409166679
 30
0.0
 11
10948.271188167526
 21
6315.28841179215
 31
0.0
  0
LINE
  5
F6
330
17
100
AcDbEntity
  8
0
100
AcDbLine
 10
10936.270980448582
 20
6303.2884117921485
 30
0.0
 11
10948.271188167526
 21
6303.2884117921485
 31
0.0
  0
LINE
  5
F7
330
17
100
AcDbEntity
  8
0
100
AcDbLine
 10
11008.27082137633
 20
6315.288409166681
 30
0.0
 11
11102.770599199668
 21
6315.288409166681
 31
0.0
  0
LINE
  5
F8
330
17
100
AcDbEntity
  8
0
100
AcDbLine
 10
11008.27082137633
 20
6303.288409166681
 30
0.0
 11
11020.270995861894
 21
6303.288412142907
 31
0.0
  0
LINE
  5
F9
330
17
100
AcDbEntity
  8
0
100
AcDbLine
 10
11102.770599199666
 20
6477.789305628193
 30
0.0
 11
11102.770599199665
 21
6315.288409166681
 31
0.0
  0
LINE
  5
FA
330
17
100
AcDbEntity
  8
0
100
AcDbLine
 10
11008.27082137633
 20
6315.288409166681
 30
0.0
 11
10948.271188167526
 21
6315.2884117921485
 31
0.0
  0
LINE
  5
FB
330
17
100
AcDbEntity
  8
0
100
AcDbLine
 10
11008.27082137633
 20
6303.288409166681
 30
0.0
 11
10948.271188167526
 21
6303.2884117921485
 31
0.0
  0
LINE
  5
FC
330
17
100
AcDbEntity
  8
0
100
AcDbLine
 10
10960.270996287674
 20
6196.789308254213
 30
0.0
 11
10960.270996287674
 21
6203.289308254213
 31
0.0
  0
LINE
  5
FD
330
17
100
AcDbEntity
  8
0
100
AcDbLine
 10
10996.270996287618
 20
6196.789305628744
 30
0.0
 11
10996.270996287618
 21
6203.289305628744
 31
0.0
  0
LINE
  5
FE
330
17
100
AcDbEntity
  8
0
100
AcDbLine
 10
11102.770599199665
 20
6308.788409166668
 30
0.0
 11
11102.770599199663
 21
6203.289305628735
 31
0.0
  0
LINE
  5
FF
330
17
100
AcDbEntity
  8
0
100
AcDbLine
 10
11477.769708214191
 20
6036.205972295417
 30
0.0
 11
11477.769708214184
 21
6102.205972295414
 31
0.0
  0
LINE
  5
100
330
17
100
AcDbEntity
  8
0
100
AcDbLine
 10
11484.269708214184
 20
6036.205972295415
 30
0.0
 11
11484.269708214188
 21
6102.205972295415
 31
0.0
  0
LINE
  5
101
330
17
100
AcDbEntity
  8
0
100
AcDbLine
 10
11502.269708214184
 20
6036.205972295415
 30
0.0
 11
11502.269708214188
 21
6102.205972295415
 31
0.0
  0
LINE
  5
102
330
17
100
AcDbEntity
  8
0
100
AcDbLine
 10
11501.269708214184
 20
6036.205972295415
 30
0.0
 11
11501.269708214188
 21
6102.205972295415
 31
0.0
  0
LINE
  5
103
330
17
100
AcDbEntity
  8
0
100
AcDbLine
 10
11411.769708214188
 20
6036.205972295417
 30
0.0
 11
11411.769708214184
 21
6102.205972295415
 31
0.0
  0
LINE
  5
104
330
17
100
AcDbEntity
  8
0
100
AcDbLine
 10
11405.269708214184
 20
6029.705972295417
 30
0.0
 11
11405.269708214184
 21
6042.20597229539
 31
0.0
  0
LINE
  5
105
330
17
100
AcDbEntity
  8
0
100
AcDbLine
 10
11405.269708214184
 20
6066.20597229539
 30
0.0
 11
11405.269708214184
 21
6096.705972295419
 31
0.0
  0
LINE
  5
106
330
17
100
AcDbEntity
  8
0
100
AcDbLine
 10
11424.395543513076
 20
6108.705972295415
 30
0.0
 11
11378.082589228063
 21
6108.705972295415
 31
0.0
  0
LINE
  5
107
330
17
100
AcDbEntity
  8
0
100
AcDbLine
 10
11564.269708214184
 20
6036.205972295417
 30
0.0
 11
11546.269708214184
 21
6036.205964998952
 31
0.0
  0
LINE
  5
108
330
17
100
AcDbEntity
  8
0
100
AcDbLine
 10
11502.269708214184
 20
6036.205972295419
 30
0.0
 11
11484.269708214184
 21
6036.205972295415
 31
0.0
  0
LINE
  5
109
330
17
100
AcDbEntity
  8
0
100
AcDbLine
 10
11477.769708214191
 20
6036.205972295417
 30
0.0
 11
11411.76970821418
 21
6036.205972295417
 31
0.0
  0
LINE
  5
10A
330
17
100
AcDbEntity
  8
0
100
AcDbLine
 10
11568.76970821418
 20
6029.705972295417
 30
0.0
 11
11546.26970821418
 21
6029.705975081922
 31
0.0
  0
LINE
  5
10B
330
17
100
AcDbEntity
  8
0
100
AcDbLine
 10
11502.269708214188
 20
6029.705972295419
 30
0.0
 11
11411.76970821418
 21
6029.705972295417
 31
0.0
  0
LINE
  5
10C
330
17
100
AcDbEntity
  8
0
100
AcDbLine
 10
11724.768313630018
 20
5969.705720838539
 30
2.3138712776836745
 11
11538.269708214162
 21
5969.705972295419
 31
0.0
  0
LINE
  5
10D
330
17
100
AcDbEntity
  8
0
100
AcDbLine
 10
11508.269708214159
 20
5969.705972295419
 30
0.0
 11
11411.769708214184
 21
5969.705972295417
 31
0.0
  0
LINE
  5
10E
330
17
100
AcDbEntity
  8
0
100
AcDbLine
 10
11118.27059919966
 20
6096.705972295417
 30
0.0
 11
11223.083480145044
 21
6096.705972298952
 31
0.0
  0
LINE
  5
10F
330
17
100
AcDbEntity
  8
0
100
AcDbLine
 10
11223.083480145047
 20
6108.705972298941
 30
0.0
 11
11118.270599199668
 21
6108.705972295439
 31
0.0
  0
LINE
  5
110
330
17
100
AcDbEntity
  8
0
100
AcDbLine
 10
11106.270599199657
 20
6108.705972295439
 30
0.0
 11
11074.52077926858
 21
6108.705972295427
 31
0.0
  0
LINE
  5
111
330
17
100
AcDbEntity
  8
0
100
AcDbLine
 10
11118.270599199668
 20
6116.705972295439
 30
0.0
 11
11106.270599199665
 21
6116.705972295439
 31
0.0
  0
LINE
  5
112
330
17
100
AcDbEntity
  8
0
100
AcDbLine
 10
10960.270996287674
 20
6108.705972295374
 30
0.0
 11
10930.271174885298
 21
6108.705972295392
 31
0.0
  0
LINE
  5
113
330
17
100
AcDbEntity
  8
0
100
AcDbLine
 10
11538.269708214162
 20
5957.705923868719
 30
0.0
 11
11715.768313630018
 21
5957.705643261227
 31
2.3138712776836745
  0
LINE
  5
114
330
17
100
AcDbEntity
  8
0
100
AcDbLine
 10
11460.395543512119
 20
6108.705995654448
 30
0.0
 11
11483.194022630603
 21
6108.705986202523
 31
0.0
  0
LINE
  5
115
330
17
100
AcDbEntity
  8
0
100
AcDbLine
 10
11538.269708214162
 20
6108.7059747621615
 30
0.0
 11
11585.3955435213
 21
6108.705956809207
 31
0.0
  0
LINE
  5
116
330
17
100
AcDbEntity
  8
0
100
AcDbLine
 10
11597.395543521307
 20
6108.705952776018
 30
0.0
 11
11640.271168574953
 21
6108.7056803809965
 31
2.3138712776836745
  0
LINE
  5
117
330
17
100
AcDbEntity
  8
0
100
AcDbLine
 10
11484.269708214188
 20
6102.205972295417
 30
0.0
 11
11508.269708214162
 21
6102.205972295415
 31
0.0
  0
LINE
  5
118
330
17
100
AcDbEntity
  8
0
100
AcDbLine
 10
11538.269708214162
 20
6102.205965081273
 30
0.0
 11
11564.269708214184
 21
6102.20595209582
 31
0.0
  0
LINE
  5
119
330
17
100
AcDbEntity
  8
0
100
AcDbLine
 10
11568.76970821418
 20
6102.205951013698
 30
0.0
 11
11633.771166149148
 21
6102.205682483308
 31
2.3138712776836745
  0
LINE
  5
11A
330
17
100
AcDbEntity
  8
0
100
AcDbLine
 10
11405.269708214184
 20
6096.705972295419
 30
0.0
 11
11378.082589228063
 21
6096.705972295419
 31
0.0
  0
LINE
  5
11B
330
17
100
AcDbEntity
  8
0
100
AcDbLine
 10
11378.082589228063
 20
6108.705972295352
 30
0.0
 11
11223.083480145044
 21
6108.70597229895
 31
0.0
  0
LINE
  5
11C
330
17
100
AcDbEntity
  8
0
100
AcDbLine
 10
11378.082589228063
 20
6096.705972295334
 30
0.0
 11
11223.08348014504
 21
6096.70597229893
 31
0.0
  0
LINE
  5
11D
330
17
100
AcDbEntity
  8
0
100
AcDbLine
 10
11378.082589228063
 20
6208.789305564445
 30
0.0
 11
11378.082589228063
 21
6196.789305564449
 31
0.0
  0
LINE
  5
11E
330
17
100
AcDbEntity
  8
0
100
AcDbLine
 10
11223.083480213196
 20
6208.78930566998
 30
0.0
 11
11223.083480213196
 21
6196.78930566998
 31
0.0
  0
LINE
  5
11F
330
17
100
AcDbEntity
  8
0
100
AcDbLine
 10
10647.770599199668
 20
6215.206120776457
 30
0.0
 11
10647.770599199668
 21
6083.706863280901
 31
0.0
  0
LINE
  5
120
330
17
100
AcDbEntity
  8
0
100
AcDbLine
 10
10648.770599199668
 20
6083.706863280901
 30
0.0
 11
10648.770599199668
 21
6215.206120776457
 31
0.0
  0
LINE
  5
121
330
17
100
AcDbEntity
  8
0
100
AcDbLine
 10
11975.863948162687
 20
6083.706863280901
 30
0.0
 11
11975.863948162687
 21
6215.206120776459
 31
0.0
  0
LINE
  5
122
330
17
100
AcDbEntity
  8
0
100
AcDbLine
 10
11964.863948119606
 20
6083.7068632809
 30
0.0
 11
11964.853354588275
 21
6215.209764589473
 31
0.0
  0
LINE
  5
123
330
17
100
AcDbEntity
  8
0
100
AcDbLine
 10
10648.770599199668
 20
6215.206120776457
 30
0.0
 11
10568.770599199665
 21
6083.706863280901
 31
0.0
  0
LINE
  5
124
330
17
100
AcDbEntity
  8
0
100
AcDbLine
 10
10568.770599199668
 20
6215.206120776457
 30
0.0
 11
10648.770599199668
 21
6083.706863280901
 31
0.0
  0
LINE
  5
125
330
17
100
AcDbEntity
  8
0
100
AcDbLine
 10
11591.895543345885
 20
6426.090227978965
 30
0.0
 11
11591.895543518613
 21
6203.289305479929
 31
0.0
  0
LINE
  5
126
330
17
100
AcDbEntity
  8
0
100
AcDbLine
 10
11544.269708251844
 20
6208.789305284125
 30
0.0
 11
11544.269708245973
 21
6196.789305476013
 31
0.0
  0
LINE
  5
127
330
17
100
AcDbEntity
  8
0
100
AcDbLine
 10
11585.395543521303
 20
6196.7893057611955
 30
0.0
 11
11585.395543518953
 21
6188.789305913223
 31
0.0
  0
LINE
  5
128
330
17
100
AcDbEntity
  8
0
100
AcDbLine
 10
11468.769916106807
 20
6235.289324269225
 30
0.0
 11
11468.769916040668
 21
6208.789324218837
 31
0.0
  0
LINE
  5
129
330
17
100
AcDbEntity
  8
0
100
AcDbLine
 10
11508.269708219208
 20
6208.789305450977
 30
0.0
 11
11508.269708214162
 21
6196.78930560335
 31
0.0
  0
LINE
  5
12A
330
17
100
AcDbEntity
  8
0
100
AcDbLine
 10
11118.270599199665
 20
6196.789305628746
 30
0.0
 11
11118.270599199665
 21
6188.789305628746
 31
0.0
  0
LINE
  5
12B
330
17
100
AcDbEntity
  8
0
100
AcDbLine
 10
11106.27059919966
 20
6196.789305628746
 30
0.0
 11
11106.270599199665
 21
6188.789305628746
 31
0.0
  0
LINE
  5
12C
330
17
100
AcDbEntity
  8
0
100
AcDbLine
 10
11118.270599199668
 20
6188.789305628746
 30
0.0
 11
11106.270599199665
 21
6188.789305628744
 31
0.0
  0
LINE
  5
12D
330
17
100
AcDbEntity
  8
0
100
AcDbLine
 10
11118.270599199665
 20
6188.789305628746
 30
0.0
 11
11118.270599199668
 21
6116.705972295439
 31
0.0
  0
LINE
  5
12E
330
17
100
AcDbEntity
  8
0
100
AcDbLine
 10
11106.270599199665
 20
6188.789305628744
 30
0.0
 11
11106.270599199668
 21
6116.705972295437
 31
0.0
  0
LINE
  5
12F
330
17
100
AcDbEntity
  8
0
100
AcDbLine
 10
11378.082589228063
 20
6208.789305578892
 30
0.0
 11
11462.568395153854
 21
6208.789324171348
 31
0.0
  0
LINE
  5
130
330
17
100
AcDbEntity
  8
0
100
AcDbLine
 10
11468.769916044546
 20
6208.789324218838
 30
0.0
 11
11508.269708219215
 21
6208.789305450977
 31
0.0
  0
LINE
  5
131
330
17
100
AcDbEntity
  8
0
100
AcDbLine
 10
11544.269708251848
 20
6208.789305284125
 30
0.0
 11
11585.395543521301
 21
6208.789305284124
 31
0.0
  0
LINE
  5
132
330
17
100
AcDbEntity
  8
0
100
AcDbLine
 10
11544.269708251844
 20
6208.789305284125
 30
0.0
 11
11508.269708219215
 21
6208.789305450955
 31
0.0
  0
LINE
  5
133
330
17
100
AcDbEntity
  8
0
100
AcDbLine
 10
11378.082589228063
 20
6196.789305564449
 30
0.0
 11
11223.083480213196
 21
6196.78930566998
 31
0.0
  0
LINE
  5
134
330
17
100
AcDbEntity
  8
0
100
AcDbLine
 10
11378.082589228063
 20
6208.789305564445
 30
0.0
 11
11223.083480213196
 21
6208.78930566998
 31
0.0
  0
LINE
  5
135
330
17
100
AcDbEntity
  8
0
100
AcDbLine
 10
11591.895543578568
 20
6432.590246866683
 30
0.0
 11
11717.772304131993
 21
6432.590246866684
 31
0.0
  0
LINE
  5
136
330
17
100
AcDbEntity
  8
0
100
AcDbLine
 10
11591.895543586254
 20
6426.090227978965
 30
0.0
 11
11717.767035152663
 21
6426.090228127777
 31
0.0
  0
LINE
  5
137
330
17
100
AcDbEntity
  8
0
100
AcDbLine
 10
11462.269916119321
 20
6477.789324367102
 30
0.0
 11
11462.419155636586
 21
6451.289324269224
 31
0.0
  0
LINE
  5
138
330
17
100
AcDbEntity
  8
0
100
AcDbLine
 10
11663.271402194541
 20
6516.539305745367
 30
0.0
 11
11591.895543578568
 21
6516.539305749285
 31
0.0
  0
LINE
  5
139
330
17
100
AcDbEntity
  8
0
100
AcDbLine
 10
10853.771390433032
 20
6134.747638962094
 30
0.0
 11
10847.271410344189
 21
6134.747638962094
 31
0.0
  0
LINE
  5
13A
330
17
100
AcDbEntity
  8
0
100
AcDbLine
 10
11424.395543513076
 20
6102.205972295415
 30
0.0
 11
11424.395543513076
 21
6108.705972295415
 31
0.0
  0
LINE
  5
13B
330
17
100
AcDbEntity
  8
0
100
AcDbLine
 10
11460.395543513076
 20
6102.205972295415
 30
0.0
 11
11460.395543513076
 21
6108.705972295415
 31
0.0
  0
LINE
  5
13C
330
17
100
AcDbEntity
  8
0
100
AcDbLine
 10
11166.270599199665
 20
5993.705972295414
 30
0.0
 11
11142.27059919966
 21
5993.705972295423
 31
0.0
  0
LINE
  5
13D
330
17
100
AcDbEntity
  8
0
100
AcDbLine
 10
11680.27115437762
 20
6081.705716079566
 30
2.3138712776836745
 11
11681.270486135298
 21
6081.705716079564
 31
2.3138712776836745
  0
LINE
  5
13E
330
17
100
AcDbEntity
  8
0
100
AcDbLine
 10
11680.27115437762
 20
6091.705716079566
 30
2.3138712776836745
 11
11681.270486135298
 21
6091.705716079566
 31
2.3138712776836745
  0
LINE
  5
13F
330
17
100
AcDbEntity
  8
0
100
AcDbLine
 10
11680.270486135309
 20
6033.685335351504
 30
2.3138712776836745
 11
11680.270486135254
 21
6031.708416735878
 31
2.3138712776836745
  0
LINE
  5
140
330
17
100
AcDbEntity
  8
0
100
AcDbLine
 10
11699.519399882662
 20
6041.705716079566
 30
2.3138712776836745
 11
11715.768313630026
 21
6041.705716079566
 31
2.3138712776836745
  0
LINE
  5
141
330
17
100
AcDbEntity
  8
0
100
AcDbLine
 10
11128.770599199492
 20
5719.706458122697
 30
0.0
 11
11164.77059919948
 21
5719.706458122697
 31
0.0
  0
LINE
  5
142
330
17
100
AcDbEntity
  8
0
100
AcDbLine
 10
11140.770599199492
 20
5731.7064581226505
 30
0.0
 11
11164.77059919948
 21
5731.7064581226505
 31
0.0
  0
LINE
  5
143
330
17
100
AcDbEntity
  8
0
100
AcDbLine
 10
11109.270599199666
 20
6208.789305628735
 30
0.0
 11
11109.270599199666
 21
6477.78930562818
 31
0.0
  0
LINE
  5
144
330
17
100
AcDbEntity
  8
0
100
AcDbLine
 10
11211.270599199668
 20
6049.705972295415
 30
0.0
 11
11214.270599199668
 21
6049.705972295415
 31
0.0
  0
LINE
  5
145
330
17
100
AcDbEntity
  8
0
100
AcDbLine
 10
11210.270599199668
 20
6048.705972295415
 30
0.0
 11
11210.270599199668
 21
6049.705972295415
 31
0.0
  0
LINE
  5
146
330
17
100
AcDbEntity
  8
0
100
AcDbLine
 10
10834.771411308515
 20
6327.7884150662285
 30
0.0
 11
10834.77141983243
 21
6345.451203174763
 31
0.0
  0
LINE
  5
147
330
17
100
AcDbEntity
  8
0
100
AcDbLine
 10
10834.771823243844
 20
6345.451203174763
 30
0.0
 11
10834.771437641442
 21
6362.613995167306
 31
0.0
  0
LINE
  5
148
330
17
100
AcDbEntity
  8
0
100
AcDbLine
 10
10834.771474025443
 20
6456.613995164583
 30
0.0
 11
10834.771489534094
 21
6474.539305627635
 31
0.0
  0
LINE
  5
149
330
17
100
AcDbEntity
  8
0
100
AcDbLine
 10
11185.368145900615
 20
5588.646250169015
 30
0.0
 11
11386.170379542562
 21
5588.706031677909
 31
0.0
  0
LINE
  5
14A
330
17
100
AcDbEntity
  8
0
100
AcDbLine
 10
11234.765883744352
 20
5598.706031677909
 30
0.0
 11
11336.772641698526
 21
5598.706031677909
 31
0.0
  0
LINE
  5
14B
330
17
100
AcDbEntity
  8
0
100
AcDbLine
 10
10585.770599199665
 20
5652.706120776457
 30
0.0
 11
10634.501954261692
 21
5652.706120776457
 31
0.0
  0
LINE
  5
14C
330
17
100
AcDbEntity
  8
0
100
AcDbLine
 10
10634.501954261692
 20
5652.706120776457
 30
0.0
 11
10634.501954261692
 21
5634.706120776457
 31
0.0
  0
LINE
  5
14D
330
17
100
AcDbEntity
  8
0
100
AcDbLine
 10
10634.501954261692
 20
5634.706120776457
 30
0.0
 11
10799.039244137644
 21
5634.706120775773
 31
0.0
  0
LINE
  5
14E
330
17
100
AcDbEntity
  8
0
100
AcDbLine
 10
10799.039244137644
 20
5634.706120775773
 30
0.0
 11
10799.039244137644
 21
5652.706120776457
 31
0.0
  0
LINE
  5
14F
330
17
100
AcDbEntity
  8
0
100
AcDbLine
 10
10799.039244137644
 20
5652.706120776457
 30
0.0
 11
10847.770599199665
 21
5652.706120776457
 31
0.0
  0
LINE
  5
150
330
17
100
AcDbEntity
  8
0
100
AcDbLine
 10
10847.770599199665
 20
5652.706120776457
 30
0.0
 11
10847.770599199299
 21
5720.205967536444
 31
0.0
  0
LINE
  5
151
330
17
100
AcDbEntity
  8
0
100
AcDbLine
 10
10847.770599199299
 20
5720.205967536444
 30
0.0
 11
10915.770599768286
 21
5720.205967536444
 31
0.0
  0
LINE
  5
152
330
17
100
AcDbEntity
  8
0
100
AcDbLine
 10
10915.770599768286
 20
5720.205967536444
 30
0.0
 11
10915.770600337122
 21
5708.205952108283
 31
0.0
  0
LINE
  5
153
330
17
100
AcDbEntity
  8
0
100
AcDbLine
 10
11040.774160420851
 20
5708.205929928774
 30
0.0
 11
11040.774160989267
 21
5720.205967536444
 31
0.0
  0
LINE
  5
154
330
17
100
AcDbEntity
  8
0
100
AcDbLine
 10
11040.774160989267
 20
5720.205967536444
 30
0.0
 11
11108.770599199452
 21
5720.205967536444
 31
0.0
  0
LINE
  5
155
330
17
100
AcDbEntity
  8
0
100
AcDbLine
 10
11108.770599199452
 20
5720.205967536444
 30
0.0
 11
11108.770599199672
 21
5677.206120776457
 31
0.0
  0
LINE
  5
156
330
17
100
AcDbEntity
  8
0
100
AcDbLine
 10
11108.770599199672
 20
5677.206120776457
 30
0.0
 11
11184.368145900387
 21
5677.205687341074
 31
-2.3138712776822103
  0
LINE
  5
157
330
17
100
AcDbEntity
  8
0
100
AcDbLine
 10
11184.368145900387
 20
5677.205687341074
 30
-2.3138712776822103
 11
11184.36814590061
 21
5595.70608634297
 31
1.3642420526593924e-12
  0
LINE
  5
158
330
17
100
AcDbEntity
  8
0
100
AcDbLine
 10
11184.36814590061
 20
5595.70608634297
 30
1.3642420526593924e-12
 11
11192.36814590389
 21
5595.70608634297
 31
1.3642420526593924e-12
  0
LINE
  5
159
330
17
100
AcDbEntity
  8
0
100
AcDbLine
 10
11192.36814590389
 20
5595.70608634297
 30
1.3642420526593924e-12
 11
11192.36814590389
 21
5589.70608634297
 31
1.3642420526593924e-12
  0
LINE
  5
15A
330
17
100
AcDbEntity
  8
0
100
AcDbLine
 10
11192.36814590389
 20
5589.70608634297
 30
1.3642420526593924e-12
 11
11194.368145903622
 21
5589.70608634297
 31
1.3642420526593924e-12
  0
LINE
  5
15B
330
17
100
AcDbEntity
  8
0
100
AcDbLine
 10
11194.368145903622
 20
5589.70608634297
 30
1.3642420526593924e-12
 11
11194.368145903622
 21
5587.70608634297
 31
1.3642420526593924e-12
  0
LINE
  5
15C
330
17
100
AcDbEntity
  8
0
100
AcDbLine
 10
11194.368145903622
 20
5587.70608634297
 30
1.3642420526593924e-12
 11
11217.765883744516
 21
5587.706031677909
 31
2.3138712776835746
  0
LINE
  5
15D
330
17
100
AcDbEntity
  8
0
100
AcDbLine
 10
11217.765883744516
 20
5587.706031677909
 30
2.3138712776835746
 11
11217.765883744516
 21
5589.706031677909
 31
2.3138712776835746
  0
LINE
  5
15E
330
17
100
AcDbEntity
  8
0
100
AcDbLine
 10
11217.765883744516
 20
5589.706031677909
 30
2.3138712776835746
 11
11219.765883744247
 21
5589.706031677909
 31
2.3138712776835746
  0
LINE
  5
15F
330
17
100
AcDbEntity
  8
0
100
AcDbLine
 10
11219.765883744247
 20
5589.706031677909
 30
2.3138712776835746
 11
11219.765883744247
 21
5595.706031677909
 31
2.3138712776835746
  0
LINE
  5
160
330
17
100
AcDbEntity
  8
0
100
AcDbLine
 10
11219.765883744247
 20
5595.706031677909
 30
2.3138712776835746
 11
11227.765883744352
 21
5595.706031677909
 31
2.3138712776835746
  0
LINE
  5
161
330
17
100
AcDbEntity
  8
0
100
AcDbLine
 10
11227.765883744352
 20
5595.706031677909
 30
2.3138712776835746
 11
11227.765883744352
 21
5603.706031677909
 31
2.3138712776835746
  0
LINE
  5
162
330
17
100
AcDbEntity
  8
0
100
AcDbLine
 10
11227.765883744352
 20
5603.706031677909
 30
2.3138712776835746
 11
11233.765883744352
 21
5603.706031677909
 31
2.3138712776835746
  0
LINE
  5
163
330
17
100
AcDbEntity
  8
0
100
AcDbLine
 10
11233.765883744352
 20
5603.706031677909
 30
2.3138712776835746
 11
11233.765883744352
 21
5605.70603167764
 31
2.3138712776835746
  0
LINE
  5
164
330
17
100
AcDbEntity
  8
0
100
AcDbLine
 10
11233.765883744352
 20
5605.70603167764
 30
2.3138712776835746
 11
11235.765883744352
 21
5605.70603167764
 31
2.3138712776835746
  0
LINE
  5
165
330
17
100
AcDbEntity
  8
0
100
AcDbLine
 10
11235.765883744352
 20
5605.70603167764
 30
2.3138712776835746
 11
11235.765883744354
 21
5629.1033240210845
 31
0.0
  0
LINE
  5
166
330
17
100
AcDbEntity
  8
0
100
AcDbLine
 10
11235.765883744354
 20
5629.1033240210845
 30
0.0
 11
11233.765883744354
 21
5629.1033240210845
 31
0.0
  0
LINE
  5
167
330
17
100
AcDbEntity
  8
0
100
AcDbLine
 10
11233.765883744354
 20
5629.1033240210845
 30
0.0
 11
11233.765883744354
 21
5631.103324020815
 31
0.0
  0
LINE
  5
168
330
17
100
AcDbEntity
  8
0
100
AcDbLine
 10
11233.765883744354
 20
5631.103324020815
 30
0.0
 11
11215.765883744354
 21
5631.103324020815
 31
0.0
  0
LINE
  5
169
330
17
100
AcDbEntity
  8
0
100
AcDbLine
 10
11215.765883744354
 20
5631.103324020815
 30
0.0
 11
11215.765883744356
 21
5699.705967536443
 31
-3.006217268921735e-14
  0
LINE
  5
16A
330
17
100
AcDbEntity
  8
0
100
AcDbLine
 10
11215.765883744356
 20
5699.705967536443
 30
-3.006217268921735e-14
 11
11355.772641698526
 21
5699.705967536443
 31
-2.3138712776837047
  0
LINE
  5
16B
330
17
100
AcDbEntity
  8
0
100
AcDbLine
 10
11355.772641698526
 20
5699.705967536443
 30
-2.3138712776837047
 11
11355.772641698526
 21
5631.103324020815
 31
0.0
  0
LINE
  5
16C
330
17
100
AcDbEntity
  8
0
100
AcDbLine
 10
11355.772641698526
 20
5631.103324020815
 30
0.0
 11
11337.772641698526
 21
5631.103324020815
 31
0.0
  0
LINE
  5
16D
330
17
100
AcDbEntity
  8
0
100
AcDbLine
 10
11337.772641698526
 20
5631.103324020815
 30
0.0
 11
11337.772641698526
 21
5629.1033240210845
 31
0.0
  0
LINE
  5
16E
330
17
100
AcDbEntity
  8
0
100
AcDbLine
 10
11337.772641698526
 20
5629.1033240210845
 30
0.0
 11
11335.772641698526
 21
5629.1033240210845
 31
0.0
  0
LINE
  5
16F
330
17
100
AcDbEntity
  8
0
100
AcDbLine
 10
11335.772641698526
 20
5629.1033240210845
 30
0.0
 11
11335.772641698526
 21
5605.70603167764
 31
-9.992007221626409e-14
  0
LINE
  5
170
330
17
100
AcDbEntity
  8
0
100
AcDbLine
 10
11335.772641698526
 20
5605.70603167764
 30
-9.992007221626409e-14
 11
11337.772641698526
 21
5605.70603167764
 31
-9.992007221626409e-14
  0
LINE
  5
171
330
17
100
AcDbEntity
  8
0
100
AcDbLine
 10
11337.772641698526
 20
5605.70603167764
 30
-9.992007221626409e-14
 11
11337.772641698526
 21
5603.706031677909
 31
-9.992007221626409e-14
  0
LINE
  5
172
330
17
100
AcDbEntity
  8
0
100
AcDbLine
 10
11337.772641698526
 20
5603.706031677909
 30
-9.992007221626409e-14
 11
11343.772641698526
 21
5603.706031677909
 31
-9.992007221626409e-14
  0
LINE
  5
173
330
17
100
AcDbEntity
  8
0
100
AcDbLine
 10
11343.772641698526
 20
5603.706031677909
 30
-9.992007221626409e-14
 11
11343.772641698526
 21
5595.706031677909
 31
-9.992007221626409e-14
  0
LINE
  5
174
330
17
100
AcDbEntity
  8
0
100
AcDbLine
 10
11343.772641698526
 20
5595.706031677909
 30
-9.992007221626409e-14
 11
11351.772641698632
 21
5595.706031677909
 31
-9.992007221626409e-14
  0
LINE
  5
175
330
17
100
AcDbEntity
  8
0
100
AcDbLine
 10
11351.772641698632
 20
5595.706031677909
 30
-9.992007221626409e-14
 11
11351.772641698632
 21
5589.706031677909
 31
-9.992007221626409e-14
  0
LINE
  5
176
330
17
100
AcDbEntity
  8
0
100
AcDbLine
 10
11351.772641698632
 20
5589.706031677909
 30
-9.992007221626409e-14
 11
11353.772641698362
 21
5589.706031677909
 31
-9.992007221626409e-14
  0
LINE
  5
177
330
17
100
AcDbEntity
  8
0
100
AcDbLine
 10
11353.772641698362
 20
5589.706031677909
 30
-9.992007221626409e-14
 11
11353.772641698362
 21
5587.706031677909
 31
-9.992007221626409e-14
  0
LINE
  5
178
330
17
100
AcDbEntity
  8
0
100
AcDbLine
 10
11353.772641698362
 20
5587.706031677909
 30
-9.992007221626409e-14
 11
11377.169934041807
 21
5587.706031677909
 31
-9.992007221626409e-14
  0
LINE
  5
179
330
17
100
AcDbEntity
  8
0
100
AcDbLine
 10
11377.169934041807
 20
5587.706031677909
 30
-9.992007221626409e-14
 11
11377.169934041807
 21
5589.706031677909
 31
-9.992007221626409e-14
  0
LINE
  5
17A
330
17
100
AcDbEntity
  8
0
100
AcDbLine
 10
11377.169934041807
 20
5589.706031677909
 30
-9.992007221626409e-14
 11
11379.169934041538
 21
5589.706031677909
 31
-9.992007221626409e-14
  0
LINE
  5
17B
330
17
100
AcDbEntity
  8
0
100
AcDbLine
 10
11379.169934041538
 20
5589.706031677909
 30
-9.992007221626409e-14
 11
11379.169934041538
 21
5595.706031677909
 31
-9.992007221626409e-14
  0
LINE
  5
17C
330
17
100
AcDbEntity
  8
0
100
AcDbLine
 10
11379.169934041538
 20
5595.706031677909
 30
-9.992007221626409e-14
 11
11387.170379542576
 21
5595.706031677909
 31
-9.992007221626409e-14
  0
LINE
  5
17D
330
17
100
AcDbEntity
  8
0
100
AcDbLine
 10
11387.170379542576
 20
5595.706031677909
 30
-9.992007221626409e-14
 11
11387.170379542693
 21
5677.206120776457
 31
-2.3138712776836745
  0
LINE
  5
17E
330
17
100
AcDbEntity
  8
0
100
AcDbLine
 10
11387.170379542693
 20
5677.206120776457
 30
-2.3138712776836745
 11
11462.767926243208
 21
5677.206120776457
 31
0.0
  0
LINE
  5
17F
330
17
100
AcDbEntity
  8
0
100
AcDbLine
 10
11462.767926243208
 20
5677.206120776457
 30
0.0
 11
11462.767926243208
 21
5720.205967536444
 31
0.0
  0
LINE
  5
180
330
17
100
AcDbEntity
  8
0
100
AcDbLine
 10
11655.768815956553
 20
5720.205967536444
 30
0.0
 11
11723.767926243216
 21
5720.205967536444
 31
0.0
  0
LINE
  5
181
330
17
100
AcDbEntity
  8
0
100
AcDbLine
 10
11723.767926243216
 20
5720.205967536444
 30
0.0
 11
11723.767926243216
 21
5652.706120776457
 31
0.0
  0
LINE
  5
182
330
17
100
AcDbEntity
  8
0
100
AcDbLine
 10
11723.767926243216
 20
5652.706120776457
 30
0.0
 11
11772.500172156031
 21
5652.706120776457
 31
0.0
  0
LINE
  5
183
330
17
100
AcDbEntity
  8
0
100
AcDbLine
 10
11772.500172156031
 20
5652.706120776457
 30
0.0
 11
11772.500172156031
 21
5634.706120776457
 31
0.0
  0
LINE
  5
184
330
17
100
AcDbEntity
  8
0
100
AcDbLine
 10
11772.500172156031
 20
5634.706120776457
 30
0.0
 11
11937.037462031984
 21
5634.706120776814
 31
0.0
  0
LINE
  5
185
330
17
100
AcDbEntity
  8
0
100
AcDbLine
 10
11937.037462031984
 20
5634.706120776814
 30
0.0
 11
11937.037462031984
 21
5652.706120776457
 31
0.0
  0
LINE
  5
186
330
17
100
AcDbEntity
  8
0
100
AcDbLine
 10
11937.037462031984
 20
5652.706120776457
 30
0.0
 11
11985.767929009317
 21
5652.718113994132
 31
0.0
  0
LINE
  5
187
330
17
100
AcDbEntity
  8
0
100
AcDbLine
 10
11985.767929009317
 20
5652.718113994132
 30
0.0
 11
11985.863950928791
 21
6069.217817032054
 31
0.0
  0
LINE
  5
188
330
17
100
AcDbEntity
  8
0
100
AcDbLine
 10
11985.863950928791
 20
6069.217817032054
 30
0.0
 11
12013.863900989985
 21
6069.213619413209
 31
0.0
  0
LINE
  5
189
330
17
100
AcDbEntity
  8
0
100
AcDbLine
 10
12013.863900989985
 20
6069.213619413209
 30
0.0
 11
12013.863900989985
 21
6084.713767894249
 31
0.0
  0
LINE
  5
18A
330
17
100
AcDbEntity
  8
0
100
AcDbLine
 10
12013.863900989985
 20
6226.213916375289
 30
0.0
 11
11923.863948167584
 21
6226.206133561086
 31
0.0
  0
LINE
  5
18B
330
17
100
AcDbEntity
  8
0
100
AcDbLine
 10
11923.863948167584
 20
6226.206133561086
 30
0.0
 11
11923.863948162687
 21
6328.78847313047
 31
0.0
  0
LINE
  5
18C
330
17
100
AcDbEntity
  8
0
100
AcDbLine
 10
11923.863948162687
 20
6328.78847313047
 30
0.0
 11
11737.76703513938
 21
6328.788460436944
 31
0.0
  0
LINE
  5
18D
330
17
100
AcDbEntity
  8
0
100
AcDbLine
 10
11737.76703513938
 20
6328.788460436944
 30
0.0
 11
11737.767035139375
 21
6361.613995167306
 31
0.0
  0
LINE
  5
18E
330
17
100
AcDbEntity
  8
0
100
AcDbLine
 10
11214.765883744352
 20
5700.705967536443
 30
-3.006217268921735e-14
 11
11336.772641698526
 21
5598.706031677909
 31
-9.992007221626409e-14
  0
LINE
  5
18F
330
17
100
AcDbEntity
  8
0
100
AcDbLine
 10
11356.772641698526
 20
5700.705967536443
 30
-2.3138712776837047
 11
11234.765883744352
 21
5598.706031677909
 31
2.3138712776835746
  0
LINE
  5
190
330
17
100
AcDbEntity
  8
0
100
AcDbLine
 10
11736.767035157378
 20
6456.613995164583
 30
0.0
 11
11736.767035257812
 21
6485.613995164583
 31
0.0
  0
LINE
  5
191
330
17
100
AcDbEntity
  8
0
100
AcDbLine
 10
11737.76917044325
 20
6457.61399078649
 30
0.0
 11
11737.767035330226
 21
6536.539305627638
 31
0.0
  0
LINE
  5
192
330
17
100
AcDbEntity
  8
0
100
AcDbLine
 10
11736.767035257812
 20
6485.613995164583
 30
0.0
 11
11736.76703522293
 21
6485.614193073344
 31
0.0
  0
LINE
  5
193
330
17
100
AcDbEntity
  8
0
100
AcDbLine
 10
11737.767035257812
 20
6486.613979938397
 30
0.0
 11
11737.765968270609
 21
6486.6141778634055
 31
0.0
  0
LINE
  5
194
330
17
100
AcDbEntity
  8
0
100
AcDbLine
 10
11736.76703523446
 20
6504.876805625817
 30
0.0
 11
11736.766952818356
 21
6485.614193074603
 31
0.0
  0
LINE
  5
195
330
17
100
AcDbEntity
  8
0
100
AcDbLine
 10
11641.581928575659
 20
6203.289179973032
 30
1.1569356388418373
 11
11641.581928575659
 21
6196.789179973029
 31
1.1569356388418373
  0
LINE
  5
196
330
17
100
AcDbEntity
  8
0
100
AcDbLine
 10
11671.581928575659
 20
6203.289179958346
 30
1.1569356388418373
 11
11671.581928575659
 21
6196.789179958342
 31
1.1569356388418373
  0
LINE
  5
197
330
17
100
AcDbEntity
  8
0
100
AcDbLine
 10
12002.863900989985
 20
6215.213916375289
 30
0.0
 11
11975.863948162687
 21
6083.706863280901
 31
0.0
  0
LINE
  5
198
330
17
100
AcDbEntity
  8
0
100
AcDbLine
 10
11975.863948162683
 20
6215.206120776459
 30
0.0
 11
12002.863900989982
 21
6083.714658879731
 31
0.0
  0
LINE
  5
199
330
17
100
AcDbEntity
  8
0
100
AcDbLine
 10
11715.768313630011
 20
6134.747387505214
 30
2.3138712776836745
 11
11727.768313630018
 21
6134.747387505212
 31
2.3138712776836745
  0
LINE
  5
19A
330
17
100
AcDbEntity
  8
0
100
AcDbLine
 10
11727.765831307488
 20
6092.706640099058
 30
2.0536883683016214
 11
11727.768313630015
 21
6134.747387505214
 31
2.3138712776836745
  0
LINE
  5
19B
330
17
100
AcDbEntity
  8
0
100
AcDbLine
 10
11727.768313630015
 20
6170.74738750521
 30
2.3138712776836745
 11
11727.768313629082
 21
6196.789070801611
 31
2.0265922911849588
  0
LINE
  5
19C
330
17
100
AcDbEntity
  8
0
100
AcDbLine
 10
11721.26831360035
 20
6203.289054171863
 30
2.3138712776836745
 11
11721.26831359545
 21
6308.788208986428
 31
2.3138712776836745
  0
LINE
  5
19D
330
17
100
AcDbEntity
  8
0
100
AcDbLine
 10
11727.768313630015
 20
6170.74738750521
 30
2.3138712776836745
 11
11715.768313630015
 21
6170.74738750521
 31
2.3138712776836745
  0
LINE
  5
19E
330
17
100
AcDbEntity
  8
0
100
AcDbLine
 10
11715.768313630015
 20
6170.74738750521
 30
2.3138712776836745
 11
11715.768313630015
 21
6196.789054171862
 31
2.3138712776836745
  0
LINE
  5
19F
330
17
100
AcDbEntity
  8
0
100
AcDbLine
 10
11585.3955435213
 20
6108.705956809207
 30
0.0
 11
11585.395543518953
 21
6116.705972441549
 31
0.0
  0
LINE
  5
1A0
330
17
100
AcDbEntity
  8
0
100
AcDbLine
 10
11597.395543521307
 20
6108.705952776018
 30
0.0
 11
11597.395543518953
 21
6116.705972447421
 31
0.0
  0
LINE
  5
1A1
330
17
100
AcDbEntity
  8
0
100
AcDbLine
 10
11597.395543518953
 20
6116.705972447421
 30
0.0
 11
11585.39554351895
 21
6116.705972443898
 31
0.0
  0
LINE
  5
1A2
330
17
100
AcDbEntity
  8
0
100
AcDbLine
 10
11597.395543518953
 20
6188.7893057611955
 30
0.0
 11
11597.395543518956
 21
6116.705972427889
 31
0.0
  0
LINE
  5
1A3
330
17
100
AcDbEntity
  8
0
100
AcDbLine
 10
11585.395543518953
 20
6188.7893057611955
 30
0.0
 11
11585.395543518956
 21
6116.705972427889
 31
0.0
  0
LINE
  5
1A4
330
17
100
AcDbEntity
  8
0
100
AcDbLine
 10
11544.269708245973
 20
6196.789305436854
 30
0.0
 11
11508.269708213333
 21
6196.78930560335
 31
0.0
  0
LINE
  5
1A5
330
17
100
AcDbEntity
  8
0
100
AcDbLine
 10
11495.194022630609
 20
6196.789305628742
 30
0.0
 11
11495.194022632955
 21
6188.789305624828
 31
0.0
  0
LINE
  5
1A6
330
17
100
AcDbEntity
  8
0
100
AcDbLine
 10
11483.194022630605
 20
6196.789305628742
 30
0.0
 11
11483.194022632955
 21
6188.789305618956
 31
0.0
  0
LINE
  5
1A7
330
17
100
AcDbEntity
  8
0
100
AcDbLine
 10
11483.194022632955
 20
6188.789305618956
 30
0.0
 11
11495.194022632959
 21
6188.789305622479
 31
0.0
  0
LINE
  5
1A8
330
17
100
AcDbEntity
  8
0
100
AcDbLine
 10
11468.770146793942
 20
6451.2893242692235
 30
0.0
 11
11468.769725215732
 21
6516.539324366544
 31
0.0
  0
LINE
  5
1A9
330
17
100
AcDbEntity
  8
0
100
AcDbLine
 10
11597.395543521303
 20
6196.789305774196
 30
0.0
 11
11597.395543518953
 21
6188.789305913225
 31
0.0
  0
LINE
  5
1AA
330
17
100
AcDbEntity
  8
0
100
AcDbLine
 10
11538.269708214162
 20
6108.7059747621615
 30
0.0
 11
11538.269708214162
 21
6102.205965081273
 31
0.0
  0
LINE
  5
1AB
330
17
100
AcDbEntity
  8
0
100
AcDbLine
 10
11508.269708214162
 20
6108.705984845131
 30
0.0
 11
11508.269708214162
 21
6102.205972295415
 31
0.0
  0
LINE
  5
1AC
330
17
100
AcDbEntity
  8
0
100
AcDbLine
 10
11564.26970821418
 20
6102.205955401901
 30
0.0
 11
11564.26970821418
 21
6036.205972295417
 31
0.0
  0
LINE
  5
1AD
330
17
100
AcDbEntity
  8
0
100
AcDbLine
 10
11568.76970821418
 20
6102.205955401901
 30
0.0
 11
11568.76970821418
 21
6029.705972295417
 31
0.0
  0
LINE
  5
1AE
330
17
100
AcDbEntity
  8
0
100
AcDbLine
 10
11546.26970821418
 20
6029.705972295417
 30
0.0
 11
11546.269708214184
 21
6009.705972295419
 31
0.0
  0
LINE
  5
1AF
330
17
100
AcDbEntity
  8
0
100
AcDbLine
 10
11546.269708214188
 20
5977.705972295417
 30
0.0
 11
11546.269708214184
 21
5969.705947664156
 31
0.0
  0
LINE
  5
1B0
330
17
100
AcDbEntity
  8
0
100
AcDbLine
 10
11546.936374880848
 20
6029.705972295417
 30
0.0
 11
11546.936374880852
 21
6009.705972295419
 31
0.0
  0
LINE
  5
1B1
330
17
100
AcDbEntity
  8
0
100
AcDbLine
 10
11546.936374880852
 20
5977.705972295417
 30
0.0
 11
11546.936374880852
 21
5969.705947664156
 31
0.0
  0
LINE
  5
1B2
330
17
100
AcDbEntity
  8
0
100
AcDbLine
 10
11585.936441291526
 20
6086.260637760551
 30
0.0
 11
11574.436441291497
 21
6095.260637760551
 31
0.0
  0
LINE
  5
1B3
330
17
100
AcDbEntity
  8
0
100
AcDbLine
 10
11502.269708214184
 20
6029.705972295417
 30
0.0
 11
11502.269708214184
 21
5969.7059655778
 31
0.0
  0
LINE
  5
1B4
330
17
100
AcDbEntity
  8
0
100
AcDbLine
 10
11500.269708214184
 20
6029.705972295417
 30
0.0
 11
11500.269708214184
 21
5969.7059655778
 31
0.0
  0
LINE
  5
1B5
330
17
100
AcDbEntity
  8
0
100
AcDbLine
 10
11499.269708214184
 20
6029.705972295417
 30
0.0
 11
11499.269708214184
 21
5969.7059655778
 31
0.0
  0
LINE
  5
1B6
330
17
100
AcDbEntity
  8
0
100
AcDbLine
 10
11405.269708214184
 20
6029.705972295417
 30
0.0
 11
11405.269708214188
 21
5982.20597229539
 31
0.0
  0
LINE
  5
1B7
330
17
100
AcDbEntity
  8
0
100
AcDbLine
 10
11405.269708214188
 20
5958.20597229539
 30
0.0
 11
11405.269708214184
 21
5927.705972295415
 31
0.0
  0
LINE
  5
1B8
330
17
100
AcDbEntity
  8
0
100
AcDbLine
 10
11391.269708214184
 20
6066.20597229539
 30
0.0
 11
11391.269708214184
 21
6042.20597229539
 31
0.0
  0
LINE
  5
1B9
330
17
100
AcDbEntity
  8
0
100
AcDbLine
 10
11391.269708214184
 20
5982.20597229539
 30
0.0
 11
11391.269708214184
 21
5958.20597229539
 31
0.0
  0
LINE
  5
1BA
330
17
100
AcDbEntity
  8
0
100
AcDbLine
 10
11433.270599199479
 20
5879.705972295417
 30
0.0
 11
11433.270599199479
 21
5719.737171769383
 31
-0.3500693279541003
  0
LINE
  5
1BB
330
17
100
AcDbEntity
  8
0
100
AcDbLine
 10
11439.77059919948
 20
5957.706640346522
 30
-0.30527477164775974
 11
11439.77059919948
 21
5740.2066355875495
 31
-0.30527477164775974
  0
LINE
  5
1BC
330
17
100
AcDbEntity
  8
0
100
AcDbLine
 10
11497.269708214184
 20
6027.705968936611
 30
0.0
 11
11413.769708214184
 21
5971.705972295416
 31
0.0
  0
LINE
  5
1BD
330
17
100
AcDbEntity
  8
0
100
AcDbLine
 10
11413.76970821418
 20
6027.705972295419
 30
0.0
 11
11497.26000471031
 21
5971.705968936607
 31
0.0
  0
LINE
  5
1BE
330
17
100
AcDbEntity
  8
0
100
AcDbLine
 10
11546.269708214184
 20
6036.205964998952
 30
0.0
 11
11546.269708214184
 21
6029.705955318063
 31
0.0
  0
LINE
  5
1BF
330
17
100
AcDbEntity
  8
0
100
AcDbLine
 10
11502.269708214188
 20
6036.205972295419
 30
0.0
 11
11502.269708214188
 21
6029.705959745702
 31
0.0
  0
LINE
  5
1C0
330
17
100
AcDbEntity
  8
0
100
AcDbLine
 10
11538.269708214162
 20
5969.705972295417
 30
0.0
 11
11538.269708214166
 21
5957.705923868719
 31
0.0
  0
LINE
  5
1C1
330
17
100
AcDbEntity
  8
0
100
AcDbLine
 10
11508.269708214162
 20
5969.705972295421
 30
0.0
 11
11508.269708214162
 21
5957.705972295419
 31
0.0
  0
LINE
  5
1C2
330
17
100
AcDbEntity
  8
0
100
AcDbLine
 10
11508.269708214162
 20
5957.705972295419
 30
0.0
 11
11439.77059919948
 21
5957.706640346522
 31
-0.30527477164775974
  0
LINE
  5
1C3
330
17
100
AcDbEntity
  8
0
100
AcDbLine
 10
11386.270599199479
 20
5927.705972295415
 30
0.0
 11
11405.269708214188
 21
5927.705972295415
 31
0.0
  0
LINE
  5
1C4
330
17
100
AcDbEntity
  8
0
100
AcDbLine
 10
11386.270599199479
 20
5879.705972295417
 30
0.0
 11
11433.270599199479
 21
5879.705972295417
 31
0.0
  0
LINE
  5
1C5
330
17
100
AcDbEntity
  8
0
100
AcDbLine
 10
11386.270599199479
 20
5927.705972295415
 30
0.0
 11
11386.270599199479
 21
5879.705972295417
 31
0.0
  0
LINE
  5
1C6
330
17
100
AcDbEntity
  8
0
100
AcDbLine
 10
11386.270599199479
 20
5927.705972295415
 30
0.0
 11
11218.270599199679
 21
5927.705972295422
 31
0.0
  0
LINE
  5
1C7
330
17
100
AcDbEntity
  8
0
100
AcDbLine
 10
11386.270599199479
 20
5879.705972295417
 30
0.0
 11
11218.270599199675
 21
5879.705972295422
 31
0.0
  0
LINE
  5
1C8
330
17
100
AcDbEntity
  8
0
100
AcDbLine
 10
11210.270599199646
 20
5927.705972295415
 30
0.0
 11
11210.270599199668
 21
6048.705972295415
 31
0.0
  0
LINE
  5
1C9
330
17
100
AcDbEntity
  8
0
100
AcDbLine
 10
11171.271806831484
 20
5719.70596753649
 30
0.005503714290430395
 11
11171.271851232057
 21
5748.706212829543
 31
0.005706067376986668
  0
LINE
  5
1CA
330
17
100
AcDbEntity
  8
0
100
AcDbLine
 10
11171.271851232057
 20
5748.706212829543
 30
0.005706067376986668
 11
11164.771851232057
 21
5748.706212829543
 31
0.005706067376986668
  0
LINE
  5
1CB
330
17
100
AcDbEntity
  8
0
100
AcDbLine
 10
11164.771851232057
 20
5748.706212829543
 30
0.005706067376986668
 11
11164.770599199484
 21
5719.706458122697
 31
0.0
  0
LINE
  5
1CC
330
17
100
AcDbEntity
  8
0
100
AcDbLine
 10
11171.271806831488
 20
5879.705972295465
 30
0.00550371429034513
 11
11171.271851232057
 21
5850.706217588525
 31
0.005706067376986668
  0
LINE
  5
1CD
330
17
100
AcDbEntity
  8
0
100
AcDbLine
 10
11164.771806831488
 20
5879.705972295465
 30
0.00550371429034513
 11
11164.771851232057
 21
5850.706217588525
 31
0.005706067376986668
  0
LINE
  5
1CE
330
17
100
AcDbEntity
  8
0
100
AcDbLine
 10
11170.938517898723
 20
5767.70621520903
 30
0.005706067376986668
 11
11170.938517898725
 21
5748.706212829543
 31
0.005706067376986668
  0
LINE
  5
1CF
330
17
100
AcDbEntity
  8
0
100
AcDbLine
 10
11170.271851232055
 20
5767.70621520903
 30
0.005706067376986668
 11
11170.271851232057
 21
5748.706212829543
 31
0.005706067376986668
  0
LINE
  5
1D0
330
17
100
AcDbEntity
  8
0
100
AcDbLine
 10
11170.93851789872
 20
5831.70621520903
 30
0.005706067376986668
 11
11170.938517898718
 21
5850.706217588525
 31
0.005706067376986668
  0
LINE
  5
1D1
330
17
100
AcDbEntity
  8
0
100
AcDbLine
 10
11170.271851232055
 20
5831.706215209034
 30
0.005706067376986668
 11
11170.271851232053
 21
5850.7062175885285
 31
0.005706067376986668
  0
LINE
  5
1D2
330
17
100
AcDbEntity
  8
0
100
AcDbLine
 10
11391.269708214184
 20
5982.20597229539
 30
0.0
 11
11405.269708214184
 21
5982.20597229539
 31
0.0
  0
LINE
  5
1D3
330
17
100
AcDbEntity
  8
0
100
AcDbLine
 10
11391.269708214184
 20
5958.20597229539
 30
0.0
 11
11405.269708214184
 21
5958.20597229539
 31
0.0
  0
LINE
  5
1D4
330
17
100
AcDbEntity
  8
0
100
AcDbLine
 10
11391.269708214184
 20
6042.20597229539
 30
0.0
 11
11405.269708214184
 21
6042.20597229539
 31
0.0
  0
LINE
  5
1D5
330
17
100
AcDbEntity
  8
0
100
AcDbLine
 10
11391.269708214184
 20
6066.20597229539
 30
0.0
 11
11405.269708214184
 21
6066.20597229539
 31
0.0
  0
LINE
  5
1D6
330
17
100
AcDbEntity
  8
0
100
AcDbLine
 10
11391.269708214184
 20
6042.20597229539
 30
0.0
 11
11391.269708214184
 21
5982.20597229539
 31
0.0
  0
LINE
  5
1D7
330
17
100
AcDbEntity
  8
0
100
AcDbLine
 10
11102.770599199666
 20
6516.539305627636
 30
0.0
 11
11102.770599199666
 21
6477.789305628193
 31
0.0
  0
LINE
  5
1D8
330
17
100
AcDbEntity
  8
0
100
AcDbLine
 10
10847.271410344189
 20
6134.747638962094
 30
0.0
 11
10847.271410344189
 21
6092.706863280901
 31
0.0
  0
LINE
  5
1D9
330
17
100
AcDbEntity
  8
0
100
AcDbLine
 10
10667.770599199675
 20
6206.747638962094
 30
0.0
 11
10739.521004771932
 21
6206.747638962094
 31
0.0
  0
LINE
  5
1DA
330
17
100
AcDbEntity
  8
0
100
AcDbLine
 10
10775.521004771928
 20
6206.747638962094
 30
0.0
 11
10847.271410344189
 21
6206.747638962094
 31
0.0
  0
LINE
  5
1DB
330
17
100
AcDbEntity
  8
0
100
AcDbLine
 10
10667.770599199675
 20
6188.747638962094
 30
0.0
 11
10731.521004771932
 21
6188.747638962094
 31
0.0
  0
LINE
  5
1DC
330
17
100
AcDbEntity
  8
0
100
AcDbLine
 10
10667.770599199675
 20
6189.747638962094
 30
0.0
 11
10730.521004771932
 21
6189.747638962094
 31
0.0
  0
LINE
  5
1DD
330
17
100
AcDbEntity
  8
0
100
AcDbLine
 10
10783.521004771932
 20
6188.747638962094
 30
0.0
 11
10847.271410344189
 21
6188.747638962094
 31
0.0
  0
LINE
  5
1DE
330
17
100
AcDbEntity
  8
0
100
AcDbLine
 10
10784.521004771932
 20
6189.747638962094
 30
0.0
 11
10847.271410344189
 21
6189.747638962094
 31
0.0
  0
LINE
  5
1DF
330
17
100
AcDbEntity
  8
0
100
AcDbLine
 10
10667.770599199675
 20
6213.307638962096
 30
0.0
 11
10739.521004771932
 21
6213.307638962096
 31
0.0
  0
LINE
  5
1E0
330
17
100
AcDbEntity
  8
0
100
AcDbLine
 10
10775.521004771932
 20
6213.307638962096
 30
0.0
 11
10847.271410344189
 21
6213.307638962096
 31
0.0
  0
LINE
  5
1E1
330
17
100
AcDbEntity
  8
0
100
AcDbLine
 10
10783.521004771932
 20
6188.747638962094
 30
0.0
 11
10783.521004771932
 21
6206.747638962094
 31
0.0
  0
LINE
  5
1E2
330
17
100
AcDbEntity
  8
0
100
AcDbLine
 10
10784.521004771932
 20
6188.747638962094
 30
0.0
 11
10784.521004771932
 21
6206.747638962094
 31
0.0
  0
LINE
  5
1E3
330
17
100
AcDbEntity
  8
0
100
AcDbLine
 10
10731.521004771932
 20
6188.747638962094
 30
0.0
 11
10731.521004771936
 21
6206.747638962094
 31
0.0
  0
LINE
  5
1E4
330
17
100
AcDbEntity
  8
0
100
AcDbLine
 10
10730.521004771932
 20
6188.747638962094
 30
0.0
 11
10730.521004771936
 21
6206.747638962094
 31
0.0
  0
LINE
  5
1E5
330
17
100
AcDbEntity
  8
0
100
AcDbLine
 10
10739.521004771932
 20
6213.307638962096
 30
0.0
 11
10739.521004771932
 21
6206.747638962094
 31
0.0
  0
LINE
  5
1E6
330
17
100
AcDbEntity
  8
0
100
AcDbLine
 10
10775.521004771932
 20
6213.307638962096
 30
0.0
 11
10775.521004771932
 21
6206.747638962094
 31
0.0
  0
LINE
  5
1E7
330
17
100
AcDbEntity
  8
0
100
AcDbLine
 10
10746.521004771928
 20
6112.598134124378
 30
0.0
 11
10768.521004771928
 21
6096.598134124378
 31
0.0
  0
LINE
  5
1E8
330
17
100
AcDbEntity
  8
0
100
AcDbLine
 10
10746.521004771928
 20
6096.598134124378
 30
0.0
 11
10768.521004771928
 21
6112.598134124378
 31
0.0
  0
LINE
  5
1E9
330
17
100
AcDbEntity
  8
0
100
AcDbLine
 10
10929.77098582811
 20
5969.206866864655
 30
0.0
 11
10929.770986241632
 21
5982.706866739198
 31
0.0
  0
LINE
  5
1EA
330
17
100
AcDbEntity
  8
0
100
AcDbLine
 10
10929.770988210768
 20
6012.7068667391995
 30
0.0
 11
10929.770971363794
 21
6096.705985422961
 31
0.0
  0
LINE
  5
1EB
330
17
100
AcDbEntity
  8
0
100
AcDbLine
 10
10936.271004807315
 20
6096.705972295398
 30
0.0
 11
10936.270994264052
 21
6012.7068667391995
 31
0.0
  0
LINE
  5
1EC
330
17
100
AcDbEntity
  8
0
100
AcDbLine
 10
10936.270988210765
 20
5982.706866739198
 30
0.0
 11
10936.270988210765
 21
5974.706866739197
 31
0.0
  0
LINE
  5
1ED
330
17
100
AcDbEntity
  8
0
100
AcDbLine
 10
10947.770720888975
 20
5974.706866739197
 30
0.0
 11
10947.770720888975
 21
5962.706866739197
 31
0.0
  0
LINE
  5
1EE
330
17
100
AcDbEntity
  8
0
100
AcDbLine
 10
11020.27100283818
 20
6096.7059749208665
 30
0.0
 11
11020.270986241634
 21
6012.706866739197
 31
0.0
  0
LINE
  5
1EF
330
17
100
AcDbEntity
  8
0
100
AcDbLine
 10
11020.270986241634
 20
5982.706866739197
 30
0.0
 11
11020.270986241634
 21
5974.706869364664
 31
0.0
  0
LINE
  5
1F0
330
17
100
AcDbEntity
  8
0
100
AcDbLine
 10
11007.77035409778
 20
5974.706869364666
 30
0.0
 11
11007.77035409778
 21
5962.706869364664
 31
0.0
  0
LINE
  5
1F1
330
17
100
AcDbEntity
  8
0
100
AcDbLine
 10
11026.77098624163
 20
6096.7059749208665
 30
0.0
 11
11026.770986241634
 21
6012.706866739197
 31
0.0
  0
LINE
  5
1F2
330
17
100
AcDbEntity
  8
0
100
AcDbLine
 10
11026.770986241634
 20
5982.706866739197
 30
0.0
 11
11026.770986241634
 21
5969.206869364664
 31
0.0
  0
LINE
  5
1F3
330
17
100
AcDbEntity
  8
0
100
AcDbLine
 10
10855.771490185149
 20
5969.206869299837
 30
0.0
 11
10929.77098582811
 21
5969.206866864655
 31
0.0
  0
LINE
  5
1F4
330
17
100
AcDbEntity
  8
0
100
AcDbLine
 10
11026.770986241634
 20
5969.206869364666
 30
0.0
 11
11111.770762146394
 21
5969.206869364666
 31
0.0
  0
LINE
  5
1F5
330
17
100
AcDbEntity
  8
0
100
AcDbLine
 10
10855.771490185152
 20
5962.70686931189
 30
0.0
 11
10947.770720888975
 21
5962.706866739195
 31
0.0
  0
LINE
  5
1F6
330
17
100
AcDbEntity
  8
0
100
AcDbLine
 10
10936.270988210765
 20
5974.706866739197
 30
0.0
 11
10947.770720888975
 21
5974.706866739197
 31
0.0
  0
LINE
  5
1F7
330
17
100
AcDbEntity
  8
0
100
AcDbLine
 10
10929.770986241632
 20
5982.706866739198
 30
0.0
 11
10936.270988210768
 21
5982.706866739198
 31
0.0
  0
LINE
  5
1F8
330
17
100
AcDbEntity
  8
0
100
AcDbLine
 10
10929.770988210772
 20
6012.706866739198
 30
0.0
 11
10936.270994264052
 21
6012.7068667391995
 31
0.0
  0
LINE
  5
1F9
330
17
100
AcDbEntity
  8
0
100
AcDbLine
 10
11007.77035409778
 20
5962.706869364664
 30
0.0
 11
11111.770762146398
 21
5962.706869364664
 31
0.0
  0
LINE
  5
1FA
330
17
100
AcDbEntity
  8
0
100
AcDbLine
 10
11007.77035409778
 20
5974.706869364664
 30
0.0
 11
11020.270986241634
 21
5974.706869364666
 31
0.0
  0
LINE
  5
1FB
330
17
100
AcDbEntity
  8
0
100
AcDbLine
 10
11007.77035409778
 20
5962.706869364664
 30
0.0
 11
10947.770720888975
 21
5962.706866739197
 31
0.0
  0
LINE
  5
1FC
330
17
100
AcDbEntity
  8
0
100
AcDbLine
 10
11007.77035409778
 20
5974.706869364664
 30
0.0
 11
10947.770720888975
 21
5974.706866739197
 31
0.0
  0
LINE
  5
1FD
330
17
100
AcDbEntity
  8
0
100
AcDbLine
 10
11093.770555100835
 20
5917.508873001668
 30
0.0
 11
11092.77055510181
 21
5917.508917117825
 31
0.0
  0
LINE
  5
1FE
330
17
100
AcDbEntity
  8
0
100
AcDbLine
 10
11093.764908232903
 20
5789.5088731262285
 30
0.0
 11
11092.764908233878
 21
5789.508917242382
 31
0.0
  0
LINE
  5
1FF
330
17
100
AcDbEntity
  8
0
100
AcDbLine
 10
11026.770986241634
 20
5982.706866739197
 30
0.0
 11
11020.270986241634
 21
5982.706866739197
 31
0.0
  0
LINE
  5
200
330
17
100
AcDbEntity
  8
0
100
AcDbLine
 10
11026.770986241634
 20
6012.706866739197
 30
0.0
 11
11020.270986241634
 21
6012.706866739197
 31
0.0
  0
LINE
  5
201
330
17
100
AcDbEntity
  8
0
100
AcDbLine
 10
11066.520796115987
 20
6196.789305628808
 30
0.0
 11
11036.020799371294
 21
6196.789305628809
 31
0.0
  0
LINE
  5
202
330
17
100
AcDbEntity
  8
0
100
AcDbLine
 10
10922.271191732707
 20
6196.789305628831
 30
0.0
 11
10891.77119498801
 21
6196.789305628809
 31
0.0
  0
LINE
  5
203
330
17
100
AcDbEntity
  8
0
100
AcDbLine
 10
10891.771194988007
 20
6196.789305628809
 30
0.0
 11
10891.77119498801
 21
6194.7893056288185
 31
0.0
  0
LINE
  5
204
330
17
100
AcDbEntity
  8
0
100
AcDbLine
 10
10891.77119498801
 20
6194.7893056288185
 30
0.0
 11
10883.77119498801
 21
6194.7893056288185
 31
0.0
  0
LINE
  5
205
330
17
100
AcDbEntity
  8
0
100
AcDbLine
 10
10883.77119498801
 20
6194.7893056288185
 30
0.0
 11
10883.771211835436
 21
6196.789308254226
 31
0.0
  0
LINE
  5
206
330
17
100
AcDbEntity
  8
0
100
AcDbLine
 10
10922.271191732703
 20
6196.789305628831
 30
0.0
 11
10922.271191732703
 21
6194.7893056288185
 31
0.0
  0
LINE
  5
207
330
17
100
AcDbEntity
  8
0
100
AcDbLine
 10
10922.271191732703
 20
6194.7893056288185
 30
0.0
 11
10930.271191732703
 21
6194.7893056288185
 31
0.0
  0
LINE
  5
208
330
17
100
AcDbEntity
  8
0
100
AcDbLine
 10
10930.271191732703
 20
6194.7893056288185
 30
0.0
 11
10930.271174885278
 21
6196.789308254219
 31
0.0
  0
LINE
  5
209
330
17
100
AcDbEntity
  8
0
100
AcDbLine
 10
10922.271191732703
 20
6194.7893056288185
 30
0.0
 11
10891.77119498801
 21
6194.7893056288185
 31
0.0
  0
LINE
  5
20A
330
17
100
AcDbEntity
  8
0
100
AcDbLine
 10
11066.520796115987
 20
6196.7893056288185
 30
0.0
 11
11066.520796115987
 21
6194.7893056288185
 31
0.0
  0
LINE
  5
20B
330
17
100
AcDbEntity
  8
0
100
AcDbLine
 10
11066.520796115987
 20
6194.7893056288185
 30
0.0
 11
11074.520796115987
 21
6194.7893056288185
 31
0.0
  0
LINE
  5
20C
330
17
100
AcDbEntity
  8
0
100
AcDbLine
 10
11074.520796115987
 20
6194.7893056288185
 30
0.0
 11
11074.52077926858
 21
6196.7893056288185
 31
0.0
  0
LINE
  5
20D
330
17
100
AcDbEntity
  8
0
100
AcDbLine
 10
11036.020799371294
 20
6196.7893056288185
 30
0.0
 11
11036.020799371294
 21
6194.7893056288185
 31
0.0
  0
LINE
  5
20E
330
17
100
AcDbEntity
  8
0
100
AcDbLine
 10
11036.020799371294
 20
6194.7893056288185
 30
0.0
 11
11028.020799371294
 21
6194.7893056288185
 31
0.0
  0
LINE
  5
20F
330
17
100
AcDbEntity
  8
0
100
AcDbLine
 10
11028.020799371294
 20
6194.7893056288185
 30
0.0
 11
11028.020816218701
 21
6196.7893056288185
 31
0.0
  0
LINE
  5
210
330
17
100
AcDbEntity
  8
0
100
AcDbLine
 10
11036.020799371294
 20
6194.7893056288185
 30
0.0
 11
11066.520796115987
 21
6194.7893056288185
 31
0.0
  0
LINE
  5
211
330
17
100
AcDbEntity
  8
0
100
AcDbLine
 10
10960.270996287674
 20
6196.789308254213
 30
0.0
 11
10930.27117488527
 21
6196.789308254219
 31
0.0
  0
LINE
  5
212
330
17
100
AcDbEntity
  8
0
100
AcDbLine
 10
10883.77121183544
 20
6196.789308254226
 30
0.0
 11
10853.77139043304
 21
6196.78930825423
 31
0.0
  0
LINE
  5
213
330
17
100
AcDbEntity
  8
0
100
AcDbLine
 10
10935.770599768286
 20
5740.205967536444
 30
0.0
 11
11020.774160989267
 21
5740.205967536444
 31
0.0
  0
LINE
  5
214
330
17
100
AcDbEntity
  8
0
100
AcDbLine
 10
11376.158567537504
 20
5678.206134768375
 30
-2.3132423929363313
 11
11366.772641698526
 21
5606.706031677909
 31
-9.992007221626409e-14
  0
LINE
  5
215
330
17
100
AcDbEntity
  8
0
100
AcDbLine
 10
11366.773232117774
 20
5678.217252171509
 30
-1.8135563369989296
 11
11376.170379542711
 21
5606.706031677909
 31
-9.992007221626409e-14
  0
LINE
  5
216
330
17
100
AcDbEntity
  8
0
100
AcDbLine
 10
11204.765883744354
 20
5678.2057068803
 30
-1.3366456903581805
 11
11195.36814590061
 21
5606.70608634297
 31
1.3642420526593924e-12
  0
LINE
  5
217
330
17
100
AcDbEntity
  8
0
100
AcDbLine
 10
11195.368145900415
 20
5678.205742437062
 30
0.0
 11
11204.765883744352
 21
5606.706031677909
 31
2.3138712776835746
  0
LINE
  5
218
330
17
100
AcDbEntity
  8
0
100
AcDbLine
 10
11218.270599199679
 20
5879.705972295424
 30
0.0
 11
11218.27059919966
 21
5927.705972295422
 31
0.0
  0
LINE
  5
219
330
17
100
AcDbEntity
  8
0
100
AcDbLine
 10
11218.27059919966
 20
5927.705972295422
 30
0.0
 11
11166.270599199665
 21
5927.705972295379
 31
0.0
  0
LINE
  5
21A
330
17
100
AcDbEntity
  8
0
100
AcDbLine
 10
11166.270599199665
 20
5927.705972295399
 30
0.0
 11
11166.270599199665
 21
5984.705972295419
 31
0.0
  0
LINE
  5
21B
330
17
100
AcDbEntity
  8
0
100
AcDbLine
 10
11118.270599199665
 20
5982.705972295415
 30
0.0
 11
11118.270599199665
 21
5879.705972295417
 31
0.0
  0
LINE
  5
21C
330
17
100
AcDbEntity
  8
0
100
AcDbLine
 10
11218.270599199679
 20
5879.705972295424
 30
0.0
 11
11118.270599199665
 21
5879.705972295417
 31
0.0
  0
LINE
  5
21D
330
17
100
AcDbEntity
  8
0
100
AcDbLine
 10
11118.27059919966
 20
5984.705972295415
 30
0.0
 11
11166.27059919966
 21
5984.705972295419
 31
0.0
  0
LINE
  5
21E
330
17
100
AcDbEntity
  8
0
100
AcDbLine
 10
11166.27059919966
 20
5984.705972295415
 30
0.0
 11
11118.27059919966
 21
5984.705972295419
 31
0.0
  0
LINE
  5
21F
330
17
100
AcDbEntity
  8
0
100
AcDbLine
 10
11166.27059919966
 20
6006.739870600498
 30
0.0
 11
11166.270599199665
 21
5984.705972295419
 31
0.0
  0
LINE
  5
220
330
17
100
AcDbEntity
  8
0
100
AcDbLine
 10
11391.269708214184
 20
5958.20597229539
 30
0.0
 11
11391.269708214184
 21
5927.705972295415
 31
0.0
  0
LINE
  5
221
330
17
100
AcDbEntity
  8
0
100
AcDbLine
 10
11391.269708214184
 20
6066.20597229539
 30
0.0
 11
11391.269708214184
 21
6096.705972295419
 31
0.0
  0
LINE
  5
222
330
17
100
AcDbEntity
  8
0
100
AcDbLine
 10
11170.938517898723
 20
5799.706215209034
 30
0.005706067376986668
 11
11170.271851232055
 21
5799.706215209034
 31
0.005706067376986668
  0
ARC
  5
223
330
17
100
AcDbEntity
  8
0
100
AcDbCircle
 10
11170.569228026327
 20
5766.76204660705
 30
0.005706067376986668
 40
32.94623832679102
100
AcDbArc
 50
46.866642126117384
 51
89.35776600713722
  0
LINE
  5
224
330
17
100
AcDbEntity
  8
0
100
AcDbLine
 10
11170.938517898723
 20
5767.70621520903
 30
0.005706067376986668
 11
11170.271851232055
 21
5767.70621520903
 31
0.005706067376986668
  0
LINE
  5
225
330
17
100
AcDbEntity
  8
0
100
AcDbLine
 10
11170.938517898723
 20
5799.706215209034
 30
0.005706067376986668
 11
11170.271851232055
 21
5799.706215209034
 31
0.005706067376986668
  0
ARC
  5
226
330
17
100
AcDbEntity
  8
0
100
AcDbCircle
 10
11170.569228026327
 20
5832.650383811016
 30
0.005706067376986668
 40
32.94623832679102
100
AcDbArc
 50
270.64223399286277
 51
313.13335787388263
  0
LINE
  5
227
330
17
100
AcDbEntity
  8
0
100
AcDbLine
 10
11170.938517898723
 20
5831.706215209034
 30
0.005706067376986668
 11
11170.271851232055
 21
5831.706215209034
 31
0.005706067376986668
  0
LINE
  5
228
330
17
100
AcDbEntity
  8
0
100
AcDbLine
 10
11546.936374880852
 20
6009.705972295419
 30
0.0
 11
11546.269708214184
 21
6009.705972295419
 31
0.0
  0
ARC
  5
229
330
17
100
AcDbEntity
  8
0
100
AcDbCircle
 10
11546.567085008455
 20
5976.7618036934355
 30
0.0
 40
32.94623832679102
100
AcDbArc
 50
46.866642126117384
 51
89.35776600713722
  0
LINE
  5
22A
330
17
100
AcDbEntity
  8
0
100
AcDbLine
 10
11546.936374880852
 20
5977.705972295417
 30
0.0
 11
11546.269708214184
 21
5977.705972295417
 31
0.0
  0
LINE
  5
22B
330
17
100
AcDbEntity
  8
0
100
AcDbLine
 10
11546.936374880852
 20
6009.705972295419
 30
0.0
 11
11546.269708214184
 21
6009.705972295419
 31
0.0
  0
LINE
  5
22C
330
17
100
AcDbEntity
  8
0
100
AcDbLine
 10
11903.86499590339
 20
6308.782919518187
 30
-4.100085901370676e-05
 11
11903.864993568743
 21
6308.782919518187
 31
-4.100085901370676e-05
  0
LINE
  5
22D
330
17
100
AcDbEntity
  8
0
100
AcDbLine
 10
11931.861465840158
 20
6092.706891555937
 30
-0.26018290938205313
 11
11955.861465840164
 21
6092.706891555938
 31
-0.26018290938205313
  0
LINE
  5
22E
330
17
100
AcDbEntity
  8
0
100
AcDbLine
 10
11931.861465840166
 20
6092.706891555937
 30
-0.26018290938205313
 11
11931.863948162696
 21
6092.706863280901
 31
0.0
  0
LINE
  5
22F
330
17
100
AcDbEntity
  8
0
100
AcDbLine
 10
11751.768313630015
 20
6092.706611824021
 30
2.3138712776836745
 11
11751.765831307484
 21
6092.706640099057
 31
2.0536883683016214
  0
LINE
  5
230
330
17
100
AcDbEntity
  8
0
100
AcDbLine
 10
11751.765831307484
 20
6092.706640099058
 30
2.0536883683016214
 11
11727.765831307486
 21
6092.706640099057
 31
2.0536883683016214
  0
LINE
  5
231
330
17
100
AcDbEntity
  8
0
100
AcDbLine
 10
11751.768313630015
 20
6092.706611824021
 30
2.3138712776836745
 11
11931.863948162694
 21
6092.706863280901
 31
0.0
  0
LINE
  5
232
330
17
100
AcDbEntity
  8
0
100
AcDbLine
 10
11478.5627380634
 20
5740.206635588419
 30
1.4291139286655246
 11
11439.77059919948
 21
5740.2066355875495
 31
-0.30527477164775974
  0
LINE
  5
233
330
17
100
AcDbEntity
  8
0
100
AcDbLine
 10
11111.770599199654
 20
5962.706869364664
 30
0.0
 11
11111.770599199299
 21
5740.205967536444
 31
0.0
  0
LINE
  5
234
330
17
100
AcDbEntity
  8
0
100
AcDbLine
 10
11210.270599199665
 20
5927.705972295437
 30
0.0
 11
11210.270599199665
 21
5879.705972295439
 31
0.0
  0
LINE
  5
235
330
17
100
AcDbEntity
  8
0
100
AcDbLine
 10
10855.771495932868
 20
6053.206866739198
 30
0.0
 11
10929.77097770868
 21
6053.206866739199
 31
0.0
  0
LINE
  5
236
330
17
100
AcDbEntity
  8
0
100
AcDbLine
 10
10855.771495668598
 20
6055.206866739198
 30
0.0
 11
10929.770977416954
 21
6055.206866739199
 31
0.0
  0
LINE
  5
237
330
17
100
AcDbEntity
  8
0
100
AcDbLine
 10
10855.771495536466
 20
6056.206866739198
 30
0.0
 11
10929.770977271093
 21
6056.206866739199
 31
0.0
  0
LINE
  5
238
330
17
100
AcDbEntity
  8
0
100
AcDbLine
 10
10857.771490185152
 20
6058.206866739198
 30
0.0
 11
10927.770971363801
 21
6058.206866739199
 31
0.0
  0
LINE
  5
239
330
17
100
AcDbEntity
  8
0
100
AcDbLine
 10
10927.770971363801
 20
6058.206869408269
 30
0.0
 11
10857.771490185152
 21
6094.7059722954
 31
0.0
  0
LINE
  5
23A
330
17
100
AcDbEntity
  8
0
100
AcDbLine
 10
10927.77100979927
 20
6094.705972295401
 30
0.0
 11
10857.771490185152
 21
6058.206869408268
 31
0.0
  0
LINE
  5
23B
330
17
100
AcDbEntity
  8
0
100
AcDbLine
 10
12012.863900989985
 20
6093.713767894249
 30
0.0
 11
12012.863900989985
 21
6201.713767894251
 31
0.0
  0
LINE
  5
23C
330
17
100
AcDbEntity
  8
0
100
AcDbLine
 10
12012.863900989985
 20
6209.713767894251
 30
0.0
 11
12012.863900989985
 21
6225.213916375289
 31
0.0
  0
LINE
  5
23D
330
17
100
AcDbEntity
  8
0
100
AcDbLine
 10
12013.863900989985
 20
6210.713767894251
 30
0.0
 11
12013.863900989985
 21
6226.213916375289
 31
0.0
  0
LINE
  5
23E
330
17
100
AcDbEntity
  8
0
100
AcDbLine
 10
10557.770599199665
 20
6084.705972295419
 30
0.0
 11
10557.770599199665
 21
6069.205823814379
 31
0.0
  0
LINE
  5
23F
330
17
100
AcDbEntity
  8
0
100
AcDbLine
 10
10558.770599199665
 20
6085.705972295419
 30
0.0
 11
10558.770599199665
 21
6070.205823814379
 31
0.0
  0
LINE
  5
240
330
17
100
AcDbEntity
  8
0
100
AcDbLine
 10
10558.770599199668
 20
6201.705972295419
 30
0.0
 11
10558.770599199665
 21
6093.705972295419
 31
0.0
  0
LINE
  5
241
330
17
100
AcDbEntity
  8
0
100
AcDbLine
 10
12030.770106534226
 20
6201.713767894251
 30
0.0
 11
12012.863900989985
 21
6093.713767894249
 31
0.0
  0
LINE
  5
242
330
17
100
AcDbEntity
  8
0
100
AcDbLine
 10
12012.863900989985
 20
6201.713767894251
 30
0.0
 11
12030.770106534226
 21
6093.713767894249
 31
0.0
  0
LINE
  5
243
330
17
100
AcDbEntity
  8
0
100
AcDbLine
 10
10558.676804743905
 20
6201.705972295419
 30
0.0
 11
10540.770599199665
 21
6093.705972295419
 31
0.0
  0
LINE
  5
244
330
17
100
AcDbEntity
  8
0
100
AcDbLine
 10
10540.770599199665
 20
6201.705972295419
 30
0.0
 11
10558.676804743905
 21
6093.705972295419
 31
0.0
  0
LINE
  5
245
330
17
100
AcDbEntity
  8
0
100
AcDbLine
 10
11412.169934041669
 20
5678.206120776457
 30
0.0
 11
11461.767926243208
 21
5678.206120776457
 31
0.0
  0
LINE
  5
246
330
17
100
AcDbEntity
  8
0
100
AcDbLine
 10
11461.767926243208
 20
5678.206120776457
 30
0.0
 11
11461.767926243208
 21
5721.205967536444
 31
0.0
  0
LINE
  5
247
330
17
100
AcDbEntity
  8
0
100
AcDbLine
 10
11461.767926243208
 20
5721.205967536444
 30
0.0
 11
11478.562738063825
 21
5721.205968269314
 31
0.0
  0
LINE
  5
248
330
17
100
AcDbEntity
  8
0
100
AcDbLine
 10
11029.774160420851
 20
5720.205967536444
 30
0.0
 11
11029.774160989267
 21
5731.205967536444
 31
0.0
  0
LINE
  5
249
330
17
100
AcDbEntity
  8
0
100
AcDbLine
 10
11029.774160989267
 20
5731.205967536444
 30
0.0
 11
11029.774160989267
 21
5731.205967536444
 31
0.0
  0
LINE
  5
24A
330
17
100
AcDbEntity
  8
0
100
AcDbLine
 10
11029.774160989267
 20
5731.205967536444
 30
0.0
 11
11056.975787379259
 21
5731.205967536444
 31
0.0
  0
LINE
  5
24B
330
17
100
AcDbEntity
  8
0
100
AcDbLine
 10
11119.770599199433
 20
5731.205967536444
 30
0.0
 11
11119.770599199654
 21
5688.206049754895
 31
0.0
  0
LINE
  5
24C
330
17
100
AcDbEntity
  8
0
100
AcDbLine
 10
11119.770599199654
 20
5688.206049754895
 30
0.0
 11
11195.368145900387
 21
5688.205616319513
 31
-2.3138712776822103
  0
LINE
  5
24D
330
17
100
AcDbEntity
  8
0
100
AcDbLine
 10
11195.368145900387
 20
5688.205616319513
 30
-2.3138712776822103
 11
11205.765883744358
 21
5688.268203996492
 31
0.4992127751042972
  0
LINE
  5
24E
330
17
100
AcDbEntity
  8
0
100
AcDbLine
 10
11205.765883744134
 20
5710.205423502267
 30
-3.006217268921735e-14
 11
11205.765883744356
 21
5710.705967536443
 31
-3.006217268921735e-14
  0
LINE
  5
24F
330
17
100
AcDbEntity
  8
0
100
AcDbLine
 10
11366.772641698526
 20
5710.705967536443
 30
-2.3138712776837047
 11
11366.772641698526
 21
5710.206120776459
 31
-2.3138712776837047
  0
LINE
  5
250
330
17
100
AcDbEntity
  8
0
100
AcDbLine
 10
11366.77264169853
 20
5688.217252870891
 30
-1.813524902399081
 11
11376.170379542711
 21
5688.206120776459
 31
-2.3138712776836745
  0
LINE
  5
251
330
17
100
AcDbEntity
  8
0
100
AcDbLine
 10
11376.170379542711
 20
5688.206120776459
 30
-2.3138712776836745
 11
11451.767926243208
 21
5688.206120776457
 31
0.0
  0
LINE
  5
252
330
17
100
AcDbEntity
  8
0
100
AcDbLine
 10
11451.767926243208
 20
5688.206120776457
 30
0.0
 11
11451.767926243208
 21
5731.205967536444
 31
0.0
  0
LINE
  5
253
330
17
100
AcDbEntity
  8
0
100
AcDbLine
 10
11451.767926243208
 20
5731.205967536444
 30
0.0
 11
11478.562738063602
 21
5731.205967297213
 31
0.0
  0
LINE
  5
254
330
17
100
AcDbEntity
  8
0
100
AcDbLine
 10
11644.767925105758
 20
5731.20597435739
 30
0.0
 11
11671.76792567472
 21
5731.205972962187
 31
0.0
  0
LINE
  5
255
330
17
100
AcDbEntity
  8
0
100
AcDbLine
 10
11514.562738063489
 20
5740.205967536445
 30
0.0
 11
11550.764363884777
 21
5740.205967536446
 31
0.0
  0
LINE
  5
256
330
17
100
AcDbEntity
  8
0
100
AcDbLine
 10
11635.767925105758
 20
5740.205967536444
 30
0.0
 11
11671.767925674518
 21
5740.205967536444
 31
0.0
  0
LINE
  5
257
330
17
100
AcDbEntity
  8
0
100
AcDbLine
 10
11644.767924537342
 20
5720.205967536444
 30
0.0
 11
11644.767925105758
 21
5731.205967536444
 31
0.0
  0
LINE
  5
258
330
17
100
AcDbEntity
  8
0
100
AcDbLine
 10
11644.767925105758
 20
5731.205967536444
 30
0.0
 11
11644.767925105758
 21
5731.205967536444
 31
0.0
  0
LINE
  5
259
330
17
100
AcDbEntity
  8
0
100
AcDbLine
 10
11550.764363884777
 20
5740.205967536444
 30
0.0
 11
11550.764363884777
 21
5722.205967536444
 31
0.0
  0
LINE
  5
25A
330
17
100
AcDbEntity
  8
0
100
AcDbLine
 10
11550.764363884777
 20
5740.205967536444
 30
0.0
 11
11635.767925105758
 21
5740.205967536444
 31
0.0
  0
LINE
  5
25B
330
17
100
AcDbEntity
  8
0
100
AcDbLine
 10
11195.368145900415
 20
5678.205742437062
 30
0.0
 11
11204.765883744354
 21
5678.2057068803
 31
0.0
  0
LINE
  5
25C
330
17
100
AcDbEntity
  8
0
100
AcDbLine
 10
11205.765883744354
 20
5688.268203996492
 30
0.4992127751036941
 11
11205.765883744356
 21
5710.705967536443
 31
-3.006217268921735e-14
  0
LINE
  5
25D
330
17
100
AcDbEntity
  8
0
100
AcDbLine
 10
11366.77264169853
 20
5678.217252870891
 30
0.0
 11
11376.170379542711
 21
5678.206120776459
 31
0.0
  0
LINE
  5
25E
330
17
100
AcDbEntity
  8
0
100
AcDbLine
 10
11366.772641698526
 20
5678.21725287089
 30
0.0
 11
11366.772641698526
 21
5606.706031677909
 31
0.0
  0
LINE
  5
25F
330
17
100
AcDbEntity
  8
0
100
AcDbLine
 10
11171.27180683149
 20
5719.70596753649
 30
0.00550371429034513
 11
11433.270599199479
 21
5719.737171769383
 31
-0.3500693279541003
  0
LINE
  5
260
330
17
100
AcDbEntity
  8
0
100
AcDbLine
 10
11171.271851232057
 20
5850.706217588525
 30
0.005706067376986668
 11
11164.771851232057
 21
5850.706217588525
 31
0.005706067376986668
  0
LINE
  5
261
330
17
100
AcDbEntity
  8
0
100
AcDbLine
 10
10899.770599768026
 20
5721.205967536444
 30
0.0
 11
10916.770599768286
 21
5721.205967536444
 31
0.0
  0
LINE
  5
262
330
17
100
AcDbEntity
  8
0
100
AcDbLine
 10
10899.770599768028
 20
5740.205967536444
 30
0.0
 11
10935.770599768286
 21
5740.205967536444
 31
0.0
  0
LINE
  5
263
330
17
100
AcDbEntity
  8
0
100
AcDbLine
 10
11092.975787379146
 20
5731.205967536444
 30
0.0
 11
11119.770599199433
 21
5731.205967536444
 31
0.0
  0
LINE
  5
264
330
17
100
AcDbEntity
  8
0
100
AcDbLine
 10
11707.767925674607
 20
5731.2059711019165
 30
0.0
 11
11724.768313630018
 21
5731.205716079566
 31
2.3138712776836745
  0
LINE
  5
265
330
17
100
AcDbEntity
  8
0
100
AcDbLine
 10
11707.767925674607
 20
5740.205967536444
 30
0.0
 11
11715.768313630018
 21
5740.205716079566
 31
2.3138712776836745
  0
LINE
  5
266
330
17
100
AcDbEntity
  8
0
100
AcDbLine
 10
11514.562738063489
 20
5731.205966975794
 30
0.0
 11
11541.764363884777
 21
5731.2059667329295
 31
0.0
  0
LINE
  5
267
330
17
100
AcDbEntity
  8
0
100
AcDbLine
 10
11514.562738063487
 20
5721.2059698402345
 30
0.0
 11
11531.764363884777
 21
5721.205970590857
 31
0.0
  0
LINE
  5
268
330
17
100
AcDbEntity
  8
0
100
AcDbLine
 10
11707.767925674605
 20
5721.205967536444
 30
0.0
 11
11724.767926243216
 21
5721.205967536444
 31
0.0
  0
LINE
  5
269
330
17
100
AcDbEntity
  8
0
100
AcDbLine
 10
11495.194022630609
 20
6108.705972275863
 30
0.0
 11
11495.194022632955
 21
6116.705972279778
 31
0.0
  0
LINE
  5
26A
330
17
100
AcDbEntity
  8
0
100
AcDbLine
 10
11483.194022630605
 20
6108.705972275863
 30
0.0
 11
11483.194022632955
 21
6116.705972285649
 31
0.0
  0
LINE
  5
26B
330
17
100
AcDbEntity
  8
0
100
AcDbLine
 10
11483.194022632955
 20
6116.705972285649
 30
0.0
 11
11495.194022632959
 21
6116.705972282126
 31
0.0
  0
LINE
  5
26C
330
17
100
AcDbEntity
  8
0
100
AcDbLine
 10
11495.194022630609
 20
6108.705981840095
 30
0.0
 11
11508.269708214162
 21
6108.705984845131
 31
0.0
  0
LINE
  5
26D
330
17
100
AcDbEntity
  8
0
100
AcDbLine
 10
11495.194022632952
 20
6188.789305737308
 30
0.0
 11
11495.194022632955
 21
6116.705972404001
 31
0.0
  0
LINE
  5
26E
330
17
100
AcDbEntity
  8
0
100
AcDbLine
 10
11483.194022632952
 20
6188.789305737306
 30
0.0
 11
11483.194022632955
 21
6116.705972403999
 31
0.0
  0
LINE
  5
26F
330
17
100
AcDbEntity
  8
0
100
AcDbLine
 10
11462.767926243208
 20
5720.205967536444
 30
0.0
 11
11530.76703652987
 21
5720.205967536444
 31
0.0
  0
LINE
  5
270
330
17
100
AcDbEntity
  8
0
100
AcDbLine
 10
11727.768313628849
 20
6203.2890541721645
 30
1.9548876853920945
 11
11727.768313625067
 21
6308.788460425959
 31
0.7910703484001029
  0
LINE
  5
271
330
17
100
AcDbEntity
  8
0
100
AcDbLine
 10
11833.815419600793
 20
6196.789070801611
 30
0.0
 11
11833.815419600793
 21
6203.287920323799
 31
0.0
  0
LINE
  5
272
330
17
100
AcDbEntity
  8
0
100
AcDbLine
 10
11797.815419600796
 20
6203.287920323795
 30
0.0
 11
11797.815419600796
 21
6196.789070801611
 31
0.0
  0
LINE
  5
273
330
17
100
AcDbEntity
  8
0
100
AcDbLine
 10
11936.036571181192
 20
5653.706120776457
 30
0.0
 11
11936.036571181192
 21
5635.706120776454
 31
0.0
  0
LINE
  5
274
330
17
100
AcDbEntity
  8
0
100
AcDbLine
 10
11937.036571181192
 20
5652.706120776457
 30
0.0
 11
11937.036571181192
 21
5634.706120776457
 31
0.0
  0
LINE
  5
275
330
17
100
AcDbEntity
  8
0
100
AcDbLine
 10
11591.895543578568
 20
6432.590229929943
 30
0.0
 11
11591.895543577859
 21
6453.211156082635
 31
0.0
  0
LINE
  5
276
330
17
100
AcDbEntity
  8
0
100
AcDbLine
 10
11585.395543521301
 20
6208.789305284124
 30
0.0
 11
11585.39554357174
 21
6453.211156083787
 31
0.0
  0
LINE
  5
277
330
17
100
AcDbEntity
  8
0
100
AcDbLine
 10
11513.277755820056
 20
6275.9358015248945
 30
0.0
 11
11513.277755820056
 21
6410.93491053976
 31
0.0
  0
LINE
  5
278
330
17
100
AcDbEntity
  8
0
100
AcDbLine
 10
11477.277755820056
 20
6275.9358015248945
 30
0.0
 11
11477.277755820056
 21
6410.93491053976
 31
0.0
  0
LINE
  5
279
330
17
100
AcDbEntity
  8
0
100
AcDbLine
 10
11513.277755820056
 20
6275.9358015248945
 30
0.0
 11
11477.277755820056
 21
6275.9358015248945
 31
0.0
  0
LINE
  5
27A
330
17
100
AcDbEntity
  8
0
100
AcDbLine
 10
11477.277755820056
 20
6410.93491053976
 30
0.0
 11
11513.277755820056
 21
6410.93491053976
 31
0.0
  0
LINE
  5
27B
330
17
100
AcDbEntity
  8
0
100
AcDbLine
 10
11561.277755820056
 20
6208.789305284129
 30
-4.263256414560601e-14
 11
11561.277755820107
 21
6492.539324367045
 31
-4.2632564145619605e-14
  0
LINE
  5
27C
330
17
100
AcDbEntity
  8
0
100
AcDbLine
 10
11562.277755820103
 20
6208.789305284124
 30
-3.907985046680551e-14
 11
11562.277755820105
 21
6493.539324367045
 31
-2.9206688147958704e-15
  0
LINE
  5
27D
330
17
100
AcDbEntity
  8
0
100
AcDbLine
 10
11573.277755820056
 20
6208.789305284124
 30
0.0
 11
11573.277755820107
 21
6504.539265385754
 31
0.0
  0
LINE
  5
27E
330
17
100
AcDbEntity
  8
0
100
AcDbLine
 10
11565.277755820105
 20
6320.661561699979
 30
-4.2632564145618936e-14
 11
11581.277755820105
 21
6342.661561699979
 31
-4.2632564145618936e-14
  0
LINE
  5
27F
330
17
100
AcDbEntity
  8
0
100
AcDbLine
 10
11581.277755820105
 20
6320.661561699979
 30
-4.2632564145618936e-14
 11
11565.277755820105
 21
6342.661561699979
 31
-4.2632564145618936e-14
  0
LINE
  5
280
330
17
100
AcDbEntity
  8
0
100
AcDbLine
 10
11585.277755820109
 20
6380.543767400593
 30
-4.2632564145618936e-14
 11
11562.277755820109
 21
6356.543767400593
 31
-4.2632564145618936e-14
  0
LINE
  5
281
330
17
100
AcDbEntity
  8
0
100
AcDbLine
 10
11585.277755820109
 20
6356.543767400593
 30
-4.2632564145618936e-14
 11
11562.277755820109
 21
6380.543767400593
 31
-4.2632564145618936e-14
  0
LINE
  5
282
330
17
100
AcDbEntity
  8
0
100
AcDbLine
 10
11707.271402194545
 20
6676.539305643058
 30
0.0
 11
11479.271871809533
 21
6676.539305643058
 31
0.0
  0
LINE
  5
283
330
17
100
AcDbEntity
  8
0
100
AcDbLine
 10
11479.271871809533
 20
6676.539305643058
 30
0.0
 11
11479.271871809533
 21
6536.539305643058
 31
0.0
  0
LINE
  5
284
330
17
100
AcDbEntity
  8
0
100
AcDbLine
 10
11707.271402194545
 20
6536.539305643058
 30
0.0
 11
11707.271402194545
 21
6676.539305643058
 31
0.0
  0
LINE
  5
285
330
17
100
AcDbEntity
  8
0
100
AcDbLine
 10
11698.271402194545
 20
6667.539305643058
 30
0.0
 11
11488.271871809533
 21
6535.539305643058
 31
0.0
  0
LINE
  5
286
330
17
100
AcDbEntity
  8
0
100
AcDbLine
 10
11488.27187180953
 20
6667.539305643058
 30
0.0
 11
11698.271402194541
 21
6535.539305643058
 31
0.0
  0
LINE
  5
287
330
17
100
AcDbEntity
  8
0
100
AcDbLine
 10
11671.581928575659
 20
6196.7891480904
 30
1.4501455479567438
 11
11715.768313630015
 21
6196.789054171862
 31
2.3138712776836745
  0
LINE
  5
288
330
17
100
AcDbEntity
  8
0
100
AcDbLine
 10
11671.581928575657
 20
6203.289150688227
 30
1.4252151939657958
 11
11721.26831360035
 21
6203.289054171863
 31
2.3138712776836745
  0
LINE
  5
289
330
17
100
AcDbEntity
  8
0
100
AcDbLine
 10
11717.767035139237
 20
6360.590228036288
 30
-1.1368683772161603e-13
 11
11690.4036255677
 21
6360.590228040874
 31
-2.313871277684484
  0
LINE
  5
28A
330
17
100
AcDbEntity
  8
0
100
AcDbLine
 10
11666.4036255677
 20
6360.590228040874
 30
-2.313871277684484
 11
11657.89529223409
 21
6360.590228053373
 31
-2.313871277684484
  0
LINE
  5
28B
330
17
100
AcDbEntity
  8
0
100
AcDbLine
 10
11717.767035139148
 20
6360.072035059324
 30
0.0
 11
11690.4036255677
 21
6360.090228040872
 31
-2.313871277684484
  0
LINE
  5
28C
330
17
100
AcDbEntity
  8
0
100
AcDbLine
 10
11666.403625567697
 20
6360.090228040872
 30
-2.313871277684484
 11
11657.895292234334
 21
6360.090228053373
 31
-2.313871277684484
  0
LINE
  5
28D
330
17
100
AcDbEntity
  8
0
100
AcDbLine
 10
11657.913736514485
 20
6360.090228053371
 30
-2.3138712776836745
 11
11591.913736514485
 21
6360.09022805337
 31
-2.3138712776836745
  0
LINE
  5
28E
330
17
100
AcDbEntity
  8
0
100
AcDbLine
 10
11657.913736514485
 20
6360.590228053371
 30
-2.3138712776836745
 11
11591.913736514485
 21
6360.59022805337
 31
-2.3138712776836745
  0
LINE
  5
28F
330
17
100
AcDbEntity
  8
0
100
AcDbLine
 10
11690.4036255677
 20
6360.590228040874
 30
-2.313871277684484
 11
11690.4036255677
 21
6360.090228040874
 31
-2.313871277684484
  0
ARC
  5
290
330
17
100
AcDbEntity
  8
0
100
AcDbCircle
 10
11665.695499116215
 20
6360.313260636576
 30
-2.313871277684484
 40
24.70967874509214
100
AcDbArc
 50
0.6422339928627966
 51
43.13335787390062
  0
LINE
  5
291
330
17
100
AcDbEntity
  8
0
100
AcDbLine
 10
11666.4036255677
 20
6360.590228040874
 30
-2.313871277684484
 11
11666.4036255677
 21
6360.090228040872
 31
-2.313871277684484
  0
LINE
  5
292
330
17
100
AcDbEntity
  8
0
100
AcDbLine
 10
11657.913736514485
 20
6360.590228053371
 30
-2.3138712776836745
 11
11657.895292210549
 21
6426.090228059959
 31
0.0
  0
LINE
  5
293
330
17
100
AcDbEntity
  8
0
100
AcDbLine
 10
11657.413736514485
 20
6360.590228053371
 30
-2.3138712776836745
 11
11657.395292210549
 21
6426.090228059959
 31
0.0
  0
LINE
  5
294
330
17
100
AcDbEntity
  8
0
100
AcDbLine
 10
11657.395292210549
 20
6426.090228059716
 30
0.0
 11
11591.913736514485
 21
6360.59022805337
 31
-2.3138712776836745
  0
LINE
  5
295
330
17
100
AcDbEntity
  8
0
100
AcDbLine
 10
11657.413736514485
 20
6360.590228053371
 30
-2.3138712776836745
 11
11591.895292210547
 21
6426.090228030294
 31
0.0
  0
LINE
  5
296
330
17
100
AcDbEntity
  8
0
100
AcDbLine
 10
11721.26831359545
 20
6308.788208986428
 30
2.3138712776836745
 11
11717.767035129606
 21
6308.788460446735
 31
0.0
  0
LINE
  5
297
330
17
100
AcDbEntity
  8
0
100
AcDbLine
 10
11609.913736353168
 20
6301.007223160638
 30
0.0
 11
11609.89554351861
 21
6247.289305479931
 31
0.0
  0
LINE
  5
298
330
17
100
AcDbEntity
  8
0
100
AcDbLine
 10
11608.913736353168
 20
6301.007223160638
 30
0.0
 11
11608.89554351861
 21
6247.289305479931
 31
0.0
  0
LINE
  5
299
330
17
100
AcDbEntity
  8
0
100
AcDbLine
 10
11462.568395153854
 20
6208.789324171348
 30
0.0
 11
11462.419155636586
 21
6235.289324269224
 31
0.0
  0
LINE
  5
29A
330
17
100
AcDbEntity
  8
0
100
AcDbLine
 10
11468.770146793942
 20
6451.2893242692235
 30
0.0
 11
11462.419155636586
 21
6451.289324269224
 31
0.0
  0
LINE
  5
29B
330
17
100
AcDbEntity
  8
0
100
AcDbLine
 10
11468.769916106807
 20
6235.289324269225
 30
0.0
 11
11462.419357049763
 21
6235.253559953582
 31
0.0
  0
LINE
  5
29C
330
17
100
AcDbEntity
  8
0
100
AcDbLine
 10
11585.39554357174
 20
6489.211156082633
 30
0.0
 11
11585.39554357174
 21
6453.211156082633
 31
0.0
  0
LINE
  5
29D
330
17
100
AcDbEntity
  8
0
100
AcDbLine
 10
11591.895543578568
 20
6489.211156082634
 30
0.0
 11
11585.39554357174
 21
6489.211156082634
 31
0.0
  0
LINE
  5
29E
330
17
100
AcDbEntity
  8
0
100
AcDbLine
 10
11591.895543578568
 20
6453.211156082634
 30
0.0
 11
11585.395543565353
 21
6453.211156083787
 31
0.0
  0
LINE
  5
29F
330
17
100
AcDbEntity
  8
0
100
AcDbLine
 10
11591.895543578568
 20
6489.211156082634
 30
0.0
 11
11591.895543578568
 21
6516.539291727077
 31
0.0
  0
LINE
  5
2A0
330
17
100
AcDbEntity
  8
0
100
AcDbLine
 10
11585.39554357174
 20
6489.211156082633
 30
0.0
 11
11585.395543575876
 21
6516.539291727079
 31
0.0
  0
LINE
  5
2A1
330
17
100
AcDbEntity
  8
0
100
AcDbLine
 10
11591.895543578568
 20
6489.211156082633
 30
0.0
 11
11591.895543578568
 21
6453.211156082633
 31
0.0
  0
LINE
  5
2A2
330
17
100
AcDbEntity
  8
0
100
AcDbLine
 10
11530.446132562589
 20
6492.539324367045
 30
0.0
 11
11561.277755820103
 21
6492.539324367045
 31
-4.2632564145617926e-14
  0
LINE
  5
2A3
330
17
100
AcDbEntity
  8
0
100
AcDbLine
 10
11530.446132562589
 20
6492.539324367045
 30
0.0
 11
11530.44613256259
 21
6516.5392064044645
 31
0.0
  0
LINE
  5
2A4
330
17
100
AcDbEntity
  8
0
100
AcDbLine
 10
11530.446132562589
 20
6493.539324367045
 30
0.0
 11
11562.277755820105
 21
6493.539324367045
 31
-2.9206688147958826e-15
  0
LINE
  5
2A5
330
17
100
AcDbEntity
  8
0
100
AcDbLine
 10
11531.446132562589
 20
6493.539324367045
 30
0.0
 11
11531.44613256259
 21
6516.5392064044645
 31
0.0
  0
LINE
  5
2A6
330
17
100
AcDbEntity
  8
0
100
AcDbLine
 10
11531.446132562589
 20
6504.539265385754
 30
0.0
 11
11573.277755820105
 21
6504.539265385754
 31
0.0
  0
LINE
  5
2A7
330
17
100
AcDbEntity
  8
0
100
AcDbLine
 10
11439.769916119318
 20
6455.289324367102
 30
0.0
 11
11439.769916119318
 21
6257.771442288744
 31
0.0
  0
LINE
  5
2A8
330
17
100
AcDbEntity
  8
0
100
AcDbLine
 10
10877.771410344194
 20
6203.2893056287385
 30
0.0
 11
10877.771410344192
 21
6308.788409166672
 31
0.0
  0
LINE
  5
2A9
330
17
100
AcDbEntity
  8
0
100
AcDbLine
 10
10876.771410344194
 20
6203.2893056287385
 30
0.0
 11
10876.771410344192
 21
6308.788409166672
 31
0.0
  0
LINE
  5
2AA
330
17
100
AcDbEntity
  8
0
100
AcDbLine
 10
11099.719534686554
 20
6245.979023604133
 30
0.0
 11
11082.770609737345
 21
6266.098692747127
 31
0.0
  0
LINE
  5
2AB
330
17
100
AcDbEntity
  8
0
100
AcDbLine
 10
11082.770609737345
 20
6245.979023604133
 30
-0.34030317655743697
 11
11099.719534686554
 21
6266.098692747127
 31
-0.34030317655743697
  0
LINE
  5
2AC
330
17
100
AcDbEntity
  8
0
100
AcDbLine
 10
11078.770618162705
 20
6203.289306406663
 30
0.0
 11
11078.77061816271
 21
6308.788409944596
 31
0.0
  0
LINE
  5
2AD
330
17
100
AcDbEntity
  8
0
100
AcDbLine
 10
11079.770618162705
 20
6203.289306406663
 30
0.0
 11
11079.77061816271
 21
6308.788409944596
 31
0.0
  0
LINE
  5
2AE
330
17
100
AcDbEntity
  8
0
100
AcDbLine
 10
10936.270980448575
 20
6295.2884117921485
 30
0.0
 11
10929.770978479442
 21
6295.2884117921485
 31
0.0
  0
LINE
  5
2AF
330
17
100
AcDbEntity
  8
0
100
AcDbLine
 10
11020.270995861894
 20
6295.288414768376
 30
0.0
 11
11026.770995861894
 21
6295.288414768376
 31
0.0
  0
LINE
  5
2B0
330
17
100
AcDbEntity
  8
0
100
AcDbLine
 10
10936.27099704513
 20
6203.289308254213
 30
0.0
 11
10936.270996988758
 21
6216.789308254215
 31
0.0
  0
LINE
  5
2B1
330
17
100
AcDbEntity
  8
0
100
AcDbLine
 10
10936.270996988758
 20
6216.789308254215
 30
0.0
 11
10929.770996988758
 21
6216.789308254215
 31
0.0
  0
LINE
  5
2B2
330
17
100
AcDbEntity
  8
0
100
AcDbLine
 10
10929.770996988758
 20
6216.789308254215
 30
0.0
 11
10929.77099941161
 21
6203.289308254215
 31
0.0
  0
LINE
  5
2B3
330
17
100
AcDbEntity
  8
0
100
AcDbLine
 10
11026.770995861893
 20
6203.2893086049735
 30
0.0
 11
11026.77099580552
 21
6216.789308604975
 31
0.0
  0
LINE
  5
2B4
330
17
100
AcDbEntity
  8
0
100
AcDbLine
 10
11026.77099580552
 20
6216.789308604975
 30
0.0
 11
11020.27099580552
 21
6216.789308604975
 31
0.0
  0
LINE
  5
2B5
330
17
100
AcDbEntity
  8
0
100
AcDbLine
 10
11020.27099580552
 20
6216.789308604975
 30
0.0
 11
11020.270998228372
 21
6203.289308604975
 31
0.0
  0
LINE
  5
2B6
330
17
100
AcDbEntity
  8
0
100
AcDbLine
 10
10936.270980448575
 20
6295.2884117921485
 30
0.0
 11
10936.270980448531
 21
6216.789308254215
 31
0.0
  0
LINE
  5
2B7
330
17
100
AcDbEntity
  8
0
100
AcDbLine
 10
10929.770978479442
 20
6295.2884117921485
 30
0.0
 11
10929.770963820409
 21
6216.789308254215
 31
0.0
  0
LINE
  5
2B8
330
17
100
AcDbEntity
  8
0
100
AcDbLine
 10
11020.270995861894
 20
6295.288414768376
 30
0.0
 11
11020.27099580552
 21
6216.789308604975
 31
0.0
  0
LINE
  5
2B9
330
17
100
AcDbEntity
  8
0
100
AcDbLine
 10
11026.770995861894
 20
6295.288414768376
 30
0.0
 11
11026.770995861896
 21
6216.789308604975
 31
0.0
  0
LINE
  5
2BA
330
17
100
AcDbEntity
  8
0
100
AcDbLine
 10
11069.271041436918
 20
6514.539305627663
 30
0.0
 11
10887.271041436938
 21
6514.539305627636
 31
0.0
  0
LINE
  5
2BB
330
17
100
AcDbEntity
  8
0
100
AcDbLine
 10
11069.271041436918
 20
6516.539305627663
 30
0.0
 11
11069.271041436918
 21
6514.539305627663
 31
0.0
  0
LINE
  5
2BC
330
17
100
AcDbEntity
  8
0
100
AcDbLine
 10
10887.271041436938
 20
6516.539305627636
 30
0.0
 11
10887.271041436938
 21
6514.539305627636
 31
0.0
  0
LINE
  5
2BD
330
17
100
AcDbEntity
  8
0
100
AcDbLine
 10
10948.479030804781
 20
6470.349714141695
 30
0.0
 11
10948.47903080481
 21
6448.766798879004
 31
0.0
  0
CIRCLE
  5
2BE
330
17
100
AcDbEntity
  8
0
100
AcDbCircle
 10
10918.428123282749
 20
6438.35524743211
 30
0.0
 40
1.9999999999999996
  0
LINE
  5
2BF
330
17
100
AcDbEntity
  8
0
100
AcDbLine
 10
10918.428123282778
 20
6470.349714141724
 30
0.0
 11
10918.428123282749
 21
6448.76679887899
 31
0.0
  0
LINE
  5
2C0
330
17
100
AcDbEntity
  8
0
100
AcDbLine
 10
10920.902669521762
 20
6420.184564113805
 30
0.0
 11
10946.004484565827
 21
6420.18456411382
 31
0.0
  0
LINE
  5
2C1
330
17
100
AcDbEntity
  8
0
100
AcDbLine
 10
10920.902669521762
 20
6427.468309642593
 30
0.0
 11
10946.004484565827
 21
6427.468309642615
 31
0.0
  0
CIRCLE
  5
2C2
330
17
100
AcDbEntity
  8
0
100
AcDbCircle
 10
10888.377215760775
 20
6438.35524743211
 30
0.0
 40
1.9999999999999996
  0
LINE
  5
2C3
330
17
100
AcDbEntity
  8
0
100
AcDbLine
 10
10888.377215760775
 20
6470.349714141724
 30
0.0
 11
10888.377215760775
 21
6448.766798878997
 31
0.0
  0
LINE
  5
2C4
330
17
100
AcDbEntity
  8
0
100
AcDbLine
 10
10890.85176199973
 20
6420.18456411382
 30
0.0
 11
10915.953577043794
 21
6420.18456411382
 31
0.0
  0
LINE
  5
2C5
330
17
100
AcDbEntity
  8
0
100
AcDbLine
 10
10890.851761999787
 20
6427.468309642615
 30
0.0
 11
10915.953577043794
 21
6427.468309642615
 31
0.0
  0
CIRCLE
  5
2C6
330
17
100
AcDbEntity
  8
0
100
AcDbCircle
 10
10948.47903080484
 20
6438.35524743211
 30
0.0
 40
1.9999999999999996
  0
CIRCLE
  5
2C7
330
17
100
AcDbEntity
  8
0
100
AcDbCircle
 10
10858.326308238742
 20
6438.35524743211
 30
0.0
 40
1.9999999999999996
  0
LINE
  5
2C8
330
17
100
AcDbEntity
  8
0
100
AcDbLine
 10
10858.326308238742
 20
6470.349714141695
 30
0.0
 11
10858.326308238742
 21
6448.766798878997
 31
0.0
  0
LINE
  5
2C9
330
17
100
AcDbEntity
  8
0
100
AcDbLine
 10
10860.800854477697
 20
6420.18456411382
 30
0.0
 11
10885.90266952179
 21
6420.184564113827
 31
0.0
  0
LINE
  5
2CA
330
17
100
AcDbEntity
  8
0
100
AcDbLine
 10
10860.800854477755
 20
6427.468309642615
 30
0.0
 11
10885.90266952179
 21
6427.46830964263
 31
0.0
  0
LINE
  5
2CB
330
17
100
AcDbEntity
  8
0
100
AcDbLine
 10
10858.326308238742
 20
6470.349714141695
 30
0.0
 11
10948.479030804781
 21
6470.3497141417165
 31
0.0
  0
LINE
  5
2CC
330
17
100
AcDbEntity
  8
0
100
AcDbLine
 10
11007.468604093041
 20
6470.3497141416965
 30
0.0
 11
11007.46860409302
 21
6448.766798879006
 31
0.0
  0
CIRCLE
  5
2CD
330
17
100
AcDbEntity
  8
0
100
AcDbCircle
 10
11037.51951161508
 20
6438.3552474321195
 30
0.0
 40
1.9999999999999996
  0
LINE
  5
2CE
330
17
100
AcDbEntity
  8
0
100
AcDbLine
 10
11037.519511615044
 20
6470.349714141733
 30
0.0
 11
11037.51951161508
 21
6448.766798878999
 31
0.0
  0
LINE
  5
2CF
330
17
100
AcDbEntity
  8
0
100
AcDbLine
 10
11035.044965376075
 20
6420.1845641138125
 30
0.0
 11
11009.94315033201
 21
6420.184564113822
 31
0.0
  0
LINE
  5
2D0
330
17
100
AcDbEntity
  8
0
100
AcDbLine
 10
11035.044965376072
 20
6427.468309642601
 30
0.0
 11
11009.943150332007
 21
6427.468309642617
 31
0.0
  0
CIRCLE
  5
2D1
330
17
100
AcDbEntity
  8
0
100
AcDbCircle
 10
11067.570419137055
 20
6438.355247432127
 30
0.0
 40
1.9999999999999996
  0
LINE
  5
2D2
330
17
100
AcDbEntity
  8
0
100
AcDbLine
 10
11067.570419137048
 20
6470.34971414174
 30
0.0
 11
11067.570419137055
 21
6448.766798879014
 31
0.0
  0
LINE
  5
2D3
330
17
100
AcDbEntity
  8
0
100
AcDbLine
 10
11065.095872898108
 20
6420.184564113834
 30
0.0
 11
11039.994057854043
 21
6420.184564113829
 31
0.0
  0
LINE
  5
2D4
330
17
100
AcDbEntity
  8
0
100
AcDbLine
 10
11065.095872898046
 20
6427.46830964263
 30
0.0
 11
11039.994057854039
 21
6427.468309642624
 31
0.0
  0
CIRCLE
  5
2D5
330
17
100
AcDbEntity
  8
0
100
AcDbCircle
 10
11007.46860409299
 20
6438.355247432112
 30
0.0
 40
1.9999999999999996
  0
CIRCLE
  5
2D6
330
17
100
AcDbEntity
  8
0
100
AcDbCircle
 10
11097.621326659088
 20
6438.355247432134
 30
0.0
 40
1.9999999999999996
  0
LINE
  5
2D7
330
17
100
AcDbEntity
  8
0
100
AcDbLine
 10
11097.62132665908
 20
6470.349714141718
 30
0.0
 11
11097.621326659088
 21
6448.766798879021
 31
0.0
  0
LINE
  5
2D8
330
17
100
AcDbEntity
  8
0
100
AcDbLine
 10
11095.14678042014
 20
6420.184564113842
 30
0.0
 11
11070.044965376046
 21
6420.184564113843
 31
0.0
  0
LINE
  5
2D9
330
17
100
AcDbEntity
  8
0
100
AcDbLine
 10
11095.146780420078
 20
6427.468309642637
 30
0.0
 11
11070.044965376042
 21
6427.468309642646
 31
0.0
  0
LINE
  5
2DA
330
17
100
AcDbEntity
  8
0
100
AcDbLine
 10
11097.62132665908
 20
6470.349714141718
 30
0.0
 11
11007.468604093041
 21
6470.349714141718
 31
0.0
  0
LINE
  5
2DB
330
17
100
AcDbEntity
  8
0
100
AcDbLine
 10
10948.479030804781
 20
6381.155198160014
 30
0.0
 11
10948.47903080481
 21
6359.572282897324
 31
0.0
  0
CIRCLE
  5
2DC
330
17
100
AcDbEntity
  8
0
100
AcDbCircle
 10
10918.428123282749
 20
6349.16073145043
 30
0.0
 40
1.9999999999999996
  0
LINE
  5
2DD
330
17
100
AcDbEntity
  8
0
100
AcDbLine
 10
10918.428123282778
 20
6381.155198160043
 30
0.0
 11
10918.428123282749
 21
6359.572282897309
 31
0.0
  0
LINE
  5
2DE
330
17
100
AcDbEntity
  8
0
100
AcDbLine
 10
10920.902669521762
 20
6330.990048132125
 30
0.0
 11
10946.004484565827
 21
6330.990048132139
 31
0.0
  0
LINE
  5
2DF
330
17
100
AcDbEntity
  8
0
100
AcDbLine
 10
10920.902669521762
 20
6338.273793660913
 30
0.0
 11
10946.004484565827
 21
6338.273793660935
 31
0.0
  0
CIRCLE
  5
2E0
330
17
100
AcDbEntity
  8
0
100
AcDbCircle
 10
10888.377215760775
 20
6349.16073145043
 30
0.0
 40
1.9999999999999996
  0
LINE
  5
2E1
330
17
100
AcDbEntity
  8
0
100
AcDbLine
 10
10888.377215760775
 20
6381.155198160043
 30
0.0
 11
10888.377215760775
 21
6359.572282897317
 31
0.0
  0
LINE
  5
2E2
330
17
100
AcDbEntity
  8
0
100
AcDbLine
 10
10890.85176199973
 20
6330.990048132139
 30
0.0
 11
10915.953577043794
 21
6330.990048132139
 31
0.0
  0
LINE
  5
2E3
330
17
100
AcDbEntity
  8
0
100
AcDbLine
 10
10890.851761999787
 20
6338.273793660935
 30
0.0
 11
10915.953577043794
 21
6338.273793660935
 31
0.0
  0
CIRCLE
  5
2E4
330
17
100
AcDbEntity
  8
0
100
AcDbCircle
 10
10948.47903080484
 20
6349.16073145043
 30
0.0
 40
1.9999999999999996
  0
CIRCLE
  5
2E5
330
17
100
AcDbEntity
  8
0
100
AcDbCircle
 10
10858.326308238742
 20
6349.16073145043
 30
0.0
 40
1.9999999999999996
  0
LINE
  5
2E6
330
17
100
AcDbEntity
  8
0
100
AcDbLine
 10
10858.326308238742
 20
6381.155198160014
 30
0.0
 11
10858.326308238742
 21
6359.572282897317
 31
0.0
  0
LINE
  5
2E7
330
17
100
AcDbEntity
  8
0
100
AcDbLine
 10
10860.800854477697
 20
6330.990048132139
 30
0.0
 11
10885.90266952179
 21
6330.9900481321465
 31
0.0
  0
LINE
  5
2E8
330
17
100
AcDbEntity
  8
0
100
AcDbLine
 10
10860.800854477755
 20
6338.273793660935
 30
0.0
 11
10885.90266952179
 21
6338.273793660949
 31
0.0
  0
LINE
  5
2E9
330
17
100
AcDbEntity
  8
0
100
AcDbLine
 10
10858.326308238742
 20
6381.155198160014
 30
0.0
 11
10948.479030804781
 21
6381.155198160036
 31
0.0
  0
LINE
  5
2EA
330
17
100
AcDbEntity
  8
0
100
AcDbLine
 10
11007.468604093041
 20
6381.155198160016
 30
0.0
 11
11007.46860409302
 21
6359.572282897326
 31
0.0
  0
CIRCLE
  5
2EB
330
17
100
AcDbEntity
  8
0
100
AcDbCircle
 10
11037.51951161508
 20
6349.160731450439
 30
0.0
 40
1.9999999999999996
  0
LINE
  5
2EC
330
17
100
AcDbEntity
  8
0
100
AcDbLine
 10
11037.519511615044
 20
6381.155198160052
 30
0.0
 11
11037.51951161508
 21
6359.5722828973185
 31
0.0
  0
LINE
  5
2ED
330
17
100
AcDbEntity
  8
0
100
AcDbLine
 10
11035.044965376075
 20
6330.990048132132
 30
0.0
 11
11009.94315033201
 21
6330.990048132143
 31
0.0
  0
LINE
  5
2EE
330
17
100
AcDbEntity
  8
0
100
AcDbLine
 10
11035.044965376072
 20
6338.27379366092
 30
0.0
 11
11009.943150332007
 21
6338.273793660938
 31
0.0
  0
CIRCLE
  5
2EF
330
17
100
AcDbEntity
  8
0
100
AcDbCircle
 10
11067.570419137055
 20
6349.160731450446
 30
0.0
 40
1.9999999999999996
  0
LINE
  5
2F0
330
17
100
AcDbEntity
  8
0
100
AcDbLine
 10
11067.570419137048
 20
6381.15519816006
 30
0.0
 11
11067.570419137055
 21
6359.572282897333
 31
0.0
  0
LINE
  5
2F1
330
17
100
AcDbEntity
  8
0
100
AcDbLine
 10
11065.095872898108
 20
6330.990048132154
 30
0.0
 11
11039.994057854043
 21
6330.99004813215
 31
0.0
  0
LINE
  5
2F2
330
17
100
AcDbEntity
  8
0
100
AcDbLine
 10
11065.095872898046
 20
6338.273793660949
 30
0.0
 11
11039.994057854039
 21
6338.273793660946
 31
0.0
  0
CIRCLE
  5
2F3
330
17
100
AcDbEntity
  8
0
100
AcDbCircle
 10
11007.46860409299
 20
6349.160731450432
 30
0.0
 40
1.9999999999999996
  0
CIRCLE
  5
2F4
330
17
100
AcDbEntity
  8
0
100
AcDbCircle
 10
11097.621326659088
 20
6349.160731450454
 30
0.0
 40
1.9999999999999996
  0
LINE
  5
2F5
330
17
100
AcDbEntity
  8
0
100
AcDbLine
 10
11097.62132665908
 20
6381.155198160038
 30
0.0
 11
11097.621326659088
 21
6359.57228289734
 31
0.0
  0
LINE
  5
2F6
330
17
100
AcDbEntity
  8
0
100
AcDbLine
 10
11095.14678042014
 20
6330.990048132161
 30
0.0
 11
11070.044965376046
 21
6330.990048132163
 31
0.0
  0
LINE
  5
2F7
330
17
100
AcDbEntity
  8
0
100
AcDbLine
 10
11095.146780420078
 20
6338.2737936609565
 30
0.0
 11
11070.044965376042
 21
6338.273793660966
 31
0.0
  0
LINE
  5
2F8
330
17
100
AcDbEntity
  8
0
100
AcDbLine
 10
11097.62132665908
 20
6381.155198160038
 30
0.0
 11
11007.468604093041
 21
6381.155198160038
 31
0.0
  0
LINE
  5
2F9
330
17
100
AcDbEntity
  8
0
100
AcDbLine
 10
11036.020799371294
 20
6108.705972295446
 30
0.0
 11
11066.520796115987
 21
6108.705972295443
 31
0.0
  0
LINE
  5
2FA
330
17
100
AcDbEntity
  8
0
100
AcDbLine
 10
10891.771194988007
 20
6108.705972295381
 30
0.0
 11
10891.77119498801
 21
6110.705972295372
 31
0.0
  0
LINE
  5
2FB
330
17
100
AcDbEntity
  8
0
100
AcDbLine
 10
10891.77119498801
 20
6110.705972295372
 30
0.0
 11
10883.77119498801
 21
6110.705972295372
 31
0.0
  0
LINE
  5
2FC
330
17
100
AcDbEntity
  8
0
100
AcDbLine
 10
10883.77119498801
 20
6110.705972295372
 30
0.0
 11
10883.771211835436
 21
6108.705969669964
 31
0.0
  0
LINE
  5
2FD
330
17
100
AcDbEntity
  8
0
100
AcDbLine
 10
10922.271191732703
 20
6108.705972295359
 30
0.0
 11
10922.271191732703
 21
6110.705972295372
 31
0.0
  0
LINE
  5
2FE
330
17
100
AcDbEntity
  8
0
100
AcDbLine
 10
10922.271191732703
 20
6110.705972295372
 30
0.0
 11
10930.271191732703
 21
6110.705972295372
 31
0.0
  0
LINE
  5
2FF
330
17
100
AcDbEntity
  8
0
100
AcDbLine
 10
10930.271191732703
 20
6110.705972295372
 30
0.0
 11
10930.271174885278
 21
6108.705969669972
 31
0.0
  0
LINE
  5
300
330
17
100
AcDbEntity
  8
0
100
AcDbLine
 10
10922.271191732703
 20
6110.705972295372
 30
0.0
 11
10891.77119498801
 21
6110.705972295372
 31
0.0
  0
LINE
  5
301
330
17
100
AcDbEntity
  8
0
100
AcDbLine
 10
11066.520796115987
 20
6108.705972295372
 30
0.0
 11
11066.520796115987
 21
6110.705972295372
 31
0.0
  0
LINE
  5
302
330
17
100
AcDbEntity
  8
0
100
AcDbLine
 10
11066.520796115987
 20
6110.705972295372
 30
0.0
 11
11074.520796115987
 21
6110.705972295372
 31
0.0
  0
LINE
  5
303
330
17
100
AcDbEntity
  8
0
100
AcDbLine
 10
11074.520796115987
 20
6110.705972295372
 30
0.0
 11
11074.52077926858
 21
6108.705972295372
 31
0.0
  0
LINE
  5
304
330
17
100
AcDbEntity
  8
0
100
AcDbLine
 10
11036.020799371294
 20
6108.705972295372
 30
0.0
 11
11036.020799371294
 21
6110.705972295372
 31
0.0
  0
LINE
  5
305
330
17
100
AcDbEntity
  8
0
100
AcDbLine
 10
11036.020799371294
 20
6110.705972295372
 30
0.0
 11
11028.020799371294
 21
6110.705972295372
 31
0.0
  0
LINE
  5
306
330
17
100
AcDbEntity
  8
0
100
AcDbLine
 10
11028.020799371294
 20
6110.705972295372
 30
0.0
 11
11028.020816218701
 21
6108.705972295372
 31
0.0
  0
LINE
  5
307
330
17
100
AcDbEntity
  8
0
100
AcDbLine
 10
11036.020799371294
 20
6110.705972295372
 30
0.0
 11
11066.520796115987
 21
6110.705972295372
 31
0.0
  0
LINE
  5
308
330
17
100
AcDbEntity
  8
0
100
AcDbLine
 10
10922.271191732703
 20
6108.705972295397
 30
0.0
 11
10891.771194988007
 21
6108.705972295416
 31
0.0
  0
LINE
  5
309
330
17
100
AcDbEntity
  8
0
100
AcDbLine
 10
10883.771211835414
 20
6108.705972295423
 30
0.0
 11
10853.771390433029
 21
6108.705972295441
 31
0.0
  0
LINE
  5
30A
330
17
100
AcDbEntity
  8
0
100
AcDbLine
 10
11028.020816218701
 20
6108.705972295409
 30
0.0
 11
10996.270996287667
 21
6108.705972295397
 31
0.0
  0
LINE
  5
30B
330
17
100
AcDbEntity
  8
0
100
AcDbLine
 10
11462.419155636586
 20
6451.289324269224
 30
0.0
 11
11462.480258462032
 21
6235.289324269224
 31
0.0
  0
LINE
  5
30C
330
17
100
AcDbEntity
  8
0
100
AcDbLine
 10
11468.769916106807
 20
6235.289324269225
 30
0.0
 11
11468.770146793942
 21
6451.2893242692235
 31
0.0
  0
LINE
  5
30D
330
17
100
AcDbEntity
  8
0
100
AcDbLine
 10
11736.769159281228
 20
6456.613995164583
 30
0.0
 11
11736.769143772577
 21
6474.539305627635
 31
0.0
  0
LINE
  5
30E
330
17
100
AcDbEntity
  8
0
100
AcDbLine
 10
11736.767035257755
 20
6535.539305643058
 30
0.0
 11
11706.271402194545
 21
6535.539305643056
 31
0.0
  0
LINE
  5
30F
330
17
100
AcDbEntity
  8
0
100
AcDbLine
 10
11393.774649465899
 20
6477.786136162424
 30
0.0
 11
11393.774649465899
 21
6477.786136162424
 31
0.0
  0
LINE
  5
310
330
17
100
AcDbEntity
  8
0
100
AcDbLine
 10
11393.774649465899
 20
6477.786136162416
 30
0.0
 11
11393.774276644299
 21
6496.795821105495
 31
0.0
  0
LINE
  5
311
330
17
100
AcDbEntity
  8
0
100
AcDbLine
 10
11393.77427660569
 20
6477.789305297858
 30
0.0
 11
11177.77427660569
 21
6477.78930529785
 31
0.0
  0
LINE
  5
312
330
17
100
AcDbEntity
  8
0
100
AcDbLine
 10
11177.774276644299
 20
6477.789305297851
 30
0.0
 11
11177.774276644299
 21
6496.795821105495
 31
0.0
  0
ENDSEC
  0
SECTION
  2
OBJECTS
  0
DICTIONARY
  5
A
330
0
100
AcDbDictionary
280
0
281
1
  3
ACAD_COLOR
350
B
  3
ACAD_GROUP
350
C
  3
ACAD_LAYOUT
350
D
  3
ACAD_MATERIAL
350
E
  3
ACAD_MLEADERSTYLE
350
F
  3
ACAD_MLINESTYLE
350
10
  3
ACAD_PLOTSETTINGS
350
11
  3
ACAD_PLOTSTYLENAME
350
12
  3
ACAD_SCALELIST
350
14
  3
ACAD_TABLESTYLE
350
15
  3
ACAD_VISUALSTYLE
350
16
  3
EZDXF_META
350
2D
  0
DICTIONARY
  5
B
330
A
100
AcDbDictionary
280
0
281
1
  0
DICTIONARY
  5
C
330
A
100
AcDbDictionary
280
0
281
1
  0
DICTIONARY
  5
D
330
A
100
AcDbDictionary
280
0
281
1
  3
Model
350
1A
  3
Layout1
350
1E
  0
DICTIONARY
  5
E
330
A
100
AcDbDictionary
280
0
281
1
  3
ByBlock
350
1F
  3
ByLayer
350
20
  3
Global
350
21
  0
DICTIONARY
  5
F
330
A
100
AcDbDictionary
280
0
281
1
  3
Standard
350
2C
  0
DICTIONARY
  5
10
330
A
100
AcDbDictionary
280
0
281
1
  3
Standard
350
22
  0
DICTIONARY
  5
11
330
A
100
AcDbDictionary
280
0
281
1
  0
ACDBDICTIONARYWDFLT
  5
12
330
A
100
AcDbDictionary
280
0
281
1
  3
Normal
350
13
100
AcDbDictionaryWithDefault
340
13
  0
ACDBPLACEHOLDER
  5
13
330
12
  0
DICTIONARY
  5
14
330
A
100
AcDbDictionary
280
0
281
1
  0
DICTIONARY
  5
15
330
A
100
AcDbDictionary
280
0
281
1
  0
DICTIONARY
  5
16
330
A
100
AcDbDictionary
280
0
281
1
  0
LAYOUT
  5
1A
330
D
100
AcDbPlotSettings
  1

  2
Adobe PDF
  4
A3
  6

 40
7.5
 41
20.0
 42
7.5
 43
20.0
 44
420.0
 45
297.0
 46
0.0
 47
0.0
 48
0.0
 49
0.0
140
0.0
141
0.0
142
1.0
143
1.0
 70
1024
 72
1
 73
0
 74
5
  7

 75
16
 76
0
 77
2
 78
300
147
1.0
148
0.0
149
0.0
100
AcDbLayout
  1
Model
 70
1
 71
0
 10
0.0
 20
0.0
 11
420.0
 21
297.0
 12
0.0
 22
0.0
 32
0.0
 14
1e+20
 24
1e+20
 34
1e+20
 15
-1e+20
 25
-1e+20
 35
-1e+20
146
0.0
 13
0.0
 23
0.0
 33
0.0
 16
1.0
 26
0.0
 36
0.0
 17
0.0
 27
1.0
 37
0.0
 76
1
330
17
  0
LAYOUT
  5
1E
330
D
100
AcDbPlotSettings
  1

  2
Adobe PDF
  4
A3
  6

 40
7.5
 41
20.0
 42
7.5
 43
20.0
 44
420.0
 45
297.0
 46
0.0
 47
0.0
 48
0.0
 49
0.0
140
0.0
141
0.0
142
1.0
143
1.0
 70
0
 72
1
 73
0
 74
5
  7

 75
16
 76
0
 77
2
 78
300
147
1.0
148
0.0
149
0.0
100
AcDbLayout
  1
Layout1
 70
1
 71
1
 10
0.0
 20
0.0
 11
420.0
 21
297.0
 12
0.0
 22
0.0
 32
0.0
 14
1e+20
 24
1e+20
 34
1e+20
 15
-1e+20
 25
-1e+20
 35
-1e+20
146
0.0
 13
0.0
 23
0.0
 33
0.0
 16
1.0
 26
0.0
 36
0.0
 17
0.0
 27
1.0
 37
0.0
 76
1
330
1B
  0
MATERIAL
  5
1F
102
{ACAD_REACTORS
330
E
102
}
330
E
100
AcDbMaterial
  1
ByBlock
  2

 70
0
 40
1.0
 71
1
 41
1.0
 91
-1023410177
 42
1.0
 72
1
  3

 73
1
 74
1
 75
1
 44
0.5
 73
0
 45
1.0
 46
1.0
 77
1
  4

 78
1
 79
1
170
1
 48
1.0
171
1
  6

172
1
173
1
174
1
140
1.0
141
1.0
175
1
  7

176
1
177
1
178
1
143
1.0
179
1
  8

270
1
271
1
272
1
145
1.0
146
1.0
273
1
  9

274
1
275
1
276
1
 42
1.0
 72
1
  3

 73
1
 74
1
 75
1
 94
63
  0
MATERIAL
  5
20
102
{ACAD_REACTORS
330
E
102
}
330
E
100
AcDbMaterial
  1
ByLayer
  2

 70
0
 40
1.0
 71
1
 41
1.0
 91
-1023410177
 42
1.0
 72
1
  3

 73
1
 74
1
 75
1
 44
0.5
 73
0
 45
1.0
 46
1.0
 77
1
  4

 78
1
 79
1
170
1
 48
1.0
171
1
  6

172
1
173
1
174
1
140
1.0
141
1.0
175
1
  7

176
1
177
1
178
1
143
1.0
179
1
  8

270
1
271
1
272
1
145
1.0
146
1.0
273
1
  9

274
1
275
1
276
1
 42
1.0
 72
1
  3

 73
1
 74
1
 75
1
 94
63
  0
MATERIAL
  5
21
102
{ACAD_REACTORS
330
E
102
}
330
E
100
AcDbMaterial
  1
Global
  2

 70
0
 40
1.0
 71
1
 41
1.0
 91
-1023410177
 42
1.0
 72
1
  3

 73
1
 74
1
 75
1
 44
0.5
 73
0
 45
1.0
 46
1.0
 77
1
  4

 78
1
 79
1
170
1
 48
1.0
171
1
  6

172
1
173
1
174
1
140
1.0
141
1.0
175
1
  7

176
1
177
1
178
1
143
1.0
179
1
  8

270
1
271
1
272
1
145
1.0
146
1.0
273
1
  9

274
1
275
1
276
1
 42
1.0
 72
1
  3

 73
1
 74
1
 75
1
 94
63
  0
MLINESTYLE
  5
22
102
{ACAD_REACTORS
330
10
102
}
330
10
100
AcDbMlineStyle
  2
Standard
 70
0
  3

 62
256
 51
90.0
 52
90.0
 71
2
 49
0.5
 62
256
  6
BYLAYER
 49
-0.5
 62
256
  6
BYLAYER
  0
MLEADERSTYLE
  5
2C
102
{ACAD_REACTORS
330
F
102
}
330
F
100
AcDbMLeaderStyle
179
2
170
2
171
1
172
0
 90
2
 40
0.0
 41
0.0
173
1
 91
-1056964608
 92
-2
290
1
 42
2.0
291
1
 43
8.0
  3
Standard
 44
4.0
300

342
29
174
1
175
1
176
0
178
1
 93
-1056964608
 45
4.0
292
0
297
0
 46
4.0
 94
-1056964608
 47
1.0
 49
1.0
140
1.0
294
1
141
0.0
177
0
142
1.0
295
0
296
0
143
3.75
271
0
272
9
273
9
  0
DICTIONARY
  5
2D
330
A
100
AcDbDictionary
281
1
  3
CREATED_BY_EZDXF
350
2E
  3
WRITTEN_BY_EZDXF
350
315
  0
DICTIONARYVAR
  5
2E
330
2D
100
DictionaryVariables
280
0
  1
1.0.3 @ 2023-09-07T14:48:37.621484+00:00
  0
DICTIONARYVAR
  5
315
330
2D
100
DictionaryVariables
280
0
  1
1.0.3 @ 2023-09-07T14:48:37.652715+00:00
  0
ENDSEC
  0
EOF
