  0
SECTION
  2
HEADER
  9
$ACADVER
  1
AC1027
  9
$ACADMAINTVER
 70
105
  9
$DWGCODEPAGE
  3
ANSI_1252
  9
$LASTSAVEDBY
  1
ezdxf
  9
$REQUIREDVERSIONS
160
0
  9
$INSBASE
 10
0.0
 20
0.0
 30
0.0
  9
$EXTMIN
 10
1e+20
 20
1e+20
 30
1e+20
  9
$EXTMAX
 10
-1e+20
 20
-1e+20
 30
-1e+20
  9
$LIMMIN
 10
0.0
 20
0.0
  9
$LIMMAX
 10
420.0
 20
297.0
  9
$ORTHOMODE
 70
0
  9
$REGENMODE
 70
1
  9
$FILLMODE
 70
1
  9
$QTEXTMODE
 70
0
  9
$MIRRTEXT
 70
1
  9
$LTSCALE
 40
1.0
  9
$ATTMODE
 70
1
  9
$TEXTSIZE
 40
2.5
  9
$TRACEWID
 40
1.0
  9
$TEXTSTYLE
  7
Standard
  9
$CLAYER
  8
0
  9
$CELTYPE
  6
ByLayer
  9
$CECOLOR
 62
256
  9
$CELTSCALE
 40
1.0
  9
$DISPSILH
 70
0
  9
$DIMSCALE
 40
1.0
  9
$DIMASZ
 40
2.5
  9
$DIMEXO
 40
0.625
  9
$DIMDLI
 40
3.75
  9
$DIMRND
 40
0.0
  9
$DIMDLE
 40
0.0
  9
$DIMEXE
 40
1.25
  9
$DIMTP
 40
0.0
  9
$DIMTM
 40
0.0
  9
$DIMTXT
 40
2.5
  9
$DIMCEN
 40
2.5
  9
$DIMTSZ
 40
0.0
  9
$DIMTOL
 70
0
  9
$DIMLIM
 70
0
  9
$DIMTIH
 70
0
  9
$DIMTOH
 70
0
  9
$DIMSE1
 70
0
  9
$DIMSE2
 70
0
  9
$DIMTAD
 70
1
  9
$DIMZIN
 70
8
  9
$DIMBLK
  1

  9
$DIMASO
 70
1
  9
$DIMSHO
 70
1
  9
$DIMPOST
  1

  9
$DIMAPOST
  1

  9
$DIMALT
 70
0
  9
$DIMALTD
 70
3
  9
$DIMALTF
 40
0.03937007874
  9
$DIMLFAC
 40
1.0
  9
$DIMTOFL
 70
1
  9
$DIMTVP
 40
0.0
  9
$DIMTIX
 70
0
  9
$DIMSOXD
 70
0
  9
$DIMSAH
 70
0
  9
$DIMBLK1
  1

  9
$DIMBLK2
  1

  9
$DIMSTYLE
  2
ISO-25
  9
$DIMCLRD
 70
0
  9
$DIMCLRE
 70
0
  9
$DIMCLRT
 70
0
  9
$DIMTFAC
 40
1.0
  9
$DIMGAP
 40
0.625
  9
$DIMJUST
 70
0
  9
$DIMSD1
 70
0
  9
$DIMSD2
 70
0
  9
$DIMTOLJ
 70
0
  9
$DIMTZIN
 70
8
  9
$DIMALTZ
 70
0
  9
$DIMALTTZ
 70
0
  9
$DIMUPT
 70
0
  9
$DIMDEC
 70
2
  9
$DIMTDEC
 70
2
  9
$DIMALTU
 70
2
  9
$DIMALTTD
 70
3
  9
$DIMTXSTY
  7
Standard
  9
$DIMAUNIT
 70
0
  9
$DIMADEC
 70
0
  9
$DIMALTRND
 40
0.0
  9
$DIMAZIN
 70
0
  9
$DIMDSEP
 70
44
  9
$DIMATFIT
 70
3
  9
$DIMFRAC
 70
0
  9
$DIMLDRBLK
  1

  9
$DIMLUNIT
 70
2
  9
$DIMLWD
 70
-2
  9
$DIMLWE
 70
-2
  9
$DIMTMOVE
 70
0
  9
$DIMFXL
 40
1.0
  9
$DIMFXLON
 70
0
  9
$DIMJOGANG
 40
0.785398163397
  9
$DIMTFILL
 70
0
  9
$DIMTFILLCLR
 70
0
  9
$DIMARCSYM
 70
0
  9
$DIMLTYPE
  6

  9
$DIMLTEX1
  6

  9
$DIMLTEX2
  6

  9
$DIMTXTDIRECTION
 70
0
  9
$LUNITS
 70
2
  9
$LUPREC
 70
4
  9
$SKETCHINC
 40
1.0
  9
$FILLETRAD
 40
10.0
  9
$AUNITS
 70
0
  9
$AUPREC
 70
2
  9
$MENU
  1
.
  9
$ELEVATION
 40
0.0
  9
$PELEVATION
 40
0.0
  9
$THICKNESS
 40
0.0
  9
$LIMCHECK
 70
0
  9
$CHAMFERA
 40
0.0
  9
$CHAMFERB
 40
0.0
  9
$CHAMFERC
 40
0.0
  9
$CHAMFERD
 40
0.0
  9
$SKPOLY
 70
0
  9
$TDCREATE
 40
2460195.762928241
  9
$TDUCREATE
 40
2458532.153996898
  9
$TDUPDATE
 40
2460195.762928241
  9
$TDUUPDATE
 40
2458532.1544311
  9
$TDINDWG
 40
0.0
  9
$TDUSRTIMER
 40
0.0
  9
$USRTIMER
 70
1
  9
$ANGBASE
 50
0.0
  9
$ANGDIR
 70
0
  9
$PDMODE
 70
0
  9
$PDSIZE
 40
0.0
  9
$PLINEWID
 40
0.0
  9
$SPLFRAME
 70
0
  9
$SPLINETYPE
 70
6
  9
$SPLINESEGS
 70
8
  9
$HANDSEED
  5
388
  9
$SURFTAB1
 70
6
  9
$SURFTAB2
 70
6
  9
$SURFTYPE
 70
6
  9
$SURFU
 70
6
  9
$SURFV
 70
6
  9
$UCSBASE
  2

  9
$UCSNAME
  2

  9
$UCSORG
 10
0.0
 20
0.0
 30
0.0
  9
$UCSXDIR
 10
1.0
 20
0.0
 30
0.0
  9
$UCSYDIR
 10
0.0
 20
1.0
 30
0.0
  9
$UCSORTHOREF
  2

  9
$UCSORTHOVIEW
 70
0
  9
$UCSORGTOP
 10
0.0
 20
0.0
 30
0.0
  9
$UCSORGBOTTOM
 10
0.0
 20
0.0
 30
0.0
  9
$UCSORGLEFT
 10
0.0
 20
0.0
 30
0.0
  9
$UCSORGRIGHT
 10
0.0
 20
0.0
 30
0.0
  9
$UCSORGFRONT
 10
0.0
 20
0.0
 30
0.0
  9
$UCSORGBACK
 10
0.0
 20
0.0
 30
0.0
  9
$PUCSBASE
  2

  9
$PUCSNAME
  2

  9
$PUCSORG
 10
0.0
 20
0.0
 30
0.0
  9
$PUCSXDIR
 10
1.0
 20
0.0
 30
0.0
  9
$PUCSYDIR
 10
0.0
 20
1.0
 30
0.0
  9
$PUCSORTHOREF
  2

  9
$PUCSORTHOVIEW
 70
0
  9
$PUCSORGTOP
 10
0.0
 20
0.0
 30
0.0
  9
$PUCSORGBOTTOM
 10
0.0
 20
0.0
 30
0.0
  9
$PUCSORGLEFT
 10
0.0
 20
0.0
 30
0.0
  9
$PUCSORGRIGHT
 10
0.0
 20
0.0
 30
0.0
  9
$PUCSORGFRONT
 10
0.0
 20
0.0
 30
0.0
  9
$PUCSORGBACK
 10
0.0
 20
0.0
 30
0.0
  9
$USERI1
 70
0
  9
$USERI2
 70
0
  9
$USERI3
 70
0
  9
$USERI4
 70
0
  9
$USERI5
 70
0
  9
$USERR1
 40
0.0
  9
$USERR2
 40
0.0
  9
$USERR3
 40
0.0
  9
$USERR4
 40
0.0
  9
$USERR5
 40
0.0
  9
$WORLDVIEW
 70
1
  9
$SHADEDGE
 70
3
  9
$SHADEDIF
 70
70
  9
$TILEMODE
 70
1
  9
$MAXACTVP
 70
64
  9
$PINSBASE
 10
0.0
 20
0.0
 30
0.0
  9
$PLIMCHECK
 70
0
  9
$PEXTMIN
 10
1e+20
 20
1e+20
 30
1e+20
  9
$PEXTMAX
 10
-1e+20
 20
-1e+20
 30
-1e+20
  9
$PLIMMIN
 10
0.0
 20
0.0
  9
$PLIMMAX
 10
420.0
 20
297.0
  9
$UNITMODE
 70
0
  9
$VISRETAIN
 70
1
  9
$PLINEGEN
 70
0
  9
$PSLTSCALE
 70
1
  9
$TREEDEPTH
 70
3020
  9
$CMLSTYLE
  2
Standard
  9
$CMLJUST
 70
0
  9
$CMLSCALE
 40
20.0
  9
$PROXYGRAPHICS
 70
1
  9
$MEASUREMENT
 70
1
  9
$CELWEIGHT
370
-1
  9
$ENDCAPS
280
0
  9
$JOINSTYLE
280
0
  9
$LWDISPLAY
290
0
  9
$INSUNITS
 70
6
  9
$HYPERLINKBASE
  1

  9
$STYLESHEET
  1

  9
$XEDIT
290
1
  9
$CEPSNTYPE
380
0
  9
$PSTYLEMODE
290
1
  9
$FINGERPRINTGUID
  2
{75425983-BB99-4A81-8272-A251DAE3386B}
  9
$VERSIONGUID
  2
{B17FDE3D-44B2-4AAB-9015-09276A75A705}
  9
$EXTNAMES
290
1
  9
$PSVPSCALE
 40
0.0
  9
$OLESTARTUP
290
0
  9
$SORTENTS
280
127
  9
$INDEXCTL
280
0
  9
$HIDETEXT
280
1
  9
$XCLIPFRAME
280
0
  9
$HALOGAP
280
0
  9
$OBSCOLOR
 70
257
  9
$OBSLTYPE
280
0
  9
$INTERSECTIONDISPLAY
280
0
  9
$INTERSECTIONCOLOR
 70
257
  9
$DIMASSOC
280
2
  9
$PROJECTNAME
  1

  9
$CAMERADISPLAY
290
0
  9
$LENSLENGTH
 40
50.0
  9
$CAMERAHEIGHT
 40
0.0
  9
$STEPSPERSEC
 40
24.0
  9
$STEPSIZE
 40
100.0
  9
$3DDWFPREC
 40
2.0
  9
$PSOLWIDTH
 40
0.005
  9
$PSOLHEIGHT
 40
0.08
  9
$LOFTANG1
 40
1.570796326795
  9
$LOFTANG2
 40
1.570796326795
  9
$LOFTMAG1
 40
0.0
  9
$LOFTMAG2
 40
0.0
  9
$LOFTPARAM
 70
7
  9
$LOFTNORMALS
280
1
  9
$LATITUDE
 40
37.795
  9
$LONGITUDE
 40
-122.394
  9
$NORTHDIRECTION
 40
0.0
  9
$TIMEZONE
 70
-8000
  9
$LIGHTGLYPHDISPLAY
280
1
  9
$TILEMODELIGHTSYNCH
280
1
  9
$CMATERIAL
347
20
  9
$SOLIDHIST
280
0
  9
$SHOWHIST
280
1
  9
$DWFFRAME
280
2
  9
$DGNFRAME
280
2
  9
$REALWORLDSCALE
290
1
  9
$INTERFERECOLOR
 62
256
  9
$CSHADOW
280
0
  9
$SHADOWPLANELOCATION
 40
0.0
  0
ENDSEC
  0
SECTION
  2
CLASSES
  0
CLASS
  1
ACDBDICTIONARYWDFLT
  2
AcDbDictionaryWithDefault
  3
ObjectDBX Classes
 90
0
 91
0
280
0
281
0
  0
CLASS
  1
SUN
  2
AcDbSun
  3
SCENEOE
 90
1153
 91
0
280
0
281
0
  0
CLASS
  1
VISUALSTYLE
  2
AcDbVisualStyle
  3
ObjectDBX Classes
 90
4095
 91
0
280
0
281
0
  0
CLASS
  1
MATERIAL
  2
AcDbMaterial
  3
ObjectDBX Classes
 90
1153
 91
0
280
0
281
0
  0
CLASS
  1
SCALE
  2
AcDbScale
  3
ObjectDBX Classes
 90
1153
 91
0
280
0
281
0
  0
CLASS
  1
TABLESTYLE
  2
AcDbTableStyle
  3
ObjectDBX Classes
 90
4095
 91
0
280
0
281
0
  0
CLASS
  1
MLEADERSTYLE
  2
AcDbMLeaderStyle
  3
ACDB_MLEADERSTYLE_CLASS
 90
4095
 91
0
280
0
281
0
  0
CLASS
  1
DICTIONARYVAR
  2
AcDbDictionaryVar
  3
ObjectDBX Classes
 90
0
 91
0
280
0
281
0
  0
CLASS
  1
CELLSTYLEMAP
  2
AcDbCellStyleMap
  3
ObjectDBX Classes
 90
1152
 91
0
280
0
281
0
  0
CLASS
  1
MENTALRAYRENDERSETTINGS
  2
AcDbMentalRayRenderSettings
  3
SCENEOE
 90
1024
 91
0
280
0
281
0
  0
CLASS
  1
ACDBDETAILVIEWSTYLE
  2
AcDbDetailViewStyle
  3
ObjectDBX Classes
 90
1025
 91
0
280
0
281
0
  0
CLASS
  1
ACDBSECTIONVIEWSTYLE
  2
AcDbSectionViewStyle
  3
ObjectDBX Classes
 90
1025
 91
0
280
0
281
0
  0
CLASS
  1
RASTERVARIABLES
  2
AcDbRasterVariables
  3
ISM
 90
0
 91
0
280
0
281
0
  0
CLASS
  1
ACDBPLACEHOLDER
  2
AcDbPlaceHolder
  3
ObjectDBX Classes
 90
0
 91
0
280
0
281
0
  0
CLASS
  1
LAYOUT
  2
AcDbLayout
  3
ObjectDBX Classes
 90
0
 91
0
280
0
281
0
  0
ENDSEC
  0
SECTION
  2
TABLES
  0
TABLE
  2
VPORT
  5
8
330
0
100
AcDbSymbolTable
 70
1
  0
VPORT
  5
23
330
8
100
AcDbSymbolTableRecord
100
AcDbViewportTableRecord
  2
*Active
 70
0
 10
0.0
 20
0.0
 11
1.0
 21
1.0
 12
0.0
 22
0.0
 13
0.0
 23
0.0
 14
0.5
 24
0.5
 15
0.5
 25
0.5
 16
0.0
 26
0.0
 36
1.0
 17
0.0
 27
0.0
 37
0.0
 40
1000.0
 41
1.34
 42
50.0
 43
0.0
 44
0.0
 50
0.0
 51
0.0
 71
0
 72
1000
 73
1
 74
3
 75
0
 76
0
 77
0
 78
0
281
0
 65
0
146
0.0
  0
ENDTAB
  0
TABLE
  2
LTYPE
  5
2
330
0
100
AcDbSymbolTable
 70
3
  0
LTYPE
  5
24
330
2
100
AcDbSymbolTableRecord
100
AcDbLinetypeTableRecord
  2
ByBlock
 70
0
  3

 72
65
 73
0
 40
0.0
  0
LTYPE
  5
25
330
2
100
AcDbSymbolTableRecord
100
AcDbLinetypeTableRecord
  2
ByLayer
 70
0
  3

 72
65
 73
0
 40
0.0
  0
LTYPE
  5
26
330
2
100
AcDbSymbolTableRecord
100
AcDbLinetypeTableRecord
  2
Continuous
 70
0
  3

 72
65
 73
0
 40
0.0
  0
ENDTAB
  0
TABLE
  2
LAYER
  5
1
330
0
100
AcDbSymbolTable
 70
2
  0
LAYER
  5
27
330
1
100
AcDbSymbolTableRecord
100
AcDbLayerTableRecord
  2
0
 70
0
 62
7
  6
Continuous
370
-3
390
13
347
21
  0
LAYER
  5
28
330
1
100
AcDbSymbolTableRecord
100
AcDbLayerTableRecord
  2
Defpoints
 70
0
 62
7
  6
Continuous
290
0
370
-3
390
13
347
21
  0
ENDTAB
  0
TABLE
  2
STYLE
  5
5
330
0
100
AcDbSymbolTable
 70
1
  0
STYLE
  5
29
330
5
100
AcDbSymbolTableRecord
100
AcDbTextStyleTableRecord
  2
Standard
 70
0
 40
0.0
 41
1.0
 50
0.0
 71
0
 42
2.5
  3
txt
  4

  0
ENDTAB
  0
TABLE
  2
VIEW
  5
7
330
0
100
AcDbSymbolTable
 70
0
  0
ENDTAB
  0
TABLE
  2
UCS
  5
6
330
0
100
AcDbSymbolTable
 70
0
  0
ENDTAB
  0
TABLE
  2
APPID
  5
3
330
0
100
AcDbSymbolTable
 70
3
  0
APPID
  5
2A
330
3
100
AcDbSymbolTableRecord
100
AcDbRegAppTableRecord
  2
ACAD
 70
0
  0
APPID
  5
385
330
3
100
AcDbSymbolTableRecord
100
AcDbRegAppTableRecord
  2
HATCHBACKGROUNDCOLOR
 70
0
  0
APPID
  5
386
330
3
100
AcDbSymbolTableRecord
100
AcDbRegAppTableRecord
  2
EZDXF
 70
0
  0
ENDTAB
  0
TABLE
  2
DIMSTYLE
  5
4
330
0
100
AcDbSymbolTable
 70
1
100
AcDbDimStyleTable
  0
DIMSTYLE
105
2B
330
4
100
AcDbSymbolTableRecord
100
AcDbDimStyleTableRecord
  2
Standard
 70
0
 40
1.0
 41
2.5
 42
0.625
 43
3.75
 44
1.25
 45
0.0
 46
0.0
 47
0.0
 48
0.0
 49
2.5
140
2.5
141
2.5
142
0.0
143
0.03937007874
144
1.0
145
0.0
146
1.0
147
0.625
148
0.0
 69
0
 70
0
 71
0
 72
0
 73
0
 74
0
 75
0
 76
0
 77
1
 78
8
 79
3
170
0
171
3
172
1
173
0
174
0
175
0
176
0
177
0
178
0
179
2
271
2
272
2
273
2
274
3
275
0
276
0
277
2
278
44
279
0
280
0
281
0
282
0
283
0
284
8
285
0
286
0
288
0
289
3
290
0
371
-2
372
-2
  0
ENDTAB
  0
TABLE
  2
BLOCK_RECORD
  5
9
330
0
100
AcDbSymbolTable
 70
2
  0
BLOCK_RECORD
  5
17
330
9
100
AcDbSymbolTableRecord
100
AcDbBlockTableRecord
  2
*Model_Space
340
1A
 70
0
280
1
281
0
  0
BLOCK_RECORD
  5
1B
330
9
100
AcDbSymbolTableRecord
100
AcDbBlockTableRecord
  2
*Paper_Space
340
1E
 70
0
280
1
281
0
  0
ENDTAB
  0
ENDSEC
  0
SECTION
  2
BLOCKS
  0
BLOCK
  5
18
330
17
100
AcDbEntity
  8
0
100
AcDbBlockBegin
  2
*Model_Space
 70
0
 10
0.0
 20
0.0
 30
0.0
  3
*Model_Space
  1

  0
ENDBLK
  5
19
330
17
100
AcDbEntity
  8
0
100
AcDbBlockEnd
  0
BLOCK
  5
1C
330
1B
100
AcDbEntity
  8
0
100
AcDbBlockBegin
  2
*Paper_Space
 70
0
 10
0.0
 20
0.0
 30
0.0
  3
*Paper_Space
  1

  0
ENDBLK
  5
1D
330
1B
100
AcDbEntity
  8
0
100
AcDbBlockEnd
  0
ENDSEC
  0
SECTION
  2
ENTITIES
  0
LINE
  5
2F
330
17
100
AcDbEntity
  8
0
100
AcDbLine
 10
11708.76222366438
 20
1794.24478546531
 30
0.0
 11
11707.76222366438
 21
1794.24478546531
 31
0.0
  0
LINE
  5
30
330
17
100
AcDbEntity
  8
0
100
AcDbLine
 10
11805.018590846172
 20
2232.8272559507413
 30
0.0
 11
11842.518504882035
 21
2232.8272669942626
 31
0.0
  0
LINE
  5
31
330
17
100
AcDbEntity
  8
0
100
AcDbLine
 10
11888.859136553467
 20
2250.8272841410644
 30
0.0
 11
11888.86265881476
 21
2154.743823700376
 31
0.0
  0
LINE
  5
32
330
17
100
AcDbEntity
  8
0
100
AcDbLine
 10
11477.768425330003
 20
2320.5781235565037
 30
0.0
 11
11478.768425330003
 21
2320.5781235565037
 31
0.0
  0
LINE
  5
33
330
17
100
AcDbEntity
  8
0
100
AcDbLine
 10
11477.768425330003
 20
2298.5781235565037
 30
0.0
 11
11478.768425330003
 21
2298.5781235565037
 31
0.0
  0
LINE
  5
34
330
17
100
AcDbEntity
  8
0
100
AcDbLine
 10
11477.768425330003
 20
2426.5781235565037
 30
0.0
 11
11478.768425330003
 21
2426.5781235565037
 31
0.0
  0
LINE
  5
35
330
17
100
AcDbEntity
  8
0
100
AcDbLine
 10
10862.766678591805
 20
1790.2448143421916
 30
0.3403031765569822
 11
10863.766678591805
 21
1790.2448143421916
 31
0.3403031765569822
  0
LINE
  5
36
330
17
100
AcDbEntity
  8
0
100
AcDbLine
 10
10862.766678591805
 20
1812.2448143421916
 30
0.3403031765569822
 11
10863.766678591805
 21
1812.2448143421916
 31
0.3403031765569822
  0
LINE
  5
37
330
17
100
AcDbEntity
  8
0
100
AcDbLine
 10
11093.773871510974
 20
2298.568947516239
 30
0.0
 11
11092.773871511949
 21
2298.5689034000816
 31
0.0
  0
LINE
  5
38
330
17
100
AcDbEntity
  8
0
100
AcDbLine
 10
11093.768224643041
 20
2426.568947391678
 30
0.0
 11
11092.768224644016
 21
2426.5689032755245
 31
0.0
  0
LINE
  5
39
330
17
100
AcDbEntity
  8
0
100
AcDbLine
 10
11422.265342113584
 20
1926.2447878448029
 30
0.0
 11
11422.265342113584
 21
1875.2447878447883
 31
0.0
  0
LINE
  5
3A
330
17
100
AcDbEntity
  8
0
100
AcDbLine
 10
11085.248016094098
 20
2033.8500196540945
 30
0.0
 11
11061.247895813765
 21
2010.8501451646725
 31
0.0
  0
LINE
  5
3B
330
17
100
AcDbEntity
  8
0
100
AcDbLine
 10
11061.248016094432
 20
2033.850145164356
 30
0.0
 11
11085.24789581343
 21
2010.8500196544073
 31
0.0
  0
LINE
  5
3C
330
17
100
AcDbEntity
  8
0
100
AcDbLine
 10
11020.731182466385
 20
2009.8501451646725
 30
0.0
 11
11086.769316315484
 21
2009.8501451646725
 31
0.0
  0
LINE
  5
3D
330
17
100
AcDbEntity
  8
0
100
AcDbLine
 10
11805.018582934375
 20
2250.827242764334
 30
0.0
 11
11805.018590846172
 21
2232.827254632105
 31
0.0
  0
LINE
  5
3E
330
17
100
AcDbEntity
  8
0
100
AcDbLine
 10
11842.518512793831
 20
2250.827242764334
 30
0.0
 11
11842.518504882035
 21
2232.827254632105
 31
0.0
  0
LINE
  5
3F
330
17
100
AcDbEntity
  8
0
100
AcDbLine
 10
11462.766643359348
 20
1610.169088179859
 30
0.0
 11
11432.766643359064
 21
1610.169088179859
 31
0.0
  0
LINE
  5
40
330
17
100
AcDbEntity
  8
0
100
AcDbLine
 10
11432.766643359064
 20
1610.169088179859
 30
0.0
 11
11432.766643359064
 21
1621.169088179859
 31
0.0
  0
LINE
  5
41
330
17
100
AcDbEntity
  8
0
100
AcDbLine
 10
11432.766643359064
 20
1621.169088179859
 30
0.0
 11
11451.763114452027
 21
1621.169088179859
 31
0.0
  0
LINE
  5
42
330
17
100
AcDbEntity
  8
0
100
AcDbLine
 10
11451.763114452027
 20
1621.169088179859
 30
0.0
 11
11451.764132824981
 21
1670.2448432190731
 31
0.0
  0
LINE
  5
43
330
17
100
AcDbEntity
  8
0
100
AcDbLine
 10
11376.266180319715
 20
1832.2447854740294
 30
0.0
 11
11376.266179722712
 21
1754.744286623261
 31
0.0
  0
LINE
  5
44
330
17
100
AcDbEntity
  8
0
100
AcDbLine
 10
11376.266178693753
 20
1621.169088179859
 30
0.0
 11
11396.766643359064
 21
1621.169088179859
 31
0.0
  0
LINE
  5
45
330
17
100
AcDbEntity
  8
0
100
AcDbLine
 10
11396.766643359064
 20
1621.169088179859
 30
0.0
 11
11396.766643359064
 21
1610.169088179859
 31
0.0
  0
LINE
  5
46
330
17
100
AcDbEntity
  8
0
100
AcDbLine
 10
11396.766643359064
 20
1610.169088179859
 30
0.0
 11
11387.168651157488
 21
1610.169088179859
 31
0.0
  0
LINE
  5
47
330
17
100
AcDbEntity
  8
0
100
AcDbLine
 10
11462.766643359348
 20
1610.169088179859
 30
0.0
 11
11462.766643359028
 21
1653.2448432190731
 31
0.0
  0
LINE
  5
48
330
17
100
AcDbEntity
  8
0
100
AcDbLine
 10
11462.766643359028
 20
1653.2448432190731
 30
0.0
 11
11478.562346165054
 21
1653.2448432190731
 31
0.0
  0
LINE
  5
49
330
17
100
AcDbEntity
  8
0
100
AcDbLine
 10
11514.562346165054
 20
1664.2448432190731
 30
0.0
 11
11521.264861388037
 21
1664.2448432190731
 31
0.0
  0
LINE
  5
4A
330
17
100
AcDbEntity
  8
0
100
AcDbLine
 10
11527.764861388037
 20
1664.2448432190731
 30
0.0
 11
11557.266643359093
 21
1664.2448432190722
 31
0.0
  0
LINE
  5
4B
330
17
100
AcDbEntity
  8
0
100
AcDbLine
 10
11376.266180319715
 20
1832.244785465311
 30
0.0
 11
11527.764861388037
 21
1832.24478546531
 31
0.0
  0
LINE
  5
4C
330
17
100
AcDbEntity
  8
0
100
AcDbLine
 10
11609.258546249406
 20
1832.24478546531
 30
0.0
 11
11656.406003791388
 21
1832.24478546531
 31
0.0
  0
LINE
  5
4D
330
17
100
AcDbEntity
  8
0
100
AcDbLine
 10
11686.406003791388
 20
1832.24478546531
 30
0.0
 11
11726.76931631549
 21
1832.24478546531
 31
0.0
  0
LINE
  5
4E
330
17
100
AcDbEntity
  8
0
100
AcDbLine
 10
11369.77063455504
 20
1838.74478546531
 30
0.0
 11
11393.767649760703
 21
1838.74478546531
 31
0.0
  0
LINE
  5
4F
330
17
100
AcDbEntity
  8
0
100
AcDbLine
 10
11432.265342113576
 20
1838.74478546531
 30
0.0
 11
11550.765342113576
 21
1838.74478546531
 31
0.0
  0
LINE
  5
50
330
17
100
AcDbEntity
  8
0
100
AcDbLine
 10
11557.265342113576
 20
1838.74478546531
 30
0.0
 11
11577.265390478588
 21
1838.74478546531
 31
0.0
  0
LINE
  5
51
330
17
100
AcDbEntity
  8
0
100
AcDbLine
 10
11609.265390478588
 20
1838.74478546531
 30
0.0
 11
11629.267124084552
 21
1838.74478546531
 31
0.0
  0
LINE
  5
52
330
17
100
AcDbEntity
  8
0
100
AcDbLine
 10
11635.767124084552
 20
1838.74478546531
 30
0.0
 11
11656.406003791388
 21
1838.74478546531
 31
0.0
  0
LINE
  5
53
330
17
100
AcDbEntity
  8
0
100
AcDbLine
 10
11686.406003791388
 20
1838.74478546531
 30
0.0
 11
11726.76931631549
 21
1838.74478546531
 31
0.0
  0
LINE
  5
54
330
17
100
AcDbEntity
  8
0
100
AcDbLine
 10
11478.562346165054
 20
1664.2448432190731
 30
0.0
 11
11478.562346165054
 21
1653.2448432190731
 31
0.0
  0
LINE
  5
55
330
17
100
AcDbEntity
  8
0
100
AcDbLine
 10
11514.562346165054
 20
1664.2448432190731
 30
0.0
 11
11514.562346165054
 21
1653.2448432190731
 31
0.0
  0
LINE
  5
56
330
17
100
AcDbEntity
  8
0
100
AcDbLine
 10
11514.562346165054
 20
1653.2448432190731
 30
0.0
 11
11557.266643359093
 21
1653.244843219074
 31
0.0
  0
LINE
  5
57
330
17
100
AcDbEntity
  8
0
100
AcDbLine
 10
11629.266643359093
 20
1653.2448432190731
 30
0.0
 11
11671.769315746722
 21
1653.2448432190731
 31
0.0
  0
LINE
  5
58
330
17
100
AcDbEntity
  8
0
100
AcDbLine
 10
11671.769315746722
 20
1653.2448432190731
 30
0.0
 11
11671.769315746722
 21
1664.2448432190731
 31
0.0
  0
LINE
  5
59
330
17
100
AcDbEntity
  8
0
100
AcDbLine
 10
11719.774241050356
 20
2119.8281235576133
 30
0.0
 11
11726.76931631549
 21
2119.8281235576133
 31
0.0
  0
LINE
  5
5A
330
17
100
AcDbEntity
  8
0
100
AcDbLine
 10
11726.76931631549
 20
2119.8281235576133
 30
0.0
 11
11726.76931631549
 21
2037.74478546531
 31
0.0
  0
LINE
  5
5B
330
17
100
AcDbEntity
  8
0
100
AcDbLine
 10
11726.76931631549
 20
1910.24478546531
 30
0.0
 11
11726.76931631549
 21
1838.74478546531
 31
0.0
  0
LINE
  5
5C
330
17
100
AcDbEntity
  8
0
100
AcDbLine
 10
11726.76931631549
 20
1832.24478546531
 30
0.0
 11
11726.76931631549
 21
1664.2448432190731
 31
0.0
  0
LINE
  5
5D
330
17
100
AcDbEntity
  8
0
100
AcDbLine
 10
11726.76931631549
 20
1664.2448432190731
 30
0.0
 11
11707.769315746722
 21
1664.2448432190731
 31
0.0
  0
LINE
  5
5E
330
17
100
AcDbEntity
  8
0
100
AcDbLine
 10
11737.765752373547
 20
1701.24478546531
 30
0.0
 11
11737.765752373547
 21
1653.2448432190731
 31
0.0
  0
LINE
  5
5F
330
17
100
AcDbEntity
  8
0
100
AcDbLine
 10
11737.765752373547
 20
1653.2448432190731
 30
0.0
 11
11707.769315746722
 21
1653.2448432190731
 31
0.0
  0
LINE
  5
60
330
17
100
AcDbEntity
  8
0
100
AcDbLine
 10
11707.769315746722
 20
1664.2448432190731
 30
0.0
 11
11707.769315746722
 21
1653.2448432190731
 31
0.0
  0
LINE
  5
61
330
17
100
AcDbEntity
  8
0
100
AcDbLine
 10
11369.770579593292
 20
1823.7447902557205
 30
0.0
 11
11353.26887082275
 21
1823.7447902242811
 31
0.0
  0
LINE
  5
62
330
17
100
AcDbEntity
  8
0
100
AcDbLine
 10
11201.77206352284
 20
1811.7449027770408
 30
0.0
 11
11201.768425480353
 21
1643.7448432191204
 31
0.0
  0
LINE
  5
63
330
17
100
AcDbEntity
  8
0
100
AcDbLine
 10
11201.768425480353
 20
1643.7448432191204
 30
0.0
 11
11225.767534344515
 21
1643.7448432190913
 31
0.0
  0
LINE
  5
64
330
17
100
AcDbEntity
  8
0
100
AcDbLine
 10
11108.769316315476
 20
1610.2449089037295
 30
0.0
 11
11138.769316318467
 21
1610.2449089037586
 31
0.0
  0
LINE
  5
65
330
17
100
AcDbEntity
  8
0
100
AcDbLine
 10
11138.769316318467
 20
1610.2449089037586
 30
0.0
 11
11138.769316318467
 21
1621.2449089037586
 31
0.0
  0
LINE
  5
66
330
17
100
AcDbEntity
  8
0
100
AcDbLine
 10
11138.769316318467
 20
1621.2449089037586
 30
0.0
 11
11119.76931631548
 21
1621.2449089037314
 31
0.0
  0
LINE
  5
67
330
17
100
AcDbEntity
  8
0
100
AcDbLine
 10
11108.76931631549
 20
1653.2448432190731
 30
0.0
 11
11092.976286465862
 21
1653.2448432190731
 31
0.0
  0
LINE
  5
68
330
17
100
AcDbEntity
  8
0
100
AcDbLine
 10
11092.976286465862
 20
1664.2448432190731
 30
0.0
 11
11092.976286465862
 21
1653.2448432190731
 31
0.0
  0
LINE
  5
69
330
17
100
AcDbEntity
  8
0
100
AcDbLine
 10
11056.976286465862
 20
1664.2448432190731
 30
0.0
 11
11056.976286465862
 21
1653.2448432190731
 31
0.0
  0
LINE
  5
6A
330
17
100
AcDbEntity
  8
0
100
AcDbLine
 10
11092.976286465862
 20
1664.2448432190731
 30
0.0
 11
11111.76931631549
 21
1664.2448432190731
 31
0.0
  0
LINE
  5
6B
330
17
100
AcDbEntity
  8
0
100
AcDbLine
 10
10844.766678591805
 20
1664.2448432190731
 30
0.0
 11
10863.772880826058
 21
1664.2448432190658
 31
0.0
  0
LINE
  5
6C
330
17
100
AcDbEntity
  8
0
100
AcDbLine
 10
10899.769352116891
 20
1664.2448432190658
 30
0.0
 11
10942.267534344523
 21
1664.2448432190731
 31
0.0
  0
LINE
  5
6D
330
17
100
AcDbEntity
  8
0
100
AcDbLine
 10
11014.267534344523
 20
1664.2448432190722
 30
0.0
 11
11037.271098286481
 21
1664.2448432190731
 31
0.0
  0
LINE
  5
6E
330
17
100
AcDbEntity
  8
0
100
AcDbLine
 10
11043.771098286481
 20
1664.2448432190731
 30
0.0
 11
11056.976286465862
 21
1664.2448432190731
 31
0.0
  0
LINE
  5
6F
330
17
100
AcDbEntity
  8
0
100
AcDbLine
 10
10863.772880826058
 20
1664.2448432190677
 30
0.0
 11
10863.772880826058
 21
1653.2448432190658
 31
0.0
  0
LINE
  5
70
330
17
100
AcDbEntity
  8
0
100
AcDbLine
 10
10899.772880826058
 20
1664.2448432190677
 30
0.0
 11
10899.772880826058
 21
1653.2448432190658
 31
0.0
  0
LINE
  5
71
330
17
100
AcDbEntity
  8
0
100
AcDbLine
 10
10899.772880826058
 20
1653.2448432190658
 30
0.0
 11
10942.267534344523
 21
1653.2448432190731
 31
0.0
  0
LINE
  5
72
330
17
100
AcDbEntity
  8
0
100
AcDbLine
 10
11014.267534344523
 20
1653.2448432190731
 30
0.0
 11
11056.976286465862
 21
1653.2448432190731
 31
0.0
  0
LINE
  5
73
330
17
100
AcDbEntity
  8
0
100
AcDbLine
 10
11369.770263405328
 20
1811.7447902242775
 30
0.0
 11
11353.268870822743
 21
1811.7447902242775
 31
0.0
  0
LINE
  5
74
330
17
100
AcDbEntity
  8
0
100
AcDbLine
 10
11218.269316315484
 20
1811.7447902242775
 30
0.0
 11
11201.769316317594
 21
1811.7449027770408
 31
0.0
  0
LINE
  5
75
330
17
100
AcDbEntity
  8
0
100
AcDbLine
 10
11195.267396681724
 20
1817.2447902242775
 30
0.0
 11
11195.268451270265
 21
1754.7442866523015
 31
0.0
  0
LINE
  5
76
330
17
100
AcDbEntity
  8
0
100
AcDbLine
 10
11195.270703841328
 20
1621.2449935874397
 30
0.0
 11
11174.769316318467
 21
1621.2449089037586
 31
0.0
  0
LINE
  5
77
330
17
100
AcDbEntity
  8
0
100
AcDbLine
 10
11174.769316318467
 20
1621.2449089037586
 30
0.0
 11
11174.769316318467
 21
1610.2449089037586
 31
0.0
  0
LINE
  5
78
330
17
100
AcDbEntity
  8
0
100
AcDbLine
 10
11369.770948479134
 20
1838.74478546531
 30
0.0
 11
11369.770579593292
 21
1823.7447902557205
 31
0.0
  0
LINE
  5
79
330
17
100
AcDbEntity
  8
0
100
AcDbLine
 10
11369.770263405328
 20
1811.7447902242775
 30
0.0
 11
11369.766179296901
 21
1643.7448432191004
 31
0.0
  0
LINE
  5
7A
330
17
100
AcDbEntity
  8
0
100
AcDbLine
 10
11369.766179296901
 20
1643.7448432191004
 30
0.0
 11
11345.76664349372
 21
1643.7448432191004
 31
0.0
  0
LINE
  5
7B
330
17
100
AcDbEntity
  8
0
100
AcDbLine
 10
11353.268870809043
 20
1643.7448432191004
 30
0.0
 11
11353.268870822743
 21
1643.7448432191004
 31
0.0
  0
LINE
  5
7C
330
17
100
AcDbEntity
  8
0
100
AcDbLine
 10
11122.76931631549
 20
2430.8281235570603
 30
0.0
 11
11122.76931631549
 21
2469.578123556502
 31
0.0
  0
LINE
  5
7D
330
17
100
AcDbEntity
  8
0
100
AcDbLine
 10
11122.76931631549
 20
2469.578123556502
 30
0.0
 11
11075.512613548155
 21
2469.578123556502
 31
0.0
  0
LINE
  5
7E
330
17
100
AcDbEntity
  8
0
100
AcDbLine
 10
10881.017569366413
 20
2469.578123556502
 30
0.0
 11
10833.766678591805
 21
2469.578123556502
 31
0.0
  0
LINE
  5
7F
330
17
100
AcDbEntity
  8
0
100
AcDbLine
 10
10844.766121515
 20
2458.578123556502
 30
0.0
 11
10881.017569366406
 21
2458.578123556502
 31
0.0
  0
LINE
  5
80
330
17
100
AcDbEntity
  8
0
100
AcDbLine
 10
11690.51968566786
 20
2458.578123556502
 30
0.0
 11
11726.765752373547
 21
2458.578123556502
 31
0.0
  0
LINE
  5
81
330
17
100
AcDbEntity
  8
0
100
AcDbLine
 10
11111.76931631549
 20
2258.5781235565037
 30
0.0
 11
11111.769316315484
 21
2126.3281235576133
 31
0.0
  0
LINE
  5
82
330
17
100
AcDbEntity
  8
0
100
AcDbLine
 10
11099.76931631549
 20
2246.5781235565037
 30
0.0
 11
11099.76931631549
 21
2138.3281235576133
 31
0.0
  0
LINE
  5
83
330
17
100
AcDbEntity
  8
0
100
AcDbLine
 10
11118.26931631549
 20
2419.8281235570603
 30
0.0
 11
11118.269479261835
 21
2323.82796937699
 31
0.0
  0
LINE
  5
84
330
17
100
AcDbEntity
  8
0
100
AcDbLine
 10
11166.269316315462
 20
1823.7447902242775
 30
0.0
 11
11166.269316315462
 21
1867.7447902242775
 31
0.0
  0
LINE
  5
85
330
17
100
AcDbEntity
  8
0
100
AcDbLine
 10
11166.269316315462
 20
1870.7447902242775
 30
0.0
 11
11166.269316315469
 21
1982.7447902242775
 31
0.0
  0
LINE
  5
86
330
17
100
AcDbEntity
  8
0
100
AcDbLine
 10
11166.269316315469
 20
1985.7447902242775
 30
0.0
 11
11166.269316315469
 21
2029.7447902242775
 31
0.0
  0
LINE
  5
87
330
17
100
AcDbEntity
  8
0
100
AcDbLine
 10
11177.269316315462
 20
1823.7447902242775
 30
0.0
 11
11177.269316315469
 21
1867.7447902242775
 31
0.0
  0
LINE
  5
88
330
17
100
AcDbEntity
  8
0
100
AcDbLine
 10
11177.269316315469
 20
1870.7447902242775
 30
0.0
 11
11177.269316315469
 21
1871.7447902242775
 31
0.0
  0
LINE
  5
89
330
17
100
AcDbEntity
  8
0
100
AcDbLine
 10
11177.269316315469
 20
1981.7447902242775
 30
0.0
 11
11177.269316315469
 21
1982.7447902242775
 31
0.0
  0
LINE
  5
8A
330
17
100
AcDbEntity
  8
0
100
AcDbLine
 10
11177.269316315469
 20
1985.7447902242775
 30
0.0
 11
11177.269316315469
 21
2029.7447902242775
 31
0.0
  0
LINE
  5
8B
330
17
100
AcDbEntity
  8
0
100
AcDbLine
 10
11188.269316315462
 20
1823.7447902242775
 30
0.0
 11
11188.269316315469
 21
1867.7447902242775
 31
0.0
  0
LINE
  5
8C
330
17
100
AcDbEntity
  8
0
100
AcDbLine
 10
11188.269316315469
 20
1870.7447902242775
 30
0.0
 11
11188.269316315469
 21
1871.7447902242775
 31
0.0
  0
LINE
  5
8D
330
17
100
AcDbEntity
  8
0
100
AcDbLine
 10
11188.269316315469
 20
1981.7447902242775
 30
0.0
 11
11188.269316315469
 21
1982.7447902242775
 31
0.0
  0
LINE
  5
8E
330
17
100
AcDbEntity
  8
0
100
AcDbLine
 10
11188.269316315469
 20
1985.7447902242775
 30
0.0
 11
11188.269316315469
 21
2029.7447902242775
 31
0.0
  0
LINE
  5
8F
330
17
100
AcDbEntity
  8
0
100
AcDbLine
 10
11199.269316315462
 20
1823.7447902242775
 30
0.0
 11
11199.269316315469
 21
1867.7447902242775
 31
0.0
  0
LINE
  5
90
330
17
100
AcDbEntity
  8
0
100
AcDbLine
 10
11199.269316315469
 20
1870.7447902242775
 30
0.0
 11
11199.269316315469
 21
1871.7447902242775
 31
0.0
  0
LINE
  5
91
330
17
100
AcDbEntity
  8
0
100
AcDbLine
 10
11199.269316315469
 20
1981.7447902242775
 30
0.0
 11
11199.269316315469
 21
1982.7447902242775
 31
0.0
  0
LINE
  5
92
330
17
100
AcDbEntity
  8
0
100
AcDbLine
 10
11199.269316315469
 20
1985.7447902242775
 30
0.0
 11
11199.269316315469
 21
2029.7447902242775
 31
0.0
  0
LINE
  5
93
330
17
100
AcDbEntity
  8
0
100
AcDbLine
 10
11210.269316315462
 20
1823.7447902242775
 30
0.0
 11
11210.269316315462
 21
1867.7447902242775
 31
0.0
  0
LINE
  5
94
330
17
100
AcDbEntity
  8
0
100
AcDbLine
 10
11210.269316315462
 20
1870.7447902242775
 30
0.0
 11
11210.269316315469
 21
1982.7447902242775
 31
0.0
  0
LINE
  5
95
330
17
100
AcDbEntity
  8
0
100
AcDbLine
 10
11210.269316315469
 20
1985.7447902242775
 30
0.0
 11
11210.269316315469
 21
2029.7447902242775
 31
0.0
  0
LINE
  5
96
330
17
100
AcDbEntity
  8
0
100
AcDbLine
 10
11118.26931631549
 20
2419.8281235570603
 30
0.0
 11
11177.768870822782
 21
2419.8386506703855
 31
-0.3403031765569822
  0
LINE
  5
97
330
17
100
AcDbEntity
  8
0
100
AcDbLine
 10
11393.768870822747
 20
2419.8281235570603
 30
0.0
 11
11453.268425330003
 21
2419.8281235570603
 31
0.0
  0
LINE
  5
98
330
17
100
AcDbEntity
  8
0
100
AcDbLine
 10
11453.268425330003
 20
2419.8281235570603
 30
0.0
 11
11453.268425330003
 21
2131.8281235576096
 31
0.0
  0
LINE
  5
99
330
17
100
AcDbEntity
  8
0
100
AcDbLine
 10
11459.768425330003
 20
2458.578123556502
 30
0.0
 11
11459.768425330003
 21
2266.5781235565037
 31
0.0
  0
LINE
  5
9A
330
17
100
AcDbEntity
  8
0
100
AcDbLine
 10
11459.768425330003
 20
2258.5780870711515
 30
0.0
 11
11459.768425330003
 21
2126.3281235576133
 31
0.0
  0
LINE
  5
9B
330
17
100
AcDbEntity
  8
0
100
AcDbLine
 10
11459.768425330003
 20
2126.3281235576133
 30
0.0
 11
11642.271846685006
 21
2126.3281235576133
 31
0.0
  0
LINE
  5
9C
330
17
100
AcDbEntity
  8
0
100
AcDbLine
 10
11648.771846685006
 20
2126.3281235576133
 30
0.0
 11
11655.774241050363
 21
2126.3281235576133
 31
0.0
  0
LINE
  5
9D
330
17
100
AcDbEntity
  8
0
100
AcDbLine
 10
11719.774241050363
 20
2126.3281235576133
 30
0.0
 11
11726.776635415721
 21
2126.3281235576133
 31
0.0
  0
LINE
  5
9E
330
17
100
AcDbEntity
  8
0
100
AcDbLine
 10
11122.76931631549
 20
2430.8281235570603
 30
0.0
 11
11177.768870890193
 21
2430.8281235570603
 31
-0.3403031765569822
  0
LINE
  5
9F
330
17
100
AcDbEntity
  8
0
100
AcDbLine
 10
11393.768870822747
 20
2430.8281235570603
 30
0.0
 11
11448.768425330003
 21
2430.8281235570603
 31
0.0
  0
LINE
  5
A0
330
17
100
AcDbEntity
  8
0
100
AcDbLine
 10
11353.268870822743
 20
1811.7447902242775
 30
0.0
 11
11353.26887082275
 21
1823.7447902242811
 31
0.0
  0
LINE
  5
A1
330
17
100
AcDbEntity
  8
0
100
AcDbLine
 10
11171.76909356912
 20
2119.8281235576133
 30
0.0
 11
11218.269316315484
 21
2119.8281235576133
 31
0.0
  0
LINE
  5
A2
330
17
100
AcDbEntity
  8
0
100
AcDbLine
 10
11163.769093569113
 20
2111.8281235576133
 30
0.0
 11
11171.76909356912
 21
2111.8281235576133
 31
0.0
  0
LINE
  5
A3
330
17
100
AcDbEntity
  8
0
100
AcDbLine
 10
11353.26887082275
 20
2119.8281235576133
 30
0.0
 11
11399.769093569113
 21
2119.8281235576133
 31
0.0
  0
LINE
  5
A4
330
17
100
AcDbEntity
  8
0
100
AcDbLine
 10
11407.769093569113
 20
2119.8281235576133
 30
0.0
 11
11546.269761808238
 21
2119.8281235576133
 31
0.0
  0
LINE
  5
A5
330
17
100
AcDbEntity
  8
0
100
AcDbLine
 10
11554.269761808238
 20
2119.8281235576133
 30
0.0
 11
11632.269761808238
 21
2119.8281235576133
 31
0.0
  0
LINE
  5
A6
330
17
100
AcDbEntity
  8
0
100
AcDbLine
 10
11640.269761808238
 20
2119.8281235576133
 30
0.0
 11
11655.774241050363
 21
2119.8281235576133
 31
0.0
  0
LINE
  5
A7
330
17
100
AcDbEntity
  8
0
100
AcDbLine
 10
11399.769093569113
 20
2111.8281235576133
 30
0.0
 11
11407.769093569113
 21
2111.8281235576133
 31
0.0
  0
LINE
  5
A8
330
17
100
AcDbEntity
  8
0
100
AcDbLine
 10
10844.766121515
 20
2126.3281235576096
 30
0.0
 11
10938.768425329996
 21
2126.3281235576096
 31
0.0
  0
LINE
  5
A9
330
17
100
AcDbEntity
  8
0
100
AcDbLine
 10
10945.268425329996
 20
2126.3281235576096
 30
0.0
 11
10962.268425329992
 21
2126.3281235576096
 31
0.0
  0
LINE
  5
AA
330
17
100
AcDbEntity
  8
0
100
AcDbLine
 10
10994.268425329992
 20
2126.3281235576096
 30
0.0
 11
11011.268425329996
 21
2126.3281235576096
 31
0.0
  0
LINE
  5
AB
330
17
100
AcDbEntity
  8
0
100
AcDbLine
 10
11017.768425329996
 20
2126.3281235576096
 30
0.0
 11
11111.76931631549
 21
2126.3281235576133
 31
0.0
  0
LINE
  5
AC
330
17
100
AcDbEntity
  8
0
100
AcDbLine
 10
11017.768425329996
 20
2138.3281235576096
 30
0.0
 11
11099.76931631549
 21
2138.3281235576133
 31
0.0
  0
LINE
  5
AD
330
17
100
AcDbEntity
  8
0
100
AcDbLine
 10
11118.269294939855
 20
2131.8281235576096
 30
0.0
 11
11218.26931631549
 21
2131.8281235576096
 31
0.0
  0
LINE
  5
AE
330
17
100
AcDbEntity
  8
0
100
AcDbLine
 10
11353.268870822743
 20
2131.8281235576096
 30
0.0
 11
11453.268425330003
 21
2131.8281235576096
 31
0.0
  0
LINE
  5
AF
330
17
100
AcDbEntity
  8
0
100
AcDbLine
 10
10844.759390777333
 20
2041.7649978223626
 30
0.0
 11
10931.268425329996
 21
2041.759401707316
 31
0.0
  0
LINE
  5
B0
330
17
100
AcDbEntity
  8
0
100
AcDbLine
 10
10939.268425329996
 20
2041.758884201593
 30
0.0
 11
10948.26962985189
 21
2041.7579742506668
 31
0.0
  0
LINE
  5
B1
330
17
100
AcDbEntity
  8
0
100
AcDbLine
 10
11008.271507530695
 20
2041.7534952076012
 30
0.0
 11
11017.268425329989
 21
2041.7531916386533
 31
0.0
  0
LINE
  5
B2
330
17
100
AcDbEntity
  8
0
100
AcDbLine
 10
11025.268425329989
 20
2041.7526741329302
 30
0.0
 11
11163.769093569113
 21
2041.743714771891
 31
0.0
  0
LINE
  5
B3
330
17
100
AcDbEntity
  8
0
100
AcDbLine
 10
10844.766678591812
 20
2035.2447902242775
 30
0.0
 11
10935.769726575461
 21
2035.2447902242775
 31
0.0
  0
LINE
  5
B4
330
17
100
AcDbEntity
  8
0
100
AcDbLine
 10
11020.419834195585
 20
2035.2447902242775
 30
0.0
 11
11111.769316315484
 21
2035.2447902242775
 31
0.0
  0
LINE
  5
B5
330
17
100
AcDbEntity
  8
0
100
AcDbLine
 10
11171.76909356912
 20
2041.7447902242775
 30
0.0
 11
11218.26931631549
 21
2041.7447902242775
 31
0.0
  0
LINE
  5
B6
330
17
100
AcDbEntity
  8
0
100
AcDbLine
 10
11163.769093569113
 20
2049.7447902242775
 30
0.0
 11
11171.769093569113
 21
2049.7447902242775
 31
0.0
  0
LINE
  5
B7
330
17
100
AcDbEntity
  8
0
100
AcDbLine
 10
11353.268870822743
 20
2041.7447902242775
 30
0.0
 11
11399.769093569113
 21
2041.7447902242775
 31
0.0
  0
LINE
  5
B8
330
17
100
AcDbEntity
  8
0
100
AcDbLine
 10
11399.769093569113
 20
2049.7447902242775
 30
0.0
 11
11407.769093569113
 21
2049.7447902242775
 31
0.0
  0
LINE
  5
B9
330
17
100
AcDbEntity
  8
0
100
AcDbLine
 10
11165.269316315462
 20
1871.7447902242775
 30
0.0
 11
11210.269316315469
 21
1871.7447902242775
 31
0.0
  0
LINE
  5
BA
330
17
100
AcDbEntity
  8
0
100
AcDbLine
 10
11369.767649760703
 20
2029.7447902242811
 30
0.0
 11
11353.26887082275
 21
2029.7447902242811
 31
0.0
  0
LINE
  5
BB
330
17
100
AcDbEntity
  8
0
100
AcDbLine
 10
11218.269316315484
 20
1811.7447902242775
 30
0.0
 11
11218.269316315484
 21
1823.7447902242775
 31
0.0
  0
LINE
  5
BC
330
17
100
AcDbEntity
  8
0
100
AcDbLine
 10
11218.269316315484
 20
1823.7447902242775
 30
0.0
 11
11118.26931631549
 21
1823.7447902242811
 31
0.0
  0
LINE
  5
BD
330
17
100
AcDbEntity
  8
0
100
AcDbLine
 10
11118.26931631549
 20
1823.7447902242811
 30
0.0
 11
11118.269316315484
 21
2029.7447902242775
 31
0.0
  0
LINE
  5
BE
330
17
100
AcDbEntity
  8
0
100
AcDbLine
 10
11118.269316315484
 20
2029.7447902242775
 30
0.0
 11
11218.269316315484
 21
2029.7447902242775
 31
0.0
  0
LINE
  5
BF
330
17
100
AcDbEntity
  8
0
100
AcDbLine
 10
11195.267396681724
 20
1817.2447902242775
 30
0.0
 11
11111.76903782821
 21
1817.2447902242802
 31
0.0
  0
LINE
  5
C0
330
17
100
AcDbEntity
  8
0
100
AcDbLine
 10
11111.76931631549
 20
1664.244843219074
 30
0.0
 11
11111.769238592682
 21
1670.2448432190731
 31
0.0
  0
LINE
  5
C1
330
17
100
AcDbEntity
  8
0
100
AcDbLine
 10
11111.76931631549
 20
1838.74478546531
 30
0.0
 11
11111.769316315484
 21
2035.2447902242775
 31
0.0
  0
LINE
  5
C2
330
17
100
AcDbEntity
  8
0
100
AcDbLine
 10
11353.268870822743
 20
2041.7447902242848
 30
0.0
 11
11353.26887082275
 21
2029.7447902242848
 31
0.0
  0
LINE
  5
C3
330
17
100
AcDbEntity
  8
0
100
AcDbLine
 10
11218.26931631549
 20
2041.7447902242848
 30
0.0
 11
11218.269316315484
 21
2029.7447902242848
 31
0.0
  0
LINE
  5
C4
330
17
100
AcDbEntity
  8
0
100
AcDbLine
 10
11218.269316315484
 20
1811.7447902242811
 30
0.0
 11
11353.268870822743
 21
1811.7447902242811
 31
0.0
  0
LINE
  5
C5
330
17
100
AcDbEntity
  8
0
100
AcDbLine
 10
11218.269316315484
 20
1812.7447902242811
 30
0.0
 11
11353.268870822743
 21
1812.7447902242811
 31
0.0
  0
LINE
  5
C6
330
17
100
AcDbEntity
  8
0
100
AcDbLine
 10
11218.269316315484
 20
1815.7447902242811
 30
0.0
 11
11353.268870822743
 21
1815.7447902242811
 31
0.0
  0
LINE
  5
C7
330
17
100
AcDbEntity
  8
0
100
AcDbLine
 10
11171.769093569113
 20
2041.7447902242775
 30
0.0
 11
11171.769093569113
 21
2049.7447902242775
 31
0.0
  0
LINE
  5
C8
330
17
100
AcDbEntity
  8
0
100
AcDbLine
 10
11171.769093569113
 20
2111.8281235576096
 30
0.0
 11
11171.769093569113
 21
2119.8281235576133
 31
0.0
  0
LINE
  5
C9
330
17
100
AcDbEntity
  8
0
100
AcDbLine
 10
11163.769093569113
 20
2041.743714771891
 30
0.0
 11
11163.769093569113
 21
2049.7447902242775
 31
0.0
  0
LINE
  5
CA
330
17
100
AcDbEntity
  8
0
100
AcDbLine
 10
11163.769093569113
 20
2111.8281235576096
 30
0.0
 11
11163.769093569113
 21
2119.8281235576133
 31
0.0
  0
LINE
  5
CB
330
17
100
AcDbEntity
  8
0
100
AcDbLine
 10
11399.769093569113
 20
2041.7447902242775
 30
0.0
 11
11399.769093569113
 21
2049.7447902242775
 31
0.0
  0
LINE
  5
CC
330
17
100
AcDbEntity
  8
0
100
AcDbLine
 10
11399.769093569113
 20
2111.8281235576133
 30
0.0
 11
11399.769093569113
 21
2119.8281235576133
 31
0.0
  0
LINE
  5
CD
330
17
100
AcDbEntity
  8
0
100
AcDbLine
 10
11407.769093569113
 20
2041.7447902242775
 30
0.0
 11
11407.769093569113
 21
2049.7447902242775
 31
0.0
  0
LINE
  5
CE
330
17
100
AcDbEntity
  8
0
100
AcDbLine
 10
11407.769093569113
 20
2111.8281235576133
 30
0.0
 11
11407.769093569113
 21
2119.8281235576133
 31
0.0
  0
LINE
  5
CF
330
17
100
AcDbEntity
  8
0
100
AcDbLine
 10
11478.562346165054
 20
1664.2448432190731
 30
0.0
 11
11459.764823630128
 21
1664.245323380897
 31
0.0
  0
LINE
  5
D0
330
17
100
AcDbEntity
  8
0
100
AcDbLine
 10
11459.764823617863
 20
1664.244843219074
 30
0.0
 11
11459.764976881195
 21
1670.244843219074
 31
0.0
  0
LINE
  5
D1
330
17
100
AcDbEntity
  8
0
100
AcDbLine
 10
11353.268870822743
 20
2131.8281235576133
 30
0.0
 11
11353.26887082275
 21
2119.8281235576133
 31
0.0
  0
LINE
  5
D2
330
17
100
AcDbEntity
  8
0
100
AcDbLine
 10
11218.26931631549
 20
2131.8281235576133
 30
0.0
 11
11218.269316315484
 21
2119.8281235576133
 31
0.0
  0
LINE
  5
D3
330
17
100
AcDbEntity
  8
0
100
AcDbLine
 10
11353.26887082275
 20
2119.8281235576096
 30
0.0
 11
11218.269316315484
 21
2119.8281235576096
 31
0.0
  0
LINE
  5
D4
330
17
100
AcDbEntity
  8
0
100
AcDbLine
 10
11171.769093569113
 20
2049.7447902242775
 30
0.0
 11
11171.769093569113
 21
2111.8281235576133
 31
0.0
  0
LINE
  5
D5
330
17
100
AcDbEntity
  8
0
100
AcDbLine
 10
11163.769093569113
 20
2111.8281235576133
 30
0.0
 11
11163.769093569113
 21
2049.7447902242775
 31
0.0
  0
LINE
  5
D6
330
17
100
AcDbEntity
  8
0
100
AcDbLine
 10
11399.769093569113
 20
2049.7447902242775
 30
0.0
 11
11399.769093569113
 21
2111.8281235576133
 31
0.0
  0
LINE
  5
D7
330
17
100
AcDbEntity
  8
0
100
AcDbLine
 10
11407.76909356912
 20
2111.8281235576133
 30
0.0
 11
11407.769093569113
 21
2049.7447902242775
 31
0.0
  0
LINE
  5
D8
330
17
100
AcDbEntity
  8
0
100
AcDbLine
 10
11134.269479261835
 20
2251.82796937699
 30
0.0
 11
11118.269479261835
 21
2251.82796937699
 31
0.0
  0
LINE
  5
D9
330
17
100
AcDbEntity
  8
0
100
AcDbLine
 10
11118.269479261835
 20
2323.82796937699
 30
0.0
 11
11134.269479261835
 21
2323.82796937699
 31
0.0
  0
LINE
  5
DA
330
17
100
AcDbEntity
  8
0
100
AcDbLine
 10
11134.269479261835
 20
2323.82796937699
 30
0.0
 11
11134.269479261835
 21
2251.82796937699
 31
0.0
  0
LINE
  5
DB
330
17
100
AcDbEntity
  8
0
100
AcDbLine
 10
11546.269761808238
 20
2049.7447902242775
 30
0.0
 11
11546.269761808238
 21
2111.8281235576133
 31
0.0
  0
LINE
  5
DC
330
17
100
AcDbEntity
  8
0
100
AcDbLine
 10
11554.269761808246
 20
2111.8281235576133
 30
0.0
 11
11554.269761808238
 21
2049.7447902242775
 31
0.0
  0
LINE
  5
DD
330
17
100
AcDbEntity
  8
0
100
AcDbLine
 10
11640.269761808238
 20
2049.7447902242775
 30
0.0
 11
11632.269761808238
 21
2049.7447902242775
 31
0.0
  0
LINE
  5
DE
330
17
100
AcDbEntity
  8
0
100
AcDbLine
 10
11640.269761808238
 20
2049.7447902242775
 30
0.0
 11
11640.269761808238
 21
2111.8281235576133
 31
0.0
  0
LINE
  5
DF
330
17
100
AcDbEntity
  8
0
100
AcDbLine
 10
11632.269761808238
 20
2111.8281235576133
 30
0.0
 11
11632.269761808238
 21
2049.7447902242775
 31
0.0
  0
LINE
  5
E0
330
17
100
AcDbEntity
  8
0
100
AcDbLine
 10
11025.268425329989
 20
2049.7447902242775
 30
0.0
 11
11025.268425329989
 21
2111.8281235576133
 31
0.0
  0
LINE
  5
E1
330
17
100
AcDbEntity
  8
0
100
AcDbLine
 10
11017.268425329989
 20
2111.8281235576133
 30
0.0
 11
11017.268425329989
 21
2049.7447902242775
 31
0.0
  0
LINE
  5
E2
330
17
100
AcDbEntity
  8
0
100
AcDbLine
 10
11025.268425329989
 20
2049.7447902242775
 30
0.0
 11
11017.268425329989
 21
2049.7447902242775
 31
0.0
  0
LINE
  5
E3
330
17
100
AcDbEntity
  8
0
100
AcDbLine
 10
11025.268425329989
 20
2041.7447902242775
 30
0.0
 11
11025.268425329989
 21
2049.7447902242775
 31
0.0
  0
LINE
  5
E4
330
17
100
AcDbEntity
  8
0
100
AcDbLine
 10
11017.268425329989
 20
2041.7447902242775
 30
0.0
 11
11017.268425329989
 21
2049.7447902242775
 31
0.0
  0
LINE
  5
E5
330
17
100
AcDbEntity
  8
0
100
AcDbLine
 10
11218.269316315484
 20
1823.7447902242775
 30
0.0
 11
11353.26887082275
 21
1823.744790224223
 31
0.0
  0
LINE
  5
E6
330
17
100
AcDbEntity
  8
0
100
AcDbLine
 10
11118.269479261835
 20
2251.82796937699
 30
0.0
 11
11118.269294939855
 21
2131.8281235576096
 31
0.0
  0
LINE
  5
E7
330
17
100
AcDbEntity
  8
0
100
AcDbLine
 10
11218.269316315484
 20
2029.7447902242848
 30
0.0
 11
11353.26887082275
 21
2029.7447902243393
 31
0.0
  0
LINE
  5
E8
330
17
100
AcDbEntity
  8
0
100
AcDbLine
 10
11218.269316315484
 20
2041.7447902242811
 30
0.0
 11
11353.268870822743
 21
2041.7447902243357
 31
0.0
  0
LINE
  5
E9
330
17
100
AcDbEntity
  8
0
100
AcDbLine
 10
10833.766678591805
 20
2261.827233306688
 30
0.0
 11
10833.766678591805
 21
2326.5781235565037
 31
0.0
  0
LINE
  5
EA
330
17
100
AcDbEntity
  8
0
100
AcDbLine
 10
10833.766678591805
 20
2398.5781235565055
 30
0.0
 11
10833.766678591805
 21
2469.578123556502
 31
0.0
  0
LINE
  5
EB
330
17
100
AcDbEntity
  8
0
100
AcDbLine
 10
11448.768460562795
 20
2469.578123556502
 30
0.0
 11
11448.768425330003
 21
2430.8281235570603
 31
0.0
  0
LINE
  5
EC
330
17
100
AcDbEntity
  8
0
100
AcDbLine
 10
11014.267534344523
 20
1653.2448432190731
 30
0.0
 11
11014.267534344523
 21
1664.2448432190731
 31
0.0
  0
LINE
  5
ED
330
17
100
AcDbEntity
  8
0
100
AcDbLine
 10
10942.267534344523
 20
1653.2448432190731
 30
0.0
 11
10942.267534344523
 21
1664.2448432190731
 31
0.0
  0
LINE
  5
EE
330
17
100
AcDbEntity
  8
0
100
AcDbLine
 10
11459.768425330003
 20
2458.578123556502
 30
0.0
 11
11496.024641486103
 21
2458.578123556502
 31
0.0
  0
LINE
  5
EF
330
17
100
AcDbEntity
  8
0
100
AcDbLine
 10
11568.010738425226
 20
2458.578123556502
 30
0.0
 11
11618.524383506956
 21
2458.578123556502
 31
0.0
  0
LINE
  5
F0
330
17
100
AcDbEntity
  8
0
100
AcDbLine
 10
11690.51968566786
 20
2458.578123556502
 30
0.0
 11
11690.519685667852
 21
2469.578123556502
 31
0.0
  0
LINE
  5
F1
330
17
100
AcDbEntity
  8
0
100
AcDbLine
 10
11618.529116578851
 20
2458.578123556502
 30
0.0
 11
11618.529116578851
 21
2469.578123556502
 31
0.0
  0
LINE
  5
F2
330
17
100
AcDbEntity
  8
0
100
AcDbLine
 10
11496.024641486103
 20
2458.5781235565473
 30
0.0
 11
11496.02464148611
 21
2469.5781235565473
 31
0.0
  0
LINE
  5
F3
330
17
100
AcDbEntity
  8
0
100
AcDbLine
 10
11568.015210575111
 20
2458.5781235565473
 30
0.0
 11
11568.015210575111
 21
2469.5781235565473
 31
0.0
  0
LINE
  5
F4
330
17
100
AcDbEntity
  8
0
100
AcDbLine
 10
11003.522044459154
 20
2458.578123556502
 30
0.0
 11
10953.01287152731
 21
2458.578123556502
 31
0.0
  0
LINE
  5
F5
330
17
100
AcDbEntity
  8
0
100
AcDbLine
 10
11003.522044459154
 20
2469.578123556502
 30
0.0
 11
10953.01287152731
 21
2469.578123556502
 31
0.0
  0
LINE
  5
F6
330
17
100
AcDbEntity
  8
0
100
AcDbLine
 10
10881.017569366406
 20
2458.578123556502
 30
0.0
 11
10881.017569366413
 21
2469.578123556502
 31
0.0
  0
LINE
  5
F7
330
17
100
AcDbEntity
  8
0
100
AcDbLine
 10
10953.008138455414
 20
2458.578123556502
 30
0.0
 11
10953.008138455414
 21
2469.578123556502
 31
0.0
  0
LINE
  5
F8
330
17
100
AcDbEntity
  8
0
100
AcDbLine
 10
11075.512613548162
 20
2458.5781235565473
 30
0.0
 11
11075.512613548155
 21
2469.5781235565473
 31
0.0
  0
LINE
  5
F9
330
17
100
AcDbEntity
  8
0
100
AcDbLine
 10
11003.522044459154
 20
2458.5781235565473
 30
0.0
 11
11003.522044459154
 21
2469.5781235565473
 31
0.0
  0
LINE
  5
FA
330
17
100
AcDbEntity
  8
0
100
AcDbLine
 10
11111.76931631549
 20
2258.5781235565037
 30
0.0
 11
11017.768425329996
 21
2258.5781235565037
 31
0.0
  0
LINE
  5
FB
330
17
100
AcDbEntity
  8
0
100
AcDbLine
 10
11011.268425329996
 20
2256.5781235565
 30
0.0
 11
11005.268425329996
 21
2256.5781235565
 31
0.0
  0
LINE
  5
FC
330
17
100
AcDbEntity
  8
0
100
AcDbLine
 10
10951.268425329996
 20
2256.5781235565
 30
0.0
 11
10945.268425329996
 21
2256.5781235565
 31
0.0
  0
LINE
  5
FD
330
17
100
AcDbEntity
  8
0
100
AcDbLine
 10
10938.768425329996
 20
2260.077655835298
 30
0.0
 11
10844.766121515
 21
2260.077655835298
 31
0.0
  0
LINE
  5
FE
330
17
100
AcDbEntity
  8
0
100
AcDbLine
 10
11075.512613548162
 20
2458.578123556489
 30
0.0
 11
11111.76879447147
 21
2458.578123556502
 31
0.0
  0
LINE
  5
FF
330
17
100
AcDbEntity
  8
0
100
AcDbLine
 10
11111.76879447147
 20
2458.578123556502
 30
0.0
 11
11111.76879447147
 21
2266.5781235565037
 31
0.0
  0
LINE
  5
100
330
17
100
AcDbEntity
  8
0
100
AcDbLine
 10
11111.76879447147
 20
2266.5781235565037
 30
0.0
 11
11005.268425329996
 21
2266.5781235565037
 31
0.0
  0
LINE
  5
101
330
17
100
AcDbEntity
  8
0
100
AcDbLine
 10
10951.268425329996
 20
2266.5781235565037
 30
0.0
 11
10844.766121515
 21
2266.5781235565037
 31
0.0
  0
LINE
  5
102
330
17
100
AcDbEntity
  8
0
100
AcDbLine
 10
10844.766121515
 20
2041.7649973869657
 30
0.0
 11
10844.766121515
 21
2049.6805089379186
 31
0.0
  0
LINE
  5
103
330
17
100
AcDbEntity
  8
0
100
AcDbLine
 10
10844.766121515011
 20
2081.6805089379177
 30
0.0
 11
10844.766121514996
 21
2119.8281235576133
 31
0.0
  0
LINE
  5
104
330
17
100
AcDbEntity
  8
0
100
AcDbLine
 10
10844.766121515
 20
2126.3281235576096
 30
0.0
 11
10844.766121514996
 21
2173.2865836047413
 31
0.0
  0
LINE
  5
105
330
17
100
AcDbEntity
  8
0
100
AcDbLine
 10
10844.766121515
 20
2260.077655835298
 30
0.0
 11
10844.766121515
 21
2260.077655835298
 31
0.0
  0
LINE
  5
106
330
17
100
AcDbEntity
  8
0
100
AcDbLine
 10
10844.766121515
 20
2266.5781235565037
 30
0.0
 11
10844.766121515
 21
2326.5781235565037
 31
0.0
  0
LINE
  5
107
330
17
100
AcDbEntity
  8
0
100
AcDbLine
 10
10844.766121515
 20
2344.5781235565037
 30
0.0
 11
10844.766121515
 21
2380.5781235565037
 31
0.0
  0
LINE
  5
108
330
17
100
AcDbEntity
  8
0
100
AcDbLine
 10
10844.766121515
 20
2398.5781235565037
 30
0.0
 11
10844.766121515
 21
2458.578123556502
 31
0.0
  0
LINE
  5
109
330
17
100
AcDbEntity
  8
0
100
AcDbLine
 10
11163.769093569113
 20
2119.8281235576133
 30
0.0
 11
11025.268425329989
 21
2119.8281235576133
 31
0.0
  0
LINE
  5
10A
330
17
100
AcDbEntity
  8
0
100
AcDbLine
 10
11017.268425329996
 20
2119.8281235576133
 30
0.0
 11
10994.268425329992
 21
2119.8281235576133
 31
0.0
  0
LINE
  5
10B
330
17
100
AcDbEntity
  8
0
100
AcDbLine
 10
10962.268425329992
 20
2119.8281235576133
 30
0.0
 11
10939.268425329996
 21
2119.8281235576096
 31
0.0
  0
LINE
  5
10C
330
17
100
AcDbEntity
  8
0
100
AcDbLine
 10
10931.268425329996
 20
2119.8281235576096
 30
0.0
 11
10844.766121515
 21
2119.8281235576133
 31
0.0
  0
LINE
  5
10D
330
17
100
AcDbEntity
  8
0
100
AcDbLine
 10
10568.769316315484
 20
2013.2456812097653
 30
0.0
 11
10568.769316315476
 21
2050.744212448696
 31
0.0
  0
LINE
  5
10E
330
17
100
AcDbEntity
  8
0
100
AcDbLine
 10
10568.769316315476
 20
2110.7442124487243
 30
0.0
 11
10568.769316315484
 21
2148.244938705323
 31
0.0
  0
LINE
  5
10F
330
17
100
AcDbEntity
  8
0
100
AcDbLine
 10
10836.770207300971
 20
2006.7456812097653
 30
0.0
 11
10641.769316315484
 21
2006.7456812097653
 31
0.0
  0
LINE
  5
110
330
17
100
AcDbEntity
  8
0
100
AcDbLine
 10
10641.769316315484
 20
2006.7456812097653
 30
0.0
 11
10641.769316315484
 21
2002.244641743243
 31
0.0
  0
LINE
  5
111
330
17
100
AcDbEntity
  8
0
100
AcDbLine
 10
10641.769316315484
 20
2002.244641743243
 30
0.0
 11
10557.769316315484
 21
2002.244641743243
 31
0.0
  0
LINE
  5
112
330
17
100
AcDbEntity
  8
0
100
AcDbLine
 10
10836.770207300971
 20
2155.242743687678
 30
0.0
 11
10729.328619007305
 21
2155.242743687678
 31
0.0
  0
LINE
  5
113
330
17
100
AcDbEntity
  8
0
100
AcDbLine
 10
10724.828619007305
 20
2013.2456812097653
 30
0.0
 11
10568.769316315484
 21
2013.2456812097653
 31
0.0
  0
LINE
  5
114
330
17
100
AcDbEntity
  8
0
100
AcDbLine
 10
11726.776635415721
 20
2126.3281235576133
 30
0.0
 11
11726.7747007672
 21
2183.4533458395517
 31
0.0
  0
LINE
  5
115
330
17
100
AcDbEntity
  8
0
100
AcDbLine
 10
11726.773781333519
 20
2225.4533458395517
 30
0.0
 11
11726.771846698633
 21
2258.5781235217646
 31
0.0
  0
LINE
  5
116
330
17
100
AcDbEntity
  8
0
100
AcDbLine
 10
11726.771601516317
 20
2266.5781235565037
 30
0.0
 11
11726.769762648955
 21
2326.578123556504
 31
0.0
  0
LINE
  5
117
330
17
100
AcDbEntity
  8
0
100
AcDbLine
 10
11737.766560782973
 20
2469.578123556502
 30
0.0
 11
11737.77106305369
 21
2398.5781235565055
 31
0.0
  0
LINE
  5
118
330
17
100
AcDbEntity
  8
0
100
AcDbLine
 10
11737.76222366438
 20
2261.827233305571
 30
0.0
 11
11765.518590729465
 21
2261.827241725393
 31
0.0
  0
LINE
  5
119
330
17
100
AcDbEntity
  8
0
100
AcDbLine
 10
11801.518590729487
 20
2261.8272533527406
 30
0.0
 11
11846.018508896239
 21
2261.827269500757
 31
0.0
  0
LINE
  5
11A
330
17
100
AcDbEntity
  8
0
100
AcDbLine
 10
11882.018504998632
 20
2261.8272822564386
 30
0.0
 11
11923.859136569343
 21
2261.827291059336
 31
0.0
  0
LINE
  5
11B
330
17
100
AcDbEntity
  8
0
100
AcDbLine
 10
11923.859136569343
 20
2261.827291059336
 30
0.0
 11
11923.862665278524
 21
2159.2449964274592
 31
0.0
  0
LINE
  5
11C
330
17
100
AcDbEntity
  8
0
100
AcDbLine
 10
11923.862665278524
 20
2159.2449964274592
 30
0.0
 11
12013.859136569343
 21
2159.244942830758
 31
0.0
  0
LINE
  5
11D
330
17
100
AcDbEntity
  8
0
100
AcDbLine
 10
12013.859136569343
 20
2159.244942830758
 30
0.0
 11
12013.859136569343
 21
2110.7442124487234
 31
0.0
  0
LINE
  5
11E
330
17
100
AcDbEntity
  8
0
100
AcDbLine
 10
12013.859136569336
 20
2050.7442124487216
 30
0.0
 11
12013.859136569343
 21
2002.2446458686782
 31
0.0
  0
LINE
  5
11F
330
17
100
AcDbEntity
  8
0
100
AcDbLine
 10
12013.859136569343
 20
2002.2446458686782
 30
0.0
 11
11980.86266527851
 21
2002.244641743243
 31
0.0
  0
LINE
  5
120
330
17
100
AcDbEntity
  8
0
100
AcDbLine
 10
11980.86266527851
 20
2002.244641743243
 30
0.0
 11
11908.862683130414
 21
2002.2443561969185
 31
0.0
  0
LINE
  5
121
330
17
100
AcDbEntity
  8
0
100
AcDbLine
 10
11757.272922002834
 20
2250.8272212412585
 30
0.0
 11
11765.518586831895
 21
2250.8272423093904
 31
0.0
  0
LINE
  5
122
330
17
100
AcDbEntity
  8
0
100
AcDbLine
 10
11806.018590406624
 20
2233.8272562452357
 30
0.0
 11
11841.518505321583
 21
2233.827266699768
 31
0.0
  0
LINE
  5
123
330
17
100
AcDbEntity
  8
0
100
AcDbLine
 10
11801.518586831917
 20
2250.8272546321086
 30
0.0
 11
11846.01851279381
 21
2250.827271581732
 31
0.0
  0
LINE
  5
124
330
17
100
AcDbEntity
  8
0
100
AcDbLine
 10
11882.018508896203
 20
2250.827285032784
 30
0.0
 11
11912.859136569343
 21
2250.827291059336
 31
0.0
  0
LINE
  5
125
330
17
100
AcDbEntity
  8
0
100
AcDbLine
 10
11912.859136569343
 20
2250.827291059336
 30
0.0
 11
11912.86265879863
 21
2154.744703500818
 31
0.0
  0
LINE
  5
126
330
17
100
AcDbEntity
  8
0
100
AcDbLine
 10
11912.862897077917
 20
2148.2447035051837
 30
0.0
 11
11912.863938782903
 21
2119.828123557493
 31
0.0
  0
LINE
  5
127
330
17
100
AcDbEntity
  8
0
100
AcDbLine
 10
11889.859136552797
 20
2250.827320799416
 30
0.0
 11
11889.862658814083
 21
2154.743860358728
 31
0.0
  0
LINE
  5
128
330
17
100
AcDbEntity
  8
0
100
AcDbLine
 10
12002.859136569343
 20
2148.244942830758
 30
0.0
 11
12002.859136569343
 21
2110.7442124487234
 31
0.0
  0
LINE
  5
129
330
17
100
AcDbEntity
  8
0
100
AcDbLine
 10
12002.859136569336
 20
2050.7442124487216
 30
0.0
 11
12002.859136569343
 21
2013.2446458686782
 31
0.0
  0
LINE
  5
12A
330
17
100
AcDbEntity
  8
0
100
AcDbLine
 10
12002.859136569343
 20
2013.2446458686782
 30
0.0
 11
11980.86266527851
 21
2013.244641743243
 31
0.0
  0
LINE
  5
12B
330
17
100
AcDbEntity
  8
0
100
AcDbLine
 10
11845.362897077917
 20
2013.2441174636233
 30
0.0
 11
11734.766643359035
 21
2013.243689541402
 31
0.0
  0
LINE
  5
12C
330
17
100
AcDbEntity
  8
0
100
AcDbLine
 10
11737.765752373547
 20
1701.24478546531
 30
0.0
 11
11734.766643359035
 21
1701.24478546531
 31
0.0
  0
LINE
  5
12D
330
17
100
AcDbEntity
  8
0
100
AcDbLine
 10
11734.766643359035
 20
1701.24478546531
 30
0.0
 11
11734.766643359035
 21
2006.7456812097653
 31
0.0
  0
LINE
  5
12E
330
17
100
AcDbEntity
  8
0
100
AcDbLine
 10
11734.766643359035
 20
2013.243689541402
 30
0.0
 11
11734.766643359035
 21
2148.2381747900718
 31
0.0
  0
LINE
  5
12F
330
17
100
AcDbEntity
  8
0
100
AcDbLine
 10
11733.272922002827
 20
2154.738120037079
 30
0.0
 11
11733.272922002827
 21
2178.9533849405225
 31
0.0
  0
LINE
  5
130
330
17
100
AcDbEntity
  8
0
100
AcDbLine
 10
11908.86266527851
 20
2006.7456812097653
 30
0.0
 11
11908.862683130414
 21
2002.2443561969185
 31
0.0
  0
LINE
  5
131
330
17
100
AcDbEntity
  8
0
100
AcDbLine
 10
11908.86266527851
 20
2006.7456812097653
 30
0.0
 11
11734.766643359035
 21
2006.7456812097653
 31
0.0
  0
LINE
  5
132
330
17
100
AcDbEntity
  8
0
100
AcDbLine
 10
11640.269067547124
 20
2034.74478546531
 30
0.0
 11
11677.267924879168
 21
2034.74478546531
 31
0.0
  0
LINE
  5
133
330
17
100
AcDbEntity
  8
0
100
AcDbLine
 10
11680.267924879168
 20
2034.74478546531
 30
0.0
 11
11720.266643359035
 21
2034.74478546531
 31
0.0
  0
LINE
  5
134
330
17
100
AcDbEntity
  8
0
100
AcDbLine
 10
11679.267924879168
 20
2035.74478546531
 30
0.0
 11
11720.266643359035
 21
2035.74478546531
 31
0.0
  0
LINE
  5
135
330
17
100
AcDbEntity
  8
0
100
AcDbLine
 10
11640.268604706522
 20
2024.74478546531
 30
0.0
 11
11677.267924879161
 21
2024.74478546531
 31
0.0
  0
LINE
  5
136
330
17
100
AcDbEntity
  8
0
100
AcDbLine
 10
11679.267924879168
 20
2024.74478546531
 30
0.0
 11
11681.267924879168
 21
2024.74478546531
 31
0.0
  0
LINE
  5
137
330
17
100
AcDbEntity
  8
0
100
AcDbLine
 10
11683.267924879176
 20
2024.74478546531
 30
0.0
 11
11720.266643359035
 21
2024.74478546531
 31
0.0
  0
LINE
  5
138
330
17
100
AcDbEntity
  8
0
100
AcDbLine
 10
11640.268234422248
 20
2014.7445339844444
 30
0.0
 11
11677.267924879161
 21
2014.74478546531
 31
0.0
  0
LINE
  5
139
330
17
100
AcDbEntity
  8
0
100
AcDbLine
 10
11679.267924879168
 20
2014.74478546531
 30
0.0
 11
11681.267924879168
 21
2014.74478546531
 31
0.0
  0
LINE
  5
13A
330
17
100
AcDbEntity
  8
0
100
AcDbLine
 10
11683.267924879168
 20
2014.7447854653064
 30
0.0
 11
11720.266643359035
 21
2014.74478546531
 31
0.0
  0
LINE
  5
13B
330
17
100
AcDbEntity
  8
0
100
AcDbLine
 10
11640.268234422248
 20
2004.7445339844444
 30
0.0
 11
11677.267924879161
 21
2004.74478546531
 31
0.0
  0
LINE
  5
13C
330
17
100
AcDbEntity
  8
0
100
AcDbLine
 10
11679.267924879168
 20
2004.74478546531
 30
0.0
 11
11681.267924879168
 21
2004.74478546531
 31
0.0
  0
LINE
  5
13D
330
17
100
AcDbEntity
  8
0
100
AcDbLine
 10
11683.267924879168
 20
2004.74478546531
 30
0.0
 11
11720.266643359035
 21
2004.74478546531
 31
0.0
  0
LINE
  5
13E
330
17
100
AcDbEntity
  8
0
100
AcDbLine
 10
11640.268234422248
 20
1994.7445339844444
 30
0.0
 11
11677.267924879168
 21
1994.74478546531
 31
0.0
  0
LINE
  5
13F
330
17
100
AcDbEntity
  8
0
100
AcDbLine
 10
11679.267924879168
 20
1994.74478546531
 30
0.0
 11
11681.267924879168
 21
1994.74478546531
 31
0.0
  0
LINE
  5
140
330
17
100
AcDbEntity
  8
0
100
AcDbLine
 10
11683.267924879168
 20
1994.74478546531
 30
0.0
 11
11720.266643359035
 21
1994.74478546531
 31
0.0
  0
LINE
  5
141
330
17
100
AcDbEntity
  8
0
100
AcDbLine
 10
11640.268234422248
 20
1984.7445339844444
 30
0.0
 11
11677.267924879168
 21
1984.74478546531
 31
0.0
  0
LINE
  5
142
330
17
100
AcDbEntity
  8
0
100
AcDbLine
 10
11679.267924879168
 20
1984.74478546531
 30
0.0
 11
11681.267924879168
 21
1984.74478546531
 31
0.0
  0
LINE
  5
143
330
17
100
AcDbEntity
  8
0
100
AcDbLine
 10
11683.267924879168
 20
1984.74478546531
 30
0.0
 11
11720.266643359035
 21
1984.74478546531
 31
0.0
  0
LINE
  5
144
330
17
100
AcDbEntity
  8
0
100
AcDbLine
 10
11640.268234422248
 20
1974.7445339844444
 30
0.0
 11
11677.267924879168
 21
1974.74478546531
 31
0.0
  0
LINE
  5
145
330
17
100
AcDbEntity
  8
0
100
AcDbLine
 10
11679.267924879168
 20
1974.74478546531
 30
0.0
 11
11681.267924879168
 21
1974.74478546531
 31
0.0
  0
LINE
  5
146
330
17
100
AcDbEntity
  8
0
100
AcDbLine
 10
11683.267924879168
 20
1974.74478546531
 30
0.0
 11
11720.266643359035
 21
1974.74478546531
 31
0.0
  0
LINE
  5
147
330
17
100
AcDbEntity
  8
0
100
AcDbLine
 10
11640.268234422248
 20
1964.7445339844444
 30
0.0
 11
11677.267924879168
 21
1964.74478546531
 31
0.0
  0
LINE
  5
148
330
17
100
AcDbEntity
  8
0
100
AcDbLine
 10
11679.267924879176
 20
1964.74478546531
 30
0.0
 11
11681.267924879161
 21
1964.74478546531
 31
0.0
  0
LINE
  5
149
330
17
100
AcDbEntity
  8
0
100
AcDbLine
 10
11683.267924879168
 20
1964.74478546531
 30
0.0
 11
11720.266643359035
 21
1964.74478546531
 31
0.0
  0
LINE
  5
14A
330
17
100
AcDbEntity
  8
0
100
AcDbLine
 10
11679.267924879168
 20
1963.74478546531
 30
0.0
 11
11681.267924879168
 21
1963.74478546531
 31
0.0
  0
LINE
  5
14B
330
17
100
AcDbEntity
  8
0
100
AcDbLine
 10
11679.267924879168
 20
2035.74478546531
 30
0.0
 11
11679.267924879176
 21
1963.74478546531
 31
0.0
  0
LINE
  5
14C
330
17
100
AcDbEntity
  8
0
100
AcDbLine
 10
11677.267924879168
 20
2037.74478546531
 30
0.0
 11
11677.267924879168
 21
1961.74478546531
 31
0.0
  0
LINE
  5
14D
330
17
100
AcDbEntity
  8
0
100
AcDbLine
 10
11681.267924879176
 20
2034.74478546531
 30
0.0
 11
11681.267924879168
 21
1963.74478546531
 31
0.0
  0
LINE
  5
14E
330
17
100
AcDbEntity
  8
0
100
AcDbLine
 10
11683.267924879176
 20
2034.74478546531
 30
0.0
 11
11683.267924879168
 21
1961.74478546531
 31
0.0
  0
LINE
  5
14F
330
17
100
AcDbEntity
  8
0
100
AcDbLine
 10
11677.267924879168
 20
1961.74478546531
 30
0.0
 11
11683.267924879161
 21
1961.74478546531
 31
0.0
  0
LINE
  5
150
330
17
100
AcDbEntity
  8
0
100
AcDbLine
 10
11680.267924879168
 20
2034.74478546531
 30
0.0
 11
11680.267924879176
 21
1963.74478546531
 31
0.0
  0
LINE
  5
151
330
17
100
AcDbEntity
  8
0
100
AcDbLine
 10
11680.267924879161
 20
1961.74478546531
 30
0.0
 11
11680.2679248797
 21
1916.74478546531
 31
0.0
  0
LINE
  5
152
330
17
100
AcDbEntity
  8
0
100
AcDbLine
 10
11680.267924879168
 20
1964.74478546531
 30
0.0
 11
11681.267924879168
 21
1964.167435196122
 31
0.0
  0
LINE
  5
153
330
17
100
AcDbEntity
  8
0
100
AcDbLine
 10
11683.26948410376
 20
1963.012734657742
 30
0.0
 11
11720.266643359035
 21
1941.6524148024573
 31
0.0
  0
LINE
  5
154
330
17
100
AcDbEntity
  8
0
100
AcDbLine
 10
11680.267924879168
 20
1964.7447854653137
 30
0.0
 11
11680.845275148393
 21
1963.74478546531
 31
0.0
  0
LINE
  5
155
330
17
100
AcDbEntity
  8
0
100
AcDbLine
 10
11682.001534911426
 20
1961.74478546531
 30
0.0
 11
11707.982297026552
 21
1916.7447854648626
 31
0.0
  0
LINE
  5
156
330
17
100
AcDbEntity
  8
0
100
AcDbLine
 10
10833.770207300971
 20
1701.24478546531
 30
0.0
 11
10833.770207300971
 21
1653.2448432190731
 31
0.0
  0
LINE
  5
157
330
17
100
AcDbEntity
  8
0
100
AcDbLine
 10
10833.770207300971
 20
1653.2448432190731
 30
0.0
 11
10863.771098855155
 21
1653.2448432190658
 31
0.0
  0
LINE
  5
158
330
17
100
AcDbEntity
  8
0
100
AcDbLine
 10
10833.770207300971
 20
1701.24478546531
 30
0.0
 11
10836.770207300971
 21
1701.24478546531
 31
0.0
  0
LINE
  5
159
330
17
100
AcDbEntity
  8
0
100
AcDbLine
 10
10836.770207300971
 20
1701.24478546531
 30
0.0
 11
10836.770207300971
 21
2006.7456812097653
 31
0.0
  0
LINE
  5
15A
330
17
100
AcDbEntity
  8
0
100
AcDbLine
 10
10836.770207300971
 20
2155.242743687678
 30
0.0
 11
10836.770207300971
 21
2094.1805089379186
 31
0.0
  0
LINE
  5
15B
330
17
100
AcDbEntity
  8
0
100
AcDbLine
 10
10836.770207300971
 20
2089.6805089379186
 30
0.0
 11
10836.770207300971
 21
2081.6704053565763
 31
0.0
  0
LINE
  5
15C
330
17
100
AcDbEntity
  8
0
100
AcDbLine
 10
10836.770207300971
 20
2049.6704053565763
 30
0.0
 11
10836.770207300971
 21
2041.6805089379186
 31
0.0
  0
LINE
  5
15D
330
17
100
AcDbEntity
  8
0
100
AcDbLine
 10
10836.770207300971
 20
2037.1805089379186
 30
0.0
 11
10836.770207300971
 21
2013.2434861921201
 31
0.0
  0
LINE
  5
15E
330
17
100
AcDbEntity
  8
0
100
AcDbLine
 10
10770.019604203851
 20
2250.8272952693005
 30
0.0
 11
10725.519678242032
 21
2250.8272812267014
 31
0.0
  0
LINE
  5
15F
330
17
100
AcDbEntity
  8
0
100
AcDbLine
 10
10689.519678242039
 20
2250.8272812267014
 30
0.0
 11
10658.76931631549
 21
2250.827291059336
 31
0.0
  0
LINE
  5
160
330
17
100
AcDbEntity
  8
0
100
AcDbLine
 10
10658.769418888674
 20
2250.8242961617643
 30
0.0
 11
10658.76931631549
 21
2161.744938705324
 31
0.0
  0
LINE
  5
161
330
17
100
AcDbEntity
  8
0
100
AcDbLine
 10
10724.828619007305
 20
2148.244938705323
 30
0.0
 11
10568.769316315484
 21
2148.244938705323
 31
0.0
  0
LINE
  5
162
330
17
100
AcDbEntity
  8
0
100
AcDbLine
 10
10557.769316315484
 20
2159.244938705323
 30
0.0
 11
10647.76931631549
 21
2159.244938705323
 31
0.0
  0
LINE
  5
163
330
17
100
AcDbEntity
  8
0
100
AcDbLine
 10
10647.76931631549
 20
2159.244938705323
 30
0.0
 11
10647.76931631549
 21
2261.827291059336
 31
0.0
  0
LINE
  5
164
330
17
100
AcDbEntity
  8
0
100
AcDbLine
 10
10647.76931631549
 20
2261.827291059336
 30
0.0
 11
10689.519678242003
 21
2261.8272812267014
 31
0.0
  0
LINE
  5
165
330
17
100
AcDbEntity
  8
0
100
AcDbLine
 10
10725.519678241988
 20
2261.8272812267014
 30
0.0
 11
10770.019604203815
 21
2261.82729135733
 31
0.0
  0
LINE
  5
166
330
17
100
AcDbEntity
  8
0
100
AcDbLine
 10
10806.0196042038
 20
2261.82729135733
 30
0.0
 11
10833.770207300971
 21
2261.827291059336
 31
0.0
  0
LINE
  5
167
330
17
100
AcDbEntity
  8
0
100
AcDbLine
 10
11923.862665278524
 20
2159.2449964274592
 30
0.0
 11
11923.859136569343
 21
2159.244996426368
 31
0.0
  0
LINE
  5
168
330
17
100
AcDbEntity
  8
0
100
AcDbLine
 10
12002.859136569343
 20
2148.244942830758
 30
0.0
 11
11920.863938325077
 21
2148.244803644564
 31
0.0
  0
LINE
  5
169
330
17
100
AcDbEntity
  8
0
100
AcDbLine
 10
11726.771601516317
 20
2266.5781235565037
 30
0.0
 11
11718.765752373554
 21
2266.5781235565037
 31
0.0
  0
LINE
  5
16A
330
17
100
AcDbEntity
  8
0
100
AcDbLine
 10
11726.771846698633
 20
2258.5781235217646
 30
0.0
 11
11718.765752373554
 21
2258.5781691564725
 31
0.0
  0
LINE
  5
16B
330
17
100
AcDbEntity
  8
0
100
AcDbLine
 10
11656.771846685006
 20
2258.5785225215213
 30
0.0
 11
11648.771846685006
 21
2258.578568121494
 31
0.0
  0
LINE
  5
16C
330
17
100
AcDbEntity
  8
0
100
AcDbLine
 10
11642.27184668501
 20
2258.578842907791
 30
0.0
 11
11537.768425330007
 21
2258.578486036172
 31
0.0
  0
LINE
  5
16D
330
17
100
AcDbEntity
  8
0
100
AcDbLine
 10
11648.771846685006
 20
2126.3281235576133
 30
0.0
 11
11648.771846685007
 21
2183.4533790497653
 31
0.0
  0
LINE
  5
16E
330
17
100
AcDbEntity
  8
0
100
AcDbLine
 10
11642.271846685006
 20
2126.3281235576133
 30
0.0
 11
11642.271846685007
 21
2183.4533818171817
 31
0.0
  0
LINE
  5
16F
330
17
100
AcDbEntity
  8
0
100
AcDbLine
 10
12002.859136569336
 20
2050.7442124487216
 30
0.0
 11
12013.859136569336
 21
2050.7442124487216
 31
0.0
  0
LINE
  5
170
330
17
100
AcDbEntity
  8
0
100
AcDbLine
 10
12002.859136569343
 20
2110.7442124487234
 30
0.0
 11
12013.859136569343
 21
2110.7442124487234
 31
0.0
  0
LINE
  5
171
330
17
100
AcDbEntity
  8
0
100
AcDbLine
 10
11765.518586831939
 20
2261.8272423144
 30
0.0
 11
11765.518586831895
 21
2250.8272423144
 31
0.0
  0
LINE
  5
172
330
17
100
AcDbEntity
  8
0
100
AcDbLine
 10
11801.518586831939
 20
2261.8272427692855
 30
0.0
 11
11801.518586831902
 21
2250.8272427692855
 31
0.0
  0
LINE
  5
173
330
17
100
AcDbEntity
  8
0
100
AcDbLine
 10
11846.018512793853
 20
2261.8272715867415
 30
0.0
 11
11846.01851279381
 21
2250.8272715867415
 31
0.0
  0
LINE
  5
174
330
17
100
AcDbEntity
  8
0
100
AcDbLine
 10
11882.018508896239
 20
2261.8272731699644
 30
0.0
 11
11882.018508896195
 21
2250.8272731699644
 31
0.0
  0
LINE
  5
175
330
17
100
AcDbEntity
  8
0
100
AcDbLine
 10
11720.266643359035
 20
1916.744764834758
 30
0.0
 11
11640.268234422248
 21
1916.7445306247782
 31
0.0
  0
LINE
  5
176
330
17
100
AcDbEntity
  8
0
100
AcDbLine
 10
11640.268234422248
 20
1916.7445306247782
 30
0.0
 11
11640.268234422248
 21
2016.7445306247782
 31
0.0
  0
LINE
  5
177
330
17
100
AcDbEntity
  8
0
100
AcDbLine
 10
11640.268234422248
 20
2016.7445306247782
 30
0.0
 11
11640.269761808238
 21
2049.7447902242775
 31
0.0
  0
LINE
  5
178
330
17
100
AcDbEntity
  8
0
100
AcDbLine
 10
11726.76931631549
 20
1910.24478546531
 30
0.0
 11
11635.767124084552
 21
1910.24478546531
 31
0.0
  0
LINE
  5
179
330
17
100
AcDbEntity
  8
0
100
AcDbLine
 10
11912.86290407618
 20
2013.2443786366011
 30
0.0
 11
11912.862904076232
 21
2041.6614568910945
 31
0.0
  0
LINE
  5
17A
330
17
100
AcDbEntity
  8
0
100
AcDbLine
 10
11912.859136569263
 20
2041.6614568910945
 30
0.0
 11
11920.863938782903
 21
2041.6613188889169
 31
0.0
  0
LINE
  5
17B
330
17
100
AcDbEntity
  8
0
100
AcDbLine
 10
11920.863938782903
 20
2041.6613188889169
 30
0.0
 11
11920.863938325077
 21
2013.2442657698411
 31
0.0
  0
LINE
  5
17C
330
17
100
AcDbEntity
  8
0
100
AcDbLine
 10
11920.863938782903
 20
2119.827985555312
 30
0.0
 11
11920.863938325077
 21
2148.2448036444293
 31
0.0
  0
LINE
  5
17D
330
17
100
AcDbEntity
  8
0
100
AcDbLine
 10
11719.774241050363
 20
2126.3281235576133
 30
0.0
 11
11719.774241050363
 21
2119.8281235576133
 31
0.0
  0
LINE
  5
17E
330
17
100
AcDbEntity
  8
0
100
AcDbLine
 10
11655.774241050363
 20
2126.3281235576133
 30
0.0
 11
11655.774241050363
 21
2119.8281235576133
 31
0.0
  0
LINE
  5
17F
330
17
100
AcDbEntity
  8
0
100
AcDbLine
 10
11656.771846685006
 20
2258.578568121494
 30
0.0
 11
11656.771846685006
 21
2266.578143846869
 31
0.0
  0
LINE
  5
180
330
17
100
AcDbEntity
  8
0
100
AcDbLine
 10
11718.765752373554
 20
2258.5781691564725
 30
0.0
 11
11718.765752373554
 21
2266.5781235565037
 31
0.0
  0
LINE
  5
181
330
17
100
AcDbEntity
  8
0
100
AcDbLine
 10
11656.771846685006
 20
2266.5781235565037
 30
0.0
 11
11718.765752373554
 21
2266.5781235565037
 31
0.0
  0
LINE
  5
182
330
17
100
AcDbEntity
  8
0
100
AcDbLine
 10
11656.771846685006
 20
2258.5781691564725
 30
0.0
 11
11718.765752373554
 21
2258.5781691564725
 31
0.0
  0
LINE
  5
183
330
17
100
AcDbEntity
  8
0
100
AcDbLine
 10
11733.272922002827
 20
2183.453278375825
 30
0.0
 11
11726.7747007672
 21
2183.4533458395517
 31
0.0
  0
LINE
  5
184
330
17
100
AcDbEntity
  8
0
100
AcDbLine
 10
11733.272922002827
 20
2225.453278375825
 30
0.0
 11
11726.76222366438
 21
2225.4533458395517
 31
0.0
  0
LINE
  5
185
330
17
100
AcDbEntity
  8
0
100
AcDbLine
 10
11629.267124084552
 20
2033.7447902242811
 30
0.0
 11
11629.267124084552
 21
1838.74478546531
 31
0.0
  0
LINE
  5
186
330
17
100
AcDbEntity
  8
0
100
AcDbLine
 10
11635.767124084552
 20
1910.2447854653092
 30
0.0
 11
11635.767124084552
 21
1838.74478546531
 31
0.0
  0
LINE
  5
187
330
17
100
AcDbEntity
  8
0
100
AcDbLine
 10
11702.76931631549
 20
1886.24478546531
 30
0.3403031765569822
 11
11702.76931631549
 21
1838.74478546531
 31
0.3403031765569822
  0
LINE
  5
188
330
17
100
AcDbEntity
  8
0
100
AcDbLine
 10
11703.76931631549
 20
1887.24478546531
 30
0.3403031765569822
 11
11703.76931631549
 21
1838.74478546531
 31
0.3403031765569822
  0
LINE
  5
189
330
17
100
AcDbEntity
  8
0
100
AcDbLine
 10
11460.390740343428
 20
2035.2447902242811
 30
0.0
 11
11477.764896620836
 21
2035.2447902242811
 31
0.0
  0
LINE
  5
18A
330
17
100
AcDbEntity
  8
0
100
AcDbLine
 10
11477.764896620836
 20
2035.2447902242811
 30
0.0
 11
11477.764896620836
 21
1969.2447902242811
 31
0.0
  0
LINE
  5
18B
330
17
100
AcDbEntity
  8
0
100
AcDbLine
 10
11477.764896620836
 20
1969.2447902242811
 30
0.0
 11
11411.764896620836
 21
1969.2447902242811
 31
0.0
  0
LINE
  5
18C
330
17
100
AcDbEntity
  8
0
100
AcDbLine
 10
11411.764896620836
 20
1969.2447902242811
 30
0.0
 11
11411.764896620836
 21
2035.2447902242811
 31
0.0
  0
LINE
  5
18D
330
17
100
AcDbEntity
  8
0
100
AcDbLine
 10
11411.764896620836
 20
2035.2447902242811
 30
0.0
 11
11424.390740343435
 21
2035.2447902242811
 31
0.0
  0
LINE
  5
18E
330
17
100
AcDbEntity
  8
0
100
AcDbLine
 10
11407.765564859947
 20
2041.7447902242811
 30
0.0
 11
11424.390740343435
 21
2041.7447902242811
 31
0.0
  0
LINE
  5
18F
330
17
100
AcDbEntity
  8
0
100
AcDbLine
 10
11460.390740343428
 20
2041.7447902242811
 30
0.0
 11
11484.264896620836
 21
2041.7447902242811
 31
0.0
  0
LINE
  5
190
330
17
100
AcDbEntity
  8
0
100
AcDbLine
 10
11484.264896620836
 20
2035.2447902242811
 30
0.0
 11
11484.264896620836
 21
1969.2447902242811
 31
0.0
  0
LINE
  5
191
330
17
100
AcDbEntity
  8
0
100
AcDbLine
 10
11550.765342113576
 20
1962.7447902242811
 30
0.0
 11
11432.265342113576
 21
1962.7447902242811
 31
0.0
  0
LINE
  5
192
330
17
100
AcDbEntity
  8
0
100
AcDbLine
 10
11459.26306080119
 20
1670.2448432190731
 30
0.0
 11
11451.76311464986
 21
1670.2448432190731
 31
0.0
  0
LINE
  5
193
330
17
100
AcDbEntity
  8
0
100
AcDbLine
 10
11484.264896620836
 20
2041.7447902242811
 30
0.0
 11
11493.64811505314
 21
2041.7452057179134
 31
0.0
  0
LINE
  5
194
330
17
100
AcDbEntity
  8
0
100
AcDbLine
 10
11529.648115033924
 20
2041.7447902242811
 30
0.0
 11
11546.269761808238
 21
2041.7447902242811
 31
0.0
  0
LINE
  5
195
330
17
100
AcDbEntity
  8
0
100
AcDbLine
 10
11632.269761808238
 20
2041.7447902242811
 30
0.0
 11
11632.269761808238
 21
2049.7447902242775
 31
0.0
  0
LINE
  5
196
330
17
100
AcDbEntity
  8
0
100
AcDbLine
 10
11484.264896620836
 20
2035.2447902242811
 30
0.0
 11
11493.64811505314
 21
2035.2452057179134
 31
0.0
  0
LINE
  5
197
330
17
100
AcDbEntity
  8
0
100
AcDbLine
 10
11529.648115033924
 20
2035.2447902242811
 30
0.0
 11
11550.765342113576
 21
2035.2447902242811
 31
0.0
  0
LINE
  5
198
330
17
100
AcDbEntity
  8
0
100
AcDbLine
 10
11369.767649760703
 20
2014.7447949832485
 30
0.0
 11
11369.767649760703
 21
2029.7447902242848
 31
0.0
  0
LINE
  5
199
330
17
100
AcDbEntity
  8
0
100
AcDbLine
 10
11393.767649760703
 20
2014.7447949832485
 30
0.0
 11
11393.767649760703
 21
1838.74478546531
 31
0.0
  0
LINE
  5
19A
330
17
100
AcDbEntity
  8
0
100
AcDbLine
 10
11369.767649760703
 20
2014.7447949832485
 30
0.0
 11
11393.767649760703
 21
2014.7447949832485
 31
0.0
  0
LINE
  5
19B
330
17
100
AcDbEntity
  8
0
100
AcDbLine
 10
11557.265342113576
 20
2033.7585930267087
 30
0.0
 11
11557.265342113576
 21
1930.7447878447956
 31
0.0
  0
LINE
  5
19C
330
17
100
AcDbEntity
  8
0
100
AcDbLine
 10
11550.765342113576
 20
2035.2447902242811
 30
0.0
 11
11550.765342113576
 21
1969.2447902242811
 31
0.0
  0
LINE
  5
19D
330
17
100
AcDbEntity
  8
0
100
AcDbLine
 10
11550.765342113576
 20
1962.7447902242811
 30
0.0
 11
11550.765342113576
 21
1930.7447878447956
 31
0.0
  0
LINE
  5
19E
330
17
100
AcDbEntity
  8
0
100
AcDbLine
 10
11484.264896620836
 20
1969.2447902242811
 30
0.0
 11
11550.765342113576
 21
1969.2447902242811
 31
0.0
  0
LINE
  5
19F
330
17
100
AcDbEntity
  8
0
100
AcDbLine
 10
11111.771979293328
 20
1832.24478546531
 30
0.0
 11
11043.771098286481
 21
1832.24478546531
 31
0.0
  0
LINE
  5
1A0
330
17
100
AcDbEntity
  8
0
100
AcDbLine
 10
11037.271098286481
 20
1832.24478546531
 30
0.0
 11
10994.27056919593
 21
1832.24478546531
 31
0.0
  0
LINE
  5
1A1
330
17
100
AcDbEntity
  8
0
100
AcDbLine
 10
10962.27056919593
 20
1832.24478546531
 30
0.0
 11
10844.766678591805
 21
1832.24478546531
 31
0.0
  0
LINE
  5
1A2
330
17
100
AcDbEntity
  8
0
100
AcDbLine
 10
11111.76931631549
 20
1838.74478546531
 30
0.0
 11
11020.77150854643
 21
1838.74478546531
 31
0.0
  0
LINE
  5
1A3
330
17
100
AcDbEntity
  8
0
100
AcDbLine
 10
11014.27150854643
 20
1838.74478546531
 30
0.0
 11
10994.27056919593
 21
1838.74478546531
 31
0.0
  0
LINE
  5
1A4
330
17
100
AcDbEntity
  8
0
100
AcDbLine
 10
10962.27056919593
 20
1838.74478546531
 30
0.0
 11
10942.269726575454
 21
1838.74478546531
 31
0.0
  0
LINE
  5
1A5
330
17
100
AcDbEntity
  8
0
100
AcDbLine
 10
10935.769726575454
 20
1838.74478546531
 30
0.0
 11
10844.766678591805
 21
1838.74478546531
 31
0.0
  0
LINE
  5
1A6
330
17
100
AcDbEntity
  8
0
100
AcDbLine
 10
10962.27056919593
 20
1832.24478546531
 30
0.0
 11
10962.27056919593
 21
1838.74478546531
 31
0.0
  0
LINE
  5
1A7
330
17
100
AcDbEntity
  8
0
100
AcDbLine
 10
10994.27056919593
 20
1832.24478546531
 30
0.0
 11
10994.27056919593
 21
1838.74478546531
 31
0.0
  0
LINE
  5
1A8
330
17
100
AcDbEntity
  8
0
100
AcDbLine
 10
11111.769238592678
 20
1670.2448432190722
 30
0.0
 11
11119.76931631548
 21
1670.2448432190722
 31
0.0
  0
LINE
  5
1A9
330
17
100
AcDbEntity
  8
0
100
AcDbLine
 10
11195.268560937202
 20
1748.2448432190731
 30
0.0
 11
11119.76822819615
 21
1748.2448432190731
 31
0.0
  0
LINE
  5
1AA
330
17
100
AcDbEntity
  8
0
100
AcDbLine
 10
10942.269661619364
 20
1906.2516892460071
 30
0.0
 11
10942.269726575454
 21
1838.74478546531
 31
0.0
  0
LINE
  5
1AB
330
17
100
AcDbEntity
  8
0
100
AcDbLine
 10
10935.769726575454
 20
2035.2447902242775
 30
0.0
 11
10935.769726575454
 21
1966.2516892460071
 31
0.0
  0
LINE
  5
1AC
330
17
100
AcDbEntity
  8
0
100
AcDbLine
 10
10935.769695031937
 20
1906.2516892460071
 30
0.0
 11
10935.769726575454
 21
1838.74478546531
 31
0.0
  0
LINE
  5
1AD
330
17
100
AcDbEntity
  8
0
100
AcDbLine
 10
11014.149967905869
 20
1906.2516892460071
 30
0.0
 11
11014.27150854643
 21
1838.74478546531
 31
0.0
  0
LINE
  5
1AE
330
17
100
AcDbEntity
  8
0
100
AcDbLine
 10
11020.419834195585
 20
2035.2447902242775
 30
0.0
 11
11020.542950746261
 21
1966.2516892460071
 31
0.0
  0
LINE
  5
1AF
330
17
100
AcDbEntity
  8
0
100
AcDbLine
 10
11020.650867202465
 20
1906.2516892460071
 30
0.0
 11
11020.77150854643
 21
1838.74478546531
 31
0.0
  0
LINE
  5
1B0
330
17
100
AcDbEntity
  8
0
100
AcDbLine
 10
10557.76578760631
 20
2110.7442124487243
 30
0.0
 11
10568.769316315476
 21
2110.7442124487243
 31
0.0
  0
LINE
  5
1B1
330
17
100
AcDbEntity
  8
0
100
AcDbLine
 10
10557.765787606317
 20
2050.744212448696
 30
0.0
 11
10568.769316315476
 21
2050.744212448696
 31
0.0
  0
LINE
  5
1B2
330
17
100
AcDbEntity
  8
0
100
AcDbLine
 10
10844.766678591805
 20
1664.2448432190731
 30
0.0
 11
10844.766678591805
 21
1832.24478546531
 31
0.0
  0
LINE
  5
1B3
330
17
100
AcDbEntity
  8
0
100
AcDbLine
 10
10844.766678591805
 20
1838.74478546531
 30
0.0
 11
10844.766678591812
 21
2035.2447902242775
 31
0.0
  0
LINE
  5
1B4
330
17
100
AcDbEntity
  8
0
100
AcDbLine
 10
11527.764861388037
 20
1664.2448432190731
 30
0.0
 11
11527.764861388037
 21
1670.2448432190804
 31
0.0
  0
LINE
  5
1B5
330
17
100
AcDbEntity
  8
0
100
AcDbLine
 10
11521.264861388037
 20
1664.2448432190731
 30
0.0
 11
11521.264861388037
 21
1670.2448432277934
 31
0.0
  0
LINE
  5
1B6
330
17
100
AcDbEntity
  8
0
100
AcDbLine
 10
11527.764708124705
 20
1670.2448432190804
 30
0.0
 11
11521.255665566554
 21
1670.2448432278043
 31
0.0
  0
LINE
  5
1B7
330
17
100
AcDbEntity
  8
0
100
AcDbLine
 10
11037.27125154982
 20
1826.24478546531
 30
0.0
 11
11043.780294107972
 21
1826.2447854565826
 31
0.0
  0
LINE
  5
1B8
330
17
100
AcDbEntity
  8
0
100
AcDbLine
 10
11037.271098286481
 20
1664.2448432190731
 30
0.0
 11
11037.271098286481
 21
1670.2448432190804
 31
0.0
  0
LINE
  5
1B9
330
17
100
AcDbEntity
  8
0
100
AcDbLine
 10
11037.271098286481
 20
1700.244843227786
 30
0.0
 11
11037.271098286481
 21
1718.2447854653137
 31
0.0
  0
LINE
  5
1BA
330
17
100
AcDbEntity
  8
0
100
AcDbLine
 10
11037.271098286481
 20
1730.2447854653137
 30
0.0
 11
11037.271098286481
 21
1766.2447854653137
 31
0.0
  0
LINE
  5
1BB
330
17
100
AcDbEntity
  8
0
100
AcDbLine
 10
11037.271098286481
 20
1778.2447854653137
 30
0.0
 11
11037.271098286481
 21
1796.24478546531
 31
0.0
  0
LINE
  5
1BC
330
17
100
AcDbEntity
  8
0
100
AcDbLine
 10
11037.271098286481
 20
1826.24478546531
 30
0.0
 11
11037.271098286481
 21
1832.24478546531
 31
0.0
  0
LINE
  5
1BD
330
17
100
AcDbEntity
  8
0
100
AcDbLine
 10
11043.771098286481
 20
1664.2448432190731
 30
0.0
 11
11043.771098286481
 21
1670.2448432277934
 31
0.0
  0
LINE
  5
1BE
330
17
100
AcDbEntity
  8
0
100
AcDbLine
 10
11043.771098286481
 20
1700.244843227786
 30
0.0
 11
11043.770010167154
 21
1748.2346158804949
 31
0.0
  0
LINE
  5
1BF
330
17
100
AcDbEntity
  8
0
100
AcDbLine
 10
11043.770010167154
 20
1754.7345809552944
 30
0.0
 11
11043.771098286481
 21
1796.2447854565971
 31
0.0
  0
LINE
  5
1C0
330
17
100
AcDbEntity
  8
0
100
AcDbLine
 10
11043.771098286481
 20
1826.2355896350955
 30
0.0
 11
11043.771098286481
 21
1832.24478546531
 31
0.0
  0
LINE
  5
1C1
330
17
100
AcDbEntity
  8
0
100
AcDbLine
 10
11546.269761808238
 20
2111.8281235576133
 30
0.0
 11
11554.269761808238
 21
2111.8281235576133
 31
0.0
  0
LINE
  5
1C2
330
17
100
AcDbEntity
  8
0
100
AcDbLine
 10
11546.269761808238
 20
2049.7447902242775
 30
0.0
 11
11554.269761808238
 21
2049.7447902242775
 31
0.0
  0
LINE
  5
1C3
330
17
100
AcDbEntity
  8
0
100
AcDbLine
 10
11546.269761808238
 20
2041.7447902242775
 30
0.0
 11
11546.269761808238
 21
2049.7447902242775
 31
0.0
  0
LINE
  5
1C4
330
17
100
AcDbEntity
  8
0
100
AcDbLine
 10
11546.269761808238
 20
2111.8281235576133
 30
0.0
 11
11546.269761808238
 21
2119.8281235576133
 31
0.0
  0
LINE
  5
1C5
330
17
100
AcDbEntity
  8
0
100
AcDbLine
 10
11554.269761808238
 20
2041.7447902242775
 30
0.0
 11
11554.269761808238
 21
2049.7447902242775
 31
0.0
  0
LINE
  5
1C6
330
17
100
AcDbEntity
  8
0
100
AcDbLine
 10
11554.269761808238
 20
2111.8281235576133
 30
0.0
 11
11554.269761808238
 21
2119.8281235576133
 31
0.0
  0
LINE
  5
1C7
330
17
100
AcDbEntity
  8
0
100
AcDbLine
 10
11640.269761808238
 20
2111.8281235576133
 30
0.0
 11
11632.269761808238
 21
2111.8281235576133
 31
0.0
  0
LINE
  5
1C8
330
17
100
AcDbEntity
  8
0
100
AcDbLine
 10
11640.269761808238
 20
2111.8281235576133
 30
0.0
 11
11640.269761808238
 21
2119.8281235576133
 31
0.0
  0
LINE
  5
1C9
330
17
100
AcDbEntity
  8
0
100
AcDbLine
 10
11632.269761808238
 20
2111.8281235576133
 30
0.0
 11
11632.269761808238
 21
2119.8281235576133
 31
0.0
  0
LINE
  5
1CA
330
17
100
AcDbEntity
  8
0
100
AcDbLine
 10
11023.271098286481
 20
1730.2447854653137
 30
0.0
 11
11023.271098286481
 21
1766.2447854653137
 31
0.0
  0
LINE
  5
1CB
330
17
100
AcDbEntity
  8
0
100
AcDbLine
 10
11023.271098286481
 20
1718.2447854653137
 30
0.0
 11
11037.275126178283
 21
1718.2447854653137
 31
0.0
  0
LINE
  5
1CC
330
17
100
AcDbEntity
  8
0
100
AcDbLine
 10
11023.271098286481
 20
1730.2447854653137
 30
0.0
 11
11037.271098286481
 21
1730.2447854653137
 31
0.0
  0
LINE
  5
1CD
330
17
100
AcDbEntity
  8
0
100
AcDbLine
 10
11023.271098286481
 20
1730.2447854653137
 30
0.0
 11
11023.271098286481
 21
1718.2447854653137
 31
0.0
  0
LINE
  5
1CE
330
17
100
AcDbEntity
  8
0
100
AcDbLine
 10
11023.271098286481
 20
1778.2447854653137
 30
0.0
 11
11037.272919537449
 21
1778.2447854653137
 31
0.0
  0
LINE
  5
1CF
330
17
100
AcDbEntity
  8
0
100
AcDbLine
 10
11023.271098286481
 20
1766.2447854653137
 30
0.0
 11
11037.271098286481
 21
1766.2447854653137
 31
0.0
  0
LINE
  5
1D0
330
17
100
AcDbEntity
  8
0
100
AcDbLine
 10
11023.271098286481
 20
1766.2447854653137
 30
0.0
 11
11023.271098286481
 21
1778.2447854653137
 31
0.0
  0
LINE
  5
1D1
330
17
100
AcDbEntity
  8
0
100
AcDbLine
 10
11424.390740343435
 20
2041.7447902242811
 30
0.0
 11
11424.390740343435
 21
2035.2447902242811
 31
0.0
  0
LINE
  5
1D2
330
17
100
AcDbEntity
  8
0
100
AcDbLine
 10
11460.390740343428
 20
2041.7447902242811
 30
0.0
 11
11460.390740343428
 21
2035.2447902242811
 31
0.0
  0
LINE
  5
1D3
330
17
100
AcDbEntity
  8
0
100
AcDbLine
 10
11025.268425329989
 20
2111.8281235576096
 30
0.0
 11
11017.268425329989
 21
2111.8281235576096
 31
0.0
  0
LINE
  5
1D4
330
17
100
AcDbEntity
  8
0
100
AcDbLine
 10
11025.268425329989
 20
2119.8281235576096
 30
0.0
 11
11025.268425329989
 21
2111.8281235576096
 31
0.0
  0
LINE
  5
1D5
330
17
100
AcDbEntity
  8
0
100
AcDbLine
 10
11017.268425329989
 20
2119.8281235576096
 30
0.0
 11
11017.268425329989
 21
2111.8281235576096
 31
0.0
  0
LINE
  5
1D6
330
17
100
AcDbEntity
  8
0
100
AcDbLine
 10
10931.268425329996
 20
2049.7447902242775
 30
0.0
 11
10931.268425329996
 21
2111.8281235576133
 31
0.0
  0
LINE
  5
1D7
330
17
100
AcDbEntity
  8
0
100
AcDbLine
 10
10939.268425330003
 20
2111.8281235576133
 30
0.0
 11
10939.268425329996
 21
2049.7447902242775
 31
0.0
  0
LINE
  5
1D8
330
17
100
AcDbEntity
  8
0
100
AcDbLine
 10
10931.268425329996
 20
2049.7447902242775
 30
0.0
 11
10939.268425329996
 21
2049.7447902242775
 31
0.0
  0
LINE
  5
1D9
330
17
100
AcDbEntity
  8
0
100
AcDbLine
 10
10931.268425329996
 20
2041.7447902242775
 30
0.0
 11
10931.268425329996
 21
2049.7447902242775
 31
0.0
  0
LINE
  5
1DA
330
17
100
AcDbEntity
  8
0
100
AcDbLine
 10
10939.268425329996
 20
2041.7447902242775
 30
0.0
 11
10939.268425329996
 21
2049.7447902242775
 31
0.0
  0
LINE
  5
1DB
330
17
100
AcDbEntity
  8
0
100
AcDbLine
 10
10931.268425329996
 20
2111.8281235576096
 30
0.0
 11
10939.268425329996
 21
2111.8281235576096
 31
0.0
  0
LINE
  5
1DC
330
17
100
AcDbEntity
  8
0
100
AcDbLine
 10
10931.268425329996
 20
2119.8281235576096
 30
0.0
 11
10931.268425329996
 21
2111.8281235576096
 31
0.0
  0
LINE
  5
1DD
330
17
100
AcDbEntity
  8
0
100
AcDbLine
 10
10939.268425329996
 20
2119.8281235576096
 30
0.0
 11
10939.268425329996
 21
2111.8281235576096
 31
0.0
  0
LINE
  5
1DE
330
17
100
AcDbEntity
  8
0
100
AcDbLine
 10
10994.268425329992
 20
2119.8281235576096
 30
0.0
 11
10994.268425329992
 21
2126.3281235576133
 31
0.0
  0
LINE
  5
1DF
330
17
100
AcDbEntity
  8
0
100
AcDbLine
 10
10962.268425329992
 20
2119.8281235576096
 30
0.0
 11
10962.268425329992
 21
2126.3281235576133
 31
0.0
  0
LINE
  5
1E0
330
17
100
AcDbEntity
  8
0
100
AcDbLine
 10
11011.268425329996
 20
2126.3281235576096
 30
0.0
 11
11011.268425329996
 21
2191.7865836047413
 31
0.0
  0
LINE
  5
1E1
330
17
100
AcDbEntity
  8
0
100
AcDbLine
 10
11011.268425329996
 20
2221.7865836047413
 30
0.0
 11
11011.268425329996
 21
2256.5781235565
 31
0.0
  0
LINE
  5
1E2
330
17
100
AcDbEntity
  8
0
100
AcDbLine
 10
11017.768425329996
 20
2126.3281235576096
 30
0.0
 11
11017.768425329996
 21
2191.7865836047413
 31
0.0
  0
LINE
  5
1E3
330
17
100
AcDbEntity
  8
0
100
AcDbLine
 10
11017.768425329996
 20
2221.7865836047413
 30
0.0
 11
11017.768425329996
 21
2258.5781235565
 31
0.0
  0
LINE
  5
1E4
330
17
100
AcDbEntity
  8
0
100
AcDbLine
 10
10945.268425329996
 20
2126.3281235576096
 30
0.0
 11
10945.268425329996
 21
2191.7865836047413
 31
0.0
  0
LINE
  5
1E5
330
17
100
AcDbEntity
  8
0
100
AcDbLine
 10
10945.268425329996
 20
2221.7865836047413
 30
0.0
 11
10945.268425329996
 21
2256.5781235565
 31
0.0
  0
LINE
  5
1E6
330
17
100
AcDbEntity
  8
0
100
AcDbLine
 10
10938.768425329996
 20
2126.3281235576096
 30
0.0
 11
10938.768425329992
 21
2173.2865836047413
 31
0.0
  0
LINE
  5
1E7
330
17
100
AcDbEntity
  8
0
100
AcDbLine
 10
10938.768425329996
 20
2221.7865836047413
 30
0.0
 11
10938.768425329996
 21
2260.077655835298
 31
0.0
  0
LINE
  5
1E8
330
17
100
AcDbEntity
  8
0
100
AcDbLine
 10
10806.0196042038
 20
2261.827243067414
 30
0.0
 11
10806.019604203844
 21
2250.827243067414
 31
0.0
  0
LINE
  5
1E9
330
17
100
AcDbEntity
  8
0
100
AcDbLine
 10
10770.019604203815
 20
2261.8272430672796
 30
0.0
 11
10770.019604203851
 21
2250.8272430672796
 31
0.0
  0
LINE
  5
1EA
330
17
100
AcDbEntity
  8
0
100
AcDbLine
 10
10725.519678241988
 20
2261.8272584852775
 30
0.0
 11
10725.519678242032
 21
2250.8272584852775
 31
0.0
  0
LINE
  5
1EB
330
17
100
AcDbEntity
  8
0
100
AcDbLine
 10
10689.519678242003
 20
2261.827258485143
 30
0.0
 11
10689.519678242039
 21
2250.827258485143
 31
0.0
  0
LINE
  5
1EC
330
17
100
AcDbEntity
  8
0
100
AcDbLine
 10
10858.766121515
 20
2344.5781235565037
 30
0.0
 11
10858.766121515
 21
2380.5781235565037
 31
0.0
  0
LINE
  5
1ED
330
17
100
AcDbEntity
  8
0
100
AcDbLine
 10
10858.766121515
 20
2326.5781235565037
 30
0.0
 11
10844.762093623198
 21
2326.5781235565037
 31
0.0
  0
LINE
  5
1EE
330
17
100
AcDbEntity
  8
0
100
AcDbLine
 10
10858.766121515
 20
2344.5781235565037
 30
0.0
 11
10844.766121515
 21
2344.5781235565037
 31
0.0
  0
LINE
  5
1EF
330
17
100
AcDbEntity
  8
0
100
AcDbLine
 10
10858.766121515
 20
2344.5781235565037
 30
0.0
 11
10858.766121515
 21
2326.5781235565037
 31
0.0
  0
LINE
  5
1F0
330
17
100
AcDbEntity
  8
0
100
AcDbLine
 10
10858.766121515
 20
2398.5781235565037
 30
0.0
 11
10844.762093623198
 21
2398.5781235565037
 31
0.0
  0
LINE
  5
1F1
330
17
100
AcDbEntity
  8
0
100
AcDbLine
 10
10858.766121515
 20
2380.5781235565037
 30
0.0
 11
10844.766121515
 21
2380.5781235565037
 31
0.0
  0
LINE
  5
1F2
330
17
100
AcDbEntity
  8
0
100
AcDbLine
 10
10858.766121515
 20
2380.5781235565037
 30
0.0
 11
10858.766121515
 21
2398.5781235565037
 31
0.0
  0
LINE
  5
1F3
330
17
100
AcDbEntity
  8
0
100
AcDbLine
 10
11005.268425329996
 20
2256.5781235565
 30
0.0
 11
11005.268425329996
 21
2266.5781235565037
 31
0.0
  0
LINE
  5
1F4
330
17
100
AcDbEntity
  8
0
100
AcDbLine
 10
10951.268425329996
 20
2256.5781235565
 30
0.0
 11
10951.268425329996
 21
2266.5781235565037
 31
0.0
  0
LINE
  5
1F5
330
17
100
AcDbEntity
  8
0
100
AcDbLine
 10
10951.268425329996
 20
2266.5781235565037
 30
0.0
 11
11005.268425329996
 21
2266.5781235565037
 31
0.0
  0
LINE
  5
1F6
330
17
100
AcDbEntity
  8
0
100
AcDbLine
 10
10951.268425329996
 20
2256.5781235565
 30
0.0
 11
11005.268425329996
 21
2256.5781235565
 31
0.0
  0
LINE
  5
1F7
330
17
100
AcDbEntity
  8
0
100
AcDbLine
 10
11011.268425329996
 20
2221.7865836047413
 30
0.0
 11
11017.768425329996
 21
2221.7865836047413
 31
0.0
  0
LINE
  5
1F8
330
17
100
AcDbEntity
  8
0
100
AcDbLine
 10
10945.268425329996
 20
2221.7865836047413
 30
0.0
 11
10938.768425329996
 21
2221.7865836047413
 31
0.0
  0
LINE
  5
1F9
330
17
100
AcDbEntity
  8
0
100
AcDbLine
 10
10729.328619007305
 20
2013.243486192121
 30
0.0
 11
10836.770207300971
 21
2013.2434861921201
 31
0.0
  0
LINE
  5
1FA
330
17
100
AcDbEntity
  8
0
100
AcDbLine
 10
11008.271507530695
 20
2033.751908492236
 30
0.0
 11
11008.271507530695
 21
2041.7534952076012
 31
0.0
  0
LINE
  5
1FB
330
17
100
AcDbEntity
  8
0
100
AcDbLine
 10
10948.269629851882
 20
2033.7447902242775
 30
0.0
 11
10948.26962985189
 21
2041.7579742506668
 31
0.0
  0
LINE
  5
1FC
330
17
100
AcDbEntity
  8
0
100
AcDbLine
 10
10948.26962985189
 20
2041.7579742506668
 30
0.0
 11
11008.271507530702
 21
2041.7573765005427
 31
0.0
  0
LINE
  5
1FD
330
17
100
AcDbEntity
  8
0
100
AcDbLine
 10
11400.267649760703
 20
1940.744787843235
 30
0.0
 11
11400.267649760703
 21
1919.744787843697
 31
0.0
  0
LINE
  5
1FE
330
17
100
AcDbEntity
  8
0
100
AcDbLine
 10
11400.267649760703
 20
1907.744787843697
 30
0.0
 11
11400.267649760703
 21
1893.7447878458943
 31
0.0
  0
LINE
  5
1FF
330
17
100
AcDbEntity
  8
0
100
AcDbLine
 10
11400.267649760703
 20
1881.7447878458943
 30
0.0
 11
11400.267649760703
 21
1860.7447878463563
 31
0.0
  0
LINE
  5
200
330
17
100
AcDbEntity
  8
0
100
AcDbLine
 10
11400.267649762769
 20
1893.7447878458943
 30
0.0
 11
11400.267649758636
 21
1907.744787843697
 31
0.0
  0
LINE
  5
201
330
17
100
AcDbEntity
  8
0
100
AcDbLine
 10
11404.267649758323
 20
1911.7447878439298
 30
0.0
 11
11404.267649757705
 21
1919.7447878439298
 31
0.0
  0
LINE
  5
202
330
17
100
AcDbEntity
  8
0
100
AcDbLine
 10
11432.265342113576
 20
1838.74478546531
 30
0.0
 11
11432.265342113576
 21
1842.7447878447956
 31
0.0
  0
LINE
  5
203
330
17
100
AcDbEntity
  8
0
100
AcDbLine
 10
11424.265342113584
 20
1848.7447878447883
 30
0.0
 11
11426.265342113584
 21
1848.7447878447883
 31
0.0
  0
ARC
  5
204
330
17
100
AcDbEntity
  8
0
100
AcDbCircle
 10
11432.265342113576
 20
1848.744787844792
 30
0.0
 40
5.999999999994316
100
AcDbArc
 50
180.0
 51
270.0
  0
LINE
  5
205
330
17
100
AcDbEntity
  8
0
100
AcDbLine
 10
11432.265342113576
 20
1962.7447902242811
 30
0.0
 11
11432.265342113576
 21
1958.7447878447956
 31
0.0
  0
LINE
  5
206
330
17
100
AcDbEntity
  8
0
100
AcDbLine
 10
11424.265342113584
 20
1952.7447878448029
 30
0.0
 11
11426.265342113584
 21
1952.7447878447992
 31
0.0
  0
ARC
  5
207
330
17
100
AcDbEntity
  8
0
100
AcDbCircle
 10
11432.265342113576
 20
1952.7447878447992
 30
0.0
 40
5.999999999994316
100
AcDbArc
 50
90.0
 51
180.0
  0
LINE
  5
208
330
17
100
AcDbEntity
  8
0
100
AcDbLine
 10
11424.265342113584
 20
1952.7447878448029
 30
0.0
 11
11424.265342113584
 21
1944.7447878448029
 31
0.0
  0
LINE
  5
209
330
17
100
AcDbEntity
  8
0
100
AcDbLine
 10
11424.265342113584
 20
1944.7447878448029
 30
0.0
 11
11422.265342113584
 21
1944.7447878448029
 31
0.0
  0
LINE
  5
20A
330
17
100
AcDbEntity
  8
0
100
AcDbLine
 10
11422.265342113584
 20
1944.7447878448029
 30
0.0
 11
11422.265342113584
 21
1936.7447878448029
 31
0.0
  0
LINE
  5
20B
330
17
100
AcDbEntity
  8
0
100
AcDbLine
 10
11415.765342113584
 20
1936.7447878448029
 30
0.0
 11
11415.765342113584
 21
1940.7447878448029
 31
0.0
  0
LINE
  5
20C
330
17
100
AcDbEntity
  8
0
100
AcDbLine
 10
11415.765342113584
 20
1940.7447878448029
 30
0.0
 11
11400.26764975577
 21
1940.744787843235
 31
0.0
  0
LINE
  5
20D
330
17
100
AcDbEntity
  8
0
100
AcDbLine
 10
11415.765342113584
 20
1936.7447878448029
 30
0.0
 11
11413.765342113584
 21
1936.7447878448029
 31
0.0
  0
LINE
  5
20E
330
17
100
AcDbEntity
  8
0
100
AcDbLine
 10
11413.765342113584
 20
1936.7447878448029
 30
0.0
 11
11413.765342113584
 21
1926.2447878448029
 31
0.0
  0
LINE
  5
20F
330
17
100
AcDbEntity
  8
0
100
AcDbLine
 10
11413.765342113584
 20
1926.2447878448029
 30
0.0
 11
11424.265342113584
 21
1926.2447878448029
 31
0.0
  0
LINE
  5
210
330
17
100
AcDbEntity
  8
0
100
AcDbLine
 10
11424.265342113584
 20
1926.2447878448029
 30
0.0
 11
11424.265342113584
 21
1936.7447878448029
 31
0.0
  0
LINE
  5
211
330
17
100
AcDbEntity
  8
0
100
AcDbLine
 10
11424.265342113584
 20
1936.7447878448029
 30
0.0
 11
11422.265342113584
 21
1936.7447878448029
 31
0.0
  0
LINE
  5
212
330
17
100
AcDbEntity
  8
0
100
AcDbLine
 10
11424.265342113584
 20
1848.7447878447883
 30
0.0
 11
11424.265342113584
 21
1856.7447878447883
 31
0.0
  0
LINE
  5
213
330
17
100
AcDbEntity
  8
0
100
AcDbLine
 10
11424.265342113584
 20
1856.7447878447883
 30
0.0
 11
11422.265342113584
 21
1856.7447878447883
 31
0.0
  0
LINE
  5
214
330
17
100
AcDbEntity
  8
0
100
AcDbLine
 10
11422.265342113584
 20
1856.7447878447883
 30
0.0
 11
11422.265342113584
 21
1864.7447878447883
 31
0.0
  0
LINE
  5
215
330
17
100
AcDbEntity
  8
0
100
AcDbLine
 10
11415.765342113584
 20
1864.7447878447883
 30
0.0
 11
11415.765342113584
 21
1860.7447878447883
 31
0.0
  0
LINE
  5
216
330
17
100
AcDbEntity
  8
0
100
AcDbLine
 10
11415.765342113584
 20
1860.7447878447883
 30
0.0
 11
11400.267649755762
 21
1860.7447878463563
 31
0.0
  0
LINE
  5
217
330
17
100
AcDbEntity
  8
0
100
AcDbLine
 10
11415.765342113584
 20
1864.7447878447883
 30
0.0
 11
11413.765342113584
 21
1864.7447878447883
 31
0.0
  0
LINE
  5
218
330
17
100
AcDbEntity
  8
0
100
AcDbLine
 10
11413.765342113584
 20
1864.7447878447883
 30
0.0
 11
11413.765342113584
 21
1875.2447878447883
 31
0.0
  0
LINE
  5
219
330
17
100
AcDbEntity
  8
0
100
AcDbLine
 10
11413.765342113584
 20
1875.2447878447883
 30
0.0
 11
11424.265342113584
 21
1875.2447878447883
 31
0.0
  0
LINE
  5
21A
330
17
100
AcDbEntity
  8
0
100
AcDbLine
 10
11424.265342113584
 20
1875.2447878447883
 30
0.0
 11
11424.265342113584
 21
1864.7447878447883
 31
0.0
  0
LINE
  5
21B
330
17
100
AcDbEntity
  8
0
100
AcDbLine
 10
11424.265342113584
 20
1864.7447878447883
 30
0.0
 11
11422.265342113584
 21
1864.7447878447883
 31
0.0
  0
LINE
  5
21C
330
17
100
AcDbEntity
  8
0
100
AcDbLine
 10
11421.265342113584
 20
1926.2447878448029
 30
0.0
 11
11421.265342113584
 21
1875.2447878447883
 31
0.0
  0
LINE
  5
21D
330
17
100
AcDbEntity
  8
0
100
AcDbLine
 10
11404.267649757705
 20
1919.7447878439298
 30
0.0
 11
11400.267649757705
 21
1919.744787843697
 31
0.0
  0
LINE
  5
21E
330
17
100
AcDbEntity
  8
0
100
AcDbLine
 10
11404.267649758323
 20
1911.7447878439298
 30
0.0
 11
11402.267649758323
 21
1911.7447878437733
 31
0.0
  0
LINE
  5
21F
330
17
100
AcDbEntity
  8
0
100
AcDbLine
 10
11404.267649758316
 20
1889.7447878456614
 30
0.0
 11
11404.267649757698
 21
1881.7447878456614
 31
0.0
  0
LINE
  5
220
330
17
100
AcDbEntity
  8
0
100
AcDbLine
 10
11404.267649757698
 20
1881.7447878456614
 30
0.0
 11
11400.2676497637
 21
1881.7447878458943
 31
0.0
  0
LINE
  5
221
330
17
100
AcDbEntity
  8
0
100
AcDbLine
 10
11404.267649758316
 20
1889.7447878456614
 30
0.0
 11
11402.267649758316
 21
1889.7447878458142
 31
0.0
  0
LINE
  5
222
330
17
100
AcDbEntity
  8
0
100
AcDbLine
 10
11402.267649758323
 20
1911.7447878437733
 30
0.0
 11
11402.267649758323
 21
1907.7447878437733
 31
0.0
  0
LINE
  5
223
330
17
100
AcDbEntity
  8
0
100
AcDbLine
 10
11402.267649758323
 20
1907.7447878437733
 30
0.0
 11
11400.267649758636
 21
1907.744787843697
 31
0.0
  0
LINE
  5
224
330
17
100
AcDbEntity
  8
0
100
AcDbLine
 10
11402.267649758316
 20
1889.7447878458142
 30
0.0
 11
11402.267649758316
 21
1893.7447878458142
 31
0.0
  0
LINE
  5
225
330
17
100
AcDbEntity
  8
0
100
AcDbLine
 10
11402.267649758316
 20
1893.7447878458142
 30
0.0
 11
11400.267649758629
 21
1893.7447878458943
 31
0.0
  0
LINE
  5
226
330
17
100
AcDbEntity
  8
0
100
AcDbLine
 10
11404.267649758323
 20
1911.7447878439298
 30
0.0
 11
11404.267649753558
 21
1889.7447878456614
 31
0.0
  0
LINE
  5
227
330
17
100
AcDbEntity
  8
0
100
AcDbLine
 10
11402.267649758316
 20
1893.7447878458142
 30
0.0
 11
11402.267649758323
 21
1907.7447878437733
 31
0.0
  0
LINE
  5
228
330
17
100
AcDbEntity
  8
0
100
AcDbLine
 10
11432.265342113576
 20
1958.744787844792
 30
0.0
 11
11432.265342113576
 21
1842.7447878447956
 31
0.0
  0
LINE
  5
229
330
17
100
AcDbEntity
  8
0
100
AcDbLine
 10
11014.150867202465
 20
1906.2516892460071
 30
0.0
 11
11016.150867202465
 21
1906.2516892460071
 31
0.0
  0
LINE
  5
22A
330
17
100
AcDbEntity
  8
0
100
AcDbLine
 10
11018.650867202465
 20
1906.2516892460071
 30
0.0
 11
11020.650867202465
 21
1906.2516892460071
 31
0.0
  0
LINE
  5
22B
330
17
100
AcDbEntity
  8
0
100
AcDbLine
 10
11016.150867202465
 20
1906.2516892460071
 30
0.0
 11
11016.150867202465
 21
1878.2516892460071
 31
0.0
  0
LINE
  5
22C
330
17
100
AcDbEntity
  8
0
100
AcDbLine
 10
11016.150867202465
 20
1878.2516892460071
 30
0.0
 11
11018.650867202465
 21
1878.2516892460071
 31
0.0
  0
LINE
  5
22D
330
17
100
AcDbEntity
  8
0
100
AcDbLine
 10
11018.650867202465
 20
1878.2516892460071
 30
0.0
 11
11018.650867202465
 21
1906.2516892460071
 31
0.0
  0
LINE
  5
22E
330
17
100
AcDbEntity
  8
0
100
AcDbLine
 10
11014.041246562607
 20
1966.2516892460071
 30
0.0
 11
11016.041246562607
 21
1966.2516892460071
 31
0.0
  0
LINE
  5
22F
330
17
100
AcDbEntity
  8
0
100
AcDbLine
 10
11018.541246562607
 20
1966.2516892460071
 30
0.0
 11
11020.541246562607
 21
1966.2516892460071
 31
0.0
  0
LINE
  5
230
330
17
100
AcDbEntity
  8
0
100
AcDbLine
 10
11016.041246562607
 20
1966.2516892460071
 30
0.0
 11
11016.041246562607
 21
1994.2516892460071
 31
0.0
  0
LINE
  5
231
330
17
100
AcDbEntity
  8
0
100
AcDbLine
 10
11016.041246562607
 20
1994.2516892460071
 30
0.0
 11
11018.541246562607
 21
1994.2516892460071
 31
0.0
  0
LINE
  5
232
330
17
100
AcDbEntity
  8
0
100
AcDbLine
 10
11018.541246562607
 20
1994.2516892460071
 30
0.0
 11
11018.541246562607
 21
1966.2516892460071
 31
0.0
  0
LINE
  5
233
330
17
100
AcDbEntity
  8
0
100
AcDbLine
 10
11374.769299119922
 20
1910.2447902242775
 30
0.0
 11
11390.769299119922
 21
1932.2447902242775
 31
0.0
  0
LINE
  5
234
330
17
100
AcDbEntity
  8
0
100
AcDbLine
 10
11390.769299119922
 20
1910.2447902242775
 30
0.0
 11
11374.769299119922
 21
1932.2447902242775
 31
0.0
  0
LINE
  5
235
330
17
100
AcDbEntity
  8
0
100
AcDbLine
 10
11529.648115033924
 20
2041.7447902242811
 30
0.0
 11
11529.648115033924
 21
2035.2447902242811
 31
0.0
  0
LINE
  5
236
330
17
100
AcDbEntity
  8
0
100
AcDbLine
 10
11493.64811505314
 20
2041.7452057179134
 30
0.0
 11
11493.64811505314
 21
2035.2452057179134
 31
0.0
  0
LINE
  5
237
330
17
100
AcDbEntity
  8
0
100
AcDbLine
 10
10942.269695031937
 20
1906.2516892460071
 30
0.0
 11
10940.269695031937
 21
1906.2516892460071
 31
0.0
  0
LINE
  5
238
330
17
100
AcDbEntity
  8
0
100
AcDbLine
 10
10937.769695031937
 20
1906.2516892460071
 30
0.0
 11
10935.769695031937
 21
1906.2516892460071
 31
0.0
  0
LINE
  5
239
330
17
100
AcDbEntity
  8
0
100
AcDbLine
 10
10940.269695031937
 20
1906.2516892460071
 30
0.0
 11
10940.269695031937
 21
1878.2516892460071
 31
0.0
  0
LINE
  5
23A
330
17
100
AcDbEntity
  8
0
100
AcDbLine
 10
10940.269695031937
 20
1878.2516892460071
 30
0.0
 11
10937.769695031937
 21
1878.2516892460071
 31
0.0
  0
LINE
  5
23B
330
17
100
AcDbEntity
  8
0
100
AcDbLine
 10
10937.769695031937
 20
1878.2516892460071
 30
0.0
 11
10937.769695031937
 21
1906.2516892460071
 31
0.0
  0
LINE
  5
23C
330
17
100
AcDbEntity
  8
0
100
AcDbLine
 10
10942.269726575454
 20
1966.2516892460071
 30
0.0
 11
10940.269726575454
 21
1966.2516892460071
 31
0.0
  0
LINE
  5
23D
330
17
100
AcDbEntity
  8
0
100
AcDbLine
 10
10937.769726575454
 20
1966.2516892460071
 30
0.0
 11
10935.769726575454
 21
1966.2516892460071
 31
0.0
  0
LINE
  5
23E
330
17
100
AcDbEntity
  8
0
100
AcDbLine
 10
10940.269726575454
 20
1966.2516892460071
 30
0.0
 11
10940.269726575454
 21
1994.2516892460071
 31
0.0
  0
LINE
  5
23F
330
17
100
AcDbEntity
  8
0
100
AcDbLine
 10
10940.269726575454
 20
1994.2516892460071
 30
0.0
 11
10937.769726575454
 21
1994.2516892460071
 31
0.0
  0
LINE
  5
240
330
17
100
AcDbEntity
  8
0
100
AcDbLine
 10
10937.769726575454
 20
1994.2516892460071
 30
0.0
 11
10937.769726575454
 21
1966.2516892460071
 31
0.0
  0
LINE
  5
241
330
17
100
AcDbEntity
  8
0
100
AcDbLine
 10
11111.76931631549
 20
1965.5085906472223
 30
0.0
 11
11099.76931631549
 21
1953.5085906472223
 31
0.0
  0
LINE
  5
242
330
17
100
AcDbEntity
  8
0
100
AcDbLine
 10
11106.76931631549
 20
1973.6793679059474
 30
0.0
 11
11090.76931631549
 21
2001.6793679059474
 31
0.0
  0
LINE
  5
243
330
17
100
AcDbEntity
  8
0
100
AcDbLine
 10
11090.76931631549
 20
1973.6793679059474
 30
0.0
 11
11106.76931631549
 21
2001.6793679059474
 31
0.0
  0
LINE
  5
244
330
17
100
AcDbEntity
  8
0
100
AcDbLine
 10
11020.732869153879
 20
2010.8501451646725
 30
0.0
 11
11087.769316315484
 21
2010.8501451646725
 31
0.0
  0
LINE
  5
245
330
17
100
AcDbEntity
  8
0
100
AcDbLine
 10
11075.76933383441
 20
1965.5085906472223
 30
0.0
 11
11087.76933383441
 21
1953.5085906472223
 31
0.0
  0
LINE
  5
246
330
17
100
AcDbEntity
  8
0
100
AcDbLine
 10
11111.76931631549
 20
1893.5085906472223
 30
0.0
 11
11099.76931631549
 21
1905.5085906472223
 31
0.0
  0
LINE
  5
247
330
17
100
AcDbEntity
  8
0
100
AcDbLine
 10
11075.76933383441
 20
1893.5085906472223
 30
0.0
 11
11087.76933383441
 21
1905.5085906472223
 31
0.0
  0
LINE
  5
248
330
17
100
AcDbEntity
  8
0
100
AcDbLine
 10
10724.828619007305
 20
2083.6805089379186
 30
0.0
 11
10724.828619007305
 21
2100.1805089379186
 31
0.0
  0
LINE
  5
249
330
17
100
AcDbEntity
  8
0
100
AcDbLine
 10
10729.328619007305
 20
2094.1805089379186
 30
0.0
 11
10729.328619007305
 21
2100.1805089379186
 31
0.0
  0
LINE
  5
24A
330
17
100
AcDbEntity
  8
0
100
AcDbLine
 10
10836.770207300971
 20
2089.6805089379186
 30
0.0
 11
10732.828619007305
 21
2089.6805089379186
 31
0.0
  0
LINE
  5
24B
330
17
100
AcDbEntity
  8
0
100
AcDbLine
 10
10836.770207300971
 20
2094.1805089379195
 30
0.0
 11
10729.328619007305
 21
2094.1805089379186
 31
0.0
  0
LINE
  5
24C
330
17
100
AcDbEntity
  8
0
100
AcDbLine
 10
10729.328619007305
 20
2037.1805089379186
 30
0.0
 11
10729.328619007305
 21
2013.2434861921201
 31
0.0
  0
LINE
  5
24D
330
17
100
AcDbEntity
  8
0
100
AcDbLine
 10
10836.770207300971
 20
2041.6805089379186
 30
0.0
 11
10812.799413154142
 21
2041.6805089379186
 31
0.0
  0
LINE
  5
24E
330
17
100
AcDbEntity
  8
0
100
AcDbLine
 10
10756.799413154142
 20
2041.6805089379186
 30
0.0
 11
10732.828619007305
 21
2041.6805089379186
 31
0.0
  0
LINE
  5
24F
330
17
100
AcDbEntity
  8
0
100
AcDbLine
 10
10836.770207300971
 20
2037.1805089379186
 30
0.0
 11
10812.799413154142
 21
2037.1805089379186
 31
0.0
  0
LINE
  5
250
330
17
100
AcDbEntity
  8
0
100
AcDbLine
 10
10756.799413154142
 20
2037.1805089379186
 30
0.0
 11
10729.328619007305
 21
2037.1805089379186
 31
0.0
  0
LINE
  5
251
330
17
100
AcDbEntity
  8
0
100
AcDbLine
 10
10812.799413154142
 20
2037.1805089379186
 30
0.0
 11
10812.799413154142
 21
2041.6805089379186
 31
0.0
  0
LINE
  5
252
330
17
100
AcDbEntity
  8
0
100
AcDbLine
 10
10756.799413154142
 20
2037.1805089379186
 30
0.0
 11
10756.799413154142
 21
2041.6805089379186
 31
0.0
  0
LINE
  5
253
330
17
100
AcDbEntity
  8
0
100
AcDbLine
 10
10732.828619007305
 20
2041.6805089379186
 30
0.0
 11
10732.828619007305
 21
2047.6805089379186
 31
0.0
  0
LINE
  5
254
330
17
100
AcDbEntity
  8
0
100
AcDbLine
 10
10732.828619007305
 20
2083.6805089379186
 30
0.0
 11
10732.828619007305
 21
2089.6805089379186
 31
0.0
  0
LINE
  5
255
330
17
100
AcDbEntity
  8
0
100
AcDbLine
 10
10732.828619007305
 20
2047.6805089379186
 30
0.0
 11
10724.828619007305
 21
2047.6805089379186
 31
0.0
  0
LINE
  5
256
330
17
100
AcDbEntity
  8
0
100
AcDbLine
 10
10732.828619007305
 20
2083.6805089379186
 30
0.0
 11
10724.828619007305
 21
2083.6805089379186
 31
0.0
  0
LINE
  5
257
330
17
100
AcDbEntity
  8
0
100
AcDbLine
 10
10732.828619007305
 20
2083.6805089379186
 30
0.0
 11
10732.828619007305
 21
2047.6805089379186
 31
0.0
  0
LINE
  5
258
330
17
100
AcDbEntity
  8
0
100
AcDbLine
 10
10724.828619007305
 20
2083.6805089379186
 30
0.0
 11
10724.828619007305
 21
2047.6805089379186
 31
0.0
  0
LINE
  5
259
330
17
100
AcDbEntity
  8
0
100
AcDbLine
 10
11720.266643359035
 20
1916.744764834758
 30
0.0
 11
11720.266643359035
 21
2037.74478546531
 31
0.0
  0
LINE
  5
25A
330
17
100
AcDbEntity
  8
0
100
AcDbLine
 10
11720.266643359035
 20
2037.74478546531
 30
0.0
 11
11726.76931631549
 21
2037.74478546531
 31
0.0
  0
LINE
  5
25B
330
17
100
AcDbEntity
  8
0
100
AcDbLine
 10
11806.018582934375
 20
2250.8272430939933
 30
0.0
 11
11806.018590406624
 21
2233.8272562452357
 31
0.0
  0
LINE
  5
25C
330
17
100
AcDbEntity
  8
0
100
AcDbLine
 10
11841.518512793831
 20
2250.8272430939933
 30
0.0
 11
11841.518505321583
 21
2233.827266699768
 31
0.0
  0
LINE
  5
25D
330
17
100
AcDbEntity
  8
0
100
AcDbLine
 10
11726.820266552284
 20
2225.488738859788
 30
0.0
 11
11726.85291675759
 21
2183.4887536658453
 31
0.0
  0
LINE
  5
25E
330
17
100
AcDbEntity
  8
0
100
AcDbLine
 10
11757.328241387571
 20
2225.494566572018
 30
0.0
 11
11757.360891592885
 21
2183.4945813780787
 31
0.0
  0
LINE
  5
25F
330
17
100
AcDbEntity
  8
0
100
AcDbLine
 10
11733.284605600471
 20
2183.453278375825
 30
0.0
 11
11757.284605600456
 21
2183.4533849405225
 31
0.0
  0
LINE
  5
260
330
17
100
AcDbEntity
  8
0
100
AcDbLine
 10
11757.284605600456
 20
2183.4533849405225
 30
0.0
 11
11757.284605600456
 21
2178.9533849405225
 31
0.0
  0
LINE
  5
261
330
17
100
AcDbEntity
  8
0
100
AcDbLine
 10
11757.284605600456
 20
2178.9533849405225
 30
0.0
 11
11733.272922002827
 21
2178.9533849405225
 31
0.0
  0
LINE
  5
262
330
17
100
AcDbEntity
  8
0
100
AcDbLine
 10
11733.284605600471
 20
2225.453278375825
 30
0.0
 11
11757.272929326682
 21
2225.4533458395517
 31
0.0
  0
LINE
  5
263
330
17
100
AcDbEntity
  8
0
100
AcDbLine
 10
11757.272929326682
 20
2225.4533458395517
 30
0.0
 11
11757.272929326682
 21
2229.9533458395517
 31
0.0
  0
LINE
  5
264
330
17
100
AcDbEntity
  8
0
100
AcDbLine
 10
11757.272929326682
 20
2229.9533458395517
 30
0.0
 11
11757.272922002827
 21
2250.82724027942
 31
0.0
  0
LINE
  5
265
330
17
100
AcDbEntity
  8
0
100
AcDbLine
 10
11550.765342113576
 20
1930.7447878447956
 30
0.0
 11
11552.765342113576
 21
1930.7447878447956
 31
0.0
  0
LINE
  5
266
330
17
100
AcDbEntity
  8
0
100
AcDbLine
 10
11555.265342113576
 20
1930.7447878447956
 30
0.0
 11
11557.265342113576
 21
1930.7447878447956
 31
0.0
  0
LINE
  5
267
330
17
100
AcDbEntity
  8
0
100
AcDbLine
 10
11552.765342113576
 20
1930.7447878447956
 30
0.0
 11
11552.765342113576
 21
1958.7447878447956
 31
0.0
  0
LINE
  5
268
330
17
100
AcDbEntity
  8
0
100
AcDbLine
 10
11552.765342113576
 20
1958.7447878447956
 30
0.0
 11
11555.265342113576
 21
1958.7447878447956
 31
0.0
  0
LINE
  5
269
330
17
100
AcDbEntity
  8
0
100
AcDbLine
 10
11555.265342113576
 20
1958.7447878447956
 30
0.0
 11
11555.265342113576
 21
1930.7447878447956
 31
0.0
  0
LINE
  5
26A
330
17
100
AcDbEntity
  8
0
100
AcDbLine
 10
10585.769316315484
 20
1609.7458296907957
 30
0.0
 11
10596.769316315484
 21
1609.7458296907957
 31
0.0
  0
LINE
  5
26B
330
17
100
AcDbEntity
  8
0
100
AcDbLine
 10
10596.769316315484
 20
1609.7458296907957
 30
0.0
 11
10596.769316315484
 21
1596.7449387053225
 31
0.0
  0
LINE
  5
26C
330
17
100
AcDbEntity
  8
0
100
AcDbLine
 10
10596.769316315484
 20
1596.7449387053225
 30
0.0
 11
10645.500671377515
 21
1596.7449387053225
 31
0.0
  0
LINE
  5
26D
330
17
100
AcDbEntity
  8
0
100
AcDbLine
 10
10634.500671377515
 20
1585.7449387053225
 30
0.0
 11
10585.769316315484
 21
1585.7449387053225
 31
0.0
  0
LINE
  5
26E
330
17
100
AcDbEntity
  8
0
100
AcDbLine
 10
10585.769316315484
 20
1585.7449387053225
 30
0.0
 11
10585.769316315484
 21
1609.7458296907957
 31
0.0
  0
LINE
  5
26F
330
17
100
AcDbEntity
  8
0
100
AcDbLine
 10
10799.037961253467
 20
1585.7449387053225
 30
0.0
 11
10847.769316315484
 21
1585.7449387053225
 31
0.0
  0
LINE
  5
270
330
17
100
AcDbEntity
  8
0
100
AcDbLine
 10
10847.769316315484
 20
1585.7449387053225
 30
0.0
 11
10847.769316315484
 21
1653.2448432190731
 31
0.0
  0
LINE
  5
271
330
17
100
AcDbEntity
  8
0
100
AcDbLine
 10
10836.770207300971
 20
1653.2448432190731
 30
0.0
 11
10836.770207300971
 21
1596.7449387053225
 31
0.0
  0
LINE
  5
272
330
17
100
AcDbEntity
  8
0
100
AcDbLine
 10
10836.770207300971
 20
1596.7449387053225
 30
0.0
 11
10788.037961253467
 21
1596.7449387053225
 31
0.0
  0
LINE
  5
273
330
17
100
AcDbEntity
  8
0
100
AcDbLine
 10
11974.766643359035
 20
1609.7458296907957
 30
0.0
 11
11985.766643359035
 21
1609.7458296907957
 31
0.0
  0
LINE
  5
274
330
17
100
AcDbEntity
  8
0
100
AcDbLine
 10
11985.766643359035
 20
1609.7458296907957
 30
0.0
 11
11985.766643359035
 21
1585.7449387053225
 31
0.0
  0
LINE
  5
275
330
17
100
AcDbEntity
  8
0
100
AcDbLine
 10
11985.766643359035
 20
1585.7449387053225
 30
0.0
 11
11937.036179282499
 21
1585.7449387053225
 31
0.0
  0
LINE
  5
276
330
17
100
AcDbEntity
  8
0
100
AcDbLine
 10
11926.036179282499
 20
1596.7449387053225
 30
0.0
 11
11974.766643359035
 21
1596.7449387053225
 31
0.0
  0
LINE
  5
277
330
17
100
AcDbEntity
  8
0
100
AcDbLine
 10
11974.766643359035
 20
1596.7449387053225
 30
0.0
 11
11974.766643359035
 21
1609.7458296907957
 31
0.0
  0
LINE
  5
278
330
17
100
AcDbEntity
  8
0
100
AcDbLine
 10
11723.766643359035
 20
1653.2448432190731
 30
0.0
 11
11723.766643359035
 21
1585.7449387053225
 31
0.0
  0
LINE
  5
279
330
17
100
AcDbEntity
  8
0
100
AcDbLine
 10
11723.766643359035
 20
1585.7449387053225
 30
0.0
 11
11772.498889406546
 21
1585.7449387053225
 31
0.0
  0
LINE
  5
27A
330
17
100
AcDbEntity
  8
0
100
AcDbLine
 10
11783.498889406546
 20
1596.7449302894042
 30
0.0
 11
11734.766629232785
 21
1596.7449052906509
 31
0.0
  0
LINE
  5
27B
330
17
100
AcDbEntity
  8
0
100
AcDbLine
 10
11734.766629232785
 20
1596.7449052906509
 30
0.0
 11
11734.766629232785
 21
1653.2448432190731
 31
0.0
  0
LINE
  5
27C
330
17
100
AcDbEntity
  8
0
100
AcDbLine
 10
10724.828619007305
 20
2013.2434861921201
 30
0.0
 11
10724.828619007305
 21
2047.6805089379186
 31
0.0
  0
LINE
  5
27D
330
17
100
AcDbEntity
  8
0
100
AcDbLine
 10
11920.863938782903
 20
2119.827985555312
 30
0.0
 11
11912.859136569263
 21
2119.828123557493
 31
0.0
  0
LINE
  5
27E
330
17
100
AcDbEntity
  8
0
100
AcDbLine
 10
10836.766121515
 20
2250.827291059336
 30
0.0
 11
10806.019604203844
 21
2250.82729135733
 31
0.0
  0
LINE
  5
27F
330
17
100
AcDbEntity
  8
0
100
AcDbLine
 10
11043.771098286481
 20
1796.2447854565971
 30
0.0
 11
11041.771098286481
 21
1796.2447854565971
 31
0.0
  0
LINE
  5
280
330
17
100
AcDbEntity
  8
0
100
AcDbLine
 10
11039.271098286481
 20
1796.2447854565971
 30
0.0
 11
11037.271098286481
 21
1796.2447854565971
 31
0.0
  0
LINE
  5
281
330
17
100
AcDbEntity
  8
0
100
AcDbLine
 10
11041.771098286481
 20
1796.2447854565971
 30
0.0
 11
11041.771098286481
 21
1768.2447854565971
 31
0.0
  0
LINE
  5
282
330
17
100
AcDbEntity
  8
0
100
AcDbLine
 10
11041.771098286481
 20
1768.2447854565971
 30
0.0
 11
11039.271098286481
 21
1768.2447854565971
 31
0.0
  0
LINE
  5
283
330
17
100
AcDbEntity
  8
0
100
AcDbLine
 10
11039.271098286481
 20
1768.2447854565971
 30
0.0
 11
11039.271098286481
 21
1796.2447854565971
 31
0.0
  0
LINE
  5
284
330
17
100
AcDbEntity
  8
0
100
AcDbLine
 10
11686.406003791388
 20
1832.24478546531
 30
0.0
 11
11686.406003791388
 21
1834.24478546531
 31
0.0
  0
LINE
  5
285
330
17
100
AcDbEntity
  8
0
100
AcDbLine
 10
11686.406003791388
 20
1836.74478546531
 30
0.0
 11
11686.406003791388
 21
1838.74478546531
 31
0.0
  0
LINE
  5
286
330
17
100
AcDbEntity
  8
0
100
AcDbLine
 10
11686.406003791388
 20
1834.24478546531
 30
0.0
 11
11714.406003791388
 21
1834.24478546531
 31
0.0
  0
LINE
  5
287
330
17
100
AcDbEntity
  8
0
100
AcDbLine
 10
11714.406003791388
 20
1834.24478546531
 30
0.0
 11
11714.406003791388
 21
1836.74478546531
 31
0.0
  0
LINE
  5
288
330
17
100
AcDbEntity
  8
0
100
AcDbLine
 10
11714.406003791388
 20
1836.74478546531
 30
0.0
 11
11686.406003791388
 21
1836.74478546531
 31
0.0
  0
LINE
  5
289
330
17
100
AcDbEntity
  8
0
100
AcDbLine
 10
11656.406003791388
 20
1838.74478546531
 30
0.0
 11
11656.406003791388
 21
1832.24478546531
 31
0.0
  0
LINE
  5
28A
330
17
100
AcDbEntity
  8
0
100
AcDbLine
 10
11733.272922002827
 20
2154.738120037079
 30
0.0
 11
11808.073776657555
 21
2154.740928655522
 31
0.0
  0
LINE
  5
28B
330
17
100
AcDbEntity
  8
0
100
AcDbLine
 10
11838.073776657555
 20
2154.7420284060745
 30
0.0
 11
11912.86265879863
 21
2154.744703500818
 31
0.0
  0
LINE
  5
28C
330
17
100
AcDbEntity
  8
0
100
AcDbLine
 10
11734.766643359035
 20
2148.2381747900718
 30
0.0
 11
11808.073776657555
 21
2148.2409286511565
 31
0.0
  0
LINE
  5
28D
330
17
100
AcDbEntity
  8
0
100
AcDbLine
 10
11838.07365752291
 20
2148.2420283974443
 30
0.0
 11
11845.362897077917
 21
2148.242289123469
 31
0.0
  0
LINE
  5
28E
330
17
100
AcDbEntity
  8
0
100
AcDbLine
 10
11838.07365752291
 20
2154.7420284017053
 30
0.0
 11
11838.07365752291
 21
2152.7420284017053
 31
0.0
  0
LINE
  5
28F
330
17
100
AcDbEntity
  8
0
100
AcDbLine
 10
11838.07365752291
 20
2150.2420284017053
 30
0.0
 11
11838.07365752291
 21
2148.2409286511565
 31
0.0
  0
LINE
  5
290
330
17
100
AcDbEntity
  8
0
100
AcDbLine
 10
11838.07365752291
 20
2152.7420284017053
 30
0.0
 11
11866.07365752291
 21
2152.7420284017053
 31
0.0
  0
LINE
  5
291
330
17
100
AcDbEntity
  8
0
100
AcDbLine
 10
11866.07365752291
 20
2152.7420284017053
 30
0.0
 11
11866.07365752291
 21
2150.2420284017053
 31
0.0
  0
LINE
  5
292
330
17
100
AcDbEntity
  8
0
100
AcDbLine
 10
11866.07365752291
 20
2150.2420284017053
 30
0.0
 11
11838.07365752291
 21
2150.2420284017053
 31
0.0
  0
LINE
  5
293
330
17
100
AcDbEntity
  8
0
100
AcDbLine
 10
11808.07365752291
 20
2154.7420284017053
 30
0.0
 11
11808.07365752291
 21
2148.2420284017053
 31
0.0
  0
LINE
  5
294
330
17
100
AcDbEntity
  8
0
100
AcDbLine
 10
10938.768425329989
 20
2191.7865836047413
 30
0.0
 11
10940.768425329996
 21
2191.7865836047413
 31
0.0
  0
LINE
  5
295
330
17
100
AcDbEntity
  8
0
100
AcDbLine
 10
10943.268425329996
 20
2191.7865836047413
 30
0.0
 11
10945.268425329996
 21
2191.7865836047413
 31
0.0
  0
LINE
  5
296
330
17
100
AcDbEntity
  8
0
100
AcDbLine
 10
10940.768425329996
 20
2191.7865836047413
 30
0.0
 11
10940.768425329989
 21
2163.7865836047413
 31
0.0
  0
LINE
  5
297
330
17
100
AcDbEntity
  8
0
100
AcDbLine
 10
10940.768425329989
 20
2163.7865836047413
 30
0.0
 11
10943.268425329989
 21
2163.7865836047413
 31
0.0
  0
LINE
  5
298
330
17
100
AcDbEntity
  8
0
100
AcDbLine
 10
10943.268425329989
 20
2163.7865836047413
 30
0.0
 11
10943.268425329996
 21
2191.7865836047413
 31
0.0
  0
LINE
  5
299
330
17
100
AcDbEntity
  8
0
100
AcDbLine
 10
11011.268425329996
 20
2191.7865836047413
 30
0.0
 11
11013.268425329996
 21
2191.7865836047413
 31
0.0
  0
LINE
  5
29A
330
17
100
AcDbEntity
  8
0
100
AcDbLine
 10
11015.768425329996
 20
2191.7865836047413
 30
0.0
 11
11017.768425329996
 21
2191.7865836047413
 31
0.0
  0
LINE
  5
29B
330
17
100
AcDbEntity
  8
0
100
AcDbLine
 10
11013.268425329996
 20
2191.7865836047413
 30
0.0
 11
11013.268425329996
 21
2163.7865836047413
 31
0.0
  0
LINE
  5
29C
330
17
100
AcDbEntity
  8
0
100
AcDbLine
 10
11013.268425329996
 20
2163.7865836047413
 30
0.0
 11
11015.768425329996
 21
2163.7865836047413
 31
0.0
  0
LINE
  5
29D
330
17
100
AcDbEntity
  8
0
100
AcDbLine
 10
11015.768425329996
 20
2163.7865836047413
 30
0.0
 11
11015.768425329996
 21
2191.7865836047413
 31
0.0
  0
LINE
  5
29E
330
17
100
AcDbEntity
  8
0
100
AcDbLine
 10
10702.020207300302
 20
1567.7449387051915
 30
0.0
 11
10702.020207300302
 21
1578.7449387051915
 31
0.0
  0
LINE
  5
29F
330
17
100
AcDbEntity
  8
0
100
AcDbLine
 10
10666.020207300331
 20
1567.7449387051915
 30
0.0
 11
10666.020207300331
 21
1578.7449387051915
 31
0.0
  0
LINE
  5
2A0
330
17
100
AcDbEntity
  8
0
100
AcDbLine
 10
10767.518425330614
 20
1567.7449387051624
 30
0.0
 11
10767.518425330614
 21
1578.7449387051624
 31
0.0
  0
LINE
  5
2A1
330
17
100
AcDbEntity
  8
0
100
AcDbLine
 10
10731.518425330643
 20
1567.7449387051624
 30
0.0
 11
10731.518425330643
 21
1578.7449387051624
 31
0.0
  0
LINE
  5
2A2
330
17
100
AcDbEntity
  8
0
100
AcDbLine
 10
11869.516643359711
 20
1567.7449387051915
 30
0.0
 11
11869.516643359711
 21
1578.7449387051915
 31
0.0
  0
LINE
  5
2A3
330
17
100
AcDbEntity
  8
0
100
AcDbLine
 10
11905.516643359682
 20
1567.7449387051915
 30
0.0
 11
11905.516643359682
 21
1578.7449387051915
 31
0.0
  0
LINE
  5
2A4
330
17
100
AcDbEntity
  8
0
100
AcDbLine
 10
11804.018425329392
 20
1567.7449387051624
 30
0.0
 11
11804.018425329392
 21
1578.7449387051624
 31
0.0
  0
LINE
  5
2A5
330
17
100
AcDbEntity
  8
0
100
AcDbLine
 10
11840.018425329363
 20
1567.7449387051624
 30
0.0
 11
11840.018425329363
 21
1578.7449387051624
 31
0.0
  0
LINE
  5
2A6
330
17
100
AcDbEntity
  8
0
100
AcDbLine
 10
11174.769316318387
 20
1610.244908903795
 30
0.0
 11
11184.367308517045
 21
1610.2449089037368
 31
0.0
  0
LINE
  5
2A7
330
17
100
AcDbEntity
  8
0
100
AcDbLine
 10
11184.367308517045
 20
1610.2449089037368
 30
0.0
 11
11184.366863016126
 21
1528.744849606774
 31
0.0
  0
LINE
  5
2A8
330
17
100
AcDbEntity
  8
0
100
AcDbLine
 10
11184.366863016126
 20
1528.744849606774
 30
0.0
 11
11192.367308517161
 21
1528.744849606774
 31
0.0
  0
LINE
  5
2A9
330
17
100
AcDbEntity
  8
0
100
AcDbLine
 10
11219.764600860071
 20
1528.744849606774
 30
0.0
 11
11227.764600860173
 21
1528.744849606774
 31
0.0
  0
LINE
  5
2AA
330
17
100
AcDbEntity
  8
0
100
AcDbLine
 10
11227.764600860173
 20
1528.744849606774
 30
0.0
 11
11227.764600860173
 21
1536.744849606774
 31
0.0
  0
LINE
  5
2AB
330
17
100
AcDbEntity
  8
0
100
AcDbLine
 10
11192.367308517161
 20
1528.744849606774
 30
0.0
 11
11192.367308517161
 21
1522.744849606774
 31
0.0
  0
LINE
  5
2AC
330
17
100
AcDbEntity
  8
0
100
AcDbLine
 10
11192.367308517161
 20
1522.744849606774
 30
0.0
 11
11194.367308516892
 21
1522.744849606774
 31
0.0
  0
LINE
  5
2AD
330
17
100
AcDbEntity
  8
0
100
AcDbLine
 10
11194.367308516892
 20
1522.744849606774
 30
0.0
 11
11194.367308516892
 21
1520.744849606774
 31
0.0
  0
LINE
  5
2AE
330
17
100
AcDbEntity
  8
0
100
AcDbLine
 10
11194.367308516892
 20
1520.744849606774
 30
0.0
 11
11206.065954688616
 21
1520.744849606774
 31
0.0
  0
LINE
  5
2AF
330
17
100
AcDbEntity
  8
0
100
AcDbLine
 10
11219.764600860071
 20
1528.744849606774
 30
0.0
 11
11219.764600860071
 21
1522.744849606774
 31
0.0
  0
LINE
  5
2B0
330
17
100
AcDbEntity
  8
0
100
AcDbLine
 10
11219.764600860071
 20
1522.744849606774
 30
0.0
 11
11217.76460086034
 21
1522.744849606774
 31
0.0
  0
LINE
  5
2B1
330
17
100
AcDbEntity
  8
0
100
AcDbLine
 10
11217.76460086034
 20
1522.744849606774
 30
0.0
 11
11217.76460086034
 21
1520.744849606774
 31
0.0
  0
LINE
  5
2B2
330
17
100
AcDbEntity
  8
0
100
AcDbLine
 10
11217.76460086034
 20
1520.744849606774
 30
0.0
 11
11206.065954688616
 21
1520.744849606774
 31
0.0
  0
LINE
  5
2B3
330
17
100
AcDbEntity
  8
0
100
AcDbLine
 10
11227.764600860173
 20
1536.744849606774
 30
0.0
 11
11233.764600860173
 21
1536.744849606774
 31
0.0
  0
LINE
  5
2B4
330
17
100
AcDbEntity
  8
0
100
AcDbLine
 10
11233.764600860173
 20
1536.744849606774
 30
0.0
 11
11233.764600860173
 21
1538.7448496065049
 31
0.0
  0
LINE
  5
2B5
330
17
100
AcDbEntity
  8
0
100
AcDbLine
 10
11233.764600860173
 20
1538.7448496065049
 30
0.0
 11
11235.764600860173
 21
1538.7448496065049
 31
0.0
  0
LINE
  5
2B6
330
17
100
AcDbEntity
  8
0
100
AcDbLine
 10
11235.764600860173
 20
1538.7448496065049
 30
0.0
 11
11235.764600860173
 21
1550.4434957782291
 31
0.0
  0
LINE
  5
2B7
330
17
100
AcDbEntity
  8
0
100
AcDbLine
 10
11215.764600808357
 20
1564.1421419496805
 30
0.0
 11
11233.764600860173
 21
1564.1421419496805
 31
0.0
  0
LINE
  5
2B8
330
17
100
AcDbEntity
  8
0
100
AcDbLine
 10
11233.764600860173
 20
1564.1421419496805
 30
0.0
 11
11233.764600860173
 21
1562.1421419499497
 31
0.0
  0
LINE
  5
2B9
330
17
100
AcDbEntity
  8
0
100
AcDbLine
 10
11233.764600860173
 20
1562.1421419499497
 30
0.0
 11
11235.764600860173
 21
1562.1421419499497
 31
0.0
  0
LINE
  5
2BA
330
17
100
AcDbEntity
  8
0
100
AcDbLine
 10
11235.764600860173
 20
1562.1421419499497
 30
0.0
 11
11235.764600860173
 21
1550.4434957782291
 31
0.0
  0
LINE
  5
2BB
330
17
100
AcDbEntity
  8
0
100
AcDbLine
 10
11395.266643356154
 20
1610.1690881801173
 30
0.0
 11
11387.168651157488
 21
1610.1690881800591
 31
0.0
  0
LINE
  5
2BC
330
17
100
AcDbEntity
  8
0
100
AcDbLine
 10
11387.168651157488
 20
1610.1690881800591
 30
0.0
 11
11387.1690966584
 21
1528.744849606774
 31
0.0
  0
LINE
  5
2BD
330
17
100
AcDbEntity
  8
0
100
AcDbLine
 10
11387.1690966584
 20
1528.744849606774
 30
0.0
 11
11379.168651157357
 21
1528.744849606774
 31
0.0
  0
LINE
  5
2BE
330
17
100
AcDbEntity
  8
0
100
AcDbLine
 10
11351.771358814454
 20
1528.744849606774
 30
0.0
 11
11343.771358814345
 21
1528.744849606774
 31
0.0
  0
LINE
  5
2BF
330
17
100
AcDbEntity
  8
0
100
AcDbLine
 10
11343.771358814345
 20
1528.744849606774
 30
0.0
 11
11343.771358814345
 21
1536.744849606774
 31
0.0
  0
LINE
  5
2C0
330
17
100
AcDbEntity
  8
0
100
AcDbLine
 10
11379.168651157357
 20
1528.744849606774
 30
0.0
 11
11379.168651157357
 21
1522.744849606774
 31
0.0
  0
LINE
  5
2C1
330
17
100
AcDbEntity
  8
0
100
AcDbLine
 10
11379.168651157357
 20
1522.744849606774
 30
0.0
 11
11377.168651157626
 21
1522.744849606774
 31
0.0
  0
LINE
  5
2C2
330
17
100
AcDbEntity
  8
0
100
AcDbLine
 10
11377.168651157626
 20
1522.744849606774
 30
0.0
 11
11377.168651157626
 21
1520.744849606774
 31
0.0
  0
LINE
  5
2C3
330
17
100
AcDbEntity
  8
0
100
AcDbLine
 10
11377.168651157626
 20
1520.744849606774
 30
0.0
 11
11365.47000498591
 21
1520.744849606774
 31
0.0
  0
LINE
  5
2C4
330
17
100
AcDbEntity
  8
0
100
AcDbLine
 10
11351.771358814454
 20
1528.744849606774
 30
0.0
 11
11351.771358814454
 21
1522.744849606774
 31
0.0
  0
LINE
  5
2C5
330
17
100
AcDbEntity
  8
0
100
AcDbLine
 10
11351.771358814454
 20
1522.744849606774
 30
0.0
 11
11353.771358814185
 21
1522.744849606774
 31
0.0
  0
LINE
  5
2C6
330
17
100
AcDbEntity
  8
0
100
AcDbLine
 10
11353.771358814185
 20
1522.744849606774
 30
0.0
 11
11353.771358814185
 21
1520.744849606774
 31
0.0
  0
LINE
  5
2C7
330
17
100
AcDbEntity
  8
0
100
AcDbLine
 10
11353.771358814185
 20
1520.744849606774
 30
0.0
 11
11365.47000498591
 21
1520.744849606774
 31
0.0
  0
LINE
  5
2C8
330
17
100
AcDbEntity
  8
0
100
AcDbLine
 10
11343.771358814345
 20
1536.744849606774
 30
0.0
 11
11337.771358814345
 21
1536.744849606774
 31
0.0
  0
LINE
  5
2C9
330
17
100
AcDbEntity
  8
0
100
AcDbLine
 10
11337.771358814345
 20
1536.744849606774
 30
0.0
 11
11337.771358814345
 21
1538.7448496065049
 31
0.0
  0
LINE
  5
2CA
330
17
100
AcDbEntity
  8
0
100
AcDbLine
 10
11337.771358814345
 20
1538.7448496065049
 30
0.0
 11
11335.771358814345
 21
1538.7448496065049
 31
0.0
  0
LINE
  5
2CB
330
17
100
AcDbEntity
  8
0
100
AcDbLine
 10
11335.771358814345
 20
1538.7448496065049
 30
0.0
 11
11335.771358814345
 21
1550.4434957782291
 31
0.0
  0
LINE
  5
2CC
330
17
100
AcDbEntity
  8
0
100
AcDbLine
 10
11355.77135876253
 20
1564.1421419496805
 30
0.0
 11
11337.771358814345
 21
1564.1421419496805
 31
0.0
  0
LINE
  5
2CD
330
17
100
AcDbEntity
  8
0
100
AcDbLine
 10
11337.771358814345
 20
1564.1421419496805
 30
0.0
 11
11337.771358814345
 21
1562.1421419499497
 31
0.0
  0
LINE
  5
2CE
330
17
100
AcDbEntity
  8
0
100
AcDbLine
 10
11337.771358814345
 20
1562.1421419499497
 30
0.0
 11
11335.771358814345
 21
1562.1421419499497
 31
0.0
  0
LINE
  5
2CF
330
17
100
AcDbEntity
  8
0
100
AcDbLine
 10
11335.771358814345
 20
1562.1421419499497
 30
0.0
 11
11335.771358814345
 21
1550.4434957782291
 31
0.0
  0
LINE
  5
2D0
330
17
100
AcDbEntity
  8
0
100
AcDbLine
 10
11235.764600860173
 20
1562.1421419499497
 30
0.0
 11
11335.771358814345
 21
1562.1421419499497
 31
0.0
  0
LINE
  5
2D1
330
17
100
AcDbEntity
  8
0
100
AcDbLine
 10
11235.764600860173
 20
1538.7448496065049
 30
0.0
 11
11335.771358814345
 21
1538.7448496065049
 31
0.0
  0
LINE
  5
2D2
330
17
100
AcDbEntity
  8
0
100
AcDbLine
 10
11215.76460080835
 20
1632.7448432190731
 30
0.0
 11
11225.767534344515
 21
1632.7448432190731
 31
0.0
  0
LINE
  5
2D3
330
17
100
AcDbEntity
  8
0
100
AcDbLine
 10
10868.766678591812
 20
1861.2585882677367
 30
0.0
 11
10935.769726575461
 21
1861.2585882677367
 31
0.0
  0
LINE
  5
2D4
330
17
100
AcDbEntity
  8
0
100
AcDbLine
 10
10869.766678591812
 20
1862.2585882677367
 30
0.0
 11
10872.769726575454
 21
1862.2585882677367
 31
0.0
  0
LINE
  5
2D5
330
17
100
AcDbEntity
  8
0
100
AcDbLine
 10
10872.769726575461
 20
1862.2585882677367
 30
0.0
 11
10935.769726575461
 21
1862.2585882677367
 31
0.0
  0
LINE
  5
2D6
330
17
100
AcDbEntity
  8
0
100
AcDbLine
 10
11905.516643359682
 20
1567.7449387051915
 30
0.0
 11
11905.516643359682
 21
1578.7449387051915
 31
0.0
  0
LINE
  5
2D7
330
17
100
AcDbEntity
  8
0
100
AcDbLine
 10
11177.768870890193
 20
2430.8281235570603
 30
-0.3403031765569822
 11
11177.768870822745
 21
2419.832991770875
 31
-0.3403031765569822
  0
LINE
  5
2D8
330
17
100
AcDbEntity
  8
0
100
AcDbLine
 10
11393.768870822747
 20
2430.8281235570603
 30
0.0
 11
11393.768870822747
 21
2419.8281235570603
 31
0.0
  0
LINE
  5
2D9
330
17
100
AcDbEntity
  8
0
100
AcDbLine
 10
10833.766678591805
 20
2326.5781235565037
 30
0.0
 11
10821.766678591805
 21
2326.5781235565037
 31
0.0
  0
LINE
  5
2DA
330
17
100
AcDbEntity
  8
0
100
AcDbLine
 10
10821.766678591805
 20
2326.5781235565037
 30
0.0
 11
10821.766678591805
 21
2398.5781235565037
 31
0.0
  0
LINE
  5
2DB
330
17
100
AcDbEntity
  8
0
100
AcDbLine
 10
10821.766678591805
 20
2398.5781235565037
 30
0.0
 11
10833.766678591805
 21
2398.5781235565055
 31
0.0
  0
LINE
  5
2DC
330
17
100
AcDbEntity
  8
0
100
AcDbLine
 10
10862.766678591805
 20
1706.2448143421916
 30
0.3403031765569822
 11
10863.766678591805
 21
1706.2448143421916
 31
0.3403031765569822
  0
LINE
  5
2DD
330
17
100
AcDbEntity
  8
0
100
AcDbLine
 10
10862.766678591805
 20
1684.2448143421916
 30
0.3403031765569822
 11
10863.766678591805
 21
1684.2448143421916
 31
0.3403031765569822
  0
LINE
  5
2DE
330
17
100
AcDbEntity
  8
0
100
AcDbLine
 10
11037.27125154982
 20
1670.2448432190731
 30
0.0
 11
11043.780294107972
 21
1670.2448432278006
 31
0.0
  0
LINE
  5
2DF
330
17
100
AcDbEntity
  8
0
100
AcDbLine
 10
11043.771098286481
 20
1700.244843227786
 30
0.0
 11
11041.771098286481
 21
1700.244843227786
 31
0.0
  0
LINE
  5
2E0
330
17
100
AcDbEntity
  8
0
100
AcDbLine
 10
11039.271098286481
 20
1700.244843227786
 30
0.0
 11
11037.271098286481
 21
1700.244843227786
 31
0.0
  0
LINE
  5
2E1
330
17
100
AcDbEntity
  8
0
100
AcDbLine
 10
11041.771098286481
 20
1700.244843227786
 30
0.0
 11
11041.771098286481
 21
1728.244843227786
 31
0.0
  0
LINE
  5
2E2
330
17
100
AcDbEntity
  8
0
100
AcDbLine
 10
11041.771098286481
 20
1728.244843227786
 30
0.0
 11
11039.271098286481
 21
1728.244843227786
 31
0.0
  0
LINE
  5
2E3
330
17
100
AcDbEntity
  8
0
100
AcDbLine
 10
11039.271098286481
 20
1728.244843227786
 30
0.0
 11
11039.271098286481
 21
1700.244843227786
 31
0.0
  0
LINE
  5
2E4
330
17
100
AcDbEntity
  8
0
100
AcDbLine
 10
11195.268451270269
 20
1754.7442866523006
 30
0.0
 11
11043.770010167154
 21
1754.7345809552944
 31
0.0
  0
LINE
  5
2E5
330
17
100
AcDbEntity
  8
0
100
AcDbLine
 10
11111.76903782821
 20
1817.2447902242811
 30
0.0
 11
11111.769232121645
 21
1832.2447854653092
 31
0.0
  0
LINE
  5
2E6
330
17
100
AcDbEntity
  8
0
100
AcDbLine
 10
11108.769316315476
 20
1610.2418267445469
 30
0.0
 11
11108.769316315476
 21
1653.2448432190731
 31
0.0
  0
LINE
  5
2E7
330
17
100
AcDbEntity
  8
0
100
AcDbLine
 10
11119.769316315476
 20
1610.2418267445469
 30
0.0
 11
11119.76931631548
 21
1610.2449089037405
 31
0.0
  0
LINE
  5
2E8
330
17
100
AcDbEntity
  8
0
100
AcDbLine
 10
11119.76931631548
 20
1621.2449089037314
 30
0.0
 11
11119.76931631548
 21
1670.2448432190722
 31
0.0
  0
LINE
  5
2E9
330
17
100
AcDbEntity
  8
0
100
AcDbLine
 10
11121.76822819615
 20
1746.2448020721395
 30
0.3403031765569822
 11
11193.265304449673
 21
1708.2448432190731
 31
0.3403031765569822
  0
LINE
  5
2EA
330
17
100
AcDbEntity
  8
0
100
AcDbLine
 10
11121.76822819615
 20
1708.2448432190731
 30
0.3403031765569822
 11
11193.267984635419
 21
1746.2433310894348
 31
0.3403031765569822
  0
LINE
  5
2EB
330
17
100
AcDbEntity
  8
0
100
AcDbLine
 10
11111.768849978635
 20
1700.244843219074
 30
0.0
 11
11119.769316315476
 21
1700.2448432190731
 31
0.0
  0
LINE
  5
2EC
330
17
100
AcDbEntity
  8
0
100
AcDbLine
 10
11111.768849978635
 20
1700.244843219074
 30
0.0
 11
11111.768228196164
 21
1748.2448432190731
 31
0.0
  0
LINE
  5
2ED
330
17
100
AcDbEntity
  8
0
100
AcDbLine
 10
11119.76931631548
 20
1700.2448432190722
 30
0.0
 11
11119.76931631548
 21
1748.2448432190722
 31
0.0
  0
LINE
  5
2EE
330
17
100
AcDbEntity
  8
0
100
AcDbLine
 10
11171.269780215149
 20
1706.2448432190731
 30
0.0
 11
11171.269780215149
 21
1660.244602423908
 31
0.0
  0
LINE
  5
2EF
330
17
100
AcDbEntity
  8
0
100
AcDbLine
 10
11172.269780215149
 20
1706.2448432190731
 30
0.0
 11
11172.269780215149
 21
1660.244602423908
 31
0.0
  0
LINE
  5
2F0
330
17
100
AcDbEntity
  8
0
100
AcDbLine
 10
11183.268248802167
 20
1766.7435178879678
 30
0.0
 11
11043.769241391165
 21
1766.734580930669
 31
0.0
  0
LINE
  5
2F1
330
17
100
AcDbEntity
  8
0
100
AcDbLine
 10
11183.267396683434
 20
1817.2445877449081
 30
0.0
 11
11183.268248802167
 21
1766.7435178879678
 31
0.0
  0
LINE
  5
2F2
330
17
100
AcDbEntity
  8
0
100
AcDbLine
 10
11111.768228196164
 20
1748.2448432190731
 30
0.0
 11
11043.770010167154
 21
1748.2448432190731
 31
0.0
  0
LINE
  5
2F3
330
17
100
AcDbEntity
  8
0
100
AcDbLine
 10
11708.767499111811
 20
1790.2448143421916
 30
0.3403031765569822
 11
11707.767499111811
 21
1790.2448143421916
 31
0.3403031765569822
  0
LINE
  5
2F4
330
17
100
AcDbEntity
  8
0
100
AcDbLine
 10
11708.767499111811
 20
1812.2448143421916
 30
0.3403031765569822
 11
11707.767499111811
 21
1812.2448143421916
 31
0.3403031765569822
  0
LINE
  5
2F5
330
17
100
AcDbEntity
  8
0
100
AcDbLine
 10
11388.267034122728
 20
1832.244785465311
 30
0.0
 11
11388.265928901448
 21
1766.7435178879678
 31
0.0
  0
LINE
  5
2F6
330
17
100
AcDbEntity
  8
0
100
AcDbLine
 10
11459.764861388125
 20
1664.244843219074
 30
0.0
 11
11459.764939110933
 21
1670.2448432190731
 31
0.0
  0
LINE
  5
2F7
330
17
100
AcDbEntity
  8
0
100
AcDbLine
 10
11459.765327724981
 20
1700.244843219074
 30
0.0
 11
11459.765949507451
 21
1748.2448432190731
 31
0.0
  0
LINE
  5
2F8
330
17
100
AcDbEntity
  8
0
100
AcDbLine
 10
11557.266643359093
 20
1653.2448432190731
 30
0.0
 11
11557.266643359093
 21
1664.2448432190731
 31
0.0
  0
LINE
  5
2F9
330
17
100
AcDbEntity
  8
0
100
AcDbLine
 10
11629.266643359093
 20
1653.2448432190731
 30
0.0
 11
11629.266643359093
 21
1664.2448432190731
 31
0.0
  0
LINE
  5
2FA
330
17
100
AcDbEntity
  8
0
100
AcDbLine
 10
11459.764939110937
 20
1670.2448432190722
 30
0.0
 11
11451.764861388136
 21
1670.2448432190722
 31
0.0
  0
LINE
  5
2FB
330
17
100
AcDbEntity
  8
0
100
AcDbLine
 10
11459.765327724981
 20
1700.244843219074
 30
0.0
 11
11451.76486138814
 21
1700.2448432190731
 31
0.0
  0
LINE
  5
2FC
330
17
100
AcDbEntity
  8
0
100
AcDbLine
 10
11376.26617967265
 20
1748.2448432190727
 30
0.0
 11
11451.765949507466
 21
1748.2448432190731
 31
0.0
  0
LINE
  5
2FD
330
17
100
AcDbEntity
  8
0
100
AcDbLine
 10
11459.765949507451
 20
1748.2448432190731
 30
0.0
 11
11527.764167536461
 21
1748.2448432190731
 31
0.0
  0
LINE
  5
2FE
330
17
100
AcDbEntity
  8
0
100
AcDbLine
 10
11376.266179722708
 20
1754.7442866232614
 30
0.0
 11
11527.764167536461
 21
1754.7345809552944
 31
0.0
  0
LINE
  5
2FF
330
17
100
AcDbEntity
  8
0
100
AcDbLine
 10
11388.265928901448
 20
1766.7435178879678
 30
0.0
 11
11527.764936312451
 21
1766.734580930669
 31
0.0
  0
LINE
  5
300
330
17
100
AcDbEntity
  8
0
100
AcDbLine
 10
11534.263079417135
 20
1700.244843227786
 30
0.0
 11
11534.263079417135
 21
1718.2447854653137
 31
0.0
  0
LINE
  5
301
330
17
100
AcDbEntity
  8
0
100
AcDbLine
 10
11534.263079417135
 20
1730.2447854653137
 30
0.0
 11
11534.263079417135
 21
1766.2447854653137
 31
0.0
  0
LINE
  5
302
330
17
100
AcDbEntity
  8
0
100
AcDbLine
 10
11534.263079417135
 20
1778.2447854653137
 30
0.0
 11
11534.263079417135
 21
1796.24478546531
 31
0.0
  0
LINE
  5
303
330
17
100
AcDbEntity
  8
0
100
AcDbLine
 10
11527.763079417135
 20
1700.244843227786
 30
0.0
 11
11527.764167536461
 21
1748.2346158804949
 31
0.0
  0
LINE
  5
304
330
17
100
AcDbEntity
  8
0
100
AcDbLine
 10
11527.764167536461
 20
1754.7345809552944
 30
0.0
 11
11527.763079417135
 21
1796.2447854565971
 31
0.0
  0
LINE
  5
305
330
17
100
AcDbEntity
  8
0
100
AcDbLine
 10
11548.263079417135
 20
1730.2447854653137
 30
0.0
 11
11548.263079417135
 21
1766.2447854653137
 31
0.0
  0
LINE
  5
306
330
17
100
AcDbEntity
  8
0
100
AcDbLine
 10
11548.263079417135
 20
1718.2447854653137
 30
0.0
 11
11534.259051525332
 21
1718.2447854653137
 31
0.0
  0
LINE
  5
307
330
17
100
AcDbEntity
  8
0
100
AcDbLine
 10
11548.263079417135
 20
1730.2447854653137
 30
0.0
 11
11534.263079417135
 21
1730.2447854653137
 31
0.0
  0
LINE
  5
308
330
17
100
AcDbEntity
  8
0
100
AcDbLine
 10
11548.263079417135
 20
1730.2447854653137
 30
0.0
 11
11548.263079417135
 21
1718.2447854653137
 31
0.0
  0
LINE
  5
309
330
17
100
AcDbEntity
  8
0
100
AcDbLine
 10
11548.263079417135
 20
1778.2447854653137
 30
0.0
 11
11534.261258166167
 21
1778.2447854653137
 31
0.0
  0
LINE
  5
30A
330
17
100
AcDbEntity
  8
0
100
AcDbLine
 10
11548.263079417135
 20
1766.2447854653137
 30
0.0
 11
11534.263079417135
 21
1766.2447854653137
 31
0.0
  0
LINE
  5
30B
330
17
100
AcDbEntity
  8
0
100
AcDbLine
 10
11548.263079417135
 20
1766.2447854653137
 30
0.0
 11
11548.263079417135
 21
1778.2447854653137
 31
0.0
  0
LINE
  5
30C
330
17
100
AcDbEntity
  8
0
100
AcDbLine
 10
11527.763079417135
 20
1796.2447854565971
 30
0.0
 11
11529.763079417135
 21
1796.2447854565971
 31
0.0
  0
LINE
  5
30D
330
17
100
AcDbEntity
  8
0
100
AcDbLine
 10
11532.263079417135
 20
1796.2447854565971
 30
0.0
 11
11534.263079417135
 21
1796.2447854565971
 31
0.0
  0
LINE
  5
30E
330
17
100
AcDbEntity
  8
0
100
AcDbLine
 10
11529.763079417135
 20
1796.2447854565971
 30
0.0
 11
11529.763079417135
 21
1768.2447854565971
 31
0.0
  0
LINE
  5
30F
330
17
100
AcDbEntity
  8
0
100
AcDbLine
 10
11529.763079417135
 20
1768.2447854565971
 30
0.0
 11
11532.263079417135
 21
1768.2447854565971
 31
0.0
  0
LINE
  5
310
330
17
100
AcDbEntity
  8
0
100
AcDbLine
 10
11532.263079417135
 20
1768.2447854565971
 30
0.0
 11
11532.263079417135
 21
1796.2447854565971
 31
0.0
  0
LINE
  5
311
330
17
100
AcDbEntity
  8
0
100
AcDbLine
 10
11708.767499111811
 20
1706.2448143421916
 30
0.3403031765569822
 11
11707.767499111811
 21
1706.2448143421916
 31
0.3403031765569822
  0
LINE
  5
312
330
17
100
AcDbEntity
  8
0
100
AcDbLine
 10
11708.767499111811
 20
1684.2448143421916
 30
0.3403031765569822
 11
11707.767499111811
 21
1684.2448143421916
 31
0.3403031765569822
  0
LINE
  5
313
330
17
100
AcDbEntity
  8
0
100
AcDbLine
 10
11527.763079417135
 20
1700.244843227786
 30
0.0
 11
11529.763079417135
 21
1700.244843227786
 31
0.0
  0
LINE
  5
314
330
17
100
AcDbEntity
  8
0
100
AcDbLine
 10
11532.263079417135
 20
1700.244843227786
 30
0.0
 11
11534.263079417135
 21
1700.244843227786
 31
0.0
  0
LINE
  5
315
330
17
100
AcDbEntity
  8
0
100
AcDbLine
 10
11529.763079417135
 20
1700.244843227786
 30
0.0
 11
11529.763079417135
 21
1728.244843227786
 31
0.0
  0
LINE
  5
316
330
17
100
AcDbEntity
  8
0
100
AcDbLine
 10
11529.763079417135
 20
1728.244843227786
 30
0.0
 11
11532.263079417135
 21
1728.244843227786
 31
0.0
  0
LINE
  5
317
330
17
100
AcDbEntity
  8
0
100
AcDbLine
 10
11532.263079417135
 20
1728.244843227786
 30
0.0
 11
11532.263079417135
 21
1700.244843227786
 31
0.0
  0
LINE
  5
318
330
17
100
AcDbEntity
  8
0
100
AcDbLine
 10
11451.764861388136
 20
1700.2448432190722
 30
0.0
 11
11451.764861388136
 21
1748.2448432190722
 31
0.0
  0
LINE
  5
319
330
17
100
AcDbEntity
  8
0
100
AcDbLine
 10
11449.765949507466
 20
1746.2448020721395
 30
0.3403031765569822
 11
11378.268873253943
 21
1708.2448432190731
 31
0.3403031765569822
  0
LINE
  5
31A
330
17
100
AcDbEntity
  8
0
100
AcDbLine
 10
11449.765949507466
 20
1708.2448432190731
 30
0.3403031765569822
 11
11378.266193068197
 21
1746.2433310894348
 31
0.3403031765569822
  0
LINE
  5
31B
330
17
100
AcDbEntity
  8
0
100
AcDbLine
 10
11400.264397488467
 20
1706.2448432190731
 30
0.0
 11
11400.264397488467
 21
1660.244602423908
 31
0.0
  0
LINE
  5
31C
330
17
100
AcDbEntity
  8
0
100
AcDbLine
 10
11399.264397488467
 20
1706.2448432190731
 30
0.0
 11
11399.264397488467
 21
1660.244602423908
 31
0.0
  0
LINE
  5
31D
330
17
100
AcDbEntity
  8
0
100
AcDbLine
 10
11629.266643359093
 20
1664.2448432190731
 30
0.0
 11
11671.769315746722
 21
1664.2448432190731
 31
0.0
  0
LINE
  5
31E
330
17
100
AcDbEntity
  8
0
100
AcDbLine
 10
11557.265342113576
 20
1838.7447854653092
 30
0.0
 11
11577.265390478588
 21
1838.74478546531
 31
0.0
  0
LINE
  5
31F
330
17
100
AcDbEntity
  8
0
100
AcDbLine
 10
11609.265390478588
 20
1832.24478546531
 30
0.0
 11
11609.265390478588
 21
1838.74478546531
 31
0.0
  0
LINE
  5
320
330
17
100
AcDbEntity
  8
0
100
AcDbLine
 10
11577.265390478588
 20
1832.24478546531
 30
0.0
 11
11577.265390478588
 21
1838.74478546531
 31
0.0
  0
LINE
  5
321
330
17
100
AcDbEntity
  8
0
100
AcDbLine
 10
11534.264708124698
 20
1826.24478546531
 30
0.0
 11
11527.755665566547
 21
1826.2447854565826
 31
0.0
  0
LINE
  5
322
330
17
100
AcDbEntity
  8
0
100
AcDbLine
 10
11534.264861388037
 20
1826.24478546531
 30
0.0
 11
11534.264861388037
 21
1832.24478546531
 31
0.0
  0
LINE
  5
323
330
17
100
AcDbEntity
  8
0
100
AcDbLine
 10
11527.764861388037
 20
1826.2355896350955
 30
0.0
 11
11527.764861388037
 21
1832.24478546531
 31
0.0
  0
LINE
  5
324
330
17
100
AcDbEntity
  8
0
100
AcDbLine
 10
11534.264861388037
 20
1832.24478546531
 30
0.0
 11
11577.265390478588
 21
1832.244785465311
 31
0.0
  0
LINE
  5
325
330
17
100
AcDbEntity
  8
0
100
AcDbLine
 10
11550.765342113576
 20
1838.74478546531
 30
0.0
 11
11550.765342113576
 21
1870.7447878447956
 31
0.0
  0
LINE
  5
326
330
17
100
AcDbEntity
  8
0
100
AcDbLine
 10
11550.765342113576
 20
1870.7447878447956
 30
0.0
 11
11552.765342113576
 21
1870.7447878447956
 31
0.0
  0
LINE
  5
327
330
17
100
AcDbEntity
  8
0
100
AcDbLine
 10
11555.265342113576
 20
1870.7447878447956
 30
0.0
 11
11557.265342113576
 21
1870.7447878447956
 31
0.0
  0
LINE
  5
328
330
17
100
AcDbEntity
  8
0
100
AcDbLine
 10
11552.765342113576
 20
1870.7447878447956
 30
0.0
 11
11552.765342113576
 21
1842.7447878447956
 31
0.0
  0
LINE
  5
329
330
17
100
AcDbEntity
  8
0
100
AcDbLine
 10
11552.765342113576
 20
1842.7447878447956
 30
0.0
 11
11555.265342113576
 21
1842.7447878447956
 31
0.0
  0
LINE
  5
32A
330
17
100
AcDbEntity
  8
0
100
AcDbLine
 10
11555.265342113576
 20
1842.7447878447956
 30
0.0
 11
11555.265342113576
 21
1870.7447878447956
 31
0.0
  0
LINE
  5
32B
330
17
100
AcDbEntity
  8
0
100
AcDbLine
 10
11557.265342113576
 20
1838.74478546531
 30
0.0
 11
11557.265342113576
 21
1870.7447878447956
 31
0.0
  0
LINE
  5
32C
330
17
100
AcDbEntity
  8
0
100
AcDbLine
 10
10942.269693162882
 20
1966.2516892460071
 30
0.0
 11
10942.269726575454
 21
2033.7585930267041
 31
0.0
  0
LINE
  5
32D
330
17
100
AcDbEntity
  8
0
100
AcDbLine
 10
11014.149999449386
 20
1966.2516892460071
 30
0.0
 11
11014.271496156955
 21
2033.7513019406133
 31
0.0
  0
LINE
  5
32E
330
17
100
AcDbEntity
  8
0
100
AcDbLine
 10
10942.269726575447
 20
2033.758580752782
 30
0.0
 11
10948.269629851886
 21
2033.757974209786
 31
0.0
  0
LINE
  5
32F
330
17
100
AcDbEntity
  8
0
100
AcDbLine
 10
11008.271507530695
 20
2033.751908492237
 30
0.0
 11
11014.271496156947
 21
2033.7513019406133
 31
0.0
  0
LINE
  5
330
330
17
100
AcDbEntity
  8
0
100
AcDbLine
 10
10948.26962985189
 20
2033.799314552939
 30
0.0
 11
11008.271507530702
 21
2033.7999123030631
 31
0.0
  0
LINE
  5
331
330
17
100
AcDbEntity
  8
0
100
AcDbLine
 10
11632.271034971578
 20
2041.758884201593
 30
0.0
 11
11623.269830449684
 21
2041.7579742506668
 31
0.0
  0
LINE
  5
332
330
17
100
AcDbEntity
  8
0
100
AcDbLine
 10
11629.269733726127
 20
2033.758580752782
 30
0.0
 11
11623.269830449688
 21
2033.757974209786
 31
0.0
  0
LINE
  5
333
330
17
100
AcDbEntity
  8
0
100
AcDbLine
 10
11563.267952770879
 20
2033.751908492237
 30
0.0
 11
11557.267964144627
 21
2033.7513019406133
 31
0.0
  0
LINE
  5
334
330
17
100
AcDbEntity
  8
0
100
AcDbLine
 10
11563.267952770879
 20
2041.7534952076012
 30
0.0
 11
11554.271034971585
 21
2041.7531916386533
 31
0.0
  0
LINE
  5
335
330
17
100
AcDbEntity
  8
0
100
AcDbLine
 10
11563.267952770879
 20
2033.751908492236
 30
0.0
 11
11563.267952770879
 21
2041.7534952076012
 31
0.0
  0
LINE
  5
336
330
17
100
AcDbEntity
  8
0
100
AcDbLine
 10
11623.269830449692
 20
2033.757974209786
 30
0.0
 11
11623.269830449684
 21
2041.7579742506668
 31
0.0
  0
LINE
  5
337
330
17
100
AcDbEntity
  8
0
100
AcDbLine
 10
11623.269830449684
 20
2041.7579742506668
 30
0.0
 11
11563.267952770871
 21
2041.7573765005427
 31
0.0
  0
LINE
  5
338
330
17
100
AcDbEntity
  8
0
100
AcDbLine
 10
11623.269863111705
 20
2033.7579742130874
 30
0.0
 11
11563.267952292648
 21
2033.7519084921887
 31
0.0
  0
LINE
  5
339
330
17
100
AcDbEntity
  8
0
100
AcDbLine
 10
11537.768425045444
 20
2258.578087071151
 30
0.0
 11
11459.768425330003
 21
2258.5780870711515
 31
0.0
  0
LINE
  5
33A
330
17
100
AcDbEntity
  8
0
100
AcDbLine
 10
11459.768425330003
 20
2266.5781235565037
 30
0.0
 11
11537.768425045444
 21
2266.578041471182
 31
0.0
  0
LINE
  5
33B
330
17
100
AcDbEntity
  8
0
100
AcDbLine
 10
11656.771846685006
 20
2266.578143846869
 30
0.0
 11
11537.768425330003
 21
2266.5780414711826
 31
0.0
  0
LINE
  5
33C
330
17
100
AcDbEntity
  8
0
100
AcDbLine
 10
10658.76931631549
 20
2161.744938705324
 30
0.0
 11
10836.766121515
 21
2161.744938705323
 31
0.0
  0
LINE
  5
33D
330
17
100
AcDbEntity
  8
0
100
AcDbLine
 10
10836.770207300971
 20
2081.6704053565763
 30
0.0
 11
10844.766121515
 21
2081.6805089379186
 31
0.0
  0
LINE
  5
33E
330
17
100
AcDbEntity
  8
0
100
AcDbLine
 10
10836.770207300971
 20
2049.6704053565763
 30
0.0
 11
10844.766121515
 21
2049.6805089379186
 31
0.0
  0
LINE
  5
33F
330
17
100
AcDbEntity
  8
0
100
AcDbLine
 10
10802.770207300971
 20
2153.242743687678
 30
0.3403031765569822
 11
10834.770207300971
 21
2096.242743687678
 31
0.3403031765569822
  0
LINE
  5
340
330
17
100
AcDbEntity
  8
0
100
AcDbLine
 10
10802.770207300971
 20
2096.242743687678
 30
0.3403031765569822
 11
10834.770207300971
 21
2153.242743687678
 31
0.3403031765569822
  0
LINE
  5
341
330
17
100
AcDbEntity
  8
0
100
AcDbLine
 10
10724.828619007305
 20
2130.1805089379186
 30
0.0
 11
10724.828619007305
 21
2148.242743687678
 31
0.0
  0
LINE
  5
342
330
17
100
AcDbEntity
  8
0
100
AcDbLine
 10
10729.328619007305
 20
2130.1805089379186
 30
0.0
 11
10729.328619007305
 21
2155.242743687678
 31
0.0
  0
LINE
  5
343
330
17
100
AcDbEntity
  8
0
100
AcDbLine
 10
10733.164112728115
 20
2163.7487452734476
 30
-4.679590048795035e-14
 11
10660.769412147638
 21
2248.8244372243844
 31
-4.679590048795035e-14
  0
LINE
  5
344
330
17
100
AcDbEntity
  8
0
100
AcDbLine
 10
10660.76931631549
 20
2163.74826026148
 30
-4.679590048795035e-14
 11
10733.162737577557
 21
2248.8276024220977
 31
-4.679590048795035e-14
  0
LINE
  5
345
330
17
100
AcDbEntity
  8
0
100
AcDbLine
 10
10844.766121515
 20
2242.07765886392
 30
0.0
 11
10938.768425329996
 21
2242.0776528066763
 31
0.0
  0
LINE
  5
346
330
17
100
AcDbEntity
  8
0
100
AcDbLine
 10
10844.766121515
 20
2243.07765886392
 30
0.0
 11
10938.768425329996
 21
2243.077652806677
 31
0.0
  0
CIRCLE
  5
347
330
17
100
AcDbEntity
  8
0
100
AcDbCircle
 10
10911.950391968152
 20
2249.3276546249454
 30
-0.6806063531139644
 40
0.7500000000000002
  0
CIRCLE
  5
348
330
17
100
AcDbEntity
  8
0
100
AcDbCircle
 10
10911.950391968152
 20
2249.3276546249454
 30
-0.6806063531139644
 40
0.5000000000000001
  0
LINE
  5
349
330
17
100
AcDbEntity
  8
0
100
AcDbLine
 10
10911.700392441366
 20
2256.8276546407196
 30
0.0
 11
10911.700392425591
 21
2256.5776546407196
 31
0.0
  0
LINE
  5
34A
330
17
100
AcDbEntity
  8
0
100
AcDbLine
 10
10912.200392441366
 20
2256.827654609173
 30
0.0
 11
10912.200392425591
 21
2256.577654609173
 31
0.0
  0
CIRCLE
  5
34B
330
17
100
AcDbEntity
  8
0
100
AcDbCircle
 10
10873.584155791716
 20
2249.327657045653
 30
-0.6806063531139644
 40
0.7500000000000001
  0
CIRCLE
  5
34C
330
17
100
AcDbEntity
  8
0
100
AcDbCircle
 10
10873.584155791716
 20
2249.327657045653
 30
-0.6806063531139644
 40
0.5
  0
LINE
  5
34D
330
17
100
AcDbEntity
  8
0
100
AcDbLine
 10
10873.83415626493
 20
2256.8276570298785
 30
0.0
 11
10873.834156249155
 21
2256.5776570298785
 31
0.0
  0
LINE
  5
34E
330
17
100
AcDbEntity
  8
0
100
AcDbLine
 10
10873.33415626493
 20
2256.8276570614253
 30
0.0
 11
10873.334156249155
 21
2256.5776570614253
 31
0.0
  0
LINE
  5
34F
330
17
100
AcDbEntity
  8
0
100
AcDbLine
 10
10938.768425329996
 20
2179.7865836047413
 30
0.0
 11
10907.767273422498
 21
2179.7865836047413
 31
0.0
  0
LINE
  5
350
330
17
100
AcDbEntity
  8
0
100
AcDbLine
 10
10938.768425329996
 20
2173.2865836047413
 30
0.0
 11
10907.767273422498
 21
2173.2865836047404
 31
0.0
  0
LINE
  5
351
330
17
100
AcDbEntity
  8
0
100
AcDbLine
 10
10735.16386140295
 20
2179.7449686266373
 30
0.0
 11
10836.766126815895
 21
2179.744938705322
 31
0.0
  0
LINE
  5
352
330
17
100
AcDbEntity
  8
0
100
AcDbLine
 10
10735.16387795014
 20
2178.7449686266327
 30
0.0
 11
10836.766126815895
 21
2178.744938705321
 31
0.0
  0
LINE
  5
353
330
17
100
AcDbEntity
  8
0
100
AcDbLine
 10
10938.768425329992
 20
2179.7865836047404
 30
0.0
 11
10938.768425329996
 21
2191.7865836047413
 31
0.0
  0
LINE
  5
354
330
17
100
AcDbEntity
  8
0
100
AcDbLine
 10
10907.767273422498
 20
2173.2865836047413
 30
0.0
 11
10907.767273422498
 21
2179.7865836047413
 31
0.0
  0
LINE
  5
355
330
17
100
AcDbEntity
  8
0
100
AcDbLine
 10
10877.767273422498
 20
2179.7865836047413
 30
0.0
 11
10844.766121515
 21
2179.7865836047413
 31
0.0
  0
LINE
  5
356
330
17
100
AcDbEntity
  8
0
100
AcDbLine
 10
10877.767273422498
 20
2173.2865836047404
 30
0.0
 11
10844.766121515
 21
2173.2865836047413
 31
0.0
  0
LINE
  5
357
330
17
100
AcDbEntity
  8
0
100
AcDbLine
 10
10877.767273422498
 20
2173.286583604734
 30
0.0
 11
10877.767273422498
 21
2175.2865836047413
 31
0.0
  0
LINE
  5
358
330
17
100
AcDbEntity
  8
0
100
AcDbLine
 10
10877.767273422498
 20
2177.7865836047413
 30
0.0
 11
10877.767273422498
 21
2179.7865836047413
 31
0.0
  0
LINE
  5
359
330
17
100
AcDbEntity
  8
0
100
AcDbLine
 10
10877.767273422498
 20
2175.2865836047413
 30
0.0
 11
10849.767273422498
 21
2175.286583604734
 31
0.0
  0
LINE
  5
35A
330
17
100
AcDbEntity
  8
0
100
AcDbLine
 10
10849.767273422498
 20
2175.286583604734
 30
0.0
 11
10849.767273422498
 21
2177.786583604734
 31
0.0
  0
LINE
  5
35B
330
17
100
AcDbEntity
  8
0
100
AcDbLine
 10
10849.767273422498
 20
2177.786583604734
 30
0.0
 11
10877.767273422498
 21
2177.7865836047413
 31
0.0
  0
LINE
  5
35C
330
17
100
AcDbEntity
  8
0
100
AcDbLine
 10
11099.76931631549
 20
2246.5781235565028
 30
0.0
 11
11017.768425329996
 21
2246.5781235565037
 31
0.0
  0
LINE
  5
35D
330
17
100
AcDbEntity
  8
0
100
AcDbLine
 10
11734.766784586349
 20
2013.243689541948
 30
0.0
 11
11801.573555144612
 21
2111.739303756707
 31
0.3403031765569822
  0
LINE
  5
35E
330
17
100
AcDbEntity
  8
0
100
AcDbLine
 10
11734.766919618356
 20
2111.7370458774258
 30
0.3403031765569822
 11
11801.573420112605
 21
2013.243689541948
 31
0.0
  0
LINE
  5
35F
330
17
100
AcDbEntity
  8
0
100
AcDbLine
 10
11848.862897077917
 20
2148.2424143136323
 30
0.0
 11
11912.862897077917
 21
2148.2447035051837
 31
0.0
  0
LINE
  5
360
330
17
100
AcDbEntity
  8
0
100
AcDbLine
 10
11215.764600808357
 20
1564.1326617713917
 30
0.0
 11
11215.764600808354
 21
1632.7448432190731
 31
0.0
  0
LINE
  5
361
330
17
100
AcDbEntity
  8
0
100
AcDbLine
 10
11355.77135876253
 20
1564.1326617713917
 30
0.0
 11
11355.77135876253
 21
1632.7448432190695
 31
0.0
  0
LINE
  5
362
330
17
100
AcDbEntity
  8
0
100
AcDbLine
 10
11345.76664349372
 20
1632.7448432190695
 30
0.0
 11
11355.77135876253
 21
1632.7448432190695
 31
0.0
  0
LINE
  5
363
330
17
100
AcDbEntity
  8
0
100
AcDbLine
 10
11195.268560937202
 20
1748.2448432190731
 30
0.0
 11
11195.270703841328
 21
1621.2449935874397
 31
0.0
  0
LINE
  5
364
330
17
100
AcDbEntity
  8
0
100
AcDbLine
 10
11376.26617967265
 20
1748.2448432190727
 30
0.0
 11
11376.266178693753
 21
1621.169088179859
 31
0.0
  0
LINE
  5
365
330
17
100
AcDbEntity
  8
0
100
AcDbLine
 10
11726.771620130494
 20
2344.5781235565037
 30
0.0
 11
11726.771620130494
 21
2380.5781235565037
 31
0.0
  0
LINE
  5
366
330
17
100
AcDbEntity
  8
0
100
AcDbLine
 10
11712.771620130494
 20
2344.5781235565037
 30
0.0
 11
11712.771620130494
 21
2380.5781235565037
 31
0.0
  0
LINE
  5
367
330
17
100
AcDbEntity
  8
0
100
AcDbLine
 10
11712.771620130494
 20
2326.5781235565037
 30
0.0
 11
11726.775648022296
 21
2326.5781235565037
 31
0.0
  0
LINE
  5
368
330
17
100
AcDbEntity
  8
0
100
AcDbLine
 10
11712.771620130494
 20
2344.5781235565037
 30
0.0
 11
11726.771620130494
 21
2344.5781235565037
 31
0.0
  0
LINE
  5
369
330
17
100
AcDbEntity
  8
0
100
AcDbLine
 10
11712.771620130494
 20
2344.5781235565037
 30
0.0
 11
11712.771620130494
 21
2326.5781235565037
 31
0.0
  0
LINE
  5
36A
330
17
100
AcDbEntity
  8
0
100
AcDbLine
 10
11712.771620130494
 20
2398.5781235565037
 30
0.0
 11
11726.775648022296
 21
2398.5781235565037
 31
0.0
  0
LINE
  5
36B
330
17
100
AcDbEntity
  8
0
100
AcDbLine
 10
11712.771620130494
 20
2380.5781235565037
 30
0.0
 11
11726.771620130494
 21
2380.5781235565037
 31
0.0
  0
LINE
  5
36C
330
17
100
AcDbEntity
  8
0
100
AcDbLine
 10
11712.771620130494
 20
2380.5781235565037
 30
0.0
 11
11712.771620130494
 21
2398.5781235565037
 31
0.0
  0
LINE
  5
36D
330
17
100
AcDbEntity
  8
0
100
AcDbLine
 10
11648.771846685007
 20
2225.453403195049
 30
0.0
 11
11648.771846685006
 21
2258.578568121494
 31
0.0
  0
LINE
  5
36E
330
17
100
AcDbEntity
  8
0
100
AcDbLine
 10
11642.271846685007
 20
2225.4534059624657
 30
0.0
 11
11642.27184668501
 21
2258.578842907791
 31
0.0
  0
LINE
  5
36F
330
17
100
AcDbEntity
  8
0
100
AcDbLine
 10
11642.27184668501
 20
2183.4533818171817
 30
-0.26503075567263723
 11
11618.271860788052
 21
2183.4533920353288
 31
-0.3403031765569822
  0
LINE
  5
370
330
17
100
AcDbEntity
  8
0
100
AcDbLine
 10
11642.27184668501
 20
2225.4534059624652
 30
-0.2650308117562035
 11
11618.271878669831
 21
2225.453416180605
 31
-0.3403031765569822
  0
LINE
  5
371
330
17
100
AcDbEntity
  8
0
100
AcDbLine
 10
11642.27184668501
 20
2225.4534059624652
 30
-0.2650308117562035
 11
11648.771846685007
 21
2225.453403195049
 31
0.0
  0
LINE
  5
372
330
17
100
AcDbEntity
  8
0
100
AcDbLine
 10
11642.271846685007
 20
2183.4533818171817
 30
0.0
 11
11648.771846685006
 21
2183.4533458395517
 31
0.0
  0
LINE
  5
373
330
17
100
AcDbEntity
  8
0
100
AcDbLine
 10
11642.271846259253
 20
2182.4533818171817
 30
-0.26503075567263723
 11
11618.271860362296
 21
2182.4533920353288
 31
-0.3403031765569822
  0
LINE
  5
374
330
17
100
AcDbEntity
  8
0
100
AcDbLine
 10
11642.271847110766
 20
2226.4534059624652
 30
-0.2650308117562035
 11
11618.271879095588
 21
2226.453416180605
 31
-0.3403031765569822
  0
LINE
  5
375
330
17
100
AcDbEntity
  8
0
100
AcDbLine
 10
11648.771846685006
 20
2183.4533458395517
 30
0.0
 11
11648.771846685006
 21
2225.453403195049
 31
-7.416289804496046e-14
  0
LINE
  5
376
330
17
100
AcDbEntity
  8
0
100
AcDbLine
 10
11642.27184668501
 20
2225.4534059624652
 30
-0.2650308117562035
 11
11642.271614214034
 21
2183.4533818184696
 31
-3.552713678800501e-15
  0
LINE
  5
377
330
17
100
AcDbEntity
  8
0
100
AcDbLine
 10
11737.763575438565
 20
2326.578123556504
 30
0.0
 11
11737.76222366438
 21
2261.827233305571
 31
0.0
  0
LINE
  5
378
330
17
100
AcDbEntity
  8
0
100
AcDbLine
 10
11726.765717140755
 20
2398.5781235565037
 30
0.0
 11
11726.765717140755
 21
2458.578123556502
 31
0.0
  0
LINE
  5
379
330
17
100
AcDbEntity
  8
0
100
AcDbLine
 10
10869.766678591812
 20
1871.7654920484274
 30
-0.3403031765569722
 11
10844.766678591803
 21
1871.7654920484272
 31
-0.3403031765569722
  0
LINE
  5
37A
330
17
100
AcDbEntity
  8
0
100
AcDbLine
 10
10869.766678591812
 20
1870.7654920484274
 30
-0.3403031765569722
 11
10844.766678591803
 21
1870.7654920484272
 31
-0.3403031765569722
  0
LINE
  5
37B
330
17
100
AcDbEntity
  8
0
100
AcDbLine
 10
10868.766678591812
 20
2011.2447902242775
 30
0.0
 11
10935.769726575461
 21
2011.2447902242775
 31
0.0
  0
LINE
  5
37C
330
17
100
AcDbEntity
  8
0
100
AcDbLine
 10
10869.766678591812
 20
2010.2447902242775
 30
0.0
 11
10872.769726575454
 21
2010.2447902242775
 31
0.0
  0
LINE
  5
37D
330
17
100
AcDbEntity
  8
0
100
AcDbLine
 10
10872.769726575461
 20
2010.2447902242775
 30
0.0
 11
10935.769726575461
 21
2010.2447902242775
 31
0.0
  0
LINE
  5
37E
330
17
100
AcDbEntity
  8
0
100
AcDbLine
 10
10869.766678591812
 20
2000.7378864435868
 30
-0.3403031765569722
 11
10844.766678591803
 21
2000.737886443587
 31
-0.3403031765569722
  0
LINE
  5
37F
330
17
100
AcDbEntity
  8
0
100
AcDbLine
 10
10869.766678591812
 20
2001.7378864435868
 30
-0.3403031765569722
 11
10844.766678591803
 21
2001.737886443587
 31
-0.3403031765569722
  0
LINE
  5
380
330
17
100
AcDbEntity
  8
0
100
AcDbLine
 10
11020.650867202465
 20
1906.2516892460071
 30
0.0
 11
11020.650867202465
 21
1966.2516892460071
 31
0.0
  0
LINE
  5
381
330
17
100
AcDbEntity
  8
0
100
AcDbLine
 10
11014.041246562607
 20
1966.2516892460071
 30
0.0
 11
11014.041246562607
 21
1906.2516892460071
 31
0.0
  0
LINE
  5
382
330
17
100
AcDbEntity
  8
0
100
AcDbLine
 10
10935.890271189397
 20
1906.2516892460071
 30
0.0
 11
10935.890271189397
 21
1966.2516892460071
 31
0.0
  0
LINE
  5
383
330
17
100
AcDbEntity
  8
0
100
AcDbLine
 10
10942.499891829255
 20
1966.2516892460071
 30
0.0
 11
10942.499891829255
 21
1906.2516892460071
 31
0.0
  0
LINE
  5
384
330
17
100
AcDbEntity
  8
0
100
AcDbLine
 10
11618.522147432013
 20
2469.578123556502
 30
0.0
 11
11568.012974500169
 21
2469.578123556502
 31
0.0
  0
ENDSEC
  0
SECTION
  2
OBJECTS
  0
DICTIONARY
  5
A
330
0
100
AcDbDictionary
280
0
281
1
  3
ACAD_COLOR
350
B
  3
ACAD_GROUP
350
C
  3
ACAD_LAYOUT
350
D
  3
ACAD_MATERIAL
350
E
  3
ACAD_MLEADERSTYLE
350
F
  3
ACAD_MLINESTYLE
350
10
  3
ACAD_PLOTSETTINGS
350
11
  3
ACAD_PLOTSTYLENAME
350
12
  3
ACAD_SCALELIST
350
14
  3
ACAD_TABLESTYLE
350
15
  3
ACAD_VISUALSTYLE
350
16
  3
EZDXF_META
350
2D
  0
DICTIONARY
  5
B
330
A
100
AcDbDictionary
280
0
281
1
  0
DICTIONARY
  5
C
330
A
100
AcDbDictionary
280
0
281
1
  0
DICTIONARY
  5
D
330
A
100
AcDbDictionary
280
0
281
1
  3
Model
350
1A
  3
Layout1
350
1E
  0
DICTIONARY
  5
E
330
A
100
AcDbDictionary
280
0
281
1
  3
ByBlock
350
1F
  3
ByLayer
350
20
  3
Global
350
21
  0
DICTIONARY
  5
F
330
A
100
AcDbDictionary
280
0
281
1
  3
Standard
350
2C
  0
DICTIONARY
  5
10
330
A
100
AcDbDictionary
280
0
281
1
  3
Standard
350
22
  0
DICTIONARY
  5
11
330
A
100
AcDbDictionary
280
0
281
1
  0
ACDBDICTIONARYWDFLT
  5
12
330
A
100
AcDbDictionary
280
0
281
1
  3
Normal
350
13
100
AcDbDictionaryWithDefault
340
13
  0
ACDBPLACEHOLDER
  5
13
330
12
  0
DICTIONARY
  5
14
330
A
100
AcDbDictionary
280
0
281
1
  0
DICTIONARY
  5
15
330
A
100
AcDbDictionary
280
0
281
1
  0
DICTIONARY
  5
16
330
A
100
AcDbDictionary
280
0
281
1
  0
LAYOUT
  5
1A
330
D
100
AcDbPlotSettings
  1

  2
Adobe PDF
  4
A3
  6

 40
7.5
 41
20.0
 42
7.5
 43
20.0
 44
420.0
 45
297.0
 46
0.0
 47
0.0
 48
0.0
 49
0.0
140
0.0
141
0.0
142
1.0
143
1.0
 70
1024
 72
1
 73
0
 74
5
  7

 75
16
 76
0
 77
2
 78
300
147
1.0
148
0.0
149
0.0
100
AcDbLayout
  1
Model
 70
1
 71
0
 10
0.0
 20
0.0
 11
420.0
 21
297.0
 12
0.0
 22
0.0
 32
0.0
 14
1e+20
 24
1e+20
 34
1e+20
 15
-1e+20
 25
-1e+20
 35
-1e+20
146
0.0
 13
0.0
 23
0.0
 33
0.0
 16
1.0
 26
0.0
 36
0.0
 17
0.0
 27
1.0
 37
0.0
 76
1
330
17
  0
LAYOUT
  5
1E
330
D
100
AcDbPlotSettings
  1

  2
Adobe PDF
  4
A3
  6

 40
7.5
 41
20.0
 42
7.5
 43
20.0
 44
420.0
 45
297.0
 46
0.0
 47
0.0
 48
0.0
 49
0.0
140
0.0
141
0.0
142
1.0
143
1.0
 70
0
 72
1
 73
0
 74
5
  7

 75
16
 76
0
 77
2
 78
300
147
1.0
148
0.0
149
0.0
100
AcDbLayout
  1
Layout1
 70
1
 71
1
 10
0.0
 20
0.0
 11
420.0
 21
297.0
 12
0.0
 22
0.0
 32
0.0
 14
1e+20
 24
1e+20
 34
1e+20
 15
-1e+20
 25
-1e+20
 35
-1e+20
146
0.0
 13
0.0
 23
0.0
 33
0.0
 16
1.0
 26
0.0
 36
0.0
 17
0.0
 27
1.0
 37
0.0
 76
1
330
1B
  0
MATERIAL
  5
1F
102
{ACAD_REACTORS
330
E
102
}
330
E
100
AcDbMaterial
  1
ByBlock
  2

 70
0
 40
1.0
 71
1
 41
1.0
 91
-1023410177
 42
1.0
 72
1
  3

 73
1
 74
1
 75
1
 44
0.5
 73
0
 45
1.0
 46
1.0
 77
1
  4

 78
1
 79
1
170
1
 48
1.0
171
1
  6

172
1
173
1
174
1
140
1.0
141
1.0
175
1
  7

176
1
177
1
178
1
143
1.0
179
1
  8

270
1
271
1
272
1
145
1.0
146
1.0
273
1
  9

274
1
275
1
276
1
 42
1.0
 72
1
  3

 73
1
 74
1
 75
1
 94
63
  0
MATERIAL
  5
20
102
{ACAD_REACTORS
330
E
102
}
330
E
100
AcDbMaterial
  1
ByLayer
  2

 70
0
 40
1.0
 71
1
 41
1.0
 91
-1023410177
 42
1.0
 72
1
  3

 73
1
 74
1
 75
1
 44
0.5
 73
0
 45
1.0
 46
1.0
 77
1
  4

 78
1
 79
1
170
1
 48
1.0
171
1
  6

172
1
173
1
174
1
140
1.0
141
1.0
175
1
  7

176
1
177
1
178
1
143
1.0
179
1
  8

270
1
271
1
272
1
145
1.0
146
1.0
273
1
  9

274
1
275
1
276
1
 42
1.0
 72
1
  3

 73
1
 74
1
 75
1
 94
63
  0
MATERIAL
  5
21
102
{ACAD_REACTORS
330
E
102
}
330
E
100
AcDbMaterial
  1
Global
  2

 70
0
 40
1.0
 71
1
 41
1.0
 91
-1023410177
 42
1.0
 72
1
  3

 73
1
 74
1
 75
1
 44
0.5
 73
0
 45
1.0
 46
1.0
 77
1
  4

 78
1
 79
1
170
1
 48
1.0
171
1
  6

172
1
173
1
174
1
140
1.0
141
1.0
175
1
  7

176
1
177
1
178
1
143
1.0
179
1
  8

270
1
271
1
272
1
145
1.0
146
1.0
273
1
  9

274
1
275
1
276
1
 42
1.0
 72
1
  3

 73
1
 74
1
 75
1
 94
63
  0
MLINESTYLE
  5
22
102
{ACAD_REACTORS
330
10
102
}
330
10
100
AcDbMlineStyle
  2
Standard
 70
0
  3

 62
256
 51
90.0
 52
90.0
 71
2
 49
0.5
 62
256
  6
BYLAYER
 49
-0.5
 62
256
  6
BYLAYER
  0
MLEADERSTYLE
  5
2C
102
{ACAD_REACTORS
330
F
102
}
330
F
100
AcDbMLeaderStyle
179
2
170
2
171
1
172
0
 90
2
 40
0.0
 41
0.0
173
1
 91
-1056964608
 92
-2
290
1
 42
2.0
291
1
 43
8.0
  3
Standard
 44
4.0
300

342
29
174
1
175
1
176
0
178
1
 93
-1056964608
 45
4.0
292
0
297
0
 46
4.0
 94
-1056964608
 47
1.0
 49
1.0
140
1.0
294
1
141
0.0
177
0
142
1.0
295
0
296
0
143
3.75
271
0
272
9
273
9
  0
DICTIONARY
  5
2D
330
A
100
AcDbDictionary
281
1
  3
CREATED_BY_EZDXF
350
2E
  3
WRITTEN_BY_EZDXF
350
387
  0
DICTIONARYVAR
  5
2E
330
2D
100
DictionaryVariables
280
0
  1
1.0.3 @ 2023-09-07T14:48:37.465236+00:00
  0
DICTIONARYVAR
  5
387
330
2D
100
DictionaryVariables
280
0
  1
1.0.3 @ 2023-09-07T14:48:37.512113+00:00
  0
ENDSEC
  0
EOF
