  0
SECTION
  2
HEADER
  9
$ACADVER
  1
AC1027
  9
$ACADMAINTVER
 70
105
  9
$DWGCODEPAGE
  3
ANSI_1252
  9
$LASTSAVEDBY
  1
ezdxf
  9
$REQUIREDVERSIONS
160
0
  9
$INSBASE
 10
0.0
 20
0.0
 30
0.0
  9
$EXTMIN
 10
1e+20
 20
1e+20
 30
1e+20
  9
$EXTMAX
 10
-1e+20
 20
-1e+20
 30
-1e+20
  9
$LIMMIN
 10
0.0
 20
0.0
  9
$LIMMAX
 10
420.0
 20
297.0
  9
$ORTHOMODE
 70
0
  9
$REGENMODE
 70
1
  9
$FILLMODE
 70
1
  9
$QTEXTMODE
 70
0
  9
$MIRRTEXT
 70
1
  9
$LTSCALE
 40
1.0
  9
$ATTMODE
 70
1
  9
$TEXTSIZE
 40
2.5
  9
$TRACEWID
 40
1.0
  9
$TEXTSTYLE
  7
Standard
  9
$CLAYER
  8
0
  9
$CELTYPE
  6
ByLayer
  9
$CECOLOR
 62
256
  9
$CELTSCALE
 40
1.0
  9
$DISPSILH
 70
0
  9
$DIMSCALE
 40
1.0
  9
$DIMASZ
 40
2.5
  9
$DIMEXO
 40
0.625
  9
$DIMDLI
 40
3.75
  9
$DIMRND
 40
0.0
  9
$DIMDLE
 40
0.0
  9
$DIMEXE
 40
1.25
  9
$DIMTP
 40
0.0
  9
$DIMTM
 40
0.0
  9
$DIMTXT
 40
2.5
  9
$DIMCEN
 40
2.5
  9
$DIMTSZ
 40
0.0
  9
$DIMTOL
 70
0
  9
$DIMLIM
 70
0
  9
$DIMTIH
 70
0
  9
$DIMTOH
 70
0
  9
$DIMSE1
 70
0
  9
$DIMSE2
 70
0
  9
$DIMTAD
 70
1
  9
$DIMZIN
 70
8
  9
$DIMBLK
  1

  9
$DIMASO
 70
1
  9
$DIMSHO
 70
1
  9
$DIMPOST
  1

  9
$DIMAPOST
  1

  9
$DIMALT
 70
0
  9
$DIMALTD
 70
3
  9
$DIMALTF
 40
0.03937007874
  9
$DIMLFAC
 40
1.0
  9
$DIMTOFL
 70
1
  9
$DIMTVP
 40
0.0
  9
$DIMTIX
 70
0
  9
$DIMSOXD
 70
0
  9
$DIMSAH
 70
0
  9
$DIMBLK1
  1

  9
$DIMBLK2
  1

  9
$DIMSTYLE
  2
ISO-25
  9
$DIMCLRD
 70
0
  9
$DIMCLRE
 70
0
  9
$DIMCLRT
 70
0
  9
$DIMTFAC
 40
1.0
  9
$DIMGAP
 40
0.625
  9
$DIMJUST
 70
0
  9
$DIMSD1
 70
0
  9
$DIMSD2
 70
0
  9
$DIMTOLJ
 70
0
  9
$DIMTZIN
 70
8
  9
$DIMALTZ
 70
0
  9
$DIMALTTZ
 70
0
  9
$DIMUPT
 70
0
  9
$DIMDEC
 70
2
  9
$DIMTDEC
 70
2
  9
$DIMALTU
 70
2
  9
$DIMALTTD
 70
3
  9
$DIMTXSTY
  7
Standard
  9
$DIMAUNIT
 70
0
  9
$DIMADEC
 70
0
  9
$DIMALTRND
 40
0.0
  9
$DIMAZIN
 70
0
  9
$DIMDSEP
 70
44
  9
$DIMATFIT
 70
3
  9
$DIMFRAC
 70
0
  9
$DIMLDRBLK
  1

  9
$DIMLUNIT
 70
2
  9
$DIMLWD
 70
-2
  9
$DIMLWE
 70
-2
  9
$DIMTMOVE
 70
0
  9
$DIMFXL
 40
1.0
  9
$DIMFXLON
 70
0
  9
$DIMJOGANG
 40
0.785398163397
  9
$DIMTFILL
 70
0
  9
$DIMTFILLCLR
 70
0
  9
$DIMARCSYM
 70
0
  9
$DIMLTYPE
  6

  9
$DIMLTEX1
  6

  9
$DIMLTEX2
  6

  9
$DIMTXTDIRECTION
 70
0
  9
$LUNITS
 70
2
  9
$LUPREC
 70
4
  9
$SKETCHINC
 40
1.0
  9
$FILLETRAD
 40
10.0
  9
$AUNITS
 70
0
  9
$AUPREC
 70
2
  9
$MENU
  1
.
  9
$ELEVATION
 40
0.0
  9
$PELEVATION
 40
0.0
  9
$THICKNESS
 40
0.0
  9
$LIMCHECK
 70
0
  9
$CHAMFERA
 40
0.0
  9
$CHAMFERB
 40
0.0
  9
$CHAMFERC
 40
0.0
  9
$CHAMFERD
 40
0.0
  9
$SKPOLY
 70
0
  9
$TDCREATE
 40
2460216.4989583334
  9
$TDUCREATE
 40
2458532.153996898
  9
$TDUPDATE
 40
2460216.4989583334
  9
$TDUUPDATE
 40
2458532.1544311
  9
$TDINDWG
 40
0.0
  9
$TDUSRTIMER
 40
0.0
  9
$USRTIMER
 70
1
  9
$ANGBASE
 50
0.0
  9
$ANGDIR
 70
0
  9
$PDMODE
 70
0
  9
$PDSIZE
 40
0.0
  9
$PLINEWID
 40
0.0
  9
$SPLFRAME
 70
0
  9
$SPLINETYPE
 70
6
  9
$SPLINESEGS
 70
8
  9
$HANDSEED
  5
3DB
  9
$SURFTAB1
 70
6
  9
$SURFTAB2
 70
6
  9
$SURFTYPE
 70
6
  9
$SURFU
 70
6
  9
$SURFV
 70
6
  9
$UCSBASE
  2

  9
$UCSNAME
  2

  9
$UCSORG
 10
0.0
 20
0.0
 30
0.0
  9
$UCSXDIR
 10
1.0
 20
0.0
 30
0.0
  9
$UCSYDIR
 10
0.0
 20
1.0
 30
0.0
  9
$UCSORTHOREF
  2

  9
$UCSORTHOVIEW
 70
0
  9
$UCSORGTOP
 10
0.0
 20
0.0
 30
0.0
  9
$UCSORGBOTTOM
 10
0.0
 20
0.0
 30
0.0
  9
$UCSORGLEFT
 10
0.0
 20
0.0
 30
0.0
  9
$UCSORGRIGHT
 10
0.0
 20
0.0
 30
0.0
  9
$UCSORGFRONT
 10
0.0
 20
0.0
 30
0.0
  9
$UCSORGBACK
 10
0.0
 20
0.0
 30
0.0
  9
$PUCSBASE
  2

  9
$PUCSNAME
  2

  9
$PUCSORG
 10
0.0
 20
0.0
 30
0.0
  9
$PUCSXDIR
 10
1.0
 20
0.0
 30
0.0
  9
$PUCSYDIR
 10
0.0
 20
1.0
 30
0.0
  9
$PUCSORTHOREF
  2

  9
$PUCSORTHOVIEW
 70
0
  9
$PUCSORGTOP
 10
0.0
 20
0.0
 30
0.0
  9
$PUCSORGBOTTOM
 10
0.0
 20
0.0
 30
0.0
  9
$PUCSORGLEFT
 10
0.0
 20
0.0
 30
0.0
  9
$PUCSORGRIGHT
 10
0.0
 20
0.0
 30
0.0
  9
$PUCSORGFRONT
 10
0.0
 20
0.0
 30
0.0
  9
$PUCSORGBACK
 10
0.0
 20
0.0
 30
0.0
  9
$USERI1
 70
0
  9
$USERI2
 70
0
  9
$USERI3
 70
0
  9
$USERI4
 70
0
  9
$USERI5
 70
0
  9
$USERR1
 40
0.0
  9
$USERR2
 40
0.0
  9
$USERR3
 40
0.0
  9
$USERR4
 40
0.0
  9
$USERR5
 40
0.0
  9
$WORLDVIEW
 70
1
  9
$SHADEDGE
 70
3
  9
$SHADEDIF
 70
70
  9
$TILEMODE
 70
1
  9
$MAXACTVP
 70
64
  9
$PINSBASE
 10
0.0
 20
0.0
 30
0.0
  9
$PLIMCHECK
 70
0
  9
$PEXTMIN
 10
1e+20
 20
1e+20
 30
1e+20
  9
$PEXTMAX
 10
-1e+20
 20
-1e+20
 30
-1e+20
  9
$PLIMMIN
 10
0.0
 20
0.0
  9
$PLIMMAX
 10
420.0
 20
297.0
  9
$UNITMODE
 70
0
  9
$VISRETAIN
 70
1
  9
$PLINEGEN
 70
0
  9
$PSLTSCALE
 70
1
  9
$TREEDEPTH
 70
3020
  9
$CMLSTYLE
  2
Standard
  9
$CMLJUST
 70
0
  9
$CMLSCALE
 40
20.0
  9
$PROXYGRAPHICS
 70
1
  9
$MEASUREMENT
 70
1
  9
$CELWEIGHT
370
-1
  9
$ENDCAPS
280
0
  9
$JOINSTYLE
280
0
  9
$LWDISPLAY
290
0
  9
$INSUNITS
 70
6
  9
$HYPERLINKBASE
  1

  9
$STYLESHEET
  1

  9
$XEDIT
290
1
  9
$CEPSNTYPE
380
0
  9
$PSTYLEMODE
290
1
  9
$FINGERPRINTGUID
  2
{BFCD90AF-8AF5-4218-8EBA-184739ADA5EF}
  9
$VERSIONGUID
  2
{6919B0D4-DBBB-4D0E-B40D-E4920BC89204}
  9
$EXTNAMES
290
1
  9
$PSVPSCALE
 40
0.0
  9
$OLESTARTUP
290
0
  9
$SORTENTS
280
127
  9
$INDEXCTL
280
0
  9
$HIDETEXT
280
1
  9
$XCLIPFRAME
280
0
  9
$HALOGAP
280
0
  9
$OBSCOLOR
 70
257
  9
$OBSLTYPE
280
0
  9
$INTERSECTIONDISPLAY
280
0
  9
$INTERSECTIONCOLOR
 70
257
  9
$DIMASSOC
280
2
  9
$PROJECTNAME
  1

  9
$CAMERADISPLAY
290
0
  9
$LENSLENGTH
 40
50.0
  9
$CAMERAHEIGHT
 40
0.0
  9
$STEPSPERSEC
 40
24.0
  9
$STEPSIZE
 40
100.0
  9
$3DDWFPREC
 40
2.0
  9
$PSOLWIDTH
 40
0.005
  9
$PSOLHEIGHT
 40
0.08
  9
$LOFTANG1
 40
1.570796326795
  9
$LOFTANG2
 40
1.570796326795
  9
$LOFTMAG1
 40
0.0
  9
$LOFTMAG2
 40
0.0
  9
$LOFTPARAM
 70
7
  9
$LOFTNORMALS
280
1
  9
$LATITUDE
 40
37.795
  9
$LONGITUDE
 40
-122.394
  9
$NORTHDIRECTION
 40
0.0
  9
$TIMEZONE
 70
-8000
  9
$LIGHTGLYPHDISPLAY
280
1
  9
$TILEMODELIGHTSYNCH
280
1
  9
$CMATERIAL
347
20
  9
$SOLIDHIST
280
0
  9
$SHOWHIST
280
1
  9
$DWFFRAME
280
2
  9
$DGNFRAME
280
2
  9
$REALWORLDSCALE
290
1
  9
$INTERFERECOLOR
 62
256
  9
$CSHADOW
280
0
  9
$SHADOWPLANELOCATION
 40
0.0
  0
ENDSEC
  0
SECTION
  2
CLASSES
  0
CLASS
  1
ACDBDICTIONARYWDFLT
  2
AcDbDictionaryWithDefault
  3
ObjectDBX Classes
 90
0
 91
0
280
0
281
0
  0
CLASS
  1
SUN
  2
AcDbSun
  3
SCENEOE
 90
1153
 91
0
280
0
281
0
  0
CLASS
  1
VISUALSTYLE
  2
AcDbVisualStyle
  3
ObjectDBX Classes
 90
4095
 91
0
280
0
281
0
  0
CLASS
  1
MATERIAL
  2
AcDbMaterial
  3
ObjectDBX Classes
 90
1153
 91
0
280
0
281
0
  0
CLASS
  1
SCALE
  2
AcDbScale
  3
ObjectDBX Classes
 90
1153
 91
0
280
0
281
0
  0
CLASS
  1
TABLESTYLE
  2
AcDbTableStyle
  3
ObjectDBX Classes
 90
4095
 91
0
280
0
281
0
  0
CLASS
  1
MLEADERSTYLE
  2
AcDbMLeaderStyle
  3
ACDB_MLEADERSTYLE_CLASS
 90
4095
 91
0
280
0
281
0
  0
CLASS
  1
DICTIONARYVAR
  2
AcDbDictionaryVar
  3
ObjectDBX Classes
 90
0
 91
0
280
0
281
0
  0
CLASS
  1
CELLSTYLEMAP
  2
AcDbCellStyleMap
  3
ObjectDBX Classes
 90
1152
 91
0
280
0
281
0
  0
CLASS
  1
MENTALRAYRENDERSETTINGS
  2
AcDbMentalRayRenderSettings
  3
SCENEOE
 90
1024
 91
0
280
0
281
0
  0
CLASS
  1
ACDBDETAILVIEWSTYLE
  2
AcDbDetailViewStyle
  3
ObjectDBX Classes
 90
1025
 91
0
280
0
281
0
  0
CLASS
  1
ACDBSECTIONVIEWSTYLE
  2
AcDbSectionViewStyle
  3
ObjectDBX Classes
 90
1025
 91
0
280
0
281
0
  0
CLASS
  1
RASTERVARIABLES
  2
AcDbRasterVariables
  3
ISM
 90
0
 91
0
280
0
281
0
  0
CLASS
  1
LAYOUT
  2
AcDbLayout
  3
ObjectDBX Classes
 90
0
 91
0
280
0
281
0
  0
CLASS
  1
ACDBPLACEHOLDER
  2
AcDbPlaceHolder
  3
ObjectDBX Classes
 90
0
 91
0
280
0
281
0
  0
ENDSEC
  0
SECTION
  2
TABLES
  0
TABLE
  2
VPORT
  5
8
330
0
100
AcDbSymbolTable
 70
1
  0
VPORT
  5
23
330
8
100
AcDbSymbolTableRecord
100
AcDbViewportTableRecord
  2
*Active
 70
0
 10
0.0
 20
0.0
 11
1.0
 21
1.0
 12
0.0
 22
0.0
 13
0.0
 23
0.0
 14
0.5
 24
0.5
 15
0.5
 25
0.5
 16
0.0
 26
0.0
 36
1.0
 17
0.0
 27
0.0
 37
0.0
 40
1000.0
 41
1.34
 42
50.0
 43
0.0
 44
0.0
 50
0.0
 51
0.0
 71
0
 72
1000
 73
1
 74
3
 75
0
 76
0
 77
0
 78
0
281
0
 65
0
146
0.0
  0
ENDTAB
  0
TABLE
  2
LTYPE
  5
2
330
0
100
AcDbSymbolTable
 70
3
  0
LTYPE
  5
24
330
2
100
AcDbSymbolTableRecord
100
AcDbLinetypeTableRecord
  2
ByBlock
 70
0
  3

 72
65
 73
0
 40
0.0
  0
LTYPE
  5
25
330
2
100
AcDbSymbolTableRecord
100
AcDbLinetypeTableRecord
  2
ByLayer
 70
0
  3

 72
65
 73
0
 40
0.0
  0
LTYPE
  5
26
330
2
100
AcDbSymbolTableRecord
100
AcDbLinetypeTableRecord
  2
Continuous
 70
0
  3

 72
65
 73
0
 40
0.0
  0
ENDTAB
  0
TABLE
  2
LAYER
  5
1
330
0
100
AcDbSymbolTable
 70
2
  0
LAYER
  5
27
330
1
100
AcDbSymbolTableRecord
100
AcDbLayerTableRecord
  2
0
 70
0
 62
7
  6
Continuous
370
-3
390
13
347
21
  0
LAYER
  5
28
330
1
100
AcDbSymbolTableRecord
100
AcDbLayerTableRecord
  2
Defpoints
 70
0
 62
7
  6
Continuous
290
0
370
-3
390
13
347
21
  0
ENDTAB
  0
TABLE
  2
STYLE
  5
5
330
0
100
AcDbSymbolTable
 70
1
  0
STYLE
  5
29
330
5
100
AcDbSymbolTableRecord
100
AcDbTextStyleTableRecord
  2
Standard
 70
0
 40
0.0
 41
1.0
 50
0.0
 71
0
 42
2.5
  3
txt
  4

  0
ENDTAB
  0
TABLE
  2
VIEW
  5
7
330
0
100
AcDbSymbolTable
 70
0
  0
ENDTAB
  0
TABLE
  2
UCS
  5
6
330
0
100
AcDbSymbolTable
 70
0
  0
ENDTAB
  0
TABLE
  2
APPID
  5
3
330
0
100
AcDbSymbolTable
 70
3
  0
APPID
  5
2A
330
3
100
AcDbSymbolTableRecord
100
AcDbRegAppTableRecord
  2
ACAD
 70
0
  0
APPID
  5
3D8
330
3
100
AcDbSymbolTableRecord
100
AcDbRegAppTableRecord
  2
HATCHBACKGROUNDCOLOR
 70
0
  0
APPID
  5
3D9
330
3
100
AcDbSymbolTableRecord
100
AcDbRegAppTableRecord
  2
EZDXF
 70
0
  0
ENDTAB
  0
TABLE
  2
DIMSTYLE
  5
4
330
0
100
AcDbSymbolTable
 70
1
100
AcDbDimStyleTable
  0
DIMSTYLE
105
2B
330
4
100
AcDbSymbolTableRecord
100
AcDbDimStyleTableRecord
  2
Standard
 70
0
 40
1.0
 41
2.5
 42
0.625
 43
3.75
 44
1.25
 45
0.0
 46
0.0
 47
0.0
 48
0.0
 49
2.5
140
2.5
141
2.5
142
0.0
143
0.03937007874
144
1.0
145
0.0
146
1.0
147
0.625
148
0.0
 69
0
 70
0
 71
0
 72
0
 73
0
 74
0
 75
0
 76
0
 77
1
 78
8
 79
3
170
0
171
3
172
1
173
0
174
0
175
0
176
0
177
0
178
0
179
2
271
2
272
2
273
2
274
3
275
0
276
0
277
2
278
44
279
0
280
0
281
0
282
0
283
0
284
8
285
0
286
0
288
0
289
3
290
0
371
-2
372
-2
  0
ENDTAB
  0
TABLE
  2
BLOCK_RECORD
  5
9
330
0
100
AcDbSymbolTable
 70
2
  0
BLOCK_RECORD
  5
17
330
9
100
AcDbSymbolTableRecord
100
AcDbBlockTableRecord
  2
*Model_Space
340
1A
 70
0
280
1
281
0
  0
BLOCK_RECORD
  5
1B
330
9
100
AcDbSymbolTableRecord
100
AcDbBlockTableRecord
  2
*Paper_Space
340
1E
 70
0
280
1
281
0
  0
ENDTAB
  0
ENDSEC
  0
SECTION
  2
BLOCKS
  0
BLOCK
  5
18
330
17
100
AcDbEntity
  8
0
100
AcDbBlockBegin
  2
*Model_Space
 70
0
 10
0.0
 20
0.0
 30
0.0
  3
*Model_Space
  1

  0
ENDBLK
  5
19
330
17
100
AcDbEntity
  8
0
100
AcDbBlockEnd
  0
BLOCK
  5
1C
330
1B
100
AcDbEntity
  8
0
100
AcDbBlockBegin
  2
*Paper_Space
 70
0
 10
0.0
 20
0.0
 30
0.0
  3
*Paper_Space
  1

  0
ENDBLK
  5
1D
330
1B
100
AcDbEntity
  8
0
100
AcDbBlockEnd
  0
ENDSEC
  0
SECTION
  2
ENTITIES
  0
LWPOLYLINE
  5
2F
330
17
100
AcDbEntity
  8
0
100
AcDbPolyline
 90
4
 70
0
 10
11021.27150854643
 20
2033.7585930267046
 10
11056.27150854643
 20
2033.7585930267046
 10
11056.27150854643
 20
2009.7585930267046
 10
11021.27150854643
 20
2009.7585930267046
  0
LWPOLYLINE
  5
30
330
17
100
AcDbEntity
  8
0
100
AcDbPolyline
 90
4
 70
0
 10
11022.77150854643
 20
2032.2585930267046
 10
11054.77150854643
 20
2032.2585930267046
 10
11054.77150854643
 20
2011.2585930267046
 10
11022.77150854643
 20
2011.2585930267046
  0
LINE
  5
31
330
17
100
AcDbEntity
  8
0
100
AcDbLine
 10
11055.271508546426
 20
2009.7585930267046
 30
0.0
 11
11055.271508546426
 21
2008.7585930267046
 31
0.0
  0
LINE
  5
32
330
17
100
AcDbEntity
  8
0
100
AcDbLine
 10
11040.27150854643
 20
2009.7585930267046
 30
0.0
 11
11040.27150854643
 21
2008.7585930267046
 31
0.0
  0
LWPOLYLINE
  5
33
330
17
100
AcDbEntity
  8
0
100
AcDbPolyline
 90
4
 70
0
 10
11056.271508546426
 20
2008.7585930267046
 10
11056.271508546426
 20
2007.2585930267046
 10
11039.271508546426
 20
2007.2585930267046
 10
11039.271508546426
 20
2008.7585930267046
  0
LINE
  5
34
330
17
100
AcDbEntity
  8
0
100
AcDbLine
 10
11037.27150854643
 20
2009.7585930267046
 30
0.0
 11
11037.27150854643
 21
2008.7585930267046
 31
0.0
  0
LINE
  5
35
330
17
100
AcDbEntity
  8
0
100
AcDbLine
 10
11022.27150854643
 20
2009.7585930267046
 30
0.0
 11
11022.27150854643
 21
2008.7585930267046
 31
0.0
  0
LWPOLYLINE
  5
36
330
17
100
AcDbEntity
  8
0
100
AcDbPolyline
 90
4
 70
0
 10
11021.27150854643
 20
2008.7585930267046
 10
11021.27150854643
 20
2007.2585930267046
 10
11038.27150854643
 20
2007.2585930267046
 10
11038.27150854643
 20
2008.7585930267046
  0
LINE
  5
37
330
17
100
AcDbEntity
  8
FP-Below
100
AcDbLine
 10
11462.766643359346
 20
-2429.709325732676
 30
0.0
 11
11432.766643359062
 21
-2429.709325732676
 31
0.0
  0
LINE
  5
38
330
17
100
AcDbEntity
  8
FP-Below
100
AcDbLine
 10
11432.766643359062
 20
-2429.709325732676
 30
0.0
 11
11432.766643359062
 21
-2418.709325732676
 31
0.0
  0
LINE
  5
39
330
17
100
AcDbEntity
  8
FP-Below
100
AcDbLine
 10
11432.766643359062
 20
-2418.709325732676
 30
0.0
 11
11451.763114452026
 21
-2418.709325732676
 31
0.0
  0
LINE
  5
3A
330
17
100
AcDbEntity
  8
FP-Below
100
AcDbLine
 10
11451.763114452026
 20
-2418.709325732676
 30
0.0
 11
11451.76413282498
 21
-2369.6335706934615
 31
0.0
  0
LINE
  5
3B
330
17
100
AcDbEntity
  8
FP-Below
100
AcDbLine
 10
11376.266180319713
 20
-2207.633628438505
 30
0.0
 11
11376.26617972271
 21
-2285.1341272892732
 31
0.0
  0
LINE
  5
3C
330
17
100
AcDbEntity
  8
FP-Below
100
AcDbLine
 10
11376.266179672648
 20
-2291.6335706934624
 30
0.0
 11
11376.266178693751
 21
-2418.709325732676
 31
0.0
  0
LINE
  5
3D
330
17
100
AcDbEntity
  8
FP-Below
100
AcDbLine
 10
11376.266178693751
 20
-2418.709325732676
 30
0.0
 11
11396.766643359062
 21
-2418.709325732676
 31
0.0
  0
LINE
  5
3E
330
17
100
AcDbEntity
  8
FP-Below
100
AcDbLine
 10
11396.766643359062
 20
-2418.709325732676
 30
0.0
 11
11396.766643359062
 21
-2429.709325732676
 31
0.0
  0
LINE
  5
3F
330
17
100
AcDbEntity
  8
FP-Below
100
AcDbLine
 10
11396.766643359062
 20
-2429.709325732676
 30
0.0
 11
11387.168651157486
 21
-2429.709325732676
 31
0.0
  0
LINE
  5
40
330
17
100
AcDbEntity
  8
FP-Below
100
AcDbLine
 10
11462.766643359346
 20
-2429.709325732676
 30
0.0
 11
11462.766643359026
 21
-2386.6335706934615
 31
0.0
  0
LINE
  5
41
330
17
100
AcDbEntity
  8
FP-Below
100
AcDbLine
 10
11462.766643359026
 20
-2386.6335706934615
 30
0.0
 11
11478.562346165052
 21
-2386.6335706934615
 31
0.0
  0
LINE
  5
42
330
17
100
AcDbEntity
  8
FP-Below
100
AcDbLine
 10
11514.562346165052
 20
-2375.6335706934615
 30
0.0
 11
11521.264861388036
 21
-2375.6335706934615
 31
0.0
  0
LINE
  5
43
330
17
100
AcDbEntity
  8
FP-Below
100
AcDbLine
 10
11527.764861388036
 20
-2375.6335706934615
 30
0.0
 11
11557.266643359091
 21
-2375.6335706934624
 31
0.0
  0
LINE
  5
44
330
17
100
AcDbEntity
  8
FP-Below
100
AcDbLine
 10
11376.266180319713
 20
-2207.6336284472236
 30
0.0
 11
11527.764861388036
 21
-2207.6336284472245
 31
0.0
  0
LINE
  5
45
330
17
100
AcDbEntity
  8
FP-Below
100
AcDbLine
 10
11534.264861388036
 20
-2207.6336284472245
 30
0.0
 11
11577.265390478586
 21
-2207.6336284472236
 31
0.0
  0
LINE
  5
46
330
17
100
AcDbEntity
  8
FP-Below
100
AcDbLine
 10
11609.258546249404
 20
-2207.6336284472245
 30
0.0
 11
11656.406003791386
 21
-2207.6336284472245
 31
0.0
  0
LINE
  5
47
330
17
100
AcDbEntity
  8
FP-Below
100
AcDbLine
 10
11686.406003791386
 20
-2207.6336284472245
 30
0.0
 11
11726.769316315489
 21
-2207.6336284472245
 31
0.0
  0
LINE
  5
48
330
17
100
AcDbEntity
  8
FP-Below
100
AcDbLine
 10
11369.770634555038
 20
-2201.1336284472245
 30
0.0
 11
11393.7676497607
 21
-2201.1336284472245
 31
0.0
  0
LINE
  5
49
330
17
100
AcDbEntity
  8
FP-Below
100
AcDbLine
 10
11432.265342113575
 20
-2201.1336284472245
 30
0.0
 11
11550.765342113575
 21
-2201.1336284472245
 31
0.0
  0
LINE
  5
4A
330
17
100
AcDbEntity
  8
FP-Below
100
AcDbLine
 10
11557.265342113575
 20
-2201.1336284472245
 30
0.0
 11
11577.265390478586
 21
-2201.1336284472245
 31
0.0
  0
LINE
  5
4B
330
17
100
AcDbEntity
  8
FP-Below
100
AcDbLine
 10
11609.265390478586
 20
-2201.1336284472245
 30
0.0
 11
11629.26712408455
 21
-2201.1336284472245
 31
0.0
  0
LINE
  5
4C
330
17
100
AcDbEntity
  8
FP-Below
100
AcDbLine
 10
11635.76712408455
 20
-2201.1336284472245
 30
0.0
 11
11656.406003791386
 21
-2201.1336284472245
 31
0.0
  0
LINE
  5
4D
330
17
100
AcDbEntity
  8
FP-Below
100
AcDbLine
 10
11686.406003791386
 20
-2201.1336284472245
 30
0.0
 11
11726.769316315489
 21
-2201.1336284472245
 31
0.0
  0
LINE
  5
4E
330
17
100
AcDbEntity
  8
FP-Below
100
AcDbLine
 10
11629.266643359091
 20
-2375.6335706934615
 30
0.0
 11
11671.76931574672
 21
-2375.6335706934615
 31
0.0
  0
LINE
  5
4F
330
17
100
AcDbEntity
  8
FP-Below
100
AcDbLine
 10
11478.562346165052
 20
-2375.6335706934615
 30
0.0
 11
11478.562346165052
 21
-2386.6335706934615
 31
0.0
  0
LINE
  5
50
330
17
100
AcDbEntity
  8
FP-Below
100
AcDbLine
 10
11514.562346165052
 20
-2375.6335706934615
 30
0.0
 11
11514.562346165052
 21
-2386.6335706934615
 31
0.0
  0
LINE
  5
51
330
17
100
AcDbEntity
  8
FP-Below
100
AcDbLine
 10
11514.562346165052
 20
-2386.6335706934615
 30
0.0
 11
11557.266643359091
 21
-2386.6335706934606
 31
0.0
  0
LINE
  5
52
330
17
100
AcDbEntity
  8
FP-Below
100
AcDbLine
 10
11629.266643359091
 20
-2386.6335706934615
 30
0.0
 11
11671.76931574672
 21
-2386.6335706934615
 31
0.0
  0
LINE
  5
53
330
17
100
AcDbEntity
  8
FP-Below
100
AcDbLine
 10
11671.76931574672
 20
-2386.6335706934615
 30
0.0
 11
11671.76931574672
 21
-2375.6335706934615
 31
0.0
  0
LINE
  5
54
330
17
100
AcDbEntity
  8
FP-Below
100
AcDbLine
 10
11719.774241050354
 20
-1920.0502903549213
 30
0.0
 11
11726.769316315489
 21
-1920.0502903549213
 31
0.0
  0
LINE
  5
55
330
17
100
AcDbEntity
  8
FP-Below
100
AcDbLine
 10
11726.769316315489
 20
-1920.0502903549213
 30
0.0
 11
11726.769316315489
 21
-2002.1336284472245
 31
0.0
  0
LINE
  5
56
330
17
100
AcDbEntity
  8
FP-Below
100
AcDbLine
 10
11726.769316315489
 20
-2129.6336284472245
 30
0.0
 11
11726.769316315489
 21
-2201.1336284472245
 31
0.0
  0
LINE
  5
57
330
17
100
AcDbEntity
  8
FP-Below
100
AcDbLine
 10
11726.769316315489
 20
-2207.6336284472245
 30
0.0
 11
11726.769316315489
 21
-2375.6335706934615
 31
0.0
  0
LINE
  5
58
330
17
100
AcDbEntity
  8
FP-Below
100
AcDbLine
 10
11726.769316315489
 20
-2375.6335706934615
 30
0.0
 11
11707.76931574672
 21
-2375.6335706934615
 31
0.0
  0
LINE
  5
59
330
17
100
AcDbEntity
  8
FP-Below
100
AcDbLine
 10
11737.765752373545
 20
-2338.6336284472245
 30
0.0
 11
11737.765752373545
 21
-2386.6335706934615
 31
0.0
  0
LINE
  5
5A
330
17
100
AcDbEntity
  8
FP-Below
100
AcDbLine
 10
11737.765752373545
 20
-2386.6335706934615
 30
0.0
 11
11707.76931574672
 21
-2386.6335706934615
 31
0.0
  0
LINE
  5
5B
330
17
100
AcDbEntity
  8
FP-Below
100
AcDbLine
 10
11707.76931574672
 20
-2375.6335706934615
 30
0.0
 11
11707.76931574672
 21
-2386.6335706934615
 31
0.0
  0
LINE
  5
5C
330
17
100
AcDbEntity
  8
FP-Below
100
AcDbLine
 10
11369.77057959329
 20
-2216.133623656814
 30
0.0
 11
11353.268870822749
 21
-2216.1336236882535
 31
0.0
  0
LINE
  5
5D
330
17
100
AcDbEntity
  8
FP-Below
100
AcDbLine
 10
11201.772063522838
 20
-2228.133511135494
 30
0.0
 11
11201.768425480352
 21
-2396.133570693414
 31
0.0
  0
LINE
  5
5E
330
17
100
AcDbEntity
  8
FP-Below
100
AcDbLine
 10
11201.768425480352
 20
-2396.133570693414
 30
0.0
 11
11225.767534344513
 21
-2396.1335706934433
 31
0.0
  0
LINE
  5
5F
330
17
100
AcDbEntity
  8
FP-Below
100
AcDbLine
 10
11108.769316315474
 20
-2429.6335050088055
 30
0.0
 11
11140.269316318465
 21
-2429.6335050087764
 31
0.0
  0
LINE
  5
60
330
17
100
AcDbEntity
  8
FP-Below
100
AcDbLine
 10
11140.269316318465
 20
-2429.6335050087764
 30
0.0
 11
11140.269316318465
 21
-2418.6335050087764
 31
0.0
  0
LINE
  5
61
330
17
100
AcDbEntity
  8
FP-Below
100
AcDbLine
 10
11140.269316318465
 20
-2418.6335050087764
 30
0.0
 11
11119.769316315478
 21
-2418.6335050088037
 31
0.0
  0
LINE
  5
62
330
17
100
AcDbEntity
  8
FP-Below
100
AcDbLine
 10
11108.769316315489
 20
-2386.6335706934615
 30
0.0
 11
11092.97628646586
 21
-2386.6335706934615
 31
0.0
  0
LINE
  5
63
330
17
100
AcDbEntity
  8
FP-Below
100
AcDbLine
 10
11092.97628646586
 20
-2375.6335706934615
 30
0.0
 11
11092.97628646586
 21
-2386.6335706934615
 31
0.0
  0
LINE
  5
64
330
17
100
AcDbEntity
  8
FP-Below
100
AcDbLine
 10
11056.97628646586
 20
-2375.6335706934615
 30
0.0
 11
11056.97628646586
 21
-2386.6335706934615
 31
0.0
  0
LINE
  5
65
330
17
100
AcDbEntity
  8
FP-Below
100
AcDbLine
 10
11092.97628646586
 20
-2375.6335706934615
 30
0.0
 11
11111.769316315489
 21
-2375.6335706934615
 31
0.0
  0
LINE
  5
66
330
17
100
AcDbEntity
  8
FP-Below
100
AcDbLine
 10
10844.766678591803
 20
-2375.6335706934615
 30
0.0
 11
10863.772880826056
 21
-2375.6335706934688
 31
0.0
  0
LINE
  5
67
330
17
100
AcDbEntity
  8
FP-Below
100
AcDbLine
 10
10899.76935211689
 20
-2375.6335706934688
 30
0.0
 11
10942.26753434452
 21
-2375.6335706934615
 31
0.0
  0
LINE
  5
68
330
17
100
AcDbEntity
  8
FP-Below
100
AcDbLine
 10
11014.26753434452
 20
-2375.6335706934624
 30
0.0
 11
11037.27109828648
 21
-2375.6335706934615
 31
0.0
  0
LINE
  5
69
330
17
100
AcDbEntity
  8
FP-Below
100
AcDbLine
 10
11043.77109828648
 20
-2375.6335706934615
 30
0.0
 11
11056.97628646586
 21
-2375.6335706934615
 31
0.0
  0
LINE
  5
6A
330
17
100
AcDbEntity
  8
FP-Below
100
AcDbLine
 10
10863.772880826056
 20
-2375.633570693467
 30
0.0
 11
10863.772880826056
 21
-2386.6335706934688
 31
0.0
  0
LINE
  5
6B
330
17
100
AcDbEntity
  8
FP-Below
100
AcDbLine
 10
10899.772880826056
 20
-2375.633570693467
 30
0.0
 11
10899.772880826056
 21
-2386.6335706934688
 31
0.0
  0
LINE
  5
6C
330
17
100
AcDbEntity
  8
FP-Below
100
AcDbLine
 10
10899.772880826056
 20
-2386.6335706934688
 30
0.0
 11
10942.26753434452
 21
-2386.6335706934615
 31
0.0
  0
LINE
  5
6D
330
17
100
AcDbEntity
  8
FP-Below
100
AcDbLine
 10
11014.26753434452
 20
-2386.6335706934615
 30
0.0
 11
11056.97628646586
 21
-2386.6335706934615
 31
0.0
  0
LINE
  5
6E
330
17
100
AcDbEntity
  8
FP-Below
100
AcDbLine
 10
11369.770263405326
 20
-2228.133623688257
 30
0.0
 11
11353.268870822742
 21
-2228.133623688257
 31
0.0
  0
LINE
  5
6F
330
17
100
AcDbEntity
  8
FP-Below
100
AcDbLine
 10
11218.269316315482
 20
-2228.133623688257
 30
0.0
 11
11201.769316317592
 21
-2228.133511135494
 31
0.0
  0
LINE
  5
70
330
17
100
AcDbEntity
  8
FP-Below
100
AcDbLine
 10
11195.267396681722
 20
-2222.633623688257
 30
0.0
 11
11195.268451270264
 21
-2285.134127260233
 31
0.0
  0
LINE
  5
71
330
17
100
AcDbEntity
  8
FP-Below
100
AcDbLine
 10
11195.2685609372
 20
-2291.6335706934615
 30
0.0
 11
11195.270703841326
 21
-2418.6334203250954
 31
0.0
  0
LINE
  5
72
330
17
100
AcDbEntity
  8
FP-Below
100
AcDbLine
 10
11195.270703841326
 20
-2418.6334203250954
 30
0.0
 11
11176.269316318465
 21
-2418.6335050087764
 31
0.0
  0
LINE
  5
73
330
17
100
AcDbEntity
  8
FP-Below
100
AcDbLine
 10
11176.269316318465
 20
-2418.6335050087764
 30
0.0
 11
11176.269316318465
 21
-2429.6335050087764
 31
0.0
  0
LINE
  5
74
330
17
100
AcDbEntity
  8
FP-Below
100
AcDbLine
 10
11369.770948479132
 20
-2201.1336284472245
 30
0.0
 11
11369.77057959329
 21
-2216.133623656814
 31
0.0
  0
LINE
  5
75
330
17
100
AcDbEntity
  8
FP-Below
100
AcDbLine
 10
11369.770263405326
 20
-2228.133623688257
 30
0.0
 11
11369.7661792969
 21
-2396.133570693434
 31
0.0
  0
LINE
  5
76
330
17
100
AcDbEntity
  8
FP-Below
100
AcDbLine
 10
11369.7661792969
 20
-2396.133570693434
 30
0.0
 11
11345.766643493718
 21
-2396.133570693434
 31
0.0
  0
LINE
  5
77
330
17
100
AcDbEntity
  8
FP-Below
100
AcDbLine
 10
11353.26887080904
 20
-2396.133570693434
 30
0.0
 11
11353.268870822742
 21
-2396.133570693434
 31
0.0
  0
LINE
  5
78
330
17
100
AcDbEntity
  8
FP-Below
100
AcDbLine
 10
11122.769316315489
 20
-1609.0502903554743
 30
0.0
 11
11122.769316315489
 21
-1570.3002903560327
 31
0.0
  0
LINE
  5
79
330
17
100
AcDbEntity
  8
FP-Below
100
AcDbLine
 10
11122.769316315489
 20
-1570.3002903560327
 30
0.0
 11
11075.512613548153
 21
-1570.3002903560327
 31
0.0
  0
LINE
  5
7A
330
17
100
AcDbEntity
  8
FP-Below
100
AcDbLine
 10
10881.017569366411
 20
-1570.3002903560327
 30
0.0
 11
10833.766678591803
 21
-1570.3002903560327
 31
0.0
  0
LINE
  5
7B
330
17
100
AcDbEntity
  8
FP-Below
100
AcDbLine
 10
10844.766121514998
 20
-1581.3002903560327
 30
0.0
 11
10881.017569366404
 21
-1581.3002903560327
 31
0.0
  0
LINE
  5
7C
330
17
100
AcDbEntity
  8
FP-Below
100
AcDbLine
 10
11690.519685667858
 20
-1581.3002903560327
 30
0.0
 11
11726.765752373545
 21
-1581.3002903560327
 31
0.0
  0
LINE
  5
7D
330
17
100
AcDbEntity
  8
FP-Below
100
AcDbLine
 10
11111.769316315489
 20
-1781.300290356031
 30
0.0
 11
11111.769316315482
 21
-1913.5502903549213
 31
0.0
  0
LINE
  5
7E
330
17
100
AcDbEntity
  8
FP-Below
100
AcDbLine
 10
11118.269316315489
 20
-1620.0502903554743
 30
0.0
 11
11118.269479261833
 21
-1716.0504445355446
 31
0.0
  0
LINE
  5
7F
330
17
100
AcDbEntity
  8
FP-Below
100
AcDbLine
 10
11118.269316315489
 20
-1620.0502903554743
 30
0.0
 11
11177.76887082278
 21
-1620.039763242149
 31
-0.3403031765569822
  0
LINE
  5
80
330
17
100
AcDbEntity
  8
FP-Below
100
AcDbLine
 10
11393.768870822745
 20
-1620.0502903554743
 30
0.0
 11
11453.268425330001
 21
-1620.0502903554743
 31
0.0
  0
LINE
  5
81
330
17
100
AcDbEntity
  8
FP-Below
100
AcDbLine
 10
11453.268425330001
 20
-1620.0502903554743
 30
0.0
 11
11453.268425330001
 21
-1908.050290354925
 31
0.0
  0
LINE
  5
82
330
17
100
AcDbEntity
  8
FP-Below
100
AcDbLine
 10
11459.768425330001
 20
-1581.3002903560327
 30
0.0
 11
11459.768425330001
 21
-1773.300290356031
 31
0.0
  0
LINE
  5
83
330
17
100
AcDbEntity
  8
FP-Below
100
AcDbLine
 10
11459.768425330001
 20
-1781.3003268413831
 30
0.0
 11
11459.768425330001
 21
-1913.5502903549213
 31
0.0
  0
LINE
  5
84
330
17
100
AcDbEntity
  8
FP-Below
100
AcDbLine
 10
11459.768425330001
 20
-1913.5502903549213
 30
0.0
 11
11642.271846685004
 21
-1913.5502903549213
 31
0.0
  0
LINE
  5
85
330
17
100
AcDbEntity
  8
FP-Below
100
AcDbLine
 10
11648.771846685004
 20
-1913.5502903549213
 30
0.0
 11
11655.774241050362
 21
-1913.5502903549213
 31
0.0
  0
LINE
  5
86
330
17
100
AcDbEntity
  8
FP-Below
100
AcDbLine
 10
11719.774241050362
 20
-1913.5502903549213
 30
0.0
 11
11726.77663541572
 21
-1913.5502903549213
 31
0.0
  0
LINE
  5
87
330
17
100
AcDbEntity
  8
FP-Below
100
AcDbLine
 10
11122.769316315489
 20
-1609.0502903554743
 30
0.0
 11
11177.768870890191
 21
-1609.0502903554743
 31
-0.3403031765569822
  0
LINE
  5
88
330
17
100
AcDbEntity
  8
FP-Below
100
AcDbLine
 10
11393.768870822745
 20
-1609.0502903554743
 30
0.0
 11
11448.768425330001
 21
-1609.0502903554743
 31
0.0
  0
LINE
  5
89
330
17
100
AcDbEntity
  8
FP-Below
100
AcDbLine
 10
11353.268870822742
 20
-2228.133623688257
 30
0.0
 11
11353.268870822749
 21
-2216.1336236882535
 31
0.0
  0
LINE
  5
8A
330
17
100
AcDbEntity
  8
FP-Below
100
AcDbLine
 10
11171.769093569119
 20
-1920.0502903549213
 30
0.0
 11
11218.269316315482
 21
-1920.0502903549213
 31
0.0
  0
LINE
  5
8B
330
17
100
AcDbEntity
  8
FP-Below
100
AcDbLine
 10
11163.769093569112
 20
-1928.0502903549213
 30
0.0
 11
11171.769093569119
 21
-1928.0502903549213
 31
0.0
  0
LINE
  5
8C
330
17
100
AcDbEntity
  8
FP-Below
100
AcDbLine
 10
11353.268870822749
 20
-1920.0502903549213
 30
0.0
 11
11399.769093569112
 21
-1920.0502903549213
 31
0.0
  0
LINE
  5
8D
330
17
100
AcDbEntity
  8
FP-Below
100
AcDbLine
 10
11407.769093569112
 20
-1920.0502903549213
 30
0.0
 11
11546.269761808237
 21
-1920.0502903549213
 31
0.0
  0
LINE
  5
8E
330
17
100
AcDbEntity
  8
FP-Below
100
AcDbLine
 10
11554.269761808237
 20
-1920.0502903549213
 30
0.0
 11
11632.269761808237
 21
-1920.0502903549213
 31
0.0
  0
LINE
  5
8F
330
17
100
AcDbEntity
  8
FP-Below
100
AcDbLine
 10
11640.269761808237
 20
-1920.0502903549213
 30
0.0
 11
11655.774241050362
 21
-1920.0502903549213
 31
0.0
  0
LINE
  5
90
330
17
100
AcDbEntity
  8
FP-Below
100
AcDbLine
 10
11399.769093569112
 20
-1928.0502903549213
 30
0.0
 11
11407.769093569112
 21
-1928.0502903549213
 31
0.0
  0
LINE
  5
91
330
17
100
AcDbEntity
  8
FP-Below
100
AcDbLine
 10
10844.766121514998
 20
-1913.550290354925
 30
0.0
 11
10938.768425329994
 21
-1913.550290354925
 31
0.0
  0
LINE
  5
92
330
17
100
AcDbEntity
  8
FP-Below
100
AcDbLine
 10
10945.268425329994
 20
-1913.550290354925
 30
0.0
 11
10962.26842532999
 21
-1913.550290354925
 31
0.0
  0
LINE
  5
93
330
17
100
AcDbEntity
  8
FP-Below
100
AcDbLine
 10
10994.26842532999
 20
-1913.550290354925
 30
0.0
 11
11011.268425329994
 21
-1913.550290354925
 31
0.0
  0
LINE
  5
94
330
17
100
AcDbEntity
  8
FP-Below
100
AcDbLine
 10
11017.768425329994
 20
-1913.550290354925
 30
0.0
 11
11111.769316315489
 21
-1913.5502903549213
 31
0.0
  0
LINE
  5
95
330
17
100
AcDbEntity
  8
FP-Below
100
AcDbLine
 10
11118.269294939853
 20
-1908.050290354925
 30
0.0
 11
11218.269316315489
 21
-1908.050290354925
 31
0.0
  0
LINE
  5
96
330
17
100
AcDbEntity
  8
FP-Below
100
AcDbLine
 10
11353.268870822742
 20
-1908.050290354925
 30
0.0
 11
11453.268425330001
 21
-1908.050290354925
 31
0.0
  0
LINE
  5
97
330
17
100
AcDbEntity
  8
FP-Below
100
AcDbLine
 10
10844.759390777332
 20
-1998.113416090172
 30
0.0
 11
10931.268425329994
 21
-1998.1190122052185
 31
0.0
  0
LINE
  5
98
330
17
100
AcDbEntity
  8
FP-Below
100
AcDbLine
 10
10939.268425329994
 20
-1998.1195297109416
 30
0.0
 11
10948.269629851888
 21
-1998.1204396618677
 31
0.0
  0
LINE
  5
99
330
17
100
AcDbEntity
  8
FP-Below
100
AcDbLine
 10
10942.269726575445
 20
-2006.1198331597525
 30
0.0
 11
10948.269629851884
 21
-2006.1204397027486
 31
0.0
  0
LINE
  5
9A
330
17
100
AcDbEntity
  8
FP-Below
100
AcDbLine
 10
11008.271507530693
 20
-2006.1265054202977
 30
0.0
 11
11014.271496156945
 21
-2006.1271119719213
 31
0.0
  0
LINE
  5
9B
330
17
100
AcDbEntity
  8
FP-Below
100
AcDbLine
 10
11008.271507530693
 20
-1998.1249187049334
 30
0.0
 11
11017.268425329987
 21
-1998.1252222738813
 31
0.0
  0
LINE
  5
9C
330
17
100
AcDbEntity
  8
FP-Below
100
AcDbLine
 10
11025.268425329987
 20
-1998.1257397796044
 30
0.0
 11
11163.769093569112
 21
-1998.1346991406435
 31
0.0
  0
LINE
  5
9D
330
17
100
AcDbEntity
  8
FP-Below
100
AcDbLine
 10
10844.76667859181
 20
-2004.633623688257
 30
0.0
 11
10935.76972657546
 21
-2004.633623688257
 31
0.0
  0
LINE
  5
9E
330
17
100
AcDbEntity
  8
FP-Below
100
AcDbLine
 10
11020.419834195583
 20
-2004.633623688257
 30
0.0
 11
11111.769316315482
 21
-2004.633623688257
 31
0.0
  0
LINE
  5
9F
330
17
100
AcDbEntity
  8
FP-Below
100
AcDbLine
 10
11171.769093569119
 20
-1998.133623688257
 30
0.0
 11
11218.269316315489
 21
-1998.133623688257
 31
0.0
  0
LINE
  5
A0
330
17
100
AcDbEntity
  8
FP-Below
100
AcDbLine
 10
11163.769093569112
 20
-1990.133623688257
 30
0.0
 11
11171.769093569112
 21
-1990.133623688257
 31
0.0
  0
LINE
  5
A1
330
17
100
AcDbEntity
  8
FP-Below
100
AcDbLine
 10
11353.268870822742
 20
-1998.133623688257
 30
0.0
 11
11399.769093569112
 21
-1998.133623688257
 31
0.0
  0
LINE
  5
A2
330
17
100
AcDbEntity
  8
FP-Below
100
AcDbLine
 10
11399.769093569112
 20
-1990.133623688257
 30
0.0
 11
11407.769093569112
 21
-1990.133623688257
 31
0.0
  0
LINE
  5
A3
330
17
100
AcDbEntity
  8
FP-Below
100
AcDbLine
 10
11369.7676497607
 20
-2010.1336236882535
 30
0.0
 11
11353.268870822749
 21
-2010.1336236882535
 31
0.0
  0
LINE
  5
A4
330
17
100
AcDbEntity
  8
FP-Below
100
AcDbLine
 10
11218.269316315482
 20
-2228.133623688257
 30
0.0
 11
11218.269316315482
 21
-2216.133623688257
 31
0.0
  0
LINE
  5
A5
330
17
100
AcDbEntity
  8
FP-Below
100
AcDbLine
 10
11218.269316315482
 20
-2216.133623688257
 30
0.0
 11
11118.269316315489
 21
-2216.1336236882535
 31
0.0
  0
LINE
  5
A6
330
17
100
AcDbEntity
  8
FP-Below
100
AcDbLine
 10
11118.269316315489
 20
-2216.1336236882535
 30
0.0
 11
11118.269316315482
 21
-2010.133623688257
 31
0.0
  0
LINE
  5
A7
330
17
100
AcDbEntity
  8
FP-Below
100
AcDbLine
 10
11118.269316315482
 20
-2010.133623688257
 30
0.0
 11
11218.269316315482
 21
-2010.133623688257
 31
0.0
  0
LINE
  5
A8
330
17
100
AcDbEntity
  8
FP-Below
100
AcDbLine
 10
11195.267396681722
 20
-2222.633623688257
 30
0.0
 11
11111.769037828208
 21
-2222.6336236882544
 31
0.0
  0
LINE
  5
A9
330
17
100
AcDbEntity
  8
FP-Below
100
AcDbLine
 10
11111.769316315489
 20
-2375.6335706934606
 30
0.0
 11
11111.76923859268
 21
-2369.6335706934615
 31
0.0
  0
LINE
  5
AA
330
17
100
AcDbEntity
  8
FP-Below
100
AcDbLine
 10
11111.768849978633
 20
-2339.6335706934606
 30
0.0
 11
11111.768228196162
 21
-2291.6335706934615
 31
0.0
  0
LINE
  5
AB
330
17
100
AcDbEntity
  8
FP-Below
100
AcDbLine
 10
11111.769037828208
 20
-2222.6336236882535
 30
0.0
 11
11111.769232121644
 21
-2207.6336284472254
 31
0.0
  0
LINE
  5
AC
330
17
100
AcDbEntity
  8
FP-Below
100
AcDbLine
 10
11111.769316315489
 20
-2201.1336284472245
 30
0.0
 11
11111.769316315482
 21
-2004.633623688257
 31
0.0
  0
LINE
  5
AD
330
17
100
AcDbEntity
  8
FP-Below
100
AcDbLine
 10
11353.268870822742
 20
-1998.1336236882498
 30
0.0
 11
11353.268870822749
 21
-2010.1336236882498
 31
0.0
  0
LINE
  5
AE
330
17
100
AcDbEntity
  8
FP-Below
100
AcDbLine
 10
11218.269316315489
 20
-1998.1336236882498
 30
0.0
 11
11218.269316315482
 21
-2010.1336236882498
 31
0.0
  0
LINE
  5
AF
330
17
100
AcDbEntity
  8
FP-Below
100
AcDbLine
 10
11171.769093569112
 20
-1998.133623688257
 30
0.0
 11
11171.769093569112
 21
-1990.133623688257
 31
0.0
  0
LINE
  5
B0
330
17
100
AcDbEntity
  8
FP-Below
100
AcDbLine
 10
11171.769093569112
 20
-1928.050290354925
 30
0.0
 11
11171.769093569112
 21
-1920.0502903549213
 31
0.0
  0
LINE
  5
B1
330
17
100
AcDbEntity
  8
FP-Below
100
AcDbLine
 10
11163.769093569112
 20
-1998.1346991406435
 30
0.0
 11
11163.769093569112
 21
-1990.133623688257
 31
0.0
  0
LINE
  5
B2
330
17
100
AcDbEntity
  8
FP-Below
100
AcDbLine
 10
11163.769093569112
 20
-1928.050290354925
 30
0.0
 11
11163.769093569112
 21
-1920.0502903549213
 31
0.0
  0
LINE
  5
B3
330
17
100
AcDbEntity
  8
FP-Below
100
AcDbLine
 10
11399.769093569112
 20
-1998.133623688257
 30
0.0
 11
11399.769093569112
 21
-1990.133623688257
 31
0.0
  0
LINE
  5
B4
330
17
100
AcDbEntity
  8
FP-Below
100
AcDbLine
 10
11399.769093569112
 20
-1928.0502903549213
 30
0.0
 11
11399.769093569112
 21
-1920.0502903549213
 31
0.0
  0
LINE
  5
B5
330
17
100
AcDbEntity
  8
FP-Below
100
AcDbLine
 10
11407.769093569112
 20
-1998.133623688257
 30
0.0
 11
11407.769093569112
 21
-1990.133623688257
 31
0.0
  0
LINE
  5
B6
330
17
100
AcDbEntity
  8
FP-Below
100
AcDbLine
 10
11407.769093569112
 20
-1928.0502903549213
 30
0.0
 11
11407.769093569112
 21
-1920.0502903549213
 31
0.0
  0
LINE
  5
B7
330
17
100
AcDbEntity
  8
FP-Below
100
AcDbLine
 10
11478.562346165052
 20
-2375.6335706934615
 30
0.0
 11
11459.764823630127
 21
-2375.633090531637
 31
0.0
  0
LINE
  5
B8
330
17
100
AcDbEntity
  8
FP-Below
100
AcDbLine
 10
11459.764823617861
 20
-2375.6335706934606
 30
0.0
 11
11459.764976881193
 21
-2369.6335706934606
 31
0.0
  0
LINE
  5
B9
330
17
100
AcDbEntity
  8
FP-Below
100
AcDbLine
 10
11353.268870822742
 20
-1908.0502903549213
 30
0.0
 11
11353.268870822749
 21
-1920.0502903549213
 31
0.0
  0
LINE
  5
BA
330
17
100
AcDbEntity
  8
FP-Below
100
AcDbLine
 10
11218.269316315489
 20
-1908.0502903549213
 30
0.0
 11
11218.269316315482
 21
-1920.0502903549213
 31
0.0
  0
LINE
  5
BB
330
17
100
AcDbEntity
  8
FP-Below
100
AcDbLine
 10
11134.269479261833
 20
-1788.0504445355446
 30
0.0
 11
11118.269479261833
 21
-1788.0504445355446
 31
0.0
  0
LINE
  5
BC
330
17
100
AcDbEntity
  8
FP-Below
100
AcDbLine
 10
11118.269479261833
 20
-1716.0504445355446
 30
0.0
 11
11134.269479261833
 21
-1716.0504445355446
 31
0.0
  0
LINE
  5
BD
330
17
100
AcDbEntity
  8
FP-Below
100
AcDbLine
 10
11134.269479261833
 20
-1716.0504445355446
 30
0.0
 11
11134.269479261833
 21
-1788.0504445355446
 31
0.0
  0
LINE
  5
BE
330
17
100
AcDbEntity
  8
FP-Below
100
AcDbLine
 10
11640.269761808237
 20
-1990.133623688257
 30
0.0
 11
11632.269761808237
 21
-1990.133623688257
 31
0.0
  0
LINE
  5
BF
330
17
100
AcDbEntity
  8
FP-Below
100
AcDbLine
 10
11025.268425329987
 20
-1990.133623688257
 30
0.0
 11
11017.268425329987
 21
-1990.133623688257
 31
0.0
  0
LINE
  5
C0
330
17
100
AcDbEntity
  8
FP-Below
100
AcDbLine
 10
11025.268425329987
 20
-1998.133623688257
 30
0.0
 11
11025.268425329987
 21
-1990.133623688257
 31
0.0
  0
LINE
  5
C1
330
17
100
AcDbEntity
  8
FP-Below
100
AcDbLine
 10
11017.268425329987
 20
-1998.133623688257
 30
0.0
 11
11017.268425329987
 21
-1990.133623688257
 31
0.0
  0
LINE
  5
C2
330
17
100
AcDbEntity
  8
FP-Below
100
AcDbLine
 10
11118.269479261833
 20
-1788.0504445355446
 30
0.0
 11
11118.269294939853
 21
-1908.050290354925
 31
0.0
  0
LINE
  5
C3
330
17
100
AcDbEntity
  8
FP-Below
100
AcDbLine
 10
10833.766678591803
 20
-1778.0511806058466
 30
0.0
 11
10833.766678591803
 21
-1713.300290356031
 31
0.0
  0
LINE
  5
C4
330
17
100
AcDbEntity
  8
FP-Below
100
AcDbLine
 10
10833.766678591803
 20
-1641.300290356029
 30
0.0
 11
10833.766678591803
 21
-1570.3002903560327
 31
0.0
  0
LINE
  5
C5
330
17
100
AcDbEntity
  8
FP-Below
100
AcDbLine
 10
11496.024641486109
 20
-1570.3002903560327
 30
0.0
 11
11448.768460562793
 21
-1570.3002903560327
 31
0.0
  0
LINE
  5
C6
330
17
100
AcDbEntity
  8
FP-Below
100
AcDbLine
 10
11448.768460562793
 20
-1570.3002903560327
 30
0.0
 11
11448.768425330001
 21
-1609.0502903554743
 31
0.0
  0
LINE
  5
C7
330
17
100
AcDbEntity
  8
FP-Below
100
AcDbLine
 10
11014.26753434452
 20
-2386.6335706934615
 30
0.0
 11
11014.26753434452
 21
-2375.6335706934615
 31
0.0
  0
LINE
  5
C8
330
17
100
AcDbEntity
  8
FP-Below
100
AcDbLine
 10
10942.26753434452
 20
-2386.6335706934615
 30
0.0
 11
10942.26753434452
 21
-2375.6335706934615
 31
0.0
  0
LINE
  5
C9
330
17
100
AcDbEntity
  8
FP-Below
100
AcDbLine
 10
11459.768425330001
 20
-1581.3002903560327
 30
0.0
 11
11496.024641486101
 21
-1581.3002903560327
 31
0.0
  0
LINE
  5
CA
330
17
100
AcDbEntity
  8
FP-Below
100
AcDbLine
 10
11568.010738425224
 20
-1581.3002903560327
 30
0.0
 11
11618.524383506954
 21
-1581.3002903560327
 31
0.0
  0
LINE
  5
CB
330
17
100
AcDbEntity
  8
FP-Below
100
AcDbLine
 10
11690.519685667858
 20
-1581.3002903560327
 30
0.0
 11
11690.51968566785
 21
-1570.3002903560327
 31
0.0
  0
LINE
  5
CC
330
17
100
AcDbEntity
  8
FP-Below
100
AcDbLine
 10
11618.52911657885
 20
-1581.3002903560327
 30
0.0
 11
11618.52911657885
 21
-1570.3002903560327
 31
0.0
  0
LINE
  5
CD
330
17
100
AcDbEntity
  8
FP-Below
100
AcDbLine
 10
11496.024641486101
 20
-1581.3002903559873
 30
0.0
 11
11496.024641486109
 21
-1570.3002903559873
 31
0.0
  0
LINE
  5
CE
330
17
100
AcDbEntity
  8
FP-Below
100
AcDbLine
 10
11568.01521057511
 20
-1581.3002903559873
 30
0.0
 11
11568.01521057511
 21
-1570.3002903559873
 31
0.0
  0
LINE
  5
CF
330
17
100
AcDbEntity
  8
FP-Below
100
AcDbLine
 10
11003.522044459152
 20
-1581.3002903560327
 30
0.0
 11
10953.012871527308
 21
-1581.3002903560327
 31
0.0
  0
LINE
  5
D0
330
17
100
AcDbEntity
  8
FP-Below
100
AcDbLine
 10
11003.522044459152
 20
-1570.3002903560327
 30
0.0
 11
10953.012871527308
 21
-1570.3002903560327
 31
0.0
  0
LINE
  5
D1
330
17
100
AcDbEntity
  8
FP-Below
100
AcDbLine
 10
10881.017569366404
 20
-1581.3002903560327
 30
0.0
 11
10881.017569366411
 21
-1570.3002903560327
 31
0.0
  0
LINE
  5
D2
330
17
100
AcDbEntity
  8
FP-Below
100
AcDbLine
 10
10953.008138455412
 20
-1581.3002903560327
 30
0.0
 11
10953.008138455412
 21
-1570.3002903560327
 31
0.0
  0
LINE
  5
D3
330
17
100
AcDbEntity
  8
FP-Below
100
AcDbLine
 10
11075.51261354816
 20
-1581.3002903559873
 30
0.0
 11
11075.512613548153
 21
-1570.3002903559873
 31
0.0
  0
LINE
  5
D4
330
17
100
AcDbEntity
  8
FP-Below
100
AcDbLine
 10
11003.522044459152
 20
-1581.3002903559873
 30
0.0
 11
11003.522044459152
 21
-1570.3002903559873
 31
0.0
  0
LINE
  5
D5
330
17
100
AcDbEntity
  8
FP-Below
100
AcDbLine
 10
11111.769316315489
 20
-1781.300290356031
 30
0.0
 11
11017.768425329994
 21
-1781.300290356031
 31
0.0
  0
LINE
  5
D6
330
17
100
AcDbEntity
  8
FP-Below
100
AcDbLine
 10
11011.268425329994
 20
-1783.3002903560346
 30
0.0
 11
11005.268425329994
 21
-1783.3002903560346
 31
0.0
  0
LINE
  5
D7
330
17
100
AcDbEntity
  8
FP-Below
100
AcDbLine
 10
10951.268425329994
 20
-1783.3002903560346
 30
0.0
 11
10945.268425329994
 21
-1783.3002903560346
 31
0.0
  0
LINE
  5
D8
330
17
100
AcDbEntity
  8
FP-Below
100
AcDbLine
 10
10938.768425329994
 20
-1779.8007580772364
 30
0.0
 11
10844.766121514998
 21
-1779.8007580772364
 31
0.0
  0
LINE
  5
D9
330
17
100
AcDbEntity
  8
FP-Below
100
AcDbLine
 10
11075.51261354816
 20
-1581.3002903560455
 30
0.0
 11
11111.768794471469
 21
-1581.3002903560327
 31
0.0
  0
LINE
  5
DA
330
17
100
AcDbEntity
  8
FP-Below
100
AcDbLine
 10
11111.768794471469
 20
-1581.3002903560327
 30
0.0
 11
11111.768794471469
 21
-1773.300290356031
 31
0.0
  0
LINE
  5
DB
330
17
100
AcDbEntity
  8
FP-Below
100
AcDbLine
 10
11111.768794471469
 20
-1773.300290356031
 30
0.0
 11
11005.268425329994
 21
-1773.300290356031
 31
0.0
  0
LINE
  5
DC
330
17
100
AcDbEntity
  8
FP-Below
100
AcDbLine
 10
10951.268425329994
 20
-1773.300290356031
 30
0.0
 11
10844.766121514998
 21
-1773.300290356031
 31
0.0
  0
LINE
  5
DD
330
17
100
AcDbEntity
  8
FP-Below
100
AcDbLine
 10
10844.766121514998
 20
-1998.113416525569
 30
0.0
 11
10844.766121514998
 21
-1990.197904974616
 31
0.0
  0
LINE
  5
DE
330
17
100
AcDbEntity
  8
FP-Below
100
AcDbLine
 10
10844.76612151501
 20
-1958.197904974617
 30
0.0
 11
10844.766121514995
 21
-1920.0502903549213
 31
0.0
  0
LINE
  5
DF
330
17
100
AcDbEntity
  8
FP-Below
100
AcDbLine
 10
10844.766121514998
 20
-1913.550290354925
 30
0.0
 11
10844.766121514995
 21
-1866.5918303077933
 31
0.0
  0
LINE
  5
E0
330
17
100
AcDbEntity
  8
FP-Below
100
AcDbLine
 10
10844.766121514998
 20
-1779.8007580772364
 30
0.0
 11
10844.766121514998
 21
-1779.8007580772364
 31
0.0
  0
LINE
  5
E1
330
17
100
AcDbEntity
  8
FP-Below
100
AcDbLine
 10
10844.766121514998
 20
-1773.300290356031
 30
0.0
 11
10844.766121514998
 21
-1713.300290356031
 31
0.0
  0
LINE
  5
E2
330
17
100
AcDbEntity
  8
FP-Below
100
AcDbLine
 10
10844.766121514998
 20
-1695.300290356031
 30
0.0
 11
10844.766121514998
 21
-1659.300290356031
 31
0.0
  0
LINE
  5
E3
330
17
100
AcDbEntity
  8
FP-Below
100
AcDbLine
 10
10844.766121514998
 20
-1641.300290356031
 30
0.0
 11
10844.766121514998
 21
-1581.3002903560327
 31
0.0
  0
LINE
  5
E4
330
17
100
AcDbEntity
  8
FP-Below
100
AcDbLine
 10
11163.769093569112
 20
-1920.0502903549213
 30
0.0
 11
11025.268425329987
 21
-1920.0502903549213
 31
0.0
  0
LINE
  5
E5
330
17
100
AcDbEntity
  8
FP-Below
100
AcDbLine
 10
11017.268425329994
 20
-1920.0502903549213
 30
0.0
 11
10994.26842532999
 21
-1920.0502903549213
 31
0.0
  0
LINE
  5
E6
330
17
100
AcDbEntity
  8
FP-Below
100
AcDbLine
 10
10962.26842532999
 20
-1920.0502903549213
 30
0.0
 11
10939.268425329994
 21
-1920.050290354925
 31
0.0
  0
LINE
  5
E7
330
17
100
AcDbEntity
  8
FP-Below
100
AcDbLine
 10
10931.268425329994
 20
-1920.050290354925
 30
0.0
 11
10844.766121514998
 21
-1920.0502903549213
 31
0.0
  0
LINE
  5
E8
330
17
100
AcDbEntity
  8
FP-Below
100
AcDbLine
 10
10557.769316315482
 20
-1880.6334752072116
 30
0.0
 11
10557.769316315474
 21
-1929.1342014638103
 31
0.0
  0
LINE
  5
E9
330
17
100
AcDbEntity
  8
FP-Below
100
AcDbLine
 10
10557.769316315474
 20
-1989.1342014638385
 30
0.0
 11
10557.769316315482
 21
-2037.6337721692917
 31
0.0
  0
LINE
  5
EA
330
17
100
AcDbEntity
  8
FP-Below
100
AcDbLine
 10
10568.769316315482
 20
-2026.6327327027693
 30
0.0
 11
10568.769316315474
 21
-1989.1342014638385
 31
0.0
  0
LINE
  5
EB
330
17
100
AcDbEntity
  8
FP-Below
100
AcDbLine
 10
10568.769316315474
 20
-1929.1342014638103
 30
0.0
 11
10568.769316315482
 21
-1891.6334752072116
 31
0.0
  0
LINE
  5
EC
330
17
100
AcDbEntity
  8
FP-Below
100
AcDbLine
 10
10836.77020730097
 20
-2033.1327327027693
 30
0.0
 11
10641.769316315482
 21
-2033.1327327027693
 31
0.0
  0
LINE
  5
ED
330
17
100
AcDbEntity
  8
FP-Below
100
AcDbLine
 10
10641.769316315482
 20
-2033.1327327027693
 30
0.0
 11
10641.769316315482
 21
-2037.6337721692917
 31
0.0
  0
LINE
  5
EE
330
17
100
AcDbEntity
  8
FP-Below
100
AcDbLine
 10
10641.769316315482
 20
-2037.6337721692917
 30
0.0
 11
10557.769316315482
 21
-2037.6337721692917
 31
0.0
  0
LINE
  5
EF
330
17
100
AcDbEntity
  8
FP-Below
100
AcDbLine
 10
10836.77020730097
 20
-1884.6356702248568
 30
0.0
 11
10729.328619007303
 21
-1884.6356702248568
 31
0.0
  0
LINE
  5
F0
330
17
100
AcDbEntity
  8
FP-Below
100
AcDbLine
 10
10724.828619007303
 20
-2026.6327327027693
 30
0.0
 11
10568.769316315482
 21
-2026.6327327027693
 31
0.0
  0
LINE
  5
F1
330
17
100
AcDbEntity
  8
FP-Below
100
AcDbLine
 10
11726.77663541572
 20
-1913.5502903549213
 30
0.0
 11
11726.774700767199
 21
-1856.4250680729829
 31
0.0
  0
LINE
  5
F2
330
17
100
AcDbEntity
  8
FP-Below
100
AcDbLine
 10
11726.773781333517
 20
-1814.4250680729829
 30
0.0
 11
11726.771846698632
 21
-1781.30029039077
 31
0.0
  0
LINE
  5
F3
330
17
100
AcDbEntity
  8
FP-Below
100
AcDbLine
 10
11726.771601516315
 20
-1773.300290356031
 30
0.0
 11
11726.769762648953
 21
-1713.30029035603
 31
0.0
  0
LINE
  5
F4
330
17
100
AcDbEntity
  8
FP-Below
100
AcDbLine
 10
11726.765717140754
 20
-1641.300290356031
 30
0.0
 11
11726.765717140754
 21
-1581.3002903560327
 31
0.0
  0
LINE
  5
F5
330
17
100
AcDbEntity
  8
FP-Below
100
AcDbLine
 10
11568.01521057511
 20
-1570.3002903559873
 30
0.0
 11
11618.52911657885
 21
-1570.3002903559873
 31
0.0
  0
LINE
  5
F6
330
17
100
AcDbEntity
  8
FP-Below
100
AcDbLine
 10
11690.51994658986
 20
-1570.3002903560327
 30
0.0
 11
11737.766560782971
 21
-1570.3002903560327
 31
0.0
  0
LINE
  5
F7
330
17
100
AcDbEntity
  8
FP-Below
100
AcDbLine
 10
11737.766560782971
 20
-1570.3002903560327
 30
0.0
 11
11737.771063053688
 21
-1641.300290356029
 31
0.0
  0
LINE
  5
F8
330
17
100
AcDbEntity
  8
FP-Below
100
AcDbLine
 10
11737.763575438563
 20
-1713.30029035603
 30
0.0
 11
11737.762223664378
 21
-1778.0511806069635
 31
0.0
  0
LINE
  5
F9
330
17
100
AcDbEntity
  8
FP-Below
100
AcDbLine
 10
11737.762223664378
 20
-1778.0511806069635
 30
0.0
 11
11765.518590729464
 21
-1778.0511721871417
 31
0.0
  0
LINE
  5
FA
330
17
100
AcDbEntity
  8
FP-Below
100
AcDbLine
 10
11801.518590729485
 20
-1778.051160559794
 30
0.0
 11
11846.018508896237
 21
-1778.0511444117774
 31
0.0
  0
LINE
  5
FB
330
17
100
AcDbEntity
  8
FP-Below
100
AcDbLine
 10
11882.01850499863
 20
-1778.051131656096
 30
0.0
 11
11923.859136569341
 21
-1778.0511228531986
 31
0.0
  0
LINE
  5
FC
330
17
100
AcDbEntity
  8
FP-Below
100
AcDbLine
 10
11923.859136569341
 20
-1778.0511228531986
 30
0.0
 11
11923.862665278522
 21
-1880.6334174850754
 31
0.0
  0
LINE
  5
FD
330
17
100
AcDbEntity
  8
FP-Below
100
AcDbLine
 10
11923.862665278522
 20
-1880.6334174850754
 30
0.0
 11
12013.859136569341
 21
-1880.6334710817764
 31
0.0
  0
LINE
  5
FE
330
17
100
AcDbEntity
  8
FP-Below
100
AcDbLine
 10
12013.859136569341
 20
-1880.6334710817764
 30
0.0
 11
12013.859136569341
 21
-1929.1342014638112
 31
0.0
  0
LINE
  5
FF
330
17
100
AcDbEntity
  8
FP-Below
100
AcDbLine
 10
12013.859136569334
 20
-1989.134201463813
 30
0.0
 11
12013.859136569341
 21
-2037.6337680438564
 31
0.0
  0
LINE
  5
100
330
17
100
AcDbEntity
  8
FP-Below
100
AcDbLine
 10
12013.859136569341
 20
-2037.6337680438564
 30
0.0
 11
11980.862665278508
 21
-2037.6337721692917
 31
0.0
  0
LINE
  5
101
330
17
100
AcDbEntity
  8
FP-Below
100
AcDbLine
 10
11980.862665278508
 20
-2037.6337721692917
 30
0.0
 11
11908.862683130412
 21
-2037.634057715616
 31
0.0
  0
LINE
  5
102
330
17
100
AcDbEntity
  8
FP-Below
100
AcDbLine
 10
11757.272922002832
 20
-1789.051192671276
 30
0.0
 11
11765.518586831893
 21
-1789.0511716031442
 31
0.0
  0
LINE
  5
103
330
17
100
AcDbEntity
  8
FP-Below
100
AcDbLine
 10
11801.518586831915
 20
-1789.051159280426
 30
0.0
 11
11846.018512793808
 21
-1789.0511423308026
 31
0.0
  0
LINE
  5
104
330
17
100
AcDbEntity
  8
FP-Below
100
AcDbLine
 10
11882.0185088962
 20
-1789.0511288797506
 30
0.0
 11
11912.859136569341
 21
-1789.0511228531986
 31
0.0
  0
LINE
  5
105
330
17
100
AcDbEntity
  8
FP-Below
100
AcDbLine
 10
11912.859136569341
 20
-1789.0511228531986
 30
0.0
 11
11912.862658798627
 21
-1885.1337104117165
 31
0.0
  0
LINE
  5
106
330
17
100
AcDbEntity
  8
FP-Below
100
AcDbLine
 10
11912.862897077915
 20
-1891.633710407351
 30
0.0
 11
11912.8639387829
 21
-1920.0502903550414
 31
0.0
  0
LINE
  5
107
330
17
100
AcDbEntity
  8
FP-Below
100
AcDbLine
 10
12002.859136569341
 20
-1891.6334710817764
 30
0.0
 11
12002.859136569341
 21
-1929.1342014638112
 31
0.0
  0
LINE
  5
108
330
17
100
AcDbEntity
  8
FP-Below
100
AcDbLine
 10
12002.859136569334
 20
-1989.134201463813
 30
0.0
 11
12002.859136569341
 21
-2026.6337680438564
 31
0.0
  0
LINE
  5
109
330
17
100
AcDbEntity
  8
FP-Below
100
AcDbLine
 10
12002.859136569341
 20
-2026.6337680438564
 30
0.0
 11
11980.862665278508
 21
-2026.6337721692917
 31
0.0
  0
LINE
  5
10A
330
17
100
AcDbEntity
  8
FP-Below
100
AcDbLine
 10
11845.362897077915
 20
-2026.6342964489113
 30
0.0
 11
11734.766643359033
 21
-2026.6347243711325
 31
0.0
  0
LINE
  5
10B
330
17
100
AcDbEntity
  8
FP-Below
100
AcDbLine
 10
11737.765752373545
 20
-2338.6336284472245
 30
0.0
 11
11734.766643359033
 21
-2338.6336284472245
 31
0.0
  0
LINE
  5
10C
330
17
100
AcDbEntity
  8
FP-Below
100
AcDbLine
 10
11734.766643359033
 20
-2338.6336284472245
 30
0.0
 11
11734.766643359033
 21
-2033.1327327027693
 31
0.0
  0
LINE
  5
10D
330
17
100
AcDbEntity
  8
FP-Below
100
AcDbLine
 10
11734.766643359033
 20
-2026.6347243711325
 30
0.0
 11
11734.766643359033
 21
-1891.6402391224628
 31
0.0
  0
LINE
  5
10E
330
17
100
AcDbEntity
  8
FP-Below
100
AcDbLine
 10
11733.272922002825
 20
-1885.1402938754554
 30
0.0
 11
11733.272922002825
 21
-1860.9250289720121
 31
0.0
  0
LINE
  5
10F
330
17
100
AcDbEntity
  8
FP-Below
100
AcDbLine
 10
11908.862665278508
 20
-2033.1327327027693
 30
0.0
 11
11908.862683130412
 21
-2037.634057715616
 31
0.0
  0
LINE
  5
110
330
17
100
AcDbEntity
  8
FP-Below
100
AcDbLine
 10
11908.862665278508
 20
-2033.1327327027693
 30
0.0
 11
11734.766643359033
 21
-2033.1327327027693
 31
0.0
  0
LINE
  5
111
330
17
100
AcDbEntity
  8
FP-Below
100
AcDbLine
 10
10833.77020730097
 20
-2338.6336284472245
 30
0.0
 11
10833.77020730097
 21
-2386.6335706934615
 31
0.0
  0
LINE
  5
112
330
17
100
AcDbEntity
  8
FP-Below
100
AcDbLine
 10
10833.77020730097
 20
-2386.6335706934615
 30
0.0
 11
10863.771098855153
 21
-2386.6335706934688
 31
0.0
  0
LINE
  5
113
330
17
100
AcDbEntity
  8
FP-Below
100
AcDbLine
 10
10833.77020730097
 20
-2338.6336284472245
 30
0.0
 11
10836.77020730097
 21
-2338.6336284472245
 31
0.0
  0
LINE
  5
114
330
17
100
AcDbEntity
  8
FP-Below
100
AcDbLine
 10
10836.77020730097
 20
-2338.6336284472245
 30
0.0
 11
10836.77020730097
 21
-2033.1327327027693
 31
0.0
  0
LINE
  5
115
330
17
100
AcDbEntity
  8
FP-Below
100
AcDbLine
 10
10836.77020730097
 20
-1884.6356702248568
 30
0.0
 11
10836.77020730097
 21
-1945.697904974616
 31
0.0
  0
LINE
  5
116
330
17
100
AcDbEntity
  8
FP-Below
100
AcDbLine
 10
10836.77020730097
 20
-1950.197904974616
 30
0.0
 11
10836.77020730097
 21
-1958.2080085559583
 31
0.0
  0
LINE
  5
117
330
17
100
AcDbEntity
  8
FP-Below
100
AcDbLine
 10
10836.77020730097
 20
-1990.2080085559583
 30
0.0
 11
10836.77020730097
 21
-1998.197904974616
 31
0.0
  0
LINE
  5
118
330
17
100
AcDbEntity
  8
FP-Below
100
AcDbLine
 10
10836.77020730097
 20
-2002.697904974616
 30
0.0
 11
10836.77020730097
 21
-2026.6349277204145
 31
0.0
  0
LINE
  5
119
330
17
100
AcDbEntity
  8
FP-Below
100
AcDbLine
 10
10770.01960420385
 20
-1789.051118643234
 30
0.0
 11
10725.51967824203
 21
-1789.0511326858332
 31
0.0
  0
LINE
  5
11A
330
17
100
AcDbEntity
  8
FP-Below
100
AcDbLine
 10
10689.519678242037
 20
-1789.0511326858332
 30
0.0
 11
10658.769316315489
 21
-1789.0511228531986
 31
0.0
  0
LINE
  5
11B
330
17
100
AcDbEntity
  8
FP-Below
100
AcDbLine
 10
10658.769418888673
 20
-1789.0541177507703
 30
0.0
 11
10658.769316315489
 21
-1878.1334752072107
 31
0.0
  0
LINE
  5
11C
330
17
100
AcDbEntity
  8
FP-Below
100
AcDbLine
 10
10724.828619007303
 20
-1891.6334752072116
 30
0.0
 11
10568.769316315482
 21
-1891.6334752072116
 31
0.0
  0
LINE
  5
11D
330
17
100
AcDbEntity
  8
FP-Below
100
AcDbLine
 10
10557.769316315482
 20
-1880.6334752072116
 30
0.0
 11
10647.769316315489
 21
-1880.6334752072116
 31
0.0
  0
LINE
  5
11E
330
17
100
AcDbEntity
  8
FP-Below
100
AcDbLine
 10
10647.769316315489
 20
-1880.6334752072116
 30
0.0
 11
10647.769316315489
 21
-1778.0511228531986
 31
0.0
  0
LINE
  5
11F
330
17
100
AcDbEntity
  8
FP-Below
100
AcDbLine
 10
10647.769316315489
 20
-1778.0511228531986
 30
0.0
 11
10689.519678242
 21
-1778.0511326858332
 31
0.0
  0
LINE
  5
120
330
17
100
AcDbEntity
  8
FP-Below
100
AcDbLine
 10
10725.519678241986
 20
-1778.0511326858332
 30
0.0
 11
10770.019604203813
 21
-1778.0511225552045
 31
0.0
  0
LINE
  5
121
330
17
100
AcDbEntity
  8
FP-Below
100
AcDbLine
 10
10806.019604203799
 20
-1778.0511225552045
 30
0.0
 11
10833.77020730097
 21
-1778.0511228531986
 31
0.0
  0
LINE
  5
122
330
17
100
AcDbEntity
  8
FP-Below
100
AcDbLine
 10
11923.862665278522
 20
-1880.6334174850754
 30
0.0
 11
11923.859136569341
 21
-1880.6334174861668
 31
0.0
  0
LINE
  5
123
330
17
100
AcDbEntity
  8
FP-Below
100
AcDbLine
 10
12002.859136569341
 20
-1891.6334710817764
 30
0.0
 11
11920.863938325076
 21
-1891.6336102679707
 31
0.0
  0
LINE
  5
124
330
17
100
AcDbEntity
  8
FP-Below
100
AcDbLine
 10
11726.771601516315
 20
-1773.300290356031
 30
0.0
 11
11718.765752373552
 21
-1773.300290356031
 31
0.0
  0
LINE
  5
125
330
17
100
AcDbEntity
  8
FP-Below
100
AcDbLine
 10
11656.771846685004
 20
-1773.3002700656652
 30
0.0
 11
11537.768425330001
 21
-1773.300372441352
 31
0.0
  0
LINE
  5
126
330
17
100
AcDbEntity
  8
FP-Below
100
AcDbLine
 10
11726.771846698632
 20
-1781.30029039077
 30
0.0
 11
11718.765752373552
 21
-1781.300244756062
 31
0.0
  0
LINE
  5
127
330
17
100
AcDbEntity
  8
FP-Below
100
AcDbLine
 10
11656.771846685004
 20
-1781.2998913910133
 30
0.0
 11
11648.771846685004
 21
-1781.2998457910408
 31
0.0
  0
LINE
  5
128
330
17
100
AcDbEntity
  8
FP-Below
100
AcDbLine
 10
11642.271846685007
 20
-1781.2995710047435
 30
0.0
 11
11537.768425330005
 21
-1781.2999278763627
 31
0.0
  0
LINE
  5
129
330
17
100
AcDbEntity
  8
FP-Below
100
AcDbLine
 10
11537.768425045442
 20
-1781.3003268413831
 30
0.0
 11
11459.768425330001
 21
-1781.3003268413831
 31
0.0
  0
LINE
  5
12A
330
17
100
AcDbEntity
  8
FP-Below
100
AcDbLine
 10
11648.771846685004
 20
-1913.5502903549213
 30
0.0
 11
11648.771846685006
 21
-1856.4250348627693
 31
0.0
  0
LINE
  5
12B
330
17
100
AcDbEntity
  8
FP-Below
100
AcDbLine
 10
11648.771846685006
 20
-1814.4250107174857
 30
0.0
 11
11648.771846685004
 21
-1781.2998457910408
 31
0.0
  0
LINE
  5
12C
330
17
100
AcDbEntity
  8
FP-Below
100
AcDbLine
 10
11642.271846685004
 20
-1913.5502903549213
 30
0.0
 11
11642.271846685006
 21
-1856.4250320953524
 31
0.0
  0
LINE
  5
12D
330
17
100
AcDbEntity
  8
FP-Below
100
AcDbLine
 10
11642.271846685006
 20
-1814.425007950069
 30
0.0
 11
11642.271846685007
 21
-1781.2995710047435
 31
0.0
  0
LINE
  5
12E
330
17
100
AcDbEntity
  8
FP-Below
100
AcDbLine
 10
12002.859136569334
 20
-1989.134201463813
 30
0.0
 11
12013.859136569334
 21
-1989.134201463813
 31
0.0
  0
LINE
  5
12F
330
17
100
AcDbEntity
  8
FP-Below
100
AcDbLine
 10
12002.859136569341
 20
-1929.1342014638112
 30
0.0
 11
12013.859136569341
 21
-1929.1342014638112
 31
0.0
  0
LINE
  5
130
330
17
100
AcDbEntity
  8
FP-Below
100
AcDbLine
 10
11765.518586831937
 20
-1778.0511715981347
 30
0.0
 11
11765.518586831893
 21
-1789.0511715981347
 31
0.0
  0
LINE
  5
131
330
17
100
AcDbEntity
  8
FP-Below
100
AcDbLine
 10
11801.518586831937
 20
-1778.0511711432491
 30
0.0
 11
11801.5185868319
 21
-1789.0511711432491
 31
0.0
  0
LINE
  5
132
330
17
100
AcDbEntity
  8
FP-Below
100
AcDbLine
 10
11846.018512793851
 20
-1778.051142325793
 30
0.0
 11
11846.018512793808
 21
-1789.051142325793
 31
0.0
  0
LINE
  5
133
330
17
100
AcDbEntity
  8
FP-Below
100
AcDbLine
 10
11882.018508896237
 20
-1778.0511407425702
 30
0.0
 11
11882.018508896193
 21
-1789.0511407425702
 31
0.0
  0
LINE
  5
134
330
17
100
AcDbEntity
  8
FP-Below
100
AcDbLine
 10
11720.266643359033
 20
-2123.1336490777767
 30
0.0
 11
11640.268234422247
 21
-2123.1338832877564
 31
0.0
  0
LINE
  5
135
330
17
100
AcDbEntity
  8
FP-Below
100
AcDbLine
 10
11640.268234422247
 20
-2123.1338832877564
 30
0.0
 11
11640.268234422247
 21
-2023.1338832877564
 31
0.0
  0
LINE
  5
136
330
17
100
AcDbEntity
  8
FP-Below
100
AcDbLine
 10
11640.268234422247
 20
-2023.1338832877564
 30
0.0
 11
11640.269761808237
 21
-1990.133623688257
 31
0.0
  0
LINE
  5
137
330
17
100
AcDbEntity
  8
FP-Below
100
AcDbLine
 10
11726.769316315489
 20
-2129.6336284472245
 30
0.0
 11
11635.76712408455
 21
-2129.6336284472245
 31
0.0
  0
LINE
  5
138
330
17
100
AcDbEntity
  8
FP-Below
100
AcDbLine
 10
11912.862904076179
 20
-2026.6340352759335
 30
0.0
 11
11912.86290407623
 21
-1998.21695702144
 31
0.0
  0
LINE
  5
139
330
17
100
AcDbEntity
  8
FP-Below
100
AcDbLine
 10
11912.859136569261
 20
-1998.21695702144
 30
0.0
 11
11920.8639387829
 21
-1998.2170950236177
 31
0.0
  0
LINE
  5
13A
330
17
100
AcDbEntity
  8
FP-Below
100
AcDbLine
 10
11920.8639387829
 20
-1998.2170950236177
 30
0.0
 11
11920.863938325076
 21
-2026.6341481426934
 31
0.0
  0
LINE
  5
13B
330
17
100
AcDbEntity
  8
FP-Below
100
AcDbLine
 10
11920.8639387829
 20
-1920.0504283572227
 30
0.0
 11
11920.863938325076
 21
-1891.6336102681053
 31
0.0
  0
LINE
  5
13C
330
17
100
AcDbEntity
  8
FP-Below
100
AcDbLine
 10
11719.774241050362
 20
-1913.5502903549213
 30
0.0
 11
11719.774241050362
 21
-1920.0502903549213
 31
0.0
  0
LINE
  5
13D
330
17
100
AcDbEntity
  8
FP-Below
100
AcDbLine
 10
11655.774241050362
 20
-1913.5502903549213
 30
0.0
 11
11655.774241050362
 21
-1920.0502903549213
 31
0.0
  0
LINE
  5
13E
330
17
100
AcDbEntity
  8
FP-Below
100
AcDbLine
 10
11656.771846685004
 20
-1781.2998457910408
 30
0.0
 11
11656.771846685004
 21
-1773.3002700656652
 31
0.0
  0
LINE
  5
13F
330
17
100
AcDbEntity
  8
FP-Below
100
AcDbLine
 10
11718.765752373552
 20
-1781.300244756062
 30
0.0
 11
11718.765752373552
 21
-1773.300290356031
 31
0.0
  0
LINE
  5
140
330
17
100
AcDbEntity
  8
FP-Below
100
AcDbLine
 10
11733.272922002825
 20
-1856.4251355367096
 30
0.0
 11
11726.774700767199
 21
-1856.4250680729829
 31
0.0
  0
LINE
  5
141
330
17
100
AcDbEntity
  8
FP-Below
100
AcDbLine
 10
11733.272922002825
 20
-1814.4251355367096
 30
0.0
 11
11726.762223664378
 21
-1814.4250680729829
 31
0.0
  0
LINE
  5
142
330
17
100
AcDbEntity
  8
FP-Below
100
AcDbLine
 10
11629.26712408455
 20
-2006.1336236882535
 30
0.0
 11
11629.26712408455
 21
-2201.1336284472245
 31
0.0
  0
LINE
  5
143
330
17
100
AcDbEntity
  8
FP-Below
100
AcDbLine
 10
11635.76712408455
 20
-2129.6336284472254
 30
0.0
 11
11635.76712408455
 21
-2201.1336284472245
 31
0.0
  0
LINE
  5
144
330
17
100
AcDbEntity
  8
FP-Below
100
AcDbLine
 10
11460.390740343426
 20
-2004.6336236882535
 30
0.0
 11
11477.764896620834
 21
-2004.6336236882535
 31
0.0
  0
LINE
  5
145
330
17
100
AcDbEntity
  8
FP-Below
100
AcDbLine
 10
11477.764896620834
 20
-2004.6336236882535
 30
0.0
 11
11477.764896620834
 21
-2070.6336236882535
 31
0.0
  0
LINE
  5
146
330
17
100
AcDbEntity
  8
FP-Below
100
AcDbLine
 10
11477.764896620834
 20
-2070.6336236882535
 30
0.0
 11
11411.764896620834
 21
-2070.6336236882535
 31
0.0
  0
LINE
  5
147
330
17
100
AcDbEntity
  8
FP-Below
100
AcDbLine
 10
11411.764896620834
 20
-2070.6336236882535
 30
0.0
 11
11411.764896620834
 21
-2004.6336236882535
 31
0.0
  0
LINE
  5
148
330
17
100
AcDbEntity
  8
FP-Below
100
AcDbLine
 10
11411.764896620834
 20
-2004.6336236882535
 30
0.0
 11
11424.390740343433
 21
-2004.6336236882535
 31
0.0
  0
LINE
  5
149
330
17
100
AcDbEntity
  8
FP-Below
100
AcDbLine
 10
11407.765564859945
 20
-1998.1336236882535
 30
0.0
 11
11424.390740343433
 21
-1998.1336236882535
 31
0.0
  0
LINE
  5
14A
330
17
100
AcDbEntity
  8
FP-Below
100
AcDbLine
 10
11460.390740343426
 20
-1998.1336236882535
 30
0.0
 11
11484.264896620834
 21
-1998.1336236882535
 31
0.0
  0
LINE
  5
14B
330
17
100
AcDbEntity
  8
FP-Below
100
AcDbLine
 10
11484.264896620834
 20
-2004.6336236882535
 30
0.0
 11
11484.264896620834
 21
-2070.6336236882535
 31
0.0
  0
LINE
  5
14C
330
17
100
AcDbEntity
  8
FP-Below
100
AcDbLine
 10
11550.765342113575
 20
-2077.1336236882535
 30
0.0
 11
11432.265342113575
 21
-2077.1336236882535
 31
0.0
  0
LINE
  5
14D
330
17
100
AcDbEntity
  8
FP-Below
100
AcDbLine
 10
11459.263060801188
 20
-2369.6335706934615
 30
0.0
 11
11451.763114649859
 21
-2369.6335706934615
 31
0.0
  0
LINE
  5
14E
330
17
100
AcDbEntity
  8
FP-Below
100
AcDbLine
 10
11484.264896620834
 20
-1998.1336236882535
 30
0.0
 11
11493.648115053138
 21
-1998.1332081946211
 31
0.0
  0
LINE
  5
14F
330
17
100
AcDbEntity
  8
FP-Below
100
AcDbLine
 10
11529.648115033922
 20
-1998.1336236882535
 30
0.0
 11
11546.269761808237
 21
-1998.1336236882535
 31
0.0
  0
LINE
  5
150
330
17
100
AcDbEntity
  8
FP-Below
100
AcDbLine
 10
11632.269761808237
 20
-1998.1336236882535
 30
0.0
 11
11632.269761808237
 21
-1990.133623688257
 31
0.0
  0
LINE
  5
151
330
17
100
AcDbEntity
  8
FP-Below
100
AcDbLine
 10
11484.264896620834
 20
-2004.6336236882535
 30
0.0
 11
11493.648115053138
 21
-2004.6332081946211
 31
0.0
  0
LINE
  5
152
330
17
100
AcDbEntity
  8
FP-Below
100
AcDbLine
 10
11529.648115033922
 20
-2004.6336236882535
 30
0.0
 11
11550.765342113575
 21
-2004.6336236882535
 31
0.0
  0
LINE
  5
153
330
17
100
AcDbEntity
  8
FP-Below
100
AcDbLine
 10
11369.7676497607
 20
-2025.133618929286
 30
0.0
 11
11369.7676497607
 21
-2010.1336236882498
 31
0.0
  0
LINE
  5
154
330
17
100
AcDbEntity
  8
FP-Below
100
AcDbLine
 10
11393.7676497607
 20
-2025.133618929286
 30
0.0
 11
11393.7676497607
 21
-2201.1336284472245
 31
0.0
  0
LINE
  5
155
330
17
100
AcDbEntity
  8
FP-Below
100
AcDbLine
 10
11369.7676497607
 20
-2025.133618929286
 30
0.0
 11
11393.7676497607
 21
-2025.133618929286
 31
0.0
  0
LINE
  5
156
330
17
100
AcDbEntity
  8
FP-Below
100
AcDbLine
 10
11557.265342113575
 20
-2006.119820885826
 30
0.0
 11
11557.265342113575
 21
-2109.133626067739
 31
0.0
  0
LINE
  5
157
330
17
100
AcDbEntity
  8
FP-Below
100
AcDbLine
 10
11550.765342113575
 20
-2004.6336236882535
 30
0.0
 11
11550.765342113575
 21
-2070.6336236882535
 31
0.0
  0
LINE
  5
158
330
17
100
AcDbEntity
  8
FP-Below
100
AcDbLine
 10
11550.765342113575
 20
-2077.1336236882535
 30
0.0
 11
11550.765342113575
 21
-2109.133626067739
 31
0.0
  0
LINE
  5
159
330
17
100
AcDbEntity
  8
FP-Below
100
AcDbLine
 10
11484.264896620834
 20
-2070.6336236882535
 30
0.0
 11
11550.765342113575
 21
-2070.6336236882535
 31
0.0
  0
LINE
  5
15A
330
17
100
AcDbEntity
  8
FP-Below
100
AcDbLine
 10
11111.771979293326
 20
-2207.6336284472245
 30
0.0
 11
11043.77109828648
 21
-2207.6336284472245
 31
0.0
  0
LINE
  5
15B
330
17
100
AcDbEntity
  8
FP-Below
100
AcDbLine
 10
11037.27109828648
 20
-2207.6336284472245
 30
0.0
 11
10994.270569195929
 21
-2207.6336284472245
 31
0.0
  0
LINE
  5
15C
330
17
100
AcDbEntity
  8
FP-Below
100
AcDbLine
 10
10962.270569195929
 20
-2207.6336284472245
 30
0.0
 11
10844.766678591803
 21
-2207.6336284472245
 31
0.0
  0
LINE
  5
15D
330
17
100
AcDbEntity
  8
FP-Below
100
AcDbLine
 10
11111.769316315489
 20
-2201.1336284472245
 30
0.0
 11
11020.771508546428
 21
-2201.1336284472245
 31
0.0
  0
LINE
  5
15E
330
17
100
AcDbEntity
  8
FP-Below
100
AcDbLine
 10
11014.271508546428
 20
-2201.1336284472245
 30
0.0
 11
10994.270569195929
 21
-2201.1336284472245
 31
0.0
  0
LINE
  5
15F
330
17
100
AcDbEntity
  8
FP-Below
100
AcDbLine
 10
10962.270569195929
 20
-2201.1336284472245
 30
0.0
 11
10942.269726575452
 21
-2201.1336284472245
 31
0.0
  0
LINE
  5
160
330
17
100
AcDbEntity
  8
FP-Below
100
AcDbLine
 10
10935.769726575452
 20
-2201.1336284472245
 30
0.0
 11
10844.766678591803
 21
-2201.1336284472245
 31
0.0
  0
LINE
  5
161
330
17
100
AcDbEntity
  8
FP-Below
100
AcDbLine
 10
10962.270569195929
 20
-2207.6336284472245
 30
0.0
 11
10962.270569195929
 21
-2201.1336284472245
 31
0.0
  0
LINE
  5
162
330
17
100
AcDbEntity
  8
FP-Below
100
AcDbLine
 10
10994.270569195929
 20
-2207.6336284472245
 30
0.0
 11
10994.270569195929
 21
-2201.1336284472245
 31
0.0
  0
LINE
  5
163
330
17
100
AcDbEntity
  8
FP-Below
100
AcDbLine
 10
11111.769238592677
 20
-2369.6335706934624
 30
0.0
 11
11119.769316315478
 21
-2369.6335706934624
 31
0.0
  0
LINE
  5
164
330
17
100
AcDbEntity
  8
FP-Below
100
AcDbLine
 10
11111.768849978633
 20
-2339.6335706934606
 30
0.0
 11
11119.769316315474
 21
-2339.6335706934615
 31
0.0
  0
LINE
  5
165
330
17
100
AcDbEntity
  8
FP-Below
100
AcDbLine
 10
11195.2685609372
 20
-2291.6335706934615
 30
0.0
 11
11119.768228196148
 21
-2291.6335706934615
 31
0.0
  0
LINE
  5
166
330
17
100
AcDbEntity
  8
FP-Below
100
AcDbLine
 10
11111.768228196162
 20
-2291.6335706934615
 30
0.0
 11
11043.770010167153
 21
-2291.6335706934615
 31
0.0
  0
LINE
  5
167
330
17
100
AcDbEntity
  8
FP-Below
100
AcDbLine
 10
11195.268451270267
 20
-2285.134127260234
 30
0.0
 11
11043.770010167153
 21
-2285.14383295724
 31
0.0
  0
LINE
  5
168
330
17
100
AcDbEntity
  8
FP-Below
100
AcDbLine
 10
10942.269661619363
 20
-2133.6267246665275
 30
0.0
 11
10942.269726575452
 21
-2201.1336284472245
 31
0.0
  0
LINE
  5
169
330
17
100
AcDbEntity
  8
FP-Below
100
AcDbLine
 10
10935.769726575452
 20
-2004.633623688257
 30
0.0
 11
10935.769726575452
 21
-2073.6267246665275
 31
0.0
  0
LINE
  5
16A
330
17
100
AcDbEntity
  8
FP-Below
100
AcDbLine
 10
10935.769695031935
 20
-2133.6267246665275
 30
0.0
 11
10935.769726575452
 21
-2201.1336284472245
 31
0.0
  0
LINE
  5
16B
330
17
100
AcDbEntity
  8
FP-Below
100
AcDbLine
 10
11014.149967905867
 20
-2133.6267246665275
 30
0.0
 11
11014.271508546428
 21
-2201.1336284472245
 31
0.0
  0
LINE
  5
16C
330
17
100
AcDbEntity
  8
FP-Below
100
AcDbLine
 10
11020.419834195583
 20
-2004.633623688257
 30
0.0
 11
11020.54295074626
 21
-2073.6267246665275
 31
0.0
  0
LINE
  5
16D
330
17
100
AcDbEntity
  8
FP-Below
100
AcDbLine
 10
11020.650867202463
 20
-2133.6267246665275
 30
0.0
 11
11020.771508546428
 21
-2201.1336284472245
 31
0.0
  0
LINE
  5
16E
330
17
100
AcDbEntity
  8
FP-Below
100
AcDbLine
 10
10557.765787606308
 20
-1929.1342014638103
 30
0.0
 11
10568.769316315474
 21
-1929.1342014638103
 31
0.0
  0
LINE
  5
16F
330
17
100
AcDbEntity
  8
FP-Below
100
AcDbLine
 10
10557.765787606315
 20
-1989.1342014638385
 30
0.0
 11
10568.769316315474
 21
-1989.1342014638385
 31
0.0
  0
LINE
  5
170
330
17
100
AcDbEntity
  8
FP-Below
100
AcDbLine
 10
10844.766678591803
 20
-2375.6335706934615
 30
0.0
 11
10844.766678591803
 21
-2207.6336284472245
 31
0.0
  0
LINE
  5
171
330
17
100
AcDbEntity
  8
FP-Below
100
AcDbLine
 10
10844.766678591803
 20
-2201.1336284472245
 30
0.0
 11
10844.76667859181
 21
-2004.633623688257
 31
0.0
  0
LINE
  5
172
330
17
100
AcDbEntity
  8
FP-Below
100
AcDbLine
 10
11527.764861388036
 20
-2375.6335706934615
 30
0.0
 11
11527.764861388036
 21
-2369.633570693454
 31
0.0
  0
LINE
  5
173
330
17
100
AcDbEntity
  8
FP-Below
100
AcDbLine
 10
11521.264861388036
 20
-2375.6335706934615
 30
0.0
 11
11521.264861388036
 21
-2369.6335706847412
 31
0.0
  0
LINE
  5
174
330
17
100
AcDbEntity
  8
FP-Below
100
AcDbLine
 10
11527.764708124703
 20
-2369.633570693454
 30
0.0
 11
11521.255665566552
 21
-2369.6335706847303
 31
0.0
  0
LINE
  5
175
330
17
100
AcDbEntity
  8
FP-Below
100
AcDbLine
 10
11037.271251549819
 20
-2213.6336284472245
 30
0.0
 11
11043.78029410797
 21
-2213.633628455952
 31
0.0
  0
LINE
  5
176
330
17
100
AcDbEntity
  8
FP-Below
100
AcDbLine
 10
11037.27109828648
 20
-2375.6335706934615
 30
0.0
 11
11037.27109828648
 21
-2369.633570693454
 31
0.0
  0
LINE
  5
177
330
17
100
AcDbEntity
  8
FP-Below
100
AcDbLine
 10
11037.27109828648
 20
-2339.6335706847485
 30
0.0
 11
11037.27109828648
 21
-2321.633628447221
 31
0.0
  0
LINE
  5
178
330
17
100
AcDbEntity
  8
FP-Below
100
AcDbLine
 10
11037.27109828648
 20
-2309.633628447221
 30
0.0
 11
11037.27109828648
 21
-2273.633628447221
 31
0.0
  0
LINE
  5
179
330
17
100
AcDbEntity
  8
FP-Below
100
AcDbLine
 10
11037.27109828648
 20
-2261.633628447221
 30
0.0
 11
11037.27109828648
 21
-2243.6336284472245
 31
0.0
  0
LINE
  5
17A
330
17
100
AcDbEntity
  8
FP-Below
100
AcDbLine
 10
11037.27109828648
 20
-2213.6336284472245
 30
0.0
 11
11037.27109828648
 21
-2207.6336284472245
 31
0.0
  0
LINE
  5
17B
330
17
100
AcDbEntity
  8
FP-Below
100
AcDbLine
 10
11043.77109828648
 20
-2375.6335706934615
 30
0.0
 11
11043.77109828648
 21
-2369.6335706847412
 31
0.0
  0
LINE
  5
17C
330
17
100
AcDbEntity
  8
FP-Below
100
AcDbLine
 10
11043.77109828648
 20
-2339.6335706847485
 30
0.0
 11
11043.770010167153
 21
-2291.6437980320397
 31
0.0
  0
LINE
  5
17D
330
17
100
AcDbEntity
  8
FP-Below
100
AcDbLine
 10
11043.770010167153
 20
-2285.14383295724
 30
0.0
 11
11043.77109828648
 21
-2243.6336284559375
 31
0.0
  0
LINE
  5
17E
330
17
100
AcDbEntity
  8
FP-Below
100
AcDbLine
 10
11043.77109828648
 20
-2213.642824277439
 30
0.0
 11
11043.77109828648
 21
-2207.6336284472245
 31
0.0
  0
LINE
  5
17F
330
17
100
AcDbEntity
  8
FP-Below
100
AcDbLine
 10
11546.269761808237
 20
-1928.0502903549213
 30
0.0
 11
11554.269761808237
 21
-1928.0502903549213
 31
0.0
  0
LINE
  5
180
330
17
100
AcDbEntity
  8
FP-Below
100
AcDbLine
 10
11546.269761808237
 20
-1990.133623688257
 30
0.0
 11
11554.269761808237
 21
-1990.133623688257
 31
0.0
  0
LINE
  5
181
330
17
100
AcDbEntity
  8
FP-Below
100
AcDbLine
 10
11546.269761808237
 20
-1998.133623688257
 30
0.0
 11
11546.269761808237
 21
-1990.133623688257
 31
0.0
  0
LINE
  5
182
330
17
100
AcDbEntity
  8
FP-Below
100
AcDbLine
 10
11546.269761808237
 20
-1928.0502903549213
 30
0.0
 11
11546.269761808237
 21
-1920.0502903549213
 31
0.0
  0
LINE
  5
183
330
17
100
AcDbEntity
  8
FP-Below
100
AcDbLine
 10
11554.269761808237
 20
-1998.133623688257
 30
0.0
 11
11554.269761808237
 21
-1990.133623688257
 31
0.0
  0
LINE
  5
184
330
17
100
AcDbEntity
  8
FP-Below
100
AcDbLine
 10
11554.269761808237
 20
-1928.0502903549213
 30
0.0
 11
11554.269761808237
 21
-1920.0502903549213
 31
0.0
  0
LINE
  5
185
330
17
100
AcDbEntity
  8
FP-Below
100
AcDbLine
 10
11640.269761808237
 20
-1928.0502903549213
 30
0.0
 11
11632.269761808237
 21
-1928.0502903549213
 31
0.0
  0
LINE
  5
186
330
17
100
AcDbEntity
  8
FP-Below
100
AcDbLine
 10
11640.269761808237
 20
-1928.0502903549213
 30
0.0
 11
11640.269761808237
 21
-1920.0502903549213
 31
0.0
  0
LINE
  5
187
330
17
100
AcDbEntity
  8
FP-Below
100
AcDbLine
 10
11632.269761808237
 20
-1928.0502903549213
 30
0.0
 11
11632.269761808237
 21
-1920.0502903549213
 31
0.0
  0
LINE
  5
188
330
17
100
AcDbEntity
  8
FP-Below
100
AcDbLine
 10
11023.27109828648
 20
-2321.633628447221
 30
0.0
 11
11037.275126178281
 21
-2321.633628447221
 31
0.0
  0
LINE
  5
189
330
17
100
AcDbEntity
  8
FP-Below
100
AcDbLine
 10
11023.27109828648
 20
-2309.633628447221
 30
0.0
 11
11037.27109828648
 21
-2309.633628447221
 31
0.0
  0
LINE
  5
18A
330
17
100
AcDbEntity
  8
FP-Below
100
AcDbLine
 10
11023.27109828648
 20
-2309.633628447221
 30
0.0
 11
11023.27109828648
 21
-2321.633628447221
 31
0.0
  0
LINE
  5
18B
330
17
100
AcDbEntity
  8
FP-Below
100
AcDbLine
 10
11023.27109828648
 20
-2261.633628447221
 30
0.0
 11
11037.272919537447
 21
-2261.633628447221
 31
0.0
  0
LINE
  5
18C
330
17
100
AcDbEntity
  8
FP-Below
100
AcDbLine
 10
11023.27109828648
 20
-2273.633628447221
 30
0.0
 11
11037.27109828648
 21
-2273.633628447221
 31
0.0
  0
LINE
  5
18D
330
17
100
AcDbEntity
  8
FP-Below
100
AcDbLine
 10
11023.27109828648
 20
-2273.633628447221
 30
0.0
 11
11023.27109828648
 21
-2261.633628447221
 31
0.0
  0
LINE
  5
18E
330
17
100
AcDbEntity
  8
FP-Below
100
AcDbLine
 10
11424.390740343433
 20
-1998.1336236882535
 30
0.0
 11
11424.390740343433
 21
-2004.6336236882535
 31
0.0
  0
LINE
  5
18F
330
17
100
AcDbEntity
  8
FP-Below
100
AcDbLine
 10
11460.390740343426
 20
-1998.1336236882535
 30
0.0
 11
11460.390740343426
 21
-2004.6336236882535
 31
0.0
  0
LINE
  5
190
330
17
100
AcDbEntity
  8
FP-Below
100
AcDbLine
 10
11025.268425329987
 20
-1928.050290354925
 30
0.0
 11
11017.268425329987
 21
-1928.050290354925
 31
0.0
  0
LINE
  5
191
330
17
100
AcDbEntity
  8
FP-Below
100
AcDbLine
 10
11025.268425329987
 20
-1920.050290354925
 30
0.0
 11
11025.268425329987
 21
-1928.050290354925
 31
0.0
  0
LINE
  5
192
330
17
100
AcDbEntity
  8
FP-Below
100
AcDbLine
 10
11017.268425329987
 20
-1920.050290354925
 30
0.0
 11
11017.268425329987
 21
-1928.050290354925
 31
0.0
  0
LINE
  5
193
330
17
100
AcDbEntity
  8
FP-Below
100
AcDbLine
 10
10931.268425329994
 20
-1990.133623688257
 30
0.0
 11
10939.268425329994
 21
-1990.133623688257
 31
0.0
  0
LINE
  5
194
330
17
100
AcDbEntity
  8
FP-Below
100
AcDbLine
 10
10931.268425329994
 20
-1998.133623688257
 30
0.0
 11
10931.268425329994
 21
-1990.133623688257
 31
0.0
  0
LINE
  5
195
330
17
100
AcDbEntity
  8
FP-Below
100
AcDbLine
 10
10939.268425329994
 20
-1998.133623688257
 30
0.0
 11
10939.268425329994
 21
-1990.133623688257
 31
0.0
  0
LINE
  5
196
330
17
100
AcDbEntity
  8
FP-Below
100
AcDbLine
 10
10931.268425329994
 20
-1928.050290354925
 30
0.0
 11
10939.268425329994
 21
-1928.050290354925
 31
0.0
  0
LINE
  5
197
330
17
100
AcDbEntity
  8
FP-Below
100
AcDbLine
 10
10931.268425329994
 20
-1920.050290354925
 30
0.0
 11
10931.268425329994
 21
-1928.050290354925
 31
0.0
  0
LINE
  5
198
330
17
100
AcDbEntity
  8
FP-Below
100
AcDbLine
 10
10939.268425329994
 20
-1920.050290354925
 30
0.0
 11
10939.268425329994
 21
-1928.050290354925
 31
0.0
  0
LINE
  5
199
330
17
100
AcDbEntity
  8
FP-Below
100
AcDbLine
 10
10994.26842532999
 20
-1920.050290354925
 30
0.0
 11
10994.26842532999
 21
-1913.5502903549213
 31
0.0
  0
LINE
  5
19A
330
17
100
AcDbEntity
  8
FP-Below
100
AcDbLine
 10
10962.26842532999
 20
-1920.050290354925
 30
0.0
 11
10962.26842532999
 21
-1913.5502903549213
 31
0.0
  0
LINE
  5
19B
330
17
100
AcDbEntity
  8
FP-Below
100
AcDbLine
 10
11011.268425329994
 20
-1913.550290354925
 30
0.0
 11
11011.268425329994
 21
-1848.0918303077933
 31
0.0
  0
LINE
  5
19C
330
17
100
AcDbEntity
  8
FP-Below
100
AcDbLine
 10
11011.268425329994
 20
-1818.0918303077933
 30
0.0
 11
11011.268425329994
 21
-1783.3002903560346
 31
0.0
  0
LINE
  5
19D
330
17
100
AcDbEntity
  8
FP-Below
100
AcDbLine
 10
11017.768425329994
 20
-1913.550290354925
 30
0.0
 11
11017.768425329994
 21
-1848.0918303077933
 31
0.0
  0
LINE
  5
19E
330
17
100
AcDbEntity
  8
FP-Below
100
AcDbLine
 10
11017.768425329994
 20
-1818.0918303077933
 30
0.0
 11
11017.768425329994
 21
-1781.3002903560346
 31
0.0
  0
LINE
  5
19F
330
17
100
AcDbEntity
  8
FP-Below
100
AcDbLine
 10
10945.268425329994
 20
-1913.550290354925
 30
0.0
 11
10945.268425329994
 21
-1848.0918303077933
 31
0.0
  0
LINE
  5
1A0
330
17
100
AcDbEntity
  8
FP-Below
100
AcDbLine
 10
10945.268425329994
 20
-1818.0918303077933
 30
0.0
 11
10945.268425329994
 21
-1783.3002903560346
 31
0.0
  0
LINE
  5
1A1
330
17
100
AcDbEntity
  8
FP-Below
100
AcDbLine
 10
10938.768425329994
 20
-1913.550290354925
 30
0.0
 11
10938.76842532999
 21
-1866.5918303077933
 31
0.0
  0
LINE
  5
1A2
330
17
100
AcDbEntity
  8
FP-Below
100
AcDbLine
 10
10938.76842532999
 20
-1860.0918303077942
 30
0.0
 11
10938.768425329994
 21
-1848.0918303077933
 31
0.0
  0
LINE
  5
1A3
330
17
100
AcDbEntity
  8
FP-Below
100
AcDbLine
 10
10938.768425329994
 20
-1818.0918303077933
 30
0.0
 11
10938.768425329994
 21
-1779.8007580772364
 31
0.0
  0
LINE
  5
1A4
330
17
100
AcDbEntity
  8
FP-Below
100
AcDbLine
 10
10806.019604203799
 20
-1778.0511708451204
 30
0.0
 11
10806.019604203842
 21
-1789.0511708451204
 31
0.0
  0
LINE
  5
1A5
330
17
100
AcDbEntity
  8
FP-Below
100
AcDbLine
 10
10770.019604203813
 20
-1778.051170845255
 30
0.0
 11
10770.01960420385
 21
-1789.051170845255
 31
0.0
  0
LINE
  5
1A6
330
17
100
AcDbEntity
  8
FP-Below
100
AcDbLine
 10
10725.519678241986
 20
-1778.051155427257
 30
0.0
 11
10725.51967824203
 21
-1789.051155427257
 31
0.0
  0
LINE
  5
1A7
330
17
100
AcDbEntity
  8
FP-Below
100
AcDbLine
 10
10689.519678242
 20
-1778.0511554273917
 30
0.0
 11
10689.519678242037
 21
-1789.0511554273917
 31
0.0
  0
LINE
  5
1A8
330
17
100
AcDbEntity
  8
FP-Below
100
AcDbLine
 10
10858.766121514998
 20
-1713.300290356031
 30
0.0
 11
10844.762093623196
 21
-1713.300290356031
 31
0.0
  0
LINE
  5
1A9
330
17
100
AcDbEntity
  8
FP-Below
100
AcDbLine
 10
10858.766121514998
 20
-1695.300290356031
 30
0.0
 11
10844.766121514998
 21
-1695.300290356031
 31
0.0
  0
LINE
  5
1AA
330
17
100
AcDbEntity
  8
FP-Below
100
AcDbLine
 10
10858.766121514998
 20
-1695.300290356031
 30
0.0
 11
10858.766121514998
 21
-1713.300290356031
 31
0.0
  0
LINE
  5
1AB
330
17
100
AcDbEntity
  8
FP-Below
100
AcDbLine
 10
10858.766121514998
 20
-1641.300290356031
 30
0.0
 11
10844.762093623196
 21
-1641.300290356031
 31
0.0
  0
LINE
  5
1AC
330
17
100
AcDbEntity
  8
FP-Below
100
AcDbLine
 10
10858.766121514998
 20
-1659.300290356031
 30
0.0
 11
10844.766121514998
 21
-1659.300290356031
 31
0.0
  0
LINE
  5
1AD
330
17
100
AcDbEntity
  8
FP-Below
100
AcDbLine
 10
10858.766121514998
 20
-1659.300290356031
 30
0.0
 11
10858.766121514998
 21
-1641.300290356031
 31
0.0
  0
LINE
  5
1AE
330
17
100
AcDbEntity
  8
FP-Below
100
AcDbLine
 10
11005.268425329994
 20
-1783.3002903560346
 30
0.0
 11
11005.268425329994
 21
-1773.300290356031
 31
0.0
  0
LINE
  5
1AF
330
17
100
AcDbEntity
  8
FP-Below
100
AcDbLine
 10
10951.268425329994
 20
-1783.3002903560346
 30
0.0
 11
10951.268425329994
 21
-1773.300290356031
 31
0.0
  0
LINE
  5
1B0
330
17
100
AcDbEntity
  8
FP-Below
100
AcDbLine
 10
11011.268425329994
 20
-1818.0918303077933
 30
0.0
 11
11017.768425329994
 21
-1818.0918303077933
 31
0.0
  0
LINE
  5
1B1
330
17
100
AcDbEntity
  8
FP-Below
100
AcDbLine
 10
10945.268425329994
 20
-1818.0918303077933
 30
0.0
 11
10938.768425329994
 21
-1818.0918303077933
 31
0.0
  0
LINE
  5
1B2
330
17
100
AcDbEntity
  8
FP-Below
100
AcDbLine
 10
10729.328619007303
 20
-2026.6349277204135
 30
0.0
 11
10836.77020730097
 21
-2026.6349277204145
 31
0.0
  0
LINE
  5
1B3
330
17
100
AcDbEntity
  8
FP-Below
100
AcDbLine
 10
10658.769316315489
 20
-1878.1334752072107
 30
0.0
 11
10836.766121514998
 21
-1878.1334752072116
 31
0.0
  0
LINE
  5
1B4
330
17
100
AcDbEntity
  8
FP-Below
100
AcDbLine
 10
11008.271507530693
 20
-2006.1265054202986
 30
0.0
 11
11008.271507530693
 21
-1998.1249187049334
 31
0.0
  0
LINE
  5
1B5
330
17
100
AcDbEntity
  8
FP-Below
100
AcDbLine
 10
10948.26962985188
 20
-2006.133623688257
 30
0.0
 11
10948.269629851888
 21
-1998.1204396618677
 31
0.0
  0
LINE
  5
1B6
330
17
100
AcDbEntity
  8
FP-Below
100
AcDbLine
 10
11400.2676497607
 20
-2099.1336260692997
 30
0.0
 11
11400.2676497607
 21
-2120.1336260688377
 31
0.0
  0
LINE
  5
1B7
330
17
100
AcDbEntity
  8
FP-Below
100
AcDbLine
 10
11400.2676497607
 20
-2132.1336260688377
 30
0.0
 11
11400.2676497607
 21
-2146.1336260666403
 31
0.0
  0
LINE
  5
1B8
330
17
100
AcDbEntity
  8
FP-Below
100
AcDbLine
 10
11400.2676497607
 20
-2158.1336260666403
 30
0.0
 11
11400.2676497607
 21
-2179.1336260661783
 31
0.0
  0
LINE
  5
1B9
330
17
100
AcDbEntity
  8
FP-Below
100
AcDbLine
 10
11400.267649762767
 20
-2146.1336260666403
 30
0.0
 11
11400.267649758634
 21
-2132.1336260688377
 31
0.0
  0
LINE
  5
1BA
330
17
100
AcDbEntity
  8
FP-Below
100
AcDbLine
 10
11404.267649758322
 20
-2128.133626068605
 30
0.0
 11
11404.267649757703
 21
-2120.133626068605
 31
0.0
  0
LINE
  5
1BB
330
17
100
AcDbEntity
  8
FP-Below
100
AcDbLine
 10
11432.265342113575
 20
-2201.1336284472245
 30
0.0
 11
11432.265342113575
 21
-2197.133626067739
 31
0.0
  0
LINE
  5
1BC
330
17
100
AcDbEntity
  8
FP-Below
100
AcDbLine
 10
11424.265342113582
 20
-2191.1336260677463
 30
0.0
 11
11426.265342113582
 21
-2191.1336260677463
 31
0.0
  0
ARC
  5
1BD
330
17
100
AcDbEntity
  8
FP-Below
100
AcDbCircle
 10
11432.265342113575
 20
-2191.1336260677426
 30
0.0
 40
5.999999999994316
100
AcDbArc
 50
180.0
 51
270.0
  0
LINE
  5
1BE
330
17
100
AcDbEntity
  8
FP-Below
100
AcDbLine
 10
11432.265342113575
 20
-2077.1336236882535
 30
0.0
 11
11432.265342113575
 21
-2081.133626067739
 31
0.0
  0
LINE
  5
1BF
330
17
100
AcDbEntity
  8
FP-Below
100
AcDbLine
 10
11424.265342113582
 20
-2087.1336260677317
 30
0.0
 11
11426.265342113582
 21
-2087.1336260677353
 31
0.0
  0
ARC
  5
1C0
330
17
100
AcDbEntity
  8
FP-Below
100
AcDbCircle
 10
11432.265342113575
 20
-2087.1336260677353
 30
0.0
 40
5.999999999994316
100
AcDbArc
 50
90.0
 51
180.0
  0
LINE
  5
1C1
330
17
100
AcDbEntity
  8
FP-Below
100
AcDbLine
 10
11424.265342113582
 20
-2087.1336260677317
 30
0.0
 11
11424.265342113582
 21
-2095.1336260677317
 31
0.0
  0
LINE
  5
1C2
330
17
100
AcDbEntity
  8
FP-Below
100
AcDbLine
 10
11424.265342113582
 20
-2095.1336260677317
 30
0.0
 11
11422.265342113582
 21
-2095.1336260677317
 31
0.0
  0
LINE
  5
1C3
330
17
100
AcDbEntity
  8
FP-Below
100
AcDbLine
 10
11422.265342113582
 20
-2095.1336260677317
 30
0.0
 11
11422.265342113582
 21
-2103.1336260677317
 31
0.0
  0
LINE
  5
1C4
330
17
100
AcDbEntity
  8
FP-Below
100
AcDbLine
 10
11415.765342113582
 20
-2103.1336260677317
 30
0.0
 11
11415.765342113582
 21
-2099.1336260677317
 31
0.0
  0
LINE
  5
1C5
330
17
100
AcDbEntity
  8
FP-Below
100
AcDbLine
 10
11415.765342113582
 20
-2099.1336260677317
 30
0.0
 11
11400.267649755768
 21
-2099.1336260692997
 31
0.0
  0
LINE
  5
1C6
330
17
100
AcDbEntity
  8
FP-Below
100
AcDbLine
 10
11415.765342113582
 20
-2103.1336260677317
 30
0.0
 11
11413.765342113582
 21
-2103.1336260677317
 31
0.0
  0
LINE
  5
1C7
330
17
100
AcDbEntity
  8
FP-Below
100
AcDbLine
 10
11413.765342113582
 20
-2103.1336260677317
 30
0.0
 11
11413.765342113582
 21
-2113.6336260677317
 31
0.0
  0
LINE
  5
1C8
330
17
100
AcDbEntity
  8
FP-Below
100
AcDbLine
 10
11413.765342113582
 20
-2113.6336260677317
 30
0.0
 11
11424.265342113582
 21
-2113.6336260677317
 31
0.0
  0
LINE
  5
1C9
330
17
100
AcDbEntity
  8
FP-Below
100
AcDbLine
 10
11424.265342113582
 20
-2113.6336260677317
 30
0.0
 11
11424.265342113582
 21
-2103.1336260677317
 31
0.0
  0
LINE
  5
1CA
330
17
100
AcDbEntity
  8
FP-Below
100
AcDbLine
 10
11424.265342113582
 20
-2103.1336260677317
 30
0.0
 11
11422.265342113582
 21
-2103.1336260677317
 31
0.0
  0
LINE
  5
1CB
330
17
100
AcDbEntity
  8
FP-Below
100
AcDbLine
 10
11424.265342113582
 20
-2191.1336260677463
 30
0.0
 11
11424.265342113582
 21
-2183.1336260677463
 31
0.0
  0
LINE
  5
1CC
330
17
100
AcDbEntity
  8
FP-Below
100
AcDbLine
 10
11424.265342113582
 20
-2183.1336260677463
 30
0.0
 11
11422.265342113582
 21
-2183.1336260677463
 31
0.0
  0
LINE
  5
1CD
330
17
100
AcDbEntity
  8
FP-Below
100
AcDbLine
 10
11422.265342113582
 20
-2183.1336260677463
 30
0.0
 11
11422.265342113582
 21
-2175.1336260677463
 31
0.0
  0
LINE
  5
1CE
330
17
100
AcDbEntity
  8
FP-Below
100
AcDbLine
 10
11415.765342113582
 20
-2175.1336260677463
 30
0.0
 11
11415.765342113582
 21
-2179.1336260677463
 31
0.0
  0
LINE
  5
1CF
330
17
100
AcDbEntity
  8
FP-Below
100
AcDbLine
 10
11415.765342113582
 20
-2179.1336260677463
 30
0.0
 11
11400.26764975576
 21
-2179.1336260661783
 31
0.0
  0
LINE
  5
1D0
330
17
100
AcDbEntity
  8
FP-Below
100
AcDbLine
 10
11415.765342113582
 20
-2175.1336260677463
 30
0.0
 11
11413.765342113582
 21
-2175.1336260677463
 31
0.0
  0
LINE
  5
1D1
330
17
100
AcDbEntity
  8
FP-Below
100
AcDbLine
 10
11413.765342113582
 20
-2175.1336260677463
 30
0.0
 11
11413.765342113582
 21
-2164.6336260677463
 31
0.0
  0
LINE
  5
1D2
330
17
100
AcDbEntity
  8
FP-Below
100
AcDbLine
 10
11413.765342113582
 20
-2164.6336260677463
 30
0.0
 11
11424.265342113582
 21
-2164.6336260677463
 31
0.0
  0
LINE
  5
1D3
330
17
100
AcDbEntity
  8
FP-Below
100
AcDbLine
 10
11424.265342113582
 20
-2164.6336260677463
 30
0.0
 11
11424.265342113582
 21
-2175.1336260677463
 31
0.0
  0
LINE
  5
1D4
330
17
100
AcDbEntity
  8
FP-Below
100
AcDbLine
 10
11424.265342113582
 20
-2175.1336260677463
 30
0.0
 11
11422.265342113582
 21
-2175.1336260677463
 31
0.0
  0
LINE
  5
1D5
330
17
100
AcDbEntity
  8
FP-Below
100
AcDbLine
 10
11404.267649757703
 20
-2120.133626068605
 30
0.0
 11
11400.267649757703
 21
-2120.1336260688377
 31
0.0
  0
LINE
  5
1D6
330
17
100
AcDbEntity
  8
FP-Below
100
AcDbLine
 10
11404.267649758322
 20
-2128.133626068605
 30
0.0
 11
11402.267649758322
 21
-2128.1336260687613
 31
0.0
  0
LINE
  5
1D7
330
17
100
AcDbEntity
  8
FP-Below
100
AcDbLine
 10
11404.267649758314
 20
-2150.133626066873
 30
0.0
 11
11404.267649757696
 21
-2158.133626066873
 31
0.0
  0
LINE
  5
1D8
330
17
100
AcDbEntity
  8
FP-Below
100
AcDbLine
 10
11404.267649757696
 20
-2158.133626066873
 30
0.0
 11
11400.267649763699
 21
-2158.1336260666403
 31
0.0
  0
LINE
  5
1D9
330
17
100
AcDbEntity
  8
FP-Below
100
AcDbLine
 10
11404.267649758314
 20
-2150.133626066873
 30
0.0
 11
11402.267649758314
 21
-2150.1336260667204
 31
0.0
  0
LINE
  5
1DA
330
17
100
AcDbEntity
  8
FP-Below
100
AcDbLine
 10
11402.267649758322
 20
-2128.1336260687613
 30
0.0
 11
11402.267649758322
 21
-2132.1336260687613
 31
0.0
  0
LINE
  5
1DB
330
17
100
AcDbEntity
  8
FP-Below
100
AcDbLine
 10
11402.267649758322
 20
-2132.1336260687613
 30
0.0
 11
11400.267649758634
 21
-2132.1336260688377
 31
0.0
  0
LINE
  5
1DC
330
17
100
AcDbEntity
  8
FP-Below
100
AcDbLine
 10
11402.267649758314
 20
-2150.1336260667204
 30
0.0
 11
11402.267649758314
 21
-2146.1336260667204
 31
0.0
  0
LINE
  5
1DD
330
17
100
AcDbEntity
  8
FP-Below
100
AcDbLine
 10
11402.267649758314
 20
-2146.1336260667204
 30
0.0
 11
11400.267649758627
 21
-2146.1336260666403
 31
0.0
  0
LINE
  5
1DE
330
17
100
AcDbEntity
  8
FP-Below
100
AcDbLine
 10
11014.150867202463
 20
-2133.6267246665275
 30
0.0
 11
11016.150867202463
 21
-2133.6267246665275
 31
0.0
  0
LINE
  5
1DF
330
17
100
AcDbEntity
  8
FP-Below
100
AcDbLine
 10
11018.650867202463
 20
-2133.6267246665275
 30
0.0
 11
11020.650867202463
 21
-2133.6267246665275
 31
0.0
  0
LINE
  5
1E0
330
17
100
AcDbEntity
  8
FP-Below
100
AcDbLine
 10
11016.150867202463
 20
-2133.6267246665275
 30
0.0
 11
11016.150867202463
 21
-2161.6267246665275
 31
0.0
  0
LINE
  5
1E1
330
17
100
AcDbEntity
  8
FP-Below
100
AcDbLine
 10
11016.150867202463
 20
-2161.6267246665275
 30
0.0
 11
11018.650867202463
 21
-2161.6267246665275
 31
0.0
  0
LINE
  5
1E2
330
17
100
AcDbEntity
  8
FP-Below
100
AcDbLine
 10
11018.650867202463
 20
-2161.6267246665275
 30
0.0
 11
11018.650867202463
 21
-2133.6267246665275
 31
0.0
  0
LINE
  5
1E3
330
17
100
AcDbEntity
  8
FP-Below
100
AcDbLine
 10
11014.041246562605
 20
-2073.6267246665275
 30
0.0
 11
11016.041246562605
 21
-2073.6267246665275
 31
0.0
  0
LINE
  5
1E4
330
17
100
AcDbEntity
  8
FP-Below
100
AcDbLine
 10
11018.541246562605
 20
-2073.6267246665275
 30
0.0
 11
11020.541246562605
 21
-2073.6267246665275
 31
0.0
  0
LINE
  5
1E5
330
17
100
AcDbEntity
  8
FP-Below
100
AcDbLine
 10
11016.041246562605
 20
-2073.6267246665275
 30
0.0
 11
11016.041246562605
 21
-2045.6267246665275
 31
0.0
  0
LINE
  5
1E6
330
17
100
AcDbEntity
  8
FP-Below
100
AcDbLine
 10
11016.041246562605
 20
-2045.6267246665275
 30
0.0
 11
11018.541246562605
 21
-2045.6267246665275
 31
0.0
  0
LINE
  5
1E7
330
17
100
AcDbEntity
  8
FP-Below
100
AcDbLine
 10
11018.541246562605
 20
-2045.6267246665275
 30
0.0
 11
11018.541246562605
 21
-2073.6267246665275
 31
0.0
  0
LINE
  5
1E8
330
17
100
AcDbEntity
  8
FP-Below
100
AcDbLine
 10
11529.648115033922
 20
-1998.1336236882535
 30
0.0
 11
11529.648115033922
 21
-2004.6336236882535
 31
0.0
  0
LINE
  5
1E9
330
17
100
AcDbEntity
  8
FP-Below
100
AcDbLine
 10
11493.648115053138
 20
-1998.1332081946211
 30
0.0
 11
11493.648115053138
 21
-2004.6332081946211
 31
0.0
  0
LINE
  5
1EA
330
17
100
AcDbEntity
  8
FP-Below
100
AcDbLine
 10
10942.269695031935
 20
-2133.6267246665275
 30
0.0
 11
10940.269695031935
 21
-2133.6267246665275
 31
0.0
  0
LINE
  5
1EB
330
17
100
AcDbEntity
  8
FP-Below
100
AcDbLine
 10
10937.769695031935
 20
-2133.6267246665275
 30
0.0
 11
10935.769695031935
 21
-2133.6267246665275
 31
0.0
  0
LINE
  5
1EC
330
17
100
AcDbEntity
  8
FP-Below
100
AcDbLine
 10
10940.269695031935
 20
-2133.6267246665275
 30
0.0
 11
10940.269695031935
 21
-2161.6267246665275
 31
0.0
  0
LINE
  5
1ED
330
17
100
AcDbEntity
  8
FP-Below
100
AcDbLine
 10
10940.269695031935
 20
-2161.6267246665275
 30
0.0
 11
10937.769695031935
 21
-2161.6267246665275
 31
0.0
  0
LINE
  5
1EE
330
17
100
AcDbEntity
  8
FP-Below
100
AcDbLine
 10
10937.769695031935
 20
-2161.6267246665275
 30
0.0
 11
10937.769695031935
 21
-2133.6267246665275
 31
0.0
  0
LINE
  5
1EF
330
17
100
AcDbEntity
  8
FP-Below
100
AcDbLine
 10
10942.269726575452
 20
-2073.6267246665275
 30
0.0
 11
10940.269726575452
 21
-2073.6267246665275
 31
0.0
  0
LINE
  5
1F0
330
17
100
AcDbEntity
  8
FP-Below
100
AcDbLine
 10
10937.769726575452
 20
-2073.6267246665275
 30
0.0
 11
10935.769726575452
 21
-2073.6267246665275
 31
0.0
  0
LINE
  5
1F1
330
17
100
AcDbEntity
  8
FP-Below
100
AcDbLine
 10
10940.269726575452
 20
-2073.6267246665275
 30
0.0
 11
10940.269726575452
 21
-2045.6267246665275
 31
0.0
  0
LINE
  5
1F2
330
17
100
AcDbEntity
  8
FP-Below
100
AcDbLine
 10
10940.269726575452
 20
-2045.6267246665275
 30
0.0
 11
10937.769726575452
 21
-2045.6267246665275
 31
0.0
  0
LINE
  5
1F3
330
17
100
AcDbEntity
  8
FP-Below
100
AcDbLine
 10
10937.769726575452
 20
-2045.6267246665275
 30
0.0
 11
10937.769726575452
 21
-2073.6267246665275
 31
0.0
  0
LINE
  5
1F4
330
17
100
AcDbEntity
  8
FP-Below
100
AcDbLine
 10
10724.828619007303
 20
-1956.197904974616
 30
0.0
 11
10724.828619007303
 21
-1939.697904974616
 31
0.0
  0
LINE
  5
1F5
330
17
100
AcDbEntity
  8
FP-Below
100
AcDbLine
 10
10724.828619007303
 20
-1909.697904974616
 30
0.0
 11
10724.828619007303
 21
-1891.6356702248568
 31
0.0
  0
LINE
  5
1F6
330
17
100
AcDbEntity
  8
FP-Below
100
AcDbLine
 10
10729.328619007303
 20
-1945.697904974616
 30
0.0
 11
10729.328619007303
 21
-1939.697904974616
 31
0.0
  0
LINE
  5
1F7
330
17
100
AcDbEntity
  8
FP-Below
100
AcDbLine
 10
10729.328619007303
 20
-1909.697904974616
 30
0.0
 11
10729.328619007303
 21
-1884.6356702248568
 31
0.0
  0
LINE
  5
1F8
330
17
100
AcDbEntity
  8
FP-Below
100
AcDbLine
 10
10836.77020730097
 20
-1950.197904974616
 30
0.0
 11
10732.828619007303
 21
-1950.197904974616
 31
0.0
  0
LINE
  5
1F9
330
17
100
AcDbEntity
  8
FP-Below
100
AcDbLine
 10
10836.77020730097
 20
-1945.697904974615
 30
0.0
 11
10729.328619007303
 21
-1945.697904974616
 31
0.0
  0
LINE
  5
1FA
330
17
100
AcDbEntity
  8
FP-Below
100
AcDbLine
 10
10729.328619007303
 20
-2002.697904974616
 30
0.0
 11
10729.328619007303
 21
-2026.6349277204145
 31
0.0
  0
LINE
  5
1FB
330
17
100
AcDbEntity
  8
FP-Below
100
AcDbLine
 10
10836.77020730097
 20
-1998.197904974616
 30
0.0
 11
10812.79941315414
 21
-1998.197904974616
 31
0.0
  0
LINE
  5
1FC
330
17
100
AcDbEntity
  8
FP-Below
100
AcDbLine
 10
10756.79941315414
 20
-1998.197904974616
 30
0.0
 11
10732.828619007303
 21
-1998.197904974616
 31
0.0
  0
LINE
  5
1FD
330
17
100
AcDbEntity
  8
FP-Below
100
AcDbLine
 10
10836.77020730097
 20
-2002.697904974616
 30
0.0
 11
10812.79941315414
 21
-2002.697904974616
 31
0.0
  0
LINE
  5
1FE
330
17
100
AcDbEntity
  8
FP-Below
100
AcDbLine
 10
10756.79941315414
 20
-2002.697904974616
 30
0.0
 11
10729.328619007303
 21
-2002.697904974616
 31
0.0
  0
LINE
  5
1FF
330
17
100
AcDbEntity
  8
FP-Below
100
AcDbLine
 10
10812.79941315414
 20
-2002.697904974616
 30
0.0
 11
10812.79941315414
 21
-1998.197904974616
 31
0.0
  0
LINE
  5
200
330
17
100
AcDbEntity
  8
FP-Below
100
AcDbLine
 10
10756.79941315414
 20
-2002.697904974616
 30
0.0
 11
10756.79941315414
 21
-1998.197904974616
 31
0.0
  0
LINE
  5
201
330
17
100
AcDbEntity
  8
FP-Below
100
AcDbLine
 10
10732.828619007303
 20
-1998.197904974616
 30
0.0
 11
10732.828619007303
 21
-1992.197904974616
 31
0.0
  0
LINE
  5
202
330
17
100
AcDbEntity
  8
FP-Below
100
AcDbLine
 10
10732.828619007303
 20
-1956.197904974616
 30
0.0
 11
10732.828619007303
 21
-1950.197904974616
 31
0.0
  0
LINE
  5
203
330
17
100
AcDbEntity
  8
FP-Below
100
AcDbLine
 10
10732.828619007303
 20
-1992.197904974616
 30
0.0
 11
10724.828619007303
 21
-1992.197904974616
 31
0.0
  0
LINE
  5
204
330
17
100
AcDbEntity
  8
FP-Below
100
AcDbLine
 10
10732.828619007303
 20
-1956.197904974616
 30
0.0
 11
10724.828619007303
 21
-1956.197904974616
 31
0.0
  0
LINE
  5
205
330
17
100
AcDbEntity
  8
FP-Below
100
AcDbLine
 10
11720.266643359033
 20
-2123.1336490777767
 30
0.0
 11
11720.266643359033
 21
-2002.1336284472245
 31
0.0
  0
LINE
  5
206
330
17
100
AcDbEntity
  8
FP-Below
100
AcDbLine
 10
11720.266643359033
 20
-2002.1336284472245
 30
0.0
 11
11726.769316315489
 21
-2002.1336284472245
 31
0.0
  0
LINE
  5
207
330
17
100
AcDbEntity
  8
FP-Below
100
AcDbLine
 10
11733.28460560047
 20
-1856.4251355367096
 30
0.0
 11
11757.284605600455
 21
-1856.4250289720121
 31
0.0
  0
LINE
  5
208
330
17
100
AcDbEntity
  8
FP-Below
100
AcDbLine
 10
11757.284605600455
 20
-1856.4250289720121
 30
0.0
 11
11757.284605600455
 21
-1860.9250289720121
 31
0.0
  0
LINE
  5
209
330
17
100
AcDbEntity
  8
FP-Below
100
AcDbLine
 10
11757.284605600455
 20
-1860.9250289720121
 30
0.0
 11
11733.272922002825
 21
-1860.9250289720121
 31
0.0
  0
LINE
  5
20A
330
17
100
AcDbEntity
  8
FP-Below
100
AcDbLine
 10
11733.28460560047
 20
-1814.4251355367096
 30
0.0
 11
11757.27292932668
 21
-1814.4250680729829
 31
0.0
  0
LINE
  5
20B
330
17
100
AcDbEntity
  8
FP-Below
100
AcDbLine
 10
11757.27292932668
 20
-1814.4250680729829
 30
0.0
 11
11757.27292932668
 21
-1809.9250680729829
 31
0.0
  0
LINE
  5
20C
330
17
100
AcDbEntity
  8
FP-Below
100
AcDbLine
 10
11757.27292932668
 20
-1809.9250680729829
 30
0.0
 11
11757.272922002825
 21
-1789.0511736331146
 31
0.0
  0
LINE
  5
20D
330
17
100
AcDbEntity
  8
FP-Below
100
AcDbLine
 10
11550.765342113575
 20
-2109.133626067739
 30
0.0
 11
11552.765342113575
 21
-2109.133626067739
 31
0.0
  0
LINE
  5
20E
330
17
100
AcDbEntity
  8
FP-Below
100
AcDbLine
 10
11555.265342113575
 20
-2109.133626067739
 30
0.0
 11
11557.265342113575
 21
-2109.133626067739
 31
0.0
  0
LINE
  5
20F
330
17
100
AcDbEntity
  8
FP-Below
100
AcDbLine
 10
11552.765342113575
 20
-2109.133626067739
 30
0.0
 11
11552.765342113575
 21
-2081.133626067739
 31
0.0
  0
LINE
  5
210
330
17
100
AcDbEntity
  8
FP-Below
100
AcDbLine
 10
11552.765342113575
 20
-2081.133626067739
 30
0.0
 11
11555.265342113575
 21
-2081.133626067739
 31
0.0
  0
LINE
  5
211
330
17
100
AcDbEntity
  8
FP-Below
100
AcDbLine
 10
11555.265342113575
 20
-2081.133626067739
 30
0.0
 11
11555.265342113575
 21
-2109.133626067739
 31
0.0
  0
LWPOLYLINE
  5
212
330
17
100
AcDbEntity
  8
FP-Below
100
AcDbPolyline
 90
4
 70
0
 38
-0.3403031765569822
 10
10585.769316315482
 20
-2037.6337721692917
 10
10585.769316315482
 20
-2058.132584221731
 10
10596.769316315482
 20
-2058.132584221731
 10
10596.769316315482
 20
-2037.6337721692917
  0
LWPOLYLINE
  5
213
330
17
100
AcDbEntity
  8
FP-Below
100
AcDbPolyline
 90
4
 70
1
 38
-0.3403031765569822
 10
10585.769316315482
 20
-2298.134366192685
 10
10596.769316315482
 20
-2298.134366192685
 10
10596.769316315482
 20
-2322.1334752072116
 10
10585.769316315482
 20
-2322.1334752072116
  0
LINE
  5
214
330
17
100
AcDbEntity
  8
FP-Below
100
AcDbLine
 10
10585.769316315482
 20
-2430.1325842217393
 30
0.0
 11
10596.769316315482
 21
-2430.1325842217393
 31
0.0
  0
LINE
  5
215
330
17
100
AcDbEntity
  8
FP-Below
100
AcDbLine
 10
10596.769316315482
 20
-2430.1325842217393
 30
0.0
 11
10596.769316315482
 21
-2443.1334752072125
 31
0.0
  0
LINE
  5
216
330
17
100
AcDbEntity
  8
FP-Below
100
AcDbLine
 10
10596.769316315482
 20
-2443.1334752072125
 30
0.0
 11
10645.500671377513
 21
-2443.1334752072125
 31
0.0
  0
LINE
  5
217
330
17
100
AcDbEntity
  8
FP-Below
100
AcDbLine
 10
10634.500671377513
 20
-2454.1334752072125
 30
0.0
 11
10585.769316315482
 21
-2454.1334752072125
 31
0.0
  0
LINE
  5
218
330
17
100
AcDbEntity
  8
FP-Below
100
AcDbLine
 10
10585.769316315482
 20
-2454.1334752072125
 30
0.0
 11
10585.769316315482
 21
-2430.1325842217393
 31
0.0
  0
LINE
  5
219
330
17
100
AcDbEntity
  8
FP-Below
100
AcDbLine
 10
10799.037961253465
 20
-2454.1334752072125
 30
0.0
 11
10847.769316315482
 21
-2454.1334752072125
 31
0.0
  0
LINE
  5
21A
330
17
100
AcDbEntity
  8
FP-Below
100
AcDbLine
 10
10847.769316315482
 20
-2454.1334752072125
 30
0.0
 11
10847.769316315482
 21
-2386.6335706934615
 31
0.0
  0
LINE
  5
21B
330
17
100
AcDbEntity
  8
FP-Below
100
AcDbLine
 10
10836.77020730097
 20
-2386.6335706934615
 30
0.0
 11
10836.77020730097
 21
-2443.1334752072125
 31
0.0
  0
LINE
  5
21C
330
17
100
AcDbEntity
  8
FP-Below
100
AcDbLine
 10
10836.77020730097
 20
-2443.1334752072125
 30
0.0
 11
10788.037961253465
 21
-2443.1334752072125
 31
0.0
  0
LWPOLYLINE
  5
21D
330
17
100
AcDbEntity
  8
FP-Below
100
AcDbPolyline
 90
4
 70
0
 38
-0.3403031765569822
 10
11985.862665278508
 20
-2037.6337721692917
 10
11985.862665278508
 20
-2058.132584221731
 10
11974.862665278508
 20
-2058.132584221731
 10
11974.862665278508
 20
-2037.6337959648235
  0
LWPOLYLINE
  5
21E
330
17
100
AcDbEntity
  8
FP-Below
100
AcDbPolyline
 90
4
 70
1
 38
-0.3403031765569822
 10
11974.766643359033
 20
-2166.1334752072116
 10
11985.766643359033
 20
-2166.1334752072116
 10
11985.766643359033
 20
-2190.1325842217384
 10
11974.766643359033
 20
-2190.1325842217384
  0
LWPOLYLINE
  5
21F
330
17
100
AcDbEntity
  8
FP-Below
100
AcDbPolyline
 90
4
 70
1
 38
-0.3403031765569822
 10
11974.766643359033
 20
-2298.134366192685
 10
11985.766643359033
 20
-2298.134366192685
 10
11985.766643359033
 20
-2322.1334752072116
 10
11974.766643359033
 20
-2322.1334752072116
  0
LINE
  5
220
330
17
100
AcDbEntity
  8
FP-Below
100
AcDbLine
 10
11974.766643359033
 20
-2430.1325842217393
 30
0.0
 11
11985.766643359033
 21
-2430.1325842217393
 31
0.0
  0
LINE
  5
221
330
17
100
AcDbEntity
  8
FP-Below
100
AcDbLine
 10
11985.766643359033
 20
-2430.1325842217393
 30
0.0
 11
11985.766643359033
 21
-2454.1334752072125
 31
0.0
  0
LINE
  5
222
330
17
100
AcDbEntity
  8
FP-Below
100
AcDbLine
 10
11985.766643359033
 20
-2454.1334752072125
 30
0.0
 11
11937.036179282497
 21
-2454.1334752072125
 31
0.0
  0
LINE
  5
223
330
17
100
AcDbEntity
  8
FP-Below
100
AcDbLine
 10
11926.036179282497
 20
-2443.1334752072125
 30
0.0
 11
11974.766643359033
 21
-2443.1334752072125
 31
0.0
  0
LINE
  5
224
330
17
100
AcDbEntity
  8
FP-Below
100
AcDbLine
 10
11974.766643359033
 20
-2443.1334752072125
 30
0.0
 11
11974.766643359033
 21
-2430.1325842217393
 31
0.0
  0
LINE
  5
225
330
17
100
AcDbEntity
  8
FP-Below
100
AcDbLine
 10
11723.766643359033
 20
-2386.6335706934615
 30
0.0
 11
11723.766643359033
 21
-2454.1334752072125
 31
0.0
  0
LINE
  5
226
330
17
100
AcDbEntity
  8
FP-Below
100
AcDbLine
 10
11723.766643359033
 20
-2454.1334752072125
 30
0.0
 11
11772.498889406545
 21
-2454.1334752072125
 31
0.0
  0
LINE
  5
227
330
17
100
AcDbEntity
  8
FP-Below
100
AcDbLine
 10
11783.498889406545
 20
-2443.133483623131
 30
0.0
 11
11734.766629232783
 21
-2443.133508621884
 31
0.0
  0
LINE
  5
228
330
17
100
AcDbEntity
  8
FP-Below
100
AcDbLine
 10
11734.766629232783
 20
-2443.133508621884
 30
0.0
 11
11734.766629232783
 21
-2386.6335706934615
 31
0.0
  0
LINE
  5
229
330
17
100
AcDbEntity
  8
FP-Below
100
AcDbLine
 10
10724.828619007303
 20
-2026.6349277204145
 30
0.0
 11
10724.828619007303
 21
-1992.197904974616
 31
0.0
  0
LINE
  5
22A
330
17
100
AcDbEntity
  8
FP-Below
100
AcDbLine
 10
11920.8639387829
 20
-1920.0504283572227
 30
0.0
 11
11912.859136569261
 21
-1920.0502903550414
 31
0.0
  0
LINE
  5
22B
330
17
100
AcDbEntity
  8
FP-Below
100
AcDbLine
 10
10836.766121514998
 20
-1789.0511228531986
 30
0.0
 11
10806.019604203842
 21
-1789.0511225552045
 31
0.0
  0
LINE
  5
22C
330
17
100
AcDbEntity
  8
FP-Below
100
AcDbLine
 10
11043.77109828648
 20
-2243.6336284559375
 30
0.0
 11
11041.77109828648
 21
-2243.6336284559375
 31
0.0
  0
LINE
  5
22D
330
17
100
AcDbEntity
  8
FP-Below
100
AcDbLine
 10
11039.27109828648
 20
-2243.6336284559375
 30
0.0
 11
11037.27109828648
 21
-2243.6336284559375
 31
0.0
  0
LINE
  5
22E
330
17
100
AcDbEntity
  8
FP-Below
100
AcDbLine
 10
11041.77109828648
 20
-2243.6336284559375
 30
0.0
 11
11041.77109828648
 21
-2271.6336284559375
 31
0.0
  0
LINE
  5
22F
330
17
100
AcDbEntity
  8
FP-Below
100
AcDbLine
 10
11041.77109828648
 20
-2271.6336284559375
 30
0.0
 11
11039.27109828648
 21
-2271.6336284559375
 31
0.0
  0
LINE
  5
230
330
17
100
AcDbEntity
  8
FP-Below
100
AcDbLine
 10
11039.27109828648
 20
-2271.6336284559375
 30
0.0
 11
11039.27109828648
 21
-2243.6336284559375
 31
0.0
  0
LINE
  5
231
330
17
100
AcDbEntity
  8
FP-Below
100
AcDbLine
 10
11686.406003791386
 20
-2207.6336284472245
 30
0.0
 11
11686.406003791386
 21
-2205.6336284472245
 31
0.0
  0
LINE
  5
232
330
17
100
AcDbEntity
  8
FP-Below
100
AcDbLine
 10
11686.406003791386
 20
-2203.1336284472245
 30
0.0
 11
11686.406003791386
 21
-2201.1336284472245
 31
0.0
  0
LINE
  5
233
330
17
100
AcDbEntity
  8
FP-Below
100
AcDbLine
 10
11686.406003791386
 20
-2205.6336284472245
 30
0.0
 11
11714.406003791386
 21
-2205.6336284472245
 31
0.0
  0
LINE
  5
234
330
17
100
AcDbEntity
  8
FP-Below
100
AcDbLine
 10
11714.406003791386
 20
-2205.6336284472245
 30
0.0
 11
11714.406003791386
 21
-2203.1336284472245
 31
0.0
  0
LINE
  5
235
330
17
100
AcDbEntity
  8
FP-Below
100
AcDbLine
 10
11714.406003791386
 20
-2203.1336284472245
 30
0.0
 11
11686.406003791386
 21
-2203.1336284472245
 31
0.0
  0
LINE
  5
236
330
17
100
AcDbEntity
  8
FP-Below
100
AcDbLine
 10
11656.406003791386
 20
-2201.1336284472245
 30
0.0
 11
11656.406003791386
 21
-2207.6336284472245
 31
0.0
  0
LINE
  5
237
330
17
100
AcDbEntity
  8
FP-Below
100
AcDbLine
 10
11733.272922002825
 20
-1885.1402938754554
 30
0.0
 11
11808.073776657553
 21
-1885.1374852570125
 31
0.0
  0
LINE
  5
238
330
17
100
AcDbEntity
  8
FP-Below
100
AcDbLine
 10
11838.073776657553
 20
-1885.13638550646
 30
0.0
 11
11912.862658798627
 21
-1885.1337104117165
 31
0.0
  0
LINE
  5
239
330
17
100
AcDbEntity
  8
FP-Below
100
AcDbLine
 10
11734.766643359033
 20
-1891.6402391224628
 30
0.0
 11
11808.073776657553
 21
-1891.637485261378
 31
0.0
  0
LINE
  5
23A
330
17
100
AcDbEntity
  8
FP-Below
100
AcDbLine
 10
11838.073657522908
 20
-1891.6363855150903
 30
0.0
 11
11845.362897077915
 21
-1891.6361247890654
 31
0.0
  0
LINE
  5
23B
330
17
100
AcDbEntity
  8
FP-Below
100
AcDbLine
 10
11848.862897077915
 20
-1891.6359995989023
 30
0.0
 11
11912.862897077915
 21
-1891.633710407351
 31
0.0
  0
LINE
  5
23C
330
17
100
AcDbEntity
  8
FP-Below
100
AcDbLine
 10
11838.073657522908
 20
-1885.1363855108293
 30
0.0
 11
11838.073657522908
 21
-1887.1363855108293
 31
0.0
  0
LINE
  5
23D
330
17
100
AcDbEntity
  8
FP-Below
100
AcDbLine
 10
11838.073657522908
 20
-1889.6363855108293
 30
0.0
 11
11838.073657522908
 21
-1891.637485261378
 31
0.0
  0
LINE
  5
23E
330
17
100
AcDbEntity
  8
FP-Below
100
AcDbLine
 10
11838.073657522908
 20
-1887.1363855108293
 30
0.0
 11
11866.073657522908
 21
-1887.1363855108293
 31
0.0
  0
LINE
  5
23F
330
17
100
AcDbEntity
  8
FP-Below
100
AcDbLine
 10
11866.073657522908
 20
-1887.1363855108293
 30
0.0
 11
11866.073657522908
 21
-1889.6363855108293
 31
0.0
  0
LINE
  5
240
330
17
100
AcDbEntity
  8
FP-Below
100
AcDbLine
 10
11866.073657522908
 20
-1889.6363855108293
 30
0.0
 11
11838.073657522908
 21
-1889.6363855108293
 31
0.0
  0
LINE
  5
241
330
17
100
AcDbEntity
  8
FP-Below
100
AcDbLine
 10
11808.073657522908
 20
-1885.1363855108293
 30
0.0
 11
11808.073657522908
 21
-1891.6363855108293
 31
0.0
  0
LINE
  5
242
330
17
100
AcDbEntity
  8
FP-Below
100
AcDbLine
 10
10938.768425329987
 20
-1848.0918303077933
 30
0.0
 11
10940.768425329994
 21
-1848.0918303077933
 31
0.0
  0
LINE
  5
243
330
17
100
AcDbEntity
  8
FP-Below
100
AcDbLine
 10
10943.268425329994
 20
-1848.0918303077933
 30
0.0
 11
10945.268425329994
 21
-1848.0918303077933
 31
0.0
  0
LINE
  5
244
330
17
100
AcDbEntity
  8
FP-Below
100
AcDbLine
 10
10940.768425329994
 20
-1848.0918303077933
 30
0.0
 11
10940.768425329987
 21
-1876.0918303077933
 31
0.0
  0
LINE
  5
245
330
17
100
AcDbEntity
  8
FP-Below
100
AcDbLine
 10
10940.768425329987
 20
-1876.0918303077933
 30
0.0
 11
10943.268425329987
 21
-1876.0918303077933
 31
0.0
  0
LINE
  5
246
330
17
100
AcDbEntity
  8
FP-Below
100
AcDbLine
 10
10943.268425329987
 20
-1876.0918303077933
 30
0.0
 11
10943.268425329994
 21
-1848.0918303077933
 31
0.0
  0
LINE
  5
247
330
17
100
AcDbEntity
  8
FP-Below
100
AcDbLine
 10
11011.268425329994
 20
-1848.0918303077933
 30
0.0
 11
11013.268425329994
 21
-1848.0918303077933
 31
0.0
  0
LINE
  5
248
330
17
100
AcDbEntity
  8
FP-Below
100
AcDbLine
 10
11015.768425329994
 20
-1848.0918303077933
 30
0.0
 11
11017.768425329994
 21
-1848.0918303077933
 31
0.0
  0
LINE
  5
249
330
17
100
AcDbEntity
  8
FP-Below
100
AcDbLine
 10
11013.268425329994
 20
-1848.0918303077933
 30
0.0
 11
11013.268425329994
 21
-1876.0918303077933
 31
0.0
  0
LINE
  5
24A
330
17
100
AcDbEntity
  8
FP-Below
100
AcDbLine
 10
11013.268425329994
 20
-1876.0918303077933
 30
0.0
 11
11015.768425329994
 21
-1876.0918303077933
 31
0.0
  0
LINE
  5
24B
330
17
100
AcDbEntity
  8
FP-Below
100
AcDbLine
 10
11015.768425329994
 20
-1876.0918303077933
 30
0.0
 11
11015.768425329994
 21
-1848.0918303077933
 31
0.0
  0
LWPOLYLINE
  5
24C
330
17
100
AcDbEntity
  8
FP-Below
100
AcDbPolyline
 90
3
 70
0
 38
-0.3403031765569822
 10
10799.037961253465
 20
-2454.1334752072125
 10
10799.037961253465
 20
-2472.1334752072125
 10
10767.518425330612
 20
-2472.133475207249
  0
LWPOLYLINE
  5
24D
330
17
100
AcDbEntity
  8
FP-Below
100
AcDbPolyline
 90
2
 70
0
 38
-0.3403031765569822
 10
10731.518425330642
 20
-2472.1334752072817
 10
10702.0202073003
 20
-2472.1334752073435
  0
LWPOLYLINE
  5
24E
330
17
100
AcDbEntity
  8
FP-Below
100
AcDbPolyline
 90
3
 70
0
 38
-0.3403031765569822
 10
10788.037961253465
 20
-2443.1334752072125
 10
10788.037961253465
 20
-2461.1334752072125
 10
10767.518425330612
 20
-2461.133475207238
  0
LWPOLYLINE
  5
24F
330
17
100
AcDbEntity
  8
FP-Below
100
AcDbPolyline
 90
2
 70
0
 38
-0.3403031765569822
 10
10731.518425330642
 20
-2461.1334752072744
 10
10702.0202073003
 20
-2461.1334752073435
  0
LINE
  5
250
330
17
100
AcDbEntity
  8
FP-Below
100
AcDbLine
 10
10702.0202073003
 20
-2472.1334752073435
 30
0.0
 11
10702.0202073003
 21
-2461.1334752073435
 31
0.0
  0
LWPOLYLINE
  5
251
330
17
100
AcDbEntity
  8
FP-Below
100
AcDbPolyline
 90
3
 70
0
 38
-0.3403031765569822
 10
10634.500671377513
 20
-2454.1334752072125
 10
10634.500671377513
 20
-2472.1334752072125
 10
10666.02020730033
 20
-2472.1334752073435
  0
LWPOLYLINE
  5
252
330
17
100
AcDbEntity
  8
FP-Below
100
AcDbPolyline
 90
3
 70
0
 38
-0.3403031765569822
 10
10645.500671377513
 20
-2443.1334752072125
 10
10645.500671377513
 20
-2461.1334752072125
 10
10666.02020730033
 20
-2461.1334752073435
  0
LINE
  5
253
330
17
100
AcDbEntity
  8
FP-Below
100
AcDbLine
 10
10666.02020730033
 20
-2472.1334752073435
 30
0.0
 11
10666.02020730033
 21
-2461.1334752073435
 31
0.0
  0
LINE
  5
254
330
17
100
AcDbEntity
  8
FP-Below
100
AcDbLine
 10
10767.518425330612
 20
-2472.1334752073726
 30
0.0
 11
10767.518425330612
 21
-2461.1334752073726
 31
0.0
  0
LINE
  5
255
330
17
100
AcDbEntity
  8
FP-Below
100
AcDbLine
 10
10731.518425330642
 20
-2472.1334752073726
 30
0.0
 11
10731.518425330642
 21
-2461.1334752073726
 31
0.0
  0
LWPOLYLINE
  5
256
330
17
100
AcDbEntity
  8
FP-Below
100
AcDbPolyline
 90
3
 70
0
 38
-0.3403031765569822
 10
11772.498889406545
 20
-2454.1334752072125
 10
11772.498889406545
 20
-2472.1334752072125
 10
11804.01842532939
 20
-2472.133475207249
  0
LWPOLYLINE
  5
257
330
17
100
AcDbEntity
  8
FP-Below
100
AcDbPolyline
 90
2
 70
0
 38
-0.3403031765569822
 10
11840.018425329361
 20
-2472.1334752072817
 10
11869.51664335971
 20
-2472.1334752073435
  0
LWPOLYLINE
  5
258
330
17
100
AcDbEntity
  8
FP-Below
100
AcDbPolyline
 90
3
 70
0
 38
-0.3403031765569822
 10
11783.498889406545
 20
-2443.1334752072125
 10
11783.498889406545
 20
-2461.1334752072125
 10
11804.01842532939
 20
-2461.133475207238
  0
LWPOLYLINE
  5
259
330
17
100
AcDbEntity
  8
FP-Below
100
AcDbPolyline
 90
2
 70
0
 38
-0.3403031765569822
 10
11840.018425329361
 20
-2461.1334752072744
 10
11869.51664335971
 20
-2461.1334752073435
  0
LINE
  5
25A
330
17
100
AcDbEntity
  8
FP-Below
100
AcDbLine
 10
11869.51664335971
 20
-2472.1334752073435
 30
0.0
 11
11869.51664335971
 21
-2461.1334752073435
 31
0.0
  0
LWPOLYLINE
  5
25B
330
17
100
AcDbEntity
  8
FP-Below
100
AcDbPolyline
 90
3
 70
0
 38
-0.3403031765569822
 10
11937.036179282497
 20
-2454.1334752072125
 10
11937.036179282497
 20
-2472.1334752072125
 10
11905.51664335968
 20
-2472.1334752073435
  0
LWPOLYLINE
  5
25C
330
17
100
AcDbEntity
  8
FP-Below
100
AcDbPolyline
 90
3
 70
0
 38
-0.3403031765569822
 10
11926.036179282497
 20
-2443.1334752072125
 10
11926.036179282497
 20
-2461.1334752072125
 10
11905.51664335968
 20
-2461.1334752073435
  0
LINE
  5
25D
330
17
100
AcDbEntity
  8
FP-Below
100
AcDbLine
 10
11905.51664335968
 20
-2472.1334752073435
 30
0.0
 11
11905.51664335968
 21
-2461.1334752073435
 31
0.0
  0
LINE
  5
25E
330
17
100
AcDbEntity
  8
FP-Below
100
AcDbLine
 10
11804.01842532939
 20
-2472.1334752073726
 30
0.0
 11
11804.01842532939
 21
-2461.1334752073726
 31
0.0
  0
LINE
  5
25F
330
17
100
AcDbEntity
  8
FP-Below
100
AcDbLine
 10
11840.018425329361
 20
-2472.1334752073726
 30
0.0
 11
11840.018425329361
 21
-2461.1334752073726
 31
0.0
  0
LINE
  5
260
330
17
100
AcDbEntity
  8
FP-Below
100
AcDbLine
 10
11176.269316318385
 20
-2429.63350500874
 30
0.0
 11
11184.367308517043
 21
-2429.6335050087982
 31
0.0
  0
LINE
  5
261
330
17
100
AcDbEntity
  8
FP-Below
100
AcDbLine
 10
11184.367308517043
 20
-2429.6335050087982
 30
0.0
 11
11184.366863016125
 21
-2511.133564305761
 31
0.0
  0
LINE
  5
262
330
17
100
AcDbEntity
  8
FP-Below
100
AcDbLine
 10
11184.366863016125
 20
-2511.133564305761
 30
0.0
 11
11192.36730851716
 21
-2511.133564305761
 31
0.0
  0
LINE
  5
263
330
17
100
AcDbEntity
  8
FP-Below
100
AcDbLine
 10
11219.76460086007
 20
-2511.133564305761
 30
0.0
 11
11227.764600860171
 21
-2511.133564305761
 31
0.0
  0
LINE
  5
264
330
17
100
AcDbEntity
  8
FP-Below
100
AcDbLine
 10
11227.764600860171
 20
-2511.133564305761
 30
0.0
 11
11227.764600860171
 21
-2503.133564305761
 31
0.0
  0
LINE
  5
265
330
17
100
AcDbEntity
  8
FP-Below
100
AcDbLine
 10
11192.36730851716
 20
-2511.133564305761
 30
0.0
 11
11192.36730851716
 21
-2517.133564305761
 31
0.0
  0
LINE
  5
266
330
17
100
AcDbEntity
  8
FP-Below
100
AcDbLine
 10
11192.36730851716
 20
-2517.133564305761
 30
0.0
 11
11194.36730851689
 21
-2517.133564305761
 31
0.0
  0
LINE
  5
267
330
17
100
AcDbEntity
  8
FP-Below
100
AcDbLine
 10
11194.36730851689
 20
-2517.133564305761
 30
0.0
 11
11194.36730851689
 21
-2519.133564305761
 31
0.0
  0
LINE
  5
268
330
17
100
AcDbEntity
  8
FP-Below
100
AcDbLine
 10
11194.36730851689
 20
-2519.133564305761
 30
0.0
 11
11206.065954688615
 21
-2519.133564305761
 31
0.0
  0
LINE
  5
269
330
17
100
AcDbEntity
  8
FP-Below
100
AcDbLine
 10
11219.76460086007
 20
-2511.133564305761
 30
0.0
 11
11219.76460086007
 21
-2517.133564305761
 31
0.0
  0
LINE
  5
26A
330
17
100
AcDbEntity
  8
FP-Below
100
AcDbLine
 10
11219.76460086007
 20
-2517.133564305761
 30
0.0
 11
11217.764600860339
 21
-2517.133564305761
 31
0.0
  0
LINE
  5
26B
330
17
100
AcDbEntity
  8
FP-Below
100
AcDbLine
 10
11217.764600860339
 20
-2517.133564305761
 30
0.0
 11
11217.764600860339
 21
-2519.133564305761
 31
0.0
  0
LINE
  5
26C
330
17
100
AcDbEntity
  8
FP-Below
100
AcDbLine
 10
11217.764600860339
 20
-2519.133564305761
 30
0.0
 11
11206.065954688615
 21
-2519.133564305761
 31
0.0
  0
LINE
  5
26D
330
17
100
AcDbEntity
  8
FP-Below
100
AcDbLine
 10
11227.764600860171
 20
-2503.133564305761
 30
0.0
 11
11233.764600860171
 21
-2503.133564305761
 31
0.0
  0
LINE
  5
26E
330
17
100
AcDbEntity
  8
FP-Below
100
AcDbLine
 10
11233.764600860171
 20
-2503.133564305761
 30
0.0
 11
11233.764600860171
 21
-2501.13356430603
 31
0.0
  0
LINE
  5
26F
330
17
100
AcDbEntity
  8
FP-Below
100
AcDbLine
 10
11233.764600860171
 20
-2501.13356430603
 30
0.0
 11
11235.764600860171
 21
-2501.13356430603
 31
0.0
  0
LINE
  5
270
330
17
100
AcDbEntity
  8
FP-Below
100
AcDbLine
 10
11235.764600860171
 20
-2501.13356430603
 30
0.0
 11
11235.764600860171
 21
-2489.434918134306
 31
0.0
  0
LINE
  5
271
330
17
100
AcDbEntity
  8
FP-Below
100
AcDbLine
 10
11215.764600808356
 20
-2475.7362719628545
 30
0.0
 11
11233.764600860171
 21
-2475.7362719628545
 31
0.0
  0
LINE
  5
272
330
17
100
AcDbEntity
  8
FP-Below
100
AcDbLine
 10
11233.764600860171
 20
-2475.7362719628545
 30
0.0
 11
11233.764600860171
 21
-2477.7362719625853
 31
0.0
  0
LINE
  5
273
330
17
100
AcDbEntity
  8
FP-Below
100
AcDbLine
 10
11233.764600860171
 20
-2477.7362719625853
 30
0.0
 11
11235.764600860171
 21
-2477.7362719625853
 31
0.0
  0
LINE
  5
274
330
17
100
AcDbEntity
  8
FP-Below
100
AcDbLine
 10
11235.764600860171
 20
-2477.7362719625853
 30
0.0
 11
11235.764600860171
 21
-2489.434918134306
 31
0.0
  0
LINE
  5
275
330
17
100
AcDbEntity
  8
FP-Below
100
AcDbLine
 10
11395.266643356152
 20
-2429.7093257324177
 30
0.0
 11
11387.168651157486
 21
-2429.709325732476
 31
0.0
  0
LINE
  5
276
330
17
100
AcDbEntity
  8
FP-Below
100
AcDbLine
 10
11387.168651157486
 20
-2429.709325732476
 30
0.0
 11
11387.169096658397
 21
-2511.133564305761
 31
0.0
  0
LINE
  5
277
330
17
100
AcDbEntity
  8
FP-Below
100
AcDbLine
 10
11387.169096658397
 20
-2511.133564305761
 30
0.0
 11
11379.168651157355
 21
-2511.133564305761
 31
0.0
  0
LINE
  5
278
330
17
100
AcDbEntity
  8
FP-Below
100
AcDbLine
 10
11351.771358814452
 20
-2511.133564305761
 30
0.0
 11
11343.771358814343
 21
-2511.133564305761
 31
0.0
  0
LINE
  5
279
330
17
100
AcDbEntity
  8
FP-Below
100
AcDbLine
 10
11343.771358814343
 20
-2511.133564305761
 30
0.0
 11
11343.771358814343
 21
-2503.133564305761
 31
0.0
  0
LINE
  5
27A
330
17
100
AcDbEntity
  8
FP-Below
100
AcDbLine
 10
11379.168651157355
 20
-2511.133564305761
 30
0.0
 11
11379.168651157355
 21
-2517.133564305761
 31
0.0
  0
LINE
  5
27B
330
17
100
AcDbEntity
  8
FP-Below
100
AcDbLine
 10
11379.168651157355
 20
-2517.133564305761
 30
0.0
 11
11377.168651157624
 21
-2517.133564305761
 31
0.0
  0
LINE
  5
27C
330
17
100
AcDbEntity
  8
FP-Below
100
AcDbLine
 10
11377.168651157624
 20
-2517.133564305761
 30
0.0
 11
11377.168651157624
 21
-2519.133564305761
 31
0.0
  0
LINE
  5
27D
330
17
100
AcDbEntity
  8
FP-Below
100
AcDbLine
 10
11377.168651157624
 20
-2519.133564305761
 30
0.0
 11
11365.470004985908
 21
-2519.133564305761
 31
0.0
  0
LINE
  5
27E
330
17
100
AcDbEntity
  8
FP-Below
100
AcDbLine
 10
11351.771358814452
 20
-2511.133564305761
 30
0.0
 11
11351.771358814452
 21
-2517.133564305761
 31
0.0
  0
LINE
  5
27F
330
17
100
AcDbEntity
  8
FP-Below
100
AcDbLine
 10
11351.771358814452
 20
-2517.133564305761
 30
0.0
 11
11353.771358814183
 21
-2517.133564305761
 31
0.0
  0
LINE
  5
280
330
17
100
AcDbEntity
  8
FP-Below
100
AcDbLine
 10
11353.771358814183
 20
-2517.133564305761
 30
0.0
 11
11353.771358814183
 21
-2519.133564305761
 31
0.0
  0
LINE
  5
281
330
17
100
AcDbEntity
  8
FP-Below
100
AcDbLine
 10
11353.771358814183
 20
-2519.133564305761
 30
0.0
 11
11365.470004985908
 21
-2519.133564305761
 31
0.0
  0
LINE
  5
282
330
17
100
AcDbEntity
  8
FP-Below
100
AcDbLine
 10
11343.771358814343
 20
-2503.133564305761
 30
0.0
 11
11337.771358814343
 21
-2503.133564305761
 31
0.0
  0
LINE
  5
283
330
17
100
AcDbEntity
  8
FP-Below
100
AcDbLine
 10
11337.771358814343
 20
-2503.133564305761
 30
0.0
 11
11337.771358814343
 21
-2501.13356430603
 31
0.0
  0
LINE
  5
284
330
17
100
AcDbEntity
  8
FP-Below
100
AcDbLine
 10
11337.771358814343
 20
-2501.13356430603
 30
0.0
 11
11335.771358814343
 21
-2501.13356430603
 31
0.0
  0
LINE
  5
285
330
17
100
AcDbEntity
  8
FP-Below
100
AcDbLine
 10
11335.771358814343
 20
-2501.13356430603
 30
0.0
 11
11335.771358814343
 21
-2489.434918134306
 31
0.0
  0
LINE
  5
286
330
17
100
AcDbEntity
  8
FP-Below
100
AcDbLine
 10
11355.771358762528
 20
-2475.7362719628545
 30
0.0
 11
11337.771358814343
 21
-2475.7362719628545
 31
0.0
  0
LINE
  5
287
330
17
100
AcDbEntity
  8
FP-Below
100
AcDbLine
 10
11337.771358814343
 20
-2475.7362719628545
 30
0.0
 11
11337.771358814343
 21
-2477.7362719625853
 31
0.0
  0
LINE
  5
288
330
17
100
AcDbEntity
  8
FP-Below
100
AcDbLine
 10
11337.771358814343
 20
-2477.7362719625853
 30
0.0
 11
11335.771358814343
 21
-2477.7362719625853
 31
0.0
  0
LINE
  5
289
330
17
100
AcDbEntity
  8
FP-Below
100
AcDbLine
 10
11335.771358814343
 20
-2477.7362719625853
 30
0.0
 11
11335.771358814343
 21
-2489.434918134306
 31
0.0
  0
LINE
  5
28A
330
17
100
AcDbEntity
  8
FP-Below
100
AcDbLine
 10
11215.764600808348
 20
-2407.1335706934615
 30
0.0
 11
11225.767534344513
 21
-2407.1335706934615
 31
0.0
  0
LINE
  5
28B
330
17
100
AcDbEntity
  8
FP-Below
100
AcDbLine
 10
11345.766643493718
 20
-2407.133570693465
 30
0.0
 11
11355.771358762528
 21
-2407.133570693465
 31
0.0
  0
LINE
  5
28C
330
17
100
AcDbEntity
  8
FP-Below
100
AcDbLine
 10
11905.51664335968
 20
-2472.1334752073435
 30
0.0
 11
11905.51664335968
 21
-2461.1334752073435
 31
0.0
  0
LINE
  5
28D
330
17
100
AcDbEntity
  8
FP-Proposed Wall
 62
1
100
AcDbLine
 10
11756.497998421057
 20
-2470.1334752072125
 30
0.0
 11
11707.76664335904
 21
-2470.1334752072125
 31
0.0
  0
LINE
  5
28E
330
17
100
AcDbEntity
  8
FP-Proposed Wall
 62
1
100
AcDbLine
 10
11707.765307082494
 20
-2470.133475207831
 30
0.0
 11
11707.765307082494
 21
-2402.6335706934624
 31
0.0
  0
LWPOLYLINE
  5
28F
330
17
100
AcDbEntity
  8
FP-Proposed Wall
 62
1
100
AcDbPolyline
 90
3
 70
0
 10
11756.497998421057
 20
-2470.1334752072125
 10
11756.497998421057
 20
-2488.1334752071907
 10
11854.766643359048
 20
-2488.133475207307
  0
LINE
  5
290
330
17
100
AcDbEntity
  8
FP-Proposed Wall
 62
1
100
AcDbLine
 10
12001.76792624383
 20
-2470.133475207831
 30
0.0
 11
12001.766690818544
 21
-2053.6338220841817
 31
0.0
  0
LINE
  5
291
330
17
100
AcDbEntity
  8
FP-Proposed Wall
 62
1
100
AcDbLine
 10
11953.035288297053
 20
-2470.1334752076273
 30
0.0
 11
12001.767926243823
 21
-2470.133475207831
 31
0.0
  0
LWPOLYLINE
  5
292
330
17
100
AcDbEntity
  8
FP-Proposed Wall
 62
1
100
AcDbPolyline
 90
3
 70
0
 10
11953.035288297053
 20
-2470.1334752076273
 10
11953.035288296973
 20
-2488.1334752076054
 10
11854.766643359048
 20
-2488.133475207307
  0
LINE
  5
293
330
17
100
AcDbEntity
  8
FP-Proposed Wall
 62
1
100
AcDbLine
 10
11909.281323723813
 20
-2377.646872687824
 30
0.0
 11
11909.281323724032
 21
-2018.9679169458425
 31
0.0
  0
LINE
  5
294
330
17
100
AcDbEntity
  8
FP-Proposed Wall
 62
1
100
AcDbLine
 10
12001.767926243816
 20
-2470.1334752078237
 30
0.0
 11
11909.281323723813
 21
-2377.646872687824
 31
0.0
  0
LINE
  5
295
330
17
100
AcDbEntity
  8
FP-Proposed Wall
 62
1
100
AcDbLine
 10
11909.281323723813
 20
-2377.646872687824
 30
0.0
 11
11854.766643359048
 21
-2377.646872687824
 31
0.0
  0
LINE
  5
296
330
17
100
AcDbEntity
  8
FP-Proposed Wall
 62
1
100
AcDbLine
 10
11800.251962994274
 20
-2377.646872687824
 30
0.0
 11
11800.251962994274
 21
-2347.9006799408617
 31
0.0
  0
LINE
  5
297
330
17
100
AcDbEntity
  8
FP-Proposed Wall
 62
1
100
AcDbLine
 10
11707.76664335904
 20
-2470.1334752072125
 30
0.0
 11
11800.251962994274
 21
-2377.646872687824
 31
0.0
  0
LINE
  5
298
330
17
100
AcDbEntity
  8
FP-Proposed Wall
 62
1
100
AcDbLine
 10
11800.251962994274
 20
-2377.646872687824
 30
0.0
 11
11854.766643359048
 21
-2377.646872687824
 31
0.0
  0
LINE
  5
299
330
17
100
AcDbEntity
  8
FP-Proposed Wall
 62
1
100
AcDbLine
 10
11953.035288296958
 20
-2488.133475207591
 30
0.0
 11
11889.349969230772
 21
-2424.4481561414086
 31
0.0
  0
LINE
  5
29A
330
17
100
AcDbEntity
  8
FP-Proposed Wall
 62
1
100
AcDbLine
 10
11756.498051812834
 20
-2488.133421815399
 30
0.0
 11
11820.190312254852
 21
-2424.441161373381
 31
0.0
  0
LINE
  5
29B
330
17
100
AcDbEntity
  8
FP-Proposed Wall
 62
1
100
AcDbLine
 10
11820.190312254852
 20
-2424.441161373381
 30
0.0
 11
11889.349969230772
 21
-2424.441161373381
 31
0.0
  0
LINE
  5
29C
330
17
100
AcDbEntity
  8
FP-Proposed Wall
 62
1
100
AcDbLine
 10
11820.190312254852
 20
-2424.441161373381
 30
0.0
 11
11820.190312254852
 21
-2406.4412147651865
 31
0.0
  0
LINE
  5
29D
330
17
100
AcDbEntity
  8
FP-Proposed Wall
 62
1
100
AcDbLine
 10
11889.349969230772
 20
-2424.4481561414086
 30
0.0
 11
11889.349969230772
 21
-2406.448156141437
 31
0.0
  0
LINE
  5
29E
330
17
100
AcDbEntity
  8
FP-Proposed Wall
 62
1
100
AcDbLine
 10
11953.035288296958
 20
-2470.13347520762
 30
0.0
 11
11889.349969230772
 21
-2406.448156141437
 31
0.0
  0
LINE
  5
29F
330
17
100
AcDbEntity
  8
FP-Proposed Wall
 62
1
100
AcDbLine
 10
11756.498051812834
 20
-2470.1334752072053
 30
0.0
 11
11820.19031225486
 21
-2406.441214765183
 31
0.0
  0
LINE
  5
2A0
330
17
100
AcDbEntity
  8
FP-Proposed Wall
 62
1
100
AcDbLine
 10
11820.19031225486
 20
-2406.441214765183
 30
0.0
 11
11889.349969230772
 21
-2406.448156141437
 31
0.0
  0
LINE
  5
2A1
330
17
100
AcDbEntity
  8
FP-Proposed Wall
 62
1
100
AcDbLine
 10
10815.037961253465
 20
-2470.1334752072125
 30
0.0
 11
10863.769316315482
 21
-2470.1334752072125
 31
0.0
  0
LINE
  5
2A2
330
17
100
AcDbEntity
  8
FP-Proposed Wall
 62
1
100
AcDbLine
 10
10863.770652592028
 20
-2470.133475207831
 30
0.0
 11
10863.770652592028
 21
-2402.6335706934624
 31
0.0
  0
LWPOLYLINE
  5
2A3
330
17
100
AcDbEntity
  8
FP-Proposed Wall
 62
1
100
AcDbPolyline
 90
3
 70
0
 10
10815.037961253465
 20
-2470.1334752072125
 10
10815.037961253465
 20
-2488.1334752071907
 10
10716.769316315474
 20
-2488.133475207307
  0
LINE
  5
2A4
330
17
100
AcDbEntity
  8
FP-Proposed Wall
 62
1
100
AcDbLine
 10
10569.768033430692
 20
-2470.133475207831
 30
0.0
 11
10569.769268855978
 21
-2053.6338220841817
 31
0.0
  0
LINE
  5
2A5
330
17
100
AcDbEntity
  8
FP-Proposed Wall
 62
1
100
AcDbLine
 10
10618.50067137747
 20
-2470.1334752076273
 30
0.0
 11
10569.768033430699
 21
-2470.133475207831
 31
0.0
  0
LWPOLYLINE
  5
2A6
330
17
100
AcDbEntity
  8
FP-Proposed Wall
 62
1
100
AcDbPolyline
 90
3
 70
0
 10
10618.50067137747
 20
-2470.1334752076273
 10
10618.50067137755
 20
-2488.1334752076054
 10
10716.769316315474
 20
-2488.133475207307
  0
LINE
  5
2A7
330
17
100
AcDbEntity
  8
FP-Proposed Wall
 62
1
100
AcDbLine
 10
10662.254635950701
 20
-2377.646872687824
 30
0.0
 11
10662.256074644283
 21
-2018.967858933743
 31
0.0
  0
LINE
  5
2A8
330
17
100
AcDbEntity
  8
FP-Proposed Wall
 62
1
100
AcDbLine
 10
10569.768033430699
 20
-2470.1334752078237
 30
0.0
 11
10662.254635950701
 21
-2377.646872687824
 31
0.0
  0
LINE
  5
2A9
330
17
100
AcDbEntity
  8
FP-Proposed Wall
 62
1
100
AcDbLine
 10
10662.254635950701
 20
-2377.646872687824
 30
0.0
 11
10716.769316315474
 21
-2377.646872687824
 31
0.0
  0
LINE
  5
2AA
330
17
100
AcDbEntity
  8
FP-Proposed Wall
 62
1
100
AcDbLine
 10
10771.28399668024
 20
-2377.646872687824
 30
0.0
 11
10771.283996680238
 21
-2347.9006799408617
 31
0.0
  0
LINE
  5
2AB
330
17
100
AcDbEntity
  8
FP-Proposed Wall
 62
1
100
AcDbLine
 10
10863.769316315482
 20
-2470.1334752072125
 30
0.0
 11
10771.28399668024
 21
-2377.646872687824
 31
0.0
  0
LINE
  5
2AC
330
17
100
AcDbEntity
  8
FP-Proposed Wall
 62
1
100
AcDbLine
 10
10771.28399668024
 20
-2377.646872687824
 30
0.0
 11
10716.769316315474
 21
-2377.646872687824
 31
0.0
  0
LINE
  5
2AD
330
17
100
AcDbEntity
  8
FP-Proposed Wall
 62
1
100
AcDbLine
 10
10618.500671377557
 20
-2488.133475207591
 30
0.0
 11
10682.185990443742
 21
-2424.4481561414086
 31
0.0
  0
LINE
  5
2AE
330
17
100
AcDbEntity
  8
FP-Proposed Wall
 62
1
100
AcDbLine
 10
10815.03790786168
 20
-2488.133421815399
 30
0.0
 11
10751.345647419663
 21
-2424.441161373381
 31
0.0
  0
LINE
  5
2AF
330
17
100
AcDbEntity
  8
FP-Proposed Wall
 62
1
100
AcDbLine
 10
10751.345647419663
 20
-2424.441161373381
 30
0.0
 11
10682.185990443742
 21
-2424.441161373381
 31
0.0
  0
LINE
  5
2B0
330
17
100
AcDbEntity
  8
FP-Proposed Wall
 62
1
100
AcDbLine
 10
10751.345647419663
 20
-2424.441161373381
 30
0.0
 11
10751.345647419663
 21
-2406.4412147651865
 31
0.0
  0
LINE
  5
2B1
330
17
100
AcDbEntity
  8
FP-Proposed Wall
 62
1
100
AcDbLine
 10
10682.185990443742
 20
-2424.4481561414086
 30
0.0
 11
10682.185990443742
 21
-2406.448156141437
 31
0.0
  0
LINE
  5
2B2
330
17
100
AcDbEntity
  8
FP-Proposed Wall
 62
1
100
AcDbLine
 10
10618.500671377557
 20
-2470.13347520762
 30
0.0
 11
10682.185990443742
 21
-2406.448156141437
 31
0.0
  0
LINE
  5
2B3
330
17
100
AcDbEntity
  8
FP-Proposed Wall
 62
1
100
AcDbLine
 10
10815.03790786168
 20
-2470.1334752072053
 30
0.0
 11
10751.345647419663
 21
-2406.441214765183
 31
0.0
  0
LINE
  5
2B4
330
17
100
AcDbEntity
  8
FP-Proposed Wall
 62
1
100
AcDbLine
 10
10751.345647419663
 20
-2406.441214765183
 30
0.0
 11
10682.185990443742
 21
-2406.448156141437
 31
0.0
  0
LINE
  5
2B5
330
17
100
AcDbEntity
  8
FP-Below
100
AcDbLine
 10
11177.768870890191
 20
-1609.0502903554743
 30
-0.3403031765569822
 11
11177.768870822743
 21
-1620.0454221416594
 31
-0.3403031765569822
  0
LINE
  5
2B6
330
17
100
AcDbEntity
  8
FP-Below
100
AcDbLine
 10
11393.768870822745
 20
-1609.0502903554743
 30
0.0
 11
11393.768870822745
 21
-1620.0502903554743
 31
0.0
  0
LINE
  5
2B7
330
17
100
AcDbEntity
  8
FP-Below
100
AcDbLine
 10
10833.766678591803
 20
-1713.300290356031
 30
0.0
 11
10821.766678591803
 21
-1713.300290356031
 31
0.0
  0
LINE
  5
2B8
330
17
100
AcDbEntity
  8
FP-Below
100
AcDbLine
 10
10821.766678591803
 20
-1713.300290356031
 30
0.0
 11
10821.766678591803
 21
-1641.300290356031
 31
0.0
  0
LINE
  5
2B9
330
17
100
AcDbEntity
  8
FP-Below
100
AcDbLine
 10
10821.766678591803
 20
-1641.300290356031
 30
0.0
 11
10833.766678591803
 21
-1641.300290356029
 31
0.0
  0
LINE
  5
2BA
330
17
100
AcDbEntity
  8
FP-Below
100
AcDbLine
 10
11037.271251549819
 20
-2369.6335706934615
 30
0.0
 11
11043.78029410797
 21
-2369.633570684734
 31
0.0
  0
LINE
  5
2BB
330
17
100
AcDbEntity
  8
FP-Below
100
AcDbLine
 10
11043.77109828648
 20
-2339.6335706847485
 30
0.0
 11
11041.77109828648
 21
-2339.6335706847485
 31
0.0
  0
LINE
  5
2BC
330
17
100
AcDbEntity
  8
FP-Below
100
AcDbLine
 10
11039.27109828648
 20
-2339.6335706847485
 30
0.0
 11
11037.27109828648
 21
-2339.6335706847485
 31
0.0
  0
LINE
  5
2BD
330
17
100
AcDbEntity
  8
FP-Below
100
AcDbLine
 10
11041.77109828648
 20
-2339.6335706847485
 30
0.0
 11
11041.77109828648
 21
-2311.6335706847485
 31
0.0
  0
LINE
  5
2BE
330
17
100
AcDbEntity
  8
FP-Below
100
AcDbLine
 10
11041.77109828648
 20
-2311.6335706847485
 30
0.0
 11
11039.27109828648
 21
-2311.6335706847485
 31
0.0
  0
LINE
  5
2BF
330
17
100
AcDbEntity
  8
FP-Below
100
AcDbLine
 10
11039.27109828648
 20
-2311.6335706847485
 30
0.0
 11
11039.27109828648
 21
-2339.6335706847485
 31
0.0
  0
LINE
  5
2C0
330
17
100
AcDbEntity
  8
FP-Below
100
AcDbLine
 10
11108.769316315474
 20
-2429.636587167988
 30
0.0
 11
11108.769316315474
 21
-2386.6335706934615
 31
0.0
  0
LINE
  5
2C1
330
17
100
AcDbEntity
  8
FP-Below
100
AcDbLine
 10
11119.769316315474
 20
-2429.636587167988
 30
0.0
 11
11119.769316315478
 21
-2429.6335050087946
 31
0.0
  0
LINE
  5
2C2
330
17
100
AcDbEntity
  8
FP-Below
100
AcDbLine
 10
11119.769316315478
 20
-2418.6335050088037
 30
0.0
 11
11119.769316315478
 21
-2369.6335706934624
 31
0.0
  0
LINE
  5
2C3
330
17
100
AcDbEntity
  8
FP-Below
100
AcDbLine
 10
11119.769316315478
 20
-2339.6335706934624
 30
0.0
 11
11119.769316315478
 21
-2291.6335706934624
 31
0.0
  0
LINE
  5
2C4
330
17
100
AcDbEntity
  8
FP-Below
100
AcDbLine
 10
11459.764861388123
 20
-2375.6335706934606
 30
0.0
 11
11459.764939110932
 21
-2369.6335706934615
 31
0.0
  0
LINE
  5
2C5
330
17
100
AcDbEntity
  8
FP-Below
100
AcDbLine
 10
11459.76532772498
 20
-2339.6335706934606
 30
0.0
 11
11459.76594950745
 21
-2291.6335706934615
 31
0.0
  0
LINE
  5
2C6
330
17
100
AcDbEntity
  8
FP-Below
100
AcDbLine
 10
11557.266643359091
 20
-2386.6335706934615
 30
0.0
 11
11557.266643359091
 21
-2375.6335706934615
 31
0.0
  0
LINE
  5
2C7
330
17
100
AcDbEntity
  8
FP-Below
100
AcDbLine
 10
11629.266643359091
 20
-2386.6335706934615
 30
0.0
 11
11629.266643359091
 21
-2375.6335706934615
 31
0.0
  0
LINE
  5
2C8
330
17
100
AcDbEntity
  8
FP-Below
100
AcDbLine
 10
11459.764939110935
 20
-2369.6335706934624
 30
0.0
 11
11451.764861388134
 21
-2369.6335706934624
 31
0.0
  0
LINE
  5
2C9
330
17
100
AcDbEntity
  8
FP-Below
100
AcDbLine
 10
11459.76532772498
 20
-2339.6335706934606
 30
0.0
 11
11451.764861388137
 21
-2339.6335706934615
 31
0.0
  0
LINE
  5
2CA
330
17
100
AcDbEntity
  8
FP-Below
100
AcDbLine
 10
11376.266179672648
 20
-2291.6335706934624
 30
0.0
 11
11451.765949507464
 21
-2291.6335706934615
 31
0.0
  0
LINE
  5
2CB
330
17
100
AcDbEntity
  8
FP-Below
100
AcDbLine
 10
11459.76594950745
 20
-2291.6335706934615
 30
0.0
 11
11527.76416753646
 21
-2291.6335706934615
 31
0.0
  0
LINE
  5
2CC
330
17
100
AcDbEntity
  8
FP-Below
100
AcDbLine
 10
11376.266179722707
 20
-2285.1341272892732
 30
0.0
 11
11527.76416753646
 21
-2285.14383295724
 31
0.0
  0
LINE
  5
2CD
330
17
100
AcDbEntity
  8
FP-Below
100
AcDbLine
 10
11534.263079417133
 20
-2339.6335706847485
 30
0.0
 11
11534.263079417133
 21
-2321.633628447221
 31
0.0
  0
LINE
  5
2CE
330
17
100
AcDbEntity
  8
FP-Below
100
AcDbLine
 10
11534.263079417133
 20
-2309.633628447221
 30
0.0
 11
11534.263079417133
 21
-2273.633628447221
 31
0.0
  0
LINE
  5
2CF
330
17
100
AcDbEntity
  8
FP-Below
100
AcDbLine
 10
11534.263079417133
 20
-2261.633628447221
 30
0.0
 11
11534.263079417133
 21
-2243.6336284472245
 31
0.0
  0
LINE
  5
2D0
330
17
100
AcDbEntity
  8
FP-Below
100
AcDbLine
 10
11527.763079417133
 20
-2339.6335706847485
 30
0.0
 11
11527.76416753646
 21
-2291.6437980320397
 31
0.0
  0
LINE
  5
2D1
330
17
100
AcDbEntity
  8
FP-Below
100
AcDbLine
 10
11527.76416753646
 20
-2285.14383295724
 30
0.0
 11
11527.763079417133
 21
-2243.6336284559375
 31
0.0
  0
LINE
  5
2D2
330
17
100
AcDbEntity
  8
FP-Below
100
AcDbLine
 10
11548.263079417133
 20
-2321.633628447221
 30
0.0
 11
11534.25905152533
 21
-2321.633628447221
 31
0.0
  0
LINE
  5
2D3
330
17
100
AcDbEntity
  8
FP-Below
100
AcDbLine
 10
11548.263079417133
 20
-2309.633628447221
 30
0.0
 11
11534.263079417133
 21
-2309.633628447221
 31
0.0
  0
LINE
  5
2D4
330
17
100
AcDbEntity
  8
FP-Below
100
AcDbLine
 10
11548.263079417133
 20
-2309.633628447221
 30
0.0
 11
11548.263079417133
 21
-2321.633628447221
 31
0.0
  0
LINE
  5
2D5
330
17
100
AcDbEntity
  8
FP-Below
100
AcDbLine
 10
11548.263079417133
 20
-2261.633628447221
 30
0.0
 11
11534.261258166165
 21
-2261.633628447221
 31
0.0
  0
LINE
  5
2D6
330
17
100
AcDbEntity
  8
FP-Below
100
AcDbLine
 10
11548.263079417133
 20
-2273.633628447221
 30
0.0
 11
11534.263079417133
 21
-2273.633628447221
 31
0.0
  0
LINE
  5
2D7
330
17
100
AcDbEntity
  8
FP-Below
100
AcDbLine
 10
11548.263079417133
 20
-2273.633628447221
 30
0.0
 11
11548.263079417133
 21
-2261.633628447221
 31
0.0
  0
LINE
  5
2D8
330
17
100
AcDbEntity
  8
FP-Below
100
AcDbLine
 10
11527.763079417133
 20
-2243.6336284559375
 30
0.0
 11
11529.763079417133
 21
-2243.6336284559375
 31
0.0
  0
LINE
  5
2D9
330
17
100
AcDbEntity
  8
FP-Below
100
AcDbLine
 10
11532.263079417133
 20
-2243.6336284559375
 30
0.0
 11
11534.263079417133
 21
-2243.6336284559375
 31
0.0
  0
LINE
  5
2DA
330
17
100
AcDbEntity
  8
FP-Below
100
AcDbLine
 10
11529.763079417133
 20
-2243.6336284559375
 30
0.0
 11
11529.763079417133
 21
-2271.6336284559375
 31
0.0
  0
LINE
  5
2DB
330
17
100
AcDbEntity
  8
FP-Below
100
AcDbLine
 10
11529.763079417133
 20
-2271.6336284559375
 30
0.0
 11
11532.263079417133
 21
-2271.6336284559375
 31
0.0
  0
LINE
  5
2DC
330
17
100
AcDbEntity
  8
FP-Below
100
AcDbLine
 10
11532.263079417133
 20
-2271.6336284559375
 30
0.0
 11
11532.263079417133
 21
-2243.6336284559375
 31
0.0
  0
LINE
  5
2DD
330
17
100
AcDbEntity
  8
FP-Below
100
AcDbLine
 10
11527.763079417133
 20
-2339.6335706847485
 30
0.0
 11
11529.763079417133
 21
-2339.6335706847485
 31
0.0
  0
LINE
  5
2DE
330
17
100
AcDbEntity
  8
FP-Below
100
AcDbLine
 10
11532.263079417133
 20
-2339.6335706847485
 30
0.0
 11
11534.263079417133
 21
-2339.6335706847485
 31
0.0
  0
LINE
  5
2DF
330
17
100
AcDbEntity
  8
FP-Below
100
AcDbLine
 10
11529.763079417133
 20
-2339.6335706847485
 30
0.0
 11
11529.763079417133
 21
-2311.6335706847485
 31
0.0
  0
LINE
  5
2E0
330
17
100
AcDbEntity
  8
FP-Below
100
AcDbLine
 10
11529.763079417133
 20
-2311.6335706847485
 30
0.0
 11
11532.263079417133
 21
-2311.6335706847485
 31
0.0
  0
LINE
  5
2E1
330
17
100
AcDbEntity
  8
FP-Below
100
AcDbLine
 10
11532.263079417133
 20
-2311.6335706847485
 30
0.0
 11
11532.263079417133
 21
-2339.6335706847485
 31
0.0
  0
LINE
  5
2E2
330
17
100
AcDbEntity
  8
FP-Below
100
AcDbLine
 10
11451.764861388134
 20
-2339.6335706934624
 30
0.0
 11
11451.764861388134
 21
-2291.6335706934624
 31
0.0
  0
LINE
  5
2E3
330
17
100
AcDbEntity
  8
FP-Below
100
AcDbLine
 10
11557.265342113575
 20
-2201.1336284472254
 30
0.0
 11
11577.265390478586
 21
-2201.1336284472245
 31
0.0
  0
LINE
  5
2E4
330
17
100
AcDbEntity
  8
FP-Below
100
AcDbLine
 10
11609.265390478586
 20
-2207.6336284472245
 30
0.0
 11
11609.265390478586
 21
-2201.1336284472245
 31
0.0
  0
LINE
  5
2E5
330
17
100
AcDbEntity
  8
FP-Below
100
AcDbLine
 10
11577.265390478586
 20
-2207.6336284472245
 30
0.0
 11
11577.265390478586
 21
-2201.1336284472245
 31
0.0
  0
LINE
  5
2E6
330
17
100
AcDbEntity
  8
FP-Below
100
AcDbLine
 10
11534.264708124696
 20
-2213.6336284472245
 30
0.0
 11
11527.755665566545
 21
-2213.633628455952
 31
0.0
  0
LINE
  5
2E7
330
17
100
AcDbEntity
  8
FP-Below
100
AcDbLine
 10
11534.264861388036
 20
-2213.6336284472245
 30
0.0
 11
11534.264861388036
 21
-2207.6336284472245
 31
0.0
  0
LINE
  5
2E8
330
17
100
AcDbEntity
  8
FP-Below
100
AcDbLine
 10
11527.764861388036
 20
-2213.642824277439
 30
0.0
 11
11527.764861388036
 21
-2207.6336284472245
 31
0.0
  0
LINE
  5
2E9
330
17
100
AcDbEntity
  8
FP-Below
100
AcDbLine
 10
11557.265342113575
 20
-2201.1336284472245
 30
0.0
 11
11557.265342113575
 21
-2169.133626067739
 31
0.0
  0
LINE
  5
2EA
330
17
100
AcDbEntity
  8
FP-Below
100
AcDbLine
 10
11550.765342113575
 20
-2201.1336284472245
 30
0.0
 11
11550.765342113575
 21
-2169.133626067739
 31
0.0
  0
LINE
  5
2EB
330
17
100
AcDbEntity
  8
FP-Below
100
AcDbLine
 10
11550.765342113575
 20
-2169.133626067739
 30
0.0
 11
11552.765342113575
 21
-2169.133626067739
 31
0.0
  0
LINE
  5
2EC
330
17
100
AcDbEntity
  8
FP-Below
100
AcDbLine
 10
11555.265342113575
 20
-2169.133626067739
 30
0.0
 11
11557.265342113575
 21
-2169.133626067739
 31
0.0
  0
LINE
  5
2ED
330
17
100
AcDbEntity
  8
FP-Below
100
AcDbLine
 10
11552.765342113575
 20
-2169.133626067739
 30
0.0
 11
11552.765342113575
 21
-2197.133626067739
 31
0.0
  0
LINE
  5
2EE
330
17
100
AcDbEntity
  8
FP-Below
100
AcDbLine
 10
11552.765342113575
 20
-2197.133626067739
 30
0.0
 11
11555.265342113575
 21
-2197.133626067739
 31
0.0
  0
LINE
  5
2EF
330
17
100
AcDbEntity
  8
FP-Below
100
AcDbLine
 10
11555.265342113575
 20
-2197.133626067739
 30
0.0
 11
11555.265342113575
 21
-2169.133626067739
 31
0.0
  0
LINE
  5
2F0
330
17
100
AcDbEntity
  8
FP-Below
100
AcDbLine
 10
10942.26969316288
 20
-2073.6267246665275
 30
0.0
 11
10942.269726575452
 21
-2006.1198208858304
 31
0.0
  0
LINE
  5
2F1
330
17
100
AcDbEntity
  8
FP-Below
100
AcDbLine
 10
11014.149999449384
 20
-2073.6267246665275
 30
0.0
 11
11014.271496156953
 21
-2006.1271119719213
 31
0.0
  0
LINE
  5
2F2
330
17
100
AcDbEntity
  8
FP-Below
100
AcDbLine
 10
11632.271034971576
 20
-1998.1195297109416
 30
0.0
 11
11623.269830449683
 21
-1998.1204396618677
 31
0.0
  0
LINE
  5
2F3
330
17
100
AcDbEntity
  8
FP-Below
100
AcDbLine
 10
11629.269733726125
 20
-2006.1198331597525
 30
0.0
 11
11623.269830449686
 21
-2006.1204397027486
 31
0.0
  0
LINE
  5
2F4
330
17
100
AcDbEntity
  8
FP-Below
100
AcDbLine
 10
11563.267952770877
 20
-2006.1265054202977
 30
0.0
 11
11557.267964144625
 21
-2006.1271119719213
 31
0.0
  0
LINE
  5
2F5
330
17
100
AcDbEntity
  8
FP-Below
100
AcDbLine
 10
11563.267952770877
 20
-1998.1249187049334
 30
0.0
 11
11554.271034971584
 21
-1998.1252222738813
 31
0.0
  0
LINE
  5
2F6
330
17
100
AcDbEntity
  8
FP-Below
100
AcDbLine
 10
11563.267952770877
 20
-2006.1265054202986
 30
0.0
 11
11563.267952770877
 21
-1998.1249187049334
 31
0.0
  0
LINE
  5
2F7
330
17
100
AcDbEntity
  8
FP-Below
100
AcDbLine
 10
11623.26983044969
 20
-2006.1204397027486
 30
0.0
 11
11623.269830449683
 21
-1998.1204396618677
 31
0.0
  0
LINE
  5
2F8
330
17
100
AcDbEntity
  8
FP-Below
100
AcDbLine
 10
11459.768425330001
 20
-1773.300290356031
 30
0.0
 11
11537.768425045442
 21
-1773.300372441352
 31
0.0
  0
LINE
  5
2F9
330
17
100
AcDbEntity
  8
FP-Below
100
AcDbLine
 10
10836.77020730097
 20
-1958.2080085559583
 30
0.0
 11
10844.766121514998
 21
-1958.197904974616
 31
0.0
  0
LINE
  5
2FA
330
17
100
AcDbEntity
  8
FP-Below
100
AcDbLine
 10
10836.77020730097
 20
-1990.2080085559583
 30
0.0
 11
10844.766121514998
 21
-1990.197904974616
 31
0.0
  0
LWPOLYLINE
  5
2FB
330
17
100
AcDbEntity
  8
FP-Below
100
AcDbPolyline
 90
2
 70
0
 10
10729.328619007303
 20
-1939.697904974616
 10
10724.828619007303
 20
-1939.697904974616
  0
LWPOLYLINE
  5
2FC
330
17
100
AcDbEntity
  8
FP-Below
100
AcDbPolyline
 90
2
 70
0
 10
10729.328619007303
 20
-1909.697904974616
 10
10724.828619007303
 20
-1909.697904974616
  0
LWPOLYLINE
  5
2FD
330
17
100
AcDbEntity
  8
FP-Below
100
AcDbPolyline
 90
4
 70
0
 10
10844.766121514998
 20
-1860.0918303077933
 10
10844.766121514998
 20
-1854.0918303077933
 10
10836.766121514998
 20
-1854.0918303077933
 10
10836.766121514998
 20
-1878.1334752072116
  0
LWPOLYLINE
  5
2FE
330
17
100
AcDbEntity
  8
FP-Below
100
AcDbPolyline
 90
4
 70
0
 10
10844.766121514998
 20
-1779.800290356031
 10
10844.766121514998
 20
-1812.0918303077933
 10
10836.766121514998
 20
-1812.0918303077933
 10
10836.766121514998
 20
-1789.0506551319932
  0
LINE
  5
2FF
330
17
100
AcDbEntity
  8
FP-Below
100
AcDbLine
 10
10938.768425329994
 20
-1860.0918303077933
 30
0.0
 11
10907.767273422496
 21
-1860.0918303077933
 31
0.0
  0
LINE
  5
300
330
17
100
AcDbEntity
  8
FP-Below
100
AcDbLine
 10
10877.767273422496
 20
-1860.0918303077933
 30
0.0
 11
10844.766121514998
 21
-1860.0918303077933
 31
0.0
  0
LINE
  5
301
330
17
100
AcDbEntity
  8
FP-Below
100
AcDbLine
 10
10938.768425329994
 20
-1866.5918303077933
 30
0.0
 11
10907.767273422496
 21
-1866.5918303077942
 31
0.0
  0
LINE
  5
302
330
17
100
AcDbEntity
  8
FP-Below
100
AcDbLine
 10
10877.767273422496
 20
-1866.5918303077942
 30
0.0
 11
10844.766121514998
 21
-1866.5918303077933
 31
0.0
  0
LINE
  5
303
330
17
100
AcDbEntity
  8
FP-Below
100
AcDbLine
 10
10907.767273422496
 20
-1866.5918303077933
 30
0.0
 11
10907.767273422496
 21
-1860.0918303077933
 31
0.0
  0
LINE
  5
304
330
17
100
AcDbEntity
  8
FP-Below
100
AcDbLine
 10
10877.767273422496
 20
-1866.5918303078006
 30
0.0
 11
10877.767273422496
 21
-1864.5918303077933
 31
0.0
  0
LINE
  5
305
330
17
100
AcDbEntity
  8
FP-Below
100
AcDbLine
 10
10877.767273422496
 20
-1862.0918303077933
 30
0.0
 11
10877.767273422496
 21
-1860.0918303077933
 31
0.0
  0
LINE
  5
306
330
17
100
AcDbEntity
  8
FP-Below
100
AcDbLine
 10
10877.767273422496
 20
-1864.5918303077933
 30
0.0
 11
10849.767273422496
 21
-1864.5918303078006
 31
0.0
  0
LINE
  5
307
330
17
100
AcDbEntity
  8
FP-Below
100
AcDbLine
 10
10849.767273422496
 20
-1864.5918303078006
 30
0.0
 11
10849.767273422496
 21
-1862.0918303078006
 31
0.0
  0
LINE
  5
308
330
17
100
AcDbEntity
  8
FP-Below
100
AcDbLine
 10
10849.767273422496
 20
-1862.0918303078006
 30
0.0
 11
10877.767273422496
 21
-1862.0918303077933
 31
0.0
  0
LWPOLYLINE
  5
309
330
17
100
AcDbEntity
  8
FP-Below
100
AcDbPolyline
 90
4
 70
0
 10
11845.362897077915
 20
-1891.6361247890654
 10
11845.362897077915
 20
-1909.6337104073482
 10
11848.862897077915
 20
-1909.6337104073482
 10
11848.862897077915
 20
-1891.6360457089577
  0
LWPOLYLINE
  5
30A
330
17
100
AcDbEntity
  8
FP-Below
100
AcDbPolyline
 90
5
 70
0
 10
11845.362897077915
 20
-2026.6342964489113
 10
11845.362897077915
 20
-2008.6335369691515
 10
11848.862897077915
 20
-2008.6335369691515
 10
11848.862897077915
 20
-2026.6345993268733
 10
11912.862904076179
 20
-2026.634198280025
  0
LWPOLYLINE
  5
30B
330
17
100
AcDbEntity
  8
FP-Below
100
AcDbPolyline
 90
2
 70
0
 10
11920.863938325076
 20
-2026.6341481426934
 10
11980.862665278508
 20
-2026.6337721692917
  0
LWPOLYLINE
  5
30C
330
17
100
AcDbEntity
  8
FP-Below
100
AcDbPolyline
 90
2
 70
0
 10
11345.766643493718
 20
-2396.1336284472263
 10
11345.766643493718
 20
-2407.1336284472263
  0
LWPOLYLINE
  5
30D
330
17
100
AcDbEntity
  8
FP-Below
100
AcDbPolyline
 90
2
 70
0
 10
11225.767534344513
 20
-2407.1336284472263
 10
11225.767534344513
 20
-2396.1336284472263
  0
LINE
  5
30E
330
17
100
AcDbEntity
  8
FP-Below
100
AcDbLine
 10
11215.764600808356
 20
-2475.7457521411434
 30
0.0
 11
11215.764600808352
 21
-2407.1335706934615
 31
0.0
  0
LINE
  5
30F
330
17
100
AcDbEntity
  8
FP-Below
100
AcDbLine
 10
11355.771358762528
 20
-2475.7457521411434
 30
0.0
 11
11355.771358762528
 21
-2407.133570693465
 31
0.0
  0
LINE
  5
310
330
17
100
AcDbEntity
  8
FP-Below
100
AcDbLine
 10
11726.771620130492
 20
-1695.300290356031
 30
0.0
 11
11726.771620130492
 21
-1659.300290356031
 31
0.0
  0
LINE
  5
311
330
17
100
AcDbEntity
  8
FP-Below
100
AcDbLine
 10
11712.771620130492
 20
-1713.300290356031
 30
0.0
 11
11726.775648022294
 21
-1713.300290356031
 31
0.0
  0
LINE
  5
312
330
17
100
AcDbEntity
  8
FP-Below
100
AcDbLine
 10
11712.771620130492
 20
-1695.300290356031
 30
0.0
 11
11726.771620130492
 21
-1695.300290356031
 31
0.0
  0
LINE
  5
313
330
17
100
AcDbEntity
  8
FP-Below
100
AcDbLine
 10
11712.771620130492
 20
-1695.300290356031
 30
0.0
 11
11712.771620130492
 21
-1713.300290356031
 31
0.0
  0
LINE
  5
314
330
17
100
AcDbEntity
  8
FP-Below
100
AcDbLine
 10
11712.771620130492
 20
-1641.300290356031
 30
0.0
 11
11726.775648022294
 21
-1641.300290356031
 31
0.0
  0
LINE
  5
315
330
17
100
AcDbEntity
  8
FP-Below
100
AcDbLine
 10
11712.771620130492
 20
-1659.300290356031
 30
0.0
 11
11726.771620130492
 21
-1659.300290356031
 31
0.0
  0
LINE
  5
316
330
17
100
AcDbEntity
  8
FP-Below
100
AcDbLine
 10
11712.771620130492
 20
-1659.300290356031
 30
0.0
 11
11712.771620130492
 21
-1641.300290356031
 31
0.0
  0
LINE
  5
317
330
17
100
AcDbEntity
  8
FP-Below
100
AcDbLine
 10
11642.271846685007
 20
-1814.425007950069
 30
-0.2650308117562035
 11
11648.771846685006
 21
-1814.4250107174857
 31
0.0
  0
LINE
  5
318
330
17
100
AcDbEntity
  8
FP-Below
100
AcDbLine
 10
11642.271846685006
 20
-1856.4250320953524
 30
0.0
 11
11648.771846685004
 21
-1856.4250680729829
 31
0.0
  0
LWPOLYLINE
  5
319
330
17
100
AcDbEntity
  8
FP-Below
100
AcDbPolyline
 90
4
 70
0
 10
11737.771063053688
 20
-1713.300290356031
 10
11749.771063053688
 20
-1713.300290356031
 10
11749.771063053688
 20
-1641.300290356031
 10
11737.771063053688
 20
-1641.300290356029
  0
LWPOLYLINE
  5
31A
330
17
100
AcDbEntity
  8
FP-Roof
100
AcDbPolyline
 90
2
 70
0
 10
10918.016678591624
 20
-2302.383570693466
 10
10817.770207300968
 20
-2402.633570693465
  0
LWPOLYLINE
  5
31B
330
17
100
AcDbEntity
  8
FP-Roof
100
AcDbPolyline
 90
2
 70
0
 10
11653.516560782973
 20
-2302.3835706934624
 10
11753.766560782973
 20
-2402.6335706934633
  0
LWPOLYLINE
  5
31C
330
17
100
AcDbEntity
  8
FP-Roof
100
AcDbPolyline
 90
2
 70
0
 10
11653.516560782973
 20
-1654.5502903560318
 10
11753.766560782973
 20
-1554.300290356031
  0
LWPOLYLINE
  5
31D
330
17
100
AcDbEntity
  8
FP-Roof
100
AcDbPolyline
 90
2
 70
0
 10
11533.018460562793
 20
-1654.5502904016894
 10
11432.768460562793
 20
-1554.3002916140963
  0
LWPOLYLINE
  5
31E
330
17
100
AcDbEntity
  8
FP-Roof
100
AcDbPolyline
 90
2
 70
0
 10
11533.018460562793
 20
-1693.300290401131
 10
11432.768460562793
 20
-1593.050290401131
  0
LWPOLYLINE
  5
31F
330
17
100
AcDbEntity
  8
FP-Roof
100
AcDbPolyline
 90
2
 70
0
 10
11038.519316315489
 20
-1693.3002903554752
 10
11138.769316315489
 20
-1593.0502903554743
  0
LWPOLYLINE
  5
320
330
17
100
AcDbEntity
  8
FP-Roof
100
AcDbPolyline
 90
2
 70
0
 10
11038.519316315489
 20
-1654.5502903560337
 10
11138.769316315489
 20
-1554.3002903560332
  0
LWPOLYLINE
  5
321
330
17
100
AcDbEntity
  8
FP-Roof
100
AcDbPolyline
 90
2
 70
0
 10
10918.016678591783
 20
-1654.5502903560327
 10
10817.770207300975
 20
-1554.3002903560327
  0
LWPOLYLINE
  5
322
330
17
100
AcDbEntity
  8
FP-Roof
100
AcDbPolyline
 90
2
 70
0
 10
10817.770207300975
 20
-1554.3002903560327
 10
10817.769287908137
 20
-1775.3305482463302
  0
LWPOLYLINE
  5
323
330
17
100
AcDbEntity
  8
FP-Roof
100
AcDbPolyline
 90
11
 70
0
 10
11388.766643359259
 20
-2302.3835706934624
 10
11653.516560782973
 20
-2302.3835706934624
 10
11653.516560782973
 20
-1654.5502903560327
 10
11533.018460562793
 20
-1654.5502903560327
 10
11533.018460562793
 20
-1693.3002903554743
 10
11038.519316315489
 20
-1693.3002903554743
 10
11038.519316315489
 20
-1654.5502903560327
 10
10918.016678591783
 20
-1654.5502903560327
 10
10918.016678591624
 20
-2302.3835706934624
 10
11108.769316315474
 20
-2302.3835706934624
 10
11182.769316315474
 20
-2302.3835706934624
  0
LWPOLYLINE
  5
324
330
17
100
AcDbEntity
  8
FP-Roof
100
AcDbPolyline
 90
4
 70
0
 10
11168.367264633549
 20
-2437.661519505943
 10
11168.366775555167
 20
-2527.1336518481585
 10
11403.169184193765
 20
-2527.132367160837
 10
11403.168694670156
 20
-2437.6620962051356
  0
LWPOLYLINE
  5
325
330
17
100
AcDbEntity
  8
FP-Roof
100
AcDbPolyline
 90
4
 70
0
 10
11239.36730851622
 20
-2366.661475623271
 10
11239.367163663164
 20
-2456.1332633787706
 10
11332.168795728625
 20
-2456.132755628101
 10
11332.18795482765
 20
-2366.681356362632
  0
LWPOLYLINE
  5
326
330
17
100
AcDbEntity
  8
FP-Roof
100
AcDbPolyline
 90
3
 70
0
 10
11092.769316315474
 20
-2392.3835706934624
 10
11092.769316315474
 20
-2445.630078424557
 10
11168.367220986785
 20
-2445.6462703204197
  0
LWPOLYLINE
  5
327
330
17
100
AcDbEntity
  8
FP-Roof
100
AcDbPolyline
 90
4
 70
0
 10
11199.769316315474
 20
-1928.6898328601374
 10
11199.769316315474
 20
-2338.6529937067207
 10
11371.766643359259
 20
-2338.6898328601374
 10
11371.766643359026
 20
-1928.6898328601374
  0
LWPOLYLINE
  5
328
330
17
100
AcDbEntity
  8
FP-Roof
100
AcDbPolyline
 90
6
 70
0
 10
10817.769343144957
 20
-1762.0511228531605
 10
10631.769316315489
 20
-1762.0511228531605
 10
10631.769316315489
 20
-1864.633475207209
 10
10541.769316315482
 20
-1864.6334752071953
 10
10541.769316315482
 20
-2053.6337056161647
 10
10627.589799073015
 20
-2053.6340625932507
  0
LWPOLYLINE
  5
329
330
17
100
AcDbEntity
  8
FP-Roof
100
AcDbPolyline
 90
4
 70
0
 10
10901.73986251465
 20
-1859.3011228528433
 10
10729.019316315489
 20
-1859.3011228531605
 10
10729.019316315489
 20
-1956.3844844965088
 10
10901.73986251465
 20
-1956.3848218632595
  0
LWPOLYLINE
  5
32A
330
17
100
AcDbEntity
  8
FP-Roof
100
AcDbPolyline
 90
2
 70
0
 10
10729.019316315489
 20
-1859.3011228531605
 10
10631.769316315489
 20
-1762.0511228531605
  0
LWPOLYLINE
  5
32B
330
17
100
AcDbEntity
  8
FP-Roof
100
AcDbPolyline
 90
2
 70
0
 10
10610.269316315482
 20
-1933.1334752072053
 10
10541.76931631547
 20
-1864.6334752071953
  0
LWPOLYLINE
  5
32C
330
17
100
AcDbEntity
  8
FP-Roof
100
AcDbPolyline
 90
2
 70
0
 10
10610.269316315482
 20
-1985.1339905467403
 10
10541.76960124487
 20
-2053.6337056173497
  0
LWPOLYLINE
  5
32D
330
17
100
AcDbEntity
  8
FP-Roof
100
AcDbPolyline
 90
2
 70
0
 10
10729.019316315489
 20
-1956.3844844965088
 10
10700.269316315489
 20
-1985.1343649088585
  0
LWPOLYLINE
  5
32E
330
17
100
AcDbEntity
  8
FP-Roof
100
AcDbPolyline
 90
4
 70
0
 10
10700.269316315489
 20
-1933.133475207219
 10
10610.269316315482
 20
-1933.1334752072053
 10
10610.269316315482
 20
-1985.1339905467403
 10
10700.269316315489
 20
-1985.1343649088585
  0
LWPOLYLINE
  5
32F
330
17
100
AcDbEntity
  8
FP-Roof
100
AcDbPolyline
 90
2
 70
0
 10
10631.769316315489
 20
-1864.633475207209
 10
10700.269316315489
 20
-1933.133475207219
  0
LWPOLYLINE
  5
330
330
17
100
AcDbEntity
  8
FP-Roof
100
AcDbPolyline
 90
6
 70
0
 10
11753.766560782973
 20
-1762.0511228531605
 10
11939.766643359244
 20
-1762.0511228531605
 10
11939.766643359244
 20
-1864.633475207209
 10
12029.766643359251
 20
-1864.6334752071953
 10
12029.766643359251
 20
-2053.6337056161647
 10
11943.947527183993
 20
-2053.6341204058044
  0
LWPOLYLINE
  5
331
330
17
100
AcDbEntity
  8
FP-Roof
100
AcDbPolyline
 90
4
 70
0
 10
11871.266643359244
 20
-1933.133475207219
 10
11961.266643359251
 20
-1933.1334752072053
 10
11961.266643359251
 20
-1985.1339905467403
 10
11871.266643359244
 20
-1985.1343649088585
  0
LWPOLYLINE
  5
332
330
17
100
AcDbEntity
  8
FP-Roof
100
AcDbPolyline
 90
4
 70
0
 10
11669.787292474215
 20
-1859.2968191023865
 10
11842.516643359244
 20
-1859.3011228531605
 10
11842.516643359244
 20
-1956.3844844965088
 10
11669.793027849031
 20
-1956.384853655902
  0
LWPOLYLINE
  5
333
330
17
100
AcDbEntity
  8
FP-Roof
100
AcDbPolyline
 90
2
 70
0
 10
11842.516643359244
 20
-1859.3011228531605
 10
11939.766643359244
 20
-1762.0511228531605
  0
LWPOLYLINE
  5
334
330
17
100
AcDbEntity
  8
FP-Roof
100
AcDbPolyline
 90
2
 70
0
 10
11961.266643359251
 20
-1933.1334752072053
 10
12029.766643359262
 20
-1864.6334752071953
  0
LWPOLYLINE
  5
335
330
17
100
AcDbEntity
  8
FP-Roof
100
AcDbPolyline
 90
2
 70
0
 10
11961.266643359251
 20
-1985.1339905467403
 10
12029.766358429863
 20
-2053.6337056173497
  0
LWPOLYLINE
  5
336
330
17
100
AcDbEntity
  8
FP-Roof
100
AcDbPolyline
 90
2
 70
0
 10
11842.516643359244
 20
-1956.3844844965088
 10
11871.266643359244
 20
-1985.1343649088585
  0
LWPOLYLINE
  5
337
330
17
100
AcDbEntity
  8
FP-Roof
100
AcDbPolyline
 90
2
 70
0
 10
11939.766643359244
 20
-1864.633475207209
 10
11871.266643359244
 20
-1933.133475207219
  0
LINE
  5
338
330
17
100
AcDbEntity
  8
FP-Proposed Wall
 62
1
100
AcDbLine
 10
10817.558108478073
 20
-2394.3206921159526
 30
0.0
 11
10771.138096302975
 21
-2347.900679940858
 31
0.0
  0
LINE
  5
339
330
17
100
AcDbEntity
  8
FP-Proposed Wall
 62
1
100
AcDbLine
 10
10771.138096302979
 20
-2347.9006799408617
 30
0.0
 11
10839.15676702937
 21
-2347.9006807234864
 31
0.0
  0
LINE
  5
33A
330
17
100
AcDbEntity
  8
FP-Proposed Wall
 62
1
100
AcDbLine
 10
11753.977851196867
 20
-2394.3206921159526
 30
0.0
 11
11800.397863371965
 21
-2347.900679940858
 31
0.0
  0
LINE
  5
33B
330
17
100
AcDbEntity
  8
FP-Proposed Wall
 62
1
100
AcDbLine
 10
11800.397863371962
 20
-2347.9006799408617
 30
0.0
 11
11732.379191959713
 21
-2347.9006799408617
 31
0.0
  0
LWPOLYLINE
  5
33C
330
17
100
AcDbEntity
  8
FP-Roof
100
AcDbPolyline
 90
2
 70
0
 10
10662.256002732547
 20
-2018.967858933719
 10
10627.589799073015
 20
-2053.6340625932507
  0
LWPOLYLINE
  5
33D
330
17
100
AcDbEntity
  8
FP-Roof
100
AcDbPolyline
 90
2
 70
0
 10
11909.281323724023
 20
-2018.9679169458334
 10
11943.947527183993
 20
-2053.6341204058044
  0
LWPOLYLINE
  5
33E
330
17
100
AcDbEntity
  8
FP-Roof
100
AcDbPolyline
 90
2
 70
0
 10
11239.36779804813
 20
-2456.1332633753
 10
11168.366775555167
 20
-2527.1336518481585
  0
LWPOLYLINE
  5
33F
330
17
100
AcDbEntity
  8
FP-Roof
100
AcDbPolyline
 90
2
 70
0
 10
11332.168795728625
 20
-2456.132755628101
 10
11403.169184193765
 20
-2527.132367160837
  0
LWPOLYLINE
  5
340
330
17
100
AcDbEntity
  8
FP-Roof
100
AcDbPolyline
 90
2
 70
0
 10
11239.36730851622
 20
-2366.661475623271
 10
11168.367308517281
 20
-2437.6614756222107
  0
LWPOLYLINE
  5
341
330
17
100
AcDbEntity
  8
FP-Roof
100
AcDbPolyline
 90
2
 70
0
 10
11332.18795482765
 20
-2366.681356362632
 10
11403.168694670156
 20
-2437.6620962051365
  0
LWPOLYLINE
  5
342
330
17
100
AcDbEntity
  8
FP-Roof
100
AcDbPolyline
 90
2
 70
0
 10
11199.769316315474
 20
-2338.6529937067207
 10
11092.792226690592
 20
-2445.6300833316027
  0
LWPOLYLINE
  5
343
330
17
100
AcDbEntity
  8
FP-Roof
100
AcDbPolyline
 90
2
 70
0
 10
11371.766643359259
 20
-2338.6898328601374
 10
11478.766643359464
 20
-2445.712753050924
  0
LWPOLYLINE
  5
344
330
17
100
AcDbEntity
  8
FP-Roof
100
AcDbPolyline
 90
3
 70
0
 10
11403.168738629565
 20
-2445.6965611550486
 10
11478.766643359464
 20
-2445.712753050924
 10
11478.766643359362
 20
-2392.383570693566
  0
LWPOLYLINE
  5
345
330
17
100
AcDbEntity
  8
FP-Roof
100
AcDbPolyline
 90
2
 70
0
 10
11182.769316315474
 20
-2302.3835706934624
 10
11092.769316315474
 20
-2392.3835706934624
  0
LWPOLYLINE
  5
346
330
17
100
AcDbEntity
  8
FP-Roof
100
AcDbPolyline
 90
2
 70
0
 10
11388.766643359259
 20
-2302.3835706934624
 10
11478.766643359259
 20
-2392.3835706934624
  0
LWPOLYLINE
  5
347
330
17
100
AcDbEntity
  8
FP-Roof
100
AcDbPolyline
 90
2
 70
0
 10
11371.766643359026
 20
-1928.6898328601374
 10
11199.769316315474
 20
-1928.6898328601374
  0
LWPOLYLINE
  5
348
330
17
100
AcDbEntity
  8
FP-Roof
100
AcDbPolyline
 90
2
 70
0
 10
11371.766643359026
 20
-1928.6898328601374
 10
11386.223750140212
 20
-1914.232726078952
  0
LWPOLYLINE
  5
349
330
17
100
AcDbEntity
  8
FP-Roof
100
AcDbPolyline
 90
2
 70
0
 10
11199.769316315474
 20
-1928.6898328601374
 10
11185.312209534288
 20
-1914.2327260789523
  0
LWPOLYLINE
  5
34A
330
17
100
AcDbEntity
  8
FP-Roof
100
AcDbPolyline
 90
3
 70
0
 10
11478.766643359382
 20
-2402.6335706934624
 10
11753.766560782973
 20
-2402.6335706934624
 10
11753.766560782973
 20
-2369.288048764121
  0
LWPOLYLINE
  5
34B
330
17
100
AcDbEntity
  8
FP-Above
100
AcDbPolyline
 90
4
 70
1
 38
-0.3403031765569822
 10
11136.269316315489
 20
-1866.0497271501208
 10
11435.268425330001
 20
-1866.0497271501208
 10
11435.268425330001
 20
-1638.0497271501208
 10
11136.269316315489
 20
-1638.0497271501208
  0
LWPOLYLINE
  5
34C
330
17
100
AcDbEntity
  8
FP-Mill
100
AcDbPolyline
 90
4
 70
1
 38
-0.3403031765569822
 10
11477.716448113626
 20
-1599.2997271506774
 10
11708.771601516315
 20
-1599.2997271506774
 10
11708.771601516315
 20
-1755.2997271506774
 10
11477.716448113626
 20
-1755.2997271506774
  0
LWPOLYLINE
  5
34D
330
17
100
AcDbEntity
  8
FP-Above
100
AcDbPolyline
 90
4
 70
1
 38
-0.3403031765569822
 10
10862.766678591803
 20
-2225.633065241871
 10
11019.27109828648
 20
-2225.633065241871
 10
11019.27109828648
 20
-2357.633007488108
 10
10862.766678591803
 20
-2357.633007488108
  0
LWPOLYLINE
  5
34E
330
17
100
AcDbEntity
  8
FP-Above
100
AcDbPolyline
 90
4
 70
1
 38
-0.3403031765569822
 10
10862.766121514998
 20
-1599.2997271506774
 10
11093.768794471469
 20
-1599.2997271506774
 10
11093.768794471469
 20
-1755.2997271506774
 10
10862.766121514998
 20
-1755.2997271506774
  0
LWPOLYLINE
  5
34F
330
17
100
AcDbEntity
  8
FP-Above
100
AcDbPolyline
 90
4
 70
1
 38
-0.3403031765569822
 10
11219.769220882472
 20
-2246.1286443430026
 10
11351.770263281667
 20
-2246.1327849287018
 10
11351.770263270902
 20
-2378.1281392742185
 10
11219.768520947217
 20
-2378.1281392742185
  0
LWPOLYLINE
  5
350
330
17
100
AcDbEntity
  8
FP-Above
100
AcDbPolyline
 90
4
 70
1
 38
-0.3403031765569822
 10
11708.76749911181
 20
-2225.633065241871
 10
11552.263079417133
 20
-2225.633065241871
 10
11552.263079417133
 20
-2357.633007488108
 10
11708.76749911181
 20
-2357.633007488108
  0
LWPOLYLINE
  5
351
330
17
100
AcDbEntity
  8
FP-Above
100
AcDbPolyline
 90
4
 70
1
 10
10580.769316315482
 20
-1903.6329120018581
 10
10712.828619007303
 20
-1903.6329120018581
 10
10712.828619007303
 20
-2014.634364515061
 10
10580.769316315482
 20
-2014.634364515061
  0
LWPOLYLINE
  5
352
330
17
100
AcDbEntity
  8
FP-Roof
100
AcDbPolyline
 90
6
 70
0
 10
11463.264128706474
 20
-1554.3002903560327
 10
11432.768460562793
 20
-1554.3002903560327
 10
11432.768460562793
 20
-1593.0502903554739
 10
11138.769316315489
 20
-1593.0502903554743
 10
11138.769316315489
 20
-1554.3002903560323
 10
10817.770207300975
 20
-1554.3002903560327
  0
LWPOLYLINE
  5
353
330
17
100
AcDbEntity
  8
FP-Roof
100
AcDbPolyline
 90
3
 70
0
 10
11730.128066245215
 20
-2016.7185716088914
 10
11669.788354829101
 20
-1956.3801807382415
 10
11669.788352901702
 20
-1956.204045160092
  0
LWPOLYLINE
  5
354
330
17
100
AcDbEntity
  8
FP-Roof
100
AcDbPolyline
 90
3
 70
0
 10
11753.766560782973
 20
-1775.3157128519704
 10
11753.766560782973
 20
-1554.3002903560327
 10
11463.264129964538
 20
-1554.3002903560327
  0
LWPOLYLINE
  5
355
330
17
100
AcDbEntity
  8
FP-Roof
100
AcDbPolyline
 90
2
 70
0
 10
10817.76690585468
 20
-2369.290541898176
 10
10839.15676702937
 20
-2347.9006807234864
  0
LWPOLYLINE
  5
356
330
17
100
AcDbEntity
  8
FP-Roof
100
AcDbPolyline
 90
3
 70
0
 10
10817.766817284199
 20
-2369.2906304686576
 10
10817.7666785916
 20
-2402.6335706934624
 10
11092.769316315474
 20
-2402.6335706934624
  0
LWPOLYLINE
  5
357
330
17
100
AcDbEntity
  8
FP-Roof
100
AcDbPolyline
 90
2
 70
0
 10
11753.769053134403
 20
-2369.290541115551
 10
11732.379191959713
 20
-2347.9006799408617
  0
LWPOLYLINE
  5
358
330
17
100
AcDbEntity
  8
FP-Roof
100
AcDbPolyline
 90
2
 70
0
 10
10901.73986251465
 20
-1956.3848218632595
 10
10841.406090127291
 20
-2016.7185942506178
  0
LWPOLYLINE
  5
359
330
17
100
AcDbEntity
  8
FP-Roof
100
AcDbPolyline
 90
2
 70
0
 38
-0.34030317655698217
 10
10901.73986251465
 20
-1859.3011228528437
 10
10817.769287908137
 20
-1775.3305482463302
  0
LWPOLYLINE
  5
35A
330
17
100
AcDbEntity
  8
FP-Roof Detail
100
AcDbPolyline
 90
2
 70
0
 10
11961.266643359251
 20
-1985.1339905467403
 10
11935.266385689485
 20
-1959.1337328769735
  0
LWPOLYLINE
  5
35B
330
17
100
AcDbEntity
  8
FP-Roof Detail
100
AcDbPolyline
 90
2
 70
0
 10
11961.266643359251
 20
-1933.1334752072053
 10
11935.266385689485
 20
-1959.1337328769728
  0
LWPOLYLINE
  5
35C
330
17
100
AcDbEntity
  8
FP-Roof Detail
100
AcDbPolyline
 90
2
 70
0
 10
11935.266385689485
 20
-1959.1337328769735
 10
11870.266643359244
 20
-1959.1337328769735
  0
LWPOLYLINE
  5
35D
330
17
100
AcDbEntity
  8
FP-Roof
100
AcDbPolyline
 90
3
 70
0
 10
11871.266643359244
 20
-1933.133475207219
 10
11870.266643359244
 20
-1959.1339200580387
 10
11871.266643359244
 20
-1985.1343649088585
  0
LWPOLYLINE
  5
35E
330
17
100
AcDbEntity
  8
FP-Roof Detail
100
AcDbPolyline
 90
2
 70
0
 10
11842.516643359244
 20
-1859.3011228531605
 10
11793.97496253757
 20
-1907.8428036748348
  0
LWPOLYLINE
  5
35F
330
17
100
AcDbEntity
  8
FP-Roof Detail
100
AcDbPolyline
 90
2
 70
0
 10
11842.516643359244
 20
-1956.3844844965088
 10
11793.97496253757
 20
-1907.8428036748348
  0
LWPOLYLINE
  5
360
330
17
100
AcDbEntity
  8
FP-Roof
100
AcDbPolyline
 90
3
 70
0
 10
11669.787292474215
 20
-1859.2968191023865
 10
11668.537823651732
 20
-1907.8385135986991
 10
11669.793027849031
 20
-1956.384853655902
  0
LWPOLYLINE
  5
361
330
17
100
AcDbEntity
  8
FP-Roof Detail
100
AcDbPolyline
 90
2
 70
0
 10
11793.97496253757
 20
-1907.8428036748348
 10
11668.537823713697
 20
-1907.8441762968278
  0
LWPOLYLINE
  5
362
330
17
100
AcDbEntity
  8
FP-Roof
100
AcDbPolyline
 90
2
 70
0
 10
11669.787292474215
 20
-1859.2968191023865
 10
11753.766560782973
 20
-1775.3157128519704
  0
LWPOLYLINE
  5
363
330
17
100
AcDbEntity
  8
FP-Roof Detail
100
AcDbPolyline
 90
2
 70
0
 10
10918.016678591783
 20
-1654.5502903560327
 10
10978.267997453637
 20
-1714.801609217886
  0
LWPOLYLINE
  5
364
330
17
100
AcDbEntity
  8
FP-Roof Detail
100
AcDbPolyline
 90
2
 70
0
 10
11038.519316315489
 20
-1654.5502903560327
 10
10978.267997453637
 20
-1714.8016092178857
  0
LWPOLYLINE
  5
365
330
17
100
AcDbEntity
  8
FP-Roof Detail
100
AcDbPolyline
 90
2
 70
0
 10
11038.519316315489
 20
-1693.3002903554734
 10
10978.267997453637
 20
-1753.5516092173264
  0
LWPOLYLINE
  5
366
330
17
100
AcDbEntity
  8
FP-Roof Detail
100
AcDbPolyline
 90
2
 70
0
 10
10978.267997453637
 20
-1714.8016092178857
 10
10978.267997453637
 20
-1753.5516092173264
  0
LWPOLYLINE
  5
367
330
17
100
AcDbEntity
  8
FP-Roof Detail
100
AcDbPolyline
 90
2
 70
0
 10
11199.769316315474
 20
-1928.6898328601374
 10
11285.76797983725
 20
-2014.6884963819118
  0
LWPOLYLINE
  5
368
330
17
100
AcDbEntity
  8
FP-Roof Detail
100
AcDbPolyline
 90
2
 70
0
 10
11371.766643359026
 20
-1928.6898328601374
 10
11285.767979837252
 20
-2014.688496381913
  0
LWPOLYLINE
  5
369
330
17
100
AcDbEntity
  8
FP-Roof Detail
100
AcDbPolyline
 90
2
 70
0
 10
11199.769316315474
 20
-2338.6529937067207
 10
11285.76797983725
 20
-2252.654330184946
  0
LWPOLYLINE
  5
36A
330
17
100
AcDbEntity
  8
FP-Roof Detail
100
AcDbPolyline
 90
2
 70
0
 10
11371.766643359026
 20
-2338.6529937067207
 10
11285.767979837252
 20
-2252.654330184945
  0
LWPOLYLINE
  5
36B
330
17
100
AcDbEntity
  8
FP-Roof Detail
100
AcDbPolyline
 90
2
 70
0
 10
11285.76797983725
 20
-2014.6884963819118
 10
11285.76797983725
 20
-2252.654330184946
  0
LWPOLYLINE
  5
36C
330
17
100
AcDbEntity
  8
FP-Roof Detail
100
AcDbPolyline
 90
2
 70
0
 10
11653.5210982865
 20
-1654.5502903560327
 10
11593.269779424645
 20
-1714.801609217886
  0
LWPOLYLINE
  5
36D
330
17
100
AcDbEntity
  8
FP-Roof Detail
100
AcDbPolyline
 90
2
 70
0
 10
11533.018460562793
 20
-1654.5502903560327
 10
11593.269779424645
 20
-1714.8016092178857
  0
LWPOLYLINE
  5
36E
330
17
100
AcDbEntity
  8
FP-Roof Detail
100
AcDbPolyline
 90
2
 70
0
 10
11533.018460562793
 20
-1693.3002903554734
 10
11593.269779424645
 20
-1753.5516092173264
  0
LWPOLYLINE
  5
36F
330
17
100
AcDbEntity
  8
FP-Roof Detail
100
AcDbPolyline
 90
2
 70
0
 10
11593.269779424645
 20
-1714.8016092178857
 10
11593.269779424645
 20
-1753.5516092173264
  0
LWPOLYLINE
  5
370
330
17
100
AcDbEntity
  8
FP-Roof Detail
100
AcDbPolyline
 90
2
 70
0
 10
10978.267997453637
 20
-1753.5516092173264
 10
11186.019316315474
 20
-1961.3029280791636
  0
LWPOLYLINE
  5
371
330
17
100
AcDbEntity
  8
FP-Roof Detail
100
AcDbPolyline
 90
2
 70
0
 10
11593.269779424645
 20
-1753.5516092173264
 10
11385.516643359044
 20
-1961.304745282926
  0
LWPOLYLINE
  5
372
330
17
100
AcDbEntity
  8
FP-Roof Detail
100
AcDbPolyline
 90
2
 70
0
 10
10918.016678591628
 20
-2302.3835706934624
 10
11186.019316315474
 20
-2034.3809329696157
  0
LWPOLYLINE
  5
373
330
17
100
AcDbEntity
  8
FP-Roof Detail
100
AcDbPolyline
 90
2
 70
0
 10
11653.516560782973
 20
-2302.3835706934624
 10
11385.516643359086
 20
-2034.383653269575
  0
LWPOLYLINE
  5
374
330
17
100
AcDbEntity
  8
FP-Roof
100
AcDbPolyline
 90
2
 70
0
 10
11186.019316315474
 20
-1961.3029280791636
 10
11186.019316315474
 20
-2034.3809329696157
  0
LWPOLYLINE
  5
375
330
17
100
AcDbEntity
  8
FP-Roof
100
AcDbPolyline
 90
2
 70
0
 10
11385.516643359044
 20
-1961.3047452829258
 10
11385.516643359086
 20
-2034.3836532695748
  0
LWPOLYLINE
  5
376
330
17
100
AcDbEntity
  8
FP-Roof
100
AcDbPolyline
 90
2
 70
0
 10
11186.019316315474
 20
-2034.3809329696157
 10
11182.769316315474
 20
-2302.3835706934624
  0
LWPOLYLINE
  5
377
330
17
100
AcDbEntity
  8
FP-Roof
100
AcDbPolyline
 90
4
 70
0
 10
11186.019316315474
 20
-1961.3029280791636
 10
11185.312209534288
 20
-1914.2327260789518
 10
11386.223750140212
 20
-1914.2327260789516
 10
11385.516643359044
 20
-1961.3047452829258
  0
LWPOLYLINE
  5
378
330
17
100
AcDbEntity
  8
FP-Roof
100
AcDbPolyline
 90
2
 70
0
 10
11385.516643359086
 20
-2034.383653269575
 10
11388.766643359259
 20
-2302.3835706934624
  0
LWPOLYLINE
  5
379
330
17
100
AcDbEntity
  8
FP-Roof
100
AcDbPolyline
 90
2
 70
0
 10
11285.777845856384
 20
-2365.671416015889
 10
11239.36730851622
 20
-2366.661475623271
  0
LWPOLYLINE
  5
37A
330
17
100
AcDbEntity
  8
FP-Roof Detail
100
AcDbPolyline
 90
2
 70
0
 10
11239.36779804813
 20
-2456.1332633752995
 10
11285.767725826812
 20
-2409.7333355966166
  0
LWPOLYLINE
  5
37B
330
17
100
AcDbEntity
  8
FP-Roof Detail
100
AcDbPolyline
 90
2
 70
0
 10
11332.16816134366
 20
-2456.1327556315755
 10
11285.767725826812
 20
-2409.7333355966175
  0
LWPOLYLINE
  5
37C
330
17
100
AcDbEntity
  8
FP-Roof Detail
100
AcDbPolyline
 90
2
 70
0
 10
11285.767725826812
 20
-2409.7333355966166
 10
11285.777845856384
 20
-2365.671416015889
  0
LWPOLYLINE
  5
37D
330
17
100
AcDbEntity
  8
FP-Roof
100
AcDbPolyline
 90
2
 70
0
 10
11285.777845526092
 20
-2365.671416015889
 10
11332.188382866256
 20
-2366.661475623271
  0
LWPOLYLINE
  5
37E
330
17
100
AcDbEntity
  8
FP-Roof Detail
100
AcDbPolyline
 90
2
 70
0
 10
10610.269316032538
 20
-1985.1339905467403
 10
10636.269573702304
 20
-1959.1337328769735
  0
LWPOLYLINE
  5
37F
330
17
100
AcDbEntity
  8
FP-Roof Detail
100
AcDbPolyline
 90
2
 70
0
 10
10610.269316032538
 20
-1933.1334752072053
 10
10636.269573702304
 20
-1959.1337328769728
  0
LWPOLYLINE
  5
380
330
17
100
AcDbEntity
  8
FP-Roof Detail
100
AcDbPolyline
 90
2
 70
0
 10
10636.269573702304
 20
-1959.1337328769735
 10
10701.269316032545
 20
-1959.1337328769735
  0
LWPOLYLINE
  5
381
330
17
100
AcDbEntity
  8
FP-Roof
100
AcDbPolyline
 90
3
 70
0
 10
10700.269316032545
 20
-1933.133475207219
 10
10701.269316032545
 20
-1959.1339200580387
 10
10700.269316032545
 20
-1985.1343649088585
  0
LWPOLYLINE
  5
382
330
17
100
AcDbEntity
  8
FP-Roof Detail
100
AcDbPolyline
 90
2
 70
0
 10
10729.019316032545
 20
-1859.3011228531605
 10
10777.56099685422
 20
-1907.8428036748348
  0
LWPOLYLINE
  5
383
330
17
100
AcDbEntity
  8
FP-Roof Detail
100
AcDbPolyline
 90
2
 70
0
 10
10729.019316032545
 20
-1956.3844844965088
 10
10777.56099685422
 20
-1907.8428036748348
  0
LWPOLYLINE
  5
384
330
17
100
AcDbEntity
  8
FP-Roof
100
AcDbPolyline
 90
3
 70
0
 10
10901.748666917574
 20
-1859.2968191023865
 10
10902.998135740057
 20
-1907.8385135986991
 10
10901.742931542758
 20
-1956.384853655902
  0
LWPOLYLINE
  5
385
330
17
100
AcDbEntity
  8
FP-Roof Detail
100
AcDbPolyline
 90
2
 70
0
 10
10777.56099685422
 20
-1907.8428036748348
 10
10902.998135678092
 20
-1907.8441762968278
  0
LWPOLYLINE
  5
386
330
17
100
AcDbEntity
  8
FP-Roof Detail
100
AcDbPolyline
 90
2
 70
0
 10
11909.281323723813
 20
-2377.646872687824
 10
11854.766643359048
 20
-2323.1321923230576
  0
LWPOLYLINE
  5
387
330
17
100
AcDbEntity
  8
FP-Roof Detail
100
AcDbPolyline
 90
2
 70
0
 10
11800.251962994282
 20
-2377.646872687824
 10
11854.766643359048
 20
-2323.1321923230576
  0
LWPOLYLINE
  5
388
330
17
100
AcDbEntity
  8
FP-Roof Detail
100
AcDbPolyline
 90
2
 70
0
 10
11800.251962994282
 20
-2348.046580318542
 10
11854.766643359048
 20
-2293.531899953776
  0
LWPOLYLINE
  5
389
330
17
100
AcDbEntity
  8
FP-Roof Detail
100
AcDbPolyline
 90
3
 70
0
 10
11854.766643359048
 20
-2323.1321923230576
 10
11854.766643359048
 20
-2293.531899953776
 10
11730.12858350113
 20
-2168.893840095858
  0
LINE
  5
38A
330
17
100
AcDbEntity
  8
FP-Roof
100
AcDbLine
 10
11730.128066245215
 20
-2016.7185716088914
 30
0.0
 11
11730.12858350113
 21
-2168.893840095858
 31
0.0
  0
LWPOLYLINE
  5
38B
330
17
100
AcDbEntity
  8
FP-Roof
100
AcDbPolyline
 90
2
 70
0
 10
11909.281323724023
 20
-2018.9679169458334
 10
11730.128066245215
 20
-2016.7185716088914
  0
LWPOLYLINE
  5
38C
330
17
100
AcDbEntity
  8
FP-Roof
100
AcDbPolyline
 90
2
 70
0
 10
11730.12858350113
 20
-2168.893840095858
 10
11732.379191959713
 20
-2347.9006799408617
  0
LINE
  5
38D
330
17
100
AcDbEntity
  8
FP-Roof
100
AcDbLine
 10
10841.407893429152
 20
-2016.718571609396
 30
0.0
 11
10841.40737617341
 21
-2168.893840096363
 31
0.0
  0
LWPOLYLINE
  5
38E
330
17
100
AcDbEntity
  8
FP-Roof Detail
100
AcDbPolyline
 90
2
 70
0
 10
10662.254635950965
 20
-2377.646872688532
 10
10716.76931631567
 20
-2323.1321923237037
  0
LWPOLYLINE
  5
38F
330
17
100
AcDbEntity
  8
FP-Roof Detail
100
AcDbPolyline
 90
2
 70
0
 10
10771.283996680497
 20
-2377.646872688408
 10
10716.76931631567
 20
-2323.1321923237037
  0
LWPOLYLINE
  5
390
330
17
100
AcDbEntity
  8
FP-Roof Detail
100
AcDbPolyline
 90
2
 70
0
 10
10771.283996680462
 20
-2348.0465803191264
 10
10716.769316315635
 20
-2293.531899954422
  0
LWPOLYLINE
  5
391
330
17
100
AcDbEntity
  8
FP-Roof Detail
100
AcDbPolyline
 90
3
 70
0
 10
10716.76931631567
 20
-2323.1321923237037
 10
10716.769316315635
 20
-2293.531899954422
 10
10841.40737617341
 20
-2168.893840096363
  0
LWPOLYLINE
  5
392
330
17
100
AcDbEntity
  8
FP-Roof
100
AcDbPolyline
 90
2
 70
0
 10
10662.254635950349
 20
-2018.9679169465414
 10
10841.407893429152
 20
-2016.718571609396
  0
LWPOLYLINE
  5
393
330
17
100
AcDbEntity
  8
FP-Roof
100
AcDbPolyline
 90
2
 70
0
 10
10841.40737617341
 20
-2168.893840096363
 10
10839.15676771503
 20
-2347.9006799413687
  0
LWPOLYLINE
  5
394
330
17
100
AcDbEntity
  8
FP-Note
100
AcDbPolyline
 90
4
 70
0
 10
11949.156799872428
 20
-2215.7079799799535
 10
11961.156799872419
 20
-2215.7079946276904
 10
11961.156775459523
 20
-2235.7079946276754
 10
11949.156799872428
 20
-2215.7079799799535
  0
LWPOLYLINE
  5
395
330
17
100
AcDbEntity
  8
FP-Note
100
AcDbPolyline
 90
4
 70
0
 10
11994.17023153969
 20
-1952.382269867317
 10
12006.170231539681
 20
-1952.382284515054
 10
12006.170207126786
 20
-1972.382284515039
 10
11994.17023153969
 20
-1952.382269867317
  0
LWPOLYLINE
  5
396
330
17
100
AcDbEntity
  8
FP-Note
100
AcDbPolyline
 90
4
 70
0
 10
11886.369494565231
 20
-1848.4025562771417
 10
11898.369494565222
 20
-1848.4025709248785
 10
11898.369470152327
 20
-1868.4025709248635
 10
11886.369494565231
 20
-1848.4025562771417
  0
LWPOLYLINE
  5
397
330
17
100
AcDbEntity
  8
FP-Note
100
AcDbPolyline
 90
4
 70
0
 10
11714.09823317357
 20
-1694.4733319004545
 10
11726.098233173561
 20
-1694.4733465481913
 10
11726.098208760666
 20
-1714.4733465481763
 10
11714.09823317357
 20
-1694.4733319004545
  0
LWPOLYLINE
  5
398
330
17
100
AcDbEntity
  8
FP-Note
100
AcDbPolyline
 90
4
 70
0
 10
11679.60499113841
 20
-2164.3876839666477
 10
11691.604991138402
 20
-2164.3876986143846
 10
11691.604966725507
 20
-2184.3876986143696
 10
11679.60499113841
 20
-2164.3876839666477
  0
LWPOLYLINE
  5
399
330
17
100
AcDbEntity
  8
FP-Note
100
AcDbPolyline
 90
4
 70
0
 10
11415.722289641555
 20
-2353.861138886233
 10
11427.722289641546
 20
-2353.86115353397
 10
11427.722265228651
 20
-2373.861153533955
 10
11415.722289641555
 20
-2353.861138886233
  0
LWPOLYLINE
  5
39A
330
17
100
AcDbEntity
  8
FP-Note
100
AcDbPolyline
 90
4
 70
0
 10
11348.751254524504
 20
-2430.0014635479597
 10
11360.751254524495
 20
-2430.0014781956966
 10
11360.7512301116
 20
-2450.0014781956816
 10
11348.751254524504
 20
-2430.0014635479597
  0
LWPOLYLINE
  5
39B
330
17
100
AcDbEntity
  8
FP-Note
100
AcDbPolyline
 90
4
 70
0
 10
10828.103292215928
 20
-2413.7451059066657
 10
10840.10329221592
 20
-2413.7451205544025
 10
10840.103267803024
 20
-2433.7451205543875
 10
10828.103292215928
 20
-2413.7451059066657
  0
LWPOLYLINE
  5
39C
330
17
100
AcDbEntity
  8
FP-Note
100
AcDbPolyline
 90
4
 70
0
 10
11155.833402071205
 20
-2353.8611388863
 10
11143.833402071214
 20
-2353.861153534043
 10
11143.833426484118
 20
-2373.861153534028
 10
11155.833402071205
 20
-2353.8611388863
  0
LWPOLYLINE
  5
39D
330
17
100
AcDbEntity
  8
FP-Note
100
AcDbPolyline
 90
4
 70
0
 10
11222.804437188293
 20
-2430.001463547992
 10
11210.804437188302
 20
-2430.0014781957348
 10
11210.804461601208
 20
-2450.0014781957198
 10
11222.804437188293
 20
-2430.001463547992
  0
LWPOLYLINE
  5
39E
330
17
100
AcDbEntity
  8
FP-Note
100
AcDbPolyline
 90
4
 70
0
 10
10884.854445437864
 20
-2161.8741432405145
 10
10872.854445437873
 20
-2161.8741578882573
 10
10872.85446985078
 20
-2181.8741578882423
 10
10884.854445437864
 20
-2161.8741432405145
  0
LWPOLYLINE
  5
39F
330
17
100
AcDbEntity
  8
FP-Note
100
AcDbPolyline
 90
4
 70
0
 10
10617.278028445457
 20
-2184.368366646718
 10
10605.278028445466
 20
-2184.368381294461
 10
10605.278052858372
 20
-2204.368381294446
 10
10617.278028445457
 20
-2184.368366646718
  0
LWPOLYLINE
  5
3A0
330
17
100
AcDbEntity
  8
FP-Note
100
AcDbPolyline
 90
4
 70
0
 10
10574.989482987869
 20
-1955.1153544548065
 10
10562.989482987878
 20
-1955.1153691025493
 10
10562.989507400784
 20
-1975.1153691025343
 10
10574.989482987869
 20
-1955.1153544548065
  0
LWPOLYLINE
  5
3A1
330
17
100
AcDbEntity
  8
FP-Note
100
AcDbPolyline
 90
4
 70
0
 10
10697.390372199698
 20
-1861.6673392611042
 10
10685.390372199707
 20
-1861.667353908847
 10
10685.390396612613
 20
-1881.667353908832
 10
10697.390372199698
 20
-1861.6673392611042
  0
LWPOLYLINE
  5
3A2
330
17
100
AcDbEntity
  8
FP-Note
100
AcDbPolyline
 90
4
 70
0
 10
10880.48618492105
 20
-1719.3581188964522
 10
10868.48618492106
 20
-1719.358133544195
 10
10868.486209333965
 20
-1739.35813354418
 10
10880.48618492105
 20
-1719.3581188964522
  0
LWPOLYLINE
  5
3A3
330
17
100
AcDbEntity
  8
FP-Note
100
AcDbPolyline
 90
4
 70
0
 10
11275.070206947259
 20
-2487.420981355739
 10
11275.070221595
 20
-2499.42098135573
 10
11295.070221594986
 20
-2499.420956942824
 10
11275.070206947259
 20
-2487.420981355739
  0
LWPOLYLINE
  5
3A4
330
17
100
AcDbEntity
  8
FP-Note
100
AcDbPolyline
 90
4
 70
0
 10
11280.540999671166
 20
-2345.6748072120827
 10
11280.541014318907
 20
-2357.6748072120736
 10
11300.541014318893
 20
-2357.6747827991676
 10
11280.540999671166
 20
-2345.6748072120827
  0
LWPOLYLINE
  5
3A5
330
17
100
AcDbEntity
  8
FP-Note
100
AcDbPolyline
 90
4
 70
0
 10
11527.77571130318
 20
-2340.2866021877476
 10
11527.775725950922
 20
-2352.2866021877385
 10
11547.775725950907
 20
-2352.2865777748325
 10
11527.77571130318
 20
-2340.2866021877476
  0
LWPOLYLINE
  5
3A6
330
17
100
AcDbEntity
  8
FP-Note
100
AcDbPolyline
 90
4
 70
0
 10
10979.59364301017
 20
-2343.8083104134275
 10
10979.593657657912
 20
-2355.8083104134184
 10
10999.593657657897
 20
-2355.8082860005125
 10
10979.59364301017
 20
-2343.8083104134275
  0
LWPOLYLINE
  5
3A7
330
17
100
AcDbEntity
  8
FP-Note
100
AcDbPolyline
 90
4
 70
0
 10
10709.643654571393
 20
-2443.175644483723
 10
10709.643669219135
 20
-2455.1756444837138
 10
10729.64366921912
 20
-2455.175620070808
 10
10709.643654571393
 20
-2443.175644483723
  0
LWPOLYLINE
  5
3A8
330
17
100
AcDbEntity
  8
FP-Note
100
AcDbPolyline
 90
4
 70
0
 10
10709.244613378758
 20
-2386.1610202435986
 10
10709.2446280265
 20
-2398.1610202435895
 10
10729.244628026485
 20
-2398.1609958306835
 10
10709.244613378758
 20
-2386.1610202435986
  0
LWPOLYLINE
  5
3A9
330
17
100
AcDbEntity
  8
FP-Note
100
AcDbPolyline
 90
4
 70
0
 10
11846.725144501264
 20
-2446.355773398929
 10
11846.725159149006
 20
-2458.35577339892
 10
11866.725159148991
 20
-2458.355748986014
 10
11846.725144501264
 20
-2446.355773398929
  0
LWPOLYLINE
  5
3AA
330
17
100
AcDbEntity
  8
FP-Note
100
AcDbPolyline
 90
4
 70
0
 10
11846.725144501264
 20
-2385.7320428179955
 10
11846.725159149006
 20
-2397.7320428179864
 10
11866.725159148991
 20
-2397.7320184050805
 10
11846.725144501264
 20
-2385.7320428179955
  0
LWPOLYLINE
  5
3AB
330
17
100
AcDbEntity
  8
FP-Note
100
AcDbPolyline
 90
4
 70
0
 10
10781.417140104006
 20
-1979.9103558615025
 10
10781.417154751747
 20
-1991.9103558614934
 10
10801.417154751733
 20
-1991.9103314485874
 10
10781.417140104006
 20
-1979.9103558615025
  0
LWPOLYLINE
  5
3AC
330
17
100
AcDbEntity
  8
FP-Note
100
AcDbPolyline
 90
4
 70
0
 10
11781.362182260853
 20
-1981.1290060421452
 10
11781.362196908594
 20
-1993.129006042136
 10
11801.36219690858
 20
-1993.12898162923
 10
11781.362182260853
 20
-1981.1290060421452
  0
LWPOLYLINE
  5
3AD
330
17
100
AcDbEntity
  8
FP-Note
100
AcDbPolyline
 90
4
 70
0
 10
11282.369593875612
 20
-1636.473292347173
 10
11282.369608523353
 20
-1624.473292347182
 10
11302.369608523339
 20
-1624.473316760088
 10
11282.369593875612
 20
-1636.473292347173
  0
LWPOLYLINE
  5
3AE
330
17
100
AcDbEntity
  8
FP-Note
100
AcDbPolyline
 90
4
 70
0
 10
10966.822112859121
 20
-1599.1064692109662
 10
10966.822127506863
 20
-1587.1064692109753
 10
10986.822127506848
 20
-1587.1064936238813
 10
10966.822112859121
 20
-1599.1064692109662
  0
LWPOLYLINE
  5
3AF
330
17
100
AcDbEntity
  8
FP-Note
100
AcDbPolyline
 90
4
 70
0
 38
-0.3403031765569822
 10
11581.798679680858
 20
-1634.7416509495583
 10
11581.7986943286
 20
-1622.7416509495674
 10
11601.798694328585
 20
-1622.7416753624734
 10
11581.798679680858
 20
-1634.7416509495583
  0
LWPOLYLINE
  5
3B0
330
17
100
AcDbEntity
  8
FP-Note
100
AcDbPolyline
 90
4
 70
0
 10
11792.933323488729
 20
-1823.6214404215261
 10
11792.93333813647
 20
-1811.6214404215352
 10
11812.933338136456
 20
-1811.6214648344412
 10
11792.933323488729
 20
-1823.6214404215261
  0
LWPOLYLINE
  5
3B1
330
17
100
AcDbEntity
  8
FP-Note
100
AcDbPolyline
 90
4
 70
0
 10
11949.821298225139
 20
-1905.0657936453886
 10
11949.82131287288
 20
-1893.0657936453977
 10
11969.821312872866
 20
-1893.0658180583036
 10
11949.821298225139
 20
-1905.0657936453886
  0
LWPOLYLINE
  5
3B2
330
17
100
AcDbEntity
  8
FP-Note
100
AcDbPolyline
 90
4
 70
0
 10
10781.77362379465
 20
-1820.586772233377
 10
10781.773638442392
 20
-1808.586772233386
 10
10801.773638442377
 20
-1808.586796646292
 10
10781.77362379465
 20
-1820.586772233377
  0
LWPOLYLINE
  5
3B3
330
17
100
AcDbEntity
  8
FP-Note
100
AcDbPolyline
 90
4
 70
0
 10
11525.30243905553
 20
-2026.8654422635077
 10
11537.30243905552
 20
-2026.8654569112505
 10
11537.302414642614
 20
-2028.8654569112355
 10
11525.30243905553
 20
-2026.8654422635077
  0
LWPOLYLINE
  5
3B4
330
17
100
AcDbEntity
  8
FP-Note
100
AcDbPolyline
 90
4
 70
0
 10
11334.868989343297
 20
-2147.238786271169
 10
11346.868989343287
 20
-2147.2388009189117
 10
11346.868964930381
 20
-2149.2388009188967
 10
11334.868989343297
 20
-2147.238786271169
  0
LWPOLYLINE
  5
3B5
330
17
100
AcDbEntity
  8
FP-Note
100
AcDbPolyline
 90
4
 70
0
 10
11830.218325850416
 20
-2161.1244117398523
 10
11842.218325850406
 20
-2161.124426387595
 10
11842.2183014375
 20
-2163.12442638758
 10
11830.218325850416
 20
-2161.1244117398523
  0
LWPOLYLINE
  5
3B6
330
17
100
AcDbEntity
  8
FP-Note
100
AcDbPolyline
 90
4
 70
0
 10
11818.385445027096
 20
-1907.654716078679
 10
11830.385445027086
 20
-1907.6547307264218
 10
11830.38542061418
 20
-1909.6547307264068
 10
11818.385445027096
 20
-1907.654716078679
  0
LWPOLYLINE
  5
3B7
330
17
100
AcDbEntity
  8
FP-Note
100
AcDbPolyline
 90
4
 70
0
 10
11944.732637985122
 20
-1960.5205412168502
 10
11956.732637985113
 20
-1960.520555864593
 10
11956.732613572207
 20
-1962.520555864578
 10
11944.732637985122
 20
-1960.5205412168502
  0
LWPOLYLINE
  5
3B8
330
17
100
AcDbEntity
  8
FP-Note
100
AcDbPolyline
 90
4
 70
0
 10
10997.82511761372
 20
-1711.015024165586
 10
11009.825117613711
 20
-1711.0150388133288
 10
11009.825093200805
 20
-1713.0150388133138
 10
10997.82511761372
 20
-1711.015024165586
  0
LWPOLYLINE
  5
3B9
330
17
100
AcDbEntity
  8
FP-Note
100
AcDbPolyline
 90
4
 70
0
 10
11593.486627427841
 20
-1684.480538515063
 10
11593.486642075582
 20
-1672.480538515072
 10
11595.486642075568
 20
-1672.480562927978
 10
11593.486627427841
 20
-1684.480538515063
  0
LWPOLYLINE
  5
3BA
330
17
100
AcDbEntity
  8
FP-Note
100
AcDbPolyline
 90
4
 70
0
 10
10977.63505223159
 20
-1683.4761261428011
 10
10977.635066879331
 20
-1671.4761261428102
 10
10979.635066879317
 20
-1671.4761505557162
 10
10977.63505223159
 20
-1683.4761261428011
  0
LWPOLYLINE
  5
3BB
330
17
100
AcDbEntity
  8
FP-Note
100
AcDbPolyline
 90
4
 70
0
 38
-0.3403031765569822
 10
11285.987987577704
 20
-1806.9811833562217
 10
11285.988002225446
 20
-1794.9811833562308
 10
11287.988002225431
 20
-1794.9812077691367
 10
11285.987987577704
 20
-1806.9811833562217
  0
LWPOLYLINE
  5
3BC
330
17
100
AcDbEntity
  8
FP-Note
100
AcDbPolyline
 90
4
 70
0
 10
10815.598706170029
 20
-1895.2370954603912
 10
10815.59872081777
 20
-1883.2370954604003
 10
10817.598720817756
 20
-1883.2371198733063
 10
10815.598706170029
 20
-1895.2370954603912
  0
LWPOLYLINE
  5
3BD
330
17
100
AcDbEntity
  8
FP-Note
100
AcDbPolyline
 90
4
 70
0
 10
11745.50372235542
 20
-1892.3610548617503
 10
11745.503737003162
 20
-1880.3610548617594
 10
11747.503737003148
 20
-1880.3610792746654
 10
11745.50372235542
 20
-1892.3610548617503
  0
LWPOLYLINE
  5
3BE
330
17
100
AcDbEntity
  8
FP-Note
100
AcDbPolyline
 90
4
 70
0
 10
11745.50372235542
 20
-1923.3245524879194
 10
11745.503737003162
 20
-1935.3245524879103
 10
11747.503737003148
 20
-1935.3245280750043
 10
11745.50372235542
 20
-1923.3245524879194
  0
LWPOLYLINE
  5
3BF
330
17
100
AcDbEntity
  8
FP-Note
100
AcDbPolyline
 90
4
 70
0
 10
10815.598706170029
 20
-1920.4485118892785
 10
10815.59872081777
 20
-1932.4485118892694
 10
10817.598720817756
 20
-1932.4484874763634
 10
10815.598706170029
 20
-1920.4485118892785
  0
LWPOLYLINE
  5
3C0
330
17
100
AcDbEntity
  8
FP-Note
100
AcDbPolyline
 90
4
 70
0
 10
10752.613124815996
 20
-1908.475082478495
 10
10740.613124816005
 20
-1908.4750971262365
 10
10740.613149228911
 20
-1910.475097126222
 10
10752.613124815996
 20
-1908.475082478495
  0
LWPOLYLINE
  5
3C1
330
17
100
AcDbEntity
  8
FP-Note
100
AcDbPolyline
 90
4
 70
0
 10
10666.337398604934
 20
-1953.040435979823
 10
10666.337413252675
 20
-1941.0404359798322
 10
10668.33741325266
 20
-1941.0404603927382
 10
10666.337398604934
 20
-1953.040435979823
  0
LWPOLYLINE
  5
3C2
330
17
100
AcDbEntity
  8
FP-Note
100
AcDbPolyline
 90
4
 70
0
 10
10666.337398604934
 20
-1968.0671807296353
 10
10666.337413252675
 20
-1980.0671807296262
 10
10668.33741325266
 20
-1980.0671563167202
 10
10666.337398604934
 20
-1968.0671807296353
  0
LWPOLYLINE
  5
3C3
330
17
100
AcDbEntity
  8
FP-Note
100
AcDbPolyline
 90
4
 70
0
 10
10627.195389998911
 20
-1959.7660116806337
 10
10615.19538999892
 20
-1959.7660263283751
 10
10615.195414411826
 20
-1961.7660263283606
 10
10627.195389998911
 20
-1959.7660116806337
  0
LWPOLYLINE
  5
3C4
330
17
100
AcDbEntity
  8
FP-Note
100
AcDbPolyline
 90
4
 70
0
 10
11905.198561069566
 20
-1953.040435979823
 10
11905.198546421825
 20
-1941.0404359798322
 10
11903.19854642184
 20
-1941.0404603927382
 10
11905.198561069566
 20
-1953.040435979823
  0
LWPOLYLINE
  5
3C5
330
17
100
AcDbEntity
  8
FP-Note
100
AcDbPolyline
 90
4
 70
0
 10
11905.198561069566
 20
-1968.0671807296353
 10
11905.198546421825
 20
-1980.0671807296262
 10
11903.19854642184
 20
-1980.0671563167202
 10
11905.198561069566
 20
-1968.0671807296353
  0
LWPOLYLINE
  5
3C6
330
17
100
AcDbEntity
  8
FP-Note
100
AcDbPolyline
 90
4
 70
0
 10
11130.697501684464
 20
-2201.6303733888235
 10
11130.697516332206
 20
-2213.6303733888144
 10
11132.697516332191
 20
-2213.6303489759084
 10
11130.697501684464
 20
-2201.6303733888235
  0
LWPOLYLINE
  5
3C7
330
17
100
AcDbEntity
  8
FP-Note
100
AcDbPolyline
 90
4
 70
0
 10
11441.161370518601
 20
-2191.7459327619213
 10
11441.161385166342
 20
-2203.745932761912
 10
11443.161385166328
 20
-2203.745908349006
 10
11441.161370518601
 20
-2191.7459327619213
  0
LWPOLYLINE
  5
3C8
330
17
100
AcDbEntity
  8
FP-Note
100
AcDbPolyline
 90
4
 70
0
 10
10795.185010835803
 20
-2279.6965040932882
 10
10795.185025483544
 20
-2291.696504093279
 10
10797.18502548353
 20
-2291.696479680373
 10
10795.185010835803
 20
-2279.6965040932882
  0
LWPOLYLINE
  5
3C9
330
17
100
AcDbEntity
  8
FP-Note
100
AcDbPolyline
 90
4
 70
0
 10
10718.582357972658
 20
-2344.9944990178788
 10
10718.5823726204
 20
-2356.9944990178697
 10
10720.582372620385
 20
-2356.9944746049637
 10
10718.582357972658
 20
-2344.9944990178788
  0
LWPOLYLINE
  5
3CA
330
17
100
AcDbEntity
  8
FP-Note
100
AcDbPolyline
 90
4
 70
0
 10
11856.579685016037
 20
-2344.9944990172326
 10
11856.579699663778
 20
-2356.9944990172235
 10
11858.579699663764
 20
-2356.9944746043175
 10
11856.579685016037
 20
-2344.9944990172326
  0
LWPOLYLINE
  5
3CB
330
17
100
AcDbEntity
  8
FP-Note
100
AcDbPolyline
 90
4
 70
0
 10
11778.221029413828
 20
-2269.1148023922424
 10
11778.221044061569
 20
-2281.1148023922333
 10
11780.221044061554
 20
-2281.1147779793273
 10
11778.221029413828
 20
-2269.1148023922424
  0
LWPOLYLINE
  5
3CC
330
17
100
AcDbEntity
  8
FP-Note
100
AcDbPolyline
 90
4
 70
0
 10
11287.580767483802
 20
-2431.5956422907925
 10
11287.580782131543
 20
-2443.5956422907834
 10
11289.580782131528
 20
-2443.5956178778774
 10
11287.580767483802
 20
-2431.5956422907925
  0
LWPOLYLINE
  5
3CD
330
17
100
AcDbEntity
  8
FP-Note
100
AcDbPolyline
 90
4
 70
0
 10
11287.58102149424
 20
-2287.7072833185453
 10
11287.58103614198
 20
-2299.707283318536
 10
11289.581036141966
 20
-2299.70725890563
 10
11287.58102149424
 20
-2287.7072833185453
  0
LWPOLYLINE
  5
3CE
330
17
100
AcDbEntity
  8
FP-Note
100
AcDbPolyline
 90
4
 70
0
 10
11245.339572675242
 20
-2147.5692257265673
 10
11233.339572675251
 20
-2147.5692403743087
 10
11233.339597088157
 20
-2149.569240374294
 10
11245.339572675242
 20
-2147.5692257265673
  0
LWPOLYLINE
  5
3CF
330
17
100
AcDbEntity
  8
FP-Note
100
AcDbPolyline
 90
4
 70
0
 10
11041.48879360452
 20
-2025.0945687294354
 10
11029.488793604529
 20
-2025.0945833771768
 10
11029.488818017435
 20
-2027.0945833771623
 10
11041.48879360452
 20
-2025.0945687294354
  0
LWPOLYLINE
  5
3D0
330
17
100
AcDbEntity
  8
FP-Note
100
AcDbPolyline
 90
4
 70
0
 10
10746.343557911583
 20
-2147.39122679478
 10
10734.343557911592
 20
-2147.3912414425213
 10
10734.343582324498
 20
-2149.3912414425067
 10
10746.343557911583
 20
-2147.39122679478
  0
LWPOLYLINE
  5
3D1
330
17
100
AcDbEntity
  8
FP-Note
100
AcDbPolyline
 90
4
 70
0
 10
11287.646812218807
 20
-1969.9803587549632
 10
11287.646826866549
 20
-1957.9803587549723
 10
11289.646826866534
 20
-1957.9803831678782
 10
11287.646812218807
 20
-1969.9803587549632
  0
LWPOLYLINE
  5
3D2
330
17
100
AcDbEntity
  8
FP-Note
100
AcDbPolyline
 90
4
 70
0
 10
11265.534689428601
 20
-2405.4245776527555
 10
11253.53468942861
 20
-2405.424592300497
 10
11253.534713841516
 20
-2407.4245923004823
 10
11265.534689428601
 20
-2405.4245776527555
  0
LWPOLYLINE
  5
3D3
330
17
100
AcDbEntity
  8
FP-Note
100
AcDbPolyline
 90
4
 70
0
 10
11304.753957022396
 20
-2405.8956556027474
 10
11316.753957022387
 20
-2405.89567025049
 10
11316.753932609481
 20
-2407.895670250475
 10
11304.753957022396
 20
-2405.8956556027474
  0
LWPOLYLINE
  5
3D4
330
17
100
AcDbEntity
  8
FP-Note
100
AcDbPolyline
 90
4
 70
0
 10
10603.134115652892
 20
-1892.0495697661809
 10
10603.134130300634
 20
-1880.04956976619
 10
10623.13413030062
 20
-1880.049594179096
 10
10603.134115652892
 20
-1892.0495697661809
  0
LWPOLYLINE
  5
3D5
330
17
100
AcDbEntity
  8
FP-Note
100
AcDbPolyline
 90
4
 70
0
 10
11566.743303981471
 20
-1702.4319891130783
 10
11554.74330398148
 20
-1702.4320037608197
 10
11554.743328394386
 20
-1704.4320037608052
 10
11566.743303981471
 20
-1702.4319891130783
  0
LWPOLYLINE
  5
3D6
330
17
100
AcDbEntity
  8
FP-Note
100
AcDbPolyline
 90
4
 70
0
 10
10734.540288715543
 20
-2334.9640780819386
 10
10746.540288715534
 20
-2334.9640927296814
 10
10746.540264302628
 20
-2336.9640927296664
 10
10734.540288715543
 20
-2334.9640780819386
  0
LWPOLYLINE
  5
3D7
330
17
100
AcDbEntity
  8
FP-Note
100
AcDbPolyline
 90
4
 70
0
 10
11830.972323611793
 20
-2337.2247379535747
 10
11818.972323611802
 20
-2337.224752601316
 10
11818.972348024708
 20
-2339.2247526013016
 10
11830.972323611793
 20
-2337.2247379535747
  0
ENDSEC
  0
SECTION
  2
OBJECTS
  0
DICTIONARY
  5
A
330
0
100
AcDbDictionary
280
0
281
1
  3
ACAD_COLOR
350
B
  3
ACAD_GROUP
350
C
  3
ACAD_LAYOUT
350
D
  3
ACAD_MATERIAL
350
E
  3
ACAD_MLEADERSTYLE
350
F
  3
ACAD_MLINESTYLE
350
10
  3
ACAD_PLOTSETTINGS
350
11
  3
ACAD_PLOTSTYLENAME
350
12
  3
ACAD_SCALELIST
350
14
  3
ACAD_TABLESTYLE
350
15
  3
ACAD_VISUALSTYLE
350
16
  3
EZDXF_META
350
2D
  0
DICTIONARY
  5
B
330
A
100
AcDbDictionary
280
0
281
1
  0
DICTIONARY
  5
C
330
A
100
AcDbDictionary
280
0
281
1
  0
DICTIONARY
  5
D
330
A
100
AcDbDictionary
280
0
281
1
  3
Model
350
1A
  3
Layout1
350
1E
  0
DICTIONARY
  5
E
330
A
100
AcDbDictionary
280
0
281
1
  3
ByBlock
350
1F
  3
ByLayer
350
20
  3
Global
350
21
  0
DICTIONARY
  5
F
330
A
100
AcDbDictionary
280
0
281
1
  3
Standard
350
2C
  0
DICTIONARY
  5
10
330
A
100
AcDbDictionary
280
0
281
1
  3
Standard
350
22
  0
DICTIONARY
  5
11
330
A
100
AcDbDictionary
280
0
281
1
  0
ACDBDICTIONARYWDFLT
  5
12
330
A
100
AcDbDictionary
280
0
281
1
  3
Normal
350
13
100
AcDbDictionaryWithDefault
340
13
  0
ACDBPLACEHOLDER
  5
13
330
12
  0
DICTIONARY
  5
14
330
A
100
AcDbDictionary
280
0
281
1
  0
DICTIONARY
  5
15
330
A
100
AcDbDictionary
280
0
281
1
  0
DICTIONARY
  5
16
330
A
100
AcDbDictionary
280
0
281
1
  0
LAYOUT
  5
1A
330
D
100
AcDbPlotSettings
  1

  2
Adobe PDF
  4
A3
  6

 40
7.5
 41
20.0
 42
7.5
 43
20.0
 44
420.0
 45
297.0
 46
0.0
 47
0.0
 48
0.0
 49
0.0
140
0.0
141
0.0
142
1.0
143
1.0
 70
1024
 72
1
 73
0
 74
5
  7

 75
16
 76
0
 77
2
 78
300
147
1.0
148
0.0
149
0.0
100
AcDbLayout
  1
Model
 70
1
 71
0
 10
0.0
 20
0.0
 11
420.0
 21
297.0
 12
0.0
 22
0.0
 32
0.0
 14
1e+20
 24
1e+20
 34
1e+20
 15
-1e+20
 25
-1e+20
 35
-1e+20
146
0.0
 13
0.0
 23
0.0
 33
0.0
 16
1.0
 26
0.0
 36
0.0
 17
0.0
 27
1.0
 37
0.0
 76
1
330
17
  0
LAYOUT
  5
1E
330
D
100
AcDbPlotSettings
  1

  2
Adobe PDF
  4
A3
  6

 40
7.5
 41
20.0
 42
7.5
 43
20.0
 44
420.0
 45
297.0
 46
0.0
 47
0.0
 48
0.0
 49
0.0
140
0.0
141
0.0
142
1.0
143
1.0
 70
0
 72
1
 73
0
 74
5
  7

 75
16
 76
0
 77
2
 78
300
147
1.0
148
0.0
149
0.0
100
AcDbLayout
  1
Layout1
 70
1
 71
1
 10
0.0
 20
0.0
 11
420.0
 21
297.0
 12
0.0
 22
0.0
 32
0.0
 14
1e+20
 24
1e+20
 34
1e+20
 15
-1e+20
 25
-1e+20
 35
-1e+20
146
0.0
 13
0.0
 23
0.0
 33
0.0
 16
1.0
 26
0.0
 36
0.0
 17
0.0
 27
1.0
 37
0.0
 76
1
330
1B
  0
MATERIAL
  5
1F
102
{ACAD_REACTORS
330
E
102
}
330
E
100
AcDbMaterial
  1
ByBlock
  2

 70
0
 40
1.0
 71
1
 41
1.0
 91
-1023410177
 42
1.0
 72
1
  3

 73
1
 74
1
 75
1
 44
0.5
 73
0
 45
1.0
 46
1.0
 77
1
  4

 78
1
 79
1
170
1
 48
1.0
171
1
  6

172
1
173
1
174
1
140
1.0
141
1.0
175
1
  7

176
1
177
1
178
1
143
1.0
179
1
  8

270
1
271
1
272
1
145
1.0
146
1.0
273
1
  9

274
1
275
1
276
1
 42
1.0
 72
1
  3

 73
1
 74
1
 75
1
 94
63
  0
MATERIAL
  5
20
102
{ACAD_REACTORS
330
E
102
}
330
E
100
AcDbMaterial
  1
ByLayer
  2

 70
0
 40
1.0
 71
1
 41
1.0
 91
-1023410177
 42
1.0
 72
1
  3

 73
1
 74
1
 75
1
 44
0.5
 73
0
 45
1.0
 46
1.0
 77
1
  4

 78
1
 79
1
170
1
 48
1.0
171
1
  6

172
1
173
1
174
1
140
1.0
141
1.0
175
1
  7

176
1
177
1
178
1
143
1.0
179
1
  8

270
1
271
1
272
1
145
1.0
146
1.0
273
1
  9

274
1
275
1
276
1
 42
1.0
 72
1
  3

 73
1
 74
1
 75
1
 94
63
  0
MATERIAL
  5
21
102
{ACAD_REACTORS
330
E
102
}
330
E
100
AcDbMaterial
  1
Global
  2

 70
0
 40
1.0
 71
1
 41
1.0
 91
-1023410177
 42
1.0
 72
1
  3

 73
1
 74
1
 75
1
 44
0.5
 73
0
 45
1.0
 46
1.0
 77
1
  4

 78
1
 79
1
170
1
 48
1.0
171
1
  6

172
1
173
1
174
1
140
1.0
141
1.0
175
1
  7

176
1
177
1
178
1
143
1.0
179
1
  8

270
1
271
1
272
1
145
1.0
146
1.0
273
1
  9

274
1
275
1
276
1
 42
1.0
 72
1
  3

 73
1
 74
1
 75
1
 94
63
  0
MLINESTYLE
  5
22
102
{ACAD_REACTORS
330
10
102
}
330
10
100
AcDbMlineStyle
  2
Standard
 70
0
  3

 62
256
 51
90.0
 52
90.0
 71
2
 49
0.5
 62
256
  6
BYLAYER
 49
-0.5
 62
256
  6
BYLAYER
  0
MLEADERSTYLE
  5
2C
102
{ACAD_REACTORS
330
F
102
}
330
F
100
AcDbMLeaderStyle
179
2
170
2
171
1
172
0
 90
2
 40
0.0
 41
0.0
173
1
 91
-1056964608
 92
-2
290
1
 42
2.0
291
1
 43
8.0
  3
Standard
 44
4.0
300

342
29
174
1
175
1
176
0
178
1
 93
-1056964608
 45
4.0
292
0
297
0
 46
4.0
 94
-1056964608
 47
1.0
 49
1.0
140
1.0
294
1
141
0.0
177
0
142
1.0
295
0
296
0
143
3.75
271
0
272
9
273
9
  0
DICTIONARY
  5
2D
330
A
100
AcDbDictionary
281
1
  3
CREATED_BY_EZDXF
350
2E
  3
WRITTEN_BY_EZDXF
350
3DA
  0
DICTIONARYVAR
  5
2E
330
2D
100
DictionaryVariables
280
0
  1
1.0.3 @ 2023-09-28T08:28:30.846894+00:00
  0
DICTIONARYVAR
  5
3DA
330
2D
100
DictionaryVariables
280
0
  1
1.0.3 @ 2023-09-28T08:28:30.971216+00:00
  0
ENDSEC
  0
EOF
