  0
SECTION
  2
HEADER
  9
$ACADVER
  1
AC1027
  9
$ACADMAINTVER
 70
105
  9
$DWGCODEPAGE
  3
ANSI_1252
  9
$LASTSAVEDBY
  1
ezdxf
  9
$REQUIREDVERSIONS
160
0
  9
$INSBASE
 10
0.0
 20
0.0
 30
0.0
  9
$EXTMIN
 10
1e+20
 20
1e+20
 30
1e+20
  9
$EXTMAX
 10
-1e+20
 20
-1e+20
 30
-1e+20
  9
$LIMMIN
 10
0.0
 20
0.0
  9
$LIMMAX
 10
420.0
 20
297.0
  9
$ORTHOMODE
 70
0
  9
$REGENMODE
 70
1
  9
$FILLMODE
 70
1
  9
$QTEXTMODE
 70
0
  9
$MIRRTEXT
 70
1
  9
$LTSCALE
 40
1.0
  9
$ATTMODE
 70
1
  9
$TEXTSIZE
 40
2.5
  9
$TRACEWID
 40
1.0
  9
$TEXTSTYLE
  7
Standard
  9
$CLAYER
  8
0
  9
$CELTYPE
  6
ByLayer
  9
$CECOLOR
 62
256
  9
$CELTSCALE
 40
1.0
  9
$DISPSILH
 70
0
  9
$DIMSCALE
 40
1.0
  9
$DIMASZ
 40
2.5
  9
$DIMEXO
 40
0.625
  9
$DIMDLI
 40
3.75
  9
$DIMRND
 40
0.0
  9
$DIMDLE
 40
0.0
  9
$DIMEXE
 40
1.25
  9
$DIMTP
 40
0.0
  9
$DIMTM
 40
0.0
  9
$DIMTXT
 40
2.5
  9
$DIMCEN
 40
2.5
  9
$DIMTSZ
 40
0.0
  9
$DIMTOL
 70
0
  9
$DIMLIM
 70
0
  9
$DIMTIH
 70
0
  9
$DIMTOH
 70
0
  9
$DIMSE1
 70
0
  9
$DIMSE2
 70
0
  9
$DIMTAD
 70
1
  9
$DIMZIN
 70
8
  9
$DIMBLK
  1

  9
$DIMASO
 70
1
  9
$DIMSHO
 70
1
  9
$DIMPOST
  1

  9
$DIMAPOST
  1

  9
$DIMALT
 70
0
  9
$DIMALTD
 70
3
  9
$DIMALTF
 40
0.03937007874
  9
$DIMLFAC
 40
1.0
  9
$DIMTOFL
 70
1
  9
$DIMTVP
 40
0.0
  9
$DIMTIX
 70
0
  9
$DIMSOXD
 70
0
  9
$DIMSAH
 70
0
  9
$DIMBLK1
  1

  9
$DIMBLK2
  1

  9
$DIMSTYLE
  2
ISO-25
  9
$DIMCLRD
 70
0
  9
$DIMCLRE
 70
0
  9
$DIMCLRT
 70
0
  9
$DIMTFAC
 40
1.0
  9
$DIMGAP
 40
0.625
  9
$DIMJUST
 70
0
  9
$DIMSD1
 70
0
  9
$DIMSD2
 70
0
  9
$DIMTOLJ
 70
0
  9
$DIMTZIN
 70
8
  9
$DIMALTZ
 70
0
  9
$DIMALTTZ
 70
0
  9
$DIMUPT
 70
0
  9
$DIMDEC
 70
2
  9
$DIMTDEC
 70
2
  9
$DIMALTU
 70
2
  9
$DIMALTTD
 70
3
  9
$DIMTXSTY
  7
Standard
  9
$DIMAUNIT
 70
0
  9
$DIMADEC
 70
0
  9
$DIMALTRND
 40
0.0
  9
$DIMAZIN
 70
0
  9
$DIMDSEP
 70
44
  9
$DIMATFIT
 70
3
  9
$DIMFRAC
 70
0
  9
$DIMLDRBLK
  1

  9
$DIMLUNIT
 70
2
  9
$DIMLWD
 70
-2
  9
$DIMLWE
 70
-2
  9
$DIMTMOVE
 70
0
  9
$DIMFXL
 40
1.0
  9
$DIMFXLON
 70
0
  9
$DIMJOGANG
 40
0.785398163397
  9
$DIMTFILL
 70
0
  9
$DIMTFILLCLR
 70
0
  9
$DIMARCSYM
 70
0
  9
$DIMLTYPE
  6

  9
$DIMLTEX1
  6

  9
$DIMLTEX2
  6

  9
$DIMTXTDIRECTION
 70
0
  9
$LUNITS
 70
2
  9
$LUPREC
 70
4
  9
$SKETCHINC
 40
1.0
  9
$FILLETRAD
 40
10.0
  9
$AUNITS
 70
0
  9
$AUPREC
 70
2
  9
$MENU
  1
.
  9
$ELEVATION
 40
0.0
  9
$PELEVATION
 40
0.0
  9
$THICKNESS
 40
0.0
  9
$LIMCHECK
 70
0
  9
$CHAMFERA
 40
0.0
  9
$CHAMFERB
 40
0.0
  9
$CHAMFERC
 40
0.0
  9
$CHAMFERD
 40
0.0
  9
$SKPOLY
 70
0
  9
$TDCREATE
 40
2460312.6746643516
  9
$TDUCREATE
 40
2458532.153996898
  9
$TDUPDATE
 40
2460312.674710648
  9
$TDUUPDATE
 40
2458532.1544311
  9
$TDINDWG
 40
0.0
  9
$TDUSRTIMER
 40
0.0
  9
$USRTIMER
 70
1
  9
$ANGBASE
 50
0.0
  9
$ANGDIR
 70
0
  9
$PDMODE
 70
0
  9
$PDSIZE
 40
0.0
  9
$PLINEWID
 40
0.0
  9
$SPLFRAME
 70
0
  9
$SPLINETYPE
 70
6
  9
$SPLINESEGS
 70
8
  9
$HANDSEED
  5
38E
  9
$SURFTAB1
 70
6
  9
$SURFTAB2
 70
6
  9
$SURFTYPE
 70
6
  9
$SURFU
 70
6
  9
$SURFV
 70
6
  9
$UCSBASE
  2

  9
$UCSNAME
  2

  9
$UCSORG
 10
0.0
 20
0.0
 30
0.0
  9
$UCSXDIR
 10
1.0
 20
0.0
 30
0.0
  9
$UCSYDIR
 10
0.0
 20
1.0
 30
0.0
  9
$UCSORTHOREF
  2

  9
$UCSORTHOVIEW
 70
0
  9
$UCSORGTOP
 10
0.0
 20
0.0
 30
0.0
  9
$UCSORGBOTTOM
 10
0.0
 20
0.0
 30
0.0
  9
$UCSORGLEFT
 10
0.0
 20
0.0
 30
0.0
  9
$UCSORGRIGHT
 10
0.0
 20
0.0
 30
0.0
  9
$UCSORGFRONT
 10
0.0
 20
0.0
 30
0.0
  9
$UCSORGBACK
 10
0.0
 20
0.0
 30
0.0
  9
$PUCSBASE
  2

  9
$PUCSNAME
  2

  9
$PUCSORG
 10
0.0
 20
0.0
 30
0.0
  9
$PUCSXDIR
 10
1.0
 20
0.0
 30
0.0
  9
$PUCSYDIR
 10
0.0
 20
1.0
 30
0.0
  9
$PUCSORTHOREF
  2

  9
$PUCSORTHOVIEW
 70
0
  9
$PUCSORGTOP
 10
0.0
 20
0.0
 30
0.0
  9
$PUCSORGBOTTOM
 10
0.0
 20
0.0
 30
0.0
  9
$PUCSORGLEFT
 10
0.0
 20
0.0
 30
0.0
  9
$PUCSORGRIGHT
 10
0.0
 20
0.0
 30
0.0
  9
$PUCSORGFRONT
 10
0.0
 20
0.0
 30
0.0
  9
$PUCSORGBACK
 10
0.0
 20
0.0
 30
0.0
  9
$USERI1
 70
0
  9
$USERI2
 70
0
  9
$USERI3
 70
0
  9
$USERI4
 70
0
  9
$USERI5
 70
0
  9
$USERR1
 40
0.0
  9
$USERR2
 40
0.0
  9
$USERR3
 40
0.0
  9
$USERR4
 40
0.0
  9
$USERR5
 40
0.0
  9
$WORLDVIEW
 70
1
  9
$SHADEDGE
 70
3
  9
$SHADEDIF
 70
70
  9
$TILEMODE
 70
1
  9
$MAXACTVP
 70
64
  9
$PINSBASE
 10
0.0
 20
0.0
 30
0.0
  9
$PLIMCHECK
 70
0
  9
$PEXTMIN
 10
1e+20
 20
1e+20
 30
1e+20
  9
$PEXTMAX
 10
-1e+20
 20
-1e+20
 30
-1e+20
  9
$PLIMMIN
 10
0.0
 20
0.0
  9
$PLIMMAX
 10
420.0
 20
297.0
  9
$UNITMODE
 70
0
  9
$VISRETAIN
 70
1
  9
$PLINEGEN
 70
0
  9
$PSLTSCALE
 70
1
  9
$TREEDEPTH
 70
3020
  9
$CMLSTYLE
  2
Standard
  9
$CMLJUST
 70
0
  9
$CMLSCALE
 40
20.0
  9
$PROXYGRAPHICS
 70
1
  9
$MEASUREMENT
 70
1
  9
$CELWEIGHT
370
-1
  9
$ENDCAPS
280
0
  9
$JOINSTYLE
280
0
  9
$LWDISPLAY
290
0
  9
$INSUNITS
 70
6
  9
$HYPERLINKBASE
  1

  9
$STYLESHEET
  1

  9
$XEDIT
290
1
  9
$CEPSNTYPE
380
0
  9
$PSTYLEMODE
290
1
  9
$FINGERPRINTGUID
  2
{C4958D65-7101-4432-BB0E-6BC23823F5C4}
  9
$VERSIONGUID
  2
{0F62011C-21CE-4750-ABF2-B5B9B9D628F6}
  9
$EXTNAMES
290
1
  9
$PSVPSCALE
 40
0.0
  9
$OLESTARTUP
290
0
  9
$SORTENTS
280
127
  9
$INDEXCTL
280
0
  9
$HIDETEXT
280
1
  9
$XCLIPFRAME
280
0
  9
$HALOGAP
280
0
  9
$OBSCOLOR
 70
257
  9
$OBSLTYPE
280
0
  9
$INTERSECTIONDISPLAY
280
0
  9
$INTERSECTIONCOLOR
 70
257
  9
$DIMASSOC
280
2
  9
$PROJECTNAME
  1

  9
$CAMERADISPLAY
290
0
  9
$LENSLENGTH
 40
50.0
  9
$CAMERAHEIGHT
 40
0.0
  9
$STEPSPERSEC
 40
24.0
  9
$STEPSIZE
 40
100.0
  9
$3DDWFPREC
 40
2.0
  9
$PSOLWIDTH
 40
0.005
  9
$PSOLHEIGHT
 40
0.08
  9
$LOFTANG1
 40
1.570796326795
  9
$LOFTANG2
 40
1.570796326795
  9
$LOFTMAG1
 40
0.0
  9
$LOFTMAG2
 40
0.0
  9
$LOFTPARAM
 70
7
  9
$LOFTNORMALS
280
1
  9
$LATITUDE
 40
37.795
  9
$LONGITUDE
 40
-122.394
  9
$NORTHDIRECTION
 40
0.0
  9
$TIMEZONE
 70
-8000
  9
$LIGHTGLYPHDISPLAY
280
1
  9
$TILEMODELIGHTSYNCH
280
1
  9
$CMATERIAL
347
20
  9
$SOLIDHIST
280
0
  9
$SHOWHIST
280
1
  9
$DWFFRAME
280
2
  9
$DGNFRAME
280
2
  9
$REALWORLDSCALE
290
1
  9
$INTERFERECOLOR
 62
256
  9
$CSHADOW
280
0
  9
$SHADOWPLANELOCATION
 40
0.0
  0
ENDSEC
  0
SECTION
  2
CLASSES
  0
CLASS
  1
ACDBDICTIONARYWDFLT
  2
AcDbDictionaryWithDefault
  3
ObjectDBX Classes
 90
0
 91
0
280
0
281
0
  0
CLASS
  1
SUN
  2
AcDbSun
  3
SCENEOE
 90
1153
 91
0
280
0
281
0
  0
CLASS
  1
VISUALSTYLE
  2
AcDbVisualStyle
  3
ObjectDBX Classes
 90
4095
 91
0
280
0
281
0
  0
CLASS
  1
MATERIAL
  2
AcDbMaterial
  3
ObjectDBX Classes
 90
1153
 91
0
280
0
281
0
  0
CLASS
  1
SCALE
  2
AcDbScale
  3
ObjectDBX Classes
 90
1153
 91
0
280
0
281
0
  0
CLASS
  1
TABLESTYLE
  2
AcDbTableStyle
  3
ObjectDBX Classes
 90
4095
 91
0
280
0
281
0
  0
CLASS
  1
MLEADERSTYLE
  2
AcDbMLeaderStyle
  3
ACDB_MLEADERSTYLE_CLASS
 90
4095
 91
0
280
0
281
0
  0
CLASS
  1
DICTIONARYVAR
  2
AcDbDictionaryVar
  3
ObjectDBX Classes
 90
0
 91
0
280
0
281
0
  0
CLASS
  1
CELLSTYLEMAP
  2
AcDbCellStyleMap
  3
ObjectDBX Classes
 90
1152
 91
0
280
0
281
0
  0
CLASS
  1
MENTALRAYRENDERSETTINGS
  2
AcDbMentalRayRenderSettings
  3
SCENEOE
 90
1024
 91
0
280
0
281
0
  0
CLASS
  1
ACDBDETAILVIEWSTYLE
  2
AcDbDetailViewStyle
  3
ObjectDBX Classes
 90
1025
 91
0
280
0
281
0
  0
CLASS
  1
ACDBSECTIONVIEWSTYLE
  2
AcDbSectionViewStyle
  3
ObjectDBX Classes
 90
1025
 91
0
280
0
281
0
  0
CLASS
  1
RASTERVARIABLES
  2
AcDbRasterVariables
  3
ISM
 90
0
 91
0
280
0
281
0
  0
CLASS
  1
ACDBPLACEHOLDER
  2
AcDbPlaceHolder
  3
ObjectDBX Classes
 90
0
 91
0
280
0
281
0
  0
CLASS
  1
LAYOUT
  2
AcDbLayout
  3
ObjectDBX Classes
 90
0
 91
0
280
0
281
0
  0
ENDSEC
  0
SECTION
  2
TABLES
  0
TABLE
  2
VPORT
  5
8
330
0
100
AcDbSymbolTable
 70
1
  0
VPORT
  5
23
330
8
100
AcDbSymbolTableRecord
100
AcDbViewportTableRecord
  2
*Active
 70
0
 10
0.0
 20
0.0
 11
1.0
 21
1.0
 12
0.0
 22
0.0
 13
0.0
 23
0.0
 14
0.5
 24
0.5
 15
0.5
 25
0.5
 16
0.0
 26
0.0
 36
1.0
 17
0.0
 27
0.0
 37
0.0
 40
1000.0
 41
1.34
 42
50.0
 43
0.0
 44
0.0
 50
0.0
 51
0.0
 71
0
 72
1000
 73
1
 74
3
 75
0
 76
0
 77
0
 78
0
281
0
 65
0
146
0.0
  0
ENDTAB
  0
TABLE
  2
LTYPE
  5
2
330
0
100
AcDbSymbolTable
 70
3
  0
LTYPE
  5
24
330
2
100
AcDbSymbolTableRecord
100
AcDbLinetypeTableRecord
  2
ByBlock
 70
0
  3

 72
65
 73
0
 40
0.0
  0
LTYPE
  5
25
330
2
100
AcDbSymbolTableRecord
100
AcDbLinetypeTableRecord
  2
ByLayer
 70
0
  3

 72
65
 73
0
 40
0.0
  0
LTYPE
  5
26
330
2
100
AcDbSymbolTableRecord
100
AcDbLinetypeTableRecord
  2
Continuous
 70
0
  3

 72
65
 73
0
 40
0.0
  0
ENDTAB
  0
TABLE
  2
LAYER
  5
1
330
0
100
AcDbSymbolTable
 70
2
  0
LAYER
  5
27
330
1
100
AcDbSymbolTableRecord
100
AcDbLayerTableRecord
  2
0
 70
0
 62
7
  6
Continuous
370
-3
390
13
347
21
  0
LAYER
  5
28
330
1
100
AcDbSymbolTableRecord
100
AcDbLayerTableRecord
  2
Defpoints
 70
0
 62
7
  6
Continuous
290
0
370
-3
390
13
347
21
  0
ENDTAB
  0
TABLE
  2
STYLE
  5
5
330
0
100
AcDbSymbolTable
 70
1
  0
STYLE
  5
29
330
5
100
AcDbSymbolTableRecord
100
AcDbTextStyleTableRecord
  2
Standard
 70
0
 40
0.0
 41
1.0
 50
0.0
 71
0
 42
2.5
  3
txt
  4

  0
ENDTAB
  0
TABLE
  2
VIEW
  5
7
330
0
100
AcDbSymbolTable
 70
0
  0
ENDTAB
  0
TABLE
  2
UCS
  5
6
330
0
100
AcDbSymbolTable
 70
0
  0
ENDTAB
  0
TABLE
  2
APPID
  5
3
330
0
100
AcDbSymbolTable
 70
3
  0
APPID
  5
2A
330
3
100
AcDbSymbolTableRecord
100
AcDbRegAppTableRecord
  2
ACAD
 70
0
  0
APPID
  5
38B
330
3
100
AcDbSymbolTableRecord
100
AcDbRegAppTableRecord
  2
HATCHBACKGROUNDCOLOR
 70
0
  0
APPID
  5
38C
330
3
100
AcDbSymbolTableRecord
100
AcDbRegAppTableRecord
  2
EZDXF
 70
0
  0
ENDTAB
  0
TABLE
  2
DIMSTYLE
  5
4
330
0
100
AcDbSymbolTable
 70
1
100
AcDbDimStyleTable
  0
DIMSTYLE
105
2B
330
4
100
AcDbSymbolTableRecord
100
AcDbDimStyleTableRecord
  2
Standard
 70
0
 40
1.0
 41
2.5
 42
0.625
 43
3.75
 44
1.25
 45
0.0
 46
0.0
 47
0.0
 48
0.0
 49
2.5
140
2.5
141
2.5
142
0.0
143
0.03937007874
144
1.0
145
0.0
146
1.0
147
0.625
148
0.0
 69
0
 70
0
 71
0
 72
0
 73
0
 74
0
 75
0
 76
0
 77
1
 78
8
 79
3
170
0
171
3
172
1
173
0
174
0
175
0
176
0
177
0
178
0
179
2
271
2
272
2
273
2
274
3
275
0
276
0
277
2
278
44
279
0
280
0
281
0
282
0
283
0
284
8
285
0
286
0
288
0
289
3
290
0
371
-2
372
-2
  0
ENDTAB
  0
TABLE
  2
BLOCK_RECORD
  5
9
330
0
100
AcDbSymbolTable
 70
2
  0
BLOCK_RECORD
  5
17
330
9
100
AcDbSymbolTableRecord
100
AcDbBlockTableRecord
  2
*Model_Space
340
1A
 70
0
280
1
281
0
  0
BLOCK_RECORD
  5
1B
330
9
100
AcDbSymbolTableRecord
100
AcDbBlockTableRecord
  2
*Paper_Space
340
1E
 70
0
280
1
281
0
  0
ENDTAB
  0
ENDSEC
  0
SECTION
  2
BLOCKS
  0
BLOCK
  5
18
330
17
100
AcDbEntity
  8
0
100
AcDbBlockBegin
  2
*Model_Space
 70
0
 10
0.0
 20
0.0
 30
0.0
  3
*Model_Space
  1

  0
ENDBLK
  5
19
330
17
100
AcDbEntity
  8
0
100
AcDbBlockEnd
  0
BLOCK
  5
1C
330
1B
100
AcDbEntity
  8
0
100
AcDbBlockBegin
  2
*Paper_Space
 70
0
 10
0.0
 20
0.0
 30
0.0
  3
*Paper_Space
  1

  0
ENDBLK
  5
1D
330
1B
100
AcDbEntity
  8
0
100
AcDbBlockEnd
  0
ENDSEC
  0
SECTION
  2
ENTITIES
  0
LWPOLYLINE
  5
2F
330
17
100
AcDbEntity
  8
FP-Roof
100
AcDbPolyline
 90
2
 70
0
 10
78.5
 20
612.000089098557
 10
9.999999999989086
 20
680.5000890985671
  0
LWPOLYLINE
  5
30
330
17
100
AcDbEntity
  8
FP-Roof
100
AcDbPolyline
 90
6
 70
0
 10
286.00002682947525
 20
783.0824414526019
 10
100.00000000000728
 20
783.0824414526019
 10
100.00000000000728
 20
680.5000890985534
 10
10.0
 20
680.5000890985671
 10
10.0
 20
491.49985868959766
 10
95.82048275753368
 20
491.4995017125116
  0
LWPOLYLINE
  5
31
330
17
100
AcDbEntity
  8
FP-Roof
100
AcDbPolyline
 90
2
 70
0
 10
78.5
 20
559.999573759022
 10
10.000284929388727
 20
491.4998586884126
  0
LINE
  5
32
330
17
100
AcDbEntity
  8
FP-Below
100
AcDbLine
 10
25.996471290825866
 20
615.999362841952
 30
0.0
 11
36.999999999992724
 21
615.999362841952
 31
0.0
  0
LINE
  5
33
330
17
100
AcDbEntity
  8
FP-Below
100
AcDbLine
 10
25.996471290833142
 20
555.9993628419238
 30
0.0
 11
36.999999999992724
 21
555.9993628419238
 31
0.0
  0
LINE
  5
34
330
17
100
AcDbEntity
  8
FP-Below
100
AcDbLine
 10
25.999999999992724
 20
555.9993628419238
 30
0.0
 11
26.0
 21
507.49979213647066
 31
0.0
  0
LINE
  5
35
330
17
100
AcDbEntity
  8
FP-Below
100
AcDbLine
 10
26.0
 20
664.5000890985507
 30
0.0
 11
25.999999999992724
 21
615.999362841952
 31
0.0
  0
LINE
  5
36
330
17
100
AcDbEntity
  8
FP-Below
100
AcDbLine
 10
110.0
 20
507.49979213647066
 30
0.0
 11
26.0
 21
507.49979213647066
 31
0.0
  0
LINE
  5
37
330
17
100
AcDbEntity
  8
FP-Below
100
AcDbLine
 10
26.0
 20
664.5000890985507
 30
0.0
 11
116.00000000000728
 21
664.5000890985507
 31
0.0
  0
LWPOLYLINE
  5
38
330
17
100
AcDbEntity
  8
FP-Note
100
AcDbPolyline
 90
4
 70
0
 10
43.22016667238677
 20
590.0182098509558
 10
31.220166672395862
 20
590.018195203213
 10
31.22019108530185
 20
570.0181952032281
 10
43.22016667238677
 20
590.0182098509558
  0
LINE
  5
39
330
17
100
AcDbEntity
  8
FP-Below
100
AcDbLine
 10
37.0
 20
518.500831602993
 30
0.0
 11
36.999999999992724
 21
555.9993628419238
 31
0.0
  0
LINE
  5
3A
330
17
100
AcDbEntity
  8
FP-Below
100
AcDbLine
 10
36.999999999992724
 20
615.999362841952
 30
0.0
 11
37.0
 21
653.5000890985507
 31
0.0
  0
LINE
  5
3B
330
17
100
AcDbEntity
  8
FP-Below
100
AcDbLine
 10
193.05930269182136
 20
518.500831602993
 30
0.0
 11
37.0
 21
518.500831602993
 31
0.0
  0
LINE
  5
3C
330
17
100
AcDbEntity
  8
FP-Below
100
AcDbLine
 10
193.05930269182136
 20
653.5000890985507
 30
0.0
 11
37.0
 21
653.5000890985507
 31
0.0
  0
LWPOLYLINE
  5
3D
330
17
100
AcDbEntity
  8
FP-Above
100
AcDbPolyline
 90
4
 70
1
 10
49.0
 20
641.5006523039042
 10
181.05930269182136
 20
641.5006523039042
 10
181.05930269182136
 20
530.4991997907014
 10
49.0
 20
530.4991997907014
  0
LINE
  5
3E
330
17
100
AcDbEntity
  8
FP-Below
100
AcDbLine
 10
102.73135506203107
 20
91.00008909854978
 30
0.0
 11
54.0
 21
91.00008909854978
 31
0.0
  0
LINE
  5
3F
330
17
100
AcDbEntity
  8
FP-Below
100
AcDbLine
 10
54.0
 20
91.00008909854978
 30
0.0
 11
54.0
 21
115.00098008402301
 31
0.0
  0
LINE
  5
40
330
17
100
AcDbEntity
  8
FP-Below
100
AcDbLine
 10
54.0
 20
115.00098008402301
 30
0.0
 11
65.0
 21
115.00098008402301
 31
0.0
  0
LWPOLYLINE
  5
41
330
17
100
AcDbEntity
  8
FP-Below
100
AcDbPolyline
 90
4
 70
1
 38
-0.3403031765569822
 10
54.0
 20
246.99919811307745
 10
65.0
 20
246.99919811307745
 10
65.0
 20
223.0000890985507
 10
54.0
 20
223.0000890985507
  0
LWPOLYLINE
  5
42
330
17
100
AcDbEntity
  8
FP-Below
100
AcDbPolyline
 90
4
 70
0
 38
-0.3403031765569822
 10
54.0
 20
507.49979213647066
 10
54.0
 20
487.0009800840312
 10
65.0
 20
487.0009800840312
 10
65.0
 20
507.49979213647066
  0
LINE
  5
43
330
17
100
AcDbEntity
  8
FP-Below
100
AcDbLine
 10
65.0
 20
115.00098008402301
 30
0.0
 11
65.0
 21
102.00008909854978
 31
0.0
  0
LINE
  5
44
330
17
100
AcDbEntity
  8
FP-Below
100
AcDbLine
 10
65.0
 20
102.00008909854978
 30
0.0
 11
113.73135506203107
 21
102.00008909854978
 31
0.0
  0
LWPOLYLINE
  5
45
330
17
100
AcDbEntity
  8
FP-Note
100
AcDbPolyline
 90
4
 70
0
 10
71.36479933741066
 20
653.0839945395815
 10
71.36481398515207
 20
665.0839945395724
 10
91.36481398513752
 20
665.0839701266664
 10
71.36479933741066
 20
653.0839945395815
  0
LWPOLYLINE
  5
46
330
17
100
AcDbEntity
  8
FP-Roof Detail
100
AcDbPolyline
 90
2
 70
0
 10
78.4999997170562
 20
559.999573759022
 10
104.50025738682234
 20
585.9998314287889
  0
LWPOLYLINE
  5
47
330
17
100
AcDbEntity
  8
FP-Roof Detail
100
AcDbPolyline
 90
2
 70
0
 10
78.4999997170562
 20
612.000089098557
 10
104.50025738682234
 20
585.9998314287895
  0
LWPOLYLINE
  5
48
330
17
100
AcDbEntity
  8
FP-Roof
100
AcDbPolyline
 90
4
 70
0
 10
168.50000000000728
 20
612.0000890985434
 10
78.5
 20
612.000089098557
 10
78.5
 20
559.999573759022
 10
168.50000000000728
 20
559.9991993969038
  0
LWPOLYLINE
  5
49
330
17
100
AcDbEntity
  8
FP-Note
100
AcDbPolyline
 90
4
 70
0
 10
95.42607368342942
 20
585.3675526251286
 10
83.42607368343852
 20
585.3675379773872
 10
83.4260980963445
 20
583.3675379774018
 10
95.42607368342942
 20
585.3675526251286
  0
LWPOLYLINE
  5
4A
330
17
100
AcDbEntity
  8
FP-Roof
100
AcDbPolyline
 90
2
 70
0
 10
130.48668641706536
 20
526.1657053720432
 10
95.82048275753368
 20
491.4995017125116
  0
LWPOLYLINE
  5
4B
330
17
100
AcDbEntity
  8
FP-Roof
100
AcDbPolyline
 90
2
 70
0
 10
100.00000000000728
 20
680.5000890985534
 10
168.50000000000728
 20
612.0000890985434
  0
LWPOLYLINE
  5
4C
330
17
100
AcDbEntity
  8
FP-Roof
100
AcDbPolyline
 90
2
 70
0
 10
197.25000000000728
 20
685.8324414526019
 10
100.00000000000728
 20
783.0824414526019
  0
LWPOLYLINE
  5
4D
330
17
100
AcDbEntity
  8
FP-Below
100
AcDbPolyline
 90
3
 70
0
 38
-0.3403031765569822
 10
102.73135506203107
 20
91.00008909854978
 10
102.73135506203107
 20
73.00008909854978
 10
134.2508909848475
 20
73.00008909841881
  0
LWPOLYLINE
  5
4E
330
17
100
AcDbEntity
  8
FP-Roof Detail
100
AcDbPolyline
 90
2
 70
0
 10
104.50025738682234
 20
585.9998314287889
 10
169.49999971706347
 20
585.9998314287889
  0
LINE
  5
4F
330
17
100
AcDbEntity
  8
FP-Below
100
AcDbLine
 10
110.0
 20
512.000831602993
 30
0.0
 11
110.0
 21
507.49979213647066
 31
0.0
  0
LINE
  5
50
330
17
100
AcDbEntity
  8
FP-Below
100
AcDbLine
 10
305.0008909854878
 20
512.000831602993
 30
0.0
 11
110.0
 21
512.000831602993
 31
0.0
  0
LWPOLYLINE
  5
51
330
17
100
AcDbEntity
  8
FP-Below
100
AcDbPolyline
 90
3
 70
0
 38
-0.3403031765569822
 10
113.73135506203107
 20
102.00008909854978
 10
113.73135506203107
 20
84.00008909854978
 10
134.2508909848475
 20
84.00008909841881
  0
LINE
  5
52
330
17
100
AcDbEntity
  8
FP-Below
100
AcDbLine
 10
116.00000000000728
 20
664.5000890985507
 30
0.0
 11
116.00000000000728
 21
767.0824414525637
 31
0.0
  0
LINE
  5
53
330
17
100
AcDbEntity
  8
FP-Below
100
AcDbLine
 10
116.00000000000728
 20
767.0824414525637
 30
0.0
 11
157.75036192651896
 21
767.0824316199291
 31
0.0
  0
LINE
  5
54
330
17
100
AcDbEntity
  8
FP-Below
100
AcDbLine
 10
127.00000000000728
 20
667.0000890985516
 30
0.0
 11
304.99680519951653
 21
667.0000890985507
 31
0.0
  0
LINE
  5
55
330
17
100
AcDbEntity
  8
FP-Below
100
AcDbLine
 10
127.00010257319082
 20
756.079446554992
 30
0.0
 11
127.00000000000728
 21
667.0000890985516
 31
0.0
  0
LINE
  5
56
330
17
100
AcDbEntity
  8
FP-Below
100
AcDbLine
 10
157.75036192655534
 20
756.0824316199291
 30
0.0
 11
127.00000000000728
 21
756.0824414525637
 31
0.0
  0
LWPOLYLINE
  5
57
330
17
100
AcDbEntity
  8
FP-Roof
100
AcDbPolyline
 90
2
 70
0
 10
130.48531963486676
 20
526.1656473592209
 10
309.6385771136702
 20
528.4149926963664
  0
LINE
  5
58
330
17
100
AcDbEntity
  8
FP-Below
100
AcDbLine
 10
134.2508909848475
 20
73.00008909841881
 30
0.0
 11
134.2508909848475
 21
84.00008909841881
 31
0.0
  0
LWPOLYLINE
  5
59
330
17
100
AcDbEntity
  8
FP-Note
100
AcDbPolyline
 90
4
 70
0
 10
134.56808228945192
 20
577.066383576127
 10
134.56809693719333
 20
565.0663835761361
 10
136.56809693717878
 20
565.0664079890421
 10
134.56808228945192
 20
577.066383576127
  0
LWPOLYLINE
  5
5A
330
17
100
AcDbEntity
  8
FP-Note
100
AcDbPolyline
 90
4
 70
0
 10
134.56808228945192
 20
592.0931283259392
 10
134.56809693719333
 20
604.0931283259301
 10
136.56809693717878
 20
604.0931039130242
 10
134.56808228945192
 20
592.0931283259392
  0
LWPOLYLINE
  5
5B
330
17
100
AcDbEntity
  8
FP-Note
100
AcDbPolyline
 90
4
 70
0
 10
165.62105588421582
 20
683.4662250446581
 10
153.62105588422492
 20
683.4662103969154
 10
153.6210802971309
 20
663.4662103969304
 10
165.62105588421582
 20
683.4662250446581
  0
LINE
  5
5C
330
17
100
AcDbEntity
  8
FP-Below
100
AcDbLine
 10
157.75036192651896
 20
767.0824088783706
 30
0.0
 11
157.75036192655534
 21
756.0824088783706
 31
0.0
  0
LWPOLYLINE
  5
5D
330
17
100
AcDbEntity
  8
FP-Roof
100
AcDbPolyline
 90
3
 70
0
 10
168.49999971706347
 20
612.0000890985434
 10
169.49999971706347
 20
585.9996442477236
 10
168.49999971706347
 20
559.9991993969038
  0
LWPOLYLINE
  5
5E
330
17
100
AcDbEntity
  8
FP-Roof
100
AcDbPolyline
 90
2
 70
0
 10
197.25000000000728
 20
588.7490798092535
 10
168.50000000000728
 20
559.9991993969038
  0
LWPOLYLINE
  5
5F
330
17
100
AcDbEntity
  8
FP-Below
100
AcDbPolyline
 90
2
 70
0
 38
-0.3403031765569822
 10
199.74910901515977
 20
73.00008909848066
 10
170.2508909848184
 20
73.00008909841881
  0
LINE
  5
60
330
17
100
AcDbEntity
  8
FP-Below
100
AcDbLine
 10
170.2508909848184
 20
73.00008909841881
 30
0.0
 11
170.2508909848184
 21
84.00008909841881
 31
0.0
  0
LWPOLYLINE
  5
61
330
17
100
AcDbEntity
  8
FP-Below
100
AcDbPolyline
 90
2
 70
0
 38
-0.3403031765569822
 10
199.74910901515977
 20
84.00008909848793
 10
170.2508909848184
 20
84.00008909841881
  0
LINE
  5
62
330
17
100
AcDbEntity
  8
FP-Below
100
AcDbLine
 10
193.05930269182136
 20
518.4986365853479
 30
0.0
 11
193.05930269182136
 21
552.9356593311463
 31
0.0
  0
LINE
  5
63
330
17
100
AcDbEntity
  8
FP-Below
100
AcDbLine
 10
201.05930269182136
 20
552.9356593311463
 30
0.0
 11
193.05930269182136
 21
552.9356593311463
 31
0.0
  0
LINE
  5
64
330
17
100
AcDbEntity
  8
FP-Below
100
AcDbLine
 10
193.05930269182136
 20
588.9356593311463
 30
0.0
 11
193.05930269182136
 21
605.4356593311463
 31
0.0
  0
LINE
  5
65
330
17
100
AcDbEntity
  8
FP-Below
100
AcDbLine
 10
201.05930269182136
 20
588.9356593311463
 30
0.0
 11
193.05930269182136
 21
588.9356593311463
 31
0.0
  0
LWPOLYLINE
  5
66
330
17
100
AcDbEntity
  8
FP-Below
100
AcDbPolyline
 90
2
 70
0
 10
197.55930269182136
 20
605.4356593311463
 10
193.05930269182136
 20
605.4356593311463
  0
LINE
  5
67
330
17
100
AcDbEntity
  8
FP-Below
100
AcDbLine
 10
193.05930269182136
 20
635.4356593311463
 30
0.0
 11
193.05930269182136
 21
653.4978940809056
 31
0.0
  0
LWPOLYLINE
  5
68
330
17
100
AcDbEntity
  8
FP-Below
100
AcDbPolyline
 90
2
 70
0
 10
197.55930269182136
 20
635.4356593311463
 10
193.05930269182136
 20
635.4356593311463
  0
LINE
  5
69
330
17
100
AcDbEntity
  8
FP-Below
100
AcDbLine
 10
193.7503619265044
 20
767.0824088785052
 30
0.0
 11
193.75036192654807
 21
756.0824088785052
 31
0.0
  0
LINE
  5
6A
330
17
100
AcDbEntity
  8
FP-Below
100
AcDbLine
 10
193.7503619265044
 20
767.0824316199291
 30
0.0
 11
238.2502878883315
 21
767.0824417505578
 31
0.0
  0
LINE
  5
6B
330
17
100
AcDbEntity
  8
FP-Below
100
AcDbLine
 10
238.2502878883679
 20
756.0824456625282
 30
0.0
 11
193.75036192654807
 21
756.0824316199291
 31
0.0
  0
LWPOLYLINE
  5
6C
330
17
100
AcDbEntity
  8
FP-Roof Detail
100
AcDbPolyline
 90
2
 70
0
 10
197.24999971706347
 20
588.7490798092535
 10
245.79168053873764
 20
637.2907606309275
  0
LWPOLYLINE
  5
6D
330
17
100
AcDbEntity
  8
FP-Roof Detail
100
AcDbPolyline
 90
2
 70
0
 10
197.24999971706347
 20
685.8324414526019
 10
245.79168053873764
 20
637.2907606309275
  0
LWPOLYLINE
  5
6E
330
17
100
AcDbEntity
  8
FP-Roof
100
AcDbPolyline
 90
4
 70
0
 10
369.9705461991689
 20
685.832441452919
 10
197.25000000000728
 20
685.8324414526019
 10
197.25000000000728
 20
588.7490798092535
 10
369.9705461991689
 20
588.7487424425028
  0
LINE
  5
6F
330
17
100
AcDbEntity
  8
FP-Below
100
AcDbLine
 10
197.55930269182136
 20
518.4986365853488
 30
0.0
 11
305.0008909854878
 21
518.4986365853479
 31
0.0
  0
LINE
  5
70
330
17
100
AcDbEntity
  8
FP-Below
100
AcDbLine
 10
197.55930269182136
 20
542.4356593311463
 30
0.0
 11
197.55930269182136
 21
518.4986365853479
 31
0.0
  0
LINE
  5
71
330
17
100
AcDbEntity
  8
FP-Below
100
AcDbLine
 10
225.0300968386582
 20
542.4356593311463
 30
0.0
 11
197.55930269182136
 21
542.4356593311463
 31
0.0
  0
LINE
  5
72
330
17
100
AcDbEntity
  8
FP-Below
100
AcDbLine
 10
197.55930269182136
 20
599.4356593311463
 30
0.0
 11
197.55930269182136
 21
605.4356593311463
 31
0.0
  0
LINE
  5
73
330
17
100
AcDbEntity
  8
FP-Below
100
AcDbLine
 10
305.0008909854878
 20
599.4356593311472
 30
0.0
 11
197.55930269182136
 21
599.4356593311463
 31
0.0
  0
LINE
  5
74
330
17
100
AcDbEntity
  8
FP-Below
100
AcDbLine
 10
197.55930269182136
 20
635.4356593311463
 30
0.0
 11
197.55930269182136
 21
660.4978940809056
 31
0.0
  0
LINE
  5
75
330
17
100
AcDbEntity
  8
FP-Below
100
AcDbLine
 10
305.0008909854878
 20
660.4978940809056
 30
0.0
 11
197.55930269182136
 21
660.4978940809056
 31
0.0
  0
LINE
  5
76
330
17
100
AcDbEntity
  8
FP-Below
100
AcDbLine
 10
199.74910901515977
 20
73.00008909838971
 30
0.0
 11
199.74910901515977
 21
84.00008909838971
 31
0.0
  0
LINE
  5
77
330
17
100
AcDbEntity
  8
FP-Below
100
AcDbLine
 10
225.0300968386582
 20
546.9356593311463
 30
0.0
 11
201.05930269182136
 21
546.9356593311463
 31
0.0
  0
LINE
  5
78
330
17
100
AcDbEntity
  8
FP-Below
100
AcDbLine
 10
201.05930269182136
 20
546.9356593311463
 30
0.0
 11
201.05930269182136
 21
552.9356593311463
 31
0.0
  0
LINE
  5
79
330
17
100
AcDbEntity
  8
FP-Below
100
AcDbLine
 10
201.05930269182136
 20
588.9356593311463
 30
0.0
 11
201.05930269182136
 21
594.9356593311463
 31
0.0
  0
LINE
  5
7A
330
17
100
AcDbEntity
  8
FP-Below
100
AcDbLine
 10
305.0008909854878
 20
594.9356593311463
 30
0.0
 11
201.05930269182136
 21
594.9356593311463
 31
0.0
  0
LWPOLYLINE
  5
7B
330
17
100
AcDbEntity
  8
FP-Note
100
AcDbPolyline
 90
4
 70
0
 10
220.84380850051457
 20
636.6584818272672
 10
208.84380850052366
 20
636.6584671795258
 10
208.84383291342965
 20
634.6584671795404
 10
220.84380850051457
 20
636.6584818272672
  0
LINE
  5
7C
330
17
100
AcDbEntity
  8
FP-Below
100
AcDbLine
 10
225.0300968386582
 20
542.4356593311463
 30
0.0
 11
225.0300968386582
 21
546.9356593311463
 31
0.0
  0
LINE
  5
7D
330
17
100
AcDbEntity
  8
FP-Below
100
AcDbLine
 10
235.74910901513067
 20
73.00008909838971
 30
0.0
 11
235.74910901513067
 21
84.00008909838971
 31
0.0
  0
LWPOLYLINE
  5
7E
330
17
100
AcDbEntity
  8
FP-Below
100
AcDbPolyline
 90
3
 70
0
 38
-0.3403031765569822
 10
267.2686449379835
 20
91.00008909854978
 10
267.2686449379835
 20
73.00008909854978
 10
235.74910901513067
 20
73.0000890985134
  0
LWPOLYLINE
  5
7F
330
17
100
AcDbEntity
  8
FP-Below
100
AcDbPolyline
 90
3
 70
0
 38
-0.3403031765569822
 10
256.2686449379835
 20
102.00008909854978
 10
256.2686449379835
 20
84.00008909854978
 10
235.74910901513067
 20
84.00008909852431
  0
LINE
  5
80
330
17
100
AcDbEntity
  8
FP-Below
100
AcDbLine
 10
238.2502878883315
 20
767.0823934605073
 30
0.0
 11
238.2502878883679
 21
756.0823934605073
 31
0.0
  0
LWPOLYLINE
  5
81
330
17
100
AcDbEntity
  8
FP-Roof Detail
100
AcDbPolyline
 90
2
 70
0
 10
245.79168053873764
 20
637.2907606309275
 10
371.22881936261
 20
637.2893880089346
  0
LWPOLYLINE
  5
82
330
17
100
AcDbEntity
  8
FP-Note
100
AcDbPolyline
 90
4
 70
0
 10
249.64782378852397
 20
565.2232084442599
 10
249.64783843626537
 20
553.223208444269
 10
269.6478384362508
 20
553.2232328571749
 10
249.64782378852397
 20
565.2232084442599
  0
LWPOLYLINE
  5
83
330
17
100
AcDbEntity
  8
FP-Note
100
AcDbPolyline
 90
4
 70
0
 10
250.00430747916835
 20
724.5467920723854
 10
250.00432212690976
 20
736.5467920723763
 10
270.0043221268952
 20
736.5467676594703
 10
250.00430747916835
 20
724.5467920723854
  0
LINE
  5
84
330
17
100
AcDbEntity
  8
FP-Below
100
AcDbLine
 10
305.0008909854878
 20
102.00008909854978
 30
0.0
 11
256.2686449379835
 21
102.00008909854978
 31
0.0
  0
LINE
  5
85
330
17
100
AcDbEntity
  8
FP-Below
100
AcDbLine
 10
267.2686449379835
 20
91.00008909854978
 30
0.0
 11
316.0
 21
91.00008909854978
 31
0.0
  0
LINE
  5
86
330
17
100
AcDbEntity
  8
FP-Below
100
AcDbLine
 10
274.25028788831696
 20
767.0823934606419
 30
0.0
 11
274.2502878883606
 21
756.0823934606419
 31
0.0
  0
LINE
  5
87
330
17
100
AcDbEntity
  8
FP-Below
100
AcDbLine
 10
274.25028788831696
 20
767.0824417505578
 30
0.0
 11
302.0008909854878
 21
767.0824414525637
 31
0.0
  0
LINE
  5
88
330
17
100
AcDbEntity
  8
FP-Below
100
AcDbLine
 10
304.99680519951653
 20
756.0824414525637
 30
0.0
 11
274.2502878883606
 21
756.0824417505578
 31
0.0
  0
LINE
  5
89
330
17
100
AcDbEntity
  8
FP-Below
100
AcDbLine
 10
305.0008909854878
 20
542.4356593311463
 30
0.0
 11
281.0300968386582
 21
542.4356593311463
 31
0.0
  0
LINE
  5
8A
330
17
100
AcDbEntity
  8
FP-Below
100
AcDbLine
 10
281.0300968386582
 20
542.4356593311463
 30
0.0
 11
281.0300968386582
 21
546.9356593311463
 31
0.0
  0
LINE
  5
8B
330
17
100
AcDbEntity
  8
FP-Below
100
AcDbLine
 10
305.0008909854878
 20
546.9356593311463
 30
0.0
 11
281.0300968386582
 21
546.9356593311463
 31
0.0
  0
LWPOLYLINE
  5
8C
330
17
100
AcDbEntity
  8
FP-Note
100
AcDbPolyline
 90
4
 70
0
 10
283.8293898545471
 20
624.6850524164838
 10
283.8294045022885
 20
612.6850524164929
 10
285.829404502274
 20
612.6850768293989
 10
283.8293898545471
 20
624.6850524164838
  0
LWPOLYLINE
  5
8D
330
17
100
AcDbEntity
  8
FP-Note
100
AcDbPolyline
 90
4
 70
0
 10
283.8293898545471
 20
649.8964688453711
 10
283.8294045022885
 20
661.896468845362
 10
285.829404502274
 20
661.8964444324561
 10
283.8293898545471
 20
649.8964688453711
  0
LWPOLYLINE
  5
8E
330
17
100
AcDbEntity
  8
FP-Roof
100
AcDbPolyline
 90
3
 70
0
 10
285.99750096871685
 20
175.84293383710474
 10
285.997362276119
 20
142.49999361229993
 10
560.9999999999927
 20
142.49999361229993
  0
LWPOLYLINE
  5
8F
330
17
100
AcDbEntity
  8
FP-Roof
100
AcDbPolyline
 90
2
 70
0
 10
285.9975895391981
 20
175.84302240758643
 10
307.38745071388803
 20
197.23288358227592
  0
LWPOLYLINE
  5
90
330
17
100
AcDbEntity
  8
FP-Roof
100
AcDbPolyline
 90
2
 70
0
 38
-0.34030317655698217
 10
369.9705461991689
 20
685.8324414529186
 10
285.99997159265513
 20
769.8030160594321
  0
LWPOLYLINE
  5
91
330
17
100
AcDbEntity
  8
FP-Roof
100
AcDbPolyline
 90
2
 70
0
 10
286.00089098549324
 20
990.8332739497296
 10
285.99997159265513
 20
769.8030160594321
  0
LWPOLYLINE
  5
92
330
17
100
AcDbEntity
  8
FP-Roof
100
AcDbPolyline
 90
2
 70
0
 10
386.24736227614267
 20
242.7499936122963
 10
286.00089098548597
 20
142.4999936122972
  0
LWPOLYLINE
  5
93
330
17
100
AcDbEntity
  8
FP-Roof
100
AcDbPolyline
 90
2
 70
0
 10
386.2473622763009
 20
890.5832739497296
 10
286.00089098549324
 20
990.8332739497296
  0
LWPOLYLINE
  5
94
330
17
100
AcDbEntity
  8
FP-Roof
100
AcDbPolyline
 90
6
 70
0
 10
931.4948123909926
 20
990.8332739497296
 10
900.999144247311
 20
990.8332739497296
 10
900.999144247311
 20
952.0832739502885
 10
607.0000000000073
 20
952.083273950288
 10
607.0000000000073
 20
990.83327394973
 10
286.00089098549324
 20
990.8332739497296
  0
LINE
  5
95
330
17
100
AcDbEntity
  8
FP-Below
100
AcDbLine
 10
301.9973622763209
 20
831.8332739497314
 30
0.0
 11
289.9973622763209
 21
831.8332739497314
 31
0.0
  0
LINE
  5
96
330
17
100
AcDbEntity
  8
FP-Below
100
AcDbLine
 10
289.9973622763209
 20
831.8332739497314
 30
0.0
 11
289.9973622763209
 21
903.8332739497314
 31
0.0
  0
LINE
  5
97
330
17
100
AcDbEntity
  8
FP-Below
100
AcDbLine
 10
289.9973622763209
 20
903.8332739497314
 30
0.0
 11
301.9973622763209
 21
903.8332739497332
 31
0.0
  0
LINE
  5
98
330
17
100
AcDbEntity
  8
FP-Below
100
AcDbLine
 10
301.9973622763209
 20
767.0823836999157
 30
0.0
 11
301.9973622763209
 21
831.8332739497314
 31
0.0
  0
LINE
  5
99
330
17
100
AcDbEntity
  8
FP-Below
100
AcDbLine
 10
301.9973622763209
 20
903.8332739497332
 30
0.0
 11
301.9973622763209
 21
974.8332739497296
 31
0.0
  0
LINE
  5
9A
330
17
100
AcDbEntity
  8
FP-Below
100
AcDbLine
 10
349.24825305092963
 20
974.8332739497296
 30
0.0
 11
301.9973622763209
 21
974.8332739497296
 31
0.0
  0
LINE
  5
9B
330
17
100
AcDbEntity
  8
FP-Below
100
AcDbLine
 10
302.0008909854878
 20
158.49999361230084
 30
0.0
 11
332.0017825396717
 21
158.49999361229357
 31
0.0
  0
LINE
  5
9C
330
17
100
AcDbEntity
  8
FP-Below
100
AcDbLine
 10
302.0008909854878
 20
206.4999358585378
 30
0.0
 11
302.0008909854878
 21
158.49999361230084
 31
0.0
  0
LINE
  5
9D
330
17
100
AcDbEntity
  8
FP-Below
100
AcDbLine
 10
302.0008909854878
 20
206.4999358585378
 30
0.0
 11
305.0008909854878
 21
206.4999358585378
 31
0.0
  0
LWPOLYLINE
  5
9E
330
17
100
AcDbEntity
  8
FP-Below
100
AcDbPolyline
 90
4
 70
0
 10
312.99680519951653
 20
685.041733997969
 10
312.99680519951653
 20
691.041733997969
 10
304.99680519951653
 20
691.041733997969
 10
304.99680519951653
 20
667.0000890985507
  0
LWPOLYLINE
  5
9F
330
17
100
AcDbEntity
  8
FP-Below
100
AcDbPolyline
 90
4
 70
0
 10
312.99680519951653
 20
765.3332739497314
 10
312.99680519951653
 20
733.041733997969
 10
304.99680519951653
 20
733.041733997969
 10
304.99680519951653
 20
756.0829091737692
  0
LINE
  5
A0
330
17
100
AcDbEntity
  8
FP-Below
100
AcDbLine
 10
305.0008909854878
 20
158.49999361230084
 30
0.0
 11
305.0008909854878
 21
102.00008909854978
 31
0.0
  0
LINE
  5
A1
330
17
100
AcDbEntity
  8
FP-Below
100
AcDbLine
 10
305.0008909854878
 20
206.4999358585378
 30
0.0
 11
305.0008909854878
 21
512.000831602993
 31
0.0
  0
LINE
  5
A2
330
17
100
AcDbEntity
  8
FP-Below
100
AcDbLine
 10
305.0008909854878
 20
542.4356593311463
 30
0.0
 11
305.0008909854878
 21
518.4986365853479
 31
0.0
  0
LINE
  5
A3
330
17
100
AcDbEntity
  8
FP-Below
100
AcDbLine
 10
305.0008909854878
 20
554.9255557498041
 30
0.0
 11
305.0008909854878
 21
546.9356593311463
 31
0.0
  0
LINE
  5
A4
330
17
100
AcDbEntity
  8
FP-Below
100
AcDbLine
 10
305.0008909854878
 20
554.9255557498041
 30
0.0
 11
312.99680519951653
 21
554.9356593311463
 31
0.0
  0
LINE
  5
A5
330
17
100
AcDbEntity
  8
FP-Below
100
AcDbLine
 10
305.0008909854878
 20
594.9356593311463
 30
0.0
 11
305.0008909854878
 21
586.9255557498041
 31
0.0
  0
LINE
  5
A6
330
17
100
AcDbEntity
  8
FP-Below
100
AcDbLine
 10
305.0008909854878
 20
586.9255557498041
 30
0.0
 11
312.99680519951653
 21
586.9356593311463
 31
0.0
  0
LINE
  5
A7
330
17
100
AcDbEntity
  8
FP-Below
100
AcDbLine
 10
305.0008909854878
 20
660.4978940809056
 30
0.0
 11
305.0008909854878
 21
599.4356593311463
 31
0.0
  0
LWPOLYLINE
  5
A8
330
17
100
AcDbEntity
  8
FP-Roof
100
AcDbPolyline
 90
2
 70
0
 10
309.63805985792897
 20
376.23972420939936
 10
307.3874513995488
 20
197.2328843643936
  0
LWPOLYLINE
  5
A9
330
17
100
AcDbEntity
  8
FP-Roof
100
AcDbPolyline
 90
2
 70
0
 10
369.9705461991689
 20
588.7487424425028
 10
309.6367738118097
 20
528.4149700551445
  0
LINE
  5
AA
330
17
100
AcDbEntity
  8
FP-Roof
100
AcDbLine
 10
309.6385771136702
 20
528.4149926963664
 30
0.0
 11
309.63805985792897
 21
376.23972420939936
 31
0.0
  0
LINE
  5
AB
330
17
100
AcDbEntity
  8
FP-Below
100
AcDbLine
 10
312.9900744618499
 20
547.0201482155903
 30
0.0
 11
399.4991090145122
 21
547.0145521005438
 31
0.0
  0
LINE
  5
AC
330
17
100
AcDbEntity
  8
FP-Below
100
AcDbLine
 10
326.99680519951653
 20
831.8332739497314
 30
0.0
 11
312.9927773077143
 21
831.8332739497314
 31
0.0
  0
LINE
  5
AD
330
17
100
AcDbEntity
  8
FP-Below
100
AcDbLine
 10
326.99680519951653
 20
903.8332739497314
 30
0.0
 11
312.9927773077143
 21
903.8332739497314
 31
0.0
  0
LINE
  5
AE
330
17
100
AcDbEntity
  8
FP-Below
100
AcDbLine
 10
312.99680519952744
 20
586.9356593311454
 30
0.0
 11
312.9968051995129
 21
625.083273950841
 31
0.0
  0
LINE
  5
AF
330
17
100
AcDbEntity
  8
FP-Below
100
AcDbLine
 10
312.99680519951653
 20
631.5832739508373
 30
0.0
 11
312.9968051995129
 21
678.541733997969
 31
0.0
  0
LINE
  5
B0
330
17
100
AcDbEntity
  8
FP-Below
100
AcDbLine
 10
312.99680519951653
 20
547.0201477801934
 30
0.0
 11
312.99680519951653
 21
554.9356593311463
 31
0.0
  0
LINE
  5
B1
330
17
100
AcDbEntity
  8
FP-Below
100
AcDbLine
 10
399.4991090145122
 20
625.0832739508373
 30
0.0
 11
312.99680519951653
 21
625.083273950841
 31
0.0
  0
LINE
  5
B2
330
17
100
AcDbEntity
  8
FP-Below
100
AcDbLine
 10
312.99680519951653
 20
631.5832739508373
 30
0.0
 11
406.9991090145122
 21
631.5832739508373
 31
0.0
  0
LINE
  5
B3
330
17
100
AcDbEntity
  8
FP-Below
100
AcDbLine
 10
345.9979571070144
 20
678.5417339979681
 30
0.0
 11
312.99680519951653
 21
678.541733997969
 31
0.0
  0
LINE
  5
B4
330
17
100
AcDbEntity
  8
FP-Below
100
AcDbLine
 10
345.9979571070144
 20
685.041733997969
 30
0.0
 11
312.99680519951653
 21
685.041733997969
 31
0.0
  0
LINE
  5
B5
330
17
100
AcDbEntity
  8
FP-Below
100
AcDbLine
 10
406.9991090145122
 20
765.3328062285259
 30
0.0
 11
312.99680519951653
 21
765.3328062285259
 31
0.0
  0
LINE
  5
B6
330
17
100
AcDbEntity
  8
FP-Below
100
AcDbLine
 10
312.99680519951653
 20
765.3328062285259
 30
0.0
 11
312.99680519951653
 21
765.3328062285259
 31
0.0
  0
LINE
  5
B7
330
17
100
AcDbEntity
  8
FP-Below
100
AcDbLine
 10
419.4991090145122
 20
771.8332739497314
 30
0.0
 11
312.99680519951653
 21
771.8332739497314
 31
0.0
  0
LINE
  5
B8
330
17
100
AcDbEntity
  8
FP-Below
100
AcDbLine
 10
312.99680519951653
 20
771.8332739497314
 30
0.0
 11
312.99680519951653
 21
831.8332739497314
 31
0.0
  0
LINE
  5
B9
330
17
100
AcDbEntity
  8
FP-Below
100
AcDbLine
 10
312.99680519951653
 20
849.8332739497314
 30
0.0
 11
312.99680519951653
 21
885.8332739497314
 31
0.0
  0
LINE
  5
BA
330
17
100
AcDbEntity
  8
FP-Below
100
AcDbLine
 10
326.99680519951653
 20
849.8332739497314
 30
0.0
 11
312.99680519951653
 21
849.8332739497314
 31
0.0
  0
LINE
  5
BB
330
17
100
AcDbEntity
  8
FP-Below
100
AcDbLine
 10
326.99680519951653
 20
885.8332739497314
 30
0.0
 11
312.99680519951653
 21
885.8332739497314
 31
0.0
  0
LINE
  5
BC
330
17
100
AcDbEntity
  8
FP-Below
100
AcDbLine
 10
312.99680519951653
 20
903.8332739497314
 30
0.0
 11
312.99680519951653
 21
963.8332739497296
 31
0.0
  0
LINE
  5
BD
330
17
100
AcDbEntity
  8
FP-Below
100
AcDbLine
 10
312.99680519951653
 20
963.8332739497296
 30
0.0
 11
349.24825305092236
 21
963.8332739497296
 31
0.0
  0
LINE
  5
BE
330
17
100
AcDbEntity
  8
FP-Below
100
AcDbLine
 10
312.9973622763209
 20
169.49999361230084
 30
0.0
 11
332.0035645105745
 21
169.49999361229357
 31
0.0
  0
LINE
  5
BF
330
17
100
AcDbEntity
  8
FP-Below
100
AcDbLine
 10
312.9973622763209
 20
169.49999361230084
 30
0.0
 11
312.9973622763209
 21
337.4999358585378
 31
0.0
  0
LINE
  5
C0
330
17
100
AcDbEntity
  8
FP-Below
100
AcDbLine
 10
430.5012528804473
 20
337.4999358585378
 30
0.0
 11
312.9973622763209
 21
337.4999358585378
 31
0.0
  0
LINE
  5
C1
330
17
100
AcDbEntity
  8
FP-Below
100
AcDbLine
 10
404.0004102599705
 20
343.9999358585378
 30
0.0
 11
312.9973622763209
 21
343.9999358585378
 31
0.0
  0
LINE
  5
C2
330
17
100
AcDbEntity
  8
FP-Below
100
AcDbLine
 10
312.9973622763209
 20
343.9999358585378
 30
0.0
 11
312.9973622763282
 21
540.4999406175052
 31
0.0
  0
LINE
  5
C3
330
17
100
AcDbEntity
  8
FP-Below
100
AcDbLine
 10
312.9973622763282
 20
540.4999406175052
 30
0.0
 11
404.0004102599778
 21
540.4999406175052
 31
0.0
  0
LINE
  5
C4
330
17
100
AcDbEntity
  8
FP-Below
100
AcDbLine
 10
316.0
 20
91.00008909854978
 30
0.0
 11
316.0
 21
158.49999361230084
 31
0.0
  0
LINE
  5
C5
330
17
100
AcDbEntity
  8
FP-Below
100
AcDbLine
 10
345.9979571070144
 20
680.541733997969
 30
0.0
 11
317.9979571070144
 21
680.5417339979617
 31
0.0
  0
LINE
  5
C6
330
17
100
AcDbEntity
  8
FP-Below
100
AcDbLine
 10
317.9979571070144
 20
680.5417339979617
 30
0.0
 11
317.9979571070144
 21
683.0417339979617
 31
0.0
  0
LINE
  5
C7
330
17
100
AcDbEntity
  8
FP-Below
100
AcDbLine
 10
317.9979571070144
 20
683.0417339979617
 30
0.0
 11
345.9979571070144
 21
683.041733997969
 31
0.0
  0
LINE
  5
C8
330
17
100
AcDbEntity
  8
FP-Below
100
AcDbLine
 10
326.99680519951653
 20
849.8332739497314
 30
0.0
 11
326.99680519951653
 21
831.8332739497314
 31
0.0
  0
LINE
  5
C9
330
17
100
AcDbEntity
  8
FP-Below
100
AcDbLine
 10
326.99680519951653
 20
885.8332739497314
 30
0.0
 11
326.99680519951653
 21
903.8332739497314
 31
0.0
  0
LWPOLYLINE
  5
CA
330
17
100
AcDbEntity
  8
FP-Above
100
AcDbPolyline
 90
4
 70
1
 38
-0.3403031765569822
 10
330.99680519951653
 20
945.8338371550849
 10
561.9994781559872
 20
945.8338371550849
 10
561.9994781559872
 20
789.8338371550849
 10
330.99680519951653
 20
789.8338371550849
  0
LWPOLYLINE
  5
CB
330
17
100
AcDbEntity
  8
FP-Above
100
AcDbPolyline
 90
4
 70
1
 38
-0.3403031765569822
 10
330.9973622763209
 20
319.5004990638913
 10
487.5017819709974
 20
319.5004990638913
 10
487.5017819709974
 20
187.50055681765434
 10
330.9973622763209
 20
187.50055681765434
  0
LINE
  5
CC
330
17
100
AcDbEntity
  8
FP-Below
100
AcDbLine
 10
332.0035645105745
 20
169.49999361229538
 30
0.0
 11
332.0035645105745
 21
158.49999361229357
 31
0.0
  0
LWPOLYLINE
  5
CD
330
17
100
AcDbEntity
  8
FP-Note
100
AcDbPolyline
 90
4
 70
0
 10
348.7168686055684
 20
825.7754454093101
 10
336.7168686055775
 20
825.7754307615673
 10
336.71689301848346
 20
805.7754307615824
 10
348.7168686055684
 20
825.7754454093101
  0
LWPOLYLINE
  5
CE
330
17
100
AcDbEntity
  8
FP-Note
100
AcDbPolyline
 90
4
 70
0
 10
353.08512912238257
 20
383.2594210652478
 10
341.08512912239166
 20
383.25940641750503
 10
341.08515353529765
 20
363.25940641752004
 10
353.08512912238257
 20
383.2594210652478
  0
LINE
  5
CF
330
17
100
AcDbEntity
  8
FP-Below
100
AcDbLine
 10
345.9979571070144
 20
678.5417339979617
 30
0.0
 11
345.9979571070144
 21
680.541733997969
 31
0.0
  0
LINE
  5
D0
330
17
100
AcDbEntity
  8
FP-Below
100
AcDbLine
 10
345.9979571070144
 20
683.041733997969
 30
0.0
 11
345.9979571070144
 21
685.041733997969
 31
0.0
  0
LINE
  5
D1
330
17
100
AcDbEntity
  8
FP-Below
100
AcDbLine
 10
349.24825305092236
 20
963.8332739497296
 30
0.0
 11
349.24825305092963
 21
974.8332739497296
 31
0.0
  0
LINE
  5
D2
330
17
100
AcDbEntity
  8
FP-Below
100
AcDbLine
 10
368.00003580140765
 20
169.49999361229357
 30
0.0
 11
410.498218029039
 21
169.49999361230084
 31
0.0
  0
LINE
  5
D3
330
17
100
AcDbEntity
  8
FP-Below
100
AcDbLine
 10
368.0035645105745
 20
169.49999361229538
 30
0.0
 11
368.0035645105745
 21
158.49999361229357
 31
0.0
  0
LINE
  5
D4
330
17
100
AcDbEntity
  8
FP-Below
100
AcDbLine
 10
368.0035645105745
 20
158.49999361229357
 30
0.0
 11
410.498218029039
 21
158.49999361230084
 31
0.0
  0
LWPOLYLINE
  5
D5
330
17
100
AcDbEntity
  8
FP-Roof
100
AcDbPolyline
 90
3
 70
0
 10
369.9793506020924
 20
685.8367452033758
 10
371.2288194245757
 20
637.2950507070632
 10
369.97361522727624
 20
588.7487106498604
  0
LINE
  5
D6
330
17
100
AcDbEntity
  8
FP-Below
100
AcDbLine
 10
406.9991090145122
 20
678.541733997969
 30
0.0
 11
375.9979571070144
 21
678.5417339979681
 31
0.0
  0
LINE
  5
D7
330
17
100
AcDbEntity
  8
FP-Below
100
AcDbLine
 10
375.9979571070144
 20
678.541733997969
 30
0.0
 11
375.9979571070144
 21
685.041733997969
 31
0.0
  0
LINE
  5
D8
330
17
100
AcDbEntity
  8
FP-Below
100
AcDbLine
 10
406.9991090145122
 20
685.041733997969
 30
0.0
 11
375.9979571070144
 21
685.041733997969
 31
0.0
  0
LWPOLYLINE
  5
D9
330
17
100
AcDbEntity
  8
FP-Roof
100
AcDbPolyline
 90
11
 70
0
 10
856.9973270437767
 20
242.74999361229993
 10
1121.7472444674913
 20
242.74999361229993
 10
1121.7472444674913
 20
890.5832739497296
 10
1001.249144247311
 20
890.5832739497296
 10
1001.249144247311
 20
851.833273950288
 10
506.7500000000073
 20
851.833273950288
 10
506.7500000000073
 20
890.5832739497296
 10
386.2473622763009
 20
890.5832739497296
 10
386.24736227614267
 20
242.74999361229993
 10
576.9999999999927
 20
242.74999361229993
 10
650.9999999999927
 20
242.74999361229993
  0
LWPOLYLINE
  5
DA
330
17
100
AcDbEntity
  8
FP-Roof Detail
100
AcDbPolyline
 90
2
 70
0
 10
386.2473622761463
 20
242.74999361229993
 10
654.2499999999927
 20
510.7526313361466
  0
LWPOLYLINE
  5
DB
330
17
100
AcDbEntity
  8
FP-Roof Detail
100
AcDbPolyline
 90
2
 70
0
 10
386.2473622763009
 20
890.5832739497296
 10
446.498681138155
 20
830.3319550878764
  0
LINE
  5
DC
330
17
100
AcDbEntity
  8
FP-Below
100
AcDbLine
 10
399.4991090145122
 20
546.9999406175052
 30
0.0
 11
399.4991090145122
 21
554.9999406175052
 31
0.0
  0
LINE
  5
DD
330
17
100
AcDbEntity
  8
FP-Below
100
AcDbLine
 10
399.4991090145122
 20
554.9999406175052
 30
0.0
 11
407.4991090145122
 21
554.9999406175052
 31
0.0
  0
LINE
  5
DE
330
17
100
AcDbEntity
  8
FP-Below
100
AcDbLine
 10
399.4991090145122
 20
617.0832739508373
 30
0.0
 11
407.4991090145122
 21
617.0832739508373
 31
0.0
  0
LINE
  5
DF
330
17
100
AcDbEntity
  8
FP-Below
100
AcDbLine
 10
399.4991090145122
 20
625.0832739508373
 30
0.0
 11
399.4991090145122
 21
617.0832739508373
 31
0.0
  0
LINE
  5
E0
330
17
100
AcDbEntity
  8
FP-Below
100
AcDbLine
 10
404.00037871645327
 20
411.50683963923484
 30
0.0
 11
404.0004102599705
 21
343.9999358585378
 31
0.0
  0
LINE
  5
E1
330
17
100
AcDbEntity
  8
FP-Below
100
AcDbLine
 10
406.00037871645327
 20
411.50683963923484
 30
0.0
 11
404.00037871645327
 21
411.50683963923484
 31
0.0
  0
LINE
  5
E2
330
17
100
AcDbEntity
  8
FP-Below
100
AcDbLine
 10
404.0004102599705
 20
540.4999406175052
 30
0.0
 11
404.0004102599705
 21
471.50683963923484
 31
0.0
  0
LINE
  5
E3
330
17
100
AcDbEntity
  8
FP-Below
100
AcDbLine
 10
406.0004102599705
 20
471.50683963923484
 30
0.0
 11
404.0004102599705
 21
471.50683963923484
 31
0.0
  0
LINE
  5
E4
330
17
100
AcDbEntity
  8
FP-Below
100
AcDbLine
 10
408.50037871645327
 20
383.50683963923484
 30
0.0
 11
406.00037871645327
 21
383.50683963923484
 31
0.0
  0
LINE
  5
E5
330
17
100
AcDbEntity
  8
FP-Below
100
AcDbLine
 10
406.00037871645327
 20
383.50683963923484
 30
0.0
 11
406.00037871645327
 21
411.50683963923484
 31
0.0
  0
LINE
  5
E6
330
17
100
AcDbEntity
  8
FP-Below
100
AcDbLine
 10
406.0004102599705
 20
499.50683963923484
 30
0.0
 11
406.0004102599705
 21
471.50683963923484
 31
0.0
  0
LINE
  5
E7
330
17
100
AcDbEntity
  8
FP-Below
100
AcDbLine
 10
408.5004102599705
 20
499.50683963923484
 30
0.0
 11
406.0004102599705
 21
499.50683963923484
 31
0.0
  0
LINE
  5
E8
330
17
100
AcDbEntity
  8
FP-Below
100
AcDbLine
 10
406.99910901450494
 20
697.041733997969
 30
0.0
 11
408.9991090145122
 21
697.041733997969
 31
0.0
  0
LINE
  5
E9
330
17
100
AcDbEntity
  8
FP-Below
100
AcDbLine
 10
406.9991090145122
 20
631.5832739508373
 30
0.0
 11
406.9991090145086
 21
678.541733997969
 31
0.0
  0
LINE
  5
EA
330
17
100
AcDbEntity
  8
FP-Below
100
AcDbLine
 10
406.9991090145086
 20
685.0417339979681
 30
0.0
 11
406.9991090145122
 21
697.041733997969
 31
0.0
  0
LINE
  5
EB
330
17
100
AcDbEntity
  8
FP-Below
100
AcDbLine
 10
406.9991090145122
 20
727.041733997969
 30
0.0
 11
406.9991090145122
 21
765.3328062285259
 31
0.0
  0
LINE
  5
EC
330
17
100
AcDbEntity
  8
FP-Below
100
AcDbLine
 10
413.4991090145122
 20
727.041733997969
 30
0.0
 11
406.9991090145122
 21
727.041733997969
 31
0.0
  0
LINE
  5
ED
330
17
100
AcDbEntity
  8
FP-Below
100
AcDbLine
 10
407.4991090145122
 20
546.9999406175052
 30
0.0
 11
407.4991090145122
 21
554.9999406175052
 31
0.0
  0
LINE
  5
EE
330
17
100
AcDbEntity
  8
FP-Below
100
AcDbLine
 10
407.4991090145122
 20
547.0140345948207
 30
0.0
 11
416.5003135364059
 21
547.0131246438946
 31
0.0
  0
LINE
  5
EF
330
17
100
AcDbEntity
  8
FP-Below
100
AcDbLine
 10
407.4991090145122
 20
625.0832739508373
 30
0.0
 11
407.4991090145122
 21
617.0832739508373
 31
0.0
  0
LINE
  5
F0
330
17
100
AcDbEntity
  8
FP-Below
100
AcDbLine
 10
430.4991090145086
 20
625.083273950841
 30
0.0
 11
407.4991090145122
 21
625.0832739508373
 31
0.0
  0
LINE
  5
F1
330
17
100
AcDbEntity
  8
FP-Below
100
AcDbLine
 10
408.50037871645327
 20
411.50683963923484
 30
0.0
 11
408.50037871645327
 21
383.50683963923484
 31
0.0
  0
LINE
  5
F2
330
17
100
AcDbEntity
  8
FP-Below
100
AcDbLine
 10
410.50037871645327
 20
411.50683963923484
 30
0.0
 11
408.50037871645327
 21
411.50683963923484
 31
0.0
  0
LINE
  5
F3
330
17
100
AcDbEntity
  8
FP-Below
100
AcDbLine
 10
410.5004102599705
 20
471.50683963923484
 30
0.0
 11
408.5004102599705
 21
471.50683963923484
 31
0.0
  0
LINE
  5
F4
330
17
100
AcDbEntity
  8
FP-Below
100
AcDbLine
 10
408.5004102599705
 20
471.50683963923484
 30
0.0
 11
408.5004102599705
 21
499.50683963923484
 31
0.0
  0
LINE
  5
F5
330
17
100
AcDbEntity
  8
FP-Below
100
AcDbLine
 10
408.9991090145122
 20
697.041733997969
 30
0.0
 11
408.99910901450494
 21
669.041733997969
 31
0.0
  0
LINE
  5
F6
330
17
100
AcDbEntity
  8
FP-Below
100
AcDbLine
 10
408.99910901450494
 20
669.041733997969
 30
0.0
 11
411.49910901450494
 21
669.041733997969
 31
0.0
  0
LINE
  5
F7
330
17
100
AcDbEntity
  8
FP-Below
100
AcDbLine
 10
410.498218029039
 20
158.49999361230084
 30
0.0
 11
410.498218029039
 21
169.49999361230084
 31
0.0
  0
LINE
  5
F8
330
17
100
AcDbEntity
  8
FP-Below
100
AcDbLine
 10
410.50034530388075
 20
411.50683963923484
 30
0.0
 11
410.5004102599705
 21
343.9999358585378
 31
0.0
  0
LINE
  5
F9
330
17
100
AcDbEntity
  8
FP-Below
100
AcDbLine
 10
410.500376847398
 20
471.50683963923484
 30
0.0
 11
410.5004102599705
 21
539.0137434199319
 31
0.0
  0
LINE
  5
FA
330
17
100
AcDbEntity
  8
FP-Below
100
AcDbLine
 10
410.50041025996325
 20
539.0137311460098
 30
0.0
 11
416.50031353640225
 21
539.0131246030137
 31
0.0
  0
LINE
  5
FB
330
17
100
AcDbEntity
  8
FP-Below
100
AcDbLine
 10
430.5012528804473
 20
343.9999358585378
 30
0.0
 11
410.5004102599705
 21
343.9999358585378
 31
0.0
  0
LINE
  5
FC
330
17
100
AcDbEntity
  8
FP-Below
100
AcDbLine
 10
411.49910901450494
 20
669.041733997969
 30
0.0
 11
411.4991090145122
 21
697.041733997969
 31
0.0
  0
LINE
  5
FD
330
17
100
AcDbEntity
  8
FP-Below
100
AcDbLine
 10
411.4991090145122
 20
697.041733997969
 30
0.0
 11
413.4991090145122
 21
697.041733997969
 31
0.0
  0
LINE
  5
FE
330
17
100
AcDbEntity
  8
FP-Below
100
AcDbLine
 10
413.4991090145122
 20
631.5832739508373
 30
0.0
 11
430.4991090145086
 21
631.5832739508373
 31
0.0
  0
LINE
  5
FF
330
17
100
AcDbEntity
  8
FP-Below
100
AcDbLine
 10
413.4991090145122
 20
631.5832739508373
 30
0.0
 11
413.4991090145122
 21
697.041733997969
 31
0.0
  0
LINE
  5
100
330
17
100
AcDbEntity
  8
FP-Below
100
AcDbLine
 10
413.4991090145122
 20
727.041733997969
 30
0.0
 11
413.4991090145122
 21
761.8332739497278
 31
0.0
  0
LINE
  5
101
330
17
100
AcDbEntity
  8
FP-Below
100
AcDbLine
 10
419.4991090145122
 20
761.8332739497278
 30
0.0
 11
413.4991090145122
 21
761.8332739497278
 31
0.0
  0
LINE
  5
102
330
17
100
AcDbEntity
  8
FP-Below
100
AcDbLine
 10
416.5003135363986
 20
538.9999406175052
 30
0.0
 11
416.5003135364059
 21
547.0131246438946
 31
0.0
  0
LINE
  5
103
330
17
100
AcDbEntity
  8
FP-Below
100
AcDbLine
 10
419.4991090145122
 20
761.8332739497278
 30
0.0
 11
419.4991090145122
 21
771.8332739497314
 31
0.0
  0
LINE
  5
104
330
17
100
AcDbEntity
  8
FP-Below
100
AcDbLine
 10
421.23882213993056
 20
963.8332739497296
 30
0.0
 11
421.23882213993056
 21
974.8332739497296
 31
0.0
  0
LINE
  5
105
330
17
100
AcDbEntity
  8
FP-Below
100
AcDbLine
 10
471.75272814367054
 20
963.8332739497296
 30
0.0
 11
421.2435552118259
 21
963.8332739497296
 31
0.0
  0
LINE
  5
106
330
17
100
AcDbEntity
  8
FP-Below
100
AcDbLine
 10
471.75272814367054
 20
974.8332739497296
 30
0.0
 11
421.2435552118259
 21
974.8332739497296
 31
0.0
  0
LINE
  5
107
330
17
100
AcDbEntity
  8
FP-Below
100
AcDbLine
 10
430.4991090145086
 20
625.0832739508373
 30
0.0
 11
430.4991090145086
 21
631.583273950841
 31
0.0
  0
LINE
  5
108
330
17
100
AcDbEntity
  8
FP-Below
100
AcDbLine
 10
430.5012528804473
 20
337.4999358585378
 30
0.0
 11
430.5012528804473
 21
343.9999358585378
 31
0.0
  0
LWPOLYLINE
  5
109
330
17
100
AcDbEntity
  8
FP-Note
100
AcDbPolyline
 90
4
 70
0
 10
435.0527965436395
 20
946.0270950947961
 10
435.0528111913809
 20
958.027095094787
 10
455.05281119136635
 20
958.027070681881
 10
435.0527965436395
 20
946.0270950947961
  0
LWPOLYLINE
  5
10A
330
17
100
AcDbEntity
  8
FP-Note
100
AcDbPolyline
 90
4
 70
0
 10
445.86573591610795
 20
861.6574381629612
 10
445.86575056384936
 20
873.6574381629521
 10
447.8657505638348
 20
873.6574137500461
 10
445.86573591610795
 20
861.6574381629612
  0
LWPOLYLINE
  5
10B
330
17
100
AcDbEntity
  8
FP-Roof Detail
100
AcDbPolyline
 90
2
 70
0
 10
446.498681138155
 20
791.581955088436
 10
654.2499999999927
 20
583.8306362265987
  0
LWPOLYLINE
  5
10C
330
17
100
AcDbEntity
  8
FP-Roof Detail
100
AcDbPolyline
 90
2
 70
0
 10
506.7500000000073
 20
851.8332739502889
 10
446.498681138155
 20
791.581955088436
  0
LWPOLYLINE
  5
10D
330
17
100
AcDbEntity
  8
FP-Roof Detail
100
AcDbPolyline
 90
2
 70
0
 10
446.498681138155
 20
830.3319550878766
 10
446.498681138155
 20
791.581955088436
  0
LWPOLYLINE
  5
10E
330
17
100
AcDbEntity
  8
FP-Roof Detail
100
AcDbPolyline
 90
2
 70
0
 10
506.7500000000073
 20
890.5832739497296
 10
446.498681138155
 20
830.3319550878766
  0
LWPOLYLINE
  5
10F
330
17
100
AcDbEntity
  8
FP-Note
100
AcDbPolyline
 90
4
 70
0
 10
447.82432669468835
 20
201.32525389233479
 10
447.82434134242976
 20
189.32525389234388
 10
467.8243413424152
 20
189.32527830524987
 10
447.82432669468835
 20
201.32525389233479
  0
LINE
  5
110
330
17
100
AcDbEntity
  8
FP-Below
100
AcDbLine
 10
462.4991090145086
 20
625.0832739508373
 30
0.0
 11
462.4991090145086
 21
631.583273950841
 31
0.0
  0
LINE
  5
111
330
17
100
AcDbEntity
  8
FP-Below
100
AcDbLine
 10
485.4991090145122
 20
625.083273950841
 30
0.0
 11
462.4991090145086
 21
625.083273950841
 31
0.0
  0
LINE
  5
112
330
17
100
AcDbEntity
  8
FP-Below
100
AcDbLine
 10
462.4991090145086
 20
631.5832739508373
 30
0.0
 11
479.4991090145122
 21
631.5832739508373
 31
0.0
  0
LINE
  5
113
330
17
100
AcDbEntity
  8
FP-Below
100
AcDbLine
 10
505.5017819709974
 20
337.4999358585378
 30
0.0
 11
462.5012528804473
 21
337.4999358585378
 31
0.0
  0
LINE
  5
114
330
17
100
AcDbEntity
  8
FP-Below
100
AcDbLine
 10
462.5012528804473
 20
337.4999358585378
 30
0.0
 11
462.5012528804473
 21
343.9999358585378
 31
0.0
  0
LINE
  5
115
330
17
100
AcDbEntity
  8
FP-Below
100
AcDbLine
 10
482.5021922309461
 20
343.9999358585378
 30
0.0
 11
462.5012528804473
 21
343.9999358585378
 31
0.0
  0
LWPOLYLINE
  5
116
330
17
100
AcDbEntity
  8
FP-Note
100
AcDbPolyline
 90
4
 70
0
 10
466.0558012982383
 20
834.1185401401763
 10
478.0558012982292
 20
834.1185254924335
 10
478.0557768853232
 20
832.1185254924485
 10
466.0558012982383
 20
834.1185401401763
  0
LINE
  5
117
330
17
100
AcDbEntity
  8
FP-Below
100
AcDbLine
 10
471.75272814367054
 20
963.833273949775
 30
0.0
 11
471.75272814367054
 21
974.833273949775
 31
0.0
  0
LINE
  5
118
330
17
100
AcDbEntity
  8
FP-Below
100
AcDbLine
 10
479.4991090145122
 20
761.8332739497278
 30
0.0
 11
473.4991090145122
 21
761.8332739497278
 31
0.0
  0
LINE
  5
119
330
17
100
AcDbEntity
  8
FP-Below
100
AcDbLine
 10
473.4991090145122
 20
761.8332739497278
 30
0.0
 11
473.4991090145122
 21
771.8332739497314
 31
0.0
  0
LINE
  5
11A
330
17
100
AcDbEntity
  8
FP-Below
100
AcDbLine
 10
579.9994781559872
 20
771.8332739497314
 30
0.0
 11
473.4991090145122
 21
771.8332739497314
 31
0.0
  0
LINE
  5
11B
330
17
100
AcDbEntity
  8
FP-Below
100
AcDbLine
 10
476.5021912152115
 20
539.0070588854646
 30
0.0
 11
482.50217984146366
 21
539.006452333841
 31
0.0
  0
LINE
  5
11C
330
17
100
AcDbEntity
  8
FP-Below
100
AcDbLine
 10
476.5021912152115
 20
539.0070588854637
 30
0.0
 11
476.5021912152115
 21
547.0086456008289
 31
0.0
  0
LINE
  5
11D
330
17
100
AcDbEntity
  8
FP-Below
100
AcDbLine
 10
476.5021912152115
 20
547.0086456008289
 30
0.0
 11
485.49910901450494
 21
547.008342031881
 31
0.0
  0
LINE
  5
11E
330
17
100
AcDbEntity
  8
FP-Below
100
AcDbLine
 10
479.4991090145122
 20
631.5832739508373
 30
0.0
 11
479.4991090145122
 21
697.041733997969
 31
0.0
  0
LINE
  5
11F
330
17
100
AcDbEntity
  8
FP-Below
100
AcDbLine
 10
479.4991090145122
 20
697.041733997969
 30
0.0
 11
481.4991090145122
 21
697.041733997969
 31
0.0
  0
LINE
  5
120
330
17
100
AcDbEntity
  8
FP-Below
100
AcDbLine
 10
479.4991090145122
 20
727.041733997969
 30
0.0
 11
479.4991090145122
 21
761.8332739497278
 31
0.0
  0
LINE
  5
121
330
17
100
AcDbEntity
  8
FP-Below
100
AcDbLine
 10
479.4991090145122
 20
727.041733997969
 30
0.0
 11
485.9991090145122
 21
727.041733997969
 31
0.0
  0
LINE
  5
122
330
17
100
AcDbEntity
  8
FP-Below
100
AcDbLine
 10
481.4991090145122
 20
697.041733997969
 30
0.0
 11
481.4991090145122
 21
669.041733997969
 31
0.0
  0
LINE
  5
123
330
17
100
AcDbEntity
  8
FP-Below
100
AcDbLine
 10
481.4991090145122
 20
669.041733997969
 30
0.0
 11
483.9991090145122
 21
669.041733997969
 31
0.0
  0
LINE
  5
124
330
17
100
AcDbEntity
  8
FP-Below
100
AcDbLine
 10
482.27193024712324
 20
471.50683963923484
 30
0.0
 11
484.27193024712324
 21
471.50683963923484
 31
0.0
  0
LINE
  5
125
330
17
100
AcDbEntity
  8
FP-Below
100
AcDbLine
 10
482.38065159038524
 20
411.50683963923484
 30
0.0
 11
482.5021922309461
 21
343.9999358585378
 31
0.0
  0
LINE
  5
126
330
17
100
AcDbEntity
  8
FP-Below
100
AcDbLine
 10
482.3806831339025
 20
471.50683963923484
 30
0.0
 11
482.50217984147093
 21
539.006452333841
 31
0.0
  0
LINE
  5
127
330
17
100
AcDbEntity
  8
FP-Below
100
AcDbLine
 10
482.38155088698113
 20
411.50683963923484
 30
0.0
 11
484.38155088698113
 21
411.50683963923484
 31
0.0
  0
LINE
  5
128
330
17
100
AcDbEntity
  8
FP-Below
100
AcDbLine
 10
482.498218029039
 20
158.49999361230084
 30
0.0
 11
525.2069701503788
 21
158.49999361230084
 31
0.0
  0
LINE
  5
129
330
17
100
AcDbEntity
  8
FP-Below
100
AcDbLine
 10
482.498218029039
 20
158.49999361230084
 30
0.0
 11
482.498218029039
 21
169.49999361230084
 31
0.0
  0
LINE
  5
12A
330
17
100
AcDbEntity
  8
FP-Below
100
AcDbLine
 10
482.498218029039
 20
169.49999361229993
 30
0.0
 11
505.5017819709974
 21
169.49999361230084
 31
0.0
  0
LINE
  5
12B
330
17
100
AcDbEntity
  8
FP-Below
100
AcDbLine
 10
483.9991090145122
 20
669.041733997969
 30
0.0
 11
483.9991090145122
 21
697.041733997969
 31
0.0
  0
LINE
  5
12C
330
17
100
AcDbEntity
  8
FP-Below
100
AcDbLine
 10
483.9991090145122
 20
697.041733997969
 30
0.0
 11
485.9991090145122
 21
697.041733997969
 31
0.0
  0
LINE
  5
12D
330
17
100
AcDbEntity
  8
FP-Below
100
AcDbLine
 10
484.27193024712324
 20
471.50683963923484
 30
0.0
 11
484.27193024712324
 21
499.50683963923484
 31
0.0
  0
LINE
  5
12E
330
17
100
AcDbEntity
  8
FP-Below
100
AcDbLine
 10
484.27193024712324
 20
499.50683963923484
 30
0.0
 11
486.77193024712324
 21
499.50683963923484
 31
0.0
  0
LINE
  5
12F
330
17
100
AcDbEntity
  8
FP-Below
100
AcDbLine
 10
484.38155088698113
 20
411.50683963923484
 30
0.0
 11
484.38155088698113
 21
383.50683963923484
 31
0.0
  0
LINE
  5
130
330
17
100
AcDbEntity
  8
FP-Below
100
AcDbLine
 10
484.38155088698113
 20
383.50683963923484
 30
0.0
 11
486.88155088698113
 21
383.50683963923484
 31
0.0
  0
LINE
  5
131
330
17
100
AcDbEntity
  8
FP-Below
100
AcDbLine
 10
485.49910901450494
 20
546.9999406175052
 30
0.0
 11
485.49910901450494
 21
554.9999406175052
 31
0.0
  0
LINE
  5
132
330
17
100
AcDbEntity
  8
FP-Below
100
AcDbLine
 10
493.49910901450494
 20
554.9999406175052
 30
0.0
 11
485.49910901450494
 21
554.9999406175052
 31
0.0
  0
LINE
  5
133
330
17
100
AcDbEntity
  8
FP-Below
100
AcDbLine
 10
493.49910901450494
 20
617.0832739508373
 30
0.0
 11
485.49910901450494
 21
617.0832739508373
 31
0.0
  0
LINE
  5
134
330
17
100
AcDbEntity
  8
FP-Below
100
AcDbLine
 10
485.49910901450494
 20
625.0832739508373
 30
0.0
 11
485.49910901450494
 21
617.0832739508373
 31
0.0
  0
LINE
  5
135
330
17
100
AcDbEntity
  8
FP-Below
100
AcDbLine
 10
485.9991090145122
 20
631.5832739508373
 30
0.0
 11
580.0000000000073
 21
631.583273950841
 31
0.0
  0
LINE
  5
136
330
17
100
AcDbEntity
  8
FP-Below
100
AcDbLine
 10
485.9991090145122
 20
631.5832739508373
 30
0.0
 11
485.9991090145122
 21
697.041733997969
 31
0.0
  0
LINE
  5
137
330
17
100
AcDbEntity
  8
FP-Below
100
AcDbLine
 10
485.9991090145122
 20
727.041733997969
 30
0.0
 11
485.9991090145122
 21
763.8332739497278
 31
0.0
  0
LINE
  5
138
330
17
100
AcDbEntity
  8
FP-Below
100
AcDbLine
 10
580.0000000000073
 20
763.8332739497314
 30
0.0
 11
485.9991090145122
 21
763.8332739497314
 31
0.0
  0
LINE
  5
139
330
17
100
AcDbEntity
  8
FP-Below
100
AcDbLine
 10
486.77193024712324
 20
471.50683963923484
 30
0.0
 11
488.77193024712324
 21
471.50683963923484
 31
0.0
  0
LINE
  5
13A
330
17
100
AcDbEntity
  8
FP-Below
100
AcDbLine
 10
486.77193024712324
 20
499.50683963923484
 30
0.0
 11
486.77193024712324
 21
471.50683963923484
 31
0.0
  0
LINE
  5
13B
330
17
100
AcDbEntity
  8
FP-Below
100
AcDbLine
 10
486.88155088698113
 20
383.50683963923484
 30
0.0
 11
486.88155088698113
 21
411.50683963923484
 31
0.0
  0
LINE
  5
13C
330
17
100
AcDbEntity
  8
FP-Below
100
AcDbLine
 10
486.88155088698113
 20
411.50683963923484
 30
0.0
 11
488.88155088698113
 21
411.50683963923484
 31
0.0
  0
LINE
  5
13D
330
17
100
AcDbEntity
  8
FP-Below
100
AcDbLine
 10
488.6505178801017
 20
540.4999406175052
 30
0.0
 11
488.77363443077775
 21
471.50683963923484
 31
0.0
  0
LINE
  5
13E
330
17
100
AcDbEntity
  8
FP-Below
100
AcDbLine
 10
488.6505178801017
 20
540.4999406175052
 30
0.0
 11
580.0
 21
540.4999406175052
 31
0.0
  0
LINE
  5
13F
330
17
100
AcDbEntity
  8
FP-Below
100
AcDbLine
 10
488.88155088698113
 20
411.50683963923484
 30
0.0
 11
489.0021922309461
 21
343.9999358585378
 31
0.0
  0
LINE
  5
140
330
17
100
AcDbEntity
  8
FP-Below
100
AcDbLine
 10
580.0000000000073
 20
343.9999358585378
 30
0.0
 11
489.0021922309461
 21
343.9999358585378
 31
0.0
  0
LINE
  5
141
330
17
100
AcDbEntity
  8
FP-Below
100
AcDbLine
 10
491.5017819709974
 20
223.49993585854145
 30
0.0
 11
505.50580986279965
 21
223.49993585854145
 31
0.0
  0
LINE
  5
142
330
17
100
AcDbEntity
  8
FP-Below
100
AcDbLine
 10
491.5017819709974
 20
235.49993585854145
 30
0.0
 11
491.5017819709974
 21
223.49993585854145
 31
0.0
  0
LINE
  5
143
330
17
100
AcDbEntity
  8
FP-Below
100
AcDbLine
 10
491.5017819709974
 20
235.49993585854145
 30
0.0
 11
505.5017819709974
 21
235.49993585854145
 31
0.0
  0
LINE
  5
144
330
17
100
AcDbEntity
  8
FP-Below
100
AcDbLine
 10
491.5017819709974
 20
271.49993585854145
 30
0.0
 11
505.5017819709974
 21
271.49993585854145
 31
0.0
  0
LINE
  5
145
330
17
100
AcDbEntity
  8
FP-Below
100
AcDbLine
 10
491.5017819709974
 20
271.49993585854145
 30
0.0
 11
491.5017819709974
 21
283.49993585854145
 31
0.0
  0
LINE
  5
146
330
17
100
AcDbEntity
  8
FP-Below
100
AcDbLine
 10
491.5017819709974
 20
283.49993585854145
 30
0.0
 11
505.503603221965
 21
283.49993585854145
 31
0.0
  0
LINE
  5
147
330
17
100
AcDbEntity
  8
FP-Below
100
AcDbLine
 10
493.49910901450494
 20
547.007824526158
 30
0.0
 11
631.9997772536299
 21
546.9988651651188
 31
0.0
  0
LINE
  5
148
330
17
100
AcDbEntity
  8
FP-Below
100
AcDbLine
 10
493.49910901450494
 20
546.9999406175052
 30
0.0
 11
493.49910901450494
 21
554.9999406175052
 31
0.0
  0
LINE
  5
149
330
17
100
AcDbEntity
  8
FP-Below
100
AcDbLine
 10
493.49910901450494
 20
625.0832739508373
 30
0.0
 11
493.49910901450494
 21
617.0832739508373
 31
0.0
  0
LINE
  5
14A
330
17
100
AcDbEntity
  8
FP-Below
100
AcDbLine
 10
631.9997772536299
 20
625.083273950841
 30
0.0
 11
493.49910901450494
 21
625.083273950841
 31
0.0
  0
LWPOLYLINE
  5
14B
330
17
100
AcDbEntity
  8
FP-Note
100
AcDbPolyline
 90
4
 70
0
 10
509.71947728903797
 20
520.0389955763269
 10
497.71947728904706
 20
520.0389809285855
 10
497.71950170195305
 20
518.0389809286
 10
509.71947728903797
 20
520.0389955763269
  0
LINE
  5
14C
330
17
100
AcDbEntity
  8
FP-Below
100
AcDbLine
 10
505.5017819709974
 20
169.49999361230084
 30
0.0
 11
505.5017819709974
 21
175.49999361230812
 31
0.0
  0
LINE
  5
14D
330
17
100
AcDbEntity
  8
FP-Below
100
AcDbLine
 10
505.5017819709974
 20
205.4999936210138
 30
0.0
 11
505.5017819709974
 21
223.49993585854145
 31
0.0
  0
LINE
  5
14E
330
17
100
AcDbEntity
  8
FP-Below
100
AcDbLine
 10
507.5017819709974
 20
205.4999936210138
 30
0.0
 11
505.5017819709974
 21
205.4999936210138
 31
0.0
  0
LINE
  5
14F
330
17
100
AcDbEntity
  8
FP-Below
100
AcDbLine
 10
505.5017819709974
 20
235.49993585854145
 30
0.0
 11
505.5017819709974
 21
271.49993585854145
 31
0.0
  0
LINE
  5
150
330
17
100
AcDbEntity
  8
FP-Below
100
AcDbLine
 10
505.5017819709974
 20
283.49993585854145
 30
0.0
 11
505.5017819709974
 21
301.4999358585378
 31
0.0
  0
LINE
  5
151
330
17
100
AcDbEntity
  8
FP-Below
100
AcDbLine
 10
507.5017819709974
 20
301.49993584982485
 30
0.0
 11
505.5017819709974
 21
301.49993584982485
 31
0.0
  0
LINE
  5
152
330
17
100
AcDbEntity
  8
FP-Below
100
AcDbLine
 10
505.5017819709974
 20
331.4999358585378
 30
0.0
 11
505.5017819709974
 21
337.4999358585378
 31
0.0
  0
LINE
  5
153
330
17
100
AcDbEntity
  8
FP-Below
100
AcDbLine
 10
505.501935234337
 20
175.49999361230084
 30
0.0
 11
512.0109777924881
 21
175.49999362102835
 31
0.0
  0
LINE
  5
154
330
17
100
AcDbEntity
  8
FP-Below
100
AcDbLine
 10
505.501935234337
 20
331.4999358585378
 30
0.0
 11
512.0109777924881
 21
331.4999358498103
 31
0.0
  0
LWPOLYLINE
  5
155
330
17
100
AcDbEntity
  8
FP-Roof
100
AcDbPolyline
 90
2
 70
0
 10
506.7500000000073
 20
851.8332739502871
 10
607.0000000000073
 20
952.083273950288
  0
LWPOLYLINE
  5
156
330
17
100
AcDbEntity
  8
FP-Roof
100
AcDbPolyline
 90
2
 70
0
 10
506.7500000000073
 20
890.5832739497287
 10
607.0000000000073
 20
990.8332739497291
  0
LINE
  5
157
330
17
100
AcDbEntity
  8
FP-Below
100
AcDbLine
 10
507.5017819709974
 20
233.4999936210138
 30
0.0
 11
507.5017819709974
 21
205.4999936210138
 31
0.0
  0
LINE
  5
158
330
17
100
AcDbEntity
  8
FP-Below
100
AcDbLine
 10
510.0017819709974
 20
233.4999936210138
 30
0.0
 11
507.5017819709974
 21
233.4999936210138
 31
0.0
  0
LINE
  5
159
330
17
100
AcDbEntity
  8
FP-Below
100
AcDbLine
 10
510.0017819709974
 20
273.49993584982485
 30
0.0
 11
507.5017819709974
 21
273.49993584982485
 31
0.0
  0
LINE
  5
15A
330
17
100
AcDbEntity
  8
FP-Below
100
AcDbLine
 10
507.5017819709974
 20
273.49993584982485
 30
0.0
 11
507.5017819709974
 21
301.49993584982485
 31
0.0
  0
LINE
  5
15B
330
17
100
AcDbEntity
  8
FP-Below
100
AcDbLine
 10
512.0017819709974
 20
205.4999936210138
 30
0.0
 11
510.0017819709974
 21
205.4999936210138
 31
0.0
  0
LINE
  5
15C
330
17
100
AcDbEntity
  8
FP-Below
100
AcDbLine
 10
510.0017819709974
 20
205.4999936210138
 30
0.0
 11
510.0017819709974
 21
233.4999936210138
 31
0.0
  0
LINE
  5
15D
330
17
100
AcDbEntity
  8
FP-Below
100
AcDbLine
 10
510.0017819709974
 20
301.49993584982485
 30
0.0
 11
510.0017819709974
 21
273.49993584982485
 31
0.0
  0
LINE
  5
15E
330
17
100
AcDbEntity
  8
FP-Below
100
AcDbLine
 10
512.0017819709974
 20
301.49993584982485
 30
0.0
 11
510.0017819709974
 21
301.49993584982485
 31
0.0
  0
LINE
  5
15F
330
17
100
AcDbEntity
  8
FP-Below
100
AcDbLine
 10
512.0017819709974
 20
205.4999936210138
 30
0.0
 11
512.0006938516708
 21
253.48976627372258
 31
0.0
  0
LINE
  5
160
330
17
100
AcDbEntity
  8
FP-Below
100
AcDbLine
 10
579.9989118806807
 20
253.49999361230084
 30
0.0
 11
512.0006938516708
 21
253.49999361230084
 31
0.0
  0
LINE
  5
161
330
17
100
AcDbEntity
  8
FP-Below
100
AcDbLine
 10
663.4991349547854
 20
259.99943704552834
 30
0.0
 11
512.0006938516708
 21
259.9897313485221
 31
0.0
  0
LINE
  5
162
330
17
100
AcDbEntity
  8
FP-Below
100
AcDbLine
 10
512.0006938516708
 20
259.9897313485221
 30
0.0
 11
512.0017819709974
 21
301.49993584982485
 31
0.0
  0
LINE
  5
163
330
17
100
AcDbEntity
  8
FP-Below
100
AcDbLine
 10
512.0017819709974
 20
169.49999361230084
 30
0.0
 11
525.2069701503788
 21
169.49999361230084
 31
0.0
  0
LINE
  5
164
330
17
100
AcDbEntity
  8
FP-Below
100
AcDbLine
 10
512.0017819709974
 20
169.49999361230084
 30
0.0
 11
512.0017819709974
 21
175.49999362102108
 31
0.0
  0
LINE
  5
165
330
17
100
AcDbEntity
  8
FP-Below
100
AcDbLine
 10
512.0017819709974
 20
331.4907400283232
 30
0.0
 11
512.0017819709974
 21
337.4999358585378
 31
0.0
  0
LINE
  5
166
330
17
100
AcDbEntity
  8
FP-Below
100
AcDbLine
 10
580.002662977844
 20
337.4999358585378
 30
0.0
 11
512.0017819709974
 21
337.4999358585378
 31
0.0
  0
LINE
  5
167
330
17
100
AcDbEntity
  8
FP-Below
100
AcDbLine
 10
525.2069701503788
 20
169.49999361230084
 30
0.0
 11
525.2069701503788
 21
158.49999361230084
 31
0.0
  0
LINE
  5
168
330
17
100
AcDbEntity
  8
FP-Below
100
AcDbLine
 10
543.7432972326787
 20
963.833273949775
 30
0.0
 11
543.7432972326715
 21
974.833273949775
 31
0.0
  0
LINE
  5
169
330
17
100
AcDbEntity
  8
FP-Below
100
AcDbLine
 10
591.0000000000073
 20
974.8332739497296
 30
0.0
 11
543.7432972326715
 21
974.8332739497296
 31
0.0
  0
LINE
  5
16A
330
17
100
AcDbEntity
  8
FP-Below
100
AcDbLine
 10
543.7432972326787
 20
963.8332739497168
 30
0.0
 11
579.9994781559872
 21
963.8332739497296
 31
0.0
  0
LWPOLYLINE
  5
16B
330
17
100
AcDbEntity
  8
FP-Roof
100
AcDbPolyline
 90
3
 70
0
 10
560.9999999999927
 20
152.74999361229993
 10
560.9999999999927
 20
99.5034858812055
 10
636.5979046713037
 20
99.4872939853426
  0
LWPOLYLINE
  5
16C
330
17
100
AcDbEntity
  8
FP-Roof
100
AcDbPolyline
 90
2
 70
0
 10
650.9999999999927
 20
242.74999361229993
 10
560.9999999999927
 20
152.74999361229993
  0
LWPOLYLINE
  5
16D
330
17
100
AcDbEntity
  8
FP-Roof
100
AcDbPolyline
 90
2
 70
0
 10
667.9999999999927
 20
206.48057059904158
 10
561.0229103751099
 20
99.50348097415963
  0
LINE
  5
16E
330
17
100
AcDbEntity
  8
FP-Below
100
AcDbLine
 10
577.0000000000073
 20
158.49999361230084
 30
0.0
 11
561.2069701503788
 21
158.49999361230084
 31
0.0
  0
LINE
  5
16F
330
17
100
AcDbEntity
  8
FP-Below
100
AcDbLine
 10
561.2069701503788
 20
169.49999361230084
 30
0.0
 11
561.2069701503788
 21
158.49999361230084
 31
0.0
  0
LINE
  5
170
330
17
100
AcDbEntity
  8
FP-Below
100
AcDbLine
 10
561.2069701503788
 20
169.49999361230084
 30
0.0
 11
580.0000000000073
 21
169.49999361230084
 31
0.0
  0
LINE
  5
171
330
17
100
AcDbEntity
  8
FP-Below
100
AcDbLine
 10
576.9999999999927
 20
115.49697713777414
 30
0.0
 11
576.9999999999927
 21
158.49999361230084
 31
0.0
  0
LINE
  5
172
330
17
100
AcDbEntity
  8
FP-Below
100
AcDbLine
 10
576.9999999999927
 20
115.5000592969568
 30
0.0
 11
608.5000000029831
 21
115.50005929698591
 31
0.0
  0
LINE
  5
173
330
17
100
AcDbEntity
  8
FP-Below
100
AcDbLine
 10
579.9995336631509
 20
205.49999361230175
 30
0.0
 11
579.9989118806807
 21
253.49999361230084
 31
0.0
  0
LINE
  5
174
330
17
100
AcDbEntity
  8
FP-Below
100
AcDbLine
 10
579.9994781559872
 20
963.8332739497296
 30
0.0
 11
579.9994781559872
 21
771.8332739497314
 31
0.0
  0
LINE
  5
175
330
17
100
AcDbEntity
  8
FP-Below
100
AcDbLine
 10
579.9995336631509
 20
205.49999361230175
 30
0.0
 11
587.9999999999927
 21
205.49999361230084
 31
0.0
  0
LINE
  5
176
330
17
100
AcDbEntity
  8
FP-Below
100
AcDbLine
 10
663.4980803662402
 20
322.4999406175052
 30
0.0
 11
579.999721512726
 21
322.49994061750795
 31
0.0
  0
LINE
  5
177
330
17
100
AcDbEntity
  8
FP-Below
100
AcDbLine
 10
579.999721512726
 20
322.49994061750886
 30
0.0
 11
579.9999158061619
 21
337.4999358585369
 31
0.0
  0
LINE
  5
178
330
17
100
AcDbEntity
  8
FP-Below
100
AcDbLine
 10
579.9999222771949
 20
175.49999361229993
 30
0.0
 11
587.9999999999964
 21
175.49999361229993
 31
0.0
  0
LINE
  5
179
330
17
100
AcDbEntity
  8
FP-Below
100
AcDbLine
 10
580.0000000000073
 20
169.49999361230175
 30
0.0
 11
579.9999222771985
 21
175.49999361230084
 31
0.0
  0
LINE
  5
17A
330
17
100
AcDbEntity
  8
FP-Below
100
AcDbLine
 10
580.0000000000073
 20
343.9999358585378
 30
0.0
 11
580.0
 21
540.4999406175052
 31
0.0
  0
LINE
  5
17B
330
17
100
AcDbEntity
  8
FP-Below
100
AcDbLine
 10
580.0000000000073
 20
763.8332739497314
 30
0.0
 11
580.0
 21
631.583273950841
 31
0.0
  0
LINE
  5
17C
330
17
100
AcDbEntity
  8
FP-Below
100
AcDbLine
 10
586.4999786243716
 20
637.0832739508373
 30
0.0
 11
686.5000000000073
 21
637.0832739508373
 31
0.0
  0
LINE
  5
17D
330
17
100
AcDbEntity
  8
FP-Below
100
AcDbLine
 10
586.5001629463513
 20
757.0831197702178
 30
0.0
 11
586.4999786243716
 21
637.0832739508373
 31
0.0
  0
LINE
  5
17E
330
17
100
AcDbEntity
  8
FP-Below
100
AcDbLine
 10
586.5000000000073
 20
328.99994061750886
 30
0.0
 11
586.5
 21
534.9999406175052
 31
0.0
  0
LINE
  5
17F
330
17
100
AcDbEntity
  8
FP-Below
100
AcDbLine
 10
586.5
 20
534.9999406175052
 30
0.0
 11
686.5
 21
534.9999406175052
 31
0.0
  0
LINE
  5
180
330
17
100
AcDbEntity
  8
FP-Below
100
AcDbLine
 10
686.5
 20
328.9999406175052
 30
0.0
 11
586.5000000000073
 21
328.99994061750886
 31
0.0
  0
LINE
  5
181
330
17
100
AcDbEntity
  8
FP-Below
100
AcDbLine
 10
586.5000000000073
 20
925.083273950288
 30
0.0
 11
586.5001629463513
 21
829.0831197702178
 31
0.0
  0
LINE
  5
182
330
17
100
AcDbEntity
  8
FP-Below
100
AcDbLine
 10
586.5000000000073
 20
925.083273950288
 30
0.0
 11
645.999554507298
 21
925.0938010636132
 31
-0.3403031765569822
  0
LINE
  5
183
330
17
100
AcDbEntity
  8
FP-Below
100
AcDbLine
 10
602.5001629463513
 20
757.0831197702178
 30
0.0
 11
586.5001629463513
 21
757.0831197702178
 31
0.0
  0
LINE
  5
184
330
17
100
AcDbEntity
  8
FP-Below
100
AcDbLine
 10
586.5001629463513
 20
829.0831197702178
 30
0.0
 11
602.5001629463513
 21
829.0831197702178
 31
0.0
  0
LINE
  5
185
330
17
100
AcDbEntity
  8
FP-Below
100
AcDbLine
 10
663.4992446217184
 20
253.49999361230084
 30
0.0
 11
587.9989118806661
 21
253.49999361230084
 31
0.0
  0
LINE
  5
186
330
17
100
AcDbEntity
  8
FP-Below
100
AcDbLine
 10
587.9999999999927
 20
115.49697713777414
 30
0.0
 11
587.9999999999964
 21
115.50005929696772
 31
0.0
  0
LINE
  5
187
330
17
100
AcDbEntity
  8
FP-Below
100
AcDbLine
 10
608.5000000029831
 20
126.50005929698591
 30
0.0
 11
587.9999999999964
 21
126.50005929695863
 31
0.0
  0
LINE
  5
188
330
17
100
AcDbEntity
  8
FP-Below
100
AcDbLine
 10
587.9999999999964
 20
126.50005929695863
 30
0.0
 11
587.9999999999964
 21
175.49999361229993
 31
0.0
  0
LINE
  5
189
330
17
100
AcDbEntity
  8
FP-Below
100
AcDbLine
 10
587.9999999999964
 20
205.49999361229993
 30
0.0
 11
587.9999999999964
 21
253.49999361229993
 31
0.0
  0
LINE
  5
18A
330
17
100
AcDbEntity
  8
FP-Below
100
AcDbLine
 10
591.0000000000073
 20
936.083273950288
 30
0.0
 11
591.0000000000073
 21
974.8332739497296
 31
0.0
  0
LINE
  5
18B
330
17
100
AcDbEntity
  8
FP-Below
100
AcDbLine
 10
591.0000000000073
 20
936.083273950288
 30
0.0
 11
645.9995545747097
 21
936.083273950288
 31
-0.3403031765569822
  0
LWPOLYLINE
  5
18C
330
17
100
AcDbEntity
  8
FP-Note
100
AcDbPolyline
 90
4
 70
0
 10
598.9281853689827
 20
343.5031909169388
 10
598.9282000167241
 20
331.5031909169479
 10
600.9282000167095
 20
331.5032153298539
 10
598.9281853689827
 20
343.5031909169388
  0
LINE
  5
18D
330
17
100
AcDbEntity
  8
FP-Below
100
AcDbLine
 10
602.5001629463513
 20
829.0831197702178
 30
0.0
 11
602.5001629463513
 21
757.0831197702178
 31
0.0
  0
LWPOLYLINE
  5
18E
330
17
100
AcDbEntity
  8
FP-Above
100
AcDbPolyline
 90
4
 70
1
 38
-0.3403031765569822
 10
604.5000000000073
 20
679.0838371556415
 10
903.4991090145195
 20
679.0838371556415
 10
903.4991090145195
 20
907.0838371556415
 10
604.5000000000073
 20
907.0838371556415
  0
LINE
  5
18F
330
17
100
AcDbEntity
  8
FP-Below
100
AcDbLine
 10
608.5000000029831
 20
115.50005929698591
 30
0.0
 11
608.5000000029831
 21
126.50005929698591
 31
0.0
  0
LWPOLYLINE
  5
190
330
17
100
AcDbEntity
  8
FP-Note
100
AcDbPolyline
 90
4
 70
0
 10
624.0640857557228
 20
191.27242541946225
 10
612.0640857557319
 20
191.27241077171948
 10
612.064110168636
 20
171.27241077173449
 10
624.0640857557228
 20
191.27242541946225
  0
LINE
  5
191
330
17
100
AcDbEntity
  8
FP-Below
100
AcDbLine
 10
631.9997772536299
 20
546.9988651651188
 30
0.0
 11
631.9997772536299
 21
554.9999406175052
 31
0.0
  0
LINE
  5
192
330
17
100
AcDbEntity
  8
FP-Below
100
AcDbLine
 10
631.9997772536299
 20
554.9999406175052
 30
0.0
 11
639.9997772536299
 21
554.9999406175052
 31
0.0
  0
LINE
  5
193
330
17
100
AcDbEntity
  8
FP-Below
100
AcDbLine
 10
631.9997772536299
 20
617.0832739508373
 30
0.0
 11
631.9997772536299
 21
625.083273950841
 31
0.0
  0
LINE
  5
194
330
17
100
AcDbEntity
  8
FP-Below
100
AcDbLine
 10
631.9997772536299
 20
617.083273950841
 30
0.0
 11
639.9997772536371
 21
617.083273950841
 31
0.0
  0
LWPOLYLINE
  5
195
330
17
100
AcDbEntity
  8
FP-Roof
100
AcDbPolyline
 90
4
 70
0
 10
636.5979483180672
 20
107.47204479981929
 10
636.5974592396851
 20
17.99991245760384
 10
871.3998678782827
 20
18.0011971449253
 10
871.3993783546739
 20
107.47146810062668
  0
LWPOLYLINE
  5
196
330
17
100
AcDbEntity
  8
FP-Roof
100
AcDbPolyline
 90
2
 70
0
 10
707.598481732648
 20
89.00030093046234
 10
636.5974592396851
 20
17.99991245760384
  0
LWPOLYLINE
  5
197
330
17
100
AcDbEntity
  8
FP-Roof
100
AcDbPolyline
 90
2
 70
0
 10
707.5979922007391
 20
178.47208868249118
 10
636.5979922017996
 20
107.47208868355165
  0
LINE
  5
198
330
17
100
AcDbEntity
  8
FP-Below
100
AcDbLine
 10
639.9997772536299
 20
546.9999406175052
 30
0.0
 11
639.9997772536299
 21
554.9999406175052
 31
0.0
  0
LINE
  5
199
330
17
100
AcDbEntity
  8
FP-Below
100
AcDbLine
 10
639.9997772536299
 20
617.0832739508373
 30
0.0
 11
639.9997772536299
 21
625.083273950841
 31
0.0
  0
LINE
  5
19A
330
17
100
AcDbEntity
  8
FP-Below
100
AcDbLine
 10
639.9997772536371
 20
546.9999406175052
 30
0.0
 11
686.5000000000073
 21
546.9999406175052
 31
0.0
  0
LINE
  5
19B
330
17
100
AcDbEntity
  8
FP-Below
100
AcDbLine
 10
639.9997772536371
 20
625.083273950841
 30
0.0
 11
686.5
 21
625.083273950841
 31
0.0
  0
LINE
  5
19C
330
17
100
AcDbEntity
  8
FP-Below
100
AcDbLine
 10
644.5000000029031
 20
115.50005929702229
 30
0.0
 11
652.5979922015613
 21
115.50005929696408
 31
0.0
  0
LINE
  5
19D
330
17
100
AcDbEntity
  8
FP-Below
100
AcDbLine
 10
644.5000000029831
 20
126.50005929698591
 30
0.0
 11
644.5000000029831
 21
115.50005929698591
 31
0.0
  0
LINE
  5
19E
330
17
100
AcDbEntity
  8
FP-Below
100
AcDbLine
 10
663.5013875258446
 20
126.50014398066696
 30
0.0
 11
644.5000000029831
 21
126.50005929698591
 31
0.0
  0
LINE
  5
19F
330
17
100
AcDbEntity
  8
FP-Below
100
AcDbLine
 10
645.9995545747097
 20
936.083273950288
 30
-0.3403031765569822
 11
645.9995545072616
 21
925.0881421641029
 31
-0.3403031765569822
  0
LWPOLYLINE
  5
1A0
330
17
100
AcDbEntity
  8
FP-Roof
100
AcDbPolyline
 90
2
 70
0
 10
654.2499999999927
 20
510.7526313361466
 10
650.9999999999927
 20
242.74999361229993
  0
LINE
  5
1A1
330
17
100
AcDbEntity
  8
FP-Below
100
AcDbLine
 10
652.5979922015613
 20
115.50005929696408
 30
0.0
 11
652.5975467006429
 21
34.000000000001364
 31
0.0
  0
LINE
  5
1A2
330
17
100
AcDbEntity
  8
FP-Below
100
AcDbLine
 10
652.5975467006429
 20
34.000000000001364
 30
0.0
 11
660.5979922016777
 21
34.000000000001364
 31
0.0
  0
LWPOLYLINE
  5
1A3
330
17
100
AcDbEntity
  8
FP-Roof
100
AcDbPolyline
 90
4
 70
0
 10
654.2499999999927
 20
583.8306362265987
 10
653.5428932188061
 20
630.9008382268105
 10
854.4544338247306
 20
630.9008382268107
 10
853.7473270435621
 20
583.8288190228366
  0
LWPOLYLINE
  5
1A4
330
17
100
AcDbEntity
  8
FP-Roof
100
AcDbPolyline
 90
2
 70
0
 10
667.9999999999927
 20
616.443731445625
 10
653.5428932188061
 20
630.90083822681
  0
LWPOLYLINE
  5
1A5
330
17
100
AcDbEntity
  8
FP-Roof
100
AcDbPolyline
 90
2
 70
0
 10
654.2499999999927
 20
583.8306362265987
 10
654.2499999999927
 20
510.7526313361466
  0
LINE
  5
1A6
330
17
100
AcDbEntity
  8
FP-Below
100
AcDbLine
 10
660.5979922016777
 20
34.000000000001364
 30
0.0
 11
660.5979922016777
 21
28.000000000001364
 31
0.0
  0
LINE
  5
1A7
330
17
100
AcDbEntity
  8
FP-Below
100
AcDbLine
 10
660.5979922016777
 20
28.000000000001364
 30
0.0
 11
662.5979922014085
 21
28.000000000001364
 31
0.0
  0
LINE
  5
1A8
330
17
100
AcDbEntity
  8
FP-Below
100
AcDbLine
 10
662.5979922014085
 20
28.000000000001364
 30
0.0
 11
662.5979922014085
 21
26.000000000001364
 31
0.0
  0
LINE
  5
1A9
330
17
100
AcDbEntity
  8
FP-Below
100
AcDbLine
 10
662.5979922014085
 20
26.000000000001364
 30
0.0
 11
674.2966383731327
 21
26.000000000001364
 31
0.0
  0
LINE
  5
1AA
330
17
100
AcDbEntity
  8
FP-Below
100
AcDbLine
 10
663.4980803662402
 20
322.4999406175052
 30
0.0
 11
663.4991349547818
 21
259.99943704552925
 31
0.0
  0
LINE
  5
1AB
330
17
100
AcDbEntity
  8
FP-Below
100
AcDbLine
 10
663.4992446217184
 20
253.49999361230084
 30
0.0
 11
663.5013875258446
 21
126.50014398066696
 31
0.0
  0
LWPOLYLINE
  5
1AC
330
17
100
AcDbEntity
  8
FP-Roof
100
AcDbPolyline
 90
4
 70
0
 10
667.9999999999927
 20
616.443731445625
 10
667.9999999999927
 20
206.48057059904158
 10
839.9973270437767
 20
206.44373144562496
 10
839.9973270435439
 20
616.443731445625
  0
LWPOLYLINE
  5
1AD
330
17
100
AcDbEntity
  8
FP-Roof Detail
100
AcDbPolyline
 90
2
 70
0
 10
667.9999999999927
 20
206.48057059904158
 10
753.9986635217683
 20
292.4792341208163
  0
LWPOLYLINE
  5
1AE
330
17
100
AcDbEntity
  8
FP-Roof Detail
100
AcDbPolyline
 90
2
 70
0
 10
667.9999999999927
 20
616.443731445625
 10
753.9986635217683
 20
530.4450679238505
  0
LWPOLYLINE
  5
1AF
330
17
100
AcDbEntity
  8
FP-Roof
100
AcDbPolyline
 90
2
 70
0
 10
839.9973270435439
 20
616.443731445625
 10
667.9999999999927
 20
616.443731445625
  0
LINE
  5
1B0
330
17
100
AcDbEntity
  8
FP-Below
100
AcDbLine
 10
669.9991091648699
 20
148.99999361234813
 30
0.0
 11
693.9982180290317
 21
148.99999361231903
 31
0.0
  0
LINE
  5
1B1
330
17
100
AcDbEntity
  8
FP-Below
100
AcDbLine
 10
670.0027472073562
 20
317.00005317026853
 30
0.0
 11
669.9991091648699
 21
148.99999361234813
 31
0.0
  0
LINE
  5
1B2
330
17
100
AcDbEntity
  8
FP-Below
100
AcDbLine
 10
686.5
 20
316.9999406175052
 30
0.0
 11
670.00000000211
 21
317.00005317026853
 31
0.0
  0
LINE
  5
1B3
330
17
100
AcDbEntity
  8
FP-Below
100
AcDbLine
 10
685.995284544857
 20
26.000000000001364
 30
0.0
 11
674.2966383731327
 21
26.000000000001364
 31
0.0
  0
LWPOLYLINE
  5
1B4
330
17
100
AcDbEntity
  8
FP-Note
100
AcDbPolyline
 90
4
 70
0
 10
691.0351208728116
 20
115.13210075777033
 10
679.0351208728207
 20
115.13208611002756
 10
679.0351452857267
 20
95.13208611004256
 10
691.0351208728116
 20
115.13210075777033
  0
LINE
  5
1B5
330
17
100
AcDbEntity
  8
FP-Below
100
AcDbLine
 10
683.9952844928666
 20
137.99999361230084
 30
0.0
 11
693.9982180290317
 21
137.99999361230084
 31
0.0
  0
LINE
  5
1B6
330
17
100
AcDbEntity
  8
FP-Below
100
AcDbLine
 10
683.9952844928739
 20
69.38781216461894
 30
0.0
 11
683.9952844928703
 21
137.99999361230084
 31
0.0
  0
LINE
  5
1B7
330
17
100
AcDbEntity
  8
FP-Below
100
AcDbLine
 10
683.9952844928739
 20
69.3972923429078
 30
0.0
 11
701.9952845446896
 21
69.3972923429078
 31
0.0
  0
LINE
  5
1B8
330
17
100
AcDbEntity
  8
FP-Below
100
AcDbLine
 10
685.995284544857
 20
28.000000000001364
 30
0.0
 11
685.995284544857
 21
26.000000000001364
 31
0.0
  0
LINE
  5
1B9
330
17
100
AcDbEntity
  8
FP-Below
100
AcDbLine
 10
687.9952845445878
 20
28.000000000001364
 30
0.0
 11
685.995284544857
 21
28.000000000001364
 31
0.0
  0
LINE
  5
1BA
330
17
100
AcDbEntity
  8
FP-Below
100
AcDbLine
 10
686.5
 20
316.9999406175052
 30
0.0
 11
686.5
 21
328.9999406175052
 31
0.0
  0
LINE
  5
1BB
330
17
100
AcDbEntity
  8
FP-Below
100
AcDbLine
 10
686.5000000000073
 20
546.9999406175125
 30
0.0
 11
686.5
 21
534.9999406175125
 31
0.0
  0
LINE
  5
1BC
330
17
100
AcDbEntity
  8
FP-Below
100
AcDbLine
 10
686.5000000000073
 20
637.083273950841
 30
0.0
 11
686.5
 21
625.083273950841
 31
0.0
  0
LINE
  5
1BD
330
17
100
AcDbEntity
  8
FP-Below
100
AcDbLine
 10
687.9952845445878
 20
34.000000000001364
 30
0.0
 11
687.9952845445878
 21
28.000000000001364
 31
0.0
  0
LINE
  5
1BE
330
17
100
AcDbEntity
  8
FP-Below
100
AcDbLine
 10
687.9952845445878
 20
34.000000000001364
 30
0.0
 11
695.9952845446896
 21
34.000000000001364
 31
0.0
  0
LWPOLYLINE
  5
1BF
330
17
100
AcDbEntity
  8
FP-Above
100
AcDbPolyline
 90
4
 70
1
 38
-0.3403031765569822
 10
687.9999045669902
 20
299.0049199627597
 10
820.0009469661854
 20
299.00077937706055
 10
820.0009469554207
 20
167.00542503154384
 10
687.9992046317348
 20
167.00542503154384
  0
LWPOLYLINE
  5
1C0
330
17
100
AcDbEntity
  8
FP-Below
100
AcDbPolyline
 90
2
 70
0
 10
693.9982180290317
 20
137.999935858536
 10
693.9982180290317
 20
148.999935858536
  0
LINE
  5
1C1
330
17
100
AcDbEntity
  8
FP-Below
100
AcDbLine
 10
695.9952845446896
 20
34.000000000001364
 30
0.0
 11
695.9952845446896
 21
42.000000000001364
 31
0.0
  0
LINE
  5
1C2
330
17
100
AcDbEntity
  8
FP-Below
100
AcDbLine
 10
695.9952845446896
 20
42.000000000001364
 30
0.0
 11
701.9952845446896
 21
42.000000000001364
 31
0.0
  0
LWPOLYLINE
  5
1C3
330
17
100
AcDbEntity
  8
FP-Note
100
AcDbPolyline
 90
4
 70
0
 10
713.5702563597606
 20
397.564338579195
 10
701.5702563597697
 20
397.5643239314536
 10
701.5702807726757
 20
395.56432393146815
 10
713.5702563597606
 20
397.564338579195
  0
LINE
  5
1C4
330
17
100
AcDbEntity
  8
FP-Below
100
AcDbLine
 10
701.9952845446896
 20
42.000000000001364
 30
0.0
 11
701.9952845446896
 21
43.999999999732154
 31
0.0
  0
LINE
  5
1C5
330
17
100
AcDbEntity
  8
FP-Below
100
AcDbLine
 10
701.9952845446896
 20
43.999999999732154
 30
0.0
 11
703.9952845446896
 21
43.999999999732154
 31
0.0
  0
LINE
  5
1C6
330
17
100
AcDbEntity
  8
FP-Below
100
AcDbLine
 10
701.9952845446896
 20
69.3972923429078
 30
0.0
 11
701.9952845446896
 21
67.39729234317701
 31
0.0
  0
LINE
  5
1C7
330
17
100
AcDbEntity
  8
FP-Below
100
AcDbLine
 10
701.9952845446896
 20
67.39729234317701
 30
0.0
 11
703.9952845446896
 21
67.39729234317701
 31
0.0
  0
LINE
  5
1C8
330
17
100
AcDbEntity
  8
FP-Below
100
AcDbLine
 10
703.9952845446896
 20
43.999999999732154
 30
0.0
 11
703.9952845446896
 21
55.6986461714564
 31
0.0
  0
LINE
  5
1C9
330
17
100
AcDbEntity
  8
FP-Below
100
AcDbLine
 10
703.9952845446896
 20
67.39729234317701
 30
0.0
 11
703.9952845446896
 21
55.6986461714564
 31
0.0
  0
LWPOLYLINE
  5
1CA
330
17
100
AcDbEntity
  8
FP-Roof
100
AcDbPolyline
 90
4
 70
0
 10
707.5979922007391
 20
178.47208868249118
 10
707.5978473476825
 20
89.00030092699171
 10
800.3994794131431
 20
89.0008086776611
 10
800.4186385121684
 20
178.45220794313036
  0
LWPOLYLINE
  5
1CB
330
17
100
AcDbEntity
  8
FP-Roof
100
AcDbPolyline
 90
2
 70
0
 10
754.0085295409026
 20
179.4621482898733
 10
707.5979922007391
 20
178.47208868249118
  0
LWPOLYLINE
  5
1CC
330
17
100
AcDbEntity
  8
FP-Roof Detail
100
AcDbPolyline
 90
2
 70
0
 10
707.598481732648
 20
89.0003009304628
 10
753.9984095113305
 20
135.40022870914572
  0
LWPOLYLINE
  5
1CD
330
17
100
AcDbEntity
  8
FP-Note
100
AcDbPolyline
 90
4
 70
0
 10
733.7653731131195
 20
139.70898665300683
 10
721.7653731131286
 20
139.70897200526542
 10
721.7653975260346
 20
137.70897200527997
 10
733.7653731131195
 20
139.70898665300683
  0
LWPOLYLINE
  5
1CE
330
17
100
AcDbEntity
  8
FP-Note
100
AcDbPolyline
 90
4
 70
0
 10
743.3008906317773
 20
57.71258295002326
 10
743.3009052795187
 20
45.712582950032356
 10
763.3009052795041
 20
45.71260736293834
 10
743.3008906317773
 20
57.71258295002326
  0
LWPOLYLINE
  5
1CF
330
17
100
AcDbEntity
  8
FP-Note
100
AcDbPolyline
 90
4
 70
0
 10
748.7716833556842
 20
199.45875709367965
 10
748.7716980034256
 20
187.45875709368875
 10
768.7716980034111
 20
187.45878150659473
 10
748.7716833556842
 20
199.45875709367965
  0
LWPOLYLINE
  5
1D0
330
17
100
AcDbEntity
  8
FP-Note
100
AcDbPolyline
 90
4
 70
0
 10
750.60027756013
 20
908.6602719585894
 10
750.6002922078715
 20
920.6602719585803
 10
770.6002922078569
 20
920.6602475456743
 10
750.60027756013
 20
908.6602719585894
  0
LWPOLYLINE
  5
1D1
330
17
100
AcDbEntity
  8
FP-Roof Detail
100
AcDbPolyline
 90
2
 70
0
 10
800.3988450281777
 20
89.00080867418683
 10
753.9984095113305
 20
135.4002287091448
  0
LWPOLYLINE
  5
1D2
330
17
100
AcDbEntity
  8
FP-Roof Detail
100
AcDbPolyline
 90
2
 70
0
 10
753.9984095113305
 20
135.40022870914572
 10
754.0085295409026
 20
179.4621482898733
  0
LWPOLYLINE
  5
1D3
330
17
100
AcDbEntity
  8
FP-Roof Detail
100
AcDbPolyline
 90
2
 70
0
 10
753.9986635217683
 20
530.4450679238505
 10
753.9986635217683
 20
292.4792341208163
  0
LWPOLYLINE
  5
1D4
330
17
100
AcDbEntity
  8
FP-Roof Detail
100
AcDbPolyline
 90
2
 70
0
 10
839.9973270435439
 20
206.48057059904158
 10
753.9986635217701
 20
292.4792341208172
  0
LWPOLYLINE
  5
1D5
330
17
100
AcDbEntity
  8
FP-Roof Detail
100
AcDbPolyline
 90
2
 70
0
 10
839.9973270435439
 20
616.443731445625
 10
753.9986635217701
 20
530.4450679238494
  0
LWPOLYLINE
  5
1D6
330
17
100
AcDbEntity
  8
FP-Roof
100
AcDbPolyline
 90
2
 70
0
 10
754.0085292106105
 20
179.4621482898733
 10
800.419066550774
 20
178.47208868249118
  0
LWPOLYLINE
  5
1D7
330
17
100
AcDbEntity
  8
FP-Note
100
AcDbPolyline
 90
4
 70
0
 38
-0.3403031765569822
 10
754.2186712622224
 20
738.1523809495407
 10
754.2186859099638
 20
750.1523809495316
 10
756.2186859099493
 20
750.1523565366256
 10
754.2186712622224
 20
738.1523809495407
  0
LWPOLYLINE
  5
1D8
330
17
100
AcDbEntity
  8
FP-Note
100
AcDbPolyline
 90
4
 70
0
 10
755.8114511683198
 20
113.53792201496981
 10
755.8114658160612
 20
101.5379220149789
 10
757.8114658160466
 20
101.53794642788489
 10
755.8114511683198
 20
113.53792201496981
  0
LWPOLYLINE
  5
1D9
330
17
100
AcDbEntity
  8
FP-Note
100
AcDbPolyline
 90
4
 70
0
 10
755.8117051787576
 20
257.42628098721707
 10
755.811719826499
 20
245.42628098722616
 10
757.8117198264845
 20
245.42630540013215
 10
755.8117051787576
 20
257.42628098721707
  0
LWPOLYLINE
  5
1DA
330
17
100
AcDbEntity
  8
FP-Note
100
AcDbPolyline
 90
4
 70
0
 10
755.8774959033253
 20
575.1532055507992
 10
755.8775105510667
 20
587.1532055507901
 10
757.8775105510522
 20
587.1531811378841
 10
755.8774959033253
 20
575.1532055507992
  0
LWPOLYLINE
  5
1DB
330
17
100
AcDbEntity
  8
FP-Note
100
AcDbPolyline
 90
4
 70
0
 10
772.9846407069144
 20
139.2379087030149
 10
784.9846407069053
 20
139.23789405527214
 10
784.9846162939994
 20
137.23789405528714
 10
772.9846407069144
 20
139.2379087030149
  0
LWPOLYLINE
  5
1DC
330
17
100
AcDbEntity
  8
FP-Roof
100
AcDbPolyline
 90
2
 70
0
 10
800.3994794131431
 20
89.0008086776611
 10
871.3998678782827
 20
18.0011971449253
  0
LWPOLYLINE
  5
1DD
330
17
100
AcDbEntity
  8
FP-Roof
100
AcDbPolyline
 90
2
 70
0
 10
800.4186385121684
 20
178.45220794313036
 10
871.3993783546739
 20
107.47146810062577
  0
LWPOLYLINE
  5
1DE
330
17
100
AcDbEntity
  8
FP-Note
100
AcDbPolyline
 90
4
 70
0
 10
803.0996730278148
 20
397.8947780345934
 10
815.0996730278057
 20
397.8947633868506
 10
815.0996486148997
 20
395.89476338686563
 10
803.0996730278148
 20
397.8947780345934
  0
LINE
  5
1DF
330
17
100
AcDbEntity
  8
FP-Below
100
AcDbLine
 10
806.0020424988616
 20
43.999999999732154
 30
0.0
 11
804.0020424988616
 21
43.999999999732154
 31
0.0
  0
LINE
  5
1E0
330
17
100
AcDbEntity
  8
FP-Below
100
AcDbLine
 10
804.0020424988616
 20
43.999999999732154
 30
0.0
 11
804.0020424988616
 21
55.6986461714564
 31
0.0
  0
LINE
  5
1E1
330
17
100
AcDbEntity
  8
FP-Below
100
AcDbLine
 10
804.0020424988616
 20
67.39729234317701
 30
0.0
 11
804.0020424988616
 21
55.6986461714564
 31
0.0
  0
LINE
  5
1E2
330
17
100
AcDbEntity
  8
FP-Below
100
AcDbLine
 10
806.0020424988616
 20
67.39729234317701
 30
0.0
 11
804.0020424988616
 21
67.39729234317701
 31
0.0
  0
LINE
  5
1E3
330
17
100
AcDbEntity
  8
FP-Below
100
AcDbLine
 10
812.0020424988616
 20
42.000000000001364
 30
0.0
 11
806.0020424988616
 21
42.000000000001364
 31
0.0
  0
LINE
  5
1E4
330
17
100
AcDbEntity
  8
FP-Below
100
AcDbLine
 10
806.0020424988616
 20
42.000000000001364
 30
0.0
 11
806.0020424988616
 21
43.999999999732154
 31
0.0
  0
LINE
  5
1E5
330
17
100
AcDbEntity
  8
FP-Below
100
AcDbLine
 10
806.0020424988616
 20
69.3972923429078
 30
0.0
 11
806.0020424988616
 21
67.39729234317701
 31
0.0
  0
LINE
  5
1E6
330
17
100
AcDbEntity
  8
FP-Below
100
AcDbLine
 10
824.0020424470458
 20
69.3972923429078
 30
0.0
 11
806.0020424988616
 21
69.3972923429078
 31
0.0
  0
LINE
  5
1E7
330
17
100
AcDbEntity
  8
FP-Below
100
AcDbLine
 10
820.0020424989707
 20
34.000000000001364
 30
0.0
 11
812.0020424988616
 21
34.000000000001364
 31
0.0
  0
LINE
  5
1E8
330
17
100
AcDbEntity
  8
FP-Below
100
AcDbLine
 10
812.0020424988616
 20
34.000000000001364
 30
0.0
 11
812.0020424988616
 21
42.000000000001364
 31
0.0
  0
LWPOLYLINE
  5
1E9
330
17
100
AcDbEntity
  8
FP-Below
100
AcDbPolyline
 90
2
 70
0
 10
813.9973271782364
 20
148.999935858536
 10
813.9973271782364
 20
137.999935858536
  0
LINE
  5
1EA
330
17
100
AcDbEntity
  8
FP-Below
100
AcDbLine
 10
813.9973271782364
 20
137.9999936122972
 30
0.0
 11
824.0020424470458
 21
137.9999936122972
 31
0.0
  0
LINE
  5
1EB
330
17
100
AcDbEntity
  8
FP-Below
100
AcDbLine
 10
837.9968629814175
 20
148.99999361232813
 30
0.0
 11
813.9973271782364
 21
148.99999361232813
 31
0.0
  0
LWPOLYLINE
  5
1EC
330
17
100
AcDbEntity
  8
FP-Note
100
AcDbPolyline
 90
4
 70
0
 10
816.9819382090227
 20
115.13210075780262
 10
828.9819382090136
 20
115.13208611006576
 10
828.9819137961185
 20
95.13208611008076
 10
816.9819382090227
 20
115.13210075780262
  0
LINE
  5
1ED
330
17
100
AcDbEntity
  8
FP-Below
100
AcDbLine
 10
820.0020424989707
 20
34.000000000001364
 30
0.0
 11
820.0020424989707
 21
28.000000000001364
 31
0.0
  0
LINE
  5
1EE
330
17
100
AcDbEntity
  8
FP-Below
100
AcDbLine
 10
820.0020424989707
 20
28.000000000001364
 30
0.0
 11
822.0020424987015
 21
28.000000000001364
 31
0.0
  0
LINE
  5
1EF
330
17
100
AcDbEntity
  8
FP-Below
100
AcDbLine
 10
821.4995544935591
 20
148.99999361232813
 30
0.0
 11
821.4995545072597
 21
148.99999361232813
 31
0.0
  0
LINE
  5
1F0
330
17
100
AcDbEntity
  8
FP-Below
100
AcDbLine
 10
838.000947089844
 20
316.9999406175052
 30
0.0
 11
821.4995545072597
 21
316.9999406175052
 31
0.0
  0
LINE
  5
1F1
330
17
100
AcDbEntity
  8
FP-Below
100
AcDbLine
 10
821.4995545072597
 20
316.9999406175052
 30
0.0
 11
821.499554507267
 21
328.99994061750886
 31
0.0
  0
LINE
  5
1F2
330
17
100
AcDbEntity
  8
FP-Below
100
AcDbLine
 10
821.4995545072597
 20
546.9999406175125
 30
0.0
 11
821.499554507267
 21
534.9999406175125
 31
0.0
  0
LINE
  5
1F3
330
17
100
AcDbEntity
  8
FP-Below
100
AcDbLine
 10
821.4995545072597
 20
546.9999406175052
 30
0.0
 11
867.9997772536299
 21
546.9999406175052
 31
0.0
  0
LINE
  5
1F4
330
17
100
AcDbEntity
  8
FP-Below
100
AcDbLine
 10
821.4995545072597
 20
637.083273950841
 30
0.0
 11
821.499554507267
 21
625.083273950841
 31
0.0
  0
LINE
  5
1F5
330
17
100
AcDbEntity
  8
FP-Below
100
AcDbLine
 10
821.4995545072597
 20
637.0832739508373
 30
0.0
 11
921.4991090145195
 21
637.0832739508373
 31
0.0
  0
LINE
  5
1F6
330
17
100
AcDbEntity
  8
FP-Below
100
AcDbLine
 10
838.0012632778089
 20
328.99994064894827
 30
0.0
 11
821.499554507267
 21
328.99994061750886
 31
0.0
  0
LINE
  5
1F7
330
17
100
AcDbEntity
  8
FP-Below
100
AcDbLine
 10
837.998333445219
 20
534.9999406175089
 30
0.0
 11
821.499554507267
 21
534.9999406175089
 31
0.0
  0
LINE
  5
1F8
330
17
100
AcDbEntity
  8
FP-Below
100
AcDbLine
 10
821.499554507267
 20
625.083273950841
 30
0.0
 11
867.9997772536299
 21
625.083273950841
 31
0.0
  0
LINE
  5
1F9
330
17
100
AcDbEntity
  8
FP-Below
100
AcDbLine
 10
822.0020424987015
 20
28.000000000001364
 30
0.0
 11
822.0020424987015
 21
26.000000000001364
 31
0.0
  0
LINE
  5
1FA
330
17
100
AcDbEntity
  8
FP-Below
100
AcDbLine
 10
822.0020424987015
 20
26.000000000001364
 30
0.0
 11
833.7006886704257
 21
26.000000000001364
 31
0.0
  0
LINE
  5
1FB
330
17
100
AcDbEntity
  8
FP-Below
100
AcDbLine
 10
824.0020424470458
 20
69.38781216461894
 30
0.0
 11
824.0020424470458
 21
137.9999936122972
 31
0.0
  0
LINE
  5
1FC
330
17
100
AcDbEntity
  8
FP-Below
100
AcDbLine
 10
845.3993348421427
 20
26.000000000001364
 30
0.0
 11
833.7006886704257
 21
26.000000000001364
 31
0.0
  0
LINE
  5
1FD
330
17
100
AcDbEntity
  8
FP-Below
100
AcDbLine
 10
838.000947089844
 20
316.9999406175052
 30
0.0
 11
837.9968629814175
 21
148.99999361232813
 31
0.0
  0
LINE
  5
1FE
330
17
100
AcDbEntity
  8
FP-Below
100
AcDbLine
 10
837.998333445219
 20
519.9999453764763
 30
0.0
 11
837.998333445219
 21
534.9999406175125
 31
0.0
  0
LINE
  5
1FF
330
17
100
AcDbEntity
  8
FP-Below
100
AcDbLine
 10
837.998333445219
 20
519.9999453764763
 30
0.0
 11
861.998333445219
 21
519.9999453764763
 31
0.0
  0
LINE
  5
200
330
17
100
AcDbEntity
  8
FP-Below
100
AcDbLine
 10
838.0016321636504
 20
343.9999358585378
 30
0.0
 11
838.0012632778089
 21
328.99994064894827
 31
0.0
  0
LINE
  5
201
330
17
100
AcDbEntity
  8
FP-Below
100
AcDbLine
 10
838.001318239556
 20
343.9999358585378
 30
0.0
 11
861.998333445219
 21
343.9999358585378
 31
0.0
  0
LWPOLYLINE
  5
202
330
17
100
AcDbEntity
  8
FP-Roof
100
AcDbPolyline
 90
2
 70
0
 10
839.9973270435439
 20
616.443731445625
 10
854.4544338247306
 20
630.9008382268103
  0
LWPOLYLINE
  5
203
330
17
100
AcDbEntity
  8
FP-Roof
100
AcDbPolyline
 90
2
 70
0
 10
839.9973270437767
 20
206.44373144562496
 10
946.9973270439823
 20
99.4208112548381
  0
LINE
  5
204
330
17
100
AcDbEntity
  8
FP-Below
100
AcDbLine
 10
844.4968633571661
 20
253.49999361229993
 30
0.0
 11
844.4968623782697
 21
126.42423857308631
 31
0.0
  0
LINE
  5
205
330
17
100
AcDbEntity
  8
FP-Below
100
AcDbLine
 10
844.4968623782697
 20
126.42423857308631
 30
0.0
 11
864.9973270435803
 21
126.42423857308631
 31
0.0
  0
LINE
  5
206
330
17
100
AcDbEntity
  8
FP-Below
100
AcDbLine
 10
844.4968633571661
 20
253.49999361229993
 30
0.0
 11
919.9966331919823
 21
253.49999361230084
 31
0.0
  0
LINE
  5
207
330
17
100
AcDbEntity
  8
FP-Below
100
AcDbLine
 10
844.4968634072247
 20
259.9994370164891
 30
0.0
 11
995.9948512209776
 21
259.9897313485221
 31
0.0
  0
LINE
  5
208
330
17
100
AcDbEntity
  8
FP-Below
100
AcDbLine
 10
844.4968640042316
 20
337.49993586725714
 30
0.0
 11
844.4968634072284
 21
259.9994370164891
 31
0.0
  0
LINE
  5
209
330
17
100
AcDbEntity
  8
FP-Below
100
AcDbLine
 10
844.4968640042316
 20
337.4999358585387
 30
0.0
 11
995.9955450725538
 21
337.4999358585378
 31
0.0
  0
LINE
  5
20A
330
17
100
AcDbEntity
  8
FP-Below
100
AcDbLine
 10
845.3993348421427
 20
28.000000000001364
 30
0.0
 11
845.3993348421427
 21
26.000000000001364
 31
0.0
  0
LINE
  5
20B
330
17
100
AcDbEntity
  8
FP-Below
100
AcDbLine
 10
847.3993348418735
 20
28.000000000001364
 30
0.0
 11
845.3993348421427
 21
28.000000000001364
 31
0.0
  0
LINE
  5
20C
330
17
100
AcDbEntity
  8
FP-Below
100
AcDbLine
 10
847.3993348418735
 20
34.000000000001364
 30
0.0
 11
847.3993348418735
 21
28.000000000001364
 31
0.0
  0
LINE
  5
20D
330
17
100
AcDbEntity
  8
FP-Below
100
AcDbLine
 10
855.3997803429156
 20
34.000000000001364
 30
0.0
 11
847.3993348418735
 21
34.000000000001364
 31
0.0
  0
LWPOLYLINE
  5
20E
330
17
100
AcDbEntity
  8
FP-Roof
100
AcDbPolyline
 90
2
 70
0
 10
853.7473270435621
 20
583.8288190228366
 10
853.747327043604
 20
510.74991103618754
  0
LWPOLYLINE
  5
20F
330
17
100
AcDbEntity
  8
FP-Roof Detail
100
AcDbPolyline
 90
2
 70
0
 10
1061.5004631091633
 20
791.581955088436
 10
853.7473270435621
 20
583.8288190228363
  0
LWPOLYLINE
  5
210
330
17
100
AcDbEntity
  8
FP-Roof Detail
100
AcDbPolyline
 90
2
 70
0
 10
1121.7472444674913
 20
242.74999361229993
 10
853.747327043604
 20
510.7499110361873
  0
LWPOLYLINE
  5
211
330
17
100
AcDbEntity
  8
FP-Roof
100
AcDbPolyline
 90
2
 70
0
 10
853.747327043604
 20
510.7499110361873
 10
856.9973270437767
 20
242.74999361229993
  0
LINE
  5
212
330
17
100
AcDbEntity
  8
FP-Below
100
AcDbLine
 10
855.3993348420045
 20
115.4242385732864
 30
0.0
 11
855.3997803429156
 21
34.000000000001364
 31
0.0
  0
LINE
  5
213
330
17
100
AcDbEntity
  8
FP-Below
100
AcDbLine
 10
864.9973270435803
 20
115.42423857308631
 30
0.0
 11
855.3993348420045
 21
115.42423857308631
 31
0.0
  0
LINE
  5
214
330
17
100
AcDbEntity
  8
FP-Below
100
AcDbLine
 10
863.4973270406699
 20
115.42423857334461
 30
0.0
 11
855.3993348420045
 21
115.4242385732864
 31
0.0
  0
LWPOLYLINE
  5
215
330
17
100
AcDbEntity
  8
FP-Roof
100
AcDbPolyline
 90
2
 70
0
 10
856.9973270437767
 20
242.74999361229993
 10
946.9973270437767
 20
152.74999361229993
  0
LINE
  5
216
330
17
100
AcDbEntity
  8
FP-Below
100
AcDbLine
 10
861.998333445219
 20
519.9999453764763
 30
0.0
 11
861.998333445219
 21
343.9999358585378
 31
0.0
  0
LINE
  5
217
330
17
100
AcDbEntity
  8
FP-Below
100
AcDbLine
 10
861.9995545072634
 20
925.083273950288
 30
0.0
 11
921.4991090145195
 21
925.083273950288
 31
0.0
  0
LINE
  5
218
330
17
100
AcDbEntity
  8
FP-Below
100
AcDbLine
 10
861.9995545072634
 20
936.083273950288
 30
0.0
 11
861.9995545072634
 21
925.083273950288
 31
0.0
  0
LINE
  5
219
330
17
100
AcDbEntity
  8
FP-Below
100
AcDbLine
 10
861.9995545072634
 20
936.083273950288
 30
0.0
 11
916.9991090145195
 21
936.083273950288
 31
0.0
  0
LINE
  5
21A
330
17
100
AcDbEntity
  8
FP-Below
100
AcDbLine
 10
864.9973270435803
 20
126.42423857308631
 30
0.0
 11
864.9973270435803
 21
115.42423857308631
 31
0.0
  0
LINE
  5
21B
330
17
100
AcDbEntity
  8
FP-Below
100
AcDbLine
 10
867.9997772536299
 20
546.9999406175052
 30
0.0
 11
867.9997772536299
 21
554.9999406175052
 31
0.0
  0
LINE
  5
21C
330
17
100
AcDbEntity
  8
FP-Below
100
AcDbLine
 10
867.9997772536299
 20
554.9999406175052
 30
0.0
 11
875.9997772536299
 21
554.9999406175052
 31
0.0
  0
LINE
  5
21D
330
17
100
AcDbEntity
  8
FP-Below
100
AcDbLine
 10
867.9997772536299
 20
617.083273950841
 30
0.0
 11
875.9997772536299
 21
617.083273950841
 31
0.0
  0
LINE
  5
21E
330
17
100
AcDbEntity
  8
FP-Below
100
AcDbLine
 10
867.9997772536299
 20
617.083273950841
 30
0.0
 11
867.9997772536299
 21
625.083273950841
 31
0.0
  0
LINE
  5
21F
330
17
100
AcDbEntity
  8
FP-Below
100
AcDbLine
 10
883.9960257981002
 20
365.99993823801606
 30
0.0
 11
868.4983334402787
 21
365.999938239584
 31
0.0
  0
LINE
  5
220
330
17
100
AcDbEntity
  8
FP-Below
100
AcDbLine
 10
883.9960257981002
 20
445.9999382380306
 30
0.0
 11
868.4983334402859
 21
445.99993823646264
 31
0.0
  0
LINE
  5
221
330
17
100
AcDbEntity
  8
FP-Below
100
AcDbLine
 10
872.4983334422213
 20
424.9999382371575
 30
0.0
 11
868.4983334422213
 21
424.99993823692466
 31
0.0
  0
LINE
  5
222
330
17
100
AcDbEntity
  8
FP-Below
100
AcDbLine
 10
870.4983334428325
 20
398.99993823904197
 30
0.0
 11
868.4983334431454
 21
398.999938239122
 31
0.0
  0
LINE
  5
223
330
17
100
AcDbEntity
  8
FP-Below
100
AcDbLine
 10
868.4983334472854
 20
398.999938239122
 30
0.0
 11
868.4983334431527
 21
412.99993823692466
 31
0.0
  0
LINE
  5
224
330
17
100
AcDbEntity
  8
FP-Below
100
AcDbLine
 10
870.4983334428398
 20
412.99993823700106
 30
0.0
 11
868.4983334431527
 21
412.99993823692466
 31
0.0
  0
LINE
  5
225
330
17
100
AcDbEntity
  8
FP-Below
100
AcDbLine
 10
868.498333445219
 20
386.999938239122
 30
0.0
 11
868.498333445219
 21
365.999938239584
 31
0.0
  0
LINE
  5
226
330
17
100
AcDbEntity
  8
FP-Below
100
AcDbLine
 10
868.498333445219
 20
412.99993823692466
 30
0.0
 11
868.498333445219
 21
398.999938239122
 31
0.0
  0
LINE
  5
227
330
17
100
AcDbEntity
  8
FP-Below
100
AcDbLine
 10
868.498333445219
 20
445.99993823646264
 30
0.0
 11
868.498333445219
 21
424.99993823692466
 31
0.0
  0
LINE
  5
228
330
17
100
AcDbEntity
  8
FP-Below
100
AcDbLine
 10
872.4983334422141
 20
386.9999382388892
 30
0.0
 11
868.4983334482167
 21
386.999938239122
 31
0.0
  0
LINE
  5
229
330
17
100
AcDbEntity
  8
FP-Below
100
AcDbLine
 10
872.4983334428325
 20
394.9999382388892
 30
0.0
 11
870.4983334428325
 21
394.99993823904197
 31
0.0
  0
LINE
  5
22A
330
17
100
AcDbEntity
  8
FP-Below
100
AcDbLine
 10
870.4983334428325
 20
394.99993823904197
 30
0.0
 11
870.4983334428325
 21
398.99993823904197
 31
0.0
  0
LINE
  5
22B
330
17
100
AcDbEntity
  8
FP-Below
100
AcDbLine
 10
870.4983334428398
 20
416.99993823700106
 30
0.0
 11
870.4983334428398
 21
412.99993823700106
 31
0.0
  0
LINE
  5
22C
330
17
100
AcDbEntity
  8
FP-Below
100
AcDbLine
 10
872.4983334428398
 20
416.9999382371575
 30
0.0
 11
870.4983334428398
 21
416.99993823700106
 31
0.0
  0
LWPOLYLINE
  5
22D
330
17
100
AcDbEntity
  8
FP-Roof
100
AcDbPolyline
 90
3
 70
0
 10
871.3994223140835
 20
99.43700315071374
 10
946.9973270439823
 20
99.4208112548381
 10
946.9973270438804
 20
152.74999361219625
  0
LINE
  5
22E
330
17
100
AcDbEntity
  8
FP-Below
100
AcDbLine
 10
872.4983334428325
 20
394.9999382388892
 30
0.0
 11
872.4983334422141
 21
386.9999382388892
 31
0.0
  0
LINE
  5
22F
330
17
100
AcDbEntity
  8
FP-Below
100
AcDbLine
 10
872.4983334428398
 20
416.9999382371575
 30
0.0
 11
872.4983334422213
 21
424.9999382371575
 31
0.0
  0
LINE
  5
230
330
17
100
AcDbEntity
  8
FP-Below
100
AcDbLine
 10
875.996248544463
 20
546.9999406175089
 30
0.0
 11
892.6214240279514
 21
546.9999406175089
 31
0.0
  0
LINE
  5
231
330
17
100
AcDbEntity
  8
FP-Below
100
AcDbLine
 10
875.9997772536299
 20
546.9999406175052
 30
0.0
 11
875.9997772536299
 21
554.9999406175052
 31
0.0
  0
LINE
  5
232
330
17
100
AcDbEntity
  8
FP-Below
100
AcDbLine
 10
875.9997772536299
 20
617.083273950841
 30
0.0
 11
875.9997772536299
 21
625.083273950841
 31
0.0
  0
LINE
  5
233
330
17
100
AcDbEntity
  8
FP-Below
100
AcDbLine
 10
875.9997772536299
 20
625.083273950841
 30
0.0
 11
1014.5004454927548
 21
625.083273950841
 31
0.0
  0
LINE
  5
234
330
17
100
AcDbEntity
  8
FP-Below
100
AcDbLine
 10
945.9955803053526
 20
474.49994061750886
 30
0.0
 11
879.9955803053526
 21
474.49994061750886
 31
0.0
  0
LINE
  5
235
330
17
100
AcDbEntity
  8
FP-Below
100
AcDbLine
 10
879.9955803053526
 20
474.49994061750886
 30
0.0
 11
879.9955803053526
 21
540.4999406175089
 31
0.0
  0
LINE
  5
236
330
17
100
AcDbEntity
  8
FP-Below
100
AcDbLine
 10
879.9955803053526
 20
540.4999406175089
 30
0.0
 11
892.6214240279514
 21
540.4999406175089
 31
0.0
  0
LINE
  5
237
330
17
100
AcDbEntity
  8
FP-Below
100
AcDbLine
 10
883.9960257981002
 20
369.99993823801606
 30
0.0
 11
881.9960257981002
 21
369.99993823801606
 31
0.0
  0
LINE
  5
238
330
17
100
AcDbEntity
  8
FP-Below
100
AcDbLine
 10
881.9960257981002
 20
369.99993823801606
 30
0.0
 11
881.9960257981002
 21
380.49993823801606
 31
0.0
  0
LINE
  5
239
330
17
100
AcDbEntity
  8
FP-Below
100
AcDbLine
 10
881.9960257981002
 20
380.49993823801606
 30
0.0
 11
892.4960257981002
 21
380.49993823801606
 31
0.0
  0
LINE
  5
23A
330
17
100
AcDbEntity
  8
FP-Below
100
AcDbLine
 10
881.9960257981002
 20
441.9999382380306
 30
0.0
 11
881.9960257981002
 21
431.4999382380306
 31
0.0
  0
LINE
  5
23B
330
17
100
AcDbEntity
  8
FP-Below
100
AcDbLine
 10
881.9960257981002
 20
431.4999382380306
 30
0.0
 11
892.4960257981002
 21
431.4999382380306
 31
0.0
  0
LINE
  5
23C
330
17
100
AcDbEntity
  8
FP-Below
100
AcDbLine
 10
883.9960257981002
 20
441.9999382380306
 30
0.0
 11
881.9960257981002
 21
441.9999382380306
 31
0.0
  0
LWPOLYLINE
  5
23D
330
17
100
AcDbEntity
  8
FP-Note
100
AcDbPolyline
 90
4
 70
0
 10
883.9529733260733
 20
191.2724254195291
 10
895.9529733260642
 20
191.27241077179224
 10
895.9529489131692
 20
171.27241077180724
 10
883.9529733260733
 20
191.2724254195291
  0
LINE
  5
23E
330
17
100
AcDbEntity
  8
FP-Below
100
AcDbLine
 10
883.9960257981002
 20
369.99993823801606
 30
0.0
 11
883.9960257981002
 21
365.99993823801606
 31
0.0
  0
LINE
  5
23F
330
17
100
AcDbEntity
  8
FP-Below
100
AcDbLine
 10
883.9960257981002
 20
441.9999382380306
 30
0.0
 11
883.9960257981002
 21
445.9999382380306
 31
0.0
  0
LINE
  5
240
330
17
100
AcDbEntity
  8
FP-Below
100
AcDbLine
 10
892.4960257981002
 20
361.99993823801606
 30
0.0
 11
890.4960257981002
 21
361.99993823801606
 31
0.0
  0
LINE
  5
241
330
17
100
AcDbEntity
  8
FP-Below
100
AcDbLine
 10
890.4960257981002
 20
361.99993823801606
 30
0.0
 11
890.4960257981002
 21
369.99993823801606
 31
0.0
  0
LINE
  5
242
330
17
100
AcDbEntity
  8
FP-Below
100
AcDbLine
 10
892.4960257981002
 20
369.99993823801606
 30
0.0
 11
890.4960257981002
 21
369.99993823801606
 31
0.0
  0
LINE
  5
243
330
17
100
AcDbEntity
  8
FP-Below
100
AcDbLine
 10
890.4960257981002
 20
449.9999382380306
 30
0.0
 11
890.4960257981002
 21
441.9999382380306
 31
0.0
  0
LINE
  5
244
330
17
100
AcDbEntity
  8
FP-Below
100
AcDbLine
 10
892.4960257981002
 20
441.9999382380306
 30
0.0
 11
890.4960257981002
 21
441.9999382380306
 31
0.0
  0
LINE
  5
245
330
17
100
AcDbEntity
  8
FP-Below
100
AcDbLine
 10
892.4960257981002
 20
449.9999382380306
 30
0.0
 11
890.4960257981002
 21
449.9999382380306
 31
0.0
  0
LINE
  5
246
330
17
100
AcDbEntity
  8
FP-Below
100
AcDbLine
 10
892.4960257981002
 20
353.99993823801606
 30
0.0
 11
894.4960257981002
 21
353.99993823801606
 31
0.0
  0
LINE
  5
247
330
17
100
AcDbEntity
  8
FP-Below
100
AcDbLine
 10
892.4960257981002
 20
353.99993823801606
 30
0.0
 11
892.4960257981002
 21
361.99993823801606
 31
0.0
  0
LINE
  5
248
330
17
100
AcDbEntity
  8
FP-Below
100
AcDbLine
 10
892.4960257981002
 20
380.49993823801606
 30
0.0
 11
892.4960257981002
 21
369.99993823801606
 31
0.0
  0
LINE
  5
249
330
17
100
AcDbEntity
  8
FP-Below
100
AcDbLine
 10
892.4960257981002
 20
431.4999382380306
 30
0.0
 11
892.4960257981002
 21
441.9999382380306
 31
0.0
  0
LINE
  5
24A
330
17
100
AcDbEntity
  8
FP-Below
100
AcDbLine
 10
892.4960257981002
 20
457.9999382380306
 30
0.0
 11
892.4960257981002
 21
449.9999382380306
 31
0.0
  0
LINE
  5
24B
330
17
100
AcDbEntity
  8
FP-Below
100
AcDbLine
 10
892.4960257981002
 20
457.9999382380306
 30
0.0
 11
894.4960257981002
 21
457.99993823802697
 31
0.0
  0
LINE
  5
24C
330
17
100
AcDbEntity
  8
FP-Below
100
AcDbLine
 10
892.6214240279514
 20
546.9999406175089
 30
0.0
 11
892.6214240279514
 21
540.4999406175089
 31
0.0
  0
LINE
  5
24D
330
17
100
AcDbEntity
  8
FP-Below
100
AcDbLine
 10
900.4960257980929
 20
343.9999358585378
 30
0.0
 11
1018.9960257980929
 21
343.9999358585378
 31
0.0
  0
LINE
  5
24E
330
17
100
AcDbEntity
  8
FP-Below
100
AcDbLine
 10
900.4960257980929
 20
343.9999358585378
 30
0.0
 11
900.4960257980929
 21
347.99993823802333
 31
0.0
  0
LINE
  5
24F
330
17
100
AcDbEntity
  8
FP-Below
100
AcDbLine
 10
900.4960257980929
 20
467.99994061750886
 30
0.0
 11
900.4960257980929
 21
463.99993823802333
 31
0.0
  0
LINE
  5
250
330
17
100
AcDbEntity
  8
FP-Below
100
AcDbLine
 10
1018.9960257980929
 20
467.99994061750886
 30
0.0
 11
900.4960257980929
 21
467.99994061750886
 31
0.0
  0
LINE
  5
251
330
17
100
AcDbEntity
  8
FP-Below
100
AcDbLine
 10
930.9973270438641
 20
115.42423857308631
 30
0.0
 11
900.9973270435803
 21
115.42423857308631
 31
0.0
  0
LINE
  5
252
330
17
100
AcDbEntity
  8
FP-Below
100
AcDbLine
 10
900.9973270435803
 20
115.42423857308631
 30
0.0
 11
900.9973270435803
 21
126.42423857308631
 31
0.0
  0
LINE
  5
253
330
17
100
AcDbEntity
  8
FP-Below
100
AcDbLine
 10
900.9973270435803
 20
126.42423857308631
 30
0.0
 11
919.9937981365438
 21
126.42423857308631
 31
0.0
  0
LWPOLYLINE
  5
254
330
17
100
AcDbEntity
  8
FP-Roof
100
AcDbPolyline
 90
2
 70
0
 10
1001.249144247311
 20
851.8332739046314
 10
900.999144247311
 20
952.0832739046314
  0
LWPOLYLINE
  5
255
330
17
100
AcDbEntity
  8
FP-Roof
100
AcDbPolyline
 90
2
 70
0
 10
1001.249144247311
 20
890.5832739040729
 10
900.999144247311
 20
990.833272691666
  0
LWPOLYLINE
  5
256
330
17
100
AcDbEntity
  8
FP-Note
100
AcDbPolyline
 90
4
 70
0
 10
909.3920542031192
 20
353.38763154384105
 10
909.3920688508606
 20
341.38763154385015
 10
911.392068850846
 20
341.38765595675613
 10
909.3920542031192
 20
353.38763154384105
  0
LINE
  5
257
330
17
100
AcDbEntity
  8
FP-Below
100
AcDbLine
 10
916.999144247311
 20
974.8332739497296
 30
0.0
 11
916.9991090145195
 21
936.083273950288
 31
0.0
  0
LINE
  5
258
330
17
100
AcDbEntity
  8
FP-Below
100
AcDbLine
 10
964.2553251706267
 20
974.8332739497296
 30
0.0
 11
916.999144247311
 21
974.8332739497296
 31
0.0
  0
LINE
  5
259
330
17
100
AcDbEntity
  8
FP-Below
100
AcDbLine
 10
919.9937981365438
 20
126.42423857308631
 30
0.0
 11
919.9948165094975
 21
175.49999361230084
 31
0.0
  0
LINE
  5
25A
330
17
100
AcDbEntity
  8
FP-Below
100
AcDbLine
 10
927.493744485706
 20
175.49999361230084
 30
0.0
 11
919.9937983343771
 21
175.49999361230084
 31
0.0
  0
LINE
  5
25B
330
17
100
AcDbEntity
  8
FP-Below
100
AcDbLine
 10
927.9956227954535
 20
175.49999361229993
 30
0.0
 11
919.995545072652
 21
175.49999361229993
 31
0.0
  0
LINE
  5
25C
330
17
100
AcDbEntity
  8
FP-Below
100
AcDbLine
 10
919.995545072652
 20
205.49999361229993
 30
0.0
 11
919.995545072652
 21
253.49999361229993
 31
0.0
  0
LINE
  5
25D
330
17
100
AcDbEntity
  8
FP-Below
100
AcDbLine
 10
927.9960114094974
 20
205.49999361230175
 30
0.0
 11
919.9955450726557
 21
205.49999361230084
 31
0.0
  0
LINE
  5
25E
330
17
100
AcDbEntity
  8
FP-Below
100
AcDbLine
 10
921.4991090145195
 20
925.083273950288
 30
0.0
 11
921.4991090145195
 21
637.0832739508373
 31
0.0
  0
LINE
  5
25F
330
17
100
AcDbEntity
  8
FP-Below
100
AcDbLine
 10
927.9955073023793
 20
169.49999361230175
 30
0.0
 11
927.9956605657117
 21
175.49999361230175
 31
0.0
  0
LINE
  5
260
330
17
100
AcDbEntity
  8
FP-Below
100
AcDbLine
 10
946.7930298495703
 20
169.49999361230084
 30
0.0
 11
927.9955073146448
 21
169.5004737741251
 31
0.0
  0
LINE
  5
261
330
17
100
AcDbEntity
  8
FP-Below
100
AcDbLine
 10
927.9955450726411
 20
169.49999361230175
 30
0.0
 11
927.9956227954499
 21
175.49999361230084
 31
0.0
  0
LINE
  5
262
330
17
100
AcDbEntity
  8
FP-Below
100
AcDbLine
 10
927.9960114094974
 20
205.49999361230175
 30
0.0
 11
927.9966331919677
 21
253.49999361230084
 31
0.0
  0
LINE
  5
263
330
17
100
AcDbEntity
  8
FP-Below
100
AcDbLine
 10
927.9966331919677
 20
253.49999361230084
 30
0.0
 11
995.9948512209776
 21
253.49999361230084
 31
0.0
  0
LINE
  5
264
330
17
100
AcDbEntity
  8
FP-Below
100
AcDbLine
 10
927.9991090145195
 20
763.8332374643792
 30
0.0
 11
927.9991090145195
 21
631.583273950841
 31
0.0
  0
LINE
  5
265
330
17
100
AcDbEntity
  8
FP-Below
100
AcDbLine
 10
927.9991090145195
 20
631.583273950841
 30
0.0
 11
1110.502530369522
 21
631.583273950841
 31
0.0
  0
LINE
  5
266
330
17
100
AcDbEntity
  8
FP-Below
100
AcDbLine
 10
1005.9991087299604
 20
763.8332374643792
 30
0.0
 11
927.9991090145195
 21
763.8332374643792
 31
0.0
  0
LINE
  5
267
330
17
100
AcDbEntity
  8
FP-Below
100
AcDbLine
 10
927.9991090145195
 20
771.8332739497314
 30
0.0
 11
1005.9991087299604
 21
771.8331918644103
 31
0.0
  0
LINE
  5
268
330
17
100
AcDbEntity
  8
FP-Below
100
AcDbLine
 10
927.9991090145195
 20
963.8332739497296
 30
0.0
 11
927.9991090145195
 21
771.8332739497314
 31
0.0
  0
LINE
  5
269
330
17
100
AcDbEntity
  8
FP-Below
100
AcDbLine
 10
927.9991090145195
 20
963.8332739497296
 30
0.0
 11
964.2553251706195
 21
963.8332739497296
 31
0.0
  0
LINE
  5
26A
330
17
100
AcDbEntity
  8
FP-Below
100
AcDbLine
 10
928.6214240279442
 20
540.4999406175089
 30
0.0
 11
945.9955803053526
 21
540.4999406175089
 31
0.0
  0
LINE
  5
26B
330
17
100
AcDbEntity
  8
FP-Below
100
AcDbLine
 10
928.6214240279442
 20
546.9999406175089
 30
0.0
 11
928.6214240279442
 21
540.4999406175089
 31
0.0
  0
LINE
  5
26C
330
17
100
AcDbEntity
  8
FP-Below
100
AcDbLine
 10
928.6214240279442
 20
546.9999406175089
 30
0.0
 11
952.4955803053526
 21
546.9999406175089
 31
0.0
  0
LINE
  5
26D
330
17
100
AcDbEntity
  8
FP-Below
100
AcDbLine
 10
930.9973270438641
 20
115.42423857308631
 30
0.0
 11
930.9973270435439
 21
158.49999361230084
 31
0.0
  0
LINE
  5
26E
330
17
100
AcDbEntity
  8
FP-Below
100
AcDbLine
 10
930.9973270435439
 20
158.49999361230084
 30
0.0
 11
946.7930298495703
 21
158.49999361230084
 31
0.0
  0
LWPOLYLINE
  5
26F
330
17
100
AcDbEntity
  8
FP-Roof
100
AcDbPolyline
 90
3
 70
0
 10
1221.9972444674913
 20
769.817851453792
 10
1221.9972444674913
 20
990.8332739497296
 10
931.4948136490566
 20
990.8332739497296
  0
LWPOLYLINE
  5
270
330
17
100
AcDbEntity
  8
FP-Above
100
AcDbPolyline
 90
4
 70
1
 38
-0.3403031765569822
 10
945.9471317981443
 20
945.8338371550849
 10
1177.0022852008333
 20
945.8338371550849
 10
1177.0022852008333
 20
789.8338371550849
 10
945.9471317981443
 20
789.8338371550849
  0
LINE
  5
271
330
17
100
AcDbEntity
  8
FP-Below
100
AcDbLine
 10
945.9955803053526
 20
540.4999406175089
 30
0.0
 11
945.9955803053526
 21
474.49994061750886
 31
0.0
  0
LINE
  5
272
330
17
100
AcDbEntity
  8
FP-Below
100
AcDbLine
 10
946.7930298495703
 20
169.49999361230084
 30
0.0
 11
946.7930298495703
 21
158.49999361230084
 31
0.0
  0
LWPOLYLINE
  5
273
330
17
100
AcDbEntity
  8
FP-Roof
100
AcDbPolyline
 90
3
 70
0
 10
946.9973270439004
 20
142.49999361229993
 10
1221.9972444674913
 20
142.49999361229993
 10
1221.9972444674913
 20
175.84551554164136
  0
LINE
  5
274
330
17
100
AcDbEntity
  8
FP-Below
100
AcDbLine
 10
952.4955803053526
 20
540.4999406175089
 30
0.0
 11
952.4955803053526
 21
474.49994061750886
 31
0.0
  0
LINE
  5
275
330
17
100
AcDbEntity
  8
FP-Below
100
AcDbLine
 10
952.4955803053526
 20
474.49994061750886
 30
0.0
 11
1018.9960257980929
 21
474.49994061750886
 31
0.0
  0
LINE
  5
276
330
17
100
AcDbEntity
  8
FP-Below
100
AcDbLine
 10
952.4955803053526
 20
540.4999406175089
 30
0.0
 11
961.8787987376563
 21
540.5003561111412
 31
0.0
  0
LINE
  5
277
330
17
100
AcDbEntity
  8
FP-Below
100
AcDbLine
 10
952.4955803053526
 20
546.9999406175089
 30
0.0
 11
961.8787987376563
 21
547.0003561111412
 31
0.0
  0
LINE
  5
278
330
17
100
AcDbEntity
  8
FP-Below
100
AcDbLine
 10
961.8787987376563
 20
547.0003561111412
 30
0.0
 11
961.8787987376563
 21
540.5003561111412
 31
0.0
  0
LINE
  5
279
330
17
100
AcDbEntity
  8
FP-Below
100
AcDbLine
 10
964.2553251706195
 20
963.833273949775
 30
0.0
 11
964.2553251706267
 21
974.833273949775
 31
0.0
  0
LINE
  5
27A
330
17
100
AcDbEntity
  8
FP-Below
100
AcDbLine
 10
982.7930298495703
 20
169.49999361230084
 30
0.0
 11
982.7930298495703
 21
158.49999361230084
 31
0.0
  0
LINE
  5
27B
330
17
100
AcDbEntity
  8
FP-Below
100
AcDbLine
 10
982.7930298495703
 20
158.49999361230084
 30
0.0
 11
1025.4973270436094
 21
158.49999361230175
 31
0.0
  0
LINE
  5
27C
330
17
100
AcDbEntity
  8
FP-Below
100
AcDbLine
 10
982.7930298495703
 20
169.49999361230084
 30
0.0
 11
989.4955450725538
 21
169.49999361230084
 31
0.0
  0
LINE
  5
27D
330
17
100
AcDbEntity
  8
FP-Below
100
AcDbLine
 10
995.9953918092215
 20
175.49999361230812
 30
0.0
 11
989.4863492510704
 21
175.499993621032
 31
0.0
  0
LINE
  5
27E
330
17
100
AcDbEntity
  8
FP-Below
100
AcDbLine
 10
989.4955450725538
 20
169.49999361230084
 30
0.0
 11
989.4955450725538
 21
175.49999362102108
 31
0.0
  0
LWPOLYLINE
  5
27F
330
17
100
AcDbEntity
  8
FP-Note
100
AcDbPolyline
 90
4
 70
0
 10
993.5331227400475
 20
518.2681220422546
 10
1005.5331227400384
 20
518.2681073945118
 10
1005.5330983271324
 20
516.2681073945269
 10
993.5331227400475
 20
518.2681220422546
  0
LINE
  5
280
330
17
100
AcDbEntity
  8
FP-Below
100
AcDbLine
 10
1002.4953918092142
 20
331.4999358585378
 30
0.0
 11
995.9863492510631
 21
331.4999358498103
 31
0.0
  0
LINE
  5
281
330
17
100
AcDbEntity
  8
FP-Below
100
AcDbLine
 10
995.993763101651
 20
205.4999936210138
 30
0.0
 11
995.9948512209776
 21
253.48976627372258
 31
0.0
  0
LINE
  5
282
330
17
100
AcDbEntity
  8
FP-Below
100
AcDbLine
 10
995.993763101651
 20
205.4999936210138
 30
0.0
 11
997.993763101651
 21
205.4999936210138
 31
0.0
  0
LINE
  5
283
330
17
100
AcDbEntity
  8
FP-Below
100
AcDbLine
 10
995.9948512209776
 20
259.9897313485221
 30
0.0
 11
995.993763101651
 21
301.49993584982485
 31
0.0
  0
LINE
  5
284
330
17
100
AcDbEntity
  8
FP-Below
100
AcDbLine
 10
995.993763101651
 20
301.49993584982485
 30
0.0
 11
997.993763101651
 21
301.49993584982485
 31
0.0
  0
LINE
  5
285
330
17
100
AcDbEntity
  8
FP-Below
100
AcDbLine
 10
995.9955450725538
 20
169.49999361230084
 30
0.0
 11
1025.4973270436094
 21
169.49999361229993
 31
0.0
  0
LINE
  5
286
330
17
100
AcDbEntity
  8
FP-Below
100
AcDbLine
 10
995.9955450725538
 20
169.49999361230084
 30
0.0
 11
995.9955450725538
 21
175.49999361230812
 31
0.0
  0
LINE
  5
287
330
17
100
AcDbEntity
  8
FP-Below
100
AcDbLine
 10
995.9955450725538
 20
331.4907400283232
 30
0.0
 11
995.9955450725538
 21
337.4999358585378
 31
0.0
  0
LWPOLYLINE
  5
288
330
17
100
AcDbEntity
  8
FP-Note
100
AcDbPolyline
 90
4
 70
0
 10
996.0063949876985
 20
204.84696211801474
 10
996.0064096354399
 20
192.84696211802384
 10
1016.0064096354254
 20
192.84698653092983
 10
996.0063949876985
 20
204.84696211801474
  0
LINE
  5
289
330
17
100
AcDbEntity
  8
FP-Below
100
AcDbLine
 10
997.8787987184405
 20
540.4999406175089
 30
0.0
 11
1018.9960257980929
 21
540.4999406175089
 31
0.0
  0
LINE
  5
28A
330
17
100
AcDbEntity
  8
FP-Below
100
AcDbLine
 10
997.8787987184405
 20
546.9999406175089
 30
0.0
 11
997.8787987184405
 21
540.4999406175089
 31
0.0
  0
LINE
  5
28B
330
17
100
AcDbEntity
  8
FP-Below
100
AcDbLine
 10
997.8787987184405
 20
546.9999406175089
 30
0.0
 11
1014.5004454927548
 21
546.9999406175089
 31
0.0
  0
LINE
  5
28C
330
17
100
AcDbEntity
  8
FP-Below
100
AcDbLine
 10
997.993763101651
 20
205.4999936210138
 30
0.0
 11
997.993763101651
 21
233.4999936210138
 31
0.0
  0
LINE
  5
28D
330
17
100
AcDbEntity
  8
FP-Below
100
AcDbLine
 10
997.993763101651
 20
233.4999936210138
 30
0.0
 11
1000.493763101651
 21
233.4999936210138
 31
0.0
  0
LINE
  5
28E
330
17
100
AcDbEntity
  8
FP-Below
100
AcDbLine
 10
997.993763101651
 20
301.49993584982485
 30
0.0
 11
997.993763101651
 21
273.49993584982485
 31
0.0
  0
LINE
  5
28F
330
17
100
AcDbEntity
  8
FP-Below
100
AcDbLine
 10
997.993763101651
 20
273.49993584982485
 30
0.0
 11
1000.493763101651
 21
273.49993584982485
 31
0.0
  0
LINE
  5
290
330
17
100
AcDbEntity
  8
FP-Below
100
AcDbLine
 10
1000.493763101651
 20
205.4999936210138
 30
0.0
 11
1002.493763101651
 21
205.4999936210138
 31
0.0
  0
LINE
  5
291
330
17
100
AcDbEntity
  8
FP-Below
100
AcDbLine
 10
1000.493763101651
 20
233.4999936210138
 30
0.0
 11
1000.493763101651
 21
205.4999936210138
 31
0.0
  0
LINE
  5
292
330
17
100
AcDbEntity
  8
FP-Below
100
AcDbLine
 10
1000.493763101651
 20
273.49993584982485
 30
0.0
 11
1000.493763101651
 21
301.49993584982485
 31
0.0
  0
LINE
  5
293
330
17
100
AcDbEntity
  8
FP-Below
100
AcDbLine
 10
1000.493763101651
 20
301.49993584982485
 30
0.0
 11
1002.493763101651
 21
301.49993584982485
 31
0.0
  0
LWPOLYLINE
  5
294
330
17
100
AcDbEntity
  8
FP-Roof Detail
100
AcDbPolyline
 90
2
 70
0
 10
1001.249144247311
 20
851.8332739502889
 10
1061.5004631091633
 20
791.581955088436
  0
LWPOLYLINE
  5
295
330
17
100
AcDbEntity
  8
FP-Roof Detail
100
AcDbPolyline
 90
2
 70
0
 10
1001.249144247311
 20
890.5832739497296
 10
1061.5004631091633
 20
830.3319550878766
  0
LINE
  5
296
330
17
100
AcDbEntity
  8
FP-Below
100
AcDbLine
 10
1016.493763101651
 20
223.49993585854145
 30
0.0
 11
1002.4897352098487
 21
223.49993585854145
 31
0.0
  0
LINE
  5
297
330
17
100
AcDbEntity
  8
FP-Below
100
AcDbLine
 10
1016.493763101651
 20
283.49993585854145
 30
0.0
 11
1002.4919418506834
 21
283.49993585854145
 31
0.0
  0
LINE
  5
298
330
17
100
AcDbEntity
  8
FP-Below
100
AcDbLine
 10
1002.493763101651
 20
205.4999936210138
 30
0.0
 11
1002.493763101651
 21
223.49993585854145
 31
0.0
  0
LINE
  5
299
330
17
100
AcDbEntity
  8
FP-Below
100
AcDbLine
 10
1002.493763101651
 20
235.49993585854145
 30
0.0
 11
1002.493763101651
 21
271.49993585854145
 31
0.0
  0
LINE
  5
29A
330
17
100
AcDbEntity
  8
FP-Below
100
AcDbLine
 10
1016.493763101651
 20
235.49993585854145
 30
0.0
 11
1002.493763101651
 21
235.49993585854145
 31
0.0
  0
LINE
  5
29B
330
17
100
AcDbEntity
  8
FP-Below
100
AcDbLine
 10
1016.493763101651
 20
271.49993585854145
 30
0.0
 11
1002.493763101651
 21
271.49993585854145
 31
0.0
  0
LINE
  5
29C
330
17
100
AcDbEntity
  8
FP-Below
100
AcDbLine
 10
1002.493763101651
 20
283.49993585854145
 30
0.0
 11
1002.493763101651
 21
301.4999358585378
 31
0.0
  0
LINE
  5
29D
330
17
100
AcDbEntity
  8
FP-Below
100
AcDbLine
 10
1002.4955450725538
 20
331.4999358585378
 30
0.0
 11
1002.4955450725538
 21
337.4999358585378
 31
0.0
  0
LINE
  5
29E
330
17
100
AcDbEntity
  8
FP-Below
100
AcDbLine
 10
1002.4955450725538
 20
337.4999358585378
 30
0.0
 11
1045.496074163104
 21
337.4999358585387
 31
0.0
  0
LINE
  5
29F
330
17
100
AcDbEntity
  8
FP-Below
100
AcDbLine
 10
1125.002530369522
 20
771.8332942400971
 30
0.0
 11
1005.9991090145195
 21
771.8331918644103
 31
0.0
  0
LINE
  5
2A0
330
17
100
AcDbEntity
  8
FP-Below
100
AcDbLine
 10
1110.5025303695256
 20
763.8339933010188
 30
0.0
 11
1005.9991090145231
 21
763.8336364293996
 31
0.0
  0
LINE
  5
2A1
330
17
100
AcDbEntity
  8
FP-Below
100
AcDbLine
 10
1014.5004454927548
 20
546.9999406175052
 30
0.0
 11
1014.5004454927548
 21
554.9999406175052
 31
0.0
  0
LINE
  5
2A2
330
17
100
AcDbEntity
  8
FP-Below
100
AcDbLine
 10
1014.5004454927548
 20
554.9999406175052
 30
0.0
 11
1022.5004454927548
 21
554.9999406175052
 31
0.0
  0
LINE
  5
2A3
330
17
100
AcDbEntity
  8
FP-Below
100
AcDbLine
 10
1014.5004454927548
 20
617.083273950841
 30
0.0
 11
1022.5004454927548
 21
617.083273950841
 31
0.0
  0
LINE
  5
2A4
330
17
100
AcDbEntity
  8
FP-Below
100
AcDbLine
 10
1014.5004454927548
 20
617.083273950841
 30
0.0
 11
1014.5004454927548
 21
625.083273950841
 31
0.0
  0
LINE
  5
2A5
330
17
100
AcDbEntity
  8
FP-Below
100
AcDbLine
 10
1016.493763101651
 20
235.49993585854145
 30
0.0
 11
1016.493763101651
 21
223.49993585854145
 31
0.0
  0
LINE
  5
2A6
330
17
100
AcDbEntity
  8
FP-Below
100
AcDbLine
 10
1016.493763101651
 20
271.49993585854145
 30
0.0
 11
1016.493763101651
 21
283.49993585854145
 31
0.0
  0
LINE
  5
2A7
330
17
100
AcDbEntity
  8
FP-Below
100
AcDbLine
 10
1018.9960257980929
 20
343.9999358585378
 30
0.0
 11
1018.9960257980929
 21
375.99993823802333
 31
0.0
  0
LINE
  5
2A8
330
17
100
AcDbEntity
  8
FP-Below
100
AcDbLine
 10
1018.9960257980929
 20
375.99993823802333
 30
0.0
 11
1020.9960257980929
 21
375.99993823802333
 31
0.0
  0
LINE
  5
2A9
330
17
100
AcDbEntity
  8
FP-Below
100
AcDbLine
 10
1018.9960257980929
 20
467.99994061750886
 30
0.0
 11
1018.9960257980929
 21
435.99993823802333
 31
0.0
  0
LINE
  5
2AA
330
17
100
AcDbEntity
  8
FP-Below
100
AcDbLine
 10
1018.9960257980929
 20
435.99993823802333
 30
0.0
 11
1020.9960257980929
 21
435.99993823802333
 31
0.0
  0
LINE
  5
2AB
330
17
100
AcDbEntity
  8
FP-Below
100
AcDbLine
 10
1018.9960257980929
 20
540.4999406175089
 30
0.0
 11
1018.9960257980929
 21
474.49994061750886
 31
0.0
  0
LWPOLYLINE
  5
2AC
330
17
100
AcDbEntity
  8
FP-Above
100
AcDbPolyline
 90
4
 70
1
 38
-0.3403031765569822
 10
1176.9981827963275
 20
319.5004990638913
 10
1020.493763101651
 20
319.5004990638913
 10
1020.493763101651
 20
187.50055681765434
 10
1176.9981827963275
 20
187.50055681765434
  0
LINE
  5
2AD
330
17
100
AcDbEntity
  8
FP-Below
100
AcDbLine
 10
1020.9960257980929
 20
375.99993823802333
 30
0.0
 11
1020.9960257980929
 21
347.99993823802333
 31
0.0
  0
LINE
  5
2AE
330
17
100
AcDbEntity
  8
FP-Below
100
AcDbLine
 10
1020.9960257980929
 20
347.99993823802333
 30
0.0
 11
1023.4960257980929
 21
347.99993823802333
 31
0.0
  0
LINE
  5
2AF
330
17
100
AcDbEntity
  8
FP-Below
100
AcDbLine
 10
1020.9960257980929
 20
435.99993823802333
 30
0.0
 11
1020.9960257980929
 21
463.99993823802333
 31
0.0
  0
LINE
  5
2B0
330
17
100
AcDbEntity
  8
FP-Below
100
AcDbLine
 10
1020.9960257980929
 20
463.99993823802333
 30
0.0
 11
1023.4960257980929
 21
463.99993823802333
 31
0.0
  0
LINE
  5
2B1
330
17
100
AcDbEntity
  8
FP-Below
100
AcDbLine
 10
1022.5004454927548
 20
546.9999406175052
 30
0.0
 11
1022.5004454927548
 21
554.9999406175052
 31
0.0
  0
LINE
  5
2B2
330
17
100
AcDbEntity
  8
FP-Below
100
AcDbLine
 10
1022.5004454927548
 20
617.083273950841
 30
0.0
 11
1022.5004454927548
 21
625.083273950841
 31
0.0
  0
LINE
  5
2B3
330
17
100
AcDbEntity
  8
FP-Below
100
AcDbLine
 10
1022.5004454927548
 20
625.083273950841
 30
0.0
 11
1100.5004454927548
 21
625.083273950841
 31
0.0
  0
LINE
  5
2B4
330
17
100
AcDbEntity
  8
FP-Below
100
AcDbLine
 10
1031.4986364553952
 20
547.0086456008289
 30
0.0
 11
1022.5017186561017
 21
547.008342031881
 31
0.0
  0
LWPOLYLINE
  5
2B5
330
17
100
AcDbEntity
  8
FP-Note
100
AcDbPolyline
 90
4
 70
0
 10
1034.9739876659896
 20
842.701575192684
 10
1022.9739876659987
 20
842.7015605449426
 10
1022.9740120789047
 20
840.7015605449571
 10
1034.9739876659896
 20
842.701575192684
  0
LINE
  5
2B6
330
17
100
AcDbEntity
  8
FP-Below
100
AcDbLine
 10
1023.4960257980929
 20
347.99993823802333
 30
0.0
 11
1023.4960257980929
 21
375.99993823802333
 31
0.0
  0
LINE
  5
2B7
330
17
100
AcDbEntity
  8
FP-Below
100
AcDbLine
 10
1023.4960257980929
 20
375.99993823802333
 30
0.0
 11
1025.496025798093
 21
375.99993823802333
 31
0.0
  0
LINE
  5
2B8
330
17
100
AcDbEntity
  8
FP-Below
100
AcDbLine
 10
1023.4960257980929
 20
435.99993823802333
 30
0.0
 11
1025.496025798093
 21
435.99993823802333
 31
0.0
  0
LINE
  5
2B9
330
17
100
AcDbEntity
  8
FP-Below
100
AcDbLine
 10
1023.4960257980929
 20
463.99993823802333
 30
0.0
 11
1023.4960257980929
 21
435.99993823802333
 31
0.0
  0
LINE
  5
2BA
330
17
100
AcDbEntity
  8
FP-Below
100
AcDbLine
 10
1025.496025798093
 20
343.9999358585369
 30
0.0
 11
1045.496074163104
 21
343.9999358585378
 31
0.0
  0
LINE
  5
2BB
330
17
100
AcDbEntity
  8
FP-Below
100
AcDbLine
 10
1025.496025798093
 20
343.9999358585378
 30
0.0
 11
1045.496074163104
 21
343.9999358585378
 31
0.0
  0
LINE
  5
2BC
330
17
100
AcDbEntity
  8
FP-Below
100
AcDbLine
 10
1025.496025798093
 20
343.9999358585378
 30
0.0
 11
1025.496025798093
 21
375.99993823802333
 31
0.0
  0
LINE
  5
2BD
330
17
100
AcDbEntity
  8
FP-Below
100
AcDbLine
 10
1025.496025798093
 20
539.0137434199364
 30
0.0
 11
1025.496025798093
 21
435.99993823802333
 31
0.0
  0
LINE
  5
2BE
330
17
100
AcDbEntity
  8
FP-Below
100
AcDbLine
 10
1025.4973270436094
 20
158.49999361230084
 30
0.0
 11
1025.4973270436094
 21
169.49999361230084
 31
0.0
  0
LINE
  5
2BF
330
17
100
AcDbEntity
  8
FP-Below
100
AcDbLine
 10
1031.4986364553952
 20
539.0070588854646
 30
0.0
 11
1025.498647829143
 21
539.006452333841
 31
0.0
  0
LINE
  5
2C0
330
17
100
AcDbEntity
  8
FP-Below
100
AcDbLine
 10
1031.4986364553952
 20
539.0070588854637
 30
0.0
 11
1031.4986364553952
 21
547.0086456008289
 31
0.0
  0
LINE
  5
2C1
330
17
100
AcDbEntity
  8
FP-Below
100
AcDbLine
 10
1036.2414221097424
 20
963.8332739497296
 30
0.0
 11
1086.7550671914723
 21
963.8332739497296
 31
0.0
  0
LINE
  5
2C2
330
17
100
AcDbEntity
  8
FP-Below
100
AcDbLine
 10
1036.2458942596277
 20
963.833273949775
 30
0.0
 11
1036.2458942596277
 21
974.833273949775
 31
0.0
  0
LINE
  5
2C3
330
17
100
AcDbEntity
  8
FP-Below
100
AcDbLine
 10
1036.2458942596277
 20
974.833273949775
 30
0.0
 11
1086.7598002633677
 21
974.833273949775
 31
0.0
  0
LINE
  5
2C4
330
17
100
AcDbEntity
  8
FP-Below
100
AcDbLine
 10
1045.496074163104
 20
337.4999358585378
 30
0.0
 11
1045.496074163104
 21
343.9999358585378
 31
0.0
  0
LWPOLYLINE
  5
2C5
330
17
100
AcDbEntity
  8
FP-Note
100
AcDbPolyline
 90
4
 70
0
 38
-0.3403031765569822
 10
1050.0293633653764
 20
910.391913356204
 10
1050.0293780131178
 20
922.3919133561949
 10
1070.0293780131033
 20
922.3918889432889
 10
1050.0293633653764
 20
910.391913356204
  0
LWPOLYLINE
  5
2C6
330
17
100
AcDbEntity
  8
FP-Roof Detail
100
AcDbPolyline
 90
2
 70
0
 10
1061.5004631091633
 20
830.3319550878766
 10
1061.5004631091633
 20
791.581955088436
  0
LWPOLYLINE
  5
2C7
330
17
100
AcDbEntity
  8
FP-Roof Detail
100
AcDbPolyline
 90
2
 70
0
 10
1121.7517819710174
 20
890.5832739497296
 10
1061.5004631091633
 20
830.3319550878764
  0
LWPOLYLINE
  5
2C8
330
17
100
AcDbEntity
  8
FP-Note
100
AcDbPolyline
 90
4
 70
0
 10
1061.7173111123593
 20
860.6530257906993
 10
1061.7173257601007
 20
872.6530257906902
 10
1063.7173257600862
 20
872.6530013777842
 10
1061.7173111123593
 20
860.6530257906993
  0
LINE
  5
2C9
330
17
100
AcDbEntity
  8
FP-Below
100
AcDbLine
 10
1077.4892299339226
 20
337.4999358585378
 30
0.0
 11
1124.6366874759042
 21
337.4999358585378
 31
0.0
  0
LINE
  5
2CA
330
17
100
AcDbEntity
  8
FP-Below
100
AcDbLine
 10
1077.496074163104
 20
337.4999358585378
 30
0.0
 11
1077.496074163104
 21
343.9999358585378
 31
0.0
  0
LINE
  5
2CB
330
17
100
AcDbEntity
  8
FP-Below
100
AcDbLine
 10
1077.496074163104
 20
343.9999358585378
 30
0.0
 11
1097.4978077690685
 21
343.9999358585378
 31
0.0
  0
LINE
  5
2CC
330
17
100
AcDbEntity
  8
FP-Below
100
AcDbLine
 10
1086.7598002633677
 20
963.8332739497296
 30
0.0
 11
1086.7598002633677
 21
974.8332739497296
 31
0.0
  0
LINE
  5
2CD
330
17
100
AcDbEntity
  8
FP-Below
100
AcDbLine
 10
1091.500514134208
 20
539.0131246030137
 30
0.0
 11
1091.5005141342008
 21
547.0131246438946
 31
0.0
  0
LINE
  5
2CE
330
17
100
AcDbEntity
  8
FP-Below
100
AcDbLine
 10
1100.5017186560945
 20
547.0140345948207
 30
0.0
 11
1091.5005141342008
 21
547.0131246438946
 31
0.0
  0
LINE
  5
2CF
330
17
100
AcDbEntity
  8
FP-Below
100
AcDbLine
 10
1097.5004174106434
 20
539.0137311460098
 30
0.0
 11
1091.5005141342044
 21
539.0131246030137
 31
0.0
  0
LINE
  5
2D0
330
17
100
AcDbEntity
  8
FP-Below
100
AcDbLine
 10
1097.4973270436094
 20
158.49999361230084
 30
0.0
 11
1139.9999994312384
 21
158.49999361230084
 31
0.0
  0
LINE
  5
2D1
330
17
100
AcDbEntity
  8
FP-Below
100
AcDbLine
 10
1097.4973270436094
 20
158.49999361230084
 30
0.0
 11
1097.4973270436094
 21
169.49999361230084
 31
0.0
  0
LINE
  5
2D2
330
17
100
AcDbEntity
  8
FP-Below
100
AcDbLine
 10
1097.4973270436094
 20
169.49999361230084
 30
0.0
 11
1139.9999994312384
 21
169.49999361230084
 31
0.0
  0
LINE
  5
2D3
330
17
100
AcDbEntity
  8
FP-Below
100
AcDbLine
 10
1097.4978077690685
 20
538.9999406175089
 30
0.0
 11
1097.4978077690685
 21
343.9999358585378
 31
0.0
  0
LINE
  5
2D4
330
17
100
AcDbEntity
  8
FP-Below
100
AcDbLine
 10
1100.5004454927548
 20
546.9999406175089
 30
0.0
 11
1100.5004454927548
 21
554.9999406175052
 31
0.0
  0
LINE
  5
2D5
330
17
100
AcDbEntity
  8
FP-Below
100
AcDbLine
 10
1108.5004454927548
 20
554.9999406175052
 30
0.0
 11
1100.5004454927548
 21
554.9999406175052
 31
0.0
  0
LINE
  5
2D6
330
17
100
AcDbEntity
  8
FP-Below
100
AcDbLine
 10
1108.5004454927548
 20
617.083273950841
 30
0.0
 11
1100.5004454927548
 21
617.083273950841
 31
0.0
  0
LINE
  5
2D7
330
17
100
AcDbEntity
  8
FP-Below
100
AcDbLine
 10
1100.5004454927548
 20
617.083273950841
 30
0.0
 11
1100.5004454927548
 21
625.083273950841
 31
0.0
  0
LINE
  5
2D8
330
17
100
AcDbEntity
  8
FP-Below
100
AcDbLine
 10
1103.9978077690685
 20
343.9999358585378
 30
0.0
 11
1124.6366874759042
 21
343.9999358585378
 31
0.0
  0
LINE
  5
2D9
330
17
100
AcDbEntity
  8
FP-Below
100
AcDbLine
 10
1103.9978077690685
 20
415.4999358585369
 30
0.0
 11
1103.9978077690685
 21
343.9999358585378
 31
0.0
  0
LINE
  5
2DA
330
17
100
AcDbEntity
  8
FP-Below
100
AcDbLine
 10
1195.0000000000073
 20
415.4999358585378
 30
0.0
 11
1103.9978077690685
 21
415.4999358585378
 31
0.0
  0
LINE
  5
2DB
330
17
100
AcDbEntity
  8
FP-Below
100
AcDbLine
 10
1188.4973270435512
 20
421.99991522798564
 30
0.0
 11
1108.498918106765
 21
421.99968101800596
 31
0.0
  0
LINE
  5
2DC
330
17
100
AcDbEntity
  8
FP-Below
100
AcDbLine
 10
1108.498918106765
 20
421.99968101800596
 30
0.0
 11
1108.498918106765
 21
521.999681018006
 31
0.0
  0
LINE
  5
2DD
330
17
100
AcDbEntity
  8
FP-Below
100
AcDbLine
 10
1108.498918106765
 20
521.999681018006
 30
0.0
 11
1108.5004454927548
 21
554.9999406175052
 31
0.0
  0
LINE
  5
2DE
330
17
100
AcDbEntity
  8
FP-Below
100
AcDbLine
 10
1108.5004454927548
 20
617.083273950841
 30
0.0
 11
1108.5004454927548
 21
625.083273950841
 31
0.0
  0
LINE
  5
2DF
330
17
100
AcDbEntity
  8
FP-Below
100
AcDbLine
 10
1108.5004454927548
 20
625.083273950841
 30
0.0
 11
1124.0049247348798
 21
625.083273950841
 31
0.0
  0
LINE
  5
2E0
330
17
100
AcDbEntity
  8
FP-Below
100
AcDbLine
 10
1110.502530369522
 20
631.583273950841
 30
0.0
 11
1110.5025303695238
 21
688.7085322104099
 31
0.0
  0
LINE
  5
2E1
330
17
100
AcDbEntity
  8
FP-Below
100
AcDbLine
 10
1110.5025303695238
 20
688.7085322104099
 30
0.0
 11
1117.002530369522
 21
688.7084962327795
 31
0.0
  0
LINE
  5
2E2
330
17
100
AcDbEntity
  8
FP-Below
100
AcDbLine
 10
1110.5025303695238
 20
730.7085563556934
 30
0.0
 11
1110.5025303695256
 21
763.8339933010188
 31
0.0
  0
LINE
  5
2E3
330
17
100
AcDbEntity
  8
FP-Below
100
AcDbLine
 10
1110.5025303695256
 20
730.7085563556934
 30
-0.2650308117562035
 11
1117.0025303695238
 21
730.7085535882766
 31
0.0
  0
LINE
  5
2E4
330
17
100
AcDbEntity
  8
FP-Below
100
AcDbLine
 10
1117.002530369522
 20
631.583273950841
 30
0.0
 11
1124.0049247348798
 21
631.583273950841
 31
0.0
  0
LINE
  5
2E5
330
17
100
AcDbEntity
  8
FP-Below
100
AcDbLine
 10
1117.002530369522
 20
631.583273950841
 30
0.0
 11
1117.0025303695238
 21
688.708529442993
 31
0.0
  0
LINE
  5
2E6
330
17
100
AcDbEntity
  8
FP-Below
100
AcDbLine
 10
1117.0025303695238
 20
730.7085535882766
 30
0.0
 11
1117.002530369522
 21
763.8337185147216
 31
0.0
  0
LINE
  5
2E7
330
17
100
AcDbEntity
  8
FP-Below
100
AcDbLine
 10
1125.002530369522
 20
763.8336729147491
 30
0.0
 11
1117.002530369522
 21
763.8337185147216
 31
0.0
  0
LWPOLYLINE
  5
2E8
330
17
100
AcDbEntity
  8
FP-Roof
100
AcDbPolyline
 90
2
 70
0
 10
1121.7472444674913
 20
242.74999361229993
 10
1221.9972444674913
 20
142.49999361229902
  0
LWPOLYLINE
  5
2E9
330
17
100
AcDbEntity
  8
FP-Roof
100
AcDbPolyline
 90
2
 70
0
 10
1121.7472444674913
 20
890.5832739497305
 10
1221.9972444674913
 20
990.8332739497314
  0
LINE
  5
2EA
330
17
100
AcDbEntity
  8
FP-Below
100
AcDbLine
 10
1124.0049247348798
 20
631.583273950841
 30
0.0
 11
1124.0049247348798
 21
625.083273950841
 31
0.0
  0
LINE
  5
2EB
330
17
100
AcDbEntity
  8
FP-Below
100
AcDbLine
 10
1124.6366874759042
 20
343.9999358585378
 30
0.0
 11
1124.6366874759042
 21
337.4999358585378
 31
0.0
  0
LINE
  5
2EC
330
17
100
AcDbEntity
  8
FP-Below
100
AcDbLine
 10
1125.002530369522
 20
763.8337185147216
 30
0.0
 11
1125.002530369522
 21
771.8332942400971
 31
0.0
  0
LWPOLYLINE
  5
2ED
330
17
100
AcDbEntity
  8
FP-Roof
100
AcDbPolyline
 90
3
 70
0
 10
1138.0179761587333
 20
685.8367452033758
 10
1136.76850733625
 20
637.2950507070632
 10
1138.0237115335494
 20
588.7487106498604
  0
LWPOLYLINE
  5
2EE
330
17
100
AcDbEntity
  8
FP-Roof Detail
100
AcDbPolyline
 90
2
 70
0
 10
1262.205646222088
 20
637.2907606309275
 10
1136.7685073982157
 20
637.2893880089346
  0
LWPOLYLINE
  5
2EF
330
17
100
AcDbEntity
  8
FP-Roof
100
AcDbPolyline
 90
4
 70
0
 10
1138.0179761587333
 20
685.8367452033758
 10
1310.7473270437622
 20
685.8324414526019
 10
1310.7473270437622
 20
588.7490798092535
 10
1138.0237115335494
 20
588.7487106498604
  0
LWPOLYLINE
  5
2F0
330
17
100
AcDbEntity
  8
FP-Roof
100
AcDbPolyline
 90
2
 70
0
 10
1138.0179761587333
 20
685.8367452033758
 10
1221.9972444674913
 20
769.817851453792
  0
LWPOLYLINE
  5
2F1
330
17
100
AcDbEntity
  8
FP-Roof
100
AcDbPolyline
 90
3
 70
0
 10
1198.3587499297337
 20
528.414992696871
 10
1138.0190385136193
 20
588.7533835675208
 10
1138.01903658622
 20
588.9295191456704
  0
LINE
  5
2F2
330
17
100
AcDbEntity
  8
FP-Below
100
AcDbLine
 10
1139.9999994312384
 20
158.49999361230084
 30
0.0
 11
1139.9999994312384
 21
169.49999361230084
 31
0.0
  0
LWPOLYLINE
  5
2F3
330
17
100
AcDbEntity
  8
FP-Note
100
AcDbPolyline
 90
4
 70
0
 10
1147.835674822929
 20
380.7458803391146
 10
1159.8356748229198
 20
380.74586569137773
 10
1159.8356504100248
 20
360.74586569139274
 10
1147.835674822929
 20
380.7458803391146
  0
LINE
  5
2F4
330
17
100
AcDbEntity
  8
FP-Below
100
AcDbLine
 10
1154.6366874759042
 20
337.4999358585378
 30
0.0
 11
1195.0000000000073
 21
337.4999358585378
 31
0.0
  0
LINE
  5
2F5
330
17
100
AcDbEntity
  8
FP-Below
100
AcDbLine
 10
1154.6366874759042
 20
337.4999358585378
 30
0.0
 11
1154.6366874759042
 21
339.4999358585378
 31
0.0
  0
LINE
  5
2F6
330
17
100
AcDbEntity
  8
FP-Below
100
AcDbLine
 10
1154.6366874759042
 20
339.4999358585378
 30
0.0
 11
1182.6366874759042
 21
339.4999358585378
 31
0.0
  0
LINE
  5
2F7
330
17
100
AcDbEntity
  8
FP-Below
100
AcDbLine
 10
1154.6366874759042
 20
341.9999358585378
 30
0.0
 11
1154.6366874759042
 21
343.9999358585378
 31
0.0
  0
LINE
  5
2F8
330
17
100
AcDbEntity
  8
FP-Below
100
AcDbLine
 10
1182.6366874759042
 20
341.9999358585378
 30
0.0
 11
1154.6366874759042
 21
341.9999358585378
 31
0.0
  0
LINE
  5
2F9
330
17
100
AcDbEntity
  8
FP-Below
100
AcDbLine
 10
1154.6366874759042
 20
343.9999358585378
 30
0.0
 11
1195.0000000000073
 21
343.9999358585378
 31
0.0
  0
LINE
  5
2FA
330
17
100
AcDbEntity
  8
FP-Below
100
AcDbLine
 10
1158.7503693523759
 20
963.8332739497296
 30
0.0
 11
1158.7503693523686
 21
974.8332739497296
 31
0.0
  0
LINE
  5
2FB
330
17
100
AcDbEntity
  8
FP-Below
100
AcDbLine
 10
1158.7503693523759
 20
963.8332739497296
 30
0.0
 11
1194.9964360580634
 21
963.8332739497296
 31
0.0
  0
LINE
  5
2FC
330
17
100
AcDbEntity
  8
FP-Below
100
AcDbLine
 10
1158.7506302743786
 20
974.8332739497296
 30
0.0
 11
1205.9972444674895
 21
974.8332739497296
 31
0.0
  0
LINE
  5
2FD
330
17
100
AcDbEntity
  8
FP-Below
100
AcDbLine
 10
1205.9964360580634
 20
158.49999361230084
 30
0.0
 11
1175.9999994312384
 21
158.49999361230084
 31
0.0
  0
LINE
  5
2FE
330
17
100
AcDbEntity
  8
FP-Below
100
AcDbLine
 10
1175.9999994312384
 20
169.49999361230084
 30
0.0
 11
1175.9999994312384
 21
158.49999361230084
 31
0.0
  0
LINE
  5
2FF
330
17
100
AcDbEntity
  8
FP-Below
100
AcDbLine
 10
1195.0000000000073
 20
169.49999361230084
 30
0.0
 11
1175.9999994312384
 21
169.49999361230084
 31
0.0
  0
LINE
  5
300
330
17
100
AcDbEntity
  8
FP-Below
100
AcDbLine
 10
1181.0023038150102
 20
831.8332739497314
 30
0.0
 11
1195.0063317068125
 21
831.8332739497314
 31
0.0
  0
LINE
  5
301
330
17
100
AcDbEntity
  8
FP-Below
100
AcDbLine
 10
1181.0023038150102
 20
849.8332739497314
 30
0.0
 11
1181.0023038150102
 21
831.8332739497314
 31
0.0
  0
LINE
  5
302
330
17
100
AcDbEntity
  8
FP-Below
100
AcDbLine
 10
1181.0023038150102
 20
849.8332739497314
 30
0.0
 11
1195.0023038150102
 21
849.8332739497314
 31
0.0
  0
LINE
  5
303
330
17
100
AcDbEntity
  8
FP-Below
100
AcDbLine
 10
1181.0023038150102
 20
885.8332739497314
 30
0.0
 11
1195.0023038150102
 21
885.8332739497314
 31
0.0
  0
LINE
  5
304
330
17
100
AcDbEntity
  8
FP-Below
100
AcDbLine
 10
1181.0023038150102
 20
885.8332739497314
 30
0.0
 11
1181.0023038150102
 21
903.8332739497314
 31
0.0
  0
LINE
  5
305
330
17
100
AcDbEntity
  8
FP-Below
100
AcDbLine
 10
1181.0023038150102
 20
903.8332739497314
 30
0.0
 11
1195.0063317068125
 21
903.8332739497314
 31
0.0
  0
LWPOLYLINE
  5
306
330
17
100
AcDbEntity
  8
FP-Note
100
AcDbPolyline
 90
4
 70
0
 10
1182.3289168580886
 20
850.6602324053079
 10
1194.3289168580795
 20
850.660217757571
 10
1194.3288924451845
 20
830.660217757586
 10
1182.3289168580886
 20
850.6602324053079
  0
LINE
  5
307
330
17
100
AcDbEntity
  8
FP-Below
100
AcDbLine
 10
1182.6366874759042
 20
339.4999358585378
 30
0.0
 11
1182.6366874759042
 21
341.9999358585378
 31
0.0
  0
LINE
  5
308
330
17
100
AcDbEntity
  8
FP-Below
100
AcDbLine
 10
1195.0025303831499
 20
763.8332739149923
 30
0.0
 11
1186.9964360580707
 21
763.8333195497003
 31
0.0
  0
LINE
  5
309
330
17
100
AcDbEntity
  8
FP-Below
100
AcDbLine
 10
1186.9964360580707
 20
763.8333195497003
 30
0.0
 11
1186.9964360580707
 21
771.8332739497314
 31
0.0
  0
LINE
  5
30A
330
17
100
AcDbEntity
  8
FP-Below
100
AcDbLine
 10
1195.0022852008333
 20
771.8332739497314
 30
0.0
 11
1186.9964360580707
 21
771.8332739497314
 31
0.0
  0
LINE
  5
30B
330
17
100
AcDbEntity
  8
FP-Below
100
AcDbLine
 10
1188.0049247348725
 20
625.083273950841
 30
0.0
 11
1195.0000000000073
 21
625.083273950841
 31
0.0
  0
LINE
  5
30C
330
17
100
AcDbEntity
  8
FP-Below
100
AcDbLine
 10
1188.0049247348798
 20
631.583273950841
 30
0.0
 11
1188.0049247348798
 21
625.083273950841
 31
0.0
  0
LINE
  5
30D
330
17
100
AcDbEntity
  8
FP-Below
100
AcDbLine
 10
1188.0049247348798
 20
631.583273950841
 30
0.0
 11
1195.0073191002375
 21
631.583273950841
 31
0.0
  0
LINE
  5
30E
330
17
100
AcDbEntity
  8
FP-Below
100
AcDbLine
 10
1188.4973270435512
 20
421.99991522798564
 30
0.0
 11
1188.4973270435512
 21
542.9999358585378
 31
0.0
  0
LINE
  5
30F
330
17
100
AcDbEntity
  8
FP-Below
100
AcDbLine
 10
1188.4973270435512
 20
542.9999358585378
 30
0.0
 11
1195.0000000000073
 21
542.9999358585378
 31
0.0
  0
LINE
  5
310
330
17
100
AcDbEntity
  8
FP-Below
100
AcDbLine
 10
1191.9973270435512
 20
158.49999361230084
 30
0.0
 11
1191.9973270435512
 21
91.00008909854978
 31
0.0
  0
LINE
  5
311
330
17
100
AcDbEntity
  8
FP-Below
100
AcDbLine
 10
1191.9973270435512
 20
91.00008909854978
 30
0.0
 11
1240.7295730910628
 21
91.00008909854978
 31
0.0
  0
LINE
  5
312
330
17
100
AcDbEntity
  8
FP-Below
100
AcDbLine
 10
1201.5036056873432
 20
730.7084287690527
 30
0.0
 11
1194.9929073488966
 21
730.7084962327795
 31
0.0
  0
LINE
  5
313
330
17
100
AcDbEntity
  8
FP-Below
100
AcDbLine
 10
1194.9964008252718
 20
903.8332739497314
 30
0.0
 11
1194.9964008252718
 21
963.8332739497296
 31
0.0
  0
LINE
  5
314
330
17
100
AcDbEntity
  8
FP-Below
100
AcDbLine
 10
1195.0000000000073
 20
337.4999358585378
 30
0.0
 11
1195.0000000000073
 21
169.49999361230084
 31
0.0
  0
LINE
  5
315
330
17
100
AcDbEntity
  8
FP-Below
100
AcDbLine
 10
1195.0000000000073
 20
415.4999358585378
 30
0.0
 11
1195.0000000000073
 21
343.9999358585378
 31
0.0
  0
LINE
  5
316
330
17
100
AcDbEntity
  8
FP-Below
100
AcDbLine
 10
1195.0000000000073
 20
625.083273950841
 30
0.0
 11
1195.0000000000073
 21
542.9999358585378
 31
0.0
  0
LINE
  5
317
330
17
100
AcDbEntity
  8
FP-Below
100
AcDbLine
 10
1195.0022852008333
 20
771.8332739497314
 30
0.0
 11
1195.0004463334717
 21
831.8332739497323
 31
0.0
  0
LINE
  5
318
330
17
100
AcDbEntity
  8
FP-Below
100
AcDbLine
 10
1195.0023038150102
 20
849.8332739497314
 30
0.0
 11
1195.0023038150102
 21
885.8332739497314
 31
0.0
  0
LINE
  5
319
330
17
100
AcDbEntity
  8
FP-Below
100
AcDbLine
 10
1195.0044650180353
 20
730.7084962327795
 30
0.0
 11
1195.0025303831499
 21
763.8332739149923
 31
0.0
  0
LINE
  5
31A
330
17
100
AcDbEntity
  8
FP-Below
100
AcDbLine
 10
1195.0073191002375
 20
631.583273950841
 30
0.0
 11
1195.005384451717
 21
688.7084962327795
 31
0.0
  0
LINE
  5
31B
330
17
100
AcDbEntity
  8
FP-Below
100
AcDbLine
 10
1201.5036056873432
 20
688.7084287690527
 30
0.0
 11
1195.005384451717
 21
688.7084962327795
 31
0.0
  0
LINE
  5
31C
330
17
100
AcDbEntity
  8
FP-Roof
100
AcDbLine
 10
1198.3587499297337
 20
528.414992696871
 30
0.0
 11
1198.3592671856477
 21
376.2397242099041
 31
0.0
  0
LWPOLYLINE
  5
31D
330
17
100
AcDbEntity
  8
FP-Roof
100
AcDbPolyline
 90
2
 70
0
 10
1377.5120074085407
 20
526.1656473599289
 10
1198.3587499297337
 20
528.414992696871
  0
LWPOLYLINE
  5
31E
330
17
100
AcDbEntity
  8
FP-Roof
100
AcDbPolyline
 90
2
 70
0
 10
1198.3592671856477
 20
376.2397242099041
 10
1200.6098756442316
 20
197.23288436490066
  0
LWPOLYLINE
  5
31F
330
17
100
AcDbEntity
  8
FP-Roof
100
AcDbPolyline
 90
2
 70
0
 10
1221.9997368189215
 20
175.84302319021117
 10
1200.6098756442316
 20
197.23288436490066
  0
LINE
  5
320
330
17
100
AcDbEntity
  8
FP-Below
100
AcDbLine
 10
1201.5036056873432
 20
659.9932704303069
 30
0.0
 11
1201.5036056873432
 21
684.2085353337502
 31
0.0
  0
LINE
  5
321
330
17
100
AcDbEntity
  8
FP-Below
100
AcDbLine
 10
1201.5036056873432
 20
659.9932704303069
 30
0.0
 11
1276.3044603420713
 21
659.9960790487498
 31
0.0
  0
LINE
  5
322
330
17
100
AcDbEntity
  8
FP-Below
100
AcDbLine
 10
1225.5152892849728
 20
684.2085353337502
 30
0.0
 11
1201.5036056873432
 21
684.2085353337502
 31
0.0
  0
LINE
  5
323
330
17
100
AcDbEntity
  8
FP-Below
100
AcDbLine
 10
1201.5152892849874
 20
688.7084287690527
 30
0.0
 11
1225.5152892849728
 21
688.7085353337502
 31
0.0
  0
LINE
  5
324
330
17
100
AcDbEntity
  8
FP-Below
100
AcDbLine
 10
1201.5152892849874
 20
730.7084287690527
 30
0.0
 11
1225.5036130111985
 21
730.7084962327795
 31
0.0
  0
LINE
  5
325
330
17
100
AcDbEntity
  8
FP-Below
100
AcDbLine
 10
1251.7295730910628
 20
102.0000806826315
 30
0.0
 11
1202.9973129173013
 21
102.00005568387814
 31
0.0
  0
LINE
  5
326
330
17
100
AcDbEntity
  8
FP-Below
100
AcDbLine
 10
1202.9973129173013
 20
102.00005568387814
 30
0.0
 11
1202.9973129173013
 21
158.49999361230084
 31
0.0
  0
LINE
  5
327
330
17
100
AcDbEntity
  8
FP-Below
100
AcDbLine
 10
1205.9964360580634
 20
206.4999358585378
 30
0.0
 11
1202.9973270435512
 21
206.4999358585378
 31
0.0
  0
LINE
  5
328
330
17
100
AcDbEntity
  8
FP-Below
100
AcDbLine
 10
1202.9973270435512
 20
206.4999358585378
 30
0.0
 11
1202.9973270435512
 21
512.000831602993
 31
0.0
  0
LINE
  5
329
330
17
100
AcDbEntity
  8
FP-Below
100
AcDbLine
 10
1377.093348963026
 20
512.000831602993
 30
0.0
 11
1202.9973270435512
 21
512.000831602993
 31
0.0
  0
LINE
  5
32A
330
17
100
AcDbEntity
  8
FP-Below
100
AcDbLine
 10
1313.5935807624337
 20
518.499267856851
 30
0.0
 11
1202.9973270435512
 21
518.4988399346298
 31
0.0
  0
LINE
  5
32B
330
17
100
AcDbEntity
  8
FP-Below
100
AcDbLine
 10
1202.9973270435512
 20
518.4988399346298
 30
0.0
 11
1202.9973270435512
 21
653.4933251832995
 31
0.0
  0
LINE
  5
32C
330
17
100
AcDbEntity
  8
FP-Below
100
AcDbLine
 10
1202.9973270435512
 20
653.4933251832995
 30
0.0
 11
1276.3044603420713
 21
653.4960790443843
 31
0.0
  0
LINE
  5
32D
330
17
100
AcDbEntity
  8
FP-Below
100
AcDbLine
 10
1205.994259123081
 20
831.8332739497323
 30
0.0
 11
1205.9929073488966
 21
767.0823836987988
 31
0.0
  0
LINE
  5
32E
330
17
100
AcDbEntity
  8
FP-Below
100
AcDbLine
 10
1205.9929073488966
 20
767.0823836987988
 30
0.0
 11
1233.7492744139818
 21
767.0823921186206
 31
0.0
  0
LINE
  5
32F
330
17
100
AcDbEntity
  8
FP-Below
100
AcDbLine
 10
1205.9964360580634
 20
206.4999358585378
 30
0.0
 11
1205.9964360580634
 21
158.49999361230084
 31
0.0
  0
LINE
  5
330
330
17
100
AcDbEntity
  8
FP-Below
100
AcDbLine
 10
1205.9972444674895
 20
974.8332739497296
 30
0.0
 11
1206.0017467382058
 21
903.8332739497332
 31
0.0
  0
LWPOLYLINE
  5
331
330
17
100
AcDbEntity
  8
FP-Below
100
AcDbPolyline
 90
4
 70
0
 10
1206.0017467382058
 20
831.8332739497314
 10
1218.0017467382058
 20
831.8332739497314
 10
1218.0017467382058
 20
903.8332739497314
 10
1206.0017467382058
 20
903.8332739497332
  0
LWPOLYLINE
  5
332
330
17
100
AcDbEntity
  8
FP-Note
100
AcDbPolyline
 90
4
 70
0
 10
1213.7344060399391
 20
621.8090118178429
 10
1213.7344206876805
 20
609.809011817852
 10
1215.734420687666
 20
609.809036230758
 10
1213.7344060399391
 20
621.8090118178429
  0
LWPOLYLINE
  5
333
330
17
100
AcDbEntity
  8
FP-Note
100
AcDbPolyline
 90
4
 70
0
 10
1213.7344060399391
 20
652.772509444012
 10
1213.7344206876805
 20
664.7725094440029
 10
1215.734420687666
 20
664.772485031097
 10
1213.7344060399391
 20
652.772509444012
  0
LWPOLYLINE
  5
334
330
17
100
AcDbEntity
  8
FP-Roof
100
AcDbPolyline
 90
6
 70
0
 10
1221.9972444674913
 20
783.0824414526019
 10
1407.9973270437622
 20
783.0824414526019
 10
1407.9973270437622
 20
680.5000890985534
 10
1497.9973270437695
 20
680.5000890985671
 10
1497.9973270437695
 20
491.49985868959766
 10
1412.178210868511
 20
491.4994438999579
  0
LINE
  5
335
330
17
100
AcDbEntity
  8
FP-Below
100
AcDbLine
 10
1225.5036130111985
 20
735.2084962327795
 30
0.0
 11
1225.5036056873432
 21
756.0823906726478
 31
0.0
  0
LINE
  5
336
330
17
100
AcDbEntity
  8
FP-Below
100
AcDbLine
 10
1225.5036056873505
 20
756.0823716344862
 30
0.0
 11
1233.7492705164113
 21
756.0823927026181
 31
0.0
  0
LINE
  5
337
330
17
100
AcDbEntity
  8
FP-Below
100
AcDbLine
 10
1225.5036130111985
 20
730.7084962327795
 30
0.0
 11
1225.5036130111985
 21
735.2084962327795
 31
0.0
  0
LINE
  5
338
330
17
100
AcDbEntity
  8
FP-Below
100
AcDbLine
 10
1225.5152892849728
 20
688.7085353337502
 30
0.0
 11
1225.5152892849728
 21
684.2085353337502
 31
0.0
  0
LINE
  5
339
330
17
100
AcDbEntity
  8
FP-Below
100
AcDbLine
 10
1233.749270516455
 20
767.0823927076276
 30
0.0
 11
1233.7492705164113
 21
756.0823927076276
 31
0.0
  0
LWPOLYLINE
  5
33A
330
17
100
AcDbEntity
  8
FP-Below
100
AcDbPolyline
 90
3
 70
0
 38
-0.3403031765569822
 10
1240.7295730910628
 20
91.00008909854978
 10
1240.7295730910628
 20
73.00008909854978
 10
1272.2491090139083
 20
73.0000890985134
  0
LWPOLYLINE
  5
33B
330
17
100
AcDbEntity
  8
FP-Note
100
AcDbPolyline
 90
4
 70
0
 10
1249.5928659453712
 20
564.0045582636171
 10
1249.5928805931126
 20
552.0045582636262
 10
1269.592880593098
 20
552.0045826765322
 10
1249.5928659453712
 20
564.0045582636171
  0
LWPOLYLINE
  5
33C
330
17
100
AcDbEntity
  8
FP-Below
100
AcDbPolyline
 90
3
 70
0
 38
-0.3403031765569822
 10
1251.7295730910628
 20
102.00008909854978
 10
1251.7295730910628
 20
84.00008909854978
 10
1272.2491090139083
 20
84.00008909852431
  0
LWPOLYLINE
  5
33D
330
17
100
AcDbEntity
  8
FP-Note
100
AcDbPolyline
 90
4
 70
0
 10
1261.1640071732472
 20
721.5121238842362
 10
1261.1640218209886
 20
733.5121238842271
 10
1281.164021820974
 20
733.5120994713211
 10
1261.1640071732472
 20
721.5121238842362
  0
LWPOLYLINE
  5
33E
330
17
100
AcDbEntity
  8
FP-Roof Detail
100
AcDbPolyline
 90
2
 70
0
 10
1310.7473270437622
 20
588.7490798092535
 10
1262.205646222088
 20
637.2907606309275
  0
LWPOLYLINE
  5
33F
330
17
100
AcDbEntity
  8
FP-Roof Detail
100
AcDbPolyline
 90
2
 70
0
 10
1310.7473270437622
 20
685.8324414526019
 10
1262.205646222088
 20
637.2907606309275
  0
LINE
  5
340
330
17
100
AcDbEntity
  8
FP-Below
100
AcDbLine
 10
1269.749270516455
 20
767.0823931625132
 30
0.0
 11
1269.7492705164186
 21
756.0823931625132
 31
0.0
  0
LINE
  5
341
330
17
100
AcDbEntity
  8
FP-Below
100
AcDbLine
 10
1269.7492705164332
 20
756.0824050253364
 30
0.0
 11
1314.2491964783258
 21
756.0824219749597
 31
0.0
  0
LINE
  5
342
330
17
100
AcDbEntity
  8
FP-Below
100
AcDbLine
 10
1269.7492744140036
 20
767.0824037459683
 30
0.0
 11
1314.2491925807553
 21
767.0824198939849
 31
0.0
  0
LINE
  5
343
330
17
100
AcDbEntity
  8
FP-Below
100
AcDbLine
 10
1272.2491090139083
 20
73.00008909838971
 30
0.0
 11
1272.2491090139083
 21
84.00008909838971
 31
0.0
  0
LINE
  5
344
330
17
100
AcDbEntity
  8
FP-Below
100
AcDbLine
 10
1276.3043412074258
 20
659.997178794933
 30
0.0
 11
1276.3043412074258
 21
653.497178794933
 31
0.0
  0
LWPOLYLINE
  5
345
330
17
100
AcDbEntity
  8
FP-Note
100
AcDbPolyline
 90
4
 70
0
 10
1286.6161287116138
 20
637.4788482270833
 10
1298.6161287116047
 20
637.4788335793405
 10
1298.6161042986987
 20
635.4788335793555
 10
1286.6161287116138
 20
637.4788482270833
  0
LINE
  5
346
330
17
100
AcDbEntity
  8
FP-Below
100
AcDbLine
 10
1306.3043412074258
 20
655.497178794933
 30
0.0
 11
1306.3043412074258
 21
653.4960790443843
 31
0.0
  0
LINE
  5
347
330
17
100
AcDbEntity
  8
FP-Below
100
AcDbLine
 10
1306.3043412074258
 20
653.497178790672
 30
0.0
 11
1313.5935807624337
 21
653.4974395166969
 31
0.0
  0
LINE
  5
348
330
17
100
AcDbEntity
  8
FP-Below
100
AcDbLine
 10
1334.3043412074258
 20
655.497178794933
 30
0.0
 11
1306.3043412074258
 21
655.497178794933
 31
0.0
  0
LINE
  5
349
330
17
100
AcDbEntity
  8
FP-Below
100
AcDbLine
 10
1306.3043412074258
 20
659.997178794933
 30
0.0
 11
1306.3043412074258
 21
657.997178794933
 31
0.0
  0
LINE
  5
34A
330
17
100
AcDbEntity
  8
FP-Below
100
AcDbLine
 10
1306.3043412074258
 20
657.997178794933
 30
0.0
 11
1334.3043412074258
 21
657.997178794933
 31
0.0
  0
LINE
  5
34B
330
17
100
AcDbEntity
  8
FP-Below
100
AcDbLine
 10
1306.3044603420713
 20
659.9971787993022
 30
0.0
 11
1381.0933424831455
 21
659.9998538940458
 31
0.0
  0
LINE
  5
34C
330
17
100
AcDbEntity
  8
FP-Below
100
AcDbLine
 10
1308.2491090138792
 20
73.00008909838971
 30
0.0
 11
1308.2491090138792
 21
84.00008909838971
 31
0.0
  0
LWPOLYLINE
  5
34D
330
17
100
AcDbEntity
  8
FP-Below
100
AcDbPolyline
 90
2
 70
0
 38
-0.3403031765569822
 10
1308.2491090138792
 20
73.00008909848066
 10
1337.7473270442279
 20
73.00008909841881
  0
LWPOLYLINE
  5
34E
330
17
100
AcDbEntity
  8
FP-Below
100
AcDbPolyline
 90
2
 70
0
 38
-0.3403031765569822
 10
1308.2491090138792
 20
84.00008909848793
 10
1337.7473270442279
 20
84.00008909841881
  0
LWPOLYLINE
  5
34F
330
17
100
AcDbEntity
  8
FP-Roof
100
AcDbPolyline
 90
2
 70
0
 10
1310.7473270437622
 20
588.7490798092535
 10
1339.4973270437622
 20
559.9991993969038
  0
LWPOLYLINE
  5
350
330
17
100
AcDbEntity
  8
FP-Roof
100
AcDbPolyline
 90
2
 70
0
 10
1310.7473270437622
 20
685.8324414526019
 10
1407.9973270437622
 20
783.0824414526019
  0
LWPOLYLINE
  5
351
330
17
100
AcDbEntity
  8
FP-Below
100
AcDbPolyline
 90
5
 70
0
 10
1313.5935807624337
 20
518.499267856851
 10
1313.5935807624337
 20
536.5000273366109
 10
1317.0935807624337
 20
536.5000273366109
 10
1317.0935807624337
 20
518.498964978889
 10
1381.0935877606971
 20
518.4993660257373
  0
LWPOLYLINE
  5
352
330
17
100
AcDbEntity
  8
FP-Below
100
AcDbPolyline
 90
4
 70
0
 10
1313.5935807624337
 20
653.4974395166969
 10
1313.5935807624337
 20
635.4998538984141
 10
1317.0935807624337
 20
635.4998538984141
 10
1317.0935807624337
 20
653.4975185968046
  0
LINE
  5
353
330
17
100
AcDbEntity
  8
FP-Below
100
AcDbLine
 10
1314.2491964783694
 20
767.0824219799692
 30
0.0
 11
1314.2491964783258
 21
756.0824219799692
 31
0.0
  0
LINE
  5
354
330
17
100
AcDbEntity
  8
FP-Below
100
AcDbLine
 10
1317.0935807624337
 20
653.49756470686
 30
0.0
 11
1381.0935807624337
 21
653.4998538984114
 31
0.0
  0
LINE
  5
355
330
17
100
AcDbEntity
  8
FP-Below
100
AcDbLine
 10
1334.3043412074258
 20
657.997178794933
 30
0.0
 11
1334.3043412074258
 21
655.497178794933
 31
0.0
  0
LINE
  5
356
330
17
100
AcDbEntity
  8
FP-Below
100
AcDbLine
 10
1337.7473270442279
 20
73.00008909841881
 30
0.0
 11
1337.7473270442279
 21
84.00008909841881
 31
0.0
  0
LWPOLYLINE
  5
357
330
17
100
AcDbEntity
  8
FP-Roof
100
AcDbPolyline
 90
3
 70
0
 10
1339.4973270437622
 20
612.0000890985434
 10
1338.4973270437622
 20
585.9996442477236
 10
1339.4973270437622
 20
559.9991993969038
  0
LWPOLYLINE
  5
358
330
17
100
AcDbEntity
  8
FP-Roof Detail
100
AcDbPolyline
 90
2
 70
0
 10
1403.4970693740033
 20
585.9998314287889
 10
1338.4973270437622
 20
585.9998314287889
  0
LWPOLYLINE
  5
359
330
17
100
AcDbEntity
  8
FP-Roof
100
AcDbPolyline
 90
4
 70
0
 10
1339.4973270437622
 20
612.0000890985434
 10
1429.4973270437695
 20
612.000089098557
 10
1429.4973270437695
 20
559.999573759022
 10
1339.4973270437622
 20
559.9991993969038
  0
LWPOLYLINE
  5
35A
330
17
100
AcDbEntity
  8
FP-Roof
100
AcDbPolyline
 90
2
 70
0
 10
1407.9973270437622
 20
680.5000890985534
 10
1339.4973270437622
 20
612.0000890985434
  0
LINE
  5
35B
330
17
100
AcDbEntity
  8
FP-Below
100
AcDbLine
 10
1350.2491886831485
 20
767.0824326496663
 30
0.0
 11
1392.0898202538592
 21
767.0824414525637
 31
0.0
  0
LINE
  5
35C
330
17
100
AcDbEntity
  8
FP-Below
100
AcDbLine
 10
1350.2491925807553
 20
767.0824235631922
 30
0.0
 11
1350.2491925807117
 21
756.0824235631922
 31
0.0
  0
LINE
  5
35D
330
17
100
AcDbEntity
  8
FP-Below
100
AcDbLine
 10
1350.249192580719
 20
756.0824354260117
 30
0.0
 11
1381.0898202538592
 21
756.0824414525637
 31
0.0
  0
LWPOLYLINE
  5
35E
330
17
100
AcDbEntity
  8
FP-Note
100
AcDbPolyline
 90
4
 70
0
 10
1354.6001782497497
 20
696.7310080286206
 10
1366.6001782497406
 20
696.7309933808838
 10
1366.6001538368455
 20
676.7309933808988
 10
1354.6001782497497
 20
696.7310080286206
  0
LWPOLYLINE
  5
35F
330
17
100
AcDbEntity
  8
FP-Note
100
AcDbPolyline
 90
4
 70
0
 10
1373.4292447540847
 20
577.066383576127
 10
1373.4292301063433
 20
565.0663835761361
 10
1371.4292301063579
 20
565.0664079890421
 10
1373.4292447540847
 20
577.066383576127
  0
LWPOLYLINE
  5
360
330
17
100
AcDbEntity
  8
FP-Note
100
AcDbPolyline
 90
4
 70
0
 10
1373.4292447540847
 20
592.0931283259392
 10
1373.4292301063433
 20
604.0931283259301
 10
1371.4292301063579
 20
604.0931039130242
 10
1373.4292447540847
 20
592.0931283259392
  0
LWPOLYLINE
  5
361
330
17
100
AcDbEntity
  8
FP-Below
100
AcDbPolyline
 90
3
 70
0
 38
-0.3403031765569822
 10
1405.2668629670152
 20
91.00008909854978
 10
1405.2668629670152
 20
73.00008909854978
 10
1373.7473270441988
 20
73.00008909841881
  0
LINE
  5
362
330
17
100
AcDbEntity
  8
FP-Below
100
AcDbLine
 10
1373.7473270441988
 20
73.00008909841881
 30
0.0
 11
1373.7473270441988
 21
84.00008909841881
 31
0.0
  0
LINE
  5
363
330
17
100
AcDbEntity
  8
FP-Below
100
AcDbLine
 10
1373.7473270441988
 20
73.00008909841881
 30
0.0
 11
1373.7473270441988
 21
84.00008909841881
 31
0.0
  0
LWPOLYLINE
  5
364
330
17
100
AcDbEntity
  8
FP-Below
100
AcDbPolyline
 90
3
 70
0
 38
-0.3403031765569822
 10
1394.2668629670152
 20
102.00008909854978
 10
1394.2668629670152
 20
84.00008909854978
 10
1373.7473270441988
 20
84.00008909841881
  0
LINE
  5
365
330
17
100
AcDbEntity
  8
FP-Below
100
AcDbLine
 10
1377.093348963026
 20
512.000831602993
 30
0.0
 11
1377.09336681493
 21
507.4995065901462
 31
0.0
  0
LINE
  5
366
330
17
100
AcDbEntity
  8
FP-Below
100
AcDbLine
 10
1449.093348963026
 20
507.49979213647066
 30
0.0
 11
1377.09336681493
 21
507.4995065901462
 31
0.0
  0
LWPOLYLINE
  5
367
330
17
100
AcDbEntity
  8
FP-Roof
100
AcDbPolyline
 90
2
 70
0
 10
1377.5120074085407
 20
526.1656473599289
 10
1412.178210868511
 20
491.4994438999579
  0
LINE
  5
368
330
17
100
AcDbEntity
  8
FP-Below
100
AcDbLine
 10
1381.0898202537792
 20
546.9166072843223
 30
0.0
 11
1389.094622467419
 21
546.9164692821446
 31
0.0
  0
LINE
  5
369
330
17
100
AcDbEntity
  8
FP-Below
100
AcDbLine
 10
1389.094622467419
 20
625.0831359485396
 30
0.0
 11
1381.0898202537792
 21
625.0832739507209
 31
0.0
  0
LINE
  5
36A
330
17
100
AcDbEntity
  8
FP-Below
100
AcDbLine
 10
1381.0898202538592
 20
756.0824414525637
 30
0.0
 11
1381.0933424831455
 21
659.9998538940458
 31
0.0
  0
LINE
  5
36B
330
17
100
AcDbEntity
  8
FP-Below
100
AcDbLine
 10
1381.0935807624337
 20
653.4998538984114
 30
0.0
 11
1381.094622467419
 21
625.0832739507209
 31
0.0
  0
LINE
  5
36C
330
17
100
AcDbEntity
  8
FP-Below
100
AcDbLine
 10
1381.0935877606971
 20
518.4995290298289
 30
0.0
 11
1381.093587760748
 21
546.9166072843223
 31
0.0
  0
LINE
  5
36D
330
17
100
AcDbEntity
  8
FP-Below
100
AcDbLine
 10
1389.094622467419
 20
546.9164692821446
 30
0.0
 11
1389.0946220095939
 21
518.4994161630689
 31
0.0
  0
LWPOLYLINE
  5
36E
330
17
100
AcDbEntity
  8
FP-Below
100
AcDbPolyline
 90
2
 70
0
 10
1389.0946220095939
 20
518.4994161630689
 10
1449.093348963026
 20
518.4997921364707
  0
LINE
  5
36F
330
17
100
AcDbEntity
  8
FP-Below
100
AcDbLine
 10
1389.094622467419
 20
625.0831359485396
 30
0.0
 11
1389.0946220095939
 21
653.4999540376571
 31
0.0
  0
LINE
  5
370
330
17
100
AcDbEntity
  8
FP-Below
100
AcDbLine
 10
1471.0898202538592
 20
653.5000932239859
 30
0.0
 11
1389.0946220095939
 21
653.4999540377917
 31
0.0
  0
LINE
  5
371
330
17
100
AcDbEntity
  8
FP-Below
100
AcDbLine
 10
1392.0933489630406
 20
664.500146820687
 30
0.0
 11
1392.0898202538592
 21
664.5001468195956
 31
0.0
  0
LINE
  5
372
330
17
100
AcDbEntity
  8
FP-Below
100
AcDbLine
 10
1392.0898202538592
 20
767.0824414525637
 30
0.0
 11
1392.0933489630406
 21
664.500146820687
 31
0.0
  0
LINE
  5
373
330
17
100
AcDbEntity
  8
FP-Below
100
AcDbLine
 10
1392.0933489630406
 20
664.500146820687
 30
0.0
 11
1482.0898202538592
 21
664.5000932239859
 31
0.0
  0
LINE
  5
374
330
17
100
AcDbEntity
  8
FP-Below
100
AcDbLine
 10
1394.2668629670152
 20
102.00008909854978
 30
0.0
 11
1442.9973270435512
 21
102.00008909854978
 31
0.0
  0
LWPOLYLINE
  5
375
330
17
100
AcDbEntity
  8
FP-Roof Detail
100
AcDbPolyline
 90
2
 70
0
 10
1429.4973270437695
 20
559.999573759022
 10
1403.4970693740033
 20
585.9998314287889
  0
LWPOLYLINE
  5
376
330
17
100
AcDbEntity
  8
FP-Roof Detail
100
AcDbPolyline
 90
2
 70
0
 10
1429.4973270437695
 20
612.000089098557
 10
1403.4970693740033
 20
585.9998314287895
  0
LINE
  5
377
330
17
100
AcDbEntity
  8
FP-Below
100
AcDbLine
 10
1453.9973270435512
 20
91.00008909854978
 30
0.0
 11
1405.2668629670152
 21
91.00008909854978
 31
0.0
  0
LWPOLYLINE
  5
378
330
17
100
AcDbEntity
  8
FP-Note
100
AcDbPolyline
 90
4
 70
0
 10
1412.9633216696402
 20
584.6130230889121
 10
1424.9633216696311
 20
584.6130084411693
 10
1424.9632972567251
 20
582.6130084411843
 10
1412.9633216696402
 20
584.6130230889121
  0
LWPOLYLINE
  5
379
330
17
100
AcDbEntity
  8
FP-Note
100
AcDbPolyline
 90
4
 70
0
 10
1418.0519819096571
 20
640.0677706603738
 10
1418.0519965573985
 20
652.0677706603647
 10
1438.051996557384
 20
652.0677462474587
 10
1418.0519819096571
 20
640.0677706603738
  0
LWPOLYLINE
  5
37A
330
17
100
AcDbEntity
  8
FP-Roof
100
AcDbPolyline
 90
2
 70
0
 10
1429.4973270437695
 20
559.999573759022
 10
1497.9970421143807
 20
491.4998586884126
  0
LWPOLYLINE
  5
37B
330
17
100
AcDbEntity
  8
FP-Roof
100
AcDbPolyline
 90
2
 70
0
 10
1429.4973270437695
 20
612.000089098557
 10
1497.9973270437804
 20
680.5000890985671
  0
LINE
  5
37C
330
17
100
AcDbEntity
  8
FP-Below
100
AcDbLine
 10
1442.9973270435512
 20
102.00008909854978
 30
0.0
 11
1442.9973270435512
 21
115.00098008402301
 31
0.0
  0
LINE
  5
37D
330
17
100
AcDbEntity
  8
FP-Below
100
AcDbLine
 10
1442.9973270435512
 20
115.00098008402301
 30
0.0
 11
1453.9973270435512
 21
115.00098008402301
 31
0.0
  0
LWPOLYLINE
  5
37E
330
17
100
AcDbEntity
  8
FP-Below
100
AcDbPolyline
 90
4
 70
1
 38
-0.3403031765569822
 10
1442.9973270435512
 20
246.99919811307745
 10
1453.9973270435512
 20
246.99919811307745
 10
1453.9973270435512
 20
223.0000890985507
 10
1442.9973270435512
 20
223.0000890985507
  0
LWPOLYLINE
  5
37F
330
17
100
AcDbEntity
  8
FP-Below
100
AcDbPolyline
 90
4
 70
1
 38
-0.3403031765569822
 10
1442.9973270435512
 20
379.0000890985507
 10
1453.9973270435512
 20
379.0000890985507
 10
1453.9973270435512
 20
355.0009800840239
 10
1442.9973270435512
 20
355.0009800840239
  0
LWPOLYLINE
  5
380
330
17
100
AcDbEntity
  8
FP-Below
100
AcDbPolyline
 90
4
 70
0
 38
-0.3403031765569822
 10
1454.093348963026
 20
507.49979213647066
 10
1454.093348963026
 20
487.0009800840312
 10
1443.093348963026
 20
487.0009800840312
 10
1443.093348963026
 20
507.4997683409388
  0
LINE
  5
381
330
17
100
AcDbEntity
  8
FP-Below
100
AcDbLine
 10
1482.0898202538592
 20
507.4997962619059
 30
0.0
 11
1449.093348963026
 21
507.49979213647066
 31
0.0
  0
LINE
  5
382
330
17
100
AcDbEntity
  8
FP-Below
100
AcDbLine
 10
1471.0898202538592
 20
518.4997962619059
 30
0.0
 11
1449.093348963026
 21
518.4997921364707
 31
0.0
  0
LINE
  5
383
330
17
100
AcDbEntity
  8
FP-Below
100
AcDbLine
 10
1453.9973270435512
 20
115.00098008402301
 30
0.0
 11
1453.9973270435512
 21
91.00008909854978
 31
0.0
  0
LWPOLYLINE
  5
384
330
17
100
AcDbEntity
  8
FP-Note
100
AcDbPolyline
 90
4
 70
0
 10
1462.4009152242088
 20
592.7512944384453
 10
1474.4009152241997
 20
592.7512797907084
 10
1474.4008908113046
 20
572.7512797907234
 10
1462.4009152242088
 20
592.7512944384453
  0
LINE
  5
385
330
17
100
AcDbEntity
  8
FP-Below
100
AcDbLine
 10
1471.089820253852
 20
555.9993628419493
 30
0.0
 11
1471.0898202538592
 21
518.4997962619059
 31
0.0
  0
LINE
  5
386
330
17
100
AcDbEntity
  8
FP-Below
100
AcDbLine
 10
1471.089820253852
 20
555.9993628419493
 30
0.0
 11
1482.089820253852
 21
555.9993628419493
 31
0.0
  0
LINE
  5
387
330
17
100
AcDbEntity
  8
FP-Below
100
AcDbLine
 10
1471.0898202538592
 20
653.5000932239859
 30
0.0
 11
1471.0898202538592
 21
615.9993628419511
 31
0.0
  0
LINE
  5
388
330
17
100
AcDbEntity
  8
FP-Below
100
AcDbLine
 10
1471.0898202538592
 20
615.9993628419511
 30
0.0
 11
1482.0898202538592
 21
615.9993628419511
 31
0.0
  0
LINE
  5
389
330
17
100
AcDbEntity
  8
FP-Below
100
AcDbLine
 10
1482.089820253852
 20
555.9993628419493
 30
0.0
 11
1482.0898202538592
 21
507.4997962619059
 31
0.0
  0
LINE
  5
38A
330
17
100
AcDbEntity
  8
FP-Below
100
AcDbLine
 10
1482.0898202538592
 20
664.5000932239859
 30
0.0
 11
1482.0898202538592
 21
615.9993628419511
 31
0.0
  0
ENDSEC
  0
SECTION
  2
OBJECTS
  0
DICTIONARY
  5
A
330
0
100
AcDbDictionary
280
0
281
1
  3
ACAD_COLOR
350
B
  3
ACAD_GROUP
350
C
  3
ACAD_LAYOUT
350
D
  3
ACAD_MATERIAL
350
E
  3
ACAD_MLEADERSTYLE
350
F
  3
ACAD_MLINESTYLE
350
10
  3
ACAD_PLOTSETTINGS
350
11
  3
ACAD_PLOTSTYLENAME
350
12
  3
ACAD_SCALELIST
350
14
  3
ACAD_TABLESTYLE
350
15
  3
ACAD_VISUALSTYLE
350
16
  3
EZDXF_META
350
2D
  0
DICTIONARY
  5
B
330
A
100
AcDbDictionary
280
0
281
1
  0
DICTIONARY
  5
C
330
A
100
AcDbDictionary
280
0
281
1
  0
DICTIONARY
  5
D
330
A
100
AcDbDictionary
280
0
281
1
  3
Model
350
1A
  3
Layout1
350
1E
  0
DICTIONARY
  5
E
330
A
100
AcDbDictionary
280
0
281
1
  3
ByBlock
350
1F
  3
ByLayer
350
20
  3
Global
350
21
  0
DICTIONARY
  5
F
330
A
100
AcDbDictionary
280
0
281
1
  3
Standard
350
2C
  0
DICTIONARY
  5
10
330
A
100
AcDbDictionary
280
0
281
1
  3
Standard
350
22
  0
DICTIONARY
  5
11
330
A
100
AcDbDictionary
280
0
281
1
  0
ACDBDICTIONARYWDFLT
  5
12
330
A
100
AcDbDictionary
280
0
281
1
  3
Normal
350
13
100
AcDbDictionaryWithDefault
340
13
  0
ACDBPLACEHOLDER
  5
13
330
12
  0
DICTIONARY
  5
14
330
A
100
AcDbDictionary
280
0
281
1
  0
DICTIONARY
  5
15
330
A
100
AcDbDictionary
280
0
281
1
  0
DICTIONARY
  5
16
330
A
100
AcDbDictionary
280
0
281
1
  0
LAYOUT
  5
1A
330
D
100
AcDbPlotSettings
  1

  2
Adobe PDF
  4
A3
  6

 40
7.5
 41
20.0
 42
7.5
 43
20.0
 44
420.0
 45
297.0
 46
0.0
 47
0.0
 48
0.0
 49
0.0
140
0.0
141
0.0
142
1.0
143
1.0
 70
1024
 72
1
 73
0
 74
5
  7

 75
16
 76
0
 77
2
 78
300
147
1.0
148
0.0
149
0.0
100
AcDbLayout
  1
Model
 70
1
 71
0
 10
0.0
 20
0.0
 11
420.0
 21
297.0
 12
0.0
 22
0.0
 32
0.0
 14
1e+20
 24
1e+20
 34
1e+20
 15
-1e+20
 25
-1e+20
 35
-1e+20
146
0.0
 13
0.0
 23
0.0
 33
0.0
 16
1.0
 26
0.0
 36
0.0
 17
0.0
 27
1.0
 37
0.0
 76
1
330
17
  0
LAYOUT
  5
1E
330
D
100
AcDbPlotSettings
  1

  2
Adobe PDF
  4
A3
  6

 40
7.5
 41
20.0
 42
7.5
 43
20.0
 44
420.0
 45
297.0
 46
0.0
 47
0.0
 48
0.0
 49
0.0
140
0.0
141
0.0
142
1.0
143
1.0
 70
0
 72
1
 73
0
 74
5
  7

 75
16
 76
0
 77
2
 78
300
147
1.0
148
0.0
149
0.0
100
AcDbLayout
  1
Layout1
 70
1
 71
1
 10
0.0
 20
0.0
 11
420.0
 21
297.0
 12
0.0
 22
0.0
 32
0.0
 14
1e+20
 24
1e+20
 34
1e+20
 15
-1e+20
 25
-1e+20
 35
-1e+20
146
0.0
 13
0.0
 23
0.0
 33
0.0
 16
1.0
 26
0.0
 36
0.0
 17
0.0
 27
1.0
 37
0.0
 76
1
330
1B
  0
MATERIAL
  5
1F
102
{ACAD_REACTORS
330
E
102
}
330
E
100
AcDbMaterial
  1
ByBlock
  2

 70
0
 40
1.0
 71
1
 41
1.0
 91
-1023410177
 42
1.0
 72
1
  3

 73
1
 74
1
 75
1
 44
0.5
 73
0
 45
1.0
 46
1.0
 77
1
  4

 78
1
 79
1
170
1
 48
1.0
171
1
  6

172
1
173
1
174
1
140
1.0
141
1.0
175
1
  7

176
1
177
1
178
1
143
1.0
179
1
  8

270
1
271
1
272
1
145
1.0
146
1.0
273
1
  9

274
1
275
1
276
1
 42
1.0
 72
1
  3

 73
1
 74
1
 75
1
 94
63
  0
MATERIAL
  5
20
102
{ACAD_REACTORS
330
E
102
}
330
E
100
AcDbMaterial
  1
ByLayer
  2

 70
0
 40
1.0
 71
1
 41
1.0
 91
-1023410177
 42
1.0
 72
1
  3

 73
1
 74
1
 75
1
 44
0.5
 73
0
 45
1.0
 46
1.0
 77
1
  4

 78
1
 79
1
170
1
 48
1.0
171
1
  6

172
1
173
1
174
1
140
1.0
141
1.0
175
1
  7

176
1
177
1
178
1
143
1.0
179
1
  8

270
1
271
1
272
1
145
1.0
146
1.0
273
1
  9

274
1
275
1
276
1
 42
1.0
 72
1
  3

 73
1
 74
1
 75
1
 94
63
  0
MATERIAL
  5
21
102
{ACAD_REACTORS
330
E
102
}
330
E
100
AcDbMaterial
  1
Global
  2

 70
0
 40
1.0
 71
1
 41
1.0
 91
-1023410177
 42
1.0
 72
1
  3

 73
1
 74
1
 75
1
 44
0.5
 73
0
 45
1.0
 46
1.0
 77
1
  4

 78
1
 79
1
170
1
 48
1.0
171
1
  6

172
1
173
1
174
1
140
1.0
141
1.0
175
1
  7

176
1
177
1
178
1
143
1.0
179
1
  8

270
1
271
1
272
1
145
1.0
146
1.0
273
1
  9

274
1
275
1
276
1
 42
1.0
 72
1
  3

 73
1
 74
1
 75
1
 94
63
  0
MLINESTYLE
  5
22
102
{ACAD_REACTORS
330
10
102
}
330
10
100
AcDbMlineStyle
  2
Standard
 70
0
  3

 62
256
 51
90.0
 52
90.0
 71
2
 49
0.5
 62
256
  6
BYLAYER
 49
-0.5
 62
256
  6
BYLAYER
  0
MLEADERSTYLE
  5
2C
102
{ACAD_REACTORS
330
F
102
}
330
F
100
AcDbMLeaderStyle
179
2
170
2
171
1
172
0
 90
2
 40
0.0
 41
0.0
173
1
 91
-1056964608
 92
-2
290
1
 42
2.0
291
1
 43
8.0
  3
Standard
 44
4.0
300

342
29
174
1
175
1
176
0
178
1
 93
-1056964608
 45
4.0
292
0
297
0
 46
4.0
 94
-1056964608
 47
1.0
 49
1.0
140
1.0
294
1
141
0.0
177
0
142
1.0
295
0
296
0
143
3.75
271
0
272
9
273
9
  0
DICTIONARY
  5
2D
330
A
100
AcDbDictionary
281
1
  3
CREATED_BY_EZDXF
350
2E
  3
WRITTEN_BY_EZDXF
350
38D
  0
DICTIONARYVAR
  5
2E
330
2D
100
DictionaryVariables
280
0
  1
1.0.3 @ 2024-01-02T12:35:58.949598+00:00
  0
DICTIONARYVAR
  5
38D
330
2D
100
DictionaryVariables
280
0
  1
1.0.3 @ 2024-01-02T12:41:35.318695+00:00
  0
ENDSEC
  0
EOF
