  0
SECTION
  2
HEADER
  9
$ACADVER
  1
AC1027
  9
$ACADMAINTVER
 70
105
  9
$DWGCODEPAGE
  3
ANSI_1252
  9
$LASTSAVEDBY
  1
ezdxf
  9
$REQUIREDVERSIONS
160
0
  9
$INSBASE
 10
0.0
 20
0.0
 30
0.0
  9
$EXTMIN
 10
1e+20
 20
1e+20
 30
1e+20
  9
$EXTMAX
 10
-1e+20
 20
-1e+20
 30
-1e+20
  9
$LIMMIN
 10
0.0
 20
0.0
  9
$LIMMAX
 10
420.0
 20
297.0
  9
$ORTHOMODE
 70
0
  9
$REGENMODE
 70
1
  9
$FILLMODE
 70
1
  9
$QTEXTMODE
 70
0
  9
$MIRRTEXT
 70
1
  9
$LTSCALE
 40
1.0
  9
$ATTMODE
 70
1
  9
$TEXTSIZE
 40
2.5
  9
$TRACEWID
 40
1.0
  9
$TEXTSTYLE
  7
Standard
  9
$CLAYER
  8
0
  9
$CELTYPE
  6
ByLayer
  9
$CECOLOR
 62
256
  9
$CELTSCALE
 40
1.0
  9
$DISPSILH
 70
0
  9
$DIMSCALE
 40
1.0
  9
$DIMASZ
 40
2.5
  9
$DIMEXO
 40
0.625
  9
$DIMDLI
 40
3.75
  9
$DIMRND
 40
0.0
  9
$DIMDLE
 40
0.0
  9
$DIMEXE
 40
1.25
  9
$DIMTP
 40
0.0
  9
$DIMTM
 40
0.0
  9
$DIMTXT
 40
2.5
  9
$DIMCEN
 40
2.5
  9
$DIMTSZ
 40
0.0
  9
$DIMTOL
 70
0
  9
$DIMLIM
 70
0
  9
$DIMTIH
 70
0
  9
$DIMTOH
 70
0
  9
$DIMSE1
 70
0
  9
$DIMSE2
 70
0
  9
$DIMTAD
 70
1
  9
$DIMZIN
 70
8
  9
$DIMBLK
  1

  9
$DIMASO
 70
1
  9
$DIMSHO
 70
1
  9
$DIMPOST
  1

  9
$DIMAPOST
  1

  9
$DIMALT
 70
0
  9
$DIMALTD
 70
3
  9
$DIMALTF
 40
0.03937007874
  9
$DIMLFAC
 40
1.0
  9
$DIMTOFL
 70
1
  9
$DIMTVP
 40
0.0
  9
$DIMTIX
 70
0
  9
$DIMSOXD
 70
0
  9
$DIMSAH
 70
0
  9
$DIMBLK1
  1

  9
$DIMBLK2
  1

  9
$DIMSTYLE
  2
ISO-25
  9
$DIMCLRD
 70
0
  9
$DIMCLRE
 70
0
  9
$DIMCLRT
 70
0
  9
$DIMTFAC
 40
1.0
  9
$DIMGAP
 40
0.625
  9
$DIMJUST
 70
0
  9
$DIMSD1
 70
0
  9
$DIMSD2
 70
0
  9
$DIMTOLJ
 70
0
  9
$DIMTZIN
 70
8
  9
$DIMALTZ
 70
0
  9
$DIMALTTZ
 70
0
  9
$DIMUPT
 70
0
  9
$DIMDEC
 70
2
  9
$DIMTDEC
 70
2
  9
$DIMALTU
 70
2
  9
$DIMALTTD
 70
3
  9
$DIMTXSTY
  7
Standard
  9
$DIMAUNIT
 70
0
  9
$DIMADEC
 70
0
  9
$DIMALTRND
 40
0.0
  9
$DIMAZIN
 70
0
  9
$DIMDSEP
 70
44
  9
$DIMATFIT
 70
3
  9
$DIMFRAC
 70
0
  9
$DIMLDRBLK
  1

  9
$DIMLUNIT
 70
2
  9
$DIMLWD
 70
-2
  9
$DIMLWE
 70
-2
  9
$DIMTMOVE
 70
0
  9
$DIMFXL
 40
1.0
  9
$DIMFXLON
 70
0
  9
$DIMJOGANG
 40
0.785398163397
  9
$DIMTFILL
 70
0
  9
$DIMTFILLCLR
 70
0
  9
$DIMARCSYM
 70
0
  9
$DIMLTYPE
  6

  9
$DIMLTEX1
  6

  9
$DIMLTEX2
  6

  9
$DIMTXTDIRECTION
 70
0
  9
$LUNITS
 70
2
  9
$LUPREC
 70
4
  9
$SKETCHINC
 40
1.0
  9
$FILLETRAD
 40
10.0
  9
$AUNITS
 70
0
  9
$AUPREC
 70
2
  9
$MENU
  1
.
  9
$ELEVATION
 40
0.0
  9
$PELEVATION
 40
0.0
  9
$THICKNESS
 40
0.0
  9
$LIMCHECK
 70
0
  9
$CHAMFERA
 40
0.0
  9
$CHAMFERB
 40
0.0
  9
$CHAMFERC
 40
0.0
  9
$CHAMFERD
 40
0.0
  9
$SKPOLY
 70
0
  9
$TDCREATE
 40
2460329.6630555554
  9
$TDUCREATE
 40
2458532.153996898
  9
$TDUPDATE
 40
2460329.6630555554
  9
$TDUUPDATE
 40
2458532.1544311
  9
$TDINDWG
 40
0.0
  9
$TDUSRTIMER
 40
0.0
  9
$USRTIMER
 70
1
  9
$ANGBASE
 50
0.0
  9
$ANGDIR
 70
0
  9
$PDMODE
 70
0
  9
$PDSIZE
 40
0.0
  9
$PLINEWID
 40
0.0
  9
$SPLFRAME
 70
0
  9
$SPLINETYPE
 70
6
  9
$SPLINESEGS
 70
8
  9
$HANDSEED
  5
38E
  9
$SURFTAB1
 70
6
  9
$SURFTAB2
 70
6
  9
$SURFTYPE
 70
6
  9
$SURFU
 70
6
  9
$SURFV
 70
6
  9
$UCSBASE
  2

  9
$UCSNAME
  2

  9
$UCSORG
 10
0.0
 20
0.0
 30
0.0
  9
$UCSXDIR
 10
1.0
 20
0.0
 30
0.0
  9
$UCSYDIR
 10
0.0
 20
1.0
 30
0.0
  9
$UCSORTHOREF
  2

  9
$UCSORTHOVIEW
 70
0
  9
$UCSORGTOP
 10
0.0
 20
0.0
 30
0.0
  9
$UCSORGBOTTOM
 10
0.0
 20
0.0
 30
0.0
  9
$UCSORGLEFT
 10
0.0
 20
0.0
 30
0.0
  9
$UCSORGRIGHT
 10
0.0
 20
0.0
 30
0.0
  9
$UCSORGFRONT
 10
0.0
 20
0.0
 30
0.0
  9
$UCSORGBACK
 10
0.0
 20
0.0
 30
0.0
  9
$PUCSBASE
  2

  9
$PUCSNAME
  2

  9
$PUCSORG
 10
0.0
 20
0.0
 30
0.0
  9
$PUCSXDIR
 10
1.0
 20
0.0
 30
0.0
  9
$PUCSYDIR
 10
0.0
 20
1.0
 30
0.0
  9
$PUCSORTHOREF
  2

  9
$PUCSORTHOVIEW
 70
0
  9
$PUCSORGTOP
 10
0.0
 20
0.0
 30
0.0
  9
$PUCSORGBOTTOM
 10
0.0
 20
0.0
 30
0.0
  9
$PUCSORGLEFT
 10
0.0
 20
0.0
 30
0.0
  9
$PUCSORGRIGHT
 10
0.0
 20
0.0
 30
0.0
  9
$PUCSORGFRONT
 10
0.0
 20
0.0
 30
0.0
  9
$PUCSORGBACK
 10
0.0
 20
0.0
 30
0.0
  9
$USERI1
 70
0
  9
$USERI2
 70
0
  9
$USERI3
 70
0
  9
$USERI4
 70
0
  9
$USERI5
 70
0
  9
$USERR1
 40
0.0
  9
$USERR2
 40
0.0
  9
$USERR3
 40
0.0
  9
$USERR4
 40
0.0
  9
$USERR5
 40
0.0
  9
$WORLDVIEW
 70
1
  9
$SHADEDGE
 70
3
  9
$SHADEDIF
 70
70
  9
$TILEMODE
 70
1
  9
$MAXACTVP
 70
64
  9
$PINSBASE
 10
0.0
 20
0.0
 30
0.0
  9
$PLIMCHECK
 70
0
  9
$PEXTMIN
 10
1e+20
 20
1e+20
 30
1e+20
  9
$PEXTMAX
 10
-1e+20
 20
-1e+20
 30
-1e+20
  9
$PLIMMIN
 10
0.0
 20
0.0
  9
$PLIMMAX
 10
420.0
 20
297.0
  9
$UNITMODE
 70
0
  9
$VISRETAIN
 70
1
  9
$PLINEGEN
 70
0
  9
$PSLTSCALE
 70
1
  9
$TREEDEPTH
 70
3020
  9
$CMLSTYLE
  2
Standard
  9
$CMLJUST
 70
0
  9
$CMLSCALE
 40
20.0
  9
$PROXYGRAPHICS
 70
1
  9
$MEASUREMENT
 70
1
  9
$CELWEIGHT
370
-1
  9
$ENDCAPS
280
0
  9
$JOINSTYLE
280
0
  9
$LWDISPLAY
290
0
  9
$INSUNITS
 70
6
  9
$HYPERLINKBASE
  1

  9
$STYLESHEET
  1

  9
$XEDIT
290
1
  9
$CEPSNTYPE
380
0
  9
$PSTYLEMODE
290
1
  9
$FINGERPRINTGUID
  2
{FB6FA46C-7DFB-46EF-A3D3-E23624A9251E}
  9
$VERSIONGUID
  2
{AF6D5EAC-06D0-4F22-91FC-B9131C3DC4AE}
  9
$EXTNAMES
290
1
  9
$PSVPSCALE
 40
0.0
  9
$OLESTARTUP
290
0
  9
$SORTENTS
280
127
  9
$INDEXCTL
280
0
  9
$HIDETEXT
280
1
  9
$XCLIPFRAME
280
0
  9
$HALOGAP
280
0
  9
$OBSCOLOR
 70
257
  9
$OBSLTYPE
280
0
  9
$INTERSECTIONDISPLAY
280
0
  9
$INTERSECTIONCOLOR
 70
257
  9
$DIMASSOC
280
2
  9
$PROJECTNAME
  1

  9
$CAMERADISPLAY
290
0
  9
$LENSLENGTH
 40
50.0
  9
$CAMERAHEIGHT
 40
0.0
  9
$STEPSPERSEC
 40
24.0
  9
$STEPSIZE
 40
100.0
  9
$3DDWFPREC
 40
2.0
  9
$PSOLWIDTH
 40
0.005
  9
$PSOLHEIGHT
 40
0.08
  9
$LOFTANG1
 40
1.570796326795
  9
$LOFTANG2
 40
1.570796326795
  9
$LOFTMAG1
 40
0.0
  9
$LOFTMAG2
 40
0.0
  9
$LOFTPARAM
 70
7
  9
$LOFTNORMALS
280
1
  9
$LATITUDE
 40
37.795
  9
$LONGITUDE
 40
-122.394
  9
$NORTHDIRECTION
 40
0.0
  9
$TIMEZONE
 70
-8000
  9
$LIGHTGLYPHDISPLAY
280
1
  9
$TILEMODELIGHTSYNCH
280
1
  9
$CMATERIAL
347
20
  9
$SOLIDHIST
280
0
  9
$SHOWHIST
280
1
  9
$DWFFRAME
280
2
  9
$DGNFRAME
280
2
  9
$REALWORLDSCALE
290
1
  9
$INTERFERECOLOR
 62
256
  9
$CSHADOW
280
0
  9
$SHADOWPLANELOCATION
 40
0.0
  0
ENDSEC
  0
SECTION
  2
CLASSES
  0
CLASS
  1
ACDBDICTIONARYWDFLT
  2
AcDbDictionaryWithDefault
  3
ObjectDBX Classes
 90
0
 91
0
280
0
281
0
  0
CLASS
  1
SUN
  2
AcDbSun
  3
SCENEOE
 90
1153
 91
0
280
0
281
0
  0
CLASS
  1
VISUALSTYLE
  2
AcDbVisualStyle
  3
ObjectDBX Classes
 90
4095
 91
0
280
0
281
0
  0
CLASS
  1
MATERIAL
  2
AcDbMaterial
  3
ObjectDBX Classes
 90
1153
 91
0
280
0
281
0
  0
CLASS
  1
SCALE
  2
AcDbScale
  3
ObjectDBX Classes
 90
1153
 91
0
280
0
281
0
  0
CLASS
  1
TABLESTYLE
  2
AcDbTableStyle
  3
ObjectDBX Classes
 90
4095
 91
0
280
0
281
0
  0
CLASS
  1
MLEADERSTYLE
  2
AcDbMLeaderStyle
  3
ACDB_MLEADERSTYLE_CLASS
 90
4095
 91
0
280
0
281
0
  0
CLASS
  1
DICTIONARYVAR
  2
AcDbDictionaryVar
  3
ObjectDBX Classes
 90
0
 91
0
280
0
281
0
  0
CLASS
  1
CELLSTYLEMAP
  2
AcDbCellStyleMap
  3
ObjectDBX Classes
 90
1152
 91
0
280
0
281
0
  0
CLASS
  1
MENTALRAYRENDERSETTINGS
  2
AcDbMentalRayRenderSettings
  3
SCENEOE
 90
1024
 91
0
280
0
281
0
  0
CLASS
  1
ACDBDETAILVIEWSTYLE
  2
AcDbDetailViewStyle
  3
ObjectDBX Classes
 90
1025
 91
0
280
0
281
0
  0
CLASS
  1
ACDBSECTIONVIEWSTYLE
  2
AcDbSectionViewStyle
  3
ObjectDBX Classes
 90
1025
 91
0
280
0
281
0
  0
CLASS
  1
RASTERVARIABLES
  2
AcDbRasterVariables
  3
ISM
 90
0
 91
0
280
0
281
0
  0
CLASS
  1
ACDBPLACEHOLDER
  2
AcDbPlaceHolder
  3
ObjectDBX Classes
 90
0
 91
0
280
0
281
0
  0
CLASS
  1
LAYOUT
  2
AcDbLayout
  3
ObjectDBX Classes
 90
0
 91
0
280
0
281
0
  0
ENDSEC
  0
SECTION
  2
TABLES
  0
TABLE
  2
VPORT
  5
8
330
0
100
AcDbSymbolTable
 70
1
  0
VPORT
  5
23
330
8
100
AcDbSymbolTableRecord
100
AcDbViewportTableRecord
  2
*Active
 70
0
 10
0.0
 20
0.0
 11
1.0
 21
1.0
 12
0.0
 22
0.0
 13
0.0
 23
0.0
 14
0.5
 24
0.5
 15
0.5
 25
0.5
 16
0.0
 26
0.0
 36
1.0
 17
0.0
 27
0.0
 37
0.0
 40
1000.0
 41
1.34
 42
50.0
 43
0.0
 44
0.0
 50
0.0
 51
0.0
 71
0
 72
1000
 73
1
 74
3
 75
0
 76
0
 77
0
 78
0
281
0
 65
0
146
0.0
  0
ENDTAB
  0
TABLE
  2
LTYPE
  5
2
330
0
100
AcDbSymbolTable
 70
3
  0
LTYPE
  5
24
330
2
100
AcDbSymbolTableRecord
100
AcDbLinetypeTableRecord
  2
ByBlock
 70
0
  3

 72
65
 73
0
 40
0.0
  0
LTYPE
  5
25
330
2
100
AcDbSymbolTableRecord
100
AcDbLinetypeTableRecord
  2
ByLayer
 70
0
  3

 72
65
 73
0
 40
0.0
  0
LTYPE
  5
26
330
2
100
AcDbSymbolTableRecord
100
AcDbLinetypeTableRecord
  2
Continuous
 70
0
  3

 72
65
 73
0
 40
0.0
  0
ENDTAB
  0
TABLE
  2
LAYER
  5
1
330
0
100
AcDbSymbolTable
 70
2
  0
LAYER
  5
27
330
1
100
AcDbSymbolTableRecord
100
AcDbLayerTableRecord
  2
0
 70
0
 62
7
  6
Continuous
370
-3
390
13
347
21
  0
LAYER
  5
28
330
1
100
AcDbSymbolTableRecord
100
AcDbLayerTableRecord
  2
Defpoints
 70
0
 62
7
  6
Continuous
290
0
370
-3
390
13
347
21
  0
ENDTAB
  0
TABLE
  2
STYLE
  5
5
330
0
100
AcDbSymbolTable
 70
1
  0
STYLE
  5
29
330
5
100
AcDbSymbolTableRecord
100
AcDbTextStyleTableRecord
  2
Standard
 70
0
 40
0.0
 41
1.0
 50
0.0
 71
0
 42
2.5
  3
txt
  4

  0
ENDTAB
  0
TABLE
  2
VIEW
  5
7
330
0
100
AcDbSymbolTable
 70
0
  0
ENDTAB
  0
TABLE
  2
UCS
  5
6
330
0
100
AcDbSymbolTable
 70
0
  0
ENDTAB
  0
TABLE
  2
APPID
  5
3
330
0
100
AcDbSymbolTable
 70
3
  0
APPID
  5
2A
330
3
100
AcDbSymbolTableRecord
100
AcDbRegAppTableRecord
  2
ACAD
 70
0
  0
APPID
  5
38B
330
3
100
AcDbSymbolTableRecord
100
AcDbRegAppTableRecord
  2
HATCHBACKGROUNDCOLOR
 70
0
  0
APPID
  5
38C
330
3
100
AcDbSymbolTableRecord
100
AcDbRegAppTableRecord
  2
EZDXF
 70
0
  0
ENDTAB
  0
TABLE
  2
DIMSTYLE
  5
4
330
0
100
AcDbSymbolTable
 70
1
100
AcDbDimStyleTable
  0
DIMSTYLE
105
2B
330
4
100
AcDbSymbolTableRecord
100
AcDbDimStyleTableRecord
  2
Standard
 70
0
 40
1.0
 41
2.5
 42
0.625
 43
3.75
 44
1.25
 45
0.0
 46
0.0
 47
0.0
 48
0.0
 49
2.5
140
2.5
141
2.5
142
0.0
143
0.03937007874
144
1.0
145
0.0
146
1.0
147
0.625
148
0.0
 69
0
 70
0
 71
0
 72
0
 73
0
 74
0
 75
0
 76
0
 77
1
 78
8
 79
3
170
0
171
3
172
1
173
0
174
0
175
0
176
0
177
0
178
0
179
2
271
2
272
2
273
2
274
3
275
0
276
0
277
2
278
44
279
0
280
0
281
0
282
0
283
0
284
8
285
0
286
0
288
0
289
3
290
0
371
-2
372
-2
  0
ENDTAB
  0
TABLE
  2
BLOCK_RECORD
  5
9
330
0
100
AcDbSymbolTable
 70
2
  0
BLOCK_RECORD
  5
17
330
9
100
AcDbSymbolTableRecord
100
AcDbBlockTableRecord
  2
*Model_Space
340
1A
 70
0
280
1
281
0
  0
BLOCK_RECORD
  5
1B
330
9
100
AcDbSymbolTableRecord
100
AcDbBlockTableRecord
  2
*Paper_Space
340
1E
 70
0
280
1
281
0
  0
ENDTAB
  0
ENDSEC
  0
SECTION
  2
BLOCKS
  0
BLOCK
  5
18
330
17
100
AcDbEntity
  8
0
100
AcDbBlockBegin
  2
*Model_Space
 70
0
 10
0.0
 20
0.0
 30
0.0
  3
*Model_Space
  1

  0
ENDBLK
  5
19
330
17
100
AcDbEntity
  8
0
100
AcDbBlockEnd
  0
BLOCK
  5
1C
330
1B
100
AcDbEntity
  8
0
100
AcDbBlockBegin
  2
*Paper_Space
 70
0
 10
0.0
 20
0.0
 30
0.0
  3
*Paper_Space
  1

  0
ENDBLK
  5
1D
330
1B
100
AcDbEntity
  8
0
100
AcDbBlockEnd
  0
ENDSEC
  0
SECTION
  2
ENTITIES
  0
LWPOLYLINE
  5
2F
330
17
100
AcDbEntity
  8
FP-Roof
100
AcDbPolyline
 90
2
 70
0
 10
-675.49975366728
 20
612.0000890985557
 10
-743.9997536672909
 20
680.5000890985657
  0
LWPOLYLINE
  5
30
330
17
100
AcDbEntity
  8
FP-Roof
100
AcDbPolyline
 90
6
 70
0
 10
-467.9997268378047
 20
783.0824414526005
 10
-653.9997536672727
 20
783.0824414526005
 10
-653.9997536672727
 20
680.500089098552
 10
-743.99975366728
 20
680.5000890985657
 10
-743.99975366728
 20
491.4998586895963
 10
-658.1792709097463
 20
491.4995017125102
  0
LWPOLYLINE
  5
31
330
17
100
AcDbEntity
  8
FP-Roof
100
AcDbPolyline
 90
2
 70
0
 10
-675.49975366728
 20
559.9995737590207
 10
-743.9994687378912
 20
491.4998586884112
  0
LINE
  5
32
330
17
100
AcDbEntity
  8
FP-Below
100
AcDbLine
 10
-728.0032823764541
 20
615.9993628419506
 30
0.0
 11
-716.9997536672872
 21
615.9993628419506
 31
0.0
  0
LINE
  5
33
330
17
100
AcDbEntity
  8
FP-Below
100
AcDbLine
 10
-728.0032823764468
 20
555.9993628419224
 30
0.0
 11
-716.9997536672872
 21
555.9993628419224
 31
0.0
  0
LINE
  5
34
330
17
100
AcDbEntity
  8
FP-Below
100
AcDbLine
 10
-727.9997536672872
 20
555.9993628419224
 30
0.0
 11
-727.99975366728
 21
507.4997921364693
 31
0.0
  0
LINE
  5
35
330
17
100
AcDbEntity
  8
FP-Below
100
AcDbLine
 10
-727.99975366728
 20
664.5000890985493
 30
0.0
 11
-727.9997536672872
 21
615.9993628419506
 31
0.0
  0
LINE
  5
36
330
17
100
AcDbEntity
  8
FP-Below
100
AcDbLine
 10
-643.99975366728
 20
507.4997921364693
 30
0.0
 11
-727.99975366728
 21
507.4997921364693
 31
0.0
  0
LINE
  5
37
330
17
100
AcDbEntity
  8
FP-Below
100
AcDbLine
 10
-727.99975366728
 20
664.5000890985493
 30
0.0
 11
-637.9997536672727
 21
664.5000890985493
 31
0.0
  0
LWPOLYLINE
  5
38
330
17
100
AcDbEntity
  8
FP-Note
100
AcDbPolyline
 90
4
 70
0
 10
-710.7795869948932
 20
590.0182098509545
 10
-722.7795869948841
 20
590.0181952032117
 10
-722.7795625819781
 20
570.0181952032267
 10
-710.7795869948932
 20
590.0182098509545
  0
LINE
  5
39
330
17
100
AcDbEntity
  8
FP-Below
100
AcDbLine
 10
-716.99975366728
 20
518.5008316029916
 30
0.0
 11
-716.9997536672872
 21
555.9993628419224
 31
0.0
  0
LINE
  5
3A
330
17
100
AcDbEntity
  8
FP-Below
100
AcDbLine
 10
-716.9997536672872
 20
615.9993628419506
 30
0.0
 11
-716.99975366728
 21
653.5000890985493
 31
0.0
  0
LINE
  5
3B
330
17
100
AcDbEntity
  8
FP-Below
100
AcDbLine
 10
-560.9404509754586
 20
518.5008316029916
 30
0.0
 11
-716.99975366728
 21
518.5008316029916
 31
0.0
  0
LINE
  5
3C
330
17
100
AcDbEntity
  8
FP-Below
100
AcDbLine
 10
-560.9404509754586
 20
653.5000890985493
 30
0.0
 11
-716.99975366728
 21
653.5000890985493
 31
0.0
  0
LWPOLYLINE
  5
3D
330
17
100
AcDbEntity
  8
FP-Above
100
AcDbPolyline
 90
4
 70
1
 10
-704.99975366728
 20
641.5006523039028
 10
-572.9404509754586
 20
641.5006523039028
 10
-572.9404509754586
 20
530.4991997907
 10
-704.99975366728
 20
530.4991997907
  0
LINE
  5
3E
330
17
100
AcDbEntity
  8
FP-Below
100
AcDbLine
 10
-651.2683986052489
 20
91.00008909854841
 30
0.0
 11
-699.99975366728
 21
91.00008909854841
 31
0.0
  0
LINE
  5
3F
330
17
100
AcDbEntity
  8
FP-Below
100
AcDbLine
 10
-699.99975366728
 20
91.00008909854841
 30
0.0
 11
-699.99975366728
 21
115.00098008402165
 31
0.0
  0
LINE
  5
40
330
17
100
AcDbEntity
  8
FP-Below
100
AcDbLine
 10
-699.99975366728
 20
115.00098008402165
 30
0.0
 11
-688.99975366728
 21
115.00098008402165
 31
0.0
  0
LWPOLYLINE
  5
41
330
17
100
AcDbEntity
  8
FP-Below
100
AcDbPolyline
 90
4
 70
1
 38
-0.3403031765569822
 10
-699.99975366728
 20
246.9991981130761
 10
-688.99975366728
 20
246.9991981130761
 10
-688.99975366728
 20
223.00008909854932
 10
-699.99975366728
 20
223.00008909854932
  0
LWPOLYLINE
  5
42
330
17
100
AcDbEntity
  8
FP-Below
100
AcDbPolyline
 90
4
 70
0
 38
-0.3403031765569822
 10
-699.99975366728
 20
507.4997921364693
 10
-699.99975366728
 20
487.00098008402983
 10
-688.99975366728
 20
487.00098008402983
 10
-688.99975366728
 20
507.4997921364693
  0
LINE
  5
43
330
17
100
AcDbEntity
  8
FP-Below
100
AcDbLine
 10
-688.99975366728
 20
115.00098008402165
 30
0.0
 11
-688.99975366728
 21
102.00008909854841
 31
0.0
  0
LINE
  5
44
330
17
100
AcDbEntity
  8
FP-Below
100
AcDbLine
 10
-688.99975366728
 20
102.00008909854841
 30
0.0
 11
-640.2683986052489
 21
102.00008909854841
 31
0.0
  0
LWPOLYLINE
  5
45
330
17
100
AcDbEntity
  8
FP-Note
100
AcDbPolyline
 90
4
 70
0
 10
-682.6349543298693
 20
653.0839945395801
 10
-682.6349396821279
 20
665.083994539571
 10
-662.6349396821424
 20
665.083970126665
 10
-682.6349543298693
 20
653.0839945395801
  0
LWPOLYLINE
  5
46
330
17
100
AcDbEntity
  8
FP-Roof Detail
100
AcDbPolyline
 90
2
 70
0
 10
-675.4997539502237
 20
559.9995737590207
 10
-649.4994962804576
 20
585.9998314287875
  0
LWPOLYLINE
  5
47
330
17
100
AcDbEntity
  8
FP-Roof Detail
100
AcDbPolyline
 90
2
 70
0
 10
-675.4997539502237
 20
612.0000890985557
 10
-649.4994962804576
 20
585.9998314287882
  0
LWPOLYLINE
  5
48
330
17
100
AcDbEntity
  8
FP-Roof
100
AcDbPolyline
 90
4
 70
0
 10
-585.4997536672727
 20
612.000089098542
 10
-675.49975366728
 20
612.0000890985557
 10
-675.49975366728
 20
559.9995737590207
 10
-585.4997536672727
 20
559.9991993969024
  0
LWPOLYLINE
  5
49
330
17
100
AcDbEntity
  8
FP-Note
100
AcDbPolyline
 90
4
 70
0
 10
-658.5736799838505
 20
585.3675526251272
 10
-670.5736799838414
 20
585.3675379773858
 10
-670.5736555709354
 20
583.3675379774004
 10
-658.5736799838505
 20
585.3675526251272
  0
LWPOLYLINE
  5
4A
330
17
100
AcDbEntity
  8
FP-Roof
100
AcDbPolyline
 90
2
 70
0
 10
-623.5130672502146
 20
526.1657053720419
 10
-658.1792709097463
 20
491.4995017125102
  0
LWPOLYLINE
  5
4B
330
17
100
AcDbEntity
  8
FP-Roof
100
AcDbPolyline
 90
2
 70
0
 10
-653.9997536672727
 20
680.500089098552
 10
-585.4997536672727
 20
612.000089098542
  0
LWPOLYLINE
  5
4C
330
17
100
AcDbEntity
  8
FP-Roof
100
AcDbPolyline
 90
2
 70
0
 10
-556.7497536672727
 20
685.8324414526005
 10
-653.9997536672727
 20
783.0824414526005
  0
LWPOLYLINE
  5
4D
330
17
100
AcDbEntity
  8
FP-Below
100
AcDbPolyline
 90
3
 70
0
 38
-0.3403031765569822
 10
-651.2683986052489
 20
91.00008909854841
 10
-651.2683986052489
 20
73.00008909854841
 10
-619.7488626824324
 20
73.00008909841745
  0
LWPOLYLINE
  5
4E
330
17
100
AcDbEntity
  8
FP-Roof Detail
100
AcDbPolyline
 90
2
 70
0
 10
-649.4994962804576
 20
585.9998314287875
 10
-584.4997539502165
 20
585.9998314287875
  0
LINE
  5
4F
330
17
100
AcDbEntity
  8
FP-Below
100
AcDbLine
 10
-643.99975366728
 20
512.0008316029916
 30
0.0
 11
-643.99975366728
 21
507.4997921364693
 31
0.0
  0
LINE
  5
50
330
17
100
AcDbEntity
  8
FP-Below
100
AcDbLine
 10
-448.99886268179216
 20
512.0008316029916
 30
0.0
 11
-643.99975366728
 21
512.0008316029916
 31
0.0
  0
LWPOLYLINE
  5
51
330
17
100
AcDbEntity
  8
FP-Below
100
AcDbPolyline
 90
3
 70
0
 38
-0.3403031765569822
 10
-640.2683986052489
 20
102.00008909854841
 10
-640.2683986052489
 20
84.00008909854841
 10
-619.7488626824324
 20
84.00008909841745
  0
LINE
  5
52
330
17
100
AcDbEntity
  8
FP-Below
100
AcDbLine
 10
-637.9997536672727
 20
664.5000890985493
 30
0.0
 11
-637.9997536672727
 21
767.0824414525623
 31
0.0
  0
LINE
  5
53
330
17
100
AcDbEntity
  8
FP-Below
100
AcDbLine
 10
-637.9997536672727
 20
767.0824414525623
 30
0.0
 11
-596.249391740761
 21
767.0824316199278
 31
0.0
  0
LINE
  5
54
330
17
100
AcDbEntity
  8
FP-Below
100
AcDbLine
 10
-626.9997536672727
 20
667.0000890985502
 30
0.0
 11
-449.0029484677634
 21
667.0000890985493
 31
0.0
  0
LINE
  5
55
330
17
100
AcDbEntity
  8
FP-Below
100
AcDbLine
 10
-626.9996510940891
 20
756.0794465549907
 30
0.0
 11
-626.9997536672727
 21
667.0000890985502
 31
0.0
  0
LINE
  5
56
330
17
100
AcDbEntity
  8
FP-Below
100
AcDbLine
 10
-596.2493917407246
 20
756.0824316199278
 30
0.0
 11
-626.9997536672727
 21
756.0824414525623
 31
0.0
  0
LWPOLYLINE
  5
57
330
17
100
AcDbEntity
  8
FP-Roof
100
AcDbPolyline
 90
2
 70
0
 10
-623.5144340324132
 20
526.1656473592195
 10
-444.36117655360977
 20
528.4149926963651
  0
LINE
  5
58
330
17
100
AcDbEntity
  8
FP-Below
100
AcDbLine
 10
-619.7488626824324
 20
73.00008909841745
 30
0.0
 11
-619.7488626824324
 21
84.00008909841745
 31
0.0
  0
LWPOLYLINE
  5
59
330
17
100
AcDbEntity
  8
FP-Note
100
AcDbPolyline
 90
4
 70
0
 10
-619.431671377828
 20
577.0663835761256
 10
-619.4316567300866
 20
565.0663835761347
 10
-617.4316567301012
 20
565.0664079890407
 10
-619.431671377828
 20
577.0663835761256
  0
LWPOLYLINE
  5
5A
330
17
100
AcDbEntity
  8
FP-Note
100
AcDbPolyline
 90
4
 70
0
 10
-619.431671377828
 20
592.0931283259379
 10
-619.4316567300866
 20
604.0931283259288
 10
-617.4316567301012
 20
604.0931039130228
 10
-619.431671377828
 20
592.0931283259379
  0
LWPOLYLINE
  5
5B
330
17
100
AcDbEntity
  8
FP-Note
100
AcDbPolyline
 90
4
 70
0
 10
-588.3786977830641
 20
683.4662250446568
 10
-600.378697783055
 20
683.466210396914
 10
-600.378673370149
 20
663.466210396929
 10
-588.3786977830641
 20
683.4662250446568
  0
LINE
  5
5C
330
17
100
AcDbEntity
  8
FP-Below
100
AcDbLine
 10
-596.249391740761
 20
767.0824088783693
 30
0.0
 11
-596.2493917407246
 21
756.0824088783693
 31
0.0
  0
LWPOLYLINE
  5
5D
330
17
100
AcDbEntity
  8
FP-Roof
100
AcDbPolyline
 90
3
 70
0
 10
-585.4997539502165
 20
612.000089098542
 10
-584.4997539502165
 20
585.9996442477222
 10
-585.4997539502165
 20
559.9991993969024
  0
LWPOLYLINE
  5
5E
330
17
100
AcDbEntity
  8
FP-Roof
100
AcDbPolyline
 90
2
 70
0
 10
-556.7497536672727
 20
588.7490798092522
 10
-585.4997536672727
 20
559.9991993969024
  0
LWPOLYLINE
  5
5F
330
17
100
AcDbEntity
  8
FP-Below
100
AcDbPolyline
 90
2
 70
0
 38
-0.3403031765569822
 10
-554.2506446521202
 20
73.0000890984793
 10
-583.7488626824615
 20
73.00008909841745
  0
LINE
  5
60
330
17
100
AcDbEntity
  8
FP-Below
100
AcDbLine
 10
-583.7488626824615
 20
73.00008909841745
 30
0.0
 11
-583.7488626824615
 21
84.00008909841745
 31
0.0
  0
LWPOLYLINE
  5
61
330
17
100
AcDbEntity
  8
FP-Below
100
AcDbPolyline
 90
2
 70
0
 38
-0.3403031765569822
 10
-554.2506446521202
 20
84.00008909848657
 10
-583.7488626824615
 20
84.00008909841745
  0
LINE
  5
62
330
17
100
AcDbEntity
  8
FP-Below
100
AcDbLine
 10
-560.9404509754586
 20
518.4986365853465
 30
0.0
 11
-560.9404509754586
 21
552.935659331145
 31
0.0
  0
LINE
  5
63
330
17
100
AcDbEntity
  8
FP-Below
100
AcDbLine
 10
-552.9404509754586
 20
552.935659331145
 30
0.0
 11
-560.9404509754586
 21
552.935659331145
 31
0.0
  0
LINE
  5
64
330
17
100
AcDbEntity
  8
FP-Below
100
AcDbLine
 10
-560.9404509754586
 20
588.935659331145
 30
0.0
 11
-560.9404509754586
 21
605.435659331145
 31
0.0
  0
LINE
  5
65
330
17
100
AcDbEntity
  8
FP-Below
100
AcDbLine
 10
-552.9404509754586
 20
588.935659331145
 30
0.0
 11
-560.9404509754586
 21
588.935659331145
 31
0.0
  0
LWPOLYLINE
  5
66
330
17
100
AcDbEntity
  8
FP-Below
100
AcDbPolyline
 90
2
 70
0
 10
-556.4404509754586
 20
605.435659331145
 10
-560.9404509754586
 20
605.435659331145
  0
LINE
  5
67
330
17
100
AcDbEntity
  8
FP-Below
100
AcDbLine
 10
-560.9404509754586
 20
635.435659331145
 30
0.0
 11
-560.9404509754586
 21
653.4978940809042
 31
0.0
  0
LWPOLYLINE
  5
68
330
17
100
AcDbEntity
  8
FP-Below
100
AcDbPolyline
 90
2
 70
0
 10
-556.4404509754586
 20
635.435659331145
 10
-560.9404509754586
 20
635.435659331145
  0
LINE
  5
69
330
17
100
AcDbEntity
  8
FP-Below
100
AcDbLine
 10
-560.2493917407755
 20
767.0824088785039
 30
0.0
 11
-560.2493917407319
 21
756.0824088785039
 31
0.0
  0
LINE
  5
6A
330
17
100
AcDbEntity
  8
FP-Below
100
AcDbLine
 10
-560.2493917407755
 20
767.0824316199278
 30
0.0
 11
-515.7494657789484
 21
767.0824417505564
 31
0.0
  0
LINE
  5
6B
330
17
100
AcDbEntity
  8
FP-Below
100
AcDbLine
 10
-515.749465778912
 20
756.0824456625269
 30
0.0
 11
-560.2493917407319
 21
756.0824316199278
 31
0.0
  0
LWPOLYLINE
  5
6C
330
17
100
AcDbEntity
  8
FP-Roof Detail
100
AcDbPolyline
 90
2
 70
0
 10
-556.7497539502165
 20
588.7490798092522
 10
-508.2080731285423
 20
637.2907606309261
  0
LWPOLYLINE
  5
6D
330
17
100
AcDbEntity
  8
FP-Roof Detail
100
AcDbPolyline
 90
2
 70
0
 10
-556.7497539502165
 20
685.8324414526005
 10
-508.2080731285423
 20
637.2907606309261
  0
LWPOLYLINE
  5
6E
330
17
100
AcDbEntity
  8
FP-Roof
100
AcDbPolyline
 90
4
 70
0
 10
-384.02920746811105
 20
685.8324414529177
 10
-556.7497536672727
 20
685.8324414526005
 10
-556.7497536672727
 20
588.7490798092522
 10
-384.02920746811105
 20
588.7487424425015
  0
LINE
  5
6F
330
17
100
AcDbEntity
  8
FP-Below
100
AcDbLine
 10
-556.4404509754586
 20
518.4986365853474
 30
0.0
 11
-448.99886268179216
 21
518.4986365853465
 31
0.0
  0
LINE
  5
70
330
17
100
AcDbEntity
  8
FP-Below
100
AcDbLine
 10
-556.4404509754586
 20
542.435659331145
 30
0.0
 11
-556.4404509754586
 21
518.4986365853465
 31
0.0
  0
LINE
  5
71
330
17
100
AcDbEntity
  8
FP-Below
100
AcDbLine
 10
-528.9696568286217
 20
542.435659331145
 30
0.0
 11
-556.4404509754586
 21
542.435659331145
 31
0.0
  0
LINE
  5
72
330
17
100
AcDbEntity
  8
FP-Below
100
AcDbLine
 10
-556.4404509754586
 20
599.435659331145
 30
0.0
 11
-556.4404509754586
 21
605.435659331145
 31
0.0
  0
LINE
  5
73
330
17
100
AcDbEntity
  8
FP-Below
100
AcDbLine
 10
-448.99886268179216
 20
599.4356593311459
 30
0.0
 11
-556.4404509754586
 21
599.435659331145
 31
0.0
  0
LINE
  5
74
330
17
100
AcDbEntity
  8
FP-Below
100
AcDbLine
 10
-556.4404509754586
 20
635.435659331145
 30
0.0
 11
-556.4404509754586
 21
660.4978940809042
 31
0.0
  0
LINE
  5
75
330
17
100
AcDbEntity
  8
FP-Below
100
AcDbLine
 10
-448.99886268179216
 20
660.4978940809042
 30
0.0
 11
-556.4404509754586
 21
660.4978940809042
 31
0.0
  0
LINE
  5
76
330
17
100
AcDbEntity
  8
FP-Below
100
AcDbLine
 10
-554.2506446521202
 20
73.00008909838834
 30
0.0
 11
-554.2506446521202
 21
84.00008909838834
 31
0.0
  0
LINE
  5
77
330
17
100
AcDbEntity
  8
FP-Below
100
AcDbLine
 10
-528.9696568286217
 20
546.935659331145
 30
0.0
 11
-552.9404509754586
 21
546.935659331145
 31
0.0
  0
LINE
  5
78
330
17
100
AcDbEntity
  8
FP-Below
100
AcDbLine
 10
-552.9404509754586
 20
546.935659331145
 30
0.0
 11
-552.9404509754586
 21
552.935659331145
 31
0.0
  0
LINE
  5
79
330
17
100
AcDbEntity
  8
FP-Below
100
AcDbLine
 10
-552.9404509754586
 20
588.935659331145
 30
0.0
 11
-552.9404509754586
 21
594.935659331145
 31
0.0
  0
LINE
  5
7A
330
17
100
AcDbEntity
  8
FP-Below
100
AcDbLine
 10
-448.99886268179216
 20
594.935659331145
 30
0.0
 11
-552.9404509754586
 21
594.935659331145
 31
0.0
  0
LWPOLYLINE
  5
7B
330
17
100
AcDbEntity
  8
FP-Note
100
AcDbPolyline
 90
4
 70
0
 10
-533.1559451667654
 20
636.6584818272659
 10
-545.1559451667563
 20
636.6584671795245
 10
-545.1559207538503
 20
634.658467179539
 10
-533.1559451667654
 20
636.6584818272659
  0
LINE
  5
7C
330
17
100
AcDbEntity
  8
FP-Below
100
AcDbLine
 10
-528.9696568286217
 20
542.435659331145
 30
0.0
 11
-528.9696568286217
 21
546.935659331145
 31
0.0
  0
LINE
  5
7D
330
17
100
AcDbEntity
  8
FP-Below
100
AcDbLine
 10
-518.2506446521493
 20
73.00008909838834
 30
0.0
 11
-518.2506446521493
 21
84.00008909838834
 31
0.0
  0
LWPOLYLINE
  5
7E
330
17
100
AcDbEntity
  8
FP-Below
100
AcDbPolyline
 90
3
 70
0
 38
-0.3403031765569822
 10
-486.73110872929647
 20
91.00008909854841
 10
-486.73110872929647
 20
73.00008909854841
 10
-518.2506446521493
 20
73.00008909851203
  0
LWPOLYLINE
  5
7F
330
17
100
AcDbEntity
  8
FP-Below
100
AcDbPolyline
 90
3
 70
0
 38
-0.3403031765569822
 10
-497.73110872929647
 20
102.00008909854841
 10
-497.73110872929647
 20
84.00008909854841
 10
-518.2506446521493
 20
84.00008909852295
  0
LINE
  5
80
330
17
100
AcDbEntity
  8
FP-Below
100
AcDbLine
 10
-515.7494657789484
 20
767.082393460506
 30
0.0
 11
-515.749465778912
 21
756.082393460506
 31
0.0
  0
LWPOLYLINE
  5
81
330
17
100
AcDbEntity
  8
FP-Roof Detail
100
AcDbPolyline
 90
2
 70
0
 10
-508.2080731285423
 20
637.2907606309261
 10
-382.77093430466994
 20
637.2893880089332
  0
LWPOLYLINE
  5
82
330
17
100
AcDbEntity
  8
FP-Note
100
AcDbPolyline
 90
4
 70
0
 10
-504.351929878756
 20
565.2232084442585
 10
-504.3519152310146
 20
553.2232084442676
 10
-484.3519152310291
 20
553.2232328571736
 10
-504.351929878756
 20
565.2232084442585
  0
LWPOLYLINE
  5
83
330
17
100
AcDbEntity
  8
FP-Note
100
AcDbPolyline
 90
4
 70
0
 10
-503.9954461881116
 20
724.546792072384
 10
-503.9954315403702
 20
736.546792072375
 10
-483.99543154038474
 20
736.546767659469
 10
-503.9954461881116
 20
724.546792072384
  0
LINE
  5
84
330
17
100
AcDbEntity
  8
FP-Below
100
AcDbLine
 10
-448.99886268179216
 20
102.00008909854841
 30
0.0
 11
-497.73110872929647
 21
102.00008909854841
 31
0.0
  0
LINE
  5
85
330
17
100
AcDbEntity
  8
FP-Below
100
AcDbLine
 10
-486.73110872929647
 20
91.00008909854841
 30
0.0
 11
-437.99975366727995
 21
91.00008909854841
 31
0.0
  0
LINE
  5
86
330
17
100
AcDbEntity
  8
FP-Below
100
AcDbLine
 10
-479.749465778963
 20
767.0823934606406
 30
0.0
 11
-479.74946577891933
 21
756.0823934606406
 31
0.0
  0
LINE
  5
87
330
17
100
AcDbEntity
  8
FP-Below
100
AcDbLine
 10
-479.749465778963
 20
767.0824417505564
 30
0.0
 11
-451.99886268179216
 21
767.0824414525623
 31
0.0
  0
LINE
  5
88
330
17
100
AcDbEntity
  8
FP-Below
100
AcDbLine
 10
-449.0029484677634
 20
756.0824414525623
 30
0.0
 11
-479.74946577891933
 21
756.0824417505564
 31
0.0
  0
LINE
  5
89
330
17
100
AcDbEntity
  8
FP-Below
100
AcDbLine
 10
-448.99886268179216
 20
542.435659331145
 30
0.0
 11
-472.96965682862174
 21
542.435659331145
 31
0.0
  0
LINE
  5
8A
330
17
100
AcDbEntity
  8
FP-Below
100
AcDbLine
 10
-472.96965682862174
 20
542.435659331145
 30
0.0
 11
-472.96965682862174
 21
546.935659331145
 31
0.0
  0
LINE
  5
8B
330
17
100
AcDbEntity
  8
FP-Below
100
AcDbLine
 10
-448.99886268179216
 20
546.935659331145
 30
0.0
 11
-472.96965682862174
 21
546.935659331145
 31
0.0
  0
LWPOLYLINE
  5
8C
330
17
100
AcDbEntity
  8
FP-Note
100
AcDbPolyline
 90
4
 70
0
 10
-470.17036381273283
 20
624.6850524164824
 10
-470.1703491649914
 20
612.6850524164915
 10
-468.170349165006
 20
612.6850768293975
 10
-470.17036381273283
 20
624.6850524164824
  0
LWPOLYLINE
  5
8D
330
17
100
AcDbEntity
  8
FP-Note
100
AcDbPolyline
 90
4
 70
0
 10
-470.17036381273283
 20
649.8964688453698
 10
-470.1703491649914
 20
661.8964688453607
 10
-468.170349165006
 20
661.8964444324547
 10
-470.17036381273283
 20
649.8964688453698
  0
LWPOLYLINE
  5
8E
330
17
100
AcDbEntity
  8
FP-Roof
100
AcDbPolyline
 90
3
 70
0
 10
-468.0022526985631
 20
175.84293383710337
 10
-468.0023913911609
 20
142.49999361229857
 10
-192.99975366728722
 20
142.49999361229857
  0
LWPOLYLINE
  5
8F
330
17
100
AcDbEntity
  8
FP-Roof
100
AcDbPolyline
 90
2
 70
0
 10
-468.00216412808186
 20
175.84302240758507
 10
-446.6123029533919
 20
197.23288358227455
  0
LWPOLYLINE
  5
90
330
17
100
AcDbEntity
  8
FP-Roof
100
AcDbPolyline
 90
2
 70
0
 38
-0.34030317655698217
 10
-384.02920746811105
 20
685.8324414529172
 10
-467.9997820746248
 20
769.8030160594308
  0
LWPOLYLINE
  5
91
330
17
100
AcDbEntity
  8
FP-Roof
100
AcDbPolyline
 90
2
 70
0
 10
-467.9988626817867
 20
990.8332739497282
 10
-467.9997820746248
 20
769.8030160594308
  0
LWPOLYLINE
  5
92
330
17
100
AcDbEntity
  8
FP-Roof
100
AcDbPolyline
 90
2
 70
0
 10
-367.7523913911373
 20
242.74999361229493
 10
-467.998862681794
 20
142.49999361229584
  0
LWPOLYLINE
  5
93
330
17
100
AcDbEntity
  8
FP-Roof
100
AcDbPolyline
 90
2
 70
0
 10
-367.752391390979
 20
890.5832739497282
 10
-467.9988626817867
 20
990.8332739497282
  0
LWPOLYLINE
  5
94
330
17
100
AcDbEntity
  8
FP-Roof
100
AcDbPolyline
 90
6
 70
0
 10
177.49505872371265
 20
990.8332739497282
 10
146.9993905800311
 20
990.8332739497282
 10
146.9993905800311
 20
952.0832739502871
 10
-146.99975366727267
 20
952.0832739502866
 10
-146.99975366727267
 20
990.8332739497287
 10
-467.9988626817867
 20
990.8332739497282
  0
LINE
  5
95
330
17
100
AcDbEntity
  8
FP-Below
100
AcDbLine
 10
-452.002391390959
 20
831.83327394973
 30
0.0
 11
-464.002391390959
 21
831.83327394973
 31
0.0
  0
LINE
  5
96
330
17
100
AcDbEntity
  8
FP-Below
100
AcDbLine
 10
-464.002391390959
 20
831.83327394973
 30
0.0
 11
-464.002391390959
 21
903.83327394973
 31
0.0
  0
LINE
  5
97
330
17
100
AcDbEntity
  8
FP-Below
100
AcDbLine
 10
-464.002391390959
 20
903.83327394973
 30
0.0
 11
-452.002391390959
 21
903.8332739497318
 31
0.0
  0
LINE
  5
98
330
17
100
AcDbEntity
  8
FP-Below
100
AcDbLine
 10
-452.002391390959
 20
767.0823836999143
 30
0.0
 11
-452.002391390959
 21
831.83327394973
 31
0.0
  0
LINE
  5
99
330
17
100
AcDbEntity
  8
FP-Below
100
AcDbLine
 10
-452.002391390959
 20
903.8332739497318
 30
0.0
 11
-452.002391390959
 21
974.8332739497282
 31
0.0
  0
LINE
  5
9A
330
17
100
AcDbEntity
  8
FP-Below
100
AcDbLine
 10
-404.7515006163503
 20
974.8332739497282
 30
0.0
 11
-452.002391390959
 21
974.8332739497282
 31
0.0
  0
LINE
  5
9B
330
17
100
AcDbEntity
  8
FP-Below
100
AcDbLine
 10
-451.99886268179216
 20
158.49999361229948
 30
0.0
 11
-421.99797112760825
 21
158.4999936122922
 31
0.0
  0
LINE
  5
9C
330
17
100
AcDbEntity
  8
FP-Below
100
AcDbLine
 10
-451.99886268179216
 20
206.49993585853645
 30
0.0
 11
-451.99886268179216
 21
158.49999361229948
 31
0.0
  0
LINE
  5
9D
330
17
100
AcDbEntity
  8
FP-Below
100
AcDbLine
 10
-451.99886268179216
 20
206.49993585853645
 30
0.0
 11
-448.99886268179216
 21
206.49993585853645
 31
0.0
  0
LWPOLYLINE
  5
9E
330
17
100
AcDbEntity
  8
FP-Below
100
AcDbPolyline
 90
4
 70
0
 10
-441.0029484677634
 20
685.0417339979676
 10
-441.0029484677634
 20
691.0417339979676
 10
-449.0029484677634
 20
691.0417339979676
 10
-449.0029484677634
 20
667.0000890985493
  0
LWPOLYLINE
  5
9F
330
17
100
AcDbEntity
  8
FP-Below
100
AcDbPolyline
 90
4
 70
0
 10
-441.0029484677634
 20
765.33327394973
 10
-441.0029484677634
 20
733.0417339979676
 10
-449.0029484677634
 20
733.0417339979676
 10
-449.0029484677634
 20
756.0829091737678
  0
LINE
  5
A0
330
17
100
AcDbEntity
  8
FP-Below
100
AcDbLine
 10
-448.99886268179216
 20
158.49999361229948
 30
0.0
 11
-448.99886268179216
 21
102.00008909854841
 31
0.0
  0
LINE
  5
A1
330
17
100
AcDbEntity
  8
FP-Below
100
AcDbLine
 10
-448.99886268179216
 20
206.49993585853645
 30
0.0
 11
-448.99886268179216
 21
512.0008316029916
 31
0.0
  0
LINE
  5
A2
330
17
100
AcDbEntity
  8
FP-Below
100
AcDbLine
 10
-448.99886268179216
 20
542.435659331145
 30
0.0
 11
-448.99886268179216
 21
518.4986365853465
 31
0.0
  0
LINE
  5
A3
330
17
100
AcDbEntity
  8
FP-Below
100
AcDbLine
 10
-448.99886268179216
 20
554.9255557498027
 30
0.0
 11
-448.99886268179216
 21
546.935659331145
 31
0.0
  0
LINE
  5
A4
330
17
100
AcDbEntity
  8
FP-Below
100
AcDbLine
 10
-448.99886268179216
 20
554.9255557498027
 30
0.0
 11
-441.0029484677634
 21
554.935659331145
 31
0.0
  0
LINE
  5
A5
330
17
100
AcDbEntity
  8
FP-Below
100
AcDbLine
 10
-448.99886268179216
 20
594.935659331145
 30
0.0
 11
-448.99886268179216
 21
586.9255557498027
 31
0.0
  0
LINE
  5
A6
330
17
100
AcDbEntity
  8
FP-Below
100
AcDbLine
 10
-448.99886268179216
 20
586.9255557498027
 30
0.0
 11
-441.0029484677634
 21
586.935659331145
 31
0.0
  0
LINE
  5
A7
330
17
100
AcDbEntity
  8
FP-Below
100
AcDbLine
 10
-448.99886268179216
 20
660.4978940809042
 30
0.0
 11
-448.99886268179216
 21
599.435659331145
 31
0.0
  0
LWPOLYLINE
  5
A8
330
17
100
AcDbEntity
  8
FP-Roof
100
AcDbPolyline
 90
2
 70
0
 10
-444.361693809351
 20
376.239724209398
 10
-446.61230226773114
 20
197.23288436439225
  0
LWPOLYLINE
  5
A9
330
17
100
AcDbEntity
  8
FP-Roof
100
AcDbPolyline
 90
2
 70
0
 10
-384.02920746811105
 20
588.7487424425015
 10
-444.36297985547026
 20
528.4149700551432
  0
LINE
  5
AA
330
17
100
AcDbEntity
  8
FP-Roof
100
AcDbLine
 10
-444.36117655360977
 20
528.4149926963651
 30
0.0
 11
-444.361693809351
 21
376.239724209398
 31
0.0
  0
LINE
  5
AB
330
17
100
AcDbEntity
  8
FP-Below
100
AcDbLine
 10
-441.0096792054301
 20
547.020148215589
 30
0.0
 11
-354.50064465276773
 21
547.0145521005425
 31
0.0
  0
LINE
  5
AC
330
17
100
AcDbEntity
  8
FP-Below
100
AcDbLine
 10
-427.0029484677634
 20
831.83327394973
 30
0.0
 11
-441.00697635956567
 21
831.83327394973
 31
0.0
  0
LINE
  5
AD
330
17
100
AcDbEntity
  8
FP-Below
100
AcDbLine
 10
-427.0029484677634
 20
903.83327394973
 30
0.0
 11
-441.00697635956567
 21
903.83327394973
 31
0.0
  0
LINE
  5
AE
330
17
100
AcDbEntity
  8
FP-Below
100
AcDbLine
 10
-441.0029484677525
 20
586.935659331144
 30
0.0
 11
-441.00294846776706
 21
625.0832739508396
 31
0.0
  0
LINE
  5
AF
330
17
100
AcDbEntity
  8
FP-Below
100
AcDbLine
 10
-441.0029484677634
 20
631.583273950836
 30
0.0
 11
-441.00294846776706
 21
678.5417339979676
 31
0.0
  0
LINE
  5
B0
330
17
100
AcDbEntity
  8
FP-Below
100
AcDbLine
 10
-441.0029484677634
 20
547.020147780192
 30
0.0
 11
-441.0029484677634
 21
554.935659331145
 31
0.0
  0
LINE
  5
B1
330
17
100
AcDbEntity
  8
FP-Below
100
AcDbLine
 10
-354.50064465276773
 20
625.083273950836
 30
0.0
 11
-441.0029484677634
 21
625.0832739508396
 31
0.0
  0
LINE
  5
B2
330
17
100
AcDbEntity
  8
FP-Below
100
AcDbLine
 10
-441.0029484677634
 20
631.583273950836
 30
0.0
 11
-347.00064465276773
 21
631.583273950836
 31
0.0
  0
LINE
  5
B3
330
17
100
AcDbEntity
  8
FP-Below
100
AcDbLine
 10
-408.0017965602656
 20
678.5417339979667
 30
0.0
 11
-441.0029484677634
 21
678.5417339979676
 31
0.0
  0
LINE
  5
B4
330
17
100
AcDbEntity
  8
FP-Below
100
AcDbLine
 10
-408.0017965602656
 20
685.0417339979676
 30
0.0
 11
-441.0029484677634
 21
685.0417339979676
 31
0.0
  0
LINE
  5
B5
330
17
100
AcDbEntity
  8
FP-Below
100
AcDbLine
 10
-347.00064465276773
 20
765.3328062285245
 30
0.0
 11
-441.0029484677634
 21
765.3328062285245
 31
0.0
  0
LINE
  5
B6
330
17
100
AcDbEntity
  8
FP-Below
100
AcDbLine
 10
-441.0029484677634
 20
765.3328062285245
 30
0.0
 11
-441.0029484677634
 21
765.3328062285245
 31
0.0
  0
LINE
  5
B7
330
17
100
AcDbEntity
  8
FP-Below
100
AcDbLine
 10
-334.50064465276773
 20
771.83327394973
 30
0.0
 11
-441.0029484677634
 21
771.83327394973
 31
0.0
  0
LINE
  5
B8
330
17
100
AcDbEntity
  8
FP-Below
100
AcDbLine
 10
-441.0029484677634
 20
771.83327394973
 30
0.0
 11
-441.0029484677634
 21
831.83327394973
 31
0.0
  0
LINE
  5
B9
330
17
100
AcDbEntity
  8
FP-Below
100
AcDbLine
 10
-441.0029484677634
 20
849.83327394973
 30
0.0
 11
-441.0029484677634
 21
885.83327394973
 31
0.0
  0
LINE
  5
BA
330
17
100
AcDbEntity
  8
FP-Below
100
AcDbLine
 10
-427.0029484677634
 20
849.83327394973
 30
0.0
 11
-441.0029484677634
 21
849.83327394973
 31
0.0
  0
LINE
  5
BB
330
17
100
AcDbEntity
  8
FP-Below
100
AcDbLine
 10
-427.0029484677634
 20
885.83327394973
 30
0.0
 11
-441.0029484677634
 21
885.83327394973
 31
0.0
  0
LINE
  5
BC
330
17
100
AcDbEntity
  8
FP-Below
100
AcDbLine
 10
-441.0029484677634
 20
903.83327394973
 30
0.0
 11
-441.0029484677634
 21
963.8332739497282
 31
0.0
  0
LINE
  5
BD
330
17
100
AcDbEntity
  8
FP-Below
100
AcDbLine
 10
-441.0029484677634
 20
963.8332739497282
 30
0.0
 11
-404.7515006163576
 21
963.8332739497282
 31
0.0
  0
LINE
  5
BE
330
17
100
AcDbEntity
  8
FP-Below
100
AcDbLine
 10
-441.002391390959
 20
169.49999361229948
 30
0.0
 11
-421.99618915670544
 21
169.4999936122922
 31
0.0
  0
LINE
  5
BF
330
17
100
AcDbEntity
  8
FP-Below
100
AcDbLine
 10
-441.002391390959
 20
169.49999361229948
 30
0.0
 11
-441.002391390959
 21
337.49993585853645
 31
0.0
  0
LINE
  5
C0
330
17
100
AcDbEntity
  8
FP-Below
100
AcDbLine
 10
-323.49850078683266
 20
337.49993585853645
 30
0.0
 11
-441.002391390959
 21
337.49993585853645
 31
0.0
  0
LINE
  5
C1
330
17
100
AcDbEntity
  8
FP-Below
100
AcDbLine
 10
-349.9993434073094
 20
343.99993585853645
 30
0.0
 11
-441.002391390959
 21
343.99993585853645
 31
0.0
  0
LINE
  5
C2
330
17
100
AcDbEntity
  8
FP-Below
100
AcDbLine
 10
-441.002391390959
 20
343.99993585853645
 30
0.0
 11
-441.00239139095174
 21
540.4999406175039
 31
0.0
  0
LINE
  5
C3
330
17
100
AcDbEntity
  8
FP-Below
100
AcDbLine
 10
-441.00239139095174
 20
540.4999406175039
 30
0.0
 11
-349.99934340730215
 21
540.4999406175039
 31
0.0
  0
LINE
  5
C4
330
17
100
AcDbEntity
  8
FP-Below
100
AcDbLine
 10
-437.99975366727995
 20
91.00008909854841
 30
0.0
 11
-437.99975366727995
 21
158.49999361229948
 31
0.0
  0
LINE
  5
C5
330
17
100
AcDbEntity
  8
FP-Below
100
AcDbLine
 10
-408.0017965602656
 20
680.5417339979676
 30
0.0
 11
-436.0017965602656
 21
680.5417339979604
 31
0.0
  0
LINE
  5
C6
330
17
100
AcDbEntity
  8
FP-Below
100
AcDbLine
 10
-436.0017965602656
 20
680.5417339979604
 30
0.0
 11
-436.0017965602656
 21
683.0417339979604
 31
0.0
  0
LINE
  5
C7
330
17
100
AcDbEntity
  8
FP-Below
100
AcDbLine
 10
-436.0017965602656
 20
683.0417339979604
 30
0.0
 11
-408.0017965602656
 21
683.0417339979676
 31
0.0
  0
LINE
  5
C8
330
17
100
AcDbEntity
  8
FP-Below
100
AcDbLine
 10
-427.0029484677634
 20
849.83327394973
 30
0.0
 11
-427.0029484677634
 21
831.83327394973
 31
0.0
  0
LINE
  5
C9
330
17
100
AcDbEntity
  8
FP-Below
100
AcDbLine
 10
-427.0029484677634
 20
885.83327394973
 30
0.0
 11
-427.0029484677634
 21
903.83327394973
 31
0.0
  0
LWPOLYLINE
  5
CA
330
17
100
AcDbEntity
  8
FP-Above
100
AcDbPolyline
 90
4
 70
1
 38
-0.3403031765569822
 10
-423.0029484677634
 20
945.8338371550835
 10
-192.00027551129278
 20
945.8338371550835
 10
-192.00027551129278
 20
789.8338371550835
 10
-423.0029484677634
 20
789.8338371550835
  0
LWPOLYLINE
  5
CB
330
17
100
AcDbEntity
  8
FP-Above
100
AcDbPolyline
 90
4
 70
1
 38
-0.3403031765569822
 10
-423.002391390959
 20
319.50049906388995
 10
-266.49797169628255
 20
319.50049906388995
 10
-266.49797169628255
 20
187.50055681765298
 10
-423.002391390959
 20
187.50055681765298
  0
LINE
  5
CC
330
17
100
AcDbEntity
  8
FP-Below
100
AcDbLine
 10
-421.99618915670544
 20
169.49999361229402
 30
0.0
 11
-421.99618915670544
 21
158.4999936122922
 31
0.0
  0
LWPOLYLINE
  5
CD
330
17
100
AcDbEntity
  8
FP-Note
100
AcDbPolyline
 90
4
 70
0
 10
-405.28288506171157
 20
825.7754454093088
 10
-417.2828850617025
 20
825.775430761566
 10
-417.2828606487965
 20
805.775430761581
 10
-405.28288506171157
 20
825.7754454093088
  0
LWPOLYLINE
  5
CE
330
17
100
AcDbEntity
  8
FP-Note
100
AcDbPolyline
 90
4
 70
0
 10
-400.9146245448974
 20
383.25942106524644
 10
-412.9146245448883
 20
383.25940641750367
 10
-412.9146001319823
 20
363.2594064175187
 10
-400.9146245448974
 20
383.25942106524644
  0
LINE
  5
CF
330
17
100
AcDbEntity
  8
FP-Below
100
AcDbLine
 10
-408.0017965602656
 20
678.5417339979604
 30
0.0
 11
-408.0017965602656
 21
680.5417339979676
 31
0.0
  0
LINE
  5
D0
330
17
100
AcDbEntity
  8
FP-Below
100
AcDbLine
 10
-408.0017965602656
 20
683.0417339979676
 30
0.0
 11
-408.0017965602656
 21
685.0417339979676
 31
0.0
  0
LINE
  5
D1
330
17
100
AcDbEntity
  8
FP-Below
100
AcDbLine
 10
-404.7515006163576
 20
963.8332739497282
 30
0.0
 11
-404.7515006163503
 21
974.8332739497282
 31
0.0
  0
LINE
  5
D2
330
17
100
AcDbEntity
  8
FP-Below
100
AcDbLine
 10
-385.9997178658723
 20
169.4999936122922
 30
0.0
 11
-343.50153563824097
 21
169.49999361229948
 31
0.0
  0
LINE
  5
D3
330
17
100
AcDbEntity
  8
FP-Below
100
AcDbLine
 10
-385.99618915670544
 20
169.49999361229402
 30
0.0
 11
-385.99618915670544
 21
158.4999936122922
 31
0.0
  0
LINE
  5
D4
330
17
100
AcDbEntity
  8
FP-Below
100
AcDbLine
 10
-385.99618915670544
 20
158.4999936122922
 30
0.0
 11
-343.50153563824097
 21
158.49999361229948
 31
0.0
  0
LWPOLYLINE
  5
D5
330
17
100
AcDbEntity
  8
FP-Roof
100
AcDbPolyline
 90
3
 70
0
 10
-384.02040306518757
 20
685.8367452033744
 10
-382.77093424270424
 20
637.2950507070618
 10
-384.0261384400037
 20
588.748710649859
  0
LINE
  5
D6
330
17
100
AcDbEntity
  8
FP-Below
100
AcDbLine
 10
-347.00064465276773
 20
678.5417339979676
 30
0.0
 11
-378.0017965602656
 21
678.5417339979667
 31
0.0
  0
LINE
  5
D7
330
17
100
AcDbEntity
  8
FP-Below
100
AcDbLine
 10
-378.0017965602656
 20
678.5417339979676
 30
0.0
 11
-378.0017965602656
 21
685.0417339979676
 31
0.0
  0
LINE
  5
D8
330
17
100
AcDbEntity
  8
FP-Below
100
AcDbLine
 10
-347.00064465276773
 20
685.0417339979676
 30
0.0
 11
-378.0017965602656
 21
685.0417339979676
 31
0.0
  0
LWPOLYLINE
  5
D9
330
17
100
AcDbEntity
  8
FP-Roof
100
AcDbPolyline
 90
11
 70
0
 10
102.9975733764968
 20
242.74999361229857
 10
367.7474908002114
 20
242.74999361229857
 10
367.7474908002114
 20
890.5832739497282
 10
247.2493905800311
 20
890.5832739497282
 10
247.2493905800311
 20
851.8332739502866
 10
-247.24975366727267
 20
851.8332739502866
 10
-247.24975366727267
 20
890.5832739497282
 10
-367.752391390979
 20
890.5832739497282
 10
-367.7523913911373
 20
242.74999361229857
 10
-176.99975366728722
 20
242.74999361229857
 10
-102.99975366728722
 20
242.74999361229857
  0
LWPOLYLINE
  5
DA
330
17
100
AcDbEntity
  8
FP-Roof Detail
100
AcDbPolyline
 90
2
 70
0
 10
-367.75239139113364
 20
242.74999361229857
 10
-99.74975366728722
 20
510.7526313361452
  0
LWPOLYLINE
  5
DB
330
17
100
AcDbEntity
  8
FP-Roof Detail
100
AcDbPolyline
 90
2
 70
0
 10
-367.752391390979
 20
890.5832739497282
 10
-307.50107252912494
 20
830.331955087875
  0
LINE
  5
DC
330
17
100
AcDbEntity
  8
FP-Below
100
AcDbLine
 10
-354.50064465276773
 20
546.9999406175039
 30
0.0
 11
-354.50064465276773
 21
554.9999406175039
 31
0.0
  0
LINE
  5
DD
330
17
100
AcDbEntity
  8
FP-Below
100
AcDbLine
 10
-354.50064465276773
 20
554.9999406175039
 30
0.0
 11
-346.50064465276773
 21
554.9999406175039
 31
0.0
  0
LINE
  5
DE
330
17
100
AcDbEntity
  8
FP-Below
100
AcDbLine
 10
-354.50064465276773
 20
617.083273950836
 30
0.0
 11
-346.50064465276773
 21
617.083273950836
 31
0.0
  0
LINE
  5
DF
330
17
100
AcDbEntity
  8
FP-Below
100
AcDbLine
 10
-354.50064465276773
 20
625.083273950836
 30
0.0
 11
-354.50064465276773
 21
617.083273950836
 31
0.0
  0
LINE
  5
E0
330
17
100
AcDbEntity
  8
FP-Below
100
AcDbLine
 10
-349.9993749508267
 20
411.5068396392335
 30
0.0
 11
-349.9993434073094
 21
343.99993585853645
 31
0.0
  0
LINE
  5
E1
330
17
100
AcDbEntity
  8
FP-Below
100
AcDbLine
 10
-347.9993749508267
 20
411.5068396392335
 30
0.0
 11
-349.9993749508267
 21
411.5068396392335
 31
0.0
  0
LINE
  5
E2
330
17
100
AcDbEntity
  8
FP-Below
100
AcDbLine
 10
-349.9993434073094
 20
540.4999406175039
 30
0.0
 11
-349.9993434073094
 21
471.5068396392335
 31
0.0
  0
LINE
  5
E3
330
17
100
AcDbEntity
  8
FP-Below
100
AcDbLine
 10
-347.9993434073094
 20
471.5068396392335
 30
0.0
 11
-349.9993434073094
 21
471.5068396392335
 31
0.0
  0
LINE
  5
E4
330
17
100
AcDbEntity
  8
FP-Below
100
AcDbLine
 10
-345.4993749508267
 20
383.5068396392335
 30
0.0
 11
-347.9993749508267
 21
383.5068396392335
 31
0.0
  0
LINE
  5
E5
330
17
100
AcDbEntity
  8
FP-Below
100
AcDbLine
 10
-347.9993749508267
 20
383.5068396392335
 30
0.0
 11
-347.9993749508267
 21
411.5068396392335
 31
0.0
  0
LINE
  5
E6
330
17
100
AcDbEntity
  8
FP-Below
100
AcDbLine
 10
-347.9993434073094
 20
499.5068396392335
 30
0.0
 11
-347.9993434073094
 21
471.5068396392335
 31
0.0
  0
LINE
  5
E7
330
17
100
AcDbEntity
  8
FP-Below
100
AcDbLine
 10
-345.4993434073094
 20
499.5068396392335
 30
0.0
 11
-347.9993434073094
 21
499.5068396392335
 31
0.0
  0
LINE
  5
E8
330
17
100
AcDbEntity
  8
FP-Below
100
AcDbLine
 10
-347.000644652775
 20
697.0417339979676
 30
0.0
 11
-345.00064465276773
 21
697.0417339979676
 31
0.0
  0
LINE
  5
E9
330
17
100
AcDbEntity
  8
FP-Below
100
AcDbLine
 10
-347.00064465276773
 20
631.583273950836
 30
0.0
 11
-347.00064465277137
 21
678.5417339979676
 31
0.0
  0
LINE
  5
EA
330
17
100
AcDbEntity
  8
FP-Below
100
AcDbLine
 10
-347.00064465277137
 20
685.0417339979667
 30
0.0
 11
-347.00064465276773
 21
697.0417339979676
 31
0.0
  0
LINE
  5
EB
330
17
100
AcDbEntity
  8
FP-Below
100
AcDbLine
 10
-347.00064465276773
 20
727.0417339979676
 30
0.0
 11
-347.00064465276773
 21
765.3328062285245
 31
0.0
  0
LINE
  5
EC
330
17
100
AcDbEntity
  8
FP-Below
100
AcDbLine
 10
-340.50064465276773
 20
727.0417339979676
 30
0.0
 11
-347.00064465276773
 21
727.0417339979676
 31
0.0
  0
LINE
  5
ED
330
17
100
AcDbEntity
  8
FP-Below
100
AcDbLine
 10
-346.50064465276773
 20
546.9999406175039
 30
0.0
 11
-346.50064465276773
 21
554.9999406175039
 31
0.0
  0
LINE
  5
EE
330
17
100
AcDbEntity
  8
FP-Below
100
AcDbLine
 10
-346.50064465276773
 20
547.0140345948193
 30
0.0
 11
-337.49944013087406
 21
547.0131246438932
 31
0.0
  0
LINE
  5
EF
330
17
100
AcDbEntity
  8
FP-Below
100
AcDbLine
 10
-346.50064465276773
 20
625.083273950836
 30
0.0
 11
-346.50064465276773
 21
617.083273950836
 31
0.0
  0
LINE
  5
F0
330
17
100
AcDbEntity
  8
FP-Below
100
AcDbLine
 10
-323.50064465277137
 20
625.0832739508396
 30
0.0
 11
-346.50064465276773
 21
625.083273950836
 31
0.0
  0
LINE
  5
F1
330
17
100
AcDbEntity
  8
FP-Below
100
AcDbLine
 10
-345.4993749508267
 20
411.5068396392335
 30
0.0
 11
-345.4993749508267
 21
383.5068396392335
 31
0.0
  0
LINE
  5
F2
330
17
100
AcDbEntity
  8
FP-Below
100
AcDbLine
 10
-343.4993749508267
 20
411.5068396392335
 30
0.0
 11
-345.4993749508267
 21
411.5068396392335
 31
0.0
  0
LINE
  5
F3
330
17
100
AcDbEntity
  8
FP-Below
100
AcDbLine
 10
-343.4993434073094
 20
471.5068396392335
 30
0.0
 11
-345.4993434073094
 21
471.5068396392335
 31
0.0
  0
LINE
  5
F4
330
17
100
AcDbEntity
  8
FP-Below
100
AcDbLine
 10
-345.4993434073094
 20
471.5068396392335
 30
0.0
 11
-345.4993434073094
 21
499.5068396392335
 31
0.0
  0
LINE
  5
F5
330
17
100
AcDbEntity
  8
FP-Below
100
AcDbLine
 10
-345.00064465276773
 20
697.0417339979676
 30
0.0
 11
-345.000644652775
 21
669.0417339979676
 31
0.0
  0
LINE
  5
F6
330
17
100
AcDbEntity
  8
FP-Below
100
AcDbLine
 10
-345.000644652775
 20
669.0417339979676
 30
0.0
 11
-342.500644652775
 21
669.0417339979676
 31
0.0
  0
LINE
  5
F7
330
17
100
AcDbEntity
  8
FP-Below
100
AcDbLine
 10
-343.50153563824097
 20
158.49999361229948
 30
0.0
 11
-343.50153563824097
 21
169.49999361229948
 31
0.0
  0
LINE
  5
F8
330
17
100
AcDbEntity
  8
FP-Below
100
AcDbLine
 10
-343.4994083633992
 20
411.5068396392335
 30
0.0
 11
-343.4993434073094
 21
343.99993585853645
 31
0.0
  0
LINE
  5
F9
330
17
100
AcDbEntity
  8
FP-Below
100
AcDbLine
 10
-343.49937681988195
 20
471.5068396392335
 30
0.0
 11
-343.4993434073094
 21
539.0137434199305
 31
0.0
  0
LINE
  5
FA
330
17
100
AcDbEntity
  8
FP-Below
100
AcDbLine
 10
-343.4993434073167
 20
539.0137311460085
 30
0.0
 11
-337.4994401308777
 21
539.0131246030123
 31
0.0
  0
LINE
  5
FB
330
17
100
AcDbEntity
  8
FP-Below
100
AcDbLine
 10
-323.49850078683266
 20
343.99993585853645
 30
0.0
 11
-343.4993434073094
 21
343.99993585853645
 31
0.0
  0
LINE
  5
FC
330
17
100
AcDbEntity
  8
FP-Below
100
AcDbLine
 10
-342.500644652775
 20
669.0417339979676
 30
0.0
 11
-342.50064465276773
 21
697.0417339979676
 31
0.0
  0
LINE
  5
FD
330
17
100
AcDbEntity
  8
FP-Below
100
AcDbLine
 10
-342.50064465276773
 20
697.0417339979676
 30
0.0
 11
-340.50064465276773
 21
697.0417339979676
 31
0.0
  0
LINE
  5
FE
330
17
100
AcDbEntity
  8
FP-Below
100
AcDbLine
 10
-340.50064465276773
 20
631.583273950836
 30
0.0
 11
-323.50064465277137
 21
631.583273950836
 31
0.0
  0
LINE
  5
FF
330
17
100
AcDbEntity
  8
FP-Below
100
AcDbLine
 10
-340.50064465276773
 20
631.583273950836
 30
0.0
 11
-340.50064465276773
 21
697.0417339979676
 31
0.0
  0
LINE
  5
100
330
17
100
AcDbEntity
  8
FP-Below
100
AcDbLine
 10
-340.50064465276773
 20
727.0417339979676
 30
0.0
 11
-340.50064465276773
 21
761.8332739497264
 31
0.0
  0
LINE
  5
101
330
17
100
AcDbEntity
  8
FP-Below
100
AcDbLine
 10
-334.50064465276773
 20
761.8332739497264
 30
0.0
 11
-340.50064465276773
 21
761.8332739497264
 31
0.0
  0
LINE
  5
102
330
17
100
AcDbEntity
  8
FP-Below
100
AcDbLine
 10
-337.49944013088134
 20
538.9999406175039
 30
0.0
 11
-337.49944013087406
 21
547.0131246438932
 31
0.0
  0
LINE
  5
103
330
17
100
AcDbEntity
  8
FP-Below
100
AcDbLine
 10
-334.50064465276773
 20
761.8332739497264
 30
0.0
 11
-334.50064465276773
 21
771.83327394973
 31
0.0
  0
LINE
  5
104
330
17
100
AcDbEntity
  8
FP-Below
100
AcDbLine
 10
-332.7609315273494
 20
963.8332739497282
 30
0.0
 11
-332.7609315273494
 21
974.8332739497282
 31
0.0
  0
LINE
  5
105
330
17
100
AcDbEntity
  8
FP-Below
100
AcDbLine
 10
-282.2470255236094
 20
963.8332739497282
 30
0.0
 11
-332.75619845545407
 21
963.8332739497282
 31
0.0
  0
LINE
  5
106
330
17
100
AcDbEntity
  8
FP-Below
100
AcDbLine
 10
-282.2470255236094
 20
974.8332739497282
 30
0.0
 11
-332.75619845545407
 21
974.8332739497282
 31
0.0
  0
LINE
  5
107
330
17
100
AcDbEntity
  8
FP-Below
100
AcDbLine
 10
-323.50064465277137
 20
625.083273950836
 30
0.0
 11
-323.50064465277137
 21
631.5832739508396
 31
0.0
  0
LINE
  5
108
330
17
100
AcDbEntity
  8
FP-Below
100
AcDbLine
 10
-323.49850078683266
 20
337.49993585853645
 30
0.0
 11
-323.49850078683266
 21
343.99993585853645
 31
0.0
  0
LWPOLYLINE
  5
109
330
17
100
AcDbEntity
  8
FP-Note
100
AcDbPolyline
 90
4
 70
0
 10
-318.94695712364046
 20
946.0270950947947
 10
-318.94694247589905
 20
958.0270950947856
 10
-298.9469424759136
 20
958.0270706818796
 10
-318.94695712364046
 20
946.0270950947947
  0
LWPOLYLINE
  5
10A
330
17
100
AcDbEntity
  8
FP-Note
100
AcDbPolyline
 90
4
 70
0
 10
-308.134017751172
 20
861.6574381629598
 10
-308.1340031034306
 20
873.6574381629507
 10
-306.13400310344514
 20
873.6574137500447
 10
-308.134017751172
 20
861.6574381629598
  0
LWPOLYLINE
  5
10B
330
17
100
AcDbEntity
  8
FP-Roof Detail
100
AcDbPolyline
 90
2
 70
0
 10
-307.50107252912494
 20
791.5819550884346
 10
-99.74975366728722
 20
583.8306362265973
  0
LWPOLYLINE
  5
10C
330
17
100
AcDbEntity
  8
FP-Roof Detail
100
AcDbPolyline
 90
2
 70
0
 10
-247.24975366727267
 20
851.8332739502875
 10
-307.50107252912494
 20
791.5819550884346
  0
LWPOLYLINE
  5
10D
330
17
100
AcDbEntity
  8
FP-Roof Detail
100
AcDbPolyline
 90
2
 70
0
 10
-307.50107252912494
 20
830.3319550878753
 10
-307.50107252912494
 20
791.5819550884346
  0
LWPOLYLINE
  5
10E
330
17
100
AcDbEntity
  8
FP-Roof Detail
100
AcDbPolyline
 90
2
 70
0
 10
-247.24975366727267
 20
890.5832739497282
 10
-307.50107252912494
 20
830.3319550878753
  0
LWPOLYLINE
  5
10F
330
17
100
AcDbEntity
  8
FP-Note
100
AcDbPolyline
 90
4
 70
0
 10
-306.1754269725916
 20
201.32525389233342
 10
-306.1754123248502
 20
189.32525389234252
 10
-286.17541232486474
 20
189.3252783052485
 10
-306.1754269725916
 20
201.32525389233342
  0
LINE
  5
110
330
17
100
AcDbEntity
  8
FP-Below
100
AcDbLine
 10
-291.50064465277137
 20
625.083273950836
 30
0.0
 11
-291.50064465277137
 21
631.5832739508396
 31
0.0
  0
LINE
  5
111
330
17
100
AcDbEntity
  8
FP-Below
100
AcDbLine
 10
-268.50064465276773
 20
625.0832739508396
 30
0.0
 11
-291.50064465277137
 21
625.0832739508396
 31
0.0
  0
LINE
  5
112
330
17
100
AcDbEntity
  8
FP-Below
100
AcDbLine
 10
-291.50064465277137
 20
631.583273950836
 30
0.0
 11
-274.50064465276773
 21
631.583273950836
 31
0.0
  0
LINE
  5
113
330
17
100
AcDbEntity
  8
FP-Below
100
AcDbLine
 10
-248.49797169628255
 20
337.49993585853645
 30
0.0
 11
-291.49850078683266
 21
337.49993585853645
 31
0.0
  0
LINE
  5
114
330
17
100
AcDbEntity
  8
FP-Below
100
AcDbLine
 10
-291.49850078683266
 20
337.49993585853645
 30
0.0
 11
-291.49850078683266
 21
343.99993585853645
 31
0.0
  0
LINE
  5
115
330
17
100
AcDbEntity
  8
FP-Below
100
AcDbLine
 10
-271.49756143633385
 20
343.99993585853645
 30
0.0
 11
-291.49850078683266
 21
343.99993585853645
 31
0.0
  0
LWPOLYLINE
  5
116
330
17
100
AcDbEntity
  8
FP-Note
100
AcDbPolyline
 90
4
 70
0
 10
-287.94395236904165
 20
834.1185401401749
 10
-275.94395236905075
 20
834.1185254924321
 10
-275.94397678195674
 20
832.1185254924471
 10
-287.94395236904165
 20
834.1185401401749
  0
LINE
  5
117
330
17
100
AcDbEntity
  8
FP-Below
100
AcDbLine
 10
-282.2470255236094
 20
963.8332739497737
 30
0.0
 11
-282.2470255236094
 21
974.8332739497737
 31
0.0
  0
LINE
  5
118
330
17
100
AcDbEntity
  8
FP-Below
100
AcDbLine
 10
-274.50064465276773
 20
761.8332739497264
 30
0.0
 11
-280.50064465276773
 21
761.8332739497264
 31
0.0
  0
LINE
  5
119
330
17
100
AcDbEntity
  8
FP-Below
100
AcDbLine
 10
-280.50064465276773
 20
761.8332739497264
 30
0.0
 11
-280.50064465276773
 21
771.83327394973
 31
0.0
  0
LINE
  5
11A
330
17
100
AcDbEntity
  8
FP-Below
100
AcDbLine
 10
-174.00027551129278
 20
771.83327394973
 30
0.0
 11
-280.50064465276773
 21
771.83327394973
 31
0.0
  0
LINE
  5
11B
330
17
100
AcDbEntity
  8
FP-Below
100
AcDbLine
 10
-277.49756245206845
 20
539.0070588854633
 30
0.0
 11
-271.4975738258163
 21
539.0064523338397
 31
0.0
  0
LINE
  5
11C
330
17
100
AcDbEntity
  8
FP-Below
100
AcDbLine
 10
-277.49756245206845
 20
539.0070588854624
 30
0.0
 11
-277.49756245206845
 21
547.0086456008275
 31
0.0
  0
LINE
  5
11D
330
17
100
AcDbEntity
  8
FP-Below
100
AcDbLine
 10
-277.49756245206845
 20
547.0086456008275
 30
0.0
 11
-268.500644652775
 21
547.0083420318797
 31
0.0
  0
LINE
  5
11E
330
17
100
AcDbEntity
  8
FP-Below
100
AcDbLine
 10
-274.50064465276773
 20
631.583273950836
 30
0.0
 11
-274.50064465276773
 21
697.0417339979676
 31
0.0
  0
LINE
  5
11F
330
17
100
AcDbEntity
  8
FP-Below
100
AcDbLine
 10
-274.50064465276773
 20
697.0417339979676
 30
0.0
 11
-272.50064465276773
 21
697.0417339979676
 31
0.0
  0
LINE
  5
120
330
17
100
AcDbEntity
  8
FP-Below
100
AcDbLine
 10
-274.50064465276773
 20
727.0417339979676
 30
0.0
 11
-274.50064465276773
 21
761.8332739497264
 31
0.0
  0
LINE
  5
121
330
17
100
AcDbEntity
  8
FP-Below
100
AcDbLine
 10
-274.50064465276773
 20
727.0417339979676
 30
0.0
 11
-268.00064465276773
 21
727.0417339979676
 31
0.0
  0
LINE
  5
122
330
17
100
AcDbEntity
  8
FP-Below
100
AcDbLine
 10
-272.50064465276773
 20
697.0417339979676
 30
0.0
 11
-272.50064465276773
 21
669.0417339979676
 31
0.0
  0
LINE
  5
123
330
17
100
AcDbEntity
  8
FP-Below
100
AcDbLine
 10
-272.50064465276773
 20
669.0417339979676
 30
0.0
 11
-270.00064465276773
 21
669.0417339979676
 31
0.0
  0
LINE
  5
124
330
17
100
AcDbEntity
  8
FP-Below
100
AcDbLine
 10
-271.7278234201567
 20
471.5068396392335
 30
0.0
 11
-269.7278234201567
 21
471.5068396392335
 31
0.0
  0
LINE
  5
125
330
17
100
AcDbEntity
  8
FP-Below
100
AcDbLine
 10
-271.6191020768947
 20
411.5068396392335
 30
0.0
 11
-271.49756143633385
 21
343.99993585853645
 31
0.0
  0
LINE
  5
126
330
17
100
AcDbEntity
  8
FP-Below
100
AcDbLine
 10
-271.61907053337745
 20
471.5068396392335
 30
0.0
 11
-271.497573825809
 21
539.0064523338397
 31
0.0
  0
LINE
  5
127
330
17
100
AcDbEntity
  8
FP-Below
100
AcDbLine
 10
-271.6182027802988
 20
411.5068396392335
 30
0.0
 11
-269.6182027802988
 21
411.5068396392335
 31
0.0
  0
LINE
  5
128
330
17
100
AcDbEntity
  8
FP-Below
100
AcDbLine
 10
-271.50153563824097
 20
158.49999361229948
 30
0.0
 11
-228.79278351690118
 21
158.49999361229948
 31
0.0
  0
LINE
  5
129
330
17
100
AcDbEntity
  8
FP-Below
100
AcDbLine
 10
-271.50153563824097
 20
158.49999361229948
 30
0.0
 11
-271.50153563824097
 21
169.49999361229948
 31
0.0
  0
LINE
  5
12A
330
17
100
AcDbEntity
  8
FP-Below
100
AcDbLine
 10
-271.50153563824097
 20
169.49999361229857
 30
0.0
 11
-248.49797169628255
 21
169.49999361229948
 31
0.0
  0
LINE
  5
12B
330
17
100
AcDbEntity
  8
FP-Below
100
AcDbLine
 10
-270.00064465276773
 20
669.0417339979676
 30
0.0
 11
-270.00064465276773
 21
697.0417339979676
 31
0.0
  0
LINE
  5
12C
330
17
100
AcDbEntity
  8
FP-Below
100
AcDbLine
 10
-270.00064465276773
 20
697.0417339979676
 30
0.0
 11
-268.00064465276773
 21
697.0417339979676
 31
0.0
  0
LINE
  5
12D
330
17
100
AcDbEntity
  8
FP-Below
100
AcDbLine
 10
-269.7278234201567
 20
471.5068396392335
 30
0.0
 11
-269.7278234201567
 21
499.5068396392335
 31
0.0
  0
LINE
  5
12E
330
17
100
AcDbEntity
  8
FP-Below
100
AcDbLine
 10
-269.7278234201567
 20
499.5068396392335
 30
0.0
 11
-267.2278234201567
 21
499.5068396392335
 31
0.0
  0
LINE
  5
12F
330
17
100
AcDbEntity
  8
FP-Below
100
AcDbLine
 10
-269.6182027802988
 20
411.5068396392335
 30
0.0
 11
-269.6182027802988
 21
383.5068396392335
 31
0.0
  0
LINE
  5
130
330
17
100
AcDbEntity
  8
FP-Below
100
AcDbLine
 10
-269.6182027802988
 20
383.5068396392335
 30
0.0
 11
-267.1182027802988
 21
383.5068396392335
 31
0.0
  0
LINE
  5
131
330
17
100
AcDbEntity
  8
FP-Below
100
AcDbLine
 10
-268.500644652775
 20
546.9999406175039
 30
0.0
 11
-268.500644652775
 21
554.9999406175039
 31
0.0
  0
LINE
  5
132
330
17
100
AcDbEntity
  8
FP-Below
100
AcDbLine
 10
-260.500644652775
 20
554.9999406175039
 30
0.0
 11
-268.500644652775
 21
554.9999406175039
 31
0.0
  0
LINE
  5
133
330
17
100
AcDbEntity
  8
FP-Below
100
AcDbLine
 10
-260.500644652775
 20
617.083273950836
 30
0.0
 11
-268.500644652775
 21
617.083273950836
 31
0.0
  0
LINE
  5
134
330
17
100
AcDbEntity
  8
FP-Below
100
AcDbLine
 10
-268.500644652775
 20
625.083273950836
 30
0.0
 11
-268.500644652775
 21
617.083273950836
 31
0.0
  0
LINE
  5
135
330
17
100
AcDbEntity
  8
FP-Below
100
AcDbLine
 10
-268.00064465276773
 20
631.583273950836
 30
0.0
 11
-173.99975366727267
 21
631.5832739508396
 31
0.0
  0
LINE
  5
136
330
17
100
AcDbEntity
  8
FP-Below
100
AcDbLine
 10
-268.00064465276773
 20
631.583273950836
 30
0.0
 11
-268.00064465276773
 21
697.0417339979676
 31
0.0
  0
LINE
  5
137
330
17
100
AcDbEntity
  8
FP-Below
100
AcDbLine
 10
-268.00064465276773
 20
727.0417339979676
 30
0.0
 11
-268.00064465276773
 21
763.8332739497264
 31
0.0
  0
LINE
  5
138
330
17
100
AcDbEntity
  8
FP-Below
100
AcDbLine
 10
-173.99975366727267
 20
763.83327394973
 30
0.0
 11
-268.00064465276773
 21
763.83327394973
 31
0.0
  0
LINE
  5
139
330
17
100
AcDbEntity
  8
FP-Below
100
AcDbLine
 10
-267.2278234201567
 20
471.5068396392335
 30
0.0
 11
-265.2278234201567
 21
471.5068396392335
 31
0.0
  0
LINE
  5
13A
330
17
100
AcDbEntity
  8
FP-Below
100
AcDbLine
 10
-267.2278234201567
 20
499.5068396392335
 30
0.0
 11
-267.2278234201567
 21
471.5068396392335
 31
0.0
  0
LINE
  5
13B
330
17
100
AcDbEntity
  8
FP-Below
100
AcDbLine
 10
-267.1182027802988
 20
383.5068396392335
 30
0.0
 11
-267.1182027802988
 21
411.5068396392335
 31
0.0
  0
LINE
  5
13C
330
17
100
AcDbEntity
  8
FP-Below
100
AcDbLine
 10
-267.1182027802988
 20
411.5068396392335
 30
0.0
 11
-265.1182027802988
 21
411.5068396392335
 31
0.0
  0
LINE
  5
13D
330
17
100
AcDbEntity
  8
FP-Below
100
AcDbLine
 10
-265.34923578717826
 20
540.4999406175039
 30
0.0
 11
-265.2261192365022
 21
471.5068396392335
 31
0.0
  0
LINE
  5
13E
330
17
100
AcDbEntity
  8
FP-Below
100
AcDbLine
 10
-265.34923578717826
 20
540.4999406175039
 30
0.0
 11
-173.99975366727995
 21
540.4999406175039
 31
0.0
  0
LINE
  5
13F
330
17
100
AcDbEntity
  8
FP-Below
100
AcDbLine
 10
-265.1182027802988
 20
411.5068396392335
 30
0.0
 11
-264.99756143633385
 21
343.99993585853645
 31
0.0
  0
LINE
  5
140
330
17
100
AcDbEntity
  8
FP-Below
100
AcDbLine
 10
-173.99975366727267
 20
343.99993585853645
 30
0.0
 11
-264.99756143633385
 21
343.99993585853645
 31
0.0
  0
LINE
  5
141
330
17
100
AcDbEntity
  8
FP-Below
100
AcDbLine
 10
-262.49797169628255
 20
223.49993585854008
 30
0.0
 11
-248.4939438044803
 21
223.49993585854008
 31
0.0
  0
LINE
  5
142
330
17
100
AcDbEntity
  8
FP-Below
100
AcDbLine
 10
-262.49797169628255
 20
235.49993585854008
 30
0.0
 11
-262.49797169628255
 21
223.49993585854008
 31
0.0
  0
LINE
  5
143
330
17
100
AcDbEntity
  8
FP-Below
100
AcDbLine
 10
-262.49797169628255
 20
235.49993585854008
 30
0.0
 11
-248.49797169628255
 21
235.49993585854008
 31
0.0
  0
LINE
  5
144
330
17
100
AcDbEntity
  8
FP-Below
100
AcDbLine
 10
-262.49797169628255
 20
271.4999358585401
 30
0.0
 11
-248.49797169628255
 21
271.4999358585401
 31
0.0
  0
LINE
  5
145
330
17
100
AcDbEntity
  8
FP-Below
100
AcDbLine
 10
-262.49797169628255
 20
271.4999358585401
 30
0.0
 11
-262.49797169628255
 21
283.4999358585401
 31
0.0
  0
LINE
  5
146
330
17
100
AcDbEntity
  8
FP-Below
100
AcDbLine
 10
-262.49797169628255
 20
283.4999358585401
 30
0.0
 11
-248.49615044531492
 21
283.4999358585401
 31
0.0
  0
LINE
  5
147
330
17
100
AcDbEntity
  8
FP-Below
100
AcDbLine
 10
-260.500644652775
 20
547.0078245261566
 30
0.0
 11
-121.99997641365007
 21
546.9988651651174
 31
0.0
  0
LINE
  5
148
330
17
100
AcDbEntity
  8
FP-Below
100
AcDbLine
 10
-260.500644652775
 20
546.9999406175039
 30
0.0
 11
-260.500644652775
 21
554.9999406175039
 31
0.0
  0
LINE
  5
149
330
17
100
AcDbEntity
  8
FP-Below
100
AcDbLine
 10
-260.500644652775
 20
625.083273950836
 30
0.0
 11
-260.500644652775
 21
617.083273950836
 31
0.0
  0
LINE
  5
14A
330
17
100
AcDbEntity
  8
FP-Below
100
AcDbLine
 10
-121.99997641365007
 20
625.0832739508396
 30
0.0
 11
-260.500644652775
 21
625.0832739508396
 31
0.0
  0
LWPOLYLINE
  5
14B
330
17
100
AcDbEntity
  8
FP-Note
100
AcDbPolyline
 90
4
 70
0
 10
-244.28027637824198
 20
520.0389955763255
 10
-256.2802763782329
 20
520.0389809285841
 10
-256.2802519653269
 20
518.0389809285987
 10
-244.28027637824198
 20
520.0389955763255
  0
LINE
  5
14C
330
17
100
AcDbEntity
  8
FP-Below
100
AcDbLine
 10
-248.49797169628255
 20
169.49999361229948
 30
0.0
 11
-248.49797169628255
 21
175.49999361230675
 31
0.0
  0
LINE
  5
14D
330
17
100
AcDbEntity
  8
FP-Below
100
AcDbLine
 10
-248.49797169628255
 20
205.49999362101244
 30
0.0
 11
-248.49797169628255
 21
223.49993585854008
 31
0.0
  0
LINE
  5
14E
330
17
100
AcDbEntity
  8
FP-Below
100
AcDbLine
 10
-246.49797169628255
 20
205.49999362101244
 30
0.0
 11
-248.49797169628255
 21
205.49999362101244
 31
0.0
  0
LINE
  5
14F
330
17
100
AcDbEntity
  8
FP-Below
100
AcDbLine
 10
-248.49797169628255
 20
235.49993585854008
 30
0.0
 11
-248.49797169628255
 21
271.4999358585401
 31
0.0
  0
LINE
  5
150
330
17
100
AcDbEntity
  8
FP-Below
100
AcDbLine
 10
-248.49797169628255
 20
283.4999358585401
 30
0.0
 11
-248.49797169628255
 21
301.49993585853645
 31
0.0
  0
LINE
  5
151
330
17
100
AcDbEntity
  8
FP-Below
100
AcDbLine
 10
-246.49797169628255
 20
301.4999358498235
 30
0.0
 11
-248.49797169628255
 21
301.4999358498235
 31
0.0
  0
LINE
  5
152
330
17
100
AcDbEntity
  8
FP-Below
100
AcDbLine
 10
-248.49797169628255
 20
331.49993585853645
 30
0.0
 11
-248.49797169628255
 21
337.49993585853645
 31
0.0
  0
LINE
  5
153
330
17
100
AcDbEntity
  8
FP-Below
100
AcDbLine
 10
-248.49781843294295
 20
175.49999361229948
 30
0.0
 11
-241.98877587479183
 21
175.499993621027
 31
0.0
  0
LINE
  5
154
330
17
100
AcDbEntity
  8
FP-Below
100
AcDbLine
 10
-248.49781843294295
 20
331.49993585853645
 30
0.0
 11
-241.98877587479183
 21
331.49993584980894
 31
0.0
  0
LWPOLYLINE
  5
155
330
17
100
AcDbEntity
  8
FP-Roof
100
AcDbPolyline
 90
2
 70
0
 10
-247.24975366727267
 20
851.8332739502857
 10
-146.99975366727267
 20
952.0832739502866
  0
LWPOLYLINE
  5
156
330
17
100
AcDbEntity
  8
FP-Roof
100
AcDbPolyline
 90
2
 70
0
 10
-247.24975366727267
 20
890.5832739497273
 10
-146.99975366727267
 20
990.8332739497278
  0
LINE
  5
157
330
17
100
AcDbEntity
  8
FP-Below
100
AcDbLine
 10
-246.49797169628255
 20
233.49999362101244
 30
0.0
 11
-246.49797169628255
 21
205.49999362101244
 31
0.0
  0
LINE
  5
158
330
17
100
AcDbEntity
  8
FP-Below
100
AcDbLine
 10
-243.99797169628255
 20
233.49999362101244
 30
0.0
 11
-246.49797169628255
 21
233.49999362101244
 31
0.0
  0
LINE
  5
159
330
17
100
AcDbEntity
  8
FP-Below
100
AcDbLine
 10
-243.99797169628255
 20
273.4999358498235
 30
0.0
 11
-246.49797169628255
 21
273.4999358498235
 31
0.0
  0
LINE
  5
15A
330
17
100
AcDbEntity
  8
FP-Below
100
AcDbLine
 10
-246.49797169628255
 20
273.4999358498235
 30
0.0
 11
-246.49797169628255
 21
301.4999358498235
 31
0.0
  0
LINE
  5
15B
330
17
100
AcDbEntity
  8
FP-Below
100
AcDbLine
 10
-241.99797169628255
 20
205.49999362101244
 30
0.0
 11
-243.99797169628255
 21
205.49999362101244
 31
0.0
  0
LINE
  5
15C
330
17
100
AcDbEntity
  8
FP-Below
100
AcDbLine
 10
-243.99797169628255
 20
205.49999362101244
 30
0.0
 11
-243.99797169628255
 21
233.49999362101244
 31
0.0
  0
LINE
  5
15D
330
17
100
AcDbEntity
  8
FP-Below
100
AcDbLine
 10
-243.99797169628255
 20
301.4999358498235
 30
0.0
 11
-243.99797169628255
 21
273.4999358498235
 31
0.0
  0
LINE
  5
15E
330
17
100
AcDbEntity
  8
FP-Below
100
AcDbLine
 10
-241.99797169628255
 20
301.4999358498235
 30
0.0
 11
-243.99797169628255
 21
301.4999358498235
 31
0.0
  0
LINE
  5
15F
330
17
100
AcDbEntity
  8
FP-Below
100
AcDbLine
 10
-241.99797169628255
 20
205.49999362101244
 30
0.0
 11
-241.99905981560914
 21
253.48976627372122
 31
0.0
  0
LINE
  5
160
330
17
100
AcDbEntity
  8
FP-Below
100
AcDbLine
 10
-174.00084178659927
 20
253.49999361229948
 30
0.0
 11
-241.99905981560914
 21
253.49999361229948
 31
0.0
  0
LINE
  5
161
330
17
100
AcDbEntity
  8
FP-Below
100
AcDbLine
 10
-90.50061871249454
 20
259.999437045527
 30
0.0
 11
-241.99905981560914
 21
259.98973134852076
 31
0.0
  0
LINE
  5
162
330
17
100
AcDbEntity
  8
FP-Below
100
AcDbLine
 10
-241.99905981560914
 20
259.98973134852076
 30
0.0
 11
-241.99797169628255
 21
301.4999358498235
 31
0.0
  0
LINE
  5
163
330
17
100
AcDbEntity
  8
FP-Below
100
AcDbLine
 10
-241.99797169628255
 20
169.49999361229948
 30
0.0
 11
-228.79278351690118
 21
169.49999361229948
 31
0.0
  0
LINE
  5
164
330
17
100
AcDbEntity
  8
FP-Below
100
AcDbLine
 10
-241.99797169628255
 20
169.49999361229948
 30
0.0
 11
-241.99797169628255
 21
175.4999936210197
 31
0.0
  0
LINE
  5
165
330
17
100
AcDbEntity
  8
FP-Below
100
AcDbLine
 10
-241.99797169628255
 20
331.49074002832185
 30
0.0
 11
-241.99797169628255
 21
337.49993585853645
 31
0.0
  0
LINE
  5
166
330
17
100
AcDbEntity
  8
FP-Below
100
AcDbLine
 10
-173.99709068943594
 20
337.49993585853645
 30
0.0
 11
-241.99797169628255
 21
337.49993585853645
 31
0.0
  0
LINE
  5
167
330
17
100
AcDbEntity
  8
FP-Below
100
AcDbLine
 10
-228.79278351690118
 20
169.49999361229948
 30
0.0
 11
-228.79278351690118
 21
158.49999361229948
 31
0.0
  0
LINE
  5
168
330
17
100
AcDbEntity
  8
FP-Below
100
AcDbLine
 10
-210.2564564346012
 20
963.8332739497737
 30
0.0
 11
-210.25645643460848
 21
974.8332739497737
 31
0.0
  0
LINE
  5
169
330
17
100
AcDbEntity
  8
FP-Below
100
AcDbLine
 10
-162.99975366727267
 20
974.8332739497282
 30
0.0
 11
-210.25645643460848
 21
974.8332739497282
 31
0.0
  0
LINE
  5
16A
330
17
100
AcDbEntity
  8
FP-Below
100
AcDbLine
 10
-210.2564564346012
 20
963.8332739497155
 30
0.0
 11
-174.00027551129278
 21
963.8332739497282
 31
0.0
  0
LWPOLYLINE
  5
16B
330
17
100
AcDbEntity
  8
FP-Roof
100
AcDbPolyline
 90
3
 70
0
 10
-192.99975366728722
 20
152.74999361229857
 10
-192.99975366728722
 20
99.50348588120414
 10
-117.40184899597625
 20
99.48729398534124
  0
LWPOLYLINE
  5
16C
330
17
100
AcDbEntity
  8
FP-Roof
100
AcDbPolyline
 90
2
 70
0
 10
-102.99975366728722
 20
242.74999361229857
 10
-192.99975366728722
 20
152.74999361229857
  0
LWPOLYLINE
  5
16D
330
17
100
AcDbEntity
  8
FP-Roof
100
AcDbPolyline
 90
2
 70
0
 10
-85.99975366728722
 20
206.48057059904022
 10
-192.9768432921701
 20
99.50348097415826
  0
LINE
  5
16E
330
17
100
AcDbEntity
  8
FP-Below
100
AcDbLine
 10
-176.99975366727267
 20
158.49999361229948
 30
0.0
 11
-192.79278351690118
 21
158.49999361229948
 31
0.0
  0
LINE
  5
16F
330
17
100
AcDbEntity
  8
FP-Below
100
AcDbLine
 10
-192.79278351690118
 20
169.49999361229948
 30
0.0
 11
-192.79278351690118
 21
158.49999361229948
 31
0.0
  0
LINE
  5
170
330
17
100
AcDbEntity
  8
FP-Below
100
AcDbLine
 10
-192.79278351690118
 20
169.49999361229948
 30
0.0
 11
-173.99975366727267
 21
169.49999361229948
 31
0.0
  0
LINE
  5
171
330
17
100
AcDbEntity
  8
FP-Below
100
AcDbLine
 10
-176.99975366728722
 20
115.49697713777277
 30
0.0
 11
-176.99975366728722
 21
158.49999361229948
 31
0.0
  0
LINE
  5
172
330
17
100
AcDbEntity
  8
FP-Below
100
AcDbLine
 10
-176.99975366728722
 20
115.50005929695544
 30
0.0
 11
-145.4997536642968
 21
115.50005929698455
 31
0.0
  0
LINE
  5
173
330
17
100
AcDbEntity
  8
FP-Below
100
AcDbLine
 10
-174.000220004129
 20
205.4999936123004
 30
0.0
 11
-174.00084178659927
 21
253.49999361229948
 31
0.0
  0
LINE
  5
174
330
17
100
AcDbEntity
  8
FP-Below
100
AcDbLine
 10
-174.00027551129278
 20
963.8332739497282
 30
0.0
 11
-174.00027551129278
 21
771.83327394973
 31
0.0
  0
LINE
  5
175
330
17
100
AcDbEntity
  8
FP-Below
100
AcDbLine
 10
-174.000220004129
 20
205.4999936123004
 30
0.0
 11
-165.99975366728722
 21
205.49999361229948
 31
0.0
  0
LINE
  5
176
330
17
100
AcDbEntity
  8
FP-Below
100
AcDbLine
 10
-90.50167330103977
 20
322.49994061750385
 30
0.0
 11
-174.000032154554
 21
322.4999406175066
 31
0.0
  0
LINE
  5
177
330
17
100
AcDbEntity
  8
FP-Below
100
AcDbLine
 10
-174.000032154554
 20
322.4999406175075
 30
0.0
 11
-173.99983786111807
 21
337.49993585853554
 31
0.0
  0
LINE
  5
178
330
17
100
AcDbEntity
  8
FP-Below
100
AcDbLine
 10
-173.9998313900851
 20
175.49999361229857
 30
0.0
 11
-165.99975366728358
 21
175.49999361229857
 31
0.0
  0
LINE
  5
179
330
17
100
AcDbEntity
  8
FP-Below
100
AcDbLine
 10
-173.99975366727267
 20
169.4999936123004
 30
0.0
 11
-173.99983139008145
 21
175.49999361229948
 31
0.0
  0
LINE
  5
17A
330
17
100
AcDbEntity
  8
FP-Below
100
AcDbLine
 10
-173.99975366727267
 20
343.99993585853645
 30
0.0
 11
-173.99975366727995
 21
540.4999406175039
 31
0.0
  0
LINE
  5
17B
330
17
100
AcDbEntity
  8
FP-Below
100
AcDbLine
 10
-173.99975366727267
 20
763.83327394973
 30
0.0
 11
-173.99975366727995
 21
631.5832739508396
 31
0.0
  0
LINE
  5
17C
330
17
100
AcDbEntity
  8
FP-Below
100
AcDbLine
 10
-167.49977504290837
 20
637.083273950836
 30
0.0
 11
-67.49975366727267
 21
637.083273950836
 31
0.0
  0
LINE
  5
17D
330
17
100
AcDbEntity
  8
FP-Below
100
AcDbLine
 10
-167.4995907209286
 20
757.0831197702164
 30
0.0
 11
-167.49977504290837
 21
637.083273950836
 31
0.0
  0
LINE
  5
17E
330
17
100
AcDbEntity
  8
FP-Below
100
AcDbLine
 10
-167.49975366727267
 20
328.9999406175075
 30
0.0
 11
-167.49975366727995
 21
534.9999406175039
 31
0.0
  0
LINE
  5
17F
330
17
100
AcDbEntity
  8
FP-Below
100
AcDbLine
 10
-167.49975366727995
 20
534.9999406175039
 30
0.0
 11
-67.49975366727995
 21
534.9999406175039
 31
0.0
  0
LINE
  5
180
330
17
100
AcDbEntity
  8
FP-Below
100
AcDbLine
 10
-67.49975366727995
 20
328.99994061750385
 30
0.0
 11
-167.49975366727267
 21
328.9999406175075
 31
0.0
  0
LINE
  5
181
330
17
100
AcDbEntity
  8
FP-Below
100
AcDbLine
 10
-167.49975366727267
 20
925.0832739502866
 30
0.0
 11
-167.4995907209286
 21
829.0831197702164
 31
0.0
  0
LINE
  5
182
330
17
100
AcDbEntity
  8
FP-Below
100
AcDbLine
 10
-167.49975366727267
 20
925.0832739502866
 30
0.0
 11
-108.000199159982
 21
925.0938010636119
 31
-0.3403031765569822
  0
LINE
  5
183
330
17
100
AcDbEntity
  8
FP-Below
100
AcDbLine
 10
-151.4995907209286
 20
757.0831197702164
 30
0.0
 11
-167.4995907209286
 21
757.0831197702164
 31
0.0
  0
LINE
  5
184
330
17
100
AcDbEntity
  8
FP-Below
100
AcDbLine
 10
-167.4995907209286
 20
829.0831197702164
 30
0.0
 11
-151.4995907209286
 21
829.0831197702164
 31
0.0
  0
LINE
  5
185
330
17
100
AcDbEntity
  8
FP-Below
100
AcDbLine
 10
-90.50050904556156
 20
253.49999361229948
 30
0.0
 11
-166.00084178661382
 21
253.49999361229948
 31
0.0
  0
LINE
  5
186
330
17
100
AcDbEntity
  8
FP-Below
100
AcDbLine
 10
-165.99975366728722
 20
115.49697713777277
 30
0.0
 11
-165.99975366728358
 21
115.50005929696636
 31
0.0
  0
LINE
  5
187
330
17
100
AcDbEntity
  8
FP-Below
100
AcDbLine
 10
-145.4997536642968
 20
126.50005929698455
 30
0.0
 11
-165.99975366728358
 21
126.50005929695726
 31
0.0
  0
LINE
  5
188
330
17
100
AcDbEntity
  8
FP-Below
100
AcDbLine
 10
-165.99975366728358
 20
126.50005929695726
 30
0.0
 11
-165.99975366728358
 21
175.49999361229857
 31
0.0
  0
LINE
  5
189
330
17
100
AcDbEntity
  8
FP-Below
100
AcDbLine
 10
-165.99975366728358
 20
205.49999361229857
 30
0.0
 11
-165.99975366728358
 21
253.49999361229857
 31
0.0
  0
LINE
  5
18A
330
17
100
AcDbEntity
  8
FP-Below
100
AcDbLine
 10
-162.99975366727267
 20
936.0832739502866
 30
0.0
 11
-162.99975366727267
 21
974.8332739497282
 31
0.0
  0
LINE
  5
18B
330
17
100
AcDbEntity
  8
FP-Below
100
AcDbLine
 10
-162.99975366727267
 20
936.0832739502866
 30
0.0
 11
-108.00019909257026
 21
936.0832739502866
 31
-0.3403031765569822
  0
LWPOLYLINE
  5
18C
330
17
100
AcDbEntity
  8
FP-Note
100
AcDbPolyline
 90
4
 70
0
 10
-155.07156829829728
 20
343.50319091693746
 10
-155.07155365055587
 20
331.50319091694655
 10
-153.07155365057042
 20
331.50321532985254
 10
-155.07156829829728
 20
343.50319091693746
  0
LINE
  5
18D
330
17
100
AcDbEntity
  8
FP-Below
100
AcDbLine
 10
-151.4995907209286
 20
829.0831197702164
 30
0.0
 11
-151.4995907209286
 21
757.0831197702164
 31
0.0
  0
LWPOLYLINE
  5
18E
330
17
100
AcDbEntity
  8
FP-Above
100
AcDbPolyline
 90
4
 70
1
 38
-0.3403031765569822
 10
-149.49975366727267
 20
679.0838371556401
 10
149.49935534723954
 20
679.0838371556401
 10
149.49935534723954
 20
907.0838371556401
 10
-149.49975366727267
 20
907.0838371556401
  0
LINE
  5
18F
330
17
100
AcDbEntity
  8
FP-Below
100
AcDbLine
 10
-145.4997536642968
 20
115.50005929698455
 30
0.0
 11
-145.4997536642968
 21
126.50005929698455
 31
0.0
  0
LWPOLYLINE
  5
190
330
17
100
AcDbEntity
  8
FP-Note
100
AcDbPolyline
 90
4
 70
0
 10
-129.93566791155718
 20
191.2724254194609
 10
-141.93566791154808
 20
191.2724107717181
 10
-141.9356434986439
 20
171.27241077173312
 10
-129.93566791155718
 20
191.2724254194609
  0
LINE
  5
191
330
17
100
AcDbEntity
  8
FP-Below
100
AcDbLine
 10
-121.99997641365007
 20
546.9988651651174
 30
0.0
 11
-121.99997641365007
 21
554.9999406175039
 31
0.0
  0
LINE
  5
192
330
17
100
AcDbEntity
  8
FP-Below
100
AcDbLine
 10
-121.99997641365007
 20
554.9999406175039
 30
0.0
 11
-113.99997641365007
 21
554.9999406175039
 31
0.0
  0
LINE
  5
193
330
17
100
AcDbEntity
  8
FP-Below
100
AcDbLine
 10
-121.99997641365007
 20
617.083273950836
 30
0.0
 11
-121.99997641365007
 21
625.0832739508396
 31
0.0
  0
LINE
  5
194
330
17
100
AcDbEntity
  8
FP-Below
100
AcDbLine
 10
-121.99997641365007
 20
617.0832739508396
 30
0.0
 11
-113.9999764136428
 21
617.0832739508396
 31
0.0
  0
LWPOLYLINE
  5
195
330
17
100
AcDbEntity
  8
FP-Roof
100
AcDbPolyline
 90
4
 70
0
 10
-117.40180534921274
 20
107.47204479981792
 10
-117.40229442759482
 20
17.999912457602477
 10
117.4001142110028
 20
18.001197144923935
 10
117.39962468739395
 20
107.47146810062532
  0
LWPOLYLINE
  5
196
330
17
100
AcDbEntity
  8
FP-Roof
100
AcDbPolyline
 90
2
 70
0
 10
-46.40127193463195
 20
89.00030093046098
 10
-117.40229442759482
 20
17.999912457602477
  0
LWPOLYLINE
  5
197
330
17
100
AcDbEntity
  8
FP-Roof
100
AcDbPolyline
 90
2
 70
0
 10
-46.40176146654085
 20
178.4720886824898
 10
-117.40176146548038
 20
107.47208868355028
  0
LINE
  5
198
330
17
100
AcDbEntity
  8
FP-Below
100
AcDbLine
 10
-113.99997641365007
 20
546.9999406175039
 30
0.0
 11
-113.99997641365007
 21
554.9999406175039
 31
0.0
  0
LINE
  5
199
330
17
100
AcDbEntity
  8
FP-Below
100
AcDbLine
 10
-113.99997641365007
 20
617.083273950836
 30
0.0
 11
-113.99997641365007
 21
625.0832739508396
 31
0.0
  0
LINE
  5
19A
330
17
100
AcDbEntity
  8
FP-Below
100
AcDbLine
 10
-113.9999764136428
 20
546.9999406175039
 30
0.0
 11
-67.49975366727267
 21
546.9999406175039
 31
0.0
  0
LINE
  5
19B
330
17
100
AcDbEntity
  8
FP-Below
100
AcDbLine
 10
-113.9999764136428
 20
625.0832739508396
 30
0.0
 11
-67.49975366727995
 21
625.0832739508396
 31
0.0
  0
LINE
  5
19C
330
17
100
AcDbEntity
  8
FP-Below
100
AcDbLine
 10
-109.49975366437684
 20
115.50005929702093
 30
0.0
 11
-101.40176146571866
 21
115.50005929696272
 31
0.0
  0
LINE
  5
19D
330
17
100
AcDbEntity
  8
FP-Below
100
AcDbLine
 10
-109.4997536642968
 20
126.50005929698455
 30
0.0
 11
-109.4997536642968
 21
115.50005929698455
 31
0.0
  0
LINE
  5
19E
330
17
100
AcDbEntity
  8
FP-Below
100
AcDbLine
 10
-90.49836614143533
 20
126.5001439806656
 30
0.0
 11
-109.4997536642968
 21
126.50005929698455
 31
0.0
  0
LINE
  5
19F
330
17
100
AcDbEntity
  8
FP-Below
100
AcDbLine
 10
-108.00019909257026
 20
936.0832739502866
 30
-0.3403031765569822
 11
-108.00019916001838
 21
925.0881421641016
 31
-0.3403031765569822
  0
LWPOLYLINE
  5
1A0
330
17
100
AcDbEntity
  8
FP-Roof
100
AcDbPolyline
 90
2
 70
0
 10
-99.74975366728722
 20
510.7526313361452
 10
-102.99975366728722
 20
242.74999361229857
  0
LINE
  5
1A1
330
17
100
AcDbEntity
  8
FP-Below
100
AcDbLine
 10
-101.40176146571866
 20
115.50005929696272
 30
0.0
 11
-101.4022069666371
 21
34.0
 31
0.0
  0
LINE
  5
1A2
330
17
100
AcDbEntity
  8
FP-Below
100
AcDbLine
 10
-101.4022069666371
 20
34.0
 30
0.0
 11
-93.40176146560225
 21
34.0
 31
0.0
  0
LWPOLYLINE
  5
1A3
330
17
100
AcDbEntity
  8
FP-Roof
100
AcDbPolyline
 90
4
 70
0
 10
-99.74975366728722
 20
583.8306362265973
 10
-100.45686044847389
 20
630.9008382268091
 10
100.45468015745064
 20
630.9008382268094
 10
99.74757337628216
 20
583.8288190228352
  0
LWPOLYLINE
  5
1A4
330
17
100
AcDbEntity
  8
FP-Roof
100
AcDbPolyline
 90
2
 70
0
 10
-85.99975366728722
 20
616.4437314456236
 10
-100.45686044847389
 20
630.9008382268087
  0
LWPOLYLINE
  5
1A5
330
17
100
AcDbEntity
  8
FP-Roof
100
AcDbPolyline
 90
2
 70
0
 10
-99.74975366728722
 20
583.8306362265973
 10
-99.74975366728722
 20
510.7526313361452
  0
LINE
  5
1A6
330
17
100
AcDbEntity
  8
FP-Below
100
AcDbLine
 10
-93.40176146560225
 20
34.0
 30
0.0
 11
-93.40176146560225
 21
28.0
 31
0.0
  0
LINE
  5
1A7
330
17
100
AcDbEntity
  8
FP-Below
100
AcDbLine
 10
-93.40176146560225
 20
28.0
 30
0.0
 11
-91.40176146587146
 21
28.0
 31
0.0
  0
LINE
  5
1A8
330
17
100
AcDbEntity
  8
FP-Below
100
AcDbLine
 10
-91.40176146587146
 20
28.0
 30
0.0
 11
-91.40176146587146
 21
26.0
 31
0.0
  0
LINE
  5
1A9
330
17
100
AcDbEntity
  8
FP-Below
100
AcDbLine
 10
-91.40176146587146
 20
26.0
 30
0.0
 11
-79.70311529414721
 21
26.0
 31
0.0
  0
LINE
  5
1AA
330
17
100
AcDbEntity
  8
FP-Below
100
AcDbLine
 10
-90.50167330103977
 20
322.49994061750385
 30
0.0
 11
-90.50061871249818
 21
259.9994370455279
 31
0.0
  0
LINE
  5
1AB
330
17
100
AcDbEntity
  8
FP-Below
100
AcDbLine
 10
-90.50050904556156
 20
253.49999361229948
 30
0.0
 11
-90.49836614143533
 21
126.5001439806656
 31
0.0
  0
LWPOLYLINE
  5
1AC
330
17
100
AcDbEntity
  8
FP-Roof
100
AcDbPolyline
 90
4
 70
0
 10
-85.99975366728722
 20
616.4437314456236
 10
-85.99975366728722
 20
206.48057059904022
 10
85.9975733764968
 20
206.4437314456236
 10
85.99757337626397
 20
616.4437314456236
  0
LWPOLYLINE
  5
1AD
330
17
100
AcDbEntity
  8
FP-Roof Detail
100
AcDbPolyline
 90
2
 70
0
 10
-85.99975366728722
 20
206.48057059904022
 10
-0.001090145511625451
 20
292.4792341208149
  0
LWPOLYLINE
  5
1AE
330
17
100
AcDbEntity
  8
FP-Roof Detail
100
AcDbPolyline
 90
2
 70
0
 10
-85.99975366728722
 20
616.4437314456236
 10
-0.001090145511625451
 20
530.4450679238491
  0
LWPOLYLINE
  5
1AF
330
17
100
AcDbEntity
  8
FP-Roof
100
AcDbPolyline
 90
2
 70
0
 10
85.99757337626397
 20
616.4437314456236
 10
-85.99975366728722
 20
616.4437314456236
  0
LINE
  5
1B0
330
17
100
AcDbEntity
  8
FP-Below
100
AcDbLine
 10
-84.00064450241007
 20
148.99999361234677
 30
0.0
 11
-60.00153563824824
 21
148.99999361231767
 31
0.0
  0
LINE
  5
1B1
330
17
100
AcDbEntity
  8
FP-Below
100
AcDbLine
 10
-83.9970064599238
 20
317.00005317026717
 30
0.0
 11
-84.00064450241007
 21
148.99999361234677
 31
0.0
  0
LINE
  5
1B2
330
17
100
AcDbEntity
  8
FP-Below
100
AcDbLine
 10
-67.49975366727995
 20
316.99994061750385
 30
0.0
 11
-83.99975366516992
 21
317.00005317026717
 31
0.0
  0
LINE
  5
1B3
330
17
100
AcDbEntity
  8
FP-Below
100
AcDbLine
 10
-68.00446912242296
 20
26.0
 30
0.0
 11
-79.70311529414721
 21
26.0
 31
0.0
  0
LWPOLYLINE
  5
1B4
330
17
100
AcDbEntity
  8
FP-Note
100
AcDbPolyline
 90
4
 70
0
 10
-62.96463279446834
 20
115.13210075776897
 10
-74.96463279445925
 20
115.1320861100262
 10
-74.96460838155326
 20
95.1320861100412
 10
-62.96463279446834
 20
115.13210075776897
  0
LINE
  5
1B5
330
17
100
AcDbEntity
  8
FP-Below
100
AcDbLine
 10
-70.00446917441332
 20
137.99999361229948
 30
0.0
 11
-60.00153563824824
 21
137.99999361229948
 31
0.0
  0
LINE
  5
1B6
330
17
100
AcDbEntity
  8
FP-Below
100
AcDbLine
 10
-70.00446917440604
 20
69.38781216461757
 30
0.0
 11
-70.00446917440968
 21
137.99999361229948
 31
0.0
  0
LINE
  5
1B7
330
17
100
AcDbEntity
  8
FP-Below
100
AcDbLine
 10
-70.00446917440604
 20
69.39729234290644
 30
0.0
 11
-52.00446912259031
 21
69.39729234290644
 31
0.0
  0
LINE
  5
1B8
330
17
100
AcDbEntity
  8
FP-Below
100
AcDbLine
 10
-68.00446912242296
 20
28.0
 30
0.0
 11
-68.00446912242296
 21
26.0
 31
0.0
  0
LINE
  5
1B9
330
17
100
AcDbEntity
  8
FP-Below
100
AcDbLine
 10
-66.00446912269217
 20
28.0
 30
0.0
 11
-68.00446912242296
 21
28.0
 31
0.0
  0
LINE
  5
1BA
330
17
100
AcDbEntity
  8
FP-Below
100
AcDbLine
 10
-67.49975366727995
 20
316.99994061750385
 30
0.0
 11
-67.49975366727995
 21
328.99994061750385
 31
0.0
  0
LINE
  5
1BB
330
17
100
AcDbEntity
  8
FP-Below
100
AcDbLine
 10
-67.49975366727267
 20
546.9999406175111
 30
0.0
 11
-67.49975366727995
 21
534.9999406175111
 31
0.0
  0
LINE
  5
1BC
330
17
100
AcDbEntity
  8
FP-Below
100
AcDbLine
 10
-67.49975366727267
 20
637.0832739508396
 30
0.0
 11
-67.49975366727995
 21
625.0832739508396
 31
0.0
  0
LINE
  5
1BD
330
17
100
AcDbEntity
  8
FP-Below
100
AcDbLine
 10
-66.00446912269217
 20
34.0
 30
0.0
 11
-66.00446912269217
 21
28.0
 31
0.0
  0
LINE
  5
1BE
330
17
100
AcDbEntity
  8
FP-Below
100
AcDbLine
 10
-66.00446912269217
 20
34.0
 30
0.0
 11
-58.00446912259031
 21
34.0
 31
0.0
  0
LWPOLYLINE
  5
1BF
330
17
100
AcDbEntity
  8
FP-Above
100
AcDbPolyline
 90
4
 70
1
 38
-0.3403031765569822
 10
-65.9998491002898
 20
299.0049199627583
 10
66.00119329890549
 20
299.0007793770592
 10
66.00119328814071
 20
167.00542503154247
 10
-66.00054903554519
 20
167.00542503154247
  0
LWPOLYLINE
  5
1C0
330
17
100
AcDbEntity
  8
FP-Below
100
AcDbPolyline
 90
2
 70
0
 10
-60.00153563824824
 20
137.99993585853463
 10
-60.00153563824824
 20
148.99993585853463
  0
LINE
  5
1C1
330
17
100
AcDbEntity
  8
FP-Below
100
AcDbLine
 10
-58.00446912259031
 20
34.0
 30
0.0
 11
-58.00446912259031
 21
42.0
 31
0.0
  0
LINE
  5
1C2
330
17
100
AcDbEntity
  8
FP-Below
100
AcDbLine
 10
-58.00446912259031
 20
42.0
 30
0.0
 11
-52.00446912259031
 21
42.0
 31
0.0
  0
LWPOLYLINE
  5
1C3
330
17
100
AcDbEntity
  8
FP-Note
100
AcDbPolyline
 90
4
 70
0
 10
-40.42949730751934
 20
397.56433857919365
 10
-52.429497307510246
 20
397.56432393145224
 10
-52.42947289460426
 20
395.5643239314668
 10
-40.42949730751934
 20
397.56433857919365
  0
LINE
  5
1C4
330
17
100
AcDbEntity
  8
FP-Below
100
AcDbLine
 10
-52.00446912259031
 20
42.0
 30
0.0
 11
-52.00446912259031
 21
43.99999999973079
 31
0.0
  0
LINE
  5
1C5
330
17
100
AcDbEntity
  8
FP-Below
100
AcDbLine
 10
-52.00446912259031
 20
43.99999999973079
 30
0.0
 11
-50.00446912259031
 21
43.99999999973079
 31
0.0
  0
LINE
  5
1C6
330
17
100
AcDbEntity
  8
FP-Below
100
AcDbLine
 10
-52.00446912259031
 20
69.39729234290644
 30
0.0
 11
-52.00446912259031
 21
67.39729234317565
 31
0.0
  0
LINE
  5
1C7
330
17
100
AcDbEntity
  8
FP-Below
100
AcDbLine
 10
-52.00446912259031
 20
67.39729234317565
 30
0.0
 11
-50.00446912259031
 21
67.39729234317565
 31
0.0
  0
LINE
  5
1C8
330
17
100
AcDbEntity
  8
FP-Below
100
AcDbLine
 10
-50.00446912259031
 20
43.99999999973079
 30
0.0
 11
-50.00446912259031
 21
55.69864617145504
 31
0.0
  0
LINE
  5
1C9
330
17
100
AcDbEntity
  8
FP-Below
100
AcDbLine
 10
-50.00446912259031
 20
67.39729234317565
 30
0.0
 11
-50.00446912259031
 21
55.69864617145504
 31
0.0
  0
LWPOLYLINE
  5
1CA
330
17
100
AcDbEntity
  8
FP-Roof
100
AcDbPolyline
 90
4
 70
0
 10
-46.40176146654085
 20
178.4720886824898
 10
-46.4019063195974
 20
89.00030092699035
 10
46.39972574586318
 20
89.00080867765973
 10
46.41888484488845
 20
178.452207943129
  0
LWPOLYLINE
  5
1CB
330
17
100
AcDbEntity
  8
FP-Roof
100
AcDbPolyline
 90
2
 70
0
 10
0.008775873622653307
 20
179.46214828987195
 10
-46.40176146654085
 20
178.4720886824898
  0
LWPOLYLINE
  5
1CC
330
17
100
AcDbEntity
  8
FP-Roof Detail
100
AcDbPolyline
 90
2
 70
0
 10
-46.40127193463195
 20
89.00030093046144
 10
-0.0013441559494822286
 20
135.40022870914436
  0
LWPOLYLINE
  5
1CD
330
17
100
AcDbEntity
  8
FP-Note
100
AcDbPolyline
 90
4
 70
0
 10
-20.234380554160452
 20
139.70898665300547
 10
-32.23438055415136
 20
139.70897200526406
 10
-32.23435614124537
 20
137.7089720052786
 10
-20.234380554160452
 20
139.70898665300547
  0
LWPOLYLINE
  5
1CE
330
17
100
AcDbEntity
  8
FP-Note
100
AcDbPolyline
 90
4
 70
0
 10
-10.698863035502654
 20
57.7125829500219
 10
-10.698848387761245
 20
45.71258295003099
 10
9.301151612224203
 20
45.71260736293698
 10
-10.698863035502654
 20
57.7125829500219
  0
LWPOLYLINE
  5
1CF
330
17
100
AcDbEntity
  8
FP-Note
100
AcDbPolyline
 90
4
 70
0
 10
-5.228070311595729
 20
199.4587570936783
 10
-5.22805566385432
 20
187.45875709368738
 10
14.771944336131128
 20
187.45878150659337
 10
-5.228070311595729
 20
199.4587570936783
  0
LWPOLYLINE
  5
1D0
330
17
100
AcDbEntity
  8
FP-Note
100
AcDbPolyline
 90
4
 70
0
 10
-3.3994761071498942
 20
908.660271958588
 10
-3.399461459408485
 20
920.660271958579
 10
16.600538540576963
 20
920.660247545673
 10
-3.3994761071498942
 20
908.660271958588
  0
LWPOLYLINE
  5
1D1
330
17
100
AcDbEntity
  8
FP-Roof Detail
100
AcDbPolyline
 90
2
 70
0
 10
46.39909136089773
 20
89.00080867418546
 10
-0.0013441559494822286
 20
135.40022870914345
  0
LWPOLYLINE
  5
1D2
330
17
100
AcDbEntity
  8
FP-Roof Detail
100
AcDbPolyline
 90
2
 70
0
 10
-0.0013441559494822286
 20
135.40022870914436
 10
0.008775873622653307
 20
179.46214828987195
  0
LWPOLYLINE
  5
1D3
330
17
100
AcDbEntity
  8
FP-Roof Detail
100
AcDbPolyline
 90
2
 70
0
 10
-0.001090145511625451
 20
530.4450679238491
 10
-0.001090145511625451
 20
292.4792341208149
  0
LWPOLYLINE
  5
1D4
330
17
100
AcDbEntity
  8
FP-Roof Detail
100
AcDbPolyline
 90
2
 70
0
 10
85.99757337626397
 20
206.48057059904022
 10
-0.0010901455098064616
 20
292.4792341208158
  0
LWPOLYLINE
  5
1D5
330
17
100
AcDbEntity
  8
FP-Roof Detail
100
AcDbPolyline
 90
2
 70
0
 10
85.99757337626397
 20
616.4437314456236
 10
-0.0010901455098064616
 20
530.445067923848
  0
LWPOLYLINE
  5
1D6
330
17
100
AcDbEntity
  8
FP-Roof
100
AcDbPolyline
 90
2
 70
0
 10
0.008775543330557412
 20
179.46214828987195
 10
46.41931288349406
 20
178.4720886824898
  0
LWPOLYLINE
  5
1D7
330
17
100
AcDbEntity
  8
FP-Note
100
AcDbPolyline
 90
4
 70
0
 38
-0.3403031765569822
 10
0.21891759494246799
 20
738.1523809495393
 10
0.21893224268387712
 20
750.1523809495302
 10
2.218932242669325
 20
750.1523565366242
 10
0.21891759494246799
 20
738.1523809495393
  0
LWPOLYLINE
  5
1D8
330
17
100
AcDbEntity
  8
FP-Note
100
AcDbPolyline
 90
4
 70
0
 10
1.8116975010398164
 20
113.53792201496844
 10
1.8117121487812256
 20
101.53792201497754
 10
3.8117121487666736
 20
101.53794642788353
 10
1.8116975010398164
 20
113.53792201496844
  0
LWPOLYLINE
  5
1D9
330
17
100
AcDbEntity
  8
FP-Note
100
AcDbPolyline
 90
4
 70
0
 10
1.8119515114776732
 20
257.4262809872157
 10
1.8119661592190823
 20
245.4262809872248
 10
3.8119661592045304
 20
245.4263054001308
 10
1.8119515114776732
 20
257.4262809872157
  0
LWPOLYLINE
  5
1DA
330
17
100
AcDbEntity
  8
FP-Note
100
AcDbPolyline
 90
4
 70
0
 10
1.8777422360453784
 20
575.1532055507978
 10
1.8777568837867875
 20
587.1532055507887
 10
3.8777568837722356
 20
587.1531811378827
 10
1.8777422360453784
 20
575.1532055507978
  0
LWPOLYLINE
  5
1DB
330
17
100
AcDbEntity
  8
FP-Note
100
AcDbPolyline
 90
4
 70
0
 10
18.984887039634486
 20
139.23790870301355
 10
30.98488703962539
 20
139.23789405527077
 10
30.984862626719405
 20
137.23789405528578
 10
18.984887039634486
 20
139.23790870301355
  0
LWPOLYLINE
  5
1DC
330
17
100
AcDbEntity
  8
FP-Roof
100
AcDbPolyline
 90
2
 70
0
 10
46.39972574586318
 20
89.00080867765973
 10
117.4001142110028
 20
18.001197144923935
  0
LWPOLYLINE
  5
1DD
330
17
100
AcDbEntity
  8
FP-Roof
100
AcDbPolyline
 90
2
 70
0
 10
46.41888484488845
 20
178.452207943129
 10
117.39962468739395
 20
107.4714681006244
  0
LWPOLYLINE
  5
1DE
330
17
100
AcDbEntity
  8
FP-Note
100
AcDbPolyline
 90
4
 70
0
 10
49.09991936053484
 20
397.89477803459204
 10
61.099919360525746
 20
397.89476338684926
 10
61.09989494761976
 20
395.89476338686427
 10
49.09991936053484
 20
397.89477803459204
  0
LINE
  5
1DF
330
17
100
AcDbEntity
  8
FP-Below
100
AcDbLine
 10
52.00228883158161
 20
43.99999999973079
 30
0.0
 11
50.00228883158161
 21
43.99999999973079
 31
0.0
  0
LINE
  5
1E0
330
17
100
AcDbEntity
  8
FP-Below
100
AcDbLine
 10
50.00228883158161
 20
43.99999999973079
 30
0.0
 11
50.00228883158161
 21
55.69864617145504
 31
0.0
  0
LINE
  5
1E1
330
17
100
AcDbEntity
  8
FP-Below
100
AcDbLine
 10
50.00228883158161
 20
67.39729234317565
 30
0.0
 11
50.00228883158161
 21
55.69864617145504
 31
0.0
  0
LINE
  5
1E2
330
17
100
AcDbEntity
  8
FP-Below
100
AcDbLine
 10
52.00228883158161
 20
67.39729234317565
 30
0.0
 11
50.00228883158161
 21
67.39729234317565
 31
0.0
  0
LINE
  5
1E3
330
17
100
AcDbEntity
  8
FP-Below
100
AcDbLine
 10
58.00228883158161
 20
42.0
 30
0.0
 11
52.00228883158161
 21
42.0
 31
0.0
  0
LINE
  5
1E4
330
17
100
AcDbEntity
  8
FP-Below
100
AcDbLine
 10
52.00228883158161
 20
42.0
 30
0.0
 11
52.00228883158161
 21
43.99999999973079
 31
0.0
  0
LINE
  5
1E5
330
17
100
AcDbEntity
  8
FP-Below
100
AcDbLine
 10
52.00228883158161
 20
69.39729234290644
 30
0.0
 11
52.00228883158161
 21
67.39729234317565
 31
0.0
  0
LINE
  5
1E6
330
17
100
AcDbEntity
  8
FP-Below
100
AcDbLine
 10
70.00228877976588
 20
69.39729234290644
 30
0.0
 11
52.00228883158161
 21
69.39729234290644
 31
0.0
  0
LINE
  5
1E7
330
17
100
AcDbEntity
  8
FP-Below
100
AcDbLine
 10
66.00228883169075
 20
34.0
 30
0.0
 11
58.00228883158161
 21
34.0
 31
0.0
  0
LINE
  5
1E8
330
17
100
AcDbEntity
  8
FP-Below
100
AcDbLine
 10
58.00228883158161
 20
34.0
 30
0.0
 11
58.00228883158161
 21
42.0
 31
0.0
  0
LWPOLYLINE
  5
1E9
330
17
100
AcDbEntity
  8
FP-Below
100
AcDbPolyline
 90
2
 70
0
 10
59.9975735109565
 20
148.99993585853463
 10
59.9975735109565
 20
137.99993585853463
  0
LINE
  5
1EA
330
17
100
AcDbEntity
  8
FP-Below
100
AcDbLine
 10
59.9975735109565
 20
137.99999361229584
 30
0.0
 11
70.00228877976588
 21
137.99999361229584
 31
0.0
  0
LINE
  5
1EB
330
17
100
AcDbEntity
  8
FP-Below
100
AcDbLine
 10
83.99710931413756
 20
148.99999361232676
 30
0.0
 11
59.9975735109565
 21
148.99999361232676
 31
0.0
  0
LWPOLYLINE
  5
1EC
330
17
100
AcDbEntity
  8
FP-Note
100
AcDbPolyline
 90
4
 70
0
 10
62.982184541742754
 20
115.13210075780125
 10
74.98218454173366
 20
115.13208611006439
 10
74.98216012883859
 20
95.1320861100794
 10
62.982184541742754
 20
115.13210075780125
  0
LINE
  5
1ED
330
17
100
AcDbEntity
  8
FP-Below
100
AcDbLine
 10
66.00228883169075
 20
34.0
 30
0.0
 11
66.00228883169075
 21
28.0
 31
0.0
  0
LINE
  5
1EE
330
17
100
AcDbEntity
  8
FP-Below
100
AcDbLine
 10
66.00228883169075
 20
28.0
 30
0.0
 11
68.00228883142154
 21
28.0
 31
0.0
  0
LINE
  5
1EF
330
17
100
AcDbEntity
  8
FP-Below
100
AcDbLine
 10
67.49980082627917
 20
148.99999361232676
 30
0.0
 11
67.4998008399798
 21
148.99999361232676
 31
0.0
  0
LINE
  5
1F0
330
17
100
AcDbEntity
  8
FP-Below
100
AcDbLine
 10
84.00119342256403
 20
316.99994061750385
 30
0.0
 11
67.4998008399798
 21
316.99994061750385
 31
0.0
  0
LINE
  5
1F1
330
17
100
AcDbEntity
  8
FP-Below
100
AcDbLine
 10
67.4998008399798
 20
316.99994061750385
 30
0.0
 11
67.49980083998707
 21
328.9999406175075
 31
0.0
  0
LINE
  5
1F2
330
17
100
AcDbEntity
  8
FP-Below
100
AcDbLine
 10
67.4998008399798
 20
546.9999406175111
 30
0.0
 11
67.49980083998707
 21
534.9999406175111
 31
0.0
  0
LINE
  5
1F3
330
17
100
AcDbEntity
  8
FP-Below
100
AcDbLine
 10
67.4998008399798
 20
546.9999406175039
 30
0.0
 11
114.00002358634993
 21
546.9999406175039
 31
0.0
  0
LINE
  5
1F4
330
17
100
AcDbEntity
  8
FP-Below
100
AcDbLine
 10
67.4998008399798
 20
637.0832739508396
 30
0.0
 11
67.49980083998707
 21
625.0832739508396
 31
0.0
  0
LINE
  5
1F5
330
17
100
AcDbEntity
  8
FP-Below
100
AcDbLine
 10
67.4998008399798
 20
637.083273950836
 30
0.0
 11
167.49935534723954
 21
637.083273950836
 31
0.0
  0
LINE
  5
1F6
330
17
100
AcDbEntity
  8
FP-Below
100
AcDbLine
 10
84.00150961052896
 20
328.9999406489469
 30
0.0
 11
67.49980083998707
 21
328.9999406175075
 31
0.0
  0
LINE
  5
1F7
330
17
100
AcDbEntity
  8
FP-Below
100
AcDbLine
 10
83.99857977793909
 20
534.9999406175075
 30
0.0
 11
67.49980083998707
 21
534.9999406175075
 31
0.0
  0
LINE
  5
1F8
330
17
100
AcDbEntity
  8
FP-Below
100
AcDbLine
 10
67.49980083998707
 20
625.0832739508396
 30
0.0
 11
114.00002358634993
 21
625.0832739508396
 31
0.0
  0
LINE
  5
1F9
330
17
100
AcDbEntity
  8
FP-Below
100
AcDbLine
 10
68.00228883142154
 20
28.0
 30
0.0
 11
68.00228883142154
 21
26.0
 31
0.0
  0
LINE
  5
1FA
330
17
100
AcDbEntity
  8
FP-Below
100
AcDbLine
 10
68.00228883142154
 20
26.0
 30
0.0
 11
79.70093500314579
 21
26.0
 31
0.0
  0
LINE
  5
1FB
330
17
100
AcDbEntity
  8
FP-Below
100
AcDbLine
 10
70.00228877976588
 20
69.38781216461757
 30
0.0
 11
70.00228877976588
 21
137.99999361229584
 31
0.0
  0
LINE
  5
1FC
330
17
100
AcDbEntity
  8
FP-Below
100
AcDbLine
 10
91.39958117486276
 20
26.0
 30
0.0
 11
79.70093500314579
 21
26.0
 31
0.0
  0
LINE
  5
1FD
330
17
100
AcDbEntity
  8
FP-Below
100
AcDbLine
 10
84.00119342256403
 20
316.99994061750385
 30
0.0
 11
83.99710931413756
 21
148.99999361232676
 31
0.0
  0
LINE
  5
1FE
330
17
100
AcDbEntity
  8
FP-Below
100
AcDbLine
 10
83.99857977793909
 20
519.9999453764749
 30
0.0
 11
83.99857977793909
 21
534.9999406175111
 31
0.0
  0
LINE
  5
1FF
330
17
100
AcDbEntity
  8
FP-Below
100
AcDbLine
 10
83.99857977793909
 20
519.9999453764749
 30
0.0
 11
107.99857977793909
 21
519.9999453764749
 31
0.0
  0
LINE
  5
200
330
17
100
AcDbEntity
  8
FP-Below
100
AcDbLine
 10
84.00187849637041
 20
343.99993585853645
 30
0.0
 11
84.00150961052896
 21
328.9999406489469
 31
0.0
  0
LINE
  5
201
330
17
100
AcDbEntity
  8
FP-Below
100
AcDbLine
 10
84.00156457227604
 20
343.99993585853645
 30
0.0
 11
107.99857977793909
 21
343.99993585853645
 31
0.0
  0
LWPOLYLINE
  5
202
330
17
100
AcDbEntity
  8
FP-Roof
100
AcDbPolyline
 90
2
 70
0
 10
85.99757337626397
 20
616.4437314456236
 10
100.45468015745064
 20
630.9008382268089
  0
LWPOLYLINE
  5
203
330
17
100
AcDbEntity
  8
FP-Roof
100
AcDbPolyline
 90
2
 70
0
 10
85.9975733764968
 20
206.4437314456236
 10
192.99757337670235
 20
99.42081125483674
  0
LINE
  5
204
330
17
100
AcDbEntity
  8
FP-Below
100
AcDbLine
 10
90.4971096898862
 20
253.49999361229857
 30
0.0
 11
90.49710871098978
 21
126.42423857308495
 31
0.0
  0
LINE
  5
205
330
17
100
AcDbEntity
  8
FP-Below
100
AcDbLine
 10
90.49710871098978
 20
126.42423857308495
 30
0.0
 11
110.99757337630035
 21
126.42423857308495
 31
0.0
  0
LINE
  5
206
330
17
100
AcDbEntity
  8
FP-Below
100
AcDbLine
 10
90.4971096898862
 20
253.49999361229857
 30
0.0
 11
165.9968795247023
 21
253.49999361229948
 31
0.0
  0
LINE
  5
207
330
17
100
AcDbEntity
  8
FP-Below
100
AcDbLine
 10
90.49710973994479
 20
259.9994370164877
 30
0.0
 11
241.99509755369763
 21
259.98973134852076
 31
0.0
  0
LINE
  5
208
330
17
100
AcDbEntity
  8
FP-Below
100
AcDbLine
 10
90.49711033695166
 20
337.4999358672558
 30
0.0
 11
90.49710973994843
 21
259.9994370164877
 31
0.0
  0
LINE
  5
209
330
17
100
AcDbEntity
  8
FP-Below
100
AcDbLine
 10
90.49711033695166
 20
337.49993585853736
 30
0.0
 11
241.99579140527385
 21
337.49993585853645
 31
0.0
  0
LINE
  5
20A
330
17
100
AcDbEntity
  8
FP-Below
100
AcDbLine
 10
91.39958117486276
 20
28.0
 30
0.0
 11
91.39958117486276
 21
26.0
 31
0.0
  0
LINE
  5
20B
330
17
100
AcDbEntity
  8
FP-Below
100
AcDbLine
 10
93.39958117459355
 20
28.0
 30
0.0
 11
91.39958117486276
 21
28.0
 31
0.0
  0
LINE
  5
20C
330
17
100
AcDbEntity
  8
FP-Below
100
AcDbLine
 10
93.39958117459355
 20
34.0
 30
0.0
 11
93.39958117459355
 21
28.0
 31
0.0
  0
LINE
  5
20D
330
17
100
AcDbEntity
  8
FP-Below
100
AcDbLine
 10
101.40002667563567
 20
34.0
 30
0.0
 11
93.39958117459355
 21
34.0
 31
0.0
  0
LWPOLYLINE
  5
20E
330
17
100
AcDbEntity
  8
FP-Roof
100
AcDbPolyline
 90
2
 70
0
 10
99.74757337628216
 20
583.8288190228352
 10
99.747573376324
 20
510.7499110361862
  0
LWPOLYLINE
  5
20F
330
17
100
AcDbEntity
  8
FP-Roof Detail
100
AcDbPolyline
 90
2
 70
0
 10
307.5007094418834
 20
791.5819550884346
 10
99.74757337628216
 20
583.828819022835
  0
LWPOLYLINE
  5
210
330
17
100
AcDbEntity
  8
FP-Roof Detail
100
AcDbPolyline
 90
2
 70
0
 10
367.7474908002114
 20
242.74999361229857
 10
99.747573376324
 20
510.74991103618595
  0
LWPOLYLINE
  5
211
330
17
100
AcDbEntity
  8
FP-Roof
100
AcDbPolyline
 90
2
 70
0
 10
99.747573376324
 20
510.74991103618595
 10
102.9975733764968
 20
242.74999361229857
  0
LINE
  5
212
330
17
100
AcDbEntity
  8
FP-Below
100
AcDbLine
 10
101.39958117472452
 20
115.42423857328504
 30
0.0
 11
101.40002667563567
 21
34.0
 31
0.0
  0
LINE
  5
213
330
17
100
AcDbEntity
  8
FP-Below
100
AcDbLine
 10
110.99757337630035
 20
115.42423857308495
 30
0.0
 11
101.39958117472452
 21
115.42423857308495
 31
0.0
  0
LINE
  5
214
330
17
100
AcDbEntity
  8
FP-Below
100
AcDbLine
 10
109.49757337338997
 20
115.42423857334325
 30
0.0
 11
101.39958117472452
 21
115.42423857328504
 31
0.0
  0
LWPOLYLINE
  5
215
330
17
100
AcDbEntity
  8
FP-Roof
100
AcDbPolyline
 90
2
 70
0
 10
102.9975733764968
 20
242.74999361229857
 10
192.9975733764968
 20
152.74999361229857
  0
LINE
  5
216
330
17
100
AcDbEntity
  8
FP-Below
100
AcDbLine
 10
107.99857977793909
 20
519.9999453764749
 30
0.0
 11
107.99857977793909
 21
343.99993585853645
 31
0.0
  0
LINE
  5
217
330
17
100
AcDbEntity
  8
FP-Below
100
AcDbLine
 10
107.99980083998344
 20
925.0832739502866
 30
0.0
 11
167.49935534723954
 21
925.0832739502866
 31
0.0
  0
LINE
  5
218
330
17
100
AcDbEntity
  8
FP-Below
100
AcDbLine
 10
107.99980083998344
 20
936.0832739502866
 30
0.0
 11
107.99980083998344
 21
925.0832739502866
 31
0.0
  0
LINE
  5
219
330
17
100
AcDbEntity
  8
FP-Below
100
AcDbLine
 10
107.99980083998344
 20
936.0832739502866
 30
0.0
 11
162.99935534723954
 21
936.0832739502866
 31
0.0
  0
LINE
  5
21A
330
17
100
AcDbEntity
  8
FP-Below
100
AcDbLine
 10
110.99757337630035
 20
126.42423857308495
 30
0.0
 11
110.99757337630035
 21
115.42423857308495
 31
0.0
  0
LINE
  5
21B
330
17
100
AcDbEntity
  8
FP-Below
100
AcDbLine
 10
114.00002358634993
 20
546.9999406175039
 30
0.0
 11
114.00002358634993
 21
554.9999406175039
 31
0.0
  0
LINE
  5
21C
330
17
100
AcDbEntity
  8
FP-Below
100
AcDbLine
 10
114.00002358634993
 20
554.9999406175039
 30
0.0
 11
122.00002358634993
 21
554.9999406175039
 31
0.0
  0
LINE
  5
21D
330
17
100
AcDbEntity
  8
FP-Below
100
AcDbLine
 10
114.00002358634993
 20
617.0832739508396
 30
0.0
 11
122.00002358634993
 21
617.0832739508396
 31
0.0
  0
LINE
  5
21E
330
17
100
AcDbEntity
  8
FP-Below
100
AcDbLine
 10
114.00002358634993
 20
617.0832739508396
 30
0.0
 11
114.00002358634993
 21
625.0832739508396
 31
0.0
  0
LINE
  5
21F
330
17
100
AcDbEntity
  8
FP-Below
100
AcDbLine
 10
129.99627213082022
 20
365.9999382380147
 30
0.0
 11
114.49857977299871
 21
365.99993823958266
 31
0.0
  0
LINE
  5
220
330
17
100
AcDbEntity
  8
FP-Below
100
AcDbLine
 10
129.99627213082022
 20
445.99993823802924
 30
0.0
 11
114.49857977300599
 21
445.9999382364613
 31
0.0
  0
LINE
  5
221
330
17
100
AcDbEntity
  8
FP-Below
100
AcDbLine
 10
118.49857977494139
 20
424.99993823715613
 30
0.0
 11
114.49857977494139
 21
424.9999382369233
 31
0.0
  0
LINE
  5
222
330
17
100
AcDbEntity
  8
FP-Below
100
AcDbLine
 10
116.49857977555257
 20
398.9999382390406
 30
0.0
 11
114.49857977586544
 21
398.99993823912064
 31
0.0
  0
LINE
  5
223
330
17
100
AcDbEntity
  8
FP-Below
100
AcDbLine
 10
114.49857978000546
 20
398.99993823912064
 30
0.0
 11
114.49857977587271
 21
412.9999382369233
 31
0.0
  0
LINE
  5
224
330
17
100
AcDbEntity
  8
FP-Below
100
AcDbLine
 10
116.49857977555985
 20
412.9999382369997
 30
0.0
 11
114.49857977587271
 21
412.9999382369233
 31
0.0
  0
LINE
  5
225
330
17
100
AcDbEntity
  8
FP-Below
100
AcDbLine
 10
114.49857977793909
 20
386.99993823912064
 30
0.0
 11
114.49857977793909
 21
365.99993823958266
 31
0.0
  0
LINE
  5
226
330
17
100
AcDbEntity
  8
FP-Below
100
AcDbLine
 10
114.49857977793909
 20
412.9999382369233
 30
0.0
 11
114.49857977793909
 21
398.99993823912064
 31
0.0
  0
LINE
  5
227
330
17
100
AcDbEntity
  8
FP-Below
100
AcDbLine
 10
114.49857977793909
 20
445.9999382364613
 30
0.0
 11
114.49857977793909
 21
424.9999382369233
 31
0.0
  0
LINE
  5
228
330
17
100
AcDbEntity
  8
FP-Below
100
AcDbLine
 10
118.49857977493411
 20
386.9999382388878
 30
0.0
 11
114.49857978093678
 21
386.99993823912064
 31
0.0
  0
LINE
  5
229
330
17
100
AcDbEntity
  8
FP-Below
100
AcDbLine
 10
118.49857977555257
 20
394.9999382388878
 30
0.0
 11
116.49857977555257
 21
394.9999382390406
 31
0.0
  0
LINE
  5
22A
330
17
100
AcDbEntity
  8
FP-Below
100
AcDbLine
 10
116.49857977555257
 20
394.9999382390406
 30
0.0
 11
116.49857977555257
 21
398.9999382390406
 31
0.0
  0
LINE
  5
22B
330
17
100
AcDbEntity
  8
FP-Below
100
AcDbLine
 10
116.49857977555985
 20
416.9999382369997
 30
0.0
 11
116.49857977555985
 21
412.9999382369997
 31
0.0
  0
LINE
  5
22C
330
17
100
AcDbEntity
  8
FP-Below
100
AcDbLine
 10
118.49857977555985
 20
416.99993823715613
 30
0.0
 11
116.49857977555985
 21
416.9999382369997
 31
0.0
  0
LWPOLYLINE
  5
22D
330
17
100
AcDbEntity
  8
FP-Roof
100
AcDbPolyline
 90
3
 70
0
 10
117.39966864680355
 20
99.43700315071237
 10
192.99757337670235
 20
99.42081125483674
 10
192.99757337660049
 20
152.74999361219488
  0
LINE
  5
22E
330
17
100
AcDbEntity
  8
FP-Below
100
AcDbLine
 10
118.49857977555257
 20
394.9999382388878
 30
0.0
 11
118.49857977493411
 21
386.9999382388878
 31
0.0
  0
LINE
  5
22F
330
17
100
AcDbEntity
  8
FP-Below
100
AcDbLine
 10
118.49857977555985
 20
416.99993823715613
 30
0.0
 11
118.49857977494139
 21
424.99993823715613
 31
0.0
  0
LINE
  5
230
330
17
100
AcDbEntity
  8
FP-Below
100
AcDbLine
 10
121.99649487718307
 20
546.9999406175075
 30
0.0
 11
138.6216703606715
 21
546.9999406175075
 31
0.0
  0
LINE
  5
231
330
17
100
AcDbEntity
  8
FP-Below
100
AcDbLine
 10
122.00002358634993
 20
546.9999406175039
 30
0.0
 11
122.00002358634993
 21
554.9999406175039
 31
0.0
  0
LINE
  5
232
330
17
100
AcDbEntity
  8
FP-Below
100
AcDbLine
 10
122.00002358634993
 20
617.0832739508396
 30
0.0
 11
122.00002358634993
 21
625.0832739508396
 31
0.0
  0
LINE
  5
233
330
17
100
AcDbEntity
  8
FP-Below
100
AcDbLine
 10
122.00002358634993
 20
625.0832739508396
 30
0.0
 11
260.50069182547486
 21
625.0832739508396
 31
0.0
  0
LINE
  5
234
330
17
100
AcDbEntity
  8
FP-Below
100
AcDbLine
 10
191.99582663807269
 20
474.4999406175075
 30
0.0
 11
125.99582663807269
 21
474.4999406175075
 31
0.0
  0
LINE
  5
235
330
17
100
AcDbEntity
  8
FP-Below
100
AcDbLine
 10
125.99582663807269
 20
474.4999406175075
 30
0.0
 11
125.99582663807269
 21
540.4999406175075
 31
0.0
  0
LINE
  5
236
330
17
100
AcDbEntity
  8
FP-Below
100
AcDbLine
 10
125.99582663807269
 20
540.4999406175075
 30
0.0
 11
138.6216703606715
 21
540.4999406175075
 31
0.0
  0
LINE
  5
237
330
17
100
AcDbEntity
  8
FP-Below
100
AcDbLine
 10
129.99627213082022
 20
369.9999382380147
 30
0.0
 11
127.99627213082022
 21
369.9999382380147
 31
0.0
  0
LINE
  5
238
330
17
100
AcDbEntity
  8
FP-Below
100
AcDbLine
 10
127.99627213082022
 20
369.9999382380147
 30
0.0
 11
127.99627213082022
 21
380.4999382380147
 31
0.0
  0
LINE
  5
239
330
17
100
AcDbEntity
  8
FP-Below
100
AcDbLine
 10
127.99627213082022
 20
380.4999382380147
 30
0.0
 11
138.49627213082022
 21
380.4999382380147
 31
0.0
  0
LINE
  5
23A
330
17
100
AcDbEntity
  8
FP-Below
100
AcDbLine
 10
127.99627213082022
 20
441.99993823802924
 30
0.0
 11
127.99627213082022
 21
431.49993823802924
 31
0.0
  0
LINE
  5
23B
330
17
100
AcDbEntity
  8
FP-Below
100
AcDbLine
 10
127.99627213082022
 20
431.49993823802924
 30
0.0
 11
138.49627213082022
 21
431.49993823802924
 31
0.0
  0
LINE
  5
23C
330
17
100
AcDbEntity
  8
FP-Below
100
AcDbLine
 10
129.99627213082022
 20
441.99993823802924
 30
0.0
 11
127.99627213082022
 21
441.99993823802924
 31
0.0
  0
LWPOLYLINE
  5
23D
330
17
100
AcDbEntity
  8
FP-Note
100
AcDbPolyline
 90
4
 70
0
 10
129.9532196587934
 20
191.27242541952774
 10
141.9532196587843
 20
191.27241077179087
 10
141.95319524588922
 20
171.27241077180588
 10
129.9532196587934
 20
191.27242541952774
  0
LINE
  5
23E
330
17
100
AcDbEntity
  8
FP-Below
100
AcDbLine
 10
129.99627213082022
 20
369.9999382380147
 30
0.0
 11
129.99627213082022
 21
365.9999382380147
 31
0.0
  0
LINE
  5
23F
330
17
100
AcDbEntity
  8
FP-Below
100
AcDbLine
 10
129.99627213082022
 20
441.99993823802924
 30
0.0
 11
129.99627213082022
 21
445.99993823802924
 31
0.0
  0
LINE
  5
240
330
17
100
AcDbEntity
  8
FP-Below
100
AcDbLine
 10
138.49627213082022
 20
361.9999382380147
 30
0.0
 11
136.49627213082022
 21
361.9999382380147
 31
0.0
  0
LINE
  5
241
330
17
100
AcDbEntity
  8
FP-Below
100
AcDbLine
 10
136.49627213082022
 20
361.9999382380147
 30
0.0
 11
136.49627213082022
 21
369.9999382380147
 31
0.0
  0
LINE
  5
242
330
17
100
AcDbEntity
  8
FP-Below
100
AcDbLine
 10
138.49627213082022
 20
369.9999382380147
 30
0.0
 11
136.49627213082022
 21
369.9999382380147
 31
0.0
  0
LINE
  5
243
330
17
100
AcDbEntity
  8
FP-Below
100
AcDbLine
 10
136.49627213082022
 20
449.99993823802924
 30
0.0
 11
136.49627213082022
 21
441.99993823802924
 31
0.0
  0
LINE
  5
244
330
17
100
AcDbEntity
  8
FP-Below
100
AcDbLine
 10
138.49627213082022
 20
441.99993823802924
 30
0.0
 11
136.49627213082022
 21
441.99993823802924
 31
0.0
  0
LINE
  5
245
330
17
100
AcDbEntity
  8
FP-Below
100
AcDbLine
 10
138.49627213082022
 20
449.99993823802924
 30
0.0
 11
136.49627213082022
 21
449.99993823802924
 31
0.0
  0
LINE
  5
246
330
17
100
AcDbEntity
  8
FP-Below
100
AcDbLine
 10
138.49627213082022
 20
353.9999382380147
 30
0.0
 11
140.49627213082022
 21
353.9999382380147
 31
0.0
  0
LINE
  5
247
330
17
100
AcDbEntity
  8
FP-Below
100
AcDbLine
 10
138.49627213082022
 20
353.9999382380147
 30
0.0
 11
138.49627213082022
 21
361.9999382380147
 31
0.0
  0
LINE
  5
248
330
17
100
AcDbEntity
  8
FP-Below
100
AcDbLine
 10
138.49627213082022
 20
380.4999382380147
 30
0.0
 11
138.49627213082022
 21
369.9999382380147
 31
0.0
  0
LINE
  5
249
330
17
100
AcDbEntity
  8
FP-Below
100
AcDbLine
 10
138.49627213082022
 20
431.49993823802924
 30
0.0
 11
138.49627213082022
 21
441.99993823802924
 31
0.0
  0
LINE
  5
24A
330
17
100
AcDbEntity
  8
FP-Below
100
AcDbLine
 10
138.49627213082022
 20
457.99993823802924
 30
0.0
 11
138.49627213082022
 21
449.99993823802924
 31
0.0
  0
LINE
  5
24B
330
17
100
AcDbEntity
  8
FP-Below
100
AcDbLine
 10
138.49627213082022
 20
457.99993823802924
 30
0.0
 11
140.49627213082022
 21
457.9999382380256
 31
0.0
  0
LINE
  5
24C
330
17
100
AcDbEntity
  8
FP-Below
100
AcDbLine
 10
138.6216703606715
 20
546.9999406175075
 30
0.0
 11
138.6216703606715
 21
540.4999406175075
 31
0.0
  0
LINE
  5
24D
330
17
100
AcDbEntity
  8
FP-Below
100
AcDbLine
 10
146.49627213081294
 20
343.99993585853645
 30
0.0
 11
264.99627213081294
 21
343.99993585853645
 31
0.0
  0
LINE
  5
24E
330
17
100
AcDbEntity
  8
FP-Below
100
AcDbLine
 10
146.49627213081294
 20
343.99993585853645
 30
0.0
 11
146.49627213081294
 21
347.99993823802197
 31
0.0
  0
LINE
  5
24F
330
17
100
AcDbEntity
  8
FP-Below
100
AcDbLine
 10
146.49627213081294
 20
467.9999406175075
 30
0.0
 11
146.49627213081294
 21
463.99993823802197
 31
0.0
  0
LINE
  5
250
330
17
100
AcDbEntity
  8
FP-Below
100
AcDbLine
 10
264.99627213081294
 20
467.9999406175075
 30
0.0
 11
146.49627213081294
 21
467.9999406175075
 31
0.0
  0
LINE
  5
251
330
17
100
AcDbEntity
  8
FP-Below
100
AcDbLine
 10
176.9975733765841
 20
115.42423857308495
 30
0.0
 11
146.99757337630035
 21
115.42423857308495
 31
0.0
  0
LINE
  5
252
330
17
100
AcDbEntity
  8
FP-Below
100
AcDbLine
 10
146.99757337630035
 20
115.42423857308495
 30
0.0
 11
146.99757337630035
 21
126.42423857308495
 31
0.0
  0
LINE
  5
253
330
17
100
AcDbEntity
  8
FP-Below
100
AcDbLine
 10
146.99757337630035
 20
126.42423857308495
 30
0.0
 11
165.99404446926383
 21
126.42423857308495
 31
0.0
  0
LWPOLYLINE
  5
254
330
17
100
AcDbEntity
  8
FP-Roof
100
AcDbPolyline
 90
2
 70
0
 10
247.2493905800311
 20
851.83327390463
 10
146.9993905800311
 20
952.08327390463
  0
LWPOLYLINE
  5
255
330
17
100
AcDbEntity
  8
FP-Roof
100
AcDbPolyline
 90
2
 70
0
 10
247.2493905800311
 20
890.5832739040716
 10
146.9993905800311
 20
990.8332726916647
  0
LWPOLYLINE
  5
256
330
17
100
AcDbEntity
  8
FP-Note
100
AcDbPolyline
 90
4
 70
0
 10
155.39230053583924
 20
353.3876315438397
 10
155.39231518358065
 20
341.3876315438488
 10
157.3923151835661
 20
341.38765595675477
 10
155.39230053583924
 20
353.3876315438397
  0
LINE
  5
257
330
17
100
AcDbEntity
  8
FP-Below
100
AcDbLine
 10
162.9993905800311
 20
974.8332739497282
 30
0.0
 11
162.99935534723954
 21
936.0832739502866
 31
0.0
  0
LINE
  5
258
330
17
100
AcDbEntity
  8
FP-Below
100
AcDbLine
 10
210.2555715033468
 20
974.8332739497282
 30
0.0
 11
162.9993905800311
 21
974.8332739497282
 31
0.0
  0
LINE
  5
259
330
17
100
AcDbEntity
  8
FP-Below
100
AcDbLine
 10
165.99404446926383
 20
126.42423857308495
 30
0.0
 11
165.99506284221752
 21
175.49999361229948
 31
0.0
  0
LINE
  5
25A
330
17
100
AcDbEntity
  8
FP-Below
100
AcDbLine
 10
173.49399081842603
 20
175.49999361229948
 30
0.0
 11
165.9940446670971
 21
175.49999361229948
 31
0.0
  0
LINE
  5
25B
330
17
100
AcDbEntity
  8
FP-Below
100
AcDbLine
 10
173.99586912817358
 20
175.49999361229857
 30
0.0
 11
165.99579140537207
 21
175.49999361229857
 31
0.0
  0
LINE
  5
25C
330
17
100
AcDbEntity
  8
FP-Below
100
AcDbLine
 10
165.99579140537207
 20
205.49999361229857
 30
0.0
 11
165.99579140537207
 21
253.49999361229857
 31
0.0
  0
LINE
  5
25D
330
17
100
AcDbEntity
  8
FP-Below
100
AcDbLine
 10
173.9962577422175
 20
205.4999936123004
 30
0.0
 11
165.9957914053757
 21
205.49999361229948
 31
0.0
  0
LINE
  5
25E
330
17
100
AcDbEntity
  8
FP-Below
100
AcDbLine
 10
167.49935534723954
 20
925.0832739502866
 30
0.0
 11
167.49935534723954
 21
637.083273950836
 31
0.0
  0
LINE
  5
25F
330
17
100
AcDbEntity
  8
FP-Below
100
AcDbLine
 10
173.9957536350994
 20
169.4999936123004
 30
0.0
 11
173.9959068984317
 21
175.4999936123004
 31
0.0
  0
LINE
  5
260
330
17
100
AcDbEntity
  8
FP-Below
100
AcDbLine
 10
192.79327618229036
 20
169.49999361229948
 30
0.0
 11
173.99575364736484
 21
169.50047377412375
 31
0.0
  0
LINE
  5
261
330
17
100
AcDbEntity
  8
FP-Below
100
AcDbLine
 10
173.99579140536116
 20
169.4999936123004
 30
0.0
 11
173.99586912816994
 21
175.49999361229948
 31
0.0
  0
LINE
  5
262
330
17
100
AcDbEntity
  8
FP-Below
100
AcDbLine
 10
173.9962577422175
 20
205.4999936123004
 30
0.0
 11
173.99687952468776
 21
253.49999361229948
 31
0.0
  0
LINE
  5
263
330
17
100
AcDbEntity
  8
FP-Below
100
AcDbLine
 10
173.99687952468776
 20
253.49999361229948
 30
0.0
 11
241.99509755369763
 21
253.49999361229948
 31
0.0
  0
LINE
  5
264
330
17
100
AcDbEntity
  8
FP-Below
100
AcDbLine
 10
173.99935534723954
 20
763.8332374643778
 30
0.0
 11
173.99935534723954
 21
631.5832739508396
 31
0.0
  0
LINE
  5
265
330
17
100
AcDbEntity
  8
FP-Below
100
AcDbLine
 10
173.99935534723954
 20
631.5832739508396
 30
0.0
 11
356.50277670224204
 21
631.5832739508396
 31
0.0
  0
LINE
  5
266
330
17
100
AcDbEntity
  8
FP-Below
100
AcDbLine
 10
251.99935506268048
 20
763.8332374643778
 30
0.0
 11
173.99935534723954
 21
763.8332374643778
 31
0.0
  0
LINE
  5
267
330
17
100
AcDbEntity
  8
FP-Below
100
AcDbLine
 10
173.99935534723954
 20
771.83327394973
 30
0.0
 11
251.99935506268048
 21
771.833191864409
 31
0.0
  0
LINE
  5
268
330
17
100
AcDbEntity
  8
FP-Below
100
AcDbLine
 10
173.99935534723954
 20
963.8332739497282
 30
0.0
 11
173.99935534723954
 21
771.83327394973
 31
0.0
  0
LINE
  5
269
330
17
100
AcDbEntity
  8
FP-Below
100
AcDbLine
 10
173.99935534723954
 20
963.8332739497282
 30
0.0
 11
210.25557150333952
 21
963.8332739497282
 31
0.0
  0
LINE
  5
26A
330
17
100
AcDbEntity
  8
FP-Below
100
AcDbLine
 10
174.6216703606642
 20
540.4999406175075
 30
0.0
 11
191.99582663807269
 21
540.4999406175075
 31
0.0
  0
LINE
  5
26B
330
17
100
AcDbEntity
  8
FP-Below
100
AcDbLine
 10
174.6216703606642
 20
546.9999406175075
 30
0.0
 11
174.6216703606642
 21
540.4999406175075
 31
0.0
  0
LINE
  5
26C
330
17
100
AcDbEntity
  8
FP-Below
100
AcDbLine
 10
174.6216703606642
 20
546.9999406175075
 30
0.0
 11
198.49582663807269
 21
546.9999406175075
 31
0.0
  0
LINE
  5
26D
330
17
100
AcDbEntity
  8
FP-Below
100
AcDbLine
 10
176.9975733765841
 20
115.42423857308495
 30
0.0
 11
176.99757337626397
 21
158.49999361229948
 31
0.0
  0
LINE
  5
26E
330
17
100
AcDbEntity
  8
FP-Below
100
AcDbLine
 10
176.99757337626397
 20
158.49999361229948
 30
0.0
 11
192.79327618229036
 21
158.49999361229948
 31
0.0
  0
LWPOLYLINE
  5
26F
330
17
100
AcDbEntity
  8
FP-Roof
100
AcDbPolyline
 90
3
 70
0
 10
467.9974908002114
 20
769.8178514537906
 10
467.9974908002114
 20
990.8332739497282
 10
177.49505998177665
 20
990.8332739497282
  0
LWPOLYLINE
  5
270
330
17
100
AcDbEntity
  8
FP-Above
100
AcDbPolyline
 90
4
 70
1
 38
-0.3403031765569822
 10
191.9473781308643
 20
945.8338371550835
 10
423.00253153355334
 20
945.8338371550835
 10
423.00253153355334
 20
789.8338371550835
 10
191.9473781308643
 20
789.8338371550835
  0
LINE
  5
271
330
17
100
AcDbEntity
  8
FP-Below
100
AcDbLine
 10
191.99582663807269
 20
540.4999406175075
 30
0.0
 11
191.99582663807269
 21
474.4999406175075
 31
0.0
  0
LINE
  5
272
330
17
100
AcDbEntity
  8
FP-Below
100
AcDbLine
 10
192.79327618229036
 20
169.49999361229948
 30
0.0
 11
192.79327618229036
 21
158.49999361229948
 31
0.0
  0
LWPOLYLINE
  5
273
330
17
100
AcDbEntity
  8
FP-Roof
100
AcDbPolyline
 90
3
 70
0
 10
192.9975733766205
 20
142.49999361229857
 10
467.9974908002114
 20
142.49999361229857
 10
467.9974908002114
 20
175.84551554164
  0
LINE
  5
274
330
17
100
AcDbEntity
  8
FP-Below
100
AcDbLine
 10
198.49582663807269
 20
540.4999406175075
 30
0.0
 11
198.49582663807269
 21
474.4999406175075
 31
0.0
  0
LINE
  5
275
330
17
100
AcDbEntity
  8
FP-Below
100
AcDbLine
 10
198.49582663807269
 20
474.4999406175075
 30
0.0
 11
264.99627213081294
 21
474.4999406175075
 31
0.0
  0
LINE
  5
276
330
17
100
AcDbEntity
  8
FP-Below
100
AcDbLine
 10
198.49582663807269
 20
540.4999406175075
 30
0.0
 11
207.87904507037638
 21
540.5003561111398
 31
0.0
  0
LINE
  5
277
330
17
100
AcDbEntity
  8
FP-Below
100
AcDbLine
 10
198.49582663807269
 20
546.9999406175075
 30
0.0
 11
207.87904507037638
 21
547.0003561111398
 31
0.0
  0
LINE
  5
278
330
17
100
AcDbEntity
  8
FP-Below
100
AcDbLine
 10
207.87904507037638
 20
547.0003561111398
 30
0.0
 11
207.87904507037638
 21
540.5003561111398
 31
0.0
  0
LINE
  5
279
330
17
100
AcDbEntity
  8
FP-Below
100
AcDbLine
 10
210.25557150333952
 20
963.8332739497737
 30
0.0
 11
210.2555715033468
 21
974.8332739497737
 31
0.0
  0
LINE
  5
27A
330
17
100
AcDbEntity
  8
FP-Below
100
AcDbLine
 10
228.79327618229036
 20
169.49999361229948
 30
0.0
 11
228.79327618229036
 21
158.49999361229948
 31
0.0
  0
LINE
  5
27B
330
17
100
AcDbEntity
  8
FP-Below
100
AcDbLine
 10
228.79327618229036
 20
158.49999361229948
 30
0.0
 11
271.49757337632946
 21
158.4999936123004
 31
0.0
  0
LINE
  5
27C
330
17
100
AcDbEntity
  8
FP-Below
100
AcDbLine
 10
228.79327618229036
 20
169.49999361229948
 30
0.0
 11
235.49579140527385
 21
169.49999361229948
 31
0.0
  0
LINE
  5
27D
330
17
100
AcDbEntity
  8
FP-Below
100
AcDbLine
 10
241.99563814194153
 20
175.49999361230675
 30
0.0
 11
235.4865955837904
 21
175.49999362103063
 31
0.0
  0
LINE
  5
27E
330
17
100
AcDbEntity
  8
FP-Below
100
AcDbLine
 10
235.49579140527385
 20
169.49999361229948
 30
0.0
 11
235.49579140527385
 21
175.4999936210197
 31
0.0
  0
LWPOLYLINE
  5
27F
330
17
100
AcDbEntity
  8
FP-Note
100
AcDbPolyline
 90
4
 70
0
 10
239.53336907276753
 20
518.2681220422533
 10
251.53336907275843
 20
518.2681073945105
 10
251.53334465985245
 20
516.2681073945255
 10
239.53336907276753
 20
518.2681220422533
  0
LINE
  5
280
330
17
100
AcDbEntity
  8
FP-Below
100
AcDbLine
 10
248.49563814193425
 20
331.49993585853645
 30
0.0
 11
241.98659558378313
 21
331.49993584980894
 31
0.0
  0
LINE
  5
281
330
17
100
AcDbEntity
  8
FP-Below
100
AcDbLine
 10
241.99400943437104
 20
205.49999362101244
 30
0.0
 11
241.99509755369763
 21
253.48976627372122
 31
0.0
  0
LINE
  5
282
330
17
100
AcDbEntity
  8
FP-Below
100
AcDbLine
 10
241.99400943437104
 20
205.49999362101244
 30
0.0
 11
243.99400943437104
 21
205.49999362101244
 31
0.0
  0
LINE
  5
283
330
17
100
AcDbEntity
  8
FP-Below
100
AcDbLine
 10
241.99509755369763
 20
259.98973134852076
 30
0.0
 11
241.99400943437104
 21
301.4999358498235
 31
0.0
  0
LINE
  5
284
330
17
100
AcDbEntity
  8
FP-Below
100
AcDbLine
 10
241.99400943437104
 20
301.4999358498235
 30
0.0
 11
243.99400943437104
 21
301.4999358498235
 31
0.0
  0
LINE
  5
285
330
17
100
AcDbEntity
  8
FP-Below
100
AcDbLine
 10
241.99579140527385
 20
169.49999361229948
 30
0.0
 11
271.49757337632946
 21
169.49999361229857
 31
0.0
  0
LINE
  5
286
330
17
100
AcDbEntity
  8
FP-Below
100
AcDbLine
 10
241.99579140527385
 20
169.49999361229948
 30
0.0
 11
241.99579140527385
 21
175.49999361230675
 31
0.0
  0
LINE
  5
287
330
17
100
AcDbEntity
  8
FP-Below
100
AcDbLine
 10
241.99579140527385
 20
331.49074002832185
 30
0.0
 11
241.99579140527385
 21
337.49993585853645
 31
0.0
  0
LWPOLYLINE
  5
288
330
17
100
AcDbEntity
  8
FP-Note
100
AcDbPolyline
 90
4
 70
0
 10
242.00664132041857
 20
204.84696211801338
 10
242.00665596815998
 20
192.84696211802247
 10
262.0066559681454
 20
192.84698653092846
 10
242.00664132041857
 20
204.84696211801338
  0
LINE
  5
289
330
17
100
AcDbEntity
  8
FP-Below
100
AcDbLine
 10
243.87904505116057
 20
540.4999406175075
 30
0.0
 11
264.99627213081294
 21
540.4999406175075
 31
0.0
  0
LINE
  5
28A
330
17
100
AcDbEntity
  8
FP-Below
100
AcDbLine
 10
243.87904505116057
 20
546.9999406175075
 30
0.0
 11
243.87904505116057
 21
540.4999406175075
 31
0.0
  0
LINE
  5
28B
330
17
100
AcDbEntity
  8
FP-Below
100
AcDbLine
 10
243.87904505116057
 20
546.9999406175075
 30
0.0
 11
260.50069182547486
 21
546.9999406175075
 31
0.0
  0
LINE
  5
28C
330
17
100
AcDbEntity
  8
FP-Below
100
AcDbLine
 10
243.99400943437104
 20
205.49999362101244
 30
0.0
 11
243.99400943437104
 21
233.49999362101244
 31
0.0
  0
LINE
  5
28D
330
17
100
AcDbEntity
  8
FP-Below
100
AcDbLine
 10
243.99400943437104
 20
233.49999362101244
 30
0.0
 11
246.49400943437104
 21
233.49999362101244
 31
0.0
  0
LINE
  5
28E
330
17
100
AcDbEntity
  8
FP-Below
100
AcDbLine
 10
243.99400943437104
 20
301.4999358498235
 30
0.0
 11
243.99400943437104
 21
273.4999358498235
 31
0.0
  0
LINE
  5
28F
330
17
100
AcDbEntity
  8
FP-Below
100
AcDbLine
 10
243.99400943437104
 20
273.4999358498235
 30
0.0
 11
246.49400943437104
 21
273.4999358498235
 31
0.0
  0
LINE
  5
290
330
17
100
AcDbEntity
  8
FP-Below
100
AcDbLine
 10
246.49400943437104
 20
205.49999362101244
 30
0.0
 11
248.49400943437104
 21
205.49999362101244
 31
0.0
  0
LINE
  5
291
330
17
100
AcDbEntity
  8
FP-Below
100
AcDbLine
 10
246.49400943437104
 20
233.49999362101244
 30
0.0
 11
246.49400943437104
 21
205.49999362101244
 31
0.0
  0
LINE
  5
292
330
17
100
AcDbEntity
  8
FP-Below
100
AcDbLine
 10
246.49400943437104
 20
273.4999358498235
 30
0.0
 11
246.49400943437104
 21
301.4999358498235
 31
0.0
  0
LINE
  5
293
330
17
100
AcDbEntity
  8
FP-Below
100
AcDbLine
 10
246.49400943437104
 20
301.4999358498235
 30
0.0
 11
248.49400943437104
 21
301.4999358498235
 31
0.0
  0
LWPOLYLINE
  5
294
330
17
100
AcDbEntity
  8
FP-Roof Detail
100
AcDbPolyline
 90
2
 70
0
 10
247.2493905800311
 20
851.8332739502875
 10
307.5007094418834
 20
791.5819550884346
  0
LWPOLYLINE
  5
295
330
17
100
AcDbEntity
  8
FP-Roof Detail
100
AcDbPolyline
 90
2
 70
0
 10
247.2493905800311
 20
890.5832739497282
 10
307.5007094418834
 20
830.3319550878753
  0
LINE
  5
296
330
17
100
AcDbEntity
  8
FP-Below
100
AcDbLine
 10
262.49400943437104
 20
223.49993585854008
 30
0.0
 11
248.48998154256878
 21
223.49993585854008
 31
0.0
  0
LINE
  5
297
330
17
100
AcDbEntity
  8
FP-Below
100
AcDbLine
 10
262.49400943437104
 20
283.4999358585401
 30
0.0
 11
248.4921881834034
 21
283.4999358585401
 31
0.0
  0
LINE
  5
298
330
17
100
AcDbEntity
  8
FP-Below
100
AcDbLine
 10
248.49400943437104
 20
205.49999362101244
 30
0.0
 11
248.49400943437104
 21
223.49993585854008
 31
0.0
  0
LINE
  5
299
330
17
100
AcDbEntity
  8
FP-Below
100
AcDbLine
 10
248.49400943437104
 20
235.49993585854008
 30
0.0
 11
248.49400943437104
 21
271.4999358585401
 31
0.0
  0
LINE
  5
29A
330
17
100
AcDbEntity
  8
FP-Below
100
AcDbLine
 10
262.49400943437104
 20
235.49993585854008
 30
0.0
 11
248.49400943437104
 21
235.49993585854008
 31
0.0
  0
LINE
  5
29B
330
17
100
AcDbEntity
  8
FP-Below
100
AcDbLine
 10
262.49400943437104
 20
271.4999358585401
 30
0.0
 11
248.49400943437104
 21
271.4999358585401
 31
0.0
  0
LINE
  5
29C
330
17
100
AcDbEntity
  8
FP-Below
100
AcDbLine
 10
248.49400943437104
 20
283.4999358585401
 30
0.0
 11
248.49400943437104
 21
301.49993585853645
 31
0.0
  0
LINE
  5
29D
330
17
100
AcDbEntity
  8
FP-Below
100
AcDbLine
 10
248.49579140527385
 20
331.49993585853645
 30
0.0
 11
248.49579140527385
 21
337.49993585853645
 31
0.0
  0
LINE
  5
29E
330
17
100
AcDbEntity
  8
FP-Below
100
AcDbLine
 10
248.49579140527385
 20
337.49993585853645
 30
0.0
 11
291.49632049582397
 21
337.49993585853736
 31
0.0
  0
LINE
  5
29F
330
17
100
AcDbEntity
  8
FP-Below
100
AcDbLine
 10
371.00277670224204
 20
771.8332942400957
 30
0.0
 11
251.99935534723954
 21
771.833191864409
 31
0.0
  0
LINE
  5
2A0
330
17
100
AcDbEntity
  8
FP-Below
100
AcDbLine
 10
356.5027767022457
 20
763.8339933010175
 30
0.0
 11
251.99935534724318
 21
763.8336364293982
 31
0.0
  0
LINE
  5
2A1
330
17
100
AcDbEntity
  8
FP-Below
100
AcDbLine
 10
260.50069182547486
 20
546.9999406175039
 30
0.0
 11
260.50069182547486
 21
554.9999406175039
 31
0.0
  0
LINE
  5
2A2
330
17
100
AcDbEntity
  8
FP-Below
100
AcDbLine
 10
260.50069182547486
 20
554.9999406175039
 30
0.0
 11
268.50069182547486
 21
554.9999406175039
 31
0.0
  0
LINE
  5
2A3
330
17
100
AcDbEntity
  8
FP-Below
100
AcDbLine
 10
260.50069182547486
 20
617.0832739508396
 30
0.0
 11
268.50069182547486
 21
617.0832739508396
 31
0.0
  0
LINE
  5
2A4
330
17
100
AcDbEntity
  8
FP-Below
100
AcDbLine
 10
260.50069182547486
 20
617.0832739508396
 30
0.0
 11
260.50069182547486
 21
625.0832739508396
 31
0.0
  0
LINE
  5
2A5
330
17
100
AcDbEntity
  8
FP-Below
100
AcDbLine
 10
262.49400943437104
 20
235.49993585854008
 30
0.0
 11
262.49400943437104
 21
223.49993585854008
 31
0.0
  0
LINE
  5
2A6
330
17
100
AcDbEntity
  8
FP-Below
100
AcDbLine
 10
262.49400943437104
 20
271.4999358585401
 30
0.0
 11
262.49400943437104
 21
283.4999358585401
 31
0.0
  0
LINE
  5
2A7
330
17
100
AcDbEntity
  8
FP-Below
100
AcDbLine
 10
264.99627213081294
 20
343.99993585853645
 30
0.0
 11
264.99627213081294
 21
375.99993823802197
 31
0.0
  0
LINE
  5
2A8
330
17
100
AcDbEntity
  8
FP-Below
100
AcDbLine
 10
264.99627213081294
 20
375.99993823802197
 30
0.0
 11
266.99627213081294
 21
375.99993823802197
 31
0.0
  0
LINE
  5
2A9
330
17
100
AcDbEntity
  8
FP-Below
100
AcDbLine
 10
264.99627213081294
 20
467.9999406175075
 30
0.0
 11
264.99627213081294
 21
435.99993823802197
 31
0.0
  0
LINE
  5
2AA
330
17
100
AcDbEntity
  8
FP-Below
100
AcDbLine
 10
264.99627213081294
 20
435.99993823802197
 30
0.0
 11
266.99627213081294
 21
435.99993823802197
 31
0.0
  0
LINE
  5
2AB
330
17
100
AcDbEntity
  8
FP-Below
100
AcDbLine
 10
264.99627213081294
 20
540.4999406175075
 30
0.0
 11
264.99627213081294
 21
474.4999406175075
 31
0.0
  0
LWPOLYLINE
  5
2AC
330
17
100
AcDbEntity
  8
FP-Above
100
AcDbPolyline
 90
4
 70
1
 38
-0.3403031765569822
 10
422.9984291290475
 20
319.50049906388995
 10
266.49400943437104
 20
319.50049906388995
 10
266.49400943437104
 20
187.50055681765298
 10
422.9984291290475
 20
187.50055681765298
  0
LINE
  5
2AD
330
17
100
AcDbEntity
  8
FP-Below
100
AcDbLine
 10
266.99627213081294
 20
375.99993823802197
 30
0.0
 11
266.99627213081294
 21
347.99993823802197
 31
0.0
  0
LINE
  5
2AE
330
17
100
AcDbEntity
  8
FP-Below
100
AcDbLine
 10
266.99627213081294
 20
347.99993823802197
 30
0.0
 11
269.49627213081294
 21
347.99993823802197
 31
0.0
  0
LINE
  5
2AF
330
17
100
AcDbEntity
  8
FP-Below
100
AcDbLine
 10
266.99627213081294
 20
435.99993823802197
 30
0.0
 11
266.99627213081294
 21
463.99993823802197
 31
0.0
  0
LINE
  5
2B0
330
17
100
AcDbEntity
  8
FP-Below
100
AcDbLine
 10
266.99627213081294
 20
463.99993823802197
 30
0.0
 11
269.49627213081294
 21
463.99993823802197
 31
0.0
  0
LINE
  5
2B1
330
17
100
AcDbEntity
  8
FP-Below
100
AcDbLine
 10
268.50069182547486
 20
546.9999406175039
 30
0.0
 11
268.50069182547486
 21
554.9999406175039
 31
0.0
  0
LINE
  5
2B2
330
17
100
AcDbEntity
  8
FP-Below
100
AcDbLine
 10
268.50069182547486
 20
617.0832739508396
 30
0.0
 11
268.50069182547486
 21
625.0832739508396
 31
0.0
  0
LINE
  5
2B3
330
17
100
AcDbEntity
  8
FP-Below
100
AcDbLine
 10
268.50069182547486
 20
625.0832739508396
 30
0.0
 11
346.50069182547486
 21
625.0832739508396
 31
0.0
  0
LINE
  5
2B4
330
17
100
AcDbEntity
  8
FP-Below
100
AcDbLine
 10
277.4988827881152
 20
547.0086456008275
 30
0.0
 11
268.5019649888218
 21
547.0083420318797
 31
0.0
  0
LWPOLYLINE
  5
2B5
330
17
100
AcDbEntity
  8
FP-Note
100
AcDbPolyline
 90
4
 70
0
 10
280.9742339987097
 20
842.7015751926826
 10
268.9742339987188
 20
842.7015605449412
 10
268.97425841162476
 20
840.7015605449558
 10
280.9742339987097
 20
842.7015751926826
  0
LINE
  5
2B6
330
17
100
AcDbEntity
  8
FP-Below
100
AcDbLine
 10
269.49627213081294
 20
347.99993823802197
 30
0.0
 11
269.49627213081294
 21
375.99993823802197
 31
0.0
  0
LINE
  5
2B7
330
17
100
AcDbEntity
  8
FP-Below
100
AcDbLine
 10
269.49627213081294
 20
375.99993823802197
 30
0.0
 11
271.49627213081294
 21
375.99993823802197
 31
0.0
  0
LINE
  5
2B8
330
17
100
AcDbEntity
  8
FP-Below
100
AcDbLine
 10
269.49627213081294
 20
435.99993823802197
 30
0.0
 11
271.49627213081294
 21
435.99993823802197
 31
0.0
  0
LINE
  5
2B9
330
17
100
AcDbEntity
  8
FP-Below
100
AcDbLine
 10
269.49627213081294
 20
463.99993823802197
 30
0.0
 11
269.49627213081294
 21
435.99993823802197
 31
0.0
  0
LINE
  5
2BA
330
17
100
AcDbEntity
  8
FP-Below
100
AcDbLine
 10
271.49627213081294
 20
343.99993585853554
 30
0.0
 11
291.49632049582397
 21
343.99993585853645
 31
0.0
  0
LINE
  5
2BB
330
17
100
AcDbEntity
  8
FP-Below
100
AcDbLine
 10
271.49627213081294
 20
343.99993585853645
 30
0.0
 11
291.49632049582397
 21
343.99993585853645
 31
0.0
  0
LINE
  5
2BC
330
17
100
AcDbEntity
  8
FP-Below
100
AcDbLine
 10
271.49627213081294
 20
343.99993585853645
 30
0.0
 11
271.49627213081294
 21
375.99993823802197
 31
0.0
  0
LINE
  5
2BD
330
17
100
AcDbEntity
  8
FP-Below
100
AcDbLine
 10
271.49627213081294
 20
539.013743419935
 30
0.0
 11
271.49627213081294
 21
435.99993823802197
 31
0.0
  0
LINE
  5
2BE
330
17
100
AcDbEntity
  8
FP-Below
100
AcDbLine
 10
271.49757337632946
 20
158.49999361229948
 30
0.0
 11
271.49757337632946
 21
169.49999361229948
 31
0.0
  0
LINE
  5
2BF
330
17
100
AcDbEntity
  8
FP-Below
100
AcDbLine
 10
277.4988827881152
 20
539.0070588854633
 30
0.0
 11
271.49889416186306
 21
539.0064523338397
 31
0.0
  0
LINE
  5
2C0
330
17
100
AcDbEntity
  8
FP-Below
100
AcDbLine
 10
277.4988827881152
 20
539.0070588854624
 30
0.0
 11
277.4988827881152
 21
547.0086456008275
 31
0.0
  0
LINE
  5
2C1
330
17
100
AcDbEntity
  8
FP-Below
100
AcDbLine
 10
282.24166844246247
 20
963.8332739497282
 30
0.0
 11
332.7553135241924
 21
963.8332739497282
 31
0.0
  0
LINE
  5
2C2
330
17
100
AcDbEntity
  8
FP-Below
100
AcDbLine
 10
282.24614059234773
 20
963.8332739497737
 30
0.0
 11
282.24614059234773
 21
974.8332739497737
 31
0.0
  0
LINE
  5
2C3
330
17
100
AcDbEntity
  8
FP-Below
100
AcDbLine
 10
282.24614059234773
 20
974.8332739497737
 30
0.0
 11
332.7600465960877
 21
974.8332739497737
 31
0.0
  0
LINE
  5
2C4
330
17
100
AcDbEntity
  8
FP-Below
100
AcDbLine
 10
291.49632049582397
 20
337.49993585853645
 30
0.0
 11
291.49632049582397
 21
343.99993585853645
 31
0.0
  0
LWPOLYLINE
  5
2C5
330
17
100
AcDbEntity
  8
FP-Note
100
AcDbPolyline
 90
4
 70
0
 38
-0.3403031765569822
 10
296.02960969809646
 20
910.3919133562026
 10
296.0296243458379
 20
922.3919133561935
 10
316.0296243458233
 20
922.3918889432875
 10
296.02960969809646
 20
910.3919133562026
  0
LWPOLYLINE
  5
2C6
330
17
100
AcDbEntity
  8
FP-Roof Detail
100
AcDbPolyline
 90
2
 70
0
 10
307.5007094418834
 20
830.3319550878753
 10
307.5007094418834
 20
791.5819550884346
  0
LWPOLYLINE
  5
2C7
330
17
100
AcDbEntity
  8
FP-Roof Detail
100
AcDbPolyline
 90
2
 70
0
 10
367.75202830373746
 20
890.5832739497282
 10
307.5007094418834
 20
830.331955087875
  0
LWPOLYLINE
  5
2C8
330
17
100
AcDbEntity
  8
FP-Note
100
AcDbPolyline
 90
4
 70
0
 10
307.71755744507936
 20
860.6530257906979
 10
307.7175720928208
 20
872.6530257906888
 10
309.7175720928062
 20
872.6530013777829
 10
307.71755744507936
 20
860.6530257906979
  0
LINE
  5
2C9
330
17
100
AcDbEntity
  8
FP-Below
100
AcDbLine
 10
323.48947626664267
 20
337.49993585853645
 30
0.0
 11
370.63693380862424
 21
337.49993585853645
 31
0.0
  0
LINE
  5
2CA
330
17
100
AcDbEntity
  8
FP-Below
100
AcDbLine
 10
323.49632049582397
 20
337.49993585853645
 30
0.0
 11
323.49632049582397
 21
343.99993585853645
 31
0.0
  0
LINE
  5
2CB
330
17
100
AcDbEntity
  8
FP-Below
100
AcDbLine
 10
323.49632049582397
 20
343.99993585853645
 30
0.0
 11
343.4980541017885
 21
343.99993585853645
 31
0.0
  0
LINE
  5
2CC
330
17
100
AcDbEntity
  8
FP-Below
100
AcDbLine
 10
332.7600465960877
 20
963.8332739497282
 30
0.0
 11
332.7600465960877
 21
974.8332739497282
 31
0.0
  0
LINE
  5
2CD
330
17
100
AcDbEntity
  8
FP-Below
100
AcDbLine
 10
337.5007604669281
 20
539.0131246030123
 30
0.0
 11
337.50076046692084
 21
547.0131246438932
 31
0.0
  0
LINE
  5
2CE
330
17
100
AcDbEntity
  8
FP-Below
100
AcDbLine
 10
346.5019649888145
 20
547.0140345948193
 30
0.0
 11
337.50076046692084
 21
547.0131246438932
 31
0.0
  0
LINE
  5
2CF
330
17
100
AcDbEntity
  8
FP-Below
100
AcDbLine
 10
343.5006637433635
 20
539.0137311460085
 30
0.0
 11
337.5007604669245
 21
539.0131246030123
 31
0.0
  0
LINE
  5
2D0
330
17
100
AcDbEntity
  8
FP-Below
100
AcDbLine
 10
343.49757337632946
 20
158.49999361229948
 30
0.0
 11
386.00024576395845
 21
158.49999361229948
 31
0.0
  0
LINE
  5
2D1
330
17
100
AcDbEntity
  8
FP-Below
100
AcDbLine
 10
343.49757337632946
 20
158.49999361229948
 30
0.0
 11
343.49757337632946
 21
169.49999361229948
 31
0.0
  0
LINE
  5
2D2
330
17
100
AcDbEntity
  8
FP-Below
100
AcDbLine
 10
343.49757337632946
 20
169.49999361229948
 30
0.0
 11
386.00024576395845
 21
169.49999361229948
 31
0.0
  0
LINE
  5
2D3
330
17
100
AcDbEntity
  8
FP-Below
100
AcDbLine
 10
343.4980541017885
 20
538.9999406175075
 30
0.0
 11
343.4980541017885
 21
343.99993585853645
 31
0.0
  0
LINE
  5
2D4
330
17
100
AcDbEntity
  8
FP-Below
100
AcDbLine
 10
346.50069182547486
 20
546.9999406175075
 30
0.0
 11
346.50069182547486
 21
554.9999406175039
 31
0.0
  0
LINE
  5
2D5
330
17
100
AcDbEntity
  8
FP-Below
100
AcDbLine
 10
354.50069182547486
 20
554.9999406175039
 30
0.0
 11
346.50069182547486
 21
554.9999406175039
 31
0.0
  0
LINE
  5
2D6
330
17
100
AcDbEntity
  8
FP-Below
100
AcDbLine
 10
354.50069182547486
 20
617.0832739508396
 30
0.0
 11
346.50069182547486
 21
617.0832739508396
 31
0.0
  0
LINE
  5
2D7
330
17
100
AcDbEntity
  8
FP-Below
100
AcDbLine
 10
346.50069182547486
 20
617.0832739508396
 30
0.0
 11
346.50069182547486
 21
625.0832739508396
 31
0.0
  0
LINE
  5
2D8
330
17
100
AcDbEntity
  8
FP-Below
100
AcDbLine
 10
349.9980541017885
 20
343.99993585853645
 30
0.0
 11
370.63693380862424
 21
343.99993585853645
 31
0.0
  0
LINE
  5
2D9
330
17
100
AcDbEntity
  8
FP-Below
100
AcDbLine
 10
349.9980541017885
 20
415.49993585853554
 30
0.0
 11
349.9980541017885
 21
343.99993585853645
 31
0.0
  0
LINE
  5
2DA
330
17
100
AcDbEntity
  8
FP-Below
100
AcDbLine
 10
441.00024633272733
 20
415.49993585853645
 30
0.0
 11
349.9980541017885
 21
415.49993585853645
 31
0.0
  0
LINE
  5
2DB
330
17
100
AcDbEntity
  8
FP-Below
100
AcDbLine
 10
434.49757337627125
 20
421.9999152279843
 30
0.0
 11
354.49916443948496
 21
421.9996810180046
 31
0.0
  0
LINE
  5
2DC
330
17
100
AcDbEntity
  8
FP-Below
100
AcDbLine
 10
354.49916443948496
 20
421.9996810180046
 30
0.0
 11
354.49916443948496
 21
521.9996810180046
 31
0.0
  0
LINE
  5
2DD
330
17
100
AcDbEntity
  8
FP-Below
100
AcDbLine
 10
354.49916443948496
 20
521.9996810180046
 30
0.0
 11
354.50069182547486
 21
554.9999406175039
 31
0.0
  0
LINE
  5
2DE
330
17
100
AcDbEntity
  8
FP-Below
100
AcDbLine
 10
354.50069182547486
 20
617.0832739508396
 30
0.0
 11
354.50069182547486
 21
625.0832739508396
 31
0.0
  0
LINE
  5
2DF
330
17
100
AcDbEntity
  8
FP-Below
100
AcDbLine
 10
354.50069182547486
 20
625.0832739508396
 30
0.0
 11
370.0051710675998
 21
625.0832739508396
 31
0.0
  0
LINE
  5
2E0
330
17
100
AcDbEntity
  8
FP-Below
100
AcDbLine
 10
356.50277670224204
 20
631.5832739508396
 30
0.0
 11
356.50277670224386
 21
688.7085322104085
 31
0.0
  0
LINE
  5
2E1
330
17
100
AcDbEntity
  8
FP-Below
100
AcDbLine
 10
356.50277670224386
 20
688.7085322104085
 30
0.0
 11
363.00277670224204
 21
688.7084962327781
 31
0.0
  0
LINE
  5
2E2
330
17
100
AcDbEntity
  8
FP-Below
100
AcDbLine
 10
356.50277670224386
 20
730.708556355692
 30
0.0
 11
356.5027767022457
 21
763.8339933010175
 31
0.0
  0
LINE
  5
2E3
330
17
100
AcDbEntity
  8
FP-Below
100
AcDbLine
 10
356.5027767022457
 20
730.708556355692
 30
-0.2650308117562035
 11
363.00277670224386
 21
730.7085535882752
 31
0.0
  0
LINE
  5
2E4
330
17
100
AcDbEntity
  8
FP-Below
100
AcDbLine
 10
363.00277670224204
 20
631.5832739508396
 30
0.0
 11
370.0051710675998
 21
631.5832739508396
 31
0.0
  0
LINE
  5
2E5
330
17
100
AcDbEntity
  8
FP-Below
100
AcDbLine
 10
363.00277670224204
 20
631.5832739508396
 30
0.0
 11
363.00277670224386
 21
688.7085294429917
 31
0.0
  0
LINE
  5
2E6
330
17
100
AcDbEntity
  8
FP-Below
100
AcDbLine
 10
363.00277670224386
 20
730.7085535882752
 30
0.0
 11
363.00277670224204
 21
763.8337185147202
 31
0.0
  0
LINE
  5
2E7
330
17
100
AcDbEntity
  8
FP-Below
100
AcDbLine
 10
371.00277670224204
 20
763.8336729147477
 30
0.0
 11
363.00277670224204
 21
763.8337185147202
 31
0.0
  0
LWPOLYLINE
  5
2E8
330
17
100
AcDbEntity
  8
FP-Roof
100
AcDbPolyline
 90
2
 70
0
 10
367.7474908002114
 20
242.74999361229857
 10
467.9974908002114
 20
142.49999361229766
  0
LWPOLYLINE
  5
2E9
330
17
100
AcDbEntity
  8
FP-Roof
100
AcDbPolyline
 90
2
 70
0
 10
367.7474908002114
 20
890.5832739497291
 10
467.9974908002114
 20
990.83327394973
  0
LINE
  5
2EA
330
17
100
AcDbEntity
  8
FP-Below
100
AcDbLine
 10
370.0051710675998
 20
631.5832739508396
 30
0.0
 11
370.0051710675998
 21
625.0832739508396
 31
0.0
  0
LINE
  5
2EB
330
17
100
AcDbEntity
  8
FP-Below
100
AcDbLine
 10
370.63693380862424
 20
343.99993585853645
 30
0.0
 11
370.63693380862424
 21
337.49993585853645
 31
0.0
  0
LINE
  5
2EC
330
17
100
AcDbEntity
  8
FP-Below
100
AcDbLine
 10
371.00277670224204
 20
763.8337185147202
 30
0.0
 11
371.00277670224204
 21
771.8332942400957
 31
0.0
  0
LWPOLYLINE
  5
2ED
330
17
100
AcDbEntity
  8
FP-Roof
100
AcDbPolyline
 90
3
 70
0
 10
384.01822249145334
 20
685.8367452033744
 10
382.76875366897
 20
637.2950507070618
 10
384.0239578662695
 20
588.748710649859
  0
LWPOLYLINE
  5
2EE
330
17
100
AcDbEntity
  8
FP-Roof Detail
100
AcDbPolyline
 90
2
 70
0
 10
508.2058925548081
 20
637.2907606309261
 10
382.7687537309357
 20
637.2893880089332
  0
LWPOLYLINE
  5
2EF
330
17
100
AcDbEntity
  8
FP-Roof
100
AcDbPolyline
 90
4
 70
0
 10
384.01822249145334
 20
685.8367452033744
 10
556.7475733764823
 20
685.8324414526005
 10
556.7475733764823
 20
588.7490798092522
 10
384.0239578662695
 20
588.748710649859
  0
LWPOLYLINE
  5
2F0
330
17
100
AcDbEntity
  8
FP-Roof
100
AcDbPolyline
 90
2
 70
0
 10
384.01822249145334
 20
685.8367452033744
 10
467.9974908002114
 20
769.8178514537906
  0
LWPOLYLINE
  5
2F1
330
17
100
AcDbEntity
  8
FP-Roof
100
AcDbPolyline
 90
3
 70
0
 10
444.35899626245373
 20
528.4149926968696
 10
384.01928484633936
 20
588.7533835675194
 10
384.01928291894
 20
588.929519145669
  0
LINE
  5
2F2
330
17
100
AcDbEntity
  8
FP-Below
100
AcDbLine
 10
386.00024576395845
 20
158.49999361229948
 30
0.0
 11
386.00024576395845
 21
169.49999361229948
 31
0.0
  0
LWPOLYLINE
  5
2F3
330
17
100
AcDbEntity
  8
FP-Note
100
AcDbPolyline
 90
4
 70
0
 10
393.835921155649
 20
380.7458803391132
 10
405.8359211556399
 20
380.74586569137637
 10
405.8358967427448
 20
360.7458656913914
 10
393.835921155649
 20
380.7458803391132
  0
LINE
  5
2F4
330
17
100
AcDbEntity
  8
FP-Below
100
AcDbLine
 10
400.63693380862424
 20
337.49993585853645
 30
0.0
 11
441.00024633272733
 21
337.49993585853645
 31
0.0
  0
LINE
  5
2F5
330
17
100
AcDbEntity
  8
FP-Below
100
AcDbLine
 10
400.63693380862424
 20
337.49993585853645
 30
0.0
 11
400.63693380862424
 21
339.49993585853645
 31
0.0
  0
LINE
  5
2F6
330
17
100
AcDbEntity
  8
FP-Below
100
AcDbLine
 10
400.63693380862424
 20
339.49993585853645
 30
0.0
 11
428.63693380862424
 21
339.49993585853645
 31
0.0
  0
LINE
  5
2F7
330
17
100
AcDbEntity
  8
FP-Below
100
AcDbLine
 10
400.63693380862424
 20
341.99993585853645
 30
0.0
 11
400.63693380862424
 21
343.99993585853645
 31
0.0
  0
LINE
  5
2F8
330
17
100
AcDbEntity
  8
FP-Below
100
AcDbLine
 10
428.63693380862424
 20
341.99993585853645
 30
0.0
 11
400.63693380862424
 21
341.99993585853645
 31
0.0
  0
LINE
  5
2F9
330
17
100
AcDbEntity
  8
FP-Below
100
AcDbLine
 10
400.63693380862424
 20
343.99993585853645
 30
0.0
 11
441.00024633272733
 21
343.99993585853645
 31
0.0
  0
LINE
  5
2FA
330
17
100
AcDbEntity
  8
FP-Below
100
AcDbLine
 10
404.7506156850959
 20
963.8332739497282
 30
0.0
 11
404.75061568508863
 21
974.8332739497282
 31
0.0
  0
LINE
  5
2FB
330
17
100
AcDbEntity
  8
FP-Below
100
AcDbLine
 10
404.7506156850959
 20
963.8332739497282
 30
0.0
 11
440.99668239078346
 21
963.8332739497282
 31
0.0
  0
LINE
  5
2FC
330
17
100
AcDbEntity
  8
FP-Below
100
AcDbLine
 10
404.7508766070987
 20
974.8332739497282
 30
0.0
 11
451.99749080020956
 21
974.8332739497282
 31
0.0
  0
LINE
  5
2FD
330
17
100
AcDbEntity
  8
FP-Below
100
AcDbLine
 10
451.99668239078346
 20
158.49999361229948
 30
0.0
 11
422.00024576395845
 21
158.49999361229948
 31
0.0
  0
LINE
  5
2FE
330
17
100
AcDbEntity
  8
FP-Below
100
AcDbLine
 10
422.00024576395845
 20
169.49999361229948
 30
0.0
 11
422.00024576395845
 21
158.49999361229948
 31
0.0
  0
LINE
  5
2FF
330
17
100
AcDbEntity
  8
FP-Below
100
AcDbLine
 10
441.00024633272733
 20
169.49999361229948
 30
0.0
 11
422.00024576395845
 21
169.49999361229948
 31
0.0
  0
LINE
  5
300
330
17
100
AcDbEntity
  8
FP-Below
100
AcDbLine
 10
427.0025501477303
 20
831.83327394973
 30
0.0
 11
441.00657803953254
 21
831.83327394973
 31
0.0
  0
LINE
  5
301
330
17
100
AcDbEntity
  8
FP-Below
100
AcDbLine
 10
427.0025501477303
 20
849.83327394973
 30
0.0
 11
427.0025501477303
 21
831.83327394973
 31
0.0
  0
LINE
  5
302
330
17
100
AcDbEntity
  8
FP-Below
100
AcDbLine
 10
427.0025501477303
 20
849.83327394973
 30
0.0
 11
441.0025501477303
 21
849.83327394973
 31
0.0
  0
LINE
  5
303
330
17
100
AcDbEntity
  8
FP-Below
100
AcDbLine
 10
427.0025501477303
 20
885.83327394973
 30
0.0
 11
441.0025501477303
 21
885.83327394973
 31
0.0
  0
LINE
  5
304
330
17
100
AcDbEntity
  8
FP-Below
100
AcDbLine
 10
427.0025501477303
 20
885.83327394973
 30
0.0
 11
427.0025501477303
 21
903.83327394973
 31
0.0
  0
LINE
  5
305
330
17
100
AcDbEntity
  8
FP-Below
100
AcDbLine
 10
427.0025501477303
 20
903.83327394973
 30
0.0
 11
441.00657803953254
 21
903.83327394973
 31
0.0
  0
LWPOLYLINE
  5
306
330
17
100
AcDbEntity
  8
FP-Note
100
AcDbPolyline
 90
4
 70
0
 10
428.3291631908087
 20
850.6602324053065
 10
440.3291631907996
 20
850.6602177575696
 10
440.3291387779045
 20
830.6602177575846
 10
428.3291631908087
 20
850.6602324053065
  0
LINE
  5
307
330
17
100
AcDbEntity
  8
FP-Below
100
AcDbLine
 10
428.63693380862424
 20
339.49993585853645
 30
0.0
 11
428.63693380862424
 21
341.99993585853645
 31
0.0
  0
LINE
  5
308
330
17
100
AcDbEntity
  8
FP-Below
100
AcDbLine
 10
441.0027767158699
 20
763.833273914991
 30
0.0
 11
432.99668239079074
 21
763.8333195496989
 31
0.0
  0
LINE
  5
309
330
17
100
AcDbEntity
  8
FP-Below
100
AcDbLine
 10
432.99668239079074
 20
763.8333195496989
 30
0.0
 11
432.99668239079074
 21
771.83327394973
 31
0.0
  0
LINE
  5
30A
330
17
100
AcDbEntity
  8
FP-Below
100
AcDbLine
 10
441.00253153355334
 20
771.83327394973
 30
0.0
 11
432.99668239079074
 21
771.83327394973
 31
0.0
  0
LINE
  5
30B
330
17
100
AcDbEntity
  8
FP-Below
100
AcDbLine
 10
434.0051710675925
 20
625.0832739508396
 30
0.0
 11
441.00024633272733
 21
625.0832739508396
 31
0.0
  0
LINE
  5
30C
330
17
100
AcDbEntity
  8
FP-Below
100
AcDbLine
 10
434.0051710675998
 20
631.5832739508396
 30
0.0
 11
434.0051710675998
 21
625.0832739508396
 31
0.0
  0
LINE
  5
30D
330
17
100
AcDbEntity
  8
FP-Below
100
AcDbLine
 10
434.0051710675998
 20
631.5832739508396
 30
0.0
 11
441.00756543295756
 21
631.5832739508396
 31
0.0
  0
LINE
  5
30E
330
17
100
AcDbEntity
  8
FP-Below
100
AcDbLine
 10
434.49757337627125
 20
421.9999152279843
 30
0.0
 11
434.49757337627125
 21
542.9999358585364
 31
0.0
  0
LINE
  5
30F
330
17
100
AcDbEntity
  8
FP-Below
100
AcDbLine
 10
434.49757337627125
 20
542.9999358585364
 30
0.0
 11
441.00024633272733
 21
542.9999358585364
 31
0.0
  0
LINE
  5
310
330
17
100
AcDbEntity
  8
FP-Below
100
AcDbLine
 10
437.99757337627125
 20
158.49999361229948
 30
0.0
 11
437.99757337627125
 21
91.00008909854841
 31
0.0
  0
LINE
  5
311
330
17
100
AcDbEntity
  8
FP-Below
100
AcDbLine
 10
437.99757337627125
 20
91.00008909854841
 30
0.0
 11
486.7298194237828
 21
91.00008909854841
 31
0.0
  0
LINE
  5
312
330
17
100
AcDbEntity
  8
FP-Below
100
AcDbLine
 10
447.5038520200633
 20
730.7084287690514
 30
0.0
 11
440.9931536816166
 21
730.7084962327781
 31
0.0
  0
LINE
  5
313
330
17
100
AcDbEntity
  8
FP-Below
100
AcDbLine
 10
440.9966471579919
 20
903.83327394973
 30
0.0
 11
440.9966471579919
 21
963.8332739497282
 31
0.0
  0
LINE
  5
314
330
17
100
AcDbEntity
  8
FP-Below
100
AcDbLine
 10
441.00024633272733
 20
337.49993585853645
 30
0.0
 11
441.00024633272733
 21
169.49999361229948
 31
0.0
  0
LINE
  5
315
330
17
100
AcDbEntity
  8
FP-Below
100
AcDbLine
 10
441.00024633272733
 20
415.49993585853645
 30
0.0
 11
441.00024633272733
 21
343.99993585853645
 31
0.0
  0
LINE
  5
316
330
17
100
AcDbEntity
  8
FP-Below
100
AcDbLine
 10
441.00024633272733
 20
625.0832739508396
 30
0.0
 11
441.00024633272733
 21
542.9999358585364
 31
0.0
  0
LINE
  5
317
330
17
100
AcDbEntity
  8
FP-Below
100
AcDbLine
 10
441.00253153355334
 20
771.83327394973
 30
0.0
 11
441.00069266619175
 21
831.8332739497309
 31
0.0
  0
LINE
  5
318
330
17
100
AcDbEntity
  8
FP-Below
100
AcDbLine
 10
441.0025501477303
 20
849.83327394973
 30
0.0
 11
441.0025501477303
 21
885.83327394973
 31
0.0
  0
LINE
  5
319
330
17
100
AcDbEntity
  8
FP-Below
100
AcDbLine
 10
441.0047113507553
 20
730.7084962327781
 30
0.0
 11
441.0027767158699
 21
763.833273914991
 31
0.0
  0
LINE
  5
31A
330
17
100
AcDbEntity
  8
FP-Below
100
AcDbLine
 10
441.00756543295756
 20
631.5832739508396
 30
0.0
 11
441.005630784437
 21
688.7084962327781
 31
0.0
  0
LINE
  5
31B
330
17
100
AcDbEntity
  8
FP-Below
100
AcDbLine
 10
447.5038520200633
 20
688.7084287690514
 30
0.0
 11
441.005630784437
 21
688.7084962327781
 31
0.0
  0
LINE
  5
31C
330
17
100
AcDbEntity
  8
FP-Roof
100
AcDbLine
 10
444.35899626245373
 20
528.4149926968696
 30
0.0
 11
444.35951351836775
 21
376.23972420990276
 31
0.0
  0
LWPOLYLINE
  5
31D
330
17
100
AcDbEntity
  8
FP-Roof
100
AcDbPolyline
 90
2
 70
0
 10
623.5122537412608
 20
526.1656473599276
 10
444.35899626245373
 20
528.4149926968696
  0
LWPOLYLINE
  5
31E
330
17
100
AcDbEntity
  8
FP-Roof
100
AcDbPolyline
 90
2
 70
0
 10
444.35951351836775
 20
376.23972420990276
 10
446.61012197695163
 20
197.2328843648993
  0
LWPOLYLINE
  5
31F
330
17
100
AcDbEntity
  8
FP-Roof
100
AcDbPolyline
 90
2
 70
0
 10
467.9999831516416
 20
175.8430231902098
 10
446.61012197695163
 20
197.2328843648993
  0
LINE
  5
320
330
17
100
AcDbEntity
  8
FP-Below
100
AcDbLine
 10
447.5038520200633
 20
659.9932704303055
 30
0.0
 11
447.5038520200633
 21
684.2085353337488
 31
0.0
  0
LINE
  5
321
330
17
100
AcDbEntity
  8
FP-Below
100
AcDbLine
 10
447.5038520200633
 20
659.9932704303055
 30
0.0
 11
522.3047066747913
 21
659.9960790487485
 31
0.0
  0
LINE
  5
322
330
17
100
AcDbEntity
  8
FP-Below
100
AcDbLine
 10
471.5155356176929
 20
684.2085353337488
 30
0.0
 11
447.5038520200633
 21
684.2085353337488
 31
0.0
  0
LINE
  5
323
330
17
100
AcDbEntity
  8
FP-Below
100
AcDbLine
 10
447.5155356177074
 20
688.7084287690514
 30
0.0
 11
471.5155356176929
 21
688.7085353337488
 31
0.0
  0
LINE
  5
324
330
17
100
AcDbEntity
  8
FP-Below
100
AcDbLine
 10
447.5155356177074
 20
730.7084287690514
 30
0.0
 11
471.5038593439185
 21
730.7084962327781
 31
0.0
  0
LINE
  5
325
330
17
100
AcDbEntity
  8
FP-Below
100
AcDbLine
 10
497.7298194237828
 20
102.00008068263014
 30
0.0
 11
448.99755925002137
 21
102.00005568387678
 31
0.0
  0
LINE
  5
326
330
17
100
AcDbEntity
  8
FP-Below
100
AcDbLine
 10
448.99755925002137
 20
102.00005568387678
 30
0.0
 11
448.99755925002137
 21
158.49999361229948
 31
0.0
  0
LINE
  5
327
330
17
100
AcDbEntity
  8
FP-Below
100
AcDbLine
 10
451.99668239078346
 20
206.49993585853645
 30
0.0
 11
448.99757337627125
 21
206.49993585853645
 31
0.0
  0
LINE
  5
328
330
17
100
AcDbEntity
  8
FP-Below
100
AcDbLine
 10
448.99757337627125
 20
206.49993585853645
 30
0.0
 11
448.99757337627125
 21
512.0008316029916
 31
0.0
  0
LINE
  5
329
330
17
100
AcDbEntity
  8
FP-Below
100
AcDbLine
 10
623.0935952957461
 20
512.0008316029916
 30
0.0
 11
448.99757337627125
 21
512.0008316029916
 31
0.0
  0
LINE
  5
32A
330
17
100
AcDbEntity
  8
FP-Below
100
AcDbLine
 10
559.5938270951538
 20
518.4992678568497
 30
0.0
 11
448.99757337627125
 21
518.4988399346284
 31
0.0
  0
LINE
  5
32B
330
17
100
AcDbEntity
  8
FP-Below
100
AcDbLine
 10
448.99757337627125
 20
518.4988399346284
 30
0.0
 11
448.99757337627125
 21
653.4933251832981
 31
0.0
  0
LINE
  5
32C
330
17
100
AcDbEntity
  8
FP-Below
100
AcDbLine
 10
448.99757337627125
 20
653.4933251832981
 30
0.0
 11
522.3047066747913
 21
653.4960790443829
 31
0.0
  0
LINE
  5
32D
330
17
100
AcDbEntity
  8
FP-Below
100
AcDbLine
 10
451.9945054558011
 20
831.8332739497309
 30
0.0
 11
451.9931536816166
 21
767.0823836987975
 31
0.0
  0
LINE
  5
32E
330
17
100
AcDbEntity
  8
FP-Below
100
AcDbLine
 10
451.9931536816166
 20
767.0823836987975
 30
0.0
 11
479.7495207467018
 21
767.0823921186193
 31
0.0
  0
LINE
  5
32F
330
17
100
AcDbEntity
  8
FP-Below
100
AcDbLine
 10
451.99668239078346
 20
206.49993585853645
 30
0.0
 11
451.99668239078346
 21
158.49999361229948
 31
0.0
  0
LINE
  5
330
330
17
100
AcDbEntity
  8
FP-Below
100
AcDbLine
 10
451.99749080020956
 20
974.8332739497282
 30
0.0
 11
452.0019930709259
 21
903.8332739497318
 31
0.0
  0
LWPOLYLINE
  5
331
330
17
100
AcDbEntity
  8
FP-Below
100
AcDbPolyline
 90
4
 70
0
 10
452.0019930709259
 20
831.83327394973
 10
464.0019930709259
 20
831.83327394973
 10
464.0019930709259
 20
903.83327394973
 10
452.0019930709259
 20
903.8332739497318
  0
LWPOLYLINE
  5
332
330
17
100
AcDbEntity
  8
FP-Note
100
AcDbPolyline
 90
4
 70
0
 10
459.7346523726592
 20
621.8090118178416
 10
459.7346670204006
 20
609.8090118178507
 10
461.73466702038604
 20
609.8090362307566
 10
459.7346523726592
 20
621.8090118178416
  0
LWPOLYLINE
  5
333
330
17
100
AcDbEntity
  8
FP-Note
100
AcDbPolyline
 90
4
 70
0
 10
459.7346523726592
 20
652.7725094440107
 10
459.7346670204006
 20
664.7725094440016
 10
461.73466702038604
 20
664.7724850310956
 10
459.7346523726592
 20
652.7725094440107
  0
LWPOLYLINE
  5
334
330
17
100
AcDbEntity
  8
FP-Roof
100
AcDbPolyline
 90
6
 70
0
 10
467.9974908002114
 20
783.0824414526005
 10
653.9975733764823
 20
783.0824414526005
 10
653.9975733764823
 20
680.500089098552
 10
743.9975733764895
 20
680.5000890985657
 10
743.9975733764895
 20
491.4998586895963
 10
658.1784572012311
 20
491.49944389995653
  0
LINE
  5
335
330
17
100
AcDbEntity
  8
FP-Below
100
AcDbLine
 10
471.5038593439185
 20
735.2084962327781
 30
0.0
 11
471.5038520200633
 21
756.0823906726464
 31
0.0
  0
LINE
  5
336
330
17
100
AcDbEntity
  8
FP-Below
100
AcDbLine
 10
471.50385202007055
 20
756.0823716344848
 30
0.0
 11
479.7495168491314
 21
756.0823927026167
 31
0.0
  0
LINE
  5
337
330
17
100
AcDbEntity
  8
FP-Below
100
AcDbLine
 10
471.5038593439185
 20
730.7084962327781
 30
0.0
 11
471.5038593439185
 21
735.2084962327781
 31
0.0
  0
LINE
  5
338
330
17
100
AcDbEntity
  8
FP-Below
100
AcDbLine
 10
471.5155356176929
 20
688.7085353337488
 30
0.0
 11
471.5155356176929
 21
684.2085353337488
 31
0.0
  0
LINE
  5
339
330
17
100
AcDbEntity
  8
FP-Below
100
AcDbLine
 10
479.74951684917505
 20
767.0823927076262
 30
0.0
 11
479.7495168491314
 21
756.0823927076262
 31
0.0
  0
LWPOLYLINE
  5
33A
330
17
100
AcDbEntity
  8
FP-Below
100
AcDbPolyline
 90
3
 70
0
 38
-0.3403031765569822
 10
486.7298194237828
 20
91.00008909854841
 10
486.7298194237828
 20
73.00008909854841
 10
518.2493553466284
 20
73.00008909851203
  0
LWPOLYLINE
  5
33B
330
17
100
AcDbEntity
  8
FP-Note
100
AcDbPolyline
 90
4
 70
0
 10
495.5931122780912
 20
564.0045582636158
 10
495.5931269258326
 20
552.0045582636249
 10
515.5931269258181
 20
552.0045826765308
 10
495.5931122780912
 20
564.0045582636158
  0
LWPOLYLINE
  5
33C
330
17
100
AcDbEntity
  8
FP-Below
100
AcDbPolyline
 90
3
 70
0
 38
-0.3403031765569822
 10
497.7298194237828
 20
102.00008909854841
 10
497.7298194237828
 20
84.00008909854841
 10
518.2493553466284
 20
84.00008909852295
  0
LWPOLYLINE
  5
33D
330
17
100
AcDbEntity
  8
FP-Note
100
AcDbPolyline
 90
4
 70
0
 10
507.1642535059673
 20
721.5121238842348
 10
507.1642681537087
 20
733.5121238842257
 10
527.1642681536941
 20
733.5120994713197
 10
507.1642535059673
 20
721.5121238842348
  0
LWPOLYLINE
  5
33E
330
17
100
AcDbEntity
  8
FP-Roof Detail
100
AcDbPolyline
 90
2
 70
0
 10
556.7475733764823
 20
588.7490798092522
 10
508.2058925548081
 20
637.2907606309261
  0
LWPOLYLINE
  5
33F
330
17
100
AcDbEntity
  8
FP-Roof Detail
100
AcDbPolyline
 90
2
 70
0
 10
556.7475733764823
 20
685.8324414526005
 10
508.2058925548081
 20
637.2907606309261
  0
LINE
  5
340
330
17
100
AcDbEntity
  8
FP-Below
100
AcDbLine
 10
515.749516849175
 20
767.0823931625118
 30
0.0
 11
515.7495168491387
 21
756.0823931625118
 31
0.0
  0
LINE
  5
341
330
17
100
AcDbEntity
  8
FP-Below
100
AcDbLine
 10
515.7495168491532
 20
756.082405025335
 30
0.0
 11
560.2494428110458
 21
756.0824219749584
 31
0.0
  0
LINE
  5
342
330
17
100
AcDbEntity
  8
FP-Below
100
AcDbLine
 10
515.7495207467236
 20
767.082403745967
 30
0.0
 11
560.2494389134754
 21
767.0824198939836
 31
0.0
  0
LINE
  5
343
330
17
100
AcDbEntity
  8
FP-Below
100
AcDbLine
 10
518.2493553466284
 20
73.00008909838834
 30
0.0
 11
518.2493553466284
 21
84.00008909838834
 31
0.0
  0
LINE
  5
344
330
17
100
AcDbEntity
  8
FP-Below
100
AcDbLine
 10
522.3045875401458
 20
659.9971787949316
 30
0.0
 11
522.3045875401458
 21
653.4971787949316
 31
0.0
  0
LWPOLYLINE
  5
345
330
17
100
AcDbEntity
  8
FP-Note
100
AcDbPolyline
 90
4
 70
0
 10
532.6163750443338
 20
637.4788482270819
 10
544.6163750443247
 20
637.4788335793392
 10
544.6163506314188
 20
635.4788335793542
 10
532.6163750443338
 20
637.4788482270819
  0
LINE
  5
346
330
17
100
AcDbEntity
  8
FP-Below
100
AcDbLine
 10
552.3045875401458
 20
655.4971787949316
 30
0.0
 11
552.3045875401458
 21
653.4960790443829
 31
0.0
  0
LINE
  5
347
330
17
100
AcDbEntity
  8
FP-Below
100
AcDbLine
 10
552.3045875401458
 20
653.4971787906707
 30
0.0
 11
559.5938270951538
 21
653.4974395166955
 31
0.0
  0
LINE
  5
348
330
17
100
AcDbEntity
  8
FP-Below
100
AcDbLine
 10
580.3045875401458
 20
655.4971787949316
 30
0.0
 11
552.3045875401458
 21
655.4971787949316
 31
0.0
  0
LINE
  5
349
330
17
100
AcDbEntity
  8
FP-Below
100
AcDbLine
 10
552.3045875401458
 20
659.9971787949316
 30
0.0
 11
552.3045875401458
 21
657.9971787949316
 31
0.0
  0
LINE
  5
34A
330
17
100
AcDbEntity
  8
FP-Below
100
AcDbLine
 10
552.3045875401458
 20
657.9971787949316
 30
0.0
 11
580.3045875401458
 21
657.9971787949316
 31
0.0
  0
LINE
  5
34B
330
17
100
AcDbEntity
  8
FP-Below
100
AcDbLine
 10
552.3047066747913
 20
659.9971787993009
 30
0.0
 11
627.0935888158656
 21
659.9998538940445
 31
0.0
  0
LINE
  5
34C
330
17
100
AcDbEntity
  8
FP-Below
100
AcDbLine
 10
554.2493553465993
 20
73.00008909838834
 30
0.0
 11
554.2493553465993
 21
84.00008909838834
 31
0.0
  0
LWPOLYLINE
  5
34D
330
17
100
AcDbEntity
  8
FP-Below
100
AcDbPolyline
 90
2
 70
0
 38
-0.3403031765569822
 10
554.2493553465993
 20
73.0000890984793
 10
583.7475733769479
 20
73.00008909841745
  0
LWPOLYLINE
  5
34E
330
17
100
AcDbEntity
  8
FP-Below
100
AcDbPolyline
 90
2
 70
0
 38
-0.3403031765569822
 10
554.2493553465993
 20
84.00008909848657
 10
583.7475733769479
 20
84.00008909841745
  0
LWPOLYLINE
  5
34F
330
17
100
AcDbEntity
  8
FP-Roof
100
AcDbPolyline
 90
2
 70
0
 10
556.7475733764823
 20
588.7490798092522
 10
585.4975733764823
 20
559.9991993969024
  0
LWPOLYLINE
  5
350
330
17
100
AcDbEntity
  8
FP-Roof
100
AcDbPolyline
 90
2
 70
0
 10
556.7475733764823
 20
685.8324414526005
 10
653.9975733764823
 20
783.0824414526005
  0
LWPOLYLINE
  5
351
330
17
100
AcDbEntity
  8
FP-Below
100
AcDbPolyline
 90
5
 70
0
 10
559.5938270951538
 20
518.4992678568497
 10
559.5938270951538
 20
536.5000273366095
 10
563.0938270951538
 20
536.5000273366095
 10
563.0938270951538
 20
518.4989649788877
 10
627.0938340934172
 20
518.499366025736
  0
LWPOLYLINE
  5
352
330
17
100
AcDbEntity
  8
FP-Below
100
AcDbPolyline
 90
4
 70
0
 10
559.5938270951538
 20
653.4974395166955
 10
559.5938270951538
 20
635.4998538984128
 10
563.0938270951538
 20
635.4998538984128
 10
563.0938270951538
 20
653.4975185968033
  0
LINE
  5
353
330
17
100
AcDbEntity
  8
FP-Below
100
AcDbLine
 10
560.2494428110895
 20
767.0824219799679
 30
0.0
 11
560.2494428110458
 21
756.0824219799679
 31
0.0
  0
LINE
  5
354
330
17
100
AcDbEntity
  8
FP-Below
100
AcDbLine
 10
563.0938270951538
 20
653.4975647068586
 30
0.0
 11
627.0938270951538
 21
653.49985389841
 31
0.0
  0
LINE
  5
355
330
17
100
AcDbEntity
  8
FP-Below
100
AcDbLine
 10
580.3045875401458
 20
657.9971787949316
 30
0.0
 11
580.3045875401458
 21
655.4971787949316
 31
0.0
  0
LINE
  5
356
330
17
100
AcDbEntity
  8
FP-Below
100
AcDbLine
 10
583.7475733769479
 20
73.00008909841745
 30
0.0
 11
583.7475733769479
 21
84.00008909841745
 31
0.0
  0
LWPOLYLINE
  5
357
330
17
100
AcDbEntity
  8
FP-Roof
100
AcDbPolyline
 90
3
 70
0
 10
585.4975733764823
 20
612.000089098542
 10
584.4975733764823
 20
585.9996442477222
 10
585.4975733764823
 20
559.9991993969024
  0
LWPOLYLINE
  5
358
330
17
100
AcDbEntity
  8
FP-Roof Detail
100
AcDbPolyline
 90
2
 70
0
 10
649.4973157067234
 20
585.9998314287875
 10
584.4975733764823
 20
585.9998314287875
  0
LWPOLYLINE
  5
359
330
17
100
AcDbEntity
  8
FP-Roof
100
AcDbPolyline
 90
4
 70
0
 10
585.4975733764823
 20
612.000089098542
 10
675.4975733764895
 20
612.0000890985557
 10
675.4975733764895
 20
559.9995737590207
 10
585.4975733764823
 20
559.9991993969024
  0
LWPOLYLINE
  5
35A
330
17
100
AcDbEntity
  8
FP-Roof
100
AcDbPolyline
 90
2
 70
0
 10
653.9975733764823
 20
680.500089098552
 10
585.4975733764823
 20
612.000089098542
  0
LINE
  5
35B
330
17
100
AcDbEntity
  8
FP-Below
100
AcDbLine
 10
596.2494350158686
 20
767.082432649665
 30
0.0
 11
638.0900665865793
 21
767.0824414525623
 31
0.0
  0
LINE
  5
35C
330
17
100
AcDbEntity
  8
FP-Below
100
AcDbLine
 10
596.2494389134754
 20
767.0824235631908
 30
0.0
 11
596.2494389134317
 21
756.0824235631908
 31
0.0
  0
LINE
  5
35D
330
17
100
AcDbEntity
  8
FP-Below
100
AcDbLine
 10
596.249438913439
 20
756.0824354260103
 30
0.0
 11
627.0900665865793
 21
756.0824414525623
 31
0.0
  0
LWPOLYLINE
  5
35E
330
17
100
AcDbEntity
  8
FP-Note
100
AcDbPolyline
 90
4
 70
0
 10
600.6004245824697
 20
696.7310080286193
 10
612.6004245824606
 20
696.7309933808824
 10
612.6004001695655
 20
676.7309933808974
 10
600.6004245824697
 20
696.7310080286193
  0
LWPOLYLINE
  5
35F
330
17
100
AcDbEntity
  8
FP-Note
100
AcDbPolyline
 90
4
 70
0
 10
619.4294910868048
 20
577.0663835761256
 10
619.4294764390634
 20
565.0663835761347
 10
617.4294764390779
 20
565.0664079890407
 10
619.4294910868048
 20
577.0663835761256
  0
LWPOLYLINE
  5
360
330
17
100
AcDbEntity
  8
FP-Note
100
AcDbPolyline
 90
4
 70
0
 10
619.4294910868048
 20
592.0931283259379
 10
619.4294764390634
 20
604.0931283259288
 10
617.4294764390779
 20
604.0931039130228
 10
619.4294910868048
 20
592.0931283259379
  0
LWPOLYLINE
  5
361
330
17
100
AcDbEntity
  8
FP-Below
100
AcDbPolyline
 90
3
 70
0
 38
-0.3403031765569822
 10
651.2671092997352
 20
91.00008909854841
 10
651.2671092997352
 20
73.00008909854841
 10
619.7475733769188
 20
73.00008909841745
  0
LINE
  5
362
330
17
100
AcDbEntity
  8
FP-Below
100
AcDbLine
 10
619.7475733769188
 20
73.00008909841745
 30
0.0
 11
619.7475733769188
 21
84.00008909841745
 31
0.0
  0
LINE
  5
363
330
17
100
AcDbEntity
  8
FP-Below
100
AcDbLine
 10
619.7475733769188
 20
73.00008909841745
 30
0.0
 11
619.7475733769188
 21
84.00008909841745
 31
0.0
  0
LWPOLYLINE
  5
364
330
17
100
AcDbEntity
  8
FP-Below
100
AcDbPolyline
 90
3
 70
0
 38
-0.3403031765569822
 10
640.2671092997352
 20
102.00008909854841
 10
640.2671092997352
 20
84.00008909854841
 10
619.7475733769188
 20
84.00008909841745
  0
LINE
  5
365
330
17
100
AcDbEntity
  8
FP-Below
100
AcDbLine
 10
623.0935952957461
 20
512.0008316029916
 30
0.0
 11
623.0936131476501
 21
507.49950659014485
 31
0.0
  0
LINE
  5
366
330
17
100
AcDbEntity
  8
FP-Below
100
AcDbLine
 10
695.0935952957461
 20
507.4997921364693
 30
0.0
 11
623.0936131476501
 21
507.49950659014485
 31
0.0
  0
LWPOLYLINE
  5
367
330
17
100
AcDbEntity
  8
FP-Roof
100
AcDbPolyline
 90
2
 70
0
 10
623.5122537412608
 20
526.1656473599276
 10
658.1784572012311
 20
491.49944389995653
  0
LINE
  5
368
330
17
100
AcDbEntity
  8
FP-Below
100
AcDbLine
 10
627.0900665864992
 20
546.9166072843209
 30
0.0
 11
635.094868800139
 21
546.9164692821432
 31
0.0
  0
LINE
  5
369
330
17
100
AcDbEntity
  8
FP-Below
100
AcDbLine
 10
635.094868800139
 20
625.0831359485383
 30
0.0
 11
627.0900665864992
 21
625.0832739507196
 31
0.0
  0
LINE
  5
36A
330
17
100
AcDbEntity
  8
FP-Below
100
AcDbLine
 10
627.0900665865793
 20
756.0824414525623
 30
0.0
 11
627.0935888158656
 21
659.9998538940445
 31
0.0
  0
LINE
  5
36B
330
17
100
AcDbEntity
  8
FP-Below
100
AcDbLine
 10
627.0938270951538
 20
653.49985389841
 30
0.0
 11
627.094868800139
 21
625.0832739507196
 31
0.0
  0
LINE
  5
36C
330
17
100
AcDbEntity
  8
FP-Below
100
AcDbLine
 10
627.0938340934172
 20
518.4995290298275
 30
0.0
 11
627.0938340934681
 21
546.9166072843209
 31
0.0
  0
LINE
  5
36D
330
17
100
AcDbEntity
  8
FP-Below
100
AcDbLine
 10
635.094868800139
 20
546.9164692821432
 30
0.0
 11
635.0948683423139
 21
518.4994161630675
 31
0.0
  0
LWPOLYLINE
  5
36E
330
17
100
AcDbEntity
  8
FP-Below
100
AcDbPolyline
 90
2
 70
0
 10
635.0948683423139
 20
518.4994161630675
 10
695.0935952957461
 20
518.4997921364693
  0
LINE
  5
36F
330
17
100
AcDbEntity
  8
FP-Below
100
AcDbLine
 10
635.094868800139
 20
625.0831359485383
 30
0.0
 11
635.0948683423139
 21
653.4999540376557
 31
0.0
  0
LINE
  5
370
330
17
100
AcDbEntity
  8
FP-Below
100
AcDbLine
 10
717.0900665865793
 20
653.5000932239845
 30
0.0
 11
635.0948683423139
 21
653.4999540377903
 31
0.0
  0
LINE
  5
371
330
17
100
AcDbEntity
  8
FP-Below
100
AcDbLine
 10
638.0935952957607
 20
664.5001468206856
 30
0.0
 11
638.0900665865793
 21
664.5001468195942
 31
0.0
  0
LINE
  5
372
330
17
100
AcDbEntity
  8
FP-Below
100
AcDbLine
 10
638.0900665865793
 20
767.0824414525623
 30
0.0
 11
638.0935952957607
 21
664.5001468206856
 31
0.0
  0
LINE
  5
373
330
17
100
AcDbEntity
  8
FP-Below
100
AcDbLine
 10
638.0935952957607
 20
664.5001468206856
 30
0.0
 11
728.0900665865793
 21
664.5000932239845
 31
0.0
  0
LINE
  5
374
330
17
100
AcDbEntity
  8
FP-Below
100
AcDbLine
 10
640.2671092997352
 20
102.00008909854841
 30
0.0
 11
688.9975733762712
 21
102.00008909854841
 31
0.0
  0
LWPOLYLINE
  5
375
330
17
100
AcDbEntity
  8
FP-Roof Detail
100
AcDbPolyline
 90
2
 70
0
 10
675.4975733764895
 20
559.9995737590207
 10
649.4973157067234
 20
585.9998314287875
  0
LWPOLYLINE
  5
376
330
17
100
AcDbEntity
  8
FP-Roof Detail
100
AcDbPolyline
 90
2
 70
0
 10
675.4975733764895
 20
612.0000890985557
 10
649.4973157067234
 20
585.9998314287882
  0
LINE
  5
377
330
17
100
AcDbEntity
  8
FP-Below
100
AcDbLine
 10
699.9975733762712
 20
91.00008909854841
 30
0.0
 11
651.2671092997352
 21
91.00008909854841
 31
0.0
  0
LWPOLYLINE
  5
378
330
17
100
AcDbEntity
  8
FP-Note
100
AcDbPolyline
 90
4
 70
0
 10
658.9635680023603
 20
584.6130230889107
 10
670.9635680023512
 20
584.613008441168
 10
670.9635435894452
 20
582.613008441183
 10
658.9635680023603
 20
584.6130230889107
  0
LWPOLYLINE
  5
379
330
17
100
AcDbEntity
  8
FP-Note
100
AcDbPolyline
 90
4
 70
0
 10
664.0522282423772
 20
640.0677706603724
 10
664.0522428901186
 20
652.0677706603633
 10
684.052242890104
 20
652.0677462474573
 10
664.0522282423772
 20
640.0677706603724
  0
LWPOLYLINE
  5
37A
330
17
100
AcDbEntity
  8
FP-Roof
100
AcDbPolyline
 90
2
 70
0
 10
675.4975733764895
 20
559.9995737590207
 10
743.9972884471008
 20
491.4998586884112
  0
LWPOLYLINE
  5
37B
330
17
100
AcDbEntity
  8
FP-Roof
100
AcDbPolyline
 90
2
 70
0
 10
675.4975733764895
 20
612.0000890985557
 10
743.9975733765004
 20
680.5000890985657
  0
LINE
  5
37C
330
17
100
AcDbEntity
  8
FP-Below
100
AcDbLine
 10
688.9975733762712
 20
102.00008909854841
 30
0.0
 11
688.9975733762712
 21
115.00098008402165
 31
0.0
  0
LINE
  5
37D
330
17
100
AcDbEntity
  8
FP-Below
100
AcDbLine
 10
688.9975733762712
 20
115.00098008402165
 30
0.0
 11
699.9975733762712
 21
115.00098008402165
 31
0.0
  0
LWPOLYLINE
  5
37E
330
17
100
AcDbEntity
  8
FP-Below
100
AcDbPolyline
 90
4
 70
1
 38
-0.3403031765569822
 10
688.9975733762712
 20
246.9991981130761
 10
699.9975733762712
 20
246.9991981130761
 10
699.9975733762712
 20
223.00008909854932
 10
688.9975733762712
 20
223.00008909854932
  0
LWPOLYLINE
  5
37F
330
17
100
AcDbEntity
  8
FP-Below
100
AcDbPolyline
 90
4
 70
1
 38
-0.3403031765569822
 10
688.9975733762712
 20
379.0000890985493
 10
699.9975733762712
 20
379.0000890985493
 10
699.9975733762712
 20
355.00098008402256
 10
688.9975733762712
 20
355.00098008402256
  0
LWPOLYLINE
  5
380
330
17
100
AcDbEntity
  8
FP-Below
100
AcDbPolyline
 90
4
 70
0
 38
-0.3403031765569822
 10
700.0935952957461
 20
507.4997921364693
 10
700.0935952957461
 20
487.00098008402983
 10
689.0935952957461
 20
487.00098008402983
 10
689.0935952957461
 20
507.4997683409374
  0
LINE
  5
381
330
17
100
AcDbEntity
  8
FP-Below
100
AcDbLine
 10
728.0900665865793
 20
507.4997962619045
 30
0.0
 11
695.0935952957461
 21
507.4997921364693
 31
0.0
  0
LINE
  5
382
330
17
100
AcDbEntity
  8
FP-Below
100
AcDbLine
 10
717.0900665865793
 20
518.4997962619045
 30
0.0
 11
695.0935952957461
 21
518.4997921364693
 31
0.0
  0
LINE
  5
383
330
17
100
AcDbEntity
  8
FP-Below
100
AcDbLine
 10
699.9975733762712
 20
115.00098008402165
 30
0.0
 11
699.9975733762712
 21
91.00008909854841
 31
0.0
  0
LWPOLYLINE
  5
384
330
17
100
AcDbEntity
  8
FP-Note
100
AcDbPolyline
 90
4
 70
0
 10
708.4011615569289
 20
592.7512944384439
 10
720.4011615569198
 20
592.751279790707
 10
720.4011371440247
 20
572.751279790722
 10
708.4011615569289
 20
592.7512944384439
  0
LINE
  5
385
330
17
100
AcDbEntity
  8
FP-Below
100
AcDbLine
 10
717.090066586572
 20
555.9993628419479
 30
0.0
 11
717.0900665865793
 21
518.4997962619045
 31
0.0
  0
LINE
  5
386
330
17
100
AcDbEntity
  8
FP-Below
100
AcDbLine
 10
717.090066586572
 20
555.9993628419479
 30
0.0
 11
728.090066586572
 21
555.9993628419479
 31
0.0
  0
LINE
  5
387
330
17
100
AcDbEntity
  8
FP-Below
100
AcDbLine
 10
717.0900665865793
 20
653.5000932239845
 30
0.0
 11
717.0900665865793
 21
615.9993628419497
 31
0.0
  0
LINE
  5
388
330
17
100
AcDbEntity
  8
FP-Below
100
AcDbLine
 10
717.0900665865793
 20
615.9993628419497
 30
0.0
 11
728.0900665865793
 21
615.9993628419497
 31
0.0
  0
LINE
  5
389
330
17
100
AcDbEntity
  8
FP-Below
100
AcDbLine
 10
728.090066586572
 20
555.9993628419479
 30
0.0
 11
728.0900665865793
 21
507.4997962619045
 31
0.0
  0
LINE
  5
38A
330
17
100
AcDbEntity
  8
FP-Below
100
AcDbLine
 10
728.0900665865793
 20
664.5000932239845
 30
0.0
 11
728.0900665865793
 21
615.9993628419497
 31
0.0
  0
ENDSEC
  0
SECTION
  2
OBJECTS
  0
DICTIONARY
  5
A
330
0
100
AcDbDictionary
280
0
281
1
  3
ACAD_COLOR
350
B
  3
ACAD_GROUP
350
C
  3
ACAD_LAYOUT
350
D
  3
ACAD_MATERIAL
350
E
  3
ACAD_MLEADERSTYLE
350
F
  3
ACAD_MLINESTYLE
350
10
  3
ACAD_PLOTSETTINGS
350
11
  3
ACAD_PLOTSTYLENAME
350
12
  3
ACAD_SCALELIST
350
14
  3
ACAD_TABLESTYLE
350
15
  3
ACAD_VISUALSTYLE
350
16
  3
EZDXF_META
350
2D
  0
DICTIONARY
  5
B
330
A
100
AcDbDictionary
280
0
281
1
  0
DICTIONARY
  5
C
330
A
100
AcDbDictionary
280
0
281
1
  0
DICTIONARY
  5
D
330
A
100
AcDbDictionary
280
0
281
1
  3
Model
350
1A
  3
Layout1
350
1E
  0
DICTIONARY
  5
E
330
A
100
AcDbDictionary
280
0
281
1
  3
ByBlock
350
1F
  3
ByLayer
350
20
  3
Global
350
21
  0
DICTIONARY
  5
F
330
A
100
AcDbDictionary
280
0
281
1
  3
Standard
350
2C
  0
DICTIONARY
  5
10
330
A
100
AcDbDictionary
280
0
281
1
  3
Standard
350
22
  0
DICTIONARY
  5
11
330
A
100
AcDbDictionary
280
0
281
1
  0
ACDBDICTIONARYWDFLT
  5
12
330
A
100
AcDbDictionary
280
0
281
1
  3
Normal
350
13
100
AcDbDictionaryWithDefault
340
13
  0
ACDBPLACEHOLDER
  5
13
330
12
  0
DICTIONARY
  5
14
330
A
100
AcDbDictionary
280
0
281
1
  0
DICTIONARY
  5
15
330
A
100
AcDbDictionary
280
0
281
1
  0
DICTIONARY
  5
16
330
A
100
AcDbDictionary
280
0
281
1
  0
LAYOUT
  5
1A
330
D
100
AcDbPlotSettings
  1

  2
Adobe PDF
  4
A3
  6

 40
7.5
 41
20.0
 42
7.5
 43
20.0
 44
420.0
 45
297.0
 46
0.0
 47
0.0
 48
0.0
 49
0.0
140
0.0
141
0.0
142
1.0
143
1.0
 70
1024
 72
1
 73
0
 74
5
  7

 75
16
 76
0
 77
2
 78
300
147
1.0
148
0.0
149
0.0
100
AcDbLayout
  1
Model
 70
1
 71
0
 10
0.0
 20
0.0
 11
420.0
 21
297.0
 12
0.0
 22
0.0
 32
0.0
 14
1e+20
 24
1e+20
 34
1e+20
 15
-1e+20
 25
-1e+20
 35
-1e+20
146
0.0
 13
0.0
 23
0.0
 33
0.0
 16
1.0
 26
0.0
 36
0.0
 17
0.0
 27
1.0
 37
0.0
 76
1
330
17
  0
LAYOUT
  5
1E
330
D
100
AcDbPlotSettings
  1

  2
Adobe PDF
  4
A3
  6

 40
7.5
 41
20.0
 42
7.5
 43
20.0
 44
420.0
 45
297.0
 46
0.0
 47
0.0
 48
0.0
 49
0.0
140
0.0
141
0.0
142
1.0
143
1.0
 70
0
 72
1
 73
0
 74
5
  7

 75
16
 76
0
 77
2
 78
300
147
1.0
148
0.0
149
0.0
100
AcDbLayout
  1
Layout1
 70
1
 71
1
 10
0.0
 20
0.0
 11
420.0
 21
297.0
 12
0.0
 22
0.0
 32
0.0
 14
1e+20
 24
1e+20
 34
1e+20
 15
-1e+20
 25
-1e+20
 35
-1e+20
146
0.0
 13
0.0
 23
0.0
 33
0.0
 16
1.0
 26
0.0
 36
0.0
 17
0.0
 27
1.0
 37
0.0
 76
1
330
1B
  0
MATERIAL
  5
1F
102
{ACAD_REACTORS
330
E
102
}
330
E
100
AcDbMaterial
  1
ByBlock
  2

 70
0
 40
1.0
 71
1
 41
1.0
 91
-1023410177
 42
1.0
 72
1
  3

 73
1
 74
1
 75
1
 44
0.5
 73
0
 45
1.0
 46
1.0
 77
1
  4

 78
1
 79
1
170
1
 48
1.0
171
1
  6

172
1
173
1
174
1
140
1.0
141
1.0
175
1
  7

176
1
177
1
178
1
143
1.0
179
1
  8

270
1
271
1
272
1
145
1.0
146
1.0
273
1
  9

274
1
275
1
276
1
 42
1.0
 72
1
  3

 73
1
 74
1
 75
1
 94
63
  0
MATERIAL
  5
20
102
{ACAD_REACTORS
330
E
102
}
330
E
100
AcDbMaterial
  1
ByLayer
  2

 70
0
 40
1.0
 71
1
 41
1.0
 91
-1023410177
 42
1.0
 72
1
  3

 73
1
 74
1
 75
1
 44
0.5
 73
0
 45
1.0
 46
1.0
 77
1
  4

 78
1
 79
1
170
1
 48
1.0
171
1
  6

172
1
173
1
174
1
140
1.0
141
1.0
175
1
  7

176
1
177
1
178
1
143
1.0
179
1
  8

270
1
271
1
272
1
145
1.0
146
1.0
273
1
  9

274
1
275
1
276
1
 42
1.0
 72
1
  3

 73
1
 74
1
 75
1
 94
63
  0
MATERIAL
  5
21
102
{ACAD_REACTORS
330
E
102
}
330
E
100
AcDbMaterial
  1
Global
  2

 70
0
 40
1.0
 71
1
 41
1.0
 91
-1023410177
 42
1.0
 72
1
  3

 73
1
 74
1
 75
1
 44
0.5
 73
0
 45
1.0
 46
1.0
 77
1
  4

 78
1
 79
1
170
1
 48
1.0
171
1
  6

172
1
173
1
174
1
140
1.0
141
1.0
175
1
  7

176
1
177
1
178
1
143
1.0
179
1
  8

270
1
271
1
272
1
145
1.0
146
1.0
273
1
  9

274
1
275
1
276
1
 42
1.0
 72
1
  3

 73
1
 74
1
 75
1
 94
63
  0
MLINESTYLE
  5
22
102
{ACAD_REACTORS
330
10
102
}
330
10
100
AcDbMlineStyle
  2
Standard
 70
0
  3

 62
256
 51
90.0
 52
90.0
 71
2
 49
0.5
 62
256
  6
BYLAYER
 49
-0.5
 62
256
  6
BYLAYER
  0
MLEADERSTYLE
  5
2C
102
{ACAD_REACTORS
330
F
102
}
330
F
100
AcDbMLeaderStyle
179
2
170
2
171
1
172
0
 90
2
 40
0.0
 41
0.0
173
1
 91
-1056964608
 92
-2
290
1
 42
2.0
291
1
 43
8.0
  3
Standard
 44
4.0
300

342
29
174
1
175
1
176
0
178
1
 93
-1056964608
 45
4.0
292
0
297
0
 46
4.0
 94
-1056964608
 47
1.0
 49
1.0
140
1.0
294
1
141
0.0
177
0
142
1.0
295
0
296
0
143
3.75
271
0
272
9
273
9
  0
DICTIONARY
  5
2D
330
A
100
AcDbDictionary
281
1
  3
CREATED_BY_EZDXF
350
2E
  3
WRITTEN_BY_EZDXF
350
38D
  0
DICTIONARYVAR
  5
2E
330
2D
100
DictionaryVariables
280
0
  1
1.1.4 @ 2024-01-19T12:24:38.260052+00:00
  0
DICTIONARYVAR
  5
38D
330
2D
100
DictionaryVariables
280
0
  1
1.1.4 @ 2024-01-19T12:24:48.736502+00:00
  0
ENDSEC
  0
EOF
